%
T1C.006F0S0
X011083Y007697
X010787Y007697
X010787Y007992
X011083Y007992
X010787Y008287
X011083Y008287
X011083Y008878
X010787Y008878
X011083Y009173
X010787Y009173
X011083Y009469
X012854Y009469
X012559Y009469
X011378Y009469
X011673Y009469
X012264Y009469
X012559Y009173
X012264Y009173
X011673Y009173
X011378Y009173
X01315Y009173
X012854Y009173
X011673Y008878
X01315Y008878
X012854Y008878
X011378Y008878
X012559Y008878
X011378Y008287
X012854Y008287
X012559Y008287
X01315Y008287
X012264Y007992
X01315Y007992
X011673Y007992
X011378Y007992
X012559Y007992
X012264Y007697
X012854Y007697
X012559Y007697
X011378Y007697
X011673Y007697
X015925Y007697
X016516Y007697
X01622Y007697
X017402Y007697
X016811Y007697
X017992Y007697
X017697Y007697
X017402Y007992
X016811Y007992
X016516Y007992
X015925Y007992
X01622Y007992
X017697Y007992
X018287Y007992
X01622Y008287
X015925Y008287
X016516Y008287
X018287Y008287
X017992Y008287
X017697Y008287
X01622Y008878
X017697Y008878
X015925Y008878
X016516Y008878
X016811Y008878
X018287Y008878
X017992Y008878
X017402Y009173
X017697Y009173
X016811Y009173
X015925Y009173
X018287Y009173
X016516Y009173
X01622Y009173
X017992Y009173
X017402Y009469
X017697Y009469
X01622Y009469
X016811Y009469
X016516Y009469
X017992Y009469
T2C.01F095S3
X0035Y0012
X00355Y00685
X003219Y00689
X003474Y009193
X003219Y010217
X003073Y010636
X003474Y011476
X004161Y011476
X004561Y010636
X00373Y010217
X004242Y010217
X005852Y009435
X0042Y00805
X005852Y007913
X00395Y00685
X003738Y005652
X005238Y005652
X0045Y0012
X005Y001187
X011Y0012
X01085Y006309
X006648Y007067
X008148Y007067
X010449Y00715
X009077Y007913
X009077Y009435
X009433Y009628
X010616Y009628
X01065Y009951
X006648Y010329
X008148Y010329
X011049Y010791
X01302Y012274
X013459Y011
X01265Y010791
X011701Y010781
X01225Y01015
X013051Y009951
X011701Y009819
X013533Y007719
X012577Y007179
X013451Y00715
X01225Y00652
X012916Y006309
X013098Y006067
X011838Y003873
X013344Y00269
X012792Y002667
X013Y0023
X015Y0012
X014Y0012
X0145Y0014
X0155Y0038
X0158Y0043
X013685Y004612
X015226Y005
X01545Y0052
X014549Y005459
X01385Y005459
X01555Y00675
X0153Y00705
X015Y00755
X014033Y007719
X0155Y00905
X01411Y00917
X014951Y009774
X015251Y010199
X01505Y01045
X015982Y010754
X015441Y011
X01505Y01155
X0157Y0132
X01535Y0146
X017579Y013319
X017307Y013007
X018114Y01115
X01675Y010781
X018126Y010754
X0178Y01075
X017451Y01074
X016384Y009913
X018526Y009913
X017049Y0099
X01675Y009819
X01665Y007441
X01735Y007382
X018402Y0071
X01735Y006419
X01665Y00626
X018Y00626
X0162Y00625
X0185Y00605
X018Y0059
X01695Y0058
X01715Y0048
X01755Y0043
X016577Y004237
X016231Y00411
X016846Y002857
X018019Y002807
X0165Y0012
X018Y0012
X021Y0012
X0197Y001647
X0206Y00373
X01955Y0043
X02062Y00491
X01955Y00515
X01985Y0052
X02045Y00525
X01899Y0053
X020059Y005799
X019577Y006047
X0211Y0063
X02035Y00635
X02Y00655
X020299Y00685
X019577Y007008
X0211Y0074
X02065Y0074
X020299Y007951
X01985Y008
X01935Y00815
X018687Y008189
X0209Y0085
X019528Y008591
X019969Y008799
X02095Y0088
X02095Y0092
X019644Y0092
X019969Y009201
X0205Y009551
X019534Y00965
X020047Y00973
X02025Y01
X0196Y01005
X01993Y01005
X0211Y01075
X0211Y01135
X018775Y011892
X018868Y012966
X019098Y013455
X018691Y013685
X021011Y013943
X019531Y013974
X022819Y01435
X021809Y01415
X022819Y013951
X022651Y01368
X02312Y013477
X023421Y013476
X02255Y0125
X02305Y0121
X02135Y01185
X0214Y01155
X02135Y01115
X023499Y011141
X023106Y011141
X023499Y010748
X023106Y010748
X0213Y0105
X023499Y010354
X023106Y010354
X023106Y00996
X023499Y00996
X023499Y009567
X023106Y009567
X023499Y009173
X023106Y009173
X022041Y009
X023499Y008779
X023106Y008779
X023499Y008385
X023106Y008385
X021801Y007951
X0218Y00765
X023106Y007598
X023499Y007598
X02255Y0073
X023106Y007204
X023499Y007204
X0218Y00715
X0218Y00685
X023106Y006811
X023499Y006811
X023106Y006417
X023499Y006417
X023499Y006023
X023106Y006023
X022041Y005799
X023499Y005629
X023106Y005629
X0225Y00545
X023499Y005236
X023106Y005236
X023499Y004842
X023106Y004842
X022Y004
X0235Y0038
X022558Y003758
X0222Y00355
X023299Y00323
X02245Y00275
X02305Y0026
X02305Y0023
X0234Y00227
X02285Y00185
X0233Y0017
X02258Y00165
X022Y0012
X024674Y0012
X025Y0012
X0245Y00145
X0254Y0015
X0237Y00155
X0252Y00215
X025549Y002169
X024701Y002199
X0239Y00227
X025199Y002949
X025469Y003132
X0239Y00323
X025Y0037
X0247Y0037
X02605Y0037
X02405Y0044
X02468Y004842
X025074Y004842
X024287Y004842
X025468Y004842
X023893Y004842
X025862Y004842
X02468Y005236
X025074Y005236
X025468Y005236
X024287Y005236
X023893Y005236
X025862Y005236
X02468Y005629
X024287Y005629
X025074Y005629
X023893Y005629
X025862Y005629
X025468Y005629
X025074Y006023
X02468Y006023
X025468Y006023
X024287Y006023
X025862Y006023
X023893Y006023
X025468Y006417
X025074Y006417
X02468Y006417
X023893Y006417
X025862Y006417
X024287Y006417
X024287Y006811
X023893Y006811
X025468Y006811
X025074Y006811
X025862Y006811
X02468Y006811
X023893Y007204
X025468Y007204
X025074Y007204
X024287Y007204
X02468Y007204
X025862Y007204
X025468Y007598
X025074Y007598
X02468Y007598
X024287Y007598
X025862Y007598
X023893Y007598
X02468Y008385
X025468Y008385
X025074Y008385
X025862Y008385
X024287Y008385
X023893Y008385
X025468Y008779
X025074Y008779
X024287Y008779
X025862Y008779
X023893Y008779
X02468Y008779
X025468Y009173
X025862Y009173
X023893Y009173
X024287Y009173
X025074Y009173
X02468Y009173
X024287Y009567
X025468Y009567
X025074Y009567
X02468Y009567
X023893Y009567
X025862Y009567
X025074Y00996
X02468Y00996
X025468Y00996
X024287Y00996
X023893Y00996
X025862Y00996
X025074Y010354
X025468Y010354
X02468Y010354
X024287Y010354
X023893Y010354
X025862Y010354
X024287Y010748
X023893Y010748
X025074Y010748
X02468Y010748
X025468Y010748
X025862Y010748
X025074Y011141
X024287Y011141
X025862Y011141
X025468Y011141
X023893Y011141
X02468Y011141
X0261Y01145
X0251Y0119
X02485Y01215
X024299Y012199
X023722Y013434
X02615Y013497
X024299Y013701
X024618Y0139
X025581Y0139
X0238Y0139
X0259Y01395
X02435Y0141
X023976Y014201
X024618Y01435
X025581Y01435
X0238Y01445
X0242Y01445
X02609Y01449
X02732Y01441
X0262Y01415
X02751Y01415
X02665Y01395
X02753Y013702
X02715Y0137
X02685Y0137
X02645Y0137
X028652Y013299
X02865Y01297
X0281Y0122
X0284Y0122
X02775Y0121
X026649Y011141
X02783Y011141
X028224Y011141
X028617Y011141
X027436Y011141
X027043Y011141
X027043Y010748
X027436Y010748
X028224Y010748
X026649Y010748
X02783Y010748
X028617Y010748
X026649Y010354
X027043Y010354
X027436Y010354
X02783Y010354
X028617Y010354
X028224Y010354
X02783Y00996
X027436Y00996
X028617Y00996
X028224Y00996
X027043Y00996
X026649Y00996
X028617Y009567
X02783Y009567
X027436Y009567
X028224Y009567
X027043Y009567
X026649Y009567
X027436Y009173
X027043Y009173
X026649Y009173
X02783Y009173
X028224Y009173
X028617Y009173
X028224Y008779
X027436Y008779
X027043Y008779
X026649Y008779
X02783Y008779
X028617Y008779
X028224Y008385
X028617Y008385
X02783Y008385
X027436Y008385
X027043Y008385
X026649Y008385
X028617Y007598
X02783Y007598
X028224Y007598
X027436Y007598
X027043Y007598
X026649Y007598
X027043Y007204
X028617Y007204
X027436Y007204
X026649Y007204
X02783Y007204
X028224Y007204
X028617Y006811
X028224Y006811
X02783Y006811
X027436Y006811
X027043Y006811
X026649Y006811
X027436Y006417
X028224Y006417
X027043Y006417
X026649Y006417
X02783Y006417
X028617Y006417
X027436Y006023
X02783Y006023
X027043Y006023
X026649Y006023
X028617Y006023
X028224Y006023
X026649Y005629
X028224Y005629
X028617Y005629
X027436Y005629
X027043Y005629
X02783Y005629
X027436Y005236
X02783Y005236
X028617Y005236
X026649Y005236
X028224Y005236
X027043Y005236
X027043Y004842
X027436Y004842
X028617Y004842
X02783Y004842
X026649Y004842
X028224Y004842
X0285Y00405
X0273Y00395
X0282Y0038
X027Y003789
X0279Y00375
X02755Y00375
X02635Y003701
X0269Y003389
X027049Y002909
X02802Y002325
X02838Y002325
X0277Y00232
X027145Y002248
X02635Y002199
X027373Y002023
X026957Y001983
X0282Y00192
X02846Y001728
X027764Y001564
X027082Y001542
X027275Y001283
X0285Y0012
X027575Y001187
X0309Y0012
X03Y0012
X03025Y00145
X03118Y001828
X029056Y002086
X0291Y002386
X029026Y0027
X0287Y0038
X0293Y00395
X031Y00445
X0308Y0048
X029405Y004842
X029011Y004842
X0305Y005
X029011Y005236
X029405Y005236
X0306Y0054
X029405Y005629
X029011Y005629
X03075Y006
X029011Y006023
X029405Y006023
X03065Y0064
X029011Y006417
X029405Y006417
X03065Y0068
X029011Y006811
X029405Y006811
X0301Y007
X0304Y007
X03065Y0072
X029011Y007204
X029405Y007204
X0304Y0074
X029405Y007598
X029011Y007598
X0298Y0076
X03065Y0076
X03027Y00807
X0306Y00815
X029405Y008385
X029011Y008385
X030799Y0085
X0305Y00875
X029405Y008779
X029011Y008779
X0303Y0091
X0306Y0091
X029011Y009173
X029405Y009173
X0307Y0094
X029405Y009567
X029012Y009567
X03045Y00975
X0307Y00995
X029405Y00996
X029011Y00996
X029405Y010354
X029011Y010354
X0306Y0106
X029405Y010748
X029011Y010748
X030608Y011
X0302Y011
X029405Y011141
X029011Y011141
X030608Y012049
X0294Y01215
X02905Y01215
X029951Y012309
X02875Y01265
X029201Y01349
X029951Y01349
X02885Y01355
X03075Y01365
X03045Y0143
X03137Y014175
X032031Y01385
X03165Y0135
X032541Y0131
X033419Y012639
X032813Y01262
X032591Y012116
X0317Y01185
X03275Y0112
X032591Y010935
X03155Y0105
X032412Y01045
X031201Y010449
X0319Y010449
X033424Y010317
X032182Y010256
X032339Y009961
X03235Y0096
X03265Y0094
X03235Y00922
X033208Y0091
X03285Y00898
X032301Y0085
X0325Y0082
X03285Y00802
X032253Y007994
X03262Y0078
X0322Y007674
X03218Y007374
X0322Y007054
X03247Y00692
X033151Y006801
X0326Y0066
X031991Y006541
X033293Y006407
X032224Y00635
X03235Y00595
X03297Y00594
X032551Y005699
X03365Y0054
X0322Y0053
X0322Y00495
X0326Y0048
X032003Y00455
X03185Y00425
X0331Y0042
X033541Y00418
X03275Y00375
X0321Y00335
X03325Y00305
X03245Y0028
X03215Y0028
X03245Y00215
X0315Y0019
X032495Y001758
X03225Y00155
X032412Y001288
X0315Y0012
X034Y0012
X0348Y0013
X036117Y0037
X0358Y00405
X03535Y004858
X035935Y004866
X033933Y005907
X03515Y00605
X033759Y010946
X0337Y01145
X035939Y011541
X03535Y011541
X03402Y01155
X036524Y011537
X037122Y011531
X03765Y0056
X0383Y00545
X03755Y00525
X037124Y00487
X036514Y004868
X036532Y004405
X037373Y004297
X0362Y00402
X0362Y0034
X03765Y00295
X038226Y0024
X0367Y0015
X038014Y001414
X0375Y0014
X0365Y0012
X037276Y0012
X04065Y0012
X041Y0012
X039Y0012
X04045Y00155
X040087Y001746
X0395Y00175
X040612Y001812
X0402Y002122
X0387Y0022
X039842Y002392
X03968Y00275
X039Y006591
X040281Y006606
X039657Y006608
X038984Y009661
X041821Y012413
X042218Y012411
X0429Y01195
X041821Y011315
X042195Y011315
X0415Y0109
X042961Y01088
X042569Y010411
X04185Y010319
X042222Y009915
X042221Y008268
X042469Y007951
X041854Y007947
X042154Y007945
X041413Y007368
X04315Y0071
X041476Y006581
X041476Y006081
X042116Y005722
X042598Y005722
X0429Y0057
X042372Y00462
X04186Y00462
X04345Y00335
X0427Y0015
X043017Y001475
X0415Y0014
X0435Y0012
X041762Y001186
X04523Y0012
X0441Y0012
X046Y0012
X04555Y00125
X0445Y00125
X0446Y00175
X04545Y00495
X044441Y006171
X045799Y006359
X044098Y00662
X045295Y006855
X044098Y007244
X045289Y007266
X044449Y007665
X0441Y007719
X045607Y007861
X04378Y008199
X046116Y008321
X0441Y008681
X045793Y00964
X045159Y011276
X0443Y0117
X0463Y01215
X0466Y012136
X0481Y01125
X0486Y01125
X047303Y010793
X046526Y010134
X046921Y00997
X046553Y009628
X046981Y009242
X047329Y008817
X046446Y008323
X046806Y008311
X047137Y006673
X048187Y006469
X047541Y00638
X04655Y00635
X04625Y0063
X04861Y00599
X046904Y005177
X047652Y005177
X04735Y00515
X048465Y004992
X0462Y0049
X047009Y003488
X04805Y0018
X0475Y00145
X048Y0014
X047Y0012
X049Y0012
X050445Y004992
X048866Y006768
X049309Y008817
T3C.11811F069S658
X001181Y001181
X051319Y001181
M30
