*
*
G04 PADS9.1 Build Number: 384028 generated Gerber (RS-274-X) file*
G04 PC Version=2.1*
*
%IN "{TEX044}_TMDSCNCD28035r"*%
*
%MOIN*%
*
%FSLAX35Y35*%
*
*
*
*
G04 PC Standard Apertures*
*
*
G04 Thermal Relief Aperture macro.*
%AMTER*
1,1,$1,0,0*
1,0,$1-$2,0,0*
21,0,$3,$4,0,0,45*
21,0,$3,$4,0,0,135*
%
*
*
G04 Annular Aperture macro.*
%AMANN*
1,1,$1,0,0*
1,0,$2,0,0*
%
*
*
G04 Odd Aperture macro.*
%AMODD*
1,1,$1,0,0*
1,0,$1-0.005,0,0*
%
*
*
G04 PC Custom Aperture Macros*
*
*
*
*
*
*
G04 PC Aperture Table*
*
%ADD027C,0.01*%
%ADD028C,0.005*%
%ADD033C,0.008*%
%ADD042C,0.006*%
%ADD060C,0*%
*
*
*
*
G04 PC Circuitry*
G04 Layer Name {TEX044}_TMDSCNCD28035r - circuitry*
%LPD*%
*
*
G04 PC Custom Flashes*
G04 Layer Name {TEX044}_TMDSCNCD28035r - flashes*
%LPD*%
*
*
G04 PC Circuitry*
G04 Layer Name {TEX044}_TMDSCNCD28035r - circuitry*
%LPD*%
*
G54D27*
G01X1030000Y1038500D02*
Y1051500D01*
X1050000*
Y1038500*
X1030000*
X1047500Y1082500D02*
Y1079000D01*
X1045000*
Y1076000*
X1047500*
Y1072500*
X1027500*
Y1082500*
X1047500*
Y1079000*
X1045000*
Y1076000*
X1047500*
Y1072500*
X1027500*
Y1082500*
X1047500*
X1293580Y664184D02*
Y654341D01*
X1297670*
X1303466Y664184D02*
X1300739Y654341D01*
X1303466Y664184D02*
X1306193Y654341D01*
X1301761Y657622D02*
X1305170D01*
X1309261Y664184D02*
X1311989Y659497D01*
Y654341*
X1314716Y664184D02*
X1311989Y659497D01*
X1317784Y664184D02*
Y654341D01*
Y664184D02*
X1322216D01*
X1317784Y659497D02*
X1320511D01*
X1317784Y654341D02*
X1322216D01*
X1325284Y664184D02*
Y654341D01*
Y664184D02*
X1328352D01*
X1329375Y663716*
X1329716Y663247*
X1330057Y662309*
Y661372*
X1329716Y660434*
X1329375Y659966*
X1328352Y659497*
X1325284*
X1327670D02*
X1330057Y654341D01*
X1035078Y707903D02*
Y698060D01*
Y707903D02*
X1038146D01*
X1039169Y707435*
X1039509Y706966*
X1039850Y706028*
Y704622*
X1039509Y703685*
X1039169Y703216*
X1038146Y702747*
X1035078*
X1042919Y707903D02*
Y698060D01*
X1047691Y707903D02*
Y698060D01*
X1042919Y703216D02*
X1047691D01*
X1052805Y707903D02*
X1052123Y707435D01*
X1051441Y706497*
X1051100Y705560*
X1050759Y704153*
Y701810*
X1051100Y700403*
X1051441Y699466*
X1052123Y698528*
X1052805Y698060*
X1054169*
X1054850Y698528*
X1055532Y699466*
X1055873Y700403*
X1056214Y701810*
Y704153*
X1055873Y705560*
X1055532Y706497*
X1054850Y707435*
X1054169Y707903*
X1052805*
X1059282D02*
Y698060D01*
Y707903D02*
X1064055Y698060D01*
Y707903D02*
Y698060D01*
X1067123Y707903D02*
Y698060D01*
Y707903D02*
X1071555D01*
X1067123Y703216D02*
X1069850D01*
X1067123Y698060D02*
X1071555D01*
X1074964Y704622D02*
X1074623Y704153D01*
X1074964Y703685*
X1075305Y704153*
X1074964Y704622*
Y698997D02*
X1074623Y698528D01*
X1074964Y698060*
X1075305Y698528*
X1074964Y698997*
X1090646Y707903D02*
X1087237D01*
X1086896Y703685*
X1087237Y704153*
X1088259Y704622*
X1089282*
X1090305Y704153*
X1090987Y703216*
X1091328Y701810*
X1090987Y700872*
X1090646Y699466*
X1089964Y698528*
X1088941Y698060*
X1087919*
X1086896Y698528*
X1086555Y698997*
X1086214Y699935*
X1096441Y707903D02*
X1095419Y707435D01*
X1094737Y706028*
X1094396Y703685*
Y702278*
X1094737Y699935*
X1095419Y698528*
X1096441Y698060*
X1097123*
X1098146Y698528*
X1098828Y699935*
X1099169Y702278*
Y703685*
X1098828Y706028*
X1098146Y707435*
X1097123Y707903*
X1096441*
X1103941D02*
X1102919Y707435D01*
X1102578Y706497*
Y705560*
X1102919Y704622*
X1103600Y704153*
X1104964Y703685*
X1105987Y703216*
X1106669Y702278*
X1107009Y701341*
Y699935*
X1106669Y698997*
X1106328Y698528*
X1105305Y698060*
X1103941*
X1102919Y698528*
X1102578Y698997*
X1102237Y699935*
Y701341*
X1102578Y702278*
X1103259Y703216*
X1104282Y703685*
X1105646Y704153*
X1106328Y704622*
X1106669Y705560*
Y706497*
X1106328Y707435*
X1105305Y707903*
X1103941*
X1110419Y698997D02*
X1110078Y698528D01*
X1110419Y698060*
X1110759Y698528*
X1110419Y698997*
X1118259Y704622D02*
X1117919Y703216D01*
X1117237Y702278*
X1116214Y701810*
X1115873*
X1114850Y702278*
X1114169Y703216*
X1113828Y704622*
Y705091*
X1114169Y706497*
X1114850Y707435*
X1115873Y707903*
X1116214*
X1117237Y707435*
X1117919Y706497*
X1118259Y704622*
Y702278*
X1117919Y699935*
X1117237Y698528*
X1116214Y698060*
X1115532*
X1114509Y698528*
X1114169Y699466*
X1124737Y707903D02*
X1121328Y701341D01*
X1126441*
X1124737Y707903D02*
Y698060D01*
X1134282Y707903D02*
X1130873Y698060D01*
X1129509Y707903D02*
X1134282D01*
X1137691Y698997D02*
X1137350Y698528D01*
X1137691Y698060*
X1138032Y698528*
X1137691Y698997*
X1141441Y705560D02*
Y706028D01*
X1141782Y706966*
X1142123Y707435*
X1142805Y707903*
X1144169*
X1144850Y707435*
X1145191Y706966*
X1145532Y706028*
Y705091*
X1145191Y704153*
X1144509Y702747*
X1141100Y698060*
X1145873*
X1153714Y707903D02*
X1150305Y698060D01*
X1148941Y707903D02*
X1153714D01*
X1158828D02*
X1157805Y707435D01*
X1157123Y706028*
X1156782Y703685*
Y702278*
X1157123Y699935*
X1157805Y698528*
X1158828Y698060*
X1159509*
X1160532Y698528*
X1161214Y699935*
X1161555Y702278*
Y703685*
X1161214Y706028*
X1160532Y707435*
X1159509Y707903*
X1158828*
X1169055Y704622D02*
X1168714Y703216D01*
X1168032Y702278*
X1167009Y701810*
X1166669*
X1165646Y702278*
X1164964Y703216*
X1164623Y704622*
Y705091*
X1164964Y706497*
X1165646Y707435*
X1166669Y707903*
X1167009*
X1168032Y707435*
X1168714Y706497*
X1169055Y704622*
Y702278*
X1168714Y699935*
X1168032Y698528*
X1167009Y698060*
X1166328*
X1165305Y698528*
X1164964Y699466*
X1032578Y726403D02*
Y716560D01*
Y726403D02*
X1035305Y716560D01*
X1038032Y726403D02*
X1035305Y716560D01*
X1038032Y726403D02*
Y716560D01*
X1041100Y726403D02*
X1041441Y725935D01*
X1041782Y726403*
X1041441Y726872*
X1041100Y726403*
X1041441Y723122D02*
Y716560D01*
X1048941Y726403D02*
Y716560D01*
Y721716D02*
X1048259Y722653D01*
X1047578Y723122*
X1046555*
X1045873Y722653*
X1045191Y721716*
X1044850Y720310*
Y719372*
X1045191Y717966*
X1045873Y717028*
X1046555Y716560*
X1047578*
X1048259Y717028*
X1048941Y717966*
X1056100Y726403D02*
Y716560D01*
Y721716D02*
X1055419Y722653D01*
X1054737Y723122*
X1053714*
X1053032Y722653*
X1052350Y721716*
X1052009Y720310*
Y719372*
X1052350Y717966*
X1053032Y717028*
X1053714Y716560*
X1054737*
X1055419Y717028*
X1056100Y717966*
X1059169Y726403D02*
Y716560D01*
X1062237Y720310D02*
X1066328D01*
Y721247*
X1065987Y722185*
X1065646Y722653*
X1064964Y723122*
X1063941*
X1063259Y722653*
X1062578Y721716*
X1062237Y720310*
Y719372*
X1062578Y717966*
X1063259Y717028*
X1063941Y716560*
X1064964*
X1065646Y717028*
X1066328Y717966*
X1069396Y726403D02*
Y716560D01*
Y721716D02*
X1070078Y722653D01*
X1070759Y723122*
X1071782*
X1072464Y722653*
X1073146Y721716*
X1073487Y720310*
Y719372*
X1073146Y717966*
X1072464Y717028*
X1071782Y716560*
X1070759*
X1070078Y717028*
X1069396Y717966*
X1078259Y723122D02*
X1077578Y722653D01*
X1076896Y721716*
X1076555Y720310*
Y719372*
X1076896Y717966*
X1077578Y717028*
X1078259Y716560*
X1079282*
X1079964Y717028*
X1080646Y717966*
X1080987Y719372*
Y720310*
X1080646Y721716*
X1079964Y722653*
X1079282Y723122*
X1078259*
X1084055D02*
Y716560D01*
Y720310D02*
X1084396Y721716D01*
X1085078Y722653*
X1085759Y723122*
X1086782*
X1091555D02*
X1090873Y722653D01*
X1090191Y721716*
X1089850Y720310*
Y719372*
X1090191Y717966*
X1090873Y717028*
X1091555Y716560*
X1092578*
X1093259Y717028*
X1093941Y717966*
X1094282Y719372*
Y720310*
X1093941Y721716*
X1093259Y722653*
X1092578Y723122*
X1091555*
X1098032Y717028D02*
X1097691Y716560D01*
X1097350Y717028*
X1097691Y717497*
X1098032Y717028*
Y716091*
X1097691Y715153*
X1097350Y714685*
X1108941Y726403D02*
Y716560D01*
Y726403D02*
X1111669Y716560D01*
X1114396Y726403D02*
X1111669Y716560D01*
X1114396Y726403D02*
Y716560D01*
X1120191Y726403D02*
X1117464Y716560D01*
X1120191Y726403D02*
X1122919Y716560D01*
X1118487Y719841D02*
X1121896D01*
X1135873Y726403D02*
X1134850Y725935D01*
X1134169Y724528*
X1133828Y722185*
Y720778*
X1134169Y718435*
X1134850Y717028*
X1135873Y716560*
X1136555*
X1137578Y717028*
X1138259Y718435*
X1138600Y720778*
Y722185*
X1138259Y724528*
X1137578Y725935*
X1136555Y726403*
X1135873*
X1142009Y724060D02*
Y724528D01*
X1142350Y725466*
X1142691Y725935*
X1143373Y726403*
X1144737*
X1145419Y725935*
X1145759Y725466*
X1146100Y724528*
Y723591*
X1145759Y722653*
X1145078Y721247*
X1141669Y716560*
X1146441*
X1150191Y726403D02*
X1153941D01*
X1151896Y722653*
X1152919*
X1153600Y722185*
X1153941Y721716*
X1154282Y720310*
Y719372*
X1153941Y717966*
X1153259Y717028*
X1152237Y716560*
X1151214*
X1150191Y717028*
X1149850Y717497*
X1149509Y718435*
X1160759Y726403D02*
X1157350Y719841D01*
X1162464*
X1160759Y726403D02*
Y716560D01*
X1169623Y724997D02*
X1169282Y725935D01*
X1168259Y726403*
X1167578*
X1166555Y725935*
X1165873Y724528*
X1165532Y722185*
Y719841*
X1165873Y717966*
X1166555Y717028*
X1167578Y716560*
X1167919*
X1168941Y717028*
X1169623Y717966*
X1169964Y719372*
Y719841*
X1169623Y721247*
X1168941Y722185*
X1167919Y722653*
X1167578*
X1166555Y722185*
X1165873Y721247*
X1165532Y719841*
X1041078Y743028D02*
X1041759Y743497D01*
X1042782Y744903*
Y735060*
X1045850Y743028D02*
X1046532Y743497D01*
X1047555Y744903*
Y735060*
X1052328Y744903D02*
X1051305Y744435D01*
X1050964Y743497*
Y742560*
X1051305Y741622*
X1051987Y741153*
X1053350Y740685*
X1054373Y740216*
X1055055Y739278*
X1055396Y738341*
Y736935*
X1055055Y735997*
X1054714Y735528*
X1053691Y735060*
X1052328*
X1051305Y735528*
X1050964Y735997*
X1050623Y736935*
Y738341*
X1050964Y739278*
X1051646Y740216*
X1052669Y740685*
X1054032Y741153*
X1054714Y741622*
X1055055Y742560*
Y743497*
X1054714Y744435*
X1053691Y744903*
X1052328*
X1062896D02*
X1059487D01*
X1059146Y740685*
X1059487Y741153*
X1060509Y741622*
X1061532*
X1062555Y741153*
X1063237Y740216*
X1063578Y738810*
X1063237Y737872*
X1062896Y736466*
X1062214Y735528*
X1061191Y735060*
X1060169*
X1059146Y735528*
X1058805Y735997*
X1058464Y736935*
X1079600Y742560D02*
X1079259Y743497D01*
X1078578Y744435*
X1077896Y744903*
X1076532*
X1075850Y744435*
X1075169Y743497*
X1074828Y742560*
X1074487Y741153*
Y738810*
X1074828Y737403*
X1075169Y736466*
X1075850Y735528*
X1076532Y735060*
X1077896*
X1078578Y735528*
X1079259Y736466*
X1079600Y737403*
X1082669Y738810D02*
X1086759D01*
Y739747*
X1086419Y740685*
X1086078Y741153*
X1085396Y741622*
X1084373*
X1083691Y741153*
X1083009Y740216*
X1082669Y738810*
Y737872*
X1083009Y736466*
X1083691Y735528*
X1084373Y735060*
X1085396*
X1086078Y735528*
X1086759Y736466*
X1089828Y741622D02*
Y735060D01*
Y739747D02*
X1090850Y741153D01*
X1091532Y741622*
X1092555*
X1093237Y741153*
X1093578Y739747*
Y735060*
X1097669Y744903D02*
Y736935D01*
X1098009Y735528*
X1098691Y735060*
X1099373*
X1096646Y741622D02*
X1099032D01*
X1102441D02*
Y735060D01*
Y738810D02*
X1102782Y740216D01*
X1103464Y741153*
X1104146Y741622*
X1105169*
X1108237Y738810D02*
X1112328D01*
Y739747*
X1111987Y740685*
X1111646Y741153*
X1110964Y741622*
X1109941*
X1109259Y741153*
X1108578Y740216*
X1108237Y738810*
Y737872*
X1108578Y736466*
X1109259Y735528*
X1109941Y735060*
X1110964*
X1111646Y735528*
X1112328Y736466*
X1128009Y743497D02*
X1127328Y744435D01*
X1126305Y744903*
X1124941*
X1123919Y744435*
X1123237Y743497*
Y742560*
X1123578Y741622*
X1123919Y741153*
X1124600Y740685*
X1126646Y739747*
X1127328Y739278*
X1127669Y738810*
X1128009Y737872*
Y736466*
X1127328Y735528*
X1126305Y735060*
X1124941*
X1123919Y735528*
X1123237Y736466*
X1132100Y744903D02*
Y736935D01*
X1132441Y735528*
X1133123Y735060*
X1133805*
X1131078Y741622D02*
X1133464D01*
X1136873D02*
Y735060D01*
Y738810D02*
X1137214Y740216D01*
X1137896Y741153*
X1138578Y741622*
X1139600*
X1142669Y738810D02*
X1146759D01*
Y739747*
X1146419Y740685*
X1146078Y741153*
X1145396Y741622*
X1144373*
X1143691Y741153*
X1143009Y740216*
X1142669Y738810*
Y737872*
X1143009Y736466*
X1143691Y735528*
X1144373Y735060*
X1145396*
X1146078Y735528*
X1146759Y736466*
X1149828Y738810D02*
X1153919D01*
Y739747*
X1153578Y740685*
X1153237Y741153*
X1152555Y741622*
X1151532*
X1150850Y741153*
X1150169Y740216*
X1149828Y738810*
Y737872*
X1150169Y736466*
X1150850Y735528*
X1151532Y735060*
X1152555*
X1153237Y735528*
X1153919Y736466*
X1158009Y744903D02*
Y736935D01*
X1158350Y735528*
X1159032Y735060*
X1159714*
X1156987Y741622D02*
X1159373D01*
X1162818Y666513D02*
X1161455Y665888D01*
X1161455D02*
X1160545Y664013D01*
X1160545D02*
X1160091Y660887D01*
X1160091D02*
Y659012D01*
X1160091D02*
X1160545Y655887D01*
X1160545D02*
X1161455Y654012D01*
X1161455D02*
X1162818Y653387D01*
X1162818D02*
X1163727D01*
X1163727D02*
X1165091Y654012D01*
X1165091D02*
X1166000Y655887D01*
X1166000D02*
X1166455Y659012D01*
X1166455D02*
Y660887D01*
X1166455D02*
X1166000Y664013D01*
X1166000D02*
X1165091Y665888D01*
X1165091D02*
X1163727Y666513D01*
X1163727D02*
X1162818D01*
X1171455D02*
X1176455D01*
X1176455D02*
X1173727Y661513D01*
X1173727D02*
X1175091D01*
X1175091D02*
X1176000Y660887D01*
X1176000D02*
X1176455Y660262D01*
X1176455D02*
X1176909Y658387D01*
X1176909D02*
Y657137D01*
X1176909D02*
X1176455Y655262D01*
X1176455D02*
X1175545Y654012D01*
X1175545D02*
X1174182Y653387D01*
X1174182D02*
X1172818D01*
X1172818D02*
X1171455Y654012D01*
X1171455D02*
X1171000Y654637D01*
X1171000D02*
X1170545Y655887D01*
X1189182Y669013D02*
X1181000Y649012D01*
X1196000Y666513D02*
X1194636Y665888D01*
X1194636D02*
X1193727Y664013D01*
X1193727D02*
X1193273Y660887D01*
X1193273D02*
Y659012D01*
X1193273D02*
X1193727Y655887D01*
X1193727D02*
X1194636Y654012D01*
X1194636D02*
X1196000Y653387D01*
X1196000D02*
X1196909D01*
X1196909D02*
X1198273Y654012D01*
X1198273D02*
X1199182Y655887D01*
X1199182D02*
X1199636Y659012D01*
X1199636D02*
Y660887D01*
X1199636D02*
X1199182Y664013D01*
X1199182D02*
X1198273Y665888D01*
X1198273D02*
X1196909Y666513D01*
X1196909D02*
X1196000D01*
X1204182Y663388D02*
Y664013D01*
X1204182D02*
X1204636Y665263D01*
X1204636D02*
X1205091Y665888D01*
X1205091D02*
X1206000Y666513D01*
X1206000D02*
X1207818D01*
X1207818D02*
X1208727Y665888D01*
X1208727D02*
X1209182Y665263D01*
X1209182D02*
X1209636Y664013D01*
X1209636D02*
Y662763D01*
X1209636D02*
X1209182Y661513D01*
X1209182D02*
X1208273Y659637D01*
X1208273D02*
X1203727Y653387D01*
X1203727D02*
X1210091D01*
X1222364Y669013D02*
X1214182Y649012D01*
X1226455Y664013D02*
X1227364Y664638D01*
X1227364D02*
X1228727Y666513D01*
X1228727D02*
Y653387D01*
X1232818Y664013D02*
X1233727Y664638D01*
X1233727D02*
X1235091Y666513D01*
X1235091D02*
Y653387D01*
X838909Y666344D02*
Y658844D01*
X838568Y657438*
X838568D02*
X838227Y656969D01*
X837545Y656500*
X836864*
X836182Y656969*
X835841Y657438*
X835841D02*
X835500Y658844D01*
Y659781*
X843682Y663063D02*
X843000Y662594D01*
X842318Y661656*
X841977Y660250*
Y659313*
X841977D02*
X842318Y657906D01*
X843000Y656969*
X843682Y656500*
X844705*
X845386Y656969*
X846068Y657906*
X846409Y659313*
X846409D02*
Y660250D01*
X846068Y661656*
X845386Y662594*
X844705Y663063*
X844705D02*
X843682D01*
X849477Y666344D02*
Y656500D01*
Y661656D02*
X850159Y662594D01*
X850841Y663063*
X850841D02*
X851864D01*
X851864D02*
X852545Y662594D01*
X853227Y661656*
X853568Y660250*
Y659313*
X853568D02*
X853227Y657906D01*
X852545Y656969*
X851864Y656500*
X850841*
X850159Y656969*
X849477Y657906*
X864477Y666344D02*
Y656500D01*
Y666344D02*
X869250Y656500D01*
Y666344D02*
Y656500D01*
X874023Y663063D02*
X873341Y662594D01*
X872659Y661656*
X872318Y660250*
Y659313*
X872318D02*
X872659Y657906D01*
X873341Y656969*
X874023Y656500*
X875045*
X875727Y656969*
X876409Y657906*
X876750Y659313*
X876750D02*
Y660250D01*
X876409Y661656*
X875727Y662594*
X875045Y663063*
X875045D02*
X874023D01*
X880159D02*
X879818Y662594D01*
X880159Y662125*
X880500Y662594*
X880159Y663063*
Y657438D02*
X879818Y656969D01*
X880159Y656500*
X880500Y656969*
X880159Y657438*
X1041000Y663544D02*
Y653700D01*
Y663544D02*
X1043386D01*
X1044409Y663075*
X1045091Y662138*
X1045091D02*
X1045432Y661200D01*
X1045773Y659794*
Y657450*
X1045432Y656044*
X1045091Y655106*
X1044409Y654169*
X1043386Y653700*
X1041000*
X1052932Y660263D02*
Y653700D01*
Y658856D02*
X1052250Y659794D01*
X1051568Y660263*
X1051568D02*
X1050545D01*
X1050545D02*
X1049864Y659794D01*
X1049182Y658856*
X1048841Y657450*
Y656513*
X1048841D02*
X1049182Y655106D01*
X1049864Y654169*
X1050545Y653700*
X1051568*
X1052250Y654169*
X1052932Y655106*
X1057023Y663544D02*
Y655575D01*
X1057364Y654169*
X1058045Y653700*
X1058727*
X1056000Y660263D02*
X1058386D01*
X1061795Y657450D02*
X1065886D01*
Y658388*
X1065886D02*
X1065545Y659325D01*
X1065205Y659794*
X1064523Y660263*
X1064523D02*
X1063500D01*
X1063500D02*
X1062818Y659794D01*
X1062136Y658856*
X1061795Y657450*
Y656513*
X1061795D02*
X1062136Y655106D01*
X1062818Y654169*
X1063500Y653700*
X1064523*
X1065205Y654169*
X1065886Y655106*
X1069295Y660263D02*
X1068955Y659794D01*
X1069295Y659325*
X1069636Y659794*
X1069295Y660263*
Y654638D02*
X1068955Y654169D01*
X1069295Y653700*
X1069636Y654169*
X1069295Y654638*
X841305Y763403D02*
X838578Y753560D01*
X841305Y763403D02*
X844032Y753560D01*
X839600Y756841D02*
X843009D01*
X847100Y760122D02*
Y753560D01*
Y757310D02*
X847441Y758716D01*
X848123Y759653*
X848805Y760122*
X849828*
X853919Y763403D02*
Y755435D01*
X854259Y754028*
X854941Y753560*
X855623*
X852896Y760122D02*
X855282D01*
X858691D02*
X860055Y753560D01*
X861419Y760122D02*
X860055Y753560D01*
X861419Y760122D02*
X862782Y753560D01*
X864146Y760122D02*
X862782Y753560D01*
X868919Y760122D02*
X868237Y759653D01*
X867555Y758716*
X867214Y757310*
Y756372*
X867555Y754966*
X868237Y754028*
X868919Y753560*
X869941*
X870623Y754028*
X871305Y754966*
X871646Y756372*
Y757310*
X871305Y758716*
X870623Y759653*
X869941Y760122*
X868919*
X874714D02*
Y753560D01*
Y757310D02*
X875055Y758716D01*
X875737Y759653*
X876419Y760122*
X877441*
X880509Y763403D02*
Y753560D01*
X883919Y760122D02*
X880509Y755435D01*
X881873Y757310D02*
X884259Y753560D01*
X895169Y763403D02*
Y753560D01*
Y763403D02*
X897555D01*
X898578Y762935*
X899259Y761997*
X899600Y761060*
X899941Y759653*
Y757310*
X899600Y755903*
X899259Y754966*
X898578Y754028*
X897555Y753560*
X895169*
X903009Y757310D02*
X907100D01*
Y758247*
X906759Y759185*
X906419Y759653*
X905737Y760122*
X904714*
X904032Y759653*
X903350Y758716*
X903009Y757310*
Y756372*
X903350Y754966*
X904032Y754028*
X904714Y753560*
X905737*
X906419Y754028*
X907100Y754966*
X913919Y758716D02*
X913578Y759653D01*
X912555Y760122*
X911532*
X910509Y759653*
X910169Y758716*
X910509Y757778*
X911191Y757310*
X912896Y756841*
X913578Y756372*
X913919Y755435*
Y754966*
X913578Y754028*
X912555Y753560*
X911532*
X910509Y754028*
X910169Y754966*
X916987Y763403D02*
X917328Y762935D01*
X917669Y763403*
X917328Y763872*
X916987Y763403*
X917328Y760122D02*
Y753560D01*
X924828Y760122D02*
Y752622D01*
X924487Y751216*
X924146Y750747*
X923464Y750278*
X922441*
X921759Y750747*
X924828Y758716D02*
X924146Y759653D01*
X923464Y760122*
X922441*
X921759Y759653*
X921078Y758716*
X920737Y757310*
Y756372*
X921078Y754966*
X921759Y754028*
X922441Y753560*
X923464*
X924146Y754028*
X924828Y754966*
X927896Y760122D02*
Y753560D01*
Y758247D02*
X928919Y759653D01*
X929600Y760122*
X930623*
X931305Y759653*
X931646Y758247*
Y753560*
X934714Y757310D02*
X938805D01*
Y758247*
X938464Y759185*
X938123Y759653*
X937441Y760122*
X936419*
X935737Y759653*
X935055Y758716*
X934714Y757310*
Y756372*
X935055Y754966*
X935737Y754028*
X936419Y753560*
X937441*
X938123Y754028*
X938805Y754966*
X945964Y763403D02*
Y753560D01*
Y758716D02*
X945282Y759653D01*
X944600Y760122*
X943578*
X942896Y759653*
X942214Y758716*
X941873Y757310*
Y756372*
X942214Y754966*
X942896Y754028*
X943578Y753560*
X944600*
X945282Y754028*
X945964Y754966*
X956873Y763403D02*
Y753560D01*
Y763403D02*
X959941D01*
X960964Y762935*
X961305Y762466*
X961646Y761528*
Y760591*
X961305Y759653*
X960964Y759185*
X959941Y758716*
X956873D02*
X959941D01*
X960964Y758247*
X961305Y757778*
X961646Y756841*
Y755435*
X961305Y754497*
X960964Y754028*
X959941Y753560*
X956873*
X965055Y760122D02*
X967100Y753560D01*
X969146Y760122D02*
X967100Y753560D01*
X966419Y751685*
X965737Y750747*
X965055Y750278*
X964714*
X972555Y760122D02*
X972214Y759653D01*
X972555Y759185*
X972896Y759653*
X972555Y760122*
Y754497D02*
X972214Y754028D01*
X972555Y753560*
X972896Y754028*
X972555Y754497*
X983805Y763403D02*
X985509Y753560D01*
X987214Y763403D02*
X985509Y753560D01*
X987214Y763403D02*
X988919Y753560D01*
X990623Y763403D02*
X988919Y753560D01*
X993691Y763403D02*
X994032Y762935D01*
X994373Y763403*
X994032Y763872*
X993691Y763403*
X994032Y760122D02*
Y753560D01*
X997441Y763403D02*
Y753560D01*
X1000509Y763403D02*
Y753560D01*
X1005282Y760122D02*
X1004600Y759653D01*
X1003919Y758716*
X1003578Y757310*
Y756372*
X1003919Y754966*
X1004600Y754028*
X1005282Y753560*
X1006305*
X1006987Y754028*
X1007669Y754966*
X1008009Y756372*
Y757310*
X1007669Y758716*
X1006987Y759653*
X1006305Y760122*
X1005282*
X1011078D02*
X1012441Y753560D01*
X1013805Y760122D02*
X1012441Y753560D01*
X1013805Y760122D02*
X1015169Y753560D01*
X1016532Y760122D02*
X1015169Y753560D01*
X1032214Y761997D02*
X1031532Y762935D01*
X1030509Y763403*
X1029146*
X1028123Y762935*
X1027441Y761997*
Y761060*
X1027782Y760122*
X1028123Y759653*
X1028805Y759185*
X1030850Y758247*
X1031532Y757778*
X1031873Y757310*
X1032214Y756372*
Y754966*
X1031532Y754028*
X1030509Y753560*
X1029146*
X1028123Y754028*
X1027441Y754966*
X1035282Y760122D02*
Y750278D01*
Y758716D02*
X1035964Y759653D01*
X1036646Y760122*
X1037669*
X1038350Y759653*
X1039032Y758716*
X1039373Y757310*
Y756372*
X1039032Y754966*
X1038350Y754028*
X1037669Y753560*
X1036646*
X1035964Y754028*
X1035282Y754966*
X1042441Y760122D02*
Y753560D01*
Y757310D02*
X1042782Y758716D01*
X1043464Y759653*
X1044146Y760122*
X1045169*
X1048237Y763403D02*
X1048578Y762935D01*
X1048919Y763403*
X1048578Y763872*
X1048237Y763403*
X1048578Y760122D02*
Y753560D01*
X1051987Y760122D02*
Y753560D01*
Y758247D02*
X1053009Y759653D01*
X1053691Y760122*
X1054714*
X1055396Y759653*
X1055737Y758247*
Y753560*
X1062896Y760122D02*
Y752622D01*
X1062555Y751216*
X1062214Y750747*
X1061532Y750278*
X1060509*
X1059828Y750747*
X1062896Y758716D02*
X1062214Y759653D01*
X1061532Y760122*
X1060509*
X1059828Y759653*
X1059146Y758716*
X1058805Y757310*
Y756372*
X1059146Y754966*
X1059828Y754028*
X1060509Y753560*
X1061532*
X1062214Y754028*
X1062896Y754966*
X1076191Y763403D02*
Y753560D01*
X1073805Y763403D02*
X1078578D01*
X1081646Y757310D02*
X1085737D01*
Y758247*
X1085396Y759185*
X1085055Y759653*
X1084373Y760122*
X1083350*
X1082669Y759653*
X1081987Y758716*
X1081646Y757310*
Y756372*
X1081987Y754966*
X1082669Y754028*
X1083350Y753560*
X1084373*
X1085055Y754028*
X1085737Y754966*
X1092896Y758716D02*
X1092214Y759653D01*
X1091532Y760122*
X1090509*
X1089828Y759653*
X1089146Y758716*
X1088805Y757310*
Y756372*
X1089146Y754966*
X1089828Y754028*
X1090509Y753560*
X1091532*
X1092214Y754028*
X1092896Y754966*
X1095964Y763403D02*
Y753560D01*
Y758247D02*
X1096987Y759653D01*
X1097669Y760122*
X1098691*
X1099373Y759653*
X1099714Y758247*
Y753560*
X1102782Y760122D02*
Y753560D01*
Y758247D02*
X1103805Y759653D01*
X1104487Y760122*
X1105509*
X1106191Y759653*
X1106532Y758247*
Y753560*
X1109600Y763403D02*
X1109941Y762935D01*
X1110282Y763403*
X1109941Y763872*
X1109600Y763403*
X1109941Y760122D02*
Y753560D01*
X1117441Y758716D02*
X1116759Y759653D01*
X1116078Y760122*
X1115055*
X1114373Y759653*
X1113691Y758716*
X1113350Y757310*
Y756372*
X1113691Y754966*
X1114373Y754028*
X1115055Y753560*
X1116078*
X1116759Y754028*
X1117441Y754966*
X1124600Y760122D02*
Y753560D01*
Y758716D02*
X1123919Y759653D01*
X1123237Y760122*
X1122214*
X1121532Y759653*
X1120850Y758716*
X1120509Y757310*
Y756372*
X1120850Y754966*
X1121532Y754028*
X1122214Y753560*
X1123237*
X1123919Y754028*
X1124600Y754966*
X1127669Y763403D02*
Y753560D01*
X1143350Y761997D02*
X1142669Y762935D01*
X1141646Y763403*
X1140282*
X1139259Y762935*
X1138578Y761997*
Y761060*
X1138919Y760122*
X1139259Y759653*
X1139941Y759185*
X1141987Y758247*
X1142669Y757778*
X1143009Y757310*
X1143350Y756372*
Y754966*
X1142669Y754028*
X1141646Y753560*
X1140282*
X1139259Y754028*
X1138578Y754966*
X1146419Y757310D02*
X1150509D01*
Y758247*
X1150169Y759185*
X1149828Y759653*
X1149146Y760122*
X1148123*
X1147441Y759653*
X1146759Y758716*
X1146419Y757310*
Y756372*
X1146759Y754966*
X1147441Y754028*
X1148123Y753560*
X1149146*
X1149828Y754028*
X1150509Y754966*
X1153578Y760122D02*
Y753560D01*
Y757310D02*
X1153919Y758716D01*
X1154600Y759653*
X1155282Y760122*
X1156305*
X1159373D02*
X1161419Y753560D01*
X1163464Y760122D02*
X1161419Y753560D01*
X1166532Y763403D02*
X1166873Y762935D01*
X1167214Y763403*
X1166873Y763872*
X1166532Y763403*
X1166873Y760122D02*
Y753560D01*
X1174373Y758716D02*
X1173691Y759653D01*
X1173009Y760122*
X1171987*
X1171305Y759653*
X1170623Y758716*
X1170282Y757310*
Y756372*
X1170623Y754966*
X1171305Y754028*
X1171987Y753560*
X1173009*
X1173691Y754028*
X1174373Y754966*
X1177441Y757310D02*
X1181532D01*
Y758247*
X1181191Y759185*
X1180850Y759653*
X1180169Y760122*
X1179146*
X1178464Y759653*
X1177782Y758716*
X1177441Y757310*
Y756372*
X1177782Y754966*
X1178464Y754028*
X1179146Y753560*
X1180169*
X1180850Y754028*
X1181532Y754966*
X1188350Y758716D02*
X1188009Y759653D01*
X1186987Y760122*
X1185964*
X1184941Y759653*
X1184600Y758716*
X1184941Y757778*
X1185623Y757310*
X1187328Y756841*
X1188009Y756372*
X1188350Y755435*
Y754966*
X1188009Y754028*
X1186987Y753560*
X1185964*
X1184941Y754028*
X1184600Y754966*
X1204373Y761060D02*
X1204032Y761997D01*
X1203350Y762935*
X1202669Y763403*
X1201305*
X1200623Y762935*
X1199941Y761997*
X1199600Y761060*
X1199259Y759653*
Y757310*
X1199600Y755903*
X1199941Y754966*
X1200623Y754028*
X1201305Y753560*
X1202669*
X1203350Y754028*
X1204032Y754966*
X1204373Y755903*
X1209146Y760122D02*
X1208464Y759653D01*
X1207782Y758716*
X1207441Y757310*
Y756372*
X1207782Y754966*
X1208464Y754028*
X1209146Y753560*
X1210169*
X1210850Y754028*
X1211532Y754966*
X1211873Y756372*
Y757310*
X1211532Y758716*
X1210850Y759653*
X1210169Y760122*
X1209146*
X1214941D02*
Y753560D01*
Y757310D02*
X1215282Y758716D01*
X1215964Y759653*
X1216646Y760122*
X1217669*
X1220737D02*
Y750278D01*
Y758716D02*
X1221419Y759653D01*
X1222100Y760122*
X1223123*
X1223805Y759653*
X1224487Y758716*
X1224828Y757310*
Y756372*
X1224487Y754966*
X1223805Y754028*
X1223123Y753560*
X1222100*
X1221419Y754028*
X1220737Y754966*
X1228237Y754497D02*
X1227896Y754028D01*
X1228237Y753560*
X1228578Y754028*
X1228237Y754497*
X906227Y665513D02*
Y652387D01*
X903045Y665513D02*
X909409D01*
X913500D02*
Y652387D01*
Y665513D02*
X919409D01*
X913500Y659262D02*
X917136D01*
X913500Y652387D02*
X919409D01*
X923500Y665513D02*
X929864Y652387D01*
Y665513D02*
X923500Y652387D01*
X934409Y653637D02*
X933955Y653012D01*
X933955D02*
X934409Y652387D01*
X934409D02*
X934864Y653012D01*
X934864D02*
X934409Y653637D01*
X941682Y665513D02*
X940318Y664888D01*
X940318D02*
X939409Y663013D01*
X939409D02*
X938955Y659887D01*
X938955D02*
Y658012D01*
X938955D02*
X939409Y654887D01*
X939409D02*
X940318Y653012D01*
X940318D02*
X941682Y652387D01*
X941682D02*
X942591D01*
X942591D02*
X943955Y653012D01*
X943955D02*
X944864Y654887D01*
X944864D02*
X945318Y658012D01*
X945318D02*
Y659887D01*
X945318D02*
X944864Y663013D01*
X944864D02*
X943955Y664888D01*
X943955D02*
X942591Y665513D01*
X942591D02*
X941682D01*
X953955D02*
X949409Y656762D01*
X949409D02*
X956227D01*
X953955Y665513D02*
Y652387D01*
X964864Y665513D02*
X960318Y656762D01*
X960318D02*
X967136D01*
X964864Y665513D02*
Y652387D01*
X1260727Y835044D02*
X1258000Y825200D01*
X1260727Y835044D02*
X1263455Y825200D01*
X1259023Y828481D02*
X1262432D01*
X1266523Y831763D02*
Y825200D01*
Y828950D02*
X1266864Y830356D01*
X1267545Y831294*
X1268227Y831763*
X1268227D02*
X1269250D01*
X1273341Y835044D02*
Y827075D01*
X1273682Y825669*
X1274364Y825200*
X1275045*
X1272318Y831763D02*
X1274705D01*
X1278114D02*
X1279477Y825200D01*
X1280841Y831763D02*
X1279477Y825200D01*
X1280841Y831763D02*
X1282205Y825200D01*
X1283568Y831763D02*
X1282205Y825200D01*
X1288341Y831763D02*
X1287659Y831294D01*
X1286977Y830356*
X1286636Y828950*
Y828013*
X1286636D02*
X1286977Y826606D01*
X1287659Y825669*
X1288341Y825200*
X1289364*
X1290045Y825669*
X1290727Y826606*
X1291068Y828013*
X1291068D02*
Y828950D01*
X1290727Y830356*
X1290045Y831294*
X1289364Y831763*
X1289364D02*
X1288341D01*
X1294136D02*
Y825200D01*
Y828950D02*
X1294477Y830356D01*
X1295159Y831294*
X1295841Y831763*
X1295841D02*
X1296864D01*
X1299932Y835044D02*
Y825200D01*
X1303341Y831763D02*
X1299932Y827075D01*
X1301295Y828950D02*
X1303682Y825200D01*
X1314591Y835044D02*
Y825200D01*
Y835044D02*
X1316977D01*
X1318000Y834575*
X1318682Y833638*
X1318682D02*
X1319023Y832700D01*
X1319364Y831294*
Y828950*
X1319023Y827544*
X1318682Y826606*
X1318000Y825669*
X1316977Y825200*
X1314591*
X1322432Y828950D02*
X1326523D01*
Y829888*
X1326523D02*
X1326182Y830825D01*
X1325841Y831294*
X1325159Y831763*
X1325159D02*
X1324136D01*
X1324136D02*
X1323455Y831294D01*
X1322773Y830356*
X1322432Y828950*
Y828013*
X1322432D02*
X1322773Y826606D01*
X1323455Y825669*
X1324136Y825200*
X1325159*
X1325841Y825669*
X1326523Y826606*
X1333341Y830356D02*
X1333000Y831294D01*
X1331977Y831763*
X1331977D02*
X1330955D01*
X1330955D02*
X1329932Y831294D01*
X1329591Y830356*
X1329932Y829419*
X1330614Y828950*
X1332318Y828481*
X1333000Y828013*
X1333000D02*
X1333341Y827075D01*
Y826606*
X1333000Y825669*
X1331977Y825200*
X1330955*
X1329932Y825669*
X1329591Y826606*
X1336409Y835044D02*
X1336750Y834575D01*
X1337091Y835044*
X1336750Y835513*
X1336750D02*
X1336409Y835044D01*
X1336750Y831763D02*
Y825200D01*
X1344250Y831763D02*
Y824262D01*
X1344250D02*
X1343909Y822856D01*
X1343568Y822387*
X1343568D02*
X1342886Y821919D01*
X1341864*
X1341182Y822387*
X1344250Y830356D02*
X1343568Y831294D01*
X1342886Y831763*
X1342886D02*
X1341864D01*
X1341864D02*
X1341182Y831294D01*
X1340500Y830356*
X1340159Y828950*
Y828013*
X1340159D02*
X1340500Y826606D01*
X1341182Y825669*
X1341864Y825200*
X1342886*
X1343568Y825669*
X1344250Y826606*
X1347318Y831763D02*
Y825200D01*
Y829888D02*
X1348341Y831294D01*
X1349023Y831763*
X1349023D02*
X1350045D01*
X1350045D02*
X1350727Y831294D01*
X1351068Y829888*
X1351068D02*
Y825200D01*
X1354136Y828950D02*
X1358227D01*
Y829888*
X1358227D02*
X1357886Y830825D01*
X1357545Y831294*
X1356864Y831763*
X1356864D02*
X1355841D01*
X1355841D02*
X1355159Y831294D01*
X1354477Y830356*
X1354136Y828950*
Y828013*
X1354136D02*
X1354477Y826606D01*
X1355159Y825669*
X1355841Y825200*
X1356864*
X1357545Y825669*
X1358227Y826606*
X1365386Y835044D02*
Y825200D01*
Y830356D02*
X1364705Y831294D01*
X1364023Y831763*
X1364023D02*
X1363000D01*
X1363000D02*
X1362318Y831294D01*
X1361636Y830356*
X1361295Y828950*
Y828013*
X1361295D02*
X1361636Y826606D01*
X1362318Y825669*
X1363000Y825200*
X1364023*
X1364705Y825669*
X1365386Y826606*
X1376295Y835044D02*
Y825200D01*
Y835044D02*
X1380727D01*
X1376295Y830356D02*
X1379023D01*
X1385500Y831763D02*
X1384818Y831294D01*
X1384136Y830356*
X1383795Y828950*
Y828013*
X1383795D02*
X1384136Y826606D01*
X1384818Y825669*
X1385500Y825200*
X1386523*
X1387205Y825669*
X1387886Y826606*
X1388227Y828013*
X1388227D02*
Y828950D01*
X1387886Y830356*
X1387205Y831294*
X1386523Y831763*
X1386523D02*
X1385500D01*
X1391295D02*
Y825200D01*
Y828950D02*
X1391636Y830356D01*
X1392318Y831294*
X1393000Y831763*
X1393000D02*
X1394023D01*
X1397432D02*
X1397091Y831294D01*
X1397432Y830825*
X1397773Y831294*
X1397432Y831763*
Y826138D02*
X1397091Y825669D01*
X1397432Y825200*
X1397773Y825669*
X1397432Y826138*
X1258000Y780044D02*
Y770200D01*
Y780044D02*
X1261068D01*
X1262091Y779575*
X1262432Y779106*
X1262773Y778169*
Y777231*
X1262432Y776294*
X1262091Y775825*
X1261068Y775356*
X1258000D02*
X1261068D01*
X1262091Y774888*
X1262091D02*
X1262432Y774419D01*
X1262773Y773481*
Y772075*
X1262432Y771138*
X1262432D02*
X1262091Y770669D01*
X1261068Y770200*
X1258000*
X1267545Y776763D02*
X1266864Y776294D01*
X1266182Y775356*
X1265841Y773950*
Y773013*
X1265841D02*
X1266182Y771606D01*
X1266864Y770669*
X1267545Y770200*
X1268568*
X1269250Y770669*
X1269932Y771606*
X1270273Y773013*
X1270273D02*
Y773950D01*
X1269932Y775356*
X1269250Y776294*
X1268568Y776763*
X1268568D02*
X1267545D01*
X1277432D02*
Y770200D01*
Y775356D02*
X1276750Y776294D01*
X1276068Y776763*
X1276068D02*
X1275045D01*
X1275045D02*
X1274364Y776294D01*
X1273682Y775356*
X1273341Y773950*
Y773013*
X1273341D02*
X1273682Y771606D01*
X1274364Y770669*
X1275045Y770200*
X1276068*
X1276750Y770669*
X1277432Y771606*
X1280500Y776763D02*
Y770200D01*
Y773950D02*
X1280841Y775356D01*
X1281523Y776294*
X1282205Y776763*
X1282205D02*
X1283227D01*
X1290386Y780044D02*
Y770200D01*
Y775356D02*
X1289705Y776294D01*
X1289023Y776763*
X1289023D02*
X1288000D01*
X1288000D02*
X1287318Y776294D01*
X1286636Y775356*
X1286295Y773950*
Y773013*
X1286295D02*
X1286636Y771606D01*
X1287318Y770669*
X1288000Y770200*
X1289023*
X1289705Y770669*
X1290386Y771606*
X1301295Y780044D02*
Y770200D01*
Y780044D02*
X1303682D01*
X1304705Y779575*
X1305386Y778638*
X1305386D02*
X1305727Y777700D01*
X1306068Y776294*
Y773950*
X1305727Y772544*
X1305386Y771606*
X1304705Y770669*
X1303682Y770200*
X1301295*
X1309136Y773950D02*
X1313227D01*
Y774888*
X1313227D02*
X1312886Y775825D01*
X1312545Y776294*
X1311864Y776763*
X1311864D02*
X1310841D01*
X1310841D02*
X1310159Y776294D01*
X1309477Y775356*
X1309136Y773950*
Y773013*
X1309136D02*
X1309477Y771606D01*
X1310159Y770669*
X1310841Y770200*
X1311864*
X1312545Y770669*
X1313227Y771606*
X1320045Y775356D02*
X1319705Y776294D01*
X1318682Y776763*
X1318682D02*
X1317659D01*
X1317659D02*
X1316636Y776294D01*
X1316295Y775356*
X1316636Y774419*
X1317318Y773950*
X1319023Y773481*
X1319705Y773013*
X1319705D02*
X1320045Y772075D01*
Y771606*
X1319705Y770669*
X1318682Y770200*
X1317659*
X1316636Y770669*
X1316295Y771606*
X1327205Y775356D02*
X1326523Y776294D01*
X1325841Y776763*
X1325841D02*
X1324818D01*
X1324818D02*
X1324136Y776294D01*
X1323455Y775356*
X1323114Y773950*
Y773013*
X1323114D02*
X1323455Y771606D01*
X1324136Y770669*
X1324818Y770200*
X1325841*
X1326523Y770669*
X1327205Y771606*
X1330273Y776763D02*
Y770200D01*
Y773950D02*
X1330614Y775356D01*
X1331295Y776294*
X1331977Y776763*
X1331977D02*
X1333000D01*
X1336068Y780044D02*
X1336409Y779575D01*
X1336750Y780044*
X1336409Y780513*
X1336409D02*
X1336068Y780044D01*
X1336409Y776763D02*
Y770200D01*
X1339818Y776763D02*
Y766919D01*
Y775356D02*
X1340500Y776294D01*
X1341182Y776763*
X1341182D02*
X1342205D01*
X1342205D02*
X1342886Y776294D01*
X1343568Y775356*
X1343909Y773950*
Y773013*
X1343909D02*
X1343568Y771606D01*
X1342886Y770669*
X1342205Y770200*
X1341182*
X1340500Y770669*
X1339818Y771606*
X1348000Y780044D02*
Y772075D01*
X1348341Y770669*
X1349023Y770200*
X1349705*
X1346977Y776763D02*
X1349364D01*
X1352773Y780044D02*
X1353114Y779575D01*
X1353455Y780044*
X1353114Y780513*
X1353114D02*
X1352773Y780044D01*
X1353114Y776763D02*
Y770200D01*
X1358227Y776763D02*
X1357545Y776294D01*
X1356864Y775356*
X1356523Y773950*
Y773013*
X1356523D02*
X1356864Y771606D01*
X1357545Y770669*
X1358227Y770200*
X1359250*
X1359932Y770669*
X1360614Y771606*
X1360955Y773013*
X1360955D02*
Y773950D01*
X1360614Y775356*
X1359932Y776294*
X1359250Y776763*
X1359250D02*
X1358227D01*
X1364023D02*
Y770200D01*
Y774888D02*
X1365045Y776294D01*
X1365727Y776763*
X1365727D02*
X1366750D01*
X1366750D02*
X1367432Y776294D01*
X1367773Y774888*
X1367773D02*
Y770200D01*
X1371182Y776763D02*
X1370841Y776294D01*
X1371182Y775825*
X1371523Y776294*
X1371182Y776763*
Y771138D02*
X1370841Y770669D01*
X1371182Y770200*
X1371523Y770669*
X1371182Y771138*
X1258000Y710044D02*
Y700200D01*
Y710044D02*
X1261068D01*
X1262091Y709575*
X1262432Y709106*
X1262773Y708169*
Y706763*
X1262773D02*
X1262432Y705825D01*
X1262091Y705356*
X1261068Y704888*
X1261068D02*
X1258000D01*
X1269932Y706763D02*
Y700200D01*
Y705356D02*
X1269250Y706294D01*
X1268568Y706763*
X1268568D02*
X1267545D01*
X1267545D02*
X1266864Y706294D01*
X1266182Y705356*
X1265841Y703950*
Y703013*
X1265841D02*
X1266182Y701606D01*
X1266864Y700669*
X1267545Y700200*
X1268568*
X1269250Y700669*
X1269932Y701606*
X1273000Y706763D02*
Y700200D01*
Y703950D02*
X1273341Y705356D01*
X1274023Y706294*
X1274705Y706763*
X1274705D02*
X1275727D01*
X1279818Y710044D02*
Y702075D01*
X1280159Y700669*
X1280841Y700200*
X1281523*
X1278795Y706763D02*
X1281182D01*
X1292432Y710044D02*
Y700200D01*
Y710044D02*
X1297205Y700200D01*
Y710044D02*
Y700200D01*
X1301977Y706763D02*
X1301295Y706294D01*
X1300614Y705356*
X1300273Y703950*
Y703013*
X1300273D02*
X1300614Y701606D01*
X1301295Y700669*
X1301977Y700200*
X1303000*
X1303682Y700669*
X1304364Y701606*
X1304705Y703013*
X1304705D02*
Y703950D01*
X1304364Y705356*
X1303682Y706294*
X1303000Y706763*
X1303000D02*
X1301977D01*
X1308114D02*
X1307773Y706294D01*
X1308114Y705825*
X1308455Y706294*
X1308114Y706763*
Y701138D02*
X1307773Y700669D01*
X1308114Y700200*
X1308455Y700669*
X1308114Y701138*
X1558000Y710044D02*
Y700200D01*
Y710044D02*
X1561068D01*
X1562091Y709575*
X1562432Y709106*
X1562773Y708169*
Y707231*
X1562432Y706294*
X1562091Y705825*
X1561068Y705356*
X1558000*
X1560386D02*
X1562773Y700200D01*
X1565841Y703950D02*
X1569932D01*
Y704888*
X1569932D02*
X1569591Y705825D01*
X1569250Y706294*
X1568568Y706763*
X1568568D02*
X1567545D01*
X1567545D02*
X1566864Y706294D01*
X1566182Y705356*
X1565841Y703950*
Y703013*
X1565841D02*
X1566182Y701606D01*
X1566864Y700669*
X1567545Y700200*
X1568568*
X1569250Y700669*
X1569932Y701606*
X1573000Y706763D02*
X1575045Y700200D01*
X1577091Y706763D02*
X1575045Y700200D01*
X1580159Y710044D02*
X1580500Y709575D01*
X1580841Y710044*
X1580500Y710513*
X1580500D02*
X1580159Y710044D01*
X1580500Y706763D02*
Y700200D01*
X1587659Y705356D02*
X1587318Y706294D01*
X1586295Y706763*
X1586295D02*
X1585273D01*
X1585273D02*
X1584250Y706294D01*
X1583909Y705356*
X1584250Y704419*
X1584932Y703950*
X1586636Y703481*
X1587318Y703013*
X1587318D02*
X1587659Y702075D01*
Y701606*
X1587318Y700669*
X1586295Y700200*
X1585273*
X1584250Y700669*
X1583909Y701606*
X1590727Y710044D02*
X1591068Y709575D01*
X1591409Y710044*
X1591068Y710513*
X1591068D02*
X1590727Y710044D01*
X1591068Y706763D02*
Y700200D01*
X1596182Y706763D02*
X1595500Y706294D01*
X1594818Y705356*
X1594477Y703950*
Y703013*
X1594477D02*
X1594818Y701606D01*
X1595500Y700669*
X1596182Y700200*
X1597205*
X1597886Y700669*
X1598568Y701606*
X1598909Y703013*
X1598909D02*
Y703950D01*
X1598568Y705356*
X1597886Y706294*
X1597205Y706763*
X1597205D02*
X1596182D01*
X1601977D02*
Y700200D01*
Y704888D02*
X1603000Y706294D01*
X1603682Y706763*
X1603682D02*
X1604705D01*
X1604705D02*
X1605386Y706294D01*
X1605727Y704888*
X1605727D02*
Y700200D01*
X1609136Y706763D02*
X1608795Y706294D01*
X1609136Y705825*
X1609477Y706294*
X1609136Y706763*
Y701138D02*
X1608795Y700669D01*
X1609136Y700200*
X1609477Y700669*
X1609136Y701138*
X1356182Y698325D02*
Y685200D01*
X1353000Y698325D02*
X1359364D01*
X1363455D02*
Y685200D01*
Y698325D02*
X1367091Y685200D01*
X1370727Y698325D02*
X1367091Y685200D01*
X1370727Y698325D02*
Y685200D01*
X1374818Y698325D02*
Y685200D01*
Y698325D02*
X1378000D01*
X1379364Y697700*
X1380273Y696450*
X1380727Y695200*
X1381182Y693325*
Y690200*
X1380727Y688325*
X1380273Y687075*
X1379364Y685825*
X1378000Y685200*
X1374818*
X1391636Y696450D02*
X1390727Y697700D01*
X1389364Y698325*
X1387545*
X1386182Y697700*
X1385273Y696450*
Y695200*
X1385727Y693950*
X1386182Y693325*
X1387091Y692700*
X1389818Y691450*
X1390727Y690825*
X1391182Y690200*
X1391636Y688950*
Y687075*
X1390727Y685825*
X1389364Y685200*
X1387545*
X1386182Y685825*
X1385273Y687075*
X1402545Y695200D02*
X1402091Y696450D01*
X1401182Y697700*
X1400273Y698325*
X1398455*
X1397545Y697700*
X1396636Y696450*
X1396182Y695200*
X1395727Y693325*
Y690200*
X1396182Y688325*
X1396636Y687075*
X1397545Y685825*
X1398455Y685200*
X1400273*
X1401182Y685825*
X1402091Y687075*
X1402545Y688325*
X1406636Y698325D02*
Y685200D01*
Y698325D02*
X1413000Y685200D01*
Y698325D02*
Y685200D01*
X1423909Y695200D02*
X1423455Y696450D01*
X1422545Y697700*
X1421636Y698325*
X1419818*
X1418909Y697700*
X1418000Y696450*
X1417545Y695200*
X1417091Y693325*
Y690200*
X1417545Y688325*
X1418000Y687075*
X1418909Y685825*
X1419818Y685200*
X1421636*
X1422545Y685825*
X1423455Y687075*
X1423909Y688325*
X1428000Y698325D02*
Y685200D01*
Y698325D02*
X1431182D01*
X1432545Y697700*
X1433455Y696450*
X1433909Y695200*
X1434364Y693325*
Y690200*
X1433909Y688325*
X1433455Y687075*
X1432545Y685825*
X1431182Y685200*
X1428000*
X1438909Y695200D02*
Y695825D01*
X1439364Y697075*
X1439818Y697700*
X1440727Y698325*
X1442545*
X1443455Y697700*
X1443909Y697075*
X1444364Y695825*
Y694575*
X1443909Y693325*
X1443000Y691450*
X1438455Y685200*
X1444818*
X1451182Y698325D02*
X1449818Y697700D01*
X1449364Y696450*
Y695200*
X1449818Y693950*
X1450727Y693325*
X1452545Y692700*
X1453909Y692075*
X1454818Y690825*
X1455273Y689575*
Y687700*
X1454818Y686450*
X1454364Y685825*
X1453000Y685200*
X1451182*
X1449818Y685825*
X1449364Y686450*
X1448909Y687700*
Y689575*
X1449364Y690825*
X1450273Y692075*
X1451636Y692700*
X1453455Y693325*
X1454364Y693950*
X1454818Y695200*
Y696450*
X1454364Y697700*
X1453000Y698325*
X1451182*
X1462091D02*
X1460727Y697700D01*
X1459818Y695825*
X1459364Y692700*
Y690825*
X1459818Y687700*
X1460727Y685825*
X1462091Y685200*
X1463000*
X1464364Y685825*
X1465273Y687700*
X1465727Y690825*
Y692700*
X1465273Y695825*
X1464364Y697700*
X1463000Y698325*
X1462091*
X1470727D02*
X1475727D01*
X1473000Y693325*
X1474364*
X1475273Y692700*
X1475727Y692075*
X1476182Y690200*
Y688950*
X1475727Y687075*
X1474818Y685825*
X1473455Y685200*
X1472091*
X1470727Y685825*
X1470273Y686450*
X1469818Y687700*
X1486182Y698325D02*
X1481636D01*
X1481182Y692700*
X1481636Y693325*
X1483000Y693950*
X1484364*
X1485727Y693325*
X1486636Y692075*
X1487091Y690200*
X1486636Y688950*
X1486182Y687075*
X1485273Y685825*
X1483909Y685200*
X1482545*
X1481182Y685825*
X1480727Y686450*
X1480273Y687700*
X1629727Y699813D02*
X1630636Y700438D01*
X1630636D02*
X1632000Y702313D01*
X1632000D02*
Y689187D01*
X1636545Y690437D02*
X1636091Y689812D01*
X1636091D02*
X1636545Y689187D01*
X1636545D02*
X1637000Y689812D01*
X1637000D02*
X1636545Y690437D01*
X1641545Y699188D02*
Y699813D01*
X1641545D02*
X1642000Y701063D01*
X1642000D02*
X1642455Y701688D01*
X1642455D02*
X1643364Y702313D01*
X1643364D02*
X1645182D01*
X1645182D02*
X1646091Y701688D01*
X1646091D02*
X1646545Y701063D01*
X1646545D02*
X1647000Y699813D01*
X1647000D02*
Y698563D01*
X1647000D02*
X1646545Y697313D01*
X1646545D02*
X1645636Y695437D01*
X1645636D02*
X1641091Y689187D01*
X1641091D02*
X1647455D01*
X1399545Y810513D02*
Y797387D01*
X1396364Y810513D02*
X1402727D01*
X1406818Y802387D02*
X1412273D01*
X1412273D02*
Y803637D01*
X1412273D02*
X1411818Y804887D01*
X1411818D02*
X1411364Y805513D01*
X1411364D02*
X1410455Y806138D01*
X1410455D02*
X1409091D01*
X1409091D02*
X1408182Y805513D01*
X1408182D02*
X1407273Y804262D01*
X1407273D02*
X1406818Y802387D01*
X1406818D02*
Y801137D01*
X1406818D02*
X1407273Y799262D01*
X1407273D02*
X1408182Y798012D01*
X1408182D02*
X1409091Y797387D01*
X1409091D02*
X1410455D01*
X1410455D02*
X1411364Y798012D01*
X1411364D02*
X1412273Y799262D01*
X1416364Y806138D02*
X1421364Y797387D01*
Y806138D02*
X1416364Y797387D01*
X1430909Y806138D02*
Y797387D01*
Y804262D02*
X1430000Y805513D01*
X1430000D02*
X1429091Y806138D01*
X1429091D02*
X1427727D01*
X1427727D02*
X1426818Y805513D01*
X1426818D02*
X1425909Y804262D01*
X1425909D02*
X1425455Y802387D01*
X1425455D02*
Y801137D01*
X1425455D02*
X1425909Y799262D01*
X1425909D02*
X1426818Y798012D01*
X1426818D02*
X1427727Y797387D01*
X1427727D02*
X1429091D01*
X1429091D02*
X1430000Y798012D01*
X1430000D02*
X1430909Y799262D01*
X1440000Y804262D02*
X1439545Y805513D01*
X1439545D02*
X1438182Y806138D01*
X1438182D02*
X1436818D01*
X1436818D02*
X1435455Y805513D01*
X1435455D02*
X1435000Y804262D01*
X1435000D02*
X1435455Y803012D01*
X1435455D02*
X1436364Y802387D01*
X1436364D02*
X1438636Y801762D01*
X1438636D02*
X1439545Y801137D01*
X1439545D02*
X1440000Y799887D01*
X1440000D02*
Y799262D01*
X1440000D02*
X1439545Y798012D01*
X1439545D02*
X1438182Y797387D01*
X1438182D02*
X1436818D01*
X1436818D02*
X1435455Y798012D01*
X1435455D02*
X1435000Y799262D01*
X1454545Y810513D02*
Y797387D01*
X1458636Y806138D02*
Y797387D01*
Y803637D02*
X1460000Y805513D01*
X1460000D02*
X1460909Y806138D01*
X1460909D02*
X1462273D01*
X1462273D02*
X1463182Y805513D01*
X1463182D02*
X1463636Y803637D01*
X1463636D02*
Y797387D01*
X1472727Y804262D02*
X1472273Y805513D01*
X1472273D02*
X1470909Y806138D01*
X1470909D02*
X1469545D01*
X1469545D02*
X1468182Y805513D01*
X1468182D02*
X1467727Y804262D01*
X1467727D02*
X1468182Y803012D01*
X1468182D02*
X1469091Y802387D01*
X1469091D02*
X1471364Y801762D01*
X1471364D02*
X1472273Y801137D01*
X1472273D02*
X1472727Y799887D01*
X1472727D02*
Y799262D01*
X1472727D02*
X1472273Y798012D01*
X1472273D02*
X1470909Y797387D01*
X1470909D02*
X1469545D01*
X1469545D02*
X1468182Y798012D01*
X1468182D02*
X1467727Y799262D01*
X1478182Y810513D02*
Y799887D01*
X1478182D02*
X1478636Y798012D01*
X1478636D02*
X1479545Y797387D01*
X1479545D02*
X1480455D01*
X1476818Y806138D02*
X1480000D01*
X1484545D02*
Y797387D01*
Y802387D02*
X1485000Y804262D01*
X1485000D02*
X1485909Y805513D01*
X1485909D02*
X1486818Y806138D01*
X1486818D02*
X1488182D01*
X1492273D02*
Y799887D01*
X1492273D02*
X1492727Y798012D01*
X1492727D02*
X1493636Y797387D01*
X1493636D02*
X1495000D01*
X1495000D02*
X1495909Y798012D01*
X1495909D02*
X1497273Y799887D01*
Y806138D02*
Y797387D01*
X1501364Y806138D02*
Y797387D01*
Y803637D02*
X1502727Y805513D01*
X1502727D02*
X1503636Y806138D01*
X1503636D02*
X1505000D01*
X1505000D02*
X1505909Y805513D01*
X1505909D02*
X1506364Y803637D01*
X1506364D02*
Y797387D01*
Y803637D02*
X1507727Y805513D01*
X1507727D02*
X1508636Y806138D01*
X1508636D02*
X1510000D01*
X1510000D02*
X1510909Y805513D01*
X1510909D02*
X1511364Y803637D01*
X1511364D02*
Y797387D01*
X1515455Y802387D02*
X1520909D01*
X1520909D02*
Y803637D01*
X1520909D02*
X1520455Y804887D01*
X1520455D02*
X1520000Y805513D01*
X1520000D02*
X1519091Y806138D01*
X1519091D02*
X1517727D01*
X1517727D02*
X1516818Y805513D01*
X1516818D02*
X1515909Y804262D01*
X1515909D02*
X1515455Y802387D01*
X1515455D02*
Y801137D01*
X1515455D02*
X1515909Y799262D01*
X1515909D02*
X1516818Y798012D01*
X1516818D02*
X1517727Y797387D01*
X1517727D02*
X1519091D01*
X1519091D02*
X1520000Y798012D01*
X1520000D02*
X1520909Y799262D01*
X1525000Y806138D02*
Y797387D01*
Y803637D02*
X1526364Y805513D01*
X1526364D02*
X1527273Y806138D01*
X1527273D02*
X1528636D01*
X1528636D02*
X1529545Y805513D01*
X1529545D02*
X1530000Y803637D01*
X1530000D02*
Y797387D01*
X1535455Y810513D02*
Y799887D01*
X1535455D02*
X1535909Y798012D01*
X1535909D02*
X1536818Y797387D01*
X1536818D02*
X1537727D01*
X1534091Y806138D02*
X1537273D01*
X1546818Y804262D02*
X1546364Y805513D01*
X1546364D02*
X1545000Y806138D01*
X1545000D02*
X1543636D01*
X1543636D02*
X1542273Y805513D01*
X1542273D02*
X1541818Y804262D01*
X1541818D02*
X1542273Y803012D01*
X1542273D02*
X1543182Y802387D01*
X1543182D02*
X1545455Y801762D01*
X1545455D02*
X1546364Y801137D01*
X1546364D02*
X1546818Y799887D01*
X1546818D02*
Y799262D01*
X1546818D02*
X1546364Y798012D01*
X1546364D02*
X1545000Y797387D01*
X1545000D02*
X1543636D01*
X1543636D02*
X1542273Y798012D01*
X1542273D02*
X1541818Y799262D01*
X1347305Y749372D02*
Y736247D01*
Y749372D02*
X1351396D01*
X1352759Y748747*
X1353214Y748122*
X1353669Y746872*
Y744997*
X1353214Y743747*
X1352759Y743122*
X1351396Y742497*
X1347305*
X1357759Y749372D02*
X1358214Y748747D01*
X1358669Y749372*
X1358214Y749997*
X1357759Y749372*
X1358214Y744997D02*
Y736247D01*
X1368214Y743122D02*
X1367305Y744372D01*
X1366396Y744997*
X1365032*
X1364123Y744372*
X1363214Y743122*
X1362759Y741247*
Y739997*
X1363214Y738122*
X1364123Y736872*
X1365032Y736247*
X1366396*
X1367305Y736872*
X1368214Y738122*
X1377759Y743122D02*
X1376850Y744372D01*
X1375941Y744997*
X1374578*
X1373669Y744372*
X1372759Y743122*
X1372305Y741247*
Y739997*
X1372759Y738122*
X1373669Y736872*
X1374578Y736247*
X1375941*
X1376850Y736872*
X1377759Y738122*
X1384123Y744997D02*
X1383214Y744372D01*
X1382305Y743122*
X1381850Y741247*
Y739997*
X1382305Y738122*
X1383214Y736872*
X1384123Y736247*
X1385487*
X1386396Y736872*
X1387305Y738122*
X1387759Y739997*
Y741247*
X1387305Y743122*
X1386396Y744372*
X1385487Y744997*
X1384123*
X1391850Y749372D02*
Y736247D01*
X1398214Y744997D02*
X1397305Y744372D01*
X1396396Y743122*
X1395941Y741247*
Y739997*
X1396396Y738122*
X1397305Y736872*
X1398214Y736247*
X1399578*
X1400487Y736872*
X1401396Y738122*
X1401850Y739997*
Y741247*
X1401396Y743122*
X1400487Y744372*
X1399578Y744997*
X1398214*
X1416396Y749372D02*
Y736247D01*
Y749372D02*
X1422305D01*
X1416396Y743122D02*
X1420032D01*
X1426850Y746247D02*
Y746872D01*
X1427305Y748122*
X1427759Y748747*
X1428669Y749372*
X1430487*
X1431396Y748747*
X1431850Y748122*
X1432305Y746872*
Y745622*
X1431850Y744372*
X1430941Y742497*
X1426396Y736247*
X1432759*
X1439123Y749372D02*
X1437759Y748747D01*
X1437305Y747497*
Y746247*
X1437759Y744997*
X1438669Y744372*
X1440487Y743747*
X1441850Y743122*
X1442759Y741872*
X1443214Y740622*
Y738747*
X1442759Y737497*
X1442305Y736872*
X1440941Y736247*
X1439123*
X1437759Y736872*
X1437305Y737497*
X1436850Y738747*
Y740622*
X1437305Y741872*
X1438214Y743122*
X1439578Y743747*
X1441396Y744372*
X1442305Y744997*
X1442759Y746247*
Y747497*
X1442305Y748747*
X1440941Y749372*
X1439123*
X1450032D02*
X1448669Y748747D01*
X1447759Y746872*
X1447305Y743747*
Y741872*
X1447759Y738747*
X1448669Y736872*
X1450032Y736247*
X1450941*
X1452305Y736872*
X1453214Y738747*
X1453669Y741872*
Y743747*
X1453214Y746872*
X1452305Y748747*
X1450941Y749372*
X1450032*
X1458669D02*
X1463669D01*
X1460941Y744372*
X1462305*
X1463214Y743747*
X1463669Y743122*
X1464123Y741247*
Y739997*
X1463669Y738122*
X1462759Y736872*
X1461396Y736247*
X1460032*
X1458669Y736872*
X1458214Y737497*
X1457759Y738747*
X1468214Y744997D02*
X1473214Y736247D01*
Y744997D02*
X1468214Y736247D01*
X1493214Y743122D02*
X1492305Y744372D01*
X1491396Y744997*
X1490032*
X1489123Y744372*
X1488214Y743122*
X1487759Y741247*
Y739997*
X1488214Y738122*
X1489123Y736872*
X1490032Y736247*
X1491396*
X1492305Y736872*
X1493214Y738122*
X1499578Y744997D02*
X1498669Y744372D01*
X1497759Y743122*
X1497305Y741247*
Y739997*
X1497759Y738122*
X1498669Y736872*
X1499578Y736247*
X1500941*
X1501850Y736872*
X1502759Y738122*
X1503214Y739997*
Y741247*
X1502759Y743122*
X1501850Y744372*
X1500941Y744997*
X1499578*
X1507305D02*
Y736247D01*
Y742497D02*
X1508669Y744372D01*
X1509578Y744997*
X1510941*
X1511850Y744372*
X1512305Y742497*
Y736247*
X1517759Y749372D02*
Y738747D01*
X1518214Y736872*
X1519123Y736247*
X1520032*
X1516396Y744997D02*
X1519578D01*
X1524123D02*
Y736247D01*
Y741247D02*
X1524578Y743122D01*
X1525487Y744372*
X1526396Y744997*
X1527759*
X1534123D02*
X1533214Y744372D01*
X1532305Y743122*
X1531850Y741247*
Y739997*
X1532305Y738122*
X1533214Y736872*
X1534123Y736247*
X1535487*
X1536396Y736872*
X1537305Y738122*
X1537759Y739997*
Y741247*
X1537305Y743122*
X1536396Y744372*
X1535487Y744997*
X1534123*
X1541850Y749372D02*
Y736247D01*
X1552759Y746247D02*
X1552305Y747497D01*
X1551396Y748747*
X1550487Y749372*
X1548669*
X1547759Y748747*
X1546850Y747497*
X1546396Y746247*
X1545941Y744372*
Y741247*
X1546396Y739372*
X1546850Y738122*
X1547759Y736872*
X1548669Y736247*
X1550487*
X1551396Y736872*
X1552305Y738122*
X1552759Y739372*
X1560487Y749372D02*
X1556850Y736247D01*
X1560487Y749372D02*
X1564123Y736247D01*
X1558214Y740622D02*
X1562759D01*
X1568214Y749372D02*
Y736247D01*
Y749372D02*
X1572305D01*
X1573669Y748747*
X1574123Y748122*
X1574578Y746872*
Y745622*
X1574123Y744372*
X1573669Y743747*
X1572305Y743122*
X1568214*
X1571396D02*
X1574578Y736247D01*
X1578669Y749372D02*
Y736247D01*
Y749372D02*
X1581850D01*
X1583214Y748747*
X1584123Y747497*
X1584578Y746247*
X1585032Y744372*
Y741247*
X1584578Y739372*
X1584123Y738122*
X1583214Y736872*
X1581850Y736247*
X1578669*
X1474159Y663984D02*
Y654141D01*
Y663984D02*
X1477227D01*
X1478250Y663516*
X1478591Y663047*
X1478932Y662109*
Y660703*
X1478591Y659766*
X1478250Y659297*
X1477227Y658828*
X1474159*
X1482000Y660703D02*
Y654141D01*
Y657891D02*
X1482341Y659297D01*
X1483023Y660234*
X1483705Y660703*
X1484727*
X1487795Y663984D02*
X1488136Y663516D01*
X1488477Y663984*
X1488136Y664453*
X1487795Y663984*
X1488136Y660703D02*
Y654141D01*
X1491545Y660703D02*
Y654141D01*
Y658828D02*
X1492568Y660234D01*
X1493250Y660703*
X1494273*
X1494955Y660234*
X1495295Y658828*
Y654141*
Y658828D02*
X1496318Y660234D01*
X1497000Y660703*
X1498023*
X1498705Y660234*
X1499045Y658828*
Y654141*
X1506205Y660703D02*
Y654141D01*
Y659297D02*
X1505523Y660234D01*
X1504841Y660703*
X1503818*
X1503136Y660234*
X1502455Y659297*
X1502114Y657891*
Y656953*
X1502455Y655547*
X1503136Y654609*
X1503818Y654141*
X1504841*
X1505523Y654609*
X1506205Y655547*
X1509273Y660703D02*
Y654141D01*
Y657891D02*
X1509614Y659297D01*
X1510295Y660234*
X1510977Y660703*
X1512000*
X1515409D02*
X1517455Y654141D01*
X1519500Y660703D02*
X1517455Y654141D01*
X1516773Y652266*
X1516091Y651328*
X1515409Y650859*
X1515068*
X1535182Y662578D02*
X1534500Y663516D01*
X1533477Y663984*
X1532114*
X1531091Y663516*
X1530409Y662578*
Y661641*
X1530750Y660703*
X1531091Y660234*
X1531773Y659766*
X1533818Y658828*
X1534500Y658359*
X1534841Y657891*
X1535182Y656953*
Y655547*
X1534500Y654609*
X1533477Y654141*
X1532114*
X1531091Y654609*
X1530409Y655547*
X1538250Y663984D02*
X1538591Y663516D01*
X1538932Y663984*
X1538591Y664453*
X1538250Y663984*
X1538591Y660703D02*
Y654141D01*
X1546091Y663984D02*
Y654141D01*
Y659297D02*
X1545409Y660234D01*
X1544727Y660703*
X1543705*
X1543023Y660234*
X1542341Y659297*
X1542000Y657891*
Y656953*
X1542341Y655547*
X1543023Y654609*
X1543705Y654141*
X1544727*
X1545409Y654609*
X1546091Y655547*
X1549159Y657891D02*
X1553250D01*
Y658828*
X1552909Y659766*
X1552568Y660234*
X1551886Y660703*
X1550864*
X1550182Y660234*
X1549500Y659297*
X1549159Y657891*
Y656953*
X1549500Y655547*
X1550182Y654609*
X1550864Y654141*
X1551886*
X1552568Y654609*
X1553250Y655547*
X1568932Y662578D02*
X1568250Y663516D01*
X1567227Y663984*
X1565864*
X1564841Y663516*
X1564159Y662578*
Y661641*
X1564500Y660703*
X1564841Y660234*
X1565523Y659766*
X1567568Y658828*
X1568250Y658359*
X1568591Y657891*
X1568932Y656953*
Y655547*
X1568250Y654609*
X1567227Y654141*
X1565864*
X1564841Y654609*
X1564159Y655547*
X1572000Y663984D02*
X1572341Y663516D01*
X1572682Y663984*
X1572341Y664453*
X1572000Y663984*
X1572341Y660703D02*
Y654141D01*
X1575750Y663984D02*
Y654141D01*
X1578818Y663984D02*
Y654141D01*
X1582227Y660703D02*
X1578818Y656016D01*
X1580182Y657891D02*
X1582568Y654141D01*
X1589386Y659297D02*
X1589045Y660234D01*
X1588023Y660703*
X1587000*
X1585977Y660234*
X1585636Y659297*
X1585977Y658359*
X1586659Y657891*
X1588364Y657422*
X1589045Y656953*
X1589386Y656016*
Y655547*
X1589045Y654609*
X1588023Y654141*
X1587000*
X1585977Y654609*
X1585636Y655547*
X1596545Y659297D02*
X1595864Y660234D01*
X1595182Y660703*
X1594159*
X1593477Y660234*
X1592795Y659297*
X1592455Y657891*
Y656953*
X1592795Y655547*
X1593477Y654609*
X1594159Y654141*
X1595182*
X1595864Y654609*
X1596545Y655547*
X1599614Y660703D02*
Y654141D01*
Y657891D02*
X1599955Y659297D01*
X1600636Y660234*
X1601318Y660703*
X1602341*
X1605409Y657891D02*
X1609500D01*
Y658828*
X1609159Y659766*
X1608818Y660234*
X1608136Y660703*
X1607114*
X1606432Y660234*
X1605750Y659297*
X1605409Y657891*
Y656953*
X1605750Y655547*
X1606432Y654609*
X1607114Y654141*
X1608136*
X1608818Y654609*
X1609500Y655547*
X1612568Y657891D02*
X1616659D01*
Y658828*
X1616318Y659766*
X1615977Y660234*
X1615295Y660703*
X1614273*
X1613591Y660234*
X1612909Y659297*
X1612568Y657891*
Y656953*
X1612909Y655547*
X1613591Y654609*
X1614273Y654141*
X1615295*
X1615977Y654609*
X1616659Y655547*
X1619727Y660703D02*
Y654141D01*
Y658828D02*
X1620750Y660234D01*
X1621432Y660703*
X1622455*
X1623136Y660234*
X1623477Y658828*
Y654141*
G54D28*
X1278182Y1063375D02*
X1279773Y1060094D01*
Y1063375D02*
X1278182Y1060094D01*
X1280795Y1062750D02*
X1281023Y1062906D01*
X1281364Y1063375*
Y1060094*
G54D33*
X1293000Y1030500D02*
X1312000D01*
Y1039500*
X1293000*
Y1030500*
X1316000Y1078000D02*
Y1092000D01*
X1309000*
Y1078000*
X1316000*
X1051500Y1087000D02*
Y1073000D01*
X1058500*
Y1087000*
X1051500*
X1019000Y1084500D02*
Y1070500D01*
X1026000*
Y1084500*
X1019000*
X1326000Y1078000D02*
Y1092000D01*
X1319000*
Y1078000*
X1326000*
X1336000D02*
Y1092000D01*
X1329000*
Y1078000*
X1336000*
X1103300Y1061500D02*
G75*
G03X1103300I-1650J0D01*
G01X1099300Y1049700D02*
X1101200Y1058400D01*
X1100600*
X1098624Y1049682D02*
X1100524Y1058382D01*
X1098600Y1049700D02*
X1099300D01*
X1101600Y1053700D02*
X1100700Y1049600D01*
X1104200Y1053700D02*
X1101600D01*
X1104600Y1055400D02*
X1104200Y1053700D01*
X1101900Y1055400D02*
X1104600D01*
X1102600Y1058300D02*
X1101900Y1055400D01*
X1104000Y1058500D02*
X1103300D01*
X1103100Y1058400*
X1102600Y1058300*
X1104900Y1058700D02*
X1104400Y1058500D01*
X1104000*
X1106000Y1058700D02*
X1104900D01*
X1106400Y1058500D02*
X1106100D01*
X1106000Y1058700*
X1107100Y1058400D02*
X1106400Y1058500D01*
X1107900Y1057800D02*
X1107500Y1058300D01*
X1107100Y1058400*
X1108100Y1057300D02*
X1107900Y1057800D01*
X1108100Y1056900D02*
X1107900Y1057300D01*
X1108100*
X1108200Y1056100D02*
X1108100Y1056900D01*
X1108300Y1055200D02*
X1108200Y1056100D01*
X1108300Y1054300D02*
Y1055200D01*
X1108500Y1053900D02*
X1108300Y1054300D01*
X1109300Y1052900D02*
X1108900Y1053600D01*
X1108500Y1053900*
X1109700Y1052100D02*
X1109300Y1052900D01*
X1109700Y1051400D02*
Y1052100D01*
X1109900Y1050400D02*
X1109700Y1051400D01*
X1109600Y1048600D02*
X1109900Y1049700D01*
Y1050400*
X1109300Y1048200D02*
X1109600Y1048600D01*
X1108100Y1047700D02*
X1109300Y1048200D01*
X1106700Y1047100D02*
X1108100Y1047700D01*
X1105500Y1046700D02*
X1106700Y1047100D01*
X1103400Y1045800D02*
X1104500Y1046300D01*
X1105500Y1046700*
X1102600Y1045400D02*
X1103400Y1045800D01*
X1101600Y1044800D02*
X1102600Y1045400D01*
X1101200Y1044000D02*
X1101600Y1044800D01*
X1100800Y1042700D02*
X1101200Y1044000D01*
X1100900Y1041800D02*
X1100800Y1042700D01*
X1101100Y1041200D02*
X1100900Y1041800D01*
X1101300Y1040800D02*
X1101100Y1041200D01*
Y1040300D02*
X1101300Y1040800D01*
X1099800Y1040100D02*
X1100800Y1040000D01*
X1101100Y1040300*
X1098500Y1040800D02*
X1099800Y1040100D01*
X1096800Y1041600D02*
X1098500Y1040800D01*
X1095900Y1042700D02*
X1096800Y1041600D01*
X1095400Y1043400D02*
X1095900Y1042700D01*
X1094900Y1044700D02*
X1095400Y1043400D01*
X1094900Y1045200D02*
Y1044700D01*
X1093800Y1046900D02*
X1094900Y1045200D01*
X1093000Y1048000D02*
X1093800Y1046900D01*
X1092400Y1048600D02*
X1093000Y1048000D01*
X1091000Y1048100D02*
X1092000Y1048800D01*
X1092400Y1048600*
X1090500Y1047700D02*
X1091000Y1048100D01*
X1089400Y1047700D02*
X1090500D01*
X1088000Y1048500D02*
X1089400Y1047700D01*
X1097100Y1048800D02*
Y1049100D01*
X1098200Y1053700*
X1097500Y1048400D02*
X1097100Y1048800D01*
X1098200Y1048000D02*
X1097500Y1048400D01*
X1099000Y1047700D02*
X1098200Y1048000D01*
X1099600Y1047700D02*
X1099000D01*
X1100900Y1048100D02*
X1100100Y1047800D01*
X1099600Y1047700*
X1101200Y1048900D02*
Y1048500D01*
X1100900Y1048200*
Y1048100*
Y1049500D02*
X1101100Y1049300D01*
X1101200Y1049100*
Y1048900*
X1100900Y1049500D02*
X1100700Y1049600D01*
X1086900Y1050200D02*
X1088000Y1048500D01*
X1086000Y1051400D02*
X1086900Y1050200D01*
X1084300Y1052800D02*
X1086000Y1051400D01*
X1083500Y1054300D02*
X1083800Y1053600D01*
X1084300Y1052800*
X1090400Y1054300D02*
X1083500D01*
X1098200Y1053700D02*
X1095400D01*
X1096000Y1055500*
X1098500*
X1097200Y1064600D02*
X1090400D01*
Y1054300*
X1098500Y1055500D02*
X1099300Y1058500D01*
X1098900Y1058700*
X1098000Y1059100*
X1097800Y1059500*
X1097200Y1060000*
Y1064600*
X1076273Y1039750D02*
Y1034500D01*
X1075000Y1039750D02*
X1077545D01*
X1079182Y1036500D02*
X1081364D01*
Y1037000*
X1081182Y1037500*
X1081000Y1037750*
X1080636Y1038000*
X1080091*
X1079727Y1037750*
X1079364Y1037250*
X1079182Y1036500*
Y1036000*
X1079364Y1035250*
X1079727Y1034750*
X1080091Y1034500*
X1080636*
X1081000Y1034750*
X1081364Y1035250*
X1083000Y1038000D02*
X1085000Y1034500D01*
Y1038000D02*
X1083000Y1034500D01*
X1088818Y1038000D02*
Y1034500D01*
Y1037250D02*
X1088455Y1037750D01*
X1088091Y1038000*
X1087545*
X1087182Y1037750*
X1086818Y1037250*
X1086636Y1036500*
Y1036000*
X1086818Y1035250*
X1087182Y1034750*
X1087545Y1034500*
X1088091*
X1088455Y1034750*
X1088818Y1035250*
X1092455Y1037250D02*
X1092273Y1037750D01*
X1091727Y1038000*
X1091182*
X1090636Y1037750*
X1090455Y1037250*
X1090636Y1036750*
X1091000Y1036500*
X1091909Y1036250*
X1092273Y1036000*
X1092455Y1035500*
Y1035250*
X1092273Y1034750*
X1091727Y1034500*
X1091182*
X1090636Y1034750*
X1090455Y1035250*
X1066000Y1031250D02*
Y1026000D01*
X1067636Y1029500D02*
Y1026000D01*
Y1028500D02*
X1068182Y1029250D01*
X1068545Y1029500*
X1069091*
X1069455Y1029250*
X1069636Y1028500*
Y1026000*
X1073273Y1028750D02*
X1073091Y1029250D01*
X1072545Y1029500*
X1072000*
X1071455Y1029250*
X1071273Y1028750*
X1071455Y1028250*
X1071818Y1028000*
X1072727Y1027750*
X1073091Y1027500*
X1073273Y1027000*
Y1026750*
X1073091Y1026250*
X1072545Y1026000*
X1072000*
X1071455Y1026250*
X1071273Y1026750*
X1075455Y1031250D02*
Y1027000D01*
X1075636Y1026250*
X1076000Y1026000*
X1076364*
X1074909Y1029500D02*
X1076182D01*
X1078000D02*
Y1026000D01*
Y1028000D02*
X1078182Y1028750D01*
X1078545Y1029250*
X1078909Y1029500*
X1079455*
X1081091D02*
Y1027000D01*
X1081273Y1026250*
X1081636Y1026000*
X1082182*
X1082545Y1026250*
X1083091Y1027000*
Y1029500D02*
Y1026000D01*
X1084727Y1029500D02*
Y1026000D01*
Y1028500D02*
X1085273Y1029250D01*
X1085636Y1029500*
X1086182*
X1086545Y1029250*
X1086727Y1028500*
Y1026000*
Y1028500D02*
X1087273Y1029250D01*
X1087636Y1029500*
X1088182*
X1088545Y1029250*
X1088727Y1028500*
Y1026000*
X1090364Y1028000D02*
X1092545D01*
Y1028500*
X1092364Y1029000*
X1092182Y1029250*
X1091818Y1029500*
X1091273*
X1090909Y1029250*
X1090545Y1028750*
X1090364Y1028000*
Y1027500*
X1090545Y1026750*
X1090909Y1026250*
X1091273Y1026000*
X1091818*
X1092182Y1026250*
X1092545Y1026750*
X1094182Y1029500D02*
Y1026000D01*
Y1028500D02*
X1094727Y1029250D01*
X1095091Y1029500*
X1095636*
X1096000Y1029250*
X1096182Y1028500*
Y1026000*
X1098364Y1031250D02*
Y1027000D01*
X1098545Y1026250*
X1098909Y1026000*
X1099273*
X1097818Y1029500D02*
X1099091D01*
X1102909Y1028750D02*
X1102727Y1029250D01*
X1102182Y1029500*
X1101636*
X1101091Y1029250*
X1100909Y1028750*
X1101091Y1028250*
X1101455Y1028000*
X1102364Y1027750*
X1102727Y1027500*
X1102909Y1027000*
Y1026750*
X1102727Y1026250*
X1102182Y1026000*
X1101636*
X1101091Y1026250*
X1100909Y1026750*
X652000Y645200D02*
X1688000D01*
Y1350000*
X652000*
Y645200*
X1253500D02*
X1688000D01*
Y840200*
X1253500*
Y645200*
X1253000Y785200D02*
X1688000D01*
Y645200*
X1253000*
Y785200*
Y675200D02*
X1688000D01*
Y645200*
X1253000*
Y675200*
X1413000*
Y645200*
X1253000*
Y675200*
Y785200D02*
X1688000D01*
Y840200*
X1253000*
Y785200*
Y715200D02*
X1688000D01*
Y785200*
X1253000*
Y715200*
X1553000Y675200D02*
X1688000D01*
Y715200*
X1553000*
Y675200*
X818500Y675700D02*
X1024000D01*
Y645200*
X818500*
Y675700*
X1024000Y645200D02*
X1253500D01*
Y675700*
X1024000*
Y645200*
X818500Y785700D02*
X1253500D01*
Y675700*
X818500*
Y785700*
G54D42*
X1247500Y1080244D02*
X1260500D01*
Y1085756*
X1247500*
Y1080244*
X1307244Y1056500D02*
Y1043500D01*
X1312756*
Y1056500*
X1307244*
X1059744Y1071500D02*
Y1058500D01*
X1065256*
Y1071500*
X1059744*
X1052244D02*
Y1058500D01*
X1057756*
Y1071500*
X1052244*
X1019744Y1044000D02*
Y1031000D01*
X1025256*
Y1044000*
X1019744*
X1054000Y1025256D02*
X1041000D01*
Y1019744*
X1054000*
Y1025256*
X1052244Y1046500D02*
Y1033500D01*
X1057756*
Y1046500*
X1052244*
X1026000Y1019744D02*
X1039000D01*
Y1025256*
X1026000*
Y1019744*
X1313240Y1093300D02*
G03X1313240I-640J0D01*
G01X1323150Y1030807D02*
Y1044193D01*
X1316850*
Y1030807*
X1323150*
X1315193Y1028650D02*
X1301807D01*
Y1022350*
X1315193*
Y1028650*
X1123453Y1069429D02*
X1122469Y1068445D01*
X1111547*
Y1086555*
X1123453*
Y1069429*
Y1044429D02*
X1122469Y1043445D01*
X1111547*
Y1061555*
X1123453*
Y1044429*
X1180953Y1076929D02*
X1179969Y1075945D01*
X1169047*
Y1094055*
X1180953*
Y1076929*
X1084618Y1077055D02*
Y1058945D01*
X1074382*
Y1077055*
X1084618*
X1076075Y1057169D02*
G03X1076075I-500J0D01*
G01X1075169Y1075117D02*
X1075356Y1074845D01*
X1075731Y1074572*
X1076106Y1074436*
X1076669Y1074299*
X1077606*
X1078169Y1074436*
X1078544Y1074572*
X1078919Y1074845*
X1079106Y1075117*
Y1075663*
X1078919Y1075936*
X1078544Y1076208*
X1078169Y1076345*
X1077606Y1076481*
X1076669*
X1076106Y1076345*
X1075731Y1076208*
X1075356Y1075936*
X1075169Y1075663*
Y1075117*
X1079893Y1074299D02*
X1083831D01*
X1079893D02*
X1083831Y1076208D01*
X1079893D02*
X1083831D01*
X1327500Y1023500D02*
X1342500D01*
Y1046500*
X1327500*
Y1023500*
X1331500Y1041500D02*
Y1028500D01*
X1334000*
Y1041500*
X1331500*
X1336500D02*
Y1028500D01*
X1339000*
Y1041500*
X1336500*
X1329125Y1046024D02*
X1328853Y1045837D01*
X1328580Y1045462*
X1328443Y1045087*
X1328307Y1044524*
Y1043587*
X1328443Y1043024*
X1328580Y1042649*
X1328853Y1042274*
X1329125Y1042087*
X1329671*
X1329943Y1042274*
X1330216Y1042649*
X1330353Y1043024*
X1330489Y1043587*
Y1044524*
X1330353Y1045087*
X1330216Y1045462*
X1329943Y1045837*
X1329671Y1046024*
X1329125*
X1331716D02*
Y1042087D01*
Y1046024D02*
X1333625Y1042087D01*
Y1046024D02*
Y1042087D01*
X1327913Y1021258D02*
X1328186Y1021446D01*
X1328595Y1022008*
Y1018071*
X1139500Y1040945D02*
Y1019055D01*
X1162500*
Y1040945*
X1139500*
X1136500Y1039188D02*
X1136773Y1039375D01*
X1137182Y1039938*
X1137182D02*
Y1036000D01*
X1199315Y1075185D02*
Y1074594D01*
X1200102Y1074201*
X1199315Y1073807*
Y1035815*
X1238685*
Y1075185*
X1199315*
X1194000Y1076500D02*
G03X1194000I-500J0D01*
G01X1142250Y1063750D02*
X1136750D01*
Y1076250*
X1142250*
Y1063750*
Y1046250D02*
X1136750D01*
Y1058750*
X1142250*
Y1046250*
X1306500Y1052750D02*
Y1047250D01*
X1293750*
Y1052750*
X1306500*
Y1047250*
X1293750*
Y1052750*
X1306500*
X1300250Y1081250D02*
X1294750D01*
Y1093750*
X1300250*
Y1081250*
X1323240Y1093300D02*
G03X1323240I-640J0D01*
G01X1333240D02*
G03X1333240I-640J0D01*
G01X1276000Y1071756D02*
X1263000D01*
Y1066244*
X1276000*
Y1071756*
X1276705Y1049232D02*
X1252295D01*
Y1065768*
X1276705*
Y1049232*
X1278382Y1065067D02*
G03X1278382I-500J0D01*
G01X1276000Y1077756D02*
X1263000D01*
Y1072244*
X1276000*
Y1077756*
X1253500Y1042744D02*
X1266500D01*
Y1048256*
X1253500*
Y1042744*
X1285427Y1036656D02*
X1285291Y1037031D01*
X1285018Y1037406*
X1284745Y1037594*
X1284200*
X1283927Y1037406*
X1283655Y1037031*
X1283518Y1036656*
X1283382Y1036094*
Y1035156*
X1283518Y1034594*
X1283655Y1034219*
X1283927Y1033844*
X1284200Y1033656*
X1284745*
X1285018Y1033844*
X1285291Y1034219*
X1285427Y1034594*
X1286655Y1036844D02*
X1286927Y1037031D01*
X1287336Y1037594*
Y1033656*
X1288836Y1037594D02*
X1290336D01*
X1289518Y1036094*
X1289927*
X1290200Y1035906*
X1290336Y1035719*
X1290473Y1035156*
Y1034781*
X1290336Y1034219*
X1290064Y1033844*
X1289655Y1033656*
X1289245*
X1288836Y1033844*
X1288700Y1034031*
X1288564Y1034406*
X1252045Y1089500D02*
X1251909Y1089875D01*
X1251636Y1090250*
X1251364Y1090438*
X1251364D02*
X1250818D01*
X1250818D02*
X1250545Y1090250D01*
X1250273Y1089875*
X1250136Y1089500*
X1250000Y1088938*
X1250000D02*
Y1088000D01*
X1250136Y1087438*
X1250136D02*
X1250273Y1087063D01*
X1250273D02*
X1250545Y1086688D01*
X1250545D02*
X1250818Y1086500D01*
X1251364*
X1251636Y1086688*
X1251636D02*
X1251909Y1087063D01*
X1251909D02*
X1252045Y1087438D01*
X1253273Y1089688D02*
X1253545Y1089875D01*
X1253955Y1090438*
X1253955D02*
Y1086500D01*
X1256818Y1089875D02*
X1256682Y1090250D01*
X1256273Y1090438*
X1256273D02*
X1256000D01*
X1256000D02*
X1255591Y1090250D01*
X1255318Y1089688*
X1255318D02*
X1255182Y1088750D01*
Y1087813*
X1255182D02*
X1255318Y1087063D01*
X1255318D02*
X1255591Y1086688D01*
X1255591D02*
X1256000Y1086500D01*
X1256136*
X1256545Y1086688*
X1256545D02*
X1256818Y1087063D01*
X1256818D02*
X1256955Y1087625D01*
Y1087813*
X1256955D02*
X1256818Y1088375D01*
X1256545Y1088750*
X1256136Y1088938*
X1256136D02*
X1256000D01*
X1256000D02*
X1255591Y1088750D01*
X1255318Y1088375*
X1255182Y1087813*
X1309000Y1060045D02*
X1308625Y1059909D01*
X1308250Y1059636*
X1308062Y1059364*
Y1058818*
X1308250Y1058545*
X1308625Y1058273*
X1309000Y1058136*
X1309562Y1058000*
X1310500*
X1311062Y1058136*
X1311437Y1058273*
X1311812Y1058545*
X1312000Y1058818*
Y1059364*
X1311812Y1059636*
X1311437Y1059909*
X1311062Y1060045*
X1308812Y1061273D02*
X1308625Y1061545D01*
X1308062Y1061955*
X1312000*
X1308062Y1065091D02*
X1312000Y1063727D01*
X1308062Y1063182D02*
Y1065091D01*
X1061500Y1050045D02*
X1061125Y1049909D01*
X1060750Y1049636*
X1060562Y1049364*
X1060562D02*
Y1048818D01*
X1060562D02*
X1060750Y1048545D01*
X1061125Y1048273*
X1061500Y1048136*
X1062062Y1048000*
X1062062D02*
X1063000D01*
X1063562Y1048136*
X1063562D02*
X1063937Y1048273D01*
X1063937D02*
X1064312Y1048545D01*
X1064312D02*
X1064500Y1048818D01*
Y1049364*
X1064312Y1049636*
X1064312D02*
X1063937Y1049909D01*
X1063937D02*
X1063562Y1050045D01*
X1061500Y1051409D02*
X1061312D01*
X1061312D02*
X1060937Y1051545D01*
X1060937D02*
X1060750Y1051682D01*
X1060562Y1051955*
X1060562D02*
Y1052500D01*
X1060562D02*
X1060750Y1052773D01*
X1060937Y1052909*
X1060937D02*
X1061312Y1053045D01*
X1061312D02*
X1061687D01*
X1061687D02*
X1062062Y1052909D01*
X1062062D02*
X1062625Y1052636D01*
X1064500Y1051273*
Y1053182*
X1061500Y1054545D02*
X1061312D01*
X1061312D02*
X1060937Y1054682D01*
X1060937D02*
X1060750Y1054818D01*
X1060562Y1055091*
X1060562D02*
Y1055636D01*
X1060562D02*
X1060750Y1055909D01*
X1060937Y1056045*
X1060937D02*
X1061312Y1056182D01*
X1061312D02*
X1061687D01*
X1061687D02*
X1062062Y1056045D01*
X1062062D02*
X1062625Y1055773D01*
X1064500Y1054409*
Y1056318*
X1054000Y1050545D02*
X1053625Y1050409D01*
X1053250Y1050136*
X1053062Y1049864*
X1053062D02*
Y1049318D01*
X1053062D02*
X1053250Y1049045D01*
X1053625Y1048773*
X1054000Y1048636*
X1054562Y1048500*
X1054562D02*
X1055500D01*
X1056062Y1048636*
X1056062D02*
X1056437Y1048773D01*
X1056437D02*
X1056812Y1049045D01*
X1056812D02*
X1057000Y1049318D01*
Y1049864*
X1056812Y1050136*
X1056812D02*
X1056437Y1050409D01*
X1056437D02*
X1056062Y1050545D01*
X1054000Y1051909D02*
X1053812D01*
X1053812D02*
X1053437Y1052045D01*
X1053437D02*
X1053250Y1052182D01*
X1053062Y1052455*
X1053062D02*
Y1053000D01*
X1053062D02*
X1053250Y1053273D01*
X1053437Y1053409*
X1053437D02*
X1053812Y1053545D01*
X1053812D02*
X1054187D01*
X1054187D02*
X1054562Y1053409D01*
X1054562D02*
X1055125Y1053136D01*
X1057000Y1051773*
Y1053682*
X1053062Y1056273D02*
X1055687Y1054909D01*
X1055687D02*
Y1056955D01*
X1053062Y1056273D02*
X1057000D01*
X1015500Y1034545D02*
X1015125Y1034409D01*
X1014750Y1034136*
X1014563Y1033864*
X1014563D02*
Y1033318D01*
X1014563D02*
X1014750Y1033045D01*
X1015125Y1032773*
X1015500Y1032636*
X1016063Y1032500*
X1016063D02*
X1017000D01*
X1017563Y1032636*
X1017563D02*
X1017938Y1032773D01*
X1017938D02*
X1018313Y1033045D01*
X1018313D02*
X1018500Y1033318D01*
Y1033864*
X1018313Y1034136*
X1018313D02*
X1017938Y1034409D01*
X1017938D02*
X1017563Y1034545D01*
X1015500Y1035909D02*
X1015313D01*
X1015313D02*
X1014938Y1036045D01*
X1014938D02*
X1014750Y1036182D01*
X1014563Y1036455*
X1014563D02*
Y1037000D01*
X1014563D02*
X1014750Y1037273D01*
X1014938Y1037409*
X1014938D02*
X1015313Y1037545D01*
X1015313D02*
X1015688D01*
X1015688D02*
X1016063Y1037409D01*
X1016063D02*
X1016625Y1037136D01*
X1018500Y1035773*
Y1037682*
X1014563Y1040682D02*
Y1039318D01*
X1014563D02*
X1016250Y1039182D01*
X1016063Y1039318*
X1016063D02*
X1015875Y1039727D01*
Y1040136*
X1016063Y1040545*
X1016063D02*
X1016438Y1040818D01*
X1016438D02*
X1017000Y1040955D01*
X1017375Y1040818*
X1017938Y1040682*
X1017938D02*
X1018313Y1040409D01*
X1018313D02*
X1018500Y1040000D01*
Y1039591*
X1018313Y1039182*
X1018313D02*
X1018125Y1039045D01*
X1017750Y1038909*
X1058545Y1023500D02*
X1058409Y1023875D01*
X1058136Y1024250*
X1057864Y1024438*
X1057318*
X1057045Y1024250*
X1056773Y1023875*
X1056636Y1023500*
X1056500Y1022938*
Y1022000*
X1056636Y1021438*
X1056773Y1021063*
X1057045Y1020688*
X1057318Y1020500*
X1057864*
X1058136Y1020688*
X1058409Y1021063*
X1058545Y1021438*
X1059909Y1023500D02*
Y1023688D01*
X1060045Y1024063*
X1060182Y1024250*
X1060455Y1024438*
X1061000*
X1061273Y1024250*
X1061409Y1024063*
X1061545Y1023688*
Y1023313*
X1061409Y1022938*
X1061136Y1022375*
X1059773Y1020500*
X1061682*
X1064545Y1023875D02*
X1064409Y1024250D01*
X1064000Y1024438*
X1063727*
X1063318Y1024250*
X1063045Y1023688*
X1062909Y1022750*
Y1021813*
X1063045Y1021063*
X1063318Y1020688*
X1063727Y1020500*
X1063864*
X1064273Y1020688*
X1064545Y1021063*
X1064682Y1021625*
Y1021813*
X1064545Y1022375*
X1064273Y1022750*
X1063864Y1022938*
X1063727*
X1063318Y1022750*
X1063045Y1022375*
X1062909Y1021813*
X1060000Y1036045D02*
X1059625Y1035909D01*
X1059250Y1035636*
X1059062Y1035364*
X1059062D02*
Y1034818D01*
X1059062D02*
X1059250Y1034545D01*
X1059625Y1034273*
X1060000Y1034136*
X1060562Y1034000*
X1060562D02*
X1061500D01*
X1062062Y1034136*
X1062062D02*
X1062437Y1034273D01*
X1062437D02*
X1062812Y1034545D01*
X1062812D02*
X1063000Y1034818D01*
Y1035364*
X1062812Y1035636*
X1062812D02*
X1062437Y1035909D01*
X1062437D02*
X1062062Y1036045D01*
X1060000Y1037409D02*
X1059812D01*
X1059812D02*
X1059437Y1037545D01*
X1059437D02*
X1059250Y1037682D01*
X1059062Y1037955*
X1059062D02*
Y1038500D01*
X1059062D02*
X1059250Y1038773D01*
X1059437Y1038909*
X1059437D02*
X1059812Y1039045D01*
X1059812D02*
X1060187D01*
X1060187D02*
X1060562Y1038909D01*
X1060562D02*
X1061125Y1038636D01*
X1063000Y1037273*
Y1039182*
X1059062Y1042318D02*
X1063000Y1040955D01*
X1059062Y1040409D02*
Y1042318D01*
X1017045Y1023000D02*
X1016909Y1023375D01*
X1016636Y1023750*
X1016364Y1023938*
X1016364D02*
X1015818D01*
X1015818D02*
X1015545Y1023750D01*
X1015273Y1023375*
X1015136Y1023000*
X1015000Y1022438*
X1015000D02*
Y1021500D01*
X1015136Y1020938*
X1015136D02*
X1015273Y1020563D01*
X1015273D02*
X1015545Y1020188D01*
X1015545D02*
X1015818Y1020000D01*
X1016364*
X1016636Y1020188*
X1016636D02*
X1016909Y1020563D01*
X1016909D02*
X1017045Y1020938D01*
X1018409Y1023000D02*
Y1023188D01*
X1018409D02*
X1018545Y1023563D01*
X1018545D02*
X1018682Y1023750D01*
X1018955Y1023938*
X1018955D02*
X1019500D01*
X1019500D02*
X1019773Y1023750D01*
X1019909Y1023563*
X1019909D02*
X1020045Y1023188D01*
X1020045D02*
Y1022813D01*
X1020045D02*
X1019909Y1022438D01*
X1019909D02*
X1019636Y1021875D01*
X1018273Y1020000*
X1020182*
X1022091Y1023938D02*
X1021682Y1023750D01*
X1021545Y1023375*
Y1023000*
X1021682Y1022625*
X1021955Y1022438*
X1021955D02*
X1022500Y1022250D01*
X1022909Y1022063*
X1022909D02*
X1023182Y1021688D01*
X1023182D02*
X1023318Y1021313D01*
X1023318D02*
Y1020750D01*
X1023182Y1020375*
X1023045Y1020188*
X1023045D02*
X1022636Y1020000D01*
X1022091*
X1021682Y1020188*
X1021682D02*
X1021545Y1020375D01*
X1021409Y1020750*
Y1021313*
X1021409D02*
X1021545Y1021688D01*
X1021545D02*
X1021818Y1022063D01*
X1021818D02*
X1022227Y1022250D01*
X1022773Y1022438*
X1022773D02*
X1023045Y1022625D01*
X1023182Y1023000*
Y1023375*
X1023045Y1023750*
X1022636Y1023938*
X1022636D02*
X1022091D01*
X1311062Y1067500D02*
X1315000D01*
Y1069136*
X1311062Y1070364D02*
X1315000D01*
X1311062D02*
Y1071318D01*
X1311062D02*
X1311250Y1071727D01*
X1311625Y1072000*
X1312000Y1072136*
X1312562Y1072273*
X1312562D02*
X1313500D01*
X1314062Y1072136*
X1314062D02*
X1314437Y1072000D01*
X1314437D02*
X1314812Y1071727D01*
X1314812D02*
X1315000Y1071318D01*
Y1070364*
X1311812Y1073500D02*
X1311625Y1073773D01*
X1311062Y1074182*
X1311062D02*
X1315000D01*
X1319062Y1022000D02*
X1323000D01*
X1319062D02*
Y1023227D01*
X1319062D02*
X1319250Y1023636D01*
X1319437Y1023773*
X1319437D02*
X1319812Y1023909D01*
X1319812D02*
X1320187D01*
X1320187D02*
X1320562Y1023773D01*
X1320562D02*
X1320750Y1023636D01*
X1320937Y1023227*
X1320937D02*
Y1022000D01*
Y1022955D02*
X1323000Y1023909D01*
X1319812Y1025136D02*
X1319625Y1025409D01*
X1319062Y1025818*
X1319062D02*
X1323000D01*
X1319062Y1027318D02*
Y1028818D01*
X1319062D02*
X1320562Y1028000D01*
X1320562D02*
Y1028409D01*
X1320562D02*
X1320750Y1028682D01*
X1320937Y1028818*
X1320937D02*
X1321500Y1028955D01*
X1321875*
X1322437Y1028818*
X1322437D02*
X1322812Y1028545D01*
X1322812D02*
X1323000Y1028136D01*
Y1027727*
X1322812Y1027318*
X1322812D02*
X1322625Y1027182D01*
X1322250Y1027045*
X1060406Y1078336D02*
X1064344D01*
X1060406D02*
Y1079564D01*
X1060594Y1079973*
X1060781Y1080109*
X1061156Y1080245*
X1061531*
X1061906Y1080109*
X1062094Y1079973*
X1062281Y1079564*
Y1078336*
Y1079291D02*
X1064344Y1080245D01*
X1060406Y1083245D02*
Y1081882D01*
X1062094Y1081745*
X1061906Y1081882*
X1061719Y1082291*
Y1082700*
X1061906Y1083109*
X1062281Y1083382*
X1062844Y1083518*
X1063219Y1083382*
X1063781Y1083245*
X1064156Y1082973*
X1064344Y1082564*
Y1082155*
X1064156Y1081745*
X1063969Y1081609*
X1063594Y1081473*
X1020906Y1061973D02*
X1024844D01*
X1020906D02*
Y1063200D01*
X1021094Y1063609*
X1021281Y1063745*
X1021656Y1063882*
X1022031*
X1022406Y1063745*
X1022594Y1063609*
X1022781Y1063200*
Y1061973*
Y1062927D02*
X1024844Y1063882D01*
X1021469Y1066745D02*
X1021094Y1066609D01*
X1020906Y1066200*
Y1065927*
X1021094Y1065518*
X1021656Y1065245*
X1022594Y1065109*
X1023531*
X1024281Y1065245*
X1024656Y1065518*
X1024844Y1065927*
Y1066064*
X1024656Y1066473*
X1024281Y1066745*
X1023719Y1066882*
X1023531*
X1022969Y1066745*
X1022594Y1066473*
X1022406Y1066064*
Y1065927*
X1022594Y1065518*
X1022969Y1065245*
X1023531Y1065109*
X1294500Y1027438D02*
Y1023500D01*
Y1027438D02*
X1295727D01*
X1295727D02*
X1296136Y1027250D01*
X1296273Y1027063*
X1296273D02*
X1296409Y1026688D01*
X1296409D02*
Y1026313D01*
X1296409D02*
X1296273Y1025938D01*
X1296273D02*
X1296136Y1025750D01*
X1295727Y1025563*
X1295727D02*
X1294500D01*
X1295455D02*
X1296409Y1023500D01*
X1299409Y1026125D02*
X1299273Y1025563D01*
X1299273D02*
X1299000Y1025188D01*
X1299000D02*
X1298591Y1025000D01*
X1298455*
X1298045Y1025188*
X1298045D02*
X1297773Y1025563D01*
X1297773D02*
X1297636Y1026125D01*
Y1026313*
X1297636D02*
X1297773Y1026875D01*
X1298045Y1027250*
X1298455Y1027438*
X1298455D02*
X1298591D01*
X1298591D02*
X1299000Y1027250D01*
X1299273Y1026875*
X1299409Y1026125*
Y1025188*
X1299409D02*
X1299273Y1024250D01*
X1299000Y1023688*
X1299000D02*
X1298591Y1023500D01*
X1298318*
X1297909Y1023688*
X1297909D02*
X1297773Y1024063D01*
X1113500Y1067438D02*
Y1063500D01*
Y1067438D02*
X1114727D01*
X1114727D02*
X1115136Y1067250D01*
X1115273Y1067063*
X1115273D02*
X1115409Y1066688D01*
X1115409D02*
Y1066313D01*
X1115409D02*
X1115273Y1065938D01*
X1115273D02*
X1115136Y1065750D01*
X1114727Y1065563*
X1114727D02*
X1113500D01*
X1114455D02*
X1115409Y1063500D01*
X1116636Y1067438D02*
Y1063500D01*
Y1067438D02*
X1118545Y1063500D01*
Y1067438D02*
Y1063500D01*
X1119773Y1066688D02*
X1120045Y1066875D01*
X1120455Y1067438*
X1120455D02*
Y1063500D01*
X1113500Y1041938D02*
Y1038000D01*
Y1041938D02*
X1114727D01*
X1114727D02*
X1115136Y1041750D01*
X1115273Y1041563*
X1115273D02*
X1115409Y1041188D01*
X1115409D02*
Y1040813D01*
X1115409D02*
X1115273Y1040438D01*
X1115273D02*
X1115136Y1040250D01*
X1114727Y1040063*
X1114727D02*
X1113500D01*
X1114455D02*
X1115409Y1038000D01*
X1116636Y1041938D02*
Y1038000D01*
Y1041938D02*
X1118545Y1038000D01*
Y1041938D02*
Y1038000D01*
X1119909Y1041000D02*
Y1041188D01*
X1119909D02*
X1120045Y1041563D01*
X1120045D02*
X1120182Y1041750D01*
X1120455Y1041938*
X1120455D02*
X1121000D01*
X1121000D02*
X1121273Y1041750D01*
X1121409Y1041563*
X1121409D02*
X1121545Y1041188D01*
X1121545D02*
Y1040813D01*
X1121545D02*
X1121409Y1040438D01*
X1121409D02*
X1121136Y1039875D01*
X1119773Y1038000*
X1121682*
X1182062Y1076500D02*
X1186000D01*
X1182062D02*
Y1077727D01*
X1182062D02*
X1182250Y1078136D01*
X1182437Y1078273*
X1182437D02*
X1182812Y1078409D01*
X1182812D02*
X1183187D01*
X1183187D02*
X1183562Y1078273D01*
X1183562D02*
X1183750Y1078136D01*
X1183937Y1077727*
X1183937D02*
Y1076500D01*
Y1077455D02*
X1186000Y1078409D01*
X1182062Y1079636D02*
X1186000D01*
X1182062D02*
X1186000Y1081545D01*
X1182062D02*
X1186000D01*
X1182062Y1083045D02*
Y1084545D01*
X1182062D02*
X1183562Y1083727D01*
X1183562D02*
Y1084136D01*
X1183562D02*
X1183750Y1084409D01*
X1183937Y1084545*
X1183937D02*
X1184500Y1084682D01*
X1184875*
X1185437Y1084545*
X1185437D02*
X1185812Y1084273D01*
X1185812D02*
X1186000Y1083864D01*
Y1083455*
X1185812Y1083045*
X1185812D02*
X1185625Y1082909D01*
X1185250Y1082773*
X1068625Y1062409D02*
X1068250Y1062136D01*
X1068063Y1061727*
X1068063D02*
Y1061182D01*
X1068063D02*
X1068250Y1060773D01*
X1068625Y1060500*
X1069000*
X1069375Y1060636*
X1069563Y1060773*
X1069563D02*
X1069750Y1061045D01*
X1070125Y1061864*
X1070313Y1062136*
X1070313D02*
X1070500Y1062273D01*
X1070875Y1062409*
X1071438*
X1071438D02*
X1071813Y1062136D01*
X1071813D02*
X1072000Y1061727D01*
Y1061182*
X1071813Y1060773*
X1071813D02*
X1071438Y1060500D01*
X1068063Y1063636D02*
X1072000Y1064318D01*
X1068063Y1065000D02*
X1072000Y1064318D01*
X1068063Y1065000D02*
X1072000Y1065682D01*
X1068063Y1066364D02*
X1072000Y1065682D01*
X1068813Y1067591D02*
X1068625Y1067864D01*
X1068063Y1068273*
X1068063D02*
X1072000D01*
X1344223Y1025885D02*
X1343848Y1025613D01*
X1343661Y1025204*
Y1024658*
X1343848Y1024249*
X1344223Y1023976*
X1344598*
X1344973Y1024113*
X1345161Y1024249*
X1345348Y1024522*
X1345723Y1025340*
X1345911Y1025613*
X1346098Y1025749*
X1346473Y1025885*
X1347036*
X1347411Y1025613*
X1347598Y1025204*
Y1024658*
X1347411Y1024249*
X1347036Y1023976*
X1343661Y1027113D02*
X1347598Y1027795D01*
X1343661Y1028476D02*
X1347598Y1027795D01*
X1343661Y1028476D02*
X1347598Y1029158D01*
X1343661Y1029840D02*
X1347598Y1029158D01*
X1344598Y1031204D02*
X1344411D01*
X1344036Y1031340*
X1343848Y1031476*
X1343661Y1031749*
Y1032295*
X1343848Y1032567*
X1344036Y1032704*
X1344411Y1032840*
X1344786*
X1345161Y1032704*
X1345723Y1032431*
X1347598Y1031067*
Y1032976*
X1135125Y1023909D02*
X1134750Y1023636D01*
X1134563Y1023227*
X1134563D02*
Y1022682D01*
X1134563D02*
X1134750Y1022273D01*
X1135125Y1022000*
X1135500*
X1135875Y1022136*
X1136063Y1022273*
X1136063D02*
X1136250Y1022545D01*
X1136625Y1023364*
X1136813Y1023636*
X1136813D02*
X1137000Y1023773D01*
X1137375Y1023909*
X1137938*
X1137938D02*
X1138313Y1023636D01*
X1138313D02*
X1138500Y1023227D01*
Y1022682*
X1138313Y1022273*
X1138313D02*
X1137938Y1022000D01*
X1134563Y1025136D02*
X1138500Y1025818D01*
X1134563Y1026500D02*
X1138500Y1025818D01*
X1134563Y1026500D02*
X1138500Y1027182D01*
X1134563Y1027864D02*
X1138500Y1027182D01*
X1134563Y1029364D02*
Y1030864D01*
X1134563D02*
X1136063Y1030045D01*
X1136063D02*
Y1030455D01*
X1136063D02*
X1136250Y1030727D01*
X1136438Y1030864*
X1136438D02*
X1137000Y1031000D01*
X1137375*
X1137938Y1030864*
X1137938D02*
X1138313Y1030591D01*
X1138313D02*
X1138500Y1030182D01*
Y1029773*
X1138313Y1029364*
X1138313D02*
X1138125Y1029227D01*
X1137750Y1029091*
X1189000Y1081937D02*
Y1079125D01*
X1189136Y1078562*
X1189136D02*
X1189409Y1078187D01*
X1189409D02*
X1189818Y1078000D01*
X1190091*
X1190500Y1078187*
X1190500D02*
X1190773Y1078562D01*
X1190773D02*
X1190909Y1079125D01*
Y1081937*
X1192136Y1081187D02*
X1192409Y1081375D01*
X1192818Y1081937*
X1192818D02*
Y1078000D01*
X1148406Y1067905D02*
X1151219D01*
X1151781Y1068041*
X1152156Y1068314*
X1152344Y1068723*
Y1068995*
X1152156Y1069405*
X1151781Y1069677*
X1151219Y1069814*
X1148406*
X1149344Y1071177D02*
X1149156D01*
X1148781Y1071314*
X1148594Y1071450*
X1148406Y1071723*
Y1072268*
X1148594Y1072541*
X1148781Y1072677*
X1149156Y1072814*
X1149531*
X1149906Y1072677*
X1150469Y1072405*
X1152344Y1071041*
Y1072950*
X1148406Y1049905D02*
X1151219D01*
X1151781Y1050041*
X1152156Y1050314*
X1152344Y1050723*
Y1050995*
X1152156Y1051405*
X1151781Y1051677*
X1151219Y1051814*
X1148406*
Y1053314D02*
Y1054814D01*
X1149906Y1053995*
Y1054405*
X1150094Y1054677*
X1150281Y1054814*
X1150844Y1054950*
X1151219*
X1151781Y1054814*
X1152156Y1054541*
X1152344Y1054132*
Y1053723*
X1152156Y1053314*
X1151969Y1053177*
X1151594Y1053041*
X1286836Y1052094D02*
Y1049281D01*
X1286973Y1048719*
X1287245Y1048344*
X1287655Y1048156*
X1287927*
X1288336Y1048344*
X1288609Y1048719*
X1288745Y1049281*
Y1052094*
X1291336D02*
X1289973Y1049469D01*
X1292018*
X1291336Y1052094D02*
Y1048156D01*
X1021836Y1051594D02*
Y1048781D01*
X1021973Y1048219*
X1022245Y1047844*
X1022655Y1047656*
X1022927*
X1023336Y1047844*
X1023609Y1048219*
X1023745Y1048781*
Y1051594*
X1026745D02*
X1025382D01*
X1025245Y1049906*
X1025382Y1050094*
X1025791Y1050281*
X1026200*
X1026609Y1050094*
X1026882Y1049719*
X1027018Y1049156*
X1026882Y1048781*
X1026745Y1048219*
X1026473Y1047844*
X1026064Y1047656*
X1025655*
X1025245Y1047844*
X1025109Y1048031*
X1024973Y1048406*
X1047973Y1092594D02*
Y1089781D01*
X1048109Y1089219*
X1048382Y1088844*
X1048791Y1088656*
X1049064*
X1049473Y1088844*
X1049745Y1089219*
X1049882Y1089781*
Y1092594*
X1052745Y1092031D02*
X1052609Y1092406D01*
X1052200Y1092594*
X1051927*
X1051518Y1092406*
X1051245Y1091844*
X1051109Y1090906*
Y1089969*
X1051245Y1089219*
X1051518Y1088844*
X1051927Y1088656*
X1052064*
X1052473Y1088844*
X1052745Y1089219*
X1052882Y1089781*
Y1089969*
X1052745Y1090531*
X1052473Y1090906*
X1052064Y1091094*
X1051927*
X1051518Y1090906*
X1051245Y1090531*
X1051109Y1089969*
X1294905Y1079094D02*
Y1076281D01*
X1295041Y1075719*
X1295314Y1075344*
X1295723Y1075156*
X1295995*
X1296405Y1075344*
X1296677Y1075719*
X1296814Y1076281*
Y1079094*
X1299950D02*
X1298586Y1075156D01*
X1298041Y1079094D02*
X1299950D01*
X1321062Y1067500D02*
X1325000D01*
Y1069136*
X1321062Y1070364D02*
X1325000D01*
X1321062D02*
Y1071318D01*
X1321062D02*
X1321250Y1071727D01*
X1321625Y1072000*
X1322000Y1072136*
X1322562Y1072273*
X1322562D02*
X1323500D01*
X1324062Y1072136*
X1324062D02*
X1324437Y1072000D01*
X1324437D02*
X1324812Y1071727D01*
X1324812D02*
X1325000Y1071318D01*
Y1070364*
X1322000Y1073636D02*
X1321812D01*
X1321812D02*
X1321437Y1073773D01*
X1321437D02*
X1321250Y1073909D01*
X1321062Y1074182*
X1321062D02*
Y1074727D01*
X1321062D02*
X1321250Y1075000D01*
X1321437Y1075136*
X1321437D02*
X1321812Y1075273D01*
X1321812D02*
X1322187D01*
X1322187D02*
X1322562Y1075136D01*
X1322562D02*
X1323125Y1074864D01*
X1325000Y1073500*
Y1075409*
X1331062Y1067500D02*
X1335000D01*
Y1069136*
X1331062Y1070364D02*
X1335000D01*
X1331062D02*
Y1071318D01*
X1331062D02*
X1331250Y1071727D01*
X1331625Y1072000*
X1332000Y1072136*
X1332562Y1072273*
X1332562D02*
X1333500D01*
X1334062Y1072136*
X1334062D02*
X1334437Y1072000D01*
X1334437D02*
X1334812Y1071727D01*
X1334812D02*
X1335000Y1071318D01*
Y1070364*
X1331062Y1073773D02*
Y1075273D01*
X1331062D02*
X1332562Y1074455D01*
X1332562D02*
Y1074864D01*
X1332562D02*
X1332750Y1075136D01*
X1332937Y1075273*
X1332937D02*
X1333500Y1075409D01*
X1333875*
X1334437Y1075273*
X1334437D02*
X1334812Y1075000D01*
X1334812D02*
X1335000Y1074591D01*
Y1074182*
X1334812Y1073773*
X1334812D02*
X1334625Y1073636D01*
X1334250Y1073500*
X1277536Y1071438D02*
Y1067500D01*
Y1071438D02*
X1278764D01*
X1278764D02*
X1279173Y1071250D01*
X1279309Y1071063*
X1279309D02*
X1279445Y1070688D01*
X1279445D02*
Y1070313D01*
X1279445D02*
X1279309Y1069938D01*
X1279309D02*
X1279173Y1069750D01*
X1278764Y1069563*
X1278764D02*
X1277536D01*
X1278491D02*
X1279445Y1067500D01*
X1282036Y1071438D02*
X1280673Y1068813D01*
X1280673D02*
X1282718D01*
X1282036Y1071438D02*
Y1067500D01*
X1279477Y1076688D02*
X1279341Y1077063D01*
X1279341D02*
X1279068Y1077438D01*
X1279068D02*
X1278795Y1077625D01*
X1278250*
X1277977Y1077438*
X1277977D02*
X1277705Y1077063D01*
X1277705D02*
X1277568Y1076688D01*
X1277568D02*
X1277432Y1076125D01*
Y1075188*
X1277432D02*
X1277568Y1074625D01*
X1277705Y1074250*
X1277977Y1073875*
X1278250Y1073688*
X1278250D02*
X1278795D01*
X1278795D02*
X1279068Y1073875D01*
X1279341Y1074250*
X1279477Y1074625*
X1280977Y1077625D02*
X1282477D01*
X1281659Y1076125*
X1282068*
X1282341Y1075938*
X1282341D02*
X1282477Y1075750D01*
X1282614Y1075188*
X1282614D02*
Y1074813D01*
X1282614D02*
X1282477Y1074250D01*
X1282205Y1073875*
X1281795Y1073688*
X1281795D02*
X1281386D01*
X1281386D02*
X1280977Y1073875D01*
X1280841Y1074063*
X1280841D02*
X1280705Y1074438D01*
X1284659Y1077625D02*
X1284250Y1077438D01*
X1284250D02*
X1283977Y1076875D01*
X1283841Y1075938*
X1283841D02*
Y1075375D01*
X1283977Y1074438*
X1283977D02*
X1284250Y1073875D01*
X1284659Y1073688*
X1284659D02*
X1284932D01*
X1284932D02*
X1285341Y1073875D01*
X1285614Y1074438*
X1285614D02*
X1285750Y1075375D01*
Y1075938*
X1285750D02*
X1285614Y1076875D01*
X1285341Y1077438*
X1285341D02*
X1284932Y1077625D01*
X1284659*
X1259727Y1040313D02*
X1259591Y1040688D01*
X1259591D02*
X1259318Y1041063D01*
X1259318D02*
X1259045Y1041250D01*
X1258500*
X1258227Y1041063*
X1258227D02*
X1257955Y1040688D01*
X1257955D02*
X1257818Y1040313D01*
X1257818D02*
X1257682Y1039750D01*
Y1038813*
X1257682D02*
X1257818Y1038250D01*
X1257955Y1037875*
X1258227Y1037500*
X1258500Y1037313*
X1258500D02*
X1259045D01*
X1259045D02*
X1259318Y1037500D01*
X1259591Y1037875*
X1259727Y1038250*
X1261227Y1041250D02*
X1262727D01*
X1261909Y1039750*
X1262318*
X1262591Y1039563*
X1262591D02*
X1262727Y1039375D01*
X1262864Y1038813*
X1262864D02*
Y1038438D01*
X1262864D02*
X1262727Y1037875D01*
X1262455Y1037500*
X1262045Y1037313*
X1262045D02*
X1261636D01*
X1261636D02*
X1261227Y1037500D01*
X1261091Y1037688*
X1261091D02*
X1260955Y1038063D01*
X1264091Y1040500D02*
X1264364Y1040688D01*
X1264364D02*
X1264773Y1041250D01*
Y1037313*
X1132719Y1076723D02*
X1132906Y1076450D01*
X1133281Y1076177*
X1133844Y1076041*
X1134219*
X1134781Y1076177*
X1135156Y1076450*
X1135344Y1076723*
Y1077132*
X1135156Y1077405*
X1134781Y1077677*
X1134219Y1077814*
X1133844*
X1133281Y1077677*
X1132906Y1077405*
X1132719Y1077132*
Y1076723*
X1131719Y1059223D02*
X1131906Y1058950D01*
X1132281Y1058677*
X1132844Y1058541*
X1133219*
X1133781Y1058677*
X1134156Y1058950*
X1134344Y1059223*
Y1059632*
X1134156Y1059905*
X1133781Y1060177*
X1133219Y1060314*
X1132844*
X1132281Y1060177*
X1131906Y1059905*
X1131719Y1059632*
Y1059223*
X1292723Y1046281D02*
X1292450Y1046094D01*
X1292177Y1045719*
X1292041Y1045156*
Y1044781*
X1292177Y1044219*
X1292450Y1043844*
X1292723Y1043656*
X1293132*
X1293405Y1043844*
X1293677Y1044219*
X1293814Y1044781*
Y1045156*
X1293677Y1045719*
X1293405Y1046094*
X1293132Y1046281*
X1292723*
X1028777Y1035719D02*
X1029050Y1035906D01*
X1029323Y1036281*
X1029459Y1036844*
Y1037219*
X1029323Y1037781*
X1029050Y1038156*
X1028777Y1038344*
X1028368*
X1028095Y1038156*
X1027823Y1037781*
X1027686Y1037219*
Y1036844*
X1027823Y1036281*
X1028095Y1035906*
X1028368Y1035719*
X1028777*
X1291219Y1094223D02*
X1291406Y1093950D01*
X1291781Y1093677*
X1292344Y1093541*
X1292719*
X1293281Y1093677*
X1293656Y1093950*
X1293844Y1094223*
Y1094632*
X1293656Y1094905*
X1293281Y1095177*
X1292719Y1095314*
X1292344*
X1291781Y1095177*
X1291406Y1094905*
X1291219Y1094632*
Y1094223*
X1090268Y1096594D02*
Y1092656D01*
Y1096594D02*
X1091495D01*
X1091905Y1096406*
X1092041Y1096219*
X1092177Y1095844*
Y1095281*
X1092041Y1094906*
X1091905Y1094719*
X1091495Y1094531*
X1090268*
X1093405Y1096594D02*
X1093541Y1096406D01*
X1093677Y1096594*
X1093541Y1096781*
X1093405Y1096594*
X1093541Y1095281D02*
Y1092656D01*
X1096541Y1094719D02*
X1096268Y1095094D01*
X1095995Y1095281*
X1095586*
X1095314Y1095094*
X1095041Y1094719*
X1094905Y1094156*
Y1093781*
X1095041Y1093219*
X1095314Y1092844*
X1095586Y1092656*
X1095995*
X1096268Y1092844*
X1096541Y1093219*
X1099405Y1094719D02*
X1099132Y1095094D01*
X1098859Y1095281*
X1098450*
X1098177Y1095094*
X1097905Y1094719*
X1097768Y1094156*
Y1093781*
X1097905Y1093219*
X1098177Y1092844*
X1098450Y1092656*
X1098859*
X1099132Y1092844*
X1099405Y1093219*
X1101314Y1095281D02*
X1101041Y1095094D01*
X1100768Y1094719*
X1100632Y1094156*
Y1093781*
X1100768Y1093219*
X1101041Y1092844*
X1101314Y1092656*
X1101723*
X1101995Y1092844*
X1102268Y1093219*
X1102405Y1093781*
Y1094156*
X1102268Y1094719*
X1101995Y1095094*
X1101723Y1095281*
X1101314*
X1103632Y1096594D02*
Y1092656D01*
X1105541Y1095281D02*
X1105268Y1095094D01*
X1104995Y1094719*
X1104859Y1094156*
Y1093781*
X1104995Y1093219*
X1105268Y1092844*
X1105541Y1092656*
X1105950*
X1106223Y1092844*
X1106495Y1093219*
X1106632Y1093781*
Y1094156*
X1106495Y1094719*
X1106223Y1095094*
X1105950Y1095281*
X1105541*
X1110995Y1096594D02*
Y1092656D01*
Y1096594D02*
X1112768D01*
X1110995Y1094719D02*
X1112086D01*
X1114132Y1095656D02*
Y1095844D01*
X1114268Y1096219*
X1114405Y1096406*
X1114677Y1096594*
X1115223*
X1115495Y1096406*
X1115632Y1096219*
X1115768Y1095844*
Y1095469*
X1115632Y1095094*
X1115359Y1094531*
X1113995Y1092656*
X1115905*
X1117814Y1096594D02*
X1117405Y1096406D01*
X1117268Y1096031*
Y1095656*
X1117405Y1095281*
X1117677Y1095094*
X1118223Y1094906*
X1118632Y1094719*
X1118905Y1094344*
X1119041Y1093969*
Y1093406*
X1118905Y1093031*
X1118768Y1092844*
X1118359Y1092656*
X1117814*
X1117405Y1092844*
X1117268Y1093031*
X1117132Y1093406*
Y1093969*
X1117268Y1094344*
X1117541Y1094719*
X1117950Y1094906*
X1118495Y1095094*
X1118768Y1095281*
X1118905Y1095656*
Y1096031*
X1118768Y1096406*
X1118359Y1096594*
X1117814*
X1121086D02*
X1120677Y1096406D01*
X1120405Y1095844*
X1120268Y1094906*
Y1094344*
X1120405Y1093406*
X1120677Y1092844*
X1121086Y1092656*
X1121359*
X1121768Y1092844*
X1122041Y1093406*
X1122177Y1094344*
Y1094906*
X1122041Y1095844*
X1121768Y1096406*
X1121359Y1096594*
X1121086*
X1123677D02*
X1125177D01*
X1124359Y1095094*
X1124768*
X1125041Y1094906*
X1125177Y1094719*
X1125314Y1094156*
Y1093781*
X1125177Y1093219*
X1124905Y1092844*
X1124495Y1092656*
X1124086*
X1123677Y1092844*
X1123541Y1093031*
X1123405Y1093406*
X1126541Y1095281D02*
X1128041Y1092656D01*
Y1095281D02*
X1126541Y1092656D01*
X1134041Y1094719D02*
X1133768Y1095094D01*
X1133495Y1095281*
X1133086*
X1132814Y1095094*
X1132541Y1094719*
X1132405Y1094156*
Y1093781*
X1132541Y1093219*
X1132814Y1092844*
X1133086Y1092656*
X1133495*
X1133768Y1092844*
X1134041Y1093219*
X1135950Y1095281D02*
X1135677Y1095094D01*
X1135405Y1094719*
X1135268Y1094156*
Y1093781*
X1135405Y1093219*
X1135677Y1092844*
X1135950Y1092656*
X1136359*
X1136632Y1092844*
X1136905Y1093219*
X1137041Y1093781*
Y1094156*
X1136905Y1094719*
X1136632Y1095094*
X1136359Y1095281*
X1135950*
X1138268D02*
Y1092656D01*
Y1094531D02*
X1138677Y1095094D01*
X1138950Y1095281*
X1139359*
X1139632Y1095094*
X1139768Y1094531*
Y1092656*
X1141405Y1096594D02*
Y1093406D01*
X1141541Y1092844*
X1141814Y1092656*
X1142086*
X1140995Y1095281D02*
X1141950D01*
X1143314D02*
Y1092656D01*
Y1094156D02*
X1143450Y1094719D01*
X1143723Y1095094*
X1143995Y1095281*
X1144405*
X1146314D02*
X1146041Y1095094D01*
X1145768Y1094719*
X1145632Y1094156*
Y1093781*
X1145768Y1093219*
X1146041Y1092844*
X1146314Y1092656*
X1146723*
X1146995Y1092844*
X1147268Y1093219*
X1147405Y1093781*
Y1094156*
X1147268Y1094719*
X1146995Y1095094*
X1146723Y1095281*
X1146314*
X1148632Y1096594D02*
Y1092656D01*
X1151905Y1095656D02*
X1151768Y1096031D01*
X1151495Y1096406*
X1151223Y1096594*
X1150677*
X1150405Y1096406*
X1150132Y1096031*
X1149995Y1095656*
X1149859Y1095094*
Y1094156*
X1149995Y1093594*
X1150132Y1093219*
X1150405Y1092844*
X1150677Y1092656*
X1151223*
X1151495Y1092844*
X1151768Y1093219*
X1151905Y1093594*
X1154223Y1096594D02*
X1153132Y1092656D01*
X1154223Y1096594D02*
X1155314Y1092656D01*
X1153541Y1093969D02*
X1154905D01*
X1156541Y1096594D02*
Y1092656D01*
Y1096594D02*
X1157768D01*
X1158177Y1096406*
X1158314Y1096219*
X1158450Y1095844*
Y1095469*
X1158314Y1095094*
X1158177Y1094906*
X1157768Y1094719*
X1156541*
X1157495D02*
X1158450Y1092656D01*
X1159677Y1096594D02*
Y1092656D01*
Y1096594D02*
X1160632D01*
X1161041Y1096406*
X1161314Y1096031*
X1161450Y1095656*
X1161586Y1095094*
Y1094156*
X1161450Y1093594*
X1161314Y1093219*
X1161041Y1092844*
X1160632Y1092656*
X1159677*
X1187859Y1096594D02*
Y1092656D01*
X1186905Y1096594D02*
X1188814D01*
X1190041D02*
Y1092656D01*
Y1096594D02*
X1191132Y1092656D01*
X1192223Y1096594D02*
X1191132Y1092656D01*
X1192223Y1096594D02*
Y1092656D01*
X1193450Y1096594D02*
Y1092656D01*
Y1096594D02*
X1194405D01*
X1194814Y1096406*
X1195086Y1096031*
X1195223Y1095656*
X1195359Y1095094*
Y1094156*
X1195223Y1093594*
X1195086Y1093219*
X1194814Y1092844*
X1194405Y1092656*
X1193450*
X1198495Y1096031D02*
X1198223Y1096406D01*
X1197814Y1096594*
X1197268*
X1196859Y1096406*
X1196586Y1096031*
Y1095656*
X1196723Y1095281*
X1196859Y1095094*
X1197132Y1094906*
X1197950Y1094531*
X1198223Y1094344*
X1198359Y1094156*
X1198495Y1093781*
Y1093219*
X1198223Y1092844*
X1197814Y1092656*
X1197268*
X1196859Y1092844*
X1196586Y1093219*
X1201768Y1095656D02*
X1201632Y1096031D01*
X1201359Y1096406*
X1201086Y1096594*
X1200541*
X1200268Y1096406*
X1199995Y1096031*
X1199859Y1095656*
X1199723Y1095094*
Y1094156*
X1199859Y1093594*
X1199995Y1093219*
X1200268Y1092844*
X1200541Y1092656*
X1201086*
X1201359Y1092844*
X1201632Y1093219*
X1201768Y1093594*
X1202995Y1096594D02*
Y1092656D01*
Y1096594D02*
X1204905Y1092656D01*
Y1096594D02*
Y1092656D01*
X1208177Y1095656D02*
X1208041Y1096031D01*
X1207768Y1096406*
X1207495Y1096594*
X1206950*
X1206677Y1096406*
X1206405Y1096031*
X1206268Y1095656*
X1206132Y1095094*
Y1094156*
X1206268Y1093594*
X1206405Y1093219*
X1206677Y1092844*
X1206950Y1092656*
X1207495*
X1207768Y1092844*
X1208041Y1093219*
X1208177Y1093594*
X1209405Y1096594D02*
Y1092656D01*
Y1096594D02*
X1210359D01*
X1210768Y1096406*
X1211041Y1096031*
X1211177Y1095656*
X1211314Y1095094*
Y1094156*
X1211177Y1093594*
X1211041Y1093219*
X1210768Y1092844*
X1210359Y1092656*
X1209405*
X1212677Y1095656D02*
Y1095844D01*
X1212814Y1096219*
X1212950Y1096406*
X1213223Y1096594*
X1213768*
X1214041Y1096406*
X1214177Y1096219*
X1214314Y1095844*
Y1095469*
X1214177Y1095094*
X1213905Y1094531*
X1212541Y1092656*
X1214450*
X1216359Y1096594D02*
X1215950Y1096406D01*
X1215814Y1096031*
Y1095656*
X1215950Y1095281*
X1216223Y1095094*
X1216768Y1094906*
X1217177Y1094719*
X1217450Y1094344*
X1217586Y1093969*
Y1093406*
X1217450Y1093031*
X1217314Y1092844*
X1216905Y1092656*
X1216359*
X1215950Y1092844*
X1215814Y1093031*
X1215677Y1093406*
Y1093969*
X1215814Y1094344*
X1216086Y1094719*
X1216495Y1094906*
X1217041Y1095094*
X1217314Y1095281*
X1217450Y1095656*
Y1096031*
X1217314Y1096406*
X1216905Y1096594*
X1216359*
X1219632D02*
X1219223Y1096406D01*
X1218950Y1095844*
X1218814Y1094906*
Y1094344*
X1218950Y1093406*
X1219223Y1092844*
X1219632Y1092656*
X1219905*
X1220314Y1092844*
X1220586Y1093406*
X1220723Y1094344*
Y1094906*
X1220586Y1095844*
X1220314Y1096406*
X1219905Y1096594*
X1219632*
X1222223D02*
X1223723D01*
X1222905Y1095094*
X1223314*
X1223586Y1094906*
X1223723Y1094719*
X1223859Y1094156*
Y1093781*
X1223723Y1093219*
X1223450Y1092844*
X1223041Y1092656*
X1222632*
X1222223Y1092844*
X1222086Y1093031*
X1221950Y1093406*
X1226859Y1096594D02*
X1225495D01*
X1225359Y1094906*
X1225495Y1095094*
X1225905Y1095281*
X1226314*
X1226723Y1095094*
X1226995Y1094719*
X1227132Y1094156*
X1226995Y1093781*
X1226859Y1093219*
X1226586Y1092844*
X1226177Y1092656*
X1225768*
X1225359Y1092844*
X1225223Y1093031*
X1225086Y1093406*
X1231495Y1096594D02*
Y1092656D01*
Y1096594D02*
X1232723D01*
X1233132Y1096406*
X1233268Y1096219*
X1233405Y1095844*
Y1095469*
X1233268Y1095094*
X1233132Y1094906*
X1232723Y1094719*
X1231495*
X1232450D02*
X1233405Y1092656D01*
X1234632Y1095844D02*
X1234905Y1096031D01*
X1235314Y1096594*
Y1092656*
X1236677Y1093031D02*
X1236541Y1092844D01*
X1236677Y1092656*
X1236814Y1092844*
X1236677Y1093031*
X1238177Y1095656D02*
Y1095844D01*
X1238314Y1096219*
X1238450Y1096406*
X1238723Y1096594*
X1239268*
X1239541Y1096406*
X1239677Y1096219*
X1239814Y1095844*
Y1095469*
X1239677Y1095094*
X1239405Y1094531*
X1238041Y1092656*
X1239950*
X1343906Y1037495D02*
X1347844D01*
X1343906D02*
Y1038723D01*
X1344094Y1039132*
X1344281Y1039268*
X1344656Y1039405*
X1345031*
X1345406Y1039268*
X1345594Y1039132*
X1345781Y1038723*
Y1037495D02*
Y1038723D01*
X1345969Y1039132*
X1346156Y1039268*
X1346531Y1039405*
X1347094*
X1347469Y1039268*
X1347656Y1039132*
X1347844Y1038723*
Y1037495*
X1343906Y1041450D02*
X1344094Y1041177D01*
X1344469Y1040905*
X1344844Y1040768*
X1345406Y1040632*
X1346344*
X1346906Y1040768*
X1347281Y1040905*
X1347656Y1041177*
X1347844Y1041450*
Y1041995*
X1347656Y1042268*
X1347281Y1042541*
X1346906Y1042677*
X1346344Y1042814*
X1345406*
X1344844Y1042677*
X1344469Y1042541*
X1344094Y1042268*
X1343906Y1041995*
Y1041450*
Y1044859D02*
X1344094Y1044586D01*
X1344469Y1044314*
X1344844Y1044177*
X1345406Y1044041*
X1346344*
X1346906Y1044177*
X1347281Y1044314*
X1347656Y1044586*
X1347844Y1044859*
Y1045405*
X1347656Y1045677*
X1347281Y1045950*
X1346906Y1046086*
X1346344Y1046223*
X1345406*
X1344844Y1046086*
X1344469Y1045950*
X1344094Y1045677*
X1343906Y1045405*
Y1044859*
Y1048405D02*
X1347844D01*
X1343906Y1047450D02*
Y1049359D01*
G54D60*
G74*
X0Y0D02*
M02*
