G04 Layer_Color=8388736*
%FSAX25Y25*%
%MOIN*%
G70*
G01*
G75*
%ADD37C,0.00600*%
%ADD39C,0.01000*%
%ADD40C,0.00800*%
%ADD64C,0.00700*%
%ADD123R,0.12500X0.12500*%
%ADD124R,0.37500X0.12500*%
G36*
X0601142Y0311788D02*
X0601133Y0311779D01*
X0601115Y0311760D01*
X0601078Y0311723D01*
X0601041Y0311668D01*
X0600985Y0311603D01*
X0600911Y0311529D01*
X0600837Y0311437D01*
X0600754Y0311326D01*
X0600671Y0311215D01*
X0600569Y0311085D01*
X0600467Y0310937D01*
X0600365Y0310789D01*
X0600254Y0310623D01*
X0600143Y0310447D01*
X0600032Y0310253D01*
X0599921Y0310058D01*
X0599912Y0310049D01*
X0599894Y0310012D01*
X0599866Y0309957D01*
X0599820Y0309873D01*
X0599773Y0309772D01*
X0599718Y0309661D01*
X0599653Y0309531D01*
X0599588Y0309383D01*
X0599514Y0309217D01*
X0599431Y0309050D01*
X0599357Y0308865D01*
X0599283Y0308671D01*
X0599135Y0308273D01*
X0598996Y0307848D01*
Y0307838D01*
X0598987Y0307811D01*
X0598978Y0307764D01*
X0598959Y0307709D01*
X0598941Y0307635D01*
X0598922Y0307542D01*
X0598895Y0307441D01*
X0598876Y0307330D01*
X0598848Y0307200D01*
X0598821Y0307061D01*
X0598774Y0306765D01*
X0598728Y0306442D01*
X0598700Y0306090D01*
X0597896D01*
Y0306099D01*
Y0306127D01*
Y0306164D01*
X0597905Y0306220D01*
Y0306294D01*
X0597914Y0306386D01*
X0597923Y0306488D01*
X0597933Y0306599D01*
X0597951Y0306728D01*
X0597970Y0306858D01*
X0597997Y0307015D01*
X0598025Y0307172D01*
X0598053Y0307339D01*
X0598090Y0307524D01*
X0598182Y0307903D01*
Y0307912D01*
X0598192Y0307949D01*
X0598210Y0308005D01*
X0598238Y0308088D01*
X0598266Y0308181D01*
X0598303Y0308292D01*
X0598340Y0308421D01*
X0598395Y0308560D01*
X0598451Y0308717D01*
X0598506Y0308874D01*
X0598645Y0309226D01*
X0598811Y0309596D01*
X0598996Y0309966D01*
X0599006Y0309975D01*
X0599024Y0310012D01*
X0599052Y0310058D01*
X0599089Y0310132D01*
X0599135Y0310216D01*
X0599200Y0310317D01*
X0599265Y0310428D01*
X0599339Y0310549D01*
X0599514Y0310817D01*
X0599699Y0311094D01*
X0599912Y0311381D01*
X0600134Y0311649D01*
X0596998D01*
Y0312408D01*
X0601142D01*
Y0311788D01*
D02*
G37*
G36*
X0589386Y0312510D02*
X0589450D01*
X0589524Y0312500D01*
X0589700Y0312463D01*
X0589894Y0312417D01*
X0590098Y0312343D01*
X0590301Y0312232D01*
X0590403Y0312167D01*
X0590496Y0312093D01*
X0590505Y0312084D01*
X0590514Y0312075D01*
X0590542Y0312047D01*
X0590570Y0312019D01*
X0590616Y0311973D01*
X0590653Y0311918D01*
X0590755Y0311788D01*
X0590856Y0311622D01*
X0590949Y0311418D01*
X0591032Y0311187D01*
X0591088Y0310928D01*
X0590301Y0310863D01*
Y0310872D01*
X0590292Y0310882D01*
X0590283Y0310937D01*
X0590255Y0311020D01*
X0590218Y0311122D01*
X0590181Y0311233D01*
X0590126Y0311344D01*
X0590061Y0311446D01*
X0589996Y0311529D01*
X0589978Y0311548D01*
X0589941Y0311585D01*
X0589876Y0311640D01*
X0589783Y0311705D01*
X0589663Y0311760D01*
X0589534Y0311816D01*
X0589376Y0311853D01*
X0589210Y0311871D01*
X0589145D01*
X0589071Y0311862D01*
X0588988Y0311844D01*
X0588877Y0311816D01*
X0588766Y0311779D01*
X0588655Y0311733D01*
X0588544Y0311659D01*
X0588525Y0311649D01*
X0588479Y0311612D01*
X0588414Y0311548D01*
X0588331Y0311455D01*
X0588239Y0311344D01*
X0588137Y0311215D01*
X0588044Y0311048D01*
X0587952Y0310863D01*
Y0310854D01*
X0587943Y0310835D01*
X0587933Y0310808D01*
X0587915Y0310771D01*
X0587906Y0310715D01*
X0587887Y0310650D01*
X0587869Y0310576D01*
X0587850Y0310484D01*
X0587822Y0310382D01*
X0587804Y0310271D01*
X0587785Y0310151D01*
X0587776Y0310021D01*
X0587758Y0309873D01*
X0587748Y0309725D01*
X0587739Y0309559D01*
Y0309392D01*
X0587748Y0309402D01*
X0587785Y0309457D01*
X0587850Y0309531D01*
X0587933Y0309624D01*
X0588026Y0309735D01*
X0588146Y0309836D01*
X0588276Y0309938D01*
X0588424Y0310031D01*
X0588433D01*
X0588442Y0310040D01*
X0588498Y0310068D01*
X0588581Y0310095D01*
X0588692Y0310142D01*
X0588821Y0310179D01*
X0588969Y0310206D01*
X0589127Y0310234D01*
X0589293Y0310243D01*
X0589367D01*
X0589423Y0310234D01*
X0589497Y0310225D01*
X0589571Y0310216D01*
X0589663Y0310197D01*
X0589756Y0310169D01*
X0589968Y0310105D01*
X0590079Y0310058D01*
X0590190Y0309994D01*
X0590301Y0309929D01*
X0590422Y0309855D01*
X0590533Y0309762D01*
X0590634Y0309661D01*
X0590644Y0309651D01*
X0590662Y0309633D01*
X0590690Y0309605D01*
X0590718Y0309559D01*
X0590764Y0309494D01*
X0590810Y0309429D01*
X0590856Y0309346D01*
X0590912Y0309254D01*
X0590967Y0309152D01*
X0591014Y0309041D01*
X0591060Y0308911D01*
X0591106Y0308782D01*
X0591134Y0308643D01*
X0591162Y0308486D01*
X0591180Y0308329D01*
X0591189Y0308162D01*
Y0308153D01*
Y0308134D01*
Y0308107D01*
Y0308060D01*
X0591180Y0308005D01*
Y0307949D01*
X0591152Y0307801D01*
X0591125Y0307626D01*
X0591078Y0307441D01*
X0591014Y0307237D01*
X0590921Y0307043D01*
Y0307034D01*
X0590912Y0307024D01*
X0590893Y0306997D01*
X0590875Y0306960D01*
X0590819Y0306867D01*
X0590736Y0306747D01*
X0590634Y0306617D01*
X0590514Y0306488D01*
X0590366Y0306358D01*
X0590209Y0306247D01*
X0590200D01*
X0590190Y0306238D01*
X0590163Y0306220D01*
X0590126Y0306210D01*
X0590033Y0306164D01*
X0589913Y0306118D01*
X0589756Y0306062D01*
X0589580Y0306025D01*
X0589386Y0305988D01*
X0589173Y0305979D01*
X0589127D01*
X0589080Y0305988D01*
X0589006D01*
X0588923Y0305998D01*
X0588831Y0306016D01*
X0588720Y0306044D01*
X0588609Y0306072D01*
X0588479Y0306109D01*
X0588350Y0306155D01*
X0588220Y0306210D01*
X0588081Y0306284D01*
X0587952Y0306368D01*
X0587822Y0306460D01*
X0587693Y0306571D01*
X0587573Y0306701D01*
X0587563Y0306710D01*
X0587545Y0306738D01*
X0587517Y0306775D01*
X0587480Y0306839D01*
X0587425Y0306923D01*
X0587378Y0307015D01*
X0587323Y0307135D01*
X0587267Y0307265D01*
X0587203Y0307422D01*
X0587147Y0307598D01*
X0587101Y0307792D01*
X0587055Y0308005D01*
X0587008Y0308245D01*
X0586981Y0308504D01*
X0586962Y0308782D01*
X0586953Y0309078D01*
Y0309087D01*
Y0309096D01*
Y0309124D01*
Y0309161D01*
X0586962Y0309254D01*
Y0309383D01*
X0586971Y0309531D01*
X0586990Y0309707D01*
X0587008Y0309901D01*
X0587036Y0310114D01*
X0587073Y0310327D01*
X0587119Y0310558D01*
X0587175Y0310780D01*
X0587240Y0311002D01*
X0587323Y0311215D01*
X0587415Y0311418D01*
X0587517Y0311612D01*
X0587637Y0311779D01*
X0587647Y0311788D01*
X0587665Y0311807D01*
X0587702Y0311844D01*
X0587748Y0311899D01*
X0587804Y0311955D01*
X0587878Y0312010D01*
X0587970Y0312084D01*
X0588063Y0312149D01*
X0588174Y0312214D01*
X0588294Y0312288D01*
X0588433Y0312343D01*
X0588572Y0312408D01*
X0588729Y0312454D01*
X0588895Y0312491D01*
X0589071Y0312510D01*
X0589256Y0312519D01*
X0589330D01*
X0589386Y0312510D01*
D02*
G37*
G36*
X0595269Y0308347D02*
X0596138D01*
Y0307626D01*
X0595269D01*
Y0306090D01*
X0594482D01*
Y0307626D01*
X0591698D01*
Y0308347D01*
X0594630Y0312491D01*
X0595269D01*
Y0308347D01*
D02*
G37*
G36*
X0581801Y0312510D02*
X0581875Y0312500D01*
X0581967Y0312491D01*
X0582069Y0312473D01*
X0582171Y0312454D01*
X0582411Y0312389D01*
X0582652Y0312297D01*
X0582772Y0312241D01*
X0582892Y0312177D01*
X0583003Y0312093D01*
X0583105Y0312001D01*
X0583114Y0311992D01*
X0583133Y0311982D01*
X0583151Y0311945D01*
X0583188Y0311908D01*
X0583234Y0311862D01*
X0583281Y0311797D01*
X0583327Y0311733D01*
X0583382Y0311649D01*
X0583475Y0311474D01*
X0583567Y0311252D01*
X0583604Y0311141D01*
X0583623Y0311011D01*
X0583641Y0310882D01*
X0583651Y0310743D01*
Y0310724D01*
Y0310678D01*
X0583641Y0310604D01*
X0583632Y0310502D01*
X0583614Y0310391D01*
X0583577Y0310262D01*
X0583540Y0310123D01*
X0583484Y0309984D01*
X0583475Y0309966D01*
X0583456Y0309920D01*
X0583419Y0309846D01*
X0583364Y0309744D01*
X0583290Y0309633D01*
X0583197Y0309494D01*
X0583086Y0309355D01*
X0582957Y0309198D01*
X0582938Y0309180D01*
X0582892Y0309124D01*
X0582846Y0309078D01*
X0582800Y0309032D01*
X0582744Y0308976D01*
X0582670Y0308902D01*
X0582596Y0308828D01*
X0582504Y0308745D01*
X0582411Y0308652D01*
X0582300Y0308551D01*
X0582180Y0308449D01*
X0582050Y0308329D01*
X0581902Y0308208D01*
X0581754Y0308079D01*
X0581745Y0308070D01*
X0581727Y0308051D01*
X0581690Y0308023D01*
X0581643Y0307986D01*
X0581588Y0307931D01*
X0581523Y0307875D01*
X0581375Y0307755D01*
X0581218Y0307616D01*
X0581070Y0307478D01*
X0580940Y0307357D01*
X0580885Y0307311D01*
X0580839Y0307265D01*
X0580829Y0307256D01*
X0580802Y0307228D01*
X0580765Y0307191D01*
X0580718Y0307135D01*
X0580672Y0307071D01*
X0580617Y0307006D01*
X0580506Y0306849D01*
X0583660D01*
Y0306090D01*
X0579414D01*
Y0306099D01*
Y0306136D01*
Y0306192D01*
X0579423Y0306266D01*
X0579433Y0306349D01*
X0579451Y0306442D01*
X0579470Y0306534D01*
X0579507Y0306636D01*
Y0306645D01*
X0579516Y0306654D01*
X0579534Y0306710D01*
X0579571Y0306793D01*
X0579627Y0306904D01*
X0579701Y0307034D01*
X0579793Y0307182D01*
X0579895Y0307330D01*
X0580025Y0307487D01*
Y0307496D01*
X0580043Y0307505D01*
X0580089Y0307561D01*
X0580173Y0307644D01*
X0580293Y0307764D01*
X0580432Y0307903D01*
X0580607Y0308070D01*
X0580820Y0308255D01*
X0581051Y0308449D01*
X0581061Y0308458D01*
X0581098Y0308486D01*
X0581153Y0308532D01*
X0581218Y0308588D01*
X0581301Y0308662D01*
X0581403Y0308745D01*
X0581505Y0308837D01*
X0581625Y0308939D01*
X0581856Y0309161D01*
X0582087Y0309383D01*
X0582198Y0309494D01*
X0582300Y0309605D01*
X0582393Y0309707D01*
X0582467Y0309809D01*
Y0309818D01*
X0582485Y0309827D01*
X0582504Y0309855D01*
X0582522Y0309892D01*
X0582587Y0309994D01*
X0582661Y0310114D01*
X0582726Y0310262D01*
X0582790Y0310419D01*
X0582827Y0310595D01*
X0582846Y0310761D01*
Y0310771D01*
Y0310780D01*
X0582837Y0310835D01*
X0582827Y0310928D01*
X0582800Y0311030D01*
X0582763Y0311159D01*
X0582698Y0311289D01*
X0582615Y0311418D01*
X0582504Y0311548D01*
X0582485Y0311566D01*
X0582439Y0311603D01*
X0582374Y0311649D01*
X0582272Y0311714D01*
X0582143Y0311770D01*
X0581995Y0311825D01*
X0581819Y0311862D01*
X0581625Y0311871D01*
X0581569D01*
X0581532Y0311862D01*
X0581421Y0311853D01*
X0581292Y0311825D01*
X0581153Y0311788D01*
X0580996Y0311723D01*
X0580848Y0311640D01*
X0580709Y0311529D01*
X0580691Y0311511D01*
X0580654Y0311464D01*
X0580598Y0311390D01*
X0580543Y0311279D01*
X0580478Y0311150D01*
X0580422Y0310983D01*
X0580385Y0310798D01*
X0580367Y0310586D01*
X0579562Y0310669D01*
Y0310678D01*
X0579571Y0310706D01*
Y0310752D01*
X0579581Y0310817D01*
X0579599Y0310891D01*
X0579618Y0310974D01*
X0579645Y0311076D01*
X0579673Y0311178D01*
X0579747Y0311400D01*
X0579858Y0311622D01*
X0579923Y0311733D01*
X0580006Y0311844D01*
X0580089Y0311945D01*
X0580182Y0312038D01*
X0580191Y0312047D01*
X0580210Y0312056D01*
X0580237Y0312084D01*
X0580284Y0312112D01*
X0580339Y0312149D01*
X0580404Y0312186D01*
X0580478Y0312232D01*
X0580570Y0312278D01*
X0580672Y0312325D01*
X0580783Y0312371D01*
X0580903Y0312408D01*
X0581033Y0312445D01*
X0581172Y0312473D01*
X0581320Y0312500D01*
X0581477Y0312510D01*
X0581643Y0312519D01*
X0581736D01*
X0581801Y0312510D01*
D02*
G37*
G36*
X0585843Y0306090D02*
X0584946D01*
Y0306987D01*
X0585843D01*
Y0306090D01*
D02*
G37*
G36*
X0433660Y0428438D02*
X0433558D01*
X0433484Y0428447D01*
X0433401Y0428457D01*
X0433308Y0428475D01*
X0433216Y0428494D01*
X0433114Y0428531D01*
X0433105D01*
X0433096Y0428540D01*
X0433040Y0428558D01*
X0432957Y0428595D01*
X0432846Y0428651D01*
X0432716Y0428725D01*
X0432568Y0428817D01*
X0432420Y0428919D01*
X0432263Y0429049D01*
X0432254D01*
X0432245Y0429067D01*
X0432189Y0429113D01*
X0432106Y0429197D01*
X0431986Y0429317D01*
X0431847Y0429456D01*
X0431680Y0429631D01*
X0431495Y0429844D01*
X0431301Y0430075D01*
X0431292Y0430085D01*
X0431264Y0430122D01*
X0431218Y0430177D01*
X0431162Y0430242D01*
X0431088Y0430325D01*
X0431005Y0430427D01*
X0430913Y0430529D01*
X0430811Y0430649D01*
X0430589Y0430880D01*
X0430367Y0431111D01*
X0430256Y0431222D01*
X0430145Y0431324D01*
X0430043Y0431417D01*
X0429941Y0431491D01*
X0429932D01*
X0429923Y0431509D01*
X0429895Y0431528D01*
X0429858Y0431546D01*
X0429756Y0431611D01*
X0429636Y0431685D01*
X0429488Y0431750D01*
X0429331Y0431814D01*
X0429155Y0431851D01*
X0428989Y0431870D01*
X0428970D01*
X0428915Y0431861D01*
X0428822Y0431851D01*
X0428720Y0431824D01*
X0428591Y0431787D01*
X0428461Y0431722D01*
X0428332Y0431639D01*
X0428202Y0431528D01*
X0428184Y0431509D01*
X0428147Y0431463D01*
X0428101Y0431398D01*
X0428036Y0431296D01*
X0427980Y0431167D01*
X0427925Y0431019D01*
X0427888Y0430843D01*
X0427879Y0430649D01*
Y0430640D01*
Y0430621D01*
Y0430593D01*
X0427888Y0430556D01*
X0427897Y0430445D01*
X0427925Y0430316D01*
X0427962Y0430177D01*
X0428027Y0430020D01*
X0428110Y0429872D01*
X0428221Y0429733D01*
X0428239Y0429715D01*
X0428286Y0429678D01*
X0428360Y0429622D01*
X0428471Y0429567D01*
X0428600Y0429502D01*
X0428767Y0429446D01*
X0428952Y0429409D01*
X0429164Y0429391D01*
X0429081Y0428586D01*
X0429072D01*
X0429044Y0428595D01*
X0428998D01*
X0428933Y0428605D01*
X0428859Y0428623D01*
X0428776Y0428642D01*
X0428674Y0428669D01*
X0428572Y0428697D01*
X0428350Y0428771D01*
X0428128Y0428882D01*
X0428017Y0428947D01*
X0427906Y0429030D01*
X0427805Y0429113D01*
X0427712Y0429206D01*
X0427703Y0429215D01*
X0427694Y0429234D01*
X0427666Y0429261D01*
X0427638Y0429308D01*
X0427601Y0429363D01*
X0427564Y0429428D01*
X0427518Y0429502D01*
X0427472Y0429594D01*
X0427425Y0429696D01*
X0427379Y0429807D01*
X0427342Y0429927D01*
X0427305Y0430057D01*
X0427277Y0430196D01*
X0427250Y0430344D01*
X0427240Y0430501D01*
X0427231Y0430667D01*
Y0430677D01*
Y0430704D01*
Y0430760D01*
X0427240Y0430825D01*
X0427250Y0430899D01*
X0427259Y0430991D01*
X0427277Y0431093D01*
X0427296Y0431195D01*
X0427361Y0431435D01*
X0427453Y0431676D01*
X0427509Y0431796D01*
X0427573Y0431916D01*
X0427657Y0432027D01*
X0427749Y0432129D01*
X0427758Y0432138D01*
X0427768Y0432157D01*
X0427805Y0432175D01*
X0427842Y0432212D01*
X0427888Y0432258D01*
X0427953Y0432305D01*
X0428017Y0432351D01*
X0428101Y0432406D01*
X0428276Y0432499D01*
X0428498Y0432591D01*
X0428609Y0432628D01*
X0428739Y0432647D01*
X0428868Y0432665D01*
X0429007Y0432675D01*
X0429072D01*
X0429146Y0432665D01*
X0429248Y0432656D01*
X0429359Y0432638D01*
X0429488Y0432601D01*
X0429627Y0432564D01*
X0429766Y0432508D01*
X0429784Y0432499D01*
X0429830Y0432480D01*
X0429904Y0432443D01*
X0430006Y0432388D01*
X0430117Y0432314D01*
X0430256Y0432221D01*
X0430395Y0432110D01*
X0430552Y0431981D01*
X0430570Y0431962D01*
X0430626Y0431916D01*
X0430672Y0431870D01*
X0430718Y0431824D01*
X0430774Y0431768D01*
X0430848Y0431694D01*
X0430922Y0431620D01*
X0431005Y0431528D01*
X0431098Y0431435D01*
X0431199Y0431324D01*
X0431301Y0431204D01*
X0431421Y0431074D01*
X0431542Y0430926D01*
X0431671Y0430778D01*
X0431680Y0430769D01*
X0431699Y0430751D01*
X0431727Y0430714D01*
X0431764Y0430667D01*
X0431819Y0430612D01*
X0431875Y0430547D01*
X0431995Y0430399D01*
X0432134Y0430242D01*
X0432272Y0430094D01*
X0432393Y0429964D01*
X0432439Y0429909D01*
X0432485Y0429863D01*
X0432494Y0429853D01*
X0432522Y0429826D01*
X0432559Y0429789D01*
X0432615Y0429742D01*
X0432679Y0429696D01*
X0432744Y0429641D01*
X0432901Y0429530D01*
Y0432684D01*
X0433660D01*
Y0428438D01*
D02*
G37*
G36*
Y0435903D02*
X0433558D01*
X0433484Y0435912D01*
X0433401Y0435921D01*
X0433308Y0435940D01*
X0433216Y0435958D01*
X0433114Y0435995D01*
X0433105D01*
X0433096Y0436005D01*
X0433040Y0436023D01*
X0432957Y0436060D01*
X0432846Y0436116D01*
X0432716Y0436190D01*
X0432568Y0436282D01*
X0432420Y0436384D01*
X0432263Y0436513D01*
X0432254D01*
X0432245Y0436532D01*
X0432189Y0436578D01*
X0432106Y0436661D01*
X0431986Y0436782D01*
X0431847Y0436920D01*
X0431680Y0437096D01*
X0431495Y0437309D01*
X0431301Y0437540D01*
X0431292Y0437549D01*
X0431264Y0437586D01*
X0431218Y0437642D01*
X0431162Y0437707D01*
X0431088Y0437790D01*
X0431005Y0437892D01*
X0430913Y0437993D01*
X0430811Y0438114D01*
X0430589Y0438345D01*
X0430367Y0438576D01*
X0430256Y0438687D01*
X0430145Y0438789D01*
X0430043Y0438881D01*
X0429941Y0438955D01*
X0429932D01*
X0429923Y0438974D01*
X0429895Y0438992D01*
X0429858Y0439011D01*
X0429756Y0439076D01*
X0429636Y0439150D01*
X0429488Y0439214D01*
X0429331Y0439279D01*
X0429155Y0439316D01*
X0428989Y0439335D01*
X0428970D01*
X0428915Y0439325D01*
X0428822Y0439316D01*
X0428720Y0439288D01*
X0428591Y0439251D01*
X0428461Y0439187D01*
X0428332Y0439103D01*
X0428202Y0438992D01*
X0428184Y0438974D01*
X0428147Y0438928D01*
X0428101Y0438863D01*
X0428036Y0438761D01*
X0427980Y0438632D01*
X0427925Y0438484D01*
X0427888Y0438308D01*
X0427879Y0438114D01*
Y0438104D01*
Y0438086D01*
Y0438058D01*
X0427888Y0438021D01*
X0427897Y0437910D01*
X0427925Y0437781D01*
X0427962Y0437642D01*
X0428027Y0437485D01*
X0428110Y0437337D01*
X0428221Y0437198D01*
X0428239Y0437179D01*
X0428286Y0437142D01*
X0428360Y0437087D01*
X0428471Y0437031D01*
X0428600Y0436967D01*
X0428767Y0436911D01*
X0428952Y0436874D01*
X0429164Y0436856D01*
X0429081Y0436051D01*
X0429072D01*
X0429044Y0436060D01*
X0428998D01*
X0428933Y0436069D01*
X0428859Y0436088D01*
X0428776Y0436106D01*
X0428674Y0436134D01*
X0428572Y0436162D01*
X0428350Y0436236D01*
X0428128Y0436347D01*
X0428017Y0436412D01*
X0427906Y0436495D01*
X0427805Y0436578D01*
X0427712Y0436671D01*
X0427703Y0436680D01*
X0427694Y0436698D01*
X0427666Y0436726D01*
X0427638Y0436772D01*
X0427601Y0436828D01*
X0427564Y0436893D01*
X0427518Y0436967D01*
X0427472Y0437059D01*
X0427425Y0437161D01*
X0427379Y0437272D01*
X0427342Y0437392D01*
X0427305Y0437522D01*
X0427277Y0437660D01*
X0427250Y0437808D01*
X0427240Y0437966D01*
X0427231Y0438132D01*
Y0438141D01*
Y0438169D01*
Y0438225D01*
X0427240Y0438289D01*
X0427250Y0438363D01*
X0427259Y0438456D01*
X0427277Y0438558D01*
X0427296Y0438659D01*
X0427361Y0438900D01*
X0427453Y0439140D01*
X0427509Y0439261D01*
X0427573Y0439381D01*
X0427657Y0439492D01*
X0427749Y0439594D01*
X0427758Y0439603D01*
X0427768Y0439621D01*
X0427805Y0439640D01*
X0427842Y0439677D01*
X0427888Y0439723D01*
X0427953Y0439769D01*
X0428017Y0439816D01*
X0428101Y0439871D01*
X0428276Y0439964D01*
X0428498Y0440056D01*
X0428609Y0440093D01*
X0428739Y0440112D01*
X0428868Y0440130D01*
X0429007Y0440139D01*
X0429072D01*
X0429146Y0440130D01*
X0429248Y0440121D01*
X0429359Y0440102D01*
X0429488Y0440065D01*
X0429627Y0440028D01*
X0429766Y0439973D01*
X0429784Y0439964D01*
X0429830Y0439945D01*
X0429904Y0439908D01*
X0430006Y0439853D01*
X0430117Y0439779D01*
X0430256Y0439686D01*
X0430395Y0439575D01*
X0430552Y0439446D01*
X0430570Y0439427D01*
X0430626Y0439381D01*
X0430672Y0439335D01*
X0430718Y0439288D01*
X0430774Y0439233D01*
X0430848Y0439159D01*
X0430922Y0439085D01*
X0431005Y0438992D01*
X0431098Y0438900D01*
X0431199Y0438789D01*
X0431301Y0438669D01*
X0431421Y0438539D01*
X0431542Y0438391D01*
X0431671Y0438243D01*
X0431680Y0438234D01*
X0431699Y0438215D01*
X0431727Y0438178D01*
X0431764Y0438132D01*
X0431819Y0438077D01*
X0431875Y0438012D01*
X0431995Y0437864D01*
X0432134Y0437707D01*
X0432272Y0437559D01*
X0432393Y0437429D01*
X0432439Y0437374D01*
X0432485Y0437327D01*
X0432494Y0437318D01*
X0432522Y0437290D01*
X0432559Y0437253D01*
X0432615Y0437207D01*
X0432679Y0437161D01*
X0432744Y0437105D01*
X0432901Y0436994D01*
Y0440149D01*
X0433660D01*
Y0435903D01*
D02*
G37*
G36*
X0430792Y0445162D02*
X0430903D01*
X0431024Y0445153D01*
X0431153Y0445144D01*
X0431449Y0445116D01*
X0431754Y0445070D01*
X0432050Y0445014D01*
X0432189Y0444977D01*
X0432328Y0444931D01*
X0432337D01*
X0432356Y0444922D01*
X0432393Y0444903D01*
X0432439Y0444885D01*
X0432504Y0444866D01*
X0432568Y0444829D01*
X0432726Y0444755D01*
X0432892Y0444663D01*
X0433077Y0444542D01*
X0433244Y0444404D01*
X0433401Y0444237D01*
Y0444228D01*
X0433419Y0444219D01*
X0433438Y0444191D01*
X0433456Y0444154D01*
X0433484Y0444108D01*
X0433521Y0444061D01*
X0433586Y0443923D01*
X0433651Y0443756D01*
X0433715Y0443562D01*
X0433752Y0443331D01*
X0433771Y0443081D01*
Y0443072D01*
Y0443044D01*
Y0442988D01*
X0433762Y0442924D01*
X0433752Y0442850D01*
X0433734Y0442757D01*
X0433715Y0442655D01*
X0433688Y0442544D01*
X0433651Y0442433D01*
X0433614Y0442313D01*
X0433558Y0442193D01*
X0433493Y0442073D01*
X0433419Y0441952D01*
X0433327Y0441832D01*
X0433225Y0441721D01*
X0433114Y0441619D01*
X0433105Y0441610D01*
X0433077Y0441592D01*
X0433031Y0441564D01*
X0432957Y0441518D01*
X0432874Y0441471D01*
X0432763Y0441425D01*
X0432633Y0441360D01*
X0432485Y0441305D01*
X0432319Y0441249D01*
X0432124Y0441194D01*
X0431912Y0441138D01*
X0431671Y0441092D01*
X0431412Y0441046D01*
X0431135Y0441018D01*
X0430829Y0441000D01*
X0430506Y0440990D01*
X0430321D01*
X0430219Y0441000D01*
X0430108D01*
X0429988Y0441009D01*
X0429849Y0441018D01*
X0429562Y0441046D01*
X0429257Y0441092D01*
X0428952Y0441148D01*
X0428813Y0441185D01*
X0428674Y0441222D01*
X0428665D01*
X0428646Y0441231D01*
X0428609Y0441249D01*
X0428563Y0441268D01*
X0428498Y0441286D01*
X0428434Y0441323D01*
X0428276Y0441397D01*
X0428110Y0441490D01*
X0427934Y0441610D01*
X0427758Y0441749D01*
X0427610Y0441915D01*
Y0441925D01*
X0427592Y0441934D01*
X0427573Y0441962D01*
X0427555Y0441999D01*
X0427518Y0442045D01*
X0427490Y0442100D01*
X0427416Y0442239D01*
X0427351Y0442406D01*
X0427287Y0442600D01*
X0427250Y0442831D01*
X0427231Y0443081D01*
Y0443090D01*
Y0443099D01*
Y0443127D01*
Y0443164D01*
X0427240Y0443266D01*
X0427259Y0443386D01*
X0427287Y0443525D01*
X0427324Y0443673D01*
X0427370Y0443830D01*
X0427444Y0443978D01*
Y0443987D01*
X0427453Y0443997D01*
X0427481Y0444043D01*
X0427527Y0444117D01*
X0427592Y0444209D01*
X0427684Y0444311D01*
X0427786Y0444422D01*
X0427906Y0444524D01*
X0428045Y0444626D01*
X0428064Y0444635D01*
X0428110Y0444672D01*
X0428193Y0444709D01*
X0428313Y0444774D01*
X0428452Y0444829D01*
X0428609Y0444903D01*
X0428794Y0444968D01*
X0428998Y0445023D01*
X0429007D01*
X0429026Y0445033D01*
X0429053Y0445042D01*
X0429100Y0445051D01*
X0429155Y0445060D01*
X0429220Y0445070D01*
X0429303Y0445088D01*
X0429396Y0445097D01*
X0429497Y0445116D01*
X0429608Y0445125D01*
X0429738Y0445134D01*
X0429867Y0445153D01*
X0430015Y0445162D01*
X0430163D01*
X0430330Y0445171D01*
X0430691D01*
X0430792Y0445162D01*
D02*
G37*
G36*
X0431643Y0450203D02*
X0431717Y0450194D01*
X0431801Y0450185D01*
X0431902Y0450166D01*
X0432004Y0450148D01*
X0432245Y0450092D01*
X0432494Y0450000D01*
X0432624Y0449944D01*
X0432744Y0449870D01*
X0432874Y0449796D01*
X0432994Y0449704D01*
X0433003Y0449695D01*
X0433031Y0449676D01*
X0433068Y0449639D01*
X0433114Y0449593D01*
X0433170Y0449528D01*
X0433244Y0449454D01*
X0433308Y0449362D01*
X0433382Y0449260D01*
X0433456Y0449149D01*
X0433521Y0449019D01*
X0433586Y0448881D01*
X0433651Y0448733D01*
X0433697Y0448575D01*
X0433734Y0448400D01*
X0433762Y0448215D01*
X0433771Y0448020D01*
Y0448011D01*
Y0447983D01*
Y0447937D01*
X0433762Y0447872D01*
X0433752Y0447798D01*
X0433743Y0447715D01*
X0433734Y0447613D01*
X0433706Y0447512D01*
X0433651Y0447280D01*
X0433567Y0447049D01*
X0433512Y0446929D01*
X0433447Y0446809D01*
X0433373Y0446698D01*
X0433290Y0446587D01*
X0433281Y0446577D01*
X0433271Y0446559D01*
X0433234Y0446540D01*
X0433197Y0446503D01*
X0433151Y0446457D01*
X0433096Y0446411D01*
X0433022Y0446355D01*
X0432938Y0446309D01*
X0432855Y0446254D01*
X0432753Y0446198D01*
X0432531Y0446096D01*
X0432272Y0446013D01*
X0432134Y0445985D01*
X0431986Y0445967D01*
X0431921Y0446790D01*
X0431949D01*
X0431976Y0446799D01*
X0432023Y0446809D01*
X0432124Y0446836D01*
X0432263Y0446873D01*
X0432402Y0446929D01*
X0432559Y0447003D01*
X0432698Y0447095D01*
X0432827Y0447206D01*
X0432837Y0447225D01*
X0432874Y0447262D01*
X0432920Y0447336D01*
X0432975Y0447438D01*
X0433031Y0447549D01*
X0433077Y0447687D01*
X0433114Y0447845D01*
X0433123Y0448020D01*
Y0448030D01*
Y0448048D01*
Y0448076D01*
X0433114Y0448113D01*
X0433105Y0448224D01*
X0433068Y0448353D01*
X0433022Y0448511D01*
X0432948Y0448668D01*
X0432837Y0448834D01*
X0432772Y0448908D01*
X0432698Y0448982D01*
X0432689Y0448992D01*
X0432679Y0449001D01*
X0432652Y0449019D01*
X0432624Y0449047D01*
X0432522Y0449112D01*
X0432393Y0449186D01*
X0432235Y0449251D01*
X0432041Y0449315D01*
X0431810Y0449362D01*
X0431690Y0449380D01*
X0431495D01*
X0431449Y0449371D01*
X0431394D01*
X0431329Y0449362D01*
X0431181Y0449334D01*
X0431005Y0449288D01*
X0430829Y0449223D01*
X0430663Y0449130D01*
X0430506Y0449001D01*
X0430496D01*
X0430487Y0448982D01*
X0430441Y0448936D01*
X0430376Y0448853D01*
X0430302Y0448742D01*
X0430237Y0448594D01*
X0430173Y0448427D01*
X0430126Y0448233D01*
X0430108Y0448122D01*
Y0448011D01*
Y0447993D01*
Y0447946D01*
X0430117Y0447872D01*
X0430126Y0447780D01*
X0430154Y0447669D01*
X0430182Y0447558D01*
X0430228Y0447438D01*
X0430284Y0447317D01*
X0430293Y0447308D01*
X0430311Y0447271D01*
X0430358Y0447216D01*
X0430404Y0447142D01*
X0430469Y0447068D01*
X0430552Y0446994D01*
X0430635Y0446910D01*
X0430737Y0446846D01*
X0430635Y0446106D01*
X0427342Y0446725D01*
Y0449907D01*
X0428091D01*
Y0447345D01*
X0429821Y0447003D01*
X0429812Y0447012D01*
X0429803Y0447031D01*
X0429784Y0447058D01*
X0429756Y0447105D01*
X0429729Y0447160D01*
X0429692Y0447225D01*
X0429618Y0447373D01*
X0429544Y0447558D01*
X0429479Y0447761D01*
X0429433Y0447983D01*
X0429414Y0448094D01*
Y0448215D01*
Y0448224D01*
Y0448252D01*
Y0448298D01*
X0429423Y0448353D01*
X0429433Y0448427D01*
X0429442Y0448511D01*
X0429460Y0448603D01*
X0429488Y0448705D01*
X0429553Y0448927D01*
X0429599Y0449047D01*
X0429664Y0449167D01*
X0429729Y0449288D01*
X0429803Y0449408D01*
X0429895Y0449519D01*
X0429997Y0449630D01*
X0430006Y0449639D01*
X0430025Y0449658D01*
X0430052Y0449685D01*
X0430099Y0449722D01*
X0430163Y0449769D01*
X0430228Y0449815D01*
X0430311Y0449870D01*
X0430404Y0449926D01*
X0430506Y0449972D01*
X0430617Y0450028D01*
X0430746Y0450074D01*
X0430876Y0450120D01*
X0431014Y0450157D01*
X0431172Y0450185D01*
X0431329Y0450203D01*
X0431495Y0450213D01*
X0431579D01*
X0431643Y0450203D01*
D02*
G37*
G36*
X0433660Y0433970D02*
X0432763D01*
Y0434867D01*
X0433660D01*
Y0433970D01*
D02*
G37*
%LPC*%
G36*
X0589136Y0309550D02*
X0589080D01*
X0589043Y0309540D01*
X0588951Y0309531D01*
X0588821Y0309503D01*
X0588683Y0309457D01*
X0588525Y0309383D01*
X0588377Y0309291D01*
X0588229Y0309161D01*
X0588211Y0309143D01*
X0588174Y0309096D01*
X0588109Y0309013D01*
X0588044Y0308893D01*
X0587980Y0308754D01*
X0587915Y0308578D01*
X0587878Y0308384D01*
X0587859Y0308162D01*
Y0308144D01*
Y0308097D01*
X0587869Y0308014D01*
X0587878Y0307912D01*
X0587896Y0307792D01*
X0587933Y0307663D01*
X0587970Y0307524D01*
X0588026Y0307385D01*
X0588035Y0307367D01*
X0588063Y0307320D01*
X0588100Y0307256D01*
X0588155Y0307172D01*
X0588220Y0307089D01*
X0588303Y0306987D01*
X0588396Y0306904D01*
X0588507Y0306821D01*
X0588525Y0306812D01*
X0588562Y0306793D01*
X0588627Y0306756D01*
X0588710Y0306728D01*
X0588803Y0306691D01*
X0588914Y0306654D01*
X0589034Y0306636D01*
X0589164Y0306627D01*
X0589210D01*
X0589247Y0306636D01*
X0589339Y0306645D01*
X0589460Y0306673D01*
X0589589Y0306728D01*
X0589737Y0306793D01*
X0589885Y0306895D01*
X0589959Y0306950D01*
X0590024Y0307024D01*
Y0307034D01*
X0590042Y0307043D01*
X0590079Y0307098D01*
X0590135Y0307191D01*
X0590209Y0307311D01*
X0590274Y0307468D01*
X0590329Y0307653D01*
X0590366Y0307866D01*
X0590385Y0308116D01*
Y0308125D01*
Y0308144D01*
Y0308181D01*
X0590375Y0308227D01*
Y0308282D01*
X0590366Y0308347D01*
X0590338Y0308495D01*
X0590301Y0308662D01*
X0590237Y0308837D01*
X0590144Y0309004D01*
X0590024Y0309161D01*
X0590005Y0309180D01*
X0589959Y0309226D01*
X0589885Y0309281D01*
X0589783Y0309355D01*
X0589654Y0309429D01*
X0589506Y0309485D01*
X0589330Y0309531D01*
X0589136Y0309550D01*
D02*
G37*
G36*
X0594482Y0311215D02*
X0592466Y0308347D01*
X0594482D01*
Y0311215D01*
D02*
G37*
G36*
X0430792Y0444367D02*
X0430358D01*
X0430247Y0444357D01*
X0430126D01*
X0429978Y0444348D01*
X0429821Y0444339D01*
X0429645Y0444320D01*
X0429294Y0444274D01*
X0429118Y0444246D01*
X0428952Y0444209D01*
X0428794Y0444172D01*
X0428646Y0444117D01*
X0428517Y0444061D01*
X0428406Y0443997D01*
X0428397D01*
X0428387Y0443978D01*
X0428360Y0443960D01*
X0428323Y0443932D01*
X0428239Y0443849D01*
X0428138Y0443747D01*
X0428045Y0443608D01*
X0427962Y0443451D01*
X0427925Y0443368D01*
X0427897Y0443275D01*
X0427888Y0443173D01*
X0427879Y0443072D01*
Y0443062D01*
Y0443044D01*
Y0443016D01*
X0427888Y0442979D01*
X0427906Y0442877D01*
X0427934Y0442757D01*
X0427990Y0442618D01*
X0428073Y0442470D01*
X0428128Y0442396D01*
X0428184Y0442322D01*
X0428258Y0442258D01*
X0428341Y0442193D01*
X0428350D01*
X0428369Y0442174D01*
X0428406Y0442156D01*
X0428452Y0442128D01*
X0428526Y0442100D01*
X0428609Y0442063D01*
X0428711Y0442036D01*
X0428831Y0441999D01*
X0428970Y0441962D01*
X0429127Y0441925D01*
X0429303Y0441888D01*
X0429497Y0441860D01*
X0429719Y0441832D01*
X0429960Y0441814D01*
X0430219Y0441804D01*
X0430506Y0441795D01*
X0430654D01*
X0430765Y0441804D01*
X0430885D01*
X0431033Y0441814D01*
X0431190Y0441823D01*
X0431357Y0441841D01*
X0431717Y0441888D01*
X0431893Y0441915D01*
X0432060Y0441952D01*
X0432217Y0441989D01*
X0432365Y0442045D01*
X0432494Y0442100D01*
X0432605Y0442165D01*
X0432615D01*
X0432624Y0442184D01*
X0432689Y0442230D01*
X0432772Y0442313D01*
X0432864Y0442415D01*
X0432957Y0442554D01*
X0433040Y0442711D01*
X0433105Y0442887D01*
X0433114Y0442979D01*
X0433123Y0443081D01*
Y0443090D01*
Y0443109D01*
Y0443136D01*
X0433114Y0443173D01*
X0433096Y0443266D01*
X0433059Y0443395D01*
X0432994Y0443534D01*
X0432901Y0443691D01*
X0432846Y0443765D01*
X0432772Y0443839D01*
X0432698Y0443913D01*
X0432605Y0443987D01*
X0432596D01*
X0432578Y0444006D01*
X0432550Y0444024D01*
X0432504Y0444043D01*
X0432439Y0444080D01*
X0432356Y0444108D01*
X0432263Y0444145D01*
X0432152Y0444182D01*
X0432013Y0444209D01*
X0431865Y0444246D01*
X0431690Y0444283D01*
X0431505Y0444311D01*
X0431283Y0444330D01*
X0431051Y0444348D01*
X0430792Y0444367D01*
D02*
G37*
%LPD*%
G54D37*
X0702389Y0288959D02*
X0701389Y0289959D01*
X0699390D01*
X0698390Y0288959D01*
Y0287960D01*
X0699390Y0286960D01*
X0701389D01*
X0702389Y0285960D01*
Y0284961D01*
X0701389Y0283961D01*
X0699390D01*
X0698390Y0284961D01*
X0708387Y0289959D02*
X0704388D01*
Y0283961D01*
X0708387D01*
X0704388Y0286960D02*
X0706387D01*
X0714385Y0289959D02*
X0710386D01*
Y0283961D01*
X0714385D01*
X0710386Y0286960D02*
X0712386D01*
X0726381Y0288959D02*
X0725381Y0289959D01*
X0723382D01*
X0722382Y0288959D01*
Y0284961D01*
X0723382Y0283961D01*
X0725381D01*
X0726381Y0284961D01*
Y0286960D01*
X0724382D01*
X0731379Y0289959D02*
X0729380D01*
X0728380Y0288959D01*
Y0284961D01*
X0729380Y0283961D01*
X0731379D01*
X0732379Y0284961D01*
Y0288959D01*
X0731379Y0289959D01*
X0734378D02*
Y0283961D01*
X0738377D01*
X0740376Y0289959D02*
Y0283961D01*
X0743375D01*
X0744375Y0284961D01*
Y0288959D01*
X0743375Y0289959D01*
X0740376D01*
X0756371D02*
X0752373D01*
Y0286960D01*
X0754372D01*
X0752373D01*
Y0283961D01*
X0758371Y0289959D02*
X0760370D01*
X0759370D01*
Y0283961D01*
X0758371D01*
X0760370D01*
X0763369D02*
Y0289959D01*
X0767368Y0283961D01*
Y0289959D01*
X0773366Y0288959D02*
X0772366Y0289959D01*
X0770367D01*
X0769367Y0288959D01*
Y0284961D01*
X0770367Y0283961D01*
X0772366D01*
X0773366Y0284961D01*
Y0286960D01*
X0771366D01*
X0779364Y0289959D02*
X0775365D01*
Y0283961D01*
X0779364D01*
X0775365Y0286960D02*
X0777364D01*
X0781363Y0283961D02*
Y0289959D01*
X0784362D01*
X0785362Y0288959D01*
Y0286960D01*
X0784362Y0285960D01*
X0781363D01*
X0783362D02*
X0785362Y0283961D01*
X0797358Y0288959D02*
X0796358Y0289959D01*
X0794359D01*
X0793359Y0288959D01*
Y0287960D01*
X0794359Y0286960D01*
X0796358D01*
X0797358Y0285960D01*
Y0284961D01*
X0796358Y0283961D01*
X0794359D01*
X0793359Y0284961D01*
X0799357Y0289959D02*
X0801357D01*
X0800357D01*
Y0283961D01*
X0799357D01*
X0801357D01*
X0804356Y0289959D02*
Y0283961D01*
X0807355D01*
X0808354Y0284961D01*
Y0288959D01*
X0807355Y0289959D01*
X0804356D01*
X0814353D02*
X0810354D01*
Y0283961D01*
X0814353D01*
X0810354Y0286960D02*
X0812353D01*
X0822350Y0289959D02*
Y0285960D01*
X0824349Y0283961D01*
X0826349Y0285960D01*
Y0289959D01*
X0828348D02*
X0830347D01*
X0829348D01*
Y0283961D01*
X0828348D01*
X0830347D01*
X0837345Y0289959D02*
X0833346D01*
Y0283961D01*
X0837345D01*
X0833346Y0286960D02*
X0835346D01*
X0839344Y0289959D02*
Y0283961D01*
X0841344Y0285960D01*
X0843343Y0283961D01*
Y0289959D01*
X0091109Y0103801D02*
X0093108D01*
X0092108D01*
Y0109799D01*
X0091109Y0108799D01*
X0096107D02*
X0097107Y0109799D01*
X0099106D01*
X0100106Y0108799D01*
Y0104801D01*
X0099106Y0103801D01*
X0097107D01*
X0096107Y0104801D01*
Y0108799D01*
X0102105D02*
X0103105Y0109799D01*
X0105104D01*
X0106104Y0108799D01*
Y0104801D01*
X0105104Y0103801D01*
X0103105D01*
X0102105Y0104801D01*
Y0108799D01*
X0108103D02*
X0109103Y0109799D01*
X0111102D01*
X0112102Y0108799D01*
Y0104801D01*
X0111102Y0103801D01*
X0109103D01*
X0108103Y0104801D01*
Y0108799D01*
X0114101Y0103801D02*
Y0104801D01*
X0115101D01*
Y0103801D01*
X0114101D01*
X0119099Y0108799D02*
X0120099Y0109799D01*
X0122099D01*
X0123098Y0108799D01*
Y0104801D01*
X0122099Y0103801D01*
X0120099D01*
X0119099Y0104801D01*
Y0108799D01*
X0125098D02*
X0126097Y0109799D01*
X0128097D01*
X0129096Y0108799D01*
Y0104801D01*
X0128097Y0103801D01*
X0126097D01*
X0125098Y0104801D01*
Y0108799D01*
X0131096Y0103801D02*
Y0107800D01*
X0132095D01*
X0133095Y0106800D01*
Y0103801D01*
Y0106800D01*
X0134095Y0107800D01*
X0135094Y0106800D01*
Y0103801D01*
X0137094D02*
X0139093D01*
X0138093D01*
Y0107800D01*
X0137094D01*
X0142092Y0103801D02*
X0144091D01*
X0143092D01*
Y0109799D01*
X0142092D01*
G54D39*
X0234924Y0382814D02*
G03*
X0196587Y0397822I-0043934J-0055754D01*
G01*
X0203062Y0398399D02*
G03*
X0196790Y0398360I-0003027J-0017437D01*
G01*
X0196774Y0397686D02*
G03*
X0201862Y0395326I0013975J0023466D01*
G01*
X0235190Y0382760D02*
G03*
X0231315Y0387590I-0015561J-0008514D01*
G01*
X0229590Y0384260D02*
G03*
X0235056Y0382534I0013752J0034043D01*
G01*
X0690090Y0287560D02*
X0697390D01*
X0651790Y0327060D02*
X0690090Y0287560D01*
X0697390D01*
X0690090D02*
X0697390D01*
X0690090D02*
X0697390D01*
X0690090D02*
X0697390D01*
X0651790Y0327060D02*
X0654531Y0321360D01*
X0651790Y0327060D02*
X0657403Y0324145D01*
X0429390Y0330062D02*
X0486707D01*
X0429390Y0550570D02*
X0457733D01*
X0430390Y0330062D02*
Y0427438D01*
Y0451213D02*
Y0550570D01*
Y0330062D02*
X0432390Y0336062D01*
X0428390D02*
X0430390Y0330062D01*
X0428390Y0544570D02*
X0430390Y0550570D01*
X0432390Y0544570D01*
X0723626Y0308360D02*
Y0376880D01*
X0458912Y0308360D02*
Y0376832D01*
X0602142Y0309360D02*
X0723626D01*
X0458912D02*
X0578414D01*
X0717626Y0311360D02*
X0723626Y0309360D01*
X0717626Y0307360D02*
X0723626Y0309360D01*
X0458912D02*
X0464912Y0307360D01*
X0458912Y0309360D02*
X0464912Y0311360D01*
X0169200Y0106400D02*
Y0112050D01*
X0069200Y0106400D02*
Y0112050D01*
X0145691Y0107400D02*
X0169200D01*
X0069200D02*
X0089509D01*
X0163200Y0109400D02*
X0169200Y0107400D01*
X0163200Y0105400D02*
X0169200Y0107400D01*
X0069200D02*
X0075200Y0105400D01*
X0069200Y0107400D02*
X0075200Y0109400D01*
X0175190Y0332760D02*
Y0435760D01*
X0195890Y0332760D02*
Y0435760D01*
X0174990Y0435460D02*
X0181790Y0443660D01*
X0181690Y0443760D02*
X0188090Y0435060D01*
X0188190Y0434960D02*
X0195390Y0443960D01*
X0195890Y0435760D02*
Y0444260D01*
X0191190Y0327160D02*
X0195890Y0332860D01*
X0175190Y0332560D02*
X0180190Y0327160D01*
X0191190D01*
X0198590Y0336660D02*
X0244890Y0393860D01*
X0195990Y0296260D02*
Y0328460D01*
X0191290Y0296260D02*
Y0324460D01*
X0196990Y0317760D02*
X0199690Y0320560D01*
X0196990Y0317660D02*
X0199690Y0314660D01*
X0187690Y0320760D02*
X0190390Y0317760D01*
X0187690Y0314860D02*
X0190390Y0317660D01*
X0183490Y0317760D02*
X0190290D01*
X0197190D02*
X0203990D01*
X0175190Y0296260D02*
Y0328460D01*
X0196990Y0301360D02*
X0203790D01*
X0196790Y0301260D02*
X0199490Y0298260D01*
X0196790Y0301360D02*
X0199490Y0304160D01*
X0167390Y0300960D02*
X0174190D01*
X0171590Y0298060D02*
X0174290Y0300860D01*
X0171590Y0303960D02*
X0174290Y0300960D01*
X0168689Y0268558D02*
X0167689Y0269558D01*
X0165690D01*
X0164690Y0268558D01*
Y0267559D01*
X0165690Y0266559D01*
X0167689D01*
X0168689Y0265559D01*
Y0264560D01*
X0167689Y0263560D01*
X0165690D01*
X0164690Y0264560D01*
X0170688Y0269558D02*
X0172687D01*
X0171688D01*
Y0263560D01*
X0170688D01*
X0172687D01*
X0175686Y0269558D02*
Y0263560D01*
X0178685D01*
X0179685Y0264560D01*
Y0268558D01*
X0178685Y0269558D01*
X0175686D01*
X0185683D02*
X0181685D01*
Y0263560D01*
X0185683D01*
X0181685Y0266559D02*
X0183684D01*
X0193681Y0269558D02*
Y0265559D01*
X0195680Y0263560D01*
X0197679Y0265559D01*
Y0269558D01*
X0199679D02*
X0201678D01*
X0200678D01*
Y0263560D01*
X0199679D01*
X0201678D01*
X0208676Y0269558D02*
X0204677D01*
Y0263560D01*
X0208676D01*
X0204677Y0266559D02*
X0206676D01*
X0210675Y0269558D02*
Y0263560D01*
X0212674Y0265559D01*
X0214674Y0263560D01*
Y0269558D01*
X0215490Y0404858D02*
X0216490Y0405858D01*
X0218489D01*
X0219489Y0404858D01*
Y0403859D01*
X0218489Y0402859D01*
X0217489D01*
X0218489D01*
X0219489Y0401859D01*
Y0400860D01*
X0218489Y0399860D01*
X0216490D01*
X0215490Y0400860D01*
X0221488Y0404858D02*
X0222488Y0405858D01*
X0224487D01*
X0225487Y0404858D01*
Y0400860D01*
X0224487Y0399860D01*
X0222488D01*
X0221488Y0400860D01*
Y0404858D01*
X0208090Y0314960D02*
X0210089D01*
X0209090D01*
Y0320958D01*
X0208090Y0319958D01*
X0213088D02*
X0214088Y0320958D01*
X0216087D01*
X0217087Y0319958D01*
Y0318959D01*
X0216087Y0317959D01*
X0217087Y0316959D01*
Y0315960D01*
X0216087Y0314960D01*
X0214088D01*
X0213088Y0315960D01*
Y0316959D01*
X0214088Y0317959D01*
X0213088Y0318959D01*
Y0319958D01*
X0214088Y0317959D02*
X0216087D01*
X0219086Y0314960D02*
Y0320958D01*
X0221086Y0318959D01*
X0223085Y0320958D01*
Y0314960D01*
X0225084Y0320958D02*
X0227084D01*
X0226084D01*
Y0314960D01*
X0225084D01*
X0227084D01*
X0230083Y0320958D02*
Y0314960D01*
X0234082D01*
X0163289Y0279858D02*
X0162289Y0280858D01*
X0160290D01*
X0159290Y0279858D01*
Y0275860D01*
X0160290Y0274860D01*
X0162289D01*
X0163289Y0275860D01*
Y0277859D01*
X0161289D01*
X0168287Y0280858D02*
X0166288D01*
X0165288Y0279858D01*
Y0275860D01*
X0166288Y0274860D01*
X0168287D01*
X0169287Y0275860D01*
Y0279858D01*
X0168287Y0280858D01*
X0171286D02*
Y0274860D01*
X0175285D01*
X0177284Y0280858D02*
Y0274860D01*
X0180283D01*
X0181283Y0275860D01*
Y0279858D01*
X0180283Y0280858D01*
X0177284D01*
X0193279D02*
X0189280D01*
Y0277859D01*
X0191280D01*
X0189280D01*
Y0274860D01*
X0195278Y0280858D02*
X0197278D01*
X0196278D01*
Y0274860D01*
X0195278D01*
X0197278D01*
X0200277D02*
Y0280858D01*
X0204275Y0274860D01*
Y0280858D01*
X0210274Y0279858D02*
X0209274Y0280858D01*
X0207275D01*
X0206275Y0279858D01*
Y0275860D01*
X0207275Y0274860D01*
X0209274D01*
X0210274Y0275860D01*
Y0277859D01*
X0208274D01*
X0216272Y0280858D02*
X0212273D01*
Y0274860D01*
X0216272D01*
X0212273Y0277859D02*
X0214272D01*
X0218271Y0274860D02*
Y0280858D01*
X0221270D01*
X0222270Y0279858D01*
Y0277859D01*
X0221270Y0276859D01*
X0218271D01*
X0220270D02*
X0222270Y0274860D01*
X0211389Y0304558D02*
X0209389Y0303558D01*
X0207390Y0301559D01*
Y0299560D01*
X0208390Y0298560D01*
X0210389D01*
X0211389Y0299560D01*
Y0300559D01*
X0210389Y0301559D01*
X0207390D01*
X0217387Y0298560D02*
X0213388D01*
X0217387Y0302559D01*
Y0303558D01*
X0216387Y0304558D01*
X0214388D01*
X0213388Y0303558D01*
X0219386Y0298560D02*
Y0304558D01*
X0221386Y0302559D01*
X0223385Y0304558D01*
Y0298560D01*
X0225384Y0304558D02*
X0227383D01*
X0226384D01*
Y0298560D01*
X0225384D01*
X0227383D01*
X0230383Y0304558D02*
Y0298560D01*
X0234381D01*
X0497200Y0080717D02*
Y0101050D01*
X0413200Y0080717D02*
Y0101050D01*
X0040000Y0080717D02*
X0700200D01*
X0040000Y0060383D02*
X0700000D01*
X0040000Y0040050D02*
X0440500D01*
X0040050Y0101050D02*
X0700200D01*
X0040050Y0040050D02*
Y0101050D01*
Y0040050D02*
X0197600D01*
X0040000D02*
Y0101050D01*
X0286500Y0040050D02*
Y0101050D01*
X0700200Y0040050D02*
Y0101050D01*
X0440500Y0040050D02*
X0700200D01*
X0559400Y0039400D02*
Y0059683D01*
G54D40*
X0126900Y0067551D02*
Y0073549D01*
X0128899Y0071549D01*
X0130899Y0073549D01*
Y0067551D01*
X0136897D02*
X0132898D01*
X0136897Y0071549D01*
Y0072549D01*
X0135897Y0073549D01*
X0133898D01*
X0132898Y0072549D01*
X0144894Y0073549D02*
Y0067551D01*
X0147893D01*
X0148893Y0068550D01*
Y0069550D01*
X0147893Y0070550D01*
X0144894D01*
X0147893D01*
X0148893Y0071549D01*
Y0072549D01*
X0147893Y0073549D01*
X0144894D01*
X0151892Y0067551D02*
X0153891D01*
X0154891Y0068550D01*
Y0070550D01*
X0153891Y0071549D01*
X0151892D01*
X0150892Y0070550D01*
Y0068550D01*
X0151892Y0067551D01*
X0157890Y0071549D02*
X0159889D01*
X0160889Y0070550D01*
Y0067551D01*
X0157890D01*
X0156890Y0068550D01*
X0157890Y0069550D01*
X0160889D01*
X0162888Y0071549D02*
Y0067551D01*
Y0069550D01*
X0163888Y0070550D01*
X0164888Y0071549D01*
X0165887D01*
X0172885Y0073549D02*
Y0067551D01*
X0169886D01*
X0168886Y0068550D01*
Y0070550D01*
X0169886Y0071549D01*
X0172885D01*
X0180883Y0073549D02*
Y0067551D01*
X0183882D01*
X0184881Y0068550D01*
Y0072549D01*
X0183882Y0073549D01*
X0180883D01*
X0186881Y0067551D02*
X0188880D01*
X0187880D01*
Y0071549D01*
X0186881D01*
X0191879Y0067551D02*
Y0071549D01*
X0192879D01*
X0193878Y0070550D01*
Y0067551D01*
Y0070550D01*
X0194878Y0071549D01*
X0195878Y0070550D01*
Y0067551D01*
X0200876D02*
X0198877D01*
X0197877Y0068550D01*
Y0070550D01*
X0198877Y0071549D01*
X0200876D01*
X0201876Y0070550D01*
Y0069550D01*
X0197877D01*
X0203875Y0067551D02*
Y0071549D01*
X0206874D01*
X0207874Y0070550D01*
Y0067551D01*
X0209873D02*
X0212872D01*
X0213872Y0068550D01*
X0212872Y0069550D01*
X0210873D01*
X0209873Y0070550D01*
X0210873Y0071549D01*
X0213872D01*
X0215871Y0067551D02*
X0217871D01*
X0216871D01*
Y0071549D01*
X0215871D01*
X0221869Y0067551D02*
X0223869D01*
X0224868Y0068550D01*
Y0070550D01*
X0223869Y0071549D01*
X0221869D01*
X0220870Y0070550D01*
Y0068550D01*
X0221869Y0067551D01*
X0226868D02*
Y0071549D01*
X0229867D01*
X0230866Y0070550D01*
Y0067551D01*
X0232866D02*
X0235865D01*
X0236864Y0068550D01*
X0235865Y0069550D01*
X0233865D01*
X0232866Y0070550D01*
X0233865Y0071549D01*
X0236864D01*
X0567400Y0087833D02*
Y0093831D01*
X0571399Y0087833D01*
Y0093831D01*
X0574398Y0087833D02*
X0576397D01*
X0577397Y0088833D01*
Y0090832D01*
X0576397Y0091832D01*
X0574398D01*
X0573398Y0090832D01*
Y0088833D01*
X0574398Y0087833D01*
X0580396Y0092832D02*
Y0091832D01*
X0579396D01*
X0581395D01*
X0580396D01*
Y0088833D01*
X0581395Y0087833D01*
X0590393Y0093831D02*
X0592392D01*
X0591392D01*
Y0087833D01*
X0590393D01*
X0592392D01*
X0595391D02*
Y0091832D01*
X0598390D01*
X0599390Y0090832D01*
Y0087833D01*
X0607387Y0093831D02*
Y0089833D01*
X0609386Y0087833D01*
X0611386Y0089833D01*
Y0093831D01*
X0616384Y0087833D02*
X0614385D01*
X0613385Y0088833D01*
Y0090832D01*
X0614385Y0091832D01*
X0616384D01*
X0617384Y0090832D01*
Y0089833D01*
X0613385D01*
X0619383Y0091832D02*
Y0087833D01*
Y0089833D01*
X0620383Y0090832D01*
X0621383Y0091832D01*
X0622382D01*
X0625381Y0087833D02*
X0628380D01*
X0629380Y0088833D01*
X0628380Y0089833D01*
X0626381D01*
X0625381Y0090832D01*
X0626381Y0091832D01*
X0629380D01*
X0631379Y0087833D02*
X0633379D01*
X0632379D01*
Y0091832D01*
X0631379D01*
X0637377Y0087833D02*
X0639377D01*
X0640376Y0088833D01*
Y0090832D01*
X0639377Y0091832D01*
X0637377D01*
X0636378Y0090832D01*
Y0088833D01*
X0637377Y0087833D01*
X0642376D02*
Y0091832D01*
X0645375D01*
X0646374Y0090832D01*
Y0087833D01*
X0652373Y0092832D02*
X0651373Y0093831D01*
X0649373D01*
X0648374Y0092832D01*
Y0088833D01*
X0649373Y0087833D01*
X0651373D01*
X0652373Y0088833D01*
X0655372Y0087833D02*
X0657371D01*
X0658371Y0088833D01*
Y0090832D01*
X0657371Y0091832D01*
X0655372D01*
X0654372Y0090832D01*
Y0088833D01*
X0655372Y0087833D01*
X0660370D02*
Y0091832D01*
X0663369D01*
X0664369Y0090832D01*
Y0087833D01*
X0667368Y0092832D02*
Y0091832D01*
X0666368D01*
X0668367D01*
X0667368D01*
Y0088833D01*
X0668367Y0087833D01*
X0671366Y0091832D02*
Y0087833D01*
Y0089833D01*
X0672366Y0090832D01*
X0673366Y0091832D01*
X0674365D01*
X0678364Y0087833D02*
X0680364D01*
X0681363Y0088833D01*
Y0090832D01*
X0680364Y0091832D01*
X0678364D01*
X0677364Y0090832D01*
Y0088833D01*
X0678364Y0087833D01*
X0683362D02*
X0685362D01*
X0684362D01*
Y0093831D01*
X0683362D01*
X0520799Y0092832D02*
X0519799Y0093831D01*
X0517800D01*
X0516800Y0092832D01*
Y0091832D01*
X0517800Y0090832D01*
X0519799D01*
X0520799Y0089833D01*
Y0088833D01*
X0519799Y0087833D01*
X0517800D01*
X0516800Y0088833D01*
X0522798Y0093831D02*
Y0089833D01*
X0524797Y0087833D01*
X0526797Y0089833D01*
Y0093831D01*
X0528796Y0087833D02*
Y0093831D01*
X0532795Y0087833D01*
Y0093831D01*
X0540792Y0087833D02*
Y0093831D01*
X0543791D01*
X0544791Y0092832D01*
Y0090832D01*
X0543791Y0089833D01*
X0540792D01*
X0542792D02*
X0544791Y0087833D01*
X0550789Y0093831D02*
X0546790D01*
Y0087833D01*
X0550789D01*
X0546790Y0090832D02*
X0548790D01*
X0552788Y0093831D02*
Y0089833D01*
X0554788Y0087833D01*
X0556787Y0089833D01*
Y0093831D01*
X0558786Y0091832D02*
X0559786D01*
Y0090832D01*
X0558786D01*
Y0091832D01*
Y0088833D02*
X0559786D01*
Y0087833D01*
X0558786D01*
Y0088833D01*
X0433000Y0087833D02*
Y0093831D01*
X0435999D01*
X0436999Y0092832D01*
Y0090832D01*
X0435999Y0089833D01*
X0433000D01*
X0434999D02*
X0436999Y0087833D01*
X0442997Y0093831D02*
X0438998D01*
Y0087833D01*
X0442997D01*
X0438998Y0090832D02*
X0440997D01*
X0444996Y0093831D02*
Y0089833D01*
X0446995Y0087833D01*
X0448995Y0089833D01*
Y0093831D01*
X0450994Y0091832D02*
X0451994D01*
Y0090832D01*
X0450994D01*
Y0091832D01*
Y0088833D02*
X0451994D01*
Y0087833D01*
X0450994D01*
Y0088833D01*
X0126900Y0046966D02*
Y0052965D01*
X0128899Y0050965D01*
X0130899Y0052965D01*
Y0046966D01*
X0136897Y0051965D02*
X0135897Y0052965D01*
X0133898D01*
X0132898Y0051965D01*
Y0047966D01*
X0133898Y0046966D01*
X0135897D01*
X0136897Y0047966D01*
X0138896Y0052965D02*
Y0047966D01*
X0139896Y0046966D01*
X0141895D01*
X0142895Y0047966D01*
Y0052965D01*
X0144894Y0051965D02*
X0145894Y0052965D01*
X0147893D01*
X0148893Y0051965D01*
Y0047966D01*
X0147893Y0046966D01*
X0145894D01*
X0144894Y0047966D01*
Y0051965D01*
X0150892D02*
X0151892Y0052965D01*
X0153891D01*
X0154891Y0051965D01*
Y0047966D01*
X0153891Y0046966D01*
X0151892D01*
X0150892Y0047966D01*
Y0051965D01*
X0156890Y0047966D02*
X0157890Y0046966D01*
X0159889D01*
X0160889Y0047966D01*
Y0051965D01*
X0159889Y0052965D01*
X0157890D01*
X0156890Y0051965D01*
Y0050965D01*
X0157890Y0049966D01*
X0160889D01*
X0162888Y0046966D02*
Y0050965D01*
X0164888Y0052965D01*
X0166887Y0050965D01*
Y0046966D01*
Y0049966D01*
X0162888D01*
X0168886Y0046966D02*
Y0047966D01*
X0169886D01*
Y0046966D01*
X0168886D01*
X0177884Y0051965D02*
X0176884Y0052965D01*
X0174884D01*
X0173885Y0051965D01*
Y0047966D01*
X0174884Y0046966D01*
X0176884D01*
X0177884Y0047966D01*
Y0049966D01*
X0175884D01*
X0179883Y0046966D02*
Y0052965D01*
X0181882Y0050965D01*
X0183882Y0052965D01*
Y0046966D01*
X0189880D02*
X0185881D01*
X0189880Y0050965D01*
Y0051965D01*
X0188880Y0052965D01*
X0186881D01*
X0185881Y0051965D01*
X0381150Y0046966D02*
X0383149D01*
X0382150D01*
Y0052965D01*
X0381150Y0051965D01*
X0386148Y0046966D02*
X0390147Y0050965D01*
X0392146Y0046966D02*
X0394146D01*
X0393146D01*
Y0052965D01*
X0392146Y0051965D01*
X0401144Y0052965D02*
X0399144Y0051965D01*
X0397145Y0049966D01*
Y0047966D01*
X0398145Y0046966D01*
X0400144D01*
X0401144Y0047966D01*
Y0048966D01*
X0400144Y0049966D01*
X0397145D01*
X0403143Y0046966D02*
X0407142Y0050965D01*
X0413140Y0046966D02*
X0409141D01*
X0413140Y0050965D01*
Y0051965D01*
X0412140Y0052965D01*
X0410141D01*
X0409141Y0051965D01*
X0415139D02*
X0416139Y0052965D01*
X0418138D01*
X0419138Y0051965D01*
Y0047966D01*
X0418138Y0046966D01*
X0416139D01*
X0415139Y0047966D01*
Y0051965D01*
X0421137Y0046966D02*
X0423136D01*
X0422137D01*
Y0052965D01*
X0421137Y0051965D01*
X0426135Y0052965D02*
X0430134D01*
Y0051965D01*
X0426135Y0047966D01*
Y0046966D01*
X0298199Y0051965D02*
X0297199Y0052965D01*
X0295200D01*
X0294200Y0051965D01*
Y0047966D01*
X0295200Y0046966D01*
X0297199D01*
X0298199Y0047966D01*
Y0049966D01*
X0296199D01*
X0304197Y0052965D02*
X0300198D01*
Y0046966D01*
X0304197D01*
X0300198Y0049966D02*
X0302197D01*
X0306196Y0046966D02*
Y0052965D01*
X0310195Y0046966D01*
Y0052965D01*
X0316193D02*
X0312194D01*
Y0046966D01*
X0316193D01*
X0312194Y0049966D02*
X0314194D01*
X0318192Y0046966D02*
Y0052965D01*
X0321191D01*
X0322191Y0051965D01*
Y0049966D01*
X0321191Y0048966D01*
X0318192D01*
X0320192D02*
X0322191Y0046966D01*
X0324190D02*
Y0050965D01*
X0326190Y0052965D01*
X0328189Y0050965D01*
Y0046966D01*
Y0049966D01*
X0324190D01*
X0330188Y0052965D02*
X0334187D01*
X0332188D01*
Y0046966D01*
X0340185Y0052965D02*
X0336186D01*
Y0046966D01*
X0340185D01*
X0336186Y0049966D02*
X0338186D01*
X0342184Y0052965D02*
Y0046966D01*
X0345183D01*
X0346183Y0047966D01*
Y0051965D01*
X0345183Y0052965D01*
X0342184D01*
X0372175Y0050965D02*
X0373175D01*
Y0049966D01*
X0372175D01*
Y0050965D01*
Y0047966D02*
X0373175D01*
Y0046966D01*
X0372175D01*
Y0047966D01*
X0046350Y0087833D02*
Y0091832D01*
X0048349Y0093831D01*
X0050349Y0091832D01*
Y0087833D01*
Y0090832D01*
X0046350D01*
X0052348Y0093831D02*
Y0087833D01*
X0056347D01*
X0058346Y0093831D02*
Y0087833D01*
X0062345D01*
X0070342D02*
Y0091832D01*
X0072342Y0093831D01*
X0074341Y0091832D01*
Y0087833D01*
Y0090832D01*
X0070342D01*
X0076340Y0087833D02*
Y0093831D01*
X0079339D01*
X0080339Y0092832D01*
Y0090832D01*
X0079339Y0089833D01*
X0076340D01*
X0078340D02*
X0080339Y0087833D01*
X0082338Y0093831D02*
X0086337D01*
X0084338D01*
Y0087833D01*
X0088336Y0093831D02*
Y0087833D01*
X0090336Y0089833D01*
X0092335Y0087833D01*
Y0093831D01*
X0097334D02*
X0095334D01*
X0094335Y0092832D01*
Y0088833D01*
X0095334Y0087833D01*
X0097334D01*
X0098333Y0088833D01*
Y0092832D01*
X0097334Y0093831D01*
X0100332Y0087833D02*
Y0093831D01*
X0103332D01*
X0104331Y0092832D01*
Y0090832D01*
X0103332Y0089833D01*
X0100332D01*
X0102332D02*
X0104331Y0087833D01*
X0106331Y0093831D02*
Y0087833D01*
Y0089833D01*
X0110329Y0093831D01*
X0107330Y0090832D01*
X0110329Y0087833D01*
X0118327Y0093831D02*
Y0089833D01*
X0120326Y0087833D01*
X0122325Y0089833D01*
Y0093831D01*
X0124325D02*
X0126324D01*
X0125324D01*
Y0087833D01*
X0124325D01*
X0126324D01*
X0133322Y0093831D02*
X0129323D01*
Y0087833D01*
X0133322D01*
X0129323Y0090832D02*
X0131323D01*
X0135321Y0093831D02*
Y0087833D01*
X0137321Y0089833D01*
X0139320Y0087833D01*
Y0093831D01*
X0145318D02*
X0141319D01*
Y0087833D01*
X0145318D01*
X0141319Y0090832D02*
X0143319D01*
X0147317Y0093831D02*
Y0087833D01*
X0150316D01*
X0151316Y0088833D01*
Y0092832D01*
X0150316Y0093831D01*
X0147317D01*
X0163312D02*
X0159313D01*
Y0090832D01*
X0161313D01*
X0159313D01*
Y0087833D01*
X0165312D02*
Y0093831D01*
X0168310D01*
X0169310Y0092832D01*
Y0090832D01*
X0168310Y0089833D01*
X0165312D01*
X0167311D02*
X0169310Y0087833D01*
X0174309Y0093831D02*
X0172309D01*
X0171310Y0092832D01*
Y0088833D01*
X0172309Y0087833D01*
X0174309D01*
X0175308Y0088833D01*
Y0092832D01*
X0174309Y0093831D01*
X0177308Y0087833D02*
Y0093831D01*
X0179307Y0091832D01*
X0181306Y0093831D01*
Y0087833D01*
X0189304Y0093831D02*
X0193303D01*
X0191303D01*
Y0087833D01*
X0198301Y0093831D02*
X0196301D01*
X0195302Y0092832D01*
Y0088833D01*
X0196301Y0087833D01*
X0198301D01*
X0199301Y0088833D01*
Y0092832D01*
X0198301Y0093831D01*
X0201300Y0087833D02*
Y0093831D01*
X0204299D01*
X0205299Y0092832D01*
Y0090832D01*
X0204299Y0089833D01*
X0201300D01*
X0217295Y0092832D02*
X0216295Y0093831D01*
X0214296D01*
X0213296Y0092832D01*
Y0091832D01*
X0214296Y0090832D01*
X0216295D01*
X0217295Y0089833D01*
Y0088833D01*
X0216295Y0087833D01*
X0214296D01*
X0213296Y0088833D01*
X0219294Y0093831D02*
X0221293D01*
X0220294D01*
Y0087833D01*
X0219294D01*
X0221293D01*
X0224292Y0093831D02*
Y0087833D01*
X0227291D01*
X0228291Y0088833D01*
Y0092832D01*
X0227291Y0093831D01*
X0224292D01*
X0234289D02*
X0230291D01*
Y0087833D01*
X0234289D01*
X0230291Y0090832D02*
X0232290D01*
X0462150Y0087833D02*
Y0091832D01*
X0464149Y0093831D01*
X0466149Y0091832D01*
Y0087833D01*
Y0090832D01*
X0462150D01*
X0348550Y0087833D02*
Y0093831D01*
X0350549Y0091832D01*
X0352549Y0093831D01*
Y0087833D01*
X0358547Y0092832D02*
X0357547Y0093831D01*
X0355548D01*
X0354548Y0092832D01*
Y0088833D01*
X0355548Y0087833D01*
X0357547D01*
X0358547Y0088833D01*
X0360546Y0093831D02*
Y0088833D01*
X0361546Y0087833D01*
X0363545D01*
X0364545Y0088833D01*
Y0093831D01*
X0366544Y0092832D02*
X0367544Y0093831D01*
X0369543D01*
X0370543Y0092832D01*
Y0088833D01*
X0369543Y0087833D01*
X0367544D01*
X0366544Y0088833D01*
Y0092832D01*
X0372542D02*
X0373542Y0093831D01*
X0375541D01*
X0376541Y0092832D01*
Y0088833D01*
X0375541Y0087833D01*
X0373542D01*
X0372542Y0088833D01*
Y0092832D01*
X0378540Y0088833D02*
X0379540Y0087833D01*
X0381539D01*
X0382539Y0088833D01*
Y0092832D01*
X0381539Y0093831D01*
X0379540D01*
X0378540Y0092832D01*
Y0091832D01*
X0379540Y0090832D01*
X0382539D01*
X0294000Y0093831D02*
Y0087833D01*
X0296999D01*
X0297999Y0088833D01*
Y0089833D01*
X0296999Y0090832D01*
X0294000D01*
X0296999D01*
X0297999Y0091832D01*
Y0092832D01*
X0296999Y0093831D01*
X0294000D01*
X0302997D02*
X0300998D01*
X0299998Y0092832D01*
Y0088833D01*
X0300998Y0087833D01*
X0302997D01*
X0303997Y0088833D01*
Y0092832D01*
X0302997Y0093831D01*
X0305996Y0087833D02*
Y0091832D01*
X0307996Y0093831D01*
X0309995Y0091832D01*
Y0087833D01*
Y0090832D01*
X0305996D01*
X0311994Y0087833D02*
Y0093831D01*
X0314993D01*
X0315993Y0092832D01*
Y0090832D01*
X0314993Y0089833D01*
X0311994D01*
X0313994D02*
X0315993Y0087833D01*
X0317992Y0093831D02*
Y0087833D01*
X0320991D01*
X0321991Y0088833D01*
Y0092832D01*
X0320991Y0093831D01*
X0317992D01*
X0330988Y0087833D02*
Y0093831D01*
X0332987D02*
Y0087833D01*
X0329988Y0091832D02*
X0332987D01*
X0333987D01*
X0329988Y0089833D02*
X0333987D01*
X0335986Y0091832D02*
X0336986D01*
Y0090832D01*
X0335986D01*
Y0091832D01*
Y0088833D02*
X0336986D01*
Y0087833D01*
X0335986D01*
Y0088833D01*
X0046350Y0073549D02*
Y0067551D01*
X0050349D01*
X0052348D02*
Y0071549D01*
X0054347Y0073549D01*
X0056347Y0071549D01*
Y0067551D01*
Y0070550D01*
X0052348D01*
X0058346Y0073549D02*
Y0072549D01*
X0060346Y0070550D01*
X0062345Y0072549D01*
Y0073549D01*
X0060346Y0070550D02*
Y0067551D01*
X0068343Y0073549D02*
X0064344D01*
Y0067551D01*
X0068343D01*
X0064344Y0070550D02*
X0066343D01*
X0070342Y0067551D02*
Y0073549D01*
X0073341D01*
X0074341Y0072549D01*
Y0070550D01*
X0073341Y0069550D01*
X0070342D01*
X0072342D02*
X0074341Y0067551D01*
X0082338D02*
Y0073549D01*
X0086337Y0067551D01*
Y0073549D01*
X0088336Y0067551D02*
Y0071549D01*
X0090336Y0073549D01*
X0092335Y0071549D01*
Y0067551D01*
Y0070550D01*
X0088336D01*
X0094335Y0067551D02*
Y0073549D01*
X0096334Y0071549D01*
X0098333Y0073549D01*
Y0067551D01*
X0104331Y0073549D02*
X0100332D01*
Y0067551D01*
X0104331D01*
X0100332Y0070550D02*
X0102332D01*
X0112329Y0069550D02*
X0116327D01*
X0112329Y0071549D02*
X0116327D01*
X0046350Y0046966D02*
Y0052965D01*
X0049349D01*
X0050349Y0051965D01*
Y0049966D01*
X0049349Y0048966D01*
X0046350D01*
X0052348Y0052965D02*
Y0046966D01*
X0056347D01*
X0061345Y0052965D02*
X0059346D01*
X0058346Y0051965D01*
Y0047966D01*
X0059346Y0046966D01*
X0061345D01*
X0062345Y0047966D01*
Y0051965D01*
X0061345Y0052965D01*
X0064344D02*
X0068343D01*
X0066343D01*
Y0046966D01*
X0076340D02*
Y0052965D01*
X0080339Y0046966D01*
Y0052965D01*
X0082338Y0046966D02*
Y0050965D01*
X0084338Y0052965D01*
X0086337Y0050965D01*
Y0046966D01*
Y0049966D01*
X0082338D01*
X0088336Y0046966D02*
Y0052965D01*
X0090336Y0050965D01*
X0092335Y0052965D01*
Y0046966D01*
X0098333Y0052965D02*
X0094335D01*
Y0046966D01*
X0098333D01*
X0094335Y0049966D02*
X0096334D01*
X0106331Y0048966D02*
X0110329D01*
X0106331Y0050965D02*
X0110329D01*
X0458049Y0046966D02*
X0454050D01*
X0458049Y0050965D01*
Y0051965D01*
X0457049Y0052965D01*
X0455050D01*
X0454050Y0051965D01*
X0460048Y0050965D02*
X0461048D01*
Y0049966D01*
X0460048D01*
Y0050965D01*
Y0047966D02*
X0461048D01*
Y0046966D01*
X0460048D01*
Y0047966D01*
X0469045Y0052965D02*
X0465046D01*
Y0049966D01*
X0467046Y0050965D01*
X0468046D01*
X0469045Y0049966D01*
Y0047966D01*
X0468046Y0046966D01*
X0466046D01*
X0465046Y0047966D01*
X0475043Y0052965D02*
X0471044D01*
Y0049966D01*
X0473044Y0050965D01*
X0474044D01*
X0475043Y0049966D01*
Y0047966D01*
X0474044Y0046966D01*
X0472044D01*
X0471044Y0047966D01*
X0477043Y0050965D02*
X0478042D01*
Y0049966D01*
X0477043D01*
Y0050965D01*
Y0047966D02*
X0478042D01*
Y0046966D01*
X0477043D01*
Y0047966D01*
X0482041Y0051965D02*
X0483041Y0052965D01*
X0485040D01*
X0486040Y0051965D01*
Y0050965D01*
X0485040Y0049966D01*
X0484040D01*
X0485040D01*
X0486040Y0048966D01*
Y0047966D01*
X0485040Y0046966D01*
X0483041D01*
X0482041Y0047966D01*
X0488039D02*
X0489039Y0046966D01*
X0491038D01*
X0492038Y0047966D01*
Y0051965D01*
X0491038Y0052965D01*
X0489039D01*
X0488039Y0051965D01*
Y0050965D01*
X0489039Y0049966D01*
X0492038D01*
X0500035Y0046966D02*
Y0052965D01*
X0503034D01*
X0504034Y0051965D01*
Y0049966D01*
X0503034Y0048966D01*
X0500035D01*
X0506033Y0046966D02*
Y0052965D01*
X0508033Y0050965D01*
X0510032Y0052965D01*
Y0046966D01*
X0580500Y0052965D02*
X0584499D01*
X0582499D01*
Y0046966D01*
X0590497Y0052965D02*
X0586498D01*
Y0046966D01*
X0590497D01*
X0586498Y0049966D02*
X0588497D01*
X0592496Y0052965D02*
X0596495Y0046966D01*
Y0052965D02*
X0592496Y0046966D01*
X0598494D02*
Y0050965D01*
X0600493Y0052965D01*
X0602493Y0050965D01*
Y0046966D01*
Y0049966D01*
X0598494D01*
X0608491Y0051965D02*
X0607491Y0052965D01*
X0605492D01*
X0604492Y0051965D01*
Y0050965D01*
X0605492Y0049966D01*
X0607491D01*
X0608491Y0048966D01*
Y0047966D01*
X0607491Y0046966D01*
X0605492D01*
X0604492Y0047966D01*
X0616488Y0052965D02*
X0618488D01*
X0617488D01*
Y0046966D01*
X0616488D01*
X0618488D01*
X0621487D02*
Y0052965D01*
X0625486Y0046966D01*
Y0052965D01*
X0631484Y0051965D02*
X0630484Y0052965D01*
X0628484D01*
X0627485Y0051965D01*
Y0050965D01*
X0628484Y0049966D01*
X0630484D01*
X0631484Y0048966D01*
Y0047966D01*
X0630484Y0046966D01*
X0628484D01*
X0627485Y0047966D01*
X0633483Y0052965D02*
X0637482D01*
X0635482D01*
Y0046966D01*
X0639481D02*
Y0052965D01*
X0642480D01*
X0643480Y0051965D01*
Y0049966D01*
X0642480Y0048966D01*
X0639481D01*
X0641480D02*
X0643480Y0046966D01*
X0645479Y0052965D02*
Y0047966D01*
X0646479Y0046966D01*
X0648478D01*
X0649478Y0047966D01*
Y0052965D01*
X0651477Y0046966D02*
Y0052965D01*
X0653476Y0050965D01*
X0655476Y0052965D01*
Y0046966D01*
X0661474Y0052965D02*
X0657475D01*
Y0046966D01*
X0661474D01*
X0657475Y0049966D02*
X0659474D01*
X0663473Y0046966D02*
Y0052965D01*
X0667472Y0046966D01*
Y0052965D01*
X0669471D02*
X0673470D01*
X0671471D01*
Y0046966D01*
X0679468Y0051965D02*
X0678468Y0052965D01*
X0676469D01*
X0675469Y0051965D01*
Y0050965D01*
X0676469Y0049966D01*
X0678468D01*
X0679468Y0048966D01*
Y0047966D01*
X0678468Y0046966D01*
X0676469D01*
X0675469Y0047966D01*
X0294000Y0073498D02*
X0297999D01*
X0295999D01*
Y0067500D01*
X0299998Y0073498D02*
X0301997D01*
X0300998D01*
Y0067500D01*
X0299998D01*
X0301997D01*
X0304996Y0073498D02*
Y0067500D01*
X0307996D01*
X0308995Y0068500D01*
Y0072498D01*
X0307996Y0073498D01*
X0304996D01*
X0317992Y0067500D02*
Y0073498D01*
X0319992D02*
Y0067500D01*
X0316993Y0071499D02*
X0319992D01*
X0320991D01*
X0316993Y0069499D02*
X0320991D01*
X0322991Y0071499D02*
X0323990D01*
Y0070499D01*
X0322991D01*
Y0071499D01*
Y0068500D02*
X0323990D01*
Y0067500D01*
X0322991D01*
Y0068500D01*
X0348550Y0067500D02*
Y0073498D01*
X0352549Y0067500D01*
Y0073498D01*
X0354548Y0067500D02*
X0358547Y0071499D01*
X0360546Y0067500D02*
Y0071499D01*
X0362545Y0073498D01*
X0364545Y0071499D01*
Y0067500D01*
Y0070499D01*
X0360546D01*
G54D64*
X0069200Y0138400D02*
X0169200D01*
X0069200Y0113400D02*
X0169200D01*
X0069200Y0125900D02*
X0169200D01*
X0069200Y0113400D02*
Y0138400D01*
X0081700Y0113400D02*
Y0138400D01*
X0094200Y0113400D02*
Y0138400D01*
X0119200Y0113400D02*
Y0138400D01*
X0144200Y0113400D02*
Y0138400D01*
X0169200Y0113400D02*
Y0138400D01*
G54D123*
X0075450Y0132150D02*
D03*
G54D124*
X0100450Y0119650D02*
D03*
M02*
