M48
;Layer_Color=9474304
;FILE_FORMAT=2:5
INCH
;TYPE=PLATED
T1F00S00C0.00800
T2F00S00C0.02500
T3F00S00C0.03504
;TYPE=NON_PLATED
T4F00S00C0.03543
%
T01
X0464390Y0450660
X0473390
X0481890Y0454660
X0482017Y0461517
X0480889Y0466724
X0495390Y0463360
Y0459460
X0505121Y0459005
X0514590Y0458260
X0514390Y0462160
X0515590Y0468360
X0525890Y0467060
X0528390Y0456160
X0544390Y0455660
Y0463660
X0570090Y0453860
X0570390Y0450160
X0566890
X0566390Y0442660
X0570390
Y0434660
X0566390Y0434560
X0562390Y0425160
X0552390
X0542390
X0531190Y0425360
X0526390Y0426660
X0515890
X0511390
X0499890
X0496390
X0483390
X0473390
Y0410160
X0476390Y0407660
Y0404160
Y0400960
Y0397160
X0472890Y0395160
X0481090Y0403760
X0485090
X0488390Y0403660
X0486690Y0400860
X0493390Y0398660
X0492290Y0394860
X0497990Y0395360
X0502390Y0395660
X0506290Y0395560
X0506190Y0402060
X0507190Y0407460
X0503890Y0410160
X0495890
X0491690Y0407760
X0497890Y0404660
Y0400160
X0511890Y0403360
X0516090Y0403460
X0522290Y0406260
X0522190Y0409660
X0525890Y0410160
X0531890Y0403660
Y0398160
X0531490Y0390660
X0531290Y0385460
X0534190Y0379060
X0526290Y0378760
X0515090Y0378560
X0511390Y0378660
X0514590Y0373660
X0514290Y0366760
X0509190Y0362960
X0508890Y0359860
X0510890Y0351160
X0514590Y0350960
X0517890
Y0354660
X0521890
Y0351360
X0525090Y0351160
X0525890Y0346660
X0521890
X0517890
X0513890
X0504890Y0346760
X0501290Y0347160
X0501390Y0351160
X0505390Y0351660
X0496090Y0351260
X0496390Y0347160
X0498990Y0375960
X0495890Y0378660
X0503390Y0378360
X0485890Y0378560
X0485990Y0374860
X0514990Y0386860
X0522290Y0386960
X0522990Y0397260
X0540990Y0398060
Y0393960
X0545890Y0394160
X0551290Y0393960
X0551190Y0398060
X0555790Y0394260
X0560690Y0398460
X0565690Y0394260
X0571790Y0394060
X0571290Y0398160
X0570890Y0414660
X0565790Y0414560
X0560890Y0414660
X0555890Y0414560
X0550890Y0414660
X0545890Y0414560
X0540890Y0414660
X0557890Y0384160
X0557690Y0378560
X0565890Y0384160
X0576390Y0379660
X0578090Y0375160
X0583690Y0366860
X0584890Y0361160
X0581390
X0575890Y0357560
X0568890Y0356160
Y0353160
X0571790Y0350860
X0569590Y0347160
X0565890Y0346660
X0561390
X0564990Y0351460
X0564890Y0361960
X0557790Y0362960
X0553590Y0368660
X0550890Y0370660
X0545390Y0354660
X0545090Y0351260
X0545390Y0346660
X0548990
X0539890
X0535890
X0530890
Y0351160
X0531090Y0355260
X0527590
X0535290Y0354660
X0539890
X0533390Y0361460
X0594390Y0364660
X0598890
X0599790Y0354660
X0599390Y0351360
Y0346660
X0604390
X0608390
X0612390
X0616390
X0616290Y0351060
X0616390Y0354660
X0612390
Y0351260
X0608290
X0608390Y0354660
X0604390
Y0350960
X0620390Y0351260
X0624290Y0351060
X0624390Y0354660
X0607890Y0367160
X0596090Y0375260
X0594790Y0378560
X0598690
X0598490Y0386060
X0594690Y0385660
X0586590Y0389560
X0603890Y0395160
X0613490Y0394360
X0622890Y0395660
X0624890Y0413660
X0619390
X0615390
X0609890Y0411160
X0607890Y0414160
X0602390
X0599890Y0406660
X0590390Y0423160
X0589790Y0426960
X0585890Y0427160
X0586190Y0431060
X0589790Y0431560
X0589890Y0437160
X0586690Y0436660
X0586490Y0442760
X0589990Y0440960
X0586890Y0449660
X0589590Y0452560
X0589490Y0456260
X0585990Y0455760
X0585890Y0458760
X0589690Y0460460
Y0464160
X0602790Y0460760
X0603690Y0457660
X0602890Y0454660
Y0451160
X0611890
X0619790Y0450660
X0620390Y0461660
X0614990Y0458260
X0616290Y0467060
X0610990Y0466860
X0606490Y0466660
X0602890Y0440960
X0602790Y0436660
X0606190
X0607290Y0430660
X0607390Y0427160
X0613890
Y0430160
Y0434160
X0624190Y0427160
X0522090Y0445960
X0517890Y0446160
X0509858Y0446087
X0497189Y0447010
X0629590Y0458960
X0628990Y0464260
X0629390Y0468460
X0638390Y0458660
X0646590Y0463360
X0647890Y0466760
X0659890Y0465660
X0664790Y0465360
X0664390Y0459660
X0664990Y0455460
X0664890Y0449060
X0660390Y0449160
Y0445160
X0660590Y0441960
X0660490Y0438460
Y0433260
X0660390Y0425160
X0667090Y0426360
X0667690Y0429660
X0664590Y0429060
X0672290Y0429460
X0678390Y0433560
X0678290Y0436760
Y0439860
X0674890Y0449660
X0682790Y0455560
X0682890Y0458760
X0683290Y0464060
X0689390Y0465660
X0703390Y0466660
X0705090Y0459160
X0715890Y0452660
Y0442160
X0704890Y0436060
X0700590Y0439860
X0696890Y0439660
X0697090Y0442860
X0693290Y0439860
X0693190Y0431660
X0698690
X0696290Y0449860
X0660390Y0453160
X0647190Y0454260
X0647390Y0450660
Y0447160
X0647890Y0442760
X0643190Y0433660
X0645490Y0427260
X0643890Y0413860
X0639890Y0414160
X0635890
X0630890Y0413660
X0640390Y0407660
Y0404660
Y0401160
X0630390Y0395660
X0629390Y0385420
X0628990Y0378160
X0625390
X0625290Y0371460
X0629590Y0354460
X0634390Y0355560
X0633790Y0351360
X0634590Y0346860
X0643390Y0346660
X0642390Y0351460
X0639290Y0351260
X0657190Y0351360
X0657390Y0346660
X0661390
X0665390
X0671390
X0676390
X0679890
X0676390Y0351460
X0668390Y0351560
X0653390Y0346660
X0656490Y0371060
X0656890Y0378660
X0652990Y0379960
X0652890Y0385660
X0661690Y0394760
X0678390Y0395660
Y0399660
X0676390Y0406660
X0672290Y0406460
Y0413360
X0676390Y0413160
Y0420160
X0658190Y0417860
X0656190Y0412360
X0667290Y0437560
X0633890Y0433760
X0630890Y0430460
X0627090Y0430260
X0627590Y0427160
X0680390Y0385260
X0684590Y0385060
X0684490Y0378360
X0680290Y0378460
X0688390Y0346660
X0682790Y0470560
X0681390Y0483160
X0681890Y0488660
X0674390Y0494160
X0664390Y0488660
X0658390Y0490160
X0651390Y0485160
X0646390Y0485660
X0643390
X0636890
X0630090Y0484860
X0625890Y0485160
X0630690Y0471960
X0638990Y0471760
X0644790Y0472160
X0651990Y0475360
X0651790Y0478560
X0659890Y0475660
X0664940Y0470410
X0669590Y0477060
X0699090Y0474560
X0705890Y0475160
X0704590Y0483460
X0701090Y0483560
X0707890Y0485860
X0713290Y0490660
X0713390Y0498160
X0707990Y0503260
X0703890Y0503660
X0699890
X0704090Y0513160
X0712590
X0715090Y0533160
X0708890Y0542660
X0698990
X0692790Y0533060
X0689390Y0514660
Y0509660
X0677190Y0508360
X0671690
X0671890Y0522160
X0671690Y0526260
X0677390Y0526160
Y0522160
X0676990Y0539860
X0671690
X0658890Y0540660
X0658990Y0533060
X0658390Y0527660
X0648390Y0525660
Y0521660
Y0530660
Y0534660
X0648572Y0538160
X0635890Y0539660
X0635390Y0524160
X0635490Y0520060
X0638190Y0511960
X0644590
X0652890Y0511660
X0655890
X0652890Y0514660
X0641390Y0502160
X0625390Y0517660
X0697190Y0489960
X0712890Y0471660
X0620990Y0472060
X0612190Y0470360
X0608990Y0470260
X0608090Y0484860
X0612890Y0485160
X0617590
X0621890
X0611390Y0489360
X0601590Y0485360
X0598390Y0481660
X0594990Y0479860
X0598890Y0476760
X0589490Y0470260
X0582390Y0471160
X0579390Y0470960
X0581690Y0474360
X0580990Y0478260
X0580890Y0490760
X0580690Y0501860
X0581190Y0510660
Y0517160
X0581090Y0526360
X0580890Y0530460
X0582690Y0533560
X0580890Y0538660
Y0542660
X0609690Y0539760
X0614790Y0539860
X0614990Y0532660
X0609790Y0532560
Y0518860
X0614790
X0615890Y0501560
X0622490Y0507060
X0604490Y0496660
X0550271Y0494937
X0549586Y0489747
X0542863Y0490093
X0543006Y0498373
X0539239Y0497973
X0532939Y0497950
X0534440Y0494937
X0530891Y0491990
X0526012Y0483105
Y0473247
X0515589Y0473724
X0515389Y0483524
X0512090Y0483460
X0506990Y0483760
X0503890Y0483660
X0503889Y0478724
X0504989Y0473624
X0502390Y0489160
X0512996Y0490988
X0516978Y0491215
X0518370Y0501614
X0515689Y0501724
X0523490Y0502160
X0528390Y0507160
Y0511660
Y0514660
X0520734Y0516232
X0517497Y0515564
X0510889Y0515324
X0500029Y0520383
X0500062Y0527396
X0505756Y0531319
X0524189Y0534824
X0527862Y0537555
X0535890Y0532660
X0540566Y0531747
X0545489Y0536724
X0545090Y0541960
X0545290Y0545660
X0549651Y0526663
X0549189Y0516724
X0550027Y0501945
X0545890Y0497060
X0545103Y0483456
X0547315Y0479369
X0547390Y0474660
X0571690Y0470260
X0538089Y0507224
X0558890Y0531160
X0518890Y0542160
X0481789Y0522524
X0475362Y0517912
X0470791Y0518158
X0477890Y0511660
X0487890Y0514660
X0492135Y0495539
X0481490Y0495760
X0476190Y0496760
X0472890
X0481718Y0489495
X0481890Y0481160
X0481889Y0473824
X0470390Y0479660
X0466890
X0465890Y0471160
X0467007Y0496939
X0463890Y0510160
T02
X0468200Y0447900
X0478200
X0488700
Y0429400
X0478200
X0673700Y0436400
X0709890Y0462660
X0692700Y0497900
X0605390Y0489660
T03
X0704752Y0403013
X0712626
Y0410887
Y0418761
Y0426635
X0704752
Y0418761
Y0410887
T04
X0482140Y0515585
Y0532908
M30
