G04 Layer_Color=8421504*
%FSAX25Y25*%
%MOIN*%
G70*
G01*
G75*
%ADD10R,0.04724X0.07874*%
%ADD11R,0.09843X0.01969*%
%ADD12R,0.09843X0.07874*%
%ADD13R,0.04724X0.04331*%
%ADD14R,0.06299X0.03937*%
%ADD15R,0.06299X0.03937*%
%ADD16R,0.02992X0.05000*%
%ADD17R,0.05000X0.02992*%
G04:AMPARAMS|DCode=18|XSize=23.62mil|YSize=57.09mil|CornerRadius=2.01mil|HoleSize=0mil|Usage=FLASHONLY|Rotation=90.000|XOffset=0mil|YOffset=0mil|HoleType=Round|Shape=RoundedRectangle|*
%AMROUNDEDRECTD18*
21,1,0.02362,0.05307,0,0,90.0*
21,1,0.01961,0.05709,0,0,90.0*
1,1,0.00402,0.02654,0.00980*
1,1,0.00402,0.02654,-0.00980*
1,1,0.00402,-0.02654,-0.00980*
1,1,0.00402,-0.02654,0.00980*
%
%ADD18ROUNDEDRECTD18*%
%ADD19O,0.01181X0.05709*%
%ADD20O,0.05709X0.01181*%
%ADD21O,0.05512X0.01772*%
%ADD22R,0.10000X0.10500*%
%ADD23R,0.05000X0.03000*%
%ADD24C,0.03937*%
G04:AMPARAMS|DCode=25|XSize=23.62mil|YSize=39.37mil|CornerRadius=2.01mil|HoleSize=0mil|Usage=FLASHONLY|Rotation=0.000|XOffset=0mil|YOffset=0mil|HoleType=Round|Shape=RoundedRectangle|*
%AMROUNDEDRECTD25*
21,1,0.02362,0.03535,0,0,0.0*
21,1,0.01961,0.03937,0,0,0.0*
1,1,0.00402,0.00980,-0.01768*
1,1,0.00402,-0.00980,-0.01768*
1,1,0.00402,-0.00980,0.01768*
1,1,0.00402,0.00980,0.01768*
%
%ADD25ROUNDEDRECTD25*%
%ADD26O,0.05709X0.02362*%
%ADD28R,0.03150X0.08661*%
%ADD29R,0.03150X0.02362*%
%ADD30R,0.03740X0.03937*%
%ADD31R,0.02362X0.03150*%
%ADD32R,0.03937X0.03740*%
%ADD33R,0.04331X0.04724*%
%ADD34R,0.05000X0.06300*%
%ADD35R,0.06300X0.05000*%
%ADD39C,0.01000*%
%ADD40C,0.00800*%
G54D10*
X0678203Y0455943D02*
D03*
X0669542D02*
D03*
X0678203Y0470510D02*
D03*
X0669542D02*
D03*
G54D11*
X0492376Y0530546D02*
D03*
Y0527396D02*
D03*
Y0524247D02*
D03*
Y0521097D02*
D03*
Y0517947D02*
D03*
G54D12*
Y0541569D02*
D03*
Y0506924D02*
D03*
X0470723Y0541569D02*
D03*
Y0506924D02*
D03*
G54D13*
X0708981Y0529113D02*
D03*
Y0537380D02*
D03*
X0709700Y0452034D02*
D03*
Y0443766D02*
D03*
X0476089Y0457390D02*
D03*
Y0465658D02*
D03*
X0699012Y0529113D02*
D03*
Y0537380D02*
D03*
X0466410Y0457373D02*
D03*
Y0465640D02*
D03*
G54D14*
X0681484Y0406510D02*
D03*
Y0413400D02*
D03*
Y0420290D02*
D03*
X0666917D02*
D03*
Y0413400D02*
D03*
Y0406510D02*
D03*
X0675106Y0385290D02*
D03*
Y0378400D02*
D03*
Y0371510D02*
D03*
X0689674D02*
D03*
Y0378400D02*
D03*
Y0385290D02*
D03*
G54D15*
X0619916D02*
D03*
Y0378400D02*
D03*
Y0371510D02*
D03*
X0634483D02*
D03*
Y0378400D02*
D03*
Y0385290D02*
D03*
X0589417D02*
D03*
Y0378400D02*
D03*
Y0371510D02*
D03*
X0603983D02*
D03*
Y0378400D02*
D03*
Y0385290D02*
D03*
X0662174Y0371510D02*
D03*
Y0378400D02*
D03*
Y0385290D02*
D03*
X0647607D02*
D03*
Y0378400D02*
D03*
Y0371510D02*
D03*
G54D16*
X0541200Y0389400D02*
D03*
X0546200D02*
D03*
X0551200D02*
D03*
X0556200D02*
D03*
X0561200D02*
D03*
X0566200D02*
D03*
X0571200D02*
D03*
X0576200D02*
D03*
Y0419400D02*
D03*
X0571200D02*
D03*
X0566200D02*
D03*
X0561200D02*
D03*
X0556200D02*
D03*
X0551200D02*
D03*
X0546200D02*
D03*
X0541200D02*
D03*
X0609700Y0544400D02*
D03*
X0614700D02*
D03*
Y0514400D02*
D03*
X0609700D02*
D03*
X0676700Y0544400D02*
D03*
X0671700D02*
D03*
Y0514400D02*
D03*
X0676700D02*
D03*
G54D17*
X0539200Y0375900D02*
D03*
Y0370900D02*
D03*
X0569200D02*
D03*
Y0375900D02*
D03*
G54D18*
X0499181Y0483644D02*
D03*
Y0478644D02*
D03*
Y0473644D02*
D03*
Y0468644D02*
D03*
X0520638Y0483644D02*
D03*
Y0478644D02*
D03*
Y0473644D02*
D03*
Y0468644D02*
D03*
G54D19*
X0601578Y0480030D02*
D03*
X0603546D02*
D03*
X0605515D02*
D03*
X0607483D02*
D03*
X0609452D02*
D03*
X0611420D02*
D03*
X0613389D02*
D03*
X0615357D02*
D03*
X0617326D02*
D03*
X0619295D02*
D03*
X0621263D02*
D03*
X0623232D02*
D03*
X0625200D02*
D03*
X0627169D02*
D03*
X0629137D02*
D03*
X0631106D02*
D03*
X0633074D02*
D03*
X0635042D02*
D03*
X0637011D02*
D03*
X0638979D02*
D03*
X0640948D02*
D03*
X0642916D02*
D03*
X0644885D02*
D03*
X0646853D02*
D03*
X0648822D02*
D03*
Y0419203D02*
D03*
X0646853D02*
D03*
X0644885D02*
D03*
X0642916D02*
D03*
X0640948D02*
D03*
X0638979D02*
D03*
X0637011D02*
D03*
X0635042D02*
D03*
X0633074D02*
D03*
X0631106D02*
D03*
X0629137D02*
D03*
X0627169D02*
D03*
X0625200D02*
D03*
X0623232D02*
D03*
X0621263D02*
D03*
X0619295D02*
D03*
X0617326D02*
D03*
X0615357D02*
D03*
X0613389D02*
D03*
X0611420D02*
D03*
X0609452D02*
D03*
X0607483D02*
D03*
X0605515D02*
D03*
X0603546D02*
D03*
X0601578D02*
D03*
G54D20*
X0655613Y0473238D02*
D03*
Y0471270D02*
D03*
Y0469301D02*
D03*
Y0467333D02*
D03*
Y0465364D02*
D03*
Y0463396D02*
D03*
Y0461427D02*
D03*
Y0459459D02*
D03*
Y0457490D02*
D03*
Y0455522D02*
D03*
Y0453553D02*
D03*
Y0451585D02*
D03*
Y0449616D02*
D03*
Y0447648D02*
D03*
Y0445679D02*
D03*
Y0443711D02*
D03*
Y0441742D02*
D03*
Y0439774D02*
D03*
Y0437805D02*
D03*
Y0435837D02*
D03*
Y0433868D02*
D03*
Y0431900D02*
D03*
Y0429931D02*
D03*
Y0427963D02*
D03*
Y0425994D02*
D03*
X0594787D02*
D03*
Y0427963D02*
D03*
Y0429931D02*
D03*
Y0431900D02*
D03*
Y0433868D02*
D03*
Y0435837D02*
D03*
Y0437805D02*
D03*
Y0439774D02*
D03*
Y0441742D02*
D03*
Y0443711D02*
D03*
Y0445679D02*
D03*
Y0447648D02*
D03*
Y0449616D02*
D03*
Y0451585D02*
D03*
Y0453553D02*
D03*
Y0455522D02*
D03*
Y0457490D02*
D03*
Y0459459D02*
D03*
Y0461427D02*
D03*
Y0463396D02*
D03*
Y0465364D02*
D03*
Y0467333D02*
D03*
Y0469301D02*
D03*
Y0471270D02*
D03*
Y0473238D02*
D03*
G54D21*
X0630395Y0540560D02*
D03*
Y0538001D02*
D03*
Y0535442D02*
D03*
Y0532883D02*
D03*
Y0530324D02*
D03*
Y0527765D02*
D03*
Y0525206D02*
D03*
Y0522647D02*
D03*
Y0520087D02*
D03*
Y0517528D02*
D03*
X0653624Y0540560D02*
D03*
Y0538001D02*
D03*
Y0535442D02*
D03*
Y0532883D02*
D03*
Y0530324D02*
D03*
Y0527765D02*
D03*
Y0525206D02*
D03*
Y0522647D02*
D03*
Y0520087D02*
D03*
Y0517528D02*
D03*
G54D22*
X0510410Y0523544D02*
D03*
G54D23*
Y0532744D02*
D03*
G54D24*
X0593200Y0543400D02*
D03*
X0486190Y0365360D02*
D03*
X0551890Y0439160D02*
D03*
G54D25*
X0708440Y0479487D02*
D03*
X0704700D02*
D03*
X0700960D02*
D03*
Y0490313D02*
D03*
X0704700D02*
D03*
X0708440D02*
D03*
X0510960Y0396987D02*
D03*
X0514700D02*
D03*
X0518440D02*
D03*
Y0407813D02*
D03*
X0514700D02*
D03*
X0510960D02*
D03*
X0693150Y0435747D02*
D03*
X0696890D02*
D03*
X0700630D02*
D03*
Y0446573D02*
D03*
X0693150D02*
D03*
X0524169Y0518731D02*
D03*
X0527910D02*
D03*
X0531650D02*
D03*
Y0529558D02*
D03*
X0524169D02*
D03*
X0700240Y0507833D02*
D03*
X0703981D02*
D03*
X0707721D02*
D03*
Y0518660D02*
D03*
X0703981D02*
D03*
X0700240D02*
D03*
X0480960Y0396987D02*
D03*
X0484700D02*
D03*
X0488440D02*
D03*
Y0407813D02*
D03*
X0484700D02*
D03*
X0480960D02*
D03*
G54D26*
X0554284Y0489747D02*
D03*
Y0484747D02*
D03*
Y0479747D02*
D03*
Y0474747D02*
D03*
X0575740Y0489747D02*
D03*
Y0484747D02*
D03*
Y0479747D02*
D03*
Y0474747D02*
D03*
Y0526747D02*
D03*
Y0531747D02*
D03*
Y0536747D02*
D03*
Y0541747D02*
D03*
X0554284Y0526747D02*
D03*
Y0531747D02*
D03*
Y0536747D02*
D03*
Y0541747D02*
D03*
X0575740Y0501747D02*
D03*
Y0506747D02*
D03*
Y0511747D02*
D03*
Y0516747D02*
D03*
X0554284Y0501747D02*
D03*
Y0506747D02*
D03*
Y0511747D02*
D03*
Y0516747D02*
D03*
G54D28*
X0630327Y0499660D02*
D03*
X0622453D02*
D03*
G54D29*
X0651562Y0502400D02*
D03*
X0646838D02*
D03*
X0515772Y0504644D02*
D03*
X0511047D02*
D03*
X0520772Y0497644D02*
D03*
X0516047D02*
D03*
X0523752Y0462160D02*
D03*
X0519028D02*
D03*
X0509788Y0452294D02*
D03*
X0505063D02*
D03*
X0703528Y0471160D02*
D03*
X0708252D02*
D03*
X0547851Y0506724D02*
D03*
X0543127D02*
D03*
X0518047Y0452144D02*
D03*
X0522772D02*
D03*
X0669838Y0445400D02*
D03*
X0674562D02*
D03*
X0708562Y0497900D02*
D03*
X0703838D02*
D03*
X0651562Y0496900D02*
D03*
X0646838D02*
D03*
G54D30*
X0473200Y0383750D02*
D03*
Y0390050D02*
D03*
X0496200Y0383750D02*
D03*
Y0390050D02*
D03*
X0495890Y0421660D02*
D03*
Y0415361D02*
D03*
X0473700Y0421550D02*
D03*
Y0415250D02*
D03*
X0503700Y0383750D02*
D03*
Y0390050D02*
D03*
X0526200Y0383750D02*
D03*
Y0390050D02*
D03*
Y0421550D02*
D03*
Y0415250D02*
D03*
X0503700Y0421550D02*
D03*
Y0415250D02*
D03*
X0480700Y0390050D02*
D03*
Y0383750D02*
D03*
X0488700Y0390050D02*
D03*
Y0383750D02*
D03*
Y0415250D02*
D03*
Y0421550D02*
D03*
X0481200Y0415250D02*
D03*
Y0421550D02*
D03*
X0511200Y0390050D02*
D03*
Y0383750D02*
D03*
X0518700Y0390050D02*
D03*
Y0383750D02*
D03*
X0518700Y0415250D02*
D03*
Y0421550D02*
D03*
X0511200Y0415250D02*
D03*
Y0421550D02*
D03*
X0630700Y0407050D02*
D03*
Y0400750D02*
D03*
X0486390Y0489510D02*
D03*
Y0495810D02*
D03*
X0693890Y0455010D02*
D03*
Y0461310D02*
D03*
X0623200Y0407050D02*
D03*
Y0400750D02*
D03*
X0604890Y0406810D02*
D03*
Y0400510D02*
D03*
X0613890Y0405810D02*
D03*
Y0399510D02*
D03*
X0669200Y0488550D02*
D03*
Y0482250D02*
D03*
X0676700Y0488550D02*
D03*
Y0482250D02*
D03*
X0616200Y0496550D02*
D03*
Y0490250D02*
D03*
X0639890Y0490510D02*
D03*
Y0496810D02*
D03*
G54D31*
X0502390Y0405022D02*
D03*
Y0400298D02*
D03*
X0527390Y0403522D02*
D03*
Y0398798D02*
D03*
X0494890Y0372522D02*
D03*
Y0367798D02*
D03*
X0540910Y0543506D02*
D03*
Y0538782D02*
D03*
X0485890Y0455298D02*
D03*
Y0460022D02*
D03*
X0693700Y0514762D02*
D03*
Y0510038D02*
D03*
X0530260Y0478672D02*
D03*
Y0483396D02*
D03*
X0485410Y0467782D02*
D03*
Y0472506D02*
D03*
X0530910Y0466506D02*
D03*
Y0461782D02*
D03*
X0466910Y0485282D02*
D03*
Y0490006D02*
D03*
X0700890Y0458522D02*
D03*
Y0453798D02*
D03*
X0499390Y0459298D02*
D03*
Y0464022D02*
D03*
X0491889Y0468662D02*
D03*
Y0473386D02*
D03*
X0477890Y0485298D02*
D03*
Y0490022D02*
D03*
G54D32*
X0581650Y0442400D02*
D03*
X0575350D02*
D03*
X0581750Y0449900D02*
D03*
X0575450D02*
D03*
X0517059Y0511144D02*
D03*
X0510760D02*
D03*
X0581650Y0434900D02*
D03*
X0575350D02*
D03*
X0653350Y0490400D02*
D03*
X0647050D02*
D03*
X0629540Y0490160D02*
D03*
X0623240D02*
D03*
G54D33*
X0532082Y0542516D02*
D03*
X0523814D02*
D03*
G54D34*
X0654890Y0405660D02*
D03*
X0646890D02*
D03*
G54D35*
X0579890Y0465560D02*
D03*
Y0457560D02*
D03*
X0684390Y0446160D02*
D03*
Y0438160D02*
D03*
G54D39*
X0497200Y0080717D02*
Y0101050D01*
X0413200Y0080717D02*
Y0101050D01*
X0040000Y0080717D02*
X0700200D01*
X0040000Y0060383D02*
X0700000D01*
X0040000Y0040050D02*
X0440500D01*
X0040050Y0101050D02*
X0700200D01*
X0040050Y0040050D02*
Y0101050D01*
Y0040050D02*
X0197600D01*
X0040000D02*
Y0101050D01*
X0286500Y0040050D02*
Y0101050D01*
X0700200Y0040050D02*
Y0101050D01*
X0440500Y0040050D02*
X0700200D01*
X0559400Y0039400D02*
Y0059683D01*
G54D40*
X0126900Y0073549D02*
X0130899D01*
X0128899D01*
Y0067551D01*
X0133898D02*
X0135897D01*
X0136897Y0068550D01*
Y0070550D01*
X0135897Y0071549D01*
X0133898D01*
X0132898Y0070550D01*
Y0068550D01*
X0133898Y0067551D01*
X0138896Y0065551D02*
Y0071549D01*
X0141895D01*
X0142895Y0070550D01*
Y0068550D01*
X0141895Y0067551D01*
X0138896D01*
X0150892D02*
Y0073549D01*
X0153891D01*
X0154891Y0072549D01*
Y0070550D01*
X0153891Y0069550D01*
X0150892D01*
X0157890Y0071549D02*
X0159889D01*
X0160889Y0070550D01*
Y0067551D01*
X0157890D01*
X0156890Y0068550D01*
X0157890Y0069550D01*
X0160889D01*
X0162888Y0067551D02*
X0165887D01*
X0166887Y0068550D01*
X0165887Y0069550D01*
X0163888D01*
X0162888Y0070550D01*
X0163888Y0071549D01*
X0166887D01*
X0169886Y0072549D02*
Y0071549D01*
X0168886D01*
X0170886D01*
X0169886D01*
Y0068550D01*
X0170886Y0067551D01*
X0176884D02*
X0174884D01*
X0173885Y0068550D01*
Y0070550D01*
X0174884Y0071549D01*
X0176884D01*
X0177884Y0070550D01*
Y0069550D01*
X0173885D01*
X0567400Y0087833D02*
Y0093831D01*
X0571399Y0087833D01*
Y0093831D01*
X0574398Y0087833D02*
X0576397D01*
X0577397Y0088833D01*
Y0090832D01*
X0576397Y0091832D01*
X0574398D01*
X0573398Y0090832D01*
Y0088833D01*
X0574398Y0087833D01*
X0580396Y0092832D02*
Y0091832D01*
X0579396D01*
X0581395D01*
X0580396D01*
Y0088833D01*
X0581395Y0087833D01*
X0590393Y0093831D02*
X0592392D01*
X0591392D01*
Y0087833D01*
X0590393D01*
X0592392D01*
X0595391D02*
Y0091832D01*
X0598390D01*
X0599390Y0090832D01*
Y0087833D01*
X0607387Y0093831D02*
Y0089833D01*
X0609386Y0087833D01*
X0611386Y0089833D01*
Y0093831D01*
X0616384Y0087833D02*
X0614385D01*
X0613385Y0088833D01*
Y0090832D01*
X0614385Y0091832D01*
X0616384D01*
X0617384Y0090832D01*
Y0089833D01*
X0613385D01*
X0619383Y0091832D02*
Y0087833D01*
Y0089833D01*
X0620383Y0090832D01*
X0621383Y0091832D01*
X0622382D01*
X0625381Y0087833D02*
X0628380D01*
X0629380Y0088833D01*
X0628380Y0089833D01*
X0626381D01*
X0625381Y0090832D01*
X0626381Y0091832D01*
X0629380D01*
X0631379Y0087833D02*
X0633379D01*
X0632379D01*
Y0091832D01*
X0631379D01*
X0637377Y0087833D02*
X0639377D01*
X0640376Y0088833D01*
Y0090832D01*
X0639377Y0091832D01*
X0637377D01*
X0636378Y0090832D01*
Y0088833D01*
X0637377Y0087833D01*
X0642376D02*
Y0091832D01*
X0645375D01*
X0646374Y0090832D01*
Y0087833D01*
X0652373Y0092832D02*
X0651373Y0093831D01*
X0649373D01*
X0648374Y0092832D01*
Y0088833D01*
X0649373Y0087833D01*
X0651373D01*
X0652373Y0088833D01*
X0655372Y0087833D02*
X0657371D01*
X0658371Y0088833D01*
Y0090832D01*
X0657371Y0091832D01*
X0655372D01*
X0654372Y0090832D01*
Y0088833D01*
X0655372Y0087833D01*
X0660370D02*
Y0091832D01*
X0663369D01*
X0664369Y0090832D01*
Y0087833D01*
X0667368Y0092832D02*
Y0091832D01*
X0666368D01*
X0668367D01*
X0667368D01*
Y0088833D01*
X0668367Y0087833D01*
X0671366Y0091832D02*
Y0087833D01*
Y0089833D01*
X0672366Y0090832D01*
X0673366Y0091832D01*
X0674365D01*
X0678364Y0087833D02*
X0680364D01*
X0681363Y0088833D01*
Y0090832D01*
X0680364Y0091832D01*
X0678364D01*
X0677364Y0090832D01*
Y0088833D01*
X0678364Y0087833D01*
X0683362D02*
X0685362D01*
X0684362D01*
Y0093831D01*
X0683362D01*
X0520799Y0092832D02*
X0519799Y0093831D01*
X0517800D01*
X0516800Y0092832D01*
Y0091832D01*
X0517800Y0090832D01*
X0519799D01*
X0520799Y0089833D01*
Y0088833D01*
X0519799Y0087833D01*
X0517800D01*
X0516800Y0088833D01*
X0522798Y0093831D02*
Y0089833D01*
X0524797Y0087833D01*
X0526797Y0089833D01*
Y0093831D01*
X0528796Y0087833D02*
Y0093831D01*
X0532795Y0087833D01*
Y0093831D01*
X0540792Y0087833D02*
Y0093831D01*
X0543791D01*
X0544791Y0092832D01*
Y0090832D01*
X0543791Y0089833D01*
X0540792D01*
X0542792D02*
X0544791Y0087833D01*
X0550789Y0093831D02*
X0546790D01*
Y0087833D01*
X0550789D01*
X0546790Y0090832D02*
X0548790D01*
X0552788Y0093831D02*
Y0089833D01*
X0554788Y0087833D01*
X0556787Y0089833D01*
Y0093831D01*
X0558786Y0091832D02*
X0559786D01*
Y0090832D01*
X0558786D01*
Y0091832D01*
Y0088833D02*
X0559786D01*
Y0087833D01*
X0558786D01*
Y0088833D01*
X0433000Y0087833D02*
Y0093831D01*
X0435999D01*
X0436999Y0092832D01*
Y0090832D01*
X0435999Y0089833D01*
X0433000D01*
X0434999D02*
X0436999Y0087833D01*
X0442997Y0093831D02*
X0438998D01*
Y0087833D01*
X0442997D01*
X0438998Y0090832D02*
X0440997D01*
X0444996Y0093831D02*
Y0089833D01*
X0446995Y0087833D01*
X0448995Y0089833D01*
Y0093831D01*
X0450994Y0091832D02*
X0451994D01*
Y0090832D01*
X0450994D01*
Y0091832D01*
Y0088833D02*
X0451994D01*
Y0087833D01*
X0450994D01*
Y0088833D01*
X0126900Y0046966D02*
Y0052965D01*
X0128899Y0050965D01*
X0130899Y0052965D01*
Y0046966D01*
X0136897Y0051965D02*
X0135897Y0052965D01*
X0133898D01*
X0132898Y0051965D01*
Y0047966D01*
X0133898Y0046966D01*
X0135897D01*
X0136897Y0047966D01*
X0138896Y0052965D02*
Y0047966D01*
X0139896Y0046966D01*
X0141895D01*
X0142895Y0047966D01*
Y0052965D01*
X0144894Y0051965D02*
X0145894Y0052965D01*
X0147893D01*
X0148893Y0051965D01*
Y0047966D01*
X0147893Y0046966D01*
X0145894D01*
X0144894Y0047966D01*
Y0051965D01*
X0150892D02*
X0151892Y0052965D01*
X0153891D01*
X0154891Y0051965D01*
Y0047966D01*
X0153891Y0046966D01*
X0151892D01*
X0150892Y0047966D01*
Y0051965D01*
X0156890Y0047966D02*
X0157890Y0046966D01*
X0159889D01*
X0160889Y0047966D01*
Y0051965D01*
X0159889Y0052965D01*
X0157890D01*
X0156890Y0051965D01*
Y0050965D01*
X0157890Y0049966D01*
X0160889D01*
X0162888Y0046966D02*
Y0050965D01*
X0164888Y0052965D01*
X0166887Y0050965D01*
Y0046966D01*
Y0049966D01*
X0162888D01*
X0168886Y0046966D02*
Y0047966D01*
X0169886D01*
Y0046966D01*
X0168886D01*
X0177884Y0051965D02*
X0176884Y0052965D01*
X0174884D01*
X0173885Y0051965D01*
Y0047966D01*
X0174884Y0046966D01*
X0176884D01*
X0177884Y0047966D01*
Y0049966D01*
X0175884D01*
X0179883Y0052965D02*
X0183882D01*
X0181882D01*
Y0046966D01*
X0185881D02*
Y0052965D01*
X0188880D01*
X0189880Y0051965D01*
Y0049966D01*
X0188880Y0048966D01*
X0185881D01*
X0381150Y0046966D02*
X0383149D01*
X0382150D01*
Y0052965D01*
X0381150Y0051965D01*
X0386148Y0046966D02*
X0390147Y0050965D01*
X0392146Y0046966D02*
X0394146D01*
X0393146D01*
Y0052965D01*
X0392146Y0051965D01*
X0401144Y0052965D02*
X0399144Y0051965D01*
X0397145Y0049966D01*
Y0047966D01*
X0398145Y0046966D01*
X0400144D01*
X0401144Y0047966D01*
Y0048966D01*
X0400144Y0049966D01*
X0397145D01*
X0403143Y0046966D02*
X0407142Y0050965D01*
X0413140Y0046966D02*
X0409141D01*
X0413140Y0050965D01*
Y0051965D01*
X0412140Y0052965D01*
X0410141D01*
X0409141Y0051965D01*
X0415139D02*
X0416139Y0052965D01*
X0418138D01*
X0419138Y0051965D01*
Y0047966D01*
X0418138Y0046966D01*
X0416139D01*
X0415139Y0047966D01*
Y0051965D01*
X0421137Y0046966D02*
X0423136D01*
X0422137D01*
Y0052965D01*
X0421137Y0051965D01*
X0426135Y0052965D02*
X0430134D01*
Y0051965D01*
X0426135Y0047966D01*
Y0046966D01*
X0298199Y0051965D02*
X0297199Y0052965D01*
X0295200D01*
X0294200Y0051965D01*
Y0047966D01*
X0295200Y0046966D01*
X0297199D01*
X0298199Y0047966D01*
Y0049966D01*
X0296199D01*
X0304197Y0052965D02*
X0300198D01*
Y0046966D01*
X0304197D01*
X0300198Y0049966D02*
X0302197D01*
X0306196Y0046966D02*
Y0052965D01*
X0310195Y0046966D01*
Y0052965D01*
X0316193D02*
X0312194D01*
Y0046966D01*
X0316193D01*
X0312194Y0049966D02*
X0314194D01*
X0318192Y0046966D02*
Y0052965D01*
X0321191D01*
X0322191Y0051965D01*
Y0049966D01*
X0321191Y0048966D01*
X0318192D01*
X0320192D02*
X0322191Y0046966D01*
X0324190D02*
Y0050965D01*
X0326190Y0052965D01*
X0328189Y0050965D01*
Y0046966D01*
Y0049966D01*
X0324190D01*
X0330188Y0052965D02*
X0334187D01*
X0332188D01*
Y0046966D01*
X0340185Y0052965D02*
X0336186D01*
Y0046966D01*
X0340185D01*
X0336186Y0049966D02*
X0338186D01*
X0342184Y0052965D02*
Y0046966D01*
X0345183D01*
X0346183Y0047966D01*
Y0051965D01*
X0345183Y0052965D01*
X0342184D01*
X0372175Y0050965D02*
X0373175D01*
Y0049966D01*
X0372175D01*
Y0050965D01*
Y0047966D02*
X0373175D01*
Y0046966D01*
X0372175D01*
Y0047966D01*
X0046350Y0087833D02*
Y0091832D01*
X0048349Y0093831D01*
X0050349Y0091832D01*
Y0087833D01*
Y0090832D01*
X0046350D01*
X0052348Y0093831D02*
Y0087833D01*
X0056347D01*
X0058346Y0093831D02*
Y0087833D01*
X0062345D01*
X0070342D02*
Y0091832D01*
X0072342Y0093831D01*
X0074341Y0091832D01*
Y0087833D01*
Y0090832D01*
X0070342D01*
X0076340Y0087833D02*
Y0093831D01*
X0079339D01*
X0080339Y0092832D01*
Y0090832D01*
X0079339Y0089833D01*
X0076340D01*
X0078340D02*
X0080339Y0087833D01*
X0082338Y0093831D02*
X0086337D01*
X0084338D01*
Y0087833D01*
X0088336Y0093831D02*
Y0087833D01*
X0090336Y0089833D01*
X0092335Y0087833D01*
Y0093831D01*
X0097334D02*
X0095334D01*
X0094335Y0092832D01*
Y0088833D01*
X0095334Y0087833D01*
X0097334D01*
X0098333Y0088833D01*
Y0092832D01*
X0097334Y0093831D01*
X0100332Y0087833D02*
Y0093831D01*
X0103332D01*
X0104331Y0092832D01*
Y0090832D01*
X0103332Y0089833D01*
X0100332D01*
X0102332D02*
X0104331Y0087833D01*
X0106331Y0093831D02*
Y0087833D01*
Y0089833D01*
X0110329Y0093831D01*
X0107330Y0090832D01*
X0110329Y0087833D01*
X0118327Y0093831D02*
Y0089833D01*
X0120326Y0087833D01*
X0122325Y0089833D01*
Y0093831D01*
X0124325D02*
X0126324D01*
X0125324D01*
Y0087833D01*
X0124325D01*
X0126324D01*
X0133322Y0093831D02*
X0129323D01*
Y0087833D01*
X0133322D01*
X0129323Y0090832D02*
X0131323D01*
X0135321Y0093831D02*
Y0087833D01*
X0137321Y0089833D01*
X0139320Y0087833D01*
Y0093831D01*
X0145318D02*
X0141319D01*
Y0087833D01*
X0145318D01*
X0141319Y0090832D02*
X0143319D01*
X0147317Y0093831D02*
Y0087833D01*
X0150316D01*
X0151316Y0088833D01*
Y0092832D01*
X0150316Y0093831D01*
X0147317D01*
X0163312D02*
X0159313D01*
Y0090832D01*
X0161313D01*
X0159313D01*
Y0087833D01*
X0165312D02*
Y0093831D01*
X0168310D01*
X0169310Y0092832D01*
Y0090832D01*
X0168310Y0089833D01*
X0165312D01*
X0167311D02*
X0169310Y0087833D01*
X0174309Y0093831D02*
X0172309D01*
X0171310Y0092832D01*
Y0088833D01*
X0172309Y0087833D01*
X0174309D01*
X0175308Y0088833D01*
Y0092832D01*
X0174309Y0093831D01*
X0177308Y0087833D02*
Y0093831D01*
X0179307Y0091832D01*
X0181306Y0093831D01*
Y0087833D01*
X0189304Y0093831D02*
X0193303D01*
X0191303D01*
Y0087833D01*
X0198301Y0093831D02*
X0196301D01*
X0195302Y0092832D01*
Y0088833D01*
X0196301Y0087833D01*
X0198301D01*
X0199301Y0088833D01*
Y0092832D01*
X0198301Y0093831D01*
X0201300Y0087833D02*
Y0093831D01*
X0204299D01*
X0205299Y0092832D01*
Y0090832D01*
X0204299Y0089833D01*
X0201300D01*
X0217295Y0092832D02*
X0216295Y0093831D01*
X0214296D01*
X0213296Y0092832D01*
Y0091832D01*
X0214296Y0090832D01*
X0216295D01*
X0217295Y0089833D01*
Y0088833D01*
X0216295Y0087833D01*
X0214296D01*
X0213296Y0088833D01*
X0219294Y0093831D02*
X0221293D01*
X0220294D01*
Y0087833D01*
X0219294D01*
X0221293D01*
X0224292Y0093831D02*
Y0087833D01*
X0227291D01*
X0228291Y0088833D01*
Y0092832D01*
X0227291Y0093831D01*
X0224292D01*
X0234289D02*
X0230291D01*
Y0087833D01*
X0234289D01*
X0230291Y0090832D02*
X0232290D01*
X0462150Y0087833D02*
Y0091832D01*
X0464149Y0093831D01*
X0466149Y0091832D01*
Y0087833D01*
Y0090832D01*
X0462150D01*
X0348550Y0087833D02*
Y0093831D01*
X0350549Y0091832D01*
X0352549Y0093831D01*
Y0087833D01*
X0358547Y0092832D02*
X0357547Y0093831D01*
X0355548D01*
X0354548Y0092832D01*
Y0088833D01*
X0355548Y0087833D01*
X0357547D01*
X0358547Y0088833D01*
X0360546Y0093831D02*
Y0088833D01*
X0361546Y0087833D01*
X0363545D01*
X0364545Y0088833D01*
Y0093831D01*
X0366544Y0092832D02*
X0367544Y0093831D01*
X0369543D01*
X0370543Y0092832D01*
Y0088833D01*
X0369543Y0087833D01*
X0367544D01*
X0366544Y0088833D01*
Y0092832D01*
X0372542D02*
X0373542Y0093831D01*
X0375541D01*
X0376541Y0092832D01*
Y0088833D01*
X0375541Y0087833D01*
X0373542D01*
X0372542Y0088833D01*
Y0092832D01*
X0378540Y0088833D02*
X0379540Y0087833D01*
X0381539D01*
X0382539Y0088833D01*
Y0092832D01*
X0381539Y0093831D01*
X0379540D01*
X0378540Y0092832D01*
Y0091832D01*
X0379540Y0090832D01*
X0382539D01*
X0294000Y0093831D02*
Y0087833D01*
X0296999D01*
X0297999Y0088833D01*
Y0089833D01*
X0296999Y0090832D01*
X0294000D01*
X0296999D01*
X0297999Y0091832D01*
Y0092832D01*
X0296999Y0093831D01*
X0294000D01*
X0302997D02*
X0300998D01*
X0299998Y0092832D01*
Y0088833D01*
X0300998Y0087833D01*
X0302997D01*
X0303997Y0088833D01*
Y0092832D01*
X0302997Y0093831D01*
X0305996Y0087833D02*
Y0091832D01*
X0307996Y0093831D01*
X0309995Y0091832D01*
Y0087833D01*
Y0090832D01*
X0305996D01*
X0311994Y0087833D02*
Y0093831D01*
X0314993D01*
X0315993Y0092832D01*
Y0090832D01*
X0314993Y0089833D01*
X0311994D01*
X0313994D02*
X0315993Y0087833D01*
X0317992Y0093831D02*
Y0087833D01*
X0320991D01*
X0321991Y0088833D01*
Y0092832D01*
X0320991Y0093831D01*
X0317992D01*
X0330988Y0087833D02*
Y0093831D01*
X0332987D02*
Y0087833D01*
X0329988Y0091832D02*
X0332987D01*
X0333987D01*
X0329988Y0089833D02*
X0333987D01*
X0335986Y0091832D02*
X0336986D01*
Y0090832D01*
X0335986D01*
Y0091832D01*
Y0088833D02*
X0336986D01*
Y0087833D01*
X0335986D01*
Y0088833D01*
X0046350Y0073549D02*
Y0067551D01*
X0050349D01*
X0052348D02*
Y0071549D01*
X0054347Y0073549D01*
X0056347Y0071549D01*
Y0067551D01*
Y0070550D01*
X0052348D01*
X0058346Y0073549D02*
Y0072549D01*
X0060346Y0070550D01*
X0062345Y0072549D01*
Y0073549D01*
X0060346Y0070550D02*
Y0067551D01*
X0068343Y0073549D02*
X0064344D01*
Y0067551D01*
X0068343D01*
X0064344Y0070550D02*
X0066343D01*
X0070342Y0067551D02*
Y0073549D01*
X0073341D01*
X0074341Y0072549D01*
Y0070550D01*
X0073341Y0069550D01*
X0070342D01*
X0072342D02*
X0074341Y0067551D01*
X0082338D02*
Y0073549D01*
X0086337Y0067551D01*
Y0073549D01*
X0088336Y0067551D02*
Y0071549D01*
X0090336Y0073549D01*
X0092335Y0071549D01*
Y0067551D01*
Y0070550D01*
X0088336D01*
X0094335Y0067551D02*
Y0073549D01*
X0096334Y0071549D01*
X0098333Y0073549D01*
Y0067551D01*
X0104331Y0073549D02*
X0100332D01*
Y0067551D01*
X0104331D01*
X0100332Y0070550D02*
X0102332D01*
X0112329Y0069550D02*
X0116327D01*
X0112329Y0071549D02*
X0116327D01*
X0046350Y0046966D02*
Y0052965D01*
X0049349D01*
X0050349Y0051965D01*
Y0049966D01*
X0049349Y0048966D01*
X0046350D01*
X0052348Y0052965D02*
Y0046966D01*
X0056347D01*
X0061345Y0052965D02*
X0059346D01*
X0058346Y0051965D01*
Y0047966D01*
X0059346Y0046966D01*
X0061345D01*
X0062345Y0047966D01*
Y0051965D01*
X0061345Y0052965D01*
X0064344D02*
X0068343D01*
X0066343D01*
Y0046966D01*
X0076340D02*
Y0052965D01*
X0080339Y0046966D01*
Y0052965D01*
X0082338Y0046966D02*
Y0050965D01*
X0084338Y0052965D01*
X0086337Y0050965D01*
Y0046966D01*
Y0049966D01*
X0082338D01*
X0088336Y0046966D02*
Y0052965D01*
X0090336Y0050965D01*
X0092335Y0052965D01*
Y0046966D01*
X0098333Y0052965D02*
X0094335D01*
Y0046966D01*
X0098333D01*
X0094335Y0049966D02*
X0096334D01*
X0106331Y0048966D02*
X0110329D01*
X0106331Y0050965D02*
X0110329D01*
X0458049Y0046966D02*
X0454050D01*
X0458049Y0050965D01*
Y0051965D01*
X0457049Y0052965D01*
X0455050D01*
X0454050Y0051965D01*
X0460048Y0050965D02*
X0461048D01*
Y0049966D01*
X0460048D01*
Y0050965D01*
Y0047966D02*
X0461048D01*
Y0046966D01*
X0460048D01*
Y0047966D01*
X0469045Y0052965D02*
X0465046D01*
Y0049966D01*
X0467046Y0050965D01*
X0468046D01*
X0469045Y0049966D01*
Y0047966D01*
X0468046Y0046966D01*
X0466046D01*
X0465046Y0047966D01*
X0475043Y0052965D02*
X0471044D01*
Y0049966D01*
X0473044Y0050965D01*
X0474044D01*
X0475043Y0049966D01*
Y0047966D01*
X0474044Y0046966D01*
X0472044D01*
X0471044Y0047966D01*
X0477043Y0050965D02*
X0478042D01*
Y0049966D01*
X0477043D01*
Y0050965D01*
Y0047966D02*
X0478042D01*
Y0046966D01*
X0477043D01*
Y0047966D01*
X0482041Y0051965D02*
X0483041Y0052965D01*
X0485040D01*
X0486040Y0051965D01*
Y0050965D01*
X0485040Y0049966D01*
X0484040D01*
X0485040D01*
X0486040Y0048966D01*
Y0047966D01*
X0485040Y0046966D01*
X0483041D01*
X0482041Y0047966D01*
X0492038Y0046966D02*
X0488039D01*
X0492038Y0050965D01*
Y0051965D01*
X0491038Y0052965D01*
X0489039D01*
X0488039Y0051965D01*
X0500035Y0046966D02*
Y0052965D01*
X0503034D01*
X0504034Y0051965D01*
Y0049966D01*
X0503034Y0048966D01*
X0500035D01*
X0506033Y0046966D02*
Y0052965D01*
X0508033Y0050965D01*
X0510032Y0052965D01*
Y0046966D01*
X0580500Y0052965D02*
X0584499D01*
X0582499D01*
Y0046966D01*
X0590497Y0052965D02*
X0586498D01*
Y0046966D01*
X0590497D01*
X0586498Y0049966D02*
X0588497D01*
X0592496Y0052965D02*
X0596495Y0046966D01*
Y0052965D02*
X0592496Y0046966D01*
X0598494D02*
Y0050965D01*
X0600493Y0052965D01*
X0602493Y0050965D01*
Y0046966D01*
Y0049966D01*
X0598494D01*
X0608491Y0051965D02*
X0607491Y0052965D01*
X0605492D01*
X0604492Y0051965D01*
Y0050965D01*
X0605492Y0049966D01*
X0607491D01*
X0608491Y0048966D01*
Y0047966D01*
X0607491Y0046966D01*
X0605492D01*
X0604492Y0047966D01*
X0616488Y0052965D02*
X0618488D01*
X0617488D01*
Y0046966D01*
X0616488D01*
X0618488D01*
X0621487D02*
Y0052965D01*
X0625486Y0046966D01*
Y0052965D01*
X0631484Y0051965D02*
X0630484Y0052965D01*
X0628484D01*
X0627485Y0051965D01*
Y0050965D01*
X0628484Y0049966D01*
X0630484D01*
X0631484Y0048966D01*
Y0047966D01*
X0630484Y0046966D01*
X0628484D01*
X0627485Y0047966D01*
X0633483Y0052965D02*
X0637482D01*
X0635482D01*
Y0046966D01*
X0639481D02*
Y0052965D01*
X0642480D01*
X0643480Y0051965D01*
Y0049966D01*
X0642480Y0048966D01*
X0639481D01*
X0641480D02*
X0643480Y0046966D01*
X0645479Y0052965D02*
Y0047966D01*
X0646479Y0046966D01*
X0648478D01*
X0649478Y0047966D01*
Y0052965D01*
X0651477Y0046966D02*
Y0052965D01*
X0653476Y0050965D01*
X0655476Y0052965D01*
Y0046966D01*
X0661474Y0052965D02*
X0657475D01*
Y0046966D01*
X0661474D01*
X0657475Y0049966D02*
X0659474D01*
X0663473Y0046966D02*
Y0052965D01*
X0667472Y0046966D01*
Y0052965D01*
X0669471D02*
X0673470D01*
X0671471D01*
Y0046966D01*
X0679468Y0051965D02*
X0678468Y0052965D01*
X0676469D01*
X0675469Y0051965D01*
Y0050965D01*
X0676469Y0049966D01*
X0678468D01*
X0679468Y0048966D01*
Y0047966D01*
X0678468Y0046966D01*
X0676469D01*
X0675469Y0047966D01*
X0294000Y0073498D02*
X0297999D01*
X0295999D01*
Y0067500D01*
X0299998Y0073498D02*
X0301997D01*
X0300998D01*
Y0067500D01*
X0299998D01*
X0301997D01*
X0304996Y0073498D02*
Y0067500D01*
X0307996D01*
X0308995Y0068500D01*
Y0072498D01*
X0307996Y0073498D01*
X0304996D01*
X0317992Y0067500D02*
Y0073498D01*
X0319992D02*
Y0067500D01*
X0316993Y0071499D02*
X0319992D01*
X0320991D01*
X0316993Y0069499D02*
X0320991D01*
X0322991Y0071499D02*
X0323990D01*
Y0070499D01*
X0322991D01*
Y0071499D01*
Y0068500D02*
X0323990D01*
Y0067500D01*
X0322991D01*
Y0068500D01*
X0348550Y0067500D02*
Y0073498D01*
X0352549Y0067500D01*
Y0073498D01*
X0354548Y0067500D02*
X0358547Y0071499D01*
X0360546Y0067500D02*
Y0071499D01*
X0362545Y0073498D01*
X0364545Y0071499D01*
Y0067500D01*
Y0070499D01*
X0360546D01*
M02*
