*
*
G04 PADS Layout (Build Number 2007.21.1) generated Gerber (RS-274-X) file*
G04 PC Version=2.1*
*
%IN "CDS28323_oct1.pcb"*%
*
%MOIN*%
*
%FSLAX35Y35*%
*
*
*
*
G04 PC Standard Apertures*
*
*
G04 Thermal Relief Aperture macro.*
%AMTER*
1,1,$1,0,0*
1,0,$1-$2,0,0*
21,0,$3,$4,0,0,45*
21,0,$3,$4,0,0,135*
%
*
*
G04 Annular Aperture macro.*
%AMANN*
1,1,$1,0,0*
1,0,$2,0,0*
%
*
*
G04 Odd Aperture macro.*
%AMODD*
1,1,$1,0,0*
1,0,$1-0.005,0,0*
%
*
*
G04 PC Custom Aperture Macros*
*
*
*
*
*
*
G04 PC Aperture Table*
*
%ADD010C,0.01*%
%ADD011C,0.04*%
%ADD012C,0.02*%
%ADD013C,0.008*%
%ADD032C,0.005*%
%ADD083C,0.03*%
%ADD085C,0.001*%
*
*
*
*
G04 PC Copper Outlines (0)*
G04 Layer Name CDS28323_oct1.pcb - dark (0)*
%LPD*%
*
*
G04 PC Area=Custom_Thermal*
*
G04 PC Custom Flashes*
G04 Layer Name CDS28323_oct1.pcb - flashes*
%LPD*%
*
*
G04 PC Circuitry*
G04 Layer Name CDS28323_oct1.pcb - circuitry*
%LPD*%
*
G54D10*
G01X620079Y397178D02*
Y391272D01*
X623261Y397178D02*
Y391272D01*
X620079Y394366D02*
X623261D01*
X628034Y395209D02*
Y391272D01*
Y394366D02*
X627579Y394928D01*
X627125Y395209*
X626443*
X625988Y394928*
X625534Y394366*
X625306Y393522*
Y392959*
X625534Y392116*
X625988Y391553*
X626443Y391272*
X627125*
X627579Y391553*
X628034Y392116*
X630079Y395209D02*
Y391272D01*
Y393522D02*
X630306Y394366D01*
X630761Y394928*
X631216Y395209*
X631897*
X636670Y397178D02*
Y391272D01*
Y394366D02*
X636216Y394928D01*
X635761Y395209*
X635079*
X634625Y394928*
X634170Y394366*
X633943Y393522*
Y392959*
X634170Y392116*
X634625Y391553*
X635079Y391272*
X635761*
X636216Y391553*
X636670Y392116*
X647352Y395772D02*
X647125Y396334D01*
X646670Y396897*
X646216Y397178*
X645306*
X644852Y396897*
X644397Y396334*
X644170Y395772*
X643943Y394928*
Y393522*
X644170Y392678*
X644397Y392116*
X644852Y391553*
X645306Y391272*
X646216*
X646670Y391553*
X647125Y392116*
X647352Y392678*
Y393522*
X646216D02*
X647352D01*
X650534Y395209D02*
X650079Y394928D01*
X649625Y394366*
X649397Y393522*
Y392959*
X649625Y392116*
X650079Y391553*
X650534Y391272*
X651216*
X651670Y391553*
X652125Y392116*
X652352Y392959*
Y393522*
X652125Y394366*
X651670Y394928*
X651216Y395209*
X650534*
X654397Y397178D02*
Y391272D01*
X659170Y397178D02*
Y391272D01*
Y394366D02*
X658716Y394928D01*
X658261Y395209*
X657579*
X657125Y394928*
X656670Y394366*
X656443Y393522*
Y392959*
X656670Y392116*
X657125Y391553*
X657579Y391272*
X658261*
X658716Y391553*
X659170Y392116*
X666443Y397178D02*
Y391272D01*
Y397178D02*
X669397D01*
X666443Y394366D02*
X668261D01*
X671443Y397178D02*
X671670Y396897D01*
X671897Y397178*
X671670Y397459*
X671443Y397178*
X671670Y395209D02*
Y391272D01*
X673943Y395209D02*
Y391272D01*
Y394084D02*
X674625Y394928D01*
X675079Y395209*
X675761*
X676216Y394928*
X676443Y394084*
Y391272*
X681216Y395209D02*
Y390709D01*
X680988Y389866*
X680761Y389584*
X680306Y389303*
X679625*
X679170Y389584*
X681216Y394366D02*
X680761Y394928D01*
X680306Y395209*
X679625*
X679170Y394928*
X678716Y394366*
X678488Y393522*
Y392959*
X678716Y392116*
X679170Y391553*
X679625Y391272*
X680306*
X680761Y391553*
X681216Y392116*
X683261Y393522D02*
X685988D01*
Y394084*
X685761Y394647*
X685534Y394928*
X685079Y395209*
X684397*
X683943Y394928*
X683488Y394366*
X683261Y393522*
Y392959*
X683488Y392116*
X683943Y391553*
X684397Y391272*
X685079*
X685534Y391553*
X685988Y392116*
X688034Y395209D02*
Y391272D01*
Y393522D02*
X688261Y394366D01*
X688716Y394928*
X689170Y395209*
X689852*
X694397Y394366D02*
X694170Y394928D01*
X693488Y395209*
X692806*
X692125Y394928*
X691897Y394366*
X692125Y393803*
X692579Y393522*
X693716Y393241*
X694170Y392959*
X694397Y392397*
Y392116*
X694170Y391553*
X693488Y391272*
X692806*
X692125Y391553*
X691897Y392116*
X703488Y397178D02*
X703034D01*
X702579Y396897*
X702352Y396053*
Y391272*
X701670Y395209D02*
X703261D01*
X706670D02*
X706216Y394928D01*
X705761Y394366*
X705534Y393522*
Y392959*
X705761Y392116*
X706216Y391553*
X706670Y391272*
X707352*
X707806Y391553*
X708261Y392116*
X708488Y392959*
Y393522*
X708261Y394366*
X707806Y394928*
X707352Y395209*
X706670*
X710534D02*
Y391272D01*
Y393522D02*
X710761Y394366D01*
X711216Y394928*
X711670Y395209*
X712352*
X719625Y397178D02*
Y391272D01*
Y397178D02*
X722579D01*
X719625Y394366D02*
X721443D01*
X719625Y391272D02*
X722579D01*
X727352Y397178D02*
Y391272D01*
Y394366D02*
X726897Y394928D01*
X726443Y395209*
X725761*
X725306Y394928*
X724852Y394366*
X724625Y393522*
Y392959*
X724852Y392116*
X725306Y391553*
X725761Y391272*
X726443*
X726897Y391553*
X727352Y392116*
X732125Y395209D02*
Y390709D01*
X731897Y389866*
X731670Y389584*
X731216Y389303*
X730534*
X730079Y389584*
X732125Y394366D02*
X731670Y394928D01*
X731216Y395209*
X730534*
X730079Y394928*
X729625Y394366*
X729397Y393522*
Y392959*
X729625Y392116*
X730079Y391553*
X730534Y391272*
X731216*
X731670Y391553*
X732125Y392116*
X734170Y393522D02*
X736897D01*
Y394084*
X736670Y394647*
X736443Y394928*
X735988Y395209*
X735306*
X734852Y394928*
X734397Y394366*
X734170Y393522*
Y392959*
X734397Y392116*
X734852Y391553*
X735306Y391272*
X735988*
X736443Y391553*
X736897Y392116*
X747579Y395772D02*
X747352Y396334D01*
X746897Y396897*
X746443Y397178*
X745534*
X745079Y396897*
X744625Y396334*
X744397Y395772*
X744170Y394928*
Y393522*
X744397Y392678*
X744625Y392116*
X745079Y391553*
X745534Y391272*
X746443*
X746897Y391553*
X747352Y392116*
X747579Y392678*
X750761Y395209D02*
X750306Y394928D01*
X749852Y394366*
X749625Y393522*
Y392959*
X749852Y392116*
X750306Y391553*
X750761Y391272*
X751443*
X751897Y391553*
X752352Y392116*
X752579Y392959*
Y393522*
X752352Y394366*
X751897Y394928*
X751443Y395209*
X750761*
X754625D02*
Y391272D01*
Y394084D02*
X755306Y394928D01*
X755761Y395209*
X756443*
X756897Y394928*
X757125Y394084*
Y391272*
X759170Y395209D02*
Y391272D01*
Y394084D02*
X759852Y394928D01*
X760306Y395209*
X760988*
X761443Y394928*
X761670Y394084*
Y391272*
X763716Y393522D02*
X766443D01*
Y394084*
X766216Y394647*
X765988Y394928*
X765534Y395209*
X764852*
X764397Y394928*
X763943Y394366*
X763716Y393522*
Y392959*
X763943Y392116*
X764397Y391553*
X764852Y391272*
X765534*
X765988Y391553*
X766443Y392116*
X771216Y394366D02*
X770761Y394928D01*
X770306Y395209*
X769625*
X769170Y394928*
X768716Y394366*
X768488Y393522*
Y392959*
X768716Y392116*
X769170Y391553*
X769625Y391272*
X770306*
X770761Y391553*
X771216Y392116*
X773943Y397178D02*
Y392397D01*
X774170Y391553*
X774625Y391272*
X775079*
X773261Y395209D02*
X774852D01*
X778261D02*
X777806Y394928D01*
X777352Y394366*
X777125Y393522*
Y392959*
X777352Y392116*
X777806Y391553*
X778261Y391272*
X778943*
X779397Y391553*
X779852Y392116*
X780079Y392959*
Y393522*
X779852Y394366*
X779397Y394928*
X778943Y395209*
X778261*
X782125D02*
Y391272D01*
Y393522D02*
X782352Y394366D01*
X782806Y394928*
X783261Y395209*
X783943*
X135250Y294528D02*
X142750D01*
X139000Y290778D02*
Y298278D01*
X143250Y305528D02*
X150750D01*
X147000Y301778D02*
Y309278D01*
X140750Y294028D02*
X148250D01*
X144500Y290278D02*
Y297778D01*
X137750Y305028D02*
X145250D01*
X141500Y301278D02*
Y308778D01*
X132750Y306028D02*
X140250D01*
X136500Y302278D02*
Y309778D01*
X130250Y295028D02*
X137750D01*
X134000Y291278D02*
Y298778D01*
X134250Y322528D02*
X141750D01*
X138000Y318778D02*
Y326278D01*
X146750Y320528D02*
X154250D01*
X150500Y316778D02*
Y324278D01*
X140750Y322028D02*
X148250D01*
X144500Y318278D02*
Y325778D01*
X131750Y288028D02*
X139250D01*
X135500Y284278D02*
Y291778D01*
X146750Y307528D02*
X154250D01*
X150500Y303778D02*
Y311278D01*
X127250Y318028D02*
X134750D01*
X131000Y314278D02*
Y321778D01*
X184250Y320528D02*
X191750D01*
X188000Y316778D02*
Y324278D01*
X193250Y325028D02*
X200750D01*
X197000Y321278D02*
Y328778D01*
X156750Y288028D02*
X164250D01*
X160500Y284278D02*
Y291778D01*
X180750Y302028D02*
X188250D01*
X184500Y298278D02*
Y305778D01*
X194250Y302028D02*
X201750D01*
X198000Y298278D02*
Y305778D01*
X192250Y288028D02*
X199750D01*
X196000Y284278D02*
Y291778D01*
X180750Y325528D02*
X188250D01*
X184500Y321778D02*
Y329278D01*
X172250Y320028D02*
X179750D01*
X176000Y316278D02*
Y323778D01*
X184250Y312028D02*
X191750D01*
X188000Y308278D02*
Y315778D01*
X186750Y288028D02*
X194250D01*
X190500Y284278D02*
Y291778D01*
X180750Y320528D02*
X188250D01*
X184500Y316778D02*
Y324278D01*
X205750Y293528D02*
X213250D01*
X209500Y289778D02*
Y297278D01*
X207250Y309528D02*
X214750D01*
X211000Y305778D02*
Y313278D01*
X208250Y291528D02*
X215750D01*
X212000Y287778D02*
Y295278D01*
X209750Y306528D02*
X217250D01*
X213500Y302778D02*
Y310278D01*
X210750Y289028D02*
X218250D01*
X214500Y285278D02*
Y292778D01*
X232750Y296528D02*
X240250D01*
X236500Y292778D02*
Y300278D01*
X234750Y291028D02*
X242250D01*
X238500Y287278D02*
Y294778D01*
X227750Y293028D02*
X235250D01*
X231500Y289278D02*
Y296778D01*
X227750Y315528D02*
X235250D01*
X231500Y311778D02*
Y319278D01*
X230250Y299028D02*
X237750D01*
X234000Y295278D02*
Y302778D01*
X201750Y304528D02*
X209250D01*
X205500Y300778D02*
Y308278D01*
X200750Y288028D02*
X208250D01*
X204500Y284278D02*
Y291778D01*
X235750Y296028D02*
X243250D01*
X239500Y292278D02*
Y299778D01*
X201750Y314028D02*
X209250D01*
X205500Y310278D02*
Y317778D01*
X216750Y288028D02*
X224250D01*
X220500Y284278D02*
Y291778D01*
X206750Y288028D02*
X214250D01*
X210500Y284278D02*
Y291778D01*
X196750Y288028D02*
X204250D01*
X200500Y284278D02*
Y291778D01*
X212250Y313528D02*
X219750D01*
X216000Y309778D02*
Y317278D01*
X231250Y320528D02*
X238750D01*
X235000Y316778D02*
Y324278D01*
X230750Y307028D02*
X238250D01*
X234500Y303278D02*
Y310778D01*
X196750Y318528D02*
X204250D01*
X200500Y314778D02*
Y322278D01*
X226250Y303528D02*
X233750D01*
X230000Y299778D02*
Y307278D01*
X231250Y323028D02*
X238750D01*
X235000Y319278D02*
Y326778D01*
X202250Y317528D02*
X209750D01*
X206000Y313778D02*
Y321278D01*
X198750Y293028D02*
X206250D01*
X202500Y289278D02*
Y296778D01*
X221250Y295028D02*
X228750D01*
X225000Y291278D02*
Y298778D01*
X254250Y301028D02*
X261750D01*
X258000Y297278D02*
Y304778D01*
X254250Y288028D02*
X261750D01*
X258000Y284278D02*
Y291778D01*
X263750Y300028D02*
X271250D01*
X267500Y296278D02*
Y303778D01*
X270750Y294028D02*
X278250D01*
X274500Y290278D02*
Y297778D01*
X260750Y322528D02*
X268250D01*
X264500Y318778D02*
Y326278D01*
X256250Y314028D02*
X263750D01*
X260000Y310278D02*
Y317778D01*
X270750Y320528D02*
X278250D01*
X274500Y316778D02*
Y324278D01*
X237250Y289028D02*
X244750D01*
X241000Y285278D02*
Y292778D01*
X268750Y309528D02*
X276250D01*
X272500Y305778D02*
Y313278D01*
X274250Y321028D02*
X281750D01*
X278000Y317278D02*
Y324778D01*
X258750Y318528D02*
X266250D01*
X262500Y314778D02*
Y322278D01*
X240250Y290028D02*
X247750D01*
X244000Y286278D02*
Y293778D01*
X267250Y313028D02*
X274750D01*
X271000Y309278D02*
Y316778D01*
X315750Y325528D02*
X323250D01*
X319500Y321778D02*
Y329278D01*
X287250Y297528D02*
X294750D01*
X291000Y293778D02*
Y301278D01*
X284750Y311028D02*
X292250D01*
X288500Y307278D02*
Y314778D01*
X312250Y294028D02*
X319750D01*
X316000Y290278D02*
Y297778D01*
X309250Y291528D02*
X316750D01*
X313000Y287778D02*
Y295278D01*
X300750Y297028D02*
X308250D01*
X304500Y293278D02*
Y300778D01*
X302250Y314528D02*
X309750D01*
X306000Y310778D02*
Y318278D01*
X302250Y301528D02*
X309750D01*
X306000Y297778D02*
Y305278D01*
X304250Y316028D02*
X311750D01*
X308000Y312278D02*
Y319778D01*
X304250Y288028D02*
X311750D01*
X308000Y284278D02*
Y291778D01*
X289750Y291028D02*
X297250D01*
X293500Y287278D02*
Y294778D01*
X278750Y319528D02*
X286250D01*
X282500Y315778D02*
Y323278D01*
X299250Y288028D02*
X306750D01*
X303000Y284278D02*
Y291778D01*
X315250Y290028D02*
X322750D01*
X319000Y286278D02*
Y293778D01*
X289750Y297028D02*
X297250D01*
X293500Y293278D02*
Y300778D01*
X287250Y311028D02*
X294750D01*
X291000Y307278D02*
Y314778D01*
X296250Y297028D02*
X303750D01*
X300000Y293278D02*
Y300778D01*
X290750Y311028D02*
X298250D01*
X294500Y307278D02*
Y314778D01*
X276750Y309528D02*
X284250D01*
X280500Y305778D02*
Y313278D01*
X279250Y290028D02*
X286750D01*
X283000Y286278D02*
Y293778D01*
X296250Y313528D02*
X303750D01*
X300000Y309778D02*
Y317278D01*
X341750Y288528D02*
X349250D01*
X345500Y284778D02*
Y292278D01*
X352250Y303028D02*
X359750D01*
X356000Y299278D02*
Y306778D01*
X331750Y315528D02*
X339250D01*
X335500Y311778D02*
Y319278D01*
X344750Y289528D02*
X352250D01*
X348500Y285778D02*
Y293278D01*
X333250Y289528D02*
X340750D01*
X337000Y285778D02*
Y293278D01*
X354250Y288028D02*
X361750D01*
X358000Y284278D02*
Y291778D01*
X326750Y288028D02*
X334250D01*
X330500Y284278D02*
Y291778D01*
X349250Y288028D02*
X356750D01*
X353000Y284278D02*
Y291778D01*
X331250Y288028D02*
X338750D01*
X335000Y284278D02*
Y291778D01*
X391750Y290028D02*
X399250D01*
X395500Y286278D02*
Y293778D01*
X381250Y297028D02*
X388750D01*
X385000Y293278D02*
Y300778D01*
X359250Y288528D02*
X366750D01*
X363000Y284778D02*
Y292278D01*
X390250Y303528D02*
X397750D01*
X394000Y299778D02*
Y307278D01*
X376750Y288028D02*
X384250D01*
X380500Y284278D02*
Y291778D01*
X364250Y303028D02*
X371750D01*
X368000Y299278D02*
Y306778D01*
X377250Y310028D02*
X384750D01*
X381000Y306278D02*
Y313778D01*
X394750Y324528D02*
X402250D01*
X398500Y320778D02*
Y328278D01*
X364250Y325528D02*
X371750D01*
X368000Y321778D02*
Y329278D01*
X383250Y316528D02*
X390750D01*
X387000Y312778D02*
Y320278D01*
X386750Y316528D02*
X394250D01*
X390500Y312778D02*
Y320278D01*
X390250Y316528D02*
X397750D01*
X394000Y312778D02*
Y320278D01*
X417250Y290528D02*
X424750D01*
X421000Y286778D02*
Y294278D01*
X421250Y301528D02*
X428750D01*
X425000Y297778D02*
Y305278D01*
X431250Y301528D02*
X438750D01*
X435000Y297778D02*
Y305278D01*
X431250Y319528D02*
X438750D01*
X435000Y315778D02*
Y323278D01*
X421250Y319528D02*
X428750D01*
X425000Y315778D02*
Y323278D01*
X396750Y294028D02*
X404250D01*
X400500Y290278D02*
Y297778D01*
X412750Y297028D02*
X420250D01*
X416500Y293278D02*
Y300778D01*
X396750Y288028D02*
X404250D01*
X400500Y284278D02*
Y291778D01*
X404250Y289528D02*
X411750D01*
X408000Y285778D02*
Y293278D01*
X403250Y305028D02*
X410750D01*
X407000Y301278D02*
Y308778D01*
X399750Y290528D02*
X407250D01*
X403500Y286778D02*
Y294278D01*
X436250Y290528D02*
X443750D01*
X440000Y286778D02*
Y294278D01*
X133750Y366028D02*
X141250D01*
X137500Y362278D02*
Y369778D01*
X122750Y342528D02*
X130250D01*
X126500Y338778D02*
Y346278D01*
X126750Y342528D02*
X134250D01*
X130500Y338778D02*
Y346278D01*
X130250Y341528D02*
X137750D01*
X134000Y337778D02*
Y345278D01*
X143750Y336028D02*
X151250D01*
X147500Y332278D02*
Y339778D01*
X138750Y336028D02*
X146250D01*
X142500Y332278D02*
Y339778D01*
X126750Y359528D02*
X134250D01*
X130500Y355778D02*
Y363278D01*
X122750Y359528D02*
X130250D01*
X126500Y355778D02*
Y363278D01*
X148750Y335528D02*
X156250D01*
X152500Y331778D02*
Y339278D01*
X138750Y366028D02*
X146250D01*
X142500Y362278D02*
Y369778D01*
X148750Y366028D02*
X156250D01*
X152500Y362278D02*
Y369778D01*
X132750Y333528D02*
X140250D01*
X136500Y329778D02*
Y337278D01*
X130250Y333528D02*
X137750D01*
X134000Y329778D02*
Y337278D01*
X162750Y339528D02*
X170250D01*
X166500Y335778D02*
Y343278D01*
X162750Y361528D02*
X170250D01*
X166500Y357778D02*
Y365278D01*
X184250Y343028D02*
X191750D01*
X188000Y339278D02*
Y346778D01*
X176750Y341528D02*
X184250D01*
X180500Y337778D02*
Y345278D01*
X187850Y343028D02*
X195350D01*
X191600Y339278D02*
Y346778D01*
X171750Y340528D02*
X179250D01*
X175500Y336778D02*
Y344278D01*
X184250Y334028D02*
X191750D01*
X188000Y330278D02*
Y337778D01*
X193250Y328028D02*
X200750D01*
X197000Y324278D02*
Y331778D01*
X205250Y339028D02*
X212750D01*
X209000Y335278D02*
Y342778D01*
X203250Y365528D02*
X210750D01*
X207000Y361778D02*
Y369278D01*
X206250Y360028D02*
X213750D01*
X210000Y356278D02*
Y363778D01*
X208750Y357028D02*
X216250D01*
X212500Y353278D02*
Y360778D01*
X211250Y332528D02*
X218750D01*
X215000Y328778D02*
Y336278D01*
X209250Y330528D02*
X216750D01*
X213000Y326778D02*
Y334278D01*
X212750Y351528D02*
X220250D01*
X216500Y347778D02*
Y355278D01*
X212750Y347528D02*
X220250D01*
X216500Y343778D02*
Y351278D01*
X212750Y355528D02*
X220250D01*
X216500Y351778D02*
Y359278D01*
X212750Y359528D02*
X220250D01*
X216500Y355778D02*
Y363278D01*
X196250Y326528D02*
X203750D01*
X200000Y322778D02*
Y330278D01*
X205250Y327528D02*
X212750D01*
X209000Y323778D02*
Y331278D01*
X235250Y344528D02*
X242750D01*
X239000Y340778D02*
Y348278D01*
X230750Y327028D02*
X238250D01*
X234500Y323278D02*
Y330778D01*
X196750Y340528D02*
X204250D01*
X200500Y336778D02*
Y344278D01*
X200750Y353528D02*
X208250D01*
X204500Y349778D02*
Y357278D01*
X260250Y338528D02*
X267750D01*
X264000Y334778D02*
Y342278D01*
X269750Y352528D02*
X277250D01*
X273500Y348778D02*
Y356278D01*
X261250Y360528D02*
X268750D01*
X265000Y356778D02*
Y364278D01*
X258750Y357528D02*
X266250D01*
X262500Y353778D02*
Y361278D01*
X261250Y350528D02*
X268750D01*
X265000Y346778D02*
Y354278D01*
X254750Y364028D02*
X262250D01*
X258500Y360278D02*
Y367778D01*
X255250Y353028D02*
X262750D01*
X259000Y349278D02*
Y356778D01*
X256750Y366028D02*
X264250D01*
X260500Y362278D02*
Y369778D01*
X257750Y351028D02*
X265250D01*
X261500Y347278D02*
Y354778D01*
X253250Y349528D02*
X260750D01*
X257000Y345778D02*
Y353278D01*
X253250Y347028D02*
X260750D01*
X257000Y343278D02*
Y350778D01*
X260750Y332528D02*
X268250D01*
X264500Y328778D02*
Y336278D01*
X254750Y340528D02*
X262250D01*
X258500Y336778D02*
Y344278D01*
X267250Y355028D02*
X274750D01*
X271000Y351278D02*
Y358778D01*
X269750Y334028D02*
X277250D01*
X273500Y330278D02*
Y337778D01*
X249750Y331028D02*
X257250D01*
X253500Y327278D02*
Y334778D01*
X273750Y337528D02*
X281250D01*
X277500Y333778D02*
Y341278D01*
X246250Y347528D02*
X253750D01*
X250000Y343778D02*
Y351278D01*
X244750Y342528D02*
X252250D01*
X248500Y338778D02*
Y346278D01*
X240750Y340528D02*
X248250D01*
X244500Y336778D02*
Y344278D01*
X274250Y355028D02*
X281750D01*
X278000Y351278D02*
Y358778D01*
X242750Y330528D02*
X250250D01*
X246500Y326778D02*
Y334278D01*
X270750Y355028D02*
X278250D01*
X274500Y351278D02*
Y358778D01*
X265750Y349528D02*
X273250D01*
X269500Y345778D02*
Y353278D01*
X308750Y331028D02*
X316250D01*
X312500Y327278D02*
Y334778D01*
X288250Y341028D02*
X295750D01*
X292000Y337278D02*
Y344778D01*
X295750Y358528D02*
X303250D01*
X299500Y354778D02*
Y362278D01*
X305250Y346028D02*
X312750D01*
X309000Y342278D02*
Y349778D01*
X303750Y331028D02*
X311250D01*
X307500Y327278D02*
Y334778D01*
X277750Y333528D02*
X285250D01*
X281500Y329778D02*
Y337278D01*
X284750Y363528D02*
X292250D01*
X288500Y359778D02*
Y367278D01*
X286750Y362028D02*
X294250D01*
X290500Y358278D02*
Y365778D01*
X288750Y354528D02*
X296250D01*
X292500Y350778D02*
Y358278D01*
X303250Y327028D02*
X310750D01*
X307000Y323278D02*
Y330778D01*
X288250Y328028D02*
X295750D01*
X292000Y324278D02*
Y331778D01*
X303250Y340028D02*
X310750D01*
X307000Y336278D02*
Y343778D01*
X280750Y342028D02*
X288250D01*
X284500Y338278D02*
Y345778D01*
X303250Y334528D02*
X310750D01*
X307000Y330778D02*
Y338278D01*
X312750Y331028D02*
X320250D01*
X316500Y327278D02*
Y334778D01*
X289250Y336528D02*
X296750D01*
X293000Y332778D02*
Y340278D01*
X277250Y343028D02*
X284750D01*
X281000Y339278D02*
Y346778D01*
X289550Y332528D02*
X297050D01*
X293300Y328778D02*
Y336278D01*
X298750Y353028D02*
X306250D01*
X302500Y349278D02*
Y356778D01*
X347250Y344028D02*
X354750D01*
X351000Y340278D02*
Y347778D01*
X346250Y358528D02*
X353750D01*
X350000Y354778D02*
Y362278D01*
X332750Y337528D02*
X340250D01*
X336500Y333778D02*
Y341278D01*
X346250Y326528D02*
X353750D01*
X350000Y322778D02*
Y330278D01*
X331750Y326528D02*
X339250D01*
X335500Y322778D02*
Y330278D01*
X345750Y351528D02*
X353250D01*
X349500Y347778D02*
Y355278D01*
X318250Y365528D02*
X325750D01*
X322000Y361778D02*
Y369278D01*
X332250Y342028D02*
X339750D01*
X336000Y338278D02*
Y345778D01*
X332750Y365528D02*
X340250D01*
X336500Y361778D02*
Y369278D01*
X318750Y351528D02*
X326250D01*
X322500Y347778D02*
Y355278D01*
X383050Y329128D02*
X390550D01*
X386800Y325378D02*
Y332878D01*
X384750Y361028D02*
X392250D01*
X388500Y357278D02*
Y364778D01*
X384750Y340028D02*
X392250D01*
X388500Y336278D02*
Y343778D01*
X410250Y333328D02*
X417750D01*
X414000Y329578D02*
Y337078D01*
X428750Y334528D02*
X436250D01*
X432500Y330778D02*
Y338278D01*
X423750Y334528D02*
X431250D01*
X427500Y330778D02*
Y338278D01*
X426750Y357028D02*
X434250D01*
X430500Y353278D02*
Y360778D01*
X416750Y357028D02*
X424250D01*
X420500Y353278D02*
Y360778D01*
X409750Y341028D02*
X417250D01*
X413500Y337278D02*
Y344778D01*
X416750Y341028D02*
X424250D01*
X420500Y337278D02*
Y344778D01*
X426750Y341028D02*
X434250D01*
X430500Y337278D02*
Y344778D01*
X406750Y357028D02*
X414250D01*
X410500Y353278D02*
Y360778D01*
X405250Y341028D02*
X412750D01*
X409000Y337278D02*
Y344778D01*
X399250Y337028D02*
X406750D01*
X403000Y333278D02*
Y340778D01*
X143750Y366528D02*
X151250D01*
X147500Y362778D02*
Y370278D01*
X100500Y274028D02*
X173000D01*
Y281974*
X180874Y281973D02*
G75*
G03X173000I-3937J310D01*
G01X180874Y281974D02*
Y274028D01*
X269063*
Y281866*
X276937D02*
G03X269063I-3937J228D01*
G01X276937D02*
Y274028D01*
X455579*
Y336232*
X452602*
Y351980D02*
G03Y336232I-55J-7874D01*
G01Y351980D02*
X455618D01*
X455579Y374028*
X100500*
Y351980*
X104964*
X104957Y336232D02*
G03X104970Y351980I-330J7874D01*
G01X104964Y336232D02*
X100500D01*
Y274028*
X104634Y121000D02*
X279634D01*
Y176000D02*
X554634D01*
X279634Y151000D02*
X554634D01*
X279634Y126000D02*
X554634D01*
X104634Y141000D02*
X279634D01*
X169861Y131000D02*
Y131281D01*
X170088Y131844*
X170316Y132125*
X170770Y132406*
X171679*
X172134Y132125*
X172361Y131844*
X172588Y131281*
Y130719*
X172361Y130156*
X171907Y129313*
X171907D02*
X169634Y126500D01*
X172816*
X175997Y132406D02*
X175316Y132125D01*
X175088Y131563*
X175088D02*
Y131000D01*
X175316Y130438*
X175316D02*
X175770Y130156D01*
X176679Y129875*
X177361Y129594*
X177816Y129031*
X178043Y128469*
Y127625*
X177816Y127063*
X177816D02*
X177588Y126781D01*
X176907Y126500*
X175997*
X175316Y126781*
X175088Y127063*
X175088D02*
X174861Y127625D01*
Y128469*
X175088Y129031*
X175543Y129594*
X176225Y129875*
X177134Y130156*
X177588Y130438*
X177588D02*
X177816Y131000D01*
Y131563*
X177816D02*
X177588Y132125D01*
X176907Y132406*
X175997*
X180543D02*
X183043D01*
X181679Y130156*
X182361*
X182816Y129875*
X183043Y129594*
X183270Y128750*
Y128188*
X183270D02*
X183043Y127344D01*
X182588Y126781*
X181907Y126500*
X181225*
X180543Y126781*
X180316Y127063*
X180316D02*
X180088Y127625D01*
X185543Y131000D02*
Y131281D01*
X185770Y131844*
X185997Y132125*
X186452Y132406*
X187361*
X187816Y132125*
X188043Y131844*
X188270Y131281*
Y130719*
X188043Y130156*
X187588Y129313*
X187588D02*
X185316Y126500D01*
X188497*
X190997Y132406D02*
X193497D01*
X192134Y130156*
X192816*
X193270Y129875*
X193497Y129594*
X193725Y128750*
Y128188*
X193725D02*
X193497Y127344D01*
X193043Y126781*
X192361Y126500*
X191679*
X190997Y126781*
X190770Y127063*
X190770D02*
X190543Y127625D01*
X136397Y114006D02*
X135716Y113725D01*
X135261Y112881*
X135034Y111475*
Y110631*
X135261Y109225*
X135716Y108381*
X136397Y108100*
X136852*
X137534Y108381*
X137988Y109225*
X138216Y110631*
Y111475*
X137988Y112881*
X137534Y113725*
X136852Y114006*
X136397*
X143216Y112038D02*
X142988Y111194D01*
X142534Y110631*
X141852Y110350*
X141625*
X140943Y110631*
X140488Y111194*
X140261Y112038*
X140261D02*
Y112319D01*
X140488Y113163*
X140488D02*
X140943Y113725D01*
X141625Y114006*
X141852*
X142534Y113725*
X142988Y113163*
X142988D02*
X143216Y112038D01*
X143216D02*
Y110631D01*
X142988Y109225*
X142534Y108381*
X141852Y108100*
X141397*
X140716Y108381*
X140488Y108944*
X149352Y115131D02*
X145261Y106131D01*
X151625Y112600D02*
Y112881D01*
X151852Y113444*
X152079Y113725*
X152534Y114006*
X153443*
X153897Y113725*
X154125Y113444*
X154352Y112881*
Y112319*
X154125Y111756*
X153670Y110913*
X153670D02*
X151397Y108100D01*
X154579*
X159579Y114006D02*
X157307D01*
X157079Y111475*
X157307Y111756*
X157988Y112038*
X157988D02*
X158670D01*
X158670D02*
X159352Y111756D01*
X159807Y111194*
X160034Y110350*
X159807Y109788*
X159807D02*
X159579Y108944D01*
X159125Y108381*
X158443Y108100*
X157761*
X157079Y108381*
X156852Y108663*
X156852D02*
X156625Y109225D01*
X166170Y115131D02*
X162079Y106131D01*
X168443Y112600D02*
Y112881D01*
X168670Y113444*
X168897Y113725*
X169352Y114006*
X170261*
X170716Y113725*
X170943Y113444*
X171170Y112881*
Y112319*
X170943Y111756*
X170488Y110913*
X170488D02*
X168216Y108100D01*
X171397*
X174807Y114006D02*
X174125Y113725D01*
X173670Y112881*
X173443Y111475*
Y110631*
X173670Y109225*
X174125Y108381*
X174807Y108100*
X175261*
X175943Y108381*
X176397Y109225*
X176625Y110631*
Y111475*
X176397Y112881*
X175943Y113725*
X175261Y114006*
X174807*
X180034D02*
X179352Y113725D01*
X178897Y112881*
X178670Y111475*
Y110631*
X178897Y109225*
X179352Y108381*
X180034Y108100*
X180488*
X181170Y108381*
X181625Y109225*
X181852Y110631*
Y111475*
X181625Y112881*
X181170Y113725*
X180488Y114006*
X180034*
X185034D02*
X184352Y113725D01*
X184125Y113163*
X184125D02*
Y112600D01*
X184352Y112038*
X184352D02*
X184807Y111756D01*
X185716Y111475*
X186397Y111194*
X186852Y110631*
X187079Y110069*
Y109225*
X186852Y108663*
X186852D02*
X186625Y108381D01*
X185943Y108100*
X185034*
X184352Y108381*
X184125Y108663*
X184125D02*
X183897Y109225D01*
Y110069*
X184125Y110631*
X184579Y111194*
X185261Y111475*
X186170Y111756*
X186625Y112038*
X186625D02*
X186852Y112600D01*
Y113163*
X186852D02*
X186625Y113725D01*
X185943Y114006*
X185034*
X336225Y187406D02*
Y181500D01*
X334634Y187406D02*
X337816D01*
X339861Y183750D02*
X342588D01*
Y184313*
X342588D02*
X342361Y184875D01*
X342134Y185156*
X341679Y185438*
X341679D02*
X340997D01*
X340997D02*
X340543Y185156D01*
X340088Y184594*
X339861Y183750*
Y183188*
X339861D02*
X340088Y182344D01*
X340543Y181781*
X340997Y181500*
X341679*
X342134Y181781*
X342588Y182344*
X344634Y185438D02*
X347134Y181500D01*
Y185438D02*
X344634Y181500D01*
X351907Y185438D02*
Y181500D01*
Y184594D02*
X351452Y185156D01*
X350997Y185438*
X350997D02*
X350316D01*
X350316D02*
X349861Y185156D01*
X349407Y184594*
X349179Y183750*
Y183188*
X349179D02*
X349407Y182344D01*
X349861Y181781*
X350316Y181500*
X350997*
X351452Y181781*
X351907Y182344*
X356452Y184594D02*
X356225Y185156D01*
X355543Y185438*
X355543D02*
X354861D01*
X354861D02*
X354179Y185156D01*
X353952Y184594*
X354179Y184031*
X354634Y183750*
X355770Y183469*
X356225Y183188*
X356225D02*
X356452Y182625D01*
Y182344*
X356225Y181781*
X355543Y181500*
X354861*
X354179Y181781*
X353952Y182344*
X363725Y187406D02*
Y181500D01*
X365770Y185438D02*
Y181500D01*
Y184313D02*
X366452Y185156D01*
X366907Y185438*
X366907D02*
X367588D01*
X367588D02*
X368043Y185156D01*
X368270Y184313*
X368270D02*
Y181500D01*
X372816Y184594D02*
X372588Y185156D01*
X371907Y185438*
X371907D02*
X371225D01*
X371225D02*
X370543Y185156D01*
X370316Y184594*
X370543Y184031*
X370997Y183750*
X372134Y183469*
X372588Y183188*
X372588D02*
X372816Y182625D01*
Y182344*
X372588Y181781*
X371907Y181500*
X371225*
X370543Y181781*
X370316Y182344*
X375543Y187406D02*
Y182625D01*
X375770Y181781*
X376225Y181500*
X376679*
X374861Y185438D02*
X376452D01*
X378725D02*
Y181500D01*
Y183750D02*
X378952Y184594D01*
X379407Y185156*
X379861Y185438*
X379861D02*
X380543D01*
X382588D02*
Y182625D01*
X382816Y181781*
X383270Y181500*
X383952*
X384407Y181781*
X385088Y182625*
Y185438D02*
Y181500D01*
X387134Y185438D02*
Y181500D01*
Y184313D02*
X387816Y185156D01*
X388270Y185438*
X388270D02*
X388952D01*
X388952D02*
X389407Y185156D01*
X389634Y184313*
X389634D02*
Y181500D01*
Y184313D02*
X390316Y185156D01*
X390770Y185438*
X390770D02*
X391452D01*
X391452D02*
X391907Y185156D01*
X392134Y184313*
X392134D02*
Y181500D01*
X394179Y183750D02*
X396907D01*
Y184313*
X396907D02*
X396679Y184875D01*
X396452Y185156*
X395997Y185438*
X395997D02*
X395316D01*
X395316D02*
X394861Y185156D01*
X394407Y184594*
X394179Y183750*
Y183188*
X394179D02*
X394407Y182344D01*
X394861Y181781*
X395316Y181500*
X395997*
X396452Y181781*
X396907Y182344*
X398952Y185438D02*
Y181500D01*
Y184313D02*
X399634Y185156D01*
X400088Y185438*
X400088D02*
X400770D01*
X400770D02*
X401225Y185156D01*
X401452Y184313*
X401452D02*
Y181500D01*
X404179Y187406D02*
Y182625D01*
X404407Y181781*
X404861Y181500*
X405316*
X403497Y185438D02*
X405088D01*
X409861Y184594D02*
X409634Y185156D01*
X408952Y185438*
X408952D02*
X408270D01*
X408270D02*
X407588Y185156D01*
X407361Y184594*
X407588Y184031*
X408043Y183750*
X409179Y183469*
X409634Y183188*
X409634D02*
X409861Y182625D01*
Y182344*
X409634Y181781*
X408952Y181500*
X408270*
X407588Y181781*
X407361Y182344*
X335134Y165906D02*
Y160000D01*
Y165906D02*
X338088D01*
X335134Y163094D02*
X336952D01*
X340361Y164500D02*
Y164781D01*
X340588Y165344*
X340816Y165625*
X341270Y165906*
X342179*
X342634Y165625*
X342861Y165344*
X343088Y164781*
Y164219*
X342861Y163656*
X342407Y162813*
X342407D02*
X340134Y160000D01*
X343316*
X346497Y165906D02*
X345816Y165625D01*
X345588Y165063*
X345588D02*
Y164500D01*
X345816Y163938*
X345816D02*
X346270Y163656D01*
X347179Y163375*
X347861Y163094*
X348316Y162531*
X348543Y161969*
Y161125*
X348316Y160563*
X348316D02*
X348088Y160281D01*
X347407Y160000*
X346497*
X345816Y160281*
X345588Y160563*
X345588D02*
X345361Y161125D01*
Y161969*
X345588Y162531*
X346043Y163094*
X346725Y163375*
X347634Y163656*
X348088Y163938*
X348088D02*
X348316Y164500D01*
Y165063*
X348316D02*
X348088Y165625D01*
X347407Y165906*
X346497*
X351952D02*
X351270Y165625D01*
X350816Y164781*
X350588Y163375*
Y162531*
X350816Y161125*
X351270Y160281*
X351952Y160000*
X352407*
X353088Y160281*
X353543Y161125*
X353770Y162531*
Y163375*
X353543Y164781*
X353088Y165625*
X352407Y165906*
X351952*
X356043Y164500D02*
Y164781D01*
X356270Y165344*
X356497Y165625*
X356952Y165906*
X357861*
X358316Y165625*
X358543Y165344*
X358770Y164781*
Y164219*
X358543Y163656*
X358088Y162813*
X358088D02*
X355816Y160000D01*
X358997*
X361043Y163938D02*
X363543Y160000D01*
Y163938D02*
X361043Y160000D01*
X365588Y163938D02*
X368088Y160000D01*
Y163938D02*
X365588Y160000D01*
X382179Y167031D02*
X381725Y166469D01*
X381270Y165625*
X380816Y164500*
X380588Y163094*
Y161969*
X380816Y160563*
X380816D02*
X381270Y159437D01*
X381270D02*
X381725Y158594D01*
X382179Y158031*
X384225Y165906D02*
Y160000D01*
Y165906D02*
X386270D01*
X386952Y165625*
X387179Y165344*
X387407Y164781*
Y163938*
X387407D02*
X387179Y163375D01*
X386952Y163094*
X386270Y162813*
X386270D02*
X384225D01*
X389452Y165906D02*
X389679Y165625D01*
X389907Y165906*
X389679Y166188*
X389679D02*
X389452Y165906D01*
X389679Y163938D02*
Y160000D01*
X394679Y163094D02*
X394225Y163656D01*
X393770Y163938*
X393770D02*
X393088D01*
X393088D02*
X392634Y163656D01*
X392179Y163094*
X391952Y162250*
Y161688*
X391952D02*
X392179Y160844D01*
X392634Y160281*
X393088Y160000*
X393770*
X394225Y160281*
X394679Y160844*
X399452Y163094D02*
X398997Y163656D01*
X398543Y163938*
X398543D02*
X397861D01*
X397861D02*
X397407Y163656D01*
X396952Y163094*
X396725Y162250*
Y161688*
X396725D02*
X396952Y160844D01*
X397407Y160281*
X397861Y160000*
X398543*
X398997Y160281*
X399452Y160844*
X402634Y163938D02*
X402179Y163656D01*
X401725Y163094*
X401497Y162250*
Y161688*
X401497D02*
X401725Y160844D01*
X402179Y160281*
X402634Y160000*
X403316*
X403770Y160281*
X404225Y160844*
X404452Y161688*
X404452D02*
Y162250D01*
X404225Y163094*
X403770Y163656*
X403316Y163938*
X403316D02*
X402634D01*
X406497Y165906D02*
Y160000D01*
X409679Y163938D02*
X409225Y163656D01*
X408770Y163094*
X408543Y162250*
Y161688*
X408543D02*
X408770Y160844D01*
X409225Y160281*
X409679Y160000*
X410361*
X410816Y160281*
X411270Y160844*
X411497Y161688*
X411497D02*
Y162250D01*
X411270Y163094*
X410816Y163656*
X410361Y163938*
X410361D02*
X409679D01*
X413543Y162531D02*
X417634D01*
X421497Y165906D02*
X419679Y160000D01*
X421497Y165906D02*
X423316Y160000D01*
X420361Y161969D02*
X422634D01*
X425361Y167031D02*
X425816Y166469D01*
X426270Y165625*
X426725Y164500*
X426952Y163094*
Y161969*
X426725Y160563*
X426725D02*
X426270Y159437D01*
X426270D02*
X425816Y158594D01*
X425361Y158031*
X436952Y163094D02*
X436497Y163656D01*
X436043Y163938*
X436043D02*
X435361D01*
X435361D02*
X434907Y163656D01*
X434452Y163094*
X434225Y162250*
Y161688*
X434225D02*
X434452Y160844D01*
X434907Y160281*
X435361Y160000*
X436043*
X436497Y160281*
X436952Y160844*
X440134Y163938D02*
X439679Y163656D01*
X439225Y163094*
X438997Y162250*
Y161688*
X438997D02*
X439225Y160844D01*
X439679Y160281*
X440134Y160000*
X440816*
X441270Y160281*
X441725Y160844*
X441952Y161688*
X441952D02*
Y162250D01*
X441725Y163094*
X441270Y163656*
X440816Y163938*
X440816D02*
X440134D01*
X443997D02*
Y160000D01*
Y162813D02*
X444679Y163656D01*
X445134Y163938*
X445134D02*
X445816D01*
X445816D02*
X446270Y163656D01*
X446497Y162813*
X446497D02*
Y160000D01*
X449225Y165906D02*
Y161125D01*
X449452Y160281*
X449907Y160000*
X450361*
X448543Y163938D02*
X450134D01*
X452407D02*
Y160000D01*
Y162250D02*
X452634Y163094D01*
X453088Y163656*
X453543Y163938*
X453543D02*
X454225D01*
X457407D02*
X456952Y163656D01*
X456497Y163094*
X456270Y162250*
Y161688*
X456270D02*
X456497Y160844D01*
X456952Y160281*
X457407Y160000*
X458088*
X458543Y160281*
X458997Y160844*
X459225Y161688*
X459225D02*
Y162250D01*
X458997Y163094*
X458543Y163656*
X458088Y163938*
X458088D02*
X457407D01*
X461270Y165906D02*
Y160000D01*
X466725Y164500D02*
X466497Y165063D01*
X466497D02*
X466043Y165625D01*
X465588Y165906*
X464679*
X464225Y165625*
X463770Y165063*
X463770D02*
X463543Y164500D01*
X463316Y163656*
Y162250*
X463543Y161406*
X463770Y160844*
X464225Y160281*
X464679Y160000*
X465588*
X466043Y160281*
X466497Y160844*
X466725Y161406*
X470588Y165906D02*
X468770Y160000D01*
X470588Y165906D02*
X472407Y160000D01*
X469452Y161969D02*
X471725D01*
X474452Y165906D02*
Y160000D01*
Y165906D02*
X476497D01*
X477179Y165625*
X477407Y165344*
X477634Y164781*
Y164219*
X477407Y163656*
X477179Y163375*
X476497Y163094*
X474452*
X476043D02*
X477634Y160000D01*
X479679Y165906D02*
Y160000D01*
Y165906D02*
X481270D01*
X481952Y165625*
X482407Y165063*
X482407D02*
X482634Y164500D01*
X482861Y163656*
Y162250*
X482634Y161406*
X482407Y160844*
X481952Y160281*
X481270Y160000*
X479679*
X335134Y140906D02*
Y135000D01*
Y140906D02*
X337179D01*
X337861Y140625*
X338088Y140344*
X338316Y139781*
Y139219*
X338088Y138656*
X337861Y138375*
X337179Y138094*
X335134*
X336725D02*
X338316Y135000D01*
X340361Y137250D02*
X343088D01*
Y137813*
X343088D02*
X342861Y138375D01*
X342634Y138656*
X342179Y138938*
X342179D02*
X341497D01*
X341497D02*
X341043Y138656D01*
X340588Y138094*
X340361Y137250*
Y136688*
X340361D02*
X340588Y135844D01*
X341043Y135281*
X341497Y135000*
X342179*
X342634Y135281*
X343088Y135844*
X345134Y140906D02*
Y135000D01*
X347179Y137250D02*
X349907D01*
Y137813*
X349907D02*
X349679Y138375D01*
X349452Y138656*
X348997Y138938*
X348997D02*
X348316D01*
X348316D02*
X347861Y138656D01*
X347407Y138094*
X347179Y137250*
Y136688*
X347179D02*
X347407Y135844D01*
X347861Y135281*
X348316Y135000*
X348997*
X349452Y135281*
X349907Y135844*
X354679Y138938D02*
Y135000D01*
Y138094D02*
X354225Y138656D01*
X353770Y138938*
X353770D02*
X353088D01*
X353088D02*
X352634Y138656D01*
X352179Y138094*
X351952Y137250*
Y136688*
X351952D02*
X352179Y135844D01*
X352634Y135281*
X353088Y135000*
X353770*
X354225Y135281*
X354679Y135844*
X359225Y138094D02*
X358997Y138656D01*
X358316Y138938*
X358316D02*
X357634D01*
X357634D02*
X356952Y138656D01*
X356725Y138094*
X356952Y137531*
X357407Y137250*
X358543Y136969*
X358997Y136688*
X358997D02*
X359225Y136125D01*
Y135844*
X358997Y135281*
X358316Y135000*
X357634*
X356952Y135281*
X356725Y135844*
X361270Y137250D02*
X363997D01*
Y137813*
X363997D02*
X363770Y138375D01*
X363543Y138656*
X363088Y138938*
X363088D02*
X362407D01*
X362407D02*
X361952Y138656D01*
X361497Y138094*
X361270Y137250*
Y136688*
X361270D02*
X361497Y135844D01*
X361952Y135281*
X362407Y135000*
X363088*
X363543Y135281*
X363997Y135844*
X371270Y139781D02*
X371725Y140063D01*
X371725D02*
X372407Y140906D01*
Y135000*
X374679Y135563D02*
X374452Y135281D01*
X374679Y135000*
X374907Y135281*
X374679Y135563*
X378316Y140906D02*
X377634Y140625D01*
X377179Y139781*
X376952Y138375*
Y137531*
X377179Y136125*
X377634Y135281*
X378316Y135000*
X378770*
X379452Y135281*
X379907Y136125*
X380134Y137531*
Y138375*
X379907Y139781*
X379452Y140625*
X378770Y140906*
X378316*
X331953Y117302D02*
Y111395D01*
Y117302D02*
X333544D01*
X334226Y117020*
X334680Y116458*
X334908Y115895*
X335135Y115052*
Y113645*
X334908Y112802*
X334680Y112239*
X334226Y111677*
X333544Y111395*
X331953*
X337180Y117302D02*
Y111395D01*
Y117302D02*
X339226D01*
X339908Y117020*
X340135Y116739*
X340362Y116177*
Y115614*
X340135Y115052*
X339908Y114770*
X339226Y114489*
X337180*
X338771D02*
X340362Y111395D01*
X342408Y117302D02*
Y111395D01*
X344453Y117302D02*
Y111395D01*
X347180*
X349226Y117302D02*
Y111395D01*
X351953*
X359226Y117302D02*
Y111395D01*
Y117302D02*
X360817D01*
X361499Y117020*
X361953Y116458*
X362180Y115895*
X362408Y115052*
Y113645*
X362180Y112802*
X361953Y112239*
X361499Y111677*
X360817Y111395*
X359226*
X364453Y117302D02*
Y111395D01*
Y117302D02*
X366499D01*
X367180Y117020*
X367408Y116739*
X367635Y116177*
Y115614*
X367408Y115052*
X367180Y114770*
X366499Y114489*
X364453*
X366044D02*
X367635Y111395D01*
X371499Y117302D02*
X369680Y111395D01*
X371499Y117302D02*
X373317Y111395D01*
X370362Y113364D02*
X372635D01*
X375362Y117302D02*
X376499Y111395D01*
X377635Y117302D02*
X376499Y111395D01*
X377635Y117302D02*
X378771Y111395D01*
X379908Y117302D02*
X378771Y111395D01*
X381953Y117302D02*
Y111395D01*
X383999Y117302D02*
Y111395D01*
Y117302D02*
X387180Y111395D01*
Y117302D02*
Y111395D01*
X392635Y115895D02*
X392408Y116458D01*
X391953Y117020*
X391499Y117302*
X390589*
X390135Y117020*
X389680Y116458*
X389453Y115895*
X389226Y115052*
Y113645*
X389453Y112802*
X389680Y112239*
X390135Y111677*
X390589Y111395*
X391499*
X391953Y111677*
X392408Y112239*
X392635Y112802*
Y113645*
X391499D02*
X392635D01*
X569240Y365760D02*
X809540D01*
Y565760*
X569240*
Y365760*
Y545760D02*
X809540D01*
X569240Y528260D02*
X809540D01*
X569240Y505760D02*
X809540D01*
X569240Y485760D02*
X809540D01*
X569240Y465760D02*
X809540D01*
X569240Y445760D02*
X809540D01*
X569240Y425760D02*
X809540D01*
X661740Y565760D02*
Y425760D01*
X673149Y518260D02*
X672922Y518822D01*
X672467Y519385*
X672013Y519666*
X671104*
X670649Y519385*
X670195Y518822*
X669967Y518260*
X669740Y517416*
Y516010*
X669967Y515166*
X670195Y514604*
X670649Y514041*
X671104Y513760*
X672013*
X672467Y514041*
X672922Y514604*
X673149Y515166*
Y516010*
X672013D02*
X673149D01*
X676331Y517697D02*
X675877Y517416D01*
X675422Y516854*
X675195Y516010*
Y515447*
X675422Y514604*
X675877Y514041*
X676331Y513760*
X677013*
X677467Y514041*
X677922Y514604*
X678149Y515447*
Y516010*
X677922Y516854*
X677467Y517416*
X677013Y517697*
X676331*
X680195Y519666D02*
Y513760D01*
X684967Y519666D02*
Y513760D01*
Y516854D02*
X684513Y517416D01*
X684058Y517697*
X683377*
X682922Y517416*
X682467Y516854*
X682240Y516010*
Y515447*
X682467Y514604*
X682922Y514041*
X683377Y513760*
X684058*
X684513Y514041*
X684967Y514604*
X692240Y519666D02*
Y513760D01*
Y519666D02*
X695195D01*
X692240Y516854D02*
X694058D01*
X697240Y519666D02*
X697467Y519385D01*
X697695Y519666*
X697467Y519947*
X697240Y519666*
X697467Y517697D02*
Y513760D01*
X699740Y517697D02*
Y513760D01*
Y516572D02*
X700422Y517416D01*
X700877Y517697*
X701558*
X702013Y517416*
X702240Y516572*
Y513760*
X707013Y517697D02*
Y513197D01*
X706786Y512354*
X706558Y512072*
X706104Y511791*
X705422*
X704967Y512072*
X707013Y516854D02*
X706558Y517416D01*
X706104Y517697*
X705422*
X704967Y517416*
X704513Y516854*
X704286Y516010*
Y515447*
X704513Y514604*
X704967Y514041*
X705422Y513760*
X706104*
X706558Y514041*
X707013Y514604*
X709058Y516010D02*
X711786D01*
Y516572*
X711558Y517135*
X711331Y517416*
X710877Y517697*
X710195*
X709740Y517416*
X709286Y516854*
X709058Y516010*
Y515447*
X709286Y514604*
X709740Y514041*
X710195Y513760*
X710877*
X711331Y514041*
X711786Y514604*
X713831Y517697D02*
Y513760D01*
Y516010D02*
X714058Y516854D01*
X714513Y517416*
X714967Y517697*
X715649*
X720195Y516854D02*
X719967Y517416D01*
X719286Y517697*
X718604*
X717922Y517416*
X717695Y516854*
X717922Y516291*
X718377Y516010*
X719513Y515729*
X719967Y515447*
X720195Y514885*
Y514604*
X719967Y514041*
X719286Y513760*
X718604*
X717922Y514041*
X717695Y514604*
X575649Y555760D02*
X575422Y556322D01*
X574967Y556885*
X574513Y557166*
X573604*
X573149Y556885*
X572695Y556322*
X572467Y555760*
X572240Y554916*
Y553510*
X572467Y552666*
X572695Y552104*
X573149Y551541*
X573604Y551260*
X574513*
X574967Y551541*
X575422Y552104*
X575649Y552666*
X577695Y555197D02*
Y552385D01*
X577922Y551541*
X578377Y551260*
X579058*
X579513Y551541*
X580195Y552385*
Y555197D02*
Y551260D01*
X582467Y551822D02*
X582240Y551541D01*
X582467Y551260*
X582695Y551541*
X582467Y551822*
X589967Y555197D02*
X590877Y551260D01*
X591786Y555197D02*
X590877Y551260D01*
X591786Y555197D02*
X592695Y551260D01*
X593604Y555197D02*
X592695Y551260D01*
X595649Y553510D02*
X598377D01*
Y554072*
X598149Y554635*
X597922Y554916*
X597467Y555197*
X596786*
X596331Y554916*
X595877Y554354*
X595649Y553510*
Y552947*
X595877Y552104*
X596331Y551541*
X596786Y551260*
X597467*
X597922Y551541*
X598377Y552104*
X600422Y557166D02*
X600649Y556885D01*
X600877Y557166*
X600649Y557447*
X600422Y557166*
X600649Y555197D02*
Y551260D01*
X605649Y555197D02*
Y550697D01*
X605422Y549854*
X605195Y549572*
X604740Y549291*
X604058*
X603604Y549572*
X605649Y554354D02*
X605195Y554916D01*
X604740Y555197*
X604058*
X603604Y554916*
X603149Y554354*
X602922Y553510*
Y552947*
X603149Y552104*
X603604Y551541*
X604058Y551260*
X604740*
X605195Y551541*
X605649Y552104*
X607695Y557166D02*
Y551260D01*
Y554072D02*
X608377Y554916D01*
X608831Y555197*
X609513*
X609967Y554916*
X610195Y554072*
Y551260*
X612922Y557166D02*
Y552385D01*
X613149Y551541*
X613604Y551260*
X614058*
X612240Y555197D02*
X613831D01*
X622922Y558291D02*
X622467Y557729D01*
X622013Y556885*
X621558Y555760*
X621331Y554354*
Y553229*
X621558Y551822*
X622013Y550697*
X622467Y549854*
X622922Y549291*
X626786Y557166D02*
X626331D01*
X625877Y556885*
X625649Y556041*
Y551260*
X624967Y555197D02*
X626558D01*
X628831Y557166D02*
X629058Y556885D01*
X629286Y557166*
X629058Y557447*
X628831Y557166*
X629058Y555197D02*
Y551260D01*
X631331Y555197D02*
Y551260D01*
Y554072D02*
X632013Y554916D01*
X632467Y555197*
X633149*
X633604Y554916*
X633831Y554072*
Y551260*
X635877Y557166D02*
X636104Y556885D01*
X636331Y557166*
X636104Y557447*
X635877Y557166*
X636104Y555197D02*
Y551260D01*
X640877Y554354D02*
X640649Y554916D01*
X639967Y555197*
X639286*
X638604Y554916*
X638377Y554354*
X638604Y553791*
X639058Y553510*
X640195Y553229*
X640649Y552947*
X640877Y552385*
Y552104*
X640649Y551541*
X639967Y551260*
X639286*
X638604Y551541*
X638377Y552104*
X642922Y557166D02*
Y551260D01*
Y554072D02*
X643604Y554916D01*
X644058Y555197*
X644740*
X645195Y554916*
X645422Y554072*
Y551260*
X647467Y553510D02*
X650195D01*
Y554072*
X649967Y554635*
X649740Y554916*
X649286Y555197*
X648604*
X648149Y554916*
X647695Y554354*
X647467Y553510*
Y552947*
X647695Y552104*
X648149Y551541*
X648604Y551260*
X649286*
X649740Y551541*
X650195Y552104*
X654967Y557166D02*
Y551260D01*
Y554354D02*
X654513Y554916D01*
X654058Y555197*
X653377*
X652922Y554916*
X652467Y554354*
X652240Y553510*
Y552947*
X652467Y552104*
X652922Y551541*
X653377Y551260*
X654058*
X654513Y551541*
X654967Y552104*
X657013Y558291D02*
X657467Y557729D01*
X657922Y556885*
X658377Y555760*
X658604Y554354*
Y553229*
X658377Y551822*
X657922Y550697*
X657467Y549854*
X657013Y549291*
X572240Y539666D02*
Y533760D01*
Y539666D02*
X574286D01*
X574967Y539385*
X575195Y539104*
X575422Y538541*
Y537979*
X575195Y537416*
X574967Y537135*
X574286Y536854*
X572240D02*
X574286D01*
X574967Y536572*
X575195Y536291*
X575422Y535729*
Y534885*
X575195Y534322*
X574967Y534041*
X574286Y533760*
X572240*
X578604Y537697D02*
X578149Y537416D01*
X577695Y536854*
X577467Y536010*
Y535447*
X577695Y534604*
X578149Y534041*
X578604Y533760*
X579286*
X579740Y534041*
X580195Y534604*
X580422Y535447*
Y536010*
X580195Y536854*
X579740Y537416*
X579286Y537697*
X578604*
X585195D02*
Y533760D01*
Y536854D02*
X584740Y537416D01*
X584286Y537697*
X583604*
X583149Y537416*
X582695Y536854*
X582467Y536010*
Y535447*
X582695Y534604*
X583149Y534041*
X583604Y533760*
X584286*
X584740Y534041*
X585195Y534604*
X587240Y537697D02*
Y533760D01*
Y536010D02*
X587467Y536854D01*
X587922Y537416*
X588377Y537697*
X589058*
X593831Y539666D02*
Y533760D01*
Y536854D02*
X593377Y537416D01*
X592922Y537697*
X592240*
X591786Y537416*
X591331Y536854*
X591104Y536010*
Y535447*
X591331Y534604*
X591786Y534041*
X592240Y533760*
X592922*
X593377Y534041*
X593831Y534604*
X602922Y539666D02*
X602467D01*
X602013Y539385*
X601786Y538541*
Y533760*
X601104Y537697D02*
X602695D01*
X604967Y539666D02*
X605195Y539385D01*
X605422Y539666*
X605195Y539947*
X604967Y539666*
X605195Y537697D02*
Y533760D01*
X607467Y537697D02*
Y533760D01*
Y536572D02*
X608149Y537416D01*
X608604Y537697*
X609286*
X609740Y537416*
X609967Y536572*
Y533760*
X612013Y539666D02*
X612240Y539385D01*
X612467Y539666*
X612240Y539947*
X612013Y539666*
X612240Y537697D02*
Y533760D01*
X617013Y536854D02*
X616786Y537416D01*
X616104Y537697*
X615422*
X614740Y537416*
X614513Y536854*
X614740Y536291*
X615195Y536010*
X616331Y535729*
X616786Y535447*
X617013Y534885*
Y534604*
X616786Y534041*
X616104Y533760*
X615422*
X614740Y534041*
X614513Y534604*
X619058Y539666D02*
Y533760D01*
Y536572D02*
X619740Y537416D01*
X620195Y537697*
X620877*
X621331Y537416*
X621558Y536572*
Y533760*
X572240Y497166D02*
Y491260D01*
Y497166D02*
X574286D01*
X574967Y496885*
X575195Y496604*
X575422Y496041*
Y495479*
X575195Y494916*
X574967Y494635*
X574286Y494354*
X572240D02*
X574286D01*
X574967Y494072*
X575195Y493791*
X575422Y493229*
Y492385*
X575195Y491822*
X574967Y491541*
X574286Y491260*
X572240*
X578604Y495197D02*
X578149Y494916D01*
X577695Y494354*
X577467Y493510*
Y492947*
X577695Y492104*
X578149Y491541*
X578604Y491260*
X579286*
X579740Y491541*
X580195Y492104*
X580422Y492947*
Y493510*
X580195Y494354*
X579740Y494916*
X579286Y495197*
X578604*
X585195D02*
Y491260D01*
Y494354D02*
X584740Y494916D01*
X584286Y495197*
X583604*
X583149Y494916*
X582695Y494354*
X582467Y493510*
Y492947*
X582695Y492104*
X583149Y491541*
X583604Y491260*
X584286*
X584740Y491541*
X585195Y492104*
X587240Y495197D02*
Y491260D01*
Y493510D02*
X587467Y494354D01*
X587922Y494916*
X588377Y495197*
X589058*
X593831Y497166D02*
Y491260D01*
Y494354D02*
X593377Y494916D01*
X592922Y495197*
X592240*
X591786Y494916*
X591331Y494354*
X591104Y493510*
Y492947*
X591331Y492104*
X591786Y491541*
X592240Y491260*
X592922*
X593377Y491541*
X593831Y492104*
X601786Y497166D02*
Y492385D01*
X602013Y491541*
X602467Y491260*
X602922*
X601104Y495197D02*
X602695D01*
X604967Y497166D02*
Y491260D01*
Y494072D02*
X605649Y494916D01*
X606104Y495197*
X606786*
X607240Y494916*
X607467Y494072*
Y491260*
X609513Y497166D02*
X609740Y496885D01*
X609967Y497166*
X609740Y497447*
X609513Y497166*
X609740Y495197D02*
Y491260D01*
X614740Y494354D02*
X614286Y494916D01*
X613831Y495197*
X613149*
X612695Y494916*
X612240Y494354*
X612013Y493510*
Y492947*
X612240Y492104*
X612695Y491541*
X613149Y491260*
X613831*
X614286Y491541*
X614740Y492104*
X616786Y497166D02*
Y491260D01*
X619058Y495197D02*
X616786Y492385D01*
X617695Y493510D02*
X619286Y491260D01*
X621331Y495197D02*
Y491260D01*
Y494072D02*
X622013Y494916D01*
X622467Y495197*
X623149*
X623604Y494916*
X623831Y494072*
Y491260*
X625877Y493510D02*
X628604D01*
Y494072*
X628377Y494635*
X628149Y494916*
X627695Y495197*
X627013*
X626558Y494916*
X626104Y494354*
X625877Y493510*
Y492947*
X626104Y492104*
X626558Y491541*
X627013Y491260*
X627695*
X628149Y491541*
X628604Y492104*
X633149Y494354D02*
X632922Y494916D01*
X632240Y495197*
X631558*
X630877Y494916*
X630649Y494354*
X630877Y493791*
X631331Y493510*
X632467Y493229*
X632922Y492947*
X633149Y492385*
Y492104*
X632922Y491541*
X632240Y491260*
X631558*
X630877Y491541*
X630649Y492104*
X637695Y494354D02*
X637467Y494916D01*
X636786Y495197*
X636104*
X635422Y494916*
X635195Y494354*
X635422Y493791*
X635877Y493510*
X637013Y493229*
X637467Y492947*
X637695Y492385*
Y492104*
X637467Y491541*
X636786Y491260*
X636104*
X635422Y491541*
X635195Y492104*
X572240Y477166D02*
Y471260D01*
X574286Y475197D02*
Y471260D01*
Y474072D02*
X574967Y474916D01*
X575422Y475197*
X576104*
X576558Y474916*
X576786Y474072*
Y471260*
Y474072D02*
X577467Y474916D01*
X577922Y475197*
X578604*
X579058Y474916*
X579286Y474072*
Y471260*
X581331Y475197D02*
Y469291D01*
Y474354D02*
X581786Y474916D01*
X582240Y475197*
X582922*
X583377Y474916*
X583831Y474354*
X584058Y473510*
Y472947*
X583831Y472104*
X583377Y471541*
X582922Y471260*
X582240*
X581786Y471541*
X581331Y472104*
X586104Y473510D02*
X588831D01*
Y474072*
X588604Y474635*
X588377Y474916*
X587922Y475197*
X587240*
X586786Y474916*
X586331Y474354*
X586104Y473510*
Y472947*
X586331Y472104*
X586786Y471541*
X587240Y471260*
X587922*
X588377Y471541*
X588831Y472104*
X593604Y477166D02*
Y471260D01*
Y474354D02*
X593149Y474916D01*
X592695Y475197*
X592013*
X591558Y474916*
X591104Y474354*
X590877Y473510*
Y472947*
X591104Y472104*
X591558Y471541*
X592013Y471260*
X592695*
X593149Y471541*
X593604Y472104*
X598377Y475197D02*
Y471260D01*
Y474354D02*
X597922Y474916D01*
X597467Y475197*
X596786*
X596331Y474916*
X595877Y474354*
X595649Y473510*
Y472947*
X595877Y472104*
X596331Y471541*
X596786Y471260*
X597467*
X597922Y471541*
X598377Y472104*
X600422Y475197D02*
Y471260D01*
Y474072D02*
X601104Y474916D01*
X601558Y475197*
X602240*
X602695Y474916*
X602922Y474072*
Y471260*
X607695Y474354D02*
X607240Y474916D01*
X606786Y475197*
X606104*
X605649Y474916*
X605195Y474354*
X604967Y473510*
Y472947*
X605195Y472104*
X605649Y471541*
X606104Y471260*
X606786*
X607240Y471541*
X607695Y472104*
X609740Y473510D02*
X612467D01*
Y474072*
X612240Y474635*
X612013Y474916*
X611558Y475197*
X610877*
X610422Y474916*
X609967Y474354*
X609740Y473510*
Y472947*
X609967Y472104*
X610422Y471541*
X610877Y471260*
X611558*
X612013Y471541*
X612467Y472104*
X575422Y456322D02*
X574967Y456885D01*
X574286Y457166*
X573377*
X572695Y456885*
X572240Y456322*
Y455760*
X572467Y455197*
X572695Y454916*
X573149Y454635*
X574513Y454072*
X574967Y453791*
X575195Y453510*
X575422Y452947*
Y452104*
X574967Y451541*
X574286Y451260*
X573377*
X572695Y451541*
X572240Y452104*
X577467Y457166D02*
X577695Y456885D01*
X577922Y457166*
X577695Y457447*
X577467Y457166*
X577695Y455197D02*
Y451260D01*
X579967Y457166D02*
Y451260D01*
X582013Y457166D02*
Y451260D01*
X584286Y455197D02*
X582013Y452385D01*
X582922Y453510D02*
X584513Y451260D01*
X589058Y454354D02*
X588831Y454916D01*
X588149Y455197*
X587467*
X586786Y454916*
X586558Y454354*
X586786Y453791*
X587240Y453510*
X588377Y453229*
X588831Y452947*
X589058Y452385*
Y452104*
X588831Y451541*
X588149Y451260*
X587467*
X586786Y451541*
X586558Y452104*
X593831Y454354D02*
X593377Y454916D01*
X592922Y455197*
X592240*
X591786Y454916*
X591331Y454354*
X591104Y453510*
Y452947*
X591331Y452104*
X591786Y451541*
X592240Y451260*
X592922*
X593377Y451541*
X593831Y452104*
X595877Y455197D02*
Y451260D01*
Y453510D02*
X596104Y454354D01*
X596558Y454916*
X597013Y455197*
X597695*
X599740Y453510D02*
X602467D01*
Y454072*
X602240Y454635*
X602013Y454916*
X601558Y455197*
X600877*
X600422Y454916*
X599967Y454354*
X599740Y453510*
Y452947*
X599967Y452104*
X600422Y451541*
X600877Y451260*
X601558*
X602013Y451541*
X602467Y452104*
X604513Y453510D02*
X607240D01*
Y454072*
X607013Y454635*
X606786Y454916*
X606331Y455197*
X605649*
X605195Y454916*
X604740Y454354*
X604513Y453510*
Y452947*
X604740Y452104*
X605195Y451541*
X605649Y451260*
X606331*
X606786Y451541*
X607240Y452104*
X609286Y455197D02*
Y451260D01*
Y454072D02*
X609967Y454916D01*
X610422Y455197*
X611104*
X611558Y454916*
X611786Y454072*
Y451260*
X575422Y436322D02*
X574967Y436885D01*
X574286Y437166*
X573377*
X572695Y436885*
X572240Y436322*
Y435760*
X572467Y435197*
X572695Y434916*
X573149Y434635*
X574513Y434072*
X574967Y433791*
X575195Y433510*
X575422Y432947*
Y432104*
X574967Y431541*
X574286Y431260*
X573377*
X572695Y431541*
X572240Y432104*
X578604Y435197D02*
X578149Y434916D01*
X577695Y434354*
X577467Y433510*
Y432947*
X577695Y432104*
X578149Y431541*
X578604Y431260*
X579286*
X579740Y431541*
X580195Y432104*
X580422Y432947*
Y433510*
X580195Y434354*
X579740Y434916*
X579286Y435197*
X578604*
X582467Y437166D02*
Y431260D01*
X587240Y437166D02*
Y431260D01*
Y434354D02*
X586786Y434916D01*
X586331Y435197*
X585649*
X585195Y434916*
X584740Y434354*
X584513Y433510*
Y432947*
X584740Y432104*
X585195Y431541*
X585649Y431260*
X586331*
X586786Y431541*
X587240Y432104*
X589286Y433510D02*
X592013D01*
Y434072*
X591786Y434635*
X591558Y434916*
X591104Y435197*
X590422*
X589967Y434916*
X589513Y434354*
X589286Y433510*
Y432947*
X589513Y432104*
X589967Y431541*
X590422Y431260*
X591104*
X591558Y431541*
X592013Y432104*
X594058Y435197D02*
Y431260D01*
Y433510D02*
X594286Y434354D01*
X594740Y434916*
X595195Y435197*
X595877*
X597922D02*
Y431260D01*
Y434072D02*
X598604Y434916D01*
X599058Y435197*
X599740*
X600195Y434916*
X600422Y434072*
Y431260*
Y434072D02*
X601104Y434916D01*
X601558Y435197*
X602240*
X602695Y434916*
X602922Y434072*
Y431260*
X607695Y435197D02*
Y431260D01*
Y434354D02*
X607240Y434916D01*
X606786Y435197*
X606104*
X605649Y434916*
X605195Y434354*
X604967Y433510*
Y432947*
X605195Y432104*
X605649Y431541*
X606104Y431260*
X606786*
X607240Y431541*
X607695Y432104*
X612240Y434354D02*
X612013Y434916D01*
X611331Y435197*
X610649*
X609967Y434916*
X609740Y434354*
X609967Y433791*
X610422Y433510*
X611558Y433229*
X612013Y432947*
X612240Y432385*
Y432104*
X612013Y431541*
X611331Y431260*
X610649*
X609967Y431541*
X609740Y432104*
X614286Y437166D02*
Y431260D01*
X616558Y435197D02*
X614286Y432385D01*
X615195Y433510D02*
X616786Y431260D01*
X669740Y539666D02*
Y533760D01*
X672922Y539666D02*
Y533760D01*
X669740Y536854D02*
X672922D01*
X676786Y539666D02*
X674967Y533760D01*
X676786Y539666D02*
X678604Y533760D01*
X675649Y535729D02*
X677922D01*
X683831Y538822D02*
X683377Y539385D01*
X682695Y539666*
X681786*
X681104Y539385*
X680649Y538822*
Y538260*
X680877Y537697*
X681104Y537416*
X681558Y537135*
X682922Y536572*
X683377Y536291*
X683604Y536010*
X683831Y535447*
Y534604*
X683377Y534041*
X682695Y533760*
X681786*
X681104Y534041*
X680649Y534604*
X685877Y539666D02*
Y533760D01*
X688604*
X694740Y540791D02*
X690649Y531791D01*
X699967Y538822D02*
X699513Y539385D01*
X698831Y539666*
X697922*
X697240Y539385*
X696786Y538822*
Y538260*
X697013Y537697*
X697240Y537416*
X697695Y537135*
X699058Y536572*
X699513Y536291*
X699740Y536010*
X699967Y535447*
Y534604*
X699513Y534041*
X698831Y533760*
X697922*
X697240Y534041*
X696786Y534604*
X702013Y539666D02*
Y533760D01*
Y539666D02*
X703831Y533760D01*
X705649Y539666D02*
X703831Y533760D01*
X705649Y539666D02*
Y533760D01*
X709058Y539666D02*
X708604Y539385D01*
X708149Y538822*
X707922Y538260*
X707695Y537416*
Y536010*
X707922Y535166*
X708149Y534604*
X708604Y534041*
X709058Y533760*
X709967*
X710422Y534041*
X710877Y534604*
X711104Y535166*
X711331Y536010*
Y537416*
X711104Y538260*
X710877Y538822*
X710422Y539385*
X709967Y539666*
X709058*
X713377D02*
Y533760D01*
Y539666D02*
X715422D01*
X716104Y539385*
X716331Y539104*
X716558Y538541*
Y537979*
X716331Y537416*
X716104Y537135*
X715422Y536854*
X713377D02*
X715422D01*
X716104Y536572*
X716331Y536291*
X716558Y535729*
Y534885*
X716331Y534322*
X716104Y534041*
X715422Y533760*
X713377*
X722013Y538260D02*
X721786Y538822D01*
X721331Y539385*
X720877Y539666*
X719967*
X719513Y539385*
X719058Y538822*
X718831Y538260*
X718604Y537416*
Y536010*
X718831Y535166*
X719058Y534604*
X719513Y534041*
X719967Y533760*
X720877*
X721331Y534041*
X721786Y534604*
X722013Y535166*
X575649Y518260D02*
X575422Y518822D01*
X574967Y519385*
X574513Y519666*
X573604*
X573149Y519385*
X572695Y518822*
X572467Y518260*
X572240Y517416*
Y516010*
X572467Y515166*
X572695Y514604*
X573149Y514041*
X573604Y513760*
X574513*
X574967Y514041*
X575422Y514604*
X575649Y515166*
Y516010*
X574513D02*
X575649D01*
X579058Y519666D02*
X578604Y519385D01*
X578149Y518822*
X577922Y518260*
X577695Y517416*
Y516010*
X577922Y515166*
X578149Y514604*
X578604Y514041*
X579058Y513760*
X579967*
X580422Y514041*
X580877Y514604*
X581104Y515166*
X581331Y516010*
Y517416*
X581104Y518260*
X580877Y518822*
X580422Y519385*
X579967Y519666*
X579058*
X583377D02*
Y513760D01*
X586104*
X588149Y519666D02*
Y513760D01*
Y519666D02*
X589740D01*
X590422Y519385*
X590877Y518822*
X591104Y518260*
X591331Y517416*
Y516010*
X591104Y515166*
X590877Y514604*
X590422Y514041*
X589740Y513760*
X588149*
X667467Y491822D02*
X667240Y491541D01*
X667467Y491260*
X667695Y491541*
X667467Y491822*
X671104Y497166D02*
X670422Y496885D01*
X669967Y496041*
X669740Y494635*
Y493791*
X669967Y492385*
X670422Y491541*
X671104Y491260*
X671558*
X672240Y491541*
X672695Y492385*
X672922Y493791*
Y494635*
X672695Y496041*
X672240Y496885*
X671558Y497166*
X671104*
X677922D02*
X675649D01*
X675422Y494635*
X675649Y494916*
X676331Y495197*
X677013*
X677695Y494916*
X678149Y494354*
X678377Y493510*
X678149Y492947*
X677922Y492104*
X677467Y491541*
X676786Y491260*
X676104*
X675422Y491541*
X675195Y491822*
X674967Y492385*
X683377Y497166D02*
X681104D01*
X680877Y494635*
X681104Y494916*
X681786Y495197*
X682467*
X683149Y494916*
X683604Y494354*
X683831Y493510*
X683604Y492947*
X683377Y492104*
X682922Y491541*
X682240Y491260*
X681558*
X680877Y491541*
X680649Y491822*
X680422Y492385*
X693149Y496322D02*
Y491260D01*
X691104Y493791D02*
X695195D01*
X701331Y498291D02*
X697240Y489291D01*
X703377Y493791D02*
X707467D01*
X714967Y491822D02*
X714740Y491541D01*
X714967Y491260*
X715195Y491541*
X714967Y491822*
X718604Y497166D02*
X717922Y496885D01*
X717467Y496041*
X717240Y494635*
Y493791*
X717467Y492385*
X717922Y491541*
X718604Y491260*
X719058*
X719740Y491541*
X720195Y492385*
X720422Y493791*
Y494635*
X720195Y496041*
X719740Y496885*
X719058Y497166*
X718604*
X723831D02*
X723149Y496885D01*
X722695Y496041*
X722467Y494635*
Y493791*
X722695Y492385*
X723149Y491541*
X723831Y491260*
X724286*
X724967Y491541*
X725422Y492385*
X725649Y493791*
Y494635*
X725422Y496041*
X724967Y496885*
X724286Y497166*
X723831*
X730877D02*
X728604Y491260D01*
X727695Y497166D02*
X730877D01*
X667240Y477166D02*
Y471260D01*
Y477166D02*
X670422Y471260D01*
Y477166D02*
Y471260D01*
X676558Y478291D02*
X672467Y469291D01*
X680422Y477166D02*
X678604Y471260D01*
X680422Y477166D02*
X682240Y471260D01*
X679286Y473229D02*
X681558D01*
X667240Y457166D02*
X668377Y451260D01*
X669513Y457166D02*
X668377Y451260D01*
X669513Y457166D02*
X670649Y451260D01*
X671786Y457166D02*
X670649Y451260D01*
X673831Y457166D02*
Y451260D01*
Y454072D02*
X674513Y454916D01*
X674967Y455197*
X675649*
X676104Y454916*
X676331Y454072*
Y451260*
X678377Y457166D02*
X678604Y456885D01*
X678831Y457166*
X678604Y457447*
X678377Y457166*
X678604Y455197D02*
Y451260D01*
X681558Y457166D02*
Y452385D01*
X681786Y451541*
X682240Y451260*
X682695*
X680877Y455197D02*
X682467D01*
X684740Y453510D02*
X687467D01*
Y454072*
X687240Y454635*
X687013Y454916*
X686558Y455197*
X685877*
X685422Y454916*
X684967Y454354*
X684740Y453510*
Y452947*
X684967Y452104*
X685422Y451541*
X685877Y451260*
X686558*
X687013Y451541*
X687467Y452104*
X694740Y453791D02*
X698831D01*
X706104Y457166D02*
Y451260D01*
Y457166D02*
X708149D01*
X708831Y456885*
X709058Y456604*
X709286Y456041*
Y455479*
X709058Y454916*
X708831Y454635*
X708149Y454354*
X706104D02*
X708149D01*
X708831Y454072*
X709058Y453791*
X709286Y453229*
Y452385*
X709058Y451822*
X708831Y451541*
X708149Y451260*
X706104*
X712467Y455197D02*
X712013Y454916D01*
X711558Y454354*
X711331Y453510*
Y452947*
X711558Y452104*
X712013Y451541*
X712467Y451260*
X713149*
X713604Y451541*
X714058Y452104*
X714286Y452947*
Y453510*
X714058Y454354*
X713604Y454916*
X713149Y455197*
X712467*
X717013Y457166D02*
Y452385D01*
X717240Y451541*
X717695Y451260*
X718149*
X716331Y455197D02*
X717922D01*
X720195Y457166D02*
Y451260D01*
Y454072D02*
X720877Y454916D01*
X721331Y455197*
X722013*
X722467Y454916*
X722695Y454072*
Y451260*
X732467Y454354D02*
X732240Y454916D01*
X731558Y455197*
X730877*
X730195Y454916*
X729967Y454354*
X730195Y453791*
X730649Y453510*
X731786Y453229*
X732240Y452947*
X732467Y452385*
Y452104*
X732240Y451541*
X731558Y451260*
X730877*
X730195Y451541*
X729967Y452104*
X734513Y457166D02*
X734740Y456885D01*
X734967Y457166*
X734740Y457447*
X734513Y457166*
X734740Y455197D02*
Y451260D01*
X739740Y457166D02*
Y451260D01*
Y454354D02*
X739286Y454916D01*
X738831Y455197*
X738149*
X737695Y454916*
X737240Y454354*
X737013Y453510*
Y452947*
X737240Y452104*
X737695Y451541*
X738149Y451260*
X738831*
X739286Y451541*
X739740Y452104*
X741786Y453510D02*
X744513D01*
Y454072*
X744286Y454635*
X744058Y454916*
X743604Y455197*
X742922*
X742467Y454916*
X742013Y454354*
X741786Y453510*
Y452947*
X742013Y452104*
X742467Y451541*
X742922Y451260*
X743604*
X744058Y451541*
X744513Y452104*
X749058Y454354D02*
X748831Y454916D01*
X748149Y455197*
X747467*
X746786Y454916*
X746558Y454354*
X746786Y453791*
X747240Y453510*
X748377Y453229*
X748831Y452947*
X749058Y452385*
Y452104*
X748831Y451541*
X748149Y451260*
X747467*
X746786Y451541*
X746558Y452104*
X667240Y437166D02*
Y431260D01*
X669967*
X672013Y437166D02*
Y431260D01*
Y437166D02*
X674058D01*
X674740Y436885*
X674967Y436604*
X675195Y436041*
Y435197*
X674967Y434635*
X674740Y434354*
X674058Y434072*
X672013*
X677240Y437166D02*
Y431260D01*
X684513Y433791D02*
X688604D01*
X695877Y437166D02*
Y431260D01*
Y437166D02*
X697922D01*
X698604Y436885*
X698831Y436604*
X699058Y436041*
Y435479*
X698831Y434916*
X698604Y434635*
X697922Y434354*
X695877D02*
X697922D01*
X698604Y434072*
X698831Y433791*
X699058Y433229*
Y432385*
X698831Y431822*
X698604Y431541*
X697922Y431260*
X695877*
X702240Y435197D02*
X701786Y434916D01*
X701331Y434354*
X701104Y433510*
Y432947*
X701331Y432104*
X701786Y431541*
X702240Y431260*
X702922*
X703377Y431541*
X703831Y432104*
X704058Y432947*
Y433510*
X703831Y434354*
X703377Y434916*
X702922Y435197*
X702240*
X706786Y437166D02*
Y432385D01*
X707013Y431541*
X707467Y431260*
X707922*
X706104Y435197D02*
X707695D01*
X709967Y437166D02*
Y431260D01*
Y434072D02*
X710649Y434916D01*
X711104Y435197*
X711786*
X712240Y434916*
X712467Y434072*
Y431260*
X722240Y434354D02*
X722013Y434916D01*
X721331Y435197*
X720649*
X719967Y434916*
X719740Y434354*
X719967Y433791*
X720422Y433510*
X721558Y433229*
X722013Y432947*
X722240Y432385*
Y432104*
X722013Y431541*
X721331Y431260*
X720649*
X719967Y431541*
X719740Y432104*
X724286Y437166D02*
X724513Y436885D01*
X724740Y437166*
X724513Y437447*
X724286Y437166*
X724513Y435197D02*
Y431260D01*
X729513Y437166D02*
Y431260D01*
Y434354D02*
X729058Y434916D01*
X728604Y435197*
X727922*
X727467Y434916*
X727013Y434354*
X726786Y433510*
Y432947*
X727013Y432104*
X727467Y431541*
X727922Y431260*
X728604*
X729058Y431541*
X729513Y432104*
X731558Y433510D02*
X734286D01*
Y434072*
X734058Y434635*
X733831Y434916*
X733377Y435197*
X732695*
X732240Y434916*
X731786Y434354*
X731558Y433510*
Y432947*
X731786Y432104*
X732240Y431541*
X732695Y431260*
X733377*
X733831Y431541*
X734286Y432104*
X738831Y434354D02*
X738604Y434916D01*
X737922Y435197*
X737240*
X736558Y434916*
X736331Y434354*
X736558Y433791*
X737013Y433510*
X738149Y433229*
X738604Y432947*
X738831Y432385*
Y432104*
X738604Y431541*
X737922Y431260*
X737240*
X736558Y431541*
X736331Y432104*
X741331Y431541D02*
X741104Y431260D01*
X740877Y431541*
X741104Y431822*
X741331Y431541*
Y430979*
X741104Y430416*
X740877Y430135*
X751331Y434354D02*
X750877Y434916D01*
X750422Y435197*
X749740*
X749286Y434916*
X748831Y434354*
X748604Y433510*
Y432947*
X748831Y432104*
X749286Y431541*
X749740Y431260*
X750422*
X750877Y431541*
X751331Y432104*
X754513Y435197D02*
X754058Y434916D01*
X753604Y434354*
X753377Y433510*
Y432947*
X753604Y432104*
X754058Y431541*
X754513Y431260*
X755195*
X755649Y431541*
X756104Y432104*
X756331Y432947*
Y433510*
X756104Y434354*
X755649Y434916*
X755195Y435197*
X754513*
X758377Y437166D02*
Y431260D01*
X761558Y435197D02*
X761104Y434916D01*
X760649Y434354*
X760422Y433510*
Y432947*
X760649Y432104*
X761104Y431541*
X761558Y431260*
X762240*
X762695Y431541*
X763149Y432104*
X763377Y432947*
Y433510*
X763149Y434354*
X762695Y434916*
X762240Y435197*
X761558*
X765422D02*
Y431260D01*
Y433510D02*
X765649Y434354D01*
X766104Y434916*
X766558Y435197*
X767240*
X777240D02*
Y430697D01*
X777013Y429854*
X776786Y429572*
X776331Y429291*
X775649*
X775195Y429572*
X777240Y434354D02*
X776786Y434916D01*
X776331Y435197*
X775649*
X775195Y434916*
X774740Y434354*
X774513Y433510*
Y432947*
X774740Y432104*
X775195Y431541*
X775649Y431260*
X776331*
X776786Y431541*
X777240Y432104*
X779286Y435197D02*
Y431260D01*
Y433510D02*
X779513Y434354D01*
X779967Y434916*
X780422Y435197*
X781104*
X783149Y433510D02*
X785877D01*
Y434072*
X785649Y434635*
X785422Y434916*
X784967Y435197*
X784286*
X783831Y434916*
X783377Y434354*
X783149Y433510*
Y432947*
X783377Y432104*
X783831Y431541*
X784286Y431260*
X784967*
X785422Y431541*
X785877Y432104*
X787922Y433510D02*
X790649D01*
Y434072*
X790422Y434635*
X790195Y434916*
X789740Y435197*
X789058*
X788604Y434916*
X788149Y434354*
X787922Y433510*
Y432947*
X788149Y432104*
X788604Y431541*
X789058Y431260*
X789740*
X790195Y431541*
X790649Y432104*
X792695Y435197D02*
Y431260D01*
Y434072D02*
X793377Y434916D01*
X793831Y435197*
X794513*
X794967Y434916*
X795195Y434072*
Y431260*
X669740Y556041D02*
X670195Y556322D01*
X670877Y557166*
Y551260*
X679286Y555197D02*
X678831Y554916D01*
X678377Y554354*
X678149Y553510*
Y552947*
X678377Y552104*
X678831Y551541*
X679286Y551260*
X679967*
X680422Y551541*
X680877Y552104*
X681104Y552947*
Y553510*
X680877Y554354*
X680422Y554916*
X679967Y555197*
X679286*
X685649D02*
X683149Y551260D01*
Y555197D02*
X685649D01*
X683149Y551260D02*
X685649D01*
X687922Y551822D02*
X687695Y551541D01*
X687922Y551260*
X688149Y551541*
X687922Y551822*
X697240Y557166D02*
X695422Y551260D01*
X697240Y557166D02*
X699058Y551260D01*
X696104Y553229D02*
X698377D01*
X701104Y557166D02*
Y551260D01*
X703831*
X705877Y557166D02*
Y551260D01*
X708604*
X715877Y557166D02*
Y551260D01*
X718604*
X722467Y557166D02*
X720649Y551260D01*
X722467Y557166D02*
X724286Y551260D01*
X721331Y553229D02*
X723604D01*
X726331Y557166D02*
X728149Y554354D01*
Y551260*
X729967Y557166D02*
X728149Y554354D01*
X732013Y557166D02*
Y551260D01*
Y557166D02*
X734967D01*
X732013Y554354D02*
X733831D01*
X732013Y551260D02*
X734967D01*
X737013Y557166D02*
Y551260D01*
Y557166D02*
X739058D01*
X739740Y556885*
X739967Y556604*
X740195Y556041*
Y555479*
X739967Y554916*
X739740Y554635*
X739058Y554354*
X737013*
X738604D02*
X740195Y551260D01*
X745422Y556322D02*
X744967Y556885D01*
X744286Y557166*
X743377*
X742695Y556885*
X742240Y556322*
Y555760*
X742467Y555197*
X742695Y554916*
X743149Y554635*
X744513Y554072*
X744967Y553791*
X745195Y553510*
X745422Y552947*
Y552104*
X744967Y551541*
X744286Y551260*
X743377*
X742695Y551541*
X742240Y552104*
X579740Y422166D02*
Y416260D01*
Y422166D02*
X582922Y416260D01*
Y422166D02*
Y416260D01*
X586331Y422166D02*
X585877Y421885D01*
X585422Y421322*
X585195Y420760*
X584967Y419916*
Y418510*
X585195Y417666*
X585422Y417104*
X585877Y416541*
X586331Y416260*
X587240*
X587695Y416541*
X588149Y417104*
X588377Y417666*
X588604Y418510*
Y419916*
X588377Y420760*
X588149Y421322*
X587695Y421885*
X587240Y422166*
X586331*
X592240D02*
Y416260D01*
X590649Y422166D02*
X593831D01*
X595877D02*
Y416260D01*
Y422166D02*
X598831D01*
X595877Y419354D02*
X597695D01*
X595877Y416260D02*
X598831D01*
X604058Y421322D02*
X603604Y421885D01*
X602922Y422166*
X602013*
X601331Y421885*
X600877Y421322*
Y420760*
X601104Y420197*
X601331Y419916*
X601786Y419635*
X603149Y419072*
X603604Y418791*
X603831Y418510*
X604058Y417947*
Y417104*
X603604Y416541*
X602922Y416260*
X602013*
X601331Y416541*
X600877Y417104*
X606331Y420197D02*
X606104Y419916D01*
X606331Y419635*
X606558Y419916*
X606331Y420197*
Y416822D02*
X606104Y416541D01*
X606331Y416260*
X606558Y416541*
X606331Y416822*
X619740Y417166D02*
Y411260D01*
Y417166D02*
X621558Y411260D01*
X623377Y417166D02*
X621558Y411260D01*
X623377Y417166D02*
Y411260D01*
X627240Y417166D02*
X625422Y411260D01*
X627240Y417166D02*
X629058Y411260D01*
X626104Y413229D02*
X628377D01*
X632695Y417166D02*
Y411260D01*
X631104Y417166D02*
X634286D01*
X636331D02*
Y411260D01*
Y417166D02*
X639286D01*
X636331Y414354D02*
X638149D01*
X636331Y411260D02*
X639286D01*
X641331Y417166D02*
Y411260D01*
Y417166D02*
X643377D01*
X644058Y416885*
X644286Y416604*
X644513Y416041*
Y415479*
X644286Y414916*
X644058Y414635*
X643377Y414354*
X641331*
X642922D02*
X644513Y411260D01*
X646558Y417166D02*
Y411260D01*
X650422Y417166D02*
X648604Y411260D01*
X650422Y417166D02*
X652240Y411260D01*
X649286Y413229D02*
X651558D01*
X654286Y417166D02*
Y411260D01*
X657013*
X659286Y415197D02*
X659058Y414916D01*
X659286Y414635*
X659513Y414916*
X659286Y415197*
Y411822D02*
X659058Y411541D01*
X659286Y411260*
X659513Y411541*
X659286Y411822*
X666786Y417166D02*
Y411260D01*
Y417166D02*
X669740D01*
X666786Y414354D02*
X668604D01*
X671786Y417166D02*
Y411260D01*
Y417166D02*
X673831D01*
X674513Y416885*
X674740Y416604*
X674967Y416041*
Y415479*
X674740Y414916*
X674513Y414635*
X673831Y414354*
X671786*
X673377D02*
X674967Y411260D01*
X679286Y417166D02*
X677013Y413229D01*
X680422*
X679286Y417166D02*
Y411260D01*
X526051Y327202D02*
X531051Y337202D01*
X521051*
X526051Y327202*
Y337202D02*
Y347202D01*
X713551Y287202D02*
X726051D01*
X701051D02*
X713551Y284702D01*
Y289702*
X701051Y287202*
X713551Y267202D02*
X726051D01*
X701051D02*
X713551Y264702D01*
Y269702*
X701051Y267202*
X713551Y307202D02*
X726051D01*
X701051D02*
X713551Y304702D01*
Y309702*
X701051Y307202*
X713551Y327202D02*
X726051D01*
X701051D02*
X713551Y324702D01*
Y329702*
X701051Y327202*
X586051D02*
X516051D01*
X589138Y266680D02*
X519138D01*
X696051Y337202D02*
Y317202D01*
X691051Y312202*
X706051Y297202*
X696051Y287202*
Y277202*
X701051Y272202*
X696051Y267202*
X526638Y264980D02*
X521638Y254980D01*
X531638*
X526638Y264980*
Y254980D02*
Y247480D01*
X736138Y273512D02*
Y264980D01*
Y273512D02*
X739001D01*
X739956Y273105*
X740274Y272699*
X740592Y271887*
Y271074*
X740274Y270262*
X739956Y269855*
X739001Y269449*
X736138D02*
X739001D01*
X739956Y269043*
X740274Y268637*
X740592Y267824*
Y266605*
X740274Y265793*
X739956Y265387*
X739001Y264980*
X736138*
X745365Y273512D02*
X744729Y273105D01*
X744092Y272293*
X743774Y271480*
X743456Y270262*
Y268230*
X743774Y267012*
X744092Y266199*
X744729Y265387*
X745365Y264980*
X746638*
X747274Y265387*
X747911Y266199*
X748229Y267012*
X748547Y268230*
Y270262*
X748229Y271480*
X747911Y272293*
X747274Y273105*
X746638Y273512*
X745365*
X753638D02*
Y264980D01*
X751411Y273512D02*
X755865D01*
X760956D02*
Y264980D01*
X758729Y273512D02*
X763183D01*
X767956D02*
X767320Y273105D01*
X766683Y272293*
X766365Y271480*
X766047Y270262*
Y268230*
X766365Y267012*
X766683Y266199*
X767320Y265387*
X767956Y264980*
X769229*
X769865Y265387*
X770501Y266199*
X770820Y267012*
X771138Y268230*
Y270262*
X770820Y271480*
X770501Y272293*
X769865Y273105*
X769229Y273512*
X767956*
X774001D02*
Y264980D01*
Y273512D02*
X776547Y264980D01*
X779092Y273512D02*
X776547Y264980D01*
X779092Y273512D02*
Y264980D01*
X521501Y294793D02*
Y287480D01*
X518638Y291137D02*
X524365D01*
X532956Y297637D02*
X527229Y284637D01*
X535820Y291137D02*
X541547D01*
X544729Y288293D02*
X544411Y287887D01*
X544729Y287480*
X545047Y287887*
X544729Y288293*
X549820Y296012D02*
X548865Y295605D01*
X548229Y294387*
X547911Y292355*
Y291137*
X548229Y289105*
X548865Y287887*
X549820Y287480*
X550456*
X551411Y287887*
X552047Y289105*
X552365Y291137*
Y292355*
X552047Y294387*
X551411Y295605*
X550456Y296012*
X549820*
X557138D02*
X556183Y295605D01*
X555547Y294387*
X555229Y292355*
Y291137*
X555547Y289105*
X556183Y287887*
X557138Y287480*
X557774*
X558729Y287887*
X559365Y289105*
X559683Y291137*
Y292355*
X559365Y294387*
X558729Y295605*
X557774Y296012*
X557138*
X567001D02*
X563820Y287480D01*
X562547Y296012D02*
X567001D01*
X526456Y305793D02*
X526138Y305387D01*
X526456Y304980*
X526774Y305387*
X526456Y305793*
X531547Y313512D02*
X530592Y313105D01*
X529956Y311887*
X529638Y309855*
Y308637*
X529956Y306605*
X530592Y305387*
X531547Y304980*
X532183*
X533138Y305387*
X533774Y306605*
X534092Y308637*
Y309855*
X533774Y311887*
X533138Y313105*
X532183Y313512*
X531547*
X541092D02*
X537911D01*
X537592Y309855*
X537911Y310262*
X538865Y310668*
X539820*
X540774Y310262*
X541411Y309449*
X541729Y308230*
X541411Y307418*
X541092Y306199*
X540456Y305387*
X539501Y304980*
X538547*
X537592Y305387*
X537274Y305793*
X536956Y306605*
X548729Y313512D02*
X545547D01*
X545229Y309855*
X545547Y310262*
X546501Y310668*
X547456*
X548411Y310262*
X549047Y309449*
X549365Y308230*
X549047Y307418*
X548729Y306199*
X548092Y305387*
X547138Y304980*
X546183*
X545229Y305387*
X544911Y305793*
X544592Y306605*
X552229Y313512D02*
Y310668D01*
X554774Y313512D02*
Y310668D01*
X740411Y308980D02*
X740092Y309793D01*
X739456Y310605*
X738820Y311012*
X737547*
X736911Y310605*
X736274Y309793*
X735956Y308980*
X735638Y307762*
Y305730*
X735956Y304512*
X736274Y303699*
X736911Y302887*
X737547Y302480*
X738820*
X739456Y302887*
X740092Y303699*
X740411Y304512*
Y305730*
X738820D02*
X740411D01*
X743274Y311012D02*
Y302480D01*
Y311012D02*
X747729Y302480D01*
Y311012D02*
Y302480D01*
X750592Y311012D02*
Y302480D01*
Y311012D02*
X752820D01*
X753774Y310605*
X754411Y309793*
X754729Y308980*
X755047Y307762*
Y305730*
X754729Y304512*
X754411Y303699*
X753774Y302887*
X752820Y302480*
X750592*
X765229Y311012D02*
Y302480D01*
Y311012D02*
X768092D01*
X769047Y310605*
X769365Y310199*
X769683Y309387*
Y308168*
X769365Y307355*
X769047Y306949*
X768092Y306543*
X765229*
X772547Y311012D02*
Y302480D01*
X776365*
X781774Y311012D02*
X779229Y302480D01*
X781774Y311012D02*
X784320Y302480D01*
X780183Y305324D02*
X783365D01*
X787183Y311012D02*
Y302480D01*
Y311012D02*
X791638Y302480D01*
Y311012D02*
Y302480D01*
X794501Y311012D02*
Y302480D01*
Y311012D02*
X798638D01*
X794501Y306949D02*
X797047D01*
X794501Y302480D02*
X798638D01*
X830778Y292859D02*
X830142Y292046D01*
X829505Y290827*
X828869Y289202*
X828551Y287171*
Y285546*
X828869Y283515*
X829505Y281890*
X830142Y280671*
X830778Y279859*
X833642Y291234D02*
Y282702D01*
X837460*
X842869Y291234D02*
X840324Y282702D01*
X842869Y291234D02*
X845414Y282702D01*
X841278Y285546D02*
X844460D01*
X848278Y291234D02*
X850824Y287171D01*
Y282702*
X853369Y291234D02*
X850824Y287171D01*
X856233Y291234D02*
Y282702D01*
Y291234D02*
X860369D01*
X856233Y287171D02*
X858778D01*
X856233Y282702D02*
X860369D01*
X863233Y291234D02*
Y282702D01*
Y291234D02*
X866096D01*
X867051Y290827*
X867369Y290421*
X867687Y289609*
Y288796*
X867369Y287984*
X867051Y287577*
X866096Y287171*
X863233*
X865460D02*
X867687Y282702D01*
X878505Y291234D02*
X882005D01*
X880096Y287984*
X881051*
X881687Y287577*
X882005Y287171*
X882324Y285952*
Y285140*
X882005Y283921*
X881369Y283109*
X880414Y282702*
X879460*
X878505Y283109*
X878187Y283515*
X877869Y284327*
X885187Y292859D02*
X885824Y292046D01*
X886460Y290827*
X887096Y289202*
X887414Y287171*
Y285546*
X887096Y283515*
X886460Y281890*
X885824Y280671*
X885187Y279859*
X830778Y272859D02*
X830142Y272046D01*
X829505Y270827*
X828869Y269202*
X828551Y267171*
Y265546*
X828869Y263515*
X829505Y261890*
X830142Y260671*
X830778Y259859*
X833642Y271234D02*
Y262702D01*
X837460*
X842869Y271234D02*
X840324Y262702D01*
X842869Y271234D02*
X845414Y262702D01*
X841278Y265546D02*
X844460D01*
X848278Y271234D02*
X850824Y267171D01*
Y262702*
X853369Y271234D02*
X850824Y267171D01*
X856233Y271234D02*
Y262702D01*
Y271234D02*
X860369D01*
X856233Y267171D02*
X858778D01*
X856233Y262702D02*
X860369D01*
X863233Y271234D02*
Y262702D01*
Y271234D02*
X866096D01*
X867051Y270827*
X867369Y270421*
X867687Y269609*
Y268796*
X867369Y267984*
X867051Y267577*
X866096Y267171*
X863233*
X865460D02*
X867687Y262702D01*
X881051Y271234D02*
X877869Y265546D01*
X882642*
X881051Y271234D02*
Y262702D01*
X885505Y272859D02*
X886142Y272046D01*
X886778Y270827*
X887414Y269202*
X887733Y267171*
Y265546*
X887414Y263515*
X886778Y261890*
X886142Y260671*
X885505Y259859*
X735638Y291012D02*
Y282480D01*
Y291012D02*
X738501D01*
X739456Y290605*
X739774Y290199*
X740092Y289387*
Y288168*
X739774Y287355*
X739456Y286949*
X738501Y286543*
X735638*
X742956Y291012D02*
X744547Y282480D01*
X746138Y291012D02*
X744547Y282480D01*
X746138Y291012D02*
X747729Y282480D01*
X749320Y291012D02*
X747729Y282480D01*
X752183Y291012D02*
Y282480D01*
Y291012D02*
X755047D01*
X756001Y290605*
X756320Y290199*
X756638Y289387*
Y288574*
X756320Y287762*
X756001Y287355*
X755047Y286949*
X752183*
X754411D02*
X756638Y282480D01*
X766820Y291012D02*
Y282480D01*
Y291012D02*
X769683D01*
X770638Y290605*
X770956Y290199*
X771274Y289387*
Y288168*
X770956Y287355*
X770638Y286949*
X769683Y286543*
X766820*
X774138Y291012D02*
Y282480D01*
X777956*
X783365Y291012D02*
X780820Y282480D01*
X783365Y291012D02*
X785911Y282480D01*
X781774Y285324D02*
X784956D01*
X788774Y291012D02*
Y282480D01*
Y291012D02*
X793229Y282480D01*
Y291012D02*
Y282480D01*
X796092Y291012D02*
Y282480D01*
Y291012D02*
X800229D01*
X796092Y286949D02*
X798638D01*
X796092Y282480D02*
X800229D01*
X830778Y312859D02*
X830142Y312046D01*
X829505Y310827*
X828869Y309202*
X828551Y307171*
Y305546*
X828869Y303515*
X829505Y301890*
X830142Y300671*
X830778Y299859*
X833642Y311234D02*
Y302702D01*
X837460*
X842869Y311234D02*
X840324Y302702D01*
X842869Y311234D02*
X845414Y302702D01*
X841278Y305546D02*
X844460D01*
X848278Y311234D02*
X850824Y307171D01*
Y302702*
X853369Y311234D02*
X850824Y307171D01*
X856233Y311234D02*
Y302702D01*
Y311234D02*
X860369D01*
X856233Y307171D02*
X858778D01*
X856233Y302702D02*
X860369D01*
X863233Y311234D02*
Y302702D01*
Y311234D02*
X866096D01*
X867051Y310827*
X867369Y310421*
X867687Y309609*
Y308796*
X867369Y307984*
X867051Y307577*
X866096Y307171*
X863233*
X865460D02*
X867687Y302702D01*
X878187Y309202D02*
Y309609D01*
X878505Y310421*
X878824Y310827*
X879460Y311234*
X880733*
X881369Y310827*
X881687Y310421*
X882005Y309609*
Y308796*
X881687Y307984*
X881051Y306765*
X877869Y302702*
X882324*
X885187Y312859D02*
X885824Y312046D01*
X886460Y310827*
X887096Y309202*
X887414Y307171*
Y305546*
X887096Y303515*
X886460Y301890*
X885824Y300671*
X885187Y299859*
X738278Y331234D02*
Y322702D01*
X736051Y331234D02*
X740505D01*
X745278D02*
X744642Y330827D01*
X744005Y330015*
X743687Y329202*
X743369Y327984*
Y325952*
X743687Y324734*
X744005Y323921*
X744642Y323109*
X745278Y322702*
X746551*
X747187Y323109*
X747824Y323921*
X748142Y324734*
X748460Y325952*
Y327984*
X748142Y329202*
X747824Y330015*
X747187Y330827*
X746551Y331234*
X745278*
X751324D02*
Y322702D01*
Y331234D02*
X754187D01*
X755142Y330827*
X755460Y330421*
X755778Y329609*
Y328390*
X755460Y327577*
X755142Y327171*
X754187Y326765*
X751324*
X770414Y330015D02*
X769778Y330827D01*
X768824Y331234*
X767551*
X766596Y330827*
X765960Y330015*
Y329202*
X766278Y328390*
X766596Y327984*
X767233Y327577*
X769142Y326765*
X769778Y326359*
X770096Y325952*
X770414Y325140*
Y323921*
X769778Y323109*
X768824Y322702*
X767551*
X766596Y323109*
X765960Y323921*
X773278Y331234D02*
Y322702D01*
X776142Y331234D02*
Y322702D01*
Y331234D02*
X778369D01*
X779324Y330827*
X779960Y330015*
X780278Y329202*
X780596Y327984*
Y325952*
X780278Y324734*
X779960Y323921*
X779324Y323109*
X778369Y322702*
X776142*
X783460Y331234D02*
Y322702D01*
Y331234D02*
X787596D01*
X783460Y327171D02*
X786005D01*
X783460Y322702D02*
X787596D01*
X830778Y332859D02*
X830142Y332046D01*
X829505Y330827*
X828869Y329202*
X828551Y327171*
Y325546*
X828869Y323515*
X829505Y321890*
X830142Y320671*
X830778Y319859*
X833642Y331234D02*
Y322702D01*
X837460*
X842869Y331234D02*
X840324Y322702D01*
X842869Y331234D02*
X845414Y322702D01*
X841278Y325546D02*
X844460D01*
X848278Y331234D02*
X850824Y327171D01*
Y322702*
X853369Y331234D02*
X850824Y327171D01*
X856233Y331234D02*
Y322702D01*
Y331234D02*
X860369D01*
X856233Y327171D02*
X858778D01*
X856233Y322702D02*
X860369D01*
X863233Y331234D02*
Y322702D01*
Y331234D02*
X866096D01*
X867051Y330827*
X867369Y330421*
X867687Y329609*
Y328796*
X867369Y327984*
X867051Y327577*
X866096Y327171*
X863233*
X865460D02*
X867687Y322702D01*
X877869Y329609D02*
X878505Y330015D01*
X879460Y331234*
Y322702*
X882324Y332859D02*
X882960Y332046D01*
X883596Y330827*
X884233Y329202*
X884551Y327171*
Y325546*
X884233Y323515*
X883596Y321890*
X882960Y320671*
X882324Y319859*
X455579Y394815D02*
X297971D01*
X455579D02*
X445579Y392315D01*
Y397315*
X455579Y394815*
X100500D02*
X258108D01*
X100500D02*
X110500Y397315D01*
Y392315*
X100500Y394815*
X455579Y379028D02*
Y399815D01*
X100500Y379028D02*
Y399815D01*
X264562Y395502D02*
X264335Y394659D01*
X263880Y394096*
X263198Y393815*
X262971*
X262289Y394096*
X261835Y394659*
X261608Y395502*
Y395784*
X261835Y396627*
X262289Y397190*
X262971Y397471*
X263198*
X263880Y397190*
X264335Y396627*
X264562Y395502*
Y394096*
X264335Y392690*
X263880Y391846*
X263198Y391565*
X262744*
X262062Y391846*
X261835Y392409*
X267971Y397471D02*
X267289Y397190D01*
X266835Y396346*
X266608Y394940*
Y394096*
X266835Y392690*
X267289Y391846*
X267971Y391565*
X268426*
X269108Y391846*
X269562Y392690*
X269789Y394096*
Y394940*
X269562Y396346*
X269108Y397190*
X268426Y397471*
X267971*
X272062Y392127D02*
X271835Y391846D01*
X272062Y391565*
X272289Y391846*
X272062Y392127*
X274335Y396346D02*
X274789Y396627D01*
X275471Y397471*
Y391565*
X280471Y395502D02*
X280244Y394659D01*
X279789Y394096*
X279108Y393815*
X278880*
X278198Y394096*
X277744Y394659*
X277517Y395502*
Y395784*
X277744Y396627*
X278198Y397190*
X278880Y397471*
X279108*
X279789Y397190*
X280244Y396627*
X280471Y395502*
Y394096*
X280244Y392690*
X279789Y391846*
X279108Y391565*
X278653*
X277971Y391846*
X277744Y392409*
X282517Y395502D02*
Y391565D01*
Y394377D02*
X283198Y395221D01*
X283653Y395502*
X284335*
X284789Y395221*
X285017Y394377*
Y391565*
Y394377D02*
X285698Y395221D01*
X286153Y395502*
X286835*
X287289Y395221*
X287517Y394377*
Y391565*
X289562Y395502D02*
Y391565D01*
Y394377D02*
X290244Y395221D01*
X290698Y395502*
X291380*
X291835Y395221*
X292062Y394377*
Y391565*
Y394377D02*
X292744Y395221D01*
X293198Y395502*
X293880*
X294335Y395221*
X294562Y394377*
Y391565*
X478728Y274028D02*
Y317278D01*
Y274028D02*
X476228Y284028D01*
X481228*
X478728Y274028*
Y374028D02*
Y330778D01*
Y374028D02*
X481228Y364028D01*
X476228*
X478728Y374028*
X460579Y274028D02*
X483728D01*
X451957Y374028D02*
X483728D01*
X461047Y325278D02*
Y325559D01*
X461274Y326121*
X461501Y326403*
X461956Y326684*
X462865*
X463319Y326403*
X463547Y326121*
X463774Y325559*
Y324996*
X463547Y324434*
X463092Y323590*
X460819Y320778*
X464001*
X469001Y326684D02*
X466728D01*
X466501Y324153*
X466728Y324434*
X467410Y324715*
X468092*
X468774Y324434*
X469228Y323871*
X469456Y323028*
X469228Y322465*
X469001Y321621*
X468547Y321059*
X467865Y320778*
X467183*
X466501Y321059*
X466274Y321340*
X466047Y321903*
X471728Y321340D02*
X471501Y321059D01*
X471728Y320778*
X471956Y321059*
X471728Y321340*
X476274Y326684D02*
X474001Y322746D01*
X477410*
X476274Y326684D02*
Y320778D01*
X480819Y326684D02*
X480137Y326403D01*
X479683Y325559*
X479456Y324153*
Y323309*
X479683Y321903*
X480137Y321059*
X480819Y320778*
X481274*
X481956Y321059*
X482410Y321903*
X482637Y323309*
Y324153*
X482410Y325559*
X481956Y326403*
X481274Y326684*
X480819*
X484683Y324715D02*
Y320778D01*
Y323590D02*
X485365Y324434D01*
X485819Y324715*
X486501*
X486956Y324434*
X487183Y323590*
Y320778*
Y323590D02*
X487865Y324434D01*
X488319Y324715*
X489001*
X489456Y324434*
X489683Y323590*
Y320778*
X491728Y324715D02*
Y320778D01*
Y323590D02*
X492410Y324434D01*
X492865Y324715*
X493547*
X494001Y324434*
X494228Y323590*
Y320778*
Y323590D02*
X494910Y324434D01*
X495365Y324715*
X496047*
X496501Y324434*
X496728Y323590*
Y320778*
X872957Y561938D02*
Y441938D01*
X879207Y435688*
X887957*
X892332Y440063*
Y564438*
X885457Y559438*
X877957Y564438*
X872957Y561938*
Y419438D02*
X857957D01*
X872957D02*
X862957Y416938D01*
Y421938*
X872957Y419438*
X892332D02*
X907332D01*
X892332D02*
X902332Y421938D01*
Y416938*
X892332Y419438*
X872957Y436938D02*
Y414438D01*
X892332Y435063D02*
Y414438D01*
Y399438D02*
X907332D01*
X892332D02*
X902332Y401938D01*
Y396938*
X892332Y399438*
X887957D02*
X872957D01*
X887957D02*
X877957Y396938D01*
Y401938*
X887957Y399438*
X892332Y435063D02*
Y394438D01*
X887957Y430688D02*
Y394438D01*
X941729Y489460D02*
G03X925404Y501874I-53772J-53772D01*
G01X941729Y489460D02*
X932890Y494763D01*
X936426Y498299*
X941729Y489460*
X910571Y508293D02*
G03X890479Y511691I-22614J-72605D01*
G01X890540Y511689D02*
X900619Y513848D01*
X900449Y508851*
X890540Y511689*
X895868Y443599D02*
X945265Y492996D01*
X917957Y369438D02*
X847957D01*
Y366938D02*
X917957D01*
X853457Y381626D02*
X856185Y372438D01*
X858912Y381626D02*
X856185Y372438D01*
X861980Y381626D02*
Y372438D01*
X865048Y381626D02*
Y372438D01*
Y381626D02*
X869480D01*
X865048Y377251D02*
X867775D01*
X865048Y372438D02*
X869480D01*
X872548Y381626D02*
X874253Y372438D01*
X875957Y381626D02*
X874253Y372438D01*
X875957Y381626D02*
X877662Y372438D01*
X879366Y381626D02*
X877662Y372438D01*
X893003Y381626D02*
X890275Y372438D01*
X893003Y381626D02*
X895730Y372438D01*
X891298Y375501D02*
X894707D01*
X898798Y376376D02*
X904935D01*
X910730Y381626D02*
X908003Y372438D01*
X910730Y381626D02*
X913457Y372438D01*
X909025Y375501D02*
X912435D01*
X848457Y363345D02*
Y357438D01*
Y363345D02*
X850503D01*
X851185Y363063*
X851412Y362782*
X851639Y362220*
Y361657*
X851412Y361095*
X851185Y360813*
X850503Y360532*
X848457*
X850048D02*
X851639Y357438D01*
X855048Y363345D02*
X854594Y363063D01*
X854139Y362501*
X853912Y361938*
X853685Y361095*
Y359688*
X853912Y358845*
X854139Y358282*
X854594Y357720*
X855048Y357438*
X855957*
X856412Y357720*
X856866Y358282*
X857094Y358845*
X857321Y359688*
Y361095*
X857094Y361938*
X856866Y362501*
X856412Y363063*
X855957Y363345*
X855048*
X860957D02*
Y357438D01*
X859366Y363345D02*
X862548D01*
X866412D02*
X864594Y357438D01*
X866412Y363345D02*
X868230Y357438D01*
X865275Y359407D02*
X867548D01*
X871866Y363345D02*
Y357438D01*
X870275Y363345D02*
X873457D01*
X875503D02*
Y357438D01*
Y363345D02*
X878457D01*
X875503Y360532D02*
X877321D01*
X875503Y357438D02*
X878457D01*
X880503Y363345D02*
Y357438D01*
Y363345D02*
X882094D01*
X882775Y363063*
X883230Y362501*
X883457Y361938*
X883685Y361095*
Y359688*
X883457Y358845*
X883230Y358282*
X882775Y357720*
X882094Y357438*
X880503*
X893912Y361376D02*
X893685Y360532D01*
X893230Y359970*
X892548Y359688*
X892321*
X891639Y359970*
X891185Y360532*
X890957Y361376*
Y361657*
X891185Y362501*
X891639Y363063*
X892321Y363345*
X892548*
X893230Y363063*
X893685Y362501*
X893912Y361376*
Y359970*
X893685Y358563*
X893230Y357720*
X892548Y357438*
X892094*
X891412Y357720*
X891185Y358282*
X897321Y363345D02*
X896639Y363063D01*
X896185Y362220*
X895957Y360813*
Y359970*
X896185Y358563*
X896639Y357720*
X897321Y357438*
X897775*
X898457Y357720*
X898912Y358563*
X899139Y359970*
Y360813*
X898912Y362220*
X898457Y363063*
X897775Y363345*
X897321*
X906412D02*
Y357438D01*
Y363345D02*
X908003D01*
X908685Y363063*
X909139Y362501*
X909366Y361938*
X909594Y361095*
Y359688*
X909366Y358845*
X909139Y358282*
X908685Y357720*
X908003Y357438*
X906412*
X911639Y363345D02*
Y357438D01*
Y363345D02*
X914594D01*
X911639Y360532D02*
X913457D01*
X911639Y357438D02*
X914594D01*
X920048Y361938D02*
X919821Y362501D01*
X919366Y363063*
X918912Y363345*
X918003*
X917548Y363063*
X917094Y362501*
X916866Y361938*
X916639Y361095*
Y359688*
X916866Y358845*
X917094Y358282*
X917548Y357720*
X918003Y357438*
X918912*
X919366Y357720*
X919821Y358282*
X920048Y358845*
Y359688*
X918912D02*
X920048D01*
X922321Y358001D02*
X922094Y357720D01*
X922321Y357438*
X922548Y357720*
X922321Y358001*
X911060Y416751D02*
X910832Y416470D01*
X911060Y416188*
X911287Y416470*
X911060Y416751*
X914696Y422095D02*
X914014Y421813D01*
X913560Y420970*
X913332Y419563*
Y418720*
X913560Y417313*
X914014Y416470*
X914696Y416188*
X915150*
X915832Y416470*
X916287Y417313*
X916514Y418720*
Y419563*
X916287Y420970*
X915832Y421813*
X915150Y422095*
X914696*
X921514D02*
X919241D01*
X919014Y419563*
X919241Y419845*
X919923Y420126*
X920605*
X921287Y419845*
X921741Y419282*
X921969Y418438*
X921741Y417876*
X921514Y417032*
X921060Y416470*
X920378Y416188*
X919696*
X919014Y416470*
X918787Y416751*
X918560Y417313*
X926969Y422095D02*
X924696D01*
X924469Y419563*
X924696Y419845*
X925378Y420126*
X926060*
X926741Y419845*
X927196Y419282*
X927423Y418438*
X927196Y417876*
X926969Y417032*
X926514Y416470*
X925832Y416188*
X925150*
X924469Y416470*
X924241Y416751*
X924014Y417313*
X846185Y398001D02*
X845957Y397720D01*
X846185Y397438*
X846412Y397720*
X846185Y398001*
X849821Y403345D02*
X849139Y403063D01*
X848685Y402220*
X848457Y400813*
Y399970*
X848685Y398563*
X849139Y397720*
X849821Y397438*
X850275*
X850957Y397720*
X851412Y398563*
X851639Y399970*
Y400813*
X851412Y402220*
X850957Y403063*
X850275Y403345*
X849821*
X853685Y402220D02*
X854139Y402501D01*
X854821Y403345*
Y397438*
X859821Y403345D02*
X857548D01*
X857321Y400813*
X857548Y401095*
X858230Y401376*
X858912*
X859594Y401095*
X860048Y400532*
X860275Y399688*
X860048Y399126*
X859821Y398282*
X859366Y397720*
X858685Y397438*
X858003*
X857321Y397720*
X857094Y398001*
X856866Y398563*
X914429Y508096D02*
X916929D01*
X915565Y505846*
X916247*
X916702Y505565*
X916929Y505284*
X917156Y504440*
Y503878*
X916929Y503034*
X916475Y502471*
X915793Y502190*
X915111*
X914429Y502471*
X914202Y502753*
X913975Y503315*
X920565Y508096D02*
X919884Y507815D01*
X919429Y506971*
X919202Y505565*
Y504721*
X919429Y503315*
X919884Y502471*
X920565Y502190*
X921020*
X921702Y502471*
X922156Y503315*
X922384Y504721*
Y505565*
X922156Y506971*
X921702Y507815*
X921020Y508096*
X920565*
X424641Y273670D02*
X455639Y242672D01*
X461557*
X424641Y273670D02*
X433480Y268367D01*
X429945Y264831*
X424641Y273670*
X465057Y245329D02*
X466875Y239422D01*
X468693Y245329D02*
X466875Y239422D01*
X470739Y245329D02*
X470966Y245047D01*
X471193Y245329*
X470966Y245610*
X470739Y245329*
X470966Y243360D02*
Y239422D01*
X473239Y241672D02*
X475966D01*
Y242235*
X475739Y242797*
X475512Y243079*
X475057Y243360*
X474375*
X473921Y243079*
X473466Y242516*
X473239Y241672*
Y241110*
X473466Y240266*
X473921Y239704*
X474375Y239422*
X475057*
X475512Y239704*
X475966Y240266*
X478012Y243360D02*
X478921Y239422D01*
X479830Y243360D02*
X478921Y239422D01*
X479830Y243360D02*
X480739Y239422D01*
X481648Y243360D02*
X480739Y239422D01*
X490739Y245329D02*
X488921Y239422D01*
X490739Y245329D02*
X492557Y239422D01*
X489603Y241391D02*
X491875D01*
X620500Y202028D02*
X890500D01*
X620500Y178028D02*
X890500D01*
X620500Y154028D02*
X890500D01*
X620500Y202028D02*
Y154028D01*
X704500Y202028D02*
Y154028D01*
X740500Y202028D02*
Y154028D01*
X776500Y202028D02*
Y154028D01*
X830500Y202028D02*
Y154028D01*
X890500Y202028D02*
Y154028D01*
X656000Y190778D02*
X655455Y191528D01*
X654636Y191903*
X653545*
X652727Y191528*
X652182Y190778*
Y190028*
X652455Y189278*
X652727Y188903*
X653273Y188528*
X654909Y187778*
X655455Y187403*
X655727Y187028*
X656000Y186278*
Y185153*
X655455Y184403*
X654636Y184028*
X653545*
X652727Y184403*
X652182Y185153*
X658455Y191903D02*
Y184028D01*
X664727Y191903D02*
X660909Y184028D01*
Y191903D02*
X664727D01*
X660909Y184028D02*
X664727D01*
X667182Y191903D02*
Y184028D01*
Y191903D02*
X670727D01*
X667182Y188153D02*
X669364D01*
X667182Y184028D02*
X670727D01*
X714364Y191903D02*
X713818Y191528D01*
X713273Y190778*
X713000Y190028*
X712727Y188903*
Y187028*
X713000Y185903*
X713273Y185153*
X713818Y184403*
X714364Y184028*
X715455*
X716000Y184403*
X716545Y185153*
X716818Y185903*
X717091Y187028*
Y188903*
X716818Y190028*
X716545Y190778*
X716000Y191528*
X715455Y191903*
X714364*
X715182Y185528D02*
X716818Y183278D01*
X721455Y191903D02*
Y184028D01*
X719545Y191903D02*
X723364D01*
X725818D02*
X728000Y188153D01*
Y184028*
X730182Y191903D02*
X728000Y188153D01*
X752545Y190778D02*
X752000Y191528D01*
X751182Y191903*
X750091*
X749273Y191528*
X748727Y190778*
Y190028*
X749000Y189278*
X749273Y188903*
X749818Y188528*
X751455Y187778*
X752000Y187403*
X752273Y187028*
X752545Y186278*
Y185153*
X752000Y184403*
X751182Y184028*
X750091*
X749273Y184403*
X748727Y185153*
X755000Y191903D02*
X757182Y188153D01*
Y184028*
X759364Y191903D02*
X757182Y188153D01*
X761818Y191903D02*
Y184028D01*
Y191903D02*
X764000Y184028D01*
X766182Y191903D02*
X764000Y184028D01*
X766182Y191903D02*
Y184028D01*
X788000Y191903D02*
Y184028D01*
Y191903D02*
X790455D01*
X791273Y191528*
X791545Y191153*
X791818Y190403*
Y189278*
X791545Y188528*
X791273Y188153*
X790455Y187778*
X788000*
X794273Y191903D02*
Y184028D01*
X797545*
X802182Y191903D02*
X800000Y184028D01*
X802182Y191903D02*
X804364Y184028D01*
X800818Y186653D02*
X803545D01*
X808727Y191903D02*
Y184028D01*
X806818Y191903D02*
X810636D01*
X813091D02*
Y184028D01*
Y191903D02*
X816636D01*
X813091Y188153D02*
X815273D01*
X813091Y184028D02*
X816636D01*
X819091Y191903D02*
Y184028D01*
Y191903D02*
X821000D01*
X821818Y191528*
X822364Y190778*
X822636Y190028*
X822909Y188903*
Y187028*
X822636Y185903*
X822364Y185153*
X821818Y184403*
X821000Y184028*
X819091*
X853182Y191903D02*
Y184028D01*
X851273Y191903D02*
X855091D01*
X859182D02*
X858636Y191528D01*
X858091Y190778*
X857818Y190028*
X857545Y188903*
Y187028*
X857818Y185903*
X858091Y185153*
X858636Y184403*
X859182Y184028*
X860273*
X860818Y184403*
X861364Y185153*
X861636Y185903*
X861909Y187028*
Y188903*
X861636Y190028*
X861364Y190778*
X860818Y191528*
X860273Y191903*
X859182*
X864364D02*
Y184028D01*
X867636*
X626500Y166403D02*
X627045Y166778D01*
X627864Y167903*
Y160028*
X631955Y167903D02*
X631136Y167528D01*
X630591Y166403*
X630318Y164528*
Y163403*
X630591Y161528*
X631136Y160403*
X631955Y160028*
X632500*
X633318Y160403*
X633864Y161528*
X634136Y163403*
Y164528*
X633864Y166403*
X633318Y167528*
X632500Y167903*
X631955*
X714773Y166028D02*
Y166403D01*
X715045Y167153*
X715318Y167528*
X715864Y167903*
X716955*
X717500Y167528*
X717773Y167153*
X718045Y166403*
Y165653*
X717773Y164903*
X717227Y163778*
X714500Y160028*
X718318*
X721045Y166028D02*
Y166403D01*
X721318Y167153*
X721591Y167528*
X722136Y167903*
X723227*
X723773Y167528*
X724045Y167153*
X724318Y166403*
Y165653*
X724045Y164903*
X723500Y163778*
X720773Y160028*
X724591*
X727045Y166403D02*
X727591Y166778D01*
X728409Y167903*
Y160028*
X752500Y166028D02*
X764500D01*
X758500Y160028D02*
Y172028D01*
X785136Y167903D02*
X787318Y164153D01*
Y160028*
X789500Y167903D02*
X787318Y164153D01*
X791955Y167903D02*
Y160028D01*
Y167903D02*
X795500D01*
X791955Y164153D02*
X794136D01*
X791955Y160028D02*
X795500D01*
X801773Y166778D02*
X801227Y167528D01*
X800409Y167903*
X799318*
X798500Y167528*
X797955Y166778*
Y166028*
X798227Y165278*
X798500Y164903*
X799045Y164528*
X800682Y163778*
X801227Y163403*
X801500Y163028*
X801773Y162278*
Y161153*
X801227Y160403*
X800409Y160028*
X799318*
X798500Y160403*
X797955Y161153*
X838045Y166778D02*
Y160028D01*
X835591Y163403D02*
X840500D01*
X847864Y169403D02*
X842955Y157403D01*
X850318Y163403D02*
X855227D01*
X859318Y167903D02*
X858500Y167528D01*
X857955Y166403*
X857682Y164528*
Y163403*
X857955Y161528*
X858500Y160403*
X859318Y160028*
X859864*
X860682Y160403*
X861227Y161528*
X861500Y163403*
Y164528*
X861227Y166403*
X860682Y167528*
X859864Y167903*
X859318*
X864227Y160778D02*
X863955Y160403D01*
X864227Y160028*
X864500Y160403*
X864227Y160778*
X868591Y167903D02*
X867773Y167528D01*
X867227Y166403*
X866955Y164528*
Y163403*
X867227Y161528*
X867773Y160403*
X868591Y160028*
X869136*
X869955Y160403*
X870500Y161528*
X870773Y163403*
Y164528*
X870500Y166403*
X869955Y167528*
X869136Y167903*
X868591*
X874864D02*
X874045Y167528D01*
X873500Y166403*
X873227Y164528*
Y163403*
X873500Y161528*
X874045Y160403*
X874864Y160028*
X875409*
X876227Y160403*
X876773Y161528*
X877045Y163403*
Y164528*
X876773Y166403*
X876227Y167528*
X875409Y167903*
X874864*
X880045D02*
X883045D01*
X881409Y164903*
X882227*
X882773Y164528*
X883045Y164153*
X883318Y163028*
Y162278*
X883045Y161153*
X882500Y160403*
X881682Y160028*
X880864*
X880045Y160403*
X879773Y160778*
X879500Y161528*
G54D11*
X159634Y169500D02*
X174634D01*
G03Y189500I-0J10000*
G01X149634*
X142134D02*
X127134D01*
G03Y169500I-0J-10000*
G01X152134*
X210634Y189500D02*
X195634D01*
G03Y179500I-0J-5000*
G01X210634*
Y169500D02*
G03Y179500I-0J5000D01*
G01Y169500D02*
X190634D01*
G54D12*
X104634Y201000D02*
X554634D01*
Y101000*
X104634*
Y201000*
Y101000D02*
X279634D01*
Y201000*
X104634*
Y101000*
X224634Y168500D02*
G03X223134I-750J719D01*
G01X224634D02*
X222134Y164500D01*
X237134Y169500D02*
Y179500D01*
X247134Y169500*
Y179500*
X232134D02*
Y169500D01*
X261134Y179500D02*
X256134D01*
G03Y169500I-0J-5000*
G01X263634*
X268134Y169000D02*
Y170000D01*
G54D13*
X225134Y193000D02*
G03X225134I-3500J0D01*
G01X159634Y147831D02*
X160316Y144900D01*
X160997Y147831D02*
X160316Y144900D01*
X160997Y147831D02*
X161679Y144900D01*
X162361Y147831D02*
X161679Y144900D01*
X163895Y147831D02*
X164577Y144900D01*
X165259Y147831D02*
X164577Y144900D01*
X165259Y147831D02*
X165941Y144900D01*
X166622Y147831D02*
X165941Y144900D01*
X168157Y147831D02*
X168838Y144900D01*
X169520Y147831D02*
X168838Y144900D01*
X169520Y147831D02*
X170202Y144900D01*
X170884Y147831D02*
X170202Y144900D01*
X172588Y145319D02*
X172418Y145109D01*
X172588Y144900*
X172759Y145109*
X172588Y145319*
X176338Y147203D02*
X175997Y147622D01*
X175657Y147831*
X175145*
X174804Y147622*
X174463Y147203*
X174293Y146575*
Y146156*
X174463Y145528*
X174804Y145109*
X175145Y144900*
X175657*
X175997Y145109*
X176338Y145528*
X177872Y149297D02*
X178043Y149088D01*
X178043D02*
X178213Y149297D01*
X178043Y149506*
X177872Y149297*
X178043Y147831D02*
Y144900D01*
X179747Y147831D02*
Y144900D01*
Y146575D02*
X179918Y147203D01*
X180259Y147622*
X180600Y147831*
X181111*
X184691Y147203D02*
X184350Y147622D01*
X184009Y147831*
X183497*
X183157Y147622*
X182816Y147203*
X182645Y146575*
Y146156*
X182816Y145528*
X183157Y145109*
X183497Y144900*
X184009*
X184350Y145109*
X184691Y145528*
X186225Y147831D02*
Y145738D01*
X186225D02*
X186395Y145109D01*
X186736Y144900*
X187247*
X187588Y145109*
X188100Y145738*
Y147831D02*
Y144900D01*
X189634Y149297D02*
X189804Y149088D01*
X189804D02*
X189975Y149297D01*
X189804Y149506*
X189634Y149297*
X189804Y147831D02*
Y144900D01*
X192020Y149297D02*
Y145738D01*
X192020D02*
X192191Y145109D01*
X192532Y144900*
X192872*
X191509Y147831D02*
X192702D01*
X196452Y149297D02*
Y144900D01*
Y147203D02*
X196111Y147622D01*
X195770Y147831*
X195259*
X194918Y147622*
X194577Y147203*
X194407Y146575*
Y146156*
X194577Y145528*
X194918Y145109*
X195259Y144900*
X195770*
X196111Y145109*
X196452Y145528*
X197986Y146575D02*
X200032D01*
Y146994*
X199861Y147413*
X199861D02*
X199691Y147622D01*
X199350Y147831*
X198838*
X198497Y147622*
X198157Y147203*
X197986Y146575*
Y146156*
X198157Y145528*
X198497Y145109*
X198838Y144900*
X199350*
X199691Y145109*
X200032Y145528*
X203441Y147203D02*
X203270Y147622D01*
X202759Y147831*
X202247*
X201736Y147622*
X201566Y147203*
X201736Y146784*
X202077Y146575*
X202929Y146366*
X203270Y146156*
X203441Y145738*
X203441D02*
Y145528D01*
X203270Y145109*
X202759Y144900*
X202247*
X201736Y145109*
X201566Y145528*
X204975Y149297D02*
X205145Y149088D01*
X205145D02*
X205316Y149297D01*
X205145Y149506*
X204975Y149297*
X205145Y147831D02*
Y144900D01*
X208895Y147831D02*
Y144481D01*
X208725Y143853*
X208554Y143644*
X208213Y143434*
X207702*
X207361Y143644*
X208895Y147203D02*
X208554Y147622D01*
X208213Y147831*
X207702*
X207361Y147622*
X207020Y147203*
X206850Y146575*
Y146156*
X207020Y145528*
X207361Y145109*
X207702Y144900*
X208213*
X208554Y145109*
X208895Y145528*
X210429Y147831D02*
Y144900D01*
Y146994D02*
X210941Y147622D01*
X211282Y147831*
X211793*
X212134Y147622*
X212304Y146994*
Y144900*
X214009Y145319D02*
X213838Y145109D01*
X214009Y144900*
X214179Y145109*
X214009Y145319*
X217759Y147203D02*
X217418Y147622D01*
X217077Y147831*
X216566*
X216225Y147622*
X215884Y147203*
X215713Y146575*
Y146156*
X215884Y145528*
X216225Y145109*
X216566Y144900*
X217077*
X217418Y145109*
X217759Y145528*
X220145Y147831D02*
X219804Y147622D01*
X219463Y147203*
X219293Y146575*
Y146156*
X219463Y145528*
X219804Y145109*
X220145Y144900*
X220657*
X220997Y145109*
X221338Y145528*
X221509Y146156*
Y146575*
X221338Y147203*
X220997Y147622*
X220657Y147831*
X220145*
X223043D02*
Y144900D01*
Y146994D02*
X223554Y147622D01*
X223895Y147831*
X224407*
X224747Y147622*
X224918Y146994*
Y144900*
Y146994D02*
X225429Y147622D01*
X225770Y147831*
X226282*
X226622Y147622*
X226793Y146994*
Y144900*
X140032Y158750D02*
X139838Y159231D01*
X139452Y159713*
X139452D02*
X139066Y159953D01*
X138293*
X137907Y159713*
X137907D02*
X137520Y159231D01*
X137327Y158750*
X137134Y158028*
Y156825*
X137327Y156103*
X137520Y155622*
X137907Y155141*
X138293Y154900*
X139066*
X139452Y155141*
X139838Y155622*
X140032Y156103*
X141770Y159953D02*
X141963Y159713D01*
X141963D02*
X142157Y159953D01*
X141963Y160194*
X141770Y159953*
X141963Y158269D02*
Y154900D01*
X143895Y158269D02*
Y154900D01*
Y156825D02*
X144088Y157547D01*
X144475Y158028*
X144861Y158269*
X145441*
X149497Y157547D02*
X149111Y158028D01*
X148725Y158269*
X148145*
X147759Y158028*
X147372Y157547*
X147179Y156825*
Y156344*
X147372Y155622*
X147759Y155141*
X148145Y154900*
X148725*
X149111Y155141*
X149497Y155622*
X151236Y158269D02*
Y155863D01*
X151236D02*
X151429Y155141D01*
X151816Y154900*
X152395*
X152782Y155141*
X153361Y155863*
Y158269D02*
Y154900D01*
X155100Y159953D02*
X155293Y159713D01*
X155293D02*
X155486Y159953D01*
X155293Y160194*
X155100Y159953*
X155293Y158269D02*
Y154900D01*
X157804Y159953D02*
Y155863D01*
X157804D02*
X157997Y155141D01*
X158384Y154900*
X158770*
X157225Y158269D02*
X158577D01*
X164952Y159953D02*
Y154900D01*
Y159953D02*
X166304D01*
X166884Y159713*
X166884D02*
X167270Y159231D01*
X167463Y158750*
X167657Y158028*
Y156825*
X167463Y156103*
X167270Y155622*
X166884Y155141*
X166304Y154900*
X164952*
X169395Y156825D02*
X171713D01*
Y157306*
X171520Y157788*
X171520D02*
X171327Y158028D01*
X170941Y158269*
X170361*
X169975Y158028*
X169588Y157547*
X169395Y156825*
Y156344*
X169588Y155622*
X169975Y155141*
X170361Y154900*
X170941*
X171327Y155141*
X171713Y155622*
X175577Y157547D02*
X175384Y158028D01*
X174804Y158269*
X174225*
X173645Y158028*
X173452Y157547*
X173645Y157066*
X174032Y156825*
X174997Y156584*
X175384Y156344*
X175577Y155863*
X175577D02*
Y155622D01*
X175384Y155141*
X174804Y154900*
X174225*
X173645Y155141*
X173452Y155622*
X177316Y159953D02*
X177509Y159713D01*
X177509D02*
X177702Y159953D01*
X177509Y160194*
X177316Y159953*
X177509Y158269D02*
Y154900D01*
X181759Y158269D02*
Y154419D01*
X181566Y153697*
X181372Y153456*
X180986Y153216*
X180407*
X180020Y153456*
X181759Y157547D02*
X181372Y158028D01*
X180986Y158269*
X180407*
X180020Y158028*
X179634Y157547*
X179441Y156825*
Y156344*
X179634Y155622*
X180020Y155141*
X180407Y154900*
X180986*
X181372Y155141*
X181759Y155622*
X183497Y158269D02*
Y154900D01*
Y157306D02*
X184077Y158028D01*
X184463Y158269*
X185043*
X185429Y158028*
X185622Y157306*
Y154900*
X194509Y159231D02*
X194122Y159713D01*
X194122D02*
X193543Y159953D01*
X192770*
X192191Y159713*
X192191D02*
X191804Y159231D01*
Y158750*
X191997Y158269*
X192191Y158028*
X192577Y157788*
X192577D02*
X193736Y157306D01*
X194122Y157066*
X194316Y156825*
X194509Y156344*
Y155622*
X194122Y155141*
X193543Y154900*
X192770*
X192191Y155141*
X191804Y155622*
X196247Y158269D02*
Y153216D01*
Y157547D02*
X196634Y158028D01*
X197020Y158269*
X197600*
X197986Y158028*
X198372Y157547*
X198566Y156825*
Y156344*
X198372Y155622*
X197986Y155141*
X197600Y154900*
X197020*
X196634Y155141*
X196247Y155622*
X200304Y156825D02*
X202622D01*
Y157306*
X202429Y157788*
X202429D02*
X202236Y158028D01*
X201850Y158269*
X201270*
X200884Y158028*
X200497Y157547*
X200304Y156825*
Y156344*
X200497Y155622*
X200884Y155141*
X201270Y154900*
X201850*
X202236Y155141*
X202622Y155622*
X206679Y157547D02*
X206293Y158028D01*
X205907Y158269*
X205327*
X204941Y158028*
X204554Y157547*
X204361Y156825*
Y156344*
X204554Y155622*
X204941Y155141*
X205327Y154900*
X205907*
X206293Y155141*
X206679Y155622*
X208418Y159953D02*
X208611Y159713D01*
X208611D02*
X208804Y159953D01*
X208611Y160194*
X208418Y159953*
X208611Y158269D02*
Y154900D01*
X212861Y158269D02*
Y154900D01*
Y157547D02*
X212475Y158028D01*
X212088Y158269*
X211509*
X211122Y158028*
X210736Y157547*
X210543Y156825*
Y156344*
X210736Y155622*
X211122Y155141*
X211509Y154900*
X212088*
X212475Y155141*
X212861Y155622*
X214600Y159953D02*
Y154900D01*
X216918Y159953D02*
Y155863D01*
X216918D02*
X217111Y155141D01*
X217497Y154900*
X217884*
X216338Y158269D02*
X217691D01*
X219622Y159953D02*
X219816Y159713D01*
X219816D02*
X220009Y159953D01*
X219816Y160194*
X219622Y159953*
X219816Y158269D02*
Y154900D01*
X221747Y156825D02*
X224066D01*
Y157306*
X223872Y157788*
X223872D02*
X223679Y158028D01*
X223293Y158269*
X222713*
X222327Y158028*
X221941Y157547*
X221747Y156825*
Y156344*
X221941Y155622*
X222327Y155141*
X222713Y154900*
X223293*
X223679Y155141*
X224066Y155622*
X227929Y157547D02*
X227736Y158028D01*
X227157Y158269*
X226577*
X225997Y158028*
X225804Y157547*
X225997Y157066*
X226384Y156825*
X227350Y156584*
X227736Y156344*
X227929Y155863*
X227929D02*
Y155622D01*
X227736Y155141*
X227157Y154900*
X226577*
X225997Y155141*
X225804Y155622*
X230054Y155141D02*
X229861Y154900D01*
X229668Y155141*
X229861Y155381*
X230054Y155141*
Y154659*
X229861Y154178*
X229668Y153937*
X236236Y159953D02*
Y154900D01*
X237975Y158269D02*
Y154900D01*
Y157306D02*
X238554Y158028D01*
X238941Y158269*
X239520*
X239907Y158028*
X240100Y157306*
Y154900*
X244157Y157547D02*
X243770Y158028D01*
X243384Y158269*
X242804*
X242418Y158028*
X242032Y157547*
X241838Y156825*
Y156344*
X242032Y155622*
X242418Y155141*
X242804Y154900*
X243384*
X243770Y155141*
X244157Y155622*
X246088Y155381D02*
X245895Y155141D01*
X246088Y154900*
X246282Y155141*
X246088Y155381*
X220634Y194813D02*
Y191400D01*
Y194813D02*
X221861D01*
X221861D02*
X222270Y194650D01*
X222407Y194488*
X222407D02*
X222543Y194163D01*
X222543D02*
Y193838D01*
X222543D02*
X222407Y193513D01*
X222407D02*
X222270Y193350D01*
X221861Y193188*
X221861D02*
X220634D01*
X221588D02*
X222543Y191400D01*
G54D32*
X109634Y110188D02*
Y106250D01*
Y110188D02*
X110668D01*
X110668D02*
X111111Y110000D01*
X111407Y109625*
X111554Y109250*
X111702Y108688*
X111702D02*
Y107750D01*
X111554Y107188*
X111554D02*
X111407Y106813D01*
X111407D02*
X111111Y106438D01*
X111111D02*
X110668Y106250D01*
X109634*
X114213Y110188D02*
X113032Y106250D01*
X114213Y110188D02*
X115395Y106250D01*
X113475Y107563D02*
X114952D01*
X117759Y110188D02*
Y106250D01*
X116725Y110188D02*
X118793D01*
X120122D02*
Y106250D01*
Y110188D02*
X122043D01*
X120122Y108313D02*
X121304D01*
X120122Y106250D02*
X122043D01*
X123520Y108875D02*
X123372Y108688D01*
X123372D02*
X123520Y108500D01*
X123668Y108688*
X123668D02*
X123520Y108875D01*
Y106625D02*
X123372Y106438D01*
X123372D02*
X123520Y106250D01*
X123668Y106438*
X123668D02*
X123520Y106625D01*
X284634Y170188D02*
Y166250D01*
Y170188D02*
X285963D01*
X285963D02*
X286407Y170000D01*
X286554Y169813*
X286554D02*
X286702Y169438D01*
X286702D02*
Y168875D01*
X286554Y168500*
X286407Y168313*
X286407D02*
X285963Y168125D01*
X284634*
X288032Y170188D02*
Y166250D01*
Y170188D02*
X289361D01*
X289361D02*
X289804Y170000D01*
X289952Y169813*
X289952D02*
X290100Y169438D01*
X290100D02*
Y169063D01*
X290100D02*
X289952Y168688D01*
X289952D02*
X289804Y168500D01*
X289361Y168313*
X289361D02*
X288032D01*
X289066D02*
X290100Y166250D01*
X292316Y170188D02*
X292020Y170000D01*
X291725Y169625*
X291577Y169250*
X291429Y168688*
X291429D02*
Y167750D01*
X291577Y167188*
X291577D02*
X291725Y166813D01*
X291725D02*
X292020Y166438D01*
X292020D02*
X292316Y166250D01*
X292907*
X293202Y166438*
X293202D02*
X293497Y166813D01*
X293497D02*
X293645Y167188D01*
X293645D02*
X293793Y167750D01*
Y168688*
X293793D02*
X293645Y169250D01*
X293497Y169625*
X293202Y170000*
X292907Y170188*
X292907D02*
X292316D01*
X296600D02*
Y167188D01*
X296600D02*
X296452Y166625D01*
X296304Y166438*
X296304D02*
X296009Y166250D01*
X295713*
X295418Y166438*
X295418D02*
X295270Y166625D01*
X295122Y167188*
X295122D02*
Y167563D01*
X297929Y170188D02*
Y166250D01*
Y170188D02*
X299850D01*
X297929Y168313D02*
X299111D01*
X297929Y166250D02*
X299850D01*
X303395Y169250D02*
X303247Y169625D01*
X302952Y170000*
X302657Y170188*
X302657D02*
X302066D01*
X302066D02*
X301770Y170000D01*
X301475Y169625*
X301327Y169250*
X301179Y168688*
X301179D02*
Y167750D01*
X301327Y167188*
X301327D02*
X301475Y166813D01*
X301475D02*
X301770Y166438D01*
X301770D02*
X302066Y166250D01*
X302657*
X302952Y166438*
X302952D02*
X303247Y166813D01*
X303247D02*
X303395Y167188D01*
X305759Y170188D02*
Y166250D01*
X304725Y170188D02*
X306793D01*
X311520D02*
Y166250D01*
Y170188D02*
X313588Y166250D01*
Y170188D02*
Y166250D01*
X316100Y170188D02*
X314918Y166250D01*
X316100Y170188D02*
X317282Y166250D01*
X315361Y167563D02*
X316838D01*
X318611Y170188D02*
Y166250D01*
Y170188D02*
X319793Y166250D01*
X320975Y170188D02*
X319793Y166250D01*
X320975Y170188D02*
Y166250D01*
X322304Y170188D02*
Y166250D01*
Y170188D02*
X324225D01*
X322304Y168313D02*
X323486D01*
X322304Y166250D02*
X324225D01*
X325702Y168875D02*
X325554Y168688D01*
X325554D02*
X325702Y168500D01*
X325850Y168688*
X325850D02*
X325702Y168875D01*
Y166625D02*
X325554Y166438D01*
X325554D02*
X325702Y166250D01*
X325850Y166438*
X325850D02*
X325702Y166625D01*
X284634Y145188D02*
Y141250D01*
Y145188D02*
X285963D01*
X285963D02*
X286407Y145000D01*
X286554Y144813*
X286554D02*
X286702Y144438D01*
X286702D02*
Y143875D01*
X286554Y143500*
X286407Y143313*
X286407D02*
X285963Y143125D01*
X284634*
X289213Y145188D02*
X288032Y141250D01*
X289213Y145188D02*
X290395Y141250D01*
X288475Y142563D02*
X289952D01*
X291725Y145188D02*
Y141250D01*
Y145188D02*
X293054D01*
X293054D02*
X293497Y145000D01*
X293645Y144813*
X293645D02*
X293793Y144438D01*
X293793D02*
Y144063D01*
X293793D02*
X293645Y143688D01*
X293645D02*
X293497Y143500D01*
X293054Y143313*
X293054D02*
X291725D01*
X292759D02*
X293793Y141250D01*
X296157Y145188D02*
Y141250D01*
X295122Y145188D02*
X297191D01*
X301918D02*
Y141250D01*
Y145188D02*
X303986Y141250D01*
Y145188D02*
Y141250D01*
X305316Y145188D02*
Y142375D01*
X305463Y141813*
X305463D02*
X305759Y141438D01*
X305759D02*
X306202Y141250D01*
X306497*
X306941Y141438*
X306941D02*
X307236Y141813D01*
X307236D02*
X307384Y142375D01*
Y145188*
X308713D02*
Y141250D01*
Y145188D02*
X309895Y141250D01*
X311077Y145188D02*
X309895Y141250D01*
X311077Y145188D02*
Y141250D01*
X312407Y145188D02*
Y141250D01*
Y145188D02*
X313736D01*
X313736D02*
X314179Y145000D01*
X314327Y144813*
X314327D02*
X314475Y144438D01*
X314475D02*
Y144063D01*
X314475D02*
X314327Y143688D01*
X314327D02*
X314179Y143500D01*
X313736Y143313*
X312407D02*
X313736D01*
X313736D02*
X314179Y143125D01*
X314327Y142938*
X314327D02*
X314475Y142563D01*
X314475D02*
Y142000D01*
X314327Y141625*
X314179Y141438*
X314179D02*
X313736Y141250D01*
X312407*
X315804Y145188D02*
Y141250D01*
Y145188D02*
X317725D01*
X315804Y143313D02*
X316986D01*
X315804Y141250D02*
X317725D01*
X319054Y145188D02*
Y141250D01*
Y145188D02*
X320384D01*
X320384D02*
X320827Y145000D01*
X320975Y144813*
X320975D02*
X321122Y144438D01*
X321122D02*
Y144063D01*
X321122D02*
X320975Y143688D01*
X320975D02*
X320827Y143500D01*
X320384Y143313*
X320384D02*
X319054D01*
X320088D02*
X321122Y141250D01*
X322600Y143875D02*
X322452Y143688D01*
X322452D02*
X322600Y143500D01*
X322747Y143688*
X322747D02*
X322600Y143875D01*
Y141625D02*
X322452Y141438D01*
X322452D02*
X322600Y141250D01*
X322747Y141438*
X322747D02*
X322600Y141625D01*
X284634Y120188D02*
Y116250D01*
Y120188D02*
X285668D01*
X285668D02*
X286111Y120000D01*
X286407Y119625*
X286554Y119250*
X286702Y118688*
X286702D02*
Y117750D01*
X286554Y117188*
X286554D02*
X286407Y116813D01*
X286407D02*
X286111Y116438D01*
X286111D02*
X285668Y116250D01*
X284634*
X288032Y120188D02*
Y116250D01*
Y120188D02*
X289952D01*
X288032Y118313D02*
X289213D01*
X288032Y116250D02*
X289952D01*
X293350Y119625D02*
X293054Y120000D01*
X292611Y120188*
X292611D02*
X292020D01*
X292020D02*
X291577Y120000D01*
X291282Y119625*
Y119250*
X291429Y118875*
X291577Y118688*
X291577D02*
X291872Y118500D01*
X292759Y118125*
X293054Y117938*
X293054D02*
X293202Y117750D01*
X293350Y117375*
Y116813*
X293350D02*
X293054Y116438D01*
X293054D02*
X292611Y116250D01*
X292020*
X291577Y116438*
X291577D02*
X291282Y116813D01*
X296895Y119250D02*
X296747Y119625D01*
X296452Y120000*
X296157Y120188*
X296157D02*
X295566D01*
X295566D02*
X295270Y120000D01*
X294975Y119625*
X294827Y119250*
X294679Y118688*
X294679D02*
Y117750D01*
X294827Y117188*
X294827D02*
X294975Y116813D01*
X294975D02*
X295270Y116438D01*
X295270D02*
X295566Y116250D01*
X296157*
X296452Y116438*
X296452D02*
X296747Y116813D01*
X296747D02*
X296895Y117188D01*
X298225Y120188D02*
Y116250D01*
Y120188D02*
X299554D01*
X299554D02*
X299997Y120000D01*
X300145Y119813*
X300145D02*
X300293Y119438D01*
X300293D02*
Y119063D01*
X300293D02*
X300145Y118688D01*
X300145D02*
X299997Y118500D01*
X299554Y118313*
X299554D02*
X298225D01*
X299259D02*
X300293Y116250D01*
X301622Y120188D02*
Y116250D01*
X302952Y120188D02*
Y116250D01*
Y120188D02*
X304282D01*
X304282D02*
X304725Y120000D01*
X304872Y119813*
X304872D02*
X305020Y119438D01*
X305020D02*
Y118875D01*
X304872Y118500*
X304725Y118313*
X304725D02*
X304282Y118125D01*
X302952*
X307384Y120188D02*
Y116250D01*
X306350Y120188D02*
X308418D01*
X309747D02*
Y116250D01*
X311963Y120188D02*
X311668Y120000D01*
X311372Y119625*
X311225Y119250*
X311077Y118688*
X311077D02*
Y117750D01*
X311225Y117188*
X311225D02*
X311372Y116813D01*
X311372D02*
X311668Y116438D01*
X311668D02*
X311963Y116250D01*
X312554*
X312850Y116438*
X312850D02*
X313145Y116813D01*
X313145D02*
X313293Y117188D01*
X313293D02*
X313441Y117750D01*
Y118688*
X313441D02*
X313293Y119250D01*
X313145Y119625*
X312850Y120000*
X312554Y120188*
X312554D02*
X311963D01*
X314770D02*
Y116250D01*
Y120188D02*
X316838Y116250D01*
Y120188D02*
Y116250D01*
X318316Y118875D02*
X318168Y118688D01*
X318168D02*
X318316Y118500D01*
X318463Y118688*
X318463D02*
X318316Y118875D01*
Y116625D02*
X318168Y116438D01*
X318168D02*
X318316Y116250D01*
X318463Y116438*
X318463D02*
X318316Y116625D01*
X286850Y194250D02*
X286702Y194625D01*
X286407Y195000*
X286111Y195188*
X286111D02*
X285520D01*
X285520D02*
X285225Y195000D01*
X284929Y194625*
X284782Y194250*
X284634Y193688*
X284634D02*
Y192750D01*
X284782Y192188*
X284782D02*
X284929Y191813D01*
X284929D02*
X285225Y191438D01*
X285225D02*
X285520Y191250D01*
X286111*
X286407Y191438*
X286407D02*
X286702Y191813D01*
X286702D02*
X286850Y192188D01*
X288179Y195188D02*
Y192375D01*
X288327Y191813*
X288327D02*
X288622Y191438D01*
X288622D02*
X289066Y191250D01*
X289361*
X289804Y191438*
X289804D02*
X290100Y191813D01*
X290100D02*
X290247Y192375D01*
Y195188*
X293645Y194625D02*
X293350Y195000D01*
X292907Y195188*
X292907D02*
X292316D01*
X292316D02*
X291872Y195000D01*
X291577Y194625*
Y194250*
X291725Y193875*
X291872Y193688*
X291872D02*
X292168Y193500D01*
X293054Y193125*
X293350Y192938*
X293350D02*
X293497Y192750D01*
X293645Y192375*
Y191813*
X293645D02*
X293350Y191438D01*
X293350D02*
X292907Y191250D01*
X292316*
X291872Y191438*
X291872D02*
X291577Y191813D01*
X296009Y195188D02*
Y191250D01*
X294975Y195188D02*
X297043D01*
X299259D02*
X298963Y195000D01*
X298668Y194625*
X298520Y194250*
X298372Y193688*
X298372D02*
Y192750D01*
X298520Y192188*
X298520D02*
X298668Y191813D01*
X298668D02*
X298963Y191438D01*
X298963D02*
X299259Y191250D01*
X299850*
X300145Y191438*
X300145D02*
X300441Y191813D01*
X300441D02*
X300588Y192188D01*
X300588D02*
X300736Y192750D01*
Y193688*
X300736D02*
X300588Y194250D01*
X300441Y194625*
X300145Y195000*
X299850Y195188*
X299850D02*
X299259D01*
X302066D02*
Y191250D01*
Y195188D02*
X303247Y191250D01*
X304429Y195188D02*
X303247Y191250D01*
X304429Y195188D02*
Y191250D01*
X305759Y195188D02*
Y191250D01*
Y195188D02*
X307679D01*
X305759Y193313D02*
X306941D01*
X305759Y191250D02*
X307679D01*
X309009Y195188D02*
Y191250D01*
Y195188D02*
X310338D01*
X310338D02*
X310782Y195000D01*
X310929Y194813*
X310929D02*
X311077Y194438D01*
X311077D02*
Y194063D01*
X311077D02*
X310929Y193688D01*
X310929D02*
X310782Y193500D01*
X310338Y193313*
X310338D02*
X309009D01*
X310043D02*
X311077Y191250D01*
X312554Y193875D02*
X312407Y193688D01*
X312407D02*
X312554Y193500D01*
X312702Y193688*
X312702D02*
X312554Y193875D01*
Y191625D02*
X312407Y191438D01*
X312407D02*
X312554Y191250D01*
X312702Y191438*
X312702D02*
X312554Y191625D01*
X111850Y129250D02*
X111702Y129625D01*
X111407Y130000*
X111111Y130188*
X111111D02*
X110520D01*
X110520D02*
X110225Y130000D01*
X109929Y129625*
X109782Y129250*
X109634Y128688*
X109634D02*
Y127750D01*
X109782Y127188*
X109782D02*
X109929Y126813D01*
X109929D02*
X110225Y126438D01*
X110225D02*
X110520Y126250D01*
X111111*
X111407Y126438*
X111407D02*
X111702Y126813D01*
X111702D02*
X111850Y127188D01*
X113179Y130188D02*
Y126250D01*
Y130188D02*
X114213D01*
X114213D02*
X114657Y130000D01*
X114952Y129625*
X115100Y129250*
X115247Y128688*
X115247D02*
Y127750D01*
X115100Y127188*
X115100D02*
X114952Y126813D01*
X114952D02*
X114657Y126438D01*
X114657D02*
X114213Y126250D01*
X113179*
X118645Y129625D02*
X118350Y130000D01*
X117907Y130188*
X117907D02*
X117316D01*
X117316D02*
X116872Y130000D01*
X116577Y129625*
Y129250*
X116725Y128875*
X116872Y128688*
X116872D02*
X117168Y128500D01*
X118054Y128125*
X118350Y127938*
X118350D02*
X118497Y127750D01*
X118645Y127375*
Y126813*
X118645D02*
X118350Y126438D01*
X118350D02*
X117907Y126250D01*
X117316*
X116872Y126438*
X116872D02*
X116577Y126813D01*
X124850Y130188D02*
Y127188D01*
X124850D02*
X124702Y126625D01*
X124554Y126438*
X124554D02*
X124259Y126250D01*
X123963*
X123668Y126438*
X123668D02*
X123520Y126625D01*
X123372Y127188*
X123372D02*
Y127563D01*
X127066Y130188D02*
X126770Y130000D01*
X126475Y129625*
X126327Y129250*
X126179Y128688*
X126179D02*
Y127750D01*
X126327Y127188*
X126327D02*
X126475Y126813D01*
X126475D02*
X126770Y126438D01*
X126770D02*
X127066Y126250D01*
X127657*
X127952Y126438*
X127952D02*
X128247Y126813D01*
X128247D02*
X128395Y127188D01*
X128395D02*
X128543Y127750D01*
Y128688*
X128543D02*
X128395Y129250D01*
X128247Y129625*
X127952Y130000*
X127657Y130188*
X127657D02*
X127066D01*
X129872D02*
Y126250D01*
Y130188D02*
X131202D01*
X131202D02*
X131645Y130000D01*
X131793Y129813*
X131793D02*
X131941Y129438D01*
X131941D02*
Y129063D01*
X131941D02*
X131793Y128688D01*
X131793D02*
X131645Y128500D01*
X131202Y128313*
X129872D02*
X131202D01*
X131202D02*
X131645Y128125D01*
X131793Y127938*
X131793D02*
X131941Y127563D01*
X131941D02*
Y127000D01*
X131793Y126625*
X131645Y126438*
X131645D02*
X131202Y126250D01*
X129872*
X136668Y130188D02*
Y126250D01*
Y130188D02*
X138736Y126250D01*
Y130188D02*
Y126250D01*
X140066Y130188D02*
Y127375D01*
X140213Y126813*
X140213D02*
X140509Y126438D01*
X140509D02*
X140952Y126250D01*
X141247*
X141691Y126438*
X141691D02*
X141986Y126813D01*
X141986D02*
X142134Y127375D01*
Y130188*
X143463D02*
Y126250D01*
Y130188D02*
X144645Y126250D01*
X145827Y130188D02*
X144645Y126250D01*
X145827Y130188D02*
Y126250D01*
X147157Y130188D02*
Y126250D01*
Y130188D02*
X148486D01*
X148486D02*
X148929Y130000D01*
X149077Y129813*
X149077D02*
X149225Y129438D01*
X149225D02*
Y129063D01*
X149225D02*
X149077Y128688D01*
X149077D02*
X148929Y128500D01*
X148486Y128313*
X147157D02*
X148486D01*
X148486D02*
X148929Y128125D01*
X149077Y127938*
X149077D02*
X149225Y127563D01*
X149225D02*
Y127000D01*
X149077Y126625*
X148929Y126438*
X148929D02*
X148486Y126250D01*
X147157*
X150554Y130188D02*
Y126250D01*
Y130188D02*
X152475D01*
X150554Y128313D02*
X151736D01*
X150554Y126250D02*
X152475D01*
X153804Y130188D02*
Y126250D01*
Y130188D02*
X155134D01*
X155134D02*
X155577Y130000D01*
X155725Y129813*
X155725D02*
X155872Y129438D01*
X155872D02*
Y129063D01*
X155872D02*
X155725Y128688D01*
X155725D02*
X155577Y128500D01*
X155134Y128313*
X155134D02*
X153804D01*
X154838D02*
X155872Y126250D01*
X157350Y128875D02*
X157202Y128688D01*
X157202D02*
X157350Y128500D01*
X157497Y128688*
X157497D02*
X157350Y128875D01*
Y126625D02*
X157202Y126438D01*
X157202D02*
X157350Y126250D01*
X157497Y126438*
X157497D02*
X157350Y126625D01*
G54D83*
X596638Y266980D02*
X695638D01*
X596138D02*
X595838Y266680D01*
X596138Y287202D02*
X696051D01*
X596138Y267202D02*
X696051D01*
X596138Y307202D02*
X696051D01*
X596051Y327202D02*
X694638D01*
X596138D02*
Y267202D01*
G54D85*
X455579Y374028D02*
X455581D01*
X100500D02*
X100503D01*
X455579Y274028D02*
X455581D01*
X446957Y374028D02*
X446959D01*
X872957Y441938D02*
X872960D01*
X892332Y440063D02*
X892335D01*
X892332D02*
X892335D01*
X887957Y435688D02*
X887960D01*
X887957D02*
X887960D01*
X892332Y440063D02*
X892335D01*
X887957Y435688D02*
X887960D01*
X892332Y564438D02*
X892335D01*
G74*
X0Y0D02*
M02*
