*
*
G04 PADS9.1 Build Number: 384028 generated Gerber (RS-274-X) file*
G04 PC Version=2.1*
*
%IN "{TEX065}F2806xISOcontro"*%
*
%MOIN*%
*
%FSLAX35Y35*%
*
*
*
*
G04 PC Standard Apertures*
*
*
G04 Thermal Relief Aperture macro.*
%AMTER*
1,1,$1,0,0*
1,0,$1-$2,0,0*
21,0,$3,$4,0,0,45*
21,0,$3,$4,0,0,135*
%
*
*
G04 Annular Aperture macro.*
%AMANN*
1,1,$1,0,0*
1,0,$2,0,0*
%
*
*
G04 Odd Aperture macro.*
%AMODD*
1,1,$1,0,0*
1,0,$1-0.005,0,0*
%
*
*
G04 PC Custom Aperture Macros*
*
*
*
*
*
*
G04 PC Aperture Table*
*
%ADD044C,0.05*%
%ADD050C,0.08*%
%ADD131C,0.07*%
%ADD174R,0.04X0.063*%
%ADD187C,0.028*%
%ADD188C,0.02775*%
%ADD223C,0*%
%ADD224C,0.01*%
%ADD229C,0.008*%
%ADD230C,0.001*%
%ADD231C,0.05*%
%ADD232C,0.015*%
*
*
*
*
G04 PC Circuitry*
G04 Layer Name {TEX065}F2806xISOcontro - circuitry*
%LPD*%
*
*
G04 PC Custom Flashes*
G04 Layer Name {TEX065}F2806xISOcontro - flashes*
%LPD*%
*
*
G04 PC Circuitry*
G04 Layer Name {TEX065}F2806xISOcontro - circuitry*
%LPD*%
*
G54D44*
G01X1130500Y1102500D03*
Y1097500D03*
X1129500Y1078500D03*
Y1073500D03*
X1130000Y1030500D03*
X1131000Y1054500D03*
X1130000Y1025500D03*
X1336500Y1089000D03*
X1289500Y1105000D03*
Y1110500D03*
X1332000Y1089000D03*
X1327500Y1093500D03*
Y1089000D03*
X1340500D03*
G54D50*
X1318500Y1044000D03*
G54D131*
X1039390Y1094858D03*
X1025610D03*
G54D174*
X1329500Y1037000D03*
G54D187*
X1027000Y1016000D03*
X1100000Y1008500D03*
X1090000D03*
X1124500Y1017000D03*
X1122000D03*
X1119000D03*
X1116500D03*
X1130000Y1022500D03*
X1140500Y1011500D03*
X1132500Y1023000D03*
X1134000Y1013000D03*
X1120000Y1008500D03*
X1110000D03*
X1160500Y1022000D03*
X1157000Y1012500D03*
X1147500Y1014000D03*
X1152000Y1022500D03*
X1160000Y1012500D03*
X1179000Y1018000D03*
X1173500Y1020000D03*
X1153000Y1013500D03*
X1182500Y1015500D03*
X1181000Y1022000D03*
X1199000Y1016500D03*
X1220000Y1011500D03*
X1210000Y1013000D03*
X1215000Y1012000D03*
X1205000Y1014000D03*
X1200000Y1013500D03*
X1195000Y1015000D03*
X1190000D03*
X1204000Y1011500D03*
X1224500D03*
X1248000Y1012500D03*
X1262000Y1014000D03*
X1239000Y1012000D03*
X1235000Y1012500D03*
X1256500D03*
X1283000Y1017500D03*
X1288500Y1011500D03*
X1282500Y1014000D03*
X1271500Y1012000D03*
X1296000Y1020500D03*
X1267000Y1014000D03*
X1293000Y1022500D03*
X1272000Y1014500D03*
X1277500Y1018500D03*
X1282000Y1021500D03*
X1274500Y1014500D03*
X1280000Y1019500D03*
X1285000Y1022000D03*
X1299000Y1014000D03*
X1302000Y1017500D03*
X1295500Y1013000D03*
X1305000Y1012000D03*
X1020000Y1042000D03*
Y1034000D03*
X1016500Y1024000D03*
X1035000Y1028500D03*
X1042500Y1050500D03*
X1025500Y1061000D03*
X1045000Y1025500D03*
X1037000Y1057500D03*
X1055000Y1038000D03*
X1055500Y1032500D03*
X1044500Y1054500D03*
X1035000Y1061000D03*
X1053000Y1060500D03*
X1056000Y1054000D03*
X1053000Y1031500D03*
X1040500Y1048500D03*
X1033000Y1059500D03*
X1026000Y1034000D03*
X1053500Y1050000D03*
Y1054500D03*
X1031500Y1034500D03*
X1044500Y1061000D03*
X1041000Y1058500D03*
X1056000Y1050000D03*
X1050500Y1026000D03*
X1030500Y1054500D03*
Y1050000D03*
X1028000Y1025500D03*
X1037500Y1026500D03*
X1079000Y1047000D03*
Y1042000D03*
X1065671Y1053829D03*
X1065500Y1057000D03*
X1085000Y1042000D03*
X1065000Y1059500D03*
X1097500Y1054500D03*
X1085000Y1052000D03*
X1097500Y1025500D03*
Y1030500D03*
Y1035500D03*
Y1044500D03*
X1118000Y1041000D03*
X1129000Y1038000D03*
X1131000Y1035500D03*
X1121000Y1040500D03*
X1128500Y1035500D03*
X1129000Y1044500D03*
X1106000Y1063500D03*
X1166000Y1029500D03*
X1172000Y1035500D03*
X1169000Y1040000D03*
X1145000Y1027500D03*
X1174500Y1036500D03*
X1165000Y1047000D03*
X1155500Y1058500D03*
X1167000Y1054000D03*
X1145500Y1025000D03*
X1166000Y1034500D03*
X1158500Y1030000D03*
X1164000Y1053000D03*
X1151500Y1062000D03*
X1157000Y1024500D03*
X1178500Y1036500D03*
X1169000Y1047000D03*
X1161000Y1033500D03*
X1173000Y1025000D03*
X1169500Y1029500D03*
X1175000Y1029000D03*
X1204500Y1047000D03*
X1197500Y1063500D03*
X1184000Y1027000D03*
X1208000Y1037500D03*
X1188000Y1057000D03*
X1219000Y1037000D03*
X1211000Y1047000D03*
X1215000D03*
X1189000Y1046500D03*
X1199500Y1037000D03*
X1201500Y1047000D03*
X1207500D03*
X1197500Y1060500D03*
Y1048500D03*
X1204000Y1036500D03*
X1222500Y1027500D03*
X1190000Y1032500D03*
X1218000Y1062500D03*
X1213000D03*
X1208000D03*
X1221500Y1037000D03*
X1218000Y1057500D03*
X1213000D03*
X1208000D03*
X1221000Y1047000D03*
X1218000Y1052500D03*
X1213000D03*
X1208000D03*
X1184500Y1045500D03*
X1203000Y1062500D03*
Y1057500D03*
Y1052500D03*
X1198000Y1054500D03*
X1255000Y1039500D03*
X1230500Y1047000D03*
X1254500Y1031500D03*
X1261500Y1033000D03*
X1230000Y1037500D03*
X1253000Y1041500D03*
X1236000Y1037500D03*
X1239000D03*
X1260500Y1062500D03*
X1258000Y1042000D03*
X1251900Y1026000D03*
X1260000Y1057000D03*
X1258000Y1059000D03*
X1235500Y1033500D03*
X1241500Y1037000D03*
X1248500Y1061500D03*
X1245400Y1028000D03*
X1233000Y1037500D03*
Y1046500D03*
X1249000Y1035500D03*
X1258000Y1050500D03*
X1260500Y1030500D03*
X1227500Y1047000D03*
X1225000D03*
X1243000Y1062500D03*
X1238000D03*
X1233000D03*
X1228000D03*
X1223000D03*
X1257500Y1056500D03*
X1239000Y1032000D03*
X1243000Y1057500D03*
X1238000D03*
X1233000D03*
X1228000D03*
X1223000D03*
X1243000Y1052500D03*
X1238000D03*
X1233000D03*
X1228000D03*
X1223000D03*
X1263000Y1062500D03*
X1278000Y1060500D03*
X1286000Y1055000D03*
X1291000Y1032000D03*
X1286000Y1050500D03*
X1294500Y1027000D03*
X1272500Y1027500D03*
X1294500Y1040000D03*
X1298500Y1027000D03*
X1264500Y1035000D03*
X1298000Y1029500D03*
X1270000Y1053000D03*
X1272000Y1048000D03*
X1274000Y1049500D03*
X1268000Y1026000D03*
X1273000Y1044000D03*
X1272000Y1039000D03*
X1267500Y1035000D03*
X1293500Y1036000D03*
X1273000Y1053500D03*
X1284500Y1025000D03*
X1284000Y1028000D03*
X1293000Y1042000D03*
X1318500Y1050000D03*
X1322000Y1062000D03*
X1314500Y1049000D03*
Y1040500D03*
X1338000Y1058000D03*
X1334000Y1028500D03*
X1319000Y1029000D03*
X1328500Y1032000D03*
X1306000Y1037500D03*
X1326000Y1057000D03*
X1337000Y1053500D03*
X1340500Y1049500D03*
X1018000Y1078000D03*
X1035500Y1092000D03*
X1029500D03*
X1026500Y1070000D03*
X1045000Y1069500D03*
X1049000Y1077000D03*
X1031000Y1072000D03*
X1038000Y1075000D03*
X1092000Y1097500D03*
X1079000Y1078000D03*
X1095500Y1102500D03*
X1070500Y1093000D03*
X1083500Y1080500D03*
X1078000Y1101000D03*
X1097000Y1078500D03*
Y1073500D03*
X1088000Y1097500D03*
X1097500Y1068500D03*
Y1092500D03*
X1129500Y1069500D03*
X1135000Y1080000D03*
X1135500Y1084000D03*
X1137500Y1086000D03*
Y1090000D03*
X1135500Y1092000D03*
X1137000Y1082000D03*
X1135500Y1088000D03*
X1137500Y1094000D03*
X1135500Y1100000D03*
X1137500Y1102000D03*
X1128000Y1092500D03*
X1153500Y1068000D03*
X1173000Y1067000D03*
X1172500Y1092500D03*
X1156000Y1088000D03*
X1159000Y1075500D03*
X1152000Y1092000D03*
X1166000Y1100000D03*
X1166500Y1075000D03*
X1173000Y1088000D03*
X1163000Y1074000D03*
X1159000Y1099500D03*
X1162500Y1101000D03*
X1182500Y1097500D03*
X1187000Y1068500D03*
X1201500Y1098000D03*
X1197500Y1066500D03*
X1198000Y1076000D03*
X1186500Y1072500D03*
X1218000Y1077500D03*
X1213000D03*
X1208000D03*
X1218000Y1072500D03*
X1213000D03*
X1208000D03*
X1218000Y1082500D03*
X1213000D03*
X1208000D03*
X1197500Y1096000D03*
X1219000Y1098000D03*
X1218000Y1092500D03*
Y1087500D03*
X1213000D03*
X1208000D03*
X1218000Y1067500D03*
X1213000D03*
X1208000D03*
X1183000Y1066500D03*
X1212000Y1098000D03*
X1213000Y1092500D03*
X1208000D03*
X1203000D03*
Y1087500D03*
Y1082500D03*
Y1077500D03*
Y1072500D03*
Y1067500D03*
X1187000Y1076500D03*
X1197500Y1092000D03*
X1238000Y1092500D03*
X1258500Y1085000D03*
X1259500Y1082500D03*
X1258500Y1079000D03*
Y1076000D03*
X1227000Y1098000D03*
X1248500Y1074500D03*
X1244500Y1098000D03*
X1238000D03*
X1223000D03*
X1243000Y1077500D03*
X1238000D03*
X1233000D03*
X1228000D03*
X1223000D03*
X1243000Y1072500D03*
X1238000D03*
X1233000D03*
X1228000D03*
X1223000D03*
X1248500Y1080500D03*
X1243000Y1082500D03*
X1238000D03*
X1233000D03*
X1228000D03*
X1223000D03*
X1233000Y1092500D03*
X1228000D03*
X1223000D03*
X1241000Y1098000D03*
X1243000Y1092500D03*
Y1087500D03*
X1238000D03*
X1233000D03*
X1228000D03*
X1223000D03*
X1258000Y1067000D03*
X1243000Y1067500D03*
X1238000D03*
X1233000D03*
X1228000D03*
X1223000D03*
X1289000Y1075500D03*
X1288000Y1073000D03*
X1272500Y1079500D03*
X1266000Y1077500D03*
X1274000Y1101500D03*
X1289000Y1070500D03*
X1263500Y1078000D03*
X1285000Y1064500D03*
X1266000Y1103500D03*
X1272500Y1098500D03*
X1292000Y1066500D03*
X1339500Y1073500D03*
Y1065000D03*
X1311500Y1090500D03*
X1311000Y1068500D03*
X1306000D03*
X1322000Y1095500D03*
X1339500Y1082000D03*
X1059000Y1104500D03*
X1102000Y1111500D03*
X1081500Y1110500D03*
X1064000Y1115000D03*
X1101500Y1114500D03*
X1124500D03*
X1123500Y1111000D03*
X1135500Y1104000D03*
X1137500Y1106000D03*
X1135500Y1108000D03*
X1137500Y1110000D03*
X1135500Y1112000D03*
X1137500Y1114000D03*
X1155500Y1106500D03*
X1169000Y1111500D03*
X1153500Y1109000D03*
X1172500Y1108000D03*
X1193000D03*
X1205000Y1116000D03*
X1221031Y1108000D03*
X1248500Y1116100D03*
X1302000Y1114000D03*
X1279500D03*
X1282500Y1110000D03*
X1278000Y1107500D03*
X1266500D03*
X1283000Y1113500D03*
Y1116000D03*
X1297500Y1113500D03*
X1281000Y1107500D03*
X1335500Y1105500D03*
X1324500Y1109500D03*
X1305000Y1105000D03*
X1315000D03*
X1327000Y1108500D03*
X1340500Y1115500D03*
G54D188*
X1329500Y1038575D03*
Y1035425D03*
G54D223*
G54D224*
X1293580Y664184D02*
Y654341D01*
X1297670*
X1303466Y664184D02*
X1300739Y654341D01*
X1303466Y664184D02*
X1306193Y654341D01*
X1301761Y657622D02*
X1305170D01*
X1309261Y664184D02*
X1311989Y659497D01*
Y654341*
X1314716Y664184D02*
X1311989Y659497D01*
X1317784Y664184D02*
Y654341D01*
Y664184D02*
X1322216D01*
X1317784Y659497D02*
X1320511D01*
X1317784Y654341D02*
X1322216D01*
X1325284Y664184D02*
Y654341D01*
Y664184D02*
X1328352D01*
X1329375Y663716*
X1329716Y663247*
X1330057Y662309*
Y661372*
X1329716Y660434*
X1329375Y659966*
X1328352Y659497*
X1325284*
X1327670D02*
X1330057Y654341D01*
X827600Y692544D02*
Y682700D01*
Y692544D02*
X830668D01*
X831691Y692075*
X832032Y691606*
X832373Y690669*
Y689263*
X832373D02*
X832032Y688325D01*
X831691Y687856*
X830668Y687388*
X830668D02*
X827600D01*
X835441Y692544D02*
Y682700D01*
X840214Y692544D02*
Y682700D01*
X835441Y687856D02*
X840214D01*
X845327Y692544D02*
X844645Y692075D01*
X843964Y691138*
X843964D02*
X843623Y690200D01*
X843282Y688794*
Y686450*
X843623Y685044*
X843964Y684106*
X844645Y683169*
X845327Y682700*
X846691*
X847373Y683169*
X848055Y684106*
X848395Y685044*
X848736Y686450*
Y688794*
X848395Y690200*
X848055Y691138*
X848055D02*
X847373Y692075D01*
X846691Y692544*
X845327*
X851805D02*
Y682700D01*
Y692544D02*
X856577Y682700D01*
Y692544D02*
Y682700D01*
X859645Y692544D02*
Y682700D01*
Y692544D02*
X864077D01*
X859645Y687856D02*
X862373D01*
X859645Y682700D02*
X864077D01*
X867486Y689263D02*
X867145Y688794D01*
X867486Y688325*
X867827Y688794*
X867486Y689263*
Y683638D02*
X867145Y683169D01*
X867486Y682700*
X867827Y683169*
X867486Y683638*
X883168Y692544D02*
X879759D01*
X879418Y688325*
X879759Y688794*
X880782Y689263*
X880782D02*
X881805D01*
X881805D02*
X882827Y688794D01*
X883509Y687856*
X883850Y686450*
X883509Y685513*
X883509D02*
X883168Y684106D01*
X882486Y683169*
X881464Y682700*
X880441*
X879418Y683169*
X879077Y683638*
X879077D02*
X878736Y684575D01*
X888964Y692544D02*
X887941Y692075D01*
X887259Y690669*
X886918Y688325*
Y686919*
X887259Y684575*
X887941Y683169*
X888964Y682700*
X889645*
X890668Y683169*
X891350Y684575*
X891691Y686919*
Y688325*
X891350Y690669*
X890668Y692075*
X889645Y692544*
X888964*
X896464D02*
X895441Y692075D01*
X895100Y691138*
X895100D02*
Y690200D01*
X895441Y689263*
X895441D02*
X896123Y688794D01*
X897486Y688325*
X898509Y687856*
X899191Y686919*
X899532Y685981*
Y684575*
X899191Y683638*
X899191D02*
X898850Y683169D01*
X897827Y682700*
X896464*
X895441Y683169*
X895100Y683638*
X895100D02*
X894759Y684575D01*
Y685981*
X895100Y686919*
X895782Y687856*
X896805Y688325*
X898168Y688794*
X898850Y689263*
X898850D02*
X899191Y690200D01*
Y691138*
X899191D02*
X898850Y692075D01*
X897827Y692544*
X896464*
X902941Y683638D02*
X902600Y683169D01*
X902941Y682700*
X903282Y683169*
X902941Y683638*
X910782Y689263D02*
X910441Y687856D01*
X909759Y686919*
X908736Y686450*
X908395*
X907373Y686919*
X906691Y687856*
X906350Y689263*
X906350D02*
Y689731D01*
X906691Y691138*
X906691D02*
X907373Y692075D01*
X908395Y692544*
X908736*
X909759Y692075*
X910441Y691138*
X910441D02*
X910782Y689263D01*
X910782D02*
Y686919D01*
X910441Y684575*
X909759Y683169*
X908736Y682700*
X908055*
X907032Y683169*
X906691Y684106*
X917259Y692544D02*
X913850Y685981D01*
X918964*
X917259Y692544D02*
Y682700D01*
X926805Y692544D02*
X923395Y682700D01*
X922032Y692544D02*
X926805D01*
X930214Y683638D02*
X929873Y683169D01*
X930214Y682700*
X930555Y683169*
X930214Y683638*
X933964Y690200D02*
Y690669D01*
X934305Y691606*
X934645Y692075*
X935327Y692544*
X936691*
X937373Y692075*
X937714Y691606*
X938055Y690669*
Y689731*
X937714Y688794*
X937032Y687388*
X937032D02*
X933623Y682700D01*
X938395*
X946236Y692544D02*
X942827Y682700D01*
X941464Y692544D02*
X946236D01*
X951350D02*
X950327Y692075D01*
X949645Y690669*
X949305Y688325*
Y686919*
X949645Y684575*
X950327Y683169*
X951350Y682700*
X952032*
X953055Y683169*
X953736Y684575*
X954077Y686919*
Y688325*
X953736Y690669*
X953055Y692075*
X952032Y692544*
X951350*
X961577Y689263D02*
X961236Y687856D01*
X960555Y686919*
X959532Y686450*
X959191*
X958168Y686919*
X957486Y687856*
X957145Y689263*
X957145D02*
Y689731D01*
X957486Y691138*
X957486D02*
X958168Y692075D01*
X959191Y692544*
X959532*
X960555Y692075*
X961236Y691138*
X961236D02*
X961577Y689263D01*
X961577D02*
Y686919D01*
X961236Y684575*
X960555Y683169*
X959532Y682700*
X958850*
X957827Y683169*
X957486Y684106*
X969600Y719844D02*
Y710000D01*
Y719844D02*
X972327Y710000D01*
X975055Y719844D02*
X972327Y710000D01*
X975055Y719844D02*
Y710000D01*
X978123Y719844D02*
X978464Y719375D01*
X978805Y719844*
X978464Y720313*
X978464D02*
X978123Y719844D01*
X978464Y716563D02*
Y710000D01*
X985964Y719844D02*
Y710000D01*
Y715156D02*
X985282Y716094D01*
X984600Y716563*
X984600D02*
X983577D01*
X983577D02*
X982895Y716094D01*
X982214Y715156*
X981873Y713750*
Y712813*
X981873D02*
X982214Y711406D01*
X982895Y710469*
X983577Y710000*
X984600*
X985282Y710469*
X985964Y711406*
X993123Y719844D02*
Y710000D01*
Y715156D02*
X992441Y716094D01*
X991759Y716563*
X991759D02*
X990736D01*
X990736D02*
X990055Y716094D01*
X989373Y715156*
X989032Y713750*
Y712813*
X989032D02*
X989373Y711406D01*
X990055Y710469*
X990736Y710000*
X991759*
X992441Y710469*
X993123Y711406*
X996191Y719844D02*
Y710000D01*
X999259Y713750D02*
X1003350D01*
Y714688*
X1003350D02*
X1003009Y715625D01*
X1002668Y716094*
X1001986Y716563*
X1001986D02*
X1000964D01*
X1000964D02*
X1000282Y716094D01*
X999600Y715156*
X999259Y713750*
Y712813*
X999259D02*
X999600Y711406D01*
X1000282Y710469*
X1000964Y710000*
X1001986*
X1002668Y710469*
X1003350Y711406*
X1006418Y719844D02*
Y710000D01*
Y715156D02*
X1007100Y716094D01*
X1007782Y716563*
X1007782D02*
X1008805D01*
X1008805D02*
X1009486Y716094D01*
X1010168Y715156*
X1010509Y713750*
Y712813*
X1010509D02*
X1010168Y711406D01*
X1009486Y710469*
X1008805Y710000*
X1007782*
X1007100Y710469*
X1006418Y711406*
X1015282Y716563D02*
X1014600Y716094D01*
X1013918Y715156*
X1013577Y713750*
Y712813*
X1013577D02*
X1013918Y711406D01*
X1014600Y710469*
X1015282Y710000*
X1016305*
X1016986Y710469*
X1017668Y711406*
X1018009Y712813*
X1018009D02*
Y713750D01*
X1017668Y715156*
X1016986Y716094*
X1016305Y716563*
X1016305D02*
X1015282D01*
X1021077D02*
Y710000D01*
Y713750D02*
X1021418Y715156D01*
X1022100Y716094*
X1022782Y716563*
X1022782D02*
X1023805D01*
X1028577D02*
X1027895Y716094D01*
X1027214Y715156*
X1026873Y713750*
Y712813*
X1026873D02*
X1027214Y711406D01*
X1027895Y710469*
X1028577Y710000*
X1029600*
X1030282Y710469*
X1030964Y711406*
X1031305Y712813*
X1031305D02*
Y713750D01*
X1030964Y715156*
X1030282Y716094*
X1029600Y716563*
X1029600D02*
X1028577D01*
X1035055Y710469D02*
X1034714Y710000D01*
X1034373Y710469*
X1034714Y710938*
X1034714D02*
X1035055Y710469D01*
Y709531*
X1034714Y708594*
X1034373Y708125*
X1045964Y719844D02*
Y710000D01*
Y719844D02*
X1048691Y710000D01*
X1051418Y719844D02*
X1048691Y710000D01*
X1051418Y719844D02*
Y710000D01*
X1057214Y719844D02*
X1054486Y710000D01*
X1057214Y719844D02*
X1059941Y710000D01*
X1055509Y713281D02*
X1058918D01*
X1072895Y719844D02*
X1071873Y719375D01*
X1071191Y717969*
X1070850Y715625*
Y714219*
X1071191Y711875*
X1071873Y710469*
X1072895Y710000*
X1073577*
X1074600Y710469*
X1075282Y711875*
X1075623Y714219*
Y715625*
X1075282Y717969*
X1074600Y719375*
X1073577Y719844*
X1072895*
X1079032Y717500D02*
Y717969D01*
X1079373Y718906*
X1079714Y719375*
X1080395Y719844*
X1081759*
X1082441Y719375*
X1082782Y718906*
X1083123Y717969*
Y717031*
X1082782Y716094*
X1082100Y714688*
X1082100D02*
X1078691Y710000D01*
X1083464*
X1087214Y719844D02*
X1090964D01*
X1088918Y716094*
X1089941*
X1090623Y715625*
X1090964Y715156*
X1091305Y713750*
Y712813*
X1091305D02*
X1090964Y711406D01*
X1090282Y710469*
X1089259Y710000*
X1088236*
X1087214Y710469*
X1086873Y710938*
X1086873D02*
X1086532Y711875D01*
X1097782Y719844D02*
X1094373Y713281D01*
X1099486*
X1097782Y719844D02*
Y710000D01*
X1106645Y718438D02*
X1106305Y719375D01*
X1105282Y719844*
X1104600*
X1103577Y719375*
X1102895Y717969*
X1102555Y715625*
Y713281*
X1102895Y711406*
X1103577Y710469*
X1104600Y710000*
X1104941*
X1105964Y710469*
X1106645Y711406*
X1106986Y712813*
X1106986D02*
Y713281D01*
X1106645Y714688*
X1106645D02*
X1105964Y715625D01*
X1104941Y716094*
X1104600*
X1103577Y715625*
X1102895Y714688*
X1102895D02*
X1102555Y713281D01*
X975400Y735269D02*
X976082Y735738D01*
X976082D02*
X977105Y737144D01*
Y727300*
X980173Y735269D02*
X980855Y735738D01*
X980855D02*
X981877Y737144D01*
Y727300*
X986650Y737144D02*
X985627Y736675D01*
X985286Y735738*
X985286D02*
Y734800D01*
X985627Y733863*
X985627D02*
X986309Y733394D01*
X987673Y732925*
X988695Y732456*
X989377Y731519*
X989718Y730581*
Y729175*
X989377Y728238*
X989377D02*
X989036Y727769D01*
X988014Y727300*
X986650*
X985627Y727769*
X985286Y728238*
X985286D02*
X984945Y729175D01*
Y730581*
X985286Y731519*
X985968Y732456*
X986991Y732925*
X988355Y733394*
X989036Y733863*
X989036D02*
X989377Y734800D01*
Y735738*
X989377D02*
X989036Y736675D01*
X988014Y737144*
X986650*
X997218D02*
X993809D01*
X993468Y732925*
X993809Y733394*
X994832Y733863*
X994832D02*
X995855D01*
X995855D02*
X996877Y733394D01*
X997559Y732456*
X997900Y731050*
X997559Y730113*
X997559D02*
X997218Y728706D01*
X996536Y727769*
X995514Y727300*
X994491*
X993468Y727769*
X993127Y728238*
X993127D02*
X992786Y729175D01*
X1013923Y734800D02*
X1013582Y735738D01*
X1013582D02*
X1012900Y736675D01*
X1012218Y737144*
X1010855*
X1010173Y736675*
X1009491Y735738*
X1009491D02*
X1009150Y734800D01*
X1008809Y733394*
Y731050*
X1009150Y729644*
X1009491Y728706*
X1010173Y727769*
X1010855Y727300*
X1012218*
X1012900Y727769*
X1013582Y728706*
X1013923Y729644*
X1016991Y731050D02*
X1021082D01*
Y731988*
X1021082D02*
X1020741Y732925D01*
X1020400Y733394*
X1019718Y733863*
X1019718D02*
X1018695D01*
X1018695D02*
X1018014Y733394D01*
X1017332Y732456*
X1016991Y731050*
Y730113*
X1016991D02*
X1017332Y728706D01*
X1018014Y727769*
X1018695Y727300*
X1019718*
X1020400Y727769*
X1021082Y728706*
X1024150Y733863D02*
Y727300D01*
Y731988D02*
X1025173Y733394D01*
X1025855Y733863*
X1025855D02*
X1026877D01*
X1026877D02*
X1027559Y733394D01*
X1027900Y731988*
X1027900D02*
Y727300D01*
X1031991Y737144D02*
Y729175D01*
X1032332Y727769*
X1033014Y727300*
X1033695*
X1030968Y733863D02*
X1033355D01*
X1036764D02*
Y727300D01*
Y731050D02*
X1037105Y732456D01*
X1037786Y733394*
X1038468Y733863*
X1038468D02*
X1039491D01*
X1042559Y731050D02*
X1046650D01*
Y731988*
X1046650D02*
X1046309Y732925D01*
X1045968Y733394*
X1045286Y733863*
X1045286D02*
X1044264D01*
X1044264D02*
X1043582Y733394D01*
X1042900Y732456*
X1042559Y731050*
Y730113*
X1042559D02*
X1042900Y728706D01*
X1043582Y727769*
X1044264Y727300*
X1045286*
X1045968Y727769*
X1046650Y728706*
X1062332Y735738D02*
X1061650Y736675D01*
X1060627Y737144*
X1059264*
X1058241Y736675*
X1057559Y735738*
X1057559D02*
Y734800D01*
X1057900Y733863*
X1057900D02*
X1058241Y733394D01*
X1058923Y732925*
X1060968Y731988*
X1060968D02*
X1061650Y731519D01*
X1061991Y731050*
X1062332Y730113*
X1062332D02*
Y728706D01*
X1061650Y727769*
X1060627Y727300*
X1059264*
X1058241Y727769*
X1057559Y728706*
X1066423Y737144D02*
Y729175D01*
X1066764Y727769*
X1067445Y727300*
X1068127*
X1065400Y733863D02*
X1067786D01*
X1071195D02*
Y727300D01*
Y731050D02*
X1071536Y732456D01*
X1072218Y733394*
X1072900Y733863*
X1072900D02*
X1073923D01*
X1076991Y731050D02*
X1081082D01*
Y731988*
X1081082D02*
X1080741Y732925D01*
X1080400Y733394*
X1079718Y733863*
X1079718D02*
X1078695D01*
X1078695D02*
X1078014Y733394D01*
X1077332Y732456*
X1076991Y731050*
Y730113*
X1076991D02*
X1077332Y728706D01*
X1078014Y727769*
X1078695Y727300*
X1079718*
X1080400Y727769*
X1081082Y728706*
X1084150Y731050D02*
X1088241D01*
Y731988*
X1088241D02*
X1087900Y732925D01*
X1087559Y733394*
X1086877Y733863*
X1086877D02*
X1085855D01*
X1085855D02*
X1085173Y733394D01*
X1084491Y732456*
X1084150Y731050*
Y730113*
X1084150D02*
X1084491Y728706D01*
X1085173Y727769*
X1085855Y727300*
X1086877*
X1087559Y727769*
X1088241Y728706*
X1092332Y737144D02*
Y729175D01*
X1092673Y727769*
X1093355Y727300*
X1094036*
X1091309Y733863D02*
X1093695D01*
X1166227Y664013D02*
X1167136Y664638D01*
X1167136D02*
X1168500Y666513D01*
X1168500D02*
Y653387D01*
X1175318Y666513D02*
X1173955Y665888D01*
X1173955D02*
X1173045Y664013D01*
X1173045D02*
X1172591Y660887D01*
X1172591D02*
Y659012D01*
X1172591D02*
X1173045Y655887D01*
X1173045D02*
X1173955Y654012D01*
X1173955D02*
X1175318Y653387D01*
X1175318D02*
X1176227D01*
X1176227D02*
X1177591Y654012D01*
X1177591D02*
X1178500Y655887D01*
X1178500D02*
X1178955Y659012D01*
X1178955D02*
Y660887D01*
X1178955D02*
X1178500Y664013D01*
X1178500D02*
X1177591Y665888D01*
X1177591D02*
X1176227Y666513D01*
X1176227D02*
X1175318D01*
X1191227Y669013D02*
X1183045Y649012D01*
X1195318Y664013D02*
X1196227Y664638D01*
X1196227D02*
X1197591Y666513D01*
X1197591D02*
Y653387D01*
X1201682Y664013D02*
X1202591Y664638D01*
X1202591D02*
X1203955Y666513D01*
X1203955D02*
Y653387D01*
X1216227Y669013D02*
X1208045Y649012D01*
X1220318Y664013D02*
X1221227Y664638D01*
X1221227D02*
X1222591Y666513D01*
X1222591D02*
Y653387D01*
X1226682Y664013D02*
X1227591Y664638D01*
X1227591D02*
X1228955Y666513D01*
X1228955D02*
Y653387D01*
X838909Y666344D02*
Y658844D01*
X838568Y657438*
X838568D02*
X838227Y656969D01*
X837545Y656500*
X836864*
X836182Y656969*
X835841Y657438*
X835841D02*
X835500Y658844D01*
Y659781*
X843682Y663063D02*
X843000Y662594D01*
X842318Y661656*
X841977Y660250*
Y659313*
X841977D02*
X842318Y657906D01*
X843000Y656969*
X843682Y656500*
X844705*
X845386Y656969*
X846068Y657906*
X846409Y659313*
X846409D02*
Y660250D01*
X846068Y661656*
X845386Y662594*
X844705Y663063*
X844705D02*
X843682D01*
X849477Y666344D02*
Y656500D01*
Y661656D02*
X850159Y662594D01*
X850841Y663063*
X850841D02*
X851864D01*
X851864D02*
X852545Y662594D01*
X853227Y661656*
X853568Y660250*
Y659313*
X853568D02*
X853227Y657906D01*
X852545Y656969*
X851864Y656500*
X850841*
X850159Y656969*
X849477Y657906*
X864477Y666344D02*
Y656500D01*
Y666344D02*
X869250Y656500D01*
Y666344D02*
Y656500D01*
X874023Y663063D02*
X873341Y662594D01*
X872659Y661656*
X872318Y660250*
Y659313*
X872318D02*
X872659Y657906D01*
X873341Y656969*
X874023Y656500*
X875045*
X875727Y656969*
X876409Y657906*
X876750Y659313*
X876750D02*
Y660250D01*
X876409Y661656*
X875727Y662594*
X875045Y663063*
X875045D02*
X874023D01*
X880159D02*
X879818Y662594D01*
X880159Y662125*
X880500Y662594*
X880159Y663063*
Y657438D02*
X879818Y656969D01*
X880159Y656500*
X880500Y656969*
X880159Y657438*
X1041000Y663544D02*
Y653700D01*
Y663544D02*
X1043386D01*
X1044409Y663075*
X1045091Y662138*
X1045091D02*
X1045432Y661200D01*
X1045773Y659794*
Y657450*
X1045432Y656044*
X1045091Y655106*
X1044409Y654169*
X1043386Y653700*
X1041000*
X1052932Y660263D02*
Y653700D01*
Y658856D02*
X1052250Y659794D01*
X1051568Y660263*
X1051568D02*
X1050545D01*
X1050545D02*
X1049864Y659794D01*
X1049182Y658856*
X1048841Y657450*
Y656513*
X1048841D02*
X1049182Y655106D01*
X1049864Y654169*
X1050545Y653700*
X1051568*
X1052250Y654169*
X1052932Y655106*
X1057023Y663544D02*
Y655575D01*
X1057364Y654169*
X1058045Y653700*
X1058727*
X1056000Y660263D02*
X1058386D01*
X1061795Y657450D02*
X1065886D01*
Y658388*
X1065886D02*
X1065545Y659325D01*
X1065205Y659794*
X1064523Y660263*
X1064523D02*
X1063500D01*
X1063500D02*
X1062818Y659794D01*
X1062136Y658856*
X1061795Y657450*
Y656513*
X1061795D02*
X1062136Y655106D01*
X1062818Y654169*
X1063500Y653700*
X1064523*
X1065205Y654169*
X1065886Y655106*
X1069295Y660263D02*
X1068955Y659794D01*
X1069295Y659325*
X1069636Y659794*
X1069295Y660263*
Y654638D02*
X1068955Y654169D01*
X1069295Y653700*
X1069636Y654169*
X1069295Y654638*
X827627Y780244D02*
X824900Y770400D01*
X827627Y780244D02*
X830355Y770400D01*
X825923Y773681D02*
X829332D01*
X833423Y776963D02*
Y770400D01*
Y774150D02*
X833764Y775556D01*
X834445Y776494*
X835127Y776963*
X835127D02*
X836150D01*
X840241Y780244D02*
Y772275D01*
X840582Y770869*
X841264Y770400*
X841945*
X839218Y776963D02*
X841605D01*
X845014D02*
X846377Y770400D01*
X847741Y776963D02*
X846377Y770400D01*
X847741Y776963D02*
X849105Y770400D01*
X850468Y776963D02*
X849105Y770400D01*
X855241Y776963D02*
X854559Y776494D01*
X853877Y775556*
X853536Y774150*
Y773213*
X853536D02*
X853877Y771806D01*
X854559Y770869*
X855241Y770400*
X856264*
X856945Y770869*
X857627Y771806*
X857968Y773213*
X857968D02*
Y774150D01*
X857627Y775556*
X856945Y776494*
X856264Y776963*
X856264D02*
X855241D01*
X861036D02*
Y770400D01*
Y774150D02*
X861377Y775556D01*
X862059Y776494*
X862741Y776963*
X862741D02*
X863764D01*
X866832Y780244D02*
Y770400D01*
X870241Y776963D02*
X866832Y772275D01*
X868195Y774150D02*
X870582Y770400D01*
X881491Y780244D02*
Y770400D01*
Y780244D02*
X883877D01*
X884900Y779775*
X885582Y778838*
X885582D02*
X885923Y777900D01*
X886264Y776494*
Y774150*
X885923Y772744*
X885582Y771806*
X884900Y770869*
X883877Y770400*
X881491*
X889332Y774150D02*
X893423D01*
Y775088*
X893423D02*
X893082Y776025D01*
X892741Y776494*
X892059Y776963*
X892059D02*
X891036D01*
X891036D02*
X890355Y776494D01*
X889673Y775556*
X889332Y774150*
Y773213*
X889332D02*
X889673Y771806D01*
X890355Y770869*
X891036Y770400*
X892059*
X892741Y770869*
X893423Y771806*
X900241Y775556D02*
X899900Y776494D01*
X898877Y776963*
X898877D02*
X897855D01*
X897855D02*
X896832Y776494D01*
X896491Y775556*
X896832Y774619*
X897514Y774150*
X899218Y773681*
X899900Y773213*
X899900D02*
X900241Y772275D01*
Y771806*
X899900Y770869*
X898877Y770400*
X897855*
X896832Y770869*
X896491Y771806*
X903309Y780244D02*
X903650Y779775D01*
X903991Y780244*
X903650Y780713*
X903650D02*
X903309Y780244D01*
X903650Y776963D02*
Y770400D01*
X911150Y776963D02*
Y769462D01*
X911150D02*
X910809Y768056D01*
X910468Y767587*
X910468D02*
X909786Y767119D01*
X908764*
X908082Y767587*
X911150Y775556D02*
X910468Y776494D01*
X909786Y776963*
X909786D02*
X908764D01*
X908764D02*
X908082Y776494D01*
X907400Y775556*
X907059Y774150*
Y773213*
X907059D02*
X907400Y771806D01*
X908082Y770869*
X908764Y770400*
X909786*
X910468Y770869*
X911150Y771806*
X914218Y776963D02*
Y770400D01*
Y775088D02*
X915241Y776494D01*
X915923Y776963*
X915923D02*
X916945D01*
X916945D02*
X917627Y776494D01*
X917968Y775088*
X917968D02*
Y770400D01*
X921036Y774150D02*
X925127D01*
Y775088*
X925127D02*
X924786Y776025D01*
X924445Y776494*
X923764Y776963*
X923764D02*
X922741D01*
X922741D02*
X922059Y776494D01*
X921377Y775556*
X921036Y774150*
Y773213*
X921036D02*
X921377Y771806D01*
X922059Y770869*
X922741Y770400*
X923764*
X924445Y770869*
X925127Y771806*
X932286Y780244D02*
Y770400D01*
Y775556D02*
X931605Y776494D01*
X930923Y776963*
X930923D02*
X929900D01*
X929900D02*
X929218Y776494D01*
X928536Y775556*
X928195Y774150*
Y773213*
X928195D02*
X928536Y771806D01*
X929218Y770869*
X929900Y770400*
X930923*
X931605Y770869*
X932286Y771806*
X943195Y780244D02*
Y770400D01*
Y780244D02*
X946264D01*
X947286Y779775*
X947627Y779306*
X947968Y778369*
Y777431*
X947627Y776494*
X947286Y776025*
X946264Y775556*
X943195D02*
X946264D01*
X947286Y775088*
X947286D02*
X947627Y774619D01*
X947968Y773681*
Y772275*
X947627Y771338*
X947627D02*
X947286Y770869D01*
X946264Y770400*
X943195*
X951377Y776963D02*
X953423Y770400D01*
X955468Y776963D02*
X953423Y770400D01*
X952741Y768525*
X952059Y767587*
X952059D02*
X951377Y767119D01*
X951036*
X958877Y776963D02*
X958536Y776494D01*
X958877Y776025*
X959218Y776494*
X958877Y776963*
Y771338D02*
X958536Y770869D01*
X958877Y770400*
X959218Y770869*
X958877Y771338*
X906682Y665513D02*
Y652387D01*
X903500Y665513D02*
X909864D01*
X913955D02*
Y652387D01*
Y665513D02*
X919864D01*
X913955Y659262D02*
X917591D01*
X913955Y652387D02*
X919864D01*
X923955Y665513D02*
X930318Y652387D01*
Y665513D02*
X923955Y652387D01*
X934864Y653637D02*
X934409Y653012D01*
X934409D02*
X934864Y652387D01*
X934864D02*
X935318Y653012D01*
X935318D02*
X934864Y653637D01*
X942136Y665513D02*
X940773Y664888D01*
X940773D02*
X939864Y663013D01*
X939864D02*
X939409Y659887D01*
X939409D02*
Y658012D01*
X939409D02*
X939864Y654887D01*
X939864D02*
X940773Y653012D01*
X940773D02*
X942136Y652387D01*
X942136D02*
X943045D01*
X943045D02*
X944409Y653012D01*
X944409D02*
X945318Y654887D01*
X945318D02*
X945773Y658012D01*
X945773D02*
Y659887D01*
X945773D02*
X945318Y663013D01*
X945318D02*
X944409Y664888D01*
X944409D02*
X943045Y665513D01*
X943045D02*
X942136D01*
X955318Y663638D02*
X954864Y664888D01*
X954864D02*
X953500Y665513D01*
X953500D02*
X952591D01*
X952591D02*
X951227Y664888D01*
X951227D02*
X950318Y663013D01*
X950318D02*
X949864Y659887D01*
X949864D02*
Y656762D01*
X949864D02*
X950318Y654262D01*
X950318D02*
X951227Y653012D01*
X951227D02*
X952591Y652387D01*
X952591D02*
X953045D01*
X953045D02*
X954409Y653012D01*
X954409D02*
X955318Y654262D01*
X955318D02*
X955773Y656137D01*
X955773D02*
Y656762D01*
X955773D02*
X955318Y658637D01*
X955318D02*
X954409Y659887D01*
X954409D02*
X953045Y660513D01*
X953045D02*
X952591D01*
X952591D02*
X951227Y659887D01*
X951227D02*
X950318Y658637D01*
X950318D02*
X949864Y656762D01*
X965773Y665513D02*
X961227D01*
X961227D02*
X960773Y659887D01*
X960773D02*
X961227Y660513D01*
X961227D02*
X962591Y661138D01*
X962591D02*
X963955D01*
X963955D02*
X965318Y660513D01*
X965318D02*
X966227Y659262D01*
X966227D02*
X966682Y657387D01*
X966682D02*
X966227Y656137D01*
X966227D02*
X965773Y654262D01*
X965773D02*
X964864Y653012D01*
X964864D02*
X963500Y652387D01*
X963500D02*
X962136D01*
X962136D02*
X960773Y653012D01*
X960773D02*
X960318Y653637D01*
X960318D02*
X959864Y654887D01*
X1260727Y835044D02*
X1258000Y825200D01*
X1260727Y835044D02*
X1263455Y825200D01*
X1259023Y828481D02*
X1262432D01*
X1266523Y831763D02*
Y825200D01*
Y828950D02*
X1266864Y830356D01*
X1267545Y831294*
X1268227Y831763*
X1268227D02*
X1269250D01*
X1273341Y835044D02*
Y827075D01*
X1273682Y825669*
X1274364Y825200*
X1275045*
X1272318Y831763D02*
X1274705D01*
X1278114D02*
X1279477Y825200D01*
X1280841Y831763D02*
X1279477Y825200D01*
X1280841Y831763D02*
X1282205Y825200D01*
X1283568Y831763D02*
X1282205Y825200D01*
X1288341Y831763D02*
X1287659Y831294D01*
X1286977Y830356*
X1286636Y828950*
Y828013*
X1286636D02*
X1286977Y826606D01*
X1287659Y825669*
X1288341Y825200*
X1289364*
X1290045Y825669*
X1290727Y826606*
X1291068Y828013*
X1291068D02*
Y828950D01*
X1290727Y830356*
X1290045Y831294*
X1289364Y831763*
X1289364D02*
X1288341D01*
X1294136D02*
Y825200D01*
Y828950D02*
X1294477Y830356D01*
X1295159Y831294*
X1295841Y831763*
X1295841D02*
X1296864D01*
X1299932Y835044D02*
Y825200D01*
X1303341Y831763D02*
X1299932Y827075D01*
X1301295Y828950D02*
X1303682Y825200D01*
X1314591Y835044D02*
Y825200D01*
Y835044D02*
X1316977D01*
X1318000Y834575*
X1318682Y833638*
X1318682D02*
X1319023Y832700D01*
X1319364Y831294*
Y828950*
X1319023Y827544*
X1318682Y826606*
X1318000Y825669*
X1316977Y825200*
X1314591*
X1322432Y828950D02*
X1326523D01*
Y829888*
X1326523D02*
X1326182Y830825D01*
X1325841Y831294*
X1325159Y831763*
X1325159D02*
X1324136D01*
X1324136D02*
X1323455Y831294D01*
X1322773Y830356*
X1322432Y828950*
Y828013*
X1322432D02*
X1322773Y826606D01*
X1323455Y825669*
X1324136Y825200*
X1325159*
X1325841Y825669*
X1326523Y826606*
X1333341Y830356D02*
X1333000Y831294D01*
X1331977Y831763*
X1331977D02*
X1330955D01*
X1330955D02*
X1329932Y831294D01*
X1329591Y830356*
X1329932Y829419*
X1330614Y828950*
X1332318Y828481*
X1333000Y828013*
X1333000D02*
X1333341Y827075D01*
Y826606*
X1333000Y825669*
X1331977Y825200*
X1330955*
X1329932Y825669*
X1329591Y826606*
X1336409Y835044D02*
X1336750Y834575D01*
X1337091Y835044*
X1336750Y835513*
X1336750D02*
X1336409Y835044D01*
X1336750Y831763D02*
Y825200D01*
X1344250Y831763D02*
Y824262D01*
X1344250D02*
X1343909Y822856D01*
X1343568Y822387*
X1343568D02*
X1342886Y821919D01*
X1341864*
X1341182Y822387*
X1344250Y830356D02*
X1343568Y831294D01*
X1342886Y831763*
X1342886D02*
X1341864D01*
X1341864D02*
X1341182Y831294D01*
X1340500Y830356*
X1340159Y828950*
Y828013*
X1340159D02*
X1340500Y826606D01*
X1341182Y825669*
X1341864Y825200*
X1342886*
X1343568Y825669*
X1344250Y826606*
X1347318Y831763D02*
Y825200D01*
Y829888D02*
X1348341Y831294D01*
X1349023Y831763*
X1349023D02*
X1350045D01*
X1350045D02*
X1350727Y831294D01*
X1351068Y829888*
X1351068D02*
Y825200D01*
X1354136Y828950D02*
X1358227D01*
Y829888*
X1358227D02*
X1357886Y830825D01*
X1357545Y831294*
X1356864Y831763*
X1356864D02*
X1355841D01*
X1355841D02*
X1355159Y831294D01*
X1354477Y830356*
X1354136Y828950*
Y828013*
X1354136D02*
X1354477Y826606D01*
X1355159Y825669*
X1355841Y825200*
X1356864*
X1357545Y825669*
X1358227Y826606*
X1365386Y835044D02*
Y825200D01*
Y830356D02*
X1364705Y831294D01*
X1364023Y831763*
X1364023D02*
X1363000D01*
X1363000D02*
X1362318Y831294D01*
X1361636Y830356*
X1361295Y828950*
Y828013*
X1361295D02*
X1361636Y826606D01*
X1362318Y825669*
X1363000Y825200*
X1364023*
X1364705Y825669*
X1365386Y826606*
X1376295Y835044D02*
Y825200D01*
Y835044D02*
X1380727D01*
X1376295Y830356D02*
X1379023D01*
X1385500Y831763D02*
X1384818Y831294D01*
X1384136Y830356*
X1383795Y828950*
Y828013*
X1383795D02*
X1384136Y826606D01*
X1384818Y825669*
X1385500Y825200*
X1386523*
X1387205Y825669*
X1387886Y826606*
X1388227Y828013*
X1388227D02*
Y828950D01*
X1387886Y830356*
X1387205Y831294*
X1386523Y831763*
X1386523D02*
X1385500D01*
X1391295D02*
Y825200D01*
Y828950D02*
X1391636Y830356D01*
X1392318Y831294*
X1393000Y831763*
X1393000D02*
X1394023D01*
X1397432D02*
X1397091Y831294D01*
X1397432Y830825*
X1397773Y831294*
X1397432Y831763*
Y826138D02*
X1397091Y825669D01*
X1397432Y825200*
X1397773Y825669*
X1397432Y826138*
X1258000Y780044D02*
Y770200D01*
Y780044D02*
X1261068D01*
X1262091Y779575*
X1262432Y779106*
X1262773Y778169*
Y777231*
X1262432Y776294*
X1262091Y775825*
X1261068Y775356*
X1258000D02*
X1261068D01*
X1262091Y774888*
X1262091D02*
X1262432Y774419D01*
X1262773Y773481*
Y772075*
X1262432Y771138*
X1262432D02*
X1262091Y770669D01*
X1261068Y770200*
X1258000*
X1267545Y776763D02*
X1266864Y776294D01*
X1266182Y775356*
X1265841Y773950*
Y773013*
X1265841D02*
X1266182Y771606D01*
X1266864Y770669*
X1267545Y770200*
X1268568*
X1269250Y770669*
X1269932Y771606*
X1270273Y773013*
X1270273D02*
Y773950D01*
X1269932Y775356*
X1269250Y776294*
X1268568Y776763*
X1268568D02*
X1267545D01*
X1277432D02*
Y770200D01*
Y775356D02*
X1276750Y776294D01*
X1276068Y776763*
X1276068D02*
X1275045D01*
X1275045D02*
X1274364Y776294D01*
X1273682Y775356*
X1273341Y773950*
Y773013*
X1273341D02*
X1273682Y771606D01*
X1274364Y770669*
X1275045Y770200*
X1276068*
X1276750Y770669*
X1277432Y771606*
X1280500Y776763D02*
Y770200D01*
Y773950D02*
X1280841Y775356D01*
X1281523Y776294*
X1282205Y776763*
X1282205D02*
X1283227D01*
X1290386Y780044D02*
Y770200D01*
Y775356D02*
X1289705Y776294D01*
X1289023Y776763*
X1289023D02*
X1288000D01*
X1288000D02*
X1287318Y776294D01*
X1286636Y775356*
X1286295Y773950*
Y773013*
X1286295D02*
X1286636Y771606D01*
X1287318Y770669*
X1288000Y770200*
X1289023*
X1289705Y770669*
X1290386Y771606*
X1301295Y780044D02*
Y770200D01*
Y780044D02*
X1303682D01*
X1304705Y779575*
X1305386Y778638*
X1305386D02*
X1305727Y777700D01*
X1306068Y776294*
Y773950*
X1305727Y772544*
X1305386Y771606*
X1304705Y770669*
X1303682Y770200*
X1301295*
X1309136Y773950D02*
X1313227D01*
Y774888*
X1313227D02*
X1312886Y775825D01*
X1312545Y776294*
X1311864Y776763*
X1311864D02*
X1310841D01*
X1310841D02*
X1310159Y776294D01*
X1309477Y775356*
X1309136Y773950*
Y773013*
X1309136D02*
X1309477Y771606D01*
X1310159Y770669*
X1310841Y770200*
X1311864*
X1312545Y770669*
X1313227Y771606*
X1320045Y775356D02*
X1319705Y776294D01*
X1318682Y776763*
X1318682D02*
X1317659D01*
X1317659D02*
X1316636Y776294D01*
X1316295Y775356*
X1316636Y774419*
X1317318Y773950*
X1319023Y773481*
X1319705Y773013*
X1319705D02*
X1320045Y772075D01*
Y771606*
X1319705Y770669*
X1318682Y770200*
X1317659*
X1316636Y770669*
X1316295Y771606*
X1327205Y775356D02*
X1326523Y776294D01*
X1325841Y776763*
X1325841D02*
X1324818D01*
X1324818D02*
X1324136Y776294D01*
X1323455Y775356*
X1323114Y773950*
Y773013*
X1323114D02*
X1323455Y771606D01*
X1324136Y770669*
X1324818Y770200*
X1325841*
X1326523Y770669*
X1327205Y771606*
X1330273Y776763D02*
Y770200D01*
Y773950D02*
X1330614Y775356D01*
X1331295Y776294*
X1331977Y776763*
X1331977D02*
X1333000D01*
X1336068Y780044D02*
X1336409Y779575D01*
X1336750Y780044*
X1336409Y780513*
X1336409D02*
X1336068Y780044D01*
X1336409Y776763D02*
Y770200D01*
X1339818Y776763D02*
Y766919D01*
Y775356D02*
X1340500Y776294D01*
X1341182Y776763*
X1341182D02*
X1342205D01*
X1342205D02*
X1342886Y776294D01*
X1343568Y775356*
X1343909Y773950*
Y773013*
X1343909D02*
X1343568Y771606D01*
X1342886Y770669*
X1342205Y770200*
X1341182*
X1340500Y770669*
X1339818Y771606*
X1348000Y780044D02*
Y772075D01*
X1348341Y770669*
X1349023Y770200*
X1349705*
X1346977Y776763D02*
X1349364D01*
X1352773Y780044D02*
X1353114Y779575D01*
X1353455Y780044*
X1353114Y780513*
X1353114D02*
X1352773Y780044D01*
X1353114Y776763D02*
Y770200D01*
X1358227Y776763D02*
X1357545Y776294D01*
X1356864Y775356*
X1356523Y773950*
Y773013*
X1356523D02*
X1356864Y771606D01*
X1357545Y770669*
X1358227Y770200*
X1359250*
X1359932Y770669*
X1360614Y771606*
X1360955Y773013*
X1360955D02*
Y773950D01*
X1360614Y775356*
X1359932Y776294*
X1359250Y776763*
X1359250D02*
X1358227D01*
X1364023D02*
Y770200D01*
Y774888D02*
X1365045Y776294D01*
X1365727Y776763*
X1365727D02*
X1366750D01*
X1366750D02*
X1367432Y776294D01*
X1367773Y774888*
X1367773D02*
Y770200D01*
X1371182Y776763D02*
X1370841Y776294D01*
X1371182Y775825*
X1371523Y776294*
X1371182Y776763*
Y771138D02*
X1370841Y770669D01*
X1371182Y770200*
X1371523Y770669*
X1371182Y771138*
X1258000Y710044D02*
Y700200D01*
Y710044D02*
X1261068D01*
X1262091Y709575*
X1262432Y709106*
X1262773Y708169*
Y706763*
X1262773D02*
X1262432Y705825D01*
X1262091Y705356*
X1261068Y704888*
X1261068D02*
X1258000D01*
X1269932Y706763D02*
Y700200D01*
Y705356D02*
X1269250Y706294D01*
X1268568Y706763*
X1268568D02*
X1267545D01*
X1267545D02*
X1266864Y706294D01*
X1266182Y705356*
X1265841Y703950*
Y703013*
X1265841D02*
X1266182Y701606D01*
X1266864Y700669*
X1267545Y700200*
X1268568*
X1269250Y700669*
X1269932Y701606*
X1273000Y706763D02*
Y700200D01*
Y703950D02*
X1273341Y705356D01*
X1274023Y706294*
X1274705Y706763*
X1274705D02*
X1275727D01*
X1279818Y710044D02*
Y702075D01*
X1280159Y700669*
X1280841Y700200*
X1281523*
X1278795Y706763D02*
X1281182D01*
X1292432Y710044D02*
Y700200D01*
Y710044D02*
X1297205Y700200D01*
Y710044D02*
Y700200D01*
X1301977Y706763D02*
X1301295Y706294D01*
X1300614Y705356*
X1300273Y703950*
Y703013*
X1300273D02*
X1300614Y701606D01*
X1301295Y700669*
X1301977Y700200*
X1303000*
X1303682Y700669*
X1304364Y701606*
X1304705Y703013*
X1304705D02*
Y703950D01*
X1304364Y705356*
X1303682Y706294*
X1303000Y706763*
X1303000D02*
X1301977D01*
X1308114D02*
X1307773Y706294D01*
X1308114Y705825*
X1308455Y706294*
X1308114Y706763*
Y701138D02*
X1307773Y700669D01*
X1308114Y700200*
X1308455Y700669*
X1308114Y701138*
X1558000Y710044D02*
Y700200D01*
Y710044D02*
X1561068D01*
X1562091Y709575*
X1562432Y709106*
X1562773Y708169*
Y707231*
X1562432Y706294*
X1562091Y705825*
X1561068Y705356*
X1558000*
X1560386D02*
X1562773Y700200D01*
X1565841Y703950D02*
X1569932D01*
Y704888*
X1569932D02*
X1569591Y705825D01*
X1569250Y706294*
X1568568Y706763*
X1568568D02*
X1567545D01*
X1567545D02*
X1566864Y706294D01*
X1566182Y705356*
X1565841Y703950*
Y703013*
X1565841D02*
X1566182Y701606D01*
X1566864Y700669*
X1567545Y700200*
X1568568*
X1569250Y700669*
X1569932Y701606*
X1573000Y706763D02*
X1575045Y700200D01*
X1577091Y706763D02*
X1575045Y700200D01*
X1580159Y710044D02*
X1580500Y709575D01*
X1580841Y710044*
X1580500Y710513*
X1580500D02*
X1580159Y710044D01*
X1580500Y706763D02*
Y700200D01*
X1587659Y705356D02*
X1587318Y706294D01*
X1586295Y706763*
X1586295D02*
X1585273D01*
X1585273D02*
X1584250Y706294D01*
X1583909Y705356*
X1584250Y704419*
X1584932Y703950*
X1586636Y703481*
X1587318Y703013*
X1587318D02*
X1587659Y702075D01*
Y701606*
X1587318Y700669*
X1586295Y700200*
X1585273*
X1584250Y700669*
X1583909Y701606*
X1590727Y710044D02*
X1591068Y709575D01*
X1591409Y710044*
X1591068Y710513*
X1591068D02*
X1590727Y710044D01*
X1591068Y706763D02*
Y700200D01*
X1596182Y706763D02*
X1595500Y706294D01*
X1594818Y705356*
X1594477Y703950*
Y703013*
X1594477D02*
X1594818Y701606D01*
X1595500Y700669*
X1596182Y700200*
X1597205*
X1597886Y700669*
X1598568Y701606*
X1598909Y703013*
X1598909D02*
Y703950D01*
X1598568Y705356*
X1597886Y706294*
X1597205Y706763*
X1597205D02*
X1596182D01*
X1601977D02*
Y700200D01*
Y704888D02*
X1603000Y706294D01*
X1603682Y706763*
X1603682D02*
X1604705D01*
X1604705D02*
X1605386Y706294D01*
X1605727Y704888*
X1605727D02*
Y700200D01*
X1609136Y706763D02*
X1608795Y706294D01*
X1609136Y705825*
X1609477Y706294*
X1609136Y706763*
Y701138D02*
X1608795Y700669D01*
X1609136Y700200*
X1609477Y700669*
X1609136Y701138*
X1353000Y698325D02*
Y685200D01*
Y698325D02*
X1358909D01*
X1353000Y692075D02*
X1356636D01*
X1363455Y695200D02*
Y695825D01*
X1363909Y697075*
X1364364Y697700*
X1365273Y698325*
X1367091*
X1368000Y697700*
X1368455Y697075*
X1368909Y695825*
Y694575*
X1368455Y693325*
X1367545Y691450*
X1363000Y685200*
X1369364*
X1375727Y698325D02*
X1374364Y697700D01*
X1373909Y696450*
Y695200*
X1374364Y693950*
X1375273Y693325*
X1377091Y692700*
X1378455Y692075*
X1379364Y690825*
X1379818Y689575*
Y687700*
X1379364Y686450*
X1378909Y685825*
X1377545Y685200*
X1375727*
X1374364Y685825*
X1373909Y686450*
X1373455Y687700*
Y689575*
X1373909Y690825*
X1374818Y692075*
X1376182Y692700*
X1378000Y693325*
X1378909Y693950*
X1379364Y695200*
Y696450*
X1378909Y697700*
X1377545Y698325*
X1375727*
X1386636D02*
X1385273Y697700D01*
X1384364Y695825*
X1383909Y692700*
Y690825*
X1384364Y687700*
X1385273Y685825*
X1386636Y685200*
X1387545*
X1388909Y685825*
X1389818Y687700*
X1390273Y690825*
Y692700*
X1389818Y695825*
X1388909Y697700*
X1387545Y698325*
X1386636*
X1399818Y696450D02*
X1399364Y697700D01*
X1398000Y698325*
X1397091*
X1395727Y697700*
X1394818Y695825*
X1394364Y692700*
Y689575*
X1394818Y687075*
X1395727Y685825*
X1397091Y685200*
X1397545*
X1398909Y685825*
X1399818Y687075*
X1400273Y688950*
Y689575*
X1399818Y691450*
X1398909Y692700*
X1397545Y693325*
X1397091*
X1395727Y692700*
X1394818Y691450*
X1394364Y689575*
X1404364Y693950D02*
X1409364Y685200D01*
Y693950D02*
X1404364Y685200D01*
X1630409Y702313D02*
X1629045Y701688D01*
X1629045D02*
X1628136Y699813D01*
X1628136D02*
X1627682Y696687D01*
X1627682D02*
Y694812D01*
X1627682D02*
X1628136Y691687D01*
X1628136D02*
X1629045Y689812D01*
X1629045D02*
X1630409Y689187D01*
X1630409D02*
X1631318D01*
X1631318D02*
X1632682Y689812D01*
X1632682D02*
X1633591Y691687D01*
X1633591D02*
X1634045Y694812D01*
X1634045D02*
Y696687D01*
X1634045D02*
X1633591Y699813D01*
X1633591D02*
X1632682Y701688D01*
X1632682D02*
X1631318Y702313D01*
X1631318D02*
X1630409D01*
X1638591Y690437D02*
X1638136Y689812D01*
X1638136D02*
X1638591Y689187D01*
X1638591D02*
X1639045Y689812D01*
X1639045D02*
X1638591Y690437D01*
X1644045Y702313D02*
X1649045D01*
X1649045D02*
X1646318Y697313D01*
X1646318D02*
X1647682D01*
X1647682D02*
X1648591Y696687D01*
X1648591D02*
X1649045Y696062D01*
X1649045D02*
X1649500Y694187D01*
X1649500D02*
Y692937D01*
X1649500D02*
X1649045Y691062D01*
X1649045D02*
X1648136Y689812D01*
X1648136D02*
X1646773Y689187D01*
X1646773D02*
X1645409D01*
X1645409D02*
X1644045Y689812D01*
X1644045D02*
X1643591Y690437D01*
X1643591D02*
X1643136Y691687D01*
X1399545Y810513D02*
Y797387D01*
X1396364Y810513D02*
X1402727D01*
X1406818Y802387D02*
X1412273D01*
X1412273D02*
Y803637D01*
X1412273D02*
X1411818Y804887D01*
X1411818D02*
X1411364Y805513D01*
X1411364D02*
X1410455Y806138D01*
X1410455D02*
X1409091D01*
X1409091D02*
X1408182Y805513D01*
X1408182D02*
X1407273Y804262D01*
X1407273D02*
X1406818Y802387D01*
X1406818D02*
Y801137D01*
X1406818D02*
X1407273Y799262D01*
X1407273D02*
X1408182Y798012D01*
X1408182D02*
X1409091Y797387D01*
X1409091D02*
X1410455D01*
X1410455D02*
X1411364Y798012D01*
X1411364D02*
X1412273Y799262D01*
X1416364Y806138D02*
X1421364Y797387D01*
Y806138D02*
X1416364Y797387D01*
X1430909Y806138D02*
Y797387D01*
Y804262D02*
X1430000Y805513D01*
X1430000D02*
X1429091Y806138D01*
X1429091D02*
X1427727D01*
X1427727D02*
X1426818Y805513D01*
X1426818D02*
X1425909Y804262D01*
X1425909D02*
X1425455Y802387D01*
X1425455D02*
Y801137D01*
X1425455D02*
X1425909Y799262D01*
X1425909D02*
X1426818Y798012D01*
X1426818D02*
X1427727Y797387D01*
X1427727D02*
X1429091D01*
X1429091D02*
X1430000Y798012D01*
X1430000D02*
X1430909Y799262D01*
X1440000Y804262D02*
X1439545Y805513D01*
X1439545D02*
X1438182Y806138D01*
X1438182D02*
X1436818D01*
X1436818D02*
X1435455Y805513D01*
X1435455D02*
X1435000Y804262D01*
X1435000D02*
X1435455Y803012D01*
X1435455D02*
X1436364Y802387D01*
X1436364D02*
X1438636Y801762D01*
X1438636D02*
X1439545Y801137D01*
X1439545D02*
X1440000Y799887D01*
X1440000D02*
Y799262D01*
X1440000D02*
X1439545Y798012D01*
X1439545D02*
X1438182Y797387D01*
X1438182D02*
X1436818D01*
X1436818D02*
X1435455Y798012D01*
X1435455D02*
X1435000Y799262D01*
X1454545Y810513D02*
Y797387D01*
X1458636Y806138D02*
Y797387D01*
Y803637D02*
X1460000Y805513D01*
X1460000D02*
X1460909Y806138D01*
X1460909D02*
X1462273D01*
X1462273D02*
X1463182Y805513D01*
X1463182D02*
X1463636Y803637D01*
X1463636D02*
Y797387D01*
X1472727Y804262D02*
X1472273Y805513D01*
X1472273D02*
X1470909Y806138D01*
X1470909D02*
X1469545D01*
X1469545D02*
X1468182Y805513D01*
X1468182D02*
X1467727Y804262D01*
X1467727D02*
X1468182Y803012D01*
X1468182D02*
X1469091Y802387D01*
X1469091D02*
X1471364Y801762D01*
X1471364D02*
X1472273Y801137D01*
X1472273D02*
X1472727Y799887D01*
X1472727D02*
Y799262D01*
X1472727D02*
X1472273Y798012D01*
X1472273D02*
X1470909Y797387D01*
X1470909D02*
X1469545D01*
X1469545D02*
X1468182Y798012D01*
X1468182D02*
X1467727Y799262D01*
X1478182Y810513D02*
Y799887D01*
X1478182D02*
X1478636Y798012D01*
X1478636D02*
X1479545Y797387D01*
X1479545D02*
X1480455D01*
X1476818Y806138D02*
X1480000D01*
X1484545D02*
Y797387D01*
Y802387D02*
X1485000Y804262D01*
X1485000D02*
X1485909Y805513D01*
X1485909D02*
X1486818Y806138D01*
X1486818D02*
X1488182D01*
X1492273D02*
Y799887D01*
X1492273D02*
X1492727Y798012D01*
X1492727D02*
X1493636Y797387D01*
X1493636D02*
X1495000D01*
X1495000D02*
X1495909Y798012D01*
X1495909D02*
X1497273Y799887D01*
Y806138D02*
Y797387D01*
X1501364Y806138D02*
Y797387D01*
Y803637D02*
X1502727Y805513D01*
X1502727D02*
X1503636Y806138D01*
X1503636D02*
X1505000D01*
X1505000D02*
X1505909Y805513D01*
X1505909D02*
X1506364Y803637D01*
X1506364D02*
Y797387D01*
Y803637D02*
X1507727Y805513D01*
X1507727D02*
X1508636Y806138D01*
X1508636D02*
X1510000D01*
X1510000D02*
X1510909Y805513D01*
X1510909D02*
X1511364Y803637D01*
X1511364D02*
Y797387D01*
X1515455Y802387D02*
X1520909D01*
X1520909D02*
Y803637D01*
X1520909D02*
X1520455Y804887D01*
X1520455D02*
X1520000Y805513D01*
X1520000D02*
X1519091Y806138D01*
X1519091D02*
X1517727D01*
X1517727D02*
X1516818Y805513D01*
X1516818D02*
X1515909Y804262D01*
X1515909D02*
X1515455Y802387D01*
X1515455D02*
Y801137D01*
X1515455D02*
X1515909Y799262D01*
X1515909D02*
X1516818Y798012D01*
X1516818D02*
X1517727Y797387D01*
X1517727D02*
X1519091D01*
X1519091D02*
X1520000Y798012D01*
X1520000D02*
X1520909Y799262D01*
X1525000Y806138D02*
Y797387D01*
Y803637D02*
X1526364Y805513D01*
X1526364D02*
X1527273Y806138D01*
X1527273D02*
X1528636D01*
X1528636D02*
X1529545Y805513D01*
X1529545D02*
X1530000Y803637D01*
X1530000D02*
Y797387D01*
X1535455Y810513D02*
Y799887D01*
X1535455D02*
X1535909Y798012D01*
X1535909D02*
X1536818Y797387D01*
X1536818D02*
X1537727D01*
X1534091Y806138D02*
X1537273D01*
X1546818Y804262D02*
X1546364Y805513D01*
X1546364D02*
X1545000Y806138D01*
X1545000D02*
X1543636D01*
X1543636D02*
X1542273Y805513D01*
X1542273D02*
X1541818Y804262D01*
X1541818D02*
X1542273Y803012D01*
X1542273D02*
X1543182Y802387D01*
X1543182D02*
X1545455Y801762D01*
X1545455D02*
X1546364Y801137D01*
X1546364D02*
X1546818Y799887D01*
X1546818D02*
Y799262D01*
X1546818D02*
X1546364Y798012D01*
X1546364D02*
X1545000Y797387D01*
X1545000D02*
X1543636D01*
X1543636D02*
X1542273Y798012D01*
X1542273D02*
X1541818Y799262D01*
X1387305Y749372D02*
Y736247D01*
Y749372D02*
X1393214D01*
X1387305Y743122D02*
X1390941D01*
X1397759Y746247D02*
Y746872D01*
X1398214Y748122*
X1398669Y748747*
X1399578Y749372*
X1401396*
X1402305Y748747*
X1402759Y748122*
X1403214Y746872*
Y745622*
X1402759Y744372*
X1401850Y742497*
X1397305Y736247*
X1403669*
X1410032Y749372D02*
X1408669Y748747D01*
X1408214Y747497*
Y746247*
X1408669Y744997*
X1409578Y744372*
X1411396Y743747*
X1412759Y743122*
X1413669Y741872*
X1414123Y740622*
Y738747*
X1413669Y737497*
X1413214Y736872*
X1411850Y736247*
X1410032*
X1408669Y736872*
X1408214Y737497*
X1407759Y738747*
Y740622*
X1408214Y741872*
X1409123Y743122*
X1410487Y743747*
X1412305Y744372*
X1413214Y744997*
X1413669Y746247*
Y747497*
X1413214Y748747*
X1411850Y749372*
X1410032*
X1420941D02*
X1419578Y748747D01*
X1418669Y746872*
X1418214Y743747*
Y741872*
X1418669Y738747*
X1419578Y736872*
X1420941Y736247*
X1421850*
X1423214Y736872*
X1424123Y738747*
X1424578Y741872*
Y743747*
X1424123Y746872*
X1423214Y748747*
X1421850Y749372*
X1420941*
X1434123Y747497D02*
X1433669Y748747D01*
X1432305Y749372*
X1431396*
X1430032Y748747*
X1429123Y746872*
X1428669Y743747*
Y740622*
X1429123Y738122*
X1430032Y736872*
X1431396Y736247*
X1431850*
X1433214Y736872*
X1434123Y738122*
X1434578Y739997*
Y740622*
X1434123Y742497*
X1433214Y743747*
X1431850Y744372*
X1431396*
X1430032Y743747*
X1429123Y742497*
X1428669Y740622*
X1438669Y744997D02*
X1443669Y736247D01*
Y744997D02*
X1438669Y736247D01*
X1463669Y743122D02*
X1462759Y744372D01*
X1461850Y744997*
X1460487*
X1459578Y744372*
X1458669Y743122*
X1458214Y741247*
Y739997*
X1458669Y738122*
X1459578Y736872*
X1460487Y736247*
X1461850*
X1462759Y736872*
X1463669Y738122*
X1470032Y744997D02*
X1469123Y744372D01*
X1468214Y743122*
X1467759Y741247*
Y739997*
X1468214Y738122*
X1469123Y736872*
X1470032Y736247*
X1471396*
X1472305Y736872*
X1473214Y738122*
X1473669Y739997*
Y741247*
X1473214Y743122*
X1472305Y744372*
X1471396Y744997*
X1470032*
X1477759D02*
Y736247D01*
Y742497D02*
X1479123Y744372D01*
X1480032Y744997*
X1481396*
X1482305Y744372*
X1482759Y742497*
Y736247*
X1488214Y749372D02*
Y738747D01*
X1488669Y736872*
X1489578Y736247*
X1490487*
X1486850Y744997D02*
X1490032D01*
X1494578D02*
Y736247D01*
Y741247D02*
X1495032Y743122D01*
X1495941Y744372*
X1496850Y744997*
X1498214*
X1504578D02*
X1503669Y744372D01*
X1502759Y743122*
X1502305Y741247*
Y739997*
X1502759Y738122*
X1503669Y736872*
X1504578Y736247*
X1505941*
X1506850Y736872*
X1507759Y738122*
X1508214Y739997*
Y741247*
X1507759Y743122*
X1506850Y744372*
X1505941Y744997*
X1504578*
X1512305Y749372D02*
Y736247D01*
X1523214Y746247D02*
X1522759Y747497D01*
X1521850Y748747*
X1520941Y749372*
X1519123*
X1518214Y748747*
X1517305Y747497*
X1516850Y746247*
X1516396Y744372*
Y741247*
X1516850Y739372*
X1517305Y738122*
X1518214Y736872*
X1519123Y736247*
X1520941*
X1521850Y736872*
X1522759Y738122*
X1523214Y739372*
X1530941Y749372D02*
X1527305Y736247D01*
X1530941Y749372D02*
X1534578Y736247D01*
X1528669Y740622D02*
X1533214D01*
X1538669Y749372D02*
Y736247D01*
Y749372D02*
X1542759D01*
X1544123Y748747*
X1544578Y748122*
X1545032Y746872*
Y745622*
X1544578Y744372*
X1544123Y743747*
X1542759Y743122*
X1538669*
X1541850D02*
X1545032Y736247D01*
X1549123Y749372D02*
Y736247D01*
Y749372D02*
X1552305D01*
X1553669Y748747*
X1554578Y747497*
X1555032Y746247*
X1555487Y744372*
Y741247*
X1555032Y739372*
X1554578Y738122*
X1553669Y736872*
X1552305Y736247*
X1549123*
X1347114Y663984D02*
X1350864D01*
X1348818Y660234*
X1349841*
X1350523Y659766*
X1350864Y659297*
X1351205Y657891*
Y656953*
X1350864Y655547*
X1350182Y654609*
X1349159Y654141*
X1348136*
X1347114Y654609*
X1346773Y655078*
X1346432Y656016*
X1499727Y663984D02*
Y654141D01*
X1502795Y660703D02*
Y654141D01*
Y658828D02*
X1503818Y660234D01*
X1504500Y660703*
X1505523*
X1506205Y660234*
X1506545Y658828*
Y654141*
X1510636Y663984D02*
Y656016D01*
X1510977Y654609*
X1511659Y654141*
X1512341*
X1509614Y660703D02*
X1512000D01*
X1515409Y657891D02*
X1519500D01*
Y658828*
X1519159Y659766*
X1518818Y660234*
X1518136Y660703*
X1517114*
X1516432Y660234*
X1515750Y659297*
X1515409Y657891*
Y656953*
X1515750Y655547*
X1516432Y654609*
X1517114Y654141*
X1518136*
X1518818Y654609*
X1519500Y655547*
X1522568Y660703D02*
Y654141D01*
Y657891D02*
X1522909Y659297D01*
X1523591Y660234*
X1524273Y660703*
X1525295*
X1528364D02*
Y654141D01*
Y658828D02*
X1529386Y660234D01*
X1530068Y660703*
X1531091*
X1531773Y660234*
X1532114Y658828*
Y654141*
X1539273Y660703D02*
Y654141D01*
Y659297D02*
X1538591Y660234D01*
X1537909Y660703*
X1536886*
X1536205Y660234*
X1535523Y659297*
X1535182Y657891*
Y656953*
X1535523Y655547*
X1536205Y654609*
X1536886Y654141*
X1537909*
X1538591Y654609*
X1539273Y655547*
X1542341Y663984D02*
Y654141D01*
X1553250Y663984D02*
Y654141D01*
Y663984D02*
X1556318D01*
X1557341Y663516*
X1557682Y663047*
X1558023Y662109*
Y660703*
X1557682Y659766*
X1557341Y659297*
X1556318Y658828*
X1553250*
X1561091Y663984D02*
Y654141D01*
X1568250Y660703D02*
Y654141D01*
Y659297D02*
X1567568Y660234D01*
X1566886Y660703*
X1565864*
X1565182Y660234*
X1564500Y659297*
X1564159Y657891*
Y656953*
X1564500Y655547*
X1565182Y654609*
X1565864Y654141*
X1566886*
X1567568Y654609*
X1568250Y655547*
X1571318Y660703D02*
Y654141D01*
Y658828D02*
X1572341Y660234D01*
X1573023Y660703*
X1574045*
X1574727Y660234*
X1575068Y658828*
Y654141*
X1578136Y657891D02*
X1582227D01*
Y658828*
X1581886Y659766*
X1581545Y660234*
X1580864Y660703*
X1579841*
X1579159Y660234*
X1578477Y659297*
X1578136Y657891*
Y656953*
X1578477Y655547*
X1579159Y654609*
X1579841Y654141*
X1580864*
X1581545Y654609*
X1582227Y655547*
X1593477Y661641D02*
Y662109D01*
X1593818Y663047*
X1594159Y663516*
X1594841Y663984*
X1596205*
X1596886Y663516*
X1597227Y663047*
X1597568Y662109*
Y661172*
X1597227Y660234*
X1596545Y658828*
X1593136Y654141*
X1597909*
X1131300Y689263D02*
X1132664Y682700D01*
X1134027Y689263D02*
X1132664Y682700D01*
X1134027Y689263D02*
X1135391Y682700D01*
X1136755Y689263D02*
X1135391Y682700D01*
X1139823Y689263D02*
X1141186Y682700D01*
X1142550Y689263D02*
X1141186Y682700D01*
X1142550Y689263D02*
X1143914Y682700D01*
X1145277Y689263D02*
X1143914Y682700D01*
X1148345Y689263D02*
X1149709Y682700D01*
X1151073Y689263D02*
X1149709Y682700D01*
X1151073Y689263D02*
X1152436Y682700D01*
X1153800Y689263D02*
X1152436Y682700D01*
X1157209Y683638D02*
X1156868Y683169D01*
X1157209Y682700*
X1157550Y683169*
X1157209Y683638*
X1160618Y689263D02*
X1161982Y682700D01*
X1163345Y689263D02*
X1161982Y682700D01*
X1163345Y689263D02*
X1164709Y682700D01*
X1166073Y689263D02*
X1164709Y682700D01*
X1172891Y687856D02*
X1172550Y688794D01*
X1171527Y689263*
X1171527D02*
X1170505D01*
X1170505D02*
X1169482Y688794D01*
X1169141Y687856*
X1169482Y686919*
X1170164Y686450*
X1171868Y685981*
X1172550Y685513*
X1172550D02*
X1172891Y684575D01*
Y684106*
X1172550Y683169*
X1171527Y682700*
X1170505*
X1169482Y683169*
X1169141Y684106*
X1176982Y692544D02*
Y684575D01*
X1177323Y683169*
X1178005Y682700*
X1178686*
X1175959Y689263D02*
X1178345D01*
X1185505Y687856D02*
X1185164Y688794D01*
X1184141Y689263*
X1184141D02*
X1183118D01*
X1183118D02*
X1182095Y688794D01*
X1181755Y687856*
X1182095Y686919*
X1182777Y686450*
X1184482Y685981*
X1185164Y685513*
X1185164D02*
X1185505Y684575D01*
Y684106*
X1185164Y683169*
X1184141Y682700*
X1183118*
X1182095Y683169*
X1181755Y684106*
X1192664Y687856D02*
X1191982Y688794D01*
X1191300Y689263*
X1191300D02*
X1190277D01*
X1190277D02*
X1189595Y688794D01*
X1188914Y687856*
X1188573Y686450*
Y685513*
X1188573D02*
X1188914Y684106D01*
X1189595Y683169*
X1190277Y682700*
X1191300*
X1191982Y683169*
X1192664Y684106*
X1197436Y689263D02*
X1196755Y688794D01*
X1196073Y687856*
X1195732Y686450*
Y685513*
X1195732D02*
X1196073Y684106D01*
X1196755Y683169*
X1197436Y682700*
X1198459*
X1199141Y683169*
X1199823Y684106*
X1200164Y685513*
X1200164D02*
Y686450D01*
X1199823Y687856*
X1199141Y688794*
X1198459Y689263*
X1198459D02*
X1197436D01*
X1203232D02*
Y682700D01*
Y686450D02*
X1203573Y687856D01*
X1204255Y688794*
X1204936Y689263*
X1204936D02*
X1205959D01*
X1209027D02*
Y679419D01*
Y687856D02*
X1209709Y688794D01*
X1210391Y689263*
X1210391D02*
X1211414D01*
X1211414D02*
X1212095Y688794D01*
X1212777Y687856*
X1213118Y686450*
Y685513*
X1213118D02*
X1212777Y684106D01*
X1212095Y683169*
X1211414Y682700*
X1210391*
X1209709Y683169*
X1209027Y684106*
X1216527Y683638D02*
X1216186Y683169D01*
X1216527Y682700*
X1216868Y683169*
X1216527Y683638*
X1224027Y687856D02*
X1223345Y688794D01*
X1222664Y689263*
X1222664D02*
X1221641D01*
X1221641D02*
X1220959Y688794D01*
X1220277Y687856*
X1219936Y686450*
Y685513*
X1219936D02*
X1220277Y684106D01*
X1220959Y683169*
X1221641Y682700*
X1222664*
X1223345Y683169*
X1224027Y684106*
X1228800Y689263D02*
X1228118Y688794D01*
X1227436Y687856*
X1227095Y686450*
Y685513*
X1227095D02*
X1227436Y684106D01*
X1228118Y683169*
X1228800Y682700*
X1229823*
X1230505Y683169*
X1231186Y684106*
X1231527Y685513*
X1231527D02*
Y686450D01*
X1231186Y687856*
X1230505Y688794*
X1229823Y689263*
X1229823D02*
X1228800D01*
X1234595D02*
Y682700D01*
Y687388D02*
X1235618Y688794D01*
X1236300Y689263*
X1236300D02*
X1237323D01*
X1237323D02*
X1238005Y688794D01*
X1238345Y687388*
X1238345D02*
Y682700D01*
Y687388D02*
X1239368Y688794D01*
X1240050Y689263*
X1240050D02*
X1241073D01*
X1241073D02*
X1241755Y688794D01*
X1242095Y687388*
X1242095D02*
Y682700D01*
X917200Y754944D02*
X918905Y745100D01*
X920609Y754944D02*
X918905Y745100D01*
X920609Y754944D02*
X922314Y745100D01*
X924018Y754944D02*
X922314Y745100D01*
X927086Y754944D02*
X927427Y754475D01*
X927768Y754944*
X927427Y755413*
X927427D02*
X927086Y754944D01*
X927427Y751663D02*
Y745100D01*
X930836Y754944D02*
Y745100D01*
X933905Y754944D02*
Y745100D01*
X938677Y751663D02*
X937995Y751194D01*
X937314Y750256*
X936973Y748850*
Y747913*
X936973D02*
X937314Y746506D01*
X937995Y745569*
X938677Y745100*
X939700*
X940382Y745569*
X941064Y746506*
X941405Y747913*
X941405D02*
Y748850D01*
X941064Y750256*
X940382Y751194*
X939700Y751663*
X939700D02*
X938677D01*
X944473D02*
X945836Y745100D01*
X947200Y751663D02*
X945836Y745100D01*
X947200Y751663D02*
X948564Y745100D01*
X949927Y751663D02*
X948564Y745100D01*
X965609Y753538D02*
X964927Y754475D01*
X963905Y754944*
X962541*
X961518Y754475*
X960836Y753538*
X960836D02*
Y752600D01*
X961177Y751663*
X961177D02*
X961518Y751194D01*
X962200Y750725*
X964245Y749788*
X964245D02*
X964927Y749319D01*
X965268Y748850*
X965609Y747913*
X965609D02*
Y746506D01*
X964927Y745569*
X963905Y745100*
X962541*
X961518Y745569*
X960836Y746506*
X968677Y751663D02*
Y741819D01*
Y750256D02*
X969359Y751194D01*
X970041Y751663*
X970041D02*
X971064D01*
X971064D02*
X971745Y751194D01*
X972427Y750256*
X972768Y748850*
Y747913*
X972768D02*
X972427Y746506D01*
X971745Y745569*
X971064Y745100*
X970041*
X969359Y745569*
X968677Y746506*
X975836Y751663D02*
Y745100D01*
Y748850D02*
X976177Y750256D01*
X976859Y751194*
X977541Y751663*
X977541D02*
X978564D01*
X981632Y754944D02*
X981973Y754475D01*
X982314Y754944*
X981973Y755413*
X981973D02*
X981632Y754944D01*
X981973Y751663D02*
Y745100D01*
X985382Y751663D02*
Y745100D01*
Y749788D02*
X986405Y751194D01*
X987086Y751663*
X987086D02*
X988109D01*
X988109D02*
X988791Y751194D01*
X989132Y749788*
X989132D02*
Y745100D01*
X996291Y751663D02*
Y744162D01*
X996291D02*
X995950Y742756D01*
X995609Y742287*
X995609D02*
X994927Y741819D01*
X993905*
X993223Y742287*
X996291Y750256D02*
X995609Y751194D01*
X994927Y751663*
X994927D02*
X993905D01*
X993905D02*
X993223Y751194D01*
X992541Y750256*
X992200Y748850*
Y747913*
X992200D02*
X992541Y746506D01*
X993223Y745569*
X993905Y745100*
X994927*
X995609Y745569*
X996291Y746506*
X1009586Y754944D02*
Y745100D01*
X1007200Y754944D02*
X1011973D01*
X1015041Y748850D02*
X1019132D01*
Y749788*
X1019132D02*
X1018791Y750725D01*
X1018450Y751194*
X1017768Y751663*
X1017768D02*
X1016745D01*
X1016745D02*
X1016064Y751194D01*
X1015382Y750256*
X1015041Y748850*
Y747913*
X1015041D02*
X1015382Y746506D01*
X1016064Y745569*
X1016745Y745100*
X1017768*
X1018450Y745569*
X1019132Y746506*
X1026291Y750256D02*
X1025609Y751194D01*
X1024927Y751663*
X1024927D02*
X1023905D01*
X1023905D02*
X1023223Y751194D01*
X1022541Y750256*
X1022200Y748850*
Y747913*
X1022200D02*
X1022541Y746506D01*
X1023223Y745569*
X1023905Y745100*
X1024927*
X1025609Y745569*
X1026291Y746506*
X1029359Y754944D02*
Y745100D01*
Y749788D02*
X1030382Y751194D01*
X1031064Y751663*
X1031064D02*
X1032086D01*
X1032086D02*
X1032768Y751194D01*
X1033109Y749788*
X1033109D02*
Y745100D01*
X1036177Y751663D02*
Y745100D01*
Y749788D02*
X1037200Y751194D01*
X1037882Y751663*
X1037882D02*
X1038905D01*
X1038905D02*
X1039586Y751194D01*
X1039927Y749788*
X1039927D02*
Y745100D01*
X1042995Y754944D02*
X1043336Y754475D01*
X1043677Y754944*
X1043336Y755413*
X1043336D02*
X1042995Y754944D01*
X1043336Y751663D02*
Y745100D01*
X1050836Y750256D02*
X1050155Y751194D01*
X1049473Y751663*
X1049473D02*
X1048450D01*
X1048450D02*
X1047768Y751194D01*
X1047086Y750256*
X1046745Y748850*
Y747913*
X1046745D02*
X1047086Y746506D01*
X1047768Y745569*
X1048450Y745100*
X1049473*
X1050155Y745569*
X1050836Y746506*
X1057995Y751663D02*
Y745100D01*
Y750256D02*
X1057314Y751194D01*
X1056632Y751663*
X1056632D02*
X1055609D01*
X1055609D02*
X1054927Y751194D01*
X1054245Y750256*
X1053905Y748850*
Y747913*
X1053905D02*
X1054245Y746506D01*
X1054927Y745569*
X1055609Y745100*
X1056632*
X1057314Y745569*
X1057995Y746506*
X1061064Y754944D02*
Y745100D01*
X1076745Y753538D02*
X1076064Y754475D01*
X1075041Y754944*
X1073677*
X1072655Y754475*
X1071973Y753538*
X1071973D02*
Y752600D01*
X1072314Y751663*
X1072314D02*
X1072655Y751194D01*
X1073336Y750725*
X1075382Y749788*
X1075382D02*
X1076064Y749319D01*
X1076405Y748850*
X1076745Y747913*
X1076745D02*
Y746506D01*
X1076064Y745569*
X1075041Y745100*
X1073677*
X1072655Y745569*
X1071973Y746506*
X1079814Y748850D02*
X1083905D01*
Y749788*
X1083905D02*
X1083564Y750725D01*
X1083223Y751194*
X1082541Y751663*
X1082541D02*
X1081518D01*
X1081518D02*
X1080836Y751194D01*
X1080155Y750256*
X1079814Y748850*
Y747913*
X1079814D02*
X1080155Y746506D01*
X1080836Y745569*
X1081518Y745100*
X1082541*
X1083223Y745569*
X1083905Y746506*
X1086973Y751663D02*
Y745100D01*
Y748850D02*
X1087314Y750256D01*
X1087995Y751194*
X1088677Y751663*
X1088677D02*
X1089700D01*
X1092768D02*
X1094814Y745100D01*
X1096859Y751663D02*
X1094814Y745100D01*
X1099927Y754944D02*
X1100268Y754475D01*
X1100609Y754944*
X1100268Y755413*
X1100268D02*
X1099927Y754944D01*
X1100268Y751663D02*
Y745100D01*
X1107768Y750256D02*
X1107086Y751194D01*
X1106405Y751663*
X1106405D02*
X1105382D01*
X1105382D02*
X1104700Y751194D01*
X1104018Y750256*
X1103677Y748850*
Y747913*
X1103677D02*
X1104018Y746506D01*
X1104700Y745569*
X1105382Y745100*
X1106405*
X1107086Y745569*
X1107768Y746506*
X1110836Y748850D02*
X1114927D01*
Y749788*
X1114927D02*
X1114586Y750725D01*
X1114245Y751194*
X1113564Y751663*
X1113564D02*
X1112541D01*
X1112541D02*
X1111859Y751194D01*
X1111177Y750256*
X1110836Y748850*
Y747913*
X1110836D02*
X1111177Y746506D01*
X1111859Y745569*
X1112541Y745100*
X1113564*
X1114245Y745569*
X1114927Y746506*
X1121745Y750256D02*
X1121405Y751194D01*
X1120382Y751663*
X1120382D02*
X1119359D01*
X1119359D02*
X1118336Y751194D01*
X1117995Y750256*
X1118336Y749319*
X1119018Y748850*
X1120723Y748381*
X1121405Y747913*
X1121405D02*
X1121745Y746975D01*
Y746506*
X1121405Y745569*
X1120382Y745100*
X1119359*
X1118336Y745569*
X1117995Y746506*
X1137768Y752600D02*
X1137427Y753538D01*
X1137427D02*
X1136745Y754475D01*
X1136064Y754944*
X1134700*
X1134018Y754475*
X1133336Y753538*
X1133336D02*
X1132995Y752600D01*
X1132655Y751194*
Y748850*
X1132995Y747444*
X1133336Y746506*
X1134018Y745569*
X1134700Y745100*
X1136064*
X1136745Y745569*
X1137427Y746506*
X1137768Y747444*
X1142541Y751663D02*
X1141859Y751194D01*
X1141177Y750256*
X1140836Y748850*
Y747913*
X1140836D02*
X1141177Y746506D01*
X1141859Y745569*
X1142541Y745100*
X1143564*
X1144245Y745569*
X1144927Y746506*
X1145268Y747913*
X1145268D02*
Y748850D01*
X1144927Y750256*
X1144245Y751194*
X1143564Y751663*
X1143564D02*
X1142541D01*
X1148336D02*
Y745100D01*
Y748850D02*
X1148677Y750256D01*
X1149359Y751194*
X1150041Y751663*
X1150041D02*
X1151064D01*
X1154132D02*
Y741819D01*
Y750256D02*
X1154814Y751194D01*
X1155495Y751663*
X1155495D02*
X1156518D01*
X1156518D02*
X1157200Y751194D01*
X1157882Y750256*
X1158223Y748850*
Y747913*
X1158223D02*
X1157882Y746506D01*
X1157200Y745569*
X1156518Y745100*
X1155495*
X1154814Y745569*
X1154132Y746506*
X1161632Y746038D02*
X1161291Y745569D01*
X1161632Y745100*
X1161973Y745569*
X1161632Y746038*
X1000500Y1000512D02*
X1354500Y1000300D01*
Y1009500*
X1000500*
Y1000512*
Y1009299D02*
X1354500D01*
X1000500Y1008399D02*
X1354500D01*
X1000500Y1007499D02*
X1354500D01*
X1000500Y1006599D02*
X1354500D01*
X1000500Y1005699D02*
X1354500D01*
X1000500Y1004799D02*
X1354500D01*
X1000500Y1003899D02*
X1354500D01*
X1000500Y1002999D02*
X1354500D01*
X1000500Y1002099D02*
X1354500D01*
X1000500Y1001199D02*
X1354500D01*
X1028000Y1028500D02*
X1035500D01*
Y1023500*
X1056500*
Y1055500*
X1027500*
Y1065500*
X1062000*
Y1019500*
X1028000*
Y1028500*
G54D229*
X652000Y645200D02*
X1688000D01*
Y1350000*
X652000*
Y645200*
X1253500D02*
X1688000D01*
Y840200*
X1253500*
Y645200*
X1253000Y785200D02*
X1688000D01*
Y645200*
X1253000*
Y785200*
Y675200D02*
X1688000D01*
Y645200*
X1253000*
Y675200*
X1413000*
Y645200*
X1253000*
Y675200*
Y785200D02*
X1688000D01*
Y840200*
X1253000*
Y785200*
Y715200D02*
X1688000D01*
Y785200*
X1253000*
Y715200*
X1553000Y675200D02*
X1688000D01*
Y715200*
X1553000*
Y675200*
X818500Y675700D02*
X1024000D01*
Y645200*
X818500*
Y675700*
X1024000Y645200D02*
X1253500D01*
Y675700*
X1024000*
Y645200*
X818500Y785700D02*
X1253500D01*
Y675700*
X818500*
Y785700*
G54D230*
G54D231*
X1000000Y1000000D02*
X1072500D01*
Y1007946*
X1080374D02*
G75*
G03X1072500I-3937J310D01*
G01X1080374D02*
Y1000000D01*
X1168563*
Y1007839*
X1176437D02*
G03X1168563I-3937J227D01*
G01X1176437D02*
Y1000000D01*
X1355079*
Y1062205*
X1352102*
Y1077953D02*
G03Y1062205I-55J-7874D01*
G01Y1077953D02*
X1355079D01*
Y1120000*
X1000000*
Y1077953*
X1004464*
X1004457Y1062204D02*
G03X1004470Y1077952I-330J7875D01*
G01X1004464Y1062205D02*
X1000000D01*
Y1000000*
X1113000Y1120000D02*
X1000000D01*
Y1078500*
X1001500*
X1001492Y1062002D02*
G03X1001506Y1078502I2133J8248D01*
G01X1001500Y1062000D02*
X1000000D01*
Y1004500*
X1079000*
Y1017000*
X1113000*
Y1120000*
G54D232*
X1195000Y1022000D02*
X1260500D01*
X1278500Y1040000*
X1297500*
Y1031000*
X1328500*
Y1077500*
X1286000*
Y1120000*
X1355000*
Y1078000*
X1353000*
X1353002D02*
G03Y1062000I98J-8000D01*
G01X1353000D02*
X1355000D01*
Y1007000*
X1195000*
Y1022000*
X1078000Y1120500D02*
X1000000D01*
Y1078500*
X1002000*
X1002002Y1062000D02*
G03Y1078500I998J8250D01*
G01X1002000Y1062000D02*
X1000000D01*
Y1005500*
X1079000*
Y1017000*
X1095000*
Y1040000*
X1071000*
Y1019500*
X1015500*
Y1057564*
X1020500Y1064564*
Y1073000*
X1045500*
Y1091000*
X1078000*
Y1120500*
X1197000Y1104000D02*
X1182500D01*
Y1095500*
X1157000*
Y1037000*
X1168500*
Y1089000*
X1191500*
Y1097500*
X1197000*
Y1104000*
G54D230*
X1084819Y1115100D02*
X1084920D01*
X1088080D02*
X1088181D01*
X1084719Y1115200D02*
X1085124D01*
X1087876D02*
X1088281D01*
X1084619Y1115300D02*
X1085328D01*
X1087673D02*
X1088381D01*
X1084519Y1115400D02*
X1085591D01*
X1087407D02*
X1088481D01*
X1084419Y1115500D02*
X1086024D01*
X1086978D02*
X1088581D01*
X1084319Y1115600D02*
X1088681D01*
X1084219Y1115700D02*
X1088781D01*
X1084355Y1115800D02*
X1088645D01*
X1084531Y1115900D02*
X1088470D01*
X1084707Y1116000D02*
X1088294D01*
X1084883Y1116100D02*
X1088118D01*
X1085171Y1116200D02*
X1087828D01*
X1085484Y1116300D02*
X1087517D01*
X1086018Y1116400D02*
X1086981D01*
X1084300Y1115619D02*
Y1115769D01*
X1084400Y1115519D02*
Y1115826D01*
X1084500Y1115419D02*
Y1115882D01*
X1084600Y1115319D02*
Y1115939D01*
X1084700Y1115219D02*
Y1115996D01*
X1084800Y1115119D02*
Y1116053D01*
X1084900Y1115090D02*
Y1116109D01*
X1085000Y1115139D02*
Y1116145D01*
X1085100Y1115188D02*
Y1116177D01*
X1085200Y1115237D02*
Y1116209D01*
X1085300Y1115286D02*
Y1116241D01*
X1085400Y1115335D02*
Y1116273D01*
X1085500Y1115379D02*
Y1116305D01*
X1085600Y1115402D02*
Y1116337D01*
X1085700Y1115425D02*
Y1116367D01*
X1085800Y1115448D02*
Y1116378D01*
X1085900Y1115471D02*
Y1116388D01*
X1086000Y1115495D02*
Y1116398D01*
X1086100Y1115518D02*
Y1116408D01*
X1086200Y1115530D02*
Y1116419D01*
X1086300Y1115530D02*
Y1116429D01*
X1086400Y1115530D02*
Y1116439D01*
X1086500Y1115530D02*
Y1116450D01*
X1086600Y1115530D02*
Y1116440D01*
X1086700Y1115530D02*
Y1116429D01*
X1086800Y1115530D02*
Y1116419D01*
X1086900Y1115518D02*
Y1116408D01*
X1087000Y1115495D02*
Y1116398D01*
X1087100Y1115472D02*
Y1116388D01*
X1087200Y1115448D02*
Y1116377D01*
X1087300Y1115425D02*
Y1116367D01*
X1087400Y1115402D02*
Y1116338D01*
X1087500Y1115378D02*
Y1116305D01*
X1087600Y1115336D02*
Y1116273D01*
X1087700Y1115287D02*
Y1116241D01*
X1087800Y1115237D02*
Y1116209D01*
X1087900Y1115188D02*
Y1116177D01*
X1088000Y1115139D02*
Y1116145D01*
X1088100Y1115090D02*
Y1116110D01*
X1088200Y1115119D02*
Y1116053D01*
X1088300Y1115219D02*
Y1115996D01*
X1088400Y1115319D02*
Y1115940D01*
X1088500Y1115419D02*
Y1115883D01*
X1088600Y1115519D02*
Y1115826D01*
X1088700Y1115619D02*
Y1115769D01*
X1083231Y1110300D02*
X1083381D01*
X1083174Y1110400D02*
X1083481D01*
X1083117Y1110500D02*
X1083581D01*
X1083061Y1110600D02*
X1083681D01*
X1083004Y1110700D02*
X1083781D01*
X1082947Y1110800D02*
X1083881D01*
X1082890Y1110900D02*
X1083910D01*
X1082855Y1111000D02*
X1083861D01*
X1082823Y1111100D02*
X1083812D01*
X1082791Y1111200D02*
X1083763D01*
X1082759Y1111300D02*
X1083713D01*
X1082727Y1111400D02*
X1083664D01*
X1082695Y1111500D02*
X1083621D01*
X1082663Y1111600D02*
X1083598D01*
X1082633Y1111700D02*
X1083575D01*
X1082623Y1111800D02*
X1083552D01*
X1082612Y1111900D02*
X1083529D01*
X1082602Y1112000D02*
X1083505D01*
X1082592Y1112100D02*
X1083482D01*
X1082581Y1112200D02*
X1083470D01*
X1082571Y1112300D02*
X1083470D01*
X1082560Y1112400D02*
X1083470D01*
X1082550Y1112500D02*
X1083470D01*
X1082560Y1112600D02*
X1083470D01*
X1082571Y1112700D02*
X1083470D01*
X1082581Y1112800D02*
X1083470D01*
X1082592Y1112900D02*
X1083482D01*
X1082602Y1113000D02*
X1083505D01*
X1082612Y1113100D02*
X1083529D01*
X1082623Y1113200D02*
X1083552D01*
X1082633Y1113300D02*
X1083575D01*
X1082663Y1113400D02*
X1083598D01*
X1082695Y1113500D02*
X1083621D01*
X1082727Y1113600D02*
X1083664D01*
X1082759Y1113700D02*
X1083713D01*
X1082791Y1113800D02*
X1083763D01*
X1082823Y1113900D02*
X1083812D01*
X1082855Y1114000D02*
X1083861D01*
X1082890Y1114100D02*
X1083910D01*
X1082947Y1114200D02*
X1083881D01*
X1083004Y1114300D02*
X1083781D01*
X1083061Y1114400D02*
X1083681D01*
X1083117Y1114500D02*
X1083581D01*
X1083174Y1114600D02*
X1083481D01*
X1083231Y1114700D02*
X1083381D01*
X1082600Y1112019D02*
Y1112981D01*
X1082700Y1111483D02*
Y1113517D01*
X1082800Y1111172D02*
Y1113828D01*
X1082900Y1110882D02*
Y1114118D01*
X1083000Y1110706D02*
Y1114294D01*
X1083100Y1110531D02*
Y1114469D01*
X1083200Y1110355D02*
Y1114645D01*
X1083300Y1110219D02*
Y1114781D01*
X1083400Y1110319D02*
Y1114681D01*
X1083500Y1110419D02*
Y1112023D01*
Y1112977D02*
Y1114581D01*
X1083600Y1110519D02*
Y1111592D01*
Y1113408D02*
Y1114481D01*
X1083700Y1110619D02*
Y1111327D01*
Y1113673D02*
Y1114381D01*
X1083800Y1110719D02*
Y1111124D01*
Y1113876D02*
Y1114281D01*
X1083900Y1110819D02*
Y1110920D01*
Y1114080D02*
Y1114181D01*
X1086018Y1108600D02*
X1086981D01*
X1085484Y1108700D02*
X1087517D01*
X1085171Y1108800D02*
X1087828D01*
X1084883Y1108900D02*
X1088118D01*
X1084707Y1109000D02*
X1088294D01*
X1084531Y1109100D02*
X1088470D01*
X1084355Y1109200D02*
X1088645D01*
X1084219Y1109300D02*
X1088781D01*
X1084319Y1109400D02*
X1088681D01*
X1084419Y1109500D02*
X1086024D01*
X1086978D02*
X1088581D01*
X1084519Y1109600D02*
X1085591D01*
X1087407D02*
X1088481D01*
X1084619Y1109700D02*
X1085328D01*
X1087673D02*
X1088381D01*
X1084719Y1109800D02*
X1085124D01*
X1087876D02*
X1088281D01*
X1084819Y1109900D02*
X1084920D01*
X1088080D02*
X1088181D01*
X1084300Y1109231D02*
Y1109381D01*
X1084400Y1109174D02*
Y1109481D01*
X1084500Y1109118D02*
Y1109581D01*
X1084600Y1109061D02*
Y1109681D01*
X1084700Y1109004D02*
Y1109781D01*
X1084800Y1108947D02*
Y1109881D01*
X1084900Y1108891D02*
Y1109910D01*
X1085000Y1108855D02*
Y1109861D01*
X1085100Y1108823D02*
Y1109812D01*
X1085200Y1108791D02*
Y1109763D01*
X1085300Y1108759D02*
Y1109714D01*
X1085400Y1108727D02*
Y1109665D01*
X1085500Y1108695D02*
Y1109621D01*
X1085600Y1108663D02*
Y1109598D01*
X1085700Y1108633D02*
Y1109575D01*
X1085800Y1108622D02*
Y1109552D01*
X1085900Y1108612D02*
Y1109529D01*
X1086000Y1108602D02*
Y1109505D01*
X1086100Y1108592D02*
Y1109482D01*
X1086200Y1108581D02*
Y1109470D01*
X1086300Y1108571D02*
Y1109470D01*
X1086400Y1108561D02*
Y1109470D01*
X1086500Y1108550D02*
Y1109470D01*
X1086600Y1108560D02*
Y1109470D01*
X1086700Y1108571D02*
Y1109470D01*
X1086800Y1108581D02*
Y1109470D01*
X1086900Y1108592D02*
Y1109482D01*
X1087000Y1108602D02*
Y1109505D01*
X1087100Y1108612D02*
Y1109528D01*
X1087200Y1108623D02*
Y1109552D01*
X1087300Y1108633D02*
Y1109575D01*
X1087400Y1108662D02*
Y1109598D01*
X1087500Y1108695D02*
Y1109622D01*
X1087600Y1108727D02*
Y1109664D01*
X1087700Y1108759D02*
Y1109713D01*
X1087800Y1108791D02*
Y1109763D01*
X1087900Y1108823D02*
Y1109812D01*
X1088000Y1108855D02*
Y1109861D01*
X1088100Y1108890D02*
Y1109910D01*
X1088200Y1108947D02*
Y1109881D01*
X1088300Y1109004D02*
Y1109781D01*
X1088400Y1109060D02*
Y1109681D01*
X1088500Y1109117D02*
Y1109581D01*
X1088600Y1109174D02*
Y1109481D01*
X1088700Y1109231D02*
Y1109381D01*
X1089619Y1110300D02*
X1089769D01*
X1089519Y1110400D02*
X1089826D01*
X1089419Y1110500D02*
X1089882D01*
X1089319Y1110600D02*
X1089939D01*
X1089219Y1110700D02*
X1089996D01*
X1089119Y1110800D02*
X1090053D01*
X1089090Y1110900D02*
X1090110D01*
X1089139Y1111000D02*
X1090145D01*
X1089188Y1111100D02*
X1090177D01*
X1089237Y1111200D02*
X1090209D01*
X1089286Y1111300D02*
X1090241D01*
X1089335Y1111400D02*
X1090273D01*
X1089379Y1111500D02*
X1090305D01*
X1089402Y1111600D02*
X1090337D01*
X1089425Y1111700D02*
X1090367D01*
X1089448Y1111800D02*
X1090377D01*
X1089472Y1111900D02*
X1090388D01*
X1089495Y1112000D02*
X1090398D01*
X1089518Y1112100D02*
X1090409D01*
X1089530Y1112200D02*
X1090419D01*
X1089530Y1112300D02*
X1090429D01*
X1089530Y1112400D02*
X1090440D01*
X1089530Y1112500D02*
X1090450D01*
X1089530Y1112600D02*
X1090440D01*
X1089530Y1112700D02*
X1090429D01*
X1089530Y1112800D02*
X1090419D01*
X1089518Y1112900D02*
X1090409D01*
X1089495Y1113000D02*
X1090398D01*
X1089472Y1113100D02*
X1090388D01*
X1089448Y1113200D02*
X1090377D01*
X1089425Y1113300D02*
X1090367D01*
X1089402Y1113400D02*
X1090337D01*
X1089379Y1113500D02*
X1090305D01*
X1089335Y1113600D02*
X1090273D01*
X1089286Y1113700D02*
X1090241D01*
X1089237Y1113800D02*
X1090209D01*
X1089188Y1113900D02*
X1090177D01*
X1089139Y1114000D02*
X1090145D01*
X1089090Y1114100D02*
X1090110D01*
X1089119Y1114200D02*
X1090053D01*
X1089219Y1114300D02*
X1089996D01*
X1089319Y1114400D02*
X1089939D01*
X1089419Y1114500D02*
X1089882D01*
X1089519Y1114600D02*
X1089826D01*
X1089619Y1114700D02*
X1089769D01*
X1089100Y1110819D02*
Y1110920D01*
Y1114080D02*
Y1114181D01*
X1089200Y1110719D02*
Y1111124D01*
Y1113876D02*
Y1114281D01*
X1089300Y1110619D02*
Y1111328D01*
Y1113672D02*
Y1114381D01*
X1089400Y1110519D02*
Y1111591D01*
Y1113409D02*
Y1114481D01*
X1089500Y1110419D02*
Y1112023D01*
Y1112977D02*
Y1114581D01*
X1089600Y1110319D02*
Y1114681D01*
X1089700Y1110219D02*
Y1114781D01*
X1089800Y1110355D02*
Y1114645D01*
X1089900Y1110531D02*
Y1114469D01*
X1090000Y1110707D02*
Y1114293D01*
X1090100Y1110883D02*
Y1114117D01*
X1090200Y1111171D02*
Y1113829D01*
X1090300Y1111484D02*
Y1113516D01*
X1090400Y1112018D02*
Y1112982D01*
X1088148Y1115067D02*
X1088795Y1115715D01*
X1088799Y1115712D02*
G03X1084206Y1115716I-2299J-3212D01*
G01X1084205Y1115715D02*
X1084852Y1115067D01*
X1084857Y1115069D02*
G02X1088148Y1115067I1643J-2569D01*
G01X1083933Y1114148D02*
X1083285Y1114795D01*
X1083288Y1114799D02*
G03Y1110201I3212J-2299D01*
G01X1083285Y1110205D02*
X1083933Y1110852D01*
G02Y1114148I2567J1648*
G01X1084852Y1109933D02*
X1084205Y1109285D01*
X1084206Y1109284D02*
G03X1088799Y1109288I2294J3216D01*
G01X1088795Y1109285D02*
X1088148Y1109933D01*
G02X1084857Y1109931I-1648J2567*
G01X1089067Y1110852D02*
X1089715Y1110205D01*
X1089716Y1110206D02*
G03Y1114794I-3216J2294D01*
G01X1089715Y1114795D02*
X1089067Y1114148D01*
X1089069Y1114143D02*
G02Y1110857I-2569J-1643D01*
G01X1057819Y1115100D02*
X1057920D01*
X1061080D02*
X1061181D01*
X1057719Y1115200D02*
X1058124D01*
X1060876D02*
X1061281D01*
X1057619Y1115300D02*
X1058328D01*
X1060673D02*
X1061381D01*
X1057519Y1115400D02*
X1058591D01*
X1060407D02*
X1061481D01*
X1057419Y1115500D02*
X1059024D01*
X1059978D02*
X1061581D01*
X1057319Y1115600D02*
X1061681D01*
X1057219Y1115700D02*
X1061781D01*
X1057355Y1115800D02*
X1061645D01*
X1057531Y1115900D02*
X1061470D01*
X1057707Y1116000D02*
X1061294D01*
X1057883Y1116100D02*
X1061118D01*
X1058171Y1116200D02*
X1060828D01*
X1058484Y1116300D02*
X1060517D01*
X1059018Y1116400D02*
X1059981D01*
X1057300Y1115619D02*
Y1115769D01*
X1057400Y1115519D02*
Y1115826D01*
X1057500Y1115419D02*
Y1115882D01*
X1057600Y1115319D02*
Y1115939D01*
X1057700Y1115219D02*
Y1115996D01*
X1057800Y1115119D02*
Y1116053D01*
X1057900Y1115090D02*
Y1116109D01*
X1058000Y1115139D02*
Y1116145D01*
X1058100Y1115188D02*
Y1116177D01*
X1058200Y1115237D02*
Y1116209D01*
X1058300Y1115286D02*
Y1116241D01*
X1058400Y1115335D02*
Y1116273D01*
X1058500Y1115379D02*
Y1116305D01*
X1058600Y1115402D02*
Y1116337D01*
X1058700Y1115425D02*
Y1116367D01*
X1058800Y1115448D02*
Y1116378D01*
X1058900Y1115471D02*
Y1116388D01*
X1059000Y1115495D02*
Y1116398D01*
X1059100Y1115518D02*
Y1116408D01*
X1059200Y1115530D02*
Y1116419D01*
X1059300Y1115530D02*
Y1116429D01*
X1059400Y1115530D02*
Y1116439D01*
X1059500Y1115530D02*
Y1116450D01*
X1059600Y1115530D02*
Y1116440D01*
X1059700Y1115530D02*
Y1116429D01*
X1059800Y1115530D02*
Y1116419D01*
X1059900Y1115518D02*
Y1116408D01*
X1060000Y1115495D02*
Y1116398D01*
X1060100Y1115472D02*
Y1116388D01*
X1060200Y1115448D02*
Y1116377D01*
X1060300Y1115425D02*
Y1116367D01*
X1060400Y1115402D02*
Y1116338D01*
X1060500Y1115378D02*
Y1116305D01*
X1060600Y1115336D02*
Y1116273D01*
X1060700Y1115287D02*
Y1116241D01*
X1060800Y1115237D02*
Y1116209D01*
X1060900Y1115188D02*
Y1116177D01*
X1061000Y1115139D02*
Y1116145D01*
X1061100Y1115090D02*
Y1116110D01*
X1061200Y1115119D02*
Y1116053D01*
X1061300Y1115219D02*
Y1115996D01*
X1061400Y1115319D02*
Y1115940D01*
X1061500Y1115419D02*
Y1115883D01*
X1061600Y1115519D02*
Y1115826D01*
X1061700Y1115619D02*
Y1115769D01*
X1056231Y1110300D02*
X1056381D01*
X1056174Y1110400D02*
X1056481D01*
X1056117Y1110500D02*
X1056581D01*
X1056061Y1110600D02*
X1056681D01*
X1056004Y1110700D02*
X1056781D01*
X1055947Y1110800D02*
X1056881D01*
X1055890Y1110900D02*
X1056910D01*
X1055855Y1111000D02*
X1056861D01*
X1055823Y1111100D02*
X1056812D01*
X1055791Y1111200D02*
X1056763D01*
X1055759Y1111300D02*
X1056713D01*
X1055727Y1111400D02*
X1056664D01*
X1055695Y1111500D02*
X1056621D01*
X1055663Y1111600D02*
X1056598D01*
X1055633Y1111700D02*
X1056575D01*
X1055623Y1111800D02*
X1056552D01*
X1055612Y1111900D02*
X1056529D01*
X1055602Y1112000D02*
X1056505D01*
X1055592Y1112100D02*
X1056482D01*
X1055581Y1112200D02*
X1056470D01*
X1055571Y1112300D02*
X1056470D01*
X1055560Y1112400D02*
X1056470D01*
X1055550Y1112500D02*
X1056470D01*
X1055560Y1112600D02*
X1056470D01*
X1055571Y1112700D02*
X1056470D01*
X1055581Y1112800D02*
X1056470D01*
X1055592Y1112900D02*
X1056482D01*
X1055602Y1113000D02*
X1056505D01*
X1055612Y1113100D02*
X1056529D01*
X1055623Y1113200D02*
X1056552D01*
X1055633Y1113300D02*
X1056575D01*
X1055663Y1113400D02*
X1056598D01*
X1055695Y1113500D02*
X1056621D01*
X1055727Y1113600D02*
X1056664D01*
X1055759Y1113700D02*
X1056713D01*
X1055791Y1113800D02*
X1056763D01*
X1055823Y1113900D02*
X1056812D01*
X1055855Y1114000D02*
X1056861D01*
X1055890Y1114100D02*
X1056910D01*
X1055947Y1114200D02*
X1056881D01*
X1056004Y1114300D02*
X1056781D01*
X1056061Y1114400D02*
X1056681D01*
X1056117Y1114500D02*
X1056581D01*
X1056174Y1114600D02*
X1056481D01*
X1056231Y1114700D02*
X1056381D01*
X1055600Y1112019D02*
Y1112981D01*
X1055700Y1111483D02*
Y1113517D01*
X1055800Y1111172D02*
Y1113828D01*
X1055900Y1110882D02*
Y1114118D01*
X1056000Y1110706D02*
Y1114294D01*
X1056100Y1110531D02*
Y1114469D01*
X1056200Y1110355D02*
Y1114645D01*
X1056300Y1110219D02*
Y1114781D01*
X1056400Y1110319D02*
Y1114681D01*
X1056500Y1110419D02*
Y1112023D01*
Y1112977D02*
Y1114581D01*
X1056600Y1110519D02*
Y1111592D01*
Y1113408D02*
Y1114481D01*
X1056700Y1110619D02*
Y1111327D01*
Y1113673D02*
Y1114381D01*
X1056800Y1110719D02*
Y1111124D01*
Y1113876D02*
Y1114281D01*
X1056900Y1110819D02*
Y1110920D01*
Y1114080D02*
Y1114181D01*
X1059018Y1108600D02*
X1059981D01*
X1058484Y1108700D02*
X1060517D01*
X1058171Y1108800D02*
X1060828D01*
X1057883Y1108900D02*
X1061118D01*
X1057707Y1109000D02*
X1061294D01*
X1057531Y1109100D02*
X1061470D01*
X1057355Y1109200D02*
X1061645D01*
X1057219Y1109300D02*
X1061781D01*
X1057319Y1109400D02*
X1061681D01*
X1057419Y1109500D02*
X1059024D01*
X1059978D02*
X1061581D01*
X1057519Y1109600D02*
X1058591D01*
X1060407D02*
X1061481D01*
X1057619Y1109700D02*
X1058328D01*
X1060673D02*
X1061381D01*
X1057719Y1109800D02*
X1058124D01*
X1060876D02*
X1061281D01*
X1057819Y1109900D02*
X1057920D01*
X1061080D02*
X1061181D01*
X1057300Y1109231D02*
Y1109381D01*
X1057400Y1109174D02*
Y1109481D01*
X1057500Y1109118D02*
Y1109581D01*
X1057600Y1109061D02*
Y1109681D01*
X1057700Y1109004D02*
Y1109781D01*
X1057800Y1108947D02*
Y1109881D01*
X1057900Y1108891D02*
Y1109910D01*
X1058000Y1108855D02*
Y1109861D01*
X1058100Y1108823D02*
Y1109812D01*
X1058200Y1108791D02*
Y1109763D01*
X1058300Y1108759D02*
Y1109714D01*
X1058400Y1108727D02*
Y1109665D01*
X1058500Y1108695D02*
Y1109621D01*
X1058600Y1108663D02*
Y1109598D01*
X1058700Y1108633D02*
Y1109575D01*
X1058800Y1108622D02*
Y1109552D01*
X1058900Y1108612D02*
Y1109529D01*
X1059000Y1108602D02*
Y1109505D01*
X1059100Y1108592D02*
Y1109482D01*
X1059200Y1108581D02*
Y1109470D01*
X1059300Y1108571D02*
Y1109470D01*
X1059400Y1108561D02*
Y1109470D01*
X1059500Y1108550D02*
Y1109470D01*
X1059600Y1108560D02*
Y1109470D01*
X1059700Y1108571D02*
Y1109470D01*
X1059800Y1108581D02*
Y1109470D01*
X1059900Y1108592D02*
Y1109482D01*
X1060000Y1108602D02*
Y1109505D01*
X1060100Y1108612D02*
Y1109528D01*
X1060200Y1108623D02*
Y1109552D01*
X1060300Y1108633D02*
Y1109575D01*
X1060400Y1108662D02*
Y1109598D01*
X1060500Y1108695D02*
Y1109622D01*
X1060600Y1108727D02*
Y1109664D01*
X1060700Y1108759D02*
Y1109713D01*
X1060800Y1108791D02*
Y1109763D01*
X1060900Y1108823D02*
Y1109812D01*
X1061000Y1108855D02*
Y1109861D01*
X1061100Y1108890D02*
Y1109910D01*
X1061200Y1108947D02*
Y1109881D01*
X1061300Y1109004D02*
Y1109781D01*
X1061400Y1109060D02*
Y1109681D01*
X1061500Y1109117D02*
Y1109581D01*
X1061600Y1109174D02*
Y1109481D01*
X1061700Y1109231D02*
Y1109381D01*
X1062619Y1110300D02*
X1062769D01*
X1062519Y1110400D02*
X1062826D01*
X1062419Y1110500D02*
X1062882D01*
X1062319Y1110600D02*
X1062939D01*
X1062219Y1110700D02*
X1062996D01*
X1062119Y1110800D02*
X1063053D01*
X1062090Y1110900D02*
X1063110D01*
X1062139Y1111000D02*
X1063145D01*
X1062188Y1111100D02*
X1063177D01*
X1062237Y1111200D02*
X1063209D01*
X1062286Y1111300D02*
X1063241D01*
X1062335Y1111400D02*
X1063273D01*
X1062379Y1111500D02*
X1063305D01*
X1062402Y1111600D02*
X1063337D01*
X1062425Y1111700D02*
X1063367D01*
X1062448Y1111800D02*
X1063377D01*
X1062472Y1111900D02*
X1063388D01*
X1062495Y1112000D02*
X1063398D01*
X1062518Y1112100D02*
X1063409D01*
X1062530Y1112200D02*
X1063419D01*
X1062530Y1112300D02*
X1063429D01*
X1062530Y1112400D02*
X1063440D01*
X1062530Y1112500D02*
X1063450D01*
X1062530Y1112600D02*
X1063440D01*
X1062530Y1112700D02*
X1063429D01*
X1062530Y1112800D02*
X1063419D01*
X1062518Y1112900D02*
X1063409D01*
X1062495Y1113000D02*
X1063398D01*
X1062472Y1113100D02*
X1063388D01*
X1062448Y1113200D02*
X1063377D01*
X1062425Y1113300D02*
X1063367D01*
X1062402Y1113400D02*
X1063337D01*
X1062379Y1113500D02*
X1063305D01*
X1062335Y1113600D02*
X1063273D01*
X1062286Y1113700D02*
X1063241D01*
X1062237Y1113800D02*
X1063209D01*
X1062188Y1113900D02*
X1063177D01*
X1062139Y1114000D02*
X1063145D01*
X1062090Y1114100D02*
X1063110D01*
X1062119Y1114200D02*
X1063053D01*
X1062219Y1114300D02*
X1062996D01*
X1062319Y1114400D02*
X1062939D01*
X1062419Y1114500D02*
X1062882D01*
X1062519Y1114600D02*
X1062826D01*
X1062619Y1114700D02*
X1062769D01*
X1062100Y1110819D02*
Y1110920D01*
Y1114080D02*
Y1114181D01*
X1062200Y1110719D02*
Y1111124D01*
Y1113876D02*
Y1114281D01*
X1062300Y1110619D02*
Y1111328D01*
Y1113672D02*
Y1114381D01*
X1062400Y1110519D02*
Y1111591D01*
Y1113409D02*
Y1114481D01*
X1062500Y1110419D02*
Y1112023D01*
Y1112977D02*
Y1114581D01*
X1062600Y1110319D02*
Y1114681D01*
X1062700Y1110219D02*
Y1114781D01*
X1062800Y1110355D02*
Y1114645D01*
X1062900Y1110531D02*
Y1114469D01*
X1063000Y1110707D02*
Y1114293D01*
X1063100Y1110883D02*
Y1114117D01*
X1063200Y1111171D02*
Y1113829D01*
X1063300Y1111484D02*
Y1113516D01*
X1063400Y1112018D02*
Y1112982D01*
X1061148Y1115067D02*
X1061795Y1115715D01*
X1061799Y1115712D02*
G03X1057206Y1115716I-2299J-3212D01*
G01X1057205Y1115715D02*
X1057852Y1115067D01*
X1057857Y1115069D02*
G02X1061148Y1115067I1643J-2569D01*
G01X1056933Y1114148D02*
X1056285Y1114795D01*
X1056288Y1114799D02*
G03Y1110201I3212J-2299D01*
G01X1056285Y1110205D02*
X1056933Y1110852D01*
G02Y1114148I2567J1648*
G01X1057852Y1109933D02*
X1057205Y1109285D01*
X1057206Y1109284D02*
G03X1061799Y1109288I2294J3216D01*
G01X1061795Y1109285D02*
X1061148Y1109933D01*
G02X1057857Y1109931I-1648J2567*
G01X1062067Y1110852D02*
X1062715Y1110205D01*
X1062716Y1110206D02*
G03Y1114794I-3216J2294D01*
G01X1062715Y1114795D02*
X1062067Y1114148D01*
X1062069Y1114143D02*
G02Y1110857I-2569J-1643D01*
G01X1129919Y1109000D02*
X1130220D01*
X1130781D02*
X1131081D01*
X1129819Y1109100D02*
X1131181D01*
X1129719Y1109200D02*
X1131281D01*
X1129619Y1109300D02*
X1131381D01*
X1129519Y1109400D02*
X1131481D01*
X1129419Y1109500D02*
X1131581D01*
X1129319Y1109600D02*
X1131681D01*
X1129461Y1109700D02*
X1131539D01*
X1129706Y1109800D02*
X1131295D01*
X1130115Y1109900D02*
X1130884D01*
X1129300Y1109619D02*
Y1109634D01*
X1129400Y1109519D02*
Y1109675D01*
X1129500Y1109419D02*
Y1109716D01*
X1129600Y1109319D02*
Y1109757D01*
X1129700Y1109219D02*
Y1109798D01*
X1129800Y1109119D02*
Y1109838D01*
X1129900Y1109019D02*
Y1109872D01*
X1130000Y1108961D02*
Y1109885D01*
X1130100Y1108979D02*
Y1109898D01*
X1130200Y1108996D02*
Y1109911D01*
X1130300Y1109014D02*
Y1109924D01*
X1130400Y1109032D02*
Y1109937D01*
X1130500Y1109050D02*
Y1109950D01*
X1130600Y1109032D02*
Y1109937D01*
X1130700Y1109015D02*
Y1109924D01*
X1130800Y1108997D02*
Y1109911D01*
X1130900Y1108979D02*
Y1109898D01*
X1131000Y1108961D02*
Y1109885D01*
X1131100Y1109019D02*
Y1109872D01*
X1131200Y1109119D02*
Y1109839D01*
X1131300Y1109219D02*
Y1109798D01*
X1131400Y1109319D02*
Y1109757D01*
X1131500Y1109419D02*
Y1109716D01*
X1131600Y1109519D02*
Y1109675D01*
X1131700Y1109619D02*
Y1109634D01*
X1128366Y1106300D02*
X1128381D01*
X1128325Y1106400D02*
X1128481D01*
X1128284Y1106500D02*
X1128581D01*
X1128243Y1106600D02*
X1128681D01*
X1128202Y1106700D02*
X1128781D01*
X1128161Y1106800D02*
X1128881D01*
X1128128Y1106900D02*
X1128981D01*
X1128115Y1107000D02*
X1129039D01*
X1128102Y1107100D02*
X1129021D01*
X1128089Y1107200D02*
X1129003D01*
X1128076Y1107300D02*
X1128986D01*
X1128063Y1107400D02*
X1128968D01*
X1128050Y1107500D02*
X1128950D01*
X1128063Y1107600D02*
X1128968D01*
X1128076Y1107700D02*
X1128986D01*
X1128089Y1107800D02*
X1129003D01*
X1128102Y1107900D02*
X1129021D01*
X1128115Y1108000D02*
X1129039D01*
X1128128Y1108100D02*
X1128981D01*
X1128161Y1108200D02*
X1128881D01*
X1128202Y1108300D02*
X1128781D01*
X1128243Y1108400D02*
X1128681D01*
X1128284Y1108500D02*
X1128581D01*
X1128325Y1108600D02*
X1128481D01*
X1128366Y1108700D02*
X1128381D01*
X1128100Y1107116D02*
Y1107884D01*
X1128200Y1106705D02*
Y1108295D01*
X1128300Y1106461D02*
Y1108539D01*
X1128400Y1106319D02*
Y1108681D01*
X1128500Y1106419D02*
Y1108581D01*
X1128600Y1106519D02*
Y1108481D01*
X1128700Y1106619D02*
Y1108381D01*
X1128800Y1106719D02*
Y1108281D01*
X1128900Y1106819D02*
Y1108181D01*
X1129000Y1106919D02*
Y1107219D01*
Y1107781D02*
Y1108081D01*
X1130115Y1105100D02*
X1130884D01*
X1129706Y1105200D02*
X1131295D01*
X1129461Y1105300D02*
X1131539D01*
X1129319Y1105400D02*
X1131681D01*
X1129419Y1105500D02*
X1131581D01*
X1129519Y1105600D02*
X1131481D01*
X1129619Y1105700D02*
X1131381D01*
X1129719Y1105800D02*
X1131281D01*
X1129819Y1105900D02*
X1131181D01*
X1129919Y1106000D02*
X1130220D01*
X1130781D02*
X1131081D01*
X1129300Y1105366D02*
Y1105381D01*
X1129400Y1105325D02*
Y1105481D01*
X1129500Y1105284D02*
Y1105581D01*
X1129600Y1105243D02*
Y1105681D01*
X1129700Y1105202D02*
Y1105781D01*
X1129800Y1105162D02*
Y1105881D01*
X1129900Y1105128D02*
Y1105981D01*
X1130000Y1105115D02*
Y1106039D01*
X1130100Y1105102D02*
Y1106021D01*
X1130200Y1105089D02*
Y1106004D01*
X1130300Y1105076D02*
Y1105986D01*
X1130400Y1105063D02*
Y1105968D01*
X1130500Y1105050D02*
Y1105950D01*
X1130600Y1105063D02*
Y1105968D01*
X1130700Y1105076D02*
Y1105985D01*
X1130800Y1105089D02*
Y1106003D01*
X1130900Y1105102D02*
Y1106021D01*
X1131000Y1105115D02*
Y1106039D01*
X1131100Y1105128D02*
Y1105981D01*
X1131200Y1105161D02*
Y1105881D01*
X1131300Y1105202D02*
Y1105781D01*
X1131400Y1105243D02*
Y1105681D01*
X1131500Y1105284D02*
Y1105581D01*
X1131600Y1105325D02*
Y1105481D01*
X1131700Y1105366D02*
Y1105381D01*
X1132619Y1106300D02*
X1132634D01*
X1132519Y1106400D02*
X1132675D01*
X1132419Y1106500D02*
X1132716D01*
X1132319Y1106600D02*
X1132757D01*
X1132219Y1106700D02*
X1132798D01*
X1132119Y1106800D02*
X1132838D01*
X1132019Y1106900D02*
X1132872D01*
X1131961Y1107000D02*
X1132885D01*
X1131979Y1107100D02*
X1132898D01*
X1131997Y1107200D02*
X1132911D01*
X1132014Y1107300D02*
X1132924D01*
X1132032Y1107400D02*
X1132937D01*
X1132050Y1107500D02*
X1132950D01*
X1132032Y1107600D02*
X1132937D01*
X1132014Y1107700D02*
X1132924D01*
X1131997Y1107800D02*
X1132911D01*
X1131979Y1107900D02*
X1132898D01*
X1131961Y1108000D02*
X1132885D01*
X1132019Y1108100D02*
X1132872D01*
X1132119Y1108200D02*
X1132838D01*
X1132219Y1108300D02*
X1132798D01*
X1132319Y1108400D02*
X1132757D01*
X1132419Y1108500D02*
X1132716D01*
X1132519Y1108600D02*
X1132675D01*
X1132619Y1108700D02*
X1132634D01*
X1132000Y1106919D02*
Y1107219D01*
Y1107781D02*
Y1108081D01*
X1132100Y1106819D02*
Y1108181D01*
X1132200Y1106719D02*
Y1108281D01*
X1132300Y1106619D02*
Y1108381D01*
X1132400Y1106519D02*
Y1108481D01*
X1132500Y1106419D02*
Y1108581D01*
X1132600Y1106319D02*
Y1108681D01*
X1132700Y1106461D02*
Y1108539D01*
X1132800Y1106706D02*
Y1108294D01*
X1132900Y1107115D02*
Y1107885D01*
X1131035Y1108955D02*
X1131711Y1109630D01*
X1131714Y1109628D02*
G03X1129290Y1109630I-1214J-2128D01*
G01X1129289D02*
X1129965Y1108955D01*
G02X1131038Y1108954I535J-1455*
G01X1129045Y1108035D02*
X1128370Y1108711D01*
X1128372Y1108714D02*
G03Y1106286I2128J-1214D01*
G01X1128370Y1106289D02*
X1129045Y1106965D01*
X1129046Y1106962D02*
G02Y1108038I1454J538D01*
G01X1129965Y1106045D02*
X1129289Y1105370D01*
X1129290D02*
G03X1131714Y1105372I1210J2130D01*
G01X1131711Y1105370D02*
X1131035Y1106045D01*
X1131038Y1106046D02*
G02X1129965Y1106045I-538J1454D01*
G01X1131955Y1106965D02*
X1132630Y1106289D01*
Y1106290D02*
G03Y1108710I-2130J1210D01*
G01Y1108711D02*
X1131955Y1108035D01*
G02Y1106965I-1455J-535*
G01X1309319Y1038100D02*
X1309420D01*
X1312580D02*
X1312681D01*
X1309219Y1038200D02*
X1309624D01*
X1312376D02*
X1312781D01*
X1309119Y1038300D02*
X1309828D01*
X1312173D02*
X1312881D01*
X1309019Y1038400D02*
X1310091D01*
X1311907D02*
X1312981D01*
X1308919Y1038500D02*
X1310524D01*
X1311478D02*
X1313081D01*
X1308819Y1038600D02*
X1313181D01*
X1308719Y1038700D02*
X1313281D01*
X1308855Y1038800D02*
X1313145D01*
X1309031Y1038900D02*
X1312970D01*
X1309207Y1039000D02*
X1312794D01*
X1309383Y1039100D02*
X1312618D01*
X1309671Y1039200D02*
X1312328D01*
X1309984Y1039300D02*
X1312017D01*
X1310518Y1039400D02*
X1311481D01*
X1308800Y1038619D02*
Y1038769D01*
X1308900Y1038519D02*
Y1038826D01*
X1309000Y1038419D02*
Y1038882D01*
X1309100Y1038319D02*
Y1038939D01*
X1309200Y1038219D02*
Y1038996D01*
X1309300Y1038119D02*
Y1039053D01*
X1309400Y1038090D02*
Y1039109D01*
X1309500Y1038139D02*
Y1039145D01*
X1309600Y1038188D02*
Y1039177D01*
X1309700Y1038237D02*
Y1039209D01*
X1309800Y1038286D02*
Y1039241D01*
X1309900Y1038335D02*
Y1039273D01*
X1310000Y1038379D02*
Y1039305D01*
X1310100Y1038402D02*
Y1039337D01*
X1310200Y1038425D02*
Y1039367D01*
X1310300Y1038448D02*
Y1039378D01*
X1310400Y1038471D02*
Y1039388D01*
X1310500Y1038495D02*
Y1039398D01*
X1310600Y1038518D02*
Y1039408D01*
X1310700Y1038530D02*
Y1039419D01*
X1310800Y1038530D02*
Y1039429D01*
X1310900Y1038530D02*
Y1039439D01*
X1311000Y1038530D02*
Y1039450D01*
X1311100Y1038530D02*
Y1039440D01*
X1311200Y1038530D02*
Y1039429D01*
X1311300Y1038530D02*
Y1039419D01*
X1311400Y1038518D02*
Y1039408D01*
X1311500Y1038495D02*
Y1039398D01*
X1311600Y1038472D02*
Y1039388D01*
X1311700Y1038448D02*
Y1039377D01*
X1311800Y1038425D02*
Y1039367D01*
X1311900Y1038402D02*
Y1039338D01*
X1312000Y1038378D02*
Y1039305D01*
X1312100Y1038336D02*
Y1039273D01*
X1312200Y1038287D02*
Y1039241D01*
X1312300Y1038237D02*
Y1039209D01*
X1312400Y1038188D02*
Y1039177D01*
X1312500Y1038139D02*
Y1039145D01*
X1312600Y1038090D02*
Y1039110D01*
X1312700Y1038119D02*
Y1039053D01*
X1312800Y1038219D02*
Y1038996D01*
X1312900Y1038319D02*
Y1038940D01*
X1313000Y1038419D02*
Y1038883D01*
X1313100Y1038519D02*
Y1038826D01*
X1313200Y1038619D02*
Y1038769D01*
X1307731Y1033300D02*
X1307881D01*
X1307674Y1033400D02*
X1307981D01*
X1307617Y1033500D02*
X1308081D01*
X1307561Y1033600D02*
X1308181D01*
X1307504Y1033700D02*
X1308281D01*
X1307447Y1033800D02*
X1308381D01*
X1307390Y1033900D02*
X1308410D01*
X1307355Y1034000D02*
X1308361D01*
X1307323Y1034100D02*
X1308312D01*
X1307291Y1034200D02*
X1308263D01*
X1307259Y1034300D02*
X1308213D01*
X1307227Y1034400D02*
X1308164D01*
X1307195Y1034500D02*
X1308121D01*
X1307163Y1034600D02*
X1308098D01*
X1307133Y1034700D02*
X1308075D01*
X1307123Y1034800D02*
X1308052D01*
X1307112Y1034900D02*
X1308029D01*
X1307102Y1035000D02*
X1308005D01*
X1307092Y1035100D02*
X1307982D01*
X1307081Y1035200D02*
X1307970D01*
X1307071Y1035300D02*
X1307970D01*
X1307060Y1035400D02*
X1307970D01*
X1307050Y1035500D02*
X1307970D01*
X1307060Y1035600D02*
X1307970D01*
X1307071Y1035700D02*
X1307970D01*
X1307081Y1035800D02*
X1307970D01*
X1307092Y1035900D02*
X1307982D01*
X1307102Y1036000D02*
X1308005D01*
X1307112Y1036100D02*
X1308029D01*
X1307123Y1036200D02*
X1308052D01*
X1307133Y1036300D02*
X1308075D01*
X1307163Y1036400D02*
X1308098D01*
X1307195Y1036500D02*
X1308121D01*
X1307227Y1036600D02*
X1308164D01*
X1307259Y1036700D02*
X1308213D01*
X1307291Y1036800D02*
X1308263D01*
X1307323Y1036900D02*
X1308312D01*
X1307355Y1037000D02*
X1308361D01*
X1307390Y1037100D02*
X1308410D01*
X1307447Y1037200D02*
X1308381D01*
X1307504Y1037300D02*
X1308281D01*
X1307561Y1037400D02*
X1308181D01*
X1307617Y1037500D02*
X1308081D01*
X1307674Y1037600D02*
X1307981D01*
X1307731Y1037700D02*
X1307881D01*
X1307100Y1035019D02*
Y1035981D01*
X1307200Y1034483D02*
Y1036517D01*
X1307300Y1034172D02*
Y1036828D01*
X1307400Y1033882D02*
Y1037118D01*
X1307500Y1033706D02*
Y1037294D01*
X1307600Y1033531D02*
Y1037469D01*
X1307700Y1033355D02*
Y1037645D01*
X1307800Y1033219D02*
Y1037781D01*
X1307900Y1033319D02*
Y1037681D01*
X1308000Y1033419D02*
Y1035023D01*
Y1035977D02*
Y1037581D01*
X1308100Y1033519D02*
Y1034592D01*
Y1036408D02*
Y1037481D01*
X1308200Y1033619D02*
Y1034327D01*
Y1036673D02*
Y1037381D01*
X1308300Y1033719D02*
Y1034124D01*
Y1036876D02*
Y1037281D01*
X1308400Y1033819D02*
Y1033920D01*
Y1037080D02*
Y1037181D01*
X1310518Y1031600D02*
X1311481D01*
X1309984Y1031700D02*
X1312017D01*
X1309671Y1031800D02*
X1312328D01*
X1309383Y1031900D02*
X1312618D01*
X1309207Y1032000D02*
X1312794D01*
X1309031Y1032100D02*
X1312970D01*
X1308855Y1032200D02*
X1313145D01*
X1308719Y1032300D02*
X1313281D01*
X1308819Y1032400D02*
X1313181D01*
X1308919Y1032500D02*
X1310524D01*
X1311478D02*
X1313081D01*
X1309019Y1032600D02*
X1310091D01*
X1311907D02*
X1312981D01*
X1309119Y1032700D02*
X1309828D01*
X1312173D02*
X1312881D01*
X1309219Y1032800D02*
X1309624D01*
X1312376D02*
X1312781D01*
X1309319Y1032900D02*
X1309420D01*
X1312580D02*
X1312681D01*
X1308800Y1032231D02*
Y1032381D01*
X1308900Y1032174D02*
Y1032481D01*
X1309000Y1032118D02*
Y1032581D01*
X1309100Y1032061D02*
Y1032681D01*
X1309200Y1032004D02*
Y1032781D01*
X1309300Y1031947D02*
Y1032881D01*
X1309400Y1031891D02*
Y1032910D01*
X1309500Y1031855D02*
Y1032861D01*
X1309600Y1031823D02*
Y1032812D01*
X1309700Y1031791D02*
Y1032763D01*
X1309800Y1031759D02*
Y1032714D01*
X1309900Y1031727D02*
Y1032665D01*
X1310000Y1031695D02*
Y1032621D01*
X1310100Y1031663D02*
Y1032598D01*
X1310200Y1031633D02*
Y1032575D01*
X1310300Y1031622D02*
Y1032552D01*
X1310400Y1031612D02*
Y1032529D01*
X1310500Y1031602D02*
Y1032505D01*
X1310600Y1031592D02*
Y1032482D01*
X1310700Y1031581D02*
Y1032470D01*
X1310800Y1031571D02*
Y1032470D01*
X1310900Y1031561D02*
Y1032470D01*
X1311000Y1031550D02*
Y1032470D01*
X1311100Y1031560D02*
Y1032470D01*
X1311200Y1031571D02*
Y1032470D01*
X1311300Y1031581D02*
Y1032470D01*
X1311400Y1031592D02*
Y1032482D01*
X1311500Y1031602D02*
Y1032505D01*
X1311600Y1031612D02*
Y1032528D01*
X1311700Y1031623D02*
Y1032552D01*
X1311800Y1031633D02*
Y1032575D01*
X1311900Y1031662D02*
Y1032598D01*
X1312000Y1031695D02*
Y1032622D01*
X1312100Y1031727D02*
Y1032664D01*
X1312200Y1031759D02*
Y1032713D01*
X1312300Y1031791D02*
Y1032763D01*
X1312400Y1031823D02*
Y1032812D01*
X1312500Y1031855D02*
Y1032861D01*
X1312600Y1031890D02*
Y1032910D01*
X1312700Y1031947D02*
Y1032881D01*
X1312800Y1032004D02*
Y1032781D01*
X1312900Y1032060D02*
Y1032681D01*
X1313000Y1032117D02*
Y1032581D01*
X1313100Y1032174D02*
Y1032481D01*
X1313200Y1032231D02*
Y1032381D01*
X1314119Y1033300D02*
X1314269D01*
X1314019Y1033400D02*
X1314326D01*
X1313919Y1033500D02*
X1314382D01*
X1313819Y1033600D02*
X1314439D01*
X1313719Y1033700D02*
X1314496D01*
X1313619Y1033800D02*
X1314553D01*
X1313590Y1033900D02*
X1314610D01*
X1313639Y1034000D02*
X1314645D01*
X1313688Y1034100D02*
X1314677D01*
X1313737Y1034200D02*
X1314709D01*
X1313786Y1034300D02*
X1314741D01*
X1313835Y1034400D02*
X1314773D01*
X1313879Y1034500D02*
X1314805D01*
X1313902Y1034600D02*
X1314837D01*
X1313925Y1034700D02*
X1314867D01*
X1313948Y1034800D02*
X1314877D01*
X1313972Y1034900D02*
X1314888D01*
X1313995Y1035000D02*
X1314898D01*
X1314018Y1035100D02*
X1314909D01*
X1314030Y1035200D02*
X1314919D01*
X1314030Y1035300D02*
X1314929D01*
X1314030Y1035400D02*
X1314940D01*
X1314030Y1035500D02*
X1314950D01*
X1314030Y1035600D02*
X1314940D01*
X1314030Y1035700D02*
X1314929D01*
X1314030Y1035800D02*
X1314919D01*
X1314018Y1035900D02*
X1314909D01*
X1313995Y1036000D02*
X1314898D01*
X1313972Y1036100D02*
X1314888D01*
X1313948Y1036200D02*
X1314877D01*
X1313925Y1036300D02*
X1314867D01*
X1313902Y1036400D02*
X1314837D01*
X1313879Y1036500D02*
X1314805D01*
X1313835Y1036600D02*
X1314773D01*
X1313786Y1036700D02*
X1314741D01*
X1313737Y1036800D02*
X1314709D01*
X1313688Y1036900D02*
X1314677D01*
X1313639Y1037000D02*
X1314645D01*
X1313590Y1037100D02*
X1314610D01*
X1313619Y1037200D02*
X1314553D01*
X1313719Y1037300D02*
X1314496D01*
X1313819Y1037400D02*
X1314439D01*
X1313919Y1037500D02*
X1314382D01*
X1314019Y1037600D02*
X1314326D01*
X1314119Y1037700D02*
X1314269D01*
X1313600Y1033819D02*
Y1033920D01*
Y1037080D02*
Y1037181D01*
X1313700Y1033719D02*
Y1034124D01*
Y1036876D02*
Y1037281D01*
X1313800Y1033619D02*
Y1034328D01*
Y1036672D02*
Y1037381D01*
X1313900Y1033519D02*
Y1034591D01*
Y1036409D02*
Y1037481D01*
X1314000Y1033419D02*
Y1035023D01*
Y1035977D02*
Y1037581D01*
X1314100Y1033319D02*
Y1037681D01*
X1314200Y1033219D02*
Y1037781D01*
X1314300Y1033355D02*
Y1037645D01*
X1314400Y1033531D02*
Y1037469D01*
X1314500Y1033707D02*
Y1037293D01*
X1314600Y1033883D02*
Y1037117D01*
X1314700Y1034171D02*
Y1036829D01*
X1314800Y1034484D02*
Y1036516D01*
X1314900Y1035018D02*
Y1035982D01*
X1312648Y1038067D02*
X1313295Y1038715D01*
X1313299Y1038712D02*
G03X1308706Y1038716I-2299J-3212D01*
G01X1308705Y1038715D02*
X1309352Y1038067D01*
X1309357Y1038069D02*
G02X1312648Y1038067I1643J-2569D01*
G01X1308433Y1037148D02*
X1307785Y1037795D01*
X1307788Y1037799D02*
G03Y1033201I3212J-2299D01*
G01X1307785Y1033205D02*
X1308433Y1033852D01*
G02Y1037148I2567J1648*
G01X1309352Y1032933D02*
X1308705Y1032285D01*
X1308706Y1032284D02*
G03X1313299Y1032288I2294J3216D01*
G01X1313295Y1032285D02*
X1312648Y1032933D01*
G02X1309357Y1032931I-1648J2567*
G01X1313567Y1033852D02*
X1314215Y1033205D01*
X1314216Y1033206D02*
G03Y1037794I-3216J2294D01*
G01X1314215Y1037795D02*
X1313567Y1037148D01*
X1313569Y1037143D02*
G02Y1033857I-2569J-1643D01*
G01X1288919Y1101000D02*
X1289220D01*
X1289781D02*
X1290081D01*
X1288819Y1101100D02*
X1290181D01*
X1288719Y1101200D02*
X1290281D01*
X1288619Y1101300D02*
X1290381D01*
X1288519Y1101400D02*
X1290481D01*
X1288419Y1101500D02*
X1290581D01*
X1288319Y1101600D02*
X1290681D01*
X1288461Y1101700D02*
X1290539D01*
X1288706Y1101800D02*
X1290295D01*
X1289115Y1101900D02*
X1289884D01*
X1288300Y1101619D02*
Y1101634D01*
X1288400Y1101519D02*
Y1101675D01*
X1288500Y1101419D02*
Y1101716D01*
X1288600Y1101319D02*
Y1101757D01*
X1288700Y1101219D02*
Y1101798D01*
X1288800Y1101119D02*
Y1101838D01*
X1288900Y1101019D02*
Y1101872D01*
X1289000Y1100961D02*
Y1101885D01*
X1289100Y1100979D02*
Y1101898D01*
X1289200Y1100996D02*
Y1101911D01*
X1289300Y1101014D02*
Y1101924D01*
X1289400Y1101032D02*
Y1101937D01*
X1289500Y1101050D02*
Y1101950D01*
X1289600Y1101032D02*
Y1101937D01*
X1289700Y1101015D02*
Y1101924D01*
X1289800Y1100997D02*
Y1101911D01*
X1289900Y1100979D02*
Y1101898D01*
X1290000Y1100961D02*
Y1101885D01*
X1290100Y1101019D02*
Y1101872D01*
X1290200Y1101119D02*
Y1101839D01*
X1290300Y1101219D02*
Y1101798D01*
X1290400Y1101319D02*
Y1101757D01*
X1290500Y1101419D02*
Y1101716D01*
X1290600Y1101519D02*
Y1101675D01*
X1290700Y1101619D02*
Y1101634D01*
X1287366Y1098300D02*
X1287381D01*
X1287325Y1098400D02*
X1287481D01*
X1287284Y1098500D02*
X1287581D01*
X1287243Y1098600D02*
X1287681D01*
X1287202Y1098700D02*
X1287781D01*
X1287161Y1098800D02*
X1287881D01*
X1287128Y1098900D02*
X1287981D01*
X1287115Y1099000D02*
X1288039D01*
X1287102Y1099100D02*
X1288021D01*
X1287089Y1099200D02*
X1288003D01*
X1287076Y1099300D02*
X1287986D01*
X1287063Y1099400D02*
X1287968D01*
X1287050Y1099500D02*
X1287950D01*
X1287063Y1099600D02*
X1287968D01*
X1287076Y1099700D02*
X1287986D01*
X1287089Y1099800D02*
X1288003D01*
X1287102Y1099900D02*
X1288021D01*
X1287115Y1100000D02*
X1288039D01*
X1287128Y1100100D02*
X1287981D01*
X1287161Y1100200D02*
X1287881D01*
X1287202Y1100300D02*
X1287781D01*
X1287243Y1100400D02*
X1287681D01*
X1287284Y1100500D02*
X1287581D01*
X1287325Y1100600D02*
X1287481D01*
X1287366Y1100700D02*
X1287381D01*
X1287100Y1099116D02*
Y1099884D01*
X1287200Y1098705D02*
Y1100295D01*
X1287300Y1098461D02*
Y1100539D01*
X1287400Y1098319D02*
Y1100681D01*
X1287500Y1098419D02*
Y1100581D01*
X1287600Y1098519D02*
Y1100481D01*
X1287700Y1098619D02*
Y1100381D01*
X1287800Y1098719D02*
Y1100281D01*
X1287900Y1098819D02*
Y1100181D01*
X1288000Y1098919D02*
Y1099219D01*
Y1099781D02*
Y1100081D01*
X1289115Y1097100D02*
X1289884D01*
X1288706Y1097200D02*
X1290295D01*
X1288461Y1097300D02*
X1290539D01*
X1288319Y1097400D02*
X1290681D01*
X1288419Y1097500D02*
X1290581D01*
X1288519Y1097600D02*
X1290481D01*
X1288619Y1097700D02*
X1290381D01*
X1288719Y1097800D02*
X1290281D01*
X1288819Y1097900D02*
X1290181D01*
X1288919Y1098000D02*
X1289220D01*
X1289781D02*
X1290081D01*
X1288300Y1097366D02*
Y1097381D01*
X1288400Y1097325D02*
Y1097481D01*
X1288500Y1097284D02*
Y1097581D01*
X1288600Y1097243D02*
Y1097681D01*
X1288700Y1097202D02*
Y1097781D01*
X1288800Y1097162D02*
Y1097881D01*
X1288900Y1097128D02*
Y1097981D01*
X1289000Y1097115D02*
Y1098039D01*
X1289100Y1097102D02*
Y1098021D01*
X1289200Y1097089D02*
Y1098004D01*
X1289300Y1097076D02*
Y1097986D01*
X1289400Y1097063D02*
Y1097968D01*
X1289500Y1097050D02*
Y1097950D01*
X1289600Y1097063D02*
Y1097968D01*
X1289700Y1097076D02*
Y1097985D01*
X1289800Y1097089D02*
Y1098003D01*
X1289900Y1097102D02*
Y1098021D01*
X1290000Y1097115D02*
Y1098039D01*
X1290100Y1097128D02*
Y1097981D01*
X1290200Y1097161D02*
Y1097881D01*
X1290300Y1097202D02*
Y1097781D01*
X1290400Y1097243D02*
Y1097681D01*
X1290500Y1097284D02*
Y1097581D01*
X1290600Y1097325D02*
Y1097481D01*
X1290700Y1097366D02*
Y1097381D01*
X1291619Y1098300D02*
X1291634D01*
X1291519Y1098400D02*
X1291675D01*
X1291419Y1098500D02*
X1291716D01*
X1291319Y1098600D02*
X1291757D01*
X1291219Y1098700D02*
X1291798D01*
X1291119Y1098800D02*
X1291838D01*
X1291019Y1098900D02*
X1291872D01*
X1290961Y1099000D02*
X1291885D01*
X1290979Y1099100D02*
X1291898D01*
X1290997Y1099200D02*
X1291911D01*
X1291014Y1099300D02*
X1291924D01*
X1291032Y1099400D02*
X1291937D01*
X1291050Y1099500D02*
X1291950D01*
X1291032Y1099600D02*
X1291937D01*
X1291014Y1099700D02*
X1291924D01*
X1290997Y1099800D02*
X1291911D01*
X1290979Y1099900D02*
X1291898D01*
X1290961Y1100000D02*
X1291885D01*
X1291019Y1100100D02*
X1291872D01*
X1291119Y1100200D02*
X1291838D01*
X1291219Y1100300D02*
X1291798D01*
X1291319Y1100400D02*
X1291757D01*
X1291419Y1100500D02*
X1291716D01*
X1291519Y1100600D02*
X1291675D01*
X1291619Y1100700D02*
X1291634D01*
X1291000Y1098919D02*
Y1099219D01*
Y1099781D02*
Y1100081D01*
X1291100Y1098819D02*
Y1100181D01*
X1291200Y1098719D02*
Y1100281D01*
X1291300Y1098619D02*
Y1100381D01*
X1291400Y1098519D02*
Y1100481D01*
X1291500Y1098419D02*
Y1100581D01*
X1291600Y1098319D02*
Y1100681D01*
X1291700Y1098461D02*
Y1100539D01*
X1291800Y1098706D02*
Y1100294D01*
X1291900Y1099115D02*
Y1099885D01*
X1290035Y1100955D02*
X1290711Y1101630D01*
X1290714Y1101628D02*
G03X1288290Y1101630I-1214J-2128D01*
G01X1288289D02*
X1288965Y1100955D01*
G02X1290038Y1100954I535J-1455*
G01X1288045Y1100035D02*
X1287370Y1100711D01*
X1287372Y1100714D02*
G03Y1098286I2128J-1214D01*
G01X1287370Y1098289D02*
X1288045Y1098965D01*
X1288046Y1098962D02*
G02Y1100038I1454J538D01*
G01X1288965Y1098045D02*
X1288289Y1097370D01*
X1288290D02*
G03X1290714Y1097372I1210J2130D01*
G01X1290711Y1097370D02*
X1290035Y1098045D01*
X1290038Y1098046D02*
G02X1288965Y1098045I-538J1454D01*
G01X1290955Y1098965D02*
X1291630Y1098289D01*
Y1098290D02*
G03Y1100710I-2130J1210D01*
G01Y1100711D02*
X1290955Y1100035D01*
G02Y1098965I-1455J-535*
G01X1309319Y1029100D02*
X1309420D01*
X1312580D02*
X1312681D01*
X1309219Y1029200D02*
X1309624D01*
X1312376D02*
X1312781D01*
X1309119Y1029300D02*
X1309828D01*
X1312173D02*
X1312881D01*
X1309019Y1029400D02*
X1310091D01*
X1311907D02*
X1312981D01*
X1308919Y1029500D02*
X1310524D01*
X1311478D02*
X1313081D01*
X1308819Y1029600D02*
X1313181D01*
X1308719Y1029700D02*
X1313281D01*
X1308855Y1029800D02*
X1313145D01*
X1309031Y1029900D02*
X1312970D01*
X1309207Y1030000D02*
X1312794D01*
X1309383Y1030100D02*
X1312618D01*
X1309671Y1030200D02*
X1312328D01*
X1309984Y1030300D02*
X1312017D01*
X1310518Y1030400D02*
X1311481D01*
X1308800Y1029619D02*
Y1029769D01*
X1308900Y1029519D02*
Y1029826D01*
X1309000Y1029419D02*
Y1029882D01*
X1309100Y1029319D02*
Y1029939D01*
X1309200Y1029219D02*
Y1029996D01*
X1309300Y1029119D02*
Y1030053D01*
X1309400Y1029090D02*
Y1030109D01*
X1309500Y1029139D02*
Y1030145D01*
X1309600Y1029188D02*
Y1030177D01*
X1309700Y1029237D02*
Y1030209D01*
X1309800Y1029286D02*
Y1030241D01*
X1309900Y1029335D02*
Y1030273D01*
X1310000Y1029379D02*
Y1030305D01*
X1310100Y1029402D02*
Y1030337D01*
X1310200Y1029425D02*
Y1030367D01*
X1310300Y1029448D02*
Y1030378D01*
X1310400Y1029471D02*
Y1030388D01*
X1310500Y1029495D02*
Y1030398D01*
X1310600Y1029518D02*
Y1030408D01*
X1310700Y1029530D02*
Y1030419D01*
X1310800Y1029530D02*
Y1030429D01*
X1310900Y1029530D02*
Y1030439D01*
X1311000Y1029530D02*
Y1030450D01*
X1311100Y1029530D02*
Y1030440D01*
X1311200Y1029530D02*
Y1030429D01*
X1311300Y1029530D02*
Y1030419D01*
X1311400Y1029518D02*
Y1030408D01*
X1311500Y1029495D02*
Y1030398D01*
X1311600Y1029472D02*
Y1030388D01*
X1311700Y1029448D02*
Y1030377D01*
X1311800Y1029425D02*
Y1030367D01*
X1311900Y1029402D02*
Y1030338D01*
X1312000Y1029378D02*
Y1030305D01*
X1312100Y1029336D02*
Y1030273D01*
X1312200Y1029287D02*
Y1030241D01*
X1312300Y1029237D02*
Y1030209D01*
X1312400Y1029188D02*
Y1030177D01*
X1312500Y1029139D02*
Y1030145D01*
X1312600Y1029090D02*
Y1030110D01*
X1312700Y1029119D02*
Y1030053D01*
X1312800Y1029219D02*
Y1029996D01*
X1312900Y1029319D02*
Y1029940D01*
X1313000Y1029419D02*
Y1029883D01*
X1313100Y1029519D02*
Y1029826D01*
X1313200Y1029619D02*
Y1029769D01*
X1307731Y1024300D02*
X1307881D01*
X1307674Y1024400D02*
X1307981D01*
X1307617Y1024500D02*
X1308081D01*
X1307561Y1024600D02*
X1308181D01*
X1307504Y1024700D02*
X1308281D01*
X1307447Y1024800D02*
X1308381D01*
X1307390Y1024900D02*
X1308410D01*
X1307355Y1025000D02*
X1308361D01*
X1307323Y1025100D02*
X1308312D01*
X1307291Y1025200D02*
X1308263D01*
X1307259Y1025300D02*
X1308213D01*
X1307227Y1025400D02*
X1308164D01*
X1307195Y1025500D02*
X1308121D01*
X1307163Y1025600D02*
X1308098D01*
X1307133Y1025700D02*
X1308075D01*
X1307123Y1025800D02*
X1308052D01*
X1307112Y1025900D02*
X1308029D01*
X1307102Y1026000D02*
X1308005D01*
X1307092Y1026100D02*
X1307982D01*
X1307081Y1026200D02*
X1307970D01*
X1307071Y1026300D02*
X1307970D01*
X1307060Y1026400D02*
X1307970D01*
X1307050Y1026500D02*
X1307970D01*
X1307060Y1026600D02*
X1307970D01*
X1307071Y1026700D02*
X1307970D01*
X1307081Y1026800D02*
X1307970D01*
X1307092Y1026900D02*
X1307982D01*
X1307102Y1027000D02*
X1308005D01*
X1307112Y1027100D02*
X1308029D01*
X1307123Y1027200D02*
X1308052D01*
X1307133Y1027300D02*
X1308075D01*
X1307163Y1027400D02*
X1308098D01*
X1307195Y1027500D02*
X1308121D01*
X1307227Y1027600D02*
X1308164D01*
X1307259Y1027700D02*
X1308213D01*
X1307291Y1027800D02*
X1308263D01*
X1307323Y1027900D02*
X1308312D01*
X1307355Y1028000D02*
X1308361D01*
X1307390Y1028100D02*
X1308410D01*
X1307447Y1028200D02*
X1308381D01*
X1307504Y1028300D02*
X1308281D01*
X1307561Y1028400D02*
X1308181D01*
X1307617Y1028500D02*
X1308081D01*
X1307674Y1028600D02*
X1307981D01*
X1307731Y1028700D02*
X1307881D01*
X1307100Y1026019D02*
Y1026981D01*
X1307200Y1025483D02*
Y1027517D01*
X1307300Y1025172D02*
Y1027828D01*
X1307400Y1024882D02*
Y1028118D01*
X1307500Y1024706D02*
Y1028294D01*
X1307600Y1024531D02*
Y1028469D01*
X1307700Y1024355D02*
Y1028645D01*
X1307800Y1024219D02*
Y1028781D01*
X1307900Y1024319D02*
Y1028681D01*
X1308000Y1024419D02*
Y1026023D01*
Y1026977D02*
Y1028581D01*
X1308100Y1024519D02*
Y1025592D01*
Y1027408D02*
Y1028481D01*
X1308200Y1024619D02*
Y1025327D01*
Y1027673D02*
Y1028381D01*
X1308300Y1024719D02*
Y1025124D01*
Y1027876D02*
Y1028281D01*
X1308400Y1024819D02*
Y1024920D01*
Y1028080D02*
Y1028181D01*
X1310518Y1022600D02*
X1311481D01*
X1309984Y1022700D02*
X1312017D01*
X1309671Y1022800D02*
X1312328D01*
X1309383Y1022900D02*
X1312618D01*
X1309207Y1023000D02*
X1312794D01*
X1309031Y1023100D02*
X1312970D01*
X1308855Y1023200D02*
X1313145D01*
X1308719Y1023300D02*
X1313281D01*
X1308819Y1023400D02*
X1313181D01*
X1308919Y1023500D02*
X1310524D01*
X1311478D02*
X1313081D01*
X1309019Y1023600D02*
X1310091D01*
X1311907D02*
X1312981D01*
X1309119Y1023700D02*
X1309828D01*
X1312173D02*
X1312881D01*
X1309219Y1023800D02*
X1309624D01*
X1312376D02*
X1312781D01*
X1309319Y1023900D02*
X1309420D01*
X1312580D02*
X1312681D01*
X1308800Y1023231D02*
Y1023381D01*
X1308900Y1023174D02*
Y1023481D01*
X1309000Y1023118D02*
Y1023581D01*
X1309100Y1023061D02*
Y1023681D01*
X1309200Y1023004D02*
Y1023781D01*
X1309300Y1022947D02*
Y1023881D01*
X1309400Y1022891D02*
Y1023910D01*
X1309500Y1022855D02*
Y1023861D01*
X1309600Y1022823D02*
Y1023812D01*
X1309700Y1022791D02*
Y1023763D01*
X1309800Y1022759D02*
Y1023714D01*
X1309900Y1022727D02*
Y1023665D01*
X1310000Y1022695D02*
Y1023621D01*
X1310100Y1022663D02*
Y1023598D01*
X1310200Y1022633D02*
Y1023575D01*
X1310300Y1022622D02*
Y1023552D01*
X1310400Y1022612D02*
Y1023529D01*
X1310500Y1022602D02*
Y1023505D01*
X1310600Y1022592D02*
Y1023482D01*
X1310700Y1022581D02*
Y1023470D01*
X1310800Y1022571D02*
Y1023470D01*
X1310900Y1022561D02*
Y1023470D01*
X1311000Y1022550D02*
Y1023470D01*
X1311100Y1022560D02*
Y1023470D01*
X1311200Y1022571D02*
Y1023470D01*
X1311300Y1022581D02*
Y1023470D01*
X1311400Y1022592D02*
Y1023482D01*
X1311500Y1022602D02*
Y1023505D01*
X1311600Y1022612D02*
Y1023528D01*
X1311700Y1022623D02*
Y1023552D01*
X1311800Y1022633D02*
Y1023575D01*
X1311900Y1022662D02*
Y1023598D01*
X1312000Y1022695D02*
Y1023622D01*
X1312100Y1022727D02*
Y1023664D01*
X1312200Y1022759D02*
Y1023713D01*
X1312300Y1022791D02*
Y1023763D01*
X1312400Y1022823D02*
Y1023812D01*
X1312500Y1022855D02*
Y1023861D01*
X1312600Y1022890D02*
Y1023910D01*
X1312700Y1022947D02*
Y1023881D01*
X1312800Y1023004D02*
Y1023781D01*
X1312900Y1023060D02*
Y1023681D01*
X1313000Y1023117D02*
Y1023581D01*
X1313100Y1023174D02*
Y1023481D01*
X1313200Y1023231D02*
Y1023381D01*
X1314119Y1024300D02*
X1314269D01*
X1314019Y1024400D02*
X1314326D01*
X1313919Y1024500D02*
X1314382D01*
X1313819Y1024600D02*
X1314439D01*
X1313719Y1024700D02*
X1314496D01*
X1313619Y1024800D02*
X1314553D01*
X1313590Y1024900D02*
X1314610D01*
X1313639Y1025000D02*
X1314645D01*
X1313688Y1025100D02*
X1314677D01*
X1313737Y1025200D02*
X1314709D01*
X1313786Y1025300D02*
X1314741D01*
X1313835Y1025400D02*
X1314773D01*
X1313879Y1025500D02*
X1314805D01*
X1313902Y1025600D02*
X1314837D01*
X1313925Y1025700D02*
X1314867D01*
X1313948Y1025800D02*
X1314877D01*
X1313972Y1025900D02*
X1314888D01*
X1313995Y1026000D02*
X1314898D01*
X1314018Y1026100D02*
X1314909D01*
X1314030Y1026200D02*
X1314919D01*
X1314030Y1026300D02*
X1314929D01*
X1314030Y1026400D02*
X1314940D01*
X1314030Y1026500D02*
X1314950D01*
X1314030Y1026600D02*
X1314940D01*
X1314030Y1026700D02*
X1314929D01*
X1314030Y1026800D02*
X1314919D01*
X1314018Y1026900D02*
X1314909D01*
X1313995Y1027000D02*
X1314898D01*
X1313972Y1027100D02*
X1314888D01*
X1313948Y1027200D02*
X1314877D01*
X1313925Y1027300D02*
X1314867D01*
X1313902Y1027400D02*
X1314837D01*
X1313879Y1027500D02*
X1314805D01*
X1313835Y1027600D02*
X1314773D01*
X1313786Y1027700D02*
X1314741D01*
X1313737Y1027800D02*
X1314709D01*
X1313688Y1027900D02*
X1314677D01*
X1313639Y1028000D02*
X1314645D01*
X1313590Y1028100D02*
X1314610D01*
X1313619Y1028200D02*
X1314553D01*
X1313719Y1028300D02*
X1314496D01*
X1313819Y1028400D02*
X1314439D01*
X1313919Y1028500D02*
X1314382D01*
X1314019Y1028600D02*
X1314326D01*
X1314119Y1028700D02*
X1314269D01*
X1313600Y1024819D02*
Y1024920D01*
Y1028080D02*
Y1028181D01*
X1313700Y1024719D02*
Y1025124D01*
Y1027876D02*
Y1028281D01*
X1313800Y1024619D02*
Y1025328D01*
Y1027672D02*
Y1028381D01*
X1313900Y1024519D02*
Y1025591D01*
Y1027409D02*
Y1028481D01*
X1314000Y1024419D02*
Y1026023D01*
Y1026977D02*
Y1028581D01*
X1314100Y1024319D02*
Y1028681D01*
X1314200Y1024219D02*
Y1028781D01*
X1314300Y1024355D02*
Y1028645D01*
X1314400Y1024531D02*
Y1028469D01*
X1314500Y1024707D02*
Y1028293D01*
X1314600Y1024883D02*
Y1028117D01*
X1314700Y1025171D02*
Y1027829D01*
X1314800Y1025484D02*
Y1027516D01*
X1314900Y1026018D02*
Y1026982D01*
X1312648Y1029067D02*
X1313295Y1029715D01*
X1313299Y1029712D02*
G03X1308706Y1029716I-2299J-3212D01*
G01X1308705Y1029715D02*
X1309352Y1029067D01*
X1309357Y1029069D02*
G02X1312648Y1029067I1643J-2569D01*
G01X1308433Y1028148D02*
X1307785Y1028795D01*
X1307788Y1028799D02*
G03Y1024201I3212J-2299D01*
G01X1307785Y1024205D02*
X1308433Y1024852D01*
G02Y1028148I2567J1648*
G01X1309352Y1023933D02*
X1308705Y1023285D01*
X1308706Y1023284D02*
G03X1313299Y1023288I2294J3216D01*
G01X1313295Y1023285D02*
X1312648Y1023933D01*
G02X1309357Y1023931I-1648J2567*
G01X1313567Y1024852D02*
X1314215Y1024205D01*
X1314216Y1024206D02*
G03Y1028794I-3216J2294D01*
G01X1314215Y1028795D02*
X1313567Y1028148D01*
X1313569Y1028143D02*
G02Y1024857I-2569J-1643D01*
G74*
G01X0Y0D02*
M02*
