G04*
G04 #@! TF.GenerationSoftware,Altium Limited,Altium Designer,18.1.9 (240)*
G04*
G04 Layer_Color=11296232*
%FSAX25Y25*%
%MOIN*%
G70*
G01*
G75*
%ADD14C,0.00394*%
%ADD15C,0.00800*%
%ADD17C,0.01000*%
G54D14*
X0172378Y0230504D02*
G03*
X0175921Y0230504I0001772J0000000D01*
G01*
X0191079D02*
G03*
X0194622Y0230504I0001772J0000000D01*
G01*
X0000001Y0183378D02*
Y0230622D01*
X0162831Y0237000D02*
X0170409D01*
X0172378Y0230504D02*
Y0235032D01*
X0170409Y0237000D02*
X0172378Y0235032D01*
X0175921Y0230504D02*
Y0235032D01*
X0177890Y0237000D01*
X0177988D01*
X0189012D01*
X0191079Y0230504D02*
Y0235032D01*
X0194622Y0230504D02*
Y0235032D01*
X0189110Y0237000D02*
X0191079Y0235032D01*
X0189012Y0237000D02*
X0189110D01*
X0194622Y0235032D02*
X0196591Y0237000D01*
X0204169D01*
G54D15*
X-0248386Y-0194578D02*
Y-0188580D01*
X-0246387Y-0190579D01*
X-0244388Y-0188580D01*
Y-0194578D01*
X-0242388D02*
X-0240389D01*
X-0241389D01*
Y-0188580D01*
X-0242388Y-0189579D01*
X-0231392Y-0188580D02*
Y-0194578D01*
X-0228393D01*
X-0227393Y-0193578D01*
Y-0192579D01*
X-0228393Y-0191579D01*
X-0231392D01*
X-0228393D01*
X-0227393Y-0190579D01*
Y-0189579D01*
X-0228393Y-0188580D01*
X-0231392D01*
X-0224394Y-0194578D02*
X-0222395D01*
X-0221395Y-0193578D01*
Y-0191579D01*
X-0222395Y-0190579D01*
X-0224394D01*
X-0225394Y-0191579D01*
Y-0193578D01*
X-0224394Y-0194578D01*
X-0218396Y-0190579D02*
X-0216397D01*
X-0215397Y-0191579D01*
Y-0194578D01*
X-0218396D01*
X-0219396Y-0193578D01*
X-0218396Y-0192579D01*
X-0215397D01*
X-0213398Y-0190579D02*
Y-0194578D01*
Y-0192579D01*
X-0212398Y-0191579D01*
X-0211398Y-0190579D01*
X-0210399D01*
X-0203401Y-0188580D02*
Y-0194578D01*
X-0206400D01*
X-0207400Y-0193578D01*
Y-0191579D01*
X-0206400Y-0190579D01*
X-0203401D01*
X-0192404Y-0188580D02*
X-0194404D01*
X-0195404Y-0189579D01*
Y-0193578D01*
X-0194404Y-0194578D01*
X-0192404D01*
X-0191405Y-0193578D01*
Y-0189579D01*
X-0192404Y-0188580D01*
X-0189406Y-0190579D02*
Y-0193578D01*
X-0188406Y-0194578D01*
X-0185407D01*
Y-0190579D01*
X-0182408Y-0189579D02*
Y-0190579D01*
X-0183407D01*
X-0181408D01*
X-0182408D01*
Y-0193578D01*
X-0181408Y-0194578D01*
X-0178409D02*
X-0176410D01*
X-0177409D01*
Y-0188580D01*
X-0178409D01*
X-0173411Y-0194578D02*
X-0171411D01*
X-0172411D01*
Y-0190579D01*
X-0173411D01*
X-0168412Y-0194578D02*
Y-0190579D01*
X-0165413D01*
X-0164414Y-0191579D01*
Y-0194578D01*
X-0159415D02*
X-0161415D01*
X-0162414Y-0193578D01*
Y-0191579D01*
X-0161415Y-0190579D01*
X-0159415D01*
X-0158415Y-0191579D01*
Y-0192579D01*
X-0162414D01*
X0192114Y-0174295D02*
Y-0168297D01*
X0196112Y-0174295D01*
Y-0168297D01*
X0199111Y-0174295D02*
X0201111D01*
X0202110Y-0173296D01*
Y-0171296D01*
X0201111Y-0170297D01*
X0199111D01*
X0198112Y-0171296D01*
Y-0173296D01*
X0199111Y-0174295D01*
X0205109Y-0169297D02*
Y-0170297D01*
X0204110D01*
X0206109D01*
X0205109D01*
Y-0173296D01*
X0206109Y-0174295D01*
X0215106Y-0168297D02*
X0217106D01*
X0216106D01*
Y-0174295D01*
X0215106D01*
X0217106D01*
X0220105D02*
Y-0170297D01*
X0223104D01*
X0224103Y-0171296D01*
Y-0174295D01*
X0232101Y-0168297D02*
Y-0172296D01*
X0234100Y-0174295D01*
X0236099Y-0172296D01*
Y-0168297D01*
X0241098Y-0174295D02*
X0239098D01*
X0238099Y-0173296D01*
Y-0171296D01*
X0239098Y-0170297D01*
X0241098D01*
X0242097Y-0171296D01*
Y-0172296D01*
X0238099D01*
X0244097Y-0170297D02*
Y-0174295D01*
Y-0172296D01*
X0245096Y-0171296D01*
X0246096Y-0170297D01*
X0247096D01*
X0250095Y-0174295D02*
X0253094D01*
X0254094Y-0173296D01*
X0253094Y-0172296D01*
X0251095D01*
X0250095Y-0171296D01*
X0251095Y-0170297D01*
X0254094D01*
X0256093Y-0174295D02*
X0258092D01*
X0257093D01*
Y-0170297D01*
X0256093D01*
X0262091Y-0174295D02*
X0264090D01*
X0265090Y-0173296D01*
Y-0171296D01*
X0264090Y-0170297D01*
X0262091D01*
X0261091Y-0171296D01*
Y-0173296D01*
X0262091Y-0174295D01*
X0267089D02*
Y-0170297D01*
X0270088D01*
X0271088Y-0171296D01*
Y-0174295D01*
X0277086Y-0169297D02*
X0276086Y-0168297D01*
X0274087D01*
X0273087Y-0169297D01*
Y-0173296D01*
X0274087Y-0174295D01*
X0276086D01*
X0277086Y-0173296D01*
X0280085Y-0174295D02*
X0282084D01*
X0283084Y-0173296D01*
Y-0171296D01*
X0282084Y-0170297D01*
X0280085D01*
X0279085Y-0171296D01*
Y-0173296D01*
X0280085Y-0174295D01*
X0285084D02*
Y-0170297D01*
X0288083D01*
X0289082Y-0171296D01*
Y-0174295D01*
X0292081Y-0169297D02*
Y-0170297D01*
X0291082D01*
X0293081D01*
X0292081D01*
Y-0173296D01*
X0293081Y-0174295D01*
X0296080Y-0170297D02*
Y-0174295D01*
Y-0172296D01*
X0297080Y-0171296D01*
X0298079Y-0170297D01*
X0299079D01*
X0303078Y-0174295D02*
X0305077D01*
X0306077Y-0173296D01*
Y-0171296D01*
X0305077Y-0170297D01*
X0303078D01*
X0302078Y-0171296D01*
Y-0173296D01*
X0303078Y-0174295D01*
X0308076D02*
X0310075D01*
X0309076D01*
Y-0168297D01*
X0308076D01*
X0145512Y-0169297D02*
X0144513Y-0168297D01*
X0142513D01*
X0141514Y-0169297D01*
Y-0170297D01*
X0142513Y-0171296D01*
X0144513D01*
X0145512Y-0172296D01*
Y-0173296D01*
X0144513Y-0174295D01*
X0142513D01*
X0141514Y-0173296D01*
X0147512Y-0168297D02*
Y-0172296D01*
X0149511Y-0174295D01*
X0151510Y-0172296D01*
Y-0168297D01*
X0153510Y-0174295D02*
Y-0168297D01*
X0157508Y-0174295D01*
Y-0168297D01*
X0165506Y-0174295D02*
Y-0168297D01*
X0168505D01*
X0169504Y-0169297D01*
Y-0171296D01*
X0168505Y-0172296D01*
X0165506D01*
X0167505D02*
X0169504Y-0174295D01*
X0175503Y-0168297D02*
X0171504D01*
Y-0174295D01*
X0175503D01*
X0171504Y-0171296D02*
X0173503D01*
X0177502Y-0168297D02*
Y-0172296D01*
X0179501Y-0174295D01*
X0181501Y-0172296D01*
Y-0168297D01*
X0183500Y-0170297D02*
X0184500D01*
Y-0171296D01*
X0183500D01*
Y-0170297D01*
Y-0173296D02*
X0184500D01*
Y-0174295D01*
X0183500D01*
Y-0173296D01*
X0057714Y-0174295D02*
Y-0168297D01*
X0060713D01*
X0061712Y-0169297D01*
Y-0171296D01*
X0060713Y-0172296D01*
X0057714D01*
X0059713D02*
X0061712Y-0174295D01*
X0067710Y-0168297D02*
X0063712D01*
Y-0174295D01*
X0067710D01*
X0063712Y-0171296D02*
X0065711D01*
X0069710Y-0168297D02*
Y-0172296D01*
X0071709Y-0174295D01*
X0073708Y-0172296D01*
Y-0168297D01*
X0075708Y-0170297D02*
X0076708D01*
Y-0171296D01*
X0075708D01*
Y-0170297D01*
Y-0173296D02*
X0076708D01*
Y-0174295D01*
X0075708D01*
Y-0173296D01*
X-0248386Y-0215162D02*
Y-0209164D01*
X-0246387Y-0211163D01*
X-0244388Y-0209164D01*
Y-0215162D01*
X-0238390Y-0210164D02*
X-0239389Y-0209164D01*
X-0241389D01*
X-0242388Y-0210164D01*
Y-0214162D01*
X-0241389Y-0215162D01*
X-0239389D01*
X-0238390Y-0214162D01*
X-0236390Y-0209164D02*
Y-0214162D01*
X-0235391Y-0215162D01*
X-0233391D01*
X-0232392Y-0214162D01*
Y-0209164D01*
X-0230392Y-0210164D02*
X-0229393Y-0209164D01*
X-0227393D01*
X-0226394Y-0210164D01*
Y-0214162D01*
X-0227393Y-0215162D01*
X-0229393D01*
X-0230392Y-0214162D01*
Y-0210164D01*
X-0220395Y-0209164D02*
X-0222395Y-0210164D01*
X-0224394Y-0212163D01*
Y-0214162D01*
X-0223394Y-0215162D01*
X-0221395D01*
X-0220395Y-0214162D01*
Y-0213163D01*
X-0221395Y-0212163D01*
X-0224394D01*
X-0218396Y-0210164D02*
X-0217396Y-0209164D01*
X-0215397D01*
X-0214397Y-0210164D01*
Y-0211163D01*
X-0215397Y-0212163D01*
X-0216397D01*
X-0215397D01*
X-0214397Y-0213163D01*
Y-0214162D01*
X-0215397Y-0215162D01*
X-0217396D01*
X-0218396Y-0214162D01*
X-0212398Y-0209164D02*
Y-0215162D01*
X-0209399D01*
X-0208399Y-0214162D01*
Y-0213163D01*
X-0209399Y-0212163D01*
X-0212398D01*
X-0209399D01*
X-0208399Y-0211163D01*
Y-0210164D01*
X-0209399Y-0209164D01*
X-0212398D01*
X-0206400Y-0215162D02*
Y-0214162D01*
X-0205400D01*
Y-0215162D01*
X-0206400D01*
X-0197403Y-0210164D02*
X-0198403Y-0209164D01*
X-0200402D01*
X-0201402Y-0210164D01*
Y-0214162D01*
X-0200402Y-0215162D01*
X-0198403D01*
X-0197403Y-0214162D01*
Y-0212163D01*
X-0199402D01*
X-0195404Y-0215162D02*
Y-0209164D01*
X-0193404Y-0211163D01*
X-0191405Y-0209164D01*
Y-0215162D01*
X-0189406D02*
X-0187406D01*
X-0188406D01*
Y-0209164D01*
X-0189406Y-0210164D01*
X0008863Y-0215162D02*
Y-0209164D01*
X0005864Y-0212163D01*
X0009862D01*
X0011862Y-0215162D02*
X0015860Y-0211163D01*
X0017860Y-0215162D02*
X0019859D01*
X0018859D01*
Y-0209164D01*
X0017860Y-0210164D01*
X0022858D02*
X0023858Y-0209164D01*
X0025857D01*
X0026857Y-0210164D01*
Y-0211163D01*
X0025857Y-0212163D01*
X0024858D01*
X0025857D01*
X0026857Y-0213163D01*
Y-0214162D01*
X0025857Y-0215162D01*
X0023858D01*
X0022858Y-0214162D01*
X0028856Y-0215162D02*
X0032855Y-0211163D01*
X0038853Y-0215162D02*
X0034854D01*
X0038853Y-0211163D01*
Y-0210164D01*
X0037853Y-0209164D01*
X0035854D01*
X0034854Y-0210164D01*
X0040852D02*
X0041852Y-0209164D01*
X0043851D01*
X0044851Y-0210164D01*
Y-0214162D01*
X0043851Y-0215162D01*
X0041852D01*
X0040852Y-0214162D01*
Y-0210164D01*
X0050849Y-0215162D02*
X0046850D01*
X0050849Y-0211163D01*
Y-0210164D01*
X0049849Y-0209164D01*
X0047850D01*
X0046850Y-0210164D01*
X0052848D02*
X0053848Y-0209164D01*
X0055847D01*
X0056847Y-0210164D01*
Y-0214162D01*
X0055847Y-0215162D01*
X0053848D01*
X0052848Y-0214162D01*
Y-0210164D01*
X-0077088D02*
X-0078087Y-0209164D01*
X-0080087D01*
X-0081086Y-0210164D01*
Y-0214162D01*
X-0080087Y-0215162D01*
X-0078087D01*
X-0077088Y-0214162D01*
Y-0212163D01*
X-0079087D01*
X-0071090Y-0209164D02*
X-0075088D01*
Y-0215162D01*
X-0071090D01*
X-0075088Y-0212163D02*
X-0073089D01*
X-0069090Y-0215162D02*
Y-0209164D01*
X-0065092Y-0215162D01*
Y-0209164D01*
X-0059093D02*
X-0063092D01*
Y-0215162D01*
X-0059093D01*
X-0063092Y-0212163D02*
X-0061093D01*
X-0057094Y-0215162D02*
Y-0209164D01*
X-0054095D01*
X-0053096Y-0210164D01*
Y-0212163D01*
X-0054095Y-0213163D01*
X-0057094D01*
X-0055095D02*
X-0053096Y-0215162D01*
X-0051096D02*
Y-0211163D01*
X-0049097Y-0209164D01*
X-0047097Y-0211163D01*
Y-0215162D01*
Y-0212163D01*
X-0051096D01*
X-0045098Y-0209164D02*
X-0041099D01*
X-0043099D01*
Y-0215162D01*
X-0035101Y-0209164D02*
X-0039100D01*
Y-0215162D01*
X-0035101D01*
X-0039100Y-0212163D02*
X-0037101D01*
X-0033102Y-0209164D02*
Y-0215162D01*
X-0030103D01*
X-0029103Y-0214162D01*
Y-0210164D01*
X-0030103Y-0209164D01*
X-0033102D01*
X-0003112Y-0211163D02*
X-0002112D01*
Y-0212163D01*
X-0003112D01*
Y-0211163D01*
Y-0214162D02*
X-0002112D01*
Y-0215162D01*
X-0003112D01*
Y-0214162D01*
X-0328936Y-0174295D02*
Y-0170297D01*
X-0326937Y-0168297D01*
X-0324938Y-0170297D01*
Y-0174295D01*
Y-0171296D01*
X-0328936D01*
X-0322938Y-0168297D02*
Y-0174295D01*
X-0318940D01*
X-0316940Y-0168297D02*
Y-0174295D01*
X-0312942D01*
X-0304944D02*
Y-0170297D01*
X-0302945Y-0168297D01*
X-0300945Y-0170297D01*
Y-0174295D01*
Y-0171296D01*
X-0304944D01*
X-0298946Y-0174295D02*
Y-0168297D01*
X-0295947D01*
X-0294947Y-0169297D01*
Y-0171296D01*
X-0295947Y-0172296D01*
X-0298946D01*
X-0296947D02*
X-0294947Y-0174295D01*
X-0292948Y-0168297D02*
X-0288949D01*
X-0290949D01*
Y-0174295D01*
X-0286950Y-0168297D02*
Y-0174295D01*
X-0284951Y-0172296D01*
X-0282951Y-0174295D01*
Y-0168297D01*
X-0277953D02*
X-0279952D01*
X-0280952Y-0169297D01*
Y-0173296D01*
X-0279952Y-0174295D01*
X-0277953D01*
X-0276953Y-0173296D01*
Y-0169297D01*
X-0277953Y-0168297D01*
X-0274954Y-0174295D02*
Y-0168297D01*
X-0271955D01*
X-0270955Y-0169297D01*
Y-0171296D01*
X-0271955Y-0172296D01*
X-0274954D01*
X-0272955D02*
X-0270955Y-0174295D01*
X-0268956Y-0168297D02*
Y-0174295D01*
Y-0172296D01*
X-0264957Y-0168297D01*
X-0267956Y-0171296D01*
X-0264957Y-0174295D01*
X-0256960Y-0168297D02*
Y-0172296D01*
X-0254960Y-0174295D01*
X-0252961Y-0172296D01*
Y-0168297D01*
X-0250962D02*
X-0248962D01*
X-0249962D01*
Y-0174295D01*
X-0250962D01*
X-0248962D01*
X-0241965Y-0168297D02*
X-0245963D01*
Y-0174295D01*
X-0241965D01*
X-0245963Y-0171296D02*
X-0243964D01*
X-0239965Y-0168297D02*
Y-0174295D01*
X-0237966Y-0172296D01*
X-0235966Y-0174295D01*
Y-0168297D01*
X-0229968D02*
X-0233967D01*
Y-0174295D01*
X-0229968D01*
X-0233967Y-0171296D02*
X-0231968D01*
X-0227969Y-0168297D02*
Y-0174295D01*
X-0224970D01*
X-0223970Y-0173296D01*
Y-0169297D01*
X-0224970Y-0168297D01*
X-0227969D01*
X-0211974D02*
X-0215973D01*
Y-0171296D01*
X-0213974D01*
X-0215973D01*
Y-0174295D01*
X-0209975D02*
Y-0168297D01*
X-0206976D01*
X-0205976Y-0169297D01*
Y-0171296D01*
X-0206976Y-0172296D01*
X-0209975D01*
X-0207976D02*
X-0205976Y-0174295D01*
X-0200978Y-0168297D02*
X-0202977D01*
X-0203977Y-0169297D01*
Y-0173296D01*
X-0202977Y-0174295D01*
X-0200978D01*
X-0199978Y-0173296D01*
Y-0169297D01*
X-0200978Y-0168297D01*
X-0197979Y-0174295D02*
Y-0168297D01*
X-0195979Y-0170297D01*
X-0193980Y-0168297D01*
Y-0174295D01*
X-0185983Y-0168297D02*
X-0181984D01*
X-0183983D01*
Y-0174295D01*
X-0176986Y-0168297D02*
X-0178985D01*
X-0179985Y-0169297D01*
Y-0173296D01*
X-0178985Y-0174295D01*
X-0176986D01*
X-0175986Y-0173296D01*
Y-0169297D01*
X-0176986Y-0168297D01*
X-0173986Y-0174295D02*
Y-0168297D01*
X-0170987D01*
X-0169988Y-0169297D01*
Y-0171296D01*
X-0170987Y-0172296D01*
X-0173986D01*
X-0157992Y-0169297D02*
X-0158991Y-0168297D01*
X-0160991D01*
X-0161990Y-0169297D01*
Y-0170297D01*
X-0160991Y-0171296D01*
X-0158991D01*
X-0157992Y-0172296D01*
Y-0173296D01*
X-0158991Y-0174295D01*
X-0160991D01*
X-0161990Y-0173296D01*
X-0155992Y-0168297D02*
X-0153993D01*
X-0154993D01*
Y-0174295D01*
X-0155992D01*
X-0153993D01*
X-0150994Y-0168297D02*
Y-0174295D01*
X-0147995D01*
X-0146995Y-0173296D01*
Y-0169297D01*
X-0147995Y-0168297D01*
X-0150994D01*
X-0140997D02*
X-0144996D01*
Y-0174295D01*
X-0140997D01*
X-0144996Y-0171296D02*
X-0142997D01*
X0086864Y-0168297D02*
Y-0174295D01*
X0089863D01*
X0090862Y-0173296D01*
Y-0172296D01*
X0089863Y-0171296D01*
X0086864D01*
X0089863D01*
X0090862Y-0170297D01*
Y-0169297D01*
X0089863Y-0168297D01*
X0086864D01*
X-0026736Y-0174295D02*
Y-0168297D01*
X-0024737Y-0170297D01*
X-0022738Y-0168297D01*
Y-0174295D01*
X-0016740Y-0169297D02*
X-0017739Y-0168297D01*
X-0019739D01*
X-0020738Y-0169297D01*
Y-0173296D01*
X-0019739Y-0174295D01*
X-0017739D01*
X-0016740Y-0173296D01*
X-0014740Y-0168297D02*
Y-0173296D01*
X-0013741Y-0174295D01*
X-0011741D01*
X-0010742Y-0173296D01*
Y-0168297D01*
X-0008742Y-0169297D02*
X-0007743Y-0168297D01*
X-0005743D01*
X-0004744Y-0169297D01*
Y-0173296D01*
X-0005743Y-0174295D01*
X-0007743D01*
X-0008742Y-0173296D01*
Y-0169297D01*
X0001255Y-0168297D02*
X-0000745Y-0169297D01*
X-0002744Y-0171296D01*
Y-0173296D01*
X-0001744Y-0174295D01*
X0000255D01*
X0001255Y-0173296D01*
Y-0172296D01*
X0000255Y-0171296D01*
X-0002744D01*
X0003254Y-0169297D02*
X0004254Y-0168297D01*
X0006253D01*
X0007253Y-0169297D01*
Y-0170297D01*
X0006253Y-0171296D01*
X0005253D01*
X0006253D01*
X0007253Y-0172296D01*
Y-0173296D01*
X0006253Y-0174295D01*
X0004254D01*
X0003254Y-0173296D01*
X-0081286Y-0168297D02*
Y-0174295D01*
X-0078287D01*
X-0077288Y-0173296D01*
Y-0172296D01*
X-0078287Y-0171296D01*
X-0081286D01*
X-0078287D01*
X-0077288Y-0170297D01*
Y-0169297D01*
X-0078287Y-0168297D01*
X-0081286D01*
X-0072289D02*
X-0074289D01*
X-0075288Y-0169297D01*
Y-0173296D01*
X-0074289Y-0174295D01*
X-0072289D01*
X-0071290Y-0173296D01*
Y-0169297D01*
X-0072289Y-0168297D01*
X-0069290Y-0174295D02*
Y-0170297D01*
X-0067291Y-0168297D01*
X-0065292Y-0170297D01*
Y-0174295D01*
Y-0171296D01*
X-0069290D01*
X-0063292Y-0174295D02*
Y-0168297D01*
X-0060293D01*
X-0059294Y-0169297D01*
Y-0171296D01*
X-0060293Y-0172296D01*
X-0063292D01*
X-0061293D02*
X-0059294Y-0174295D01*
X-0057294Y-0168297D02*
Y-0174295D01*
X-0054295D01*
X-0053295Y-0173296D01*
Y-0169297D01*
X-0054295Y-0168297D01*
X-0057294D01*
X-0044298Y-0174295D02*
Y-0168297D01*
X-0042299D02*
Y-0174295D01*
X-0045298Y-0170297D02*
X-0042299D01*
X-0041299D01*
X-0045298Y-0172296D02*
X-0041299D01*
X-0039300Y-0170297D02*
X-0038300D01*
Y-0171296D01*
X-0039300D01*
Y-0170297D01*
Y-0173296D02*
X-0038300D01*
Y-0174295D01*
X-0039300D01*
Y-0173296D01*
X-0328936Y-0188580D02*
Y-0194578D01*
X-0324938D01*
X-0322938D02*
Y-0190579D01*
X-0320939Y-0188580D01*
X-0318940Y-0190579D01*
Y-0194578D01*
Y-0191579D01*
X-0322938D01*
X-0316940Y-0188580D02*
Y-0189579D01*
X-0314941Y-0191579D01*
X-0312942Y-0189579D01*
Y-0188580D01*
X-0314941Y-0191579D02*
Y-0194578D01*
X-0306943Y-0188580D02*
X-0310942D01*
Y-0194578D01*
X-0306943D01*
X-0310942Y-0191579D02*
X-0308943D01*
X-0304944Y-0194578D02*
Y-0188580D01*
X-0301945D01*
X-0300945Y-0189579D01*
Y-0191579D01*
X-0301945Y-0192579D01*
X-0304944D01*
X-0302945D02*
X-0300945Y-0194578D01*
X-0292948D02*
Y-0188580D01*
X-0288949Y-0194578D01*
Y-0188580D01*
X-0286950Y-0194578D02*
Y-0190579D01*
X-0284951Y-0188580D01*
X-0282951Y-0190579D01*
Y-0194578D01*
Y-0191579D01*
X-0286950D01*
X-0280952Y-0194578D02*
Y-0188580D01*
X-0278953Y-0190579D01*
X-0276953Y-0188580D01*
Y-0194578D01*
X-0270955Y-0188580D02*
X-0274954D01*
Y-0194578D01*
X-0270955D01*
X-0274954Y-0191579D02*
X-0272955D01*
X-0262958Y-0192579D02*
X-0258959D01*
X-0262958Y-0190579D02*
X-0258959D01*
X-0328936Y-0215162D02*
Y-0209164D01*
X-0325937D01*
X-0324938Y-0210164D01*
Y-0212163D01*
X-0325937Y-0213163D01*
X-0328936D01*
X-0322938Y-0209164D02*
Y-0215162D01*
X-0318940D01*
X-0313941Y-0209164D02*
X-0315941D01*
X-0316940Y-0210164D01*
Y-0214162D01*
X-0315941Y-0215162D01*
X-0313941D01*
X-0312942Y-0214162D01*
Y-0210164D01*
X-0313941Y-0209164D01*
X-0310942D02*
X-0306943D01*
X-0308943D01*
Y-0215162D01*
X-0298946D02*
Y-0209164D01*
X-0294947Y-0215162D01*
Y-0209164D01*
X-0292948Y-0215162D02*
Y-0211163D01*
X-0290949Y-0209164D01*
X-0288949Y-0211163D01*
Y-0215162D01*
Y-0212163D01*
X-0292948D01*
X-0286950Y-0215162D02*
Y-0209164D01*
X-0284951Y-0211163D01*
X-0282951Y-0209164D01*
Y-0215162D01*
X-0276953Y-0209164D02*
X-0280952D01*
Y-0215162D01*
X-0276953D01*
X-0280952Y-0212163D02*
X-0278953D01*
X-0268956Y-0213163D02*
X-0264957D01*
X-0268956Y-0211163D02*
X-0264957D01*
X0081763Y-0215162D02*
Y-0209164D01*
X0078764Y-0212163D01*
X0082762D01*
X0084762Y-0211163D02*
X0085761D01*
Y-0212163D01*
X0084762D01*
Y-0211163D01*
Y-0214162D02*
X0085761D01*
Y-0215162D01*
X0084762D01*
Y-0214162D01*
X0093759Y-0209164D02*
X0089760D01*
Y-0212163D01*
X0091759Y-0211163D01*
X0092759D01*
X0093759Y-0212163D01*
Y-0214162D01*
X0092759Y-0215162D01*
X0090760D01*
X0089760Y-0214162D01*
X0095758Y-0209164D02*
X0099757D01*
Y-0210164D01*
X0095758Y-0214162D01*
Y-0215162D01*
X0101756Y-0211163D02*
X0102756D01*
Y-0212163D01*
X0101756D01*
Y-0211163D01*
Y-0214162D02*
X0102756D01*
Y-0215162D01*
X0101756D01*
Y-0214162D01*
X0106755Y-0215162D02*
X0108754D01*
X0107754D01*
Y-0209164D01*
X0106755Y-0210164D01*
X0111753Y-0214162D02*
X0112753Y-0215162D01*
X0114752D01*
X0115752Y-0214162D01*
Y-0210164D01*
X0114752Y-0209164D01*
X0112753D01*
X0111753Y-0210164D01*
Y-0211163D01*
X0112753Y-0212163D01*
X0115752D01*
X0123749Y-0215162D02*
Y-0209164D01*
X0126748D01*
X0127748Y-0210164D01*
Y-0212163D01*
X0126748Y-0213163D01*
X0123749D01*
X0129747Y-0215162D02*
Y-0209164D01*
X0131746Y-0211163D01*
X0133746Y-0209164D01*
Y-0215162D01*
X0205214Y-0209164D02*
X0209212D01*
X0207213D01*
Y-0215162D01*
X0215210Y-0209164D02*
X0211212D01*
Y-0215162D01*
X0215210D01*
X0211212Y-0212163D02*
X0213211D01*
X0217210Y-0209164D02*
X0221208Y-0215162D01*
Y-0209164D02*
X0217210Y-0215162D01*
X0223208D02*
Y-0211163D01*
X0225207Y-0209164D01*
X0227206Y-0211163D01*
Y-0215162D01*
Y-0212163D01*
X0223208D01*
X0233205Y-0210164D02*
X0232205Y-0209164D01*
X0230205D01*
X0229206Y-0210164D01*
Y-0211163D01*
X0230205Y-0212163D01*
X0232205D01*
X0233205Y-0213163D01*
Y-0214162D01*
X0232205Y-0215162D01*
X0230205D01*
X0229206Y-0214162D01*
X0241202Y-0209164D02*
X0243201D01*
X0242202D01*
Y-0215162D01*
X0241202D01*
X0243201D01*
X0246200D02*
Y-0209164D01*
X0250199Y-0215162D01*
Y-0209164D01*
X0256197Y-0210164D02*
X0255197Y-0209164D01*
X0253198D01*
X0252198Y-0210164D01*
Y-0211163D01*
X0253198Y-0212163D01*
X0255197D01*
X0256197Y-0213163D01*
Y-0214162D01*
X0255197Y-0215162D01*
X0253198D01*
X0252198Y-0214162D01*
X0258196Y-0209164D02*
X0262195D01*
X0260196D01*
Y-0215162D01*
X0264194D02*
Y-0209164D01*
X0267194D01*
X0268193Y-0210164D01*
Y-0212163D01*
X0267194Y-0213163D01*
X0264194D01*
X0266194D02*
X0268193Y-0215162D01*
X0270193Y-0209164D02*
Y-0214162D01*
X0271192Y-0215162D01*
X0273192D01*
X0274191Y-0214162D01*
Y-0209164D01*
X0276191Y-0215162D02*
Y-0209164D01*
X0278190Y-0211163D01*
X0280189Y-0209164D01*
Y-0215162D01*
X0286187Y-0209164D02*
X0282189D01*
Y-0215162D01*
X0286187D01*
X0282189Y-0212163D02*
X0284188D01*
X0288187Y-0215162D02*
Y-0209164D01*
X0292185Y-0215162D01*
Y-0209164D01*
X0294185D02*
X0298183D01*
X0296184D01*
Y-0215162D01*
X0304182Y-0210164D02*
X0303182Y-0209164D01*
X0301183D01*
X0300183Y-0210164D01*
Y-0211163D01*
X0301183Y-0212163D01*
X0303182D01*
X0304182Y-0213163D01*
Y-0214162D01*
X0303182Y-0215162D01*
X0301183D01*
X0300183Y-0214162D01*
X-0081286Y-0188630D02*
X-0077288D01*
X-0079287D01*
Y-0194629D01*
X-0075288Y-0188630D02*
X-0073289D01*
X-0074289D01*
Y-0194629D01*
X-0075288D01*
X-0073289D01*
X-0070290Y-0188630D02*
Y-0194629D01*
X-0067291D01*
X-0066291Y-0193629D01*
Y-0189630D01*
X-0067291Y-0188630D01*
X-0070290D01*
X-0057294Y-0194629D02*
Y-0188630D01*
X-0055295D02*
Y-0194629D01*
X-0058294Y-0190630D02*
X-0055295D01*
X-0054295D01*
X-0058294Y-0192629D02*
X-0054295D01*
X-0052296Y-0190630D02*
X-0051296D01*
Y-0191630D01*
X-0052296D01*
Y-0190630D01*
Y-0193629D02*
X-0051296D01*
Y-0194629D01*
X-0052296D01*
Y-0193629D01*
X-0026736Y-0194629D02*
Y-0188630D01*
X-0022738Y-0194629D01*
Y-0188630D01*
X-0020738Y-0194629D02*
X-0016740Y-0190630D01*
X-0014740Y-0194629D02*
Y-0190630D01*
X-0012741Y-0188630D01*
X-0010742Y-0190630D01*
Y-0194629D01*
Y-0191630D01*
X-0014740D01*
G54D17*
X0130611Y0020124D02*
G03*
X0121162Y0020124I-0004724J0000000D01*
G01*
X0245348Y0034600D02*
G03*
X0251598Y0031500I0003900J0000012D01*
G01*
X0012898Y0031400D02*
G03*
X0019148Y0034703I0002355J0003109D01*
G01*
X0172440Y0230459D02*
G03*
X0175917Y0230460I0001739J-0000021D01*
G01*
X0192800Y0228700D02*
G03*
X0194618Y0230460I0000029J0001789D01*
G01*
X0191074D02*
G03*
X0192800Y0228700I0001743J-0000017D01*
G01*
X0235498Y0023600D02*
X0235550Y-0000350D01*
X0130611Y-0000349D02*
Y0020124D01*
X0121162Y-0000349D02*
Y0020124D01*
X0130611Y-0000349D02*
X0235550Y-0000350D01*
X0028918Y-0000349D02*
X0121162D01*
X0028918D02*
Y0023273D01*
X0000001Y0048000D02*
X0019098D01*
Y0034700D02*
Y0048000D01*
X0011298Y0023600D02*
Y0031400D01*
X0012898D01*
X0011298Y0023600D02*
X0028998D01*
X0245298Y0044359D02*
Y0048000D01*
X0235498Y0023600D02*
X0253198D01*
Y0031500D01*
X0251598D02*
X0253198D01*
X0245298Y0034600D02*
Y0044359D01*
Y0048000D02*
X0310329D01*
Y0000400D02*
Y0048000D01*
Y0000400D02*
X0409857D01*
Y0023610D01*
X0416398D01*
X-0000000Y0048000D02*
Y0236999D01*
X0416398Y0023610D02*
Y0237000D01*
X-0000000Y0236999D02*
X0170362D01*
X0172373Y0234988D01*
X0175917D02*
X0177885Y0236956D01*
X0189106D01*
X0191074Y0234988D01*
X0194618D02*
X0196630Y0237000D01*
X0416398D01*
X0172373Y0230460D02*
Y0234988D01*
X0175917Y0230460D02*
Y0234988D01*
X0194618Y0230460D02*
Y0234988D01*
X0191074Y0230460D02*
Y0234988D01*
X0175917Y0230460D02*
X0175917Y0230460D01*
X0121914Y-0181412D02*
Y-0161079D01*
X0037914Y-0181412D02*
Y-0161079D01*
X-0335286Y-0181412D02*
X0324914D01*
X-0335286Y-0201745D02*
X0324714D01*
X-0335286Y-0222079D02*
X0065214D01*
X-0335236Y-0161079D02*
X0324914D01*
X-0335236Y-0222079D02*
Y-0161079D01*
Y-0222079D02*
X-0177686D01*
X-0335286D02*
Y-0161079D01*
X-0088786Y-0222079D02*
Y-0161079D01*
X0324914Y-0222079D02*
Y-0161079D01*
X0065214Y-0222079D02*
X0324914D01*
X0184114Y-0222729D02*
Y-0202445D01*
M02*
