*
*
G04 PADS Layout (Build Number 2008.43.1) generated Gerber (RS-274-X) file*
G04 PC Version=2.1*
*
%IN "TEX008.pcb"*%
*
%MOIN*%
*
%FSLAX35Y35*%
*
*
*
*
G04 PC Standard Apertures*
*
*
G04 Thermal Relief Aperture macro.*
%AMTER*
1,1,$1,0,0*
1,0,$1-$2,0,0*
21,0,$3,$4,0,0,45*
21,0,$3,$4,0,0,135*
%
*
*
G04 Annular Aperture macro.*
%AMANN*
1,1,$1,0,0*
1,0,$2,0,0*
%
*
*
G04 Odd Aperture macro.*
%AMODD*
1,1,$1,0,0*
1,0,$1-0.005,0,0*
%
*
*
G04 PC Custom Aperture Macros*
*
*
*
*
*
*
G04 PC Aperture Table*
*
%ADD010C,0.001*%
%ADD027C,0.01*%
%ADD033C,0.008*%
%ADD035C,0.032*%
%ADD036C,0.05*%
%ADD037C,0.025*%
%ADD060C,0*%
%ADD074C,0.08*%
%ADD084C,0.07*%
*
*
*
*
G04 PC Circuitry*
G04 Layer Name TEX008.pcb - circuitry*
%LPD*%
*
*
G04 PC Custom Flashes*
G04 Layer Name TEX008.pcb - flashes*
%LPD*%
*
*
G04 PC Circuitry*
G04 Layer Name TEX008.pcb - circuitry*
%LPD*%
*
G54D10*
G54D27*
G01X1293580Y664184D02*
Y654341D01*
X1297670*
X1303466Y664184D02*
X1300739Y654341D01*
X1303466Y664184D02*
X1306193Y654341D01*
X1301761Y657622D02*
X1305170D01*
X1309261Y664184D02*
X1311989Y659497D01*
Y654341*
X1314716Y664184D02*
X1311989Y659497D01*
X1317784Y664184D02*
Y654341D01*
Y664184D02*
X1322216D01*
X1317784Y659497D02*
X1320511D01*
X1317784Y654341D02*
X1322216D01*
X1325284Y664184D02*
Y654341D01*
Y664184D02*
X1328352D01*
X1329375Y663716*
X1329716Y663247*
X1330057Y662309*
Y661372*
X1329716Y660434*
X1329375Y659966*
X1328352Y659497*
X1325284*
X1327670D02*
X1330057Y654341D01*
X1035078Y707903D02*
Y698060D01*
Y707903D02*
X1038146D01*
X1039169Y707435*
X1039509Y706966*
X1039850Y706028*
Y704622*
X1039509Y703685*
X1039169Y703216*
X1038146Y702747*
X1035078*
X1042919Y707903D02*
Y698060D01*
X1047691Y707903D02*
Y698060D01*
X1042919Y703216D02*
X1047691D01*
X1052805Y707903D02*
X1052123Y707435D01*
X1051441Y706497*
X1051100Y705560*
X1050759Y704153*
Y701810*
X1051100Y700403*
X1051441Y699466*
X1052123Y698528*
X1052805Y698060*
X1054169*
X1054850Y698528*
X1055532Y699466*
X1055873Y700403*
X1056214Y701810*
Y704153*
X1055873Y705560*
X1055532Y706497*
X1054850Y707435*
X1054169Y707903*
X1052805*
X1059282D02*
Y698060D01*
Y707903D02*
X1064055Y698060D01*
Y707903D02*
Y698060D01*
X1067123Y707903D02*
Y698060D01*
Y707903D02*
X1071555D01*
X1067123Y703216D02*
X1069850D01*
X1067123Y698060D02*
X1071555D01*
X1074964Y704622D02*
X1074623Y704153D01*
X1074964Y703685*
X1075305Y704153*
X1074964Y704622*
Y698997D02*
X1074623Y698528D01*
X1074964Y698060*
X1075305Y698528*
X1074964Y698997*
X1090646Y707903D02*
X1087237D01*
X1086896Y703685*
X1087237Y704153*
X1088259Y704622*
X1089282*
X1090305Y704153*
X1090987Y703216*
X1091328Y701810*
X1090987Y700872*
X1090646Y699466*
X1089964Y698528*
X1088941Y698060*
X1087919*
X1086896Y698528*
X1086555Y698997*
X1086214Y699935*
X1096441Y707903D02*
X1095419Y707435D01*
X1094737Y706028*
X1094396Y703685*
Y702278*
X1094737Y699935*
X1095419Y698528*
X1096441Y698060*
X1097123*
X1098146Y698528*
X1098828Y699935*
X1099169Y702278*
Y703685*
X1098828Y706028*
X1098146Y707435*
X1097123Y707903*
X1096441*
X1103941D02*
X1102919Y707435D01*
X1102578Y706497*
Y705560*
X1102919Y704622*
X1103600Y704153*
X1104964Y703685*
X1105987Y703216*
X1106669Y702278*
X1107009Y701341*
Y699935*
X1106669Y698997*
X1106328Y698528*
X1105305Y698060*
X1103941*
X1102919Y698528*
X1102578Y698997*
X1102237Y699935*
Y701341*
X1102578Y702278*
X1103259Y703216*
X1104282Y703685*
X1105646Y704153*
X1106328Y704622*
X1106669Y705560*
Y706497*
X1106328Y707435*
X1105305Y707903*
X1103941*
X1110419Y698997D02*
X1110078Y698528D01*
X1110419Y698060*
X1110759Y698528*
X1110419Y698997*
X1118259Y704622D02*
X1117919Y703216D01*
X1117237Y702278*
X1116214Y701810*
X1115873*
X1114850Y702278*
X1114169Y703216*
X1113828Y704622*
Y705091*
X1114169Y706497*
X1114850Y707435*
X1115873Y707903*
X1116214*
X1117237Y707435*
X1117919Y706497*
X1118259Y704622*
Y702278*
X1117919Y699935*
X1117237Y698528*
X1116214Y698060*
X1115532*
X1114509Y698528*
X1114169Y699466*
X1124737Y707903D02*
X1121328Y701341D01*
X1126441*
X1124737Y707903D02*
Y698060D01*
X1134282Y707903D02*
X1130873Y698060D01*
X1129509Y707903D02*
X1134282D01*
X1137691Y698997D02*
X1137350Y698528D01*
X1137691Y698060*
X1138032Y698528*
X1137691Y698997*
X1141441Y705560D02*
Y706028D01*
X1141782Y706966*
X1142123Y707435*
X1142805Y707903*
X1144169*
X1144850Y707435*
X1145191Y706966*
X1145532Y706028*
Y705091*
X1145191Y704153*
X1144509Y702747*
X1141100Y698060*
X1145873*
X1153714Y707903D02*
X1150305Y698060D01*
X1148941Y707903D02*
X1153714D01*
X1158828D02*
X1157805Y707435D01*
X1157123Y706028*
X1156782Y703685*
Y702278*
X1157123Y699935*
X1157805Y698528*
X1158828Y698060*
X1159509*
X1160532Y698528*
X1161214Y699935*
X1161555Y702278*
Y703685*
X1161214Y706028*
X1160532Y707435*
X1159509Y707903*
X1158828*
X1169055Y704622D02*
X1168714Y703216D01*
X1168032Y702278*
X1167009Y701810*
X1166669*
X1165646Y702278*
X1164964Y703216*
X1164623Y704622*
Y705091*
X1164964Y706497*
X1165646Y707435*
X1166669Y707903*
X1167009*
X1168032Y707435*
X1168714Y706497*
X1169055Y704622*
Y702278*
X1168714Y699935*
X1168032Y698528*
X1167009Y698060*
X1166328*
X1165305Y698528*
X1164964Y699466*
X1032578Y726403D02*
Y716560D01*
Y726403D02*
X1035305Y716560D01*
X1038032Y726403D02*
X1035305Y716560D01*
X1038032Y726403D02*
Y716560D01*
X1041100Y726403D02*
X1041441Y725935D01*
X1041782Y726403*
X1041441Y726872*
X1041100Y726403*
X1041441Y723122D02*
Y716560D01*
X1048941Y726403D02*
Y716560D01*
Y721716D02*
X1048259Y722653D01*
X1047578Y723122*
X1046555*
X1045873Y722653*
X1045191Y721716*
X1044850Y720310*
Y719372*
X1045191Y717966*
X1045873Y717028*
X1046555Y716560*
X1047578*
X1048259Y717028*
X1048941Y717966*
X1056100Y726403D02*
Y716560D01*
Y721716D02*
X1055419Y722653D01*
X1054737Y723122*
X1053714*
X1053032Y722653*
X1052350Y721716*
X1052009Y720310*
Y719372*
X1052350Y717966*
X1053032Y717028*
X1053714Y716560*
X1054737*
X1055419Y717028*
X1056100Y717966*
X1059169Y726403D02*
Y716560D01*
X1062237Y720310D02*
X1066328D01*
Y721247*
X1065987Y722185*
X1065646Y722653*
X1064964Y723122*
X1063941*
X1063259Y722653*
X1062578Y721716*
X1062237Y720310*
Y719372*
X1062578Y717966*
X1063259Y717028*
X1063941Y716560*
X1064964*
X1065646Y717028*
X1066328Y717966*
X1069396Y726403D02*
Y716560D01*
Y721716D02*
X1070078Y722653D01*
X1070759Y723122*
X1071782*
X1072464Y722653*
X1073146Y721716*
X1073487Y720310*
Y719372*
X1073146Y717966*
X1072464Y717028*
X1071782Y716560*
X1070759*
X1070078Y717028*
X1069396Y717966*
X1078259Y723122D02*
X1077578Y722653D01*
X1076896Y721716*
X1076555Y720310*
Y719372*
X1076896Y717966*
X1077578Y717028*
X1078259Y716560*
X1079282*
X1079964Y717028*
X1080646Y717966*
X1080987Y719372*
Y720310*
X1080646Y721716*
X1079964Y722653*
X1079282Y723122*
X1078259*
X1084055D02*
Y716560D01*
Y720310D02*
X1084396Y721716D01*
X1085078Y722653*
X1085759Y723122*
X1086782*
X1091555D02*
X1090873Y722653D01*
X1090191Y721716*
X1089850Y720310*
Y719372*
X1090191Y717966*
X1090873Y717028*
X1091555Y716560*
X1092578*
X1093259Y717028*
X1093941Y717966*
X1094282Y719372*
Y720310*
X1093941Y721716*
X1093259Y722653*
X1092578Y723122*
X1091555*
X1098032Y717028D02*
X1097691Y716560D01*
X1097350Y717028*
X1097691Y717497*
X1098032Y717028*
Y716091*
X1097691Y715153*
X1097350Y714685*
X1108941Y726403D02*
Y716560D01*
Y726403D02*
X1111669Y716560D01*
X1114396Y726403D02*
X1111669Y716560D01*
X1114396Y726403D02*
Y716560D01*
X1120191Y726403D02*
X1117464Y716560D01*
X1120191Y726403D02*
X1122919Y716560D01*
X1118487Y719841D02*
X1121896D01*
X1135873Y726403D02*
X1134850Y725935D01*
X1134169Y724528*
X1133828Y722185*
Y720778*
X1134169Y718435*
X1134850Y717028*
X1135873Y716560*
X1136555*
X1137578Y717028*
X1138259Y718435*
X1138600Y720778*
Y722185*
X1138259Y724528*
X1137578Y725935*
X1136555Y726403*
X1135873*
X1142009Y724060D02*
Y724528D01*
X1142350Y725466*
X1142691Y725935*
X1143373Y726403*
X1144737*
X1145419Y725935*
X1145759Y725466*
X1146100Y724528*
Y723591*
X1145759Y722653*
X1145078Y721247*
X1141669Y716560*
X1146441*
X1150191Y726403D02*
X1153941D01*
X1151896Y722653*
X1152919*
X1153600Y722185*
X1153941Y721716*
X1154282Y720310*
Y719372*
X1153941Y717966*
X1153259Y717028*
X1152237Y716560*
X1151214*
X1150191Y717028*
X1149850Y717497*
X1149509Y718435*
X1160759Y726403D02*
X1157350Y719841D01*
X1162464*
X1160759Y726403D02*
Y716560D01*
X1169623Y724997D02*
X1169282Y725935D01*
X1168259Y726403*
X1167578*
X1166555Y725935*
X1165873Y724528*
X1165532Y722185*
Y719841*
X1165873Y717966*
X1166555Y717028*
X1167578Y716560*
X1167919*
X1168941Y717028*
X1169623Y717966*
X1169964Y719372*
Y719841*
X1169623Y721247*
X1168941Y722185*
X1167919Y722653*
X1167578*
X1166555Y722185*
X1165873Y721247*
X1165532Y719841*
X1041078Y743028D02*
X1041759Y743497D01*
X1042782Y744903*
Y735060*
X1045850Y743028D02*
X1046532Y743497D01*
X1047555Y744903*
Y735060*
X1052328Y744903D02*
X1051305Y744435D01*
X1050964Y743497*
Y742560*
X1051305Y741622*
X1051987Y741153*
X1053350Y740685*
X1054373Y740216*
X1055055Y739278*
X1055396Y738341*
Y736935*
X1055055Y735997*
X1054714Y735528*
X1053691Y735060*
X1052328*
X1051305Y735528*
X1050964Y735997*
X1050623Y736935*
Y738341*
X1050964Y739278*
X1051646Y740216*
X1052669Y740685*
X1054032Y741153*
X1054714Y741622*
X1055055Y742560*
Y743497*
X1054714Y744435*
X1053691Y744903*
X1052328*
X1062896D02*
X1059487D01*
X1059146Y740685*
X1059487Y741153*
X1060509Y741622*
X1061532*
X1062555Y741153*
X1063237Y740216*
X1063578Y738810*
X1063237Y737872*
X1062896Y736466*
X1062214Y735528*
X1061191Y735060*
X1060169*
X1059146Y735528*
X1058805Y735997*
X1058464Y736935*
X1079600Y742560D02*
X1079259Y743497D01*
X1078578Y744435*
X1077896Y744903*
X1076532*
X1075850Y744435*
X1075169Y743497*
X1074828Y742560*
X1074487Y741153*
Y738810*
X1074828Y737403*
X1075169Y736466*
X1075850Y735528*
X1076532Y735060*
X1077896*
X1078578Y735528*
X1079259Y736466*
X1079600Y737403*
X1082669Y738810D02*
X1086759D01*
Y739747*
X1086419Y740685*
X1086078Y741153*
X1085396Y741622*
X1084373*
X1083691Y741153*
X1083009Y740216*
X1082669Y738810*
Y737872*
X1083009Y736466*
X1083691Y735528*
X1084373Y735060*
X1085396*
X1086078Y735528*
X1086759Y736466*
X1089828Y741622D02*
Y735060D01*
Y739747D02*
X1090850Y741153D01*
X1091532Y741622*
X1092555*
X1093237Y741153*
X1093578Y739747*
Y735060*
X1097669Y744903D02*
Y736935D01*
X1098009Y735528*
X1098691Y735060*
X1099373*
X1096646Y741622D02*
X1099032D01*
X1102441D02*
Y735060D01*
Y738810D02*
X1102782Y740216D01*
X1103464Y741153*
X1104146Y741622*
X1105169*
X1108237Y738810D02*
X1112328D01*
Y739747*
X1111987Y740685*
X1111646Y741153*
X1110964Y741622*
X1109941*
X1109259Y741153*
X1108578Y740216*
X1108237Y738810*
Y737872*
X1108578Y736466*
X1109259Y735528*
X1109941Y735060*
X1110964*
X1111646Y735528*
X1112328Y736466*
X1128009Y743497D02*
X1127328Y744435D01*
X1126305Y744903*
X1124941*
X1123919Y744435*
X1123237Y743497*
Y742560*
X1123578Y741622*
X1123919Y741153*
X1124600Y740685*
X1126646Y739747*
X1127328Y739278*
X1127669Y738810*
X1128009Y737872*
Y736466*
X1127328Y735528*
X1126305Y735060*
X1124941*
X1123919Y735528*
X1123237Y736466*
X1132100Y744903D02*
Y736935D01*
X1132441Y735528*
X1133123Y735060*
X1133805*
X1131078Y741622D02*
X1133464D01*
X1136873D02*
Y735060D01*
Y738810D02*
X1137214Y740216D01*
X1137896Y741153*
X1138578Y741622*
X1139600*
X1142669Y738810D02*
X1146759D01*
Y739747*
X1146419Y740685*
X1146078Y741153*
X1145396Y741622*
X1144373*
X1143691Y741153*
X1143009Y740216*
X1142669Y738810*
Y737872*
X1143009Y736466*
X1143691Y735528*
X1144373Y735060*
X1145396*
X1146078Y735528*
X1146759Y736466*
X1149828Y738810D02*
X1153919D01*
Y739747*
X1153578Y740685*
X1153237Y741153*
X1152555Y741622*
X1151532*
X1150850Y741153*
X1150169Y740216*
X1149828Y738810*
Y737872*
X1150169Y736466*
X1150850Y735528*
X1151532Y735060*
X1152555*
X1153237Y735528*
X1153919Y736466*
X1158009Y744903D02*
Y736935D01*
X1158350Y735528*
X1159032Y735060*
X1159714*
X1156987Y741622D02*
X1159373D01*
X1160091Y664013D02*
X1161000Y664638D01*
X1161000D02*
X1162364Y666513D01*
X1162364D02*
Y653387D01*
X1166455Y664013D02*
X1167364Y664638D01*
X1167364D02*
X1168727Y666513D01*
X1168727D02*
Y653387D01*
X1181000Y669013D02*
X1172818Y649012D01*
X1185545Y663388D02*
Y664013D01*
X1185545D02*
X1186000Y665263D01*
X1186000D02*
X1186455Y665888D01*
X1186455D02*
X1187364Y666513D01*
X1187364D02*
X1189182D01*
X1189182D02*
X1190091Y665888D01*
X1190091D02*
X1190545Y665263D01*
X1190545D02*
X1191000Y664013D01*
X1191000D02*
Y662763D01*
X1191000D02*
X1190545Y661513D01*
X1190545D02*
X1189636Y659637D01*
X1189636D02*
X1185091Y653387D01*
X1185091D02*
X1191455D01*
X1200091Y666513D02*
X1195545Y657762D01*
X1195545D02*
X1202364D01*
X1200091Y666513D02*
Y653387D01*
X1214636Y669013D02*
X1206455Y649012D01*
X1221455Y666513D02*
X1220091Y665888D01*
X1220091D02*
X1219182Y664013D01*
X1219182D02*
X1218727Y660887D01*
X1218727D02*
Y659012D01*
X1218727D02*
X1219182Y655887D01*
X1219182D02*
X1220091Y654012D01*
X1220091D02*
X1221455Y653387D01*
X1221455D02*
X1222364D01*
X1222364D02*
X1223727Y654012D01*
X1223727D02*
X1224636Y655887D01*
X1224636D02*
X1225091Y659012D01*
X1225091D02*
Y660887D01*
X1225091D02*
X1224636Y664013D01*
X1224636D02*
X1223727Y665888D01*
X1223727D02*
X1222364Y666513D01*
X1222364D02*
X1221455D01*
X1235091Y662138D02*
X1234636Y660262D01*
X1234636D02*
X1233727Y659012D01*
X1233727D02*
X1232364Y658387D01*
X1232364D02*
X1231909D01*
X1231909D02*
X1230545Y659012D01*
X1230545D02*
X1229636Y660262D01*
X1229636D02*
X1229182Y662138D01*
X1229182D02*
Y662763D01*
X1229182D02*
X1229636Y664638D01*
X1229636D02*
X1230545Y665888D01*
X1230545D02*
X1231909Y666513D01*
X1231909D02*
X1232364D01*
X1232364D02*
X1233727Y665888D01*
X1233727D02*
X1234636Y664638D01*
X1234636D02*
X1235091Y662138D01*
X1235091D02*
Y659012D01*
X1235091D02*
X1234636Y655887D01*
X1234636D02*
X1233727Y654012D01*
X1233727D02*
X1232364Y653387D01*
X1232364D02*
X1231455D01*
X1231455D02*
X1230091Y654012D01*
X1230091D02*
X1229636Y655262D01*
X838909Y666344D02*
Y658844D01*
X838568Y657438*
X838568D02*
X838227Y656969D01*
X837545Y656500*
X836864*
X836182Y656969*
X835841Y657438*
X835841D02*
X835500Y658844D01*
Y659781*
X843682Y663063D02*
X843000Y662594D01*
X842318Y661656*
X841977Y660250*
Y659313*
X841977D02*
X842318Y657906D01*
X843000Y656969*
X843682Y656500*
X844705*
X845386Y656969*
X846068Y657906*
X846409Y659313*
X846409D02*
Y660250D01*
X846068Y661656*
X845386Y662594*
X844705Y663063*
X844705D02*
X843682D01*
X849477Y666344D02*
Y656500D01*
Y661656D02*
X850159Y662594D01*
X850841Y663063*
X850841D02*
X851864D01*
X851864D02*
X852545Y662594D01*
X853227Y661656*
X853568Y660250*
Y659313*
X853568D02*
X853227Y657906D01*
X852545Y656969*
X851864Y656500*
X850841*
X850159Y656969*
X849477Y657906*
X864477Y666344D02*
Y656500D01*
Y666344D02*
X869250Y656500D01*
Y666344D02*
Y656500D01*
X874023Y663063D02*
X873341Y662594D01*
X872659Y661656*
X872318Y660250*
Y659313*
X872318D02*
X872659Y657906D01*
X873341Y656969*
X874023Y656500*
X875045*
X875727Y656969*
X876409Y657906*
X876750Y659313*
X876750D02*
Y660250D01*
X876409Y661656*
X875727Y662594*
X875045Y663063*
X875045D02*
X874023D01*
X880159D02*
X879818Y662594D01*
X880159Y662125*
X880500Y662594*
X880159Y663063*
Y657438D02*
X879818Y656969D01*
X880159Y656500*
X880500Y656969*
X880159Y657438*
X1041000Y663544D02*
Y653700D01*
Y663544D02*
X1043386D01*
X1044409Y663075*
X1045091Y662138*
X1045091D02*
X1045432Y661200D01*
X1045773Y659794*
Y657450*
X1045432Y656044*
X1045091Y655106*
X1044409Y654169*
X1043386Y653700*
X1041000*
X1052932Y660263D02*
Y653700D01*
Y658856D02*
X1052250Y659794D01*
X1051568Y660263*
X1051568D02*
X1050545D01*
X1050545D02*
X1049864Y659794D01*
X1049182Y658856*
X1048841Y657450*
Y656513*
X1048841D02*
X1049182Y655106D01*
X1049864Y654169*
X1050545Y653700*
X1051568*
X1052250Y654169*
X1052932Y655106*
X1057023Y663544D02*
Y655575D01*
X1057364Y654169*
X1058045Y653700*
X1058727*
X1056000Y660263D02*
X1058386D01*
X1061795Y657450D02*
X1065886D01*
Y658388*
X1065886D02*
X1065545Y659325D01*
X1065205Y659794*
X1064523Y660263*
X1064523D02*
X1063500D01*
X1063500D02*
X1062818Y659794D01*
X1062136Y658856*
X1061795Y657450*
Y656513*
X1061795D02*
X1062136Y655106D01*
X1062818Y654169*
X1063500Y653700*
X1064523*
X1065205Y654169*
X1065886Y655106*
X1069295Y660263D02*
X1068955Y659794D01*
X1069295Y659325*
X1069636Y659794*
X1069295Y660263*
Y654638D02*
X1068955Y654169D01*
X1069295Y653700*
X1069636Y654169*
X1069295Y654638*
X841305Y763403D02*
X838578Y753560D01*
X841305Y763403D02*
X844032Y753560D01*
X839600Y756841D02*
X843009D01*
X847100Y760122D02*
Y753560D01*
Y757310D02*
X847441Y758716D01*
X848123Y759653*
X848805Y760122*
X849828*
X853919Y763403D02*
Y755435D01*
X854259Y754028*
X854941Y753560*
X855623*
X852896Y760122D02*
X855282D01*
X858691D02*
X860055Y753560D01*
X861419Y760122D02*
X860055Y753560D01*
X861419Y760122D02*
X862782Y753560D01*
X864146Y760122D02*
X862782Y753560D01*
X868919Y760122D02*
X868237Y759653D01*
X867555Y758716*
X867214Y757310*
Y756372*
X867555Y754966*
X868237Y754028*
X868919Y753560*
X869941*
X870623Y754028*
X871305Y754966*
X871646Y756372*
Y757310*
X871305Y758716*
X870623Y759653*
X869941Y760122*
X868919*
X874714D02*
Y753560D01*
Y757310D02*
X875055Y758716D01*
X875737Y759653*
X876419Y760122*
X877441*
X880509Y763403D02*
Y753560D01*
X883919Y760122D02*
X880509Y755435D01*
X881873Y757310D02*
X884259Y753560D01*
X895169Y763403D02*
Y753560D01*
Y763403D02*
X897555D01*
X898578Y762935*
X899259Y761997*
X899600Y761060*
X899941Y759653*
Y757310*
X899600Y755903*
X899259Y754966*
X898578Y754028*
X897555Y753560*
X895169*
X903009Y757310D02*
X907100D01*
Y758247*
X906759Y759185*
X906419Y759653*
X905737Y760122*
X904714*
X904032Y759653*
X903350Y758716*
X903009Y757310*
Y756372*
X903350Y754966*
X904032Y754028*
X904714Y753560*
X905737*
X906419Y754028*
X907100Y754966*
X913919Y758716D02*
X913578Y759653D01*
X912555Y760122*
X911532*
X910509Y759653*
X910169Y758716*
X910509Y757778*
X911191Y757310*
X912896Y756841*
X913578Y756372*
X913919Y755435*
Y754966*
X913578Y754028*
X912555Y753560*
X911532*
X910509Y754028*
X910169Y754966*
X916987Y763403D02*
X917328Y762935D01*
X917669Y763403*
X917328Y763872*
X916987Y763403*
X917328Y760122D02*
Y753560D01*
X924828Y760122D02*
Y752622D01*
X924487Y751216*
X924146Y750747*
X923464Y750278*
X922441*
X921759Y750747*
X924828Y758716D02*
X924146Y759653D01*
X923464Y760122*
X922441*
X921759Y759653*
X921078Y758716*
X920737Y757310*
Y756372*
X921078Y754966*
X921759Y754028*
X922441Y753560*
X923464*
X924146Y754028*
X924828Y754966*
X927896Y760122D02*
Y753560D01*
Y758247D02*
X928919Y759653D01*
X929600Y760122*
X930623*
X931305Y759653*
X931646Y758247*
Y753560*
X934714Y757310D02*
X938805D01*
Y758247*
X938464Y759185*
X938123Y759653*
X937441Y760122*
X936419*
X935737Y759653*
X935055Y758716*
X934714Y757310*
Y756372*
X935055Y754966*
X935737Y754028*
X936419Y753560*
X937441*
X938123Y754028*
X938805Y754966*
X945964Y763403D02*
Y753560D01*
Y758716D02*
X945282Y759653D01*
X944600Y760122*
X943578*
X942896Y759653*
X942214Y758716*
X941873Y757310*
Y756372*
X942214Y754966*
X942896Y754028*
X943578Y753560*
X944600*
X945282Y754028*
X945964Y754966*
X956873Y763403D02*
Y753560D01*
Y763403D02*
X959941D01*
X960964Y762935*
X961305Y762466*
X961646Y761528*
Y760591*
X961305Y759653*
X960964Y759185*
X959941Y758716*
X956873D02*
X959941D01*
X960964Y758247*
X961305Y757778*
X961646Y756841*
Y755435*
X961305Y754497*
X960964Y754028*
X959941Y753560*
X956873*
X965055Y760122D02*
X967100Y753560D01*
X969146Y760122D02*
X967100Y753560D01*
X966419Y751685*
X965737Y750747*
X965055Y750278*
X964714*
X972555Y760122D02*
X972214Y759653D01*
X972555Y759185*
X972896Y759653*
X972555Y760122*
Y754497D02*
X972214Y754028D01*
X972555Y753560*
X972896Y754028*
X972555Y754497*
X983805Y763403D02*
X985509Y753560D01*
X987214Y763403D02*
X985509Y753560D01*
X987214Y763403D02*
X988919Y753560D01*
X990623Y763403D02*
X988919Y753560D01*
X993691Y763403D02*
X994032Y762935D01*
X994373Y763403*
X994032Y763872*
X993691Y763403*
X994032Y760122D02*
Y753560D01*
X997441Y763403D02*
Y753560D01*
X1000509Y763403D02*
Y753560D01*
X1005282Y760122D02*
X1004600Y759653D01*
X1003919Y758716*
X1003578Y757310*
Y756372*
X1003919Y754966*
X1004600Y754028*
X1005282Y753560*
X1006305*
X1006987Y754028*
X1007669Y754966*
X1008009Y756372*
Y757310*
X1007669Y758716*
X1006987Y759653*
X1006305Y760122*
X1005282*
X1011078D02*
X1012441Y753560D01*
X1013805Y760122D02*
X1012441Y753560D01*
X1013805Y760122D02*
X1015169Y753560D01*
X1016532Y760122D02*
X1015169Y753560D01*
X1032214Y761997D02*
X1031532Y762935D01*
X1030509Y763403*
X1029146*
X1028123Y762935*
X1027441Y761997*
Y761060*
X1027782Y760122*
X1028123Y759653*
X1028805Y759185*
X1030850Y758247*
X1031532Y757778*
X1031873Y757310*
X1032214Y756372*
Y754966*
X1031532Y754028*
X1030509Y753560*
X1029146*
X1028123Y754028*
X1027441Y754966*
X1035282Y760122D02*
Y750278D01*
Y758716D02*
X1035964Y759653D01*
X1036646Y760122*
X1037669*
X1038350Y759653*
X1039032Y758716*
X1039373Y757310*
Y756372*
X1039032Y754966*
X1038350Y754028*
X1037669Y753560*
X1036646*
X1035964Y754028*
X1035282Y754966*
X1042441Y760122D02*
Y753560D01*
Y757310D02*
X1042782Y758716D01*
X1043464Y759653*
X1044146Y760122*
X1045169*
X1048237Y763403D02*
X1048578Y762935D01*
X1048919Y763403*
X1048578Y763872*
X1048237Y763403*
X1048578Y760122D02*
Y753560D01*
X1051987Y760122D02*
Y753560D01*
Y758247D02*
X1053009Y759653D01*
X1053691Y760122*
X1054714*
X1055396Y759653*
X1055737Y758247*
Y753560*
X1062896Y760122D02*
Y752622D01*
X1062555Y751216*
X1062214Y750747*
X1061532Y750278*
X1060509*
X1059828Y750747*
X1062896Y758716D02*
X1062214Y759653D01*
X1061532Y760122*
X1060509*
X1059828Y759653*
X1059146Y758716*
X1058805Y757310*
Y756372*
X1059146Y754966*
X1059828Y754028*
X1060509Y753560*
X1061532*
X1062214Y754028*
X1062896Y754966*
X1076191Y763403D02*
Y753560D01*
X1073805Y763403D02*
X1078578D01*
X1081646Y757310D02*
X1085737D01*
Y758247*
X1085396Y759185*
X1085055Y759653*
X1084373Y760122*
X1083350*
X1082669Y759653*
X1081987Y758716*
X1081646Y757310*
Y756372*
X1081987Y754966*
X1082669Y754028*
X1083350Y753560*
X1084373*
X1085055Y754028*
X1085737Y754966*
X1092896Y758716D02*
X1092214Y759653D01*
X1091532Y760122*
X1090509*
X1089828Y759653*
X1089146Y758716*
X1088805Y757310*
Y756372*
X1089146Y754966*
X1089828Y754028*
X1090509Y753560*
X1091532*
X1092214Y754028*
X1092896Y754966*
X1095964Y763403D02*
Y753560D01*
Y758247D02*
X1096987Y759653D01*
X1097669Y760122*
X1098691*
X1099373Y759653*
X1099714Y758247*
Y753560*
X1102782Y760122D02*
Y753560D01*
Y758247D02*
X1103805Y759653D01*
X1104487Y760122*
X1105509*
X1106191Y759653*
X1106532Y758247*
Y753560*
X1109600Y763403D02*
X1109941Y762935D01*
X1110282Y763403*
X1109941Y763872*
X1109600Y763403*
X1109941Y760122D02*
Y753560D01*
X1117441Y758716D02*
X1116759Y759653D01*
X1116078Y760122*
X1115055*
X1114373Y759653*
X1113691Y758716*
X1113350Y757310*
Y756372*
X1113691Y754966*
X1114373Y754028*
X1115055Y753560*
X1116078*
X1116759Y754028*
X1117441Y754966*
X1124600Y760122D02*
Y753560D01*
Y758716D02*
X1123919Y759653D01*
X1123237Y760122*
X1122214*
X1121532Y759653*
X1120850Y758716*
X1120509Y757310*
Y756372*
X1120850Y754966*
X1121532Y754028*
X1122214Y753560*
X1123237*
X1123919Y754028*
X1124600Y754966*
X1127669Y763403D02*
Y753560D01*
X1143350Y761997D02*
X1142669Y762935D01*
X1141646Y763403*
X1140282*
X1139259Y762935*
X1138578Y761997*
Y761060*
X1138919Y760122*
X1139259Y759653*
X1139941Y759185*
X1141987Y758247*
X1142669Y757778*
X1143009Y757310*
X1143350Y756372*
Y754966*
X1142669Y754028*
X1141646Y753560*
X1140282*
X1139259Y754028*
X1138578Y754966*
X1146419Y757310D02*
X1150509D01*
Y758247*
X1150169Y759185*
X1149828Y759653*
X1149146Y760122*
X1148123*
X1147441Y759653*
X1146759Y758716*
X1146419Y757310*
Y756372*
X1146759Y754966*
X1147441Y754028*
X1148123Y753560*
X1149146*
X1149828Y754028*
X1150509Y754966*
X1153578Y760122D02*
Y753560D01*
Y757310D02*
X1153919Y758716D01*
X1154600Y759653*
X1155282Y760122*
X1156305*
X1159373D02*
X1161419Y753560D01*
X1163464Y760122D02*
X1161419Y753560D01*
X1166532Y763403D02*
X1166873Y762935D01*
X1167214Y763403*
X1166873Y763872*
X1166532Y763403*
X1166873Y760122D02*
Y753560D01*
X1174373Y758716D02*
X1173691Y759653D01*
X1173009Y760122*
X1171987*
X1171305Y759653*
X1170623Y758716*
X1170282Y757310*
Y756372*
X1170623Y754966*
X1171305Y754028*
X1171987Y753560*
X1173009*
X1173691Y754028*
X1174373Y754966*
X1177441Y757310D02*
X1181532D01*
Y758247*
X1181191Y759185*
X1180850Y759653*
X1180169Y760122*
X1179146*
X1178464Y759653*
X1177782Y758716*
X1177441Y757310*
Y756372*
X1177782Y754966*
X1178464Y754028*
X1179146Y753560*
X1180169*
X1180850Y754028*
X1181532Y754966*
X1188350Y758716D02*
X1188009Y759653D01*
X1186987Y760122*
X1185964*
X1184941Y759653*
X1184600Y758716*
X1184941Y757778*
X1185623Y757310*
X1187328Y756841*
X1188009Y756372*
X1188350Y755435*
Y754966*
X1188009Y754028*
X1186987Y753560*
X1185964*
X1184941Y754028*
X1184600Y754966*
X1204373Y761060D02*
X1204032Y761997D01*
X1203350Y762935*
X1202669Y763403*
X1201305*
X1200623Y762935*
X1199941Y761997*
X1199600Y761060*
X1199259Y759653*
Y757310*
X1199600Y755903*
X1199941Y754966*
X1200623Y754028*
X1201305Y753560*
X1202669*
X1203350Y754028*
X1204032Y754966*
X1204373Y755903*
X1209146Y760122D02*
X1208464Y759653D01*
X1207782Y758716*
X1207441Y757310*
Y756372*
X1207782Y754966*
X1208464Y754028*
X1209146Y753560*
X1210169*
X1210850Y754028*
X1211532Y754966*
X1211873Y756372*
Y757310*
X1211532Y758716*
X1210850Y759653*
X1210169Y760122*
X1209146*
X1214941D02*
Y753560D01*
Y757310D02*
X1215282Y758716D01*
X1215964Y759653*
X1216646Y760122*
X1217669*
X1220737D02*
Y750278D01*
Y758716D02*
X1221419Y759653D01*
X1222100Y760122*
X1223123*
X1223805Y759653*
X1224487Y758716*
X1224828Y757310*
Y756372*
X1224487Y754966*
X1223805Y754028*
X1223123Y753560*
X1222100*
X1221419Y754028*
X1220737Y754966*
X1228237Y754497D02*
X1227896Y754028D01*
X1228237Y753560*
X1228578Y754028*
X1228237Y754497*
X906682Y665513D02*
Y652387D01*
X903500Y665513D02*
X909864D01*
X913955D02*
Y652387D01*
Y665513D02*
X919864D01*
X913955Y659262D02*
X917591D01*
X913955Y652387D02*
X919864D01*
X923955Y665513D02*
X930318Y652387D01*
Y665513D02*
X923955Y652387D01*
X934864Y653637D02*
X934409Y653012D01*
X934409D02*
X934864Y652387D01*
X934864D02*
X935318Y653012D01*
X935318D02*
X934864Y653637D01*
X942136Y665513D02*
X940773Y664888D01*
X940773D02*
X939864Y663013D01*
X939864D02*
X939409Y659887D01*
X939409D02*
Y658012D01*
X939409D02*
X939864Y654887D01*
X939864D02*
X940773Y653012D01*
X940773D02*
X942136Y652387D01*
X942136D02*
X943045D01*
X943045D02*
X944409Y653012D01*
X944409D02*
X945318Y654887D01*
X945318D02*
X945773Y658012D01*
X945773D02*
Y659887D01*
X945773D02*
X945318Y663013D01*
X945318D02*
X944409Y664888D01*
X944409D02*
X943045Y665513D01*
X943045D02*
X942136D01*
X952591D02*
X951227Y664888D01*
X951227D02*
X950318Y663013D01*
X950318D02*
X949864Y659887D01*
X949864D02*
Y658012D01*
X949864D02*
X950318Y654887D01*
X950318D02*
X951227Y653012D01*
X951227D02*
X952591Y652387D01*
X952591D02*
X953500D01*
X953500D02*
X954864Y653012D01*
X954864D02*
X955773Y654887D01*
X955773D02*
X956227Y658012D01*
X956227D02*
Y659887D01*
X956227D02*
X955773Y663013D01*
X955773D02*
X954864Y664888D01*
X954864D02*
X953500Y665513D01*
X953500D02*
X952591D01*
X962591D02*
X961227Y664888D01*
X961227D02*
X960773Y663638D01*
X960773D02*
Y662388D01*
X960773D02*
X961227Y661138D01*
X961227D02*
X962136Y660513D01*
X962136D02*
X963955Y659887D01*
X963955D02*
X965318Y659262D01*
X965318D02*
X966227Y658012D01*
X966227D02*
X966682Y656762D01*
X966682D02*
Y654887D01*
X966682D02*
X966227Y653637D01*
X966227D02*
X965773Y653012D01*
X965773D02*
X964409Y652387D01*
X964409D02*
X962591D01*
X962591D02*
X961227Y653012D01*
X961227D02*
X960773Y653637D01*
X960773D02*
X960318Y654887D01*
X960318D02*
Y656762D01*
X960318D02*
X960773Y658012D01*
X960773D02*
X961682Y659262D01*
X961682D02*
X963045Y659887D01*
X963045D02*
X964864Y660513D01*
X964864D02*
X965773Y661138D01*
X965773D02*
X966227Y662388D01*
X966227D02*
Y663638D01*
X966227D02*
X965773Y664888D01*
X965773D02*
X964409Y665513D01*
X964409D02*
X962591D01*
X1260727Y835044D02*
X1258000Y825200D01*
X1260727Y835044D02*
X1263455Y825200D01*
X1259023Y828481D02*
X1262432D01*
X1266523Y831763D02*
Y825200D01*
Y828950D02*
X1266864Y830356D01*
X1267545Y831294*
X1268227Y831763*
X1268227D02*
X1269250D01*
X1273341Y835044D02*
Y827075D01*
X1273682Y825669*
X1274364Y825200*
X1275045*
X1272318Y831763D02*
X1274705D01*
X1278114D02*
X1279477Y825200D01*
X1280841Y831763D02*
X1279477Y825200D01*
X1280841Y831763D02*
X1282205Y825200D01*
X1283568Y831763D02*
X1282205Y825200D01*
X1288341Y831763D02*
X1287659Y831294D01*
X1286977Y830356*
X1286636Y828950*
Y828013*
X1286636D02*
X1286977Y826606D01*
X1287659Y825669*
X1288341Y825200*
X1289364*
X1290045Y825669*
X1290727Y826606*
X1291068Y828013*
X1291068D02*
Y828950D01*
X1290727Y830356*
X1290045Y831294*
X1289364Y831763*
X1289364D02*
X1288341D01*
X1294136D02*
Y825200D01*
Y828950D02*
X1294477Y830356D01*
X1295159Y831294*
X1295841Y831763*
X1295841D02*
X1296864D01*
X1299932Y835044D02*
Y825200D01*
X1303341Y831763D02*
X1299932Y827075D01*
X1301295Y828950D02*
X1303682Y825200D01*
X1314591Y835044D02*
Y825200D01*
Y835044D02*
X1316977D01*
X1318000Y834575*
X1318682Y833638*
X1318682D02*
X1319023Y832700D01*
X1319364Y831294*
Y828950*
X1319023Y827544*
X1318682Y826606*
X1318000Y825669*
X1316977Y825200*
X1314591*
X1322432Y828950D02*
X1326523D01*
Y829888*
X1326523D02*
X1326182Y830825D01*
X1325841Y831294*
X1325159Y831763*
X1325159D02*
X1324136D01*
X1324136D02*
X1323455Y831294D01*
X1322773Y830356*
X1322432Y828950*
Y828013*
X1322432D02*
X1322773Y826606D01*
X1323455Y825669*
X1324136Y825200*
X1325159*
X1325841Y825669*
X1326523Y826606*
X1333341Y830356D02*
X1333000Y831294D01*
X1331977Y831763*
X1331977D02*
X1330955D01*
X1330955D02*
X1329932Y831294D01*
X1329591Y830356*
X1329932Y829419*
X1330614Y828950*
X1332318Y828481*
X1333000Y828013*
X1333000D02*
X1333341Y827075D01*
Y826606*
X1333000Y825669*
X1331977Y825200*
X1330955*
X1329932Y825669*
X1329591Y826606*
X1336409Y835044D02*
X1336750Y834575D01*
X1337091Y835044*
X1336750Y835513*
X1336750D02*
X1336409Y835044D01*
X1336750Y831763D02*
Y825200D01*
X1344250Y831763D02*
Y824262D01*
X1344250D02*
X1343909Y822856D01*
X1343568Y822387*
X1343568D02*
X1342886Y821919D01*
X1341864*
X1341182Y822387*
X1344250Y830356D02*
X1343568Y831294D01*
X1342886Y831763*
X1342886D02*
X1341864D01*
X1341864D02*
X1341182Y831294D01*
X1340500Y830356*
X1340159Y828950*
Y828013*
X1340159D02*
X1340500Y826606D01*
X1341182Y825669*
X1341864Y825200*
X1342886*
X1343568Y825669*
X1344250Y826606*
X1347318Y831763D02*
Y825200D01*
Y829888D02*
X1348341Y831294D01*
X1349023Y831763*
X1349023D02*
X1350045D01*
X1350045D02*
X1350727Y831294D01*
X1351068Y829888*
X1351068D02*
Y825200D01*
X1354136Y828950D02*
X1358227D01*
Y829888*
X1358227D02*
X1357886Y830825D01*
X1357545Y831294*
X1356864Y831763*
X1356864D02*
X1355841D01*
X1355841D02*
X1355159Y831294D01*
X1354477Y830356*
X1354136Y828950*
Y828013*
X1354136D02*
X1354477Y826606D01*
X1355159Y825669*
X1355841Y825200*
X1356864*
X1357545Y825669*
X1358227Y826606*
X1365386Y835044D02*
Y825200D01*
Y830356D02*
X1364705Y831294D01*
X1364023Y831763*
X1364023D02*
X1363000D01*
X1363000D02*
X1362318Y831294D01*
X1361636Y830356*
X1361295Y828950*
Y828013*
X1361295D02*
X1361636Y826606D01*
X1362318Y825669*
X1363000Y825200*
X1364023*
X1364705Y825669*
X1365386Y826606*
X1376295Y835044D02*
Y825200D01*
Y835044D02*
X1380727D01*
X1376295Y830356D02*
X1379023D01*
X1385500Y831763D02*
X1384818Y831294D01*
X1384136Y830356*
X1383795Y828950*
Y828013*
X1383795D02*
X1384136Y826606D01*
X1384818Y825669*
X1385500Y825200*
X1386523*
X1387205Y825669*
X1387886Y826606*
X1388227Y828013*
X1388227D02*
Y828950D01*
X1387886Y830356*
X1387205Y831294*
X1386523Y831763*
X1386523D02*
X1385500D01*
X1391295D02*
Y825200D01*
Y828950D02*
X1391636Y830356D01*
X1392318Y831294*
X1393000Y831763*
X1393000D02*
X1394023D01*
X1397432D02*
X1397091Y831294D01*
X1397432Y830825*
X1397773Y831294*
X1397432Y831763*
Y826138D02*
X1397091Y825669D01*
X1397432Y825200*
X1397773Y825669*
X1397432Y826138*
X1258000Y780044D02*
Y770200D01*
Y780044D02*
X1261068D01*
X1262091Y779575*
X1262432Y779106*
X1262773Y778169*
Y777231*
X1262432Y776294*
X1262091Y775825*
X1261068Y775356*
X1258000D02*
X1261068D01*
X1262091Y774888*
X1262091D02*
X1262432Y774419D01*
X1262773Y773481*
Y772075*
X1262432Y771138*
X1262432D02*
X1262091Y770669D01*
X1261068Y770200*
X1258000*
X1267545Y776763D02*
X1266864Y776294D01*
X1266182Y775356*
X1265841Y773950*
Y773013*
X1265841D02*
X1266182Y771606D01*
X1266864Y770669*
X1267545Y770200*
X1268568*
X1269250Y770669*
X1269932Y771606*
X1270273Y773013*
X1270273D02*
Y773950D01*
X1269932Y775356*
X1269250Y776294*
X1268568Y776763*
X1268568D02*
X1267545D01*
X1277432D02*
Y770200D01*
Y775356D02*
X1276750Y776294D01*
X1276068Y776763*
X1276068D02*
X1275045D01*
X1275045D02*
X1274364Y776294D01*
X1273682Y775356*
X1273341Y773950*
Y773013*
X1273341D02*
X1273682Y771606D01*
X1274364Y770669*
X1275045Y770200*
X1276068*
X1276750Y770669*
X1277432Y771606*
X1280500Y776763D02*
Y770200D01*
Y773950D02*
X1280841Y775356D01*
X1281523Y776294*
X1282205Y776763*
X1282205D02*
X1283227D01*
X1290386Y780044D02*
Y770200D01*
Y775356D02*
X1289705Y776294D01*
X1289023Y776763*
X1289023D02*
X1288000D01*
X1288000D02*
X1287318Y776294D01*
X1286636Y775356*
X1286295Y773950*
Y773013*
X1286295D02*
X1286636Y771606D01*
X1287318Y770669*
X1288000Y770200*
X1289023*
X1289705Y770669*
X1290386Y771606*
X1301295Y780044D02*
Y770200D01*
Y780044D02*
X1303682D01*
X1304705Y779575*
X1305386Y778638*
X1305386D02*
X1305727Y777700D01*
X1306068Y776294*
Y773950*
X1305727Y772544*
X1305386Y771606*
X1304705Y770669*
X1303682Y770200*
X1301295*
X1309136Y773950D02*
X1313227D01*
Y774888*
X1313227D02*
X1312886Y775825D01*
X1312545Y776294*
X1311864Y776763*
X1311864D02*
X1310841D01*
X1310841D02*
X1310159Y776294D01*
X1309477Y775356*
X1309136Y773950*
Y773013*
X1309136D02*
X1309477Y771606D01*
X1310159Y770669*
X1310841Y770200*
X1311864*
X1312545Y770669*
X1313227Y771606*
X1320045Y775356D02*
X1319705Y776294D01*
X1318682Y776763*
X1318682D02*
X1317659D01*
X1317659D02*
X1316636Y776294D01*
X1316295Y775356*
X1316636Y774419*
X1317318Y773950*
X1319023Y773481*
X1319705Y773013*
X1319705D02*
X1320045Y772075D01*
Y771606*
X1319705Y770669*
X1318682Y770200*
X1317659*
X1316636Y770669*
X1316295Y771606*
X1327205Y775356D02*
X1326523Y776294D01*
X1325841Y776763*
X1325841D02*
X1324818D01*
X1324818D02*
X1324136Y776294D01*
X1323455Y775356*
X1323114Y773950*
Y773013*
X1323114D02*
X1323455Y771606D01*
X1324136Y770669*
X1324818Y770200*
X1325841*
X1326523Y770669*
X1327205Y771606*
X1330273Y776763D02*
Y770200D01*
Y773950D02*
X1330614Y775356D01*
X1331295Y776294*
X1331977Y776763*
X1331977D02*
X1333000D01*
X1336068Y780044D02*
X1336409Y779575D01*
X1336750Y780044*
X1336409Y780513*
X1336409D02*
X1336068Y780044D01*
X1336409Y776763D02*
Y770200D01*
X1339818Y776763D02*
Y766919D01*
Y775356D02*
X1340500Y776294D01*
X1341182Y776763*
X1341182D02*
X1342205D01*
X1342205D02*
X1342886Y776294D01*
X1343568Y775356*
X1343909Y773950*
Y773013*
X1343909D02*
X1343568Y771606D01*
X1342886Y770669*
X1342205Y770200*
X1341182*
X1340500Y770669*
X1339818Y771606*
X1348000Y780044D02*
Y772075D01*
X1348341Y770669*
X1349023Y770200*
X1349705*
X1346977Y776763D02*
X1349364D01*
X1352773Y780044D02*
X1353114Y779575D01*
X1353455Y780044*
X1353114Y780513*
X1353114D02*
X1352773Y780044D01*
X1353114Y776763D02*
Y770200D01*
X1358227Y776763D02*
X1357545Y776294D01*
X1356864Y775356*
X1356523Y773950*
Y773013*
X1356523D02*
X1356864Y771606D01*
X1357545Y770669*
X1358227Y770200*
X1359250*
X1359932Y770669*
X1360614Y771606*
X1360955Y773013*
X1360955D02*
Y773950D01*
X1360614Y775356*
X1359932Y776294*
X1359250Y776763*
X1359250D02*
X1358227D01*
X1364023D02*
Y770200D01*
Y774888D02*
X1365045Y776294D01*
X1365727Y776763*
X1365727D02*
X1366750D01*
X1366750D02*
X1367432Y776294D01*
X1367773Y774888*
X1367773D02*
Y770200D01*
X1371182Y776763D02*
X1370841Y776294D01*
X1371182Y775825*
X1371523Y776294*
X1371182Y776763*
Y771138D02*
X1370841Y770669D01*
X1371182Y770200*
X1371523Y770669*
X1371182Y771138*
X1258000Y710044D02*
Y700200D01*
Y710044D02*
X1261068D01*
X1262091Y709575*
X1262432Y709106*
X1262773Y708169*
Y706763*
X1262773D02*
X1262432Y705825D01*
X1262091Y705356*
X1261068Y704888*
X1261068D02*
X1258000D01*
X1269932Y706763D02*
Y700200D01*
Y705356D02*
X1269250Y706294D01*
X1268568Y706763*
X1268568D02*
X1267545D01*
X1267545D02*
X1266864Y706294D01*
X1266182Y705356*
X1265841Y703950*
Y703013*
X1265841D02*
X1266182Y701606D01*
X1266864Y700669*
X1267545Y700200*
X1268568*
X1269250Y700669*
X1269932Y701606*
X1273000Y706763D02*
Y700200D01*
Y703950D02*
X1273341Y705356D01*
X1274023Y706294*
X1274705Y706763*
X1274705D02*
X1275727D01*
X1279818Y710044D02*
Y702075D01*
X1280159Y700669*
X1280841Y700200*
X1281523*
X1278795Y706763D02*
X1281182D01*
X1292432Y710044D02*
Y700200D01*
Y710044D02*
X1297205Y700200D01*
Y710044D02*
Y700200D01*
X1301977Y706763D02*
X1301295Y706294D01*
X1300614Y705356*
X1300273Y703950*
Y703013*
X1300273D02*
X1300614Y701606D01*
X1301295Y700669*
X1301977Y700200*
X1303000*
X1303682Y700669*
X1304364Y701606*
X1304705Y703013*
X1304705D02*
Y703950D01*
X1304364Y705356*
X1303682Y706294*
X1303000Y706763*
X1303000D02*
X1301977D01*
X1308114D02*
X1307773Y706294D01*
X1308114Y705825*
X1308455Y706294*
X1308114Y706763*
Y701138D02*
X1307773Y700669D01*
X1308114Y700200*
X1308455Y700669*
X1308114Y701138*
X1558000Y710044D02*
Y700200D01*
Y710044D02*
X1561068D01*
X1562091Y709575*
X1562432Y709106*
X1562773Y708169*
Y707231*
X1562432Y706294*
X1562091Y705825*
X1561068Y705356*
X1558000*
X1560386D02*
X1562773Y700200D01*
X1565841Y703950D02*
X1569932D01*
Y704888*
X1569932D02*
X1569591Y705825D01*
X1569250Y706294*
X1568568Y706763*
X1568568D02*
X1567545D01*
X1567545D02*
X1566864Y706294D01*
X1566182Y705356*
X1565841Y703950*
Y703013*
X1565841D02*
X1566182Y701606D01*
X1566864Y700669*
X1567545Y700200*
X1568568*
X1569250Y700669*
X1569932Y701606*
X1573000Y706763D02*
X1575045Y700200D01*
X1577091Y706763D02*
X1575045Y700200D01*
X1580159Y710044D02*
X1580500Y709575D01*
X1580841Y710044*
X1580500Y710513*
X1580500D02*
X1580159Y710044D01*
X1580500Y706763D02*
Y700200D01*
X1587659Y705356D02*
X1587318Y706294D01*
X1586295Y706763*
X1586295D02*
X1585273D01*
X1585273D02*
X1584250Y706294D01*
X1583909Y705356*
X1584250Y704419*
X1584932Y703950*
X1586636Y703481*
X1587318Y703013*
X1587318D02*
X1587659Y702075D01*
Y701606*
X1587318Y700669*
X1586295Y700200*
X1585273*
X1584250Y700669*
X1583909Y701606*
X1590727Y710044D02*
X1591068Y709575D01*
X1591409Y710044*
X1591068Y710513*
X1591068D02*
X1590727Y710044D01*
X1591068Y706763D02*
Y700200D01*
X1596182Y706763D02*
X1595500Y706294D01*
X1594818Y705356*
X1594477Y703950*
Y703013*
X1594477D02*
X1594818Y701606D01*
X1595500Y700669*
X1596182Y700200*
X1597205*
X1597886Y700669*
X1598568Y701606*
X1598909Y703013*
X1598909D02*
Y703950D01*
X1598568Y705356*
X1597886Y706294*
X1597205Y706763*
X1597205D02*
X1596182D01*
X1601977D02*
Y700200D01*
Y704888D02*
X1603000Y706294D01*
X1603682Y706763*
X1603682D02*
X1604705D01*
X1604705D02*
X1605386Y706294D01*
X1605727Y704888*
X1605727D02*
Y700200D01*
X1609136Y706763D02*
X1608795Y706294D01*
X1609136Y705825*
X1609477Y706294*
X1609136Y706763*
Y701138D02*
X1608795Y700669D01*
X1609136Y700200*
X1609477Y700669*
X1609136Y701138*
X1359818Y695200D02*
X1359364Y696450D01*
X1358455Y697700*
X1357545Y698325*
X1355727*
X1354818Y697700*
X1353909Y696450*
X1353455Y695200*
X1353000Y693325*
Y690200*
X1353455Y688325*
X1353909Y687075*
X1354818Y685825*
X1355727Y685200*
X1357545*
X1358455Y685825*
X1359364Y687075*
X1359818Y688325*
X1370727Y695200D02*
X1370273Y696450D01*
X1369364Y697700*
X1368455Y698325*
X1366636*
X1365727Y697700*
X1364818Y696450*
X1364364Y695200*
X1363909Y693325*
Y690200*
X1364364Y688325*
X1364818Y687075*
X1365727Y685825*
X1366636Y685200*
X1368455*
X1369364Y685825*
X1370273Y687075*
X1370727Y688325*
X1375273Y695200D02*
Y695825D01*
X1375727Y697075*
X1376182Y697700*
X1377091Y698325*
X1378909*
X1379818Y697700*
X1380273Y697075*
X1380727Y695825*
Y694575*
X1380273Y693325*
X1379364Y691450*
X1374818Y685200*
X1381182*
X1387545Y698325D02*
X1386182Y697700D01*
X1385727Y696450*
Y695200*
X1386182Y693950*
X1387091Y693325*
X1388909Y692700*
X1390273Y692075*
X1391182Y690825*
X1391636Y689575*
Y687700*
X1391182Y686450*
X1390727Y685825*
X1389364Y685200*
X1387545*
X1386182Y685825*
X1385727Y686450*
X1385273Y687700*
Y689575*
X1385727Y690825*
X1386636Y692075*
X1388000Y692700*
X1389818Y693325*
X1390727Y693950*
X1391182Y695200*
Y696450*
X1390727Y697700*
X1389364Y698325*
X1387545*
X1398455D02*
X1397091Y697700D01*
X1396182Y695825*
X1395727Y692700*
Y690825*
X1396182Y687700*
X1397091Y685825*
X1398455Y685200*
X1399364*
X1400727Y685825*
X1401636Y687700*
X1402091Y690825*
Y692700*
X1401636Y695825*
X1400727Y697700*
X1399364Y698325*
X1398455*
X1407091D02*
X1412091D01*
X1409364Y693325*
X1410727*
X1411636Y692700*
X1412091Y692075*
X1412545Y690200*
Y688950*
X1412091Y687075*
X1411182Y685825*
X1409818Y685200*
X1408455*
X1407091Y685825*
X1406636Y686450*
X1406182Y687700*
X1416636Y698325D02*
X1423000Y685200D01*
Y698325D02*
X1416636Y685200D01*
X1629727Y699813D02*
X1630636Y700438D01*
X1630636D02*
X1632000Y702313D01*
X1632000D02*
Y689187D01*
X1636545Y690437D02*
X1636091Y689812D01*
X1636091D02*
X1636545Y689187D01*
X1636545D02*
X1637000Y689812D01*
X1637000D02*
X1636545Y690437D01*
X1642000Y702313D02*
X1647000D01*
X1647000D02*
X1644273Y697313D01*
X1644273D02*
X1645636D01*
X1645636D02*
X1646545Y696687D01*
X1646545D02*
X1647000Y696062D01*
X1647000D02*
X1647455Y694187D01*
X1647455D02*
Y692937D01*
X1647455D02*
X1647000Y691062D01*
X1647000D02*
X1646091Y689812D01*
X1646091D02*
X1644727Y689187D01*
X1644727D02*
X1643364D01*
X1643364D02*
X1642000Y689812D01*
X1642000D02*
X1641545Y690437D01*
X1641545D02*
X1641091Y691687D01*
X1399545Y810513D02*
Y797387D01*
X1396364Y810513D02*
X1402727D01*
X1406818Y802387D02*
X1412273D01*
X1412273D02*
Y803637D01*
X1412273D02*
X1411818Y804887D01*
X1411818D02*
X1411364Y805513D01*
X1411364D02*
X1410455Y806138D01*
X1410455D02*
X1409091D01*
X1409091D02*
X1408182Y805513D01*
X1408182D02*
X1407273Y804262D01*
X1407273D02*
X1406818Y802387D01*
X1406818D02*
Y801137D01*
X1406818D02*
X1407273Y799262D01*
X1407273D02*
X1408182Y798012D01*
X1408182D02*
X1409091Y797387D01*
X1409091D02*
X1410455D01*
X1410455D02*
X1411364Y798012D01*
X1411364D02*
X1412273Y799262D01*
X1416364Y806138D02*
X1421364Y797387D01*
Y806138D02*
X1416364Y797387D01*
X1430909Y806138D02*
Y797387D01*
Y804262D02*
X1430000Y805513D01*
X1430000D02*
X1429091Y806138D01*
X1429091D02*
X1427727D01*
X1427727D02*
X1426818Y805513D01*
X1426818D02*
X1425909Y804262D01*
X1425909D02*
X1425455Y802387D01*
X1425455D02*
Y801137D01*
X1425455D02*
X1425909Y799262D01*
X1425909D02*
X1426818Y798012D01*
X1426818D02*
X1427727Y797387D01*
X1427727D02*
X1429091D01*
X1429091D02*
X1430000Y798012D01*
X1430000D02*
X1430909Y799262D01*
X1440000Y804262D02*
X1439545Y805513D01*
X1439545D02*
X1438182Y806138D01*
X1438182D02*
X1436818D01*
X1436818D02*
X1435455Y805513D01*
X1435455D02*
X1435000Y804262D01*
X1435000D02*
X1435455Y803012D01*
X1435455D02*
X1436364Y802387D01*
X1436364D02*
X1438636Y801762D01*
X1438636D02*
X1439545Y801137D01*
X1439545D02*
X1440000Y799887D01*
X1440000D02*
Y799262D01*
X1440000D02*
X1439545Y798012D01*
X1439545D02*
X1438182Y797387D01*
X1438182D02*
X1436818D01*
X1436818D02*
X1435455Y798012D01*
X1435455D02*
X1435000Y799262D01*
X1454545Y810513D02*
Y797387D01*
X1458636Y806138D02*
Y797387D01*
Y803637D02*
X1460000Y805513D01*
X1460000D02*
X1460909Y806138D01*
X1460909D02*
X1462273D01*
X1462273D02*
X1463182Y805513D01*
X1463182D02*
X1463636Y803637D01*
X1463636D02*
Y797387D01*
X1472727Y804262D02*
X1472273Y805513D01*
X1472273D02*
X1470909Y806138D01*
X1470909D02*
X1469545D01*
X1469545D02*
X1468182Y805513D01*
X1468182D02*
X1467727Y804262D01*
X1467727D02*
X1468182Y803012D01*
X1468182D02*
X1469091Y802387D01*
X1469091D02*
X1471364Y801762D01*
X1471364D02*
X1472273Y801137D01*
X1472273D02*
X1472727Y799887D01*
X1472727D02*
Y799262D01*
X1472727D02*
X1472273Y798012D01*
X1472273D02*
X1470909Y797387D01*
X1470909D02*
X1469545D01*
X1469545D02*
X1468182Y798012D01*
X1468182D02*
X1467727Y799262D01*
X1478182Y810513D02*
Y799887D01*
X1478182D02*
X1478636Y798012D01*
X1478636D02*
X1479545Y797387D01*
X1479545D02*
X1480455D01*
X1476818Y806138D02*
X1480000D01*
X1484545D02*
Y797387D01*
Y802387D02*
X1485000Y804262D01*
X1485000D02*
X1485909Y805513D01*
X1485909D02*
X1486818Y806138D01*
X1486818D02*
X1488182D01*
X1492273D02*
Y799887D01*
X1492273D02*
X1492727Y798012D01*
X1492727D02*
X1493636Y797387D01*
X1493636D02*
X1495000D01*
X1495000D02*
X1495909Y798012D01*
X1495909D02*
X1497273Y799887D01*
Y806138D02*
Y797387D01*
X1501364Y806138D02*
Y797387D01*
Y803637D02*
X1502727Y805513D01*
X1502727D02*
X1503636Y806138D01*
X1503636D02*
X1505000D01*
X1505000D02*
X1505909Y805513D01*
X1505909D02*
X1506364Y803637D01*
X1506364D02*
Y797387D01*
Y803637D02*
X1507727Y805513D01*
X1507727D02*
X1508636Y806138D01*
X1508636D02*
X1510000D01*
X1510000D02*
X1510909Y805513D01*
X1510909D02*
X1511364Y803637D01*
X1511364D02*
Y797387D01*
X1515455Y802387D02*
X1520909D01*
X1520909D02*
Y803637D01*
X1520909D02*
X1520455Y804887D01*
X1520455D02*
X1520000Y805513D01*
X1520000D02*
X1519091Y806138D01*
X1519091D02*
X1517727D01*
X1517727D02*
X1516818Y805513D01*
X1516818D02*
X1515909Y804262D01*
X1515909D02*
X1515455Y802387D01*
X1515455D02*
Y801137D01*
X1515455D02*
X1515909Y799262D01*
X1515909D02*
X1516818Y798012D01*
X1516818D02*
X1517727Y797387D01*
X1517727D02*
X1519091D01*
X1519091D02*
X1520000Y798012D01*
X1520000D02*
X1520909Y799262D01*
X1525000Y806138D02*
Y797387D01*
Y803637D02*
X1526364Y805513D01*
X1526364D02*
X1527273Y806138D01*
X1527273D02*
X1528636D01*
X1528636D02*
X1529545Y805513D01*
X1529545D02*
X1530000Y803637D01*
X1530000D02*
Y797387D01*
X1535455Y810513D02*
Y799887D01*
X1535455D02*
X1535909Y798012D01*
X1535909D02*
X1536818Y797387D01*
X1536818D02*
X1537727D01*
X1534091Y806138D02*
X1537273D01*
X1546818Y804262D02*
X1546364Y805513D01*
X1546364D02*
X1545000Y806138D01*
X1545000D02*
X1543636D01*
X1543636D02*
X1542273Y805513D01*
X1542273D02*
X1541818Y804262D01*
X1541818D02*
X1542273Y803012D01*
X1542273D02*
X1543182Y802387D01*
X1543182D02*
X1545455Y801762D01*
X1545455D02*
X1546364Y801137D01*
X1546364D02*
X1546818Y799887D01*
X1546818D02*
Y799262D01*
X1546818D02*
X1546364Y798012D01*
X1546364D02*
X1545000Y797387D01*
X1545000D02*
X1543636D01*
X1543636D02*
X1542273Y798012D01*
X1542273D02*
X1541818Y799262D01*
X1395941Y746247D02*
X1395487Y747497D01*
X1394578Y748747*
X1393669Y749372*
X1391850*
X1390941Y748747*
X1390032Y747497*
X1389578Y746247*
X1389123Y744372*
Y741247*
X1389578Y739372*
X1390032Y738122*
X1390941Y736872*
X1391850Y736247*
X1393669*
X1394578Y736872*
X1395487Y738122*
X1395941Y739372*
X1406850Y746247D02*
X1406396Y747497D01*
X1405487Y748747*
X1404578Y749372*
X1402759*
X1401850Y748747*
X1400941Y747497*
X1400487Y746247*
X1400032Y744372*
Y741247*
X1400487Y739372*
X1400941Y738122*
X1401850Y736872*
X1402759Y736247*
X1404578*
X1405487Y736872*
X1406396Y738122*
X1406850Y739372*
X1411396Y746247D02*
Y746872D01*
X1411850Y748122*
X1412305Y748747*
X1413214Y749372*
X1415032*
X1415941Y748747*
X1416396Y748122*
X1416850Y746872*
Y745622*
X1416396Y744372*
X1415487Y742497*
X1410941Y736247*
X1417305*
X1423669Y749372D02*
X1422305Y748747D01*
X1421850Y747497*
Y746247*
X1422305Y744997*
X1423214Y744372*
X1425032Y743747*
X1426396Y743122*
X1427305Y741872*
X1427759Y740622*
Y738747*
X1427305Y737497*
X1426850Y736872*
X1425487Y736247*
X1423669*
X1422305Y736872*
X1421850Y737497*
X1421396Y738747*
Y740622*
X1421850Y741872*
X1422759Y743122*
X1424123Y743747*
X1425941Y744372*
X1426850Y744997*
X1427305Y746247*
Y747497*
X1426850Y748747*
X1425487Y749372*
X1423669*
X1434578D02*
X1433214Y748747D01*
X1432305Y746872*
X1431850Y743747*
Y741872*
X1432305Y738747*
X1433214Y736872*
X1434578Y736247*
X1435487*
X1436850Y736872*
X1437759Y738747*
X1438214Y741872*
Y743747*
X1437759Y746872*
X1436850Y748747*
X1435487Y749372*
X1434578*
X1443214D02*
X1448214D01*
X1445487Y744372*
X1446850*
X1447759Y743747*
X1448214Y743122*
X1448669Y741247*
Y739997*
X1448214Y738122*
X1447305Y736872*
X1445941Y736247*
X1444578*
X1443214Y736872*
X1442759Y737497*
X1442305Y738747*
X1452759Y749372D02*
X1459123Y736247D01*
Y749372D02*
X1452759Y736247D01*
X1473669Y749372D02*
Y736247D01*
X1484123Y747497D02*
X1483214Y748747D01*
X1481850Y749372*
X1480032*
X1478669Y748747*
X1477759Y747497*
Y746247*
X1478214Y744997*
X1478669Y744372*
X1479578Y743747*
X1482305Y742497*
X1483214Y741872*
X1483669Y741247*
X1484123Y739997*
Y738122*
X1483214Y736872*
X1481850Y736247*
X1480032*
X1478669Y736872*
X1477759Y738122*
X1490941Y749372D02*
X1490032Y748747D01*
X1489123Y747497*
X1488669Y746247*
X1488214Y744372*
Y741247*
X1488669Y739372*
X1489123Y738122*
X1490032Y736872*
X1490941Y736247*
X1492759*
X1493669Y736872*
X1494578Y738122*
X1495032Y739372*
X1495487Y741247*
Y744372*
X1495032Y746247*
X1494578Y747497*
X1493669Y748747*
X1492759Y749372*
X1490941*
X1510032D02*
Y736247D01*
Y749372D02*
X1513214D01*
X1514578Y748747*
X1515487Y747497*
X1515941Y746247*
X1516396Y744372*
Y741247*
X1515941Y739372*
X1515487Y738122*
X1514578Y736872*
X1513214Y736247*
X1510032*
X1520487Y749372D02*
Y736247D01*
X1524578Y749372D02*
Y736247D01*
Y749372D02*
X1528214Y736247D01*
X1531850Y749372D02*
X1528214Y736247D01*
X1531850Y749372D02*
Y736247D01*
X1535941Y749372D02*
Y736247D01*
Y749372D02*
X1539578Y736247D01*
X1543214Y749372D02*
X1539578Y736247D01*
X1543214Y749372D02*
Y736247D01*
X1347114Y663984D02*
X1350864D01*
X1348818Y660234*
X1349841*
X1350523Y659766*
X1350864Y659297*
X1351205Y657891*
Y656953*
X1350864Y655547*
X1350182Y654609*
X1349159Y654141*
X1348136*
X1347114Y654609*
X1346773Y655078*
X1346432Y656016*
X1499727Y663984D02*
Y654141D01*
X1502795Y660703D02*
Y654141D01*
Y658828D02*
X1503818Y660234D01*
X1504500Y660703*
X1505523*
X1506205Y660234*
X1506545Y658828*
Y654141*
X1510636Y663984D02*
Y656016D01*
X1510977Y654609*
X1511659Y654141*
X1512341*
X1509614Y660703D02*
X1512000D01*
X1515409Y657891D02*
X1519500D01*
Y658828*
X1519159Y659766*
X1518818Y660234*
X1518136Y660703*
X1517114*
X1516432Y660234*
X1515750Y659297*
X1515409Y657891*
Y656953*
X1515750Y655547*
X1516432Y654609*
X1517114Y654141*
X1518136*
X1518818Y654609*
X1519500Y655547*
X1522568Y660703D02*
Y654141D01*
Y657891D02*
X1522909Y659297D01*
X1523591Y660234*
X1524273Y660703*
X1525295*
X1528364D02*
Y654141D01*
Y658828D02*
X1529386Y660234D01*
X1530068Y660703*
X1531091*
X1531773Y660234*
X1532114Y658828*
Y654141*
X1539273Y660703D02*
Y654141D01*
Y659297D02*
X1538591Y660234D01*
X1537909Y660703*
X1536886*
X1536205Y660234*
X1535523Y659297*
X1535182Y657891*
Y656953*
X1535523Y655547*
X1536205Y654609*
X1536886Y654141*
X1537909*
X1538591Y654609*
X1539273Y655547*
X1542341Y663984D02*
Y654141D01*
X1553250Y663984D02*
Y654141D01*
Y663984D02*
X1556318D01*
X1557341Y663516*
X1557682Y663047*
X1558023Y662109*
Y660703*
X1557682Y659766*
X1557341Y659297*
X1556318Y658828*
X1553250*
X1561091Y663984D02*
Y654141D01*
X1568250Y660703D02*
Y654141D01*
Y659297D02*
X1567568Y660234D01*
X1566886Y660703*
X1565864*
X1565182Y660234*
X1564500Y659297*
X1564159Y657891*
Y656953*
X1564500Y655547*
X1565182Y654609*
X1565864Y654141*
X1566886*
X1567568Y654609*
X1568250Y655547*
X1571318Y660703D02*
Y654141D01*
Y658828D02*
X1572341Y660234D01*
X1573023Y660703*
X1574045*
X1574727Y660234*
X1575068Y658828*
Y654141*
X1578136Y657891D02*
X1582227D01*
Y658828*
X1581886Y659766*
X1581545Y660234*
X1580864Y660703*
X1579841*
X1579159Y660234*
X1578477Y659297*
X1578136Y657891*
Y656953*
X1578477Y655547*
X1579159Y654609*
X1579841Y654141*
X1580864*
X1581545Y654609*
X1582227Y655547*
X1593477Y661641D02*
Y662109D01*
X1593818Y663047*
X1594159Y663516*
X1594841Y663984*
X1596205*
X1596886Y663516*
X1597227Y663047*
X1597568Y662109*
Y661172*
X1597227Y660234*
X1596545Y658828*
X1593136Y654141*
X1597909*
X1000500Y1000512D02*
X1354500Y1000300D01*
Y1010300*
X1000500*
Y1000512*
Y1010199D02*
X1354500D01*
X1000500Y1009299D02*
X1354500D01*
X1000500Y1008399D02*
X1354500D01*
X1000500Y1007499D02*
X1354500D01*
X1000500Y1006599D02*
X1354500D01*
X1000500Y1005699D02*
X1354500D01*
X1000500Y1004799D02*
X1354500D01*
X1000500Y1003899D02*
X1354500D01*
X1000500Y1002999D02*
X1354500D01*
X1000500Y1002099D02*
X1354500D01*
X1000500Y1001199D02*
X1354500D01*
G54D33*
X652000Y645200D02*
X1688000D01*
Y1350000*
X652000*
Y645200*
X1253500D02*
X1688000D01*
Y840200*
X1253500*
Y645200*
X1253000Y785200D02*
X1688000D01*
Y645200*
X1253000*
Y785200*
Y675200D02*
X1688000D01*
Y645200*
X1253000*
Y675200*
X1413000*
Y645200*
X1253000*
Y675200*
Y785200D02*
X1688000D01*
Y840200*
X1253000*
Y785200*
Y715200D02*
X1688000D01*
Y785200*
X1253000*
Y715200*
X1553000Y675200D02*
X1688000D01*
Y715200*
X1553000*
Y675200*
X818500Y675700D02*
X1024000D01*
Y645200*
X818500*
Y675700*
X1024000Y645200D02*
X1253500D01*
Y675700*
X1024000*
Y645200*
X818500Y785700D02*
X1253500D01*
Y675700*
X818500*
Y785700*
G54D35*
X1028600Y1027200D03*
X1050500Y1027500D03*
X1067500Y1021000D03*
X1110000Y1012500D03*
X1100000D03*
X1090000D03*
X1085500Y1021000D03*
X1139000Y1015500D03*
X1143000Y1018500D03*
X1146500Y1019500D03*
X1132500Y1016000D03*
X1153000Y1014000D03*
X1140000Y1025500D03*
X1150000Y1022500D03*
X1120000Y1012500D03*
X1169000Y1018000D03*
X1172500Y1018500D03*
X1177500Y1022000D03*
X1156500Y1020000D03*
X1175000Y1020500D03*
X1157500Y1016500D03*
X1161500Y1019000D03*
X1180500Y1022000D03*
X1161500Y1013000D03*
X1190000Y1012500D03*
X1185000D03*
X1195000D03*
X1233500D03*
X1228500D03*
X1218500D03*
X1223500D03*
X1214500Y1014500D03*
X1228000Y1023500D03*
X1199000Y1014500D03*
X1234000Y1023500D03*
X1211500Y1012500D03*
X1203000D03*
X1255000Y1028500D03*
X1254000Y1025500D03*
X1265000Y1014500D03*
X1273500Y1019000D03*
X1248500Y1012500D03*
X1263000Y1024500D03*
X1245000Y1013000D03*
X1240000D03*
X1272000Y1014500D03*
X1251000Y1025000D03*
X1261500Y1012000D03*
X1256000Y1014500D03*
X1257500Y1023500D03*
X1260500Y1027000D03*
X1286500Y1023500D03*
X1277500Y1016000D03*
X1289500Y1020000D03*
X1282500Y1017000D03*
X1283000Y1027500D03*
X1294000Y1022000D03*
X1295000Y1017500D03*
X1286500Y1012500D03*
X1287500Y1016000D03*
X1290500Y1023500D03*
X1305000Y1012500D03*
X1337500Y1015500D03*
X1332500Y1026500D03*
X1341500Y1023000D03*
X1332500Y1015500D03*
X1023500Y1033500D03*
X1023000Y1059500D03*
X1019000Y1044500D03*
X1029500Y1044000D03*
X1039100Y1065600D03*
X1036100Y1060100D03*
X1071500Y1056700D03*
X1059000Y1067700D03*
X1063000Y1060700D03*
X1036500Y1055500D03*
X1071500Y1050700D03*
Y1062700D03*
X1063000Y1048700D03*
X1085000Y1050500D03*
X1090400Y1034500D03*
X1082500Y1034300D03*
X1080000Y1067200D03*
X1104300Y1043700D03*
X1087400Y1054700D03*
X1104100Y1046800D03*
X1094300Y1044900D03*
X1076500Y1067700D03*
X1093000Y1067500D03*
X1082800Y1044000D03*
X1079400Y1046600D03*
X1087800Y1048900D03*
X1090800Y1047100D03*
X1084500Y1067700D03*
X1079000Y1054200D03*
X1104500Y1052800D03*
Y1062600D03*
X1135500Y1042000D03*
X1117400Y1040700D03*
Y1050700D03*
X1140200Y1055700D03*
X1138000Y1035500D03*
X1117400Y1055700D03*
Y1035700D03*
X1123500Y1032000D03*
X1170500Y1038500D03*
X1186000Y1048000D03*
X1181000Y1048500D03*
X1187000Y1045000D03*
X1170500Y1055000D03*
X1177500Y1063000D03*
X1170000Y1061000D03*
X1179500Y1042500D03*
X1180000Y1056000D03*
X1156000Y1068000D03*
X1183500Y1050000D03*
X1169500Y1035500D03*
X1175500Y1037500D03*
X1180000Y1045500D03*
X1164000Y1044500D03*
X1184000Y1030000D03*
X1170000Y1058000D03*
X1155000Y1038000D03*
X1177500Y1059500D03*
X1173000Y1040500D03*
X1169500Y1045000D03*
X1156000Y1065000D03*
X1187500Y1034500D03*
X1189000Y1030000D03*
X1187000Y1063500D03*
Y1059000D03*
X1218000Y1045000D03*
X1202500Y1035500D03*
X1222500Y1068000D03*
X1200000Y1055500D03*
X1232500Y1061000D03*
X1229000D03*
X1199500Y1040500D03*
X1233500Y1042500D03*
X1228500Y1052000D03*
X1199500Y1035000D03*
X1230500Y1042500D03*
X1214500Y1040500D03*
X1210500Y1055500D03*
X1207500Y1035500D03*
X1232500Y1057000D03*
X1232000Y1035500D03*
X1220500Y1036000D03*
X1221500Y1041000D03*
X1228500Y1046000D03*
X1232000Y1065000D03*
X1225000Y1059000D03*
X1223500Y1054000D03*
X1231500Y1052000D03*
X1199000Y1058500D03*
X1269000Y1034000D03*
X1271000Y1049500D03*
X1254000Y1037500D03*
X1251000Y1041000D03*
X1270000Y1052500D03*
X1265500Y1037500D03*
X1262500Y1039500D03*
X1273000Y1040000D03*
X1259000Y1048500D03*
Y1059500D03*
X1262000Y1032500D03*
X1239000Y1059000D03*
Y1062500D03*
X1258000Y1035500D03*
Y1039500D03*
X1235000Y1047000D03*
X1238500D03*
X1234500Y1052000D03*
X1311000Y1035000D03*
X1283500Y1059000D03*
X1289500Y1046500D03*
Y1043500D03*
X1277000D03*
X1289000Y1065000D03*
X1302000Y1059500D03*
X1310000Y1041300D03*
X1287000Y1056500D03*
X1279000Y1030500D03*
X1275000Y1037500D03*
X1278500Y1067000D03*
X1280000Y1050000D03*
X1282500Y1054000D03*
X1300000Y1049500D03*
X1332500Y1045500D03*
X1337500D03*
X1021500Y1087500D03*
X1026000Y1100500D03*
X1028100Y1072100D03*
X1048500Y1087500D03*
X1043000Y1100500D03*
X1065500Y1106200D03*
Y1086000D03*
X1038100Y1070600D03*
X1069500Y1099200D03*
X1058800Y1087700D03*
X1081500Y1093500D03*
X1075500Y1103000D03*
X1074500Y1077200D03*
X1093000Y1103000D03*
X1118000Y1097000D03*
X1118500Y1102000D03*
X1117500Y1087000D03*
X1140700Y1072000D03*
X1140400Y1102000D03*
X1117600Y1092000D03*
X1117500Y1072000D03*
Y1082000D03*
X1169500Y1077500D03*
X1181500Y1076500D03*
X1179500Y1079500D03*
X1165000Y1072000D03*
X1187500Y1087500D03*
X1154500Y1082000D03*
Y1092000D03*
X1182500Y1082000D03*
X1191000Y1088500D03*
X1185000Y1084500D03*
X1154500Y1087000D03*
X1220000Y1070000D03*
X1197500Y1079000D03*
X1216000Y1088000D03*
X1219500D03*
X1220000Y1073000D03*
X1229000Y1072500D03*
X1214000Y1075500D03*
X1225000Y1073000D03*
X1212000Y1087500D03*
X1257000Y1071000D03*
X1237000Y1073500D03*
X1239000Y1089000D03*
X1234500Y1070500D03*
X1261500Y1083000D03*
X1252000Y1072500D03*
X1255500Y1075000D03*
X1242500Y1078000D03*
X1288500Y1087500D03*
X1302500Y1080000D03*
Y1094500D03*
X1312500Y1093500D03*
Y1077000D03*
X1286000Y1091000D03*
X1288000Y1084000D03*
X1332500Y1076500D03*
X1322500Y1077000D03*
Y1094000D03*
X1332500D03*
G54D36*
X1000000Y1000000D02*
X1072500D01*
Y1007946*
X1080374D02*
G75*
G03X1072500I-3937J310D01*
G01X1080374D02*
Y1000000D01*
X1168563*
Y1007839*
X1176437D02*
G03X1168563I-3937J227D01*
G01X1176437D02*
Y1000000D01*
X1355079*
Y1062205*
X1352102*
Y1077953D02*
G03Y1062205I-55J-7874D01*
G01Y1077953D02*
X1355079D01*
Y1112500*
X1000000*
Y1077953*
X1004464*
X1004457Y1062204D02*
G03X1004470Y1077952I-330J7875D01*
G01X1004464Y1062205D02*
X1000000D01*
Y1000000*
X1130000Y1112000D02*
X1000000D01*
Y1078000*
X1004499*
Y1063500D02*
G03Y1078000I-1083J7250D01*
G01Y1063500D02*
X1000000D01*
Y1000000*
X1073500*
Y1012500*
X1076500*
Y1026500*
X1130000*
Y1112000*
G54D37*
X1154000D02*
X1355000D01*
Y1078000*
X1350500*
X1350495Y1077999D02*
G03X1350509Y1061998I1818J-7999D01*
G01X1350500Y1062000D02*
X1355000D01*
Y1004500*
X1201000*
Y1018500*
X1291500*
Y1045500*
X1333000*
Y1084000*
X1341000*
Y1099500*
X1154000*
Y1112000*
X1112500D02*
X1000000D01*
Y1078000*
X1002690*
X1002699Y1062999D02*
G03X1002686Y1077999I1228J7501D01*
G01X1002690Y1063000D02*
X1026000D01*
Y1036500*
X1034000*
Y1057500*
X1069500*
Y1098000*
X1089500*
Y1080500*
X1112500*
Y1112000*
G54D60*
G54D74*
X1160000Y1095000D03*
X1100000D03*
G54D84*
X1041490Y1087458D03*
X1027710D03*
G54D10*
X1158319Y1107600D02*
X1158420D01*
X1161580D02*
X1161681D01*
X1158219Y1107700D02*
X1158624D01*
X1161376D02*
X1161781D01*
X1158119Y1107800D02*
X1158828D01*
X1161173D02*
X1161881D01*
X1158019Y1107900D02*
X1159091D01*
X1160907D02*
X1161981D01*
X1157919Y1108000D02*
X1159524D01*
X1160478D02*
X1162081D01*
X1157819Y1108100D02*
X1162181D01*
X1157719Y1108200D02*
X1162281D01*
X1157855Y1108300D02*
X1162145D01*
X1158031Y1108400D02*
X1161970D01*
X1158207Y1108500D02*
X1161794D01*
X1158383Y1108600D02*
X1161618D01*
X1158671Y1108700D02*
X1161328D01*
X1158984Y1108800D02*
X1161017D01*
X1159518Y1108900D02*
X1160481D01*
X1157800Y1108119D02*
Y1108269D01*
X1157900Y1108019D02*
Y1108326D01*
X1158000Y1107919D02*
Y1108382D01*
X1158100Y1107819D02*
Y1108439D01*
X1158200Y1107719D02*
Y1108496D01*
X1158300Y1107619D02*
Y1108553D01*
X1158400Y1107590D02*
Y1108609D01*
X1158500Y1107639D02*
Y1108645D01*
X1158600Y1107688D02*
Y1108677D01*
X1158700Y1107737D02*
Y1108709D01*
X1158800Y1107786D02*
Y1108741D01*
X1158900Y1107835D02*
Y1108773D01*
X1159000Y1107879D02*
Y1108805D01*
X1159100Y1107902D02*
Y1108837D01*
X1159200Y1107925D02*
Y1108867D01*
X1159300Y1107948D02*
Y1108878D01*
X1159400Y1107971D02*
Y1108888D01*
X1159500Y1107995D02*
Y1108898D01*
X1159600Y1108018D02*
Y1108908D01*
X1159700Y1108030D02*
Y1108919D01*
X1159800Y1108030D02*
Y1108929D01*
X1159900Y1108030D02*
Y1108939D01*
X1160000Y1108030D02*
Y1108950D01*
X1160100Y1108030D02*
Y1108940D01*
X1160200Y1108030D02*
Y1108929D01*
X1160300Y1108030D02*
Y1108919D01*
X1160400Y1108018D02*
Y1108908D01*
X1160500Y1107995D02*
Y1108898D01*
X1160600Y1107972D02*
Y1108888D01*
X1160700Y1107948D02*
Y1108877D01*
X1160800Y1107925D02*
Y1108867D01*
X1160900Y1107902D02*
Y1108838D01*
X1161000Y1107878D02*
Y1108805D01*
X1161100Y1107836D02*
Y1108773D01*
X1161200Y1107787D02*
Y1108741D01*
X1161300Y1107737D02*
Y1108709D01*
X1161400Y1107688D02*
Y1108677D01*
X1161500Y1107639D02*
Y1108645D01*
X1161600Y1107590D02*
Y1108610D01*
X1161700Y1107619D02*
Y1108553D01*
X1161800Y1107719D02*
Y1108496D01*
X1161900Y1107819D02*
Y1108440D01*
X1162000Y1107919D02*
Y1108383D01*
X1162100Y1108019D02*
Y1108326D01*
X1162200Y1108119D02*
Y1108269D01*
X1156731Y1102800D02*
X1156881D01*
X1156674Y1102900D02*
X1156981D01*
X1156617Y1103000D02*
X1157081D01*
X1156561Y1103100D02*
X1157181D01*
X1156504Y1103200D02*
X1157281D01*
X1156447Y1103300D02*
X1157381D01*
X1156390Y1103400D02*
X1157410D01*
X1156355Y1103500D02*
X1157361D01*
X1156323Y1103600D02*
X1157312D01*
X1156291Y1103700D02*
X1157263D01*
X1156259Y1103800D02*
X1157213D01*
X1156227Y1103900D02*
X1157164D01*
X1156195Y1104000D02*
X1157121D01*
X1156163Y1104100D02*
X1157098D01*
X1156133Y1104200D02*
X1157075D01*
X1156123Y1104300D02*
X1157052D01*
X1156112Y1104400D02*
X1157029D01*
X1156102Y1104500D02*
X1157005D01*
X1156092Y1104600D02*
X1156982D01*
X1156081Y1104700D02*
X1156970D01*
X1156071Y1104800D02*
X1156970D01*
X1156060Y1104900D02*
X1156970D01*
X1156050Y1105000D02*
X1156970D01*
X1156060Y1105100D02*
X1156970D01*
X1156071Y1105200D02*
X1156970D01*
X1156081Y1105300D02*
X1156970D01*
X1156092Y1105400D02*
X1156982D01*
X1156102Y1105500D02*
X1157005D01*
X1156112Y1105600D02*
X1157029D01*
X1156123Y1105700D02*
X1157052D01*
X1156133Y1105800D02*
X1157075D01*
X1156163Y1105900D02*
X1157098D01*
X1156195Y1106000D02*
X1157121D01*
X1156227Y1106100D02*
X1157164D01*
X1156259Y1106200D02*
X1157213D01*
X1156291Y1106300D02*
X1157263D01*
X1156323Y1106400D02*
X1157312D01*
X1156355Y1106500D02*
X1157361D01*
X1156390Y1106600D02*
X1157410D01*
X1156447Y1106700D02*
X1157381D01*
X1156504Y1106800D02*
X1157281D01*
X1156561Y1106900D02*
X1157181D01*
X1156617Y1107000D02*
X1157081D01*
X1156674Y1107100D02*
X1156981D01*
X1156731Y1107200D02*
X1156881D01*
X1156100Y1104519D02*
Y1105481D01*
X1156200Y1103983D02*
Y1106017D01*
X1156300Y1103672D02*
Y1106328D01*
X1156400Y1103382D02*
Y1106618D01*
X1156500Y1103206D02*
Y1106794D01*
X1156600Y1103031D02*
Y1106969D01*
X1156700Y1102855D02*
Y1107145D01*
X1156800Y1102719D02*
Y1107281D01*
X1156900Y1102819D02*
Y1107181D01*
X1157000Y1102919D02*
Y1104523D01*
Y1105477D02*
Y1107081D01*
X1157100Y1103019D02*
Y1104092D01*
Y1105908D02*
Y1106981D01*
X1157200Y1103119D02*
Y1103827D01*
Y1106173D02*
Y1106881D01*
X1157300Y1103219D02*
Y1103624D01*
Y1106376D02*
Y1106781D01*
X1157400Y1103319D02*
Y1103420D01*
Y1106580D02*
Y1106681D01*
X1159518Y1101100D02*
X1160481D01*
X1158984Y1101200D02*
X1161017D01*
X1158671Y1101300D02*
X1161328D01*
X1158383Y1101400D02*
X1161618D01*
X1158207Y1101500D02*
X1161794D01*
X1158031Y1101600D02*
X1161970D01*
X1157855Y1101700D02*
X1162145D01*
X1157719Y1101800D02*
X1162281D01*
X1157819Y1101900D02*
X1162181D01*
X1157919Y1102000D02*
X1159524D01*
X1160478D02*
X1162081D01*
X1158019Y1102100D02*
X1159091D01*
X1160907D02*
X1161981D01*
X1158119Y1102200D02*
X1158828D01*
X1161173D02*
X1161881D01*
X1158219Y1102300D02*
X1158624D01*
X1161376D02*
X1161781D01*
X1158319Y1102400D02*
X1158420D01*
X1161580D02*
X1161681D01*
X1157800Y1101731D02*
Y1101881D01*
X1157900Y1101674D02*
Y1101981D01*
X1158000Y1101618D02*
Y1102081D01*
X1158100Y1101561D02*
Y1102181D01*
X1158200Y1101504D02*
Y1102281D01*
X1158300Y1101447D02*
Y1102381D01*
X1158400Y1101391D02*
Y1102410D01*
X1158500Y1101355D02*
Y1102361D01*
X1158600Y1101323D02*
Y1102312D01*
X1158700Y1101291D02*
Y1102263D01*
X1158800Y1101259D02*
Y1102214D01*
X1158900Y1101227D02*
Y1102165D01*
X1159000Y1101195D02*
Y1102121D01*
X1159100Y1101163D02*
Y1102098D01*
X1159200Y1101133D02*
Y1102075D01*
X1159300Y1101122D02*
Y1102052D01*
X1159400Y1101112D02*
Y1102029D01*
X1159500Y1101102D02*
Y1102005D01*
X1159600Y1101092D02*
Y1101982D01*
X1159700Y1101081D02*
Y1101970D01*
X1159800Y1101071D02*
Y1101970D01*
X1159900Y1101061D02*
Y1101970D01*
X1160000Y1101050D02*
Y1101970D01*
X1160100Y1101060D02*
Y1101970D01*
X1160200Y1101071D02*
Y1101970D01*
X1160300Y1101081D02*
Y1101970D01*
X1160400Y1101092D02*
Y1101982D01*
X1160500Y1101102D02*
Y1102005D01*
X1160600Y1101112D02*
Y1102028D01*
X1160700Y1101123D02*
Y1102052D01*
X1160800Y1101133D02*
Y1102075D01*
X1160900Y1101162D02*
Y1102098D01*
X1161000Y1101195D02*
Y1102122D01*
X1161100Y1101227D02*
Y1102164D01*
X1161200Y1101259D02*
Y1102213D01*
X1161300Y1101291D02*
Y1102263D01*
X1161400Y1101323D02*
Y1102312D01*
X1161500Y1101355D02*
Y1102361D01*
X1161600Y1101390D02*
Y1102410D01*
X1161700Y1101447D02*
Y1102381D01*
X1161800Y1101504D02*
Y1102281D01*
X1161900Y1101560D02*
Y1102181D01*
X1162000Y1101617D02*
Y1102081D01*
X1162100Y1101674D02*
Y1101981D01*
X1162200Y1101731D02*
Y1101881D01*
X1163119Y1102800D02*
X1163269D01*
X1163019Y1102900D02*
X1163326D01*
X1162919Y1103000D02*
X1163382D01*
X1162819Y1103100D02*
X1163439D01*
X1162719Y1103200D02*
X1163496D01*
X1162619Y1103300D02*
X1163553D01*
X1162590Y1103400D02*
X1163610D01*
X1162639Y1103500D02*
X1163645D01*
X1162688Y1103600D02*
X1163677D01*
X1162737Y1103700D02*
X1163709D01*
X1162786Y1103800D02*
X1163741D01*
X1162835Y1103900D02*
X1163773D01*
X1162879Y1104000D02*
X1163805D01*
X1162902Y1104100D02*
X1163837D01*
X1162925Y1104200D02*
X1163867D01*
X1162948Y1104300D02*
X1163877D01*
X1162972Y1104400D02*
X1163888D01*
X1162995Y1104500D02*
X1163898D01*
X1163018Y1104600D02*
X1163909D01*
X1163030Y1104700D02*
X1163919D01*
X1163030Y1104800D02*
X1163929D01*
X1163030Y1104900D02*
X1163940D01*
X1163030Y1105000D02*
X1163950D01*
X1163030Y1105100D02*
X1163940D01*
X1163030Y1105200D02*
X1163929D01*
X1163030Y1105300D02*
X1163919D01*
X1163018Y1105400D02*
X1163909D01*
X1162995Y1105500D02*
X1163898D01*
X1162972Y1105600D02*
X1163888D01*
X1162948Y1105700D02*
X1163877D01*
X1162925Y1105800D02*
X1163867D01*
X1162902Y1105900D02*
X1163837D01*
X1162879Y1106000D02*
X1163805D01*
X1162835Y1106100D02*
X1163773D01*
X1162786Y1106200D02*
X1163741D01*
X1162737Y1106300D02*
X1163709D01*
X1162688Y1106400D02*
X1163677D01*
X1162639Y1106500D02*
X1163645D01*
X1162590Y1106600D02*
X1163610D01*
X1162619Y1106700D02*
X1163553D01*
X1162719Y1106800D02*
X1163496D01*
X1162819Y1106900D02*
X1163439D01*
X1162919Y1107000D02*
X1163382D01*
X1163019Y1107100D02*
X1163326D01*
X1163119Y1107200D02*
X1163269D01*
X1162600Y1103319D02*
Y1103420D01*
Y1106580D02*
Y1106681D01*
X1162700Y1103219D02*
Y1103624D01*
Y1106376D02*
Y1106781D01*
X1162800Y1103119D02*
Y1103828D01*
Y1106172D02*
Y1106881D01*
X1162900Y1103019D02*
Y1104091D01*
Y1105909D02*
Y1106981D01*
X1163000Y1102919D02*
Y1104523D01*
Y1105477D02*
Y1107081D01*
X1163100Y1102819D02*
Y1107181D01*
X1163200Y1102719D02*
Y1107281D01*
X1163300Y1102855D02*
Y1107145D01*
X1163400Y1103031D02*
Y1106969D01*
X1163500Y1103207D02*
Y1106793D01*
X1163600Y1103383D02*
Y1106617D01*
X1163700Y1103671D02*
Y1106329D01*
X1163800Y1103984D02*
Y1106016D01*
X1163900Y1104518D02*
Y1105482D01*
X1161648Y1107567D02*
X1162295Y1108215D01*
X1162299Y1108212D02*
G03X1157706Y1108216I-2299J-3212D01*
G01X1157705Y1108215D02*
X1158352Y1107567D01*
X1158357Y1107569D02*
G02X1161648Y1107567I1643J-2569D01*
G01X1157433Y1106648D02*
X1156785Y1107295D01*
X1156788Y1107299D02*
G03Y1102701I3212J-2299D01*
G01X1156785Y1102705D02*
X1157433Y1103352D01*
G02Y1106648I2567J1648*
G01X1158352Y1102433D02*
X1157705Y1101785D01*
X1157706Y1101784D02*
G03X1162299Y1101788I2294J3216D01*
G01X1162295Y1101785D02*
X1161648Y1102433D01*
G02X1158357Y1102431I-1648J2567*
G01X1162567Y1103352D02*
X1163215Y1102705D01*
X1163216Y1102706D02*
G03Y1107294I-3216J2294D01*
G01X1163215Y1107295D02*
X1162567Y1106648D01*
X1162569Y1106643D02*
G02Y1103357I-2569J-1643D01*
G01X1098319Y1107600D02*
X1098420D01*
X1101580D02*
X1101681D01*
X1098219Y1107700D02*
X1098624D01*
X1101376D02*
X1101781D01*
X1098119Y1107800D02*
X1098828D01*
X1101173D02*
X1101881D01*
X1098019Y1107900D02*
X1099091D01*
X1100907D02*
X1101981D01*
X1097919Y1108000D02*
X1099524D01*
X1100478D02*
X1102081D01*
X1097819Y1108100D02*
X1102181D01*
X1097719Y1108200D02*
X1102281D01*
X1097855Y1108300D02*
X1102145D01*
X1098031Y1108400D02*
X1101970D01*
X1098207Y1108500D02*
X1101794D01*
X1098383Y1108600D02*
X1101618D01*
X1098671Y1108700D02*
X1101328D01*
X1098984Y1108800D02*
X1101017D01*
X1099518Y1108900D02*
X1100481D01*
X1097800Y1108119D02*
Y1108269D01*
X1097900Y1108019D02*
Y1108326D01*
X1098000Y1107919D02*
Y1108382D01*
X1098100Y1107819D02*
Y1108439D01*
X1098200Y1107719D02*
Y1108496D01*
X1098300Y1107619D02*
Y1108553D01*
X1098400Y1107590D02*
Y1108609D01*
X1098500Y1107639D02*
Y1108645D01*
X1098600Y1107688D02*
Y1108677D01*
X1098700Y1107737D02*
Y1108709D01*
X1098800Y1107786D02*
Y1108741D01*
X1098900Y1107835D02*
Y1108773D01*
X1099000Y1107879D02*
Y1108805D01*
X1099100Y1107902D02*
Y1108837D01*
X1099200Y1107925D02*
Y1108867D01*
X1099300Y1107948D02*
Y1108878D01*
X1099400Y1107971D02*
Y1108888D01*
X1099500Y1107995D02*
Y1108898D01*
X1099600Y1108018D02*
Y1108908D01*
X1099700Y1108030D02*
Y1108919D01*
X1099800Y1108030D02*
Y1108929D01*
X1099900Y1108030D02*
Y1108939D01*
X1100000Y1108030D02*
Y1108950D01*
X1100100Y1108030D02*
Y1108940D01*
X1100200Y1108030D02*
Y1108929D01*
X1100300Y1108030D02*
Y1108919D01*
X1100400Y1108018D02*
Y1108908D01*
X1100500Y1107995D02*
Y1108898D01*
X1100600Y1107972D02*
Y1108888D01*
X1100700Y1107948D02*
Y1108877D01*
X1100800Y1107925D02*
Y1108867D01*
X1100900Y1107902D02*
Y1108838D01*
X1101000Y1107878D02*
Y1108805D01*
X1101100Y1107836D02*
Y1108773D01*
X1101200Y1107787D02*
Y1108741D01*
X1101300Y1107737D02*
Y1108709D01*
X1101400Y1107688D02*
Y1108677D01*
X1101500Y1107639D02*
Y1108645D01*
X1101600Y1107590D02*
Y1108610D01*
X1101700Y1107619D02*
Y1108553D01*
X1101800Y1107719D02*
Y1108496D01*
X1101900Y1107819D02*
Y1108440D01*
X1102000Y1107919D02*
Y1108383D01*
X1102100Y1108019D02*
Y1108326D01*
X1102200Y1108119D02*
Y1108269D01*
X1096731Y1102800D02*
X1096881D01*
X1096674Y1102900D02*
X1096981D01*
X1096617Y1103000D02*
X1097081D01*
X1096561Y1103100D02*
X1097181D01*
X1096504Y1103200D02*
X1097281D01*
X1096447Y1103300D02*
X1097381D01*
X1096390Y1103400D02*
X1097410D01*
X1096355Y1103500D02*
X1097361D01*
X1096323Y1103600D02*
X1097312D01*
X1096291Y1103700D02*
X1097263D01*
X1096259Y1103800D02*
X1097213D01*
X1096227Y1103900D02*
X1097164D01*
X1096195Y1104000D02*
X1097121D01*
X1096163Y1104100D02*
X1097098D01*
X1096133Y1104200D02*
X1097075D01*
X1096123Y1104300D02*
X1097052D01*
X1096112Y1104400D02*
X1097029D01*
X1096102Y1104500D02*
X1097005D01*
X1096092Y1104600D02*
X1096982D01*
X1096081Y1104700D02*
X1096970D01*
X1096071Y1104800D02*
X1096970D01*
X1096060Y1104900D02*
X1096970D01*
X1096050Y1105000D02*
X1096970D01*
X1096060Y1105100D02*
X1096970D01*
X1096071Y1105200D02*
X1096970D01*
X1096081Y1105300D02*
X1096970D01*
X1096092Y1105400D02*
X1096982D01*
X1096102Y1105500D02*
X1097005D01*
X1096112Y1105600D02*
X1097029D01*
X1096123Y1105700D02*
X1097052D01*
X1096133Y1105800D02*
X1097075D01*
X1096163Y1105900D02*
X1097098D01*
X1096195Y1106000D02*
X1097121D01*
X1096227Y1106100D02*
X1097164D01*
X1096259Y1106200D02*
X1097213D01*
X1096291Y1106300D02*
X1097263D01*
X1096323Y1106400D02*
X1097312D01*
X1096355Y1106500D02*
X1097361D01*
X1096390Y1106600D02*
X1097410D01*
X1096447Y1106700D02*
X1097381D01*
X1096504Y1106800D02*
X1097281D01*
X1096561Y1106900D02*
X1097181D01*
X1096617Y1107000D02*
X1097081D01*
X1096674Y1107100D02*
X1096981D01*
X1096731Y1107200D02*
X1096881D01*
X1096100Y1104519D02*
Y1105481D01*
X1096200Y1103983D02*
Y1106017D01*
X1096300Y1103672D02*
Y1106328D01*
X1096400Y1103382D02*
Y1106618D01*
X1096500Y1103206D02*
Y1106794D01*
X1096600Y1103031D02*
Y1106969D01*
X1096700Y1102855D02*
Y1107145D01*
X1096800Y1102719D02*
Y1107281D01*
X1096900Y1102819D02*
Y1107181D01*
X1097000Y1102919D02*
Y1104523D01*
Y1105477D02*
Y1107081D01*
X1097100Y1103019D02*
Y1104092D01*
Y1105908D02*
Y1106981D01*
X1097200Y1103119D02*
Y1103827D01*
Y1106173D02*
Y1106881D01*
X1097300Y1103219D02*
Y1103624D01*
Y1106376D02*
Y1106781D01*
X1097400Y1103319D02*
Y1103420D01*
Y1106580D02*
Y1106681D01*
X1099518Y1101100D02*
X1100481D01*
X1098984Y1101200D02*
X1101017D01*
X1098671Y1101300D02*
X1101328D01*
X1098383Y1101400D02*
X1101618D01*
X1098207Y1101500D02*
X1101794D01*
X1098031Y1101600D02*
X1101970D01*
X1097855Y1101700D02*
X1102145D01*
X1097719Y1101800D02*
X1102281D01*
X1097819Y1101900D02*
X1102181D01*
X1097919Y1102000D02*
X1099524D01*
X1100478D02*
X1102081D01*
X1098019Y1102100D02*
X1099091D01*
X1100907D02*
X1101981D01*
X1098119Y1102200D02*
X1098828D01*
X1101173D02*
X1101881D01*
X1098219Y1102300D02*
X1098624D01*
X1101376D02*
X1101781D01*
X1098319Y1102400D02*
X1098420D01*
X1101580D02*
X1101681D01*
X1097800Y1101731D02*
Y1101881D01*
X1097900Y1101674D02*
Y1101981D01*
X1098000Y1101618D02*
Y1102081D01*
X1098100Y1101561D02*
Y1102181D01*
X1098200Y1101504D02*
Y1102281D01*
X1098300Y1101447D02*
Y1102381D01*
X1098400Y1101391D02*
Y1102410D01*
X1098500Y1101355D02*
Y1102361D01*
X1098600Y1101323D02*
Y1102312D01*
X1098700Y1101291D02*
Y1102263D01*
X1098800Y1101259D02*
Y1102214D01*
X1098900Y1101227D02*
Y1102165D01*
X1099000Y1101195D02*
Y1102121D01*
X1099100Y1101163D02*
Y1102098D01*
X1099200Y1101133D02*
Y1102075D01*
X1099300Y1101122D02*
Y1102052D01*
X1099400Y1101112D02*
Y1102029D01*
X1099500Y1101102D02*
Y1102005D01*
X1099600Y1101092D02*
Y1101982D01*
X1099700Y1101081D02*
Y1101970D01*
X1099800Y1101071D02*
Y1101970D01*
X1099900Y1101061D02*
Y1101970D01*
X1100000Y1101050D02*
Y1101970D01*
X1100100Y1101060D02*
Y1101970D01*
X1100200Y1101071D02*
Y1101970D01*
X1100300Y1101081D02*
Y1101970D01*
X1100400Y1101092D02*
Y1101982D01*
X1100500Y1101102D02*
Y1102005D01*
X1100600Y1101112D02*
Y1102028D01*
X1100700Y1101123D02*
Y1102052D01*
X1100800Y1101133D02*
Y1102075D01*
X1100900Y1101162D02*
Y1102098D01*
X1101000Y1101195D02*
Y1102122D01*
X1101100Y1101227D02*
Y1102164D01*
X1101200Y1101259D02*
Y1102213D01*
X1101300Y1101291D02*
Y1102263D01*
X1101400Y1101323D02*
Y1102312D01*
X1101500Y1101355D02*
Y1102361D01*
X1101600Y1101390D02*
Y1102410D01*
X1101700Y1101447D02*
Y1102381D01*
X1101800Y1101504D02*
Y1102281D01*
X1101900Y1101560D02*
Y1102181D01*
X1102000Y1101617D02*
Y1102081D01*
X1102100Y1101674D02*
Y1101981D01*
X1102200Y1101731D02*
Y1101881D01*
X1103119Y1102800D02*
X1103269D01*
X1103019Y1102900D02*
X1103326D01*
X1102919Y1103000D02*
X1103382D01*
X1102819Y1103100D02*
X1103439D01*
X1102719Y1103200D02*
X1103496D01*
X1102619Y1103300D02*
X1103553D01*
X1102590Y1103400D02*
X1103610D01*
X1102639Y1103500D02*
X1103645D01*
X1102688Y1103600D02*
X1103677D01*
X1102737Y1103700D02*
X1103709D01*
X1102786Y1103800D02*
X1103741D01*
X1102835Y1103900D02*
X1103773D01*
X1102879Y1104000D02*
X1103805D01*
X1102902Y1104100D02*
X1103837D01*
X1102925Y1104200D02*
X1103867D01*
X1102948Y1104300D02*
X1103877D01*
X1102972Y1104400D02*
X1103888D01*
X1102995Y1104500D02*
X1103898D01*
X1103018Y1104600D02*
X1103909D01*
X1103030Y1104700D02*
X1103919D01*
X1103030Y1104800D02*
X1103929D01*
X1103030Y1104900D02*
X1103940D01*
X1103030Y1105000D02*
X1103950D01*
X1103030Y1105100D02*
X1103940D01*
X1103030Y1105200D02*
X1103929D01*
X1103030Y1105300D02*
X1103919D01*
X1103018Y1105400D02*
X1103909D01*
X1102995Y1105500D02*
X1103898D01*
X1102972Y1105600D02*
X1103888D01*
X1102948Y1105700D02*
X1103877D01*
X1102925Y1105800D02*
X1103867D01*
X1102902Y1105900D02*
X1103837D01*
X1102879Y1106000D02*
X1103805D01*
X1102835Y1106100D02*
X1103773D01*
X1102786Y1106200D02*
X1103741D01*
X1102737Y1106300D02*
X1103709D01*
X1102688Y1106400D02*
X1103677D01*
X1102639Y1106500D02*
X1103645D01*
X1102590Y1106600D02*
X1103610D01*
X1102619Y1106700D02*
X1103553D01*
X1102719Y1106800D02*
X1103496D01*
X1102819Y1106900D02*
X1103439D01*
X1102919Y1107000D02*
X1103382D01*
X1103019Y1107100D02*
X1103326D01*
X1103119Y1107200D02*
X1103269D01*
X1102600Y1103319D02*
Y1103420D01*
Y1106580D02*
Y1106681D01*
X1102700Y1103219D02*
Y1103624D01*
Y1106376D02*
Y1106781D01*
X1102800Y1103119D02*
Y1103828D01*
Y1106172D02*
Y1106881D01*
X1102900Y1103019D02*
Y1104091D01*
Y1105909D02*
Y1106981D01*
X1103000Y1102919D02*
Y1104523D01*
Y1105477D02*
Y1107081D01*
X1103100Y1102819D02*
Y1107181D01*
X1103200Y1102719D02*
Y1107281D01*
X1103300Y1102855D02*
Y1107145D01*
X1103400Y1103031D02*
Y1106969D01*
X1103500Y1103207D02*
Y1106793D01*
X1103600Y1103383D02*
Y1106617D01*
X1103700Y1103671D02*
Y1106329D01*
X1103800Y1103984D02*
Y1106016D01*
X1103900Y1104518D02*
Y1105482D01*
X1101648Y1107567D02*
X1102295Y1108215D01*
X1102299Y1108212D02*
G03X1097706Y1108216I-2299J-3212D01*
G01X1097705Y1108215D02*
X1098352Y1107567D01*
X1098357Y1107569D02*
G02X1101648Y1107567I1643J-2569D01*
G01X1097433Y1106648D02*
X1096785Y1107295D01*
X1096788Y1107299D02*
G03Y1102701I3212J-2299D01*
G01X1096785Y1102705D02*
X1097433Y1103352D01*
G02Y1106648I2567J1648*
G01X1098352Y1102433D02*
X1097705Y1101785D01*
X1097706Y1101784D02*
G03X1102299Y1101788I2294J3216D01*
G01X1102295Y1101785D02*
X1101648Y1102433D01*
G02X1098357Y1102431I-1648J2567*
G01X1102567Y1103352D02*
X1103215Y1102705D01*
X1103216Y1102706D02*
G03Y1107294I-3216J2294D01*
G01X1103215Y1107295D02*
X1102567Y1106648D01*
X1102569Y1106643D02*
G02Y1103357I-2569J-1643D01*
G74*
G01X0Y0D02*
M02*
