*
*
G04 PADS Layout (Build Number 2008.43.1) generated Gerber (RS-274-X) file*
G04 PC Version=2.1*
*
%IN "TEX008.pcb"*%
*
%MOIN*%
*
%FSLAX35Y35*%
*
*
*
*
G04 PC Standard Apertures*
*
*
G04 Thermal Relief Aperture macro.*
%AMTER*
1,1,$1,0,0*
1,0,$1-$2,0,0*
21,0,$3,$4,0,0,45*
21,0,$3,$4,0,0,135*
%
*
*
G04 Annular Aperture macro.*
%AMANN*
1,1,$1,0,0*
1,0,$2,0,0*
%
*
*
G04 Odd Aperture macro.*
%AMODD*
1,1,$1,0,0*
1,0,$1-0.005,0,0*
%
*
*
G04 PC Custom Aperture Macros*
*
*
*
*
*
*
G04 PC Aperture Table*
*
%ADD027C,0.01*%
%ADD033C,0.008*%
%ADD042C,0.006*%
%ADD060C,0*%
*
*
*
*
G04 PC Circuitry*
G04 Layer Name TEX008.pcb - circuitry*
%LPD*%
*
*
G04 PC Custom Flashes*
G04 Layer Name TEX008.pcb - flashes*
%LPD*%
*
*
G04 PC Circuitry*
G04 Layer Name TEX008.pcb - circuitry*
%LPD*%
*
G54D27*
G01X1293580Y664184D02*
Y654341D01*
X1297670*
X1303466Y664184D02*
X1300739Y654341D01*
X1303466Y664184D02*
X1306193Y654341D01*
X1301761Y657622D02*
X1305170D01*
X1309261Y664184D02*
X1311989Y659497D01*
Y654341*
X1314716Y664184D02*
X1311989Y659497D01*
X1317784Y664184D02*
Y654341D01*
Y664184D02*
X1322216D01*
X1317784Y659497D02*
X1320511D01*
X1317784Y654341D02*
X1322216D01*
X1325284Y664184D02*
Y654341D01*
Y664184D02*
X1328352D01*
X1329375Y663716*
X1329716Y663247*
X1330057Y662309*
Y661372*
X1329716Y660434*
X1329375Y659966*
X1328352Y659497*
X1325284*
X1327670D02*
X1330057Y654341D01*
X1035078Y707903D02*
Y698060D01*
Y707903D02*
X1038146D01*
X1039169Y707435*
X1039509Y706966*
X1039850Y706028*
Y704622*
X1039509Y703685*
X1039169Y703216*
X1038146Y702747*
X1035078*
X1042919Y707903D02*
Y698060D01*
X1047691Y707903D02*
Y698060D01*
X1042919Y703216D02*
X1047691D01*
X1052805Y707903D02*
X1052123Y707435D01*
X1051441Y706497*
X1051100Y705560*
X1050759Y704153*
Y701810*
X1051100Y700403*
X1051441Y699466*
X1052123Y698528*
X1052805Y698060*
X1054169*
X1054850Y698528*
X1055532Y699466*
X1055873Y700403*
X1056214Y701810*
Y704153*
X1055873Y705560*
X1055532Y706497*
X1054850Y707435*
X1054169Y707903*
X1052805*
X1059282D02*
Y698060D01*
Y707903D02*
X1064055Y698060D01*
Y707903D02*
Y698060D01*
X1067123Y707903D02*
Y698060D01*
Y707903D02*
X1071555D01*
X1067123Y703216D02*
X1069850D01*
X1067123Y698060D02*
X1071555D01*
X1074964Y704622D02*
X1074623Y704153D01*
X1074964Y703685*
X1075305Y704153*
X1074964Y704622*
Y698997D02*
X1074623Y698528D01*
X1074964Y698060*
X1075305Y698528*
X1074964Y698997*
X1090646Y707903D02*
X1087237D01*
X1086896Y703685*
X1087237Y704153*
X1088259Y704622*
X1089282*
X1090305Y704153*
X1090987Y703216*
X1091328Y701810*
X1090987Y700872*
X1090646Y699466*
X1089964Y698528*
X1088941Y698060*
X1087919*
X1086896Y698528*
X1086555Y698997*
X1086214Y699935*
X1096441Y707903D02*
X1095419Y707435D01*
X1094737Y706028*
X1094396Y703685*
Y702278*
X1094737Y699935*
X1095419Y698528*
X1096441Y698060*
X1097123*
X1098146Y698528*
X1098828Y699935*
X1099169Y702278*
Y703685*
X1098828Y706028*
X1098146Y707435*
X1097123Y707903*
X1096441*
X1103941D02*
X1102919Y707435D01*
X1102578Y706497*
Y705560*
X1102919Y704622*
X1103600Y704153*
X1104964Y703685*
X1105987Y703216*
X1106669Y702278*
X1107009Y701341*
Y699935*
X1106669Y698997*
X1106328Y698528*
X1105305Y698060*
X1103941*
X1102919Y698528*
X1102578Y698997*
X1102237Y699935*
Y701341*
X1102578Y702278*
X1103259Y703216*
X1104282Y703685*
X1105646Y704153*
X1106328Y704622*
X1106669Y705560*
Y706497*
X1106328Y707435*
X1105305Y707903*
X1103941*
X1110419Y698997D02*
X1110078Y698528D01*
X1110419Y698060*
X1110759Y698528*
X1110419Y698997*
X1118259Y704622D02*
X1117919Y703216D01*
X1117237Y702278*
X1116214Y701810*
X1115873*
X1114850Y702278*
X1114169Y703216*
X1113828Y704622*
Y705091*
X1114169Y706497*
X1114850Y707435*
X1115873Y707903*
X1116214*
X1117237Y707435*
X1117919Y706497*
X1118259Y704622*
Y702278*
X1117919Y699935*
X1117237Y698528*
X1116214Y698060*
X1115532*
X1114509Y698528*
X1114169Y699466*
X1124737Y707903D02*
X1121328Y701341D01*
X1126441*
X1124737Y707903D02*
Y698060D01*
X1134282Y707903D02*
X1130873Y698060D01*
X1129509Y707903D02*
X1134282D01*
X1137691Y698997D02*
X1137350Y698528D01*
X1137691Y698060*
X1138032Y698528*
X1137691Y698997*
X1141441Y705560D02*
Y706028D01*
X1141782Y706966*
X1142123Y707435*
X1142805Y707903*
X1144169*
X1144850Y707435*
X1145191Y706966*
X1145532Y706028*
Y705091*
X1145191Y704153*
X1144509Y702747*
X1141100Y698060*
X1145873*
X1153714Y707903D02*
X1150305Y698060D01*
X1148941Y707903D02*
X1153714D01*
X1158828D02*
X1157805Y707435D01*
X1157123Y706028*
X1156782Y703685*
Y702278*
X1157123Y699935*
X1157805Y698528*
X1158828Y698060*
X1159509*
X1160532Y698528*
X1161214Y699935*
X1161555Y702278*
Y703685*
X1161214Y706028*
X1160532Y707435*
X1159509Y707903*
X1158828*
X1169055Y704622D02*
X1168714Y703216D01*
X1168032Y702278*
X1167009Y701810*
X1166669*
X1165646Y702278*
X1164964Y703216*
X1164623Y704622*
Y705091*
X1164964Y706497*
X1165646Y707435*
X1166669Y707903*
X1167009*
X1168032Y707435*
X1168714Y706497*
X1169055Y704622*
Y702278*
X1168714Y699935*
X1168032Y698528*
X1167009Y698060*
X1166328*
X1165305Y698528*
X1164964Y699466*
X1032578Y726403D02*
Y716560D01*
Y726403D02*
X1035305Y716560D01*
X1038032Y726403D02*
X1035305Y716560D01*
X1038032Y726403D02*
Y716560D01*
X1041100Y726403D02*
X1041441Y725935D01*
X1041782Y726403*
X1041441Y726872*
X1041100Y726403*
X1041441Y723122D02*
Y716560D01*
X1048941Y726403D02*
Y716560D01*
Y721716D02*
X1048259Y722653D01*
X1047578Y723122*
X1046555*
X1045873Y722653*
X1045191Y721716*
X1044850Y720310*
Y719372*
X1045191Y717966*
X1045873Y717028*
X1046555Y716560*
X1047578*
X1048259Y717028*
X1048941Y717966*
X1056100Y726403D02*
Y716560D01*
Y721716D02*
X1055419Y722653D01*
X1054737Y723122*
X1053714*
X1053032Y722653*
X1052350Y721716*
X1052009Y720310*
Y719372*
X1052350Y717966*
X1053032Y717028*
X1053714Y716560*
X1054737*
X1055419Y717028*
X1056100Y717966*
X1059169Y726403D02*
Y716560D01*
X1062237Y720310D02*
X1066328D01*
Y721247*
X1065987Y722185*
X1065646Y722653*
X1064964Y723122*
X1063941*
X1063259Y722653*
X1062578Y721716*
X1062237Y720310*
Y719372*
X1062578Y717966*
X1063259Y717028*
X1063941Y716560*
X1064964*
X1065646Y717028*
X1066328Y717966*
X1069396Y726403D02*
Y716560D01*
Y721716D02*
X1070078Y722653D01*
X1070759Y723122*
X1071782*
X1072464Y722653*
X1073146Y721716*
X1073487Y720310*
Y719372*
X1073146Y717966*
X1072464Y717028*
X1071782Y716560*
X1070759*
X1070078Y717028*
X1069396Y717966*
X1078259Y723122D02*
X1077578Y722653D01*
X1076896Y721716*
X1076555Y720310*
Y719372*
X1076896Y717966*
X1077578Y717028*
X1078259Y716560*
X1079282*
X1079964Y717028*
X1080646Y717966*
X1080987Y719372*
Y720310*
X1080646Y721716*
X1079964Y722653*
X1079282Y723122*
X1078259*
X1084055D02*
Y716560D01*
Y720310D02*
X1084396Y721716D01*
X1085078Y722653*
X1085759Y723122*
X1086782*
X1091555D02*
X1090873Y722653D01*
X1090191Y721716*
X1089850Y720310*
Y719372*
X1090191Y717966*
X1090873Y717028*
X1091555Y716560*
X1092578*
X1093259Y717028*
X1093941Y717966*
X1094282Y719372*
Y720310*
X1093941Y721716*
X1093259Y722653*
X1092578Y723122*
X1091555*
X1098032Y717028D02*
X1097691Y716560D01*
X1097350Y717028*
X1097691Y717497*
X1098032Y717028*
Y716091*
X1097691Y715153*
X1097350Y714685*
X1108941Y726403D02*
Y716560D01*
Y726403D02*
X1111669Y716560D01*
X1114396Y726403D02*
X1111669Y716560D01*
X1114396Y726403D02*
Y716560D01*
X1120191Y726403D02*
X1117464Y716560D01*
X1120191Y726403D02*
X1122919Y716560D01*
X1118487Y719841D02*
X1121896D01*
X1135873Y726403D02*
X1134850Y725935D01*
X1134169Y724528*
X1133828Y722185*
Y720778*
X1134169Y718435*
X1134850Y717028*
X1135873Y716560*
X1136555*
X1137578Y717028*
X1138259Y718435*
X1138600Y720778*
Y722185*
X1138259Y724528*
X1137578Y725935*
X1136555Y726403*
X1135873*
X1142009Y724060D02*
Y724528D01*
X1142350Y725466*
X1142691Y725935*
X1143373Y726403*
X1144737*
X1145419Y725935*
X1145759Y725466*
X1146100Y724528*
Y723591*
X1145759Y722653*
X1145078Y721247*
X1141669Y716560*
X1146441*
X1150191Y726403D02*
X1153941D01*
X1151896Y722653*
X1152919*
X1153600Y722185*
X1153941Y721716*
X1154282Y720310*
Y719372*
X1153941Y717966*
X1153259Y717028*
X1152237Y716560*
X1151214*
X1150191Y717028*
X1149850Y717497*
X1149509Y718435*
X1160759Y726403D02*
X1157350Y719841D01*
X1162464*
X1160759Y726403D02*
Y716560D01*
X1169623Y724997D02*
X1169282Y725935D01*
X1168259Y726403*
X1167578*
X1166555Y725935*
X1165873Y724528*
X1165532Y722185*
Y719841*
X1165873Y717966*
X1166555Y717028*
X1167578Y716560*
X1167919*
X1168941Y717028*
X1169623Y717966*
X1169964Y719372*
Y719841*
X1169623Y721247*
X1168941Y722185*
X1167919Y722653*
X1167578*
X1166555Y722185*
X1165873Y721247*
X1165532Y719841*
X1041078Y743028D02*
X1041759Y743497D01*
X1042782Y744903*
Y735060*
X1045850Y743028D02*
X1046532Y743497D01*
X1047555Y744903*
Y735060*
X1052328Y744903D02*
X1051305Y744435D01*
X1050964Y743497*
Y742560*
X1051305Y741622*
X1051987Y741153*
X1053350Y740685*
X1054373Y740216*
X1055055Y739278*
X1055396Y738341*
Y736935*
X1055055Y735997*
X1054714Y735528*
X1053691Y735060*
X1052328*
X1051305Y735528*
X1050964Y735997*
X1050623Y736935*
Y738341*
X1050964Y739278*
X1051646Y740216*
X1052669Y740685*
X1054032Y741153*
X1054714Y741622*
X1055055Y742560*
Y743497*
X1054714Y744435*
X1053691Y744903*
X1052328*
X1062896D02*
X1059487D01*
X1059146Y740685*
X1059487Y741153*
X1060509Y741622*
X1061532*
X1062555Y741153*
X1063237Y740216*
X1063578Y738810*
X1063237Y737872*
X1062896Y736466*
X1062214Y735528*
X1061191Y735060*
X1060169*
X1059146Y735528*
X1058805Y735997*
X1058464Y736935*
X1079600Y742560D02*
X1079259Y743497D01*
X1078578Y744435*
X1077896Y744903*
X1076532*
X1075850Y744435*
X1075169Y743497*
X1074828Y742560*
X1074487Y741153*
Y738810*
X1074828Y737403*
X1075169Y736466*
X1075850Y735528*
X1076532Y735060*
X1077896*
X1078578Y735528*
X1079259Y736466*
X1079600Y737403*
X1082669Y738810D02*
X1086759D01*
Y739747*
X1086419Y740685*
X1086078Y741153*
X1085396Y741622*
X1084373*
X1083691Y741153*
X1083009Y740216*
X1082669Y738810*
Y737872*
X1083009Y736466*
X1083691Y735528*
X1084373Y735060*
X1085396*
X1086078Y735528*
X1086759Y736466*
X1089828Y741622D02*
Y735060D01*
Y739747D02*
X1090850Y741153D01*
X1091532Y741622*
X1092555*
X1093237Y741153*
X1093578Y739747*
Y735060*
X1097669Y744903D02*
Y736935D01*
X1098009Y735528*
X1098691Y735060*
X1099373*
X1096646Y741622D02*
X1099032D01*
X1102441D02*
Y735060D01*
Y738810D02*
X1102782Y740216D01*
X1103464Y741153*
X1104146Y741622*
X1105169*
X1108237Y738810D02*
X1112328D01*
Y739747*
X1111987Y740685*
X1111646Y741153*
X1110964Y741622*
X1109941*
X1109259Y741153*
X1108578Y740216*
X1108237Y738810*
Y737872*
X1108578Y736466*
X1109259Y735528*
X1109941Y735060*
X1110964*
X1111646Y735528*
X1112328Y736466*
X1128009Y743497D02*
X1127328Y744435D01*
X1126305Y744903*
X1124941*
X1123919Y744435*
X1123237Y743497*
Y742560*
X1123578Y741622*
X1123919Y741153*
X1124600Y740685*
X1126646Y739747*
X1127328Y739278*
X1127669Y738810*
X1128009Y737872*
Y736466*
X1127328Y735528*
X1126305Y735060*
X1124941*
X1123919Y735528*
X1123237Y736466*
X1132100Y744903D02*
Y736935D01*
X1132441Y735528*
X1133123Y735060*
X1133805*
X1131078Y741622D02*
X1133464D01*
X1136873D02*
Y735060D01*
Y738810D02*
X1137214Y740216D01*
X1137896Y741153*
X1138578Y741622*
X1139600*
X1142669Y738810D02*
X1146759D01*
Y739747*
X1146419Y740685*
X1146078Y741153*
X1145396Y741622*
X1144373*
X1143691Y741153*
X1143009Y740216*
X1142669Y738810*
Y737872*
X1143009Y736466*
X1143691Y735528*
X1144373Y735060*
X1145396*
X1146078Y735528*
X1146759Y736466*
X1149828Y738810D02*
X1153919D01*
Y739747*
X1153578Y740685*
X1153237Y741153*
X1152555Y741622*
X1151532*
X1150850Y741153*
X1150169Y740216*
X1149828Y738810*
Y737872*
X1150169Y736466*
X1150850Y735528*
X1151532Y735060*
X1152555*
X1153237Y735528*
X1153919Y736466*
X1158009Y744903D02*
Y736935D01*
X1158350Y735528*
X1159032Y735060*
X1159714*
X1156987Y741622D02*
X1159373D01*
X1160091Y664013D02*
X1161000Y664638D01*
X1161000D02*
X1162364Y666513D01*
X1162364D02*
Y653387D01*
X1166455Y664013D02*
X1167364Y664638D01*
X1167364D02*
X1168727Y666513D01*
X1168727D02*
Y653387D01*
X1181000Y669013D02*
X1172818Y649012D01*
X1185545Y663388D02*
Y664013D01*
X1185545D02*
X1186000Y665263D01*
X1186000D02*
X1186455Y665888D01*
X1186455D02*
X1187364Y666513D01*
X1187364D02*
X1189182D01*
X1189182D02*
X1190091Y665888D01*
X1190091D02*
X1190545Y665263D01*
X1190545D02*
X1191000Y664013D01*
X1191000D02*
Y662763D01*
X1191000D02*
X1190545Y661513D01*
X1190545D02*
X1189636Y659637D01*
X1189636D02*
X1185091Y653387D01*
X1185091D02*
X1191455D01*
X1200091Y666513D02*
X1195545Y657762D01*
X1195545D02*
X1202364D01*
X1200091Y666513D02*
Y653387D01*
X1214636Y669013D02*
X1206455Y649012D01*
X1221455Y666513D02*
X1220091Y665888D01*
X1220091D02*
X1219182Y664013D01*
X1219182D02*
X1218727Y660887D01*
X1218727D02*
Y659012D01*
X1218727D02*
X1219182Y655887D01*
X1219182D02*
X1220091Y654012D01*
X1220091D02*
X1221455Y653387D01*
X1221455D02*
X1222364D01*
X1222364D02*
X1223727Y654012D01*
X1223727D02*
X1224636Y655887D01*
X1224636D02*
X1225091Y659012D01*
X1225091D02*
Y660887D01*
X1225091D02*
X1224636Y664013D01*
X1224636D02*
X1223727Y665888D01*
X1223727D02*
X1222364Y666513D01*
X1222364D02*
X1221455D01*
X1235091Y662138D02*
X1234636Y660262D01*
X1234636D02*
X1233727Y659012D01*
X1233727D02*
X1232364Y658387D01*
X1232364D02*
X1231909D01*
X1231909D02*
X1230545Y659012D01*
X1230545D02*
X1229636Y660262D01*
X1229636D02*
X1229182Y662138D01*
X1229182D02*
Y662763D01*
X1229182D02*
X1229636Y664638D01*
X1229636D02*
X1230545Y665888D01*
X1230545D02*
X1231909Y666513D01*
X1231909D02*
X1232364D01*
X1232364D02*
X1233727Y665888D01*
X1233727D02*
X1234636Y664638D01*
X1234636D02*
X1235091Y662138D01*
X1235091D02*
Y659012D01*
X1235091D02*
X1234636Y655887D01*
X1234636D02*
X1233727Y654012D01*
X1233727D02*
X1232364Y653387D01*
X1232364D02*
X1231455D01*
X1231455D02*
X1230091Y654012D01*
X1230091D02*
X1229636Y655262D01*
X838909Y666344D02*
Y658844D01*
X838568Y657438*
X838568D02*
X838227Y656969D01*
X837545Y656500*
X836864*
X836182Y656969*
X835841Y657438*
X835841D02*
X835500Y658844D01*
Y659781*
X843682Y663063D02*
X843000Y662594D01*
X842318Y661656*
X841977Y660250*
Y659313*
X841977D02*
X842318Y657906D01*
X843000Y656969*
X843682Y656500*
X844705*
X845386Y656969*
X846068Y657906*
X846409Y659313*
X846409D02*
Y660250D01*
X846068Y661656*
X845386Y662594*
X844705Y663063*
X844705D02*
X843682D01*
X849477Y666344D02*
Y656500D01*
Y661656D02*
X850159Y662594D01*
X850841Y663063*
X850841D02*
X851864D01*
X851864D02*
X852545Y662594D01*
X853227Y661656*
X853568Y660250*
Y659313*
X853568D02*
X853227Y657906D01*
X852545Y656969*
X851864Y656500*
X850841*
X850159Y656969*
X849477Y657906*
X864477Y666344D02*
Y656500D01*
Y666344D02*
X869250Y656500D01*
Y666344D02*
Y656500D01*
X874023Y663063D02*
X873341Y662594D01*
X872659Y661656*
X872318Y660250*
Y659313*
X872318D02*
X872659Y657906D01*
X873341Y656969*
X874023Y656500*
X875045*
X875727Y656969*
X876409Y657906*
X876750Y659313*
X876750D02*
Y660250D01*
X876409Y661656*
X875727Y662594*
X875045Y663063*
X875045D02*
X874023D01*
X880159D02*
X879818Y662594D01*
X880159Y662125*
X880500Y662594*
X880159Y663063*
Y657438D02*
X879818Y656969D01*
X880159Y656500*
X880500Y656969*
X880159Y657438*
X1041000Y663544D02*
Y653700D01*
Y663544D02*
X1043386D01*
X1044409Y663075*
X1045091Y662138*
X1045091D02*
X1045432Y661200D01*
X1045773Y659794*
Y657450*
X1045432Y656044*
X1045091Y655106*
X1044409Y654169*
X1043386Y653700*
X1041000*
X1052932Y660263D02*
Y653700D01*
Y658856D02*
X1052250Y659794D01*
X1051568Y660263*
X1051568D02*
X1050545D01*
X1050545D02*
X1049864Y659794D01*
X1049182Y658856*
X1048841Y657450*
Y656513*
X1048841D02*
X1049182Y655106D01*
X1049864Y654169*
X1050545Y653700*
X1051568*
X1052250Y654169*
X1052932Y655106*
X1057023Y663544D02*
Y655575D01*
X1057364Y654169*
X1058045Y653700*
X1058727*
X1056000Y660263D02*
X1058386D01*
X1061795Y657450D02*
X1065886D01*
Y658388*
X1065886D02*
X1065545Y659325D01*
X1065205Y659794*
X1064523Y660263*
X1064523D02*
X1063500D01*
X1063500D02*
X1062818Y659794D01*
X1062136Y658856*
X1061795Y657450*
Y656513*
X1061795D02*
X1062136Y655106D01*
X1062818Y654169*
X1063500Y653700*
X1064523*
X1065205Y654169*
X1065886Y655106*
X1069295Y660263D02*
X1068955Y659794D01*
X1069295Y659325*
X1069636Y659794*
X1069295Y660263*
Y654638D02*
X1068955Y654169D01*
X1069295Y653700*
X1069636Y654169*
X1069295Y654638*
X841305Y763403D02*
X838578Y753560D01*
X841305Y763403D02*
X844032Y753560D01*
X839600Y756841D02*
X843009D01*
X847100Y760122D02*
Y753560D01*
Y757310D02*
X847441Y758716D01*
X848123Y759653*
X848805Y760122*
X849828*
X853919Y763403D02*
Y755435D01*
X854259Y754028*
X854941Y753560*
X855623*
X852896Y760122D02*
X855282D01*
X858691D02*
X860055Y753560D01*
X861419Y760122D02*
X860055Y753560D01*
X861419Y760122D02*
X862782Y753560D01*
X864146Y760122D02*
X862782Y753560D01*
X868919Y760122D02*
X868237Y759653D01*
X867555Y758716*
X867214Y757310*
Y756372*
X867555Y754966*
X868237Y754028*
X868919Y753560*
X869941*
X870623Y754028*
X871305Y754966*
X871646Y756372*
Y757310*
X871305Y758716*
X870623Y759653*
X869941Y760122*
X868919*
X874714D02*
Y753560D01*
Y757310D02*
X875055Y758716D01*
X875737Y759653*
X876419Y760122*
X877441*
X880509Y763403D02*
Y753560D01*
X883919Y760122D02*
X880509Y755435D01*
X881873Y757310D02*
X884259Y753560D01*
X895169Y763403D02*
Y753560D01*
Y763403D02*
X897555D01*
X898578Y762935*
X899259Y761997*
X899600Y761060*
X899941Y759653*
Y757310*
X899600Y755903*
X899259Y754966*
X898578Y754028*
X897555Y753560*
X895169*
X903009Y757310D02*
X907100D01*
Y758247*
X906759Y759185*
X906419Y759653*
X905737Y760122*
X904714*
X904032Y759653*
X903350Y758716*
X903009Y757310*
Y756372*
X903350Y754966*
X904032Y754028*
X904714Y753560*
X905737*
X906419Y754028*
X907100Y754966*
X913919Y758716D02*
X913578Y759653D01*
X912555Y760122*
X911532*
X910509Y759653*
X910169Y758716*
X910509Y757778*
X911191Y757310*
X912896Y756841*
X913578Y756372*
X913919Y755435*
Y754966*
X913578Y754028*
X912555Y753560*
X911532*
X910509Y754028*
X910169Y754966*
X916987Y763403D02*
X917328Y762935D01*
X917669Y763403*
X917328Y763872*
X916987Y763403*
X917328Y760122D02*
Y753560D01*
X924828Y760122D02*
Y752622D01*
X924487Y751216*
X924146Y750747*
X923464Y750278*
X922441*
X921759Y750747*
X924828Y758716D02*
X924146Y759653D01*
X923464Y760122*
X922441*
X921759Y759653*
X921078Y758716*
X920737Y757310*
Y756372*
X921078Y754966*
X921759Y754028*
X922441Y753560*
X923464*
X924146Y754028*
X924828Y754966*
X927896Y760122D02*
Y753560D01*
Y758247D02*
X928919Y759653D01*
X929600Y760122*
X930623*
X931305Y759653*
X931646Y758247*
Y753560*
X934714Y757310D02*
X938805D01*
Y758247*
X938464Y759185*
X938123Y759653*
X937441Y760122*
X936419*
X935737Y759653*
X935055Y758716*
X934714Y757310*
Y756372*
X935055Y754966*
X935737Y754028*
X936419Y753560*
X937441*
X938123Y754028*
X938805Y754966*
X945964Y763403D02*
Y753560D01*
Y758716D02*
X945282Y759653D01*
X944600Y760122*
X943578*
X942896Y759653*
X942214Y758716*
X941873Y757310*
Y756372*
X942214Y754966*
X942896Y754028*
X943578Y753560*
X944600*
X945282Y754028*
X945964Y754966*
X956873Y763403D02*
Y753560D01*
Y763403D02*
X959941D01*
X960964Y762935*
X961305Y762466*
X961646Y761528*
Y760591*
X961305Y759653*
X960964Y759185*
X959941Y758716*
X956873D02*
X959941D01*
X960964Y758247*
X961305Y757778*
X961646Y756841*
Y755435*
X961305Y754497*
X960964Y754028*
X959941Y753560*
X956873*
X965055Y760122D02*
X967100Y753560D01*
X969146Y760122D02*
X967100Y753560D01*
X966419Y751685*
X965737Y750747*
X965055Y750278*
X964714*
X972555Y760122D02*
X972214Y759653D01*
X972555Y759185*
X972896Y759653*
X972555Y760122*
Y754497D02*
X972214Y754028D01*
X972555Y753560*
X972896Y754028*
X972555Y754497*
X983805Y763403D02*
X985509Y753560D01*
X987214Y763403D02*
X985509Y753560D01*
X987214Y763403D02*
X988919Y753560D01*
X990623Y763403D02*
X988919Y753560D01*
X993691Y763403D02*
X994032Y762935D01*
X994373Y763403*
X994032Y763872*
X993691Y763403*
X994032Y760122D02*
Y753560D01*
X997441Y763403D02*
Y753560D01*
X1000509Y763403D02*
Y753560D01*
X1005282Y760122D02*
X1004600Y759653D01*
X1003919Y758716*
X1003578Y757310*
Y756372*
X1003919Y754966*
X1004600Y754028*
X1005282Y753560*
X1006305*
X1006987Y754028*
X1007669Y754966*
X1008009Y756372*
Y757310*
X1007669Y758716*
X1006987Y759653*
X1006305Y760122*
X1005282*
X1011078D02*
X1012441Y753560D01*
X1013805Y760122D02*
X1012441Y753560D01*
X1013805Y760122D02*
X1015169Y753560D01*
X1016532Y760122D02*
X1015169Y753560D01*
X1032214Y761997D02*
X1031532Y762935D01*
X1030509Y763403*
X1029146*
X1028123Y762935*
X1027441Y761997*
Y761060*
X1027782Y760122*
X1028123Y759653*
X1028805Y759185*
X1030850Y758247*
X1031532Y757778*
X1031873Y757310*
X1032214Y756372*
Y754966*
X1031532Y754028*
X1030509Y753560*
X1029146*
X1028123Y754028*
X1027441Y754966*
X1035282Y760122D02*
Y750278D01*
Y758716D02*
X1035964Y759653D01*
X1036646Y760122*
X1037669*
X1038350Y759653*
X1039032Y758716*
X1039373Y757310*
Y756372*
X1039032Y754966*
X1038350Y754028*
X1037669Y753560*
X1036646*
X1035964Y754028*
X1035282Y754966*
X1042441Y760122D02*
Y753560D01*
Y757310D02*
X1042782Y758716D01*
X1043464Y759653*
X1044146Y760122*
X1045169*
X1048237Y763403D02*
X1048578Y762935D01*
X1048919Y763403*
X1048578Y763872*
X1048237Y763403*
X1048578Y760122D02*
Y753560D01*
X1051987Y760122D02*
Y753560D01*
Y758247D02*
X1053009Y759653D01*
X1053691Y760122*
X1054714*
X1055396Y759653*
X1055737Y758247*
Y753560*
X1062896Y760122D02*
Y752622D01*
X1062555Y751216*
X1062214Y750747*
X1061532Y750278*
X1060509*
X1059828Y750747*
X1062896Y758716D02*
X1062214Y759653D01*
X1061532Y760122*
X1060509*
X1059828Y759653*
X1059146Y758716*
X1058805Y757310*
Y756372*
X1059146Y754966*
X1059828Y754028*
X1060509Y753560*
X1061532*
X1062214Y754028*
X1062896Y754966*
X1076191Y763403D02*
Y753560D01*
X1073805Y763403D02*
X1078578D01*
X1081646Y757310D02*
X1085737D01*
Y758247*
X1085396Y759185*
X1085055Y759653*
X1084373Y760122*
X1083350*
X1082669Y759653*
X1081987Y758716*
X1081646Y757310*
Y756372*
X1081987Y754966*
X1082669Y754028*
X1083350Y753560*
X1084373*
X1085055Y754028*
X1085737Y754966*
X1092896Y758716D02*
X1092214Y759653D01*
X1091532Y760122*
X1090509*
X1089828Y759653*
X1089146Y758716*
X1088805Y757310*
Y756372*
X1089146Y754966*
X1089828Y754028*
X1090509Y753560*
X1091532*
X1092214Y754028*
X1092896Y754966*
X1095964Y763403D02*
Y753560D01*
Y758247D02*
X1096987Y759653D01*
X1097669Y760122*
X1098691*
X1099373Y759653*
X1099714Y758247*
Y753560*
X1102782Y760122D02*
Y753560D01*
Y758247D02*
X1103805Y759653D01*
X1104487Y760122*
X1105509*
X1106191Y759653*
X1106532Y758247*
Y753560*
X1109600Y763403D02*
X1109941Y762935D01*
X1110282Y763403*
X1109941Y763872*
X1109600Y763403*
X1109941Y760122D02*
Y753560D01*
X1117441Y758716D02*
X1116759Y759653D01*
X1116078Y760122*
X1115055*
X1114373Y759653*
X1113691Y758716*
X1113350Y757310*
Y756372*
X1113691Y754966*
X1114373Y754028*
X1115055Y753560*
X1116078*
X1116759Y754028*
X1117441Y754966*
X1124600Y760122D02*
Y753560D01*
Y758716D02*
X1123919Y759653D01*
X1123237Y760122*
X1122214*
X1121532Y759653*
X1120850Y758716*
X1120509Y757310*
Y756372*
X1120850Y754966*
X1121532Y754028*
X1122214Y753560*
X1123237*
X1123919Y754028*
X1124600Y754966*
X1127669Y763403D02*
Y753560D01*
X1143350Y761997D02*
X1142669Y762935D01*
X1141646Y763403*
X1140282*
X1139259Y762935*
X1138578Y761997*
Y761060*
X1138919Y760122*
X1139259Y759653*
X1139941Y759185*
X1141987Y758247*
X1142669Y757778*
X1143009Y757310*
X1143350Y756372*
Y754966*
X1142669Y754028*
X1141646Y753560*
X1140282*
X1139259Y754028*
X1138578Y754966*
X1146419Y757310D02*
X1150509D01*
Y758247*
X1150169Y759185*
X1149828Y759653*
X1149146Y760122*
X1148123*
X1147441Y759653*
X1146759Y758716*
X1146419Y757310*
Y756372*
X1146759Y754966*
X1147441Y754028*
X1148123Y753560*
X1149146*
X1149828Y754028*
X1150509Y754966*
X1153578Y760122D02*
Y753560D01*
Y757310D02*
X1153919Y758716D01*
X1154600Y759653*
X1155282Y760122*
X1156305*
X1159373D02*
X1161419Y753560D01*
X1163464Y760122D02*
X1161419Y753560D01*
X1166532Y763403D02*
X1166873Y762935D01*
X1167214Y763403*
X1166873Y763872*
X1166532Y763403*
X1166873Y760122D02*
Y753560D01*
X1174373Y758716D02*
X1173691Y759653D01*
X1173009Y760122*
X1171987*
X1171305Y759653*
X1170623Y758716*
X1170282Y757310*
Y756372*
X1170623Y754966*
X1171305Y754028*
X1171987Y753560*
X1173009*
X1173691Y754028*
X1174373Y754966*
X1177441Y757310D02*
X1181532D01*
Y758247*
X1181191Y759185*
X1180850Y759653*
X1180169Y760122*
X1179146*
X1178464Y759653*
X1177782Y758716*
X1177441Y757310*
Y756372*
X1177782Y754966*
X1178464Y754028*
X1179146Y753560*
X1180169*
X1180850Y754028*
X1181532Y754966*
X1188350Y758716D02*
X1188009Y759653D01*
X1186987Y760122*
X1185964*
X1184941Y759653*
X1184600Y758716*
X1184941Y757778*
X1185623Y757310*
X1187328Y756841*
X1188009Y756372*
X1188350Y755435*
Y754966*
X1188009Y754028*
X1186987Y753560*
X1185964*
X1184941Y754028*
X1184600Y754966*
X1204373Y761060D02*
X1204032Y761997D01*
X1203350Y762935*
X1202669Y763403*
X1201305*
X1200623Y762935*
X1199941Y761997*
X1199600Y761060*
X1199259Y759653*
Y757310*
X1199600Y755903*
X1199941Y754966*
X1200623Y754028*
X1201305Y753560*
X1202669*
X1203350Y754028*
X1204032Y754966*
X1204373Y755903*
X1209146Y760122D02*
X1208464Y759653D01*
X1207782Y758716*
X1207441Y757310*
Y756372*
X1207782Y754966*
X1208464Y754028*
X1209146Y753560*
X1210169*
X1210850Y754028*
X1211532Y754966*
X1211873Y756372*
Y757310*
X1211532Y758716*
X1210850Y759653*
X1210169Y760122*
X1209146*
X1214941D02*
Y753560D01*
Y757310D02*
X1215282Y758716D01*
X1215964Y759653*
X1216646Y760122*
X1217669*
X1220737D02*
Y750278D01*
Y758716D02*
X1221419Y759653D01*
X1222100Y760122*
X1223123*
X1223805Y759653*
X1224487Y758716*
X1224828Y757310*
Y756372*
X1224487Y754966*
X1223805Y754028*
X1223123Y753560*
X1222100*
X1221419Y754028*
X1220737Y754966*
X1228237Y754497D02*
X1227896Y754028D01*
X1228237Y753560*
X1228578Y754028*
X1228237Y754497*
X906682Y665513D02*
Y652387D01*
X903500Y665513D02*
X909864D01*
X913955D02*
Y652387D01*
Y665513D02*
X919864D01*
X913955Y659262D02*
X917591D01*
X913955Y652387D02*
X919864D01*
X923955Y665513D02*
X930318Y652387D01*
Y665513D02*
X923955Y652387D01*
X934864Y653637D02*
X934409Y653012D01*
X934409D02*
X934864Y652387D01*
X934864D02*
X935318Y653012D01*
X935318D02*
X934864Y653637D01*
X942136Y665513D02*
X940773Y664888D01*
X940773D02*
X939864Y663013D01*
X939864D02*
X939409Y659887D01*
X939409D02*
Y658012D01*
X939409D02*
X939864Y654887D01*
X939864D02*
X940773Y653012D01*
X940773D02*
X942136Y652387D01*
X942136D02*
X943045D01*
X943045D02*
X944409Y653012D01*
X944409D02*
X945318Y654887D01*
X945318D02*
X945773Y658012D01*
X945773D02*
Y659887D01*
X945773D02*
X945318Y663013D01*
X945318D02*
X944409Y664888D01*
X944409D02*
X943045Y665513D01*
X943045D02*
X942136D01*
X952591D02*
X951227Y664888D01*
X951227D02*
X950318Y663013D01*
X950318D02*
X949864Y659887D01*
X949864D02*
Y658012D01*
X949864D02*
X950318Y654887D01*
X950318D02*
X951227Y653012D01*
X951227D02*
X952591Y652387D01*
X952591D02*
X953500D01*
X953500D02*
X954864Y653012D01*
X954864D02*
X955773Y654887D01*
X955773D02*
X956227Y658012D01*
X956227D02*
Y659887D01*
X956227D02*
X955773Y663013D01*
X955773D02*
X954864Y664888D01*
X954864D02*
X953500Y665513D01*
X953500D02*
X952591D01*
X962591D02*
X961227Y664888D01*
X961227D02*
X960773Y663638D01*
X960773D02*
Y662388D01*
X960773D02*
X961227Y661138D01*
X961227D02*
X962136Y660513D01*
X962136D02*
X963955Y659887D01*
X963955D02*
X965318Y659262D01*
X965318D02*
X966227Y658012D01*
X966227D02*
X966682Y656762D01*
X966682D02*
Y654887D01*
X966682D02*
X966227Y653637D01*
X966227D02*
X965773Y653012D01*
X965773D02*
X964409Y652387D01*
X964409D02*
X962591D01*
X962591D02*
X961227Y653012D01*
X961227D02*
X960773Y653637D01*
X960773D02*
X960318Y654887D01*
X960318D02*
Y656762D01*
X960318D02*
X960773Y658012D01*
X960773D02*
X961682Y659262D01*
X961682D02*
X963045Y659887D01*
X963045D02*
X964864Y660513D01*
X964864D02*
X965773Y661138D01*
X965773D02*
X966227Y662388D01*
X966227D02*
Y663638D01*
X966227D02*
X965773Y664888D01*
X965773D02*
X964409Y665513D01*
X964409D02*
X962591D01*
X1260727Y835044D02*
X1258000Y825200D01*
X1260727Y835044D02*
X1263455Y825200D01*
X1259023Y828481D02*
X1262432D01*
X1266523Y831763D02*
Y825200D01*
Y828950D02*
X1266864Y830356D01*
X1267545Y831294*
X1268227Y831763*
X1268227D02*
X1269250D01*
X1273341Y835044D02*
Y827075D01*
X1273682Y825669*
X1274364Y825200*
X1275045*
X1272318Y831763D02*
X1274705D01*
X1278114D02*
X1279477Y825200D01*
X1280841Y831763D02*
X1279477Y825200D01*
X1280841Y831763D02*
X1282205Y825200D01*
X1283568Y831763D02*
X1282205Y825200D01*
X1288341Y831763D02*
X1287659Y831294D01*
X1286977Y830356*
X1286636Y828950*
Y828013*
X1286636D02*
X1286977Y826606D01*
X1287659Y825669*
X1288341Y825200*
X1289364*
X1290045Y825669*
X1290727Y826606*
X1291068Y828013*
X1291068D02*
Y828950D01*
X1290727Y830356*
X1290045Y831294*
X1289364Y831763*
X1289364D02*
X1288341D01*
X1294136D02*
Y825200D01*
Y828950D02*
X1294477Y830356D01*
X1295159Y831294*
X1295841Y831763*
X1295841D02*
X1296864D01*
X1299932Y835044D02*
Y825200D01*
X1303341Y831763D02*
X1299932Y827075D01*
X1301295Y828950D02*
X1303682Y825200D01*
X1314591Y835044D02*
Y825200D01*
Y835044D02*
X1316977D01*
X1318000Y834575*
X1318682Y833638*
X1318682D02*
X1319023Y832700D01*
X1319364Y831294*
Y828950*
X1319023Y827544*
X1318682Y826606*
X1318000Y825669*
X1316977Y825200*
X1314591*
X1322432Y828950D02*
X1326523D01*
Y829888*
X1326523D02*
X1326182Y830825D01*
X1325841Y831294*
X1325159Y831763*
X1325159D02*
X1324136D01*
X1324136D02*
X1323455Y831294D01*
X1322773Y830356*
X1322432Y828950*
Y828013*
X1322432D02*
X1322773Y826606D01*
X1323455Y825669*
X1324136Y825200*
X1325159*
X1325841Y825669*
X1326523Y826606*
X1333341Y830356D02*
X1333000Y831294D01*
X1331977Y831763*
X1331977D02*
X1330955D01*
X1330955D02*
X1329932Y831294D01*
X1329591Y830356*
X1329932Y829419*
X1330614Y828950*
X1332318Y828481*
X1333000Y828013*
X1333000D02*
X1333341Y827075D01*
Y826606*
X1333000Y825669*
X1331977Y825200*
X1330955*
X1329932Y825669*
X1329591Y826606*
X1336409Y835044D02*
X1336750Y834575D01*
X1337091Y835044*
X1336750Y835513*
X1336750D02*
X1336409Y835044D01*
X1336750Y831763D02*
Y825200D01*
X1344250Y831763D02*
Y824262D01*
X1344250D02*
X1343909Y822856D01*
X1343568Y822387*
X1343568D02*
X1342886Y821919D01*
X1341864*
X1341182Y822387*
X1344250Y830356D02*
X1343568Y831294D01*
X1342886Y831763*
X1342886D02*
X1341864D01*
X1341864D02*
X1341182Y831294D01*
X1340500Y830356*
X1340159Y828950*
Y828013*
X1340159D02*
X1340500Y826606D01*
X1341182Y825669*
X1341864Y825200*
X1342886*
X1343568Y825669*
X1344250Y826606*
X1347318Y831763D02*
Y825200D01*
Y829888D02*
X1348341Y831294D01*
X1349023Y831763*
X1349023D02*
X1350045D01*
X1350045D02*
X1350727Y831294D01*
X1351068Y829888*
X1351068D02*
Y825200D01*
X1354136Y828950D02*
X1358227D01*
Y829888*
X1358227D02*
X1357886Y830825D01*
X1357545Y831294*
X1356864Y831763*
X1356864D02*
X1355841D01*
X1355841D02*
X1355159Y831294D01*
X1354477Y830356*
X1354136Y828950*
Y828013*
X1354136D02*
X1354477Y826606D01*
X1355159Y825669*
X1355841Y825200*
X1356864*
X1357545Y825669*
X1358227Y826606*
X1365386Y835044D02*
Y825200D01*
Y830356D02*
X1364705Y831294D01*
X1364023Y831763*
X1364023D02*
X1363000D01*
X1363000D02*
X1362318Y831294D01*
X1361636Y830356*
X1361295Y828950*
Y828013*
X1361295D02*
X1361636Y826606D01*
X1362318Y825669*
X1363000Y825200*
X1364023*
X1364705Y825669*
X1365386Y826606*
X1376295Y835044D02*
Y825200D01*
Y835044D02*
X1380727D01*
X1376295Y830356D02*
X1379023D01*
X1385500Y831763D02*
X1384818Y831294D01*
X1384136Y830356*
X1383795Y828950*
Y828013*
X1383795D02*
X1384136Y826606D01*
X1384818Y825669*
X1385500Y825200*
X1386523*
X1387205Y825669*
X1387886Y826606*
X1388227Y828013*
X1388227D02*
Y828950D01*
X1387886Y830356*
X1387205Y831294*
X1386523Y831763*
X1386523D02*
X1385500D01*
X1391295D02*
Y825200D01*
Y828950D02*
X1391636Y830356D01*
X1392318Y831294*
X1393000Y831763*
X1393000D02*
X1394023D01*
X1397432D02*
X1397091Y831294D01*
X1397432Y830825*
X1397773Y831294*
X1397432Y831763*
Y826138D02*
X1397091Y825669D01*
X1397432Y825200*
X1397773Y825669*
X1397432Y826138*
X1258000Y780044D02*
Y770200D01*
Y780044D02*
X1261068D01*
X1262091Y779575*
X1262432Y779106*
X1262773Y778169*
Y777231*
X1262432Y776294*
X1262091Y775825*
X1261068Y775356*
X1258000D02*
X1261068D01*
X1262091Y774888*
X1262091D02*
X1262432Y774419D01*
X1262773Y773481*
Y772075*
X1262432Y771138*
X1262432D02*
X1262091Y770669D01*
X1261068Y770200*
X1258000*
X1267545Y776763D02*
X1266864Y776294D01*
X1266182Y775356*
X1265841Y773950*
Y773013*
X1265841D02*
X1266182Y771606D01*
X1266864Y770669*
X1267545Y770200*
X1268568*
X1269250Y770669*
X1269932Y771606*
X1270273Y773013*
X1270273D02*
Y773950D01*
X1269932Y775356*
X1269250Y776294*
X1268568Y776763*
X1268568D02*
X1267545D01*
X1277432D02*
Y770200D01*
Y775356D02*
X1276750Y776294D01*
X1276068Y776763*
X1276068D02*
X1275045D01*
X1275045D02*
X1274364Y776294D01*
X1273682Y775356*
X1273341Y773950*
Y773013*
X1273341D02*
X1273682Y771606D01*
X1274364Y770669*
X1275045Y770200*
X1276068*
X1276750Y770669*
X1277432Y771606*
X1280500Y776763D02*
Y770200D01*
Y773950D02*
X1280841Y775356D01*
X1281523Y776294*
X1282205Y776763*
X1282205D02*
X1283227D01*
X1290386Y780044D02*
Y770200D01*
Y775356D02*
X1289705Y776294D01*
X1289023Y776763*
X1289023D02*
X1288000D01*
X1288000D02*
X1287318Y776294D01*
X1286636Y775356*
X1286295Y773950*
Y773013*
X1286295D02*
X1286636Y771606D01*
X1287318Y770669*
X1288000Y770200*
X1289023*
X1289705Y770669*
X1290386Y771606*
X1301295Y780044D02*
Y770200D01*
Y780044D02*
X1303682D01*
X1304705Y779575*
X1305386Y778638*
X1305386D02*
X1305727Y777700D01*
X1306068Y776294*
Y773950*
X1305727Y772544*
X1305386Y771606*
X1304705Y770669*
X1303682Y770200*
X1301295*
X1309136Y773950D02*
X1313227D01*
Y774888*
X1313227D02*
X1312886Y775825D01*
X1312545Y776294*
X1311864Y776763*
X1311864D02*
X1310841D01*
X1310841D02*
X1310159Y776294D01*
X1309477Y775356*
X1309136Y773950*
Y773013*
X1309136D02*
X1309477Y771606D01*
X1310159Y770669*
X1310841Y770200*
X1311864*
X1312545Y770669*
X1313227Y771606*
X1320045Y775356D02*
X1319705Y776294D01*
X1318682Y776763*
X1318682D02*
X1317659D01*
X1317659D02*
X1316636Y776294D01*
X1316295Y775356*
X1316636Y774419*
X1317318Y773950*
X1319023Y773481*
X1319705Y773013*
X1319705D02*
X1320045Y772075D01*
Y771606*
X1319705Y770669*
X1318682Y770200*
X1317659*
X1316636Y770669*
X1316295Y771606*
X1327205Y775356D02*
X1326523Y776294D01*
X1325841Y776763*
X1325841D02*
X1324818D01*
X1324818D02*
X1324136Y776294D01*
X1323455Y775356*
X1323114Y773950*
Y773013*
X1323114D02*
X1323455Y771606D01*
X1324136Y770669*
X1324818Y770200*
X1325841*
X1326523Y770669*
X1327205Y771606*
X1330273Y776763D02*
Y770200D01*
Y773950D02*
X1330614Y775356D01*
X1331295Y776294*
X1331977Y776763*
X1331977D02*
X1333000D01*
X1336068Y780044D02*
X1336409Y779575D01*
X1336750Y780044*
X1336409Y780513*
X1336409D02*
X1336068Y780044D01*
X1336409Y776763D02*
Y770200D01*
X1339818Y776763D02*
Y766919D01*
Y775356D02*
X1340500Y776294D01*
X1341182Y776763*
X1341182D02*
X1342205D01*
X1342205D02*
X1342886Y776294D01*
X1343568Y775356*
X1343909Y773950*
Y773013*
X1343909D02*
X1343568Y771606D01*
X1342886Y770669*
X1342205Y770200*
X1341182*
X1340500Y770669*
X1339818Y771606*
X1348000Y780044D02*
Y772075D01*
X1348341Y770669*
X1349023Y770200*
X1349705*
X1346977Y776763D02*
X1349364D01*
X1352773Y780044D02*
X1353114Y779575D01*
X1353455Y780044*
X1353114Y780513*
X1353114D02*
X1352773Y780044D01*
X1353114Y776763D02*
Y770200D01*
X1358227Y776763D02*
X1357545Y776294D01*
X1356864Y775356*
X1356523Y773950*
Y773013*
X1356523D02*
X1356864Y771606D01*
X1357545Y770669*
X1358227Y770200*
X1359250*
X1359932Y770669*
X1360614Y771606*
X1360955Y773013*
X1360955D02*
Y773950D01*
X1360614Y775356*
X1359932Y776294*
X1359250Y776763*
X1359250D02*
X1358227D01*
X1364023D02*
Y770200D01*
Y774888D02*
X1365045Y776294D01*
X1365727Y776763*
X1365727D02*
X1366750D01*
X1366750D02*
X1367432Y776294D01*
X1367773Y774888*
X1367773D02*
Y770200D01*
X1371182Y776763D02*
X1370841Y776294D01*
X1371182Y775825*
X1371523Y776294*
X1371182Y776763*
Y771138D02*
X1370841Y770669D01*
X1371182Y770200*
X1371523Y770669*
X1371182Y771138*
X1258000Y710044D02*
Y700200D01*
Y710044D02*
X1261068D01*
X1262091Y709575*
X1262432Y709106*
X1262773Y708169*
Y706763*
X1262773D02*
X1262432Y705825D01*
X1262091Y705356*
X1261068Y704888*
X1261068D02*
X1258000D01*
X1269932Y706763D02*
Y700200D01*
Y705356D02*
X1269250Y706294D01*
X1268568Y706763*
X1268568D02*
X1267545D01*
X1267545D02*
X1266864Y706294D01*
X1266182Y705356*
X1265841Y703950*
Y703013*
X1265841D02*
X1266182Y701606D01*
X1266864Y700669*
X1267545Y700200*
X1268568*
X1269250Y700669*
X1269932Y701606*
X1273000Y706763D02*
Y700200D01*
Y703950D02*
X1273341Y705356D01*
X1274023Y706294*
X1274705Y706763*
X1274705D02*
X1275727D01*
X1279818Y710044D02*
Y702075D01*
X1280159Y700669*
X1280841Y700200*
X1281523*
X1278795Y706763D02*
X1281182D01*
X1292432Y710044D02*
Y700200D01*
Y710044D02*
X1297205Y700200D01*
Y710044D02*
Y700200D01*
X1301977Y706763D02*
X1301295Y706294D01*
X1300614Y705356*
X1300273Y703950*
Y703013*
X1300273D02*
X1300614Y701606D01*
X1301295Y700669*
X1301977Y700200*
X1303000*
X1303682Y700669*
X1304364Y701606*
X1304705Y703013*
X1304705D02*
Y703950D01*
X1304364Y705356*
X1303682Y706294*
X1303000Y706763*
X1303000D02*
X1301977D01*
X1308114D02*
X1307773Y706294D01*
X1308114Y705825*
X1308455Y706294*
X1308114Y706763*
Y701138D02*
X1307773Y700669D01*
X1308114Y700200*
X1308455Y700669*
X1308114Y701138*
X1558000Y710044D02*
Y700200D01*
Y710044D02*
X1561068D01*
X1562091Y709575*
X1562432Y709106*
X1562773Y708169*
Y707231*
X1562432Y706294*
X1562091Y705825*
X1561068Y705356*
X1558000*
X1560386D02*
X1562773Y700200D01*
X1565841Y703950D02*
X1569932D01*
Y704888*
X1569932D02*
X1569591Y705825D01*
X1569250Y706294*
X1568568Y706763*
X1568568D02*
X1567545D01*
X1567545D02*
X1566864Y706294D01*
X1566182Y705356*
X1565841Y703950*
Y703013*
X1565841D02*
X1566182Y701606D01*
X1566864Y700669*
X1567545Y700200*
X1568568*
X1569250Y700669*
X1569932Y701606*
X1573000Y706763D02*
X1575045Y700200D01*
X1577091Y706763D02*
X1575045Y700200D01*
X1580159Y710044D02*
X1580500Y709575D01*
X1580841Y710044*
X1580500Y710513*
X1580500D02*
X1580159Y710044D01*
X1580500Y706763D02*
Y700200D01*
X1587659Y705356D02*
X1587318Y706294D01*
X1586295Y706763*
X1586295D02*
X1585273D01*
X1585273D02*
X1584250Y706294D01*
X1583909Y705356*
X1584250Y704419*
X1584932Y703950*
X1586636Y703481*
X1587318Y703013*
X1587318D02*
X1587659Y702075D01*
Y701606*
X1587318Y700669*
X1586295Y700200*
X1585273*
X1584250Y700669*
X1583909Y701606*
X1590727Y710044D02*
X1591068Y709575D01*
X1591409Y710044*
X1591068Y710513*
X1591068D02*
X1590727Y710044D01*
X1591068Y706763D02*
Y700200D01*
X1596182Y706763D02*
X1595500Y706294D01*
X1594818Y705356*
X1594477Y703950*
Y703013*
X1594477D02*
X1594818Y701606D01*
X1595500Y700669*
X1596182Y700200*
X1597205*
X1597886Y700669*
X1598568Y701606*
X1598909Y703013*
X1598909D02*
Y703950D01*
X1598568Y705356*
X1597886Y706294*
X1597205Y706763*
X1597205D02*
X1596182D01*
X1601977D02*
Y700200D01*
Y704888D02*
X1603000Y706294D01*
X1603682Y706763*
X1603682D02*
X1604705D01*
X1604705D02*
X1605386Y706294D01*
X1605727Y704888*
X1605727D02*
Y700200D01*
X1609136Y706763D02*
X1608795Y706294D01*
X1609136Y705825*
X1609477Y706294*
X1609136Y706763*
Y701138D02*
X1608795Y700669D01*
X1609136Y700200*
X1609477Y700669*
X1609136Y701138*
X1359818Y695200D02*
X1359364Y696450D01*
X1358455Y697700*
X1357545Y698325*
X1355727*
X1354818Y697700*
X1353909Y696450*
X1353455Y695200*
X1353000Y693325*
Y690200*
X1353455Y688325*
X1353909Y687075*
X1354818Y685825*
X1355727Y685200*
X1357545*
X1358455Y685825*
X1359364Y687075*
X1359818Y688325*
X1370727Y695200D02*
X1370273Y696450D01*
X1369364Y697700*
X1368455Y698325*
X1366636*
X1365727Y697700*
X1364818Y696450*
X1364364Y695200*
X1363909Y693325*
Y690200*
X1364364Y688325*
X1364818Y687075*
X1365727Y685825*
X1366636Y685200*
X1368455*
X1369364Y685825*
X1370273Y687075*
X1370727Y688325*
X1375273Y695200D02*
Y695825D01*
X1375727Y697075*
X1376182Y697700*
X1377091Y698325*
X1378909*
X1379818Y697700*
X1380273Y697075*
X1380727Y695825*
Y694575*
X1380273Y693325*
X1379364Y691450*
X1374818Y685200*
X1381182*
X1387545Y698325D02*
X1386182Y697700D01*
X1385727Y696450*
Y695200*
X1386182Y693950*
X1387091Y693325*
X1388909Y692700*
X1390273Y692075*
X1391182Y690825*
X1391636Y689575*
Y687700*
X1391182Y686450*
X1390727Y685825*
X1389364Y685200*
X1387545*
X1386182Y685825*
X1385727Y686450*
X1385273Y687700*
Y689575*
X1385727Y690825*
X1386636Y692075*
X1388000Y692700*
X1389818Y693325*
X1390727Y693950*
X1391182Y695200*
Y696450*
X1390727Y697700*
X1389364Y698325*
X1387545*
X1398455D02*
X1397091Y697700D01*
X1396182Y695825*
X1395727Y692700*
Y690825*
X1396182Y687700*
X1397091Y685825*
X1398455Y685200*
X1399364*
X1400727Y685825*
X1401636Y687700*
X1402091Y690825*
Y692700*
X1401636Y695825*
X1400727Y697700*
X1399364Y698325*
X1398455*
X1407091D02*
X1412091D01*
X1409364Y693325*
X1410727*
X1411636Y692700*
X1412091Y692075*
X1412545Y690200*
Y688950*
X1412091Y687075*
X1411182Y685825*
X1409818Y685200*
X1408455*
X1407091Y685825*
X1406636Y686450*
X1406182Y687700*
X1416636Y698325D02*
X1423000Y685200D01*
Y698325D02*
X1416636Y685200D01*
X1629727Y699813D02*
X1630636Y700438D01*
X1630636D02*
X1632000Y702313D01*
X1632000D02*
Y689187D01*
X1636545Y690437D02*
X1636091Y689812D01*
X1636091D02*
X1636545Y689187D01*
X1636545D02*
X1637000Y689812D01*
X1637000D02*
X1636545Y690437D01*
X1642000Y702313D02*
X1647000D01*
X1647000D02*
X1644273Y697313D01*
X1644273D02*
X1645636D01*
X1645636D02*
X1646545Y696687D01*
X1646545D02*
X1647000Y696062D01*
X1647000D02*
X1647455Y694187D01*
X1647455D02*
Y692937D01*
X1647455D02*
X1647000Y691062D01*
X1647000D02*
X1646091Y689812D01*
X1646091D02*
X1644727Y689187D01*
X1644727D02*
X1643364D01*
X1643364D02*
X1642000Y689812D01*
X1642000D02*
X1641545Y690437D01*
X1641545D02*
X1641091Y691687D01*
X1399545Y810513D02*
Y797387D01*
X1396364Y810513D02*
X1402727D01*
X1406818Y802387D02*
X1412273D01*
X1412273D02*
Y803637D01*
X1412273D02*
X1411818Y804887D01*
X1411818D02*
X1411364Y805513D01*
X1411364D02*
X1410455Y806138D01*
X1410455D02*
X1409091D01*
X1409091D02*
X1408182Y805513D01*
X1408182D02*
X1407273Y804262D01*
X1407273D02*
X1406818Y802387D01*
X1406818D02*
Y801137D01*
X1406818D02*
X1407273Y799262D01*
X1407273D02*
X1408182Y798012D01*
X1408182D02*
X1409091Y797387D01*
X1409091D02*
X1410455D01*
X1410455D02*
X1411364Y798012D01*
X1411364D02*
X1412273Y799262D01*
X1416364Y806138D02*
X1421364Y797387D01*
Y806138D02*
X1416364Y797387D01*
X1430909Y806138D02*
Y797387D01*
Y804262D02*
X1430000Y805513D01*
X1430000D02*
X1429091Y806138D01*
X1429091D02*
X1427727D01*
X1427727D02*
X1426818Y805513D01*
X1426818D02*
X1425909Y804262D01*
X1425909D02*
X1425455Y802387D01*
X1425455D02*
Y801137D01*
X1425455D02*
X1425909Y799262D01*
X1425909D02*
X1426818Y798012D01*
X1426818D02*
X1427727Y797387D01*
X1427727D02*
X1429091D01*
X1429091D02*
X1430000Y798012D01*
X1430000D02*
X1430909Y799262D01*
X1440000Y804262D02*
X1439545Y805513D01*
X1439545D02*
X1438182Y806138D01*
X1438182D02*
X1436818D01*
X1436818D02*
X1435455Y805513D01*
X1435455D02*
X1435000Y804262D01*
X1435000D02*
X1435455Y803012D01*
X1435455D02*
X1436364Y802387D01*
X1436364D02*
X1438636Y801762D01*
X1438636D02*
X1439545Y801137D01*
X1439545D02*
X1440000Y799887D01*
X1440000D02*
Y799262D01*
X1440000D02*
X1439545Y798012D01*
X1439545D02*
X1438182Y797387D01*
X1438182D02*
X1436818D01*
X1436818D02*
X1435455Y798012D01*
X1435455D02*
X1435000Y799262D01*
X1454545Y810513D02*
Y797387D01*
X1458636Y806138D02*
Y797387D01*
Y803637D02*
X1460000Y805513D01*
X1460000D02*
X1460909Y806138D01*
X1460909D02*
X1462273D01*
X1462273D02*
X1463182Y805513D01*
X1463182D02*
X1463636Y803637D01*
X1463636D02*
Y797387D01*
X1472727Y804262D02*
X1472273Y805513D01*
X1472273D02*
X1470909Y806138D01*
X1470909D02*
X1469545D01*
X1469545D02*
X1468182Y805513D01*
X1468182D02*
X1467727Y804262D01*
X1467727D02*
X1468182Y803012D01*
X1468182D02*
X1469091Y802387D01*
X1469091D02*
X1471364Y801762D01*
X1471364D02*
X1472273Y801137D01*
X1472273D02*
X1472727Y799887D01*
X1472727D02*
Y799262D01*
X1472727D02*
X1472273Y798012D01*
X1472273D02*
X1470909Y797387D01*
X1470909D02*
X1469545D01*
X1469545D02*
X1468182Y798012D01*
X1468182D02*
X1467727Y799262D01*
X1478182Y810513D02*
Y799887D01*
X1478182D02*
X1478636Y798012D01*
X1478636D02*
X1479545Y797387D01*
X1479545D02*
X1480455D01*
X1476818Y806138D02*
X1480000D01*
X1484545D02*
Y797387D01*
Y802387D02*
X1485000Y804262D01*
X1485000D02*
X1485909Y805513D01*
X1485909D02*
X1486818Y806138D01*
X1486818D02*
X1488182D01*
X1492273D02*
Y799887D01*
X1492273D02*
X1492727Y798012D01*
X1492727D02*
X1493636Y797387D01*
X1493636D02*
X1495000D01*
X1495000D02*
X1495909Y798012D01*
X1495909D02*
X1497273Y799887D01*
Y806138D02*
Y797387D01*
X1501364Y806138D02*
Y797387D01*
Y803637D02*
X1502727Y805513D01*
X1502727D02*
X1503636Y806138D01*
X1503636D02*
X1505000D01*
X1505000D02*
X1505909Y805513D01*
X1505909D02*
X1506364Y803637D01*
X1506364D02*
Y797387D01*
Y803637D02*
X1507727Y805513D01*
X1507727D02*
X1508636Y806138D01*
X1508636D02*
X1510000D01*
X1510000D02*
X1510909Y805513D01*
X1510909D02*
X1511364Y803637D01*
X1511364D02*
Y797387D01*
X1515455Y802387D02*
X1520909D01*
X1520909D02*
Y803637D01*
X1520909D02*
X1520455Y804887D01*
X1520455D02*
X1520000Y805513D01*
X1520000D02*
X1519091Y806138D01*
X1519091D02*
X1517727D01*
X1517727D02*
X1516818Y805513D01*
X1516818D02*
X1515909Y804262D01*
X1515909D02*
X1515455Y802387D01*
X1515455D02*
Y801137D01*
X1515455D02*
X1515909Y799262D01*
X1515909D02*
X1516818Y798012D01*
X1516818D02*
X1517727Y797387D01*
X1517727D02*
X1519091D01*
X1519091D02*
X1520000Y798012D01*
X1520000D02*
X1520909Y799262D01*
X1525000Y806138D02*
Y797387D01*
Y803637D02*
X1526364Y805513D01*
X1526364D02*
X1527273Y806138D01*
X1527273D02*
X1528636D01*
X1528636D02*
X1529545Y805513D01*
X1529545D02*
X1530000Y803637D01*
X1530000D02*
Y797387D01*
X1535455Y810513D02*
Y799887D01*
X1535455D02*
X1535909Y798012D01*
X1535909D02*
X1536818Y797387D01*
X1536818D02*
X1537727D01*
X1534091Y806138D02*
X1537273D01*
X1546818Y804262D02*
X1546364Y805513D01*
X1546364D02*
X1545000Y806138D01*
X1545000D02*
X1543636D01*
X1543636D02*
X1542273Y805513D01*
X1542273D02*
X1541818Y804262D01*
X1541818D02*
X1542273Y803012D01*
X1542273D02*
X1543182Y802387D01*
X1543182D02*
X1545455Y801762D01*
X1545455D02*
X1546364Y801137D01*
X1546364D02*
X1546818Y799887D01*
X1546818D02*
Y799262D01*
X1546818D02*
X1546364Y798012D01*
X1546364D02*
X1545000Y797387D01*
X1545000D02*
X1543636D01*
X1543636D02*
X1542273Y798012D01*
X1542273D02*
X1541818Y799262D01*
X1395941Y746247D02*
X1395487Y747497D01*
X1394578Y748747*
X1393669Y749372*
X1391850*
X1390941Y748747*
X1390032Y747497*
X1389578Y746247*
X1389123Y744372*
Y741247*
X1389578Y739372*
X1390032Y738122*
X1390941Y736872*
X1391850Y736247*
X1393669*
X1394578Y736872*
X1395487Y738122*
X1395941Y739372*
X1406850Y746247D02*
X1406396Y747497D01*
X1405487Y748747*
X1404578Y749372*
X1402759*
X1401850Y748747*
X1400941Y747497*
X1400487Y746247*
X1400032Y744372*
Y741247*
X1400487Y739372*
X1400941Y738122*
X1401850Y736872*
X1402759Y736247*
X1404578*
X1405487Y736872*
X1406396Y738122*
X1406850Y739372*
X1411396Y746247D02*
Y746872D01*
X1411850Y748122*
X1412305Y748747*
X1413214Y749372*
X1415032*
X1415941Y748747*
X1416396Y748122*
X1416850Y746872*
Y745622*
X1416396Y744372*
X1415487Y742497*
X1410941Y736247*
X1417305*
X1423669Y749372D02*
X1422305Y748747D01*
X1421850Y747497*
Y746247*
X1422305Y744997*
X1423214Y744372*
X1425032Y743747*
X1426396Y743122*
X1427305Y741872*
X1427759Y740622*
Y738747*
X1427305Y737497*
X1426850Y736872*
X1425487Y736247*
X1423669*
X1422305Y736872*
X1421850Y737497*
X1421396Y738747*
Y740622*
X1421850Y741872*
X1422759Y743122*
X1424123Y743747*
X1425941Y744372*
X1426850Y744997*
X1427305Y746247*
Y747497*
X1426850Y748747*
X1425487Y749372*
X1423669*
X1434578D02*
X1433214Y748747D01*
X1432305Y746872*
X1431850Y743747*
Y741872*
X1432305Y738747*
X1433214Y736872*
X1434578Y736247*
X1435487*
X1436850Y736872*
X1437759Y738747*
X1438214Y741872*
Y743747*
X1437759Y746872*
X1436850Y748747*
X1435487Y749372*
X1434578*
X1443214D02*
X1448214D01*
X1445487Y744372*
X1446850*
X1447759Y743747*
X1448214Y743122*
X1448669Y741247*
Y739997*
X1448214Y738122*
X1447305Y736872*
X1445941Y736247*
X1444578*
X1443214Y736872*
X1442759Y737497*
X1442305Y738747*
X1452759Y749372D02*
X1459123Y736247D01*
Y749372D02*
X1452759Y736247D01*
X1473669Y749372D02*
Y736247D01*
X1484123Y747497D02*
X1483214Y748747D01*
X1481850Y749372*
X1480032*
X1478669Y748747*
X1477759Y747497*
Y746247*
X1478214Y744997*
X1478669Y744372*
X1479578Y743747*
X1482305Y742497*
X1483214Y741872*
X1483669Y741247*
X1484123Y739997*
Y738122*
X1483214Y736872*
X1481850Y736247*
X1480032*
X1478669Y736872*
X1477759Y738122*
X1490941Y749372D02*
X1490032Y748747D01*
X1489123Y747497*
X1488669Y746247*
X1488214Y744372*
Y741247*
X1488669Y739372*
X1489123Y738122*
X1490032Y736872*
X1490941Y736247*
X1492759*
X1493669Y736872*
X1494578Y738122*
X1495032Y739372*
X1495487Y741247*
Y744372*
X1495032Y746247*
X1494578Y747497*
X1493669Y748747*
X1492759Y749372*
X1490941*
X1510032D02*
Y736247D01*
Y749372D02*
X1513214D01*
X1514578Y748747*
X1515487Y747497*
X1515941Y746247*
X1516396Y744372*
Y741247*
X1515941Y739372*
X1515487Y738122*
X1514578Y736872*
X1513214Y736247*
X1510032*
X1520487Y749372D02*
Y736247D01*
X1524578Y749372D02*
Y736247D01*
Y749372D02*
X1528214Y736247D01*
X1531850Y749372D02*
X1528214Y736247D01*
X1531850Y749372D02*
Y736247D01*
X1535941Y749372D02*
Y736247D01*
Y749372D02*
X1539578Y736247D01*
X1543214Y749372D02*
X1539578Y736247D01*
X1543214Y749372D02*
Y736247D01*
X1471091Y662578D02*
X1470409Y663516D01*
X1469386Y663984*
X1468023*
X1467000Y663516*
X1466318Y662578*
Y661641*
X1466659Y660703*
X1467000Y660234*
X1467682Y659766*
X1469727Y658828*
X1470409Y658359*
X1470750Y657891*
X1471091Y656953*
Y655547*
X1470409Y654609*
X1469386Y654141*
X1468023*
X1467000Y654609*
X1466318Y655547*
X1474159Y657891D02*
X1478250D01*
Y658828*
X1477909Y659766*
X1477568Y660234*
X1476886Y660703*
X1475864*
X1475182Y660234*
X1474500Y659297*
X1474159Y657891*
Y656953*
X1474500Y655547*
X1475182Y654609*
X1475864Y654141*
X1476886*
X1477568Y654609*
X1478250Y655547*
X1485409Y659297D02*
X1484727Y660234D01*
X1484045Y660703*
X1483023*
X1482341Y660234*
X1481659Y659297*
X1481318Y657891*
Y656953*
X1481659Y655547*
X1482341Y654609*
X1483023Y654141*
X1484045*
X1484727Y654609*
X1485409Y655547*
X1490182Y660703D02*
X1489500Y660234D01*
X1488818Y659297*
X1488477Y657891*
Y656953*
X1488818Y655547*
X1489500Y654609*
X1490182Y654141*
X1491205*
X1491886Y654609*
X1492568Y655547*
X1492909Y656953*
Y657891*
X1492568Y659297*
X1491886Y660234*
X1491205Y660703*
X1490182*
X1495977D02*
Y654141D01*
Y658828D02*
X1497000Y660234D01*
X1497682Y660703*
X1498705*
X1499386Y660234*
X1499727Y658828*
Y654141*
X1506886Y663984D02*
Y654141D01*
Y659297D02*
X1506205Y660234D01*
X1505523Y660703*
X1504500*
X1503818Y660234*
X1503136Y659297*
X1502795Y657891*
Y656953*
X1503136Y655547*
X1503818Y654609*
X1504500Y654141*
X1505523*
X1506205Y654609*
X1506886Y655547*
X1514045Y660703D02*
Y654141D01*
Y659297D02*
X1513364Y660234D01*
X1512682Y660703*
X1511659*
X1510977Y660234*
X1510295Y659297*
X1509955Y657891*
Y656953*
X1510295Y655547*
X1510977Y654609*
X1511659Y654141*
X1512682*
X1513364Y654609*
X1514045Y655547*
X1517114Y660703D02*
Y654141D01*
Y657891D02*
X1517455Y659297D01*
X1518136Y660234*
X1518818Y660703*
X1519841*
X1523250D02*
X1525295Y654141D01*
X1527341Y660703D02*
X1525295Y654141D01*
X1524614Y652266*
X1523932Y651328*
X1523250Y650859*
X1522909*
X1543023Y662578D02*
X1542341Y663516D01*
X1541318Y663984*
X1539955*
X1538932Y663516*
X1538250Y662578*
Y661641*
X1538591Y660703*
X1538932Y660234*
X1539614Y659766*
X1541659Y658828*
X1542341Y658359*
X1542682Y657891*
X1543023Y656953*
Y655547*
X1542341Y654609*
X1541318Y654141*
X1539955*
X1538932Y654609*
X1538250Y655547*
X1546091Y663984D02*
X1546432Y663516D01*
X1546773Y663984*
X1546432Y664453*
X1546091Y663984*
X1546432Y660703D02*
Y654141D01*
X1553932Y663984D02*
Y654141D01*
Y659297D02*
X1553250Y660234D01*
X1552568Y660703*
X1551545*
X1550864Y660234*
X1550182Y659297*
X1549841Y657891*
Y656953*
X1550182Y655547*
X1550864Y654609*
X1551545Y654141*
X1552568*
X1553250Y654609*
X1553932Y655547*
X1557000Y657891D02*
X1561091D01*
Y658828*
X1560750Y659766*
X1560409Y660234*
X1559727Y660703*
X1558705*
X1558023Y660234*
X1557341Y659297*
X1557000Y657891*
Y656953*
X1557341Y655547*
X1558023Y654609*
X1558705Y654141*
X1559727*
X1560409Y654609*
X1561091Y655547*
X1576773Y662578D02*
X1576091Y663516D01*
X1575068Y663984*
X1573705*
X1572682Y663516*
X1572000Y662578*
Y661641*
X1572341Y660703*
X1572682Y660234*
X1573364Y659766*
X1575409Y658828*
X1576091Y658359*
X1576432Y657891*
X1576773Y656953*
Y655547*
X1576091Y654609*
X1575068Y654141*
X1573705*
X1572682Y654609*
X1572000Y655547*
X1579841Y663984D02*
X1580182Y663516D01*
X1580523Y663984*
X1580182Y664453*
X1579841Y663984*
X1580182Y660703D02*
Y654141D01*
X1583591Y663984D02*
Y654141D01*
X1586659Y663984D02*
Y654141D01*
X1590068Y660703D02*
X1586659Y656016D01*
X1588023Y657891D02*
X1590409Y654141D01*
X1597227Y659297D02*
X1596886Y660234D01*
X1595864Y660703*
X1594841*
X1593818Y660234*
X1593477Y659297*
X1593818Y658359*
X1594500Y657891*
X1596205Y657422*
X1596886Y656953*
X1597227Y656016*
Y655547*
X1596886Y654609*
X1595864Y654141*
X1594841*
X1593818Y654609*
X1593477Y655547*
X1604386Y659297D02*
X1603705Y660234D01*
X1603023Y660703*
X1602000*
X1601318Y660234*
X1600636Y659297*
X1600295Y657891*
Y656953*
X1600636Y655547*
X1601318Y654609*
X1602000Y654141*
X1603023*
X1603705Y654609*
X1604386Y655547*
X1607455Y660703D02*
Y654141D01*
Y657891D02*
X1607795Y659297D01*
X1608477Y660234*
X1609159Y660703*
X1610182*
X1613250Y657891D02*
X1617341D01*
Y658828*
X1617000Y659766*
X1616659Y660234*
X1615977Y660703*
X1614955*
X1614273Y660234*
X1613591Y659297*
X1613250Y657891*
Y656953*
X1613591Y655547*
X1614273Y654609*
X1614955Y654141*
X1615977*
X1616659Y654609*
X1617341Y655547*
X1620409Y657891D02*
X1624500D01*
Y658828*
X1624159Y659766*
X1623818Y660234*
X1623136Y660703*
X1622114*
X1621432Y660234*
X1620750Y659297*
X1620409Y657891*
Y656953*
X1620750Y655547*
X1621432Y654609*
X1622114Y654141*
X1623136*
X1623818Y654609*
X1624500Y655547*
X1627568Y660703D02*
Y654141D01*
Y658828D02*
X1628591Y660234D01*
X1629273Y660703*
X1630295*
X1630977Y660234*
X1631318Y658828*
Y654141*
G54D33*
X1251000Y1028000D02*
X1236000D01*
Y1036000*
X1251000*
Y1028000*
X1204000Y1074500D02*
X1219000D01*
Y1066500*
X1204000*
Y1074500*
X1214500Y1044500D02*
X1199500D01*
Y1052500*
X1214500*
Y1044500*
X1212000Y1019000D02*
X1197000D01*
Y1027000*
X1212000*
Y1019000*
X1053800Y1079200D02*
X1068800D01*
Y1071200*
X1053800*
Y1079200*
X652000Y645200D02*
X1688000D01*
Y1350000*
X652000*
Y645200*
X1253500D02*
X1688000D01*
Y840200*
X1253500*
Y645200*
X1253000Y785200D02*
X1688000D01*
Y645200*
X1253000*
Y785200*
Y675200D02*
X1688000D01*
Y645200*
X1253000*
Y675200*
X1413000*
Y645200*
X1253000*
Y675200*
Y785200D02*
X1688000D01*
Y840200*
X1253000*
Y785200*
Y715200D02*
X1688000D01*
Y785200*
X1253000*
Y715200*
X1553000Y675200D02*
X1688000D01*
Y715200*
X1553000*
Y675200*
X818500Y675700D02*
X1024000D01*
Y645200*
X818500*
Y675700*
X1024000Y645200D02*
X1253500D01*
Y675700*
X1024000*
Y645200*
X818500Y785700D02*
X1253500D01*
Y675700*
X818500*
Y785700*
G54D42*
X1292000Y1047756D02*
X1305000D01*
Y1042244*
X1292000*
Y1047756*
Y1057756D02*
X1305000D01*
Y1052244*
X1292000*
Y1057756*
X1198500Y1033256D02*
X1211500D01*
Y1027744*
X1198500*
Y1033256*
X1082000Y1074956D02*
X1095000D01*
Y1069444*
X1082000*
Y1074956*
X1073500Y1064944D02*
X1060500D01*
Y1070456*
X1073500*
Y1064944*
X1073000Y1059200D02*
X1081000D01*
Y1055200*
X1073000*
Y1059200*
X1301500Y1085500D02*
X1293500D01*
Y1089500*
X1301500*
Y1085500*
X1250000Y1022244D02*
X1237000D01*
Y1027756*
X1250000*
Y1022244*
X1232000Y1074244D02*
X1219000D01*
Y1079756*
X1232000*
Y1074244*
X1213000Y1037744D02*
X1200000D01*
Y1043256*
X1213000*
Y1037744*
X1185756Y1070000D02*
Y1057000D01*
X1180244*
Y1070000*
X1185756*
X1246756Y1069000D02*
Y1056000D01*
X1241244*
Y1069000*
X1246756*
X1211500Y1086256D02*
X1224500D01*
Y1080744*
X1211500*
Y1086256*
X1324500Y1089000D02*
Y1081000D01*
X1320500*
Y1089000*
X1324500*
X1334500D02*
Y1081000D01*
X1330500*
Y1089000*
X1334500*
X1208500Y1060000D02*
X1200500D01*
Y1064000*
X1208500*
Y1060000*
X1201500Y1057500D02*
X1209500D01*
Y1053500*
X1201500*
Y1057500*
Y1081000D02*
X1209500D01*
Y1077000*
X1201500*
Y1081000*
X1339500Y1025000D02*
Y1017000D01*
X1335500*
Y1025000*
X1339500*
X1334500D02*
Y1017000D01*
X1330500*
Y1025000*
X1334500*
Y1056000D02*
Y1048000D01*
X1330500*
Y1056000*
X1334500*
X1339500D02*
Y1048000D01*
X1335500*
Y1056000*
X1339500*
X1314500Y1089000D02*
Y1081000D01*
X1310500*
Y1089000*
X1314500*
X1027500Y1037744D02*
X1014500D01*
Y1043256*
X1027500*
Y1037744*
X1090000Y1056200D02*
X1082000D01*
Y1060200*
X1090000*
Y1056200*
X1029600Y1069600D02*
X1037600D01*
Y1065600*
X1029600*
Y1069600*
X1067500Y1097700D02*
Y1089700D01*
X1063500*
Y1097700*
X1067500*
X1115500Y1108500D02*
Y1100500D01*
X1111500*
Y1108500*
X1115500*
Y1062500D02*
Y1054500D01*
X1111500*
Y1062500*
X1115500*
X1041600Y1073600D02*
X1033600D01*
Y1077600*
X1041600*
Y1073600*
X1139500Y1108500D02*
Y1100500D01*
X1135500*
Y1108500*
X1139500*
X1139000Y1062000D02*
Y1054000D01*
X1135000*
Y1062000*
X1139000*
X1103000Y1058800D02*
Y1050800D01*
X1099000*
Y1058800*
X1103000*
X1058500Y1089700D02*
Y1097700D01*
X1062500*
Y1089700*
X1058500*
X1053500Y1062700D02*
X1061500D01*
Y1058700*
X1053500*
Y1062700*
X1081500Y1105000D02*
X1089500D01*
Y1101000*
X1081500*
Y1105000*
X1057000Y1093700D02*
Y1085700D01*
X1053000*
Y1093700*
X1057000*
X1082000Y1064700D02*
X1090000D01*
Y1060700*
X1082000*
Y1064700*
X1168953Y1063571D02*
X1167969Y1064555D01*
X1157047*
Y1046445*
X1168953*
Y1063571*
Y1042571D02*
X1167969Y1043555D01*
X1157047*
Y1025445*
X1168953*
Y1042571*
X1183000Y1020000D02*
X1191000D01*
Y1016000*
X1183000*
Y1020000*
Y1024500D02*
X1191000D01*
Y1020500*
X1183000*
Y1024500*
Y1028500D02*
X1191000D01*
Y1024500*
X1183000*
Y1028500*
X1178500Y1036000D02*
X1186500D01*
Y1032000*
X1178500*
Y1036000*
X1182500Y1040000D02*
X1190500D01*
Y1036000*
X1182500*
Y1040000*
Y1044000D02*
X1190500D01*
Y1040000*
X1182500*
Y1044000*
X1310955Y1046000D02*
X1311091Y1046375D01*
X1311364Y1046750*
X1311636Y1046938*
X1311636D02*
X1312182D01*
X1312182D02*
X1312455Y1046750D01*
X1312727Y1046375*
X1312864Y1046000*
X1313000Y1045438*
X1313000D02*
Y1044500D01*
X1312864Y1043938*
X1312864D02*
X1312727Y1043563D01*
X1312727D02*
X1312455Y1043188D01*
X1312455D02*
X1312182Y1043000D01*
X1311636*
X1311364Y1043188*
X1311364D02*
X1311091Y1043563D01*
X1311091D02*
X1310955Y1043938D01*
X1309727Y1046188D02*
X1309455Y1046375D01*
X1309045Y1046938*
X1309045D02*
Y1043000D01*
X1306455Y1046938D02*
X1307818Y1044313D01*
X1307818D02*
X1305773D01*
X1306455Y1046938D02*
Y1043000D01*
X1311455Y1056000D02*
X1311591Y1056375D01*
X1311864Y1056750*
X1312136Y1056938*
X1312136D02*
X1312682D01*
X1312682D02*
X1312955Y1056750D01*
X1313227Y1056375*
X1313364Y1056000*
X1313500Y1055438*
X1313500D02*
Y1054500D01*
X1313364Y1053938*
X1313364D02*
X1313227Y1053563D01*
X1313227D02*
X1312955Y1053188D01*
X1312955D02*
X1312682Y1053000D01*
X1312136*
X1311864Y1053188*
X1311864D02*
X1311591Y1053563D01*
X1311591D02*
X1311455Y1053938D01*
X1310227Y1056188D02*
X1309955Y1056375D01*
X1309545Y1056938*
X1309545D02*
Y1053000D01*
X1306545Y1056938D02*
X1307909D01*
X1307909D02*
X1308045Y1055250D01*
X1307909Y1055438*
X1307909D02*
X1307500Y1055625D01*
X1307091*
X1306682Y1055438*
X1306682D02*
X1306409Y1055063D01*
X1306409D02*
X1306273Y1054500D01*
X1306409Y1054125*
X1306545Y1053563*
X1306545D02*
X1306818Y1053188D01*
X1306818D02*
X1307227Y1053000D01*
X1307636*
X1308045Y1053188*
X1308045D02*
X1308182Y1053375D01*
X1308318Y1053750*
X1217955Y1031500D02*
X1218091Y1031875D01*
X1218364Y1032250*
X1218636Y1032438*
X1218636D02*
X1219182D01*
X1219182D02*
X1219455Y1032250D01*
X1219727Y1031875*
X1219864Y1031500*
X1220000Y1030938*
X1220000D02*
Y1030000D01*
X1219864Y1029438*
X1219864D02*
X1219727Y1029063D01*
X1219727D02*
X1219455Y1028688D01*
X1219455D02*
X1219182Y1028500D01*
X1218636*
X1218364Y1028688*
X1218364D02*
X1218091Y1029063D01*
X1218091D02*
X1217955Y1029438D01*
X1216727Y1031688D02*
X1216455Y1031875D01*
X1216045Y1032438*
X1216045D02*
Y1028500D01*
X1214136Y1032438D02*
X1214545Y1032250D01*
X1214682Y1031875*
Y1031500*
X1214545Y1031125*
X1214273Y1030938*
X1214273D02*
X1213727Y1030750D01*
X1213318Y1030563*
X1213318D02*
X1213045Y1030188D01*
X1213045D02*
X1212909Y1029813D01*
X1212909D02*
Y1029250D01*
X1213045Y1028875*
X1213182Y1028688*
X1213182D02*
X1213591Y1028500D01*
X1214136*
X1214545Y1028688*
X1214545D02*
X1214682Y1028875D01*
X1214818Y1029250*
Y1029813*
X1214818D02*
X1214682Y1030188D01*
X1214682D02*
X1214409Y1030563D01*
X1214409D02*
X1214000Y1030750D01*
X1213455Y1030938*
X1213455D02*
X1213182Y1031125D01*
X1213045Y1031500*
Y1031875*
X1213182Y1032250*
X1213591Y1032438*
X1213591D02*
X1214136D01*
X1245500Y1041938D02*
Y1038000D01*
X1243864*
X1242636Y1041188D02*
X1242364Y1041375D01*
X1241955Y1041938*
X1241955D02*
Y1038000D01*
X1202500Y1072438D02*
Y1068500D01*
X1200864*
X1199500Y1071500D02*
Y1071688D01*
X1199364Y1072063*
X1199227Y1072250*
X1198955Y1072438*
X1198409*
X1198136Y1072250*
X1198000Y1072063*
X1197864Y1071688*
Y1071313*
X1198000Y1070938*
X1198273Y1070375*
X1199636Y1068500*
X1197727*
X1221500Y1050438D02*
Y1046500D01*
X1219864*
X1218364Y1050438D02*
X1216864D01*
X1216864D02*
X1217682Y1048938D01*
X1217682D02*
X1217273D01*
X1217273D02*
X1217000Y1048750D01*
X1216864Y1048563*
X1216864D02*
X1216727Y1048000D01*
Y1047625*
X1216864Y1047063*
X1216864D02*
X1217136Y1046688D01*
X1217136D02*
X1217545Y1046500D01*
X1217955*
X1218364Y1046688*
X1218364D02*
X1218500Y1046875D01*
X1218636Y1047250*
X1218500Y1024938D02*
Y1021000D01*
X1216864*
X1214273Y1024938D02*
X1215636Y1022313D01*
X1215636D02*
X1213591D01*
X1214273Y1024938D02*
Y1021000D01*
X1091955Y1079200D02*
X1092091Y1079575D01*
X1092364Y1079950*
X1092636Y1080137*
X1092636D02*
X1093182D01*
X1093182D02*
X1093455Y1079950D01*
X1093727Y1079575*
X1093864Y1079200*
X1094000Y1078637*
X1094000D02*
Y1077700D01*
X1093864Y1077137*
X1093864D02*
X1093727Y1076762D01*
X1093727D02*
X1093455Y1076387D01*
X1093455D02*
X1093182Y1076200D01*
X1092636*
X1092364Y1076387*
X1092364D02*
X1092091Y1076762D01*
X1092091D02*
X1091955Y1077137D01*
X1090455Y1080137D02*
X1088955D01*
X1088955D02*
X1089773Y1078637D01*
X1089773D02*
X1089364D01*
X1089364D02*
X1089091Y1078450D01*
X1088955Y1078262*
X1088955D02*
X1088818Y1077700D01*
Y1077325*
X1088955Y1076762*
X1088955D02*
X1089227Y1076387D01*
X1089227D02*
X1089636Y1076200D01*
X1090045*
X1090455Y1076387*
X1090455D02*
X1090591Y1076575D01*
X1090727Y1076950*
X1085682Y1080137D02*
X1087045Y1076200D01*
X1087591Y1080137D02*
X1085682D01*
X1056455Y1068000D02*
X1056591Y1068375D01*
X1056864Y1068750*
X1057136Y1068938*
X1057136D02*
X1057682D01*
X1057682D02*
X1057955Y1068750D01*
X1058227Y1068375*
X1058364Y1068000*
X1058500Y1067438*
X1058500D02*
Y1066500D01*
X1058364Y1065938*
X1058364D02*
X1058227Y1065563D01*
X1058227D02*
X1057955Y1065188D01*
X1057955D02*
X1057682Y1065000D01*
X1057136*
X1056864Y1065188*
X1056864D02*
X1056591Y1065563D01*
X1056591D02*
X1056455Y1065938D01*
X1054955Y1068938D02*
X1053455D01*
X1053455D02*
X1054273Y1067438D01*
X1054273D02*
X1053864D01*
X1053864D02*
X1053591Y1067250D01*
X1053455Y1067063*
X1053455D02*
X1053318Y1066500D01*
Y1066125*
X1053455Y1065563*
X1053455D02*
X1053727Y1065188D01*
X1053727D02*
X1054136Y1065000D01*
X1054545*
X1054955Y1065188*
X1054955D02*
X1055091Y1065375D01*
X1055227Y1065750*
X1050455Y1068375D02*
X1050591Y1068750D01*
X1051000Y1068938*
X1051000D02*
X1051273D01*
X1051273D02*
X1051682Y1068750D01*
X1051955Y1068188*
X1051955D02*
X1052091Y1067250D01*
Y1066313*
X1052091D02*
X1051955Y1065563D01*
X1051955D02*
X1051682Y1065188D01*
X1051682D02*
X1051273Y1065000D01*
X1051136*
X1050727Y1065188*
X1050727D02*
X1050455Y1065563D01*
X1050455D02*
X1050318Y1066125D01*
Y1066313*
X1050318D02*
X1050455Y1066875D01*
X1050727Y1067250*
X1051136Y1067438*
X1051136D02*
X1051273D01*
X1051273D02*
X1051682Y1067250D01*
X1051955Y1066875*
X1052091Y1066313*
X1076955Y1053000D02*
X1077091Y1053375D01*
X1077364Y1053750*
X1077636Y1053938*
X1077636D02*
X1078182D01*
X1078182D02*
X1078455Y1053750D01*
X1078727Y1053375*
X1078864Y1053000*
X1079000Y1052438*
X1079000D02*
Y1051500D01*
X1078864Y1050938*
X1078864D02*
X1078727Y1050563D01*
X1078727D02*
X1078455Y1050188D01*
X1078455D02*
X1078182Y1050000D01*
X1077636*
X1077364Y1050188*
X1077364D02*
X1077091Y1050563D01*
X1077091D02*
X1076955Y1050938D01*
X1074364Y1053938D02*
X1075727Y1051313D01*
X1075727D02*
X1073682D01*
X1074364Y1053938D02*
Y1050000D01*
X1071636Y1053938D02*
X1072045Y1053750D01*
X1072318Y1053188*
X1072318D02*
X1072455Y1052250D01*
Y1051688*
X1072455D02*
X1072318Y1050750D01*
X1072045Y1050188*
X1072045D02*
X1071636Y1050000D01*
X1071364*
X1070955Y1050188*
X1070955D02*
X1070682Y1050750D01*
X1070545Y1051688*
X1070545D02*
Y1052250D01*
X1070682Y1053188*
X1070682D02*
X1070955Y1053750D01*
X1071364Y1053938*
X1071364D02*
X1071636D01*
X1299455Y1082500D02*
X1299591Y1082875D01*
X1299864Y1083250*
X1300136Y1083438*
X1300136D02*
X1300682D01*
X1300682D02*
X1300955Y1083250D01*
X1301227Y1082875*
X1301364Y1082500*
X1301500Y1081938*
X1301500D02*
Y1081000D01*
X1301364Y1080438*
X1301364D02*
X1301227Y1080063D01*
X1301227D02*
X1300955Y1079688D01*
X1300955D02*
X1300682Y1079500D01*
X1300136*
X1299864Y1079688*
X1299864D02*
X1299591Y1080063D01*
X1299591D02*
X1299455Y1080438D01*
X1298091Y1082500D02*
Y1082688D01*
X1298091D02*
X1297955Y1083063D01*
X1297955D02*
X1297818Y1083250D01*
X1297545Y1083438*
X1297545D02*
X1297000D01*
X1297000D02*
X1296727Y1083250D01*
X1296591Y1083063*
X1296591D02*
X1296455Y1082688D01*
X1296455D02*
Y1082313D01*
X1296455D02*
X1296591Y1081938D01*
X1296591D02*
X1296864Y1081375D01*
X1298227Y1079500*
X1296318*
X1293318Y1082125D02*
X1293455Y1081563D01*
X1293455D02*
X1293727Y1081188D01*
X1293727D02*
X1294136Y1081000D01*
X1294273*
X1294682Y1081188*
X1294682D02*
X1294955Y1081563D01*
X1294955D02*
X1295091Y1082125D01*
Y1082313*
X1295091D02*
X1294955Y1082875D01*
X1294682Y1083250*
X1294273Y1083438*
X1294273D02*
X1294136D01*
X1294136D02*
X1293727Y1083250D01*
X1293455Y1082875*
X1293318Y1082125*
Y1081188*
X1293318D02*
X1293455Y1080250D01*
X1293727Y1079688*
X1293727D02*
X1294136Y1079500D01*
X1294409*
X1294818Y1079688*
X1294818D02*
X1294955Y1080063D01*
X1245455Y1020000D02*
X1245591Y1020375D01*
X1245864Y1020750*
X1246136Y1020938*
X1246136D02*
X1246682D01*
X1246682D02*
X1246955Y1020750D01*
X1247227Y1020375*
X1247364Y1020000*
X1247500Y1019438*
X1247500D02*
Y1018500D01*
X1247364Y1017938*
X1247364D02*
X1247227Y1017563D01*
X1247227D02*
X1246955Y1017188D01*
X1246955D02*
X1246682Y1017000D01*
X1246136*
X1245864Y1017188*
X1245864D02*
X1245591Y1017563D01*
X1245591D02*
X1245455Y1017938D01*
X1244227Y1020188D02*
X1243955Y1020375D01*
X1243545Y1020938*
X1243545D02*
Y1017000D01*
X1241500Y1020938D02*
X1241909Y1020750D01*
X1242182Y1020188*
X1242182D02*
X1242318Y1019250D01*
Y1018688*
X1242318D02*
X1242182Y1017750D01*
X1241909Y1017188*
X1241909D02*
X1241500Y1017000D01*
X1241227*
X1240818Y1017188*
X1240818D02*
X1240545Y1017750D01*
X1240409Y1018688*
X1240409D02*
Y1019250D01*
X1240545Y1020188*
X1240545D02*
X1240818Y1020750D01*
X1241227Y1020938*
X1241227D02*
X1241500D01*
X1237955Y1078000D02*
X1238091Y1078375D01*
X1238364Y1078750*
X1238636Y1078938*
X1238636D02*
X1239182D01*
X1239182D02*
X1239455Y1078750D01*
X1239727Y1078375*
X1239864Y1078000*
X1240000Y1077438*
X1240000D02*
Y1076500D01*
X1239864Y1075938*
X1239864D02*
X1239727Y1075563D01*
X1239727D02*
X1239455Y1075188D01*
X1239455D02*
X1239182Y1075000D01*
X1238636*
X1238364Y1075188*
X1238364D02*
X1238091Y1075563D01*
X1238091D02*
X1237955Y1075938D01*
X1236727Y1078188D02*
X1236455Y1078375D01*
X1236045Y1078938*
X1236045D02*
Y1075000D01*
X1234818Y1078188D02*
X1234545Y1078375D01*
X1234136Y1078938*
X1234136D02*
Y1075000D01*
X1220955Y1042000D02*
X1221091Y1042375D01*
X1221364Y1042750*
X1221636Y1042938*
X1221636D02*
X1222182D01*
X1222182D02*
X1222455Y1042750D01*
X1222727Y1042375*
X1222864Y1042000*
X1223000Y1041438*
X1223000D02*
Y1040500D01*
X1222864Y1039938*
X1222864D02*
X1222727Y1039563D01*
X1222727D02*
X1222455Y1039188D01*
X1222455D02*
X1222182Y1039000D01*
X1221636*
X1221364Y1039188*
X1221364D02*
X1221091Y1039563D01*
X1221091D02*
X1220955Y1039938D01*
X1219727Y1042188D02*
X1219455Y1042375D01*
X1219045Y1042938*
X1219045D02*
Y1039000D01*
X1217682Y1042000D02*
Y1042188D01*
X1217682D02*
X1217545Y1042563D01*
X1217545D02*
X1217409Y1042750D01*
X1217136Y1042938*
X1217136D02*
X1216591D01*
X1216591D02*
X1216318Y1042750D01*
X1216182Y1042563*
X1216182D02*
X1216045Y1042188D01*
X1216045D02*
Y1041813D01*
X1216045D02*
X1216182Y1041438D01*
X1216182D02*
X1216455Y1040875D01*
X1217818Y1039000*
X1215909*
X1185000Y1073545D02*
X1185375Y1073409D01*
X1185750Y1073136*
X1185938Y1072864*
Y1072318*
X1185750Y1072045*
X1185375Y1071773*
X1185000Y1071636*
X1184438Y1071500*
X1183500*
X1182938Y1071636*
X1182563Y1071773*
X1182188Y1072045*
X1182000Y1072318*
Y1072864*
X1182188Y1073136*
X1182563Y1073409*
X1182938Y1073545*
X1185188Y1074773D02*
X1185375Y1075045D01*
X1185938Y1075455*
X1182000*
X1184625Y1078455D02*
X1184063Y1078318D01*
X1183688Y1078045*
X1183500Y1077636*
Y1077500*
X1183688Y1077091*
X1184063Y1076818*
X1184625Y1076682*
X1184813*
X1185375Y1076818*
X1185750Y1077091*
X1185938Y1077500*
Y1077636*
X1185750Y1078045*
X1185375Y1078318*
X1184625Y1078455*
X1183688*
X1182750Y1078318*
X1182188Y1078045*
X1182000Y1077636*
Y1077364*
X1182188Y1076955*
X1182563Y1076818*
X1245500Y1048545D02*
X1245875Y1048409D01*
X1246250Y1048136*
X1246438Y1047864*
X1246438D02*
Y1047318D01*
X1246438D02*
X1246250Y1047045D01*
X1245875Y1046773*
X1245500Y1046636*
X1244938Y1046500*
X1244938D02*
X1244000D01*
X1243438Y1046636*
X1243438D02*
X1243063Y1046773D01*
X1243063D02*
X1242688Y1047045D01*
X1242688D02*
X1242500Y1047318D01*
Y1047864*
X1242688Y1048136*
X1242688D02*
X1243063Y1048409D01*
X1243063D02*
X1243438Y1048545D01*
X1245500Y1049909D02*
X1245688D01*
X1245688D02*
X1246063Y1050045D01*
X1246063D02*
X1246250Y1050182D01*
X1246438Y1050455*
X1246438D02*
Y1051000D01*
X1246438D02*
X1246250Y1051273D01*
X1246063Y1051409*
X1246063D02*
X1245688Y1051545D01*
X1245688D02*
X1245313D01*
X1245313D02*
X1244938Y1051409D01*
X1244938D02*
X1244375Y1051136D01*
X1242500Y1049773*
Y1051682*
X1246438Y1053727D02*
X1246250Y1053318D01*
X1245688Y1053045*
X1245688D02*
X1244750Y1052909D01*
X1244188*
X1244188D02*
X1243250Y1053045D01*
X1242688Y1053318*
X1242688D02*
X1242500Y1053727D01*
Y1054000*
X1242688Y1054409*
X1242688D02*
X1243250Y1054682D01*
X1244188Y1054818*
X1244188D02*
X1244750D01*
X1245688Y1054682*
X1245688D02*
X1246250Y1054409D01*
X1246438Y1054000*
X1246438D02*
Y1053727D01*
X1231455Y1084500D02*
X1231591Y1084875D01*
X1231864Y1085250*
X1232136Y1085438*
X1232136D02*
X1232682D01*
X1232682D02*
X1232955Y1085250D01*
X1233227Y1084875*
X1233364Y1084500*
X1233500Y1083938*
X1233500D02*
Y1083000D01*
X1233364Y1082438*
X1233364D02*
X1233227Y1082063D01*
X1233227D02*
X1232955Y1081688D01*
X1232955D02*
X1232682Y1081500D01*
X1232136*
X1231864Y1081688*
X1231864D02*
X1231591Y1082063D01*
X1231591D02*
X1231455Y1082438D01*
X1230091Y1084500D02*
Y1084688D01*
X1230091D02*
X1229955Y1085063D01*
X1229955D02*
X1229818Y1085250D01*
X1229545Y1085438*
X1229545D02*
X1229000D01*
X1229000D02*
X1228727Y1085250D01*
X1228591Y1085063*
X1228591D02*
X1228455Y1084688D01*
X1228455D02*
Y1084313D01*
X1228455D02*
X1228591Y1083938D01*
X1228591D02*
X1228864Y1083375D01*
X1230227Y1081500*
X1228318*
X1227091Y1084688D02*
X1226818Y1084875D01*
X1226409Y1085438*
X1226409D02*
Y1081500D01*
X1324438Y1074000D02*
X1320500D01*
X1324438D02*
Y1075227D01*
X1324438D02*
X1324250Y1075636D01*
X1324063Y1075773*
X1324063D02*
X1323688Y1075909D01*
X1323688D02*
X1323313D01*
X1323313D02*
X1322938Y1075773D01*
X1322938D02*
X1322750Y1075636D01*
X1322563Y1075227*
X1322563D02*
Y1074000D01*
Y1074955D02*
X1320500Y1075909D01*
X1324438Y1079045D02*
X1320500Y1077682D01*
X1324438Y1077136D02*
Y1079045D01*
X1335438Y1073500D02*
X1331500D01*
X1335438D02*
Y1074727D01*
X1335438D02*
X1335250Y1075136D01*
X1335063Y1075273*
X1335063D02*
X1334688Y1075409D01*
X1334688D02*
X1334313D01*
X1334313D02*
X1333938Y1075273D01*
X1333938D02*
X1333750Y1075136D01*
X1333563Y1074727*
X1333563D02*
Y1073500D01*
Y1074455D02*
X1331500Y1075409D01*
X1335438Y1077318D02*
X1335250Y1076909D01*
X1334875Y1076773*
X1334500*
X1334125Y1076909*
X1333938Y1077182*
X1333938D02*
X1333750Y1077727D01*
X1333563Y1078136*
X1333563D02*
X1333188Y1078409D01*
X1333188D02*
X1332813Y1078545D01*
X1332813D02*
X1332250D01*
X1331875Y1078409*
X1331688Y1078273*
X1331688D02*
X1331500Y1077864D01*
Y1077318*
X1331688Y1076909*
X1331688D02*
X1331875Y1076773D01*
X1332250Y1076636*
X1332813*
X1332813D02*
X1333188Y1076773D01*
X1333188D02*
X1333563Y1077045D01*
X1333563D02*
X1333750Y1077455D01*
X1333938Y1078000*
X1333938D02*
X1334125Y1078273D01*
X1334500Y1078409*
X1334875*
X1335250Y1078273*
X1335438Y1077864*
X1335438D02*
Y1077318D01*
X1215500Y1063938D02*
Y1060000D01*
Y1063938D02*
X1214273D01*
X1214273D02*
X1213864Y1063750D01*
X1213727Y1063563*
X1213727D02*
X1213591Y1063188D01*
X1213591D02*
Y1062813D01*
X1213591D02*
X1213727Y1062438D01*
X1213727D02*
X1213864Y1062250D01*
X1214273Y1062063*
X1214273D02*
X1215500D01*
X1214545D02*
X1213591Y1060000D01*
X1212364Y1063188D02*
X1212091Y1063375D01*
X1211682Y1063938*
X1211682D02*
Y1060000D01*
X1219000Y1057938D02*
Y1054000D01*
Y1057938D02*
X1217773D01*
X1217773D02*
X1217364Y1057750D01*
X1217227Y1057563*
X1217227D02*
X1217091Y1057188D01*
X1217091D02*
Y1056813D01*
X1217091D02*
X1217227Y1056438D01*
X1217227D02*
X1217364Y1056250D01*
X1217773Y1056063*
X1217773D02*
X1219000D01*
X1218045D02*
X1217091Y1054000D01*
X1215864Y1057188D02*
X1215591Y1057375D01*
X1215182Y1057938*
X1215182D02*
Y1054000D01*
X1213682Y1057938D02*
X1212182D01*
X1212182D02*
X1213000Y1056438D01*
X1213000D02*
X1212591D01*
X1212591D02*
X1212318Y1056250D01*
X1212182Y1056063*
X1212182D02*
X1212045Y1055500D01*
Y1055125*
X1212182Y1054563*
X1212182D02*
X1212455Y1054188D01*
X1212455D02*
X1212864Y1054000D01*
X1213273*
X1213682Y1054188*
X1213682D02*
X1213818Y1054375D01*
X1213955Y1054750*
X1194500Y1081438D02*
Y1077500D01*
Y1081438D02*
X1193273D01*
X1192864Y1081250*
X1192727Y1081063*
X1192591Y1080688*
Y1080313*
X1192727Y1079938*
X1192864Y1079750*
X1193273Y1079563*
X1194500*
X1193545D02*
X1192591Y1077500D01*
X1191227Y1080500D02*
Y1080688D01*
X1191091Y1081063*
X1190955Y1081250*
X1190682Y1081438*
X1190136*
X1189864Y1081250*
X1189727Y1081063*
X1189591Y1080688*
Y1080313*
X1189727Y1079938*
X1190000Y1079375*
X1191364Y1077500*
X1189455*
X1340438Y1027000D02*
X1336500D01*
X1340438D02*
Y1028227D01*
X1340250Y1028636*
X1340063Y1028773*
X1339688Y1028909*
X1339313*
X1338938Y1028773*
X1338750Y1028636*
X1338563Y1028227*
Y1027000*
Y1027955D02*
X1336500Y1028909D01*
X1339500Y1030273D02*
X1339688D01*
X1340063Y1030409*
X1340250Y1030545*
X1340438Y1030818*
Y1031364*
X1340250Y1031636*
X1340063Y1031773*
X1339688Y1031909*
X1339313*
X1338938Y1031773*
X1338375Y1031500*
X1336500Y1030136*
Y1032045*
X1339875Y1034909D02*
X1340250Y1034773D01*
X1340438Y1034364*
Y1034091*
X1340250Y1033682*
X1339688Y1033409*
X1338750Y1033273*
X1337813*
X1337063Y1033409*
X1336688Y1033682*
X1336500Y1034091*
Y1034227*
X1336688Y1034636*
X1337063Y1034909*
X1337625Y1035045*
X1337813*
X1338375Y1034909*
X1338750Y1034636*
X1338938Y1034227*
Y1034091*
X1338750Y1033682*
X1338375Y1033409*
X1337813Y1033273*
X1333938Y1026500D02*
X1330000D01*
X1333938D02*
Y1027727D01*
X1333750Y1028136*
X1333563Y1028273*
X1333188Y1028409*
X1332813*
X1332438Y1028273*
X1332250Y1028136*
X1332063Y1027727*
Y1026500*
Y1027455D02*
X1330000Y1028409D01*
X1333000Y1029773D02*
X1333188D01*
X1333563Y1029909*
X1333750Y1030045*
X1333938Y1030318*
Y1030864*
X1333750Y1031136*
X1333563Y1031273*
X1333188Y1031409*
X1332813*
X1332438Y1031273*
X1331875Y1031000*
X1330000Y1029636*
Y1031545*
X1333938Y1034545D02*
Y1033182D01*
X1332250Y1033045*
X1332438Y1033182*
X1332625Y1033591*
Y1034000*
X1332438Y1034409*
X1332063Y1034682*
X1331500Y1034818*
X1331125Y1034682*
X1330563Y1034545*
X1330188Y1034273*
X1330000Y1033864*
Y1033455*
X1330188Y1033045*
X1330375Y1032909*
X1330750Y1032773*
X1333938Y1058500D02*
X1330000D01*
X1333938D02*
Y1059727D01*
X1333750Y1060136*
X1333563Y1060273*
X1333188Y1060409*
X1332813*
X1332438Y1060273*
X1332250Y1060136*
X1332063Y1059727*
Y1058500*
Y1059455D02*
X1330000Y1060409D01*
X1333188Y1061636D02*
X1333375Y1061909D01*
X1333938Y1062318*
X1330000*
X1333188Y1063545D02*
X1333375Y1063818D01*
X1333938Y1064227*
X1330000*
X1339938Y1058500D02*
X1336000D01*
X1339938D02*
Y1059727D01*
X1339750Y1060136*
X1339563Y1060273*
X1339188Y1060409*
X1338813*
X1338438Y1060273*
X1338250Y1060136*
X1338063Y1059727*
Y1058500*
Y1059455D02*
X1336000Y1060409D01*
X1339188Y1061636D02*
X1339375Y1061909D01*
X1339938Y1062318*
X1336000*
X1339000Y1063682D02*
X1339188D01*
X1339563Y1063818*
X1339750Y1063955*
X1339938Y1064227*
Y1064773*
X1339750Y1065045*
X1339563Y1065182*
X1339188Y1065318*
X1338813*
X1338438Y1065182*
X1337875Y1064909*
X1336000Y1063545*
Y1065455*
X1314438Y1074500D02*
X1310500D01*
X1314438D02*
Y1075727D01*
X1314438D02*
X1314250Y1076136D01*
X1314063Y1076273*
X1314063D02*
X1313688Y1076409D01*
X1313688D02*
X1313313D01*
X1313313D02*
X1312938Y1076273D01*
X1312938D02*
X1312750Y1076136D01*
X1312563Y1075727*
X1312563D02*
Y1074500D01*
Y1075455D02*
X1310500Y1076409D01*
X1314438Y1077909D02*
Y1079409D01*
X1314438D02*
X1312938Y1078591D01*
X1312938D02*
Y1079000D01*
X1312938D02*
X1312750Y1079273D01*
X1312563Y1079409*
X1312563D02*
X1312000Y1079545D01*
X1311625*
X1311063Y1079409*
X1311063D02*
X1310688Y1079136D01*
X1310688D02*
X1310500Y1078727D01*
Y1078318*
X1310688Y1077909*
X1310688D02*
X1310875Y1077773D01*
X1311250Y1077636*
X1022455Y1035000D02*
X1022591Y1035375D01*
X1022864Y1035750*
X1023136Y1035938*
X1023136D02*
X1023682D01*
X1023682D02*
X1023955Y1035750D01*
X1024227Y1035375*
X1024364Y1035000*
X1024500Y1034438*
X1024500D02*
Y1033500D01*
X1024364Y1032938*
X1024364D02*
X1024227Y1032563D01*
X1024227D02*
X1023955Y1032188D01*
X1023955D02*
X1023682Y1032000D01*
X1023136*
X1022864Y1032188*
X1022864D02*
X1022591Y1032563D01*
X1022591D02*
X1022455Y1032938D01*
X1021091Y1035000D02*
Y1035188D01*
X1021091D02*
X1020955Y1035563D01*
X1020955D02*
X1020818Y1035750D01*
X1020545Y1035938*
X1020545D02*
X1020000D01*
X1020000D02*
X1019727Y1035750D01*
X1019591Y1035563*
X1019591D02*
X1019455Y1035188D01*
X1019455D02*
Y1034813D01*
X1019455D02*
X1019591Y1034438D01*
X1019591D02*
X1019864Y1033875D01*
X1021227Y1032000*
X1019318*
X1017955Y1035000D02*
Y1035188D01*
X1017955D02*
X1017818Y1035563D01*
X1017818D02*
X1017682Y1035750D01*
X1017409Y1035938*
X1017409D02*
X1016864D01*
X1016864D02*
X1016591Y1035750D01*
X1016455Y1035563*
X1016455D02*
X1016318Y1035188D01*
X1016318D02*
Y1034813D01*
X1016318D02*
X1016455Y1034438D01*
X1016455D02*
X1016727Y1033875D01*
X1018091Y1032000*
X1016182*
X1087755Y1053656D02*
X1087891Y1054031D01*
X1088164Y1054406*
X1088436Y1054594*
X1088982*
X1089255Y1054406*
X1089527Y1054031*
X1089664Y1053656*
X1089800Y1053094*
Y1052156*
X1089664Y1051594*
X1089527Y1051219*
X1089255Y1050844*
X1088982Y1050656*
X1088436*
X1088164Y1050844*
X1087891Y1051219*
X1087755Y1051594*
X1086255Y1054594D02*
X1084755D01*
X1085573Y1053094*
X1085164*
X1084891Y1052906*
X1084755Y1052719*
X1084618Y1052156*
Y1051781*
X1084755Y1051219*
X1085027Y1050844*
X1085436Y1050656*
X1085845*
X1086255Y1050844*
X1086391Y1051031*
X1086527Y1051406*
X1081618Y1054594D02*
X1082982D01*
X1083118Y1052906*
X1082982Y1053094*
X1082573Y1053281*
X1082164*
X1081755Y1053094*
X1081482Y1052719*
X1081345Y1052156*
X1081482Y1051781*
X1081618Y1051219*
X1081891Y1050844*
X1082300Y1050656*
X1082709*
X1083118Y1050844*
X1083255Y1051031*
X1083391Y1051406*
X1025641Y1068156D02*
X1025777Y1068531D01*
X1026050Y1068906*
X1026323Y1069094*
X1026868*
X1027141Y1068906*
X1027414Y1068531*
X1027550Y1068156*
X1027686Y1067594*
Y1066656*
X1027550Y1066094*
X1027414Y1065719*
X1027141Y1065344*
X1026868Y1065156*
X1026323*
X1026050Y1065344*
X1025777Y1065719*
X1025641Y1066094*
X1023050Y1069094D02*
X1024414Y1066469D01*
X1022368*
X1023050Y1069094D02*
Y1065156D01*
X1021141Y1068344D02*
X1020868Y1068531D01*
X1020459Y1069094*
Y1065156*
X1068156Y1082245D02*
X1068531Y1082109D01*
X1068906Y1081836*
X1069094Y1081564*
Y1081018*
X1068906Y1080745*
X1068531Y1080473*
X1068156Y1080336*
X1067594Y1080200*
X1066656*
X1066094Y1080336*
X1065719Y1080473*
X1065344Y1080745*
X1065156Y1081018*
Y1081564*
X1065344Y1081836*
X1065719Y1082109*
X1066094Y1082245*
X1069094Y1084836D02*
X1066469Y1083473D01*
Y1085518*
X1069094Y1084836D02*
X1065156D01*
X1068156Y1086882D02*
X1068344D01*
X1068719Y1087018*
X1068906Y1087155*
X1069094Y1087427*
Y1087973*
X1068906Y1088245*
X1068719Y1088382*
X1068344Y1088518*
X1067969*
X1067594Y1088382*
X1067031Y1088109*
X1065156Y1086745*
Y1088655*
X1114656Y1091745D02*
X1115031Y1091609D01*
X1115406Y1091336*
X1115594Y1091064*
Y1090518*
X1115406Y1090245*
X1115031Y1089973*
X1114656Y1089836*
X1114094Y1089700*
X1113156*
X1112594Y1089836*
X1112219Y1089973*
X1111844Y1090245*
X1111656Y1090518*
Y1091064*
X1111844Y1091336*
X1112219Y1091609*
X1112594Y1091745*
X1115594Y1094336D02*
X1112969Y1092973D01*
Y1095018*
X1115594Y1094336D02*
X1111656D01*
X1115594Y1096518D02*
Y1098018D01*
X1114094Y1097200*
Y1097609*
X1113906Y1097882*
X1113719Y1098018*
X1113156Y1098155*
X1112781*
X1112219Y1098018*
X1111844Y1097745*
X1111656Y1097336*
Y1096927*
X1111844Y1096518*
X1112031Y1096382*
X1112406Y1096245*
X1114156Y1046177D02*
X1114531Y1046041D01*
X1114906Y1045768*
X1115094Y1045495*
Y1044950*
X1114906Y1044677*
X1114531Y1044405*
X1114156Y1044268*
X1113594Y1044132*
X1112656*
X1112094Y1044268*
X1111719Y1044405*
X1111344Y1044677*
X1111156Y1044950*
Y1045495*
X1111344Y1045768*
X1111719Y1046041*
X1112094Y1046177*
X1115094Y1048768D02*
X1112469Y1047405D01*
Y1049450*
X1115094Y1048768D02*
X1111156D01*
X1115094Y1052041D02*
X1112469Y1050677D01*
Y1052723*
X1115094Y1052041D02*
X1111156D01*
X1029686Y1076656D02*
X1029823Y1077031D01*
X1030095Y1077406*
X1030368Y1077594*
X1030914*
X1031186Y1077406*
X1031459Y1077031*
X1031595Y1076656*
X1031732Y1076094*
Y1075156*
X1031595Y1074594*
X1031459Y1074219*
X1031186Y1073844*
X1030914Y1073656*
X1030368*
X1030095Y1073844*
X1029823Y1074219*
X1029686Y1074594*
X1027095Y1077594D02*
X1028459Y1074969D01*
X1026414*
X1027095Y1077594D02*
Y1073656D01*
X1023414Y1076281D02*
X1023550Y1075719D01*
X1023823Y1075344*
X1024232Y1075156*
X1024368*
X1024777Y1075344*
X1025050Y1075719*
X1025186Y1076281*
Y1076469*
X1025050Y1077031*
X1024777Y1077406*
X1024368Y1077594*
X1024232*
X1023823Y1077406*
X1023550Y1077031*
X1023414Y1076281*
Y1075344*
X1023550Y1074406*
X1023823Y1073844*
X1024232Y1073656*
X1024505*
X1024914Y1073844*
X1025050Y1074219*
X1138656Y1091677D02*
X1139031Y1091541D01*
X1139406Y1091268*
X1139594Y1090995*
Y1090450*
X1139406Y1090177*
X1139031Y1089905*
X1138656Y1089768*
X1138094Y1089632*
X1137156*
X1136594Y1089768*
X1136219Y1089905*
X1135844Y1090177*
X1135656Y1090450*
Y1090995*
X1135844Y1091268*
X1136219Y1091541*
X1136594Y1091677*
X1139594Y1094268D02*
X1136969Y1092905D01*
Y1094950*
X1139594Y1094268D02*
X1135656D01*
X1139594Y1097950D02*
Y1096586D01*
X1137906Y1096450*
X1138094Y1096586*
X1138281Y1096995*
Y1097405*
X1138094Y1097814*
X1137719Y1098086*
X1137156Y1098223*
X1136781Y1098086*
X1136219Y1097950*
X1135844Y1097677*
X1135656Y1097268*
Y1096859*
X1135844Y1096450*
X1136031Y1096314*
X1136406Y1096177*
X1137156Y1045814D02*
X1137531Y1045677D01*
X1137906Y1045405*
X1138094Y1045132*
Y1044586*
X1137906Y1044314*
X1137531Y1044041*
X1137156Y1043905*
X1136594Y1043768*
X1135656*
X1135094Y1043905*
X1134719Y1044041*
X1134344Y1044314*
X1134156Y1044586*
Y1045132*
X1134344Y1045405*
X1134719Y1045677*
X1135094Y1045814*
X1138094Y1048405D02*
X1135469Y1047041D01*
Y1049086*
X1138094Y1048405D02*
X1134156D01*
X1137531Y1051950D02*
X1137906Y1051814D01*
X1138094Y1051405*
Y1051132*
X1137906Y1050723*
X1137344Y1050450*
X1136406Y1050314*
X1135469*
X1134719Y1050450*
X1134344Y1050723*
X1134156Y1051132*
Y1051268*
X1134344Y1051677*
X1134719Y1051950*
X1135281Y1052086*
X1135469*
X1136031Y1051950*
X1136406Y1051677*
X1136594Y1051268*
Y1051132*
X1136406Y1050723*
X1136031Y1050450*
X1135469Y1050314*
X1096656Y1052682D02*
X1097031Y1052545D01*
X1097406Y1052273*
X1097594Y1052000*
Y1051455*
X1097406Y1051182*
X1097031Y1050909*
X1096656Y1050773*
X1096094Y1050636*
X1095156*
X1094594Y1050773*
X1094219Y1050909*
X1093844Y1051182*
X1093656Y1051455*
Y1052000*
X1093844Y1052273*
X1094219Y1052545*
X1094594Y1052682*
X1097594Y1054182D02*
Y1055682D01*
X1096094Y1054864*
Y1055273*
X1095906Y1055545*
X1095719Y1055682*
X1095156Y1055818*
X1094781*
X1094219Y1055682*
X1093844Y1055409*
X1093656Y1055000*
Y1054591*
X1093844Y1054182*
X1094031Y1054045*
X1094406Y1053909*
X1096281Y1058818D02*
X1095719Y1058682D01*
X1095344Y1058409*
X1095156Y1058000*
Y1057864*
X1095344Y1057455*
X1095719Y1057182*
X1096281Y1057045*
X1096469*
X1097031Y1057182*
X1097406Y1057455*
X1097594Y1057864*
Y1058000*
X1097406Y1058409*
X1097031Y1058682*
X1096281Y1058818*
X1095344*
X1094406Y1058682*
X1093844Y1058409*
X1093656Y1058000*
Y1057727*
X1093844Y1057318*
X1094219Y1057182*
X1062594Y1080650D02*
X1058656D01*
X1062594D02*
Y1081877D01*
X1062406Y1082286*
X1062219Y1082423*
X1061844Y1082559*
X1061469*
X1061094Y1082423*
X1060906Y1082286*
X1060719Y1081877*
Y1080650*
Y1081605D02*
X1058656Y1082559D01*
X1061656Y1083923D02*
X1061844D01*
X1062219Y1084059*
X1062406Y1084195*
X1062594Y1084468*
Y1085014*
X1062406Y1085286*
X1062219Y1085423*
X1061844Y1085559*
X1061469*
X1061094Y1085423*
X1060531Y1085150*
X1058656Y1083786*
Y1085695*
X1061844Y1086923D02*
X1062031Y1087195D01*
X1062594Y1087605*
X1058656*
X1061232Y1056794D02*
Y1052856D01*
Y1056794D02*
X1060005D01*
X1059595Y1056606*
X1059459Y1056419*
X1059323Y1056044*
Y1055669*
X1059459Y1055294*
X1059595Y1055106*
X1060005Y1054919*
X1061232*
X1060277D02*
X1059323Y1052856D01*
X1057959Y1055856D02*
Y1056044D01*
X1057823Y1056419*
X1057686Y1056606*
X1057414Y1056794*
X1056868*
X1056595Y1056606*
X1056459Y1056419*
X1056323Y1056044*
Y1055669*
X1056459Y1055294*
X1056732Y1054731*
X1058095Y1052856*
X1056186*
X1053595Y1056794D02*
X1054959Y1054169D01*
X1052914*
X1053595Y1056794D02*
Y1052856D01*
X1079118Y1105094D02*
Y1101156D01*
Y1105094D02*
X1077891D01*
X1077482Y1104906*
X1077345Y1104719*
X1077209Y1104344*
Y1103969*
X1077345Y1103594*
X1077482Y1103406*
X1077891Y1103219*
X1079118*
X1078164D02*
X1077209Y1101156D01*
X1075982Y1104344D02*
X1075709Y1104531D01*
X1075300Y1105094*
Y1101156*
X1072709Y1105094D02*
X1074073Y1102469D01*
X1072027*
X1072709Y1105094D02*
Y1101156D01*
X1052094Y1085536D02*
X1048156D01*
X1052094D02*
Y1086764D01*
X1051906Y1087173*
X1051719Y1087309*
X1051344Y1087445*
X1050969*
X1050594Y1087309*
X1050406Y1087173*
X1050219Y1086764*
Y1085536*
Y1086491D02*
X1048156Y1087445D01*
X1051156Y1088809D02*
X1051344D01*
X1051719Y1088945*
X1051906Y1089082*
X1052094Y1089355*
Y1089900*
X1051906Y1090173*
X1051719Y1090309*
X1051344Y1090445*
X1050969*
X1050594Y1090309*
X1050031Y1090036*
X1048156Y1088673*
Y1090582*
X1052094Y1092627D02*
X1051906Y1092218D01*
X1051344Y1091945*
X1050406Y1091809*
X1049844*
X1048906Y1091945*
X1048344Y1092218*
X1048156Y1092627*
Y1092900*
X1048344Y1093309*
X1048906Y1093582*
X1049844Y1093718*
X1050406*
X1051344Y1093582*
X1051906Y1093309*
X1052094Y1092900*
Y1092627*
X1098618Y1066094D02*
Y1062156D01*
Y1066094D02*
X1097391D01*
X1096982Y1065906*
X1096845Y1065719*
X1096709Y1065344*
Y1064969*
X1096845Y1064594*
X1096982Y1064406*
X1097391Y1064219*
X1098618*
X1097664D02*
X1096709Y1062156D01*
X1095482Y1065344D02*
X1095209Y1065531D01*
X1094800Y1066094*
Y1062156*
X1091800Y1066094D02*
X1093164D01*
X1093300Y1064406*
X1093164Y1064594*
X1092755Y1064781*
X1092345*
X1091936Y1064594*
X1091664Y1064219*
X1091527Y1063656*
X1091664Y1063281*
X1091800Y1062719*
X1092073Y1062344*
X1092482Y1062156*
X1092891*
X1093300Y1062344*
X1093436Y1062531*
X1093573Y1062906*
X1051000Y1076938D02*
Y1073000D01*
X1049364*
X1046364Y1076938D02*
X1047727D01*
X1047864Y1075250*
X1047727Y1075438*
X1047318Y1075625*
X1046909*
X1046500Y1075438*
X1046227Y1075063*
X1046091Y1074500*
X1046227Y1074125*
X1046364Y1073563*
X1046636Y1073188*
X1047045Y1073000*
X1047455*
X1047864Y1073188*
X1048000Y1073375*
X1048136Y1073750*
X1155438Y1047500D02*
X1151500D01*
X1155438D02*
Y1048727D01*
X1155438D02*
X1155250Y1049136D01*
X1155063Y1049273*
X1155063D02*
X1154688Y1049409D01*
X1154688D02*
X1154313D01*
X1154313D02*
X1153938Y1049273D01*
X1153938D02*
X1153750Y1049136D01*
X1153563Y1048727*
X1153563D02*
Y1047500D01*
Y1048455D02*
X1151500Y1049409D01*
X1155438Y1050636D02*
X1151500D01*
X1155438D02*
X1151500Y1052545D01*
X1155438D02*
X1151500D01*
X1154688Y1053773D02*
X1154875Y1054045D01*
X1155438Y1054455*
X1155438D02*
X1151500D01*
X1155438Y1026000D02*
X1151500D01*
X1155438D02*
Y1027227D01*
X1155438D02*
X1155250Y1027636D01*
X1155063Y1027773*
X1155063D02*
X1154688Y1027909D01*
X1154688D02*
X1154313D01*
X1154313D02*
X1153938Y1027773D01*
X1153938D02*
X1153750Y1027636D01*
X1153563Y1027227*
X1153563D02*
Y1026000D01*
Y1026955D02*
X1151500Y1027909D01*
X1155438Y1029136D02*
X1151500D01*
X1155438D02*
X1151500Y1031045D01*
X1155438D02*
X1151500D01*
X1154500Y1032409D02*
X1154688D01*
X1154688D02*
X1155063Y1032545D01*
X1155063D02*
X1155250Y1032682D01*
X1155438Y1032955*
X1155438D02*
Y1033500D01*
X1155438D02*
X1155250Y1033773D01*
X1155063Y1033909*
X1155063D02*
X1154688Y1034045D01*
X1154688D02*
X1154313D01*
X1154313D02*
X1153938Y1033909D01*
X1153938D02*
X1153375Y1033636D01*
X1151500Y1032273*
Y1034182*
X1178755Y1019156D02*
X1178891Y1019531D01*
X1179164Y1019906*
X1179436Y1020094*
X1179982*
X1180255Y1019906*
X1180527Y1019531*
X1180664Y1019156*
X1180800Y1018594*
Y1017656*
X1180664Y1017094*
X1180527Y1016719*
X1180255Y1016344*
X1179982Y1016156*
X1179436*
X1179164Y1016344*
X1178891Y1016719*
X1178755Y1017094*
X1177391Y1019156D02*
Y1019344D01*
X1177255Y1019719*
X1177118Y1019906*
X1176845Y1020094*
X1176300*
X1176027Y1019906*
X1175891Y1019719*
X1175755Y1019344*
Y1018969*
X1175891Y1018594*
X1176164Y1018031*
X1177527Y1016156*
X1175618*
X1173027Y1020094D02*
X1174391Y1017469D01*
X1172345*
X1173027Y1020094D02*
Y1016156D01*
X1178755Y1024656D02*
X1178891Y1025031D01*
X1179164Y1025406*
X1179436Y1025594*
X1179982*
X1180255Y1025406*
X1180527Y1025031*
X1180664Y1024656*
X1180800Y1024094*
Y1023156*
X1180664Y1022594*
X1180527Y1022219*
X1180255Y1021844*
X1179982Y1021656*
X1179436*
X1179164Y1021844*
X1178891Y1022219*
X1178755Y1022594*
X1177391Y1024656D02*
Y1024844D01*
X1177255Y1025219*
X1177118Y1025406*
X1176845Y1025594*
X1176300*
X1176027Y1025406*
X1175891Y1025219*
X1175755Y1024844*
Y1024469*
X1175891Y1024094*
X1176164Y1023531*
X1177527Y1021656*
X1175618*
X1172618Y1025594D02*
X1173982D01*
X1174118Y1023906*
X1173982Y1024094*
X1173573Y1024281*
X1173164*
X1172755Y1024094*
X1172482Y1023719*
X1172345Y1023156*
X1172482Y1022781*
X1172618Y1022219*
X1172891Y1021844*
X1173300Y1021656*
X1173709*
X1174118Y1021844*
X1174255Y1022031*
X1174391Y1022406*
X1178618Y1030156D02*
X1178755Y1030531D01*
X1179027Y1030906*
X1179300Y1031094*
X1179845*
X1180118Y1030906*
X1180391Y1030531*
X1180527Y1030156*
X1180664Y1029594*
Y1028656*
X1180527Y1028094*
X1180391Y1027719*
X1180118Y1027344*
X1179845Y1027156*
X1179300*
X1179027Y1027344*
X1178755Y1027719*
X1178618Y1028094*
X1177255Y1030156D02*
Y1030344D01*
X1177118Y1030719*
X1176982Y1030906*
X1176709Y1031094*
X1176164*
X1175891Y1030906*
X1175755Y1030719*
X1175618Y1030344*
Y1029969*
X1175755Y1029594*
X1176027Y1029031*
X1177391Y1027156*
X1175482*
X1172618Y1030531D02*
X1172755Y1030906D01*
X1173164Y1031094*
X1173436*
X1173845Y1030906*
X1174118Y1030344*
X1174255Y1029406*
Y1028469*
X1174118Y1027719*
X1173845Y1027344*
X1173436Y1027156*
X1173300*
X1172891Y1027344*
X1172618Y1027719*
X1172482Y1028281*
Y1028469*
X1172618Y1029031*
X1172891Y1029406*
X1173300Y1029594*
X1173436*
X1173845Y1029406*
X1174118Y1029031*
X1174255Y1028469*
X1176186Y1035156D02*
X1176323Y1035531D01*
X1176595Y1035906*
X1176868Y1036094*
X1177414*
X1177686Y1035906*
X1177959Y1035531*
X1178095Y1035156*
X1178232Y1034594*
Y1033656*
X1178095Y1033094*
X1177959Y1032719*
X1177686Y1032344*
X1177414Y1032156*
X1176868*
X1176595Y1032344*
X1176323Y1032719*
X1176186Y1033094*
X1174823Y1035156D02*
Y1035344D01*
X1174686Y1035719*
X1174550Y1035906*
X1174277Y1036094*
X1173732*
X1173459Y1035906*
X1173323Y1035719*
X1173186Y1035344*
Y1034969*
X1173323Y1034594*
X1173595Y1034031*
X1174959Y1032156*
X1173050*
X1169914Y1036094D02*
X1171277Y1032156D01*
X1171823Y1036094D02*
X1169914D01*
X1179186Y1040656D02*
X1179323Y1041031D01*
X1179595Y1041406*
X1179868Y1041594*
X1180414*
X1180686Y1041406*
X1180959Y1041031*
X1181095Y1040656*
X1181232Y1040094*
Y1039156*
X1181095Y1038594*
X1180959Y1038219*
X1180686Y1037844*
X1180414Y1037656*
X1179868*
X1179595Y1037844*
X1179323Y1038219*
X1179186Y1038594*
X1177823Y1040656D02*
Y1040844D01*
X1177686Y1041219*
X1177550Y1041406*
X1177277Y1041594*
X1176732*
X1176459Y1041406*
X1176323Y1041219*
X1176186Y1040844*
Y1040469*
X1176323Y1040094*
X1176595Y1039531*
X1177959Y1037656*
X1176050*
X1174141Y1041594D02*
X1174550Y1041406D01*
X1174686Y1041031*
Y1040656*
X1174550Y1040281*
X1174277Y1040094*
X1173732Y1039906*
X1173323Y1039719*
X1173050Y1039344*
X1172914Y1038969*
Y1038406*
X1173050Y1038031*
X1173186Y1037844*
X1173595Y1037656*
X1174141*
X1174550Y1037844*
X1174686Y1038031*
X1174823Y1038406*
Y1038969*
X1174686Y1039344*
X1174414Y1039719*
X1174005Y1039906*
X1173459Y1040094*
X1173186Y1040281*
X1173050Y1040656*
Y1041031*
X1173186Y1041406*
X1173595Y1041594*
X1174141*
X1179686Y1046656D02*
X1179823Y1047031D01*
X1180095Y1047406*
X1180368Y1047594*
X1180914*
X1181186Y1047406*
X1181459Y1047031*
X1181595Y1046656*
X1181732Y1046094*
Y1045156*
X1181595Y1044594*
X1181459Y1044219*
X1181186Y1043844*
X1180914Y1043656*
X1180368*
X1180095Y1043844*
X1179823Y1044219*
X1179686Y1044594*
X1178186Y1047594D02*
X1176686D01*
X1177505Y1046094*
X1177095*
X1176823Y1045906*
X1176686Y1045719*
X1176550Y1045156*
Y1044781*
X1176686Y1044219*
X1176959Y1043844*
X1177368Y1043656*
X1177777*
X1178186Y1043844*
X1178323Y1044031*
X1178459Y1044406*
X1174505Y1047594D02*
X1174914Y1047406D01*
X1175186Y1046844*
X1175323Y1045906*
Y1045344*
X1175186Y1044406*
X1174914Y1043844*
X1174505Y1043656*
X1174232*
X1173823Y1043844*
X1173550Y1044406*
X1173414Y1045344*
Y1045906*
X1173550Y1046844*
X1173823Y1047406*
X1174232Y1047594*
X1174505*
G54D60*
X0Y0D02*
M02*
