*
*
G04 PADS9.1 Build Number: 384028 generated Gerber (RS-274-X) file*
G04 PC Version=2.1*
*
%IN "{TEX080}F2805xISOcontro"*%
*
%MOIN*%
*
%FSLAX35Y35*%
*
*
*
*
G04 PC Standard Apertures*
*
*
G04 Thermal Relief Aperture macro.*
%AMTER*
1,1,$1,0,0*
1,0,$1-$2,0,0*
21,0,$3,$4,0,0,45*
21,0,$3,$4,0,0,135*
%
*
*
G04 Annular Aperture macro.*
%AMANN*
1,1,$1,0,0*
1,0,$2,0,0*
%
*
*
G04 Odd Aperture macro.*
%AMODD*
1,1,$1,0,0*
1,0,$1-0.005,0,0*
%
*
*
G04 PC Custom Aperture Macros*
*
*
*
*
*
*
G04 PC Aperture Table*
*
%ADD044C,0.05*%
%ADD050C,0.08*%
%ADD131C,0.07*%
%ADD187C,0.028*%
%ADD223C,0*%
%ADD228C,0.01*%
%ADD231C,0.008*%
%ADD232C,0.001*%
%ADD233C,0.05*%
%ADD234C,0.015*%
*
*
*
*
G04 PC Circuitry*
G04 Layer Name {TEX080}F2805xISOcontro - circuitry*
%LPD*%
*
*
G04 PC Custom Flashes*
G04 Layer Name {TEX080}F2805xISOcontro - flashes*
%LPD*%
*
*
G04 PC Circuitry*
G04 Layer Name {TEX080}F2805xISOcontro - circuitry*
%LPD*%
*
G54D44*
G01X1102390Y1007642D03*
Y1002642D03*
Y983642D03*
Y978642D03*
Y935642D03*
Y930642D03*
Y959642D03*
G54D50*
X1275890Y979142D03*
X1059890Y980142D03*
G54D131*
X1013780Y1000000D03*
X1000000D03*
G54D187*
X1071890Y886642D03*
X1061890D03*
X1098890Y896142D03*
X1096390Y895142D03*
X1102890Y897142D03*
X1092390Y892642D03*
X1094390Y894142D03*
X1091890Y886642D03*
X1081890D03*
X1150390Y897642D03*
X1152890Y890642D03*
X1175890Y889142D03*
X1186890Y894642D03*
X1191890Y887642D03*
X1179890Y889142D03*
X1171890Y888642D03*
X1166890Y890142D03*
X1161890D03*
X1177890Y891142D03*
X1227890Y886642D03*
X1233890D03*
X1224890Y894642D03*
X1216390Y886642D03*
X1196890Y887642D03*
X1252890Y895142D03*
X1257890Y894642D03*
X1266390Y895142D03*
X1270390Y890642D03*
X1264390Y898642D03*
X1244390Y887142D03*
X1250890Y891142D03*
X1241890Y892142D03*
X1248890Y886642D03*
X1266390Y888642D03*
X1238890Y886642D03*
X1244390Y893642D03*
X1246890Y888642D03*
X1263890Y894142D03*
X1255890Y889142D03*
X1276890Y888142D03*
X1276390Y892642D03*
X1286890Y897642D03*
X1278890D03*
X1291390Y889642D03*
X1289390Y892642D03*
X1284390Y891642D03*
X990390Y926142D03*
Y930142D03*
X1024890Y932642D03*
X1002390Y930642D03*
X1011890Y931642D03*
X1001390Y921142D03*
X1009390Y933642D03*
X1019390Y932142D03*
X1029890Y937642D03*
X1027390Y936642D03*
X1074390Y912642D03*
X1071890Y932142D03*
Y935642D03*
X1111390Y904142D03*
X1102390Y922142D03*
X1113890Y906142D03*
X1111890Y919642D03*
X1114390D03*
X1107390D03*
X1101390Y899642D03*
X1105390Y921142D03*
X1108890Y922142D03*
X1111890Y900642D03*
X1095390Y920642D03*
X1142890Y906142D03*
X1140390Y926142D03*
X1140890Y909142D03*
X1116390Y908642D03*
X1144390Y911142D03*
X1117890Y927642D03*
X1145890Y932142D03*
X1144890Y904142D03*
X1116890Y919642D03*
X1120890Y904142D03*
X1133390Y917642D03*
X1154890Y923642D03*
X1161390Y920642D03*
X1155890Y906642D03*
X1159390Y911142D03*
X1178390Y908142D03*
X1168390Y934642D03*
X1167890Y913142D03*
X1175890Y926142D03*
X1159390Y916142D03*
X1181390Y936642D03*
X1192390Y914142D03*
X1188390D03*
X1186390Y916142D03*
X1184390Y914142D03*
X1182890Y916142D03*
X1194390D03*
X1185390Y934642D03*
X1206390Y930142D03*
X1202390Y931142D03*
X1213390Y904142D03*
X1217890Y903142D03*
X1203890Y935642D03*
X1233890Y900142D03*
X1208390Y903642D03*
X1222890Y921642D03*
X1232890Y936642D03*
Y908642D03*
X1207890Y899642D03*
X1216390Y930142D03*
X1206390Y908142D03*
X1198390Y916142D03*
X1200390Y914142D03*
X1217890Y927642D03*
X1213890D03*
X1221890Y936642D03*
X1197390Y905142D03*
X1196390Y914142D03*
X1231890Y904142D03*
X1257390Y900642D03*
X1263390Y918142D03*
X1262390Y900642D03*
X1239890Y908142D03*
X1248890Y907642D03*
X1246390Y909642D03*
X1242390Y906142D03*
X1248390Y911142D03*
X1236890Y907642D03*
X1262390Y931642D03*
X1244390Y908142D03*
X1252390D03*
X1264390Y929642D03*
Y924642D03*
X1262390Y905142D03*
X1248390Y914142D03*
X1249390Y916642D03*
X1262390Y908142D03*
X1234890Y906142D03*
X1236890Y899642D03*
X1286390Y924142D03*
X1311390Y913642D03*
X1277890Y929142D03*
X1278390Y907642D03*
X1304890Y919142D03*
X1277890Y913642D03*
X1286390Y915642D03*
X1297890Y932142D03*
X1308890Y928642D03*
X994390Y947142D03*
Y941142D03*
X1005390Y977142D03*
X1027890Y959642D03*
X1005890Y939642D03*
X1018890Y966142D03*
X1015390Y963642D03*
X1030390Y955142D03*
X999390Y962642D03*
X1004890Y959642D03*
Y954642D03*
X995390Y952642D03*
X999390Y948642D03*
X1016890Y955642D03*
X999890Y966142D03*
X1011390Y962642D03*
X1029390Y943142D03*
X1018890Y959642D03*
X1009390Y966142D03*
X1027390Y965642D03*
X1030390Y959142D03*
X1014890Y953642D03*
X1000890Y975142D03*
X1019390Y974642D03*
X1007390Y964642D03*
X1000390Y939142D03*
X1027890Y955142D03*
X1053390Y952142D03*
X1039390Y964642D03*
X1072390Y959642D03*
X1059390Y957142D03*
X1053390Y947142D03*
X1071390Y978642D03*
X1040060Y958971D03*
X1071890Y964642D03*
X1052390Y957142D03*
X1072390Y954642D03*
X1052390Y962142D03*
X1039890D03*
X1059390Y947142D03*
X1071890Y940642D03*
X1102890Y949642D03*
X1075390Y970142D03*
X1102390Y973642D03*
X1077890Y946642D03*
Y943642D03*
X1102390Y940642D03*
X1149390Y973642D03*
X1140890Y964642D03*
X1138890Y958642D03*
X1117890Y956642D03*
Y952642D03*
X1119890Y954642D03*
X1121390Y958642D03*
X1119390Y960642D03*
X1121390Y962642D03*
X1119390Y964642D03*
X1121390Y966642D03*
Y974642D03*
X1119390Y976642D03*
X1121390Y978642D03*
X1116890Y960142D03*
X1116390Y978142D03*
X1138890Y954642D03*
X1142390Y950142D03*
X1136890Y952642D03*
X1144390Y962642D03*
X1152390Y975642D03*
X1138390Y978642D03*
X1138890Y974642D03*
X1152890Y942142D03*
X1139390Y971142D03*
X1181890Y944642D03*
X1186890Y961142D03*
X1194390Y951142D03*
X1183890Y956642D03*
X1189890Y951142D03*
X1168890Y961142D03*
X1184390Y952142D03*
X1167390Y969642D03*
X1188594Y967642D03*
X1164390Y964642D03*
X1166890Y958642D03*
X1182890Y948642D03*
X1158390Y955642D03*
X1159390Y948642D03*
X1160390Y962642D03*
X1175390Y969642D03*
X1181390Y960642D03*
X1168890Y964642D03*
X1183390Y963142D03*
X1159390Y942142D03*
X1219390Y955142D03*
X1216390Y949642D03*
X1204890Y955142D03*
X1205390Y951142D03*
X1199890Y943142D03*
X1204390Y941142D03*
X1201390Y966642D03*
X1195890Y966142D03*
X1220390Y950642D03*
X1200890Y948142D03*
X1211890Y945142D03*
X1208890Y947142D03*
X1197390Y951142D03*
X1205390Y965142D03*
X1218390Y965642D03*
X1215890Y967642D03*
X1220890Y967142D03*
X1208890D03*
X1211890Y967642D03*
X1254890Y963642D03*
X1236390Y969642D03*
X1246390Y948642D03*
X1268890Y942142D03*
X1260390Y944142D03*
X1267390Y966642D03*
X1269890Y961142D03*
X1264390Y971142D03*
X1262390Y962142D03*
X1243390Y950642D03*
X1235890Y948642D03*
X1237890Y951142D03*
X1295390Y973142D03*
X1286390Y956142D03*
X1294390Y941142D03*
X1310890D03*
Y949142D03*
X1282890Y943642D03*
X1293390Y946142D03*
X1277890Y943642D03*
X1310890Y957142D03*
X1030890Y1002642D03*
X1003890Y982642D03*
X1015890Y991142D03*
X1003890Y985142D03*
X1023390Y982142D03*
X1069890Y1001642D03*
X1067890Y998642D03*
X1050390Y990142D03*
X1071390Y983642D03*
X1035890Y1012142D03*
X1053390Y983142D03*
X1071390Y997642D03*
X1060890Y1011142D03*
X1047390Y1004642D03*
X1041890Y996142D03*
X1070890Y987642D03*
X1057390Y994142D03*
X1102390Y997642D03*
X1128390Y1017142D03*
X1128890Y1013142D03*
X1119390Y980642D03*
X1121390Y982642D03*
X1119390Y984642D03*
X1121390Y986642D03*
X1125890Y1014642D03*
X1151390Y1006142D03*
X1116390Y984642D03*
X1138390Y995642D03*
Y1011142D03*
X1144890Y984642D03*
X1146390Y979642D03*
X1116390Y1001142D03*
Y1007642D03*
X1146390Y1002642D03*
X1134890Y1005142D03*
X1123890Y1016142D03*
X1127890Y1003142D03*
X1137890Y987642D03*
X1121890Y1018642D03*
X1167390Y983642D03*
X1174890Y990642D03*
X1168890Y979642D03*
X1173890Y979142D03*
X1160890Y985642D03*
X1170390Y996142D03*
X1188890Y1005642D03*
X1194390Y1004642D03*
X1178390Y1003142D03*
X1155890Y1005642D03*
X1162390Y981642D03*
X1170890Y991642D03*
X1215890Y1002142D03*
Y1005142D03*
X1208390Y980142D03*
X1228890Y983142D03*
X1223890Y983642D03*
X1205890Y990142D03*
X1209890Y1002142D03*
Y1005142D03*
X1206390Y1011142D03*
X1228890Y1001142D03*
X1206390Y995642D03*
X1212890Y979642D03*
X1216890Y990142D03*
X1251890Y1001142D03*
Y998642D03*
Y1003642D03*
X1241890Y989142D03*
X1253890Y1018142D03*
X1234890Y991142D03*
X1259890Y1016642D03*
X1266890Y990642D03*
X1277390Y1016142D03*
X1284890Y1005142D03*
X1279890Y1011142D03*
X1282890Y983642D03*
X1293890Y980142D03*
X1310890Y986642D03*
X1291890Y990142D03*
X1119890Y1020642D03*
G54D223*
G54D228*
X1265469Y539326D02*
Y529482D01*
X1269560*
X1275356Y539326D02*
X1272628Y529482D01*
X1275356Y539326D02*
X1278083Y529482D01*
X1273651Y532764D02*
X1277060D01*
X1281151Y539326D02*
X1283878Y534639D01*
Y529482*
X1286606Y539326D02*
X1283878Y534639D01*
X1289674Y539326D02*
Y529482D01*
Y539326D02*
X1294106D01*
X1289674Y534639D02*
X1292401D01*
X1289674Y529482D02*
X1294106D01*
X1297174Y539326D02*
Y529482D01*
Y539326D02*
X1300242D01*
X1301265Y538857*
X1301606Y538389*
X1301947Y537451*
Y536514*
X1301606Y535576*
X1301265Y535107*
X1300242Y534639*
X1297174*
X1299560D02*
X1301947Y529482D01*
X799490Y567685D02*
Y557842D01*
Y567685D02*
X802558D01*
X803581Y567217*
X803922Y566748*
X804262Y565810*
Y564404*
X803922Y563467*
X803581Y562998*
X802558Y562529*
X799490*
X807331Y567685D02*
Y557842D01*
X812103Y567685D02*
Y557842D01*
X807331Y562998D02*
X812103D01*
X817217Y567685D02*
X816535Y567217D01*
X815853Y566279*
X815512Y565342*
X815172Y563935*
Y561592*
X815512Y560185*
X815853Y559248*
X816535Y558310*
X817217Y557842*
X818581*
X819262Y558310*
X819944Y559248*
X820285Y560185*
X820626Y561592*
Y563935*
X820285Y565342*
X819944Y566279*
X819262Y567217*
X818581Y567685*
X817217*
X823694D02*
Y557842D01*
Y567685D02*
X828467Y557842D01*
Y567685D02*
Y557842D01*
X831535Y567685D02*
Y557842D01*
Y567685D02*
X835967D01*
X831535Y562998D02*
X834262D01*
X831535Y557842D02*
X835967D01*
X839376Y564404D02*
X839035Y563935D01*
X839376Y563467*
X839717Y563935*
X839376Y564404*
Y558779D02*
X839035Y558310D01*
X839376Y557842*
X839717Y558310*
X839376Y558779*
X855058Y567685D02*
X851649D01*
X851308Y563467*
X851649Y563935*
X852672Y564404*
X853694*
X854717Y563935*
X855399Y562998*
X855740Y561592*
X855399Y560654*
X855058Y559248*
X854376Y558310*
X853353Y557842*
X852331*
X851308Y558310*
X850967Y558779*
X850626Y559717*
X860853Y567685D02*
X859831Y567217D01*
X859149Y565810*
X858808Y563467*
Y562060*
X859149Y559717*
X859831Y558310*
X860853Y557842*
X861535*
X862558Y558310*
X863240Y559717*
X863581Y562060*
Y563467*
X863240Y565810*
X862558Y567217*
X861535Y567685*
X860853*
X868353D02*
X867331Y567217D01*
X866990Y566279*
Y565342*
X867331Y564404*
X868012Y563935*
X869376Y563467*
X870399Y562998*
X871081Y562060*
X871422Y561123*
Y559717*
X871081Y558779*
X870740Y558310*
X869717Y557842*
X868353*
X867331Y558310*
X866990Y558779*
X866649Y559717*
Y561123*
X866990Y562060*
X867672Y562998*
X868694Y563467*
X870058Y563935*
X870740Y564404*
X871081Y565342*
Y566279*
X870740Y567217*
X869717Y567685*
X868353*
X874831Y558779D02*
X874490Y558310D01*
X874831Y557842*
X875172Y558310*
X874831Y558779*
X882672Y564404D02*
X882331Y562998D01*
X881649Y562060*
X880626Y561592*
X880285*
X879262Y562060*
X878581Y562998*
X878240Y564404*
Y564873*
X878581Y566279*
X879262Y567217*
X880285Y567685*
X880626*
X881649Y567217*
X882331Y566279*
X882672Y564404*
Y562060*
X882331Y559717*
X881649Y558310*
X880626Y557842*
X879944*
X878922Y558310*
X878581Y559248*
X889149Y567685D02*
X885740Y561123D01*
X890853*
X889149Y567685D02*
Y557842D01*
X898694Y567685D02*
X895285Y557842D01*
X893922Y567685D02*
X898694D01*
X902103Y558779D02*
X901762Y558310D01*
X902103Y557842*
X902444Y558310*
X902103Y558779*
X905853Y565342D02*
Y565810D01*
X906194Y566748*
X906535Y567217*
X907217Y567685*
X908581*
X909262Y567217*
X909603Y566748*
X909944Y565810*
Y564873*
X909603Y563935*
X908922Y562529*
X905512Y557842*
X910285*
X918126Y567685D02*
X914717Y557842D01*
X913353Y567685D02*
X918126D01*
X923240D02*
X922217Y567217D01*
X921535Y565810*
X921194Y563467*
Y562060*
X921535Y559717*
X922217Y558310*
X923240Y557842*
X923922*
X924944Y558310*
X925626Y559717*
X925967Y562060*
Y563467*
X925626Y565810*
X924944Y567217*
X923922Y567685*
X923240*
X933467Y564404D02*
X933126Y562998D01*
X932444Y562060*
X931422Y561592*
X931081*
X930058Y562060*
X929376Y562998*
X929035Y564404*
Y564873*
X929376Y566279*
X930058Y567217*
X931081Y567685*
X931422*
X932444Y567217*
X933126Y566279*
X933467Y564404*
Y562060*
X933126Y559717*
X932444Y558310*
X931422Y557842*
X930740*
X929717Y558310*
X929376Y559248*
X941490Y594985D02*
Y585142D01*
Y594985D02*
X944217Y585142D01*
X946944Y594985D02*
X944217Y585142D01*
X946944Y594985D02*
Y585142D01*
X950012Y594985D02*
X950353Y594517D01*
X950694Y594985*
X950353Y595454*
X950012Y594985*
X950353Y591704D02*
Y585142D01*
X957853Y594985D02*
Y585142D01*
Y590298D02*
X957172Y591235D01*
X956490Y591704*
X955467*
X954785Y591235*
X954103Y590298*
X953762Y588892*
Y587954*
X954103Y586548*
X954785Y585610*
X955467Y585142*
X956490*
X957172Y585610*
X957853Y586548*
X965012Y594985D02*
Y585142D01*
Y590298D02*
X964331Y591235D01*
X963649Y591704*
X962626*
X961944Y591235*
X961262Y590298*
X960922Y588892*
Y587954*
X961262Y586548*
X961944Y585610*
X962626Y585142*
X963649*
X964331Y585610*
X965012Y586548*
X968081Y594985D02*
Y585142D01*
X971149Y588892D02*
X975240D01*
Y589829*
X974899Y590767*
X974558Y591235*
X973876Y591704*
X972853*
X972172Y591235*
X971490Y590298*
X971149Y588892*
Y587954*
X971490Y586548*
X972172Y585610*
X972853Y585142*
X973876*
X974558Y585610*
X975240Y586548*
X978308Y594985D02*
Y585142D01*
Y590298D02*
X978990Y591235D01*
X979672Y591704*
X980694*
X981376Y591235*
X982058Y590298*
X982399Y588892*
Y587954*
X982058Y586548*
X981376Y585610*
X980694Y585142*
X979672*
X978990Y585610*
X978308Y586548*
X987172Y591704D02*
X986490Y591235D01*
X985808Y590298*
X985467Y588892*
Y587954*
X985808Y586548*
X986490Y585610*
X987172Y585142*
X988194*
X988876Y585610*
X989558Y586548*
X989899Y587954*
Y588892*
X989558Y590298*
X988876Y591235*
X988194Y591704*
X987172*
X992967D02*
Y585142D01*
Y588892D02*
X993308Y590298D01*
X993990Y591235*
X994672Y591704*
X995694*
X1000467D02*
X999785Y591235D01*
X999103Y590298*
X998762Y588892*
Y587954*
X999103Y586548*
X999785Y585610*
X1000467Y585142*
X1001490*
X1002172Y585610*
X1002853Y586548*
X1003194Y587954*
Y588892*
X1002853Y590298*
X1002172Y591235*
X1001490Y591704*
X1000467*
X1006944Y585610D02*
X1006603Y585142D01*
X1006262Y585610*
X1006603Y586079*
X1006944Y585610*
Y584673*
X1006603Y583735*
X1006262Y583267*
X1017853Y594985D02*
Y585142D01*
Y594985D02*
X1020581Y585142D01*
X1023308Y594985D02*
X1020581Y585142D01*
X1023308Y594985D02*
Y585142D01*
X1029103Y594985D02*
X1026376Y585142D01*
X1029103Y594985D02*
X1031831Y585142D01*
X1027399Y588423D02*
X1030808D01*
X1044785Y594985D02*
X1043762Y594517D01*
X1043081Y593110*
X1042740Y590767*
Y589360*
X1043081Y587017*
X1043762Y585610*
X1044785Y585142*
X1045467*
X1046490Y585610*
X1047172Y587017*
X1047512Y589360*
Y590767*
X1047172Y593110*
X1046490Y594517*
X1045467Y594985*
X1044785*
X1050922Y592642D02*
Y593110D01*
X1051262Y594048*
X1051603Y594517*
X1052285Y594985*
X1053649*
X1054331Y594517*
X1054672Y594048*
X1055012Y593110*
Y592173*
X1054672Y591235*
X1053990Y589829*
X1050581Y585142*
X1055353*
X1059103Y594985D02*
X1062853D01*
X1060808Y591235*
X1061831*
X1062512Y590767*
X1062853Y590298*
X1063194Y588892*
Y587954*
X1062853Y586548*
X1062172Y585610*
X1061149Y585142*
X1060126*
X1059103Y585610*
X1058762Y586079*
X1058422Y587017*
X1069672Y594985D02*
X1066262Y588423D01*
X1071376*
X1069672Y594985D02*
Y585142D01*
X1078535Y593579D02*
X1078194Y594517D01*
X1077172Y594985*
X1076490*
X1075467Y594517*
X1074785Y593110*
X1074444Y590767*
Y588423*
X1074785Y586548*
X1075467Y585610*
X1076490Y585142*
X1076831*
X1077853Y585610*
X1078535Y586548*
X1078876Y587954*
Y588423*
X1078535Y589829*
X1077853Y590767*
X1076831Y591235*
X1076490*
X1075467Y590767*
X1074785Y589829*
X1074444Y588423*
X947290Y610410D02*
X947972Y610879D01*
X948994Y612285*
Y602442*
X952062Y610410D02*
X952744Y610879D01*
X953767Y612285*
Y602442*
X958540Y612285D02*
X957517Y611817D01*
X957176Y610879*
Y609942*
X957517Y609004*
X958199Y608535*
X959562Y608067*
X960585Y607598*
X961267Y606660*
X961608Y605723*
Y604317*
X961267Y603379*
X960926Y602910*
X959903Y602442*
X958540*
X957517Y602910*
X957176Y603379*
X956835Y604317*
Y605723*
X957176Y606660*
X957858Y607598*
X958881Y608067*
X960244Y608535*
X960926Y609004*
X961267Y609942*
Y610879*
X960926Y611817*
X959903Y612285*
X958540*
X969108D02*
X965699D01*
X965358Y608067*
X965699Y608535*
X966722Y609004*
X967744*
X968767Y608535*
X969449Y607598*
X969790Y606192*
X969449Y605254*
X969108Y603848*
X968426Y602910*
X967403Y602442*
X966381*
X965358Y602910*
X965017Y603379*
X964676Y604317*
X985812Y609942D02*
X985472Y610879D01*
X984790Y611817*
X984108Y612285*
X982744*
X982062Y611817*
X981381Y610879*
X981040Y609942*
X980699Y608535*
Y606192*
X981040Y604785*
X981381Y603848*
X982062Y602910*
X982744Y602442*
X984108*
X984790Y602910*
X985472Y603848*
X985812Y604785*
X988881Y606192D02*
X992972D01*
Y607129*
X992631Y608067*
X992290Y608535*
X991608Y609004*
X990585*
X989903Y608535*
X989222Y607598*
X988881Y606192*
Y605254*
X989222Y603848*
X989903Y602910*
X990585Y602442*
X991608*
X992290Y602910*
X992972Y603848*
X996040Y609004D02*
Y602442D01*
Y607129D02*
X997062Y608535D01*
X997744Y609004*
X998767*
X999449Y608535*
X999790Y607129*
Y602442*
X1003881Y612285D02*
Y604317D01*
X1004222Y602910*
X1004903Y602442*
X1005585*
X1002858Y609004D02*
X1005244D01*
X1008653D02*
Y602442D01*
Y606192D02*
X1008994Y607598D01*
X1009676Y608535*
X1010358Y609004*
X1011381*
X1014449Y606192D02*
X1018540D01*
Y607129*
X1018199Y608067*
X1017858Y608535*
X1017176Y609004*
X1016153*
X1015472Y608535*
X1014790Y607598*
X1014449Y606192*
Y605254*
X1014790Y603848*
X1015472Y602910*
X1016153Y602442*
X1017176*
X1017858Y602910*
X1018540Y603848*
X1034222Y610879D02*
X1033540Y611817D01*
X1032517Y612285*
X1031153*
X1030131Y611817*
X1029449Y610879*
Y609942*
X1029790Y609004*
X1030131Y608535*
X1030812Y608067*
X1032858Y607129*
X1033540Y606660*
X1033881Y606192*
X1034222Y605254*
Y603848*
X1033540Y602910*
X1032517Y602442*
X1031153*
X1030131Y602910*
X1029449Y603848*
X1038312Y612285D02*
Y604317D01*
X1038653Y602910*
X1039335Y602442*
X1040017*
X1037290Y609004D02*
X1039676D01*
X1043085D02*
Y602442D01*
Y606192D02*
X1043426Y607598D01*
X1044108Y608535*
X1044790Y609004*
X1045812*
X1048881Y606192D02*
X1052972D01*
Y607129*
X1052631Y608067*
X1052290Y608535*
X1051608Y609004*
X1050585*
X1049903Y608535*
X1049222Y607598*
X1048881Y606192*
Y605254*
X1049222Y603848*
X1049903Y602910*
X1050585Y602442*
X1051608*
X1052290Y602910*
X1052972Y603848*
X1056040Y606192D02*
X1060131D01*
Y607129*
X1059790Y608067*
X1059449Y608535*
X1058767Y609004*
X1057744*
X1057062Y608535*
X1056381Y607598*
X1056040Y606192*
Y605254*
X1056381Y603848*
X1057062Y602910*
X1057744Y602442*
X1058767*
X1059449Y602910*
X1060131Y603848*
X1064222Y612285D02*
Y604317D01*
X1064562Y602910*
X1065244Y602442*
X1065926*
X1063199Y609004D02*
X1065585D01*
X1134481Y541654D02*
X1133117Y541029D01*
X1132208Y539154*
X1131753Y536029*
Y534154*
X1132208Y531029*
X1133117Y529154*
X1134481Y528529*
X1135390*
X1136753Y529154*
X1137662Y531029*
X1138117Y534154*
Y536029*
X1137662Y539154*
X1136753Y541029*
X1135390Y541654*
X1134481*
X1148117D02*
X1143572D01*
X1143117Y536029*
X1143572Y536654*
X1144935Y537279*
X1146299*
X1147662Y536654*
X1148572Y535404*
X1149026Y533529*
X1148572Y532279*
X1148117Y530404*
X1147208Y529154*
X1145844Y528529*
X1144481*
X1143117Y529154*
X1142662Y529779*
X1142208Y531029*
X1161299Y544154D02*
X1153117Y524154D01*
X1165390Y539154D02*
X1166299Y539779D01*
X1167662Y541654*
Y528529*
X1174026Y541654D02*
X1172662Y541029D01*
X1172208Y539779*
Y538529*
X1172662Y537279*
X1173572Y536654*
X1175390Y536029*
X1176753Y535404*
X1177662Y534154*
X1178117Y532904*
Y531029*
X1177662Y529779*
X1177208Y529154*
X1175844Y528529*
X1174026*
X1172662Y529154*
X1172208Y529779*
X1171753Y531029*
Y532904*
X1172208Y534154*
X1173117Y535404*
X1174481Y536029*
X1176299Y536654*
X1177208Y537279*
X1177662Y538529*
Y539779*
X1177208Y541029*
X1175844Y541654*
X1174026*
X1190390Y544154D02*
X1182208Y524154D01*
X1194481Y539154D02*
X1195390Y539779D01*
X1196753Y541654*
Y528529*
X1201299Y538529D02*
Y539154D01*
X1201753Y540404*
X1202208Y541029*
X1203117Y541654*
X1204935*
X1205844Y541029*
X1206299Y540404*
X1206753Y539154*
Y537904*
X1206299Y536654*
X1205390Y534779*
X1200844Y528529*
X1207208*
X810799Y541485D02*
Y533985D01*
X810458Y532579*
X810117Y532110*
X809435Y531642*
X808753*
X808072Y532110*
X807731Y532579*
X807390Y533985*
Y534923*
X815572Y538204D02*
X814890Y537735D01*
X814208Y536798*
X813867Y535392*
Y534454*
X814208Y533048*
X814890Y532110*
X815572Y531642*
X816594*
X817276Y532110*
X817958Y533048*
X818299Y534454*
Y535392*
X817958Y536798*
X817276Y537735*
X816594Y538204*
X815572*
X821367Y541485D02*
Y531642D01*
Y536798D02*
X822049Y537735D01*
X822731Y538204*
X823753*
X824435Y537735*
X825117Y536798*
X825458Y535392*
Y534454*
X825117Y533048*
X824435Y532110*
X823753Y531642*
X822731*
X822049Y532110*
X821367Y533048*
X836367Y541485D02*
Y531642D01*
Y541485D02*
X841140Y531642D01*
Y541485D02*
Y531642D01*
X845912Y538204D02*
X845231Y537735D01*
X844549Y536798*
X844208Y535392*
Y534454*
X844549Y533048*
X845231Y532110*
X845912Y531642*
X846935*
X847617Y532110*
X848299Y533048*
X848640Y534454*
Y535392*
X848299Y536798*
X847617Y537735*
X846935Y538204*
X845912*
X852049D02*
X851708Y537735D01*
X852049Y537267*
X852390Y537735*
X852049Y538204*
Y532579D02*
X851708Y532110D01*
X852049Y531642*
X852390Y532110*
X852049Y532579*
X1012890Y538685D02*
Y528842D01*
Y538685D02*
X1015276D01*
X1016299Y538217*
X1016981Y537279*
X1017322Y536342*
X1017662Y534935*
Y532592*
X1017322Y531185*
X1016981Y530248*
X1016299Y529310*
X1015276Y528842*
X1012890*
X1024822Y535404D02*
Y528842D01*
Y533998D02*
X1024140Y534935D01*
X1023458Y535404*
X1022435*
X1021753Y534935*
X1021072Y533998*
X1020731Y532592*
Y531654*
X1021072Y530248*
X1021753Y529310*
X1022435Y528842*
X1023458*
X1024140Y529310*
X1024822Y530248*
X1028912Y538685D02*
Y530717D01*
X1029253Y529310*
X1029935Y528842*
X1030617*
X1027890Y535404D02*
X1030276D01*
X1033685Y532592D02*
X1037776D01*
Y533529*
X1037435Y534467*
X1037094Y534935*
X1036412Y535404*
X1035390*
X1034708Y534935*
X1034026Y533998*
X1033685Y532592*
Y531654*
X1034026Y530248*
X1034708Y529310*
X1035390Y528842*
X1036412*
X1037094Y529310*
X1037776Y530248*
X1041185Y535404D02*
X1040844Y534935D01*
X1041185Y534467*
X1041526Y534935*
X1041185Y535404*
Y529779D02*
X1040844Y529310D01*
X1041185Y528842*
X1041526Y529310*
X1041185Y529779*
X799517Y655385D02*
X796790Y645542D01*
X799517Y655385D02*
X802244Y645542D01*
X797812Y648823D02*
X801222D01*
X805312Y652104D02*
Y645542D01*
Y649292D02*
X805653Y650698D01*
X806335Y651635*
X807017Y652104*
X808040*
X812131Y655385D02*
Y647417D01*
X812472Y646010*
X813153Y645542*
X813835*
X811108Y652104D02*
X813494D01*
X816903D02*
X818267Y645542D01*
X819631Y652104D02*
X818267Y645542D01*
X819631Y652104D02*
X820994Y645542D01*
X822358Y652104D02*
X820994Y645542D01*
X827131Y652104D02*
X826449Y651635D01*
X825767Y650698*
X825426Y649292*
Y648354*
X825767Y646948*
X826449Y646010*
X827131Y645542*
X828153*
X828835Y646010*
X829517Y646948*
X829858Y648354*
Y649292*
X829517Y650698*
X828835Y651635*
X828153Y652104*
X827131*
X832926D02*
Y645542D01*
Y649292D02*
X833267Y650698D01*
X833949Y651635*
X834631Y652104*
X835653*
X838722Y655385D02*
Y645542D01*
X842131Y652104D02*
X838722Y647417D01*
X840085Y649292D02*
X842472Y645542D01*
X853381Y655385D02*
Y645542D01*
Y655385D02*
X855767D01*
X856790Y654917*
X857472Y653979*
X857812Y653042*
X858153Y651635*
Y649292*
X857812Y647885*
X857472Y646948*
X856790Y646010*
X855767Y645542*
X853381*
X861222Y649292D02*
X865312D01*
Y650229*
X864972Y651167*
X864631Y651635*
X863949Y652104*
X862926*
X862244Y651635*
X861562Y650698*
X861222Y649292*
Y648354*
X861562Y646948*
X862244Y646010*
X862926Y645542*
X863949*
X864631Y646010*
X865312Y646948*
X872131Y650698D02*
X871790Y651635D01*
X870767Y652104*
X869744*
X868722Y651635*
X868381Y650698*
X868722Y649760*
X869403Y649292*
X871108Y648823*
X871790Y648354*
X872131Y647417*
Y646948*
X871790Y646010*
X870767Y645542*
X869744*
X868722Y646010*
X868381Y646948*
X875199Y655385D02*
X875540Y654917D01*
X875881Y655385*
X875540Y655854*
X875199Y655385*
X875540Y652104D02*
Y645542D01*
X883040Y652104D02*
Y644604D01*
X882699Y643198*
X882358Y642729*
X881676Y642260*
X880653*
X879972Y642729*
X883040Y650698D02*
X882358Y651635D01*
X881676Y652104*
X880653*
X879972Y651635*
X879290Y650698*
X878949Y649292*
Y648354*
X879290Y646948*
X879972Y646010*
X880653Y645542*
X881676*
X882358Y646010*
X883040Y646948*
X886108Y652104D02*
Y645542D01*
Y650229D02*
X887131Y651635D01*
X887812Y652104*
X888835*
X889517Y651635*
X889858Y650229*
Y645542*
X892926Y649292D02*
X897017D01*
Y650229*
X896676Y651167*
X896335Y651635*
X895653Y652104*
X894631*
X893949Y651635*
X893267Y650698*
X892926Y649292*
Y648354*
X893267Y646948*
X893949Y646010*
X894631Y645542*
X895653*
X896335Y646010*
X897017Y646948*
X904176Y655385D02*
Y645542D01*
Y650698D02*
X903494Y651635D01*
X902812Y652104*
X901790*
X901108Y651635*
X900426Y650698*
X900085Y649292*
Y648354*
X900426Y646948*
X901108Y646010*
X901790Y645542*
X902812*
X903494Y646010*
X904176Y646948*
X915085Y655385D02*
Y645542D01*
Y655385D02*
X918153D01*
X919176Y654917*
X919517Y654448*
X919858Y653510*
Y652573*
X919517Y651635*
X919176Y651167*
X918153Y650698*
X915085D02*
X918153D01*
X919176Y650229*
X919517Y649760*
X919858Y648823*
Y647417*
X919517Y646479*
X919176Y646010*
X918153Y645542*
X915085*
X923267Y652104D02*
X925312Y645542D01*
X927358Y652104D02*
X925312Y645542D01*
X924631Y643667*
X923949Y642729*
X923267Y642260*
X922926*
X930767Y652104D02*
X930426Y651635D01*
X930767Y651167*
X931108Y651635*
X930767Y652104*
Y646479D02*
X930426Y646010D01*
X930767Y645542*
X931108Y646010*
X930767Y646479*
X878572Y540654D02*
Y527529D01*
X875390Y540654D02*
X881753D01*
X885844D02*
Y527529D01*
Y540654D02*
X891753D01*
X885844Y534404D02*
X889481D01*
X885844Y527529D02*
X891753D01*
X895844Y540654D02*
X902208Y527529D01*
Y540654D02*
X895844Y527529D01*
X906753Y528779D02*
X906299Y528154D01*
X906753Y527529*
X907208Y528154*
X906753Y528779*
X914026Y540654D02*
X912662Y540029D01*
X911753Y538154*
X911299Y535029*
Y533154*
X911753Y530029*
X912662Y528154*
X914026Y527529*
X914935*
X916299Y528154*
X917208Y530029*
X917662Y533154*
Y535029*
X917208Y538154*
X916299Y540029*
X914935Y540654*
X914026*
X924026D02*
X922662Y540029D01*
X922208Y538779*
Y537529*
X922662Y536279*
X923572Y535654*
X925390Y535029*
X926753Y534404*
X927662Y533154*
X928117Y531904*
Y530029*
X927662Y528779*
X927208Y528154*
X925844Y527529*
X924026*
X922662Y528154*
X922208Y528779*
X921753Y530029*
Y531904*
X922208Y533154*
X923117Y534404*
X924481Y535029*
X926299Y535654*
X927208Y536279*
X927662Y537529*
Y538779*
X927208Y540029*
X925844Y540654*
X924026*
X934935D02*
X933572Y540029D01*
X932662Y538154*
X932208Y535029*
Y533154*
X932662Y530029*
X933572Y528154*
X934935Y527529*
X935844*
X937208Y528154*
X938117Y530029*
X938572Y533154*
Y535029*
X938117Y538154*
X937208Y540029*
X935844Y540654*
X934935*
X1232617Y710185D02*
X1229890Y700342D01*
X1232617Y710185D02*
X1235344Y700342D01*
X1230912Y703623D02*
X1234322D01*
X1238412Y706904D02*
Y700342D01*
Y704092D02*
X1238753Y705498D01*
X1239435Y706435*
X1240117Y706904*
X1241140*
X1245231Y710185D02*
Y702217D01*
X1245572Y700810*
X1246253Y700342*
X1246935*
X1244208Y706904D02*
X1246594D01*
X1250003D02*
X1251367Y700342D01*
X1252731Y706904D02*
X1251367Y700342D01*
X1252731Y706904D02*
X1254094Y700342D01*
X1255458Y706904D02*
X1254094Y700342D01*
X1260231Y706904D02*
X1259549Y706435D01*
X1258867Y705498*
X1258526Y704092*
Y703154*
X1258867Y701748*
X1259549Y700810*
X1260231Y700342*
X1261253*
X1261935Y700810*
X1262617Y701748*
X1262958Y703154*
Y704092*
X1262617Y705498*
X1261935Y706435*
X1261253Y706904*
X1260231*
X1266026D02*
Y700342D01*
Y704092D02*
X1266367Y705498D01*
X1267049Y706435*
X1267731Y706904*
X1268753*
X1271822Y710185D02*
Y700342D01*
X1275231Y706904D02*
X1271822Y702217D01*
X1273185Y704092D02*
X1275572Y700342D01*
X1286481Y710185D02*
Y700342D01*
Y710185D02*
X1288867D01*
X1289890Y709717*
X1290572Y708779*
X1290912Y707842*
X1291253Y706435*
Y704092*
X1290912Y702685*
X1290572Y701748*
X1289890Y700810*
X1288867Y700342*
X1286481*
X1294322Y704092D02*
X1298412D01*
Y705029*
X1298072Y705967*
X1297731Y706435*
X1297049Y706904*
X1296026*
X1295344Y706435*
X1294662Y705498*
X1294322Y704092*
Y703154*
X1294662Y701748*
X1295344Y700810*
X1296026Y700342*
X1297049*
X1297731Y700810*
X1298412Y701748*
X1305231Y705498D02*
X1304890Y706435D01*
X1303867Y706904*
X1302844*
X1301822Y706435*
X1301481Y705498*
X1301822Y704560*
X1302503Y704092*
X1304208Y703623*
X1304890Y703154*
X1305231Y702217*
Y701748*
X1304890Y700810*
X1303867Y700342*
X1302844*
X1301822Y700810*
X1301481Y701748*
X1308299Y710185D02*
X1308640Y709717D01*
X1308981Y710185*
X1308640Y710654*
X1308299Y710185*
X1308640Y706904D02*
Y700342D01*
X1316140Y706904D02*
Y699404D01*
X1315799Y697998*
X1315458Y697529*
X1314776Y697060*
X1313753*
X1313072Y697529*
X1316140Y705498D02*
X1315458Y706435D01*
X1314776Y706904*
X1313753*
X1313072Y706435*
X1312390Y705498*
X1312049Y704092*
Y703154*
X1312390Y701748*
X1313072Y700810*
X1313753Y700342*
X1314776*
X1315458Y700810*
X1316140Y701748*
X1319208Y706904D02*
Y700342D01*
Y705029D02*
X1320231Y706435D01*
X1320912Y706904*
X1321935*
X1322617Y706435*
X1322958Y705029*
Y700342*
X1326026Y704092D02*
X1330117D01*
Y705029*
X1329776Y705967*
X1329435Y706435*
X1328753Y706904*
X1327731*
X1327049Y706435*
X1326367Y705498*
X1326026Y704092*
Y703154*
X1326367Y701748*
X1327049Y700810*
X1327731Y700342*
X1328753*
X1329435Y700810*
X1330117Y701748*
X1337276Y710185D02*
Y700342D01*
Y705498D02*
X1336594Y706435D01*
X1335912Y706904*
X1334890*
X1334208Y706435*
X1333526Y705498*
X1333185Y704092*
Y703154*
X1333526Y701748*
X1334208Y700810*
X1334890Y700342*
X1335912*
X1336594Y700810*
X1337276Y701748*
X1348185Y710185D02*
Y700342D01*
Y710185D02*
X1352617D01*
X1348185Y705498D02*
X1350912D01*
X1357390Y706904D02*
X1356708Y706435D01*
X1356026Y705498*
X1355685Y704092*
Y703154*
X1356026Y701748*
X1356708Y700810*
X1357390Y700342*
X1358412*
X1359094Y700810*
X1359776Y701748*
X1360117Y703154*
Y704092*
X1359776Y705498*
X1359094Y706435*
X1358412Y706904*
X1357390*
X1363185D02*
Y700342D01*
Y704092D02*
X1363526Y705498D01*
X1364208Y706435*
X1364890Y706904*
X1365912*
X1369322D02*
X1368981Y706435D01*
X1369322Y705967*
X1369662Y706435*
X1369322Y706904*
Y701279D02*
X1368981Y700810D01*
X1369322Y700342*
X1369662Y700810*
X1369322Y701279*
X1229890Y655185D02*
Y645342D01*
Y655185D02*
X1232958D01*
X1233981Y654717*
X1234322Y654248*
X1234662Y653310*
Y652373*
X1234322Y651435*
X1233981Y650967*
X1232958Y650498*
X1229890D02*
X1232958D01*
X1233981Y650029*
X1234322Y649560*
X1234662Y648623*
Y647217*
X1234322Y646279*
X1233981Y645810*
X1232958Y645342*
X1229890*
X1239435Y651904D02*
X1238753Y651435D01*
X1238072Y650498*
X1237731Y649092*
Y648154*
X1238072Y646748*
X1238753Y645810*
X1239435Y645342*
X1240458*
X1241140Y645810*
X1241822Y646748*
X1242162Y648154*
Y649092*
X1241822Y650498*
X1241140Y651435*
X1240458Y651904*
X1239435*
X1249322D02*
Y645342D01*
Y650498D02*
X1248640Y651435D01*
X1247958Y651904*
X1246935*
X1246253Y651435*
X1245572Y650498*
X1245231Y649092*
Y648154*
X1245572Y646748*
X1246253Y645810*
X1246935Y645342*
X1247958*
X1248640Y645810*
X1249322Y646748*
X1252390Y651904D02*
Y645342D01*
Y649092D02*
X1252731Y650498D01*
X1253412Y651435*
X1254094Y651904*
X1255117*
X1262276Y655185D02*
Y645342D01*
Y650498D02*
X1261594Y651435D01*
X1260912Y651904*
X1259890*
X1259208Y651435*
X1258526Y650498*
X1258185Y649092*
Y648154*
X1258526Y646748*
X1259208Y645810*
X1259890Y645342*
X1260912*
X1261594Y645810*
X1262276Y646748*
X1273185Y655185D02*
Y645342D01*
Y655185D02*
X1275572D01*
X1276594Y654717*
X1277276Y653779*
X1277617Y652842*
X1277958Y651435*
Y649092*
X1277617Y647685*
X1277276Y646748*
X1276594Y645810*
X1275572Y645342*
X1273185*
X1281026Y649092D02*
X1285117D01*
Y650029*
X1284776Y650967*
X1284435Y651435*
X1283753Y651904*
X1282731*
X1282049Y651435*
X1281367Y650498*
X1281026Y649092*
Y648154*
X1281367Y646748*
X1282049Y645810*
X1282731Y645342*
X1283753*
X1284435Y645810*
X1285117Y646748*
X1291935Y650498D02*
X1291594Y651435D01*
X1290572Y651904*
X1289549*
X1288526Y651435*
X1288185Y650498*
X1288526Y649560*
X1289208Y649092*
X1290912Y648623*
X1291594Y648154*
X1291935Y647217*
Y646748*
X1291594Y645810*
X1290572Y645342*
X1289549*
X1288526Y645810*
X1288185Y646748*
X1299094Y650498D02*
X1298412Y651435D01*
X1297731Y651904*
X1296708*
X1296026Y651435*
X1295344Y650498*
X1295003Y649092*
Y648154*
X1295344Y646748*
X1296026Y645810*
X1296708Y645342*
X1297731*
X1298412Y645810*
X1299094Y646748*
X1302162Y651904D02*
Y645342D01*
Y649092D02*
X1302503Y650498D01*
X1303185Y651435*
X1303867Y651904*
X1304890*
X1307958Y655185D02*
X1308299Y654717D01*
X1308640Y655185*
X1308299Y655654*
X1307958Y655185*
X1308299Y651904D02*
Y645342D01*
X1311708Y651904D02*
Y642060D01*
Y650498D02*
X1312390Y651435D01*
X1313072Y651904*
X1314094*
X1314776Y651435*
X1315458Y650498*
X1315799Y649092*
Y648154*
X1315458Y646748*
X1314776Y645810*
X1314094Y645342*
X1313072*
X1312390Y645810*
X1311708Y646748*
X1319890Y655185D02*
Y647217D01*
X1320231Y645810*
X1320912Y645342*
X1321594*
X1318867Y651904D02*
X1321253D01*
X1324662Y655185D02*
X1325003Y654717D01*
X1325344Y655185*
X1325003Y655654*
X1324662Y655185*
X1325003Y651904D02*
Y645342D01*
X1330117Y651904D02*
X1329435Y651435D01*
X1328753Y650498*
X1328412Y649092*
Y648154*
X1328753Y646748*
X1329435Y645810*
X1330117Y645342*
X1331140*
X1331822Y645810*
X1332503Y646748*
X1332844Y648154*
Y649092*
X1332503Y650498*
X1331822Y651435*
X1331140Y651904*
X1330117*
X1335912D02*
Y645342D01*
Y650029D02*
X1336935Y651435D01*
X1337617Y651904*
X1338640*
X1339322Y651435*
X1339662Y650029*
Y645342*
X1343072Y651904D02*
X1342731Y651435D01*
X1343072Y650967*
X1343412Y651435*
X1343072Y651904*
Y646279D02*
X1342731Y645810D01*
X1343072Y645342*
X1343412Y645810*
X1343072Y646279*
X1229890Y585185D02*
Y575342D01*
Y585185D02*
X1232958D01*
X1233981Y584717*
X1234322Y584248*
X1234662Y583310*
Y581904*
X1234322Y580967*
X1233981Y580498*
X1232958Y580029*
X1229890*
X1241822Y581904D02*
Y575342D01*
Y580498D02*
X1241140Y581435D01*
X1240458Y581904*
X1239435*
X1238753Y581435*
X1238072Y580498*
X1237731Y579092*
Y578154*
X1238072Y576748*
X1238753Y575810*
X1239435Y575342*
X1240458*
X1241140Y575810*
X1241822Y576748*
X1244890Y581904D02*
Y575342D01*
Y579092D02*
X1245231Y580498D01*
X1245912Y581435*
X1246594Y581904*
X1247617*
X1251708Y585185D02*
Y577217D01*
X1252049Y575810*
X1252731Y575342*
X1253412*
X1250685Y581904D02*
X1253072D01*
X1264322Y585185D02*
Y575342D01*
Y585185D02*
X1269094Y575342D01*
Y585185D02*
Y575342D01*
X1273867Y581904D02*
X1273185Y581435D01*
X1272503Y580498*
X1272162Y579092*
Y578154*
X1272503Y576748*
X1273185Y575810*
X1273867Y575342*
X1274890*
X1275572Y575810*
X1276253Y576748*
X1276594Y578154*
Y579092*
X1276253Y580498*
X1275572Y581435*
X1274890Y581904*
X1273867*
X1280003D02*
X1279662Y581435D01*
X1280003Y580967*
X1280344Y581435*
X1280003Y581904*
Y576279D02*
X1279662Y575810D01*
X1280003Y575342*
X1280344Y575810*
X1280003Y576279*
X1529890Y585185D02*
Y575342D01*
Y585185D02*
X1532958D01*
X1533981Y584717*
X1534322Y584248*
X1534662Y583310*
Y582373*
X1534322Y581435*
X1533981Y580967*
X1532958Y580498*
X1529890*
X1532276D02*
X1534662Y575342D01*
X1537731Y579092D02*
X1541822D01*
Y580029*
X1541481Y580967*
X1541140Y581435*
X1540458Y581904*
X1539435*
X1538753Y581435*
X1538072Y580498*
X1537731Y579092*
Y578154*
X1538072Y576748*
X1538753Y575810*
X1539435Y575342*
X1540458*
X1541140Y575810*
X1541822Y576748*
X1544890Y581904D02*
X1546935Y575342D01*
X1548981Y581904D02*
X1546935Y575342D01*
X1552049Y585185D02*
X1552390Y584717D01*
X1552731Y585185*
X1552390Y585654*
X1552049Y585185*
X1552390Y581904D02*
Y575342D01*
X1559549Y580498D02*
X1559208Y581435D01*
X1558185Y581904*
X1557162*
X1556140Y581435*
X1555799Y580498*
X1556140Y579560*
X1556822Y579092*
X1558526Y578623*
X1559208Y578154*
X1559549Y577217*
Y576748*
X1559208Y575810*
X1558185Y575342*
X1557162*
X1556140Y575810*
X1555799Y576748*
X1562617Y585185D02*
X1562958Y584717D01*
X1563299Y585185*
X1562958Y585654*
X1562617Y585185*
X1562958Y581904D02*
Y575342D01*
X1568072Y581904D02*
X1567390Y581435D01*
X1566708Y580498*
X1566367Y579092*
Y578154*
X1566708Y576748*
X1567390Y575810*
X1568072Y575342*
X1569094*
X1569776Y575810*
X1570458Y576748*
X1570799Y578154*
Y579092*
X1570458Y580498*
X1569776Y581435*
X1569094Y581904*
X1568072*
X1573867D02*
Y575342D01*
Y580029D02*
X1574890Y581435D01*
X1575572Y581904*
X1576594*
X1577276Y581435*
X1577617Y580029*
Y575342*
X1581026Y581904D02*
X1580685Y581435D01*
X1581026Y580967*
X1581367Y581435*
X1581026Y581904*
Y576279D02*
X1580685Y575810D01*
X1581026Y575342*
X1581367Y575810*
X1581026Y576279*
X1324890Y573467D02*
Y560342D01*
Y573467D02*
X1330799D01*
X1324890Y567217D02*
X1328526D01*
X1335344Y570342D02*
Y570967D01*
X1335799Y572217*
X1336253Y572842*
X1337162Y573467*
X1338981*
X1339890Y572842*
X1340344Y572217*
X1340799Y570967*
Y569717*
X1340344Y568467*
X1339435Y566592*
X1334890Y560342*
X1341253*
X1347617Y573467D02*
X1346253Y572842D01*
X1345799Y571592*
Y570342*
X1346253Y569092*
X1347162Y568467*
X1348981Y567842*
X1350344Y567217*
X1351253Y565967*
X1351708Y564717*
Y562842*
X1351253Y561592*
X1350799Y560967*
X1349435Y560342*
X1347617*
X1346253Y560967*
X1345799Y561592*
X1345344Y562842*
Y564717*
X1345799Y565967*
X1346708Y567217*
X1348072Y567842*
X1349890Y568467*
X1350799Y569092*
X1351253Y570342*
Y571592*
X1350799Y572842*
X1349435Y573467*
X1347617*
X1358526D02*
X1357162Y572842D01*
X1356253Y570967*
X1355799Y567842*
Y565967*
X1356253Y562842*
X1357162Y560967*
X1358526Y560342*
X1359435*
X1360799Y560967*
X1361708Y562842*
X1362162Y565967*
Y567842*
X1361708Y570967*
X1360799Y572842*
X1359435Y573467*
X1358526*
X1372162D02*
X1367617D01*
X1367162Y567842*
X1367617Y568467*
X1368981Y569092*
X1370344*
X1371708Y568467*
X1372617Y567217*
X1373072Y565342*
X1372617Y564092*
X1372162Y562217*
X1371253Y560967*
X1369890Y560342*
X1368526*
X1367162Y560967*
X1366708Y561592*
X1366253Y562842*
X1377162Y569092D02*
X1382162Y560342D01*
Y569092D02*
X1377162Y560342D01*
X1386253Y573467D02*
Y560342D01*
X1396708Y571592D02*
X1395799Y572842D01*
X1394435Y573467*
X1392617*
X1391253Y572842*
X1390344Y571592*
Y570342*
X1390799Y569092*
X1391253Y568467*
X1392162Y567842*
X1394890Y566592*
X1395799Y565967*
X1396253Y565342*
X1396708Y564092*
Y562217*
X1395799Y560967*
X1394435Y560342*
X1392617*
X1391253Y560967*
X1390344Y562217*
X1403526Y573467D02*
X1402617Y572842D01*
X1401708Y571592*
X1401253Y570342*
X1400799Y568467*
Y565342*
X1401253Y563467*
X1401708Y562217*
X1402617Y560967*
X1403526Y560342*
X1405344*
X1406253Y560967*
X1407162Y562217*
X1407617Y563467*
X1408072Y565342*
Y568467*
X1407617Y570342*
X1407162Y571592*
X1406253Y572842*
X1405344Y573467*
X1403526*
X1418981Y570342D02*
X1418526Y571592D01*
X1417617Y572842*
X1416708Y573467*
X1414890*
X1413981Y572842*
X1413072Y571592*
X1412617Y570342*
X1412162Y568467*
Y565342*
X1412617Y563467*
X1413072Y562217*
X1413981Y560967*
X1414890Y560342*
X1416708*
X1417617Y560967*
X1418526Y562217*
X1418981Y563467*
X1425799Y573467D02*
X1424890Y572842D01*
X1423981Y571592*
X1423526Y570342*
X1423072Y568467*
Y565342*
X1423526Y563467*
X1423981Y562217*
X1424890Y560967*
X1425799Y560342*
X1427617*
X1428526Y560967*
X1429435Y562217*
X1429890Y563467*
X1430344Y565342*
Y568467*
X1429890Y570342*
X1429435Y571592*
X1428526Y572842*
X1427617Y573467*
X1425799*
X1434435D02*
Y560342D01*
Y573467D02*
X1440799Y560342D01*
Y573467D02*
Y560342D01*
X1448072Y573467D02*
Y560342D01*
X1444890Y573467D02*
X1451253D01*
X1455344D02*
Y560342D01*
Y573467D02*
X1459435D01*
X1460799Y572842*
X1461253Y572217*
X1461708Y570967*
Y569717*
X1461253Y568467*
X1460799Y567842*
X1459435Y567217*
X1455344*
X1458526D02*
X1461708Y560342D01*
X1468526Y573467D02*
X1467617Y572842D01*
X1466708Y571592*
X1466253Y570342*
X1465799Y568467*
Y565342*
X1466253Y563467*
X1466708Y562217*
X1467617Y560967*
X1468526Y560342*
X1470344*
X1471253Y560967*
X1472162Y562217*
X1472617Y563467*
X1473072Y565342*
Y568467*
X1472617Y570342*
X1472162Y571592*
X1471253Y572842*
X1470344Y573467*
X1468526*
X1477162D02*
Y560342D01*
X1482617*
X1493526Y570342D02*
X1493072Y571592D01*
X1492162Y572842*
X1491253Y573467*
X1489435*
X1488526Y572842*
X1487617Y571592*
X1487162Y570342*
X1486708Y568467*
Y565342*
X1487162Y563467*
X1487617Y562217*
X1488526Y560967*
X1489435Y560342*
X1491253*
X1492162Y560967*
X1493072Y562217*
X1493526Y563467*
X1501253Y573467D02*
X1497617Y560342D01*
X1501253Y573467D02*
X1504890Y560342D01*
X1498981Y564717D02*
X1503526D01*
X1508981Y573467D02*
Y560342D01*
Y573467D02*
X1513072D01*
X1514435Y572842*
X1514890Y572217*
X1515344Y570967*
Y569717*
X1514890Y568467*
X1514435Y567842*
X1513072Y567217*
X1508981*
X1512162D02*
X1515344Y560342D01*
X1519435Y573467D02*
Y560342D01*
Y573467D02*
X1522617D01*
X1523981Y572842*
X1524890Y571592*
X1525344Y570342*
X1525799Y568467*
Y565342*
X1525344Y563467*
X1524890Y562217*
X1523981Y560967*
X1522617Y560342*
X1519435*
X1601617Y574954D02*
X1602526Y575579D01*
X1603890Y577454*
Y564329*
X1608435Y565579D02*
X1607981Y564954D01*
X1608435Y564329*
X1608890Y564954*
X1608435Y565579*
X1613435Y574329D02*
Y574954D01*
X1613890Y576204*
X1614344Y576829*
X1615253Y577454*
X1617072*
X1617981Y576829*
X1618435Y576204*
X1618890Y574954*
Y573704*
X1618435Y572454*
X1617526Y570579*
X1612981Y564329*
X1619344*
X1371435Y685654D02*
Y672529D01*
X1368253Y685654D02*
X1374617D01*
X1378708Y677529D02*
X1384162D01*
Y678779*
X1383708Y680029*
X1383253Y680654*
X1382344Y681279*
X1380981*
X1380072Y680654*
X1379162Y679404*
X1378708Y677529*
Y676279*
X1379162Y674404*
X1380072Y673154*
X1380981Y672529*
X1382344*
X1383253Y673154*
X1384162Y674404*
X1388253Y681279D02*
X1393253Y672529D01*
Y681279D02*
X1388253Y672529D01*
X1402799Y681279D02*
Y672529D01*
Y679404D02*
X1401890Y680654D01*
X1400981Y681279*
X1399617*
X1398708Y680654*
X1397799Y679404*
X1397344Y677529*
Y676279*
X1397799Y674404*
X1398708Y673154*
X1399617Y672529*
X1400981*
X1401890Y673154*
X1402799Y674404*
X1411890Y679404D02*
X1411435Y680654D01*
X1410072Y681279*
X1408708*
X1407344Y680654*
X1406890Y679404*
X1407344Y678154*
X1408253Y677529*
X1410526Y676904*
X1411435Y676279*
X1411890Y675029*
Y674404*
X1411435Y673154*
X1410072Y672529*
X1408708*
X1407344Y673154*
X1406890Y674404*
X1426435Y685654D02*
Y672529D01*
X1430526Y681279D02*
Y672529D01*
Y678779D02*
X1431890Y680654D01*
X1432799Y681279*
X1434162*
X1435072Y680654*
X1435526Y678779*
Y672529*
X1444617Y679404D02*
X1444162Y680654D01*
X1442799Y681279*
X1441435*
X1440072Y680654*
X1439617Y679404*
X1440072Y678154*
X1440981Y677529*
X1443253Y676904*
X1444162Y676279*
X1444617Y675029*
Y674404*
X1444162Y673154*
X1442799Y672529*
X1441435*
X1440072Y673154*
X1439617Y674404*
X1450072Y685654D02*
Y675029D01*
X1450526Y673154*
X1451435Y672529*
X1452344*
X1448708Y681279D02*
X1451890D01*
X1456435D02*
Y672529D01*
Y677529D02*
X1456890Y679404D01*
X1457799Y680654*
X1458708Y681279*
X1460072*
X1464162D02*
Y675029D01*
X1464617Y673154*
X1465526Y672529*
X1466890*
X1467799Y673154*
X1469162Y675029*
Y681279D02*
Y672529D01*
X1473253Y681279D02*
Y672529D01*
Y678779D02*
X1474617Y680654D01*
X1475526Y681279*
X1476890*
X1477799Y680654*
X1478253Y678779*
Y672529*
Y678779D02*
X1479617Y680654D01*
X1480526Y681279*
X1481890*
X1482799Y680654*
X1483253Y678779*
Y672529*
X1487344Y677529D02*
X1492799D01*
Y678779*
X1492344Y680029*
X1491890Y680654*
X1490981Y681279*
X1489617*
X1488708Y680654*
X1487799Y679404*
X1487344Y677529*
Y676279*
X1487799Y674404*
X1488708Y673154*
X1489617Y672529*
X1490981*
X1491890Y673154*
X1492799Y674404*
X1496890Y681279D02*
Y672529D01*
Y678779D02*
X1498253Y680654D01*
X1499162Y681279*
X1500526*
X1501435Y680654*
X1501890Y678779*
Y672529*
X1507344Y685654D02*
Y675029D01*
X1507799Y673154*
X1508708Y672529*
X1509617*
X1505981Y681279D02*
X1509162D01*
X1518708Y679404D02*
X1518253Y680654D01*
X1516890Y681279*
X1515526*
X1514162Y680654*
X1513708Y679404*
X1514162Y678154*
X1515072Y677529*
X1517344Y676904*
X1518253Y676279*
X1518708Y675029*
Y674404*
X1518253Y673154*
X1516890Y672529*
X1515526*
X1514162Y673154*
X1513708Y674404*
X1351013Y624514D02*
Y611389D01*
Y624514D02*
X1356922D01*
X1351013Y618264D02*
X1354649D01*
X1361467Y621389D02*
Y622014D01*
X1361922Y623264*
X1362376Y623889*
X1363286Y624514*
X1365104*
X1366013Y623889*
X1366467Y623264*
X1366922Y622014*
Y620764*
X1366467Y619514*
X1365558Y617639*
X1361013Y611389*
X1367376*
X1373740Y624514D02*
X1372376Y623889D01*
X1371922Y622639*
Y621389*
X1372376Y620139*
X1373286Y619514*
X1375104Y618889*
X1376467Y618264*
X1377376Y617014*
X1377831Y615764*
Y613889*
X1377376Y612639*
X1376922Y612014*
X1375558Y611389*
X1373740*
X1372376Y612014*
X1371922Y612639*
X1371467Y613889*
Y615764*
X1371922Y617014*
X1372831Y618264*
X1374195Y618889*
X1376013Y619514*
X1376922Y620139*
X1377376Y621389*
Y622639*
X1376922Y623889*
X1375558Y624514*
X1373740*
X1384649D02*
X1383286Y623889D01*
X1382376Y622014*
X1381922Y618889*
Y617014*
X1382376Y613889*
X1383286Y612014*
X1384649Y611389*
X1385558*
X1386922Y612014*
X1387831Y613889*
X1388286Y617014*
Y618889*
X1387831Y622014*
X1386922Y623889*
X1385558Y624514*
X1384649*
X1398286D02*
X1393740D01*
X1393286Y618889*
X1393740Y619514*
X1395104Y620139*
X1396467*
X1397831Y619514*
X1398740Y618264*
X1399195Y616389*
X1398740Y615139*
X1398286Y613264*
X1397376Y612014*
X1396013Y611389*
X1394649*
X1393286Y612014*
X1392831Y612639*
X1392376Y613889*
X1403286Y620139D02*
X1408286Y611389D01*
Y620139D02*
X1403286Y611389D01*
X1412376Y624514D02*
Y611389D01*
X1422831Y622639D02*
X1421922Y623889D01*
X1420558Y624514*
X1418740*
X1417376Y623889*
X1416467Y622639*
Y621389*
X1416922Y620139*
X1417376Y619514*
X1418286Y618889*
X1421013Y617639*
X1421922Y617014*
X1422376Y616389*
X1422831Y615139*
Y613264*
X1421922Y612014*
X1420558Y611389*
X1418740*
X1417376Y612014*
X1416467Y613264*
X1429649Y624514D02*
X1428740Y623889D01*
X1427831Y622639*
X1427376Y621389*
X1426922Y619514*
Y616389*
X1427376Y614514*
X1427831Y613264*
X1428740Y612014*
X1429649Y611389*
X1431467*
X1432376Y612014*
X1433286Y613264*
X1433740Y614514*
X1434195Y616389*
Y619514*
X1433740Y621389*
X1433286Y622639*
X1432376Y623889*
X1431467Y624514*
X1429649*
X1443740Y618264D02*
X1442831Y619514D01*
X1441922Y620139*
X1440558*
X1439649Y619514*
X1438740Y618264*
X1438286Y616389*
Y615139*
X1438740Y613264*
X1439649Y612014*
X1440558Y611389*
X1441922*
X1442831Y612014*
X1443740Y613264*
X1450104Y620139D02*
X1449195Y619514D01*
X1448286Y618264*
X1447831Y616389*
Y615139*
X1448286Y613264*
X1449195Y612014*
X1450104Y611389*
X1451467*
X1452376Y612014*
X1453286Y613264*
X1453740Y615139*
Y616389*
X1453286Y618264*
X1452376Y619514*
X1451467Y620139*
X1450104*
X1457831D02*
Y611389D01*
Y617639D02*
X1459195Y619514D01*
X1460104Y620139*
X1461467*
X1462376Y619514*
X1462831Y617639*
Y611389*
X1468286Y624514D02*
Y613889D01*
X1468740Y612014*
X1469649Y611389*
X1470558*
X1466922Y620139D02*
X1470104D01*
X1474649D02*
Y611389D01*
Y616389D02*
X1475104Y618264D01*
X1476013Y619514*
X1476922Y620139*
X1478286*
X1484649D02*
X1483740Y619514D01*
X1482831Y618264*
X1482376Y616389*
Y615139*
X1482831Y613264*
X1483740Y612014*
X1484649Y611389*
X1486013*
X1486922Y612014*
X1487831Y613264*
X1488286Y615139*
Y616389*
X1487831Y618264*
X1486922Y619514*
X1486013Y620139*
X1484649*
X1492376Y624514D02*
Y611389D01*
X1503286Y621389D02*
X1502831Y622639D01*
X1501922Y623889*
X1501013Y624514*
X1499195*
X1498286Y623889*
X1497376Y622639*
X1496922Y621389*
X1496467Y619514*
Y616389*
X1496922Y614514*
X1497376Y613264*
X1498286Y612014*
X1499195Y611389*
X1501013*
X1501922Y612014*
X1502831Y613264*
X1503286Y614514*
X1511013Y624514D02*
X1507376Y611389D01*
X1511013Y624514D02*
X1514649Y611389D01*
X1508740Y615764D02*
X1513286D01*
X1518740Y624514D02*
Y611389D01*
Y624514D02*
X1522831D01*
X1524195Y623889*
X1524649Y623264*
X1525104Y622014*
Y620764*
X1524649Y619514*
X1524195Y618889*
X1522831Y618264*
X1518740*
X1521922D02*
X1525104Y611389D01*
X1529195Y624514D02*
Y611389D01*
Y624514D02*
X1532376D01*
X1533740Y623889*
X1534649Y622639*
X1535104Y621389*
X1535558Y619514*
Y616389*
X1535104Y614514*
X1534649Y613264*
X1533740Y612014*
X1532376Y611389*
X1529195*
X1319003Y539126D02*
X1322753D01*
X1320708Y535376*
X1321731*
X1322412Y534907*
X1322753Y534439*
X1323094Y533032*
Y532095*
X1322753Y530689*
X1322072Y529751*
X1321049Y529282*
X1320026*
X1319003Y529751*
X1318662Y530220*
X1318322Y531157*
X1471617Y539126D02*
Y529282D01*
X1474685Y535845D02*
Y529282D01*
Y533970D02*
X1475708Y535376D01*
X1476390Y535845*
X1477412*
X1478094Y535376*
X1478435Y533970*
Y529282*
X1482526Y539126D02*
Y531157D01*
X1482867Y529751*
X1483549Y529282*
X1484231*
X1481503Y535845D02*
X1483890D01*
X1487299Y533032D02*
X1491390D01*
Y533970*
X1491049Y534907*
X1490708Y535376*
X1490026Y535845*
X1489003*
X1488322Y535376*
X1487640Y534439*
X1487299Y533032*
Y532095*
X1487640Y530689*
X1488322Y529751*
X1489003Y529282*
X1490026*
X1490708Y529751*
X1491390Y530689*
X1494458Y535845D02*
Y529282D01*
Y533032D02*
X1494799Y534439D01*
X1495481Y535376*
X1496162Y535845*
X1497185*
X1500253D02*
Y529282D01*
Y533970D02*
X1501276Y535376D01*
X1501958Y535845*
X1502981*
X1503662Y535376*
X1504003Y533970*
Y529282*
X1511162Y535845D02*
Y529282D01*
Y534439D02*
X1510481Y535376D01*
X1509799Y535845*
X1508776*
X1508094Y535376*
X1507412Y534439*
X1507072Y533032*
Y532095*
X1507412Y530689*
X1508094Y529751*
X1508776Y529282*
X1509799*
X1510481Y529751*
X1511162Y530689*
X1514231Y539126D02*
Y529282D01*
X1525140Y539126D02*
Y529282D01*
Y539126D02*
X1528208D01*
X1529231Y538657*
X1529572Y538189*
X1529912Y537251*
Y535845*
X1529572Y534907*
X1529231Y534439*
X1528208Y533970*
X1525140*
X1532981Y539126D02*
Y529282D01*
X1540140Y535845D02*
Y529282D01*
Y534439D02*
X1539458Y535376D01*
X1538776Y535845*
X1537753*
X1537072Y535376*
X1536390Y534439*
X1536049Y533032*
Y532095*
X1536390Y530689*
X1537072Y529751*
X1537753Y529282*
X1538776*
X1539458Y529751*
X1540140Y530689*
X1543208Y535845D02*
Y529282D01*
Y533970D02*
X1544231Y535376D01*
X1544912Y535845*
X1545935*
X1546617Y535376*
X1546958Y533970*
Y529282*
X1550026Y533032D02*
X1554117D01*
Y533970*
X1553776Y534907*
X1553435Y535376*
X1552753Y535845*
X1551731*
X1551049Y535376*
X1550367Y534439*
X1550026Y533032*
Y532095*
X1550367Y530689*
X1551049Y529751*
X1551731Y529282*
X1552753*
X1553435Y529751*
X1554117Y530689*
X1565367Y536782D02*
Y537251D01*
X1565708Y538189*
X1566049Y538657*
X1566731Y539126*
X1568094*
X1568776Y538657*
X1569117Y538189*
X1569458Y537251*
Y536314*
X1569117Y535376*
X1568435Y533970*
X1565026Y529282*
X1569799*
X1103190Y564404D02*
X1104553Y557842D01*
X1105917Y564404D02*
X1104553Y557842D01*
X1105917Y564404D02*
X1107281Y557842D01*
X1108644Y564404D02*
X1107281Y557842D01*
X1111712Y564404D02*
X1113076Y557842D01*
X1114440Y564404D02*
X1113076Y557842D01*
X1114440Y564404D02*
X1115803Y557842D01*
X1117167Y564404D02*
X1115803Y557842D01*
X1120235Y564404D02*
X1121599Y557842D01*
X1122962Y564404D02*
X1121599Y557842D01*
X1122962Y564404D02*
X1124326Y557842D01*
X1125690Y564404D02*
X1124326Y557842D01*
X1129099Y558779D02*
X1128758Y558310D01*
X1129099Y557842*
X1129440Y558310*
X1129099Y558779*
X1132508Y564404D02*
X1133872Y557842D01*
X1135235Y564404D02*
X1133872Y557842D01*
X1135235Y564404D02*
X1136599Y557842D01*
X1137962Y564404D02*
X1136599Y557842D01*
X1144781Y562998D02*
X1144440Y563935D01*
X1143417Y564404*
X1142394*
X1141372Y563935*
X1141031Y562998*
X1141372Y562060*
X1142053Y561592*
X1143758Y561123*
X1144440Y560654*
X1144781Y559717*
Y559248*
X1144440Y558310*
X1143417Y557842*
X1142394*
X1141372Y558310*
X1141031Y559248*
X1148872Y567685D02*
Y559717D01*
X1149212Y558310*
X1149894Y557842*
X1150576*
X1147849Y564404D02*
X1150235D01*
X1157394Y562998D02*
X1157053Y563935D01*
X1156031Y564404*
X1155008*
X1153985Y563935*
X1153644Y562998*
X1153985Y562060*
X1154667Y561592*
X1156372Y561123*
X1157053Y560654*
X1157394Y559717*
Y559248*
X1157053Y558310*
X1156031Y557842*
X1155008*
X1153985Y558310*
X1153644Y559248*
X1164553Y562998D02*
X1163872Y563935D01*
X1163190Y564404*
X1162167*
X1161485Y563935*
X1160803Y562998*
X1160462Y561592*
Y560654*
X1160803Y559248*
X1161485Y558310*
X1162167Y557842*
X1163190*
X1163872Y558310*
X1164553Y559248*
X1169326Y564404D02*
X1168644Y563935D01*
X1167962Y562998*
X1167622Y561592*
Y560654*
X1167962Y559248*
X1168644Y558310*
X1169326Y557842*
X1170349*
X1171031Y558310*
X1171712Y559248*
X1172053Y560654*
Y561592*
X1171712Y562998*
X1171031Y563935*
X1170349Y564404*
X1169326*
X1175122D02*
Y557842D01*
Y561592D02*
X1175462Y562998D01*
X1176144Y563935*
X1176826Y564404*
X1177849*
X1180917D02*
Y554560D01*
Y562998D02*
X1181599Y563935D01*
X1182281Y564404*
X1183303*
X1183985Y563935*
X1184667Y562998*
X1185008Y561592*
Y560654*
X1184667Y559248*
X1183985Y558310*
X1183303Y557842*
X1182281*
X1181599Y558310*
X1180917Y559248*
X1188417Y558779D02*
X1188076Y558310D01*
X1188417Y557842*
X1188758Y558310*
X1188417Y558779*
X1195917Y562998D02*
X1195235Y563935D01*
X1194553Y564404*
X1193531*
X1192849Y563935*
X1192167Y562998*
X1191826Y561592*
Y560654*
X1192167Y559248*
X1192849Y558310*
X1193531Y557842*
X1194553*
X1195235Y558310*
X1195917Y559248*
X1200690Y564404D02*
X1200008Y563935D01*
X1199326Y562998*
X1198985Y561592*
Y560654*
X1199326Y559248*
X1200008Y558310*
X1200690Y557842*
X1201712*
X1202394Y558310*
X1203076Y559248*
X1203417Y560654*
Y561592*
X1203076Y562998*
X1202394Y563935*
X1201712Y564404*
X1200690*
X1206485D02*
Y557842D01*
Y562529D02*
X1207508Y563935D01*
X1208190Y564404*
X1209212*
X1209894Y563935*
X1210235Y562529*
Y557842*
Y562529D02*
X1211258Y563935D01*
X1211940Y564404*
X1212962*
X1213644Y563935*
X1213985Y562529*
Y557842*
X889090Y630085D02*
X890794Y620242D01*
X892499Y630085D02*
X890794Y620242D01*
X892499Y630085D02*
X894203Y620242D01*
X895908Y630085D02*
X894203Y620242D01*
X898976Y630085D02*
X899317Y629617D01*
X899658Y630085*
X899317Y630554*
X898976Y630085*
X899317Y626804D02*
Y620242D01*
X902726Y630085D02*
Y620242D01*
X905794Y630085D02*
Y620242D01*
X910567Y626804D02*
X909885Y626335D01*
X909203Y625398*
X908862Y623992*
Y623054*
X909203Y621648*
X909885Y620710*
X910567Y620242*
X911590*
X912272Y620710*
X912953Y621648*
X913294Y623054*
Y623992*
X912953Y625398*
X912272Y626335*
X911590Y626804*
X910567*
X916362D02*
X917726Y620242D01*
X919090Y626804D02*
X917726Y620242D01*
X919090Y626804D02*
X920453Y620242D01*
X921817Y626804D02*
X920453Y620242D01*
X937499Y628679D02*
X936817Y629617D01*
X935794Y630085*
X934431*
X933408Y629617*
X932726Y628679*
Y627742*
X933067Y626804*
X933408Y626335*
X934090Y625867*
X936135Y624929*
X936817Y624460*
X937158Y623992*
X937499Y623054*
Y621648*
X936817Y620710*
X935794Y620242*
X934431*
X933408Y620710*
X932726Y621648*
X940567Y626804D02*
Y616960D01*
Y625398D02*
X941249Y626335D01*
X941931Y626804*
X942953*
X943635Y626335*
X944317Y625398*
X944658Y623992*
Y623054*
X944317Y621648*
X943635Y620710*
X942953Y620242*
X941931*
X941249Y620710*
X940567Y621648*
X947726Y626804D02*
Y620242D01*
Y623992D02*
X948067Y625398D01*
X948749Y626335*
X949431Y626804*
X950453*
X953522Y630085D02*
X953862Y629617D01*
X954203Y630085*
X953862Y630554*
X953522Y630085*
X953862Y626804D02*
Y620242D01*
X957272Y626804D02*
Y620242D01*
Y624929D02*
X958294Y626335D01*
X958976Y626804*
X959999*
X960681Y626335*
X961022Y624929*
Y620242*
X968181Y626804D02*
Y619304D01*
X967840Y617898*
X967499Y617429*
X966817Y616960*
X965794*
X965112Y617429*
X968181Y625398D02*
X967499Y626335D01*
X966817Y626804*
X965794*
X965112Y626335*
X964431Y625398*
X964090Y623992*
Y623054*
X964431Y621648*
X965112Y620710*
X965794Y620242*
X966817*
X967499Y620710*
X968181Y621648*
X981476Y630085D02*
Y620242D01*
X979090Y630085D02*
X983862D01*
X986931Y623992D02*
X991022D01*
Y624929*
X990681Y625867*
X990340Y626335*
X989658Y626804*
X988635*
X987953Y626335*
X987272Y625398*
X986931Y623992*
Y623054*
X987272Y621648*
X987953Y620710*
X988635Y620242*
X989658*
X990340Y620710*
X991022Y621648*
X998181Y625398D02*
X997499Y626335D01*
X996817Y626804*
X995794*
X995112Y626335*
X994431Y625398*
X994090Y623992*
Y623054*
X994431Y621648*
X995112Y620710*
X995794Y620242*
X996817*
X997499Y620710*
X998181Y621648*
X1001249Y630085D02*
Y620242D01*
Y624929D02*
X1002272Y626335D01*
X1002953Y626804*
X1003976*
X1004658Y626335*
X1004999Y624929*
Y620242*
X1008067Y626804D02*
Y620242D01*
Y624929D02*
X1009090Y626335D01*
X1009772Y626804*
X1010794*
X1011476Y626335*
X1011817Y624929*
Y620242*
X1014885Y630085D02*
X1015226Y629617D01*
X1015567Y630085*
X1015226Y630554*
X1014885Y630085*
X1015226Y626804D02*
Y620242D01*
X1022726Y625398D02*
X1022044Y626335D01*
X1021362Y626804*
X1020340*
X1019658Y626335*
X1018976Y625398*
X1018635Y623992*
Y623054*
X1018976Y621648*
X1019658Y620710*
X1020340Y620242*
X1021362*
X1022044Y620710*
X1022726Y621648*
X1029885Y626804D02*
Y620242D01*
Y625398D02*
X1029203Y626335D01*
X1028522Y626804*
X1027499*
X1026817Y626335*
X1026135Y625398*
X1025794Y623992*
Y623054*
X1026135Y621648*
X1026817Y620710*
X1027499Y620242*
X1028522*
X1029203Y620710*
X1029885Y621648*
X1032953Y630085D02*
Y620242D01*
X1048635Y628679D02*
X1047953Y629617D01*
X1046931Y630085*
X1045567*
X1044544Y629617*
X1043862Y628679*
Y627742*
X1044203Y626804*
X1044544Y626335*
X1045226Y625867*
X1047272Y624929*
X1047953Y624460*
X1048294Y623992*
X1048635Y623054*
Y621648*
X1047953Y620710*
X1046931Y620242*
X1045567*
X1044544Y620710*
X1043862Y621648*
X1051703Y623992D02*
X1055794D01*
Y624929*
X1055453Y625867*
X1055112Y626335*
X1054431Y626804*
X1053408*
X1052726Y626335*
X1052044Y625398*
X1051703Y623992*
Y623054*
X1052044Y621648*
X1052726Y620710*
X1053408Y620242*
X1054431*
X1055112Y620710*
X1055794Y621648*
X1058862Y626804D02*
Y620242D01*
Y623992D02*
X1059203Y625398D01*
X1059885Y626335*
X1060567Y626804*
X1061590*
X1064658D02*
X1066703Y620242D01*
X1068749Y626804D02*
X1066703Y620242D01*
X1071817Y630085D02*
X1072158Y629617D01*
X1072499Y630085*
X1072158Y630554*
X1071817Y630085*
X1072158Y626804D02*
Y620242D01*
X1079658Y625398D02*
X1078976Y626335D01*
X1078294Y626804*
X1077272*
X1076590Y626335*
X1075908Y625398*
X1075567Y623992*
Y623054*
X1075908Y621648*
X1076590Y620710*
X1077272Y620242*
X1078294*
X1078976Y620710*
X1079658Y621648*
X1082726Y623992D02*
X1086817D01*
Y624929*
X1086476Y625867*
X1086135Y626335*
X1085453Y626804*
X1084431*
X1083749Y626335*
X1083067Y625398*
X1082726Y623992*
Y623054*
X1083067Y621648*
X1083749Y620710*
X1084431Y620242*
X1085453*
X1086135Y620710*
X1086817Y621648*
X1093635Y625398D02*
X1093294Y626335D01*
X1092272Y626804*
X1091249*
X1090226Y626335*
X1089885Y625398*
X1090226Y624460*
X1090908Y623992*
X1092612Y623523*
X1093294Y623054*
X1093635Y622117*
Y621648*
X1093294Y620710*
X1092272Y620242*
X1091249*
X1090226Y620710*
X1089885Y621648*
X1109658Y627742D02*
X1109317Y628679D01*
X1108635Y629617*
X1107953Y630085*
X1106590*
X1105908Y629617*
X1105226Y628679*
X1104885Y627742*
X1104544Y626335*
Y623992*
X1104885Y622585*
X1105226Y621648*
X1105908Y620710*
X1106590Y620242*
X1107953*
X1108635Y620710*
X1109317Y621648*
X1109658Y622585*
X1114431Y626804D02*
X1113749Y626335D01*
X1113067Y625398*
X1112726Y623992*
Y623054*
X1113067Y621648*
X1113749Y620710*
X1114431Y620242*
X1115453*
X1116135Y620710*
X1116817Y621648*
X1117158Y623054*
Y623992*
X1116817Y625398*
X1116135Y626335*
X1115453Y626804*
X1114431*
X1120226D02*
Y620242D01*
Y623992D02*
X1120567Y625398D01*
X1121249Y626335*
X1121931Y626804*
X1122953*
X1126022D02*
Y616960D01*
Y625398D02*
X1126703Y626335D01*
X1127385Y626804*
X1128408*
X1129090Y626335*
X1129772Y625398*
X1130112Y623992*
Y623054*
X1129772Y621648*
X1129090Y620710*
X1128408Y620242*
X1127385*
X1126703Y620710*
X1126022Y621648*
X1133522Y621179D02*
X1133181Y620710D01*
X1133522Y620242*
X1133862Y620710*
X1133522Y621179*
X972390Y875654D02*
X1326390Y875442D01*
Y884642*
X972390*
Y875654*
Y884441D02*
X1326390D01*
X972390Y883541D02*
X1326390D01*
X972390Y882641D02*
X1326390D01*
X972390Y881741D02*
X1326390D01*
X972390Y880841D02*
X1326390D01*
X972390Y879941D02*
X1326390D01*
X972390Y879041D02*
X1326390D01*
X972390Y878141D02*
X1326390D01*
X972390Y877241D02*
X1326390D01*
X972390Y876341D02*
X1326390D01*
X1002890Y933642D02*
X1010390D01*
Y928642*
X1031390*
Y960642*
X1002390*
Y970642*
X1036890*
Y924642*
X1002890*
Y933642*
G54D231*
X623890Y520342D02*
X1659890D01*
Y1225142*
X623890*
Y520342*
X1225390D02*
X1659890D01*
Y715342*
X1225390*
Y520342*
X1224890Y660342D02*
X1659890D01*
Y520342*
X1224890*
Y660342*
Y550342D02*
X1659890D01*
Y520342*
X1224890*
Y550342*
X1384890*
Y520342*
X1224890*
Y550342*
Y660342D02*
X1659890D01*
Y715342*
X1224890*
Y660342*
Y590342D02*
X1659890D01*
Y660342*
X1224890*
Y590342*
X1524890Y550342D02*
X1659890D01*
Y590342*
X1524890*
Y550342*
X790390Y550842D02*
X995890D01*
Y520342*
X790390*
Y550842*
X995890Y520342D02*
X1225390D01*
Y550842*
X995890*
Y520342*
X790390Y660842D02*
X1225390D01*
Y550842*
X790390*
Y660842*
G54D232*
G54D233*
X971890Y875142D02*
X1044390D01*
Y883088*
X1052264Y883087D02*
G75*
G03X1044390I-3937J310D01*
G01X1052264Y883088D02*
Y875142D01*
X1140453*
Y882981*
X1148327D02*
G03X1140453I-3937J227D01*
G01X1148327D02*
Y875142D01*
X1326969*
Y937346*
X1323992*
Y953094D02*
G03Y937346I-55J-7874D01*
G01Y953094D02*
X1326969Y953095D01*
Y1025142*
X971890*
Y953094*
X976354*
X976346Y937346D02*
G03X976360Y953094I-330J7874D01*
G01X976354Y937346D02*
X971890D01*
Y875142*
X1087390Y1025142D02*
X971890D01*
Y953642*
X973390*
X973382Y937144D02*
G03X973396Y953643I2133J8248D01*
G01X973390Y937142D02*
X971890D01*
Y879642*
X1014390*
Y900142*
X1087390*
Y1025142*
G54D234*
X1019640Y881892D02*
X1011140D01*
Y904892*
X1083140*
Y1024892*
X1091640*
Y896392*
X1019640*
Y881892*
X1083140Y1023640D02*
X1091640D01*
X1083140Y1022290D02*
X1091640D01*
X1083140Y1020940D02*
X1091640D01*
X1083140Y1019590D02*
X1091640D01*
X1083140Y1018240D02*
X1091640D01*
X1083140Y1016890D02*
X1091640D01*
X1083140Y1015540D02*
X1091640D01*
X1083140Y1014190D02*
X1091640D01*
X1083140Y1012840D02*
X1091640D01*
X1083140Y1011490D02*
X1091640D01*
X1083140Y1010140D02*
X1091640D01*
X1083140Y1008790D02*
X1091640D01*
X1083140Y1007440D02*
X1091640D01*
X1083140Y1006090D02*
X1091640D01*
X1083140Y1004740D02*
X1091640D01*
X1083140Y1003390D02*
X1091640D01*
X1083140Y1002040D02*
X1091640D01*
X1083140Y1000690D02*
X1091640D01*
X1083140Y999340D02*
X1091640D01*
X1083140Y997990D02*
X1091640D01*
X1083140Y996640D02*
X1091640D01*
X1083140Y995290D02*
X1091640D01*
X1083140Y993940D02*
X1091640D01*
X1083140Y992590D02*
X1091640D01*
X1083140Y991240D02*
X1091640D01*
X1083140Y989890D02*
X1091640D01*
X1083140Y988540D02*
X1091640D01*
X1083140Y987190D02*
X1091640D01*
X1083140Y985840D02*
X1091640D01*
X1083140Y984490D02*
X1091640D01*
X1083140Y983140D02*
X1091640D01*
X1083140Y981790D02*
X1091640D01*
X1083140Y980440D02*
X1091640D01*
X1083140Y979090D02*
X1091640D01*
X1083140Y977740D02*
X1091640D01*
X1083140Y976390D02*
X1091640D01*
X1083140Y975040D02*
X1091640D01*
X1083140Y973690D02*
X1091640D01*
X1083140Y972340D02*
X1091640D01*
X1083140Y970990D02*
X1091640D01*
X1083140Y969640D02*
X1091640D01*
X1083140Y968290D02*
X1091640D01*
X1083140Y966940D02*
X1091640D01*
X1083140Y965590D02*
X1091640D01*
X1083140Y964240D02*
X1091640D01*
X1083140Y962890D02*
X1091640D01*
X1083140Y961540D02*
X1091640D01*
X1083140Y960190D02*
X1091640D01*
X1083140Y958840D02*
X1091640D01*
X1083140Y957490D02*
X1091640D01*
X1083140Y956140D02*
X1091640D01*
X1083140Y954790D02*
X1091640D01*
X1083140Y953440D02*
X1091640D01*
X1083140Y952090D02*
X1091640D01*
X1083140Y950740D02*
X1091640D01*
X1083140Y949390D02*
X1091640D01*
X1083140Y948040D02*
X1091640D01*
X1083140Y946690D02*
X1091640D01*
X1083140Y945340D02*
X1091640D01*
X1083140Y943990D02*
X1091640D01*
X1083140Y942640D02*
X1091640D01*
X1083140Y941290D02*
X1091640D01*
X1083140Y939940D02*
X1091640D01*
X1083140Y938590D02*
X1091640D01*
X1083140Y937240D02*
X1091640D01*
X1083140Y935890D02*
X1091640D01*
X1083140Y934540D02*
X1091640D01*
X1083140Y933190D02*
X1091640D01*
X1083140Y931840D02*
X1091640D01*
X1083140Y930490D02*
X1091640D01*
X1083140Y929140D02*
X1091640D01*
X1083140Y927790D02*
X1091640D01*
X1083140Y926440D02*
X1091640D01*
X1083140Y925090D02*
X1091640D01*
X1083140Y923740D02*
X1091640D01*
X1083140Y922390D02*
X1091640D01*
X1083140Y921040D02*
X1091640D01*
X1083140Y919690D02*
X1091640D01*
X1083140Y918340D02*
X1091640D01*
X1083140Y916990D02*
X1091640D01*
X1083140Y915640D02*
X1091640D01*
X1083140Y914290D02*
X1091640D01*
X1083140Y912940D02*
X1091640D01*
X1083140Y911590D02*
X1091640D01*
X1083140Y910240D02*
X1091640D01*
X1083140Y908890D02*
X1091640D01*
X1083140Y907540D02*
X1091640D01*
X1083140Y906190D02*
X1091640D01*
X1011140Y904840D02*
X1091640D01*
X1011140Y903490D02*
X1091640D01*
X1011140Y902140D02*
X1091640D01*
X1011140Y900790D02*
X1091640D01*
X1011140Y899440D02*
X1091640D01*
X1011140Y898090D02*
X1091640D01*
X1011140Y896740D02*
X1091640D01*
X1011140Y895390D02*
X1019640D01*
X1011140Y894040D02*
X1019640D01*
X1011140Y892690D02*
X1019640D01*
X1011140Y891340D02*
X1019640D01*
X1011140Y889990D02*
X1019640D01*
X1011140Y888640D02*
X1019640D01*
X1011140Y887290D02*
X1019640D01*
X1011140Y885940D02*
X1019640D01*
X1011140Y884590D02*
X1019640D01*
X1011140Y883240D02*
X1019640D01*
X1166890Y897142D02*
X1232390D01*
X1250390Y915142*
X1269390*
Y906142*
X1300390*
Y952642*
X1303390*
Y1015642*
X1102890*
Y1010142*
X1087390*
Y1025142*
X1326890*
Y953142*
X1324890*
X1324892D02*
G03Y937142I98J-8000D01*
G01X1324890D02*
X1326890D01*
Y882142*
X1166890*
Y897142*
X1244390Y1006142D02*
X1137390D01*
Y897142*
X1156390*
Y956142*
X1166890*
Y964142*
X1186390*
Y997642*
X1244390*
Y1006142*
X1085890Y1025142D02*
X971890D01*
Y952142*
X980390*
Y937142*
X971890*
Y879142*
X1013890*
Y902142*
X1069390*
Y945642*
X1060890*
Y924642*
X991890*
Y979142*
X1033890*
Y1003142*
X1044390*
Y1019142*
X1065890*
Y1015142*
X1072390*
Y1009642*
X1085890*
Y1025142*
G54D232*
X1058679Y989772D02*
X1058679D01*
X1061100D02*
X1061100D01*
X1058579Y989872D02*
X1058924D01*
X1060856D02*
X1061200D01*
X1058479Y989972D02*
X1059169D01*
X1060611D02*
X1061300D01*
X1058379Y990072D02*
X1059737D01*
X1060045D02*
X1061400D01*
X1058279Y990172D02*
X1061500D01*
X1058179Y990272D02*
X1061600D01*
X1058079Y990372D02*
X1061700D01*
X1058117Y990472D02*
X1061663D01*
X1058313Y990572D02*
X1061467D01*
X1058509Y990672D02*
X1061272D01*
X1058705Y990772D02*
X1061076D01*
X1059093Y990872D02*
X1060686D01*
X1058100Y990351D02*
Y990463D01*
X1058200Y990251D02*
Y990514D01*
X1058300Y990151D02*
Y990565D01*
X1058400Y990051D02*
Y990616D01*
X1058500Y989951D02*
Y990667D01*
X1058600Y989851D02*
Y990718D01*
X1058700Y989780D02*
Y990769D01*
X1058800Y989821D02*
Y990801D01*
X1058900Y989862D02*
Y990825D01*
X1059000Y989903D02*
Y990849D01*
X1059100Y989943D02*
Y990873D01*
X1059200Y989984D02*
Y990897D01*
X1059300Y990015D02*
Y990921D01*
X1059400Y990028D02*
Y990945D01*
X1059500Y990041D02*
Y990969D01*
X1059600Y990054D02*
Y990969D01*
X1059700Y990067D02*
Y990969D01*
X1059800Y990080D02*
Y990968D01*
X1059900Y990091D02*
Y990968D01*
X1060000Y990078D02*
Y990968D01*
X1060100Y990064D02*
Y990968D01*
X1060200Y990051D02*
Y990968D01*
X1060300Y990038D02*
Y990965D01*
X1060400Y990025D02*
Y990941D01*
X1060500Y990012D02*
Y990917D01*
X1060600Y989976D02*
Y990892D01*
X1060700Y989935D02*
Y990868D01*
X1060800Y989895D02*
Y990844D01*
X1060900Y989854D02*
Y990820D01*
X1061000Y989813D02*
Y990796D01*
X1061100Y989772D02*
Y990760D01*
X1061200Y989871D02*
Y990708D01*
X1061300Y989971D02*
Y990657D01*
X1061400Y990071D02*
Y990606D01*
X1061500Y990171D02*
Y990555D01*
X1061600Y990271D02*
Y990504D01*
X1061700Y990371D02*
Y990453D01*
X1057106Y985778D02*
X1057106D01*
X1057055Y985878D02*
X1057206D01*
X1057004Y985978D02*
X1057306D01*
X1056953Y986078D02*
X1057406D01*
X1056902Y986178D02*
X1057506D01*
X1056851Y986278D02*
X1057606D01*
X1056800Y986378D02*
X1057706D01*
X1056749Y986478D02*
X1057741D01*
X1056724Y986578D02*
X1057700D01*
X1056700Y986678D02*
X1057659D01*
X1056676Y986778D02*
X1057618D01*
X1056652Y986878D02*
X1057577D01*
X1056628Y986978D02*
X1057536D01*
X1056604Y987078D02*
X1057513D01*
X1056580Y987178D02*
X1057500D01*
X1056563Y987278D02*
X1057487D01*
X1056563Y987378D02*
X1057474D01*
X1056563Y987478D02*
X1057461D01*
X1056563Y987578D02*
X1057448D01*
X1056563Y987678D02*
X1057444D01*
X1056563Y987778D02*
X1057457D01*
X1056563Y987878D02*
X1057471D01*
X1056563Y987978D02*
X1057484D01*
X1056573Y988078D02*
X1057497D01*
X1056597Y988178D02*
X1057510D01*
X1056621Y988278D02*
X1057525D01*
X1056645Y988378D02*
X1057566D01*
X1056669Y988478D02*
X1057607D01*
X1056694Y988578D02*
X1057647D01*
X1056718Y988678D02*
X1057688D01*
X1056742Y988778D02*
X1057729D01*
X1056785Y988878D02*
X1057735D01*
X1056836Y988978D02*
X1057635D01*
X1056887Y989078D02*
X1057535D01*
X1056939Y989178D02*
X1057435D01*
X1056990Y989278D02*
X1057335D01*
X1057041Y989378D02*
X1057235D01*
X1057092Y989478D02*
X1057135D01*
X1056600Y987094D02*
Y988190D01*
X1056700Y986679D02*
Y988604D01*
X1056800Y986377D02*
Y988907D01*
X1056900Y986181D02*
Y989102D01*
X1057000Y985986D02*
Y989298D01*
X1057100Y985790D02*
Y989493D01*
X1057200Y985871D02*
Y989412D01*
X1057300Y985971D02*
Y989312D01*
X1057400Y986071D02*
Y989212D01*
X1057500Y986171D02*
Y987180D01*
Y988104D02*
Y989112D01*
X1057600Y986271D02*
Y986822D01*
Y988461D02*
Y989012D01*
X1057700Y986371D02*
Y986577D01*
Y988706D02*
Y988912D01*
X1059498Y984315D02*
X1059498D01*
X1059081Y984415D02*
X1060698D01*
X1058699Y984515D02*
X1061082D01*
X1058503Y984615D02*
X1061278D01*
X1058307Y984715D02*
X1061473D01*
X1058111Y984815D02*
X1061669D01*
X1058082Y984915D02*
X1061698D01*
X1058182Y985015D02*
X1061598D01*
X1058282Y985115D02*
X1061498D01*
X1058382Y985215D02*
X1059714D01*
X1060068D02*
X1061398D01*
X1058482Y985315D02*
X1059162D01*
X1060619D02*
X1061298D01*
X1058582Y985415D02*
X1058917D01*
X1060863D02*
X1061198D01*
X1058100Y984820D02*
Y984933D01*
X1058200Y984769D02*
Y985033D01*
X1058300Y984718D02*
Y985133D01*
X1058400Y984667D02*
Y985233D01*
X1058500Y984616D02*
Y985333D01*
X1058600Y984565D02*
Y985433D01*
X1058700Y984514D02*
Y985503D01*
X1058800Y984482D02*
Y985462D01*
X1058900Y984458D02*
Y985422D01*
X1059000Y984434D02*
Y985381D01*
X1059100Y984410D02*
Y985340D01*
X1059200Y984386D02*
Y985299D01*
X1059300Y984362D02*
Y985268D01*
X1059400Y984338D02*
Y985255D01*
X1059500Y984315D02*
Y985242D01*
X1059600Y984315D02*
Y985229D01*
X1059700Y984315D02*
Y985217D01*
X1059800Y984315D02*
Y985204D01*
X1059900Y984315D02*
Y985193D01*
X1060000Y984315D02*
Y985206D01*
X1060100Y984315D02*
Y985219D01*
X1060200Y984315D02*
Y985232D01*
X1060300Y984318D02*
Y985245D01*
X1060400Y984343D02*
Y985258D01*
X1060500Y984367D02*
Y985271D01*
X1060600Y984391D02*
Y985307D01*
X1060700Y984415D02*
Y985348D01*
X1060800Y984439D02*
Y985389D01*
X1060900Y984463D02*
Y985430D01*
X1061000Y984488D02*
Y985471D01*
X1061100Y984524D02*
Y985512D01*
X1061200Y984575D02*
Y985412D01*
X1061300Y984626D02*
Y985312D01*
X1061400Y984677D02*
Y985212D01*
X1061500Y984728D02*
Y985112D01*
X1061600Y984780D02*
Y985012D01*
X1061700Y984831D02*
Y984912D01*
X1062673Y985778D02*
X1062673D01*
X1062573Y985878D02*
X1062724D01*
X1062473Y985978D02*
X1062775D01*
X1062373Y986078D02*
X1062826D01*
X1062273Y986178D02*
X1062877D01*
X1062173Y986278D02*
X1062928D01*
X1062073Y986378D02*
X1062979D01*
X1062039Y986478D02*
X1063031D01*
X1062080Y986578D02*
X1063055D01*
X1062120Y986678D02*
X1063079D01*
X1062161Y986778D02*
X1063104D01*
X1062202Y986878D02*
X1063128D01*
X1062243Y986978D02*
X1063152D01*
X1062266Y987078D02*
X1063176D01*
X1062279Y987178D02*
X1063200D01*
X1062292Y987278D02*
X1063216D01*
X1062305Y987378D02*
X1063216D01*
X1062318Y987478D02*
X1063216D01*
X1062331Y987578D02*
X1063216D01*
X1062335Y987678D02*
X1063216D01*
X1062322Y987778D02*
X1063216D01*
X1062309Y987878D02*
X1063216D01*
X1062296Y987978D02*
X1063216D01*
X1062283Y988078D02*
X1063206D01*
X1062270Y988178D02*
X1063182D01*
X1062254Y988278D02*
X1063158D01*
X1062214Y988378D02*
X1063134D01*
X1062173Y988478D02*
X1063110D01*
X1062132Y988578D02*
X1063086D01*
X1062091Y988678D02*
X1063062D01*
X1062050Y988778D02*
X1063038D01*
X1062045Y988878D02*
X1062994D01*
X1062145Y988978D02*
X1062943D01*
X1062245Y989078D02*
X1062892D01*
X1062345Y989178D02*
X1062841D01*
X1062445Y989278D02*
X1062790D01*
X1062545Y989378D02*
X1062739D01*
X1062645Y989478D02*
X1062688D01*
X1062100Y986351D02*
Y986628D01*
Y988656D02*
Y988933D01*
X1062200Y986251D02*
Y986873D01*
Y988411D02*
Y989033D01*
X1062300Y986151D02*
Y987336D01*
Y987948D02*
Y989133D01*
X1062400Y986051D02*
Y989233D01*
X1062500Y985951D02*
Y989333D01*
X1062600Y985851D02*
Y989433D01*
X1062700Y985830D02*
Y989453D01*
X1062800Y986026D02*
Y989257D01*
X1062900Y986222D02*
Y989062D01*
X1063000Y986418D02*
Y988866D01*
X1063100Y986763D02*
Y988520D01*
X1063200Y987179D02*
Y988105D01*
X1061100Y989772D02*
X1061754Y990425D01*
X1061758Y990422D02*
G03X1058026Y990426I-1868J-2780D01*
G01Y990425D02*
X1058679Y989772D01*
X1058680D02*
G02X1061104Y989770I1210J-2130D01*
G01X1057760Y988852D02*
X1057106Y989506D01*
X1057109Y989510D02*
G03Y985773I2781J-1868D01*
G01X1057106Y985778D02*
X1057760Y986431D01*
X1057762Y986428D02*
G02Y988856I2128J1214D01*
G01X1058679Y985512D02*
X1058026Y984858D01*
G03X1061758Y984861I1864J2784*
G01X1061754Y984858D02*
X1061100Y985512D01*
X1061104Y985514D02*
G02X1058680Y985511I-1214J2128D01*
G01X1062020Y986431D02*
X1062673Y985778D01*
X1062674D02*
G03Y989505I-2784J1864D01*
G01X1062673Y989506D02*
X1062020Y988852D01*
G02Y986432I-2130J-1210*
G01X1075651Y1021300D02*
X1075929D01*
X1078851D02*
X1079129D01*
X1075551Y1021400D02*
X1076133D01*
X1078647D02*
X1079229D01*
X1075451Y1021500D02*
X1076337D01*
X1078444D02*
X1079329D01*
X1075351Y1021600D02*
X1076733D01*
X1078047D02*
X1079429D01*
X1075251Y1021700D02*
X1079529D01*
X1075151Y1021800D02*
X1079629D01*
X1075171Y1021900D02*
X1079608D01*
X1075347Y1022000D02*
X1079433D01*
X1075523Y1022100D02*
X1079257D01*
X1075700Y1022200D02*
X1079081D01*
X1075930Y1022300D02*
X1078848D01*
X1076243Y1022400D02*
X1078537D01*
X1076556Y1022500D02*
X1078226D01*
X1075100Y1021851D02*
Y1021860D01*
X1075200Y1021751D02*
Y1021916D01*
X1075300Y1021651D02*
Y1021973D01*
X1075400Y1021551D02*
Y1022030D01*
X1075500Y1021451D02*
Y1022087D01*
X1075600Y1021351D02*
Y1022143D01*
X1075700Y1021251D02*
Y1022200D01*
X1075800Y1021237D02*
Y1022257D01*
X1075900Y1021286D02*
Y1022290D01*
X1076000Y1021335D02*
Y1022322D01*
X1076100Y1021384D02*
Y1022354D01*
X1076200Y1021433D02*
Y1022386D01*
X1076300Y1021482D02*
Y1022418D01*
X1076400Y1021523D02*
Y1022450D01*
X1076500Y1021546D02*
Y1022482D01*
X1076600Y1021569D02*
Y1022510D01*
X1076700Y1021592D02*
Y1022520D01*
X1076800Y1021616D02*
Y1022531D01*
X1076900Y1021639D02*
Y1022541D01*
X1077000Y1021662D02*
Y1022551D01*
X1077100Y1021672D02*
Y1022562D01*
X1077200Y1021672D02*
Y1022572D01*
X1077300Y1021672D02*
Y1022582D01*
X1077400Y1021672D02*
Y1022591D01*
X1077500Y1021672D02*
Y1022581D01*
X1077600Y1021672D02*
Y1022570D01*
X1077700Y1021672D02*
Y1022560D01*
X1077800Y1021657D02*
Y1022549D01*
X1077900Y1021634D02*
Y1022539D01*
X1078000Y1021611D02*
Y1022528D01*
X1078100Y1021588D02*
Y1022518D01*
X1078200Y1021564D02*
Y1022507D01*
X1078300Y1021541D02*
Y1022476D01*
X1078400Y1021518D02*
Y1022444D01*
X1078500Y1021472D02*
Y1022412D01*
X1078600Y1021423D02*
Y1022380D01*
X1078700Y1021374D02*
Y1022347D01*
X1078800Y1021325D02*
Y1022315D01*
X1078900Y1021276D02*
Y1022283D01*
X1079000Y1021227D02*
Y1022246D01*
X1079100Y1021271D02*
Y1022189D01*
X1079200Y1021371D02*
Y1022132D01*
X1079300Y1021471D02*
Y1022075D01*
X1079400Y1021571D02*
Y1022019D01*
X1079500Y1021671D02*
Y1021962D01*
X1079600Y1021771D02*
Y1021905D01*
X1074145Y1016400D02*
X1074229D01*
X1074088Y1016500D02*
X1074329D01*
X1074031Y1016600D02*
X1074429D01*
X1073974Y1016700D02*
X1074529D01*
X1073917Y1016800D02*
X1074629D01*
X1073860Y1016900D02*
X1074729D01*
X1073803Y1017000D02*
X1074820D01*
X1073758Y1017100D02*
X1074771D01*
X1073726Y1017200D02*
X1074722D01*
X1073694Y1017300D02*
X1074673D01*
X1073662Y1017400D02*
X1074624D01*
X1073630Y1017500D02*
X1074575D01*
X1073598Y1017600D02*
X1074525D01*
X1073566Y1017700D02*
X1074498D01*
X1073534Y1017800D02*
X1074474D01*
X1073517Y1017900D02*
X1074451D01*
X1073506Y1018000D02*
X1074428D01*
X1073496Y1018100D02*
X1074405D01*
X1073486Y1018200D02*
X1074382D01*
X1073475Y1018300D02*
X1074360D01*
X1073465Y1018400D02*
X1074360D01*
X1073454Y1018500D02*
X1074360D01*
X1073444Y1018600D02*
X1074360D01*
X1073446Y1018700D02*
X1074360D01*
X1073456Y1018800D02*
X1074360D01*
X1073467Y1018900D02*
X1074360D01*
X1073477Y1019000D02*
X1074362D01*
X1073487Y1019100D02*
X1074385D01*
X1073498Y1019200D02*
X1074409D01*
X1073508Y1019300D02*
X1074432D01*
X1073519Y1019400D02*
X1074455D01*
X1073539Y1019500D02*
X1074478D01*
X1073571Y1019600D02*
X1074502D01*
X1073603Y1019700D02*
X1074534D01*
X1073635Y1019800D02*
X1074583D01*
X1073667Y1019900D02*
X1074632D01*
X1073699Y1020000D02*
X1074681D01*
X1073732Y1020100D02*
X1074730D01*
X1073764Y1020200D02*
X1074779D01*
X1073813Y1020300D02*
X1074812D01*
X1073870Y1020400D02*
X1074712D01*
X1073927Y1020500D02*
X1074612D01*
X1073983Y1020600D02*
X1074512D01*
X1074040Y1020700D02*
X1074412D01*
X1074097Y1020800D02*
X1074312D01*
X1074154Y1020900D02*
X1074212D01*
X1073500Y1018062D02*
Y1019221D01*
X1073600Y1017593D02*
Y1019690D01*
X1073700Y1017282D02*
Y1020002D01*
X1073800Y1017006D02*
Y1020278D01*
X1073900Y1016830D02*
Y1020453D01*
X1074000Y1016654D02*
Y1020629D01*
X1074100Y1016478D02*
Y1020805D01*
X1074200Y1016371D02*
Y1020912D01*
X1074300Y1016471D02*
Y1020812D01*
X1074400Y1016571D02*
Y1018121D01*
Y1019163D02*
Y1020712D01*
X1074500Y1016671D02*
Y1017690D01*
Y1019593D02*
Y1020612D01*
X1074600Y1016771D02*
Y1017448D01*
Y1019835D02*
Y1020512D01*
X1074700Y1016871D02*
Y1017245D01*
Y1020039D02*
Y1020412D01*
X1074800Y1016971D02*
Y1017041D01*
Y1020242D02*
Y1020312D01*
X1077313Y1014700D02*
X1077472D01*
X1076504Y1014800D02*
X1078277D01*
X1076192Y1014900D02*
X1078588D01*
X1075879Y1015000D02*
X1078899D01*
X1075670Y1015100D02*
X1079110D01*
X1075494Y1015200D02*
X1079286D01*
X1075318Y1015300D02*
X1079462D01*
X1075142Y1015400D02*
X1079637D01*
X1075167Y1015500D02*
X1079612D01*
X1075267Y1015600D02*
X1079512D01*
X1075367Y1015700D02*
X1076661D01*
X1078118D02*
X1079412D01*
X1075467Y1015800D02*
X1076303D01*
X1078478D02*
X1079312D01*
X1075567Y1015900D02*
X1076099D01*
X1078681D02*
X1079212D01*
X1075667Y1016000D02*
X1075895D01*
X1078885D02*
X1079112D01*
X1075100Y1015424D02*
Y1015433D01*
X1075200Y1015367D02*
Y1015533D01*
X1075300Y1015310D02*
Y1015633D01*
X1075400Y1015254D02*
Y1015733D01*
X1075500Y1015197D02*
Y1015833D01*
X1075600Y1015140D02*
Y1015933D01*
X1075700Y1015083D02*
Y1016033D01*
X1075800Y1015026D02*
Y1016047D01*
X1075900Y1014993D02*
Y1015998D01*
X1076000Y1014961D02*
Y1015949D01*
X1076100Y1014929D02*
Y1015900D01*
X1076200Y1014897D02*
Y1015851D01*
X1076300Y1014865D02*
Y1015802D01*
X1076400Y1014833D02*
Y1015760D01*
X1076500Y1014801D02*
Y1015737D01*
X1076600Y1014773D02*
Y1015714D01*
X1076700Y1014763D02*
Y1015691D01*
X1076800Y1014753D02*
Y1015668D01*
X1076900Y1014742D02*
Y1015645D01*
X1077000Y1014732D02*
Y1015622D01*
X1077100Y1014722D02*
Y1015611D01*
X1077200Y1014712D02*
Y1015611D01*
X1077300Y1014701D02*
Y1015611D01*
X1077400Y1014692D02*
Y1015612D01*
X1077500Y1014703D02*
Y1015612D01*
X1077600Y1014713D02*
Y1015612D01*
X1077700Y1014724D02*
Y1015612D01*
X1077800Y1014734D02*
Y1015626D01*
X1077900Y1014745D02*
Y1015649D01*
X1078000Y1014755D02*
Y1015673D01*
X1078100Y1014766D02*
Y1015696D01*
X1078200Y1014776D02*
Y1015719D01*
X1078300Y1014807D02*
Y1015742D01*
X1078400Y1014840D02*
Y1015766D01*
X1078500Y1014872D02*
Y1015811D01*
X1078600Y1014904D02*
Y1015860D01*
X1078700Y1014936D02*
Y1015909D01*
X1078800Y1014968D02*
Y1015958D01*
X1078900Y1015000D02*
Y1016008D01*
X1079000Y1015037D02*
Y1016057D01*
X1079100Y1015094D02*
Y1016012D01*
X1079200Y1015151D02*
Y1015912D01*
X1079300Y1015208D02*
Y1015812D01*
X1079400Y1015265D02*
Y1015712D01*
X1079500Y1015322D02*
Y1015612D01*
X1079600Y1015379D02*
Y1015512D01*
X1080551Y1016400D02*
X1080635D01*
X1080451Y1016500D02*
X1080692D01*
X1080351Y1016600D02*
X1080748D01*
X1080251Y1016700D02*
X1080805D01*
X1080151Y1016800D02*
X1080862D01*
X1080051Y1016900D02*
X1080919D01*
X1079959Y1017000D02*
X1080976D01*
X1080008Y1017100D02*
X1081022D01*
X1080057Y1017200D02*
X1081054D01*
X1080106Y1017300D02*
X1081086D01*
X1080156Y1017400D02*
X1081118D01*
X1080205Y1017500D02*
X1081150D01*
X1080254Y1017600D02*
X1081182D01*
X1080282Y1017700D02*
X1081214D01*
X1080305Y1017800D02*
X1081246D01*
X1080328Y1017900D02*
X1081263D01*
X1080352Y1018000D02*
X1081273D01*
X1080375Y1018100D02*
X1081284D01*
X1080398Y1018200D02*
X1081294D01*
X1080420Y1018300D02*
X1081304D01*
X1080420Y1018400D02*
X1081315D01*
X1080420Y1018500D02*
X1081325D01*
X1080420Y1018600D02*
X1081335D01*
X1080420Y1018700D02*
X1081334D01*
X1080420Y1018800D02*
X1081323D01*
X1080420Y1018900D02*
X1081313D01*
X1080417Y1019000D02*
X1081303D01*
X1080394Y1019100D02*
X1081292D01*
X1080371Y1019200D02*
X1081282D01*
X1080348Y1019300D02*
X1081272D01*
X1080325Y1019400D02*
X1081261D01*
X1080301Y1019500D02*
X1081240D01*
X1080278Y1019600D02*
X1081208D01*
X1080246Y1019700D02*
X1081176D01*
X1080196Y1019800D02*
X1081144D01*
X1080147Y1019900D02*
X1081112D01*
X1080098Y1020000D02*
X1081080D01*
X1080049Y1020100D02*
X1081048D01*
X1080000Y1020200D02*
X1081016D01*
X1079967Y1020300D02*
X1080966D01*
X1080067Y1020400D02*
X1080909D01*
X1080167Y1020500D02*
X1080853D01*
X1080267Y1020600D02*
X1080796D01*
X1080367Y1020700D02*
X1080739D01*
X1080467Y1020800D02*
X1080682D01*
X1080567Y1020900D02*
X1080625D01*
X1080000Y1016951D02*
Y1017083D01*
Y1020201D02*
Y1020333D01*
X1080100Y1016851D02*
Y1017287D01*
Y1019997D02*
Y1020433D01*
X1080200Y1016751D02*
Y1017491D01*
Y1019793D02*
Y1020533D01*
X1080300Y1016651D02*
Y1017777D01*
Y1019506D02*
Y1020633D01*
X1080400Y1016551D02*
Y1018209D01*
Y1019075D02*
Y1020733D01*
X1080500Y1016451D02*
Y1020833D01*
X1080600Y1016351D02*
Y1020933D01*
X1080700Y1016515D02*
Y1020769D01*
X1080800Y1016691D02*
Y1020593D01*
X1080900Y1016867D02*
Y1020417D01*
X1081000Y1017043D02*
Y1020241D01*
X1081100Y1017345D02*
Y1019938D01*
X1081200Y1017657D02*
Y1019626D01*
X1081300Y1018258D02*
Y1019025D01*
X1079037Y1021208D02*
X1079685Y1021856D01*
X1079689Y1021853D02*
G03X1075096Y1021857I-2299J-3211D01*
G01X1075094Y1021856D02*
X1075742Y1021208D01*
X1075747Y1021211D02*
G02X1079037Y1021208I1643J-2569D01*
G01X1074823Y1020289D02*
X1074175Y1020937D01*
X1074178Y1020941D02*
G03Y1016342I3212J-2299D01*
G01X1074175Y1016346D02*
X1074823Y1016994D01*
G02Y1020289I2567J1648*
G01X1075742Y1016075D02*
X1075094Y1015427D01*
X1075096Y1015426D02*
G03X1079689Y1015430I2294J3216D01*
G01X1079685Y1015427D02*
X1079037Y1016075D01*
G02X1075747Y1016072I-1647J2567*
G01X1079957Y1016994D02*
X1080604Y1016346D01*
X1080606Y1016348D02*
G03Y1020936I-3216J2294D01*
G01X1080604Y1020937D02*
X1079957Y1020289D01*
X1079959Y1020285D02*
G02Y1016998I-2569J-1643D01*
G01X1096151Y1021300D02*
X1096429D01*
X1099351D02*
X1099629D01*
X1096051Y1021400D02*
X1096633D01*
X1099147D02*
X1099729D01*
X1095951Y1021500D02*
X1096837D01*
X1098944D02*
X1099829D01*
X1095851Y1021600D02*
X1097233D01*
X1098547D02*
X1099929D01*
X1095751Y1021700D02*
X1100029D01*
X1095651Y1021800D02*
X1100129D01*
X1095671Y1021900D02*
X1100108D01*
X1095847Y1022000D02*
X1099933D01*
X1096023Y1022100D02*
X1099757D01*
X1096200Y1022200D02*
X1099581D01*
X1096430Y1022300D02*
X1099348D01*
X1096743Y1022400D02*
X1099037D01*
X1097056Y1022500D02*
X1098726D01*
X1095600Y1021851D02*
Y1021860D01*
X1095700Y1021751D02*
Y1021916D01*
X1095800Y1021651D02*
Y1021973D01*
X1095900Y1021551D02*
Y1022030D01*
X1096000Y1021451D02*
Y1022087D01*
X1096100Y1021351D02*
Y1022143D01*
X1096200Y1021251D02*
Y1022200D01*
X1096300Y1021237D02*
Y1022257D01*
X1096400Y1021286D02*
Y1022290D01*
X1096500Y1021335D02*
Y1022322D01*
X1096600Y1021384D02*
Y1022354D01*
X1096700Y1021433D02*
Y1022386D01*
X1096800Y1021482D02*
Y1022418D01*
X1096900Y1021523D02*
Y1022450D01*
X1097000Y1021546D02*
Y1022482D01*
X1097100Y1021569D02*
Y1022510D01*
X1097200Y1021592D02*
Y1022520D01*
X1097300Y1021616D02*
Y1022531D01*
X1097400Y1021639D02*
Y1022541D01*
X1097500Y1021662D02*
Y1022551D01*
X1097600Y1021672D02*
Y1022562D01*
X1097700Y1021672D02*
Y1022572D01*
X1097800Y1021672D02*
Y1022582D01*
X1097900Y1021672D02*
Y1022591D01*
X1098000Y1021672D02*
Y1022581D01*
X1098100Y1021672D02*
Y1022570D01*
X1098200Y1021672D02*
Y1022560D01*
X1098300Y1021657D02*
Y1022549D01*
X1098400Y1021634D02*
Y1022539D01*
X1098500Y1021611D02*
Y1022528D01*
X1098600Y1021588D02*
Y1022518D01*
X1098700Y1021564D02*
Y1022507D01*
X1098800Y1021541D02*
Y1022476D01*
X1098900Y1021518D02*
Y1022444D01*
X1099000Y1021472D02*
Y1022412D01*
X1099100Y1021423D02*
Y1022380D01*
X1099200Y1021374D02*
Y1022347D01*
X1099300Y1021325D02*
Y1022315D01*
X1099400Y1021276D02*
Y1022283D01*
X1099500Y1021227D02*
Y1022246D01*
X1099600Y1021271D02*
Y1022189D01*
X1099700Y1021371D02*
Y1022132D01*
X1099800Y1021471D02*
Y1022075D01*
X1099900Y1021571D02*
Y1022019D01*
X1100000Y1021671D02*
Y1021962D01*
X1100100Y1021771D02*
Y1021905D01*
X1094645Y1016400D02*
X1094729D01*
X1094588Y1016500D02*
X1094829D01*
X1094531Y1016600D02*
X1094929D01*
X1094474Y1016700D02*
X1095029D01*
X1094417Y1016800D02*
X1095129D01*
X1094360Y1016900D02*
X1095229D01*
X1094303Y1017000D02*
X1095320D01*
X1094258Y1017100D02*
X1095271D01*
X1094226Y1017200D02*
X1095222D01*
X1094194Y1017300D02*
X1095173D01*
X1094162Y1017400D02*
X1095124D01*
X1094130Y1017500D02*
X1095075D01*
X1094098Y1017600D02*
X1095025D01*
X1094066Y1017700D02*
X1094998D01*
X1094034Y1017800D02*
X1094974D01*
X1094017Y1017900D02*
X1094951D01*
X1094006Y1018000D02*
X1094928D01*
X1093996Y1018100D02*
X1094905D01*
X1093986Y1018200D02*
X1094882D01*
X1093975Y1018300D02*
X1094860D01*
X1093965Y1018400D02*
X1094860D01*
X1093954Y1018500D02*
X1094860D01*
X1093944Y1018600D02*
X1094860D01*
X1093946Y1018700D02*
X1094860D01*
X1093956Y1018800D02*
X1094860D01*
X1093967Y1018900D02*
X1094860D01*
X1093977Y1019000D02*
X1094862D01*
X1093987Y1019100D02*
X1094885D01*
X1093998Y1019200D02*
X1094909D01*
X1094008Y1019300D02*
X1094932D01*
X1094019Y1019400D02*
X1094955D01*
X1094039Y1019500D02*
X1094978D01*
X1094071Y1019600D02*
X1095002D01*
X1094103Y1019700D02*
X1095034D01*
X1094135Y1019800D02*
X1095083D01*
X1094167Y1019900D02*
X1095132D01*
X1094199Y1020000D02*
X1095181D01*
X1094232Y1020100D02*
X1095230D01*
X1094264Y1020200D02*
X1095279D01*
X1094313Y1020300D02*
X1095312D01*
X1094370Y1020400D02*
X1095212D01*
X1094427Y1020500D02*
X1095112D01*
X1094483Y1020600D02*
X1095012D01*
X1094540Y1020700D02*
X1094912D01*
X1094597Y1020800D02*
X1094812D01*
X1094654Y1020900D02*
X1094712D01*
X1094000Y1018062D02*
Y1019221D01*
X1094100Y1017593D02*
Y1019690D01*
X1094200Y1017282D02*
Y1020002D01*
X1094300Y1017006D02*
Y1020278D01*
X1094400Y1016830D02*
Y1020453D01*
X1094500Y1016654D02*
Y1020629D01*
X1094600Y1016478D02*
Y1020805D01*
X1094700Y1016371D02*
Y1020912D01*
X1094800Y1016471D02*
Y1020812D01*
X1094900Y1016571D02*
Y1018121D01*
Y1019163D02*
Y1020712D01*
X1095000Y1016671D02*
Y1017690D01*
Y1019593D02*
Y1020612D01*
X1095100Y1016771D02*
Y1017448D01*
Y1019835D02*
Y1020512D01*
X1095200Y1016871D02*
Y1017245D01*
Y1020039D02*
Y1020412D01*
X1095300Y1016971D02*
Y1017041D01*
Y1020242D02*
Y1020312D01*
X1097813Y1014700D02*
X1097972D01*
X1097004Y1014800D02*
X1098777D01*
X1096692Y1014900D02*
X1099088D01*
X1096379Y1015000D02*
X1099399D01*
X1096170Y1015100D02*
X1099610D01*
X1095994Y1015200D02*
X1099786D01*
X1095818Y1015300D02*
X1099962D01*
X1095642Y1015400D02*
X1100137D01*
X1095667Y1015500D02*
X1100112D01*
X1095767Y1015600D02*
X1100012D01*
X1095867Y1015700D02*
X1097161D01*
X1098618D02*
X1099912D01*
X1095967Y1015800D02*
X1096803D01*
X1098978D02*
X1099812D01*
X1096067Y1015900D02*
X1096599D01*
X1099181D02*
X1099712D01*
X1096167Y1016000D02*
X1096395D01*
X1099385D02*
X1099612D01*
X1095600Y1015424D02*
Y1015433D01*
X1095700Y1015367D02*
Y1015533D01*
X1095800Y1015310D02*
Y1015633D01*
X1095900Y1015254D02*
Y1015733D01*
X1096000Y1015197D02*
Y1015833D01*
X1096100Y1015140D02*
Y1015933D01*
X1096200Y1015083D02*
Y1016033D01*
X1096300Y1015026D02*
Y1016047D01*
X1096400Y1014993D02*
Y1015998D01*
X1096500Y1014961D02*
Y1015949D01*
X1096600Y1014929D02*
Y1015900D01*
X1096700Y1014897D02*
Y1015851D01*
X1096800Y1014865D02*
Y1015802D01*
X1096900Y1014833D02*
Y1015760D01*
X1097000Y1014801D02*
Y1015737D01*
X1097100Y1014773D02*
Y1015714D01*
X1097200Y1014763D02*
Y1015691D01*
X1097300Y1014753D02*
Y1015668D01*
X1097400Y1014742D02*
Y1015645D01*
X1097500Y1014732D02*
Y1015622D01*
X1097600Y1014722D02*
Y1015611D01*
X1097700Y1014712D02*
Y1015611D01*
X1097800Y1014701D02*
Y1015611D01*
X1097900Y1014692D02*
Y1015612D01*
X1098000Y1014703D02*
Y1015612D01*
X1098100Y1014713D02*
Y1015612D01*
X1098200Y1014724D02*
Y1015612D01*
X1098300Y1014734D02*
Y1015626D01*
X1098400Y1014745D02*
Y1015649D01*
X1098500Y1014755D02*
Y1015673D01*
X1098600Y1014766D02*
Y1015696D01*
X1098700Y1014776D02*
Y1015719D01*
X1098800Y1014807D02*
Y1015742D01*
X1098900Y1014840D02*
Y1015766D01*
X1099000Y1014872D02*
Y1015811D01*
X1099100Y1014904D02*
Y1015860D01*
X1099200Y1014936D02*
Y1015909D01*
X1099300Y1014968D02*
Y1015958D01*
X1099400Y1015000D02*
Y1016008D01*
X1099500Y1015037D02*
Y1016057D01*
X1099600Y1015094D02*
Y1016012D01*
X1099700Y1015151D02*
Y1015912D01*
X1099800Y1015208D02*
Y1015812D01*
X1099900Y1015265D02*
Y1015712D01*
X1100000Y1015322D02*
Y1015612D01*
X1100100Y1015379D02*
Y1015512D01*
X1101051Y1016400D02*
X1101135D01*
X1100951Y1016500D02*
X1101192D01*
X1100851Y1016600D02*
X1101248D01*
X1100751Y1016700D02*
X1101305D01*
X1100651Y1016800D02*
X1101362D01*
X1100551Y1016900D02*
X1101419D01*
X1100459Y1017000D02*
X1101476D01*
X1100508Y1017100D02*
X1101522D01*
X1100557Y1017200D02*
X1101554D01*
X1100606Y1017300D02*
X1101586D01*
X1100656Y1017400D02*
X1101618D01*
X1100705Y1017500D02*
X1101650D01*
X1100754Y1017600D02*
X1101682D01*
X1100782Y1017700D02*
X1101714D01*
X1100805Y1017800D02*
X1101746D01*
X1100828Y1017900D02*
X1101763D01*
X1100852Y1018000D02*
X1101773D01*
X1100875Y1018100D02*
X1101784D01*
X1100898Y1018200D02*
X1101794D01*
X1100920Y1018300D02*
X1101804D01*
X1100920Y1018400D02*
X1101815D01*
X1100920Y1018500D02*
X1101825D01*
X1100920Y1018600D02*
X1101835D01*
X1100920Y1018700D02*
X1101834D01*
X1100920Y1018800D02*
X1101823D01*
X1100920Y1018900D02*
X1101813D01*
X1100917Y1019000D02*
X1101803D01*
X1100894Y1019100D02*
X1101792D01*
X1100871Y1019200D02*
X1101782D01*
X1100848Y1019300D02*
X1101772D01*
X1100825Y1019400D02*
X1101761D01*
X1100801Y1019500D02*
X1101740D01*
X1100778Y1019600D02*
X1101708D01*
X1100746Y1019700D02*
X1101676D01*
X1100696Y1019800D02*
X1101644D01*
X1100647Y1019900D02*
X1101612D01*
X1100598Y1020000D02*
X1101580D01*
X1100549Y1020100D02*
X1101548D01*
X1100500Y1020200D02*
X1101516D01*
X1100467Y1020300D02*
X1101466D01*
X1100567Y1020400D02*
X1101409D01*
X1100667Y1020500D02*
X1101353D01*
X1100767Y1020600D02*
X1101296D01*
X1100867Y1020700D02*
X1101239D01*
X1100967Y1020800D02*
X1101182D01*
X1101067Y1020900D02*
X1101125D01*
X1100500Y1016951D02*
Y1017083D01*
Y1020201D02*
Y1020333D01*
X1100600Y1016851D02*
Y1017287D01*
Y1019997D02*
Y1020433D01*
X1100700Y1016751D02*
Y1017491D01*
Y1019793D02*
Y1020533D01*
X1100800Y1016651D02*
Y1017777D01*
Y1019506D02*
Y1020633D01*
X1100900Y1016551D02*
Y1018209D01*
Y1019075D02*
Y1020733D01*
X1101000Y1016451D02*
Y1020833D01*
X1101100Y1016351D02*
Y1020933D01*
X1101200Y1016515D02*
Y1020769D01*
X1101300Y1016691D02*
Y1020593D01*
X1101400Y1016867D02*
Y1020417D01*
X1101500Y1017043D02*
Y1020241D01*
X1101600Y1017345D02*
Y1019938D01*
X1101700Y1017657D02*
Y1019626D01*
X1101800Y1018258D02*
Y1019025D01*
X1099537Y1021208D02*
X1100185Y1021856D01*
X1100189Y1021853D02*
G03X1095596Y1021857I-2299J-3211D01*
G01X1095594Y1021856D02*
X1096242Y1021208D01*
X1096247Y1021211D02*
G02X1099537Y1021208I1643J-2569D01*
G01X1095323Y1020289D02*
X1094675Y1020937D01*
X1094678Y1020941D02*
G03Y1016342I3212J-2299D01*
G01X1094675Y1016346D02*
X1095323Y1016994D01*
G02Y1020289I2567J1648*
G01X1096242Y1016075D02*
X1095594Y1015427D01*
X1095596Y1015426D02*
G03X1100189Y1015430I2294J3216D01*
G01X1100185Y1015427D02*
X1099537Y1016075D01*
G02X1096247Y1016072I-1647J2567*
G01X1100457Y1016994D02*
X1101104Y1016346D01*
X1101106Y1016348D02*
G03Y1020936I-3216J2294D01*
G01X1101104Y1020937D02*
X1100457Y1020289D01*
X1100459Y1020285D02*
G02Y1016998I-2569J-1643D01*
G01X1105351Y1014100D02*
X1105375D01*
X1106405D02*
X1106429D01*
X1105251Y1014200D02*
X1106529D01*
X1105151Y1014300D02*
X1106629D01*
X1105051Y1014400D02*
X1106729D01*
X1104951Y1014500D02*
X1106829D01*
X1104851Y1014600D02*
X1106929D01*
X1104751Y1014700D02*
X1107029D01*
X1104748Y1014800D02*
X1107031D01*
X1104994Y1014900D02*
X1106787D01*
X1105239Y1015000D02*
X1106542D01*
X1104700Y1014751D02*
Y1014780D01*
X1104800Y1014651D02*
Y1014821D01*
X1104900Y1014551D02*
Y1014862D01*
X1105000Y1014451D02*
Y1014903D01*
X1105100Y1014351D02*
Y1014943D01*
X1105200Y1014251D02*
Y1014984D01*
X1105300Y1014151D02*
Y1015015D01*
X1105400Y1014104D02*
Y1015028D01*
X1105500Y1014122D02*
Y1015041D01*
X1105600Y1014140D02*
Y1015054D01*
X1105700Y1014158D02*
Y1015067D01*
X1105800Y1014176D02*
Y1015080D01*
X1105900Y1014190D02*
Y1015091D01*
X1106000Y1014172D02*
Y1015078D01*
X1106100Y1014154D02*
Y1015064D01*
X1106200Y1014137D02*
Y1015051D01*
X1106300Y1014119D02*
Y1015038D01*
X1106400Y1014101D02*
Y1015025D01*
X1106500Y1014171D02*
Y1015012D01*
X1106600Y1014271D02*
Y1014976D01*
X1106700Y1014371D02*
Y1014935D01*
X1106800Y1014471D02*
Y1014895D01*
X1106900Y1014571D02*
Y1014854D01*
X1107000Y1014671D02*
Y1014813D01*
X1107100Y1014771D02*
Y1014772D01*
X1103732Y1011500D02*
X1103829D01*
X1103691Y1011600D02*
X1103929D01*
X1103650Y1011700D02*
X1104029D01*
X1103609Y1011800D02*
X1104129D01*
X1103568Y1011900D02*
X1104229D01*
X1103527Y1012000D02*
X1104329D01*
X1103510Y1012100D02*
X1104429D01*
X1103497Y1012200D02*
X1104418D01*
X1103484Y1012300D02*
X1104401D01*
X1103471Y1012400D02*
X1104383D01*
X1103458Y1012500D02*
X1104365D01*
X1103445Y1012600D02*
X1104347D01*
X1103447Y1012700D02*
X1104350D01*
X1103460Y1012800D02*
X1104368D01*
X1103473Y1012900D02*
X1104386D01*
X1103486Y1013000D02*
X1104404D01*
X1103499Y1013100D02*
X1104421D01*
X1103513Y1013200D02*
X1104412D01*
X1103534Y1013300D02*
X1104312D01*
X1103575Y1013400D02*
X1104212D01*
X1103616Y1013500D02*
X1104112D01*
X1103657Y1013600D02*
X1104012D01*
X1103698Y1013700D02*
X1103912D01*
X1103738Y1013800D02*
X1103812D01*
X1103500Y1012180D02*
Y1013104D01*
X1103600Y1011822D02*
Y1013461D01*
X1103700Y1011577D02*
Y1013706D01*
X1103800Y1011471D02*
Y1013812D01*
X1103900Y1011571D02*
Y1013712D01*
X1104000Y1011671D02*
Y1013612D01*
X1104100Y1011771D02*
Y1013512D01*
X1104200Y1011871D02*
Y1013412D01*
X1104300Y1011971D02*
Y1013312D01*
X1104400Y1012071D02*
Y1012304D01*
Y1012980D02*
Y1013212D01*
X1105828Y1010200D02*
X1105955D01*
X1105198Y1010300D02*
X1106583D01*
X1104953Y1010400D02*
X1106827D01*
X1104708Y1010500D02*
X1107072D01*
X1104767Y1010600D02*
X1107012D01*
X1104867Y1010700D02*
X1106912D01*
X1104967Y1010800D02*
X1106812D01*
X1105067Y1010900D02*
X1106712D01*
X1105167Y1011000D02*
X1106612D01*
X1105267Y1011100D02*
X1105845D01*
X1105937D02*
X1106512D01*
X1104700Y1010503D02*
Y1010533D01*
X1104800Y1010462D02*
Y1010633D01*
X1104900Y1010422D02*
Y1010733D01*
X1105000Y1010381D02*
Y1010833D01*
X1105100Y1010340D02*
Y1010933D01*
X1105200Y1010299D02*
Y1011033D01*
X1105300Y1010268D02*
Y1011133D01*
X1105400Y1010255D02*
Y1011179D01*
X1105500Y1010242D02*
Y1011161D01*
X1105600Y1010229D02*
Y1011143D01*
X1105700Y1010217D02*
Y1011126D01*
X1105800Y1010204D02*
Y1011108D01*
X1105900Y1010193D02*
Y1011093D01*
X1106000Y1010206D02*
Y1011111D01*
X1106100Y1010219D02*
Y1011129D01*
X1106200Y1010232D02*
Y1011147D01*
X1106300Y1010245D02*
Y1011165D01*
X1106400Y1010258D02*
Y1011183D01*
X1106500Y1010271D02*
Y1011112D01*
X1106600Y1010307D02*
Y1011012D01*
X1106700Y1010348D02*
Y1010912D01*
X1106800Y1010389D02*
Y1010812D01*
X1106900Y1010430D02*
Y1010712D01*
X1107000Y1010471D02*
Y1010612D01*
X1107100Y1010512D02*
X1107100D01*
X1107951Y1011500D02*
X1108048D01*
X1107851Y1011600D02*
X1108089D01*
X1107751Y1011700D02*
X1108130D01*
X1107651Y1011800D02*
X1108170D01*
X1107551Y1011900D02*
X1108211D01*
X1107451Y1012000D02*
X1108252D01*
X1107351Y1012100D02*
X1108269D01*
X1107361Y1012200D02*
X1108282D01*
X1107379Y1012300D02*
X1108295D01*
X1107397Y1012400D02*
X1108308D01*
X1107415Y1012500D02*
X1108321D01*
X1107432Y1012600D02*
X1108334D01*
X1107429Y1012700D02*
X1108332D01*
X1107412Y1012800D02*
X1108319D01*
X1107394Y1012900D02*
X1108306D01*
X1107376Y1013000D02*
X1108293D01*
X1107358Y1013100D02*
X1108280D01*
X1107367Y1013200D02*
X1108267D01*
X1107467Y1013300D02*
X1108245D01*
X1107567Y1013400D02*
X1108204D01*
X1107667Y1013500D02*
X1108164D01*
X1107767Y1013600D02*
X1108123D01*
X1107867Y1013700D02*
X1108082D01*
X1107967Y1013800D02*
X1108041D01*
X1107400Y1012051D02*
Y1012419D01*
Y1012865D02*
Y1013233D01*
X1107500Y1011951D02*
Y1013333D01*
X1107600Y1011851D02*
Y1013433D01*
X1107700Y1011751D02*
Y1013533D01*
X1107800Y1011651D02*
Y1013633D01*
X1107900Y1011551D02*
Y1013733D01*
X1108000Y1011451D02*
Y1013833D01*
X1108100Y1011628D02*
Y1013656D01*
X1108200Y1011873D02*
Y1013411D01*
X1108300Y1012336D02*
Y1012948D01*
X1106425Y1014096D02*
X1107100Y1014772D01*
X1107104Y1014770D02*
G03X1104680Y1014772I-1214J-2128D01*
G01X1104679D02*
X1105354Y1014096D01*
X1105355D02*
G02X1106428Y1014095I535J-1454D01*
G01X1104435Y1013177D02*
X1103760Y1013852D01*
X1103762Y1013856D02*
G03Y1011428I2128J-1214D01*
G01X1103760Y1011431D02*
X1104435Y1012106D01*
X1104436Y1012104D02*
G02Y1013179I1454J538D01*
G01X1105354Y1011187D02*
X1104679Y1010512D01*
X1104680Y1010511D02*
G03X1107104Y1010514I1210J2131D01*
G01X1107100Y1010512D02*
X1106425Y1011187D01*
X1106428Y1011188D02*
G02X1105355Y1011187I-538J1454D01*
G01X1107344Y1012106D02*
X1108020Y1011431D01*
Y1011432D02*
G03Y1013852I-2130J1210D01*
G01X1107344Y1013177*
G02Y1012107I-1454J-535*
G01X1274242Y972708D02*
X1274242D01*
X1277537D02*
X1277537D01*
X1274142Y972808D02*
X1274446D01*
X1277334D02*
X1277637D01*
X1274042Y972908D02*
X1274650D01*
X1277130D02*
X1277737D01*
X1273942Y973008D02*
X1274854D01*
X1276927D02*
X1277837D01*
X1273842Y973108D02*
X1275270D01*
X1276510D02*
X1277937D01*
X1273742Y973208D02*
X1278037D01*
X1273642Y973308D02*
X1278137D01*
X1273686Y973408D02*
X1278094D01*
X1273862Y973508D02*
X1277918D01*
X1274038Y973608D02*
X1277742D01*
X1274215Y973708D02*
X1277566D01*
X1274457Y973808D02*
X1277321D01*
X1274770Y973908D02*
X1277010D01*
X1275084Y974008D02*
X1276689D01*
X1273600Y973351D02*
Y973360D01*
X1273700Y973251D02*
Y973416D01*
X1273800Y973151D02*
Y973473D01*
X1273900Y973051D02*
Y973530D01*
X1274000Y972951D02*
Y973587D01*
X1274100Y972851D02*
Y973643D01*
X1274200Y972751D02*
Y973700D01*
X1274300Y972737D02*
Y973757D01*
X1274400Y972786D02*
Y973790D01*
X1274500Y972835D02*
Y973822D01*
X1274600Y972884D02*
Y973854D01*
X1274700Y972933D02*
Y973886D01*
X1274800Y972982D02*
Y973918D01*
X1274900Y973023D02*
Y973950D01*
X1275000Y973046D02*
Y973982D01*
X1275100Y973069D02*
Y974010D01*
X1275200Y973092D02*
Y974020D01*
X1275300Y973116D02*
Y974031D01*
X1275400Y973139D02*
Y974041D01*
X1275500Y973162D02*
Y974051D01*
X1275600Y973172D02*
Y974062D01*
X1275700Y973172D02*
Y974072D01*
X1275800Y973172D02*
Y974082D01*
X1275900Y973172D02*
Y974091D01*
X1276000Y973172D02*
Y974081D01*
X1276100Y973172D02*
Y974070D01*
X1276200Y973172D02*
Y974060D01*
X1276300Y973157D02*
Y974049D01*
X1276400Y973134D02*
Y974039D01*
X1276500Y973111D02*
Y974028D01*
X1276600Y973088D02*
Y974018D01*
X1276700Y973064D02*
Y974007D01*
X1276800Y973041D02*
Y973976D01*
X1276900Y973018D02*
Y973944D01*
X1277000Y972972D02*
Y973912D01*
X1277100Y972923D02*
Y973880D01*
X1277200Y972874D02*
Y973847D01*
X1277300Y972825D02*
Y973815D01*
X1277400Y972776D02*
Y973783D01*
X1277500Y972727D02*
Y973746D01*
X1277600Y972771D02*
Y973689D01*
X1277700Y972871D02*
Y973632D01*
X1277800Y972971D02*
Y973575D01*
X1277900Y973071D02*
Y973519D01*
X1278000Y973171D02*
Y973462D01*
X1278100Y973271D02*
Y973405D01*
X1272675Y967846D02*
X1272675D01*
X1272618Y967946D02*
X1272775D01*
X1272561Y968046D02*
X1272875D01*
X1272505Y968146D02*
X1272975D01*
X1272448Y968246D02*
X1273075D01*
X1272391Y968346D02*
X1273175D01*
X1272334Y968446D02*
X1273275D01*
X1272277Y968546D02*
X1273297D01*
X1272244Y968646D02*
X1273248D01*
X1272211Y968746D02*
X1273199D01*
X1272179Y968846D02*
X1273150D01*
X1272147Y968946D02*
X1273101D01*
X1272115Y969046D02*
X1273052D01*
X1272083Y969146D02*
X1273010D01*
X1272051Y969246D02*
X1272987D01*
X1272022Y969346D02*
X1272964D01*
X1272012Y969446D02*
X1272940D01*
X1272002Y969546D02*
X1272917D01*
X1271991Y969646D02*
X1272894D01*
X1271981Y969746D02*
X1272871D01*
X1271970Y969846D02*
X1272860D01*
X1271960Y969946D02*
X1272860D01*
X1271950Y970046D02*
X1272860D01*
X1271940Y970146D02*
X1272860D01*
X1271951Y970246D02*
X1272860D01*
X1271961Y970346D02*
X1272860D01*
X1271971Y970446D02*
X1272860D01*
X1271982Y970546D02*
X1272873D01*
X1271992Y970646D02*
X1272896D01*
X1272003Y970746D02*
X1272919D01*
X1272013Y970846D02*
X1272943D01*
X1272023Y970946D02*
X1272966D01*
X1272054Y971046D02*
X1272989D01*
X1272086Y971146D02*
X1273012D01*
X1272118Y971246D02*
X1273056D01*
X1272150Y971346D02*
X1273105D01*
X1272182Y971446D02*
X1273155D01*
X1272214Y971546D02*
X1273204D01*
X1272246Y971646D02*
X1273253D01*
X1272282Y971746D02*
X1273302D01*
X1272339Y971846D02*
X1273266D01*
X1272396Y971946D02*
X1273166D01*
X1272453Y972046D02*
X1273066D01*
X1272510Y972146D02*
X1272966D01*
X1272567Y972246D02*
X1272866D01*
X1272624Y972346D02*
X1272766D01*
X1272000Y969562D02*
Y970721D01*
X1272100Y969093D02*
Y971190D01*
X1272200Y968782D02*
Y971502D01*
X1272300Y968506D02*
Y971778D01*
X1272400Y968330D02*
Y971953D01*
X1272500Y968154D02*
Y972129D01*
X1272600Y967978D02*
Y972305D01*
X1272700Y967871D02*
Y972412D01*
X1272800Y967971D02*
Y972312D01*
X1272900Y968071D02*
Y969621D01*
Y970663D02*
Y972212D01*
X1273000Y968171D02*
Y969190D01*
Y971093D02*
Y972112D01*
X1273100Y968271D02*
Y968948D01*
Y971335D02*
Y972012D01*
X1273200Y968371D02*
Y968745D01*
Y971539D02*
Y971912D01*
X1273300Y968471D02*
Y968541D01*
Y971742D02*
Y971812D01*
X1275893Y966192D02*
X1275893D01*
X1275030Y966292D02*
X1276751D01*
X1274717Y966392D02*
X1277062D01*
X1274405Y966492D02*
X1277373D01*
X1274185Y966592D02*
X1277596D01*
X1274009Y966692D02*
X1277771D01*
X1273833Y966792D02*
X1277947D01*
X1273657Y966892D02*
X1278123D01*
X1273659Y966992D02*
X1278121D01*
X1273759Y967092D02*
X1278021D01*
X1273859Y967192D02*
X1275197D01*
X1276582D02*
X1277921D01*
X1273959Y967292D02*
X1274820D01*
X1276961D02*
X1277821D01*
X1274059Y967392D02*
X1274616D01*
X1277164D02*
X1277721D01*
X1274159Y967492D02*
X1274412D01*
X1277368D02*
X1277621D01*
X1273600Y966924D02*
Y966933D01*
X1273700Y966867D02*
Y967033D01*
X1273800Y966810D02*
Y967133D01*
X1273900Y966754D02*
Y967233D01*
X1274000Y966697D02*
Y967333D01*
X1274100Y966640D02*
Y967433D01*
X1274200Y966583D02*
Y967533D01*
X1274300Y966526D02*
Y967547D01*
X1274400Y966493D02*
Y967498D01*
X1274500Y966461D02*
Y967449D01*
X1274600Y966429D02*
Y967400D01*
X1274700Y966397D02*
Y967351D01*
X1274800Y966365D02*
Y967302D01*
X1274900Y966333D02*
Y967260D01*
X1275000Y966301D02*
Y967237D01*
X1275100Y966273D02*
Y967214D01*
X1275200Y966263D02*
Y967191D01*
X1275300Y966253D02*
Y967168D01*
X1275400Y966242D02*
Y967145D01*
X1275500Y966232D02*
Y967122D01*
X1275600Y966222D02*
Y967111D01*
X1275700Y966212D02*
Y967111D01*
X1275800Y966201D02*
Y967111D01*
X1275900Y966192D02*
Y967112D01*
X1276000Y966203D02*
Y967112D01*
X1276100Y966213D02*
Y967112D01*
X1276200Y966224D02*
Y967112D01*
X1276300Y966234D02*
Y967126D01*
X1276400Y966245D02*
Y967149D01*
X1276500Y966255D02*
Y967173D01*
X1276600Y966266D02*
Y967196D01*
X1276700Y966276D02*
Y967219D01*
X1276800Y966307D02*
Y967242D01*
X1276900Y966340D02*
Y967266D01*
X1277000Y966372D02*
Y967311D01*
X1277100Y966404D02*
Y967360D01*
X1277200Y966436D02*
Y967409D01*
X1277300Y966468D02*
Y967458D01*
X1277400Y966500D02*
Y967508D01*
X1277500Y966537D02*
Y967557D01*
X1277600Y966594D02*
Y967512D01*
X1277700Y966651D02*
Y967412D01*
X1277800Y966708D02*
Y967312D01*
X1277900Y966765D02*
Y967212D01*
X1278000Y966822D02*
Y967112D01*
X1278100Y966879D02*
Y967012D01*
X1279104Y967846D02*
X1279104D01*
X1279004Y967946D02*
X1279161D01*
X1278904Y968046D02*
X1279218D01*
X1278804Y968146D02*
X1279275D01*
X1278704Y968246D02*
X1279332D01*
X1278604Y968346D02*
X1279388D01*
X1278504Y968446D02*
X1279445D01*
X1278482Y968546D02*
X1279502D01*
X1278531Y968646D02*
X1279536D01*
X1278580Y968746D02*
X1279568D01*
X1278629Y968846D02*
X1279600D01*
X1278678Y968946D02*
X1279632D01*
X1278727Y969046D02*
X1279664D01*
X1278770Y969146D02*
X1279696D01*
X1278793Y969246D02*
X1279728D01*
X1278816Y969346D02*
X1279757D01*
X1278839Y969446D02*
X1279768D01*
X1278862Y969546D02*
X1279778D01*
X1278886Y969646D02*
X1279788D01*
X1278909Y969746D02*
X1279799D01*
X1278920Y969846D02*
X1279809D01*
X1278920Y969946D02*
X1279820D01*
X1278920Y970046D02*
X1279830D01*
X1278920Y970146D02*
X1279839D01*
X1278920Y970246D02*
X1279829D01*
X1278920Y970346D02*
X1279819D01*
X1278920Y970446D02*
X1279808D01*
X1278907Y970546D02*
X1279798D01*
X1278883Y970646D02*
X1279787D01*
X1278860Y970746D02*
X1279777D01*
X1278837Y970846D02*
X1279767D01*
X1278814Y970946D02*
X1279756D01*
X1278791Y971046D02*
X1279726D01*
X1278768Y971146D02*
X1279694D01*
X1278723Y971246D02*
X1279662D01*
X1278674Y971346D02*
X1279629D01*
X1278625Y971446D02*
X1279597D01*
X1278576Y971546D02*
X1279565D01*
X1278527Y971646D02*
X1279533D01*
X1278478Y971746D02*
X1279497D01*
X1278514Y971846D02*
X1279440D01*
X1278614Y971946D02*
X1279383D01*
X1278714Y972046D02*
X1279326D01*
X1278814Y972146D02*
X1279270D01*
X1278914Y972246D02*
X1279213D01*
X1279014Y972346D02*
X1279156D01*
X1278500Y968451D02*
Y968583D01*
Y971701D02*
Y971833D01*
X1278600Y968351D02*
Y968787D01*
Y971497D02*
Y971933D01*
X1278700Y968251D02*
Y968991D01*
Y971293D02*
Y972033D01*
X1278800Y968151D02*
Y969277D01*
Y971006D02*
Y972133D01*
X1278900Y968051D02*
Y969709D01*
Y970575D02*
Y972233D01*
X1279000Y967951D02*
Y972333D01*
X1279100Y967851D02*
Y972433D01*
X1279200Y968015D02*
Y972269D01*
X1279300Y968191D02*
Y972093D01*
X1279400Y968367D02*
Y971917D01*
X1279500Y968543D02*
Y971741D01*
X1279600Y968845D02*
Y971438D01*
X1279700Y969157D02*
Y971126D01*
X1279800Y969758D02*
Y970525D01*
X1277537Y972708D02*
X1278185Y973356D01*
X1278189Y973353D02*
G03X1273596Y973357I-2299J-3211D01*
G01X1273594Y973356D02*
X1274242Y972708D01*
X1274247Y972711D02*
G02X1277537Y972708I1643J-2569D01*
G01X1273323Y971789D02*
X1272675Y972437D01*
X1272678Y972441D02*
G03Y967842I3212J-2299D01*
G01X1272675Y967846D02*
X1273323Y968494D01*
G02Y971789I2567J1648*
G01X1274242Y967575D02*
X1273594Y966927D01*
X1273596Y966926D02*
G03X1278189Y966930I2294J3216D01*
G01X1278185Y966927D02*
X1277537Y967575D01*
G02X1274247Y967572I-1647J2567*
G01X1278457Y968494D02*
X1279104Y967846D01*
X1279106Y967848D02*
G03Y972436I-3216J2294D01*
G01X1279104Y972437D02*
X1278457Y971789D01*
X1278459Y971785D02*
G02Y968498I-2569J-1643D01*
G74*
G01X0Y0D02*
M02*
