*
*
G04 PADS9.1 Build Number: 384028 generated Gerber (RS-274-X) file*
G04 PC Version=2.1*
*
%IN "{TEX080}F2805xISOcontro"*%
*
%MOIN*%
*
%FSLAX35Y35*%
*
*
*
*
G04 PC Standard Apertures*
*
*
G04 Thermal Relief Aperture macro.*
%AMTER*
1,1,$1,0,0*
1,0,$1-$2,0,0*
21,0,$3,$4,0,0,45*
21,0,$3,$4,0,0,135*
%
*
*
G04 Annular Aperture macro.*
%AMANN*
1,1,$1,0,0*
1,0,$2,0,0*
%
*
*
G04 Odd Aperture macro.*
%AMODD*
1,1,$1,0,0*
1,0,$1-0.005,0,0*
%
*
*
G04 PC Custom Aperture Macros*
*
*
*
*
*
*
G04 PC Aperture Table*
*
%ADD014C,0.06*%
%ADD038C,0.04*%
%ADD042C,0.001*%
%ADD092R,0.025X0.025*%
%ADD093R,0.043X0.039*%
%ADD094R,0.051X0.059*%
%ADD095R,0.039X0.043*%
%ADD099R,0.059X0.051*%
%ADD106C,0.018*%
%ADD123R,0.027X0.039*%
%ADD124R,0.065X0.015*%
%ADD168R,0.03937X0.09055*%
%ADD223C,0*%
%ADD225C,0.048*%
%ADD228C,0.01*%
%ADD229C,0.005*%
%ADD230C,0.012*%
%ADD231C,0.008*%
%ADD233C,0.05*%
%ADD235R,0.04X0.05*%
%ADD236R,0.105X0.1*%
%ADD237C,0.006*%
%ADD244C,0.02*%
%ADD247R,0.045X0.125*%
*
*
*
*
G04 PC Circuitry*
G04 Layer Name {TEX080}F2805xISOcontro - circuitry*
%LPD*%
*
*
G04 PC Custom Flashes*
G04 Layer Name {TEX080}F2805xISOcontro - flashes*
%LPD*%
*
*
G04 PC Circuitry*
G04 Layer Name {TEX080}F2805xISOcontro - circuitry*
%LPD*%
*
G54D14*
G01X1097890Y1018642D03*
X1275890Y970142D03*
Y979142D03*
X1077390Y1018642D03*
X1059890Y980142D03*
G54D38*
X980890Y1018642D03*
X1320390Y988642D03*
Y895642D03*
G54D42*
X1013780Y1000000D03*
X1000000D03*
G54D92*
X996890Y971642D03*
X1000890D03*
X1011390Y955142D03*
X1007390D03*
X1011390Y959642D03*
X1007390D03*
X1005390Y969142D03*
Y973142D03*
X1005890Y932642D03*
Y936642D03*
X1031890Y931142D03*
X1027890D03*
X1035390Y967142D03*
X1039390D03*
X991390Y956642D03*
Y952642D03*
X997390Y935142D03*
Y939142D03*
X1015390Y926642D03*
X1019390D03*
X1033390Y947142D03*
Y943142D03*
X1021390Y959642D03*
X1025390D03*
X1021390Y955142D03*
X1025390D03*
X1070890Y1009142D03*
Y1005142D03*
X1105890Y1006642D03*
Y1002642D03*
X1080390Y964642D03*
X1076390D03*
X1105390Y957642D03*
Y953642D03*
X1003390Y927142D03*
X999390D03*
X1033390Y955142D03*
Y959142D03*
X1045390Y962142D03*
X1049390D03*
X1045390Y957142D03*
X1049390D03*
X1048890Y947642D03*
Y951642D03*
X1044890Y942642D03*
X1048890D03*
X993390Y930142D03*
Y926142D03*
X1105890Y930142D03*
Y934142D03*
Y983142D03*
Y979142D03*
X1075890Y931142D03*
Y935142D03*
X1079390Y988642D03*
Y984642D03*
X1218890Y934142D03*
Y938142D03*
X1002390Y948642D03*
Y952642D03*
X997890D03*
Y956642D03*
Y943642D03*
X1001890D03*
X1079890Y950142D03*
Y954142D03*
X1146390Y995642D03*
X1142390D03*
X1146390Y1011142D03*
X1142390D03*
X1199390D03*
X1203390D03*
X1199390Y995642D03*
X1203390D03*
X1219890D03*
X1215890D03*
X1219890Y1011642D03*
X1215890D03*
X1272890Y1011142D03*
X1276890D03*
X1155390Y995642D03*
X1151390D03*
X1155390Y1011142D03*
X1151390D03*
X1190390D03*
X1194390D03*
X1190390Y995642D03*
X1194390D03*
X1228390D03*
X1224390D03*
X1228390Y1011642D03*
X1224390D03*
X1263890Y1011142D03*
X1267890D03*
G54D93*
X1302040Y923642D03*
X1308740D03*
X1150040Y932142D03*
X1156740D03*
X1156240Y963642D03*
X1149540D03*
X1150040Y985642D03*
X1156740D03*
X1215240Y961642D03*
X1208540D03*
X1224540Y950642D03*
X1231240D03*
X1300040Y941142D03*
X1306740D03*
X1300040Y957142D03*
X1306740D03*
X1300040Y949142D03*
X1306740D03*
X1042040Y1008642D03*
X1048740D03*
Y1000142D03*
X1042040D03*
X1213040Y983642D03*
X1219740D03*
X1181740Y982642D03*
X1175040D03*
X1250740Y963642D03*
X1244040D03*
X1196240Y943142D03*
X1189540D03*
X1227040Y921642D03*
X1233740D03*
X1228240Y927642D03*
X1221540D03*
X1154740Y955642D03*
X1148040D03*
X1201240Y961642D03*
X1194540D03*
X1208540Y955142D03*
X1215240D03*
X1201240D03*
X1194540D03*
G54D94*
X1251140D03*
X1243640D03*
X1197140Y934642D03*
X1189640D03*
X1198140Y983642D03*
X1190640D03*
X1041640Y1016642D03*
X1049140D03*
G54D95*
X1236390Y958792D03*
Y965492D03*
X1162890Y942292D03*
Y948992D03*
X1282890Y923992D03*
Y917292D03*
X1276390Y933292D03*
Y939992D03*
X1282890Y933292D03*
Y939992D03*
X1275890Y923992D03*
Y917292D03*
X1142390Y945992D03*
Y939292D03*
X1308390Y972792D03*
Y979492D03*
X1207890Y934292D03*
Y940992D03*
X1289390Y979992D03*
Y973292D03*
X1213890Y934292D03*
Y940992D03*
X1064390Y1010992D03*
Y1004292D03*
X1162390Y977492D03*
Y970792D03*
X1142890D03*
Y977492D03*
G54D99*
X1021390Y941892D03*
Y949392D03*
X1011390Y941892D03*
Y949392D03*
G54D106*
X1105890Y1012642D03*
X1102390Y1007642D03*
Y1002642D03*
Y983642D03*
Y978642D03*
Y935642D03*
Y930642D03*
Y959642D03*
X1071890Y886642D03*
X1061890D03*
X1098890Y896142D03*
X1096390Y895142D03*
X1102890Y897142D03*
X1092390Y892642D03*
X1094390Y894142D03*
X1091890Y886642D03*
X1081890D03*
X1150390Y897642D03*
X1152890Y890642D03*
X1175890Y889142D03*
X1177890Y886642D03*
X1186890Y894642D03*
X1191890Y887642D03*
X1179890Y889142D03*
X1171890Y888642D03*
X1166890Y890142D03*
X1161890D03*
X1177890Y891142D03*
X1227890Y886642D03*
X1225390D03*
X1201890D03*
X1233890D03*
X1224890Y894642D03*
X1216390Y886642D03*
X1196890Y887642D03*
X1272390Y887142D03*
X1252890D03*
Y895142D03*
X1257890Y894642D03*
X1266390Y895142D03*
X1270390Y890642D03*
X1264390Y898642D03*
X1244390Y887142D03*
X1250890Y891142D03*
X1241890Y892142D03*
X1248890Y886642D03*
X1266390Y888642D03*
X1238890Y886642D03*
X1244390Y893642D03*
X1246890Y888642D03*
X1263890Y894142D03*
X1255890Y889142D03*
X1276890Y888142D03*
X1276390Y892642D03*
X1286890Y897642D03*
X1278890D03*
X1291390Y889642D03*
X1289390Y892642D03*
X1284390Y891642D03*
X994390Y935142D03*
X990390Y926142D03*
Y930142D03*
X1024890Y932642D03*
X1005390Y930142D03*
X1002390Y930642D03*
X1011890Y931642D03*
X1001390Y921142D03*
X1009390Y933642D03*
X1019390Y932142D03*
X1029890Y937642D03*
X1034390Y931142D03*
X1015390Y932642D03*
X1027390Y936642D03*
X1074390Y912642D03*
X1039390Y935142D03*
X1071890Y932142D03*
Y935642D03*
Y928142D03*
X1065390Y933142D03*
X1111390Y904142D03*
X1102390Y922142D03*
X1113890Y906142D03*
X1111890Y919642D03*
X1114390D03*
X1107390D03*
X1101390Y899642D03*
X1105390Y921142D03*
X1108890Y922142D03*
X1111890Y900642D03*
X1095390Y920642D03*
X1102390Y925642D03*
X1142890Y906142D03*
X1140390Y926142D03*
X1140890Y909142D03*
X1116390Y908642D03*
X1144390Y911142D03*
X1117890Y927642D03*
X1141390Y900642D03*
X1145890Y932142D03*
X1144890Y904142D03*
X1116890Y919642D03*
X1120890Y904142D03*
X1133390Y917642D03*
X1154890Y923642D03*
X1161390Y920642D03*
X1155890Y906642D03*
X1159390Y911142D03*
X1178390Y908142D03*
X1168390Y934642D03*
X1167890Y913142D03*
X1175890Y926142D03*
X1159390Y916142D03*
X1181390Y936642D03*
X1192390Y914142D03*
X1188390D03*
X1186390Y916142D03*
X1184390Y914142D03*
X1182890Y916142D03*
X1194390D03*
X1185390Y934642D03*
X1206390Y930142D03*
X1202390Y931142D03*
X1213390Y904142D03*
X1217890Y903142D03*
X1203890Y935642D03*
X1233890Y900142D03*
X1208390Y903642D03*
X1222890Y921642D03*
X1232890Y936642D03*
Y908642D03*
X1207890Y899642D03*
X1216390Y930142D03*
X1206390Y908142D03*
X1198390Y916142D03*
X1200390Y914142D03*
X1217890Y927642D03*
X1213890D03*
X1221890Y936642D03*
X1197390Y905142D03*
X1196390Y914142D03*
X1231890Y904142D03*
X1257390Y900642D03*
X1263390Y918142D03*
X1262390Y900642D03*
X1239890Y908142D03*
X1248890Y907642D03*
X1246390Y909642D03*
X1242390Y906142D03*
X1248390Y911142D03*
X1236890Y907642D03*
X1262390Y931642D03*
X1244390Y908142D03*
X1252390D03*
X1264390Y929642D03*
Y924642D03*
X1262390Y905142D03*
X1248390Y914142D03*
X1249390Y916642D03*
X1262390Y908142D03*
X1234890Y906142D03*
X1236890Y899642D03*
X1286390Y924142D03*
X1311390Y913642D03*
X1277890Y929142D03*
X1278390Y907642D03*
X1304890Y919142D03*
X1277890Y913642D03*
X1296890Y916642D03*
X1286390Y915642D03*
X1282890Y928642D03*
X1297890D03*
Y932142D03*
X1308890Y928642D03*
X994390Y957142D03*
Y947142D03*
Y941142D03*
X1005390Y977142D03*
X1027890Y959642D03*
X1005890Y939642D03*
X1018890Y966142D03*
X1015390Y963642D03*
X1030390Y955142D03*
X1005390Y966142D03*
X1016890Y942142D03*
X999390Y962642D03*
X1004890Y959642D03*
Y954642D03*
X994969Y965642D03*
X995390Y952642D03*
X999390Y948642D03*
X1016890Y955642D03*
X999890Y966142D03*
X1011390Y962642D03*
X1029390Y947142D03*
Y943142D03*
X1006390Y943642D03*
X1018890Y959642D03*
X1009390Y966142D03*
X1027390Y965642D03*
X1031390Y967142D03*
X1030390Y959142D03*
X1014890Y953642D03*
X1000890Y975142D03*
X1019390Y974642D03*
X1007390Y964642D03*
X1000390Y939142D03*
X1027890Y955142D03*
X1053390Y952142D03*
X1039390Y964642D03*
X1072390Y959642D03*
X1059390Y957142D03*
X1053390Y947142D03*
X1071390Y978642D03*
X1040060Y958971D03*
X1071890Y964642D03*
X1059390Y962142D03*
X1052390Y957142D03*
X1072390Y954642D03*
X1052390Y962142D03*
X1059390Y952142D03*
X1045390Y965142D03*
X1065390Y942642D03*
X1039890Y962142D03*
X1059390Y947142D03*
X1071890Y940642D03*
X1041890Y942642D03*
X1102890Y949642D03*
X1075390Y970142D03*
X1102390Y973642D03*
Y964642D03*
X1077890Y946642D03*
Y943642D03*
X1080390Y968642D03*
X1102390Y940642D03*
X1149390Y973642D03*
X1140890Y964642D03*
X1138890Y958642D03*
X1117890Y956642D03*
Y952642D03*
X1119890Y954642D03*
X1121390Y958642D03*
X1119390Y960642D03*
X1121390Y962642D03*
X1119390Y964642D03*
X1121390Y966642D03*
Y974642D03*
X1119390Y976642D03*
X1121390Y978642D03*
X1116890Y960142D03*
X1116390Y978142D03*
X1138890Y954642D03*
X1142390Y950142D03*
X1136890Y952642D03*
X1144390Y962642D03*
X1152390Y975642D03*
X1138390Y978642D03*
X1138890Y974642D03*
X1152890Y942142D03*
Y973142D03*
X1139390Y971142D03*
X1152890Y952142D03*
X1181890Y944642D03*
X1186890Y961142D03*
X1194390Y951142D03*
X1183890Y956642D03*
X1189890Y951142D03*
X1168890Y961142D03*
X1184390Y952142D03*
X1167390Y969642D03*
X1188594Y967642D03*
X1164390Y964642D03*
X1166890Y958642D03*
X1182890Y948642D03*
X1158390Y955642D03*
X1159390Y948642D03*
X1160390Y962642D03*
X1175390Y969642D03*
X1181390Y960642D03*
X1182890Y967642D03*
X1168890Y964642D03*
X1183390Y963142D03*
X1159390Y942142D03*
X1219390Y955142D03*
X1216390Y949642D03*
X1204890Y955142D03*
X1205390Y951142D03*
X1199890Y943142D03*
X1204390Y941142D03*
X1201390Y966642D03*
X1195890Y966142D03*
X1220390Y950642D03*
X1200890Y948142D03*
X1211890Y945142D03*
X1208890Y947142D03*
X1197390Y951142D03*
X1219390Y961642D03*
X1205390Y965142D03*
X1197390Y939142D03*
X1218890Y940642D03*
X1218390Y965642D03*
X1215890Y967642D03*
X1220890Y967142D03*
X1208890D03*
X1211890Y967642D03*
X1254890Y963642D03*
X1236390Y969642D03*
X1246390Y948642D03*
X1268890Y942142D03*
X1260390Y944142D03*
X1267390Y966642D03*
X1269890Y961142D03*
X1264390Y971142D03*
X1262390Y962142D03*
X1243390Y950642D03*
X1235890Y948642D03*
X1256390Y955142D03*
X1237890Y951142D03*
X1295390Y973142D03*
X1286390Y956142D03*
X1282890Y967142D03*
X1294390Y941142D03*
X1310890D03*
X1299890Y963642D03*
X1310890Y949142D03*
X1282890Y943642D03*
X1293390Y946142D03*
X1277890Y943642D03*
X1310890Y957142D03*
X1316390Y969642D03*
X1028390Y999142D03*
X1030890Y1002642D03*
X1003890Y982642D03*
X1015890Y991142D03*
X1014390Y982142D03*
X1003890Y985142D03*
X1023390Y982142D03*
X1069890Y1001642D03*
Y1012642D03*
X1067890Y998642D03*
X1035890Y1015642D03*
X1050390Y990142D03*
X1071390Y983642D03*
X1035890Y1012142D03*
X1060890Y1016642D03*
X1035890Y1008642D03*
X1053390Y983142D03*
X1071390Y997642D03*
X1060890Y1011142D03*
X1047390Y1004642D03*
X1041890Y996142D03*
X1048890D03*
X1070890Y987642D03*
X1057390Y994142D03*
X1075390Y991642D03*
X1102390Y988642D03*
Y997642D03*
X1128390Y1017142D03*
X1128890Y1013142D03*
X1119390Y980642D03*
X1121390Y982642D03*
X1119390Y984642D03*
X1121390Y986642D03*
X1125890Y1014642D03*
X1151390Y1006142D03*
X1116390Y984642D03*
X1138390Y995642D03*
Y1011142D03*
X1144890Y984642D03*
X1146390Y979642D03*
X1116390Y1001142D03*
Y1007642D03*
X1146390Y1002642D03*
X1134890Y1005142D03*
X1123890Y1016142D03*
X1127890Y1003142D03*
X1137890Y987642D03*
X1121890Y1018642D03*
X1167390Y983642D03*
X1174890Y990642D03*
X1168890Y979642D03*
X1173890Y979142D03*
X1160890Y985642D03*
X1170390Y996142D03*
X1188890Y1005642D03*
X1194390Y1004642D03*
X1167390Y1003142D03*
X1178390D03*
X1155890Y1005642D03*
X1162390Y981642D03*
X1170890Y991642D03*
X1215890Y1002142D03*
Y1005142D03*
X1208390Y980142D03*
X1228890Y983142D03*
X1223890Y983642D03*
X1205890Y990142D03*
X1209890Y1002142D03*
Y1005142D03*
X1206390Y1011142D03*
X1228890Y1001142D03*
X1202890Y985642D03*
X1206390Y995642D03*
X1212890Y979642D03*
X1216890Y990142D03*
X1251890Y1001142D03*
Y998642D03*
Y1003642D03*
X1240890D03*
X1241890Y989142D03*
X1253890Y1018142D03*
X1234890Y991142D03*
X1259890Y1016642D03*
X1266890Y990642D03*
X1239890Y979642D03*
X1277390Y1016142D03*
X1284890Y1005142D03*
X1279890Y1011142D03*
X1282890Y983642D03*
X1293890Y980142D03*
X1310890Y986642D03*
X1291890Y990142D03*
X1119890Y1020642D03*
G54D123*
X1156630Y938542D03*
X1152890D03*
X1149150D03*
Y948742D03*
X1152890D03*
X1156630D03*
X1149150Y979742D03*
X1152890D03*
X1156630D03*
Y969542D03*
X1152890D03*
X1149150D03*
G54D124*
X1161890Y995462D03*
Y998022D03*
Y1000582D03*
Y1003142D03*
Y1005702D03*
Y1008262D03*
Y1010822D03*
X1183890D03*
Y1008262D03*
Y1005702D03*
Y1003142D03*
Y1000582D03*
Y998022D03*
Y995462D03*
X1234890Y995962D03*
Y998522D03*
Y1001082D03*
Y1003642D03*
Y1006202D03*
Y1008762D03*
Y1011322D03*
X1256890D03*
Y1008762D03*
Y1006202D03*
Y1003642D03*
Y1001082D03*
Y998522D03*
Y995962D03*
G54D168*
X1006890Y880457D03*
X1011890D03*
X1016890D03*
X1021890D03*
X1026890D03*
X1031890D03*
X1056890D03*
X1061890D03*
X1066890D03*
X1071890D03*
X1076890D03*
X1081890D03*
X1086890D03*
X1091890D03*
X1096890D03*
X1101890D03*
X1106890D03*
X1111890D03*
X1116890D03*
X1121890D03*
X1126890D03*
X1131890D03*
X1156890D03*
X1161890D03*
X1166890D03*
X1171890D03*
X1176890D03*
X1181890D03*
X1186890D03*
X1191890D03*
X1196890D03*
X1201890D03*
X1206890D03*
X1211890D03*
X1216890D03*
X1221890D03*
X1226890D03*
X1231890D03*
X1236890D03*
X1241890D03*
X1246890D03*
X1251890D03*
X1256890D03*
X1261890D03*
X1266890D03*
X1271890D03*
X1276890D03*
X1281890D03*
X1286890D03*
X1291890D03*
G54D223*
G54D225*
X1059890Y987642D03*
G54D228*
X1265469Y539326D02*
Y529482D01*
X1269560*
X1275356Y539326D02*
X1272628Y529482D01*
X1275356Y539326D02*
X1278083Y529482D01*
X1273651Y532764D02*
X1277060D01*
X1281151Y539326D02*
X1283878Y534639D01*
Y529482*
X1286606Y539326D02*
X1283878Y534639D01*
X1289674Y539326D02*
Y529482D01*
Y539326D02*
X1294106D01*
X1289674Y534639D02*
X1292401D01*
X1289674Y529482D02*
X1294106D01*
X1297174Y539326D02*
Y529482D01*
Y539326D02*
X1300242D01*
X1301265Y538857*
X1301606Y538389*
X1301947Y537451*
Y536514*
X1301606Y535576*
X1301265Y535107*
X1300242Y534639*
X1297174*
X1299560D02*
X1301947Y529482D01*
X799490Y567685D02*
Y557842D01*
Y567685D02*
X802558D01*
X803581Y567217*
X803922Y566748*
X804262Y565810*
Y564404*
X803922Y563467*
X803581Y562998*
X802558Y562529*
X799490*
X807331Y567685D02*
Y557842D01*
X812103Y567685D02*
Y557842D01*
X807331Y562998D02*
X812103D01*
X817217Y567685D02*
X816535Y567217D01*
X815853Y566279*
X815512Y565342*
X815172Y563935*
Y561592*
X815512Y560185*
X815853Y559248*
X816535Y558310*
X817217Y557842*
X818581*
X819262Y558310*
X819944Y559248*
X820285Y560185*
X820626Y561592*
Y563935*
X820285Y565342*
X819944Y566279*
X819262Y567217*
X818581Y567685*
X817217*
X823694D02*
Y557842D01*
Y567685D02*
X828467Y557842D01*
Y567685D02*
Y557842D01*
X831535Y567685D02*
Y557842D01*
Y567685D02*
X835967D01*
X831535Y562998D02*
X834262D01*
X831535Y557842D02*
X835967D01*
X839376Y564404D02*
X839035Y563935D01*
X839376Y563467*
X839717Y563935*
X839376Y564404*
Y558779D02*
X839035Y558310D01*
X839376Y557842*
X839717Y558310*
X839376Y558779*
X855058Y567685D02*
X851649D01*
X851308Y563467*
X851649Y563935*
X852672Y564404*
X853694*
X854717Y563935*
X855399Y562998*
X855740Y561592*
X855399Y560654*
X855058Y559248*
X854376Y558310*
X853353Y557842*
X852331*
X851308Y558310*
X850967Y558779*
X850626Y559717*
X860853Y567685D02*
X859831Y567217D01*
X859149Y565810*
X858808Y563467*
Y562060*
X859149Y559717*
X859831Y558310*
X860853Y557842*
X861535*
X862558Y558310*
X863240Y559717*
X863581Y562060*
Y563467*
X863240Y565810*
X862558Y567217*
X861535Y567685*
X860853*
X868353D02*
X867331Y567217D01*
X866990Y566279*
Y565342*
X867331Y564404*
X868012Y563935*
X869376Y563467*
X870399Y562998*
X871081Y562060*
X871422Y561123*
Y559717*
X871081Y558779*
X870740Y558310*
X869717Y557842*
X868353*
X867331Y558310*
X866990Y558779*
X866649Y559717*
Y561123*
X866990Y562060*
X867672Y562998*
X868694Y563467*
X870058Y563935*
X870740Y564404*
X871081Y565342*
Y566279*
X870740Y567217*
X869717Y567685*
X868353*
X874831Y558779D02*
X874490Y558310D01*
X874831Y557842*
X875172Y558310*
X874831Y558779*
X882672Y564404D02*
X882331Y562998D01*
X881649Y562060*
X880626Y561592*
X880285*
X879262Y562060*
X878581Y562998*
X878240Y564404*
Y564873*
X878581Y566279*
X879262Y567217*
X880285Y567685*
X880626*
X881649Y567217*
X882331Y566279*
X882672Y564404*
Y562060*
X882331Y559717*
X881649Y558310*
X880626Y557842*
X879944*
X878922Y558310*
X878581Y559248*
X889149Y567685D02*
X885740Y561123D01*
X890853*
X889149Y567685D02*
Y557842D01*
X898694Y567685D02*
X895285Y557842D01*
X893922Y567685D02*
X898694D01*
X902103Y558779D02*
X901762Y558310D01*
X902103Y557842*
X902444Y558310*
X902103Y558779*
X905853Y565342D02*
Y565810D01*
X906194Y566748*
X906535Y567217*
X907217Y567685*
X908581*
X909262Y567217*
X909603Y566748*
X909944Y565810*
Y564873*
X909603Y563935*
X908922Y562529*
X905512Y557842*
X910285*
X918126Y567685D02*
X914717Y557842D01*
X913353Y567685D02*
X918126D01*
X923240D02*
X922217Y567217D01*
X921535Y565810*
X921194Y563467*
Y562060*
X921535Y559717*
X922217Y558310*
X923240Y557842*
X923922*
X924944Y558310*
X925626Y559717*
X925967Y562060*
Y563467*
X925626Y565810*
X924944Y567217*
X923922Y567685*
X923240*
X933467Y564404D02*
X933126Y562998D01*
X932444Y562060*
X931422Y561592*
X931081*
X930058Y562060*
X929376Y562998*
X929035Y564404*
Y564873*
X929376Y566279*
X930058Y567217*
X931081Y567685*
X931422*
X932444Y567217*
X933126Y566279*
X933467Y564404*
Y562060*
X933126Y559717*
X932444Y558310*
X931422Y557842*
X930740*
X929717Y558310*
X929376Y559248*
X941490Y594985D02*
Y585142D01*
Y594985D02*
X944217Y585142D01*
X946944Y594985D02*
X944217Y585142D01*
X946944Y594985D02*
Y585142D01*
X950012Y594985D02*
X950353Y594517D01*
X950694Y594985*
X950353Y595454*
X950012Y594985*
X950353Y591704D02*
Y585142D01*
X957853Y594985D02*
Y585142D01*
Y590298D02*
X957172Y591235D01*
X956490Y591704*
X955467*
X954785Y591235*
X954103Y590298*
X953762Y588892*
Y587954*
X954103Y586548*
X954785Y585610*
X955467Y585142*
X956490*
X957172Y585610*
X957853Y586548*
X965012Y594985D02*
Y585142D01*
Y590298D02*
X964331Y591235D01*
X963649Y591704*
X962626*
X961944Y591235*
X961262Y590298*
X960922Y588892*
Y587954*
X961262Y586548*
X961944Y585610*
X962626Y585142*
X963649*
X964331Y585610*
X965012Y586548*
X968081Y594985D02*
Y585142D01*
X971149Y588892D02*
X975240D01*
Y589829*
X974899Y590767*
X974558Y591235*
X973876Y591704*
X972853*
X972172Y591235*
X971490Y590298*
X971149Y588892*
Y587954*
X971490Y586548*
X972172Y585610*
X972853Y585142*
X973876*
X974558Y585610*
X975240Y586548*
X978308Y594985D02*
Y585142D01*
Y590298D02*
X978990Y591235D01*
X979672Y591704*
X980694*
X981376Y591235*
X982058Y590298*
X982399Y588892*
Y587954*
X982058Y586548*
X981376Y585610*
X980694Y585142*
X979672*
X978990Y585610*
X978308Y586548*
X987172Y591704D02*
X986490Y591235D01*
X985808Y590298*
X985467Y588892*
Y587954*
X985808Y586548*
X986490Y585610*
X987172Y585142*
X988194*
X988876Y585610*
X989558Y586548*
X989899Y587954*
Y588892*
X989558Y590298*
X988876Y591235*
X988194Y591704*
X987172*
X992967D02*
Y585142D01*
Y588892D02*
X993308Y590298D01*
X993990Y591235*
X994672Y591704*
X995694*
X1000467D02*
X999785Y591235D01*
X999103Y590298*
X998762Y588892*
Y587954*
X999103Y586548*
X999785Y585610*
X1000467Y585142*
X1001490*
X1002172Y585610*
X1002853Y586548*
X1003194Y587954*
Y588892*
X1002853Y590298*
X1002172Y591235*
X1001490Y591704*
X1000467*
X1006944Y585610D02*
X1006603Y585142D01*
X1006262Y585610*
X1006603Y586079*
X1006944Y585610*
Y584673*
X1006603Y583735*
X1006262Y583267*
X1017853Y594985D02*
Y585142D01*
Y594985D02*
X1020581Y585142D01*
X1023308Y594985D02*
X1020581Y585142D01*
X1023308Y594985D02*
Y585142D01*
X1029103Y594985D02*
X1026376Y585142D01*
X1029103Y594985D02*
X1031831Y585142D01*
X1027399Y588423D02*
X1030808D01*
X1044785Y594985D02*
X1043762Y594517D01*
X1043081Y593110*
X1042740Y590767*
Y589360*
X1043081Y587017*
X1043762Y585610*
X1044785Y585142*
X1045467*
X1046490Y585610*
X1047172Y587017*
X1047512Y589360*
Y590767*
X1047172Y593110*
X1046490Y594517*
X1045467Y594985*
X1044785*
X1050922Y592642D02*
Y593110D01*
X1051262Y594048*
X1051603Y594517*
X1052285Y594985*
X1053649*
X1054331Y594517*
X1054672Y594048*
X1055012Y593110*
Y592173*
X1054672Y591235*
X1053990Y589829*
X1050581Y585142*
X1055353*
X1059103Y594985D02*
X1062853D01*
X1060808Y591235*
X1061831*
X1062512Y590767*
X1062853Y590298*
X1063194Y588892*
Y587954*
X1062853Y586548*
X1062172Y585610*
X1061149Y585142*
X1060126*
X1059103Y585610*
X1058762Y586079*
X1058422Y587017*
X1069672Y594985D02*
X1066262Y588423D01*
X1071376*
X1069672Y594985D02*
Y585142D01*
X1078535Y593579D02*
X1078194Y594517D01*
X1077172Y594985*
X1076490*
X1075467Y594517*
X1074785Y593110*
X1074444Y590767*
Y588423*
X1074785Y586548*
X1075467Y585610*
X1076490Y585142*
X1076831*
X1077853Y585610*
X1078535Y586548*
X1078876Y587954*
Y588423*
X1078535Y589829*
X1077853Y590767*
X1076831Y591235*
X1076490*
X1075467Y590767*
X1074785Y589829*
X1074444Y588423*
X947290Y610410D02*
X947972Y610879D01*
X948994Y612285*
Y602442*
X952062Y610410D02*
X952744Y610879D01*
X953767Y612285*
Y602442*
X958540Y612285D02*
X957517Y611817D01*
X957176Y610879*
Y609942*
X957517Y609004*
X958199Y608535*
X959562Y608067*
X960585Y607598*
X961267Y606660*
X961608Y605723*
Y604317*
X961267Y603379*
X960926Y602910*
X959903Y602442*
X958540*
X957517Y602910*
X957176Y603379*
X956835Y604317*
Y605723*
X957176Y606660*
X957858Y607598*
X958881Y608067*
X960244Y608535*
X960926Y609004*
X961267Y609942*
Y610879*
X960926Y611817*
X959903Y612285*
X958540*
X969108D02*
X965699D01*
X965358Y608067*
X965699Y608535*
X966722Y609004*
X967744*
X968767Y608535*
X969449Y607598*
X969790Y606192*
X969449Y605254*
X969108Y603848*
X968426Y602910*
X967403Y602442*
X966381*
X965358Y602910*
X965017Y603379*
X964676Y604317*
X985812Y609942D02*
X985472Y610879D01*
X984790Y611817*
X984108Y612285*
X982744*
X982062Y611817*
X981381Y610879*
X981040Y609942*
X980699Y608535*
Y606192*
X981040Y604785*
X981381Y603848*
X982062Y602910*
X982744Y602442*
X984108*
X984790Y602910*
X985472Y603848*
X985812Y604785*
X988881Y606192D02*
X992972D01*
Y607129*
X992631Y608067*
X992290Y608535*
X991608Y609004*
X990585*
X989903Y608535*
X989222Y607598*
X988881Y606192*
Y605254*
X989222Y603848*
X989903Y602910*
X990585Y602442*
X991608*
X992290Y602910*
X992972Y603848*
X996040Y609004D02*
Y602442D01*
Y607129D02*
X997062Y608535D01*
X997744Y609004*
X998767*
X999449Y608535*
X999790Y607129*
Y602442*
X1003881Y612285D02*
Y604317D01*
X1004222Y602910*
X1004903Y602442*
X1005585*
X1002858Y609004D02*
X1005244D01*
X1008653D02*
Y602442D01*
Y606192D02*
X1008994Y607598D01*
X1009676Y608535*
X1010358Y609004*
X1011381*
X1014449Y606192D02*
X1018540D01*
Y607129*
X1018199Y608067*
X1017858Y608535*
X1017176Y609004*
X1016153*
X1015472Y608535*
X1014790Y607598*
X1014449Y606192*
Y605254*
X1014790Y603848*
X1015472Y602910*
X1016153Y602442*
X1017176*
X1017858Y602910*
X1018540Y603848*
X1034222Y610879D02*
X1033540Y611817D01*
X1032517Y612285*
X1031153*
X1030131Y611817*
X1029449Y610879*
Y609942*
X1029790Y609004*
X1030131Y608535*
X1030812Y608067*
X1032858Y607129*
X1033540Y606660*
X1033881Y606192*
X1034222Y605254*
Y603848*
X1033540Y602910*
X1032517Y602442*
X1031153*
X1030131Y602910*
X1029449Y603848*
X1038312Y612285D02*
Y604317D01*
X1038653Y602910*
X1039335Y602442*
X1040017*
X1037290Y609004D02*
X1039676D01*
X1043085D02*
Y602442D01*
Y606192D02*
X1043426Y607598D01*
X1044108Y608535*
X1044790Y609004*
X1045812*
X1048881Y606192D02*
X1052972D01*
Y607129*
X1052631Y608067*
X1052290Y608535*
X1051608Y609004*
X1050585*
X1049903Y608535*
X1049222Y607598*
X1048881Y606192*
Y605254*
X1049222Y603848*
X1049903Y602910*
X1050585Y602442*
X1051608*
X1052290Y602910*
X1052972Y603848*
X1056040Y606192D02*
X1060131D01*
Y607129*
X1059790Y608067*
X1059449Y608535*
X1058767Y609004*
X1057744*
X1057062Y608535*
X1056381Y607598*
X1056040Y606192*
Y605254*
X1056381Y603848*
X1057062Y602910*
X1057744Y602442*
X1058767*
X1059449Y602910*
X1060131Y603848*
X1064222Y612285D02*
Y604317D01*
X1064562Y602910*
X1065244Y602442*
X1065926*
X1063199Y609004D02*
X1065585D01*
X1134481Y541654D02*
X1133117Y541029D01*
X1132208Y539154*
X1131753Y536029*
Y534154*
X1132208Y531029*
X1133117Y529154*
X1134481Y528529*
X1135390*
X1136753Y529154*
X1137662Y531029*
X1138117Y534154*
Y536029*
X1137662Y539154*
X1136753Y541029*
X1135390Y541654*
X1134481*
X1148117D02*
X1143572D01*
X1143117Y536029*
X1143572Y536654*
X1144935Y537279*
X1146299*
X1147662Y536654*
X1148572Y535404*
X1149026Y533529*
X1148572Y532279*
X1148117Y530404*
X1147208Y529154*
X1145844Y528529*
X1144481*
X1143117Y529154*
X1142662Y529779*
X1142208Y531029*
X1161299Y544154D02*
X1153117Y524154D01*
X1165390Y539154D02*
X1166299Y539779D01*
X1167662Y541654*
Y528529*
X1174026Y541654D02*
X1172662Y541029D01*
X1172208Y539779*
Y538529*
X1172662Y537279*
X1173572Y536654*
X1175390Y536029*
X1176753Y535404*
X1177662Y534154*
X1178117Y532904*
Y531029*
X1177662Y529779*
X1177208Y529154*
X1175844Y528529*
X1174026*
X1172662Y529154*
X1172208Y529779*
X1171753Y531029*
Y532904*
X1172208Y534154*
X1173117Y535404*
X1174481Y536029*
X1176299Y536654*
X1177208Y537279*
X1177662Y538529*
Y539779*
X1177208Y541029*
X1175844Y541654*
X1174026*
X1190390Y544154D02*
X1182208Y524154D01*
X1194481Y539154D02*
X1195390Y539779D01*
X1196753Y541654*
Y528529*
X1201299Y538529D02*
Y539154D01*
X1201753Y540404*
X1202208Y541029*
X1203117Y541654*
X1204935*
X1205844Y541029*
X1206299Y540404*
X1206753Y539154*
Y537904*
X1206299Y536654*
X1205390Y534779*
X1200844Y528529*
X1207208*
X810799Y541485D02*
Y533985D01*
X810458Y532579*
X810117Y532110*
X809435Y531642*
X808753*
X808072Y532110*
X807731Y532579*
X807390Y533985*
Y534923*
X815572Y538204D02*
X814890Y537735D01*
X814208Y536798*
X813867Y535392*
Y534454*
X814208Y533048*
X814890Y532110*
X815572Y531642*
X816594*
X817276Y532110*
X817958Y533048*
X818299Y534454*
Y535392*
X817958Y536798*
X817276Y537735*
X816594Y538204*
X815572*
X821367Y541485D02*
Y531642D01*
Y536798D02*
X822049Y537735D01*
X822731Y538204*
X823753*
X824435Y537735*
X825117Y536798*
X825458Y535392*
Y534454*
X825117Y533048*
X824435Y532110*
X823753Y531642*
X822731*
X822049Y532110*
X821367Y533048*
X836367Y541485D02*
Y531642D01*
Y541485D02*
X841140Y531642D01*
Y541485D02*
Y531642D01*
X845912Y538204D02*
X845231Y537735D01*
X844549Y536798*
X844208Y535392*
Y534454*
X844549Y533048*
X845231Y532110*
X845912Y531642*
X846935*
X847617Y532110*
X848299Y533048*
X848640Y534454*
Y535392*
X848299Y536798*
X847617Y537735*
X846935Y538204*
X845912*
X852049D02*
X851708Y537735D01*
X852049Y537267*
X852390Y537735*
X852049Y538204*
Y532579D02*
X851708Y532110D01*
X852049Y531642*
X852390Y532110*
X852049Y532579*
X1012890Y538685D02*
Y528842D01*
Y538685D02*
X1015276D01*
X1016299Y538217*
X1016981Y537279*
X1017322Y536342*
X1017662Y534935*
Y532592*
X1017322Y531185*
X1016981Y530248*
X1016299Y529310*
X1015276Y528842*
X1012890*
X1024822Y535404D02*
Y528842D01*
Y533998D02*
X1024140Y534935D01*
X1023458Y535404*
X1022435*
X1021753Y534935*
X1021072Y533998*
X1020731Y532592*
Y531654*
X1021072Y530248*
X1021753Y529310*
X1022435Y528842*
X1023458*
X1024140Y529310*
X1024822Y530248*
X1028912Y538685D02*
Y530717D01*
X1029253Y529310*
X1029935Y528842*
X1030617*
X1027890Y535404D02*
X1030276D01*
X1033685Y532592D02*
X1037776D01*
Y533529*
X1037435Y534467*
X1037094Y534935*
X1036412Y535404*
X1035390*
X1034708Y534935*
X1034026Y533998*
X1033685Y532592*
Y531654*
X1034026Y530248*
X1034708Y529310*
X1035390Y528842*
X1036412*
X1037094Y529310*
X1037776Y530248*
X1041185Y535404D02*
X1040844Y534935D01*
X1041185Y534467*
X1041526Y534935*
X1041185Y535404*
Y529779D02*
X1040844Y529310D01*
X1041185Y528842*
X1041526Y529310*
X1041185Y529779*
X799517Y655385D02*
X796790Y645542D01*
X799517Y655385D02*
X802244Y645542D01*
X797812Y648823D02*
X801222D01*
X805312Y652104D02*
Y645542D01*
Y649292D02*
X805653Y650698D01*
X806335Y651635*
X807017Y652104*
X808040*
X812131Y655385D02*
Y647417D01*
X812472Y646010*
X813153Y645542*
X813835*
X811108Y652104D02*
X813494D01*
X816903D02*
X818267Y645542D01*
X819631Y652104D02*
X818267Y645542D01*
X819631Y652104D02*
X820994Y645542D01*
X822358Y652104D02*
X820994Y645542D01*
X827131Y652104D02*
X826449Y651635D01*
X825767Y650698*
X825426Y649292*
Y648354*
X825767Y646948*
X826449Y646010*
X827131Y645542*
X828153*
X828835Y646010*
X829517Y646948*
X829858Y648354*
Y649292*
X829517Y650698*
X828835Y651635*
X828153Y652104*
X827131*
X832926D02*
Y645542D01*
Y649292D02*
X833267Y650698D01*
X833949Y651635*
X834631Y652104*
X835653*
X838722Y655385D02*
Y645542D01*
X842131Y652104D02*
X838722Y647417D01*
X840085Y649292D02*
X842472Y645542D01*
X853381Y655385D02*
Y645542D01*
Y655385D02*
X855767D01*
X856790Y654917*
X857472Y653979*
X857812Y653042*
X858153Y651635*
Y649292*
X857812Y647885*
X857472Y646948*
X856790Y646010*
X855767Y645542*
X853381*
X861222Y649292D02*
X865312D01*
Y650229*
X864972Y651167*
X864631Y651635*
X863949Y652104*
X862926*
X862244Y651635*
X861562Y650698*
X861222Y649292*
Y648354*
X861562Y646948*
X862244Y646010*
X862926Y645542*
X863949*
X864631Y646010*
X865312Y646948*
X872131Y650698D02*
X871790Y651635D01*
X870767Y652104*
X869744*
X868722Y651635*
X868381Y650698*
X868722Y649760*
X869403Y649292*
X871108Y648823*
X871790Y648354*
X872131Y647417*
Y646948*
X871790Y646010*
X870767Y645542*
X869744*
X868722Y646010*
X868381Y646948*
X875199Y655385D02*
X875540Y654917D01*
X875881Y655385*
X875540Y655854*
X875199Y655385*
X875540Y652104D02*
Y645542D01*
X883040Y652104D02*
Y644604D01*
X882699Y643198*
X882358Y642729*
X881676Y642260*
X880653*
X879972Y642729*
X883040Y650698D02*
X882358Y651635D01*
X881676Y652104*
X880653*
X879972Y651635*
X879290Y650698*
X878949Y649292*
Y648354*
X879290Y646948*
X879972Y646010*
X880653Y645542*
X881676*
X882358Y646010*
X883040Y646948*
X886108Y652104D02*
Y645542D01*
Y650229D02*
X887131Y651635D01*
X887812Y652104*
X888835*
X889517Y651635*
X889858Y650229*
Y645542*
X892926Y649292D02*
X897017D01*
Y650229*
X896676Y651167*
X896335Y651635*
X895653Y652104*
X894631*
X893949Y651635*
X893267Y650698*
X892926Y649292*
Y648354*
X893267Y646948*
X893949Y646010*
X894631Y645542*
X895653*
X896335Y646010*
X897017Y646948*
X904176Y655385D02*
Y645542D01*
Y650698D02*
X903494Y651635D01*
X902812Y652104*
X901790*
X901108Y651635*
X900426Y650698*
X900085Y649292*
Y648354*
X900426Y646948*
X901108Y646010*
X901790Y645542*
X902812*
X903494Y646010*
X904176Y646948*
X915085Y655385D02*
Y645542D01*
Y655385D02*
X918153D01*
X919176Y654917*
X919517Y654448*
X919858Y653510*
Y652573*
X919517Y651635*
X919176Y651167*
X918153Y650698*
X915085D02*
X918153D01*
X919176Y650229*
X919517Y649760*
X919858Y648823*
Y647417*
X919517Y646479*
X919176Y646010*
X918153Y645542*
X915085*
X923267Y652104D02*
X925312Y645542D01*
X927358Y652104D02*
X925312Y645542D01*
X924631Y643667*
X923949Y642729*
X923267Y642260*
X922926*
X930767Y652104D02*
X930426Y651635D01*
X930767Y651167*
X931108Y651635*
X930767Y652104*
Y646479D02*
X930426Y646010D01*
X930767Y645542*
X931108Y646010*
X930767Y646479*
X878572Y540654D02*
Y527529D01*
X875390Y540654D02*
X881753D01*
X885844D02*
Y527529D01*
Y540654D02*
X891753D01*
X885844Y534404D02*
X889481D01*
X885844Y527529D02*
X891753D01*
X895844Y540654D02*
X902208Y527529D01*
Y540654D02*
X895844Y527529D01*
X906753Y528779D02*
X906299Y528154D01*
X906753Y527529*
X907208Y528154*
X906753Y528779*
X914026Y540654D02*
X912662Y540029D01*
X911753Y538154*
X911299Y535029*
Y533154*
X911753Y530029*
X912662Y528154*
X914026Y527529*
X914935*
X916299Y528154*
X917208Y530029*
X917662Y533154*
Y535029*
X917208Y538154*
X916299Y540029*
X914935Y540654*
X914026*
X924026D02*
X922662Y540029D01*
X922208Y538779*
Y537529*
X922662Y536279*
X923572Y535654*
X925390Y535029*
X926753Y534404*
X927662Y533154*
X928117Y531904*
Y530029*
X927662Y528779*
X927208Y528154*
X925844Y527529*
X924026*
X922662Y528154*
X922208Y528779*
X921753Y530029*
Y531904*
X922208Y533154*
X923117Y534404*
X924481Y535029*
X926299Y535654*
X927208Y536279*
X927662Y537529*
Y538779*
X927208Y540029*
X925844Y540654*
X924026*
X934935D02*
X933572Y540029D01*
X932662Y538154*
X932208Y535029*
Y533154*
X932662Y530029*
X933572Y528154*
X934935Y527529*
X935844*
X937208Y528154*
X938117Y530029*
X938572Y533154*
Y535029*
X938117Y538154*
X937208Y540029*
X935844Y540654*
X934935*
X1232617Y710185D02*
X1229890Y700342D01*
X1232617Y710185D02*
X1235344Y700342D01*
X1230912Y703623D02*
X1234322D01*
X1238412Y706904D02*
Y700342D01*
Y704092D02*
X1238753Y705498D01*
X1239435Y706435*
X1240117Y706904*
X1241140*
X1245231Y710185D02*
Y702217D01*
X1245572Y700810*
X1246253Y700342*
X1246935*
X1244208Y706904D02*
X1246594D01*
X1250003D02*
X1251367Y700342D01*
X1252731Y706904D02*
X1251367Y700342D01*
X1252731Y706904D02*
X1254094Y700342D01*
X1255458Y706904D02*
X1254094Y700342D01*
X1260231Y706904D02*
X1259549Y706435D01*
X1258867Y705498*
X1258526Y704092*
Y703154*
X1258867Y701748*
X1259549Y700810*
X1260231Y700342*
X1261253*
X1261935Y700810*
X1262617Y701748*
X1262958Y703154*
Y704092*
X1262617Y705498*
X1261935Y706435*
X1261253Y706904*
X1260231*
X1266026D02*
Y700342D01*
Y704092D02*
X1266367Y705498D01*
X1267049Y706435*
X1267731Y706904*
X1268753*
X1271822Y710185D02*
Y700342D01*
X1275231Y706904D02*
X1271822Y702217D01*
X1273185Y704092D02*
X1275572Y700342D01*
X1286481Y710185D02*
Y700342D01*
Y710185D02*
X1288867D01*
X1289890Y709717*
X1290572Y708779*
X1290912Y707842*
X1291253Y706435*
Y704092*
X1290912Y702685*
X1290572Y701748*
X1289890Y700810*
X1288867Y700342*
X1286481*
X1294322Y704092D02*
X1298412D01*
Y705029*
X1298072Y705967*
X1297731Y706435*
X1297049Y706904*
X1296026*
X1295344Y706435*
X1294662Y705498*
X1294322Y704092*
Y703154*
X1294662Y701748*
X1295344Y700810*
X1296026Y700342*
X1297049*
X1297731Y700810*
X1298412Y701748*
X1305231Y705498D02*
X1304890Y706435D01*
X1303867Y706904*
X1302844*
X1301822Y706435*
X1301481Y705498*
X1301822Y704560*
X1302503Y704092*
X1304208Y703623*
X1304890Y703154*
X1305231Y702217*
Y701748*
X1304890Y700810*
X1303867Y700342*
X1302844*
X1301822Y700810*
X1301481Y701748*
X1308299Y710185D02*
X1308640Y709717D01*
X1308981Y710185*
X1308640Y710654*
X1308299Y710185*
X1308640Y706904D02*
Y700342D01*
X1316140Y706904D02*
Y699404D01*
X1315799Y697998*
X1315458Y697529*
X1314776Y697060*
X1313753*
X1313072Y697529*
X1316140Y705498D02*
X1315458Y706435D01*
X1314776Y706904*
X1313753*
X1313072Y706435*
X1312390Y705498*
X1312049Y704092*
Y703154*
X1312390Y701748*
X1313072Y700810*
X1313753Y700342*
X1314776*
X1315458Y700810*
X1316140Y701748*
X1319208Y706904D02*
Y700342D01*
Y705029D02*
X1320231Y706435D01*
X1320912Y706904*
X1321935*
X1322617Y706435*
X1322958Y705029*
Y700342*
X1326026Y704092D02*
X1330117D01*
Y705029*
X1329776Y705967*
X1329435Y706435*
X1328753Y706904*
X1327731*
X1327049Y706435*
X1326367Y705498*
X1326026Y704092*
Y703154*
X1326367Y701748*
X1327049Y700810*
X1327731Y700342*
X1328753*
X1329435Y700810*
X1330117Y701748*
X1337276Y710185D02*
Y700342D01*
Y705498D02*
X1336594Y706435D01*
X1335912Y706904*
X1334890*
X1334208Y706435*
X1333526Y705498*
X1333185Y704092*
Y703154*
X1333526Y701748*
X1334208Y700810*
X1334890Y700342*
X1335912*
X1336594Y700810*
X1337276Y701748*
X1348185Y710185D02*
Y700342D01*
Y710185D02*
X1352617D01*
X1348185Y705498D02*
X1350912D01*
X1357390Y706904D02*
X1356708Y706435D01*
X1356026Y705498*
X1355685Y704092*
Y703154*
X1356026Y701748*
X1356708Y700810*
X1357390Y700342*
X1358412*
X1359094Y700810*
X1359776Y701748*
X1360117Y703154*
Y704092*
X1359776Y705498*
X1359094Y706435*
X1358412Y706904*
X1357390*
X1363185D02*
Y700342D01*
Y704092D02*
X1363526Y705498D01*
X1364208Y706435*
X1364890Y706904*
X1365912*
X1369322D02*
X1368981Y706435D01*
X1369322Y705967*
X1369662Y706435*
X1369322Y706904*
Y701279D02*
X1368981Y700810D01*
X1369322Y700342*
X1369662Y700810*
X1369322Y701279*
X1229890Y655185D02*
Y645342D01*
Y655185D02*
X1232958D01*
X1233981Y654717*
X1234322Y654248*
X1234662Y653310*
Y652373*
X1234322Y651435*
X1233981Y650967*
X1232958Y650498*
X1229890D02*
X1232958D01*
X1233981Y650029*
X1234322Y649560*
X1234662Y648623*
Y647217*
X1234322Y646279*
X1233981Y645810*
X1232958Y645342*
X1229890*
X1239435Y651904D02*
X1238753Y651435D01*
X1238072Y650498*
X1237731Y649092*
Y648154*
X1238072Y646748*
X1238753Y645810*
X1239435Y645342*
X1240458*
X1241140Y645810*
X1241822Y646748*
X1242162Y648154*
Y649092*
X1241822Y650498*
X1241140Y651435*
X1240458Y651904*
X1239435*
X1249322D02*
Y645342D01*
Y650498D02*
X1248640Y651435D01*
X1247958Y651904*
X1246935*
X1246253Y651435*
X1245572Y650498*
X1245231Y649092*
Y648154*
X1245572Y646748*
X1246253Y645810*
X1246935Y645342*
X1247958*
X1248640Y645810*
X1249322Y646748*
X1252390Y651904D02*
Y645342D01*
Y649092D02*
X1252731Y650498D01*
X1253412Y651435*
X1254094Y651904*
X1255117*
X1262276Y655185D02*
Y645342D01*
Y650498D02*
X1261594Y651435D01*
X1260912Y651904*
X1259890*
X1259208Y651435*
X1258526Y650498*
X1258185Y649092*
Y648154*
X1258526Y646748*
X1259208Y645810*
X1259890Y645342*
X1260912*
X1261594Y645810*
X1262276Y646748*
X1273185Y655185D02*
Y645342D01*
Y655185D02*
X1275572D01*
X1276594Y654717*
X1277276Y653779*
X1277617Y652842*
X1277958Y651435*
Y649092*
X1277617Y647685*
X1277276Y646748*
X1276594Y645810*
X1275572Y645342*
X1273185*
X1281026Y649092D02*
X1285117D01*
Y650029*
X1284776Y650967*
X1284435Y651435*
X1283753Y651904*
X1282731*
X1282049Y651435*
X1281367Y650498*
X1281026Y649092*
Y648154*
X1281367Y646748*
X1282049Y645810*
X1282731Y645342*
X1283753*
X1284435Y645810*
X1285117Y646748*
X1291935Y650498D02*
X1291594Y651435D01*
X1290572Y651904*
X1289549*
X1288526Y651435*
X1288185Y650498*
X1288526Y649560*
X1289208Y649092*
X1290912Y648623*
X1291594Y648154*
X1291935Y647217*
Y646748*
X1291594Y645810*
X1290572Y645342*
X1289549*
X1288526Y645810*
X1288185Y646748*
X1299094Y650498D02*
X1298412Y651435D01*
X1297731Y651904*
X1296708*
X1296026Y651435*
X1295344Y650498*
X1295003Y649092*
Y648154*
X1295344Y646748*
X1296026Y645810*
X1296708Y645342*
X1297731*
X1298412Y645810*
X1299094Y646748*
X1302162Y651904D02*
Y645342D01*
Y649092D02*
X1302503Y650498D01*
X1303185Y651435*
X1303867Y651904*
X1304890*
X1307958Y655185D02*
X1308299Y654717D01*
X1308640Y655185*
X1308299Y655654*
X1307958Y655185*
X1308299Y651904D02*
Y645342D01*
X1311708Y651904D02*
Y642060D01*
Y650498D02*
X1312390Y651435D01*
X1313072Y651904*
X1314094*
X1314776Y651435*
X1315458Y650498*
X1315799Y649092*
Y648154*
X1315458Y646748*
X1314776Y645810*
X1314094Y645342*
X1313072*
X1312390Y645810*
X1311708Y646748*
X1319890Y655185D02*
Y647217D01*
X1320231Y645810*
X1320912Y645342*
X1321594*
X1318867Y651904D02*
X1321253D01*
X1324662Y655185D02*
X1325003Y654717D01*
X1325344Y655185*
X1325003Y655654*
X1324662Y655185*
X1325003Y651904D02*
Y645342D01*
X1330117Y651904D02*
X1329435Y651435D01*
X1328753Y650498*
X1328412Y649092*
Y648154*
X1328753Y646748*
X1329435Y645810*
X1330117Y645342*
X1331140*
X1331822Y645810*
X1332503Y646748*
X1332844Y648154*
Y649092*
X1332503Y650498*
X1331822Y651435*
X1331140Y651904*
X1330117*
X1335912D02*
Y645342D01*
Y650029D02*
X1336935Y651435D01*
X1337617Y651904*
X1338640*
X1339322Y651435*
X1339662Y650029*
Y645342*
X1343072Y651904D02*
X1342731Y651435D01*
X1343072Y650967*
X1343412Y651435*
X1343072Y651904*
Y646279D02*
X1342731Y645810D01*
X1343072Y645342*
X1343412Y645810*
X1343072Y646279*
X1229890Y585185D02*
Y575342D01*
Y585185D02*
X1232958D01*
X1233981Y584717*
X1234322Y584248*
X1234662Y583310*
Y581904*
X1234322Y580967*
X1233981Y580498*
X1232958Y580029*
X1229890*
X1241822Y581904D02*
Y575342D01*
Y580498D02*
X1241140Y581435D01*
X1240458Y581904*
X1239435*
X1238753Y581435*
X1238072Y580498*
X1237731Y579092*
Y578154*
X1238072Y576748*
X1238753Y575810*
X1239435Y575342*
X1240458*
X1241140Y575810*
X1241822Y576748*
X1244890Y581904D02*
Y575342D01*
Y579092D02*
X1245231Y580498D01*
X1245912Y581435*
X1246594Y581904*
X1247617*
X1251708Y585185D02*
Y577217D01*
X1252049Y575810*
X1252731Y575342*
X1253412*
X1250685Y581904D02*
X1253072D01*
X1264322Y585185D02*
Y575342D01*
Y585185D02*
X1269094Y575342D01*
Y585185D02*
Y575342D01*
X1273867Y581904D02*
X1273185Y581435D01*
X1272503Y580498*
X1272162Y579092*
Y578154*
X1272503Y576748*
X1273185Y575810*
X1273867Y575342*
X1274890*
X1275572Y575810*
X1276253Y576748*
X1276594Y578154*
Y579092*
X1276253Y580498*
X1275572Y581435*
X1274890Y581904*
X1273867*
X1280003D02*
X1279662Y581435D01*
X1280003Y580967*
X1280344Y581435*
X1280003Y581904*
Y576279D02*
X1279662Y575810D01*
X1280003Y575342*
X1280344Y575810*
X1280003Y576279*
X1529890Y585185D02*
Y575342D01*
Y585185D02*
X1532958D01*
X1533981Y584717*
X1534322Y584248*
X1534662Y583310*
Y582373*
X1534322Y581435*
X1533981Y580967*
X1532958Y580498*
X1529890*
X1532276D02*
X1534662Y575342D01*
X1537731Y579092D02*
X1541822D01*
Y580029*
X1541481Y580967*
X1541140Y581435*
X1540458Y581904*
X1539435*
X1538753Y581435*
X1538072Y580498*
X1537731Y579092*
Y578154*
X1538072Y576748*
X1538753Y575810*
X1539435Y575342*
X1540458*
X1541140Y575810*
X1541822Y576748*
X1544890Y581904D02*
X1546935Y575342D01*
X1548981Y581904D02*
X1546935Y575342D01*
X1552049Y585185D02*
X1552390Y584717D01*
X1552731Y585185*
X1552390Y585654*
X1552049Y585185*
X1552390Y581904D02*
Y575342D01*
X1559549Y580498D02*
X1559208Y581435D01*
X1558185Y581904*
X1557162*
X1556140Y581435*
X1555799Y580498*
X1556140Y579560*
X1556822Y579092*
X1558526Y578623*
X1559208Y578154*
X1559549Y577217*
Y576748*
X1559208Y575810*
X1558185Y575342*
X1557162*
X1556140Y575810*
X1555799Y576748*
X1562617Y585185D02*
X1562958Y584717D01*
X1563299Y585185*
X1562958Y585654*
X1562617Y585185*
X1562958Y581904D02*
Y575342D01*
X1568072Y581904D02*
X1567390Y581435D01*
X1566708Y580498*
X1566367Y579092*
Y578154*
X1566708Y576748*
X1567390Y575810*
X1568072Y575342*
X1569094*
X1569776Y575810*
X1570458Y576748*
X1570799Y578154*
Y579092*
X1570458Y580498*
X1569776Y581435*
X1569094Y581904*
X1568072*
X1573867D02*
Y575342D01*
Y580029D02*
X1574890Y581435D01*
X1575572Y581904*
X1576594*
X1577276Y581435*
X1577617Y580029*
Y575342*
X1581026Y581904D02*
X1580685Y581435D01*
X1581026Y580967*
X1581367Y581435*
X1581026Y581904*
Y576279D02*
X1580685Y575810D01*
X1581026Y575342*
X1581367Y575810*
X1581026Y576279*
X1324890Y573467D02*
Y560342D01*
Y573467D02*
X1330799D01*
X1324890Y567217D02*
X1328526D01*
X1335344Y570342D02*
Y570967D01*
X1335799Y572217*
X1336253Y572842*
X1337162Y573467*
X1338981*
X1339890Y572842*
X1340344Y572217*
X1340799Y570967*
Y569717*
X1340344Y568467*
X1339435Y566592*
X1334890Y560342*
X1341253*
X1347617Y573467D02*
X1346253Y572842D01*
X1345799Y571592*
Y570342*
X1346253Y569092*
X1347162Y568467*
X1348981Y567842*
X1350344Y567217*
X1351253Y565967*
X1351708Y564717*
Y562842*
X1351253Y561592*
X1350799Y560967*
X1349435Y560342*
X1347617*
X1346253Y560967*
X1345799Y561592*
X1345344Y562842*
Y564717*
X1345799Y565967*
X1346708Y567217*
X1348072Y567842*
X1349890Y568467*
X1350799Y569092*
X1351253Y570342*
Y571592*
X1350799Y572842*
X1349435Y573467*
X1347617*
X1358526D02*
X1357162Y572842D01*
X1356253Y570967*
X1355799Y567842*
Y565967*
X1356253Y562842*
X1357162Y560967*
X1358526Y560342*
X1359435*
X1360799Y560967*
X1361708Y562842*
X1362162Y565967*
Y567842*
X1361708Y570967*
X1360799Y572842*
X1359435Y573467*
X1358526*
X1372162D02*
X1367617D01*
X1367162Y567842*
X1367617Y568467*
X1368981Y569092*
X1370344*
X1371708Y568467*
X1372617Y567217*
X1373072Y565342*
X1372617Y564092*
X1372162Y562217*
X1371253Y560967*
X1369890Y560342*
X1368526*
X1367162Y560967*
X1366708Y561592*
X1366253Y562842*
X1377162Y569092D02*
X1382162Y560342D01*
Y569092D02*
X1377162Y560342D01*
X1386253Y573467D02*
Y560342D01*
X1396708Y571592D02*
X1395799Y572842D01*
X1394435Y573467*
X1392617*
X1391253Y572842*
X1390344Y571592*
Y570342*
X1390799Y569092*
X1391253Y568467*
X1392162Y567842*
X1394890Y566592*
X1395799Y565967*
X1396253Y565342*
X1396708Y564092*
Y562217*
X1395799Y560967*
X1394435Y560342*
X1392617*
X1391253Y560967*
X1390344Y562217*
X1403526Y573467D02*
X1402617Y572842D01*
X1401708Y571592*
X1401253Y570342*
X1400799Y568467*
Y565342*
X1401253Y563467*
X1401708Y562217*
X1402617Y560967*
X1403526Y560342*
X1405344*
X1406253Y560967*
X1407162Y562217*
X1407617Y563467*
X1408072Y565342*
Y568467*
X1407617Y570342*
X1407162Y571592*
X1406253Y572842*
X1405344Y573467*
X1403526*
X1418981Y570342D02*
X1418526Y571592D01*
X1417617Y572842*
X1416708Y573467*
X1414890*
X1413981Y572842*
X1413072Y571592*
X1412617Y570342*
X1412162Y568467*
Y565342*
X1412617Y563467*
X1413072Y562217*
X1413981Y560967*
X1414890Y560342*
X1416708*
X1417617Y560967*
X1418526Y562217*
X1418981Y563467*
X1425799Y573467D02*
X1424890Y572842D01*
X1423981Y571592*
X1423526Y570342*
X1423072Y568467*
Y565342*
X1423526Y563467*
X1423981Y562217*
X1424890Y560967*
X1425799Y560342*
X1427617*
X1428526Y560967*
X1429435Y562217*
X1429890Y563467*
X1430344Y565342*
Y568467*
X1429890Y570342*
X1429435Y571592*
X1428526Y572842*
X1427617Y573467*
X1425799*
X1434435D02*
Y560342D01*
Y573467D02*
X1440799Y560342D01*
Y573467D02*
Y560342D01*
X1448072Y573467D02*
Y560342D01*
X1444890Y573467D02*
X1451253D01*
X1455344D02*
Y560342D01*
Y573467D02*
X1459435D01*
X1460799Y572842*
X1461253Y572217*
X1461708Y570967*
Y569717*
X1461253Y568467*
X1460799Y567842*
X1459435Y567217*
X1455344*
X1458526D02*
X1461708Y560342D01*
X1468526Y573467D02*
X1467617Y572842D01*
X1466708Y571592*
X1466253Y570342*
X1465799Y568467*
Y565342*
X1466253Y563467*
X1466708Y562217*
X1467617Y560967*
X1468526Y560342*
X1470344*
X1471253Y560967*
X1472162Y562217*
X1472617Y563467*
X1473072Y565342*
Y568467*
X1472617Y570342*
X1472162Y571592*
X1471253Y572842*
X1470344Y573467*
X1468526*
X1477162D02*
Y560342D01*
X1482617*
X1493526Y570342D02*
X1493072Y571592D01*
X1492162Y572842*
X1491253Y573467*
X1489435*
X1488526Y572842*
X1487617Y571592*
X1487162Y570342*
X1486708Y568467*
Y565342*
X1487162Y563467*
X1487617Y562217*
X1488526Y560967*
X1489435Y560342*
X1491253*
X1492162Y560967*
X1493072Y562217*
X1493526Y563467*
X1501253Y573467D02*
X1497617Y560342D01*
X1501253Y573467D02*
X1504890Y560342D01*
X1498981Y564717D02*
X1503526D01*
X1508981Y573467D02*
Y560342D01*
Y573467D02*
X1513072D01*
X1514435Y572842*
X1514890Y572217*
X1515344Y570967*
Y569717*
X1514890Y568467*
X1514435Y567842*
X1513072Y567217*
X1508981*
X1512162D02*
X1515344Y560342D01*
X1519435Y573467D02*
Y560342D01*
Y573467D02*
X1522617D01*
X1523981Y572842*
X1524890Y571592*
X1525344Y570342*
X1525799Y568467*
Y565342*
X1525344Y563467*
X1524890Y562217*
X1523981Y560967*
X1522617Y560342*
X1519435*
X1601617Y574954D02*
X1602526Y575579D01*
X1603890Y577454*
Y564329*
X1608435Y565579D02*
X1607981Y564954D01*
X1608435Y564329*
X1608890Y564954*
X1608435Y565579*
X1613435Y574329D02*
Y574954D01*
X1613890Y576204*
X1614344Y576829*
X1615253Y577454*
X1617072*
X1617981Y576829*
X1618435Y576204*
X1618890Y574954*
Y573704*
X1618435Y572454*
X1617526Y570579*
X1612981Y564329*
X1619344*
X1371435Y685654D02*
Y672529D01*
X1368253Y685654D02*
X1374617D01*
X1378708Y677529D02*
X1384162D01*
Y678779*
X1383708Y680029*
X1383253Y680654*
X1382344Y681279*
X1380981*
X1380072Y680654*
X1379162Y679404*
X1378708Y677529*
Y676279*
X1379162Y674404*
X1380072Y673154*
X1380981Y672529*
X1382344*
X1383253Y673154*
X1384162Y674404*
X1388253Y681279D02*
X1393253Y672529D01*
Y681279D02*
X1388253Y672529D01*
X1402799Y681279D02*
Y672529D01*
Y679404D02*
X1401890Y680654D01*
X1400981Y681279*
X1399617*
X1398708Y680654*
X1397799Y679404*
X1397344Y677529*
Y676279*
X1397799Y674404*
X1398708Y673154*
X1399617Y672529*
X1400981*
X1401890Y673154*
X1402799Y674404*
X1411890Y679404D02*
X1411435Y680654D01*
X1410072Y681279*
X1408708*
X1407344Y680654*
X1406890Y679404*
X1407344Y678154*
X1408253Y677529*
X1410526Y676904*
X1411435Y676279*
X1411890Y675029*
Y674404*
X1411435Y673154*
X1410072Y672529*
X1408708*
X1407344Y673154*
X1406890Y674404*
X1426435Y685654D02*
Y672529D01*
X1430526Y681279D02*
Y672529D01*
Y678779D02*
X1431890Y680654D01*
X1432799Y681279*
X1434162*
X1435072Y680654*
X1435526Y678779*
Y672529*
X1444617Y679404D02*
X1444162Y680654D01*
X1442799Y681279*
X1441435*
X1440072Y680654*
X1439617Y679404*
X1440072Y678154*
X1440981Y677529*
X1443253Y676904*
X1444162Y676279*
X1444617Y675029*
Y674404*
X1444162Y673154*
X1442799Y672529*
X1441435*
X1440072Y673154*
X1439617Y674404*
X1450072Y685654D02*
Y675029D01*
X1450526Y673154*
X1451435Y672529*
X1452344*
X1448708Y681279D02*
X1451890D01*
X1456435D02*
Y672529D01*
Y677529D02*
X1456890Y679404D01*
X1457799Y680654*
X1458708Y681279*
X1460072*
X1464162D02*
Y675029D01*
X1464617Y673154*
X1465526Y672529*
X1466890*
X1467799Y673154*
X1469162Y675029*
Y681279D02*
Y672529D01*
X1473253Y681279D02*
Y672529D01*
Y678779D02*
X1474617Y680654D01*
X1475526Y681279*
X1476890*
X1477799Y680654*
X1478253Y678779*
Y672529*
Y678779D02*
X1479617Y680654D01*
X1480526Y681279*
X1481890*
X1482799Y680654*
X1483253Y678779*
Y672529*
X1487344Y677529D02*
X1492799D01*
Y678779*
X1492344Y680029*
X1491890Y680654*
X1490981Y681279*
X1489617*
X1488708Y680654*
X1487799Y679404*
X1487344Y677529*
Y676279*
X1487799Y674404*
X1488708Y673154*
X1489617Y672529*
X1490981*
X1491890Y673154*
X1492799Y674404*
X1496890Y681279D02*
Y672529D01*
Y678779D02*
X1498253Y680654D01*
X1499162Y681279*
X1500526*
X1501435Y680654*
X1501890Y678779*
Y672529*
X1507344Y685654D02*
Y675029D01*
X1507799Y673154*
X1508708Y672529*
X1509617*
X1505981Y681279D02*
X1509162D01*
X1518708Y679404D02*
X1518253Y680654D01*
X1516890Y681279*
X1515526*
X1514162Y680654*
X1513708Y679404*
X1514162Y678154*
X1515072Y677529*
X1517344Y676904*
X1518253Y676279*
X1518708Y675029*
Y674404*
X1518253Y673154*
X1516890Y672529*
X1515526*
X1514162Y673154*
X1513708Y674404*
X1351013Y624514D02*
Y611389D01*
Y624514D02*
X1356922D01*
X1351013Y618264D02*
X1354649D01*
X1361467Y621389D02*
Y622014D01*
X1361922Y623264*
X1362376Y623889*
X1363286Y624514*
X1365104*
X1366013Y623889*
X1366467Y623264*
X1366922Y622014*
Y620764*
X1366467Y619514*
X1365558Y617639*
X1361013Y611389*
X1367376*
X1373740Y624514D02*
X1372376Y623889D01*
X1371922Y622639*
Y621389*
X1372376Y620139*
X1373286Y619514*
X1375104Y618889*
X1376467Y618264*
X1377376Y617014*
X1377831Y615764*
Y613889*
X1377376Y612639*
X1376922Y612014*
X1375558Y611389*
X1373740*
X1372376Y612014*
X1371922Y612639*
X1371467Y613889*
Y615764*
X1371922Y617014*
X1372831Y618264*
X1374195Y618889*
X1376013Y619514*
X1376922Y620139*
X1377376Y621389*
Y622639*
X1376922Y623889*
X1375558Y624514*
X1373740*
X1384649D02*
X1383286Y623889D01*
X1382376Y622014*
X1381922Y618889*
Y617014*
X1382376Y613889*
X1383286Y612014*
X1384649Y611389*
X1385558*
X1386922Y612014*
X1387831Y613889*
X1388286Y617014*
Y618889*
X1387831Y622014*
X1386922Y623889*
X1385558Y624514*
X1384649*
X1398286D02*
X1393740D01*
X1393286Y618889*
X1393740Y619514*
X1395104Y620139*
X1396467*
X1397831Y619514*
X1398740Y618264*
X1399195Y616389*
X1398740Y615139*
X1398286Y613264*
X1397376Y612014*
X1396013Y611389*
X1394649*
X1393286Y612014*
X1392831Y612639*
X1392376Y613889*
X1403286Y620139D02*
X1408286Y611389D01*
Y620139D02*
X1403286Y611389D01*
X1412376Y624514D02*
Y611389D01*
X1422831Y622639D02*
X1421922Y623889D01*
X1420558Y624514*
X1418740*
X1417376Y623889*
X1416467Y622639*
Y621389*
X1416922Y620139*
X1417376Y619514*
X1418286Y618889*
X1421013Y617639*
X1421922Y617014*
X1422376Y616389*
X1422831Y615139*
Y613264*
X1421922Y612014*
X1420558Y611389*
X1418740*
X1417376Y612014*
X1416467Y613264*
X1429649Y624514D02*
X1428740Y623889D01*
X1427831Y622639*
X1427376Y621389*
X1426922Y619514*
Y616389*
X1427376Y614514*
X1427831Y613264*
X1428740Y612014*
X1429649Y611389*
X1431467*
X1432376Y612014*
X1433286Y613264*
X1433740Y614514*
X1434195Y616389*
Y619514*
X1433740Y621389*
X1433286Y622639*
X1432376Y623889*
X1431467Y624514*
X1429649*
X1443740Y618264D02*
X1442831Y619514D01*
X1441922Y620139*
X1440558*
X1439649Y619514*
X1438740Y618264*
X1438286Y616389*
Y615139*
X1438740Y613264*
X1439649Y612014*
X1440558Y611389*
X1441922*
X1442831Y612014*
X1443740Y613264*
X1450104Y620139D02*
X1449195Y619514D01*
X1448286Y618264*
X1447831Y616389*
Y615139*
X1448286Y613264*
X1449195Y612014*
X1450104Y611389*
X1451467*
X1452376Y612014*
X1453286Y613264*
X1453740Y615139*
Y616389*
X1453286Y618264*
X1452376Y619514*
X1451467Y620139*
X1450104*
X1457831D02*
Y611389D01*
Y617639D02*
X1459195Y619514D01*
X1460104Y620139*
X1461467*
X1462376Y619514*
X1462831Y617639*
Y611389*
X1468286Y624514D02*
Y613889D01*
X1468740Y612014*
X1469649Y611389*
X1470558*
X1466922Y620139D02*
X1470104D01*
X1474649D02*
Y611389D01*
Y616389D02*
X1475104Y618264D01*
X1476013Y619514*
X1476922Y620139*
X1478286*
X1484649D02*
X1483740Y619514D01*
X1482831Y618264*
X1482376Y616389*
Y615139*
X1482831Y613264*
X1483740Y612014*
X1484649Y611389*
X1486013*
X1486922Y612014*
X1487831Y613264*
X1488286Y615139*
Y616389*
X1487831Y618264*
X1486922Y619514*
X1486013Y620139*
X1484649*
X1492376Y624514D02*
Y611389D01*
X1503286Y621389D02*
X1502831Y622639D01*
X1501922Y623889*
X1501013Y624514*
X1499195*
X1498286Y623889*
X1497376Y622639*
X1496922Y621389*
X1496467Y619514*
Y616389*
X1496922Y614514*
X1497376Y613264*
X1498286Y612014*
X1499195Y611389*
X1501013*
X1501922Y612014*
X1502831Y613264*
X1503286Y614514*
X1511013Y624514D02*
X1507376Y611389D01*
X1511013Y624514D02*
X1514649Y611389D01*
X1508740Y615764D02*
X1513286D01*
X1518740Y624514D02*
Y611389D01*
Y624514D02*
X1522831D01*
X1524195Y623889*
X1524649Y623264*
X1525104Y622014*
Y620764*
X1524649Y619514*
X1524195Y618889*
X1522831Y618264*
X1518740*
X1521922D02*
X1525104Y611389D01*
X1529195Y624514D02*
Y611389D01*
Y624514D02*
X1532376D01*
X1533740Y623889*
X1534649Y622639*
X1535104Y621389*
X1535558Y619514*
Y616389*
X1535104Y614514*
X1534649Y613264*
X1533740Y612014*
X1532376Y611389*
X1529195*
X1478094Y537720D02*
X1477412Y538657D01*
X1476390Y539126*
X1475026*
X1474003Y538657*
X1473322Y537720*
Y536782*
X1473662Y535845*
X1474003Y535376*
X1474685Y534907*
X1476731Y533970*
X1477412Y533501*
X1477753Y533032*
X1478094Y532095*
Y530689*
X1477412Y529751*
X1476390Y529282*
X1475026*
X1474003Y529751*
X1473322Y530689*
X1481162Y533032D02*
X1485253D01*
Y533970*
X1484912Y534907*
X1484572Y535376*
X1483890Y535845*
X1482867*
X1482185Y535376*
X1481503Y534439*
X1481162Y533032*
Y532095*
X1481503Y530689*
X1482185Y529751*
X1482867Y529282*
X1483890*
X1484572Y529751*
X1485253Y530689*
X1492412Y534439D02*
X1491731Y535376D01*
X1491049Y535845*
X1490026*
X1489344Y535376*
X1488662Y534439*
X1488322Y533032*
Y532095*
X1488662Y530689*
X1489344Y529751*
X1490026Y529282*
X1491049*
X1491731Y529751*
X1492412Y530689*
X1497185Y535845D02*
X1496503Y535376D01*
X1495822Y534439*
X1495481Y533032*
Y532095*
X1495822Y530689*
X1496503Y529751*
X1497185Y529282*
X1498208*
X1498890Y529751*
X1499572Y530689*
X1499912Y532095*
Y533032*
X1499572Y534439*
X1498890Y535376*
X1498208Y535845*
X1497185*
X1502981D02*
Y529282D01*
Y533970D02*
X1504003Y535376D01*
X1504685Y535845*
X1505708*
X1506390Y535376*
X1506731Y533970*
Y529282*
X1513890Y539126D02*
Y529282D01*
Y534439D02*
X1513208Y535376D01*
X1512526Y535845*
X1511503*
X1510822Y535376*
X1510140Y534439*
X1509799Y533032*
Y532095*
X1510140Y530689*
X1510822Y529751*
X1511503Y529282*
X1512526*
X1513208Y529751*
X1513890Y530689*
X1521049Y535845D02*
Y529282D01*
Y534439D02*
X1520367Y535376D01*
X1519685Y535845*
X1518662*
X1517981Y535376*
X1517299Y534439*
X1516958Y533032*
Y532095*
X1517299Y530689*
X1517981Y529751*
X1518662Y529282*
X1519685*
X1520367Y529751*
X1521049Y530689*
X1524117Y535845D02*
Y529282D01*
Y533032D02*
X1524458Y534439D01*
X1525140Y535376*
X1525822Y535845*
X1526844*
X1530253D02*
X1532299Y529282D01*
X1534344Y535845D02*
X1532299Y529282D01*
X1531617Y527407*
X1530935Y526470*
X1530253Y526001*
X1529912*
X1550026Y537720D02*
X1549344Y538657D01*
X1548322Y539126*
X1546958*
X1545935Y538657*
X1545253Y537720*
Y536782*
X1545594Y535845*
X1545935Y535376*
X1546617Y534907*
X1548662Y533970*
X1549344Y533501*
X1549685Y533032*
X1550026Y532095*
Y530689*
X1549344Y529751*
X1548322Y529282*
X1546958*
X1545935Y529751*
X1545253Y530689*
X1553094Y539126D02*
X1553435Y538657D01*
X1553776Y539126*
X1553435Y539595*
X1553094Y539126*
X1553435Y535845D02*
Y529282D01*
X1560935Y539126D02*
Y529282D01*
Y534439D02*
X1560253Y535376D01*
X1559572Y535845*
X1558549*
X1557867Y535376*
X1557185Y534439*
X1556844Y533032*
Y532095*
X1557185Y530689*
X1557867Y529751*
X1558549Y529282*
X1559572*
X1560253Y529751*
X1560935Y530689*
X1564003Y533032D02*
X1568094D01*
Y533970*
X1567753Y534907*
X1567412Y535376*
X1566731Y535845*
X1565708*
X1565026Y535376*
X1564344Y534439*
X1564003Y533032*
Y532095*
X1564344Y530689*
X1565026Y529751*
X1565708Y529282*
X1566731*
X1567412Y529751*
X1568094Y530689*
X1321560Y539126D02*
X1318151Y532564D01*
X1323265*
X1321560Y539126D02*
Y529282D01*
X1103190Y564404D02*
X1104553Y557842D01*
X1105917Y564404D02*
X1104553Y557842D01*
X1105917Y564404D02*
X1107281Y557842D01*
X1108644Y564404D02*
X1107281Y557842D01*
X1111712Y564404D02*
X1113076Y557842D01*
X1114440Y564404D02*
X1113076Y557842D01*
X1114440Y564404D02*
X1115803Y557842D01*
X1117167Y564404D02*
X1115803Y557842D01*
X1120235Y564404D02*
X1121599Y557842D01*
X1122962Y564404D02*
X1121599Y557842D01*
X1122962Y564404D02*
X1124326Y557842D01*
X1125690Y564404D02*
X1124326Y557842D01*
X1129099Y558779D02*
X1128758Y558310D01*
X1129099Y557842*
X1129440Y558310*
X1129099Y558779*
X1132508Y564404D02*
X1133872Y557842D01*
X1135235Y564404D02*
X1133872Y557842D01*
X1135235Y564404D02*
X1136599Y557842D01*
X1137962Y564404D02*
X1136599Y557842D01*
X1144781Y562998D02*
X1144440Y563935D01*
X1143417Y564404*
X1142394*
X1141372Y563935*
X1141031Y562998*
X1141372Y562060*
X1142053Y561592*
X1143758Y561123*
X1144440Y560654*
X1144781Y559717*
Y559248*
X1144440Y558310*
X1143417Y557842*
X1142394*
X1141372Y558310*
X1141031Y559248*
X1148872Y567685D02*
Y559717D01*
X1149212Y558310*
X1149894Y557842*
X1150576*
X1147849Y564404D02*
X1150235D01*
X1157394Y562998D02*
X1157053Y563935D01*
X1156031Y564404*
X1155008*
X1153985Y563935*
X1153644Y562998*
X1153985Y562060*
X1154667Y561592*
X1156372Y561123*
X1157053Y560654*
X1157394Y559717*
Y559248*
X1157053Y558310*
X1156031Y557842*
X1155008*
X1153985Y558310*
X1153644Y559248*
X1164553Y562998D02*
X1163872Y563935D01*
X1163190Y564404*
X1162167*
X1161485Y563935*
X1160803Y562998*
X1160462Y561592*
Y560654*
X1160803Y559248*
X1161485Y558310*
X1162167Y557842*
X1163190*
X1163872Y558310*
X1164553Y559248*
X1169326Y564404D02*
X1168644Y563935D01*
X1167962Y562998*
X1167622Y561592*
Y560654*
X1167962Y559248*
X1168644Y558310*
X1169326Y557842*
X1170349*
X1171031Y558310*
X1171712Y559248*
X1172053Y560654*
Y561592*
X1171712Y562998*
X1171031Y563935*
X1170349Y564404*
X1169326*
X1175122D02*
Y557842D01*
Y561592D02*
X1175462Y562998D01*
X1176144Y563935*
X1176826Y564404*
X1177849*
X1180917D02*
Y554560D01*
Y562998D02*
X1181599Y563935D01*
X1182281Y564404*
X1183303*
X1183985Y563935*
X1184667Y562998*
X1185008Y561592*
Y560654*
X1184667Y559248*
X1183985Y558310*
X1183303Y557842*
X1182281*
X1181599Y558310*
X1180917Y559248*
X1188417Y558779D02*
X1188076Y558310D01*
X1188417Y557842*
X1188758Y558310*
X1188417Y558779*
X1195917Y562998D02*
X1195235Y563935D01*
X1194553Y564404*
X1193531*
X1192849Y563935*
X1192167Y562998*
X1191826Y561592*
Y560654*
X1192167Y559248*
X1192849Y558310*
X1193531Y557842*
X1194553*
X1195235Y558310*
X1195917Y559248*
X1200690Y564404D02*
X1200008Y563935D01*
X1199326Y562998*
X1198985Y561592*
Y560654*
X1199326Y559248*
X1200008Y558310*
X1200690Y557842*
X1201712*
X1202394Y558310*
X1203076Y559248*
X1203417Y560654*
Y561592*
X1203076Y562998*
X1202394Y563935*
X1201712Y564404*
X1200690*
X1206485D02*
Y557842D01*
Y562529D02*
X1207508Y563935D01*
X1208190Y564404*
X1209212*
X1209894Y563935*
X1210235Y562529*
Y557842*
Y562529D02*
X1211258Y563935D01*
X1211940Y564404*
X1212962*
X1213644Y563935*
X1213985Y562529*
Y557842*
X889090Y630085D02*
X890794Y620242D01*
X892499Y630085D02*
X890794Y620242D01*
X892499Y630085D02*
X894203Y620242D01*
X895908Y630085D02*
X894203Y620242D01*
X898976Y630085D02*
X899317Y629617D01*
X899658Y630085*
X899317Y630554*
X898976Y630085*
X899317Y626804D02*
Y620242D01*
X902726Y630085D02*
Y620242D01*
X905794Y630085D02*
Y620242D01*
X910567Y626804D02*
X909885Y626335D01*
X909203Y625398*
X908862Y623992*
Y623054*
X909203Y621648*
X909885Y620710*
X910567Y620242*
X911590*
X912272Y620710*
X912953Y621648*
X913294Y623054*
Y623992*
X912953Y625398*
X912272Y626335*
X911590Y626804*
X910567*
X916362D02*
X917726Y620242D01*
X919090Y626804D02*
X917726Y620242D01*
X919090Y626804D02*
X920453Y620242D01*
X921817Y626804D02*
X920453Y620242D01*
X937499Y628679D02*
X936817Y629617D01*
X935794Y630085*
X934431*
X933408Y629617*
X932726Y628679*
Y627742*
X933067Y626804*
X933408Y626335*
X934090Y625867*
X936135Y624929*
X936817Y624460*
X937158Y623992*
X937499Y623054*
Y621648*
X936817Y620710*
X935794Y620242*
X934431*
X933408Y620710*
X932726Y621648*
X940567Y626804D02*
Y616960D01*
Y625398D02*
X941249Y626335D01*
X941931Y626804*
X942953*
X943635Y626335*
X944317Y625398*
X944658Y623992*
Y623054*
X944317Y621648*
X943635Y620710*
X942953Y620242*
X941931*
X941249Y620710*
X940567Y621648*
X947726Y626804D02*
Y620242D01*
Y623992D02*
X948067Y625398D01*
X948749Y626335*
X949431Y626804*
X950453*
X953522Y630085D02*
X953862Y629617D01*
X954203Y630085*
X953862Y630554*
X953522Y630085*
X953862Y626804D02*
Y620242D01*
X957272Y626804D02*
Y620242D01*
Y624929D02*
X958294Y626335D01*
X958976Y626804*
X959999*
X960681Y626335*
X961022Y624929*
Y620242*
X968181Y626804D02*
Y619304D01*
X967840Y617898*
X967499Y617429*
X966817Y616960*
X965794*
X965112Y617429*
X968181Y625398D02*
X967499Y626335D01*
X966817Y626804*
X965794*
X965112Y626335*
X964431Y625398*
X964090Y623992*
Y623054*
X964431Y621648*
X965112Y620710*
X965794Y620242*
X966817*
X967499Y620710*
X968181Y621648*
X981476Y630085D02*
Y620242D01*
X979090Y630085D02*
X983862D01*
X986931Y623992D02*
X991022D01*
Y624929*
X990681Y625867*
X990340Y626335*
X989658Y626804*
X988635*
X987953Y626335*
X987272Y625398*
X986931Y623992*
Y623054*
X987272Y621648*
X987953Y620710*
X988635Y620242*
X989658*
X990340Y620710*
X991022Y621648*
X998181Y625398D02*
X997499Y626335D01*
X996817Y626804*
X995794*
X995112Y626335*
X994431Y625398*
X994090Y623992*
Y623054*
X994431Y621648*
X995112Y620710*
X995794Y620242*
X996817*
X997499Y620710*
X998181Y621648*
X1001249Y630085D02*
Y620242D01*
Y624929D02*
X1002272Y626335D01*
X1002953Y626804*
X1003976*
X1004658Y626335*
X1004999Y624929*
Y620242*
X1008067Y626804D02*
Y620242D01*
Y624929D02*
X1009090Y626335D01*
X1009772Y626804*
X1010794*
X1011476Y626335*
X1011817Y624929*
Y620242*
X1014885Y630085D02*
X1015226Y629617D01*
X1015567Y630085*
X1015226Y630554*
X1014885Y630085*
X1015226Y626804D02*
Y620242D01*
X1022726Y625398D02*
X1022044Y626335D01*
X1021362Y626804*
X1020340*
X1019658Y626335*
X1018976Y625398*
X1018635Y623992*
Y623054*
X1018976Y621648*
X1019658Y620710*
X1020340Y620242*
X1021362*
X1022044Y620710*
X1022726Y621648*
X1029885Y626804D02*
Y620242D01*
Y625398D02*
X1029203Y626335D01*
X1028522Y626804*
X1027499*
X1026817Y626335*
X1026135Y625398*
X1025794Y623992*
Y623054*
X1026135Y621648*
X1026817Y620710*
X1027499Y620242*
X1028522*
X1029203Y620710*
X1029885Y621648*
X1032953Y630085D02*
Y620242D01*
X1048635Y628679D02*
X1047953Y629617D01*
X1046931Y630085*
X1045567*
X1044544Y629617*
X1043862Y628679*
Y627742*
X1044203Y626804*
X1044544Y626335*
X1045226Y625867*
X1047272Y624929*
X1047953Y624460*
X1048294Y623992*
X1048635Y623054*
Y621648*
X1047953Y620710*
X1046931Y620242*
X1045567*
X1044544Y620710*
X1043862Y621648*
X1051703Y623992D02*
X1055794D01*
Y624929*
X1055453Y625867*
X1055112Y626335*
X1054431Y626804*
X1053408*
X1052726Y626335*
X1052044Y625398*
X1051703Y623992*
Y623054*
X1052044Y621648*
X1052726Y620710*
X1053408Y620242*
X1054431*
X1055112Y620710*
X1055794Y621648*
X1058862Y626804D02*
Y620242D01*
Y623992D02*
X1059203Y625398D01*
X1059885Y626335*
X1060567Y626804*
X1061590*
X1064658D02*
X1066703Y620242D01*
X1068749Y626804D02*
X1066703Y620242D01*
X1071817Y630085D02*
X1072158Y629617D01*
X1072499Y630085*
X1072158Y630554*
X1071817Y630085*
X1072158Y626804D02*
Y620242D01*
X1079658Y625398D02*
X1078976Y626335D01*
X1078294Y626804*
X1077272*
X1076590Y626335*
X1075908Y625398*
X1075567Y623992*
Y623054*
X1075908Y621648*
X1076590Y620710*
X1077272Y620242*
X1078294*
X1078976Y620710*
X1079658Y621648*
X1082726Y623992D02*
X1086817D01*
Y624929*
X1086476Y625867*
X1086135Y626335*
X1085453Y626804*
X1084431*
X1083749Y626335*
X1083067Y625398*
X1082726Y623992*
Y623054*
X1083067Y621648*
X1083749Y620710*
X1084431Y620242*
X1085453*
X1086135Y620710*
X1086817Y621648*
X1093635Y625398D02*
X1093294Y626335D01*
X1092272Y626804*
X1091249*
X1090226Y626335*
X1089885Y625398*
X1090226Y624460*
X1090908Y623992*
X1092612Y623523*
X1093294Y623054*
X1093635Y622117*
Y621648*
X1093294Y620710*
X1092272Y620242*
X1091249*
X1090226Y620710*
X1089885Y621648*
X1109658Y627742D02*
X1109317Y628679D01*
X1108635Y629617*
X1107953Y630085*
X1106590*
X1105908Y629617*
X1105226Y628679*
X1104885Y627742*
X1104544Y626335*
Y623992*
X1104885Y622585*
X1105226Y621648*
X1105908Y620710*
X1106590Y620242*
X1107953*
X1108635Y620710*
X1109317Y621648*
X1109658Y622585*
X1114431Y626804D02*
X1113749Y626335D01*
X1113067Y625398*
X1112726Y623992*
Y623054*
X1113067Y621648*
X1113749Y620710*
X1114431Y620242*
X1115453*
X1116135Y620710*
X1116817Y621648*
X1117158Y623054*
Y623992*
X1116817Y625398*
X1116135Y626335*
X1115453Y626804*
X1114431*
X1120226D02*
Y620242D01*
Y623992D02*
X1120567Y625398D01*
X1121249Y626335*
X1121931Y626804*
X1122953*
X1126022D02*
Y616960D01*
Y625398D02*
X1126703Y626335D01*
X1127385Y626804*
X1128408*
X1129090Y626335*
X1129772Y625398*
X1130112Y623992*
Y623054*
X1129772Y621648*
X1129090Y620710*
X1128408Y620242*
X1127385*
X1126703Y620710*
X1126022Y621648*
X1133522Y621179D02*
X1133181Y620710D01*
X1133522Y620242*
X1133862Y620710*
X1133522Y621179*
X1177890Y880457D02*
Y886642D01*
X1225390D02*
Y880457D01*
X1226890*
X1201890D02*
Y886642D01*
X1271890Y880457D02*
X1272390D01*
Y887142*
X1251890Y880457D02*
X1252890D01*
Y887142*
X994390Y935142D02*
X997390D01*
X990390Y926142D02*
X993390D01*
X1024890Y932642D02*
X1027890D01*
Y931142*
X999390Y927142D02*
Y923142D01*
X1001390Y921142*
X1019390Y926642D02*
Y932142D01*
X1015390Y926642D02*
Y932642D01*
X1031890Y931142D02*
X1034390D01*
X1005890Y936642D02*
Y939642D01*
X1005390Y930142D02*
Y932642D01*
X1005890*
X1071890Y928142D02*
X1075390D01*
X1075890Y928642*
Y931142*
X1102390Y925642D02*
X1103890D01*
X1185390Y934642D02*
X1189640D01*
X1203890Y935642D02*
X1207890D01*
Y934292*
X1218890Y938142D02*
Y940642D01*
X1197140Y934642D02*
Y939142D01*
X1197390*
X1282890Y928642D02*
Y933292D01*
X1297890Y928642D02*
X1300540D01*
X1302040Y927142*
Y923642*
X1276390Y933292D02*
X1282890D01*
X991390Y952642D02*
X994390Y949642D01*
Y947142*
X991390Y956642D02*
X991890Y957142D01*
X994390*
X997890*
Y956642*
X1005390Y966142D02*
Y969142D01*
X1016890Y942142D02*
X1017140Y941892D01*
X1021390*
X1001890Y943642D02*
X1006390D01*
X1025390Y955142D02*
X1027890D01*
X1025390Y959642D02*
X1027890D01*
X997390Y939142D02*
X1000390D01*
X1005390Y973142D02*
Y977142D01*
X1004890Y959642D02*
X1007390D01*
X1004890Y954642D02*
X1007390D01*
Y955142*
X994969Y965642D02*
Y969642D01*
X996890Y971642*
X1029390Y947142D02*
X1033390D01*
X1029390Y943142D02*
X1033390D01*
X1006390Y943642D02*
X1011390D01*
Y941892*
X1031390Y967142D02*
X1035390D01*
X1030390Y959142D02*
X1033390D01*
X1039390Y964642D02*
Y967142D01*
X1045390Y957142D02*
Y962142D01*
Y965142*
X1071890Y964642D02*
X1076390D01*
X1071890Y940642D02*
X1073890D01*
X1075890Y938642*
Y935142*
X1041890Y942642D02*
X1044890D01*
X1080390Y964642D02*
Y968642D01*
X1077890Y946642D02*
X1079015D01*
X1079890Y947517*
Y950142*
X1189540Y943142D02*
Y934742D01*
X1189640Y934642*
X1215240Y955142D02*
X1219390D01*
X1208540Y961642D02*
X1208890D01*
Y967142*
X1215240Y961642D02*
X1219390D01*
X1251140Y955142D02*
X1256390D01*
X1236390Y958792D02*
Y954142D01*
X1237890Y952642*
Y951142*
X1069890Y1012642D02*
Y1009142D01*
X1070890*
X1048740Y1000142D02*
Y996142D01*
X1048890*
X1048740Y1008642D02*
X1049140Y1009042D01*
Y1016642*
X1047390Y1004642D02*
Y1008642D01*
X1048740*
X1041890Y996142D02*
X1042040Y996292D01*
Y1000142*
X1070890Y987642D02*
X1073390D01*
X1076390Y984642*
X1079390*
X1075390Y991642D02*
X1078890D01*
X1079390Y991142*
Y988642*
G54D229*
X1026890Y880457D02*
Y887642D01*
X1031890Y892642*
X1085390*
X1097390Y904642*
X1099390*
X1101390Y906642*
Y921142*
X1102390Y922142*
X1066890Y880457D02*
Y886142D01*
X1071390Y890642*
X1097390*
X1097890Y891142*
X1111390*
X1112890Y892642*
X1124890*
X1127890Y895642*
X1056890Y880457D02*
Y890142D01*
X1058390Y891642*
X1088390*
X1102890Y906142*
Y918642*
X1105390Y921142*
X1098890Y896142D02*
X1100390D01*
X1101390Y895142*
X1108890*
X1110890Y897142*
X1121890*
X1123890Y899142*
Y959642*
X1096390Y895142D02*
X1097390Y894142D01*
X1109890*
X1111390Y895642*
X1121890*
X1124890Y898642*
Y961142*
X1092390Y892642D02*
X1093890D01*
X1094390Y892142*
X1110890*
X1112390Y893642*
X1124390*
X1126890Y896142*
Y963642*
X1094390Y894142D02*
X1095390Y893142D01*
X1110390*
X1111890Y894642*
X1123890*
X1125890Y896642*
Y962142*
X1106890Y880457D02*
Y885642D01*
X1107390Y886142*
X1113890*
X1115390Y887642*
X1127390*
X1135890Y896142*
X1101890Y880457D02*
Y885642D01*
X1102390Y886142*
X1105390*
X1106390Y887142*
X1113390*
X1114890Y888642*
X1126890*
X1133890Y895642*
Y914142*
X1096890Y880457D02*
Y885642D01*
X1098390Y887142*
X1104890*
X1105890Y888142*
X1112890*
X1114390Y889642*
X1126390*
X1130890Y894142*
X1086890Y880457D02*
Y885642D01*
X1089890Y888642*
X1098390*
X1098890Y889142*
X1112390*
X1113890Y890642*
X1125890*
X1129890Y894642*
Y965142*
X1076890Y880457D02*
Y885642D01*
X1080890Y889642*
X1097890*
X1098390Y890142*
X1111890*
X1113390Y891642*
X1125390*
X1128890Y895142*
Y964642*
X1152890Y890642D02*
X1156390D01*
X1158390Y892642*
Y895142*
X1168390Y905142*
Y907642*
X1173890Y913142*
Y920142*
X1178890Y925142*
X1205890*
X1210390Y920642*
X1220390*
X1222890Y918142*
X1246390*
X1247890Y916642*
X1249390*
X1126890Y880457D02*
X1128390D01*
Y885642*
X1137890Y895142*
Y926642*
X1116890Y880457D02*
Y886142D01*
X1117390Y886642*
X1127890*
X1136890Y895642*
Y925642*
X1186890Y894642D02*
X1210890D01*
X1213390Y897142*
X1220890*
X1221890Y898142*
X1229890*
X1231890Y896142*
X1237890*
X1243390Y901642*
X1245890*
X1247390Y903142*
X1257890*
X1260390Y900642*
X1262390*
X1191890Y887642D02*
X1195890Y891642D01*
X1213390*
X1214890Y893142*
X1222390*
X1222890Y892642*
X1237890*
X1243890Y898642*
X1264390*
X1179890Y889142D02*
X1181890Y887142D01*
Y880457*
X1171890Y888642D02*
Y891142D01*
X1182390Y901642*
Y909142*
X1166890Y890142D02*
Y897642D01*
X1172390Y903142*
Y905642*
X1177890Y911142*
Y918142*
X1180890Y921142*
X1203890*
X1208390Y916642*
X1218390*
X1220890Y914142*
X1239390*
X1244390Y909142*
Y908142*
X1161890Y890142D02*
Y895642D01*
X1170390Y904142*
Y906642*
X1175890Y912142*
Y919142*
X1179890Y923142*
X1204890*
X1209390Y918642*
X1219390*
X1221890Y916142*
X1243390*
X1248390Y911142*
X1177890Y891142D02*
Y894142D01*
X1184390Y900642*
X1177890Y891142D02*
X1189890D01*
X1192390Y893642*
X1211390*
X1213890Y896142*
X1221390*
X1222390Y897142*
X1229390*
X1231390Y895142*
X1238640*
X1243390Y899892*
X1245640*
X1246390Y900642*
X1257390*
X1186890Y880457D02*
Y885642D01*
X1193890Y892642*
X1212390*
X1214390Y894642*
X1224890*
X1176890Y880457D02*
X1177890D01*
X1171890D02*
Y885642D01*
X1173890Y887642*
Y891642*
X1183390Y901142*
Y910142*
X1166890Y880457D02*
Y886142D01*
X1168890Y888142*
Y892642*
X1170390Y894142*
X1173390*
X1177390Y898142*
X1181390Y902142*
Y908642*
X1161890Y880457D02*
Y887142D01*
X1164390Y889642*
Y896642*
X1171390Y903642*
Y906142*
X1176890Y911642*
Y918642*
X1180390Y922142*
X1204390*
X1208890Y917642*
X1218890*
X1221390Y915142*
X1240890*
X1246390Y909642*
X1156890Y880457D02*
Y888642D01*
X1159390Y891142*
Y894642*
X1169390Y904642*
Y907142*
X1174890Y912642*
Y919642*
X1179390Y924142*
X1205390*
X1209890Y919642*
X1219890*
X1222390Y917142*
X1245390*
X1248390Y914142*
X1216390Y886642D02*
Y880457D01*
X1216890*
X1196890Y887642D02*
X1198390D01*
X1201390Y890642*
X1214390*
X1215390Y891642*
X1238390*
X1243890Y897142*
X1261908*
X1262408Y896642*
X1264890*
X1266390Y895142*
X1231890Y880457D02*
Y886142D01*
X1232390Y886642*
X1233890*
X1221890Y880457D02*
Y886642D01*
X1223890Y888642*
X1242890*
X1249390Y895142*
X1252890*
X1211890Y880457D02*
Y885642D01*
X1214890Y888642*
X1215390*
X1216390Y889642*
X1242390*
X1244390Y891642*
Y893642*
X1206890Y880457D02*
Y886142D01*
X1210390Y889642*
X1214890*
X1215890Y890642*
X1238890*
X1240390Y892142*
X1241890*
X1270390Y890642D02*
X1272390D01*
X1274390Y892642*
X1276390*
X1250890Y891142D02*
X1257890D01*
X1260890Y894142*
X1263890*
X1266390Y888642D02*
Y880457D01*
X1266890*
X1246890Y888642D02*
Y890642D01*
X1249390Y893142*
X1253390*
X1254890Y894642*
X1257890*
X1255890Y889142D02*
Y880457D01*
X1256890*
X1261890D02*
Y887642D01*
X1275390Y901142*
X1281390*
X1283890Y898642*
Y895642*
X1284890Y894642*
X1287390*
X1304890Y912142*
Y919142*
X1246890Y880457D02*
Y886142D01*
X1247390Y886642*
X1248890*
X1241890Y880457D02*
Y886142D01*
X1242890Y887142*
X1244390*
X1236890Y880457D02*
Y886142D01*
X1237390Y886642*
X1238890*
X1291390Y889642D02*
Y887142D01*
X1291890Y886642*
Y880457*
X1286890D02*
Y891642D01*
X1287890Y892642*
X1289390*
X1281890Y880457D02*
Y889142D01*
X1284390Y891642*
X1276890Y880457D02*
Y885642D01*
X1278890Y887642*
Y897642*
X990390Y930142D02*
X993390D01*
X1002390Y930642D02*
Y927142D01*
X1003390*
X1011890Y931642D02*
X1015390Y935142D01*
X1020390*
X1022390Y933142*
Y929142*
X1023890Y927642*
X1041390*
X1044890Y931142*
X1069390*
X1070390Y932142*
X1071890*
X1009390Y933642D02*
X1012390D01*
X1015390Y936642*
X1024390*
X1027890Y940142*
X1057890*
X1065390Y947642*
Y957142*
X1067890Y959642*
X1072390*
X1027390Y936642D02*
X1028890Y935142D01*
X1034890*
X1037188Y937440*
X1040878*
X1042636Y935682*
X1071378*
X1071890Y935642*
X1111390Y904142D02*
X1117890D01*
X1121890Y908142*
Y932642*
X1113890Y906142D02*
X1117390D01*
X1120890Y909642*
Y953642*
X1101390Y899642D02*
X1106890D01*
X1108390Y898142*
X1120390*
X1122890Y900642*
Y957142*
X1108890Y922142D02*
Y1000142D01*
X1116390Y1007642*
X1103890Y925642D02*
X1104390D01*
X1105890Y927142*
Y930142*
X1099390Y899142D02*
Y901142D01*
X1107390Y909142*
Y919642*
X1099390Y899142D02*
X1101390Y897142D01*
X1102890*
X1138890Y921642D02*
Y911142D01*
X1140890Y909142*
X1138890Y921642D02*
X1145890Y928642D01*
X1159390*
X1160890Y930142*
Y933142*
X1168890Y941142*
Y961142*
X1144390Y921642D02*
Y916142D01*
X1146890Y913642*
X1144390Y921642D02*
X1148390Y925642D01*
X1162890*
X1181890Y944642*
X1116390Y908642D02*
X1119890Y912142D01*
Y950642*
X1135890Y930642D02*
Y947142D01*
X1141890Y953142*
Y962642*
X1143890Y964642*
X1145390*
X1146390Y963642*
X1149540*
X1135890Y930642D02*
X1140390Y926142D01*
X1140890Y921642D02*
Y912142D01*
X1142890Y910142*
Y906142*
X1140890Y921642D02*
X1146890Y927642D01*
X1159890*
X1161890Y929642*
Y932642*
X1170390Y941142*
Y952142*
X1171390Y953142*
Y962142*
X1142390Y921642D02*
Y914642D01*
X1144390Y912642*
Y911142*
X1142390Y921642D02*
X1147390Y926642D01*
X1160390*
X1162890Y929142*
Y932142*
X1172390Y941642*
Y945142*
X1183890Y956642*
X1144890Y904142D02*
Y908142D01*
X1146890Y910142*
Y913642*
X1133390Y917642D02*
Y914642D01*
X1133890Y914142*
X1154890Y923642D02*
X1157390D01*
X1158890Y922142*
Y919142*
X1159890Y918142*
X1162890*
X1164390Y919642*
Y924142*
X1180890Y940642*
X1183640*
X1185640Y942642*
Y945392*
X1188390Y948142*
X1191390*
X1194390Y951142*
X1161390Y920642D02*
Y922642D01*
X1180890Y942142*
X1182890*
X1184390Y943642*
Y945642*
X1189890Y951142*
X1155890Y906642D02*
X1160390D01*
X1161890Y908142*
X1167390*
X1172890Y913642*
Y920642*
X1178390Y926142*
X1206390*
X1210890Y921642*
X1222890*
X1182390Y935142D02*
Y933142D01*
X1185890Y929642*
X1200890*
X1202390Y931142*
X1182390Y935142D02*
X1183890Y936642D01*
Y938142*
X1159390Y911142D02*
X1168890D01*
X1171390Y913642*
Y920642*
X1173890Y923142*
Y927142*
X1174890Y928142*
X1207390*
X1207890Y927642*
X1213890*
X1180890Y912642D02*
Y916642D01*
X1182390Y918142*
X1202390*
X1206890Y913642*
X1216890*
X1219390Y911142*
X1233390*
X1236890Y907642*
X1180890Y912642D02*
X1183390Y910142D01*
X1179890Y917142D02*
Y911642D01*
X1182390Y909142*
X1179890Y917142D02*
X1181890Y919142D01*
X1202890*
X1207390Y914642*
X1217390*
X1219890Y912142*
X1235890*
X1239890Y908142*
X1178890Y911142D02*
Y917642D01*
X1181390Y920142*
X1203390*
X1207890Y915642*
X1217890*
X1220390Y913142*
X1238890*
X1242390Y909642*
Y906142*
X1178890Y911142D02*
X1181390Y908642D01*
X1167890Y913142D02*
X1170390Y915642D01*
Y921642*
X1172890Y924142*
Y928142*
X1181390Y936642*
X1175890Y926142D02*
X1176890Y927142D01*
X1206890*
X1210890Y923142*
X1214390*
X1215890Y924642*
Y928142*
X1216390Y928642*
Y930142*
X1159390Y916142D02*
X1162890D01*
X1163390Y915642*
X1167390*
X1169390Y917642*
Y922642*
X1171890Y925142*
Y929642*
X1181390Y939142*
X1182890*
X1183890Y938142*
X1181890Y913642D02*
Y915142D01*
X1182890Y916142*
X1181890Y913642D02*
X1184390Y911142D01*
Y900642*
X1192390Y914142D02*
Y911642D01*
X1194390Y909642*
Y903142*
X1197890Y899642*
X1207890*
X1188390Y914142D02*
Y912142D01*
X1189390Y911142*
Y901642*
X1193390Y897642*
X1209390*
X1211890Y900142*
X1219390*
X1220390Y901142*
X1232890*
X1233890Y900142*
X1186390Y916142D02*
Y912642D01*
X1188390Y910642*
Y900142*
X1191890Y896642*
X1209890*
X1212390Y899142*
X1219890*
X1220890Y900142*
X1230890*
X1232890Y898142*
X1235390*
X1236890Y899642*
X1184390Y914142D02*
Y912642D01*
X1187390Y909642*
Y899642*
X1191390Y895642*
X1210390*
X1212890Y898142*
X1220390*
X1221390Y899142*
X1230390*
X1232390Y897142*
X1237390*
X1243390Y903142*
X1245890*
X1247890Y905142*
X1262390*
X1194390Y916142D02*
Y912142D01*
X1200890Y905642*
X1207890*
X1210390Y908142*
X1216890*
X1220890Y904142*
X1231890*
X1156630Y938542D02*
X1156740Y938432D01*
Y932142*
X1156630Y938542D02*
X1164790D01*
X1167390Y941142*
Y953642*
X1213890Y934292D02*
X1214040Y934142D01*
X1218890*
X1228240Y927642D02*
X1240390D01*
X1247390Y920642*
X1252390*
X1259890Y913142*
X1268890*
X1274390Y907642*
X1278390*
X1233740Y921642D02*
X1244390D01*
X1247390Y918642*
X1251890*
X1258890Y911642*
X1267390*
X1269890Y909142*
Y908142*
X1274390Y903642*
X1283890*
X1286890Y900642*
Y897642*
X1208390Y903642D02*
X1210890Y901142D01*
X1218890*
X1219890Y902142*
X1233390*
X1235390Y904142*
X1245390*
X1248890Y907642*
X1222890Y921642D02*
X1227040D01*
X1232890Y936642D02*
X1238390D01*
X1250390Y924642*
X1264390*
X1216390Y930142D02*
X1217890Y931642D01*
X1238390*
X1248390Y921642*
X1253890*
X1260890Y914642*
X1270890*
X1275390Y910142*
X1280890*
X1282890Y912142*
Y917292*
X1198390Y916142D02*
Y913385D01*
X1200133Y911642*
X1215890*
X1221390Y906142*
X1234890*
X1200390Y914142D02*
X1204890D01*
X1206390Y912642*
X1216390*
X1218890Y910142*
X1231390*
X1232890Y908642*
X1217890Y927642D02*
X1221540D01*
X1213890D02*
Y934292D01*
X1221890Y936642D02*
X1225890D01*
X1229390Y933142*
X1238890*
X1248890Y923142*
X1254890*
X1259890Y918142*
X1263390*
X1196390Y914142D02*
Y912142D01*
X1200390Y908142*
X1206390*
X1252390D02*
X1262390D01*
X1275890Y917292D02*
X1277890D01*
Y913642*
X1275890Y917292D02*
X1279240Y920642D01*
X1290890*
X1294390Y924142*
Y930642*
X1295890Y932142*
X1297890*
X1282890Y917292D02*
Y915642D01*
X1286390*
X994390Y941142D02*
Y942642D01*
X995390Y943642*
X997890*
X1018890Y966142D02*
Y969142D01*
X1021890Y972142*
X1061890*
X1065890Y976142*
Y996642*
X1067890Y998642*
X1015390Y963642D02*
X1020890D01*
X1028390Y971142*
X1066390*
X1068890Y973642*
Y981142*
X1071390Y983642*
X1030390Y955142D02*
X1033390D01*
X1021390D02*
Y959642D01*
X1011390Y962642D02*
Y959642D01*
Y955142*
Y949392D02*
Y955142D01*
X1021390Y949392D02*
Y955142D01*
X1000890Y971642D02*
Y975142D01*
X999390Y962642D02*
Y961642D01*
X1002390Y958642*
Y952642*
X995390D02*
X997890D01*
X999390Y948642D02*
X1002390D01*
X1016890Y955642D02*
Y961142D01*
X1017890Y962142*
X1020890*
X1028890Y970142*
X1067890*
X1071390Y973642*
Y978642*
X1018890Y959642D02*
X1021390D01*
X1013390Y965642D02*
Y962142D01*
X1014890Y960642*
Y953642*
X1013390Y965642D02*
X1020890Y973142D01*
X1060390*
X1063890Y976642*
Y1003792*
X1064390Y1004292*
X1048890Y947642D02*
Y942642D01*
X1051390*
X1053390Y944642*
Y947142*
X1048890Y951642D02*
X1049390Y952142D01*
X1053390*
X1049390Y957142D02*
X1052390D01*
X1049390Y962142D02*
X1052390D01*
X1072390Y954642D02*
X1079890D01*
Y954142*
X1113890Y957142D02*
Y936142D01*
X1117890Y932142*
Y927642*
X1113890Y957142D02*
X1116890Y960142D01*
X1112890Y974642D02*
Y934642D01*
X1115890Y931642*
Y925142*
X1116890Y924142*
Y919642*
X1112890Y974642D02*
X1116390Y978142D01*
X1117890Y956642D02*
X1121390D01*
X1121890Y956142*
Y932642*
X1117890Y952642D02*
X1119890Y950642D01*
Y954642D02*
X1120890Y953642D01*
X1121390Y958642D02*
X1122890Y957142D01*
X1119390Y960642D02*
X1122890D01*
X1123890Y959642*
X1121390Y962642D02*
X1123390D01*
X1124890Y961142*
X1119390Y964642D02*
X1123390D01*
X1125890Y962142*
X1121390Y966642D02*
X1123890D01*
X1126890Y963642*
X1121390Y974642D02*
Y970642D01*
X1127890Y964142*
Y895642*
X1119390Y976642D02*
X1122390D01*
X1123890Y975142*
Y969642*
X1128890Y964642*
X1121390Y978642D02*
X1123390D01*
X1124890Y977142*
Y970142*
X1129890Y965142*
X1142890Y977492D02*
Y979642D01*
X1146390*
X1142890Y977492D02*
Y986642D01*
X1146390Y990142*
X1164390*
X1170390Y996142*
X1148040Y955642D02*
X1149150D01*
Y948742*
X1148040Y955642D02*
Y958642D01*
X1149540Y960142*
X1160890*
X1162390Y961642*
Y965142*
X1163890Y966642*
X1170890*
X1171890Y965642*
Y964142*
X1177390Y958642*
X1181890*
X1186390Y963142*
Y965437*
X1188594Y967642*
X1142390Y939292D02*
Y938542D01*
X1149150*
X1144390Y962642D02*
Y952142D01*
X1146390Y950142*
Y945142*
X1149150Y942382*
Y938542*
Y969542D02*
Y964032D01*
X1149540Y963642*
X1149150Y969542D02*
Y973402D01*
X1149390Y973642*
X1186890Y961142D02*
X1188390Y962642D01*
Y964642*
X1200890Y977142*
X1227890*
X1239890Y989142*
X1241890*
X1194390Y951142D02*
X1194540D01*
Y955142*
X1184390Y952142D02*
Y953642D01*
X1189390Y958642*
Y964142*
X1201390Y976142*
X1228390*
X1239390Y987142*
X1263390*
X1266890Y990642*
X1167390Y969642D02*
X1168890Y971142D01*
Y979642*
X1170890Y977642D02*
X1172890Y975642D01*
X1175390*
X1178890Y972142*
Y966142*
X1181390Y963642*
Y960642*
X1170890Y977642D02*
Y986642D01*
X1174890Y990642*
X1188594Y967642D02*
X1199594Y978642D01*
X1203390*
X1208890Y984142*
Y987642*
X1211390Y990142*
X1216890*
X1166890Y958642D02*
Y954142D01*
X1167390Y953642*
X1182890Y948642D02*
X1185890D01*
X1186890Y949642*
Y954142*
X1190390Y957642*
Y963642*
X1201890Y975142*
X1228890*
X1239390Y985642*
X1287390*
X1291890Y990142*
X1162390Y970792D02*
X1165390D01*
X1165890Y971292*
Y982142*
X1167390Y983642*
X1159390Y948642D02*
Y948742D01*
X1162890*
Y948992*
X1159390Y948642D02*
Y952642D01*
X1164390Y957642*
Y964642*
X1168890D02*
X1171390Y962142D01*
X1183390Y963142D02*
X1184890Y964642D01*
Y968642*
X1195890Y979642*
X1202390*
X1205890Y983142*
Y990142*
X1156630Y969542D02*
X1162390D01*
Y970792*
X1156630Y948742D02*
X1159390D01*
Y948642*
X1204890Y955142D02*
X1208540D01*
X1205390Y951142D02*
X1207390D01*
X1207890Y951642*
X1212890*
X1214890Y949642*
X1216390*
X1201240Y955142D02*
X1204890D01*
X1201390Y966642D02*
Y970142D01*
X1205390Y974142*
X1229390*
X1232390Y977142*
X1266890*
X1271890Y972142*
Y967642*
X1283390Y956142*
X1286390*
X1201240Y961642D02*
Y966492D01*
X1201390Y966642*
X1213890Y940992D02*
X1215540Y942642D01*
X1222390*
X1223890Y941142*
X1236390*
X1250890Y926642*
X1269890*
X1272390Y929142*
X1277890*
X1200890Y948142D02*
X1202390D01*
X1203890Y946642*
X1205890*
X1208390Y949142*
X1212390*
X1215390Y946142*
X1223390*
X1224390Y945142*
X1246390*
X1249390Y942142*
X1268890*
X1211890Y945142D02*
X1213390D01*
X1214390Y944142*
X1222390*
X1224390Y942142*
X1236890*
X1250890Y928142*
X1262890*
X1264390Y929642*
X1208890Y947142D02*
X1212890D01*
X1214890Y945142*
X1222890*
X1223890Y944142*
X1240890*
X1253390Y931642*
X1262390*
X1197390Y951142D02*
X1201890D01*
X1204390Y948642*
X1206149*
X1207649Y950142*
X1212890*
X1215890Y947142*
X1223890*
X1224890Y946142*
X1255390*
X1257390Y944142*
X1260390*
X1205390Y965142D02*
Y968642D01*
X1209890Y973142*
X1229890*
X1232890Y976142*
X1263890*
X1270390Y969642*
Y966642*
X1284890Y952142*
Y949142*
X1287890Y946142*
X1293390*
X1218390Y965642D02*
Y968142D01*
X1220390Y970142*
X1231390*
X1234390Y973142*
X1255390*
X1267390Y961142*
X1269890*
X1215890Y967642D02*
Y969142D01*
X1217890Y971142*
X1230890*
X1233890Y974142*
X1258390*
X1265890Y966642*
X1267390*
X1220890Y967142D02*
X1222890Y969142D01*
X1231890*
X1234890Y972142*
X1252390*
X1262390Y962142*
X1211890Y967642D02*
Y970642D01*
X1213390Y972142*
X1230390*
X1233390Y975142*
X1260390*
X1264390Y971142*
X1231240Y950642D02*
X1233890D01*
X1235890Y948642*
X1246390D02*
X1282890D01*
X1297890Y933642*
Y932142*
X1243390Y950642D02*
X1243640D01*
Y955142*
X1244040Y955542*
Y963642*
X1306740Y949142D02*
X1310890D01*
X1306740Y957142D02*
X1310890D01*
X1306740Y941142D02*
X1310890D01*
X1282890Y939992D02*
Y943642D01*
X1276390Y939992D02*
X1277890D01*
Y943642*
X1028390Y994142D02*
Y991142D01*
X1029640*
X1015890D02*
X1019390D01*
X1064390Y1004292D02*
X1067040Y1001642D01*
X1069890*
X1070890Y1005142D02*
X1072890Y1003142D01*
X1071390Y997642D02*
X1072890Y999142D01*
Y1003142*
X1110890Y995642D02*
Y926642D01*
X1111890Y925642*
Y919642*
X1110890Y995642D02*
X1116390Y1001142D01*
X1111890Y980142D02*
Y931142D01*
X1113890Y929142*
Y924142*
X1114390Y923642*
Y919642*
X1111890Y980142D02*
X1116390Y984642D01*
X1128390Y1017142D02*
X1130390D01*
X1131390Y1016142*
Y997642*
X1137890Y991142*
Y987642*
X1128890Y1013142D02*
Y1008142D01*
X1129890Y1007142*
Y996642*
X1134890Y991642*
Y982142*
X1138390Y978642*
X1119390Y980642D02*
X1123890D01*
X1125890Y978642*
Y970642*
X1130890Y965642*
Y894142*
X1121390Y982642D02*
X1124390D01*
X1126890Y980142*
Y971142*
X1131890Y966142*
Y928642*
X1135890Y924642*
Y896142*
X1119390Y984642D02*
X1124890D01*
X1127890Y981642*
Y971642*
X1132890Y966642*
Y929642*
X1136890Y925642*
X1121390Y986642D02*
X1124890D01*
X1128890Y982642*
Y972142*
X1133890Y967142*
Y930642*
X1137890Y926642*
X1125890Y1014642D02*
Y996642D01*
X1132890Y989642*
Y974142*
X1140890Y966142*
Y964642*
X1151390Y1006142D02*
Y1011142D01*
X1146390*
X1151390Y995642D02*
X1146390D01*
Y1002642*
Y979642D02*
X1146990Y979742D01*
X1149150*
X1134890Y1005142D02*
X1146830D01*
X1151390Y1000582*
X1161890*
X1123890Y1016142D02*
Y996642D01*
X1131890Y988642*
Y973642*
X1138890Y966642*
Y958642*
X1127890Y1003142D02*
Y996642D01*
X1133890Y990642*
Y976142*
X1135390Y974642*
X1138890*
X1121890Y1018642D02*
Y996142D01*
X1130890Y987142*
Y973142*
X1136890Y967142*
Y956642*
X1138890Y954642*
X1167390Y983642D02*
Y988142D01*
X1170890Y991642*
X1178890Y1010142D02*
Y1008762D01*
X1179390Y1008262*
X1183890*
X1178890Y1010142D02*
X1179570Y1010822D01*
X1183890*
X1178010Y996142D02*
Y997142D01*
X1178890Y998022*
X1183890*
X1178010Y996142D02*
X1178890Y995262D01*
X1183690*
X1183890Y995462*
X1194390Y1004642D02*
Y1011142D01*
X1155890Y1005642D02*
X1155950Y1005702D01*
X1161890*
X1183890Y995462D02*
X1184070Y995642D01*
X1190390*
X1183890Y1000582D02*
X1188390D01*
X1189920Y1002112*
X1196860*
X1199890Y1005142*
X1209890*
X1183890Y1005702D02*
X1188830D01*
X1188890Y1005642*
X1183890Y1010822D02*
X1190390D01*
Y1011142*
X1161890Y1010822D02*
X1166210D01*
X1166890Y1010142*
Y1008762*
X1161890Y1008262D02*
X1166390D01*
X1166890Y1008762*
X1161890Y998022D02*
X1162010Y998142D01*
X1166570*
X1167070Y997642*
X1161890Y995462D02*
X1166390D01*
X1167070Y996142*
Y997642*
X1194390Y995642D02*
X1199390D01*
X1194390Y1011142D02*
X1199390D01*
X1155390D02*
X1155710Y1010822D01*
X1161890*
X1155390Y995642D02*
X1161710D01*
X1161890Y995462*
X1156630Y979742D02*
Y985642D01*
X1156740*
X1160890*
X1228890Y1001142D02*
X1228950Y1001082D01*
X1234890*
X1224390Y1011642D02*
Y1015142D01*
X1227390Y1018142*
X1253890*
X1228390Y1011642D02*
X1228710Y1011322D01*
X1234890*
X1224390Y995642D02*
Y993142D01*
X1226390Y991142*
X1234890*
X1228390Y995642D02*
X1234570D01*
X1234890Y995962*
X1219890Y1011642D02*
X1224390D01*
X1219890Y995642D02*
X1224390D01*
X1199390D02*
Y999142D01*
X1202390Y1002142*
X1209890*
X1212890Y979642D02*
X1213040D01*
Y983642*
X1251390Y1009142D02*
Y1010322D01*
X1252390Y1011322*
X1256890*
X1251390Y1009142D02*
X1251890Y1008642D01*
X1256770*
X1256890Y1008762*
Y1006202D02*
X1279890D01*
X1280950Y1005142*
X1284890*
X1256890Y1011322D02*
X1257070Y1011142D01*
X1263890*
X1234890Y1011322D02*
X1235070Y1011142D01*
X1239390*
X1239890Y1010642*
X1234890Y1008762D02*
X1239390D01*
X1239890Y1009262*
Y1010642*
X1234890Y1006202D02*
X1243390D01*
X1244860Y1007672*
Y1012612*
X1247390Y1015142*
X1255390*
X1256890Y1016642*
X1259890*
X1234890Y998522D02*
X1235010Y998642D01*
X1239390*
X1240390Y997642*
X1234890Y995962D02*
X1239390D01*
X1240390Y996962*
Y997642*
X1267890Y1011142D02*
X1272890D01*
Y1015142*
X1273890Y1016142*
X1277390*
X1119890Y1020642D02*
Y995642D01*
X1129890Y985642*
Y972642*
X1134890Y967642*
Y954642*
X1136890Y952642*
X982718Y901176D02*
X979437D01*
X982718D02*
Y902199D01*
X982562Y902539*
X982405Y902653*
X982093Y902767*
X981624*
X981312Y902653*
X981155Y902539*
X980999Y902199*
Y901176*
X982718Y903789D02*
X979437D01*
X981155D02*
X981468Y904017D01*
X981624Y904244*
Y904585*
X981468Y904812*
X981155Y905039*
X980687Y905153*
X980374*
X979905Y905039*
X979593Y904812*
X979437Y904585*
Y904244*
X979593Y904017*
X979905Y903789*
G54D230*
X1071890Y880457D02*
Y886642D01*
X1061890Y880457D02*
Y886642D01*
X1091890Y880457D02*
Y886642D01*
X1081890Y880457D02*
Y886642D01*
X1095390Y912642D02*
Y920642D01*
X1145890Y932142D02*
X1150040D01*
X1152890Y938542D02*
Y942142D01*
X1275890Y923992D02*
X1282890D01*
X1286240*
X1286390Y924142*
X1308740Y923642D02*
Y928492D01*
X1308890Y928642*
X1102890Y949642D02*
X1104390D01*
X1105390Y950642*
Y953642*
X1102390Y973642D02*
X1104390D01*
X1105890Y975142*
Y979142*
X1102390Y964642D02*
X1104390D01*
X1105390Y963642*
Y957642*
X1102390Y940642D02*
X1104390D01*
X1105890Y939142*
Y934142*
X1142390Y945992D02*
Y950142D01*
X1152390Y975642D02*
Y979742D01*
X1152890*
X1139390Y971142D02*
Y970792D01*
X1142890*
X1152890Y969542D02*
Y973142D01*
Y948742D02*
Y952142D01*
X1181740Y982642D02*
Y971142D01*
X1182740Y970142*
Y967792*
X1182890Y967642*
X1194540Y961642D02*
X1195890D01*
Y966142*
X1162390Y977492D02*
Y981642D01*
X1154740Y955642D02*
X1158390D01*
X1159390Y942142D02*
X1159540Y942292D01*
X1162890*
X1156240Y963642D02*
Y962642D01*
X1160390*
X1204390Y941142D02*
X1204540Y940992D01*
X1207890*
X1220390Y950642D02*
X1224540D01*
X1196240Y943142D02*
X1199890D01*
X1236390Y969642D02*
Y965492D01*
X1250740Y963642D02*
X1254890D01*
X1289390Y973292D02*
X1295240D01*
X1295390Y973142*
X1028390Y990642D02*
Y997142D01*
Y994142*
Y997142D02*
Y999142D01*
X1035890Y1008642D02*
X1042040D01*
X1041640Y1016642D02*
Y1009042D01*
X1042040Y1008642*
X1060890Y1011142D02*
Y1010992D01*
X1064390*
X1105890Y1006642D02*
Y1012642D01*
X1102390Y988642D02*
X1103890D01*
X1105890Y986642*
Y983142*
X1102390Y997642D02*
X1104390D01*
X1105890Y999142*
Y1002642*
X1138390Y995642D02*
X1142390D01*
X1138390Y1011142D02*
X1142390D01*
X1144890Y984642D02*
X1150040D01*
Y985642*
X1173890Y979142D02*
Y982642D01*
X1175040*
X1178390Y1003142D02*
X1183890D01*
X1161890D02*
X1167390D01*
X1181740Y982642D02*
X1190640D01*
Y983642*
X1215890Y1002142D02*
Y995642D01*
Y1005142D02*
Y1011642D01*
X1203390Y995642D02*
X1206390D01*
X1203390Y1011142D02*
X1206390D01*
X1219740Y983642D02*
X1223890D01*
X1198140D02*
Y985642D01*
X1202890*
X1251890Y1001142D02*
X1251950Y1001082D01*
X1256890*
X1251890Y998642D02*
X1252010Y998522D01*
X1256890*
X1251890Y1003642D02*
X1256890D01*
X1234890D02*
X1240890D01*
X1276890Y1011142D02*
X1279890D01*
X1308390Y979492D02*
X1310890Y981992D01*
Y986642*
G54D231*
X623890Y520342D02*
X1659890D01*
Y1225142*
X623890*
Y520342*
X1225390D02*
X1659890D01*
Y715342*
X1225390*
Y520342*
X1224890Y660342D02*
X1659890D01*
Y520342*
X1224890*
Y660342*
Y550342D02*
X1659890D01*
Y520342*
X1224890*
Y550342*
X1384890*
Y520342*
X1224890*
Y550342*
Y660342D02*
X1659890D01*
Y715342*
X1224890*
Y660342*
Y590342D02*
X1659890D01*
Y660342*
X1224890*
Y590342*
X1524890Y550342D02*
X1659890D01*
Y590342*
X1524890*
Y550342*
X790390Y550842D02*
X995890D01*
Y520342*
X790390*
Y550842*
X995890Y520342D02*
X1225390D01*
Y550842*
X995890*
Y520342*
X790390Y660842D02*
X1225390D01*
Y550842*
X790390*
Y660842*
G54D233*
X1074390Y912642D02*
X1079390D01*
G54D235*
X1019390Y991142D03*
G54D236*
X1029640D03*
G54D237*
X983484Y909296D02*
X979546D01*
X983484Y908342D02*
Y910251D01*
Y911478D02*
X979546D01*
X983484D02*
Y913251D01*
X981609Y911478D02*
Y912569D01*
X979546Y911478D02*
Y913251D01*
X983484Y914478D02*
X979546Y916387D01*
X983484D02*
X979546Y914478D01*
X983484Y918433D02*
X983296Y918024D01*
X982734Y917751*
X981796Y917614*
X981234*
X980296Y917751*
X979734Y918024*
X979546Y918433*
Y918705*
X979734Y919114*
X980296Y919387*
X981234Y919524*
X981796*
X982734Y919387*
X983296Y919114*
X983484Y918705*
Y918433*
Y921433D02*
X983296Y921024D01*
X982921Y920887*
X982546*
X982171Y921024*
X981984Y921296*
X981796Y921842*
X981609Y922251*
X981234Y922524*
X980859Y922660*
X980296*
X979921Y922524*
X979734Y922387*
X979546Y921978*
Y921433*
X979734Y921024*
X979921Y920887*
X980296Y920751*
X980859*
X981234Y920887*
X981609Y921160*
X981796Y921569*
X981984Y922114*
X982171Y922387*
X982546Y922524*
X982921*
X983296Y922387*
X983484Y921978*
Y921433*
Y924705D02*
X983296Y924296D01*
X982734Y924024*
X981796Y923887*
X981234*
X980296Y924024*
X979734Y924296*
X979546Y924705*
Y924978*
X979734Y925387*
X980296Y925660*
X981234Y925796*
X981796*
X982734Y925660*
X983296Y925387*
X983484Y924978*
Y924705*
X984925Y903642D02*
G75*
G03X984925I-3535J0D01*
G01X978890Y906142D02*
X983890Y901142D01*
G54D244*
X1308390Y972792D02*
X1313390D01*
Y972642*
X1316390Y969642*
X1299890Y963642D02*
X1300040Y963492D01*
Y957142*
Y941142D02*
Y949142D01*
Y957142*
X1289390Y979992D02*
X1293740D01*
X1293890Y980142*
G54D247*
X1079390Y912642D03*
X1095390D03*
G74*
X0Y0D02*
M02*
