%
T1C.008F0S0
X106189Y088664
X107189Y088664
X108189Y088664
X109189Y088664
X109239Y089264
X109439Y089414
X109639Y089514
X109889Y089614
X110139Y089964
X110289Y089714
X111139Y090414
X111189Y090064
X111389Y090614
X111639Y090864
X112089Y090414
X114089Y090914
X114139Y090064
X114289Y090614
X114439Y091114
X114489Y090414
X115039Y089764
X115289Y089064
X115589Y090664
X115939Y091114
X116189Y089014
X116689Y089014
X117189Y088864
X117589Y088914
X117789Y088664
X117789Y089114
X117839Y090814
X117989Y088914
X118689Y089464
X119189Y088764
X119689Y088764
X119739Y090514
X120189Y088664
X120639Y090814
X120789Y089964
X120839Y090364
X121339Y090414
X121639Y088664
X121789Y090314
X122489Y089464
X122539Y088664
X122789Y088664
X123189Y090414
X123289Y090864
X123389Y088664
X123389Y090014
X123489Y090614
X123689Y090764
X123689Y089964
X123889Y088664
X123989Y090814
X124189Y089214
X124239Y090614
X124439Y088714
X124439Y089364
X124439Y090814
X124639Y090964
X124689Y088864
X124839Y091114
X124889Y088664
X124889Y090764
X125089Y089114
X125239Y090814
X125289Y089514
X125289Y088714
X125589Y088914
X125739Y090064
X125789Y089464
X126239Y090064
X126239Y090514
X126239Y090814
X126389Y089414
X126439Y089864
X126639Y089514
X126639Y088864
X127039Y089064
X127239Y088714
X127639Y089264
X127689Y088814
X127839Y090764
X127889Y089764
X128439Y089164
X128689Y089764
X128939Y089264
X129139Y088964
X131139Y091364
X130889Y092864
X130489Y091914
X129789Y092864
X129789Y093214
X129689Y091664
X128639Y092414
X128639Y091564
X128289Y092864
X127789Y092914
X127789Y091364
X126439Y092964
X126439Y092464
X126339Y091814
X126239Y093164
X124939Y091664
X124839Y091414
X122289Y092164
X121789Y092764
X121639Y093014
X121389Y092764
X120639Y093014
X120389Y093564
X120239Y093114
X120039Y091414
X119839Y091614
X119639Y091414
X119439Y091614
X119239Y091414
X118839Y091414
X118639Y091614
X118539Y093464
X118439Y091414
X118289Y091614
X117589Y092614
X116839Y093464
X116789Y091314
X116139Y092064
X115939Y091614
X115489Y092364
X114589Y093214
X114039Y092614
X113339Y091764
X111789Y092764
X111689Y091964
X111439Y091964
X111189Y091964
X110889Y092214
X110739Y091964
X110539Y092114
X110239Y093564
X110239Y092214
X110239Y093064
X110239Y092564
X109539Y092064
X107439Y091264
X107189Y093564
X107189Y092814
X107189Y093214
X106539Y093314
X103939Y093514
X103439Y093114
X102489Y093264
X101939Y093214
X101539Y093264
X101189Y093164
X100939Y093364
X100539Y093014
X100239Y093064
X100139Y092114
X099439Y093514
X099039Y093014
X099039Y092614
X099439Y095714
X099439Y094714
X099439Y094114
X099539Y095264
X099939Y094864
X100039Y093914
X100489Y095964
X100489Y095464
X100589Y093964
X100639Y094364
X101489Y095364
X101689Y094214
X101689Y095564
X101889Y095964
X102739Y093664
X102789Y095964
X102789Y095514
X102939Y094714
X102939Y094314
X102989Y093764
X103039Y095914
X103039Y095514
X104006Y095897
X104189Y094264
X105239Y095714
X105339Y095214
X105339Y094714
X105939Y095714
X105939Y095214
X105939Y094714
X106539Y094264
X107189Y094064
X107239Y095464
X107239Y095964
X107789Y094664
X107789Y094364
X110239Y095964
X110239Y094064
X110289Y094964
X111689Y096014
X111789Y095664
X111789Y095264
X111939Y096064
X111989Y095464
X112139Y095864
X113689Y095264
X113889Y095864
X113889Y095464
X114239Y095014
X115289Y094214
X115289Y095214
X115839Y095564
X115939Y094864
X115939Y094214
X116689Y095864
X116889Y096114
X118139Y093664
X118139Y096064
X118189Y094464
X118289Y094864
X118389Y095664
X118439Y095214
X118689Y096114
X118989Y095114
X119439Y095114
X119739Y095114
X119739Y093914
X119989Y094314
X120089Y094814
X120439Y094114
X120489Y095514
X120539Y095114
X120889Y094714
X121189Y094514
X121639Y094964
X121889Y094064
X121939Y095514
X122039Y095064
X122189Y093664
X123289Y093664
X123589Y094864
X123789Y095114
X124339Y095064
X124639Y094864
X125639Y095514
X126039Y094414
X126889Y094214
X126989Y096114
X127789Y094364
X128289Y094364
X128639Y095614
X129339Y094614
X129439Y094114
X131089Y094914
X131089Y094114
X131089Y095714
X131639Y096964
X129989Y096364
X129539Y097314
X129389Y098014
X128289Y096714
X128289Y098364
X126739Y096664
X126439Y097114
X126239Y096214
X125489Y096364
X123989Y097964
X123639Y096964
X122889Y098314
X122389Y098364
X122089Y096714
X121939Y096164
X121839Y096564
X121589Y096764
X121289Y097964
X121189Y096764
X120889Y096714
X120839Y098014
X120539Y096514
X120289Y098564
X120139Y096664
X119589Y096614
X118859Y096764
X118339Y096314
X118289Y096764
X117539Y096964
X117389Y097914
X116889Y096464
X116889Y097964
X116739Y096964
X116739Y098364
X116439Y096464
X116239Y098164
X116089Y098564
X116039Y096264
X115289Y097314
X115239Y097564
X114939Y097364
X114639Y097964
X114489Y098464
X114439Y096264
X114089Y096464
X113939Y097114
X113889Y097464
X113839Y097864
X112139Y097464
X112139Y097864
X112139Y096664
X112139Y098264
X112139Y096264
X111939Y096464
X111939Y098064
X111939Y097664
X111939Y098464
X111639Y097814
X111639Y098464
X110239Y097864
X110239Y098364
X110239Y097364
X110239Y096464
X108039Y096864
X107539Y097014
X107189Y096464
X107139Y098364
X107139Y097864
X105939Y096214
X105339Y098314
X105239Y096214
X104539Y096514
X103989Y096214
X103939Y096464
X103139Y096714
X102739Y096564
X102339Y098214
X101939Y097464
X101889Y096614
X101539Y096364
X101439Y098214
X101139Y096264
X100939Y096614
X100739Y096464
X100539Y097714
X100539Y096614
X100389Y098514
X100389Y098264
X100089Y097514
X099989Y096614
X099939Y096264
X099497Y096564
X101589Y099114
X102839Y099914
X103089Y100264
X103589Y100864
X104189Y099614
X104739Y100464
X104889Y099614
X105039Y099014
X105739Y099414
X106089Y101114
X106789Y099864
X106989Y100164
X107089Y098764
X107139Y099764
X107539Y099164
X110239Y100264
X110239Y098864
X110239Y099764
X110239Y100764
X111639Y100764
X111639Y100114
X112139Y098664
X112789Y100314
X113489Y100514
X113789Y098764
X113839Y099564
X113839Y101114
X114639Y100264
X115139Y100614
X115589Y100564
X116739Y100314
X117039Y099614
X117089Y099164
X117489Y099064
X117839Y100314
X118889Y100564
X119439Y100464
X120589Y099014
X120639Y099564
X120639Y101114
X120989Y100214
X120989Y100514
X121589Y100514
X121589Y100214
X121689Y099014
X122889Y100114
X123489Y099114
X124089Y100364
X124189Y098914
X125189Y100364
X125189Y099864
X125189Y100114
X126689Y099064
X127989Y101114
X128489Y100514
X129189Y099014
X131089Y098664
X127739Y101614
X125989Y101664
X125389Y101814
X112889Y101314
X112839Y101714
X112589Y101464
X112389Y101614
X112189Y101864
X111989Y102064
X110589Y101264
X106989Y101264
X106089Y101664
X103589Y101214
X103589Y101564
T2C.028F197S55
X105989Y098764
T3C.036F197S55
X105989Y098014
X127589Y097914
X127589Y097014
X109789Y101864
X107739Y101864
T4C.036F197S55
X1Y1
X101378Y1
M30
