%
T1C.008F000S000
X097878Y094069
X099622Y094215
X098298Y094609
X099622Y094615
X098022Y094895
X099173Y095202
X099262Y095452
X099502Y095735
X098673Y095902
X098022Y095935
X099523Y096402
X099182Y096615
X099222Y097135
X099340Y097960
X099880Y098680
X098020Y098860
X098222Y100135
X100360Y100360
X098382Y100655
X100342Y100695
X100300Y101100
X101182Y099815
X101942Y099655
X102542Y099615
X101942Y099455
X102382Y099295
X101800Y098380
X100542Y097735
X102022Y097415
X102542Y097375
X100542Y097255
X101622Y097255
X102262Y097135
X102723Y096802
X101702Y096775
X101702Y096295
X100502Y096295
X102742Y096295
X102723Y095802
X101798Y095789
X100523Y095602
X100942Y094895
X100523Y094402
X100998Y094189
X101598Y094189
X102018Y094189
X101725Y091237
X102225Y091237
X101725Y090187
X102225Y090187
X102525Y089787
X101375Y089787
X102225Y089087
X101725Y089087
X101560Y083800
X101560Y083140
X100720Y082420
X101560Y082240
X101560Y081580
X102051Y081066
X102640Y080920
X102460Y080620
X101331Y080526
X100971Y080526
X101571Y080406
X102460Y080320
X101811Y080286
X101151Y080286
X101620Y080140
X104260Y080080
X103720Y080320
X104920Y080320
X104380Y080320
X103000Y080980
X103780Y081280
X104020Y081280
X103900Y081880
X104140Y081880
X105280Y081880
X103300Y082000
X103600Y082360
X104920Y082600
X102880Y082720
X104920Y082840
X103600Y083080
X103300Y083380
X105280Y083560
X103900Y084040
X103540Y084100
X104680Y084820
X104200Y084940
X102940Y085000
X102940Y085240
X104200Y085240
X104560Y085480
X104560Y086440
X104660Y087100
X104310Y088200
X104811Y088206
X103731Y088446
X103131Y088866
X103551Y089226
X103311Y089526
X104333Y090185
X103911Y090426
X104033Y090905
X104813Y091145
X103600Y093920
X102978Y093949
X103200Y094100
X105138Y094129
X104102Y094215
X104073Y094552
X105138Y094669
X104102Y095015
X105130Y095140
X103742Y095295
X104982Y095615
X103973Y095752
X105023Y096602
X105138Y096889
X105142Y097252
X103342Y097335
X103822Y097375
X102982Y097375
X104742Y097455
X104023Y097752
X104386Y098389
X103622Y098415
X102982Y098415
X103342Y098455
X105182Y098935
X103702Y099655
X104862Y099655
X103422Y100015
X102950Y100300
X102950Y100550
X105102Y100655
X104142Y100735
X104623Y100802
X102942Y100815
X103423Y101502
X106780Y102580
X107020Y102580
X106073Y102152
X106780Y100300
X107020Y100300
X106123Y099752
X105902Y098152
X106382Y097935
X105662Y097895
X105982Y097175
X105582Y097135
X105498Y096409
X106108Y096339
X106108Y095839
X106088Y094939
X106098Y094429
X105798Y094189
X106068Y093439
X107261Y090686
X107211Y090186
X107211Y089936
X107211Y089636
X107361Y089136
X107761Y088886
X106161Y088636
X107561Y088206
X106210Y088010
X106130Y087730
X107060Y087560
X106870Y087310
X107560Y086900
X106570Y086900
X106373Y086585
X107393Y086585
X107750Y085950
X106373Y085265
X107393Y085265
X107140Y085060
X107140Y084820
X106480Y083920
X106060Y083860
X106000Y083200
X107140Y082900
X107140Y082660
X106000Y082240
X106000Y081580
X107780Y081160
X106900Y081160
X106720Y080560
X107440Y080260
X107800Y080260
X106840Y080260
X106060Y080140
X106540Y080140
X108400Y080260
X108760Y080320
X107980Y080440
X109120Y080560
X107980Y080680
X108220Y081040
X108940Y081040
X108700Y081040
X108460Y081040
X108270Y082090
X108580Y082120
X108880Y082120
X108630Y082420
X108940Y082420
X109720Y082780
X108700Y082780
X107920Y082780
X108620Y083170
X108940Y083200
X108270Y083460
X108700Y083740
X108700Y083980
X109120Y085120
X109120Y085480
X109420Y085840
X109060Y086020
X109120Y086440
X108880Y087520
X108411Y088446
X108211Y088886
X109411Y089136
X108211Y089386
X109411Y089636
X108361Y089936
X109411Y090186
X108411Y090426
X109761Y091136
X108761Y091186
X108363Y091197
X109761Y091586
X109711Y093236
X109061Y093436
X109711Y093536
X109261Y093936
X109613Y093965
X109613Y094265
X109161Y094436
X109711Y094736
X109111Y094936
X109711Y095586
X109111Y095836
X109733Y096725
X109161Y096836
X109761Y097186
X109061Y097336
X109761Y097636
X109161Y098236
X109111Y098736
X109161Y099236
X109061Y099736
X108340Y100300
X108580Y100300
X109211Y100636
X109511Y101136
X109511Y101636
X109211Y102136
X108580Y102580
X108340Y102580
X109961Y102986
X112313Y102647
X110661Y102486
X112863Y101997
X110560Y101740
X110763Y101297
X111810Y100540
X112511Y100486
X110611Y100336
X110911Y100286
X111211Y100136
X111461Y099936
X112111Y099886
X112180Y099580
X112510Y099510
X112561Y098136
X110873Y097685
X110873Y097325
X111261Y097186
X112561Y097186
X110873Y096725
X112411Y096536
X111833Y096040
X111700Y095740
X110861Y095586
X111880Y095500
X111460Y095260
X111160Y095080
X110911Y094736
X112000Y094720
X110911Y094386
X110980Y093580
X110961Y093186
X111311Y092986
X111111Y092786
X110911Y092586
X111311Y092436
X111761Y092436
X112461Y092436
X111111Y092236
X110911Y092036
X111311Y091836
X111111Y091636
X112180Y091480
X110961Y091436
X110961Y091136
X112611Y090986
X111561Y090886
X112840Y090340
X111853Y090177
X110800Y088000
X111584Y087984
X111978Y087984
X112765Y087984
X112371Y087984
X111197Y087984
X112175Y087787
X111387Y087787
X111781Y087787
X112568Y087787
X110980Y087760
X111463Y086997
X111100Y086980
X111940Y086980
X111100Y086740
X110800Y086500
X111940Y086440
X111100Y085960
X110800Y085180
X110920Y084940
X111160Y084460
X110860Y084460
X111000Y083920
X112360Y083440
X111100Y083260
X110620Y082900
X110620Y082660
X112720Y082540
X111640Y082420
X111100Y082300
X111760Y081580
X112180Y081580
X112780Y081580
X111387Y081556
X111567Y081376
X111197Y081366
X110660Y081220
X110787Y080960
X111300Y080420
X112570Y080345
X111732Y080341
X112150Y080320
X112000Y080080
X114580Y080320
X113333Y080345
X112973Y080345
X115360Y080380
X114100Y080500
X115360Y080620
X114760Y080620
X114340Y080680
X114880Y080860
X115300Y080860
X113920Y080920
X115060Y081040
X114520Y081100
X113020Y081160
X113680Y081400
X113020Y081460
X114160Y081460
X115300Y081520
X113440Y081580
X113860Y081700
X113380Y081940
X113260Y082360
X114940Y083080
X114580Y083080
X114580Y083560
X114940Y083560
X113140Y083920
X113020Y085960
X114550Y086160
X114940Y086200
X114550Y086510
X114940Y086560
X113050Y086740
X113863Y086997
X114673Y087537
X113680Y087640
X114493Y087717
X112962Y087787
X113380Y087820
X114313Y087897
X113159Y087984
X113860Y088000
X114760Y088060
X114133Y088077
X115211Y089686
X113961Y089686
X114711Y089686
X113461Y089686
X113961Y090636
X114711Y090636
X115211Y090636
X113461Y090636
X114220Y090880
X115225Y092587
X114725Y092587
X114225Y092587
X113725Y092587
X113725Y093087
X114225Y093087
X114725Y093087
X115225Y093087
X115225Y093587
X113725Y093587
X114225Y093587
X114725Y093587
X114725Y094087
X115225Y094087
X114225Y094087
X113725Y094087
X114725Y094587
X113725Y094587
X114225Y094587
X115225Y094587
X114225Y095087
X114725Y095087
X113725Y095087
X115225Y095087
X114225Y095587
X115225Y095587
X114725Y095587
X113725Y095587
X114513Y096997
X113111Y097186
X115130Y097360
X114561Y097436
X114913Y097677
X115320Y097780
X113161Y098136
X114561Y098436
X113261Y099510
X114140Y099520
X113561Y099536
X113813Y099547
X114880Y099590
X114580Y099880
X115090Y100160
X113260Y100480
X113760Y100480
X112880Y100480
X114225Y100487
X112913Y101297
X115363Y101397
X115111Y102236
X114063Y102347
X114663Y102347
X114863Y102347
X113863Y102347
X116063Y102347
X116863Y102347
X116663Y102347
X117340Y102220
X115660Y101380
X115840Y101140
X115420Y100250
X116290Y099900
X116880Y099900
X117810Y099590
X117490Y099540
X116700Y098510
X116111Y098436
X117490Y098370
X116900Y098300
X117100Y098090
X117291Y097870
X117711Y097630
X115540Y097600
X116111Y097436
X116703Y097435
X115720Y097420
X115916Y097238
X116506Y097238
X116800Y096605
X117100Y096460
X117400Y096280
X117700Y096100
X115725Y095587
X116225Y095587
X116575Y095587
X115725Y095087
X116225Y095087
X116575Y095087
X117040Y094960
X115725Y094587
X116225Y094587
X116575Y094587
X117820Y094240
X115725Y094087
X116725Y094087
X116225Y094087
X116560Y093700
X116725Y093587
X116225Y093587
X115725Y093587
X115725Y093087
X116225Y093087
X116725Y093087
X116225Y092587
X115725Y092587
X116725Y092587
X116980Y090760
X117711Y090726
X115960Y090657
X117711Y089766
X117280Y089740
X116453Y089705
X116753Y089705
X115960Y089680
X117460Y089620
X117100Y089620
X117760Y088360
X115540Y088300
X116260Y088240
X117700Y088060
X117460Y087880
X117160Y087580
X116440Y087580
X117520Y087280
X116860Y087280
X117820Y087220
X117400Y087040
X115660Y086560
X117100Y085600
X117335Y085597
X117460Y085300
X117105Y085297
X116740Y085000
X117760Y084640
X116500Y083860
X116020Y083860
X116680Y083320
X116680Y083080
X116440Y082840
X115420Y082060
X117460Y082000
X115660Y081880
X116500Y081820
X117280Y081820
X115900Y081520
X116920Y081400
X115900Y081220
X117100Y080860
X115900Y080800
X116260Y080800
X117640Y080440
X117220Y080380
X116620Y080200
X115600Y080200
X119200Y080200
X119411Y080286
X119200Y080440
X119920Y080500
X118060Y080620
X118000Y080860
X118540Y081340
X118163Y081847
X118363Y081847
X117963Y081847
X119800Y081880
X118720Y081880
X119980Y082360
X118960Y082780
X120220Y082900
X118540Y083920
X119800Y084220
X119380Y085420
X119320Y087220
X119261Y088378
X118867Y088378
X118473Y088378
X119458Y088575
X119064Y088575
X118277Y088575
X118670Y088575
X117891Y089646
X118600Y090700
X118240Y090700
X118840Y090700
X118060Y090880
X119500Y091660
X118480Y091720
X118220Y092120
X118193Y092885
X119359Y093005
X119556Y093202
X118540Y093340
X119140Y093880
X118513Y094377
X119556Y094383
X119556Y095171
X118513Y095217
X118513Y095637
X119556Y095761
X118060Y095920
X118513Y096117
X119413Y096117
X119650Y096365
X119556Y097140
X118500Y097140
X118840Y097960
X118474Y098220
X118080Y098220
X119556Y098321
X119000Y098370
X117883Y098417
X118670Y098417
X118277Y098417
X119261Y098417
X118733Y099545
X118390Y099550
X119060Y099570
X120170Y100470
X119830Y100710
X119130Y100770
X118360Y102220
X121504Y102936
X120950Y102150
X120700Y101560
X122260Y101200
X120510Y101000
X122740Y100720
X122020Y100180
X120940Y100120
X121180Y099700
X122800Y099700
X122440Y099280
X121360Y099220
X121060Y098800
X122020Y098740
X120820Y098500
X121060Y098080
X120900Y097790
X120700Y097600
X121300Y097360
X121900Y097300
X122740Y096580
X120820Y096580
X121840Y096580
X122020Y095500
X120940Y095260
X120737Y094974
X120934Y094777
X120737Y094580
X122320Y094420
X122500Y094420
X122860Y094420
X120737Y094186
X120934Y093989
X120737Y093792
X120934Y093595
X120737Y093399
X120934Y092808
X120737Y092611
X120934Y092414
X120737Y092217
X120760Y091840
X120700Y091240
X120880Y091060
X120940Y090820
X120700Y090640
X120934Y090445
X120737Y090248
X120934Y090051
X120820Y089860
X120820Y089380
X120940Y089020
X120580Y088900
X120880Y088780
X120580Y087220
X120940Y087100
X120580Y086980
X122320Y086260
X122320Y086080
X120640Y085360
X120640Y085180
X122260Y083800
X120400Y083440
X120580Y082720
X120820Y082360
X120580Y082060
X121060Y081700
X121400Y081350
X120520Y081340
X120561Y080236
X123040Y094420
X122920Y096340
X123150Y097450
X123250Y097700
X123000Y099150
X123040Y102520
T2C.01F095S300
X116693Y086704
X116463Y101147
X105262Y102575
T3C.012F095S300
X118821Y085100
X118230Y085100
X118525Y085297
X118230Y085494
X118821Y085494
T4C.02F197S550
X098113Y091737
X099913Y091737
X098113Y093237
X099913Y093237
X120233Y099365
X118840Y087520
X118120Y087520
X122155Y097005
X121733Y098305
T5C.036F197S550
X100000Y100000
X100000Y101378
M30
