*
*
G04 PADS9.1 Build Number: 384028 generated Gerber (RS-274-X) file*
G04 PC Version=2.1*
*
%IN "{TEX086}_F28M36x_contro"*%
*
%MOIN*%
*
%FSLAX35Y35*%
*
*
*
*
G04 PC Standard Apertures*
*
*
G04 Thermal Relief Aperture macro.*
%AMTER*
1,1,$1,0,0*
1,0,$1-$2,0,0*
21,0,$3,$4,0,0,45*
21,0,$3,$4,0,0,135*
%
*
*
G04 Annular Aperture macro.*
%AMANN*
1,1,$1,0,0*
1,0,$2,0,0*
%
*
*
G04 Odd Aperture macro.*
%AMODD*
1,1,$1,0,0*
1,0,$1-0.005,0,0*
%
*
*
G04 PC Custom Aperture Macros*
*
*
*
*
*
*
G04 PC Aperture Table*
*
%ADD014C,0.06*%
%ADD015C,0.005*%
%ADD025R,0.06X0.05*%
%ADD029R,0.05X0.06*%
%ADD038C,0.04*%
%ADD042C,0.001*%
%ADD092R,0.025X0.025*%
%ADD093R,0.043X0.039*%
%ADD094R,0.051X0.059*%
%ADD095R,0.039X0.043*%
%ADD096R,0.063X0.071*%
%ADD097R,0.062X0.062*%
%ADD098C,0.062*%
%ADD099R,0.059X0.051*%
%ADD106C,0.018*%
%ADD120R,0.065X0.026*%
%ADD158C,0*%
%ADD159R,0.01575X0.05315*%
%ADD160R,0.05906X0.05118*%
%ADD161R,0.09055X0.05118*%
%ADD162R,0.0748X0.0748*%
%ADD163R,0.01575X0.0315*%
%ADD164R,0.1X0.105*%
%ADD165R,0.05X0.04*%
%ADD166R,0.027X0.039*%
%ADD167R,0.03X0.065*%
%ADD168R,0.05X0.063*%
%ADD169R,0.02756X0.01181*%
%ADD170R,0.04X0.063*%
%ADD171C,0.01575*%
%ADD172R,0.012X0.055*%
%ADD173R,0.055X0.012*%
%ADD174R,0.08X0.02*%
%ADD175R,0.088X0.1*%
%ADD176R,0.065X0.015*%
%ADD177R,0.012X0.03*%
%ADD178C,0.065*%
%ADD179C,0.093*%
%ADD180R,0.03X0.05*%
%ADD181R,0.05X0.012*%
%ADD182R,0.012X0.05*%
%ADD183R,0.19685X0.19685*%
%ADD184R,0.01969X0.10724*%
%ADD185R,0.032X0.06*%
%ADD186R,0.071X0.055*%
%ADD187R,0.055X0.071*%
%ADD188C,0.01*%
%ADD190C,0.004*%
%ADD191C,0.012*%
%ADD192C,0.0052*%
%ADD193C,0.028*%
%ADD194C,0.008*%
%ADD199C,0.006*%
%ADD201C,0.005*%
%ADD245R,0.105X0.1*%
%ADD246R,0.04X0.05*%
%ADD247C,0.02*%
*
*
*
*
G04 PC Circuitry*
G04 Layer Name {TEX086}_F28M36x_contro - circuitry*
%LPD*%
*
*
G04 PC Custom Flashes*
G04 Layer Name {TEX086}_F28M36x_contro - flashes*
%LPD*%
*
*
G04 PC Circuitry*
G04 Layer Name {TEX086}_F28M36x_contro - circuitry*
%LPD*%
*
G54D14*
G01X1364820Y965295D03*
X1359820Y955295D03*
X1354820Y965295D03*
X1349820Y955295D03*
X1344820Y965295D03*
X1339820Y955295D03*
X1334820Y965295D03*
X1329820Y955295D03*
G54D15*
X1324820Y990295D03*
X1369820D03*
G54D25*
X1379363Y834190D03*
Y825190D03*
G54D29*
X1314358Y870890D03*
X1305358D03*
G54D38*
X1236963Y875290D03*
X1220963D03*
X1150854Y881535D03*
X1130855Y855851D03*
X1372163Y834090D03*
X1304958Y863390D03*
X1090237Y1025728D03*
X1063037D03*
Y1001728D03*
X1130855Y879851D03*
X1091037Y1001728D03*
G54D42*
X1000000Y1013780D03*
Y1000000D03*
G54D92*
X1169356Y1004890D03*
Y1008890D03*
X1164356Y1004890D03*
Y1008890D03*
X1169356Y992890D03*
Y996890D03*
X1175356Y1004890D03*
Y1008890D03*
X1159356Y994890D03*
Y998890D03*
Y1004890D03*
Y1008890D03*
X1212185Y964181D03*
Y960181D03*
X1198185Y951181D03*
X1194185D03*
X1187862Y956764D03*
Y952764D03*
X1139855Y874851D03*
X1135855D03*
X1143855Y865851D03*
Y861851D03*
X1130855Y865851D03*
Y861851D03*
Y870851D03*
Y874851D03*
X1169494Y937544D03*
Y933544D03*
X1194949Y1021661D03*
Y1025661D03*
X1218571Y1021655D03*
Y1025655D03*
X1315858Y919390D03*
X1311858D03*
X1313958Y863390D03*
X1317958D03*
X1037965Y899510D03*
X1033965D03*
X992626Y890061D03*
X996626D03*
X992626Y894392D03*
X996626D03*
X992626Y898723D03*
X996626D03*
X1357763Y864490D03*
X1361763D03*
X1017067Y969620D03*
Y965620D03*
X1007131Y969768D03*
Y965768D03*
X1053981Y1006390D03*
Y1010390D03*
X1044981Y996390D03*
X1040981D03*
X1335358Y834390D03*
Y830390D03*
X1333925Y943772D03*
Y939772D03*
X1376083Y921299D03*
X1372083D03*
X1324870Y920543D03*
Y916543D03*
X1303185Y911063D03*
X1307185D03*
X1303185Y905945D03*
X1307185D03*
X1359122Y882291D03*
Y886291D03*
X1354791Y882291D03*
Y886291D03*
X1350461Y882291D03*
Y886291D03*
X1346130Y882291D03*
Y886291D03*
X1329988Y882291D03*
Y886291D03*
X1326051Y882291D03*
Y886291D03*
X1337862Y882291D03*
Y886291D03*
X1376083Y895315D03*
X1372083D03*
X1376083Y899646D03*
X1372083D03*
X1376083Y903976D03*
X1372083D03*
X1376083Y908307D03*
X1372083D03*
X1376083Y912638D03*
X1372083D03*
X1376083Y916969D03*
X1372083D03*
X1341799Y882291D03*
Y886291D03*
X1333925Y882291D03*
Y886291D03*
X1291358Y931390D03*
Y927390D03*
X1338858Y943890D03*
Y939890D03*
X1343858Y943890D03*
Y939890D03*
X1270965Y952402D03*
X1266965D03*
X1127594Y934291D03*
X1131594D03*
G54D93*
X1187706Y988890D03*
X1181006D03*
X1172706Y985890D03*
X1166006D03*
X1138055Y881535D03*
X1144755D03*
X1301489Y942728D03*
X1308189D03*
X1320508Y931890D03*
X1327208D03*
X1320508Y939390D03*
X1327208D03*
X1274677Y945315D03*
X1267977D03*
X1124670Y927205D03*
X1131370D03*
G54D94*
X1338608Y852890D03*
X1331108D03*
X1043408Y943390D03*
X1050908D03*
X1043408Y933390D03*
X1050908D03*
X1037354Y969982D03*
X1029854D03*
X986938D03*
X994438D03*
X1375513Y864490D03*
X1368013D03*
X1052731Y1020390D03*
X1045231D03*
X1040231Y989390D03*
X1047731D03*
X1297608Y919390D03*
X1305108D03*
G54D95*
X1151356Y994240D03*
Y987540D03*
X1137855Y861501D03*
Y868201D03*
X1303358Y829740D03*
Y823040D03*
X1310858Y843740D03*
Y837040D03*
X1303358D03*
Y843740D03*
X1032256Y805940D03*
Y812640D03*
X1015256Y805940D03*
Y812640D03*
X1041256Y805940D03*
Y812640D03*
X1023256Y805940D03*
Y812640D03*
X1068256Y805940D03*
Y812640D03*
X1050256Y805940D03*
Y812640D03*
X1077256Y805940D03*
Y812640D03*
X1059256Y805940D03*
Y812640D03*
X1361763Y836640D03*
Y829940D03*
X1361363Y853840D03*
Y847140D03*
X1352963D03*
Y853840D03*
X1022579Y976482D03*
Y969782D03*
X1001713Y976482D03*
Y969782D03*
X1033981Y1004040D03*
Y1010740D03*
X1364634Y883304D03*
Y890004D03*
X1114256Y812624D03*
Y805924D03*
X1122256Y812624D03*
Y805924D03*
X1197311Y867563D03*
Y860863D03*
G54D96*
X1332358Y842790D03*
X1321358D03*
X1380463Y855190D03*
X1369463D03*
G54D97*
X1226358Y861890D03*
X1236358D03*
X1246358D03*
X1256358D03*
X1266358D03*
X1276358D03*
G54D98*
X1226358Y854016D03*
Y846142D03*
X1236358Y854016D03*
Y846142D03*
X1246358Y854016D03*
Y846142D03*
X1256358Y854016D03*
Y846142D03*
X1266358Y854016D03*
Y846142D03*
X1276358Y854016D03*
Y846142D03*
G54D99*
X1201356Y1018140D03*
Y1025640D03*
X1211356Y1018140D03*
Y1025640D03*
X1342858Y838140D03*
Y830640D03*
G54D106*
X1176839Y887835D03*
Y890984D03*
Y894134D03*
Y897283D03*
Y900433D03*
Y903583D03*
Y906732D03*
Y909882D03*
Y913031D03*
Y916181D03*
Y919331D03*
Y922480D03*
Y925630D03*
Y928780D03*
Y931929D03*
Y935079D03*
Y938228D03*
Y941378D03*
Y944528D03*
X1179988Y887835D03*
Y890984D03*
Y894134D03*
Y897283D03*
Y900433D03*
Y903583D03*
Y906732D03*
Y909882D03*
Y913031D03*
Y916181D03*
Y919331D03*
Y922480D03*
Y925630D03*
Y928780D03*
Y931929D03*
Y935079D03*
Y938228D03*
Y941378D03*
Y944528D03*
X1183138Y887835D03*
Y890984D03*
Y894134D03*
Y897283D03*
Y900433D03*
Y903583D03*
Y906732D03*
Y909882D03*
Y913031D03*
Y916181D03*
Y919331D03*
Y922480D03*
Y925630D03*
Y928780D03*
Y931929D03*
Y935079D03*
Y938228D03*
Y941378D03*
Y944528D03*
X1186287Y887835D03*
Y890984D03*
Y894134D03*
Y897283D03*
Y900433D03*
Y903583D03*
Y906732D03*
Y909882D03*
Y913031D03*
Y916181D03*
Y919331D03*
Y922480D03*
Y925630D03*
Y928780D03*
Y931929D03*
Y935079D03*
Y938228D03*
Y941378D03*
Y944528D03*
X1189437Y887835D03*
Y890984D03*
Y894134D03*
Y897283D03*
Y935079D03*
Y938228D03*
Y941378D03*
Y944528D03*
X1192587Y887835D03*
Y890984D03*
Y894134D03*
Y897283D03*
Y935079D03*
Y938228D03*
Y941378D03*
Y944528D03*
X1195736Y887835D03*
Y890984D03*
Y894134D03*
Y897283D03*
Y906732D03*
Y909882D03*
Y913031D03*
Y916181D03*
Y919331D03*
Y922480D03*
Y925630D03*
Y935079D03*
Y938228D03*
Y941378D03*
Y944528D03*
X1198886Y887835D03*
Y890984D03*
Y894134D03*
Y897283D03*
Y906732D03*
Y909882D03*
Y913031D03*
Y916181D03*
Y919331D03*
Y922480D03*
Y925630D03*
Y935079D03*
Y938228D03*
Y941378D03*
Y944528D03*
X1202035Y887835D03*
Y890984D03*
Y894134D03*
Y897283D03*
Y906732D03*
Y909882D03*
Y913031D03*
Y916181D03*
Y919331D03*
Y922480D03*
Y925630D03*
Y935079D03*
Y938228D03*
Y941378D03*
Y944528D03*
X1205185Y887835D03*
Y890984D03*
Y894134D03*
Y897283D03*
Y906732D03*
Y909882D03*
Y913031D03*
Y916181D03*
Y919331D03*
Y922480D03*
Y925630D03*
Y935079D03*
Y938228D03*
Y941378D03*
Y944528D03*
X1208335Y887835D03*
Y890984D03*
Y894134D03*
Y897283D03*
Y906732D03*
Y909882D03*
Y913031D03*
Y916181D03*
Y919331D03*
Y922480D03*
Y925630D03*
Y935079D03*
Y938228D03*
Y941378D03*
Y944528D03*
X1211484Y887835D03*
Y890984D03*
Y894134D03*
Y897283D03*
Y906732D03*
Y909882D03*
Y913031D03*
Y916181D03*
Y919331D03*
Y922480D03*
Y925630D03*
Y935079D03*
Y938228D03*
Y941378D03*
Y944528D03*
X1214634Y887835D03*
Y890984D03*
Y894134D03*
Y897283D03*
Y906732D03*
Y909882D03*
Y913031D03*
Y916181D03*
Y919331D03*
Y922480D03*
Y925630D03*
Y935079D03*
Y938228D03*
Y941378D03*
Y944528D03*
X1217783Y887835D03*
Y890984D03*
Y894134D03*
Y897283D03*
Y935079D03*
Y938228D03*
Y941378D03*
Y944528D03*
X1220933Y887835D03*
Y890984D03*
Y894134D03*
Y897283D03*
Y935079D03*
Y938228D03*
Y941378D03*
Y944528D03*
X1224083Y887835D03*
Y890984D03*
Y894134D03*
Y897283D03*
Y900433D03*
Y903583D03*
Y906732D03*
Y909882D03*
Y913031D03*
Y916181D03*
Y919331D03*
Y922480D03*
Y925630D03*
Y928780D03*
Y931929D03*
Y935079D03*
Y938228D03*
Y941378D03*
Y944528D03*
X1227232Y887835D03*
Y890984D03*
Y894134D03*
Y897283D03*
Y900433D03*
Y903583D03*
Y906732D03*
Y909882D03*
Y913031D03*
Y916181D03*
Y919331D03*
Y922480D03*
Y925630D03*
Y928780D03*
Y931929D03*
Y935079D03*
Y938228D03*
Y941378D03*
Y944528D03*
X1230382Y887835D03*
Y890984D03*
Y894134D03*
Y897283D03*
Y900433D03*
Y903583D03*
Y906732D03*
Y909882D03*
Y913031D03*
Y916181D03*
Y919331D03*
Y922480D03*
Y925630D03*
Y928780D03*
Y931929D03*
Y935079D03*
Y938228D03*
Y941378D03*
Y944528D03*
X1233531Y887835D03*
Y890984D03*
Y894134D03*
Y897283D03*
Y900433D03*
Y903583D03*
Y906732D03*
Y909882D03*
Y913031D03*
Y916181D03*
Y919331D03*
Y922480D03*
Y925630D03*
Y928780D03*
Y931929D03*
Y935079D03*
Y938228D03*
Y941378D03*
Y944528D03*
X1025729Y794313D03*
X1068248Y793600D03*
X1058738Y794400D03*
X1054000Y793600D03*
X1043052D03*
X1049600D03*
X1039600D03*
X1046400D03*
X1062418Y794790D03*
X1036800Y793600D03*
X1112418Y793590D03*
X1090400Y794000D03*
X1087146D03*
X1083996D03*
X1080858Y793200D03*
X1074400Y793600D03*
X1153317Y793590D03*
X1146989D03*
X1143839D03*
X1140689D03*
X1137578D03*
X1134378D03*
X1131178D03*
X1128117D03*
X1124917D03*
X1120418D03*
X1167801Y794790D03*
X1156437Y793590D03*
X1171801Y793990D03*
X1196058Y793890D03*
X1310300Y793900D03*
X1030338Y821734D03*
X1023138Y816534D03*
X1032338D03*
X1021938Y822134D03*
X1015138Y816534D03*
X1032000Y796400D03*
X1030338Y832134D03*
X1026778Y817690D03*
X1008406Y798800D03*
X1006800Y800800D03*
X1010000D03*
X1011555Y798800D03*
X1013200Y800800D03*
X1016400D03*
X1014705Y798800D03*
X1020400Y800800D03*
X1018000Y798400D03*
X1027578Y806090D03*
X1019178D03*
X1018338Y821734D03*
X1034338D03*
X1059178Y818890D03*
X1068338Y816534D03*
X1050260Y816587D03*
X1063578Y821690D03*
X1037938Y832134D03*
Y828534D03*
X1041138Y816534D03*
X1050378Y802090D03*
X1059178Y801600D03*
X1068378Y802090D03*
X1035178Y795600D03*
X1041200Y796000D03*
X1043578Y817290D03*
X1044800Y796000D03*
X1048000D03*
X1043178Y828890D03*
X1052856Y821290D03*
X1053578Y796090D03*
X1056800Y796000D03*
X1060400Y796800D03*
X1066738Y797334D03*
X1073978Y824090D03*
X1069978Y797290D03*
X1053938Y829334D03*
X1057256Y822490D03*
X1046338Y821734D03*
X1047578Y819290D03*
X1046516Y831457D03*
X1046400Y801200D03*
X1063178Y806090D03*
X1072400Y806800D03*
X1054378Y806090D03*
X1045178D03*
X1036378D03*
X1067138Y821734D03*
X1050338D03*
X1087138Y828534D03*
X1077538Y816534D03*
X1077178Y800490D03*
X1079578Y820890D03*
X1094378Y831690D03*
Y821290D03*
X1101978D03*
X1105978Y825290D03*
X1113918Y796024D03*
X1110818Y795990D03*
X1113846Y818543D03*
X1109178Y798090D03*
X1095600Y807200D03*
X1088721Y795888D03*
X1085581Y796024D03*
X1082431D03*
X1080000Y796800D03*
X1077304Y795200D03*
X1092000Y806000D03*
X1098338Y821734D03*
X1081178Y806090D03*
X1083138Y821734D03*
X1144500Y829500D03*
X1145000Y811000D03*
X1121720Y801220D03*
X1153874Y817690D03*
X1151218Y799190D03*
X1145414Y795888D03*
X1139117Y796024D03*
X1135967D03*
X1142264Y795888D03*
X1132817Y796024D03*
X1129667D03*
X1126517D03*
X1123218Y796390D03*
X1117067Y796024D03*
X1130517Y824090D03*
X1121720Y818543D03*
X1117578Y834890D03*
X1149218Y796090D03*
X1147000Y835000D03*
X1164000Y823500D03*
X1164705Y826597D03*
X1171000Y819000D03*
X1167500Y820000D03*
X1178413Y826090D03*
X1176839Y829690D03*
X1180163Y831290D03*
X1175264Y828090D03*
X1182963Y830490D03*
X1172500Y835000D03*
X1161978Y816090D03*
X1163918Y819904D03*
X1160674Y810890D03*
X1158778Y813690D03*
X1156274Y814890D03*
X1177363Y816890D03*
X1191083Y795990D03*
X1187933D03*
X1184784D03*
X1181634D03*
X1178485D03*
X1175335D03*
X1166201Y796790D03*
X1182163Y817690D03*
X1169036Y813998D03*
X1169500Y829500D03*
X1164201Y795190D03*
X1179363Y818490D03*
X1173000Y814000D03*
X1193801Y797190D03*
X1170617Y797463D03*
X1207225Y810061D03*
X1212737Y813998D03*
X1200378Y809690D03*
X1195763Y816090D03*
X1205500Y804500D03*
X1291363Y818090D03*
X1291351Y797463D03*
X1313401Y798590D03*
X1307099Y797463D03*
X1308674Y795888D03*
X1303949Y797463D03*
X1305524Y795888D03*
X1300799Y797463D03*
X1302374Y795888D03*
X1297650Y797463D03*
X1299225Y795888D03*
X1294500Y797463D03*
X1296075Y795888D03*
X1289776D03*
X1292925D03*
X1288201Y797463D03*
X1306858Y823390D03*
X1351201Y798590D03*
X1352768Y795440D03*
X1348051Y798590D03*
X1349618Y795440D03*
X1332301Y805990D03*
X1333876Y795440D03*
X1341751Y798590D03*
X1343319Y795590D03*
X1338601Y798590D03*
X1340176Y795440D03*
X1335451Y798590D03*
X1337020Y795590D03*
X1329151Y798590D03*
X1330726Y795440D03*
X1326001Y798590D03*
X1327576Y795440D03*
X1322851Y798590D03*
X1324426Y795440D03*
X1319701Y798590D03*
X1321276Y795440D03*
X1316551Y798590D03*
X1318126Y795440D03*
X1314976D03*
X1331858Y811390D03*
X1344874Y806790D03*
X1357501Y798590D03*
X1363801D03*
X1365367Y795440D03*
X1360651Y798590D03*
X1362217Y795440D03*
X1359067D03*
X1354351Y798590D03*
X1355918Y795440D03*
X1376358Y795890D03*
X1379358Y819390D03*
Y795890D03*
X1361658Y825490D03*
X1024338Y843734D03*
X1022338Y850534D03*
X1016738Y842934D03*
X1030738Y866934D03*
X1026022Y836934D03*
X1014738Y839334D03*
X1020338Y841334D03*
X1018738Y839334D03*
X1034338D03*
X1071178Y839290D03*
X1071978Y862890D03*
X1069178Y859690D03*
X1065578Y857290D03*
X1037938Y846934D03*
X1043578Y840490D03*
X1063578Y855690D03*
Y839290D03*
X1058378Y837290D03*
X1060378Y835290D03*
X1049178Y867290D03*
X1050738Y854534D03*
X1042338Y854134D03*
X1055978Y844890D03*
X1045578Y866090D03*
X1050338Y839334D03*
X1067138D03*
X1111484Y861850D03*
Y846890D03*
X1075178Y868490D03*
X1096378Y860490D03*
X1087178Y839290D03*
X1077474D03*
X1077578Y858890D03*
X1100778Y860090D03*
X1101978Y839290D03*
X1114201Y872490D03*
X1104601D03*
X1104398Y846890D03*
X1110674Y837290D03*
X1107578Y850890D03*
X1090274Y840490D03*
X1082778Y853290D03*
X1081978Y857690D03*
X1079469Y846594D03*
Y872185D03*
X1093874Y842090D03*
X1086378Y871290D03*
X1086287Y846890D03*
X1092274Y844090D03*
X1097474Y857290D03*
X1098338Y838934D03*
X1083138Y839334D03*
X1093374Y861850D03*
X1096274Y851290D03*
X1082422Y849431D03*
X1149500Y838500D03*
X1154000D03*
X1150500Y853000D03*
X1150000Y845500D03*
X1154000Y860000D03*
X1118571Y846890D03*
Y861850D03*
X1142517Y844890D03*
X1126778Y856890D03*
X1124778Y858490D03*
X1134917Y855690D03*
X1123074Y850890D03*
X1137717Y854890D03*
X1121720Y835866D03*
X1114378Y848490D03*
X1127978Y870890D03*
Y865690D03*
X1143938Y869334D03*
X1173500Y840500D03*
X1159000Y838500D03*
X1163500D03*
X1169000D03*
X1172500Y845500D03*
X1177500Y858000D03*
X1164000Y860000D03*
X1159000D03*
X1189763Y839690D03*
X1187763Y841290D03*
X1188163Y844090D03*
X1184390Y844313D03*
X1184674Y847463D03*
X1181474Y849431D03*
X1169000Y860000D03*
X1191763Y849290D03*
X1183074Y866490D03*
X1216163Y845290D03*
X1229363Y872490D03*
X1216163Y838090D03*
X1220800Y848800D03*
X1206563Y845690D03*
X1202963Y843290D03*
X1194963Y845690D03*
X1231763Y868890D03*
X1206963Y848890D03*
X1197363Y848490D03*
X1210917Y849290D03*
X1202117D03*
X1196274Y871690D03*
X1211474Y866490D03*
X1201874D03*
X1269763Y871690D03*
X1261600Y850000D03*
X1269578Y868890D03*
X1274163Y869290D03*
X1258163Y872490D03*
X1274163Y872890D03*
X1237763Y868890D03*
X1265763Y873690D03*
X1286563Y868890D03*
X1283763Y872490D03*
X1280163Y850090D03*
X1278963Y870890D03*
X1340000Y862500D03*
X1347500Y856500D03*
X1345500Y858000D03*
X1337500Y862000D03*
X1350000Y858500D03*
X1343500Y861500D03*
X1329500Y871500D03*
X1315358Y835390D03*
X1352637Y860500D03*
X1318858Y870390D03*
X1335358Y837390D03*
X1338358Y847390D03*
X1337358Y842890D03*
X1338358Y837890D03*
X1371500Y871000D03*
X1368458Y848290D03*
X1380458Y864290D03*
Y849490D03*
X989508Y890061D03*
Y894392D03*
Y898723D03*
X1021792Y889274D03*
X1014634Y886654D03*
X1010697Y889409D03*
X997311Y906339D03*
X1009516Y907520D03*
X1021398Y897148D03*
Y894392D03*
X1010374Y884156D03*
X1020933Y909488D03*
X1010768Y897148D03*
X1034713Y886654D03*
X1059909Y912244D03*
X1041083Y899510D03*
X1088338Y882490D03*
X1108738Y902934D03*
X1098456Y876890D03*
X1107178Y885690D03*
X1104778Y879290D03*
X1090456Y878090D03*
X1086338Y890534D03*
X1091799Y912638D03*
X1121138Y904134D03*
X1132778Y904534D03*
X1134378Y900890D03*
X1126378Y909334D03*
X1125178Y900134D03*
X1123538Y902090D03*
X1118778Y892890D03*
X1123978D03*
X1127178D03*
X1126738Y912134D03*
X1131978Y900890D03*
X1140618Y909882D03*
Y898858D03*
Y889409D03*
X1138256Y885472D03*
X1139831Y877598D03*
X1178413Y878386D03*
X1170539Y889409D03*
X1194161Y908307D03*
Y911457D03*
Y914606D03*
X1183178Y881290D03*
X1184713Y895709D03*
X1194161Y905157D03*
X1178413Y892559D03*
Y895709D03*
X1175264D03*
X1181563Y902008D03*
Y908307D03*
X1194161Y892559D03*
Y895708D03*
X1191012Y892559D03*
Y895708D03*
X1184713Y905157D03*
X1181563D03*
X1181739Y914828D03*
X1181639Y911528D03*
X1187862Y892559D03*
Y895709D03*
X1184713Y914606D03*
X1156366Y889409D03*
Y898858D03*
X1156378Y909290D03*
X1184713Y911457D03*
Y908307D03*
Y902008D03*
X1178413Y886260D03*
X1175264Y889409D03*
Y886260D03*
X1217783Y909882D03*
X1211484Y881290D03*
X1225658Y908307D03*
Y905157D03*
X1225657Y895709D03*
Y898858D03*
X1200461Y905157D03*
X1197311D03*
X1200461Y901220D03*
X1201978Y881290D03*
X1228807Y889409D03*
Y892559D03*
X1225657Y889409D03*
Y892559D03*
X1222508Y889409D03*
Y892559D03*
X1219358Y889409D03*
Y892559D03*
Y895708D03*
X1218517Y880140D03*
X1228807Y898858D03*
Y895708D03*
X1231957Y889409D03*
X1226963Y878890D03*
X1228807Y911456D03*
Y914606D03*
Y905157D03*
Y908307D03*
X1200461Y886260D03*
X1228807Y902008D03*
X1233463Y878490D03*
X1197311Y892559D03*
Y895708D03*
X1213059D03*
X1216209D03*
X1211484Y903583D03*
X1216209Y905157D03*
X1225658Y914606D03*
Y911456D03*
X1222508Y895708D03*
X1206760Y908307D03*
X1231957Y886260D03*
X1225658Y902008D03*
X1213059Y911457D03*
Y908307D03*
X1209909Y911457D03*
Y908307D03*
X1209910Y895708D03*
X1206760Y911457D03*
X1203610Y895708D03*
X1200461Y911457D03*
Y908307D03*
X1200460Y895708D03*
X1197311Y911457D03*
Y908307D03*
X1257763Y879690D03*
X1242800Y881200D03*
X1251750Y882200D03*
X1254563Y879690D03*
X1266963Y880490D03*
X1268378Y902090D03*
X1243663Y875290D03*
X1269363Y885690D03*
X1266778Y903690D03*
X1270163Y877290D03*
X1269978Y900490D03*
X1272902Y913031D03*
X1256366D03*
X1235106Y889409D03*
Y886260D03*
X1288163Y913290D03*
X1292163Y908490D03*
X1287763Y904490D03*
Y910890D03*
X1282963Y898890D03*
X1308358Y893390D03*
X1311858Y886390D03*
X1299279Y905945D03*
X1300358Y888390D03*
X1299763Y910890D03*
X1312358Y890390D03*
X1313858Y898890D03*
X1285500Y901220D03*
X1279201Y897283D03*
X1282563Y896490D03*
X1277763Y877290D03*
X1293763Y914490D03*
X1287763Y906890D03*
X1283763Y902890D03*
X1282963Y909690D03*
X1282601Y914090D03*
X1281074Y889290D03*
X1275463Y913040D03*
X1276563Y880090D03*
X1344000Y878500D03*
X1335000Y893000D03*
X1353500Y889500D03*
X1336000Y879000D03*
X1346000Y889500D03*
X1349000Y878500D03*
X1334378Y909290D03*
Y906890D03*
X1351500Y878500D03*
X1346358Y878390D03*
X1319763Y886890D03*
X1341763Y876890D03*
X1330163Y878890D03*
X1319358Y898390D03*
X1338500Y879000D03*
X1326117Y879290D03*
X1333200Y878900D03*
X1315858Y900890D03*
Y892890D03*
X1314858Y914890D03*
X1319938Y910934D03*
X1335858Y902390D03*
X1341858Y908890D03*
X1346858D03*
X1351858Y913890D03*
Y908890D03*
X1341858Y913890D03*
X1314858Y903390D03*
X1346858Y913890D03*
X1322058Y903090D03*
X1320458Y906290D03*
X1321978Y891690D03*
X1339358Y908890D03*
X1365000Y878500D03*
X1357500D03*
X1361000Y889500D03*
X1369000D03*
X1355000Y878500D03*
X1368563Y894090D03*
X1371358Y880890D03*
X1373763Y888490D03*
X1379232Y912638D03*
X1374963Y877690D03*
X1379365Y908307D03*
X1376963Y875290D03*
X1379538Y904134D03*
X1360500Y878500D03*
X1379538Y895334D03*
Y899734D03*
X1357763Y901690D03*
X1364563Y897690D03*
X1354858Y901890D03*
Y908890D03*
X1369000Y883500D03*
X979988Y945315D03*
X979594Y930748D03*
X993374Y922480D03*
X986458Y917890D03*
X990296Y929431D03*
X991477Y937306D03*
X989831Y954370D03*
X987075Y953583D03*
X979272Y925888D03*
X979988Y949646D03*
X979272Y920770D03*
X989508Y935337D03*
X991477Y947148D03*
X1013846Y937441D03*
Y942559D03*
Y947283D03*
X998957Y919195D03*
X1024870Y942559D03*
X997311Y952008D03*
X1011949Y952660D03*
X1001248Y952008D03*
X1025335Y951085D03*
X1000854Y920512D03*
X1007154Y918937D03*
X1025657Y935472D03*
X1025729Y923526D03*
X1021792Y922739D03*
X1010768Y919589D03*
X1004075Y947542D03*
Y937306D03*
X999279Y924055D03*
X1017783Y922480D03*
X1025264Y926417D03*
X997311Y925630D03*
X1014311Y951872D03*
X1004004Y942165D03*
Y932323D03*
X994858Y951090D03*
X1005185Y953189D03*
X999279Y926811D03*
X1024870Y928780D03*
X1038650Y945315D03*
Y935472D03*
Y941378D03*
Y931535D03*
X1034784Y921557D03*
X1059909Y927205D03*
X1059981Y951479D03*
X1050854Y950433D03*
Y921693D03*
X1059981Y936518D03*
X1045807Y921557D03*
X1049351Y916046D03*
X1041405Y948858D03*
X1035894Y942559D03*
X1035500Y935472D03*
X1034458Y925490D03*
X1105972Y917390D03*
X1109193Y922345D03*
X1091799Y927205D03*
Y951220D03*
Y936260D03*
X1119358Y922480D03*
X1138338Y929734D03*
X1144839Y936828D03*
X1128738Y918534D03*
X1140618Y927205D03*
Y917756D03*
X1124378Y934490D03*
Y931690D03*
X1139578Y952490D03*
X1178413Y939803D03*
X1175264D03*
X1178413Y936654D03*
X1175264D03*
X1184713Y920906D03*
X1194161Y924055D03*
Y917756D03*
Y927205D03*
X1166996Y946102D03*
X1184713Y933504D03*
Y936654D03*
X1181563Y924055D03*
X1178413D03*
Y927205D03*
X1181563D03*
Y936654D03*
X1178413Y942953D03*
X1181563Y939803D03*
Y942953D03*
Y946102D03*
X1187862Y942953D03*
X1191012Y939803D03*
Y942953D03*
X1178413Y933504D03*
X1181563Y930355D03*
X1178413Y930354D03*
X1181563Y933504D03*
X1184713Y939803D03*
Y942953D03*
X1187862Y939803D03*
X1184713Y946102D03*
X1191012D03*
X1194161Y936654D03*
X1184713Y927205D03*
Y924055D03*
X1181563Y917756D03*
X1156839Y927728D03*
X1159909Y945709D03*
X1156378Y918890D03*
X1166602Y937441D03*
X1187862Y936654D03*
X1184713Y930354D03*
Y917756D03*
X1178413Y946102D03*
X1175264D03*
Y942953D03*
X1213059Y939803D03*
X1206760Y942953D03*
X1213059D03*
X1216209D03*
X1225657Y933504D03*
Y936654D03*
X1197311Y927205D03*
Y936654D03*
X1225658Y927205D03*
X1228807D03*
X1197311Y939803D03*
X1225657D03*
X1222508Y942953D03*
X1200461Y936654D03*
X1197311Y942953D03*
X1203610D03*
Y939803D03*
X1209909D03*
Y942953D03*
X1213059Y936654D03*
X1216209D03*
X1206760Y939803D03*
X1231957Y942953D03*
X1228807D03*
X1200461Y939803D03*
X1219358D03*
X1228807Y920906D03*
Y930354D03*
Y933504D03*
X1219358Y942953D03*
X1222508Y939803D03*
X1216209D03*
X1205185Y929567D03*
X1219358Y936654D03*
X1228807Y924055D03*
Y939803D03*
Y936654D03*
X1213059Y933504D03*
X1209909Y927205D03*
X1206760D03*
X1213059D03*
X1216209Y924055D03*
Y927205D03*
X1225657Y920906D03*
Y924055D03*
Y930354D03*
X1213059Y920906D03*
X1209909Y936654D03*
X1200738Y927734D03*
X1231957Y946102D03*
X1222508Y936654D03*
X1213059Y924055D03*
Y917756D03*
X1209909Y924055D03*
Y920906D03*
Y917756D03*
X1206760Y936654D03*
Y924055D03*
Y920906D03*
Y917756D03*
X1203610Y936654D03*
X1200461Y924055D03*
Y920906D03*
Y917756D03*
X1197311Y924055D03*
Y920906D03*
Y917756D03*
X1241200Y932000D03*
X1261878Y939803D03*
X1254004Y941378D03*
X1251401Y922480D03*
X1270539Y920906D03*
X1268965Y927992D03*
X1256366Y930354D03*
X1249200Y925630D03*
X1239600Y928800D03*
X1264240Y922480D03*
X1260163Y919290D03*
X1244555Y938228D03*
X1242193Y939803D03*
X1265401Y940890D03*
X1268177Y939803D03*
X1273760Y952581D03*
X1256366Y933504D03*
X1245938Y925734D03*
Y920934D03*
X1235106Y946102D03*
Y942953D03*
X1291500Y934500D03*
X1305538Y953334D03*
X1298886Y946890D03*
X1295736Y953976D03*
X1297311Y950134D03*
X1288778Y952090D03*
X1292587Y948465D03*
X1287978Y949290D03*
X1283978Y951690D03*
X1299744Y936833D03*
X1309981Y938408D03*
X1282350Y938228D03*
X1274476Y926390D03*
X1276051Y933504D03*
X1287401Y930090D03*
X1288201Y921690D03*
X1288963Y917290D03*
X1286601Y924090D03*
X1281763Y919290D03*
X1274963Y917290D03*
X1312272Y942953D03*
X1311938Y922134D03*
X1274548Y941164D03*
X1301248Y946102D03*
X1351780Y934547D03*
X1315000Y953000D03*
X1333531Y930354D03*
X1334713Y924449D03*
Y922087D03*
Y918937D03*
X1349800Y936100D03*
X1333925Y936654D03*
X1320338Y916534D03*
X1338256Y926417D03*
X1347705D03*
X1315938Y939334D03*
X1346858Y942690D03*
X1321138Y920534D03*
X1341858Y918890D03*
X1351858D03*
X1346130Y935079D03*
X1353658Y925890D03*
X1322058D03*
X1319658Y927490D03*
X1323938Y936534D03*
X1328738Y943734D03*
X1344858Y919090D03*
X1315938Y931734D03*
X1315658Y922690D03*
X1338058Y916290D03*
X1377200Y930300D03*
X1374100Y941600D03*
X1357547Y926417D03*
X1355579Y934685D03*
X1372114Y924843D03*
X1379538Y916934D03*
X1374100Y952600D03*
X1374000Y937700D03*
X1376000Y926000D03*
X982350Y970118D03*
X989437Y958307D03*
X1026051Y957520D03*
X1028485Y986912D03*
X996130Y963425D03*
X1007154Y973268D03*
X1005972Y976811D03*
X1016996Y972874D03*
X1026839Y976417D03*
X1031957Y979961D03*
X1031169Y976811D03*
X1012665Y963819D03*
X1020539Y987047D03*
X999279Y963425D03*
X1003217Y963819D03*
X1022579Y963290D03*
X1014705D03*
X1039831Y964213D03*
X1059981Y959353D03*
X1045736Y970118D03*
X1052429Y969331D03*
X1047311Y980354D03*
X1046524Y976811D03*
X1059981Y974313D03*
Y982581D03*
X1047776Y984156D03*
X1044161Y957520D03*
X1052823Y992559D03*
X1096601Y969290D03*
X1113846Y994921D03*
X1091799Y959488D03*
X1100461Y994134D03*
X1091799Y974449D03*
Y982323D03*
X1111801Y985290D03*
X1120146Y990455D03*
X1153001Y970890D03*
X1144555Y973268D03*
X1124181Y987933D03*
X1124083Y985472D03*
X1134319Y992953D03*
X1123258Y993090D03*
X1151178Y982890D03*
X1159516Y990591D03*
X1165815Y993346D03*
X1194161Y987047D03*
X1192587Y991772D03*
X1165815Y990197D03*
X1188058Y960290D03*
X1171978Y975690D03*
X1210060Y994487D03*
X1227232Y985472D03*
X1224378Y986890D03*
X1218571Y986260D03*
X1213846Y984685D03*
X1209909Y985472D03*
X1212778Y980490D03*
X1221578Y986890D03*
X1206778Y982090D03*
X1228807Y982323D03*
X1219358D03*
X1205972Y994921D03*
X1228807Y966575D03*
X1219358D03*
X1258400Y989200D03*
X1254800Y991600D03*
X1256366Y987047D03*
X1262637Y980748D03*
X1264240Y984685D03*
X1238256Y982323D03*
X1273258Y970290D03*
X1261658D03*
X1238256Y966575D03*
X1308738Y957334D03*
X1302823Y955551D03*
X1279801Y956890D03*
X1345658Y971490D03*
X1350458D03*
X1345658Y982690D03*
X1350458D03*
X1008858Y997283D03*
X1023600Y996400D03*
X1003288Y1006991D03*
Y1010140D03*
Y1003841D03*
X1033925Y999646D03*
X1044949Y1015000D03*
X1059981Y997542D03*
Y1021557D03*
X1037862Y1011457D03*
X1054398Y997677D03*
X1053610Y1014213D03*
X1070146Y1026024D03*
X1069752Y1003189D03*
X1068177Y1026024D03*
X1067783Y1003189D03*
X1052637Y1025728D03*
X1059837Y1006528D03*
X1054075Y1002660D03*
X1113846Y999646D03*
X1091799Y1021299D03*
X1100461Y999646D03*
X1091799Y997283D03*
Y1006339D03*
X1083925Y1025236D03*
Y1003189D03*
X1086287Y1025236D03*
Y1003189D03*
X1139831Y1005945D03*
X1117783D03*
X1118571Y995573D03*
X1122902Y999252D03*
X1136287Y1003189D03*
X1122458Y1012290D03*
X1127658D03*
X1134058Y1008290D03*
X1134458Y1000690D03*
X1146917Y1007520D03*
X1149279Y1022480D03*
X1151642Y1013031D03*
X1164240Y1001220D03*
X1173689D03*
X1156366Y1004370D03*
X1164400Y998000D03*
X1155579Y1000039D03*
X1172902Y998071D03*
X1188839Y1009928D03*
X1169752Y1012244D03*
X1192587Y999646D03*
X1155858Y1007390D03*
X1176839Y997283D03*
X1159516Y1021693D03*
X1168965D03*
X1179201Y1022480D03*
X1176051Y1013031D03*
X1159516Y1012244D03*
X1202035Y1002795D03*
X1205972Y1004370D03*
X1218358Y1017390D03*
X1194858Y1016890D03*
X1232858Y1021490D03*
X1257358Y1005795D03*
X1269752Y1018543D03*
X1261878Y1005945D03*
X1252858Y1007295D03*
X1261200Y995600D03*
X1266000Y1017600D03*
X1260303Y999646D03*
X1250067D03*
X1244058Y1011890D03*
X1279201Y1016969D03*
X1283925D03*
X1280058Y1023090D03*
X1274476Y1007520D03*
X1276051Y1021693D03*
X1283925Y999646D03*
X1339000Y1017500D03*
X1322358Y1016295D03*
X1355000Y1012000D03*
X1368400Y1019200D03*
G54D120*
X1065981Y1021390D03*
Y1016390D03*
Y1011390D03*
Y1006390D03*
X1085981D03*
Y1011390D03*
Y1016390D03*
Y1021390D03*
X1065981Y997390D03*
Y992390D03*
Y987390D03*
Y982390D03*
X1085981D03*
Y987390D03*
Y992390D03*
Y997390D03*
X1065981Y927390D03*
Y922390D03*
Y917390D03*
Y912390D03*
X1085981D03*
Y917390D03*
Y922390D03*
Y927390D03*
X1065981Y951390D03*
Y946390D03*
Y941390D03*
Y936390D03*
X1085981D03*
Y941390D03*
Y946390D03*
Y951390D03*
Y959390D03*
Y964390D03*
Y969390D03*
Y974390D03*
X1065981D03*
Y969390D03*
Y964390D03*
Y959390D03*
G54D158*
G54D159*
X1169474Y1016456D03*
X1166915D03*
X1164356D03*
X1161797D03*
X1159238D03*
G54D160*
X1151364Y1016850D03*
X1177348D03*
G54D161*
X1149592Y1027086D03*
X1179120D03*
G54D162*
X1169081D03*
X1159632D03*
G54D163*
X1153325Y1007646D03*
X1149388D03*
X1151356Y1002134D03*
G54D164*
X1184356Y999640D03*
X1022881Y1004317D03*
G54D165*
X1184356Y1009890D03*
X1022881Y1014567D03*
G54D166*
X1046516Y825190D03*
X1050256D03*
X1053996D03*
Y835390D03*
X1050256D03*
X1046516D03*
X1063516Y825190D03*
X1067256D03*
X1070996D03*
Y835390D03*
X1067256D03*
X1063516D03*
X1202616Y998790D03*
X1206356D03*
X1210096D03*
Y1008990D03*
X1206356D03*
X1202616D03*
X1079516Y825190D03*
X1083256D03*
X1086996D03*
Y835390D03*
X1083256D03*
X1079516D03*
X1094516Y825190D03*
X1098256D03*
X1101996D03*
Y835390D03*
X1098256D03*
X1094516D03*
X1030516Y825190D03*
X1034256D03*
X1037996D03*
Y835390D03*
X1034256D03*
X1030516D03*
X1014516Y825190D03*
X1018256D03*
X1021996D03*
Y835390D03*
X1018256D03*
X1014516D03*
X1041241Y1001290D03*
X1044981D03*
X1048721D03*
Y1011490D03*
X1041241D03*
G54D167*
X1079469Y852106D03*
X1086358D03*
X1093248D03*
X1079469Y866673D03*
X1086358D03*
X1093248D03*
X1104469Y852106D03*
X1111358D03*
X1118248D03*
X1104469Y866673D03*
X1111358D03*
X1118248D03*
G54D168*
X1205909Y958307D03*
Y974055D03*
X1196461D03*
Y958307D03*
G54D169*
X1321224Y835449D03*
Y832890D03*
Y830331D03*
X1329492D03*
Y832890D03*
Y835449D03*
X1368829Y845449D03*
Y842890D03*
Y840331D03*
X1377097D03*
Y842890D03*
Y845449D03*
G54D170*
X1325358Y832890D03*
X1372963Y842890D03*
G54D171*
X1325358Y834465D03*
Y831315D03*
X1372963Y844465D03*
Y841315D03*
G54D172*
X1022749Y958640D03*
X1020780D03*
X1018811D03*
X1016842D03*
X1014873D03*
X1012904D03*
X1010935D03*
X1008966D03*
X1006997D03*
X1005028D03*
X1003059D03*
X1001090D03*
X999121D03*
X997152D03*
X995183D03*
X993214D03*
Y914140D03*
X995183D03*
X997152D03*
X999121D03*
X1001090D03*
X1003059D03*
X1005028D03*
X1006997D03*
X1008966D03*
X1010935D03*
X1012904D03*
X1014873D03*
X1016842D03*
X1018811D03*
X1020780D03*
X1022749D03*
G54D173*
X985731Y951157D03*
Y949188D03*
Y947219D03*
Y945250D03*
Y943281D03*
Y941312D03*
Y939343D03*
Y937374D03*
Y935405D03*
Y933436D03*
Y931467D03*
Y929498D03*
Y927529D03*
Y925560D03*
Y923591D03*
Y921622D03*
X1030231D03*
Y923591D03*
Y925560D03*
Y927529D03*
Y929498D03*
Y931467D03*
Y933436D03*
Y935405D03*
Y937374D03*
Y939343D03*
Y941312D03*
Y943281D03*
Y945250D03*
Y947219D03*
Y949188D03*
Y951157D03*
G54D174*
X1008858Y1013189D03*
Y1010039D03*
Y1006890D03*
Y1003740D03*
Y1000591D03*
G54D175*
X1007874Y1023425D03*
Y990354D03*
X987008Y1023425D03*
Y990354D03*
G54D176*
X1004981Y899570D03*
Y897010D03*
Y894450D03*
Y891890D03*
Y889330D03*
Y886770D03*
Y884210D03*
X1026981D03*
Y886770D03*
Y889330D03*
Y891890D03*
Y894450D03*
Y897010D03*
Y899570D03*
X1106606Y1008406D03*
Y1005846D03*
Y1003287D03*
Y1000728D03*
Y998169D03*
Y995610D03*
Y993051D03*
Y990492D03*
Y987933D03*
Y985374D03*
X1128606D03*
Y987933D03*
Y990492D03*
Y993051D03*
Y995610D03*
Y998169D03*
Y1000729D03*
Y1003287D03*
Y1005846D03*
Y1008406D03*
G54D177*
X1026425Y992617D03*
X1024456D03*
X1022487D03*
Y987017D03*
X1026425D03*
G54D178*
X1372220Y1009595D03*
X1362220Y1003595D03*
X1332420Y1009595D03*
X1322420Y1003595D03*
G54D179*
X1316320Y978295D03*
X1378320D03*
G54D180*
X1168858Y864390D03*
X1163858D03*
X1158858D03*
X1153858D03*
Y834390D03*
X1158858D03*
X1163858D03*
X1168858D03*
X1139669Y947913D03*
X1144669D03*
Y977913D03*
X1139669D03*
G54D181*
X1363394Y903063D03*
Y905031D03*
Y907000D03*
Y908969D03*
Y910937D03*
Y912906D03*
Y914874D03*
Y916843D03*
Y918811D03*
Y920780D03*
Y922748D03*
Y924717D03*
X1330323D03*
Y922748D03*
Y920780D03*
Y918811D03*
Y916843D03*
Y914874D03*
Y912906D03*
Y910937D03*
Y908969D03*
Y907000D03*
Y905031D03*
Y903063D03*
G54D182*
X1357685Y930425D03*
X1355717D03*
X1353748D03*
X1351780D03*
X1349811D03*
X1347843D03*
X1345874D03*
X1343906D03*
X1341937D03*
X1339969D03*
X1338000D03*
X1336031D03*
Y897354D03*
X1338000D03*
X1339969D03*
X1341937D03*
X1343906D03*
X1345874D03*
X1347843D03*
X1349811D03*
X1351780D03*
X1353748D03*
X1355717D03*
X1357685D03*
G54D183*
X1346858Y913890D03*
G54D184*
X1006831Y785990D03*
X1009981D03*
X1013130D03*
X1016280D03*
X1019429D03*
X1022579D03*
X1025729D03*
X1028878D03*
X1032028D03*
X1035178D03*
X1038327D03*
X1041477D03*
X1044626D03*
X1047776D03*
X1050926D03*
X1054075D03*
X1057225D03*
X1060374D03*
X1063524D03*
X1066674D03*
X1069823D03*
X1072973D03*
X1076122D03*
X1079272D03*
X1082422D03*
X1085571D03*
X1088721D03*
X1091870D03*
X1107618D03*
X1110768D03*
X1113918D03*
X1117067D03*
X1120217D03*
X1123367D03*
X1126516D03*
X1129666D03*
X1132815D03*
X1135965D03*
X1139115D03*
X1142264D03*
X1145414D03*
X1148563D03*
X1151713D03*
X1154863D03*
X1158012D03*
X1161162D03*
X1164311D03*
X1167461D03*
X1170611D03*
X1173760D03*
X1176910D03*
X1180059D03*
X1183209D03*
X1186359D03*
X1189508D03*
X1192658D03*
X1195807D03*
X1198957D03*
X1202107D03*
X1205256D03*
X1288201D03*
X1291351D03*
X1294500D03*
X1297650D03*
X1300800D03*
X1303949D03*
X1307099D03*
X1310248D03*
X1313398D03*
X1316548D03*
X1319697D03*
X1322847D03*
X1325996D03*
X1329146D03*
X1332296D03*
X1335445D03*
X1338595D03*
X1341744D03*
X1344894D03*
X1348044D03*
X1351193D03*
X1354343D03*
X1357492D03*
X1360642D03*
X1363792D03*
X1366941D03*
X1370091D03*
X1373241D03*
X1376390D03*
X1379540D03*
G54D185*
X1253256Y1011795D03*
X1257556Y1010195D03*
X1261856Y1011795D03*
X1266156Y1012595D03*
X1270456Y1011795D03*
X1274756Y1012595D03*
X1279056Y1011795D03*
X1283356D03*
G54D186*
X1257156Y970095D03*
X1279656D03*
G54D187*
X1286456Y1022895D03*
X1233856Y1027595D03*
G54D188*
X1451097Y330974D02*
Y321130D01*
X1455188*
X1460983Y330974D02*
X1458256Y321130D01*
X1460983Y330974D02*
X1463710Y321130D01*
X1459278Y324412D02*
X1462688D01*
X1466778Y330974D02*
X1469506Y326287D01*
Y321130*
X1472233Y330974D02*
X1469506Y326287D01*
X1475301Y330974D02*
Y321130D01*
Y330974D02*
X1479733D01*
X1475301Y326287D02*
X1478028D01*
X1475301Y321130D02*
X1479733D01*
X1482801Y330974D02*
Y321130D01*
Y330974D02*
X1485869D01*
X1486892Y330505*
X1487233Y330037*
X1487574Y329099*
Y328162*
X1487233Y327224*
X1486892Y326755*
X1485869Y326287*
X1482801*
X1485188D02*
X1487574Y321130D01*
X1418244Y501834D02*
X1415517Y491990D01*
X1418244Y501834D02*
X1420972Y491990D01*
X1416540Y495271D02*
X1419949D01*
X1424040Y498552D02*
Y491990D01*
Y495740D02*
X1424381Y497146D01*
X1425063Y498084*
X1425744Y498552*
X1426767*
X1430858Y501834D02*
Y493865D01*
X1431199Y492459*
X1431881Y491990*
X1432563*
X1429835Y498552D02*
X1432222D01*
X1435631D02*
X1436994Y491990D01*
X1438358Y498552D02*
X1436994Y491990D01*
X1438358Y498552D02*
X1439722Y491990D01*
X1441085Y498552D02*
X1439722Y491990D01*
X1445858Y498552D02*
X1445176Y498084D01*
X1444494Y497146*
X1444153Y495740*
Y494802*
X1444494Y493396*
X1445176Y492459*
X1445858Y491990*
X1446881*
X1447563Y492459*
X1448244Y493396*
X1448585Y494802*
Y495740*
X1448244Y497146*
X1447563Y498084*
X1446881Y498552*
X1445858*
X1451653D02*
Y491990D01*
Y495740D02*
X1451994Y497146D01*
X1452676Y498084*
X1453358Y498552*
X1454381*
X1457449Y501834D02*
Y491990D01*
X1460858Y498552D02*
X1457449Y493865D01*
X1458813Y495740D02*
X1461199Y491990D01*
X1472108Y501834D02*
Y491990D01*
Y501834D02*
X1474494D01*
X1475517Y501365*
X1476199Y500427*
X1476540Y499490*
X1476881Y498084*
Y495740*
X1476540Y494334*
X1476199Y493396*
X1475517Y492459*
X1474494Y491990*
X1472108*
X1479949Y495740D02*
X1484040D01*
Y496677*
X1483699Y497615*
X1483358Y498084*
X1482676Y498552*
X1481653*
X1480972Y498084*
X1480290Y497146*
X1479949Y495740*
Y494802*
X1480290Y493396*
X1480972Y492459*
X1481653Y491990*
X1482676*
X1483358Y492459*
X1484040Y493396*
X1490858Y497146D02*
X1490517Y498084D01*
X1489494Y498552*
X1488472*
X1487449Y498084*
X1487108Y497146*
X1487449Y496209*
X1488131Y495740*
X1489835Y495271*
X1490517Y494802*
X1490858Y493865*
Y493396*
X1490517Y492459*
X1489494Y491990*
X1488472*
X1487449Y492459*
X1487108Y493396*
X1493926Y501834D02*
X1494267Y501365D01*
X1494608Y501834*
X1494267Y502302*
X1493926Y501834*
X1494267Y498552D02*
Y491990D01*
X1501767Y498552D02*
Y491052D01*
X1501426Y489646*
X1501085Y489177*
X1500403Y488709*
X1499381*
X1498699Y489177*
X1501767Y497146D02*
X1501085Y498084D01*
X1500403Y498552*
X1499381*
X1498699Y498084*
X1498017Y497146*
X1497676Y495740*
Y494802*
X1498017Y493396*
X1498699Y492459*
X1499381Y491990*
X1500403*
X1501085Y492459*
X1501767Y493396*
X1504835Y498552D02*
Y491990D01*
Y496677D02*
X1505858Y498084D01*
X1506540Y498552*
X1507563*
X1508244Y498084*
X1508585Y496677*
Y491990*
X1511653Y495740D02*
X1515744D01*
Y496677*
X1515403Y497615*
X1515063Y498084*
X1514381Y498552*
X1513358*
X1512676Y498084*
X1511994Y497146*
X1511653Y495740*
Y494802*
X1511994Y493396*
X1512676Y492459*
X1513358Y491990*
X1514381*
X1515063Y492459*
X1515744Y493396*
X1522903Y501834D02*
Y491990D01*
Y497146D02*
X1522222Y498084D01*
X1521540Y498552*
X1520517*
X1519835Y498084*
X1519153Y497146*
X1518813Y495740*
Y494802*
X1519153Y493396*
X1519835Y492459*
X1520517Y491990*
X1521540*
X1522222Y492459*
X1522903Y493396*
X1533813Y501834D02*
Y491990D01*
Y501834D02*
X1538244D01*
X1533813Y497146D02*
X1536540D01*
X1543017Y498552D02*
X1542335Y498084D01*
X1541653Y497146*
X1541313Y495740*
Y494802*
X1541653Y493396*
X1542335Y492459*
X1543017Y491990*
X1544040*
X1544722Y492459*
X1545403Y493396*
X1545744Y494802*
Y495740*
X1545403Y497146*
X1544722Y498084*
X1544040Y498552*
X1543017*
X1548813D02*
Y491990D01*
Y495740D02*
X1549153Y497146D01*
X1549835Y498084*
X1550517Y498552*
X1551540*
X1554949D02*
X1554608Y498084D01*
X1554949Y497615*
X1555290Y498084*
X1554949Y498552*
Y492927D02*
X1554608Y492459D01*
X1554949Y491990*
X1555290Y492459*
X1554949Y492927*
X1415517Y446834D02*
Y436990D01*
Y446834D02*
X1418585D01*
X1419608Y446365*
X1419949Y445896*
X1420290Y444959*
Y444021*
X1419949Y443084*
X1419608Y442615*
X1418585Y442146*
X1415517D02*
X1418585D01*
X1419608Y441677*
X1419949Y441209*
X1420290Y440271*
Y438865*
X1419949Y437927*
X1419608Y437459*
X1418585Y436990*
X1415517*
X1425063Y443552D02*
X1424381Y443084D01*
X1423699Y442146*
X1423358Y440740*
Y439802*
X1423699Y438396*
X1424381Y437459*
X1425063Y436990*
X1426085*
X1426767Y437459*
X1427449Y438396*
X1427790Y439802*
Y440740*
X1427449Y442146*
X1426767Y443084*
X1426085Y443552*
X1425063*
X1434949D02*
Y436990D01*
Y442146D02*
X1434267Y443084D01*
X1433585Y443552*
X1432563*
X1431881Y443084*
X1431199Y442146*
X1430858Y440740*
Y439802*
X1431199Y438396*
X1431881Y437459*
X1432563Y436990*
X1433585*
X1434267Y437459*
X1434949Y438396*
X1438017Y443552D02*
Y436990D01*
Y440740D02*
X1438358Y442146D01*
X1439040Y443084*
X1439722Y443552*
X1440744*
X1447903Y446834D02*
Y436990D01*
Y442146D02*
X1447222Y443084D01*
X1446540Y443552*
X1445517*
X1444835Y443084*
X1444153Y442146*
X1443813Y440740*
Y439802*
X1444153Y438396*
X1444835Y437459*
X1445517Y436990*
X1446540*
X1447222Y437459*
X1447903Y438396*
X1458813Y446834D02*
Y436990D01*
Y446834D02*
X1461199D01*
X1462222Y446365*
X1462903Y445427*
X1463244Y444490*
X1463585Y443084*
Y440740*
X1463244Y439334*
X1462903Y438396*
X1462222Y437459*
X1461199Y436990*
X1458813*
X1466653Y440740D02*
X1470744D01*
Y441677*
X1470403Y442615*
X1470063Y443084*
X1469381Y443552*
X1468358*
X1467676Y443084*
X1466994Y442146*
X1466653Y440740*
Y439802*
X1466994Y438396*
X1467676Y437459*
X1468358Y436990*
X1469381*
X1470063Y437459*
X1470744Y438396*
X1477563Y442146D02*
X1477222Y443084D01*
X1476199Y443552*
X1475176*
X1474153Y443084*
X1473813Y442146*
X1474153Y441209*
X1474835Y440740*
X1476540Y440271*
X1477222Y439802*
X1477563Y438865*
Y438396*
X1477222Y437459*
X1476199Y436990*
X1475176*
X1474153Y437459*
X1473813Y438396*
X1484722Y442146D02*
X1484040Y443084D01*
X1483358Y443552*
X1482335*
X1481653Y443084*
X1480972Y442146*
X1480631Y440740*
Y439802*
X1480972Y438396*
X1481653Y437459*
X1482335Y436990*
X1483358*
X1484040Y437459*
X1484722Y438396*
X1487790Y443552D02*
Y436990D01*
Y440740D02*
X1488131Y442146D01*
X1488813Y443084*
X1489494Y443552*
X1490517*
X1493585Y446834D02*
X1493926Y446365D01*
X1494267Y446834*
X1493926Y447302*
X1493585Y446834*
X1493926Y443552D02*
Y436990D01*
X1497335Y443552D02*
Y433709D01*
Y442146D02*
X1498017Y443084D01*
X1498699Y443552*
X1499722*
X1500403Y443084*
X1501085Y442146*
X1501426Y440740*
Y439802*
X1501085Y438396*
X1500403Y437459*
X1499722Y436990*
X1498699*
X1498017Y437459*
X1497335Y438396*
X1505517Y446834D02*
Y438865D01*
X1505858Y437459*
X1506540Y436990*
X1507222*
X1504494Y443552D02*
X1506881D01*
X1510290Y446834D02*
X1510631Y446365D01*
X1510972Y446834*
X1510631Y447302*
X1510290Y446834*
X1510631Y443552D02*
Y436990D01*
X1515744Y443552D02*
X1515063Y443084D01*
X1514381Y442146*
X1514040Y440740*
Y439802*
X1514381Y438396*
X1515063Y437459*
X1515744Y436990*
X1516767*
X1517449Y437459*
X1518131Y438396*
X1518472Y439802*
Y440740*
X1518131Y442146*
X1517449Y443084*
X1516767Y443552*
X1515744*
X1521540D02*
Y436990D01*
Y441677D02*
X1522563Y443084D01*
X1523244Y443552*
X1524267*
X1524949Y443084*
X1525290Y441677*
Y436990*
X1528699Y443552D02*
X1528358Y443084D01*
X1528699Y442615*
X1529040Y443084*
X1528699Y443552*
Y437927D02*
X1528358Y437459D01*
X1528699Y436990*
X1529040Y437459*
X1528699Y437927*
X1415517Y376834D02*
Y366990D01*
Y376834D02*
X1418585D01*
X1419608Y376365*
X1419949Y375896*
X1420290Y374959*
Y373552*
X1419949Y372615*
X1419608Y372146*
X1418585Y371677*
X1415517*
X1427449Y373552D02*
Y366990D01*
Y372146D02*
X1426767Y373084D01*
X1426085Y373552*
X1425063*
X1424381Y373084*
X1423699Y372146*
X1423358Y370740*
Y369802*
X1423699Y368396*
X1424381Y367459*
X1425063Y366990*
X1426085*
X1426767Y367459*
X1427449Y368396*
X1430517Y373552D02*
Y366990D01*
Y370740D02*
X1430858Y372146D01*
X1431540Y373084*
X1432222Y373552*
X1433244*
X1437335Y376834D02*
Y368865D01*
X1437676Y367459*
X1438358Y366990*
X1439040*
X1436313Y373552D02*
X1438699D01*
X1449949Y376834D02*
Y366990D01*
Y376834D02*
X1454722Y366990D01*
Y376834D02*
Y366990D01*
X1459494Y373552D02*
X1458813Y373084D01*
X1458131Y372146*
X1457790Y370740*
Y369802*
X1458131Y368396*
X1458813Y367459*
X1459494Y366990*
X1460517*
X1461199Y367459*
X1461881Y368396*
X1462222Y369802*
Y370740*
X1461881Y372146*
X1461199Y373084*
X1460517Y373552*
X1459494*
X1465631D02*
X1465290Y373084D01*
X1465631Y372615*
X1465972Y373084*
X1465631Y373552*
Y367927D02*
X1465290Y367459D01*
X1465631Y366990*
X1465972Y367459*
X1465631Y367927*
X1715517Y376834D02*
Y366990D01*
Y376834D02*
X1718585D01*
X1719608Y376365*
X1719949Y375896*
X1720290Y374959*
Y374021*
X1719949Y373084*
X1719608Y372615*
X1718585Y372146*
X1715517*
X1717903D02*
X1720290Y366990D01*
X1723358Y370740D02*
X1727449D01*
Y371677*
X1727108Y372615*
X1726767Y373084*
X1726085Y373552*
X1725063*
X1724381Y373084*
X1723699Y372146*
X1723358Y370740*
Y369802*
X1723699Y368396*
X1724381Y367459*
X1725063Y366990*
X1726085*
X1726767Y367459*
X1727449Y368396*
X1730517Y373552D02*
X1732563Y366990D01*
X1734608Y373552D02*
X1732563Y366990D01*
X1737676Y376834D02*
X1738017Y376365D01*
X1738358Y376834*
X1738017Y377302*
X1737676Y376834*
X1738017Y373552D02*
Y366990D01*
X1745176Y372146D02*
X1744835Y373084D01*
X1743813Y373552*
X1742790*
X1741767Y373084*
X1741426Y372146*
X1741767Y371209*
X1742449Y370740*
X1744153Y370271*
X1744835Y369802*
X1745176Y368865*
Y368396*
X1744835Y367459*
X1743813Y366990*
X1742790*
X1741767Y367459*
X1741426Y368396*
X1748244Y376834D02*
X1748585Y376365D01*
X1748926Y376834*
X1748585Y377302*
X1748244Y376834*
X1748585Y373552D02*
Y366990D01*
X1753699Y373552D02*
X1753017Y373084D01*
X1752335Y372146*
X1751994Y370740*
Y369802*
X1752335Y368396*
X1753017Y367459*
X1753699Y366990*
X1754722*
X1755403Y367459*
X1756085Y368396*
X1756426Y369802*
Y370740*
X1756085Y372146*
X1755403Y373084*
X1754722Y373552*
X1753699*
X1759494D02*
Y366990D01*
Y371677D02*
X1760517Y373084D01*
X1761199Y373552*
X1762222*
X1762903Y373084*
X1763244Y371677*
Y366990*
X1766653Y373552D02*
X1766313Y373084D01*
X1766653Y372615*
X1766994Y373084*
X1766653Y373552*
Y367927D02*
X1766313Y367459D01*
X1766653Y366990*
X1766994Y367459*
X1766653Y367927*
X1510517Y365115D02*
Y351990D01*
Y365115D02*
X1516426D01*
X1510517Y358865D02*
X1514153D01*
X1520972Y361990D02*
Y362615D01*
X1521426Y363865*
X1521881Y364490*
X1522790Y365115*
X1524608*
X1525517Y364490*
X1525972Y363865*
X1526426Y362615*
Y361365*
X1525972Y360115*
X1525063Y358240*
X1520517Y351990*
X1526881*
X1533244Y365115D02*
X1531881Y364490D01*
X1531426Y363240*
Y361990*
X1531881Y360740*
X1532790Y360115*
X1534608Y359490*
X1535972Y358865*
X1536881Y357615*
X1537335Y356365*
Y354490*
X1536881Y353240*
X1536426Y352615*
X1535063Y351990*
X1533244*
X1531881Y352615*
X1531426Y353240*
X1530972Y354490*
Y356365*
X1531426Y357615*
X1532335Y358865*
X1533699Y359490*
X1535517Y360115*
X1536426Y360740*
X1536881Y361990*
Y363240*
X1536426Y364490*
X1535063Y365115*
X1533244*
X1541426D02*
Y351990D01*
Y365115D02*
X1545063Y351990D01*
X1548699Y365115D02*
X1545063Y351990D01*
X1548699Y365115D02*
Y351990D01*
X1553699Y365115D02*
X1558699D01*
X1555972Y360115*
X1557335*
X1558244Y359490*
X1558699Y358865*
X1559153Y356990*
Y355740*
X1558699Y353865*
X1557790Y352615*
X1556426Y351990*
X1555063*
X1553699Y352615*
X1553244Y353240*
X1552790Y354490*
X1568699Y363240D02*
X1568244Y364490D01*
X1566881Y365115*
X1565972*
X1564608Y364490*
X1563699Y362615*
X1563244Y359490*
Y356365*
X1563699Y353865*
X1564608Y352615*
X1565972Y351990*
X1566426*
X1567790Y352615*
X1568699Y353865*
X1569153Y355740*
Y356365*
X1568699Y358240*
X1567790Y359490*
X1566426Y360115*
X1565972*
X1564608Y359490*
X1563699Y358240*
X1563244Y356365*
X1573244Y360740D02*
X1578244Y351990D01*
Y360740D02*
X1573244Y351990D01*
X1582335Y349490D02*
X1591881D01*
X1600063Y358865D02*
X1599153Y360115D01*
X1598244Y360740*
X1596881*
X1595972Y360115*
X1595063Y358865*
X1594608Y356990*
Y355740*
X1595063Y353865*
X1595972Y352615*
X1596881Y351990*
X1598244*
X1599153Y352615*
X1600063Y353865*
X1606426Y360740D02*
X1605517Y360115D01*
X1604608Y358865*
X1604153Y356990*
Y355740*
X1604608Y353865*
X1605517Y352615*
X1606426Y351990*
X1607790*
X1608699Y352615*
X1609608Y353865*
X1610063Y355740*
Y356990*
X1609608Y358865*
X1608699Y360115*
X1607790Y360740*
X1606426*
X1614153D02*
Y351990D01*
Y358240D02*
X1615517Y360115D01*
X1616426Y360740*
X1617790*
X1618699Y360115*
X1619153Y358240*
Y351990*
X1624608Y365115D02*
Y354490D01*
X1625063Y352615*
X1625972Y351990*
X1626881*
X1623244Y360740D02*
X1626426D01*
X1630972D02*
Y351990D01*
Y356990D02*
X1631426Y358865D01*
X1632335Y360115*
X1633244Y360740*
X1634608*
X1640972D02*
X1640063Y360115D01*
X1639153Y358865*
X1638699Y356990*
Y355740*
X1639153Y353865*
X1640063Y352615*
X1640972Y351990*
X1642335*
X1643244Y352615*
X1644153Y353865*
X1644608Y355740*
Y356990*
X1644153Y358865*
X1643244Y360115*
X1642335Y360740*
X1640972*
X1648699Y365115D02*
Y351990D01*
X1659608Y361990D02*
X1659153Y363240D01*
X1658244Y364490*
X1657335Y365115*
X1655517*
X1654608Y364490*
X1653699Y363240*
X1653244Y361990*
X1652790Y360115*
Y356990*
X1653244Y355115*
X1653699Y353865*
X1654608Y352615*
X1655517Y351990*
X1657335*
X1658244Y352615*
X1659153Y353865*
X1659608Y355115*
X1667335Y365115D02*
X1663699Y351990D01*
X1667335Y365115D02*
X1670972Y351990D01*
X1665063Y356365D02*
X1669608D01*
X1675063Y365115D02*
Y351990D01*
Y365115D02*
X1679153D01*
X1680517Y364490*
X1680972Y363865*
X1681426Y362615*
Y361365*
X1680972Y360115*
X1680517Y359490*
X1679153Y358865*
X1675063*
X1678244D02*
X1681426Y351990D01*
X1685517Y365115D02*
Y351990D01*
Y365115D02*
X1688699D01*
X1690063Y364490*
X1690972Y363240*
X1691426Y361990*
X1691881Y360115*
Y356990*
X1691426Y355115*
X1690972Y353865*
X1690063Y352615*
X1688699Y351990*
X1685517*
X1796835Y362615D02*
X1797744Y363240D01*
X1799108Y365115*
Y351990*
X1803653Y353240D02*
X1803199Y352615D01*
X1803653Y351990*
X1804108Y352615*
X1803653Y353240*
X1808199Y362615D02*
X1809108Y363240D01*
X1810472Y365115*
Y351990*
X1548199Y477302D02*
Y464177D01*
X1545017Y477302D02*
X1551381D01*
X1555472D02*
Y464177D01*
Y477302D02*
X1561381D01*
X1555472Y471052D02*
X1559108D01*
X1555472Y464177D02*
X1561381D01*
X1565472Y477302D02*
X1571835Y464177D01*
Y477302D02*
X1565472Y464177D01*
X1579563Y477302D02*
X1575926Y464177D01*
X1579563Y477302D02*
X1583199Y464177D01*
X1577290Y468552D02*
X1581835D01*
X1593653Y475427D02*
X1592744Y476677D01*
X1591381Y477302*
X1589563*
X1588199Y476677*
X1587290Y475427*
Y474177*
X1587744Y472927*
X1588199Y472302*
X1589108Y471677*
X1591835Y470427*
X1592744Y469802*
X1593199Y469177*
X1593653Y467927*
Y466052*
X1592744Y464802*
X1591381Y464177*
X1589563*
X1588199Y464802*
X1587290Y466052*
X1608199Y477302D02*
Y464177D01*
X1612290Y477302D02*
Y464177D01*
Y477302D02*
X1618653Y464177D01*
Y477302D02*
Y464177D01*
X1629108Y475427D02*
X1628199Y476677D01*
X1626835Y477302*
X1625017*
X1623653Y476677*
X1622744Y475427*
Y474177*
X1623199Y472927*
X1623653Y472302*
X1624563Y471677*
X1627290Y470427*
X1628199Y469802*
X1628653Y469177*
X1629108Y467927*
Y466052*
X1628199Y464802*
X1626835Y464177*
X1625017*
X1623653Y464802*
X1622744Y466052*
X1636381Y477302D02*
Y464177D01*
X1633199Y477302D02*
X1639563D01*
X1643653D02*
Y464177D01*
Y477302D02*
X1647744D01*
X1649108Y476677*
X1649563Y476052*
X1650017Y474802*
Y473552*
X1649563Y472302*
X1649108Y471677*
X1647744Y471052*
X1643653*
X1646835D02*
X1650017Y464177D01*
X1654108Y477302D02*
Y467927D01*
X1654563Y466052*
X1655472Y464802*
X1656835Y464177*
X1657744*
X1659108Y464802*
X1660017Y466052*
X1660472Y467927*
Y477302*
X1664563D02*
Y464177D01*
Y477302D02*
X1668199Y464177D01*
X1671835Y477302D02*
X1668199Y464177D01*
X1671835Y477302D02*
Y464177D01*
X1675926Y477302D02*
Y464177D01*
Y477302D02*
X1681835D01*
X1675926Y471052D02*
X1679563D01*
X1675926Y464177D02*
X1681835D01*
X1685926Y477302D02*
Y464177D01*
Y477302D02*
X1692290Y464177D01*
Y477302D02*
Y464177D01*
X1699563Y477302D02*
Y464177D01*
X1696381Y477302D02*
X1702744D01*
X1713199Y475427D02*
X1712290Y476677D01*
X1710926Y477302*
X1709108*
X1707744Y476677*
X1706835Y475427*
Y474177*
X1707290Y472927*
X1707744Y472302*
X1708653Y471677*
X1711381Y470427*
X1712290Y469802*
X1712744Y469177*
X1713199Y467927*
Y466052*
X1712290Y464802*
X1710926Y464177*
X1709108*
X1707744Y464802*
X1706835Y466052*
X1539335Y427302D02*
Y414177D01*
Y427302D02*
X1545244D01*
X1539335Y421052D02*
X1542972D01*
X1549790Y424177D02*
Y424802D01*
X1550244Y426052*
X1550699Y426677*
X1551608Y427302*
X1553426*
X1554335Y426677*
X1554790Y426052*
X1555244Y424802*
Y423552*
X1554790Y422302*
X1553881Y420427*
X1549335Y414177*
X1555699*
X1562063Y427302D02*
X1560699Y426677D01*
X1560244Y425427*
Y424177*
X1560699Y422927*
X1561608Y422302*
X1563426Y421677*
X1564790Y421052*
X1565699Y419802*
X1566153Y418552*
Y416677*
X1565699Y415427*
X1565244Y414802*
X1563881Y414177*
X1562063*
X1560699Y414802*
X1560244Y415427*
X1559790Y416677*
Y418552*
X1560244Y419802*
X1561153Y421052*
X1562517Y421677*
X1564335Y422302*
X1565244Y422927*
X1565699Y424177*
Y425427*
X1565244Y426677*
X1563881Y427302*
X1562063*
X1570244D02*
Y414177D01*
Y427302D02*
X1573881Y414177D01*
X1577517Y427302D02*
X1573881Y414177D01*
X1577517Y427302D02*
Y414177D01*
X1582517Y427302D02*
X1587517D01*
X1584790Y422302*
X1586153*
X1587063Y421677*
X1587517Y421052*
X1587972Y419177*
Y417927*
X1587517Y416052*
X1586608Y414802*
X1585244Y414177*
X1583881*
X1582517Y414802*
X1582063Y415427*
X1581608Y416677*
X1597517Y425427D02*
X1597063Y426677D01*
X1595699Y427302*
X1594790*
X1593426Y426677*
X1592517Y424802*
X1592063Y421677*
Y418552*
X1592517Y416052*
X1593426Y414802*
X1594790Y414177*
X1595244*
X1596608Y414802*
X1597517Y416052*
X1597972Y417927*
Y418552*
X1597517Y420427*
X1596608Y421677*
X1595244Y422302*
X1594790*
X1593426Y421677*
X1592517Y420427*
X1592063Y418552*
X1602063Y422927D02*
X1607063Y414177D01*
Y422927D02*
X1602063Y414177D01*
X1627063Y421052D02*
X1626153Y422302D01*
X1625244Y422927*
X1623881*
X1622972Y422302*
X1622063Y421052*
X1621608Y419177*
Y417927*
X1622063Y416052*
X1622972Y414802*
X1623881Y414177*
X1625244*
X1626153Y414802*
X1627063Y416052*
X1633426Y422927D02*
X1632517Y422302D01*
X1631608Y421052*
X1631153Y419177*
Y417927*
X1631608Y416052*
X1632517Y414802*
X1633426Y414177*
X1634790*
X1635699Y414802*
X1636608Y416052*
X1637063Y417927*
Y419177*
X1636608Y421052*
X1635699Y422302*
X1634790Y422927*
X1633426*
X1641153D02*
Y414177D01*
Y420427D02*
X1642517Y422302D01*
X1643426Y422927*
X1644790*
X1645699Y422302*
X1646153Y420427*
Y414177*
X1651608Y427302D02*
Y416677D01*
X1652063Y414802*
X1652972Y414177*
X1653881*
X1650244Y422927D02*
X1653426D01*
X1657972D02*
Y414177D01*
Y419177D02*
X1658426Y421052D01*
X1659335Y422302*
X1660244Y422927*
X1661608*
X1667972D02*
X1667063Y422302D01*
X1666153Y421052*
X1665699Y419177*
Y417927*
X1666153Y416052*
X1667063Y414802*
X1667972Y414177*
X1669335*
X1670244Y414802*
X1671153Y416052*
X1671608Y417927*
Y419177*
X1671153Y421052*
X1670244Y422302*
X1669335Y422927*
X1667972*
X1675699Y427302D02*
Y414177D01*
X1686608Y424177D02*
X1686153Y425427D01*
X1685244Y426677*
X1684335Y427302*
X1682517*
X1681608Y426677*
X1680699Y425427*
X1680244Y424177*
X1679790Y422302*
Y419177*
X1680244Y417302*
X1680699Y416052*
X1681608Y414802*
X1682517Y414177*
X1684335*
X1685244Y414802*
X1686153Y416052*
X1686608Y417302*
X1694335Y427302D02*
X1690699Y414177D01*
X1694335Y427302D02*
X1697972Y414177D01*
X1692063Y418552D02*
X1696608D01*
X1702063Y427302D02*
Y414177D01*
Y427302D02*
X1706153D01*
X1707517Y426677*
X1707972Y426052*
X1708426Y424802*
Y423552*
X1707972Y422302*
X1707517Y421677*
X1706153Y421052*
X1702063*
X1705244D02*
X1708426Y414177D01*
X1712517Y427302D02*
Y414177D01*
Y427302D02*
X1715699D01*
X1717063Y426677*
X1717972Y425427*
X1718426Y424177*
X1718881Y422302*
Y419177*
X1718426Y417302*
X1717972Y416052*
X1717063Y414802*
X1715699Y414177*
X1712517*
X1133244Y501834D02*
X1130517Y491990D01*
X1133244Y501834D02*
X1135972Y491990D01*
X1131540Y495271D02*
X1134949D01*
X1139040Y498552D02*
Y491990D01*
Y495740D02*
X1139381Y497146D01*
X1140063Y498084*
X1140744Y498552*
X1141767*
X1145858Y501834D02*
Y493865D01*
X1146199Y492459*
X1146881Y491990*
X1147563*
X1144835Y498552D02*
X1147222D01*
X1150631D02*
X1151994Y491990D01*
X1153358Y498552D02*
X1151994Y491990D01*
X1153358Y498552D02*
X1154722Y491990D01*
X1156085Y498552D02*
X1154722Y491990D01*
X1160858Y498552D02*
X1160176Y498084D01*
X1159494Y497146*
X1159153Y495740*
Y494802*
X1159494Y493396*
X1160176Y492459*
X1160858Y491990*
X1161881*
X1162563Y492459*
X1163244Y493396*
X1163585Y494802*
Y495740*
X1163244Y497146*
X1162563Y498084*
X1161881Y498552*
X1160858*
X1166653D02*
Y491990D01*
Y495740D02*
X1166994Y497146D01*
X1167676Y498084*
X1168358Y498552*
X1169381*
X1172449Y501834D02*
Y491990D01*
X1175858Y498552D02*
X1172449Y493865D01*
X1173813Y495740D02*
X1176199Y491990D01*
X1187108Y501834D02*
Y491990D01*
Y501834D02*
X1189494D01*
X1190517Y501365*
X1191199Y500427*
X1191540Y499490*
X1191881Y498084*
Y495740*
X1191540Y494334*
X1191199Y493396*
X1190517Y492459*
X1189494Y491990*
X1187108*
X1194949Y495740D02*
X1199040D01*
Y496677*
X1198699Y497615*
X1198358Y498084*
X1197676Y498552*
X1196653*
X1195972Y498084*
X1195290Y497146*
X1194949Y495740*
Y494802*
X1195290Y493396*
X1195972Y492459*
X1196653Y491990*
X1197676*
X1198358Y492459*
X1199040Y493396*
X1205858Y497146D02*
X1205517Y498084D01*
X1204494Y498552*
X1203472*
X1202449Y498084*
X1202108Y497146*
X1202449Y496209*
X1203131Y495740*
X1204835Y495271*
X1205517Y494802*
X1205858Y493865*
Y493396*
X1205517Y492459*
X1204494Y491990*
X1203472*
X1202449Y492459*
X1202108Y493396*
X1208926Y501834D02*
X1209267Y501365D01*
X1209608Y501834*
X1209267Y502302*
X1208926Y501834*
X1209267Y498552D02*
Y491990D01*
X1216767Y498552D02*
Y491052D01*
X1216426Y489646*
X1216085Y489177*
X1215403Y488709*
X1214381*
X1213699Y489177*
X1216767Y497146D02*
X1216085Y498084D01*
X1215403Y498552*
X1214381*
X1213699Y498084*
X1213017Y497146*
X1212676Y495740*
Y494802*
X1213017Y493396*
X1213699Y492459*
X1214381Y491990*
X1215403*
X1216085Y492459*
X1216767Y493396*
X1219835Y498552D02*
Y491990D01*
Y496677D02*
X1220858Y498084D01*
X1221540Y498552*
X1222563*
X1223244Y498084*
X1223585Y496677*
Y491990*
X1226653Y495740D02*
X1230744D01*
Y496677*
X1230403Y497615*
X1230063Y498084*
X1229381Y498552*
X1228358*
X1227676Y498084*
X1226994Y497146*
X1226653Y495740*
Y494802*
X1226994Y493396*
X1227676Y492459*
X1228358Y491990*
X1229381*
X1230063Y492459*
X1230744Y493396*
X1237903Y501834D02*
Y491990D01*
Y497146D02*
X1237222Y498084D01*
X1236540Y498552*
X1235517*
X1234835Y498084*
X1234153Y497146*
X1233813Y495740*
Y494802*
X1234153Y493396*
X1234835Y492459*
X1235517Y491990*
X1236540*
X1237222Y492459*
X1237903Y493396*
X1248813Y501834D02*
Y491990D01*
Y501834D02*
X1251881D01*
X1252903Y501365*
X1253244Y500896*
X1253585Y499959*
Y499021*
X1253244Y498084*
X1252903Y497615*
X1251881Y497146*
X1248813D02*
X1251881D01*
X1252903Y496677*
X1253244Y496209*
X1253585Y495271*
Y493865*
X1253244Y492927*
X1252903Y492459*
X1251881Y491990*
X1248813*
X1256994Y498552D02*
X1259040Y491990D01*
X1261085Y498552D02*
X1259040Y491990D01*
X1258358Y490115*
X1257676Y489177*
X1256994Y488709*
X1256653*
X1264494Y498552D02*
X1264153Y498084D01*
X1264494Y497615*
X1264835Y498084*
X1264494Y498552*
Y492927D02*
X1264153Y492459D01*
X1264494Y491990*
X1264835Y492459*
X1264494Y492927*
X1133926Y336834D02*
Y329334D01*
X1133585Y327927*
X1133244Y327459*
X1132563Y326990*
X1131881*
X1131199Y327459*
X1130858Y327927*
X1130517Y329334*
Y330271*
X1138699Y333552D02*
X1138017Y333084D01*
X1137335Y332146*
X1136994Y330740*
Y329802*
X1137335Y328396*
X1138017Y327459*
X1138699Y326990*
X1139722*
X1140403Y327459*
X1141085Y328396*
X1141426Y329802*
Y330740*
X1141085Y332146*
X1140403Y333084*
X1139722Y333552*
X1138699*
X1144494Y336834D02*
Y326990D01*
Y332146D02*
X1145176Y333084D01*
X1145858Y333552*
X1146881*
X1147563Y333084*
X1148244Y332146*
X1148585Y330740*
Y329802*
X1148244Y328396*
X1147563Y327459*
X1146881Y326990*
X1145858*
X1145176Y327459*
X1144494Y328396*
X1159494Y336834D02*
Y326990D01*
Y336834D02*
X1164267Y326990D01*
Y336834D02*
Y326990D01*
X1169040Y333552D02*
X1168358Y333084D01*
X1167676Y332146*
X1167335Y330740*
Y329802*
X1167676Y328396*
X1168358Y327459*
X1169040Y326990*
X1170063*
X1170744Y327459*
X1171426Y328396*
X1171767Y329802*
Y330740*
X1171426Y332146*
X1170744Y333084*
X1170063Y333552*
X1169040*
X1175176D02*
X1174835Y333084D01*
X1175176Y332615*
X1175517Y333084*
X1175176Y333552*
Y327927D02*
X1174835Y327459D01*
X1175176Y326990*
X1175517Y327459*
X1175176Y327927*
X1200926Y332302D02*
Y319177D01*
X1197744Y332302D02*
X1204108D01*
X1208199D02*
Y319177D01*
Y332302D02*
X1214108D01*
X1208199Y326052D02*
X1211835D01*
X1208199Y319177D02*
X1214108D01*
X1218199Y332302D02*
X1224563Y319177D01*
Y332302D02*
X1218199Y319177D01*
X1229108Y320427D02*
X1228653Y319802D01*
X1229108Y319177*
X1229563Y319802*
X1229108Y320427*
X1236381Y332302D02*
X1235017Y331677D01*
X1234108Y329802*
X1233653Y326677*
Y324802*
X1234108Y321677*
X1235017Y319802*
X1236381Y319177*
X1237290*
X1238653Y319802*
X1239563Y321677*
X1240017Y324802*
Y326677*
X1239563Y329802*
X1238653Y331677*
X1237290Y332302*
X1236381*
X1246381D02*
X1245017Y331677D01*
X1244563Y330427*
Y329177*
X1245017Y327927*
X1245926Y327302*
X1247744Y326677*
X1249108Y326052*
X1250017Y324802*
X1250472Y323552*
Y321677*
X1250017Y320427*
X1249563Y319802*
X1248199Y319177*
X1246381*
X1245017Y319802*
X1244563Y320427*
X1244108Y321677*
Y323552*
X1244563Y324802*
X1245472Y326052*
X1246835Y326677*
X1248653Y327302*
X1249563Y327927*
X1250017Y329177*
Y330427*
X1249563Y331677*
X1248199Y332302*
X1246381*
X1260017Y330427D02*
X1259563Y331677D01*
X1258199Y332302*
X1257290*
X1255926Y331677*
X1255017Y329802*
X1254563Y326677*
Y323552*
X1255017Y321052*
X1255926Y319802*
X1257290Y319177*
X1257744*
X1259108Y319802*
X1260017Y321052*
X1260472Y322927*
Y323552*
X1260017Y325427*
X1259108Y326677*
X1257744Y327302*
X1257290*
X1255926Y326677*
X1255017Y325427*
X1254563Y323552*
X1290517Y336834D02*
Y326990D01*
Y336834D02*
X1292903D01*
X1293926Y336365*
X1294608Y335427*
X1294949Y334490*
X1295290Y333084*
Y330740*
X1294949Y329334*
X1294608Y328396*
X1293926Y327459*
X1292903Y326990*
X1290517*
X1302449Y333552D02*
Y326990D01*
Y332146D02*
X1301767Y333084D01*
X1301085Y333552*
X1300063*
X1299381Y333084*
X1298699Y332146*
X1298358Y330740*
Y329802*
X1298699Y328396*
X1299381Y327459*
X1300063Y326990*
X1301085*
X1301767Y327459*
X1302449Y328396*
X1306540Y336834D02*
Y328865D01*
X1306881Y327459*
X1307563Y326990*
X1308244*
X1305517Y333552D02*
X1307903D01*
X1311313Y330740D02*
X1315403D01*
Y331677*
X1315063Y332615*
X1314722Y333084*
X1314040Y333552*
X1313017*
X1312335Y333084*
X1311653Y332146*
X1311313Y330740*
Y329802*
X1311653Y328396*
X1312335Y327459*
X1313017Y326990*
X1314040*
X1314722Y327459*
X1315403Y328396*
X1318813Y333552D02*
X1318472Y333084D01*
X1318813Y332615*
X1319153Y333084*
X1318813Y333552*
Y327927D02*
X1318472Y327459D01*
X1318813Y326990*
X1319153Y327459*
X1318813Y327927*
X1337290Y332302D02*
X1335926Y331677D01*
X1335472Y330427*
Y329177*
X1335926Y327927*
X1336835Y327302*
X1338653Y326677*
X1340017Y326052*
X1340926Y324802*
X1341381Y323552*
Y321677*
X1340926Y320427*
X1340472Y319802*
X1339108Y319177*
X1337290*
X1335926Y319802*
X1335472Y320427*
X1335017Y321677*
Y323552*
X1335472Y324802*
X1336381Y326052*
X1337744Y326677*
X1339563Y327302*
X1340472Y327927*
X1340926Y329177*
Y330427*
X1340472Y331677*
X1339108Y332302*
X1337290*
X1353653Y334802D02*
X1345472Y314802D01*
X1358653Y332302D02*
X1363653D01*
X1360926Y327302*
X1362290*
X1363199Y326677*
X1363653Y326052*
X1364108Y324177*
Y322927*
X1363653Y321052*
X1362744Y319802*
X1361381Y319177*
X1360017*
X1358653Y319802*
X1358199Y320427*
X1357744Y321677*
X1376381Y334802D02*
X1368199Y314802D01*
X1380472Y329802D02*
X1381381Y330427D01*
X1382744Y332302*
Y319177*
X1387290Y329177D02*
Y329802D01*
X1387744Y331052*
X1388199Y331677*
X1389108Y332302*
X1390926*
X1391835Y331677*
X1392290Y331052*
X1392744Y329802*
Y328552*
X1392290Y327302*
X1391381Y325427*
X1386835Y319177*
X1393199*
X1508466Y329609D02*
X1509148Y330078D01*
X1510170Y331484*
Y321641*
X1657273Y329484D02*
Y319641D01*
Y329484D02*
X1660341D01*
X1661364Y329016*
X1661705Y328547*
X1662045Y327609*
Y326203*
X1661705Y325266*
X1661364Y324797*
X1660341Y324328*
X1657273*
X1665114Y326203D02*
Y319641D01*
Y323391D02*
X1665455Y324797D01*
X1666136Y325734*
X1666818Y326203*
X1667841*
X1670909Y329484D02*
X1671250Y329016D01*
X1671591Y329484*
X1671250Y329953*
X1670909Y329484*
X1671250Y326203D02*
Y319641D01*
X1674659Y326203D02*
Y319641D01*
Y324328D02*
X1675682Y325734D01*
X1676364Y326203*
X1677386*
X1678068Y325734*
X1678409Y324328*
Y319641*
Y324328D02*
X1679432Y325734D01*
X1680114Y326203*
X1681136*
X1681818Y325734*
X1682159Y324328*
Y319641*
X1689318Y326203D02*
Y319641D01*
Y324797D02*
X1688636Y325734D01*
X1687955Y326203*
X1686932*
X1686250Y325734*
X1685568Y324797*
X1685227Y323391*
Y322453*
X1685568Y321047*
X1686250Y320109*
X1686932Y319641*
X1687955*
X1688636Y320109*
X1689318Y321047*
X1692386Y326203D02*
Y319641D01*
Y323391D02*
X1692727Y324797D01*
X1693409Y325734*
X1694091Y326203*
X1695114*
X1698523D02*
X1700568Y319641D01*
X1702614Y326203D02*
X1700568Y319641D01*
X1699886Y317766*
X1699205Y316828*
X1698523Y316359*
X1698182*
X1718295Y328078D02*
X1717614Y329016D01*
X1716591Y329484*
X1715227*
X1714205Y329016*
X1713523Y328078*
Y327141*
X1713864Y326203*
X1714205Y325734*
X1714886Y325266*
X1716932Y324328*
X1717614Y323859*
X1717955Y323391*
X1718295Y322453*
Y321047*
X1717614Y320109*
X1716591Y319641*
X1715227*
X1714205Y320109*
X1713523Y321047*
X1721364Y329484D02*
X1721705Y329016D01*
X1722045Y329484*
X1721705Y329953*
X1721364Y329484*
X1721705Y326203D02*
Y319641D01*
X1729205Y329484D02*
Y319641D01*
Y324797D02*
X1728523Y325734D01*
X1727841Y326203*
X1726818*
X1726136Y325734*
X1725455Y324797*
X1725114Y323391*
Y322453*
X1725455Y321047*
X1726136Y320109*
X1726818Y319641*
X1727841*
X1728523Y320109*
X1729205Y321047*
X1732273Y323391D02*
X1736364D01*
Y324328*
X1736023Y325266*
X1735682Y325734*
X1735000Y326203*
X1733977*
X1733295Y325734*
X1732614Y324797*
X1732273Y323391*
Y322453*
X1732614Y321047*
X1733295Y320109*
X1733977Y319641*
X1735000*
X1735682Y320109*
X1736364Y321047*
X1152017Y469034D02*
X1153722Y459190D01*
X1155426Y469034D02*
X1153722Y459190D01*
X1155426Y469034D02*
X1157131Y459190D01*
X1158835Y469034D02*
X1157131Y459190D01*
X1161903Y469034D02*
X1162244Y468565D01*
X1162585Y469034*
X1162244Y469502*
X1161903Y469034*
X1162244Y465752D02*
Y459190D01*
X1165653Y469034D02*
Y459190D01*
X1168722Y469034D02*
Y459190D01*
X1173494Y465752D02*
X1172813Y465284D01*
X1172131Y464346*
X1171790Y462940*
Y462002*
X1172131Y460596*
X1172813Y459659*
X1173494Y459190*
X1174517*
X1175199Y459659*
X1175881Y460596*
X1176222Y462002*
Y462940*
X1175881Y464346*
X1175199Y465284*
X1174517Y465752*
X1173494*
X1179290D02*
X1180653Y459190D01*
X1182017Y465752D02*
X1180653Y459190D01*
X1182017Y465752D02*
X1183381Y459190D01*
X1184744Y465752D02*
X1183381Y459190D01*
X1200426Y467627D02*
X1199744Y468565D01*
X1198722Y469034*
X1197358*
X1196335Y468565*
X1195653Y467627*
Y466690*
X1195994Y465752*
X1196335Y465284*
X1197017Y464815*
X1199063Y463877*
X1199744Y463409*
X1200085Y462940*
X1200426Y462002*
Y460596*
X1199744Y459659*
X1198722Y459190*
X1197358*
X1196335Y459659*
X1195653Y460596*
X1203494Y465752D02*
Y455909D01*
Y464346D02*
X1204176Y465284D01*
X1204858Y465752*
X1205881*
X1206563Y465284*
X1207244Y464346*
X1207585Y462940*
Y462002*
X1207244Y460596*
X1206563Y459659*
X1205881Y459190*
X1204858*
X1204176Y459659*
X1203494Y460596*
X1210653Y465752D02*
Y459190D01*
Y462940D02*
X1210994Y464346D01*
X1211676Y465284*
X1212358Y465752*
X1213381*
X1216449Y469034D02*
X1216790Y468565D01*
X1217131Y469034*
X1216790Y469502*
X1216449Y469034*
X1216790Y465752D02*
Y459190D01*
X1220199Y465752D02*
Y459190D01*
Y463877D02*
X1221222Y465284D01*
X1221903Y465752*
X1222926*
X1223608Y465284*
X1223949Y463877*
Y459190*
X1231108Y465752D02*
Y458252D01*
X1230767Y456846*
X1230426Y456377*
X1229744Y455909*
X1228722*
X1228040Y456377*
X1231108Y464346D02*
X1230426Y465284D01*
X1229744Y465752*
X1228722*
X1228040Y465284*
X1227358Y464346*
X1227017Y462940*
Y462002*
X1227358Y460596*
X1228040Y459659*
X1228722Y459190*
X1229744*
X1230426Y459659*
X1231108Y460596*
X1244403Y469034D02*
Y459190D01*
X1242017Y469034D02*
X1246790D01*
X1249858Y462940D02*
X1253949D01*
Y463877*
X1253608Y464815*
X1253267Y465284*
X1252585Y465752*
X1251563*
X1250881Y465284*
X1250199Y464346*
X1249858Y462940*
Y462002*
X1250199Y460596*
X1250881Y459659*
X1251563Y459190*
X1252585*
X1253267Y459659*
X1253949Y460596*
X1261108Y464346D02*
X1260426Y465284D01*
X1259744Y465752*
X1258722*
X1258040Y465284*
X1257358Y464346*
X1257017Y462940*
Y462002*
X1257358Y460596*
X1258040Y459659*
X1258722Y459190*
X1259744*
X1260426Y459659*
X1261108Y460596*
X1264176Y469034D02*
Y459190D01*
Y463877D02*
X1265199Y465284D01*
X1265881Y465752*
X1266903*
X1267585Y465284*
X1267926Y463877*
Y459190*
X1270994Y465752D02*
Y459190D01*
Y463877D02*
X1272017Y465284D01*
X1272699Y465752*
X1273722*
X1274403Y465284*
X1274744Y463877*
Y459190*
X1277813Y469034D02*
X1278153Y468565D01*
X1278494Y469034*
X1278153Y469502*
X1277813Y469034*
X1278153Y465752D02*
Y459190D01*
X1285653Y464346D02*
X1284972Y465284D01*
X1284290Y465752*
X1283267*
X1282585Y465284*
X1281903Y464346*
X1281563Y462940*
Y462002*
X1281903Y460596*
X1282585Y459659*
X1283267Y459190*
X1284290*
X1284972Y459659*
X1285653Y460596*
X1292813Y465752D02*
Y459190D01*
Y464346D02*
X1292131Y465284D01*
X1291449Y465752*
X1290426*
X1289744Y465284*
X1289063Y464346*
X1288722Y462940*
Y462002*
X1289063Y460596*
X1289744Y459659*
X1290426Y459190*
X1291449*
X1292131Y459659*
X1292813Y460596*
X1295881Y469034D02*
Y459190D01*
X1311563Y467627D02*
X1310881Y468565D01*
X1309858Y469034*
X1308494*
X1307472Y468565*
X1306790Y467627*
Y466690*
X1307131Y465752*
X1307472Y465284*
X1308153Y464815*
X1310199Y463877*
X1310881Y463409*
X1311222Y462940*
X1311563Y462002*
Y460596*
X1310881Y459659*
X1309858Y459190*
X1308494*
X1307472Y459659*
X1306790Y460596*
X1314631Y462940D02*
X1318722D01*
Y463877*
X1318381Y464815*
X1318040Y465284*
X1317358Y465752*
X1316335*
X1315653Y465284*
X1314972Y464346*
X1314631Y462940*
Y462002*
X1314972Y460596*
X1315653Y459659*
X1316335Y459190*
X1317358*
X1318040Y459659*
X1318722Y460596*
X1321790Y465752D02*
Y459190D01*
Y462940D02*
X1322131Y464346D01*
X1322813Y465284*
X1323494Y465752*
X1324517*
X1327585D02*
X1329631Y459190D01*
X1331676Y465752D02*
X1329631Y459190D01*
X1334744Y469034D02*
X1335085Y468565D01*
X1335426Y469034*
X1335085Y469502*
X1334744Y469034*
X1335085Y465752D02*
Y459190D01*
X1342585Y464346D02*
X1341903Y465284D01*
X1341222Y465752*
X1340199*
X1339517Y465284*
X1338835Y464346*
X1338494Y462940*
Y462002*
X1338835Y460596*
X1339517Y459659*
X1340199Y459190*
X1341222*
X1341903Y459659*
X1342585Y460596*
X1345653Y462940D02*
X1349744D01*
Y463877*
X1349403Y464815*
X1349063Y465284*
X1348381Y465752*
X1347358*
X1346676Y465284*
X1345994Y464346*
X1345653Y462940*
Y462002*
X1345994Y460596*
X1346676Y459659*
X1347358Y459190*
X1348381*
X1349063Y459659*
X1349744Y460596*
X1356563Y464346D02*
X1356222Y465284D01*
X1355199Y465752*
X1354176*
X1353153Y465284*
X1352813Y464346*
X1353153Y463409*
X1353835Y462940*
X1355540Y462471*
X1356222Y462002*
X1356563Y461065*
Y460596*
X1356222Y459659*
X1355199Y459190*
X1354176*
X1353153Y459659*
X1352813Y460596*
X1372585Y466690D02*
X1372244Y467627D01*
X1371563Y468565*
X1370881Y469034*
X1369517*
X1368835Y468565*
X1368153Y467627*
X1367813Y466690*
X1367472Y465284*
Y462940*
X1367813Y461534*
X1368153Y460596*
X1368835Y459659*
X1369517Y459190*
X1370881*
X1371563Y459659*
X1372244Y460596*
X1372585Y461534*
X1377358Y465752D02*
X1376676Y465284D01*
X1375994Y464346*
X1375653Y462940*
Y462002*
X1375994Y460596*
X1376676Y459659*
X1377358Y459190*
X1378381*
X1379063Y459659*
X1379744Y460596*
X1380085Y462002*
Y462940*
X1379744Y464346*
X1379063Y465284*
X1378381Y465752*
X1377358*
X1383153D02*
Y459190D01*
Y462940D02*
X1383494Y464346D01*
X1384176Y465284*
X1384858Y465752*
X1385881*
X1388949D02*
Y455909D01*
Y464346D02*
X1389631Y465284D01*
X1390313Y465752*
X1391335*
X1392017Y465284*
X1392699Y464346*
X1393040Y462940*
Y462002*
X1392699Y460596*
X1392017Y459659*
X1391335Y459190*
X1390313*
X1389631Y459659*
X1388949Y460596*
X1396449Y460127D02*
X1396108Y459659D01*
X1396449Y459190*
X1396790Y459659*
X1396449Y460127*
X1218575Y443807D02*
X1219256Y444276D01*
X1220279Y445682*
Y435839*
X1223347Y443807D02*
X1224029Y444276D01*
X1225052Y445682*
Y435839*
X1229825Y445682D02*
X1228802Y445214D01*
X1228461Y444276*
Y443339*
X1228802Y442401*
X1229484Y441932*
X1230847Y441464*
X1231870Y440995*
X1232552Y440057*
X1232893Y439120*
Y437714*
X1232552Y436776*
X1232211Y436307*
X1231188Y435839*
X1229825*
X1228802Y436307*
X1228461Y436776*
X1228120Y437714*
Y439120*
X1228461Y440057*
X1229143Y440995*
X1230165Y441464*
X1231529Y441932*
X1232211Y442401*
X1232552Y443339*
Y444276*
X1232211Y445214*
X1231188Y445682*
X1229825*
X1240393D02*
X1236984D01*
X1236643Y441464*
X1236984Y441932*
X1238006Y442401*
X1239029*
X1240052Y441932*
X1240734Y440995*
X1241075Y439589*
X1240734Y438651*
X1240393Y437245*
X1239711Y436307*
X1238688Y435839*
X1237665*
X1236643Y436307*
X1236302Y436776*
X1235961Y437714*
X1257097Y443339D02*
X1256756Y444276D01*
X1256075Y445214*
X1255393Y445682*
X1254029*
X1253347Y445214*
X1252665Y444276*
X1252325Y443339*
X1251984Y441932*
Y439589*
X1252325Y438182*
X1252665Y437245*
X1253347Y436307*
X1254029Y435839*
X1255393*
X1256075Y436307*
X1256756Y437245*
X1257097Y438182*
X1260165Y439589D02*
X1264256D01*
Y440526*
X1263915Y441464*
X1263575Y441932*
X1262893Y442401*
X1261870*
X1261188Y441932*
X1260506Y440995*
X1260165Y439589*
Y438651*
X1260506Y437245*
X1261188Y436307*
X1261870Y435839*
X1262893*
X1263575Y436307*
X1264256Y437245*
X1267325Y442401D02*
Y435839D01*
Y440526D02*
X1268347Y441932D01*
X1269029Y442401*
X1270052*
X1270734Y441932*
X1271075Y440526*
Y435839*
X1275165Y445682D02*
Y437714D01*
X1275506Y436307*
X1276188Y435839*
X1276870*
X1274143Y442401D02*
X1276529D01*
X1279938D02*
Y435839D01*
Y439589D02*
X1280279Y440995D01*
X1280961Y441932*
X1281643Y442401*
X1282665*
X1285734Y439589D02*
X1289825D01*
Y440526*
X1289484Y441464*
X1289143Y441932*
X1288461Y442401*
X1287438*
X1286756Y441932*
X1286075Y440995*
X1285734Y439589*
Y438651*
X1286075Y437245*
X1286756Y436307*
X1287438Y435839*
X1288461*
X1289143Y436307*
X1289825Y437245*
X1305506Y444276D02*
X1304825Y445214D01*
X1303802Y445682*
X1302438*
X1301415Y445214*
X1300734Y444276*
Y443339*
X1301075Y442401*
X1301415Y441932*
X1302097Y441464*
X1304143Y440526*
X1304825Y440057*
X1305165Y439589*
X1305506Y438651*
Y437245*
X1304825Y436307*
X1303802Y435839*
X1302438*
X1301415Y436307*
X1300734Y437245*
X1309597Y445682D02*
Y437714D01*
X1309938Y436307*
X1310620Y435839*
X1311302*
X1308575Y442401D02*
X1310961D01*
X1314370D02*
Y435839D01*
Y439589D02*
X1314711Y440995D01*
X1315393Y441932*
X1316075Y442401*
X1317097*
X1320165Y439589D02*
X1324256D01*
Y440526*
X1323915Y441464*
X1323575Y441932*
X1322893Y442401*
X1321870*
X1321188Y441932*
X1320506Y440995*
X1320165Y439589*
Y438651*
X1320506Y437245*
X1321188Y436307*
X1321870Y435839*
X1322893*
X1323575Y436307*
X1324256Y437245*
X1327325Y439589D02*
X1331415D01*
Y440526*
X1331075Y441464*
X1330734Y441932*
X1330052Y442401*
X1329029*
X1328347Y441932*
X1327665Y440995*
X1327325Y439589*
Y438651*
X1327665Y437245*
X1328347Y436307*
X1329029Y435839*
X1330052*
X1330734Y436307*
X1331415Y437245*
X1335506Y445682D02*
Y437714D01*
X1335847Y436307*
X1336529Y435839*
X1337211*
X1334484Y442401D02*
X1336870D01*
X1208575Y423182D02*
Y413339D01*
Y423182D02*
X1211302Y413339D01*
X1214029Y423182D02*
X1211302Y413339D01*
X1214029Y423182D02*
Y413339D01*
X1217097Y423182D02*
X1217438Y422714D01*
X1217779Y423182*
X1217438Y423651*
X1217097Y423182*
X1217438Y419901D02*
Y413339D01*
X1224938Y423182D02*
Y413339D01*
Y418495D02*
X1224256Y419432D01*
X1223575Y419901*
X1222552*
X1221870Y419432*
X1221188Y418495*
X1220847Y417089*
Y416151*
X1221188Y414745*
X1221870Y413807*
X1222552Y413339*
X1223575*
X1224256Y413807*
X1224938Y414745*
X1232097Y423182D02*
Y413339D01*
Y418495D02*
X1231415Y419432D01*
X1230734Y419901*
X1229711*
X1229029Y419432*
X1228347Y418495*
X1228006Y417089*
Y416151*
X1228347Y414745*
X1229029Y413807*
X1229711Y413339*
X1230734*
X1231415Y413807*
X1232097Y414745*
X1235165Y423182D02*
Y413339D01*
X1238234Y417089D02*
X1242325D01*
Y418026*
X1241984Y418964*
X1241643Y419432*
X1240961Y419901*
X1239938*
X1239256Y419432*
X1238575Y418495*
X1238234Y417089*
Y416151*
X1238575Y414745*
X1239256Y413807*
X1239938Y413339*
X1240961*
X1241643Y413807*
X1242325Y414745*
X1245393Y423182D02*
Y413339D01*
Y418495D02*
X1246075Y419432D01*
X1246756Y419901*
X1247779*
X1248461Y419432*
X1249143Y418495*
X1249484Y417089*
Y416151*
X1249143Y414745*
X1248461Y413807*
X1247779Y413339*
X1246756*
X1246075Y413807*
X1245393Y414745*
X1254256Y419901D02*
X1253575Y419432D01*
X1252893Y418495*
X1252552Y417089*
Y416151*
X1252893Y414745*
X1253575Y413807*
X1254256Y413339*
X1255279*
X1255961Y413807*
X1256643Y414745*
X1256984Y416151*
Y417089*
X1256643Y418495*
X1255961Y419432*
X1255279Y419901*
X1254256*
X1260052D02*
Y413339D01*
Y417089D02*
X1260393Y418495D01*
X1261075Y419432*
X1261756Y419901*
X1262779*
X1267552D02*
X1266870Y419432D01*
X1266188Y418495*
X1265847Y417089*
Y416151*
X1266188Y414745*
X1266870Y413807*
X1267552Y413339*
X1268575*
X1269256Y413807*
X1269938Y414745*
X1270279Y416151*
Y417089*
X1269938Y418495*
X1269256Y419432*
X1268575Y419901*
X1267552*
X1274029Y413807D02*
X1273688Y413339D01*
X1273347Y413807*
X1273688Y414276*
X1274029Y413807*
Y412870*
X1273688Y411932*
X1273347Y411464*
X1284938Y423182D02*
Y413339D01*
Y423182D02*
X1287665Y413339D01*
X1290393Y423182D02*
X1287665Y413339D01*
X1290393Y423182D02*
Y413339D01*
X1296188Y423182D02*
X1293461Y413339D01*
X1296188Y423182D02*
X1298915Y413339D01*
X1294484Y416620D02*
X1297893D01*
X1311870Y423182D02*
X1310847Y422714D01*
X1310165Y421307*
X1309825Y418964*
Y417557*
X1310165Y415214*
X1310847Y413807*
X1311870Y413339*
X1312552*
X1313575Y413807*
X1314256Y415214*
X1314597Y417557*
Y418964*
X1314256Y421307*
X1313575Y422714*
X1312552Y423182*
X1311870*
X1318006Y420839D02*
Y421307D01*
X1318347Y422245*
X1318688Y422714*
X1319370Y423182*
X1320734*
X1321415Y422714*
X1321756Y422245*
X1322097Y421307*
Y420370*
X1321756Y419432*
X1321075Y418026*
X1317665Y413339*
X1322438*
X1326188Y423182D02*
X1329938D01*
X1327893Y419432*
X1328915*
X1329597Y418964*
X1329938Y418495*
X1330279Y417089*
Y416151*
X1329938Y414745*
X1329256Y413807*
X1328234Y413339*
X1327211*
X1326188Y413807*
X1325847Y414276*
X1325506Y415214*
X1336756Y423182D02*
X1333347Y416620D01*
X1338461*
X1336756Y423182D02*
Y413339D01*
X1345620Y421776D02*
X1345279Y422714D01*
X1344256Y423182*
X1343575*
X1342552Y422714*
X1341870Y421307*
X1341529Y418964*
Y416620*
X1341870Y414745*
X1342552Y413807*
X1343575Y413339*
X1343915*
X1344938Y413807*
X1345620Y414745*
X1345961Y416151*
Y416620*
X1345620Y418026*
X1344938Y418964*
X1343915Y419432*
X1343575*
X1342552Y418964*
X1341870Y418026*
X1341529Y416620*
X1289217Y396152D02*
X1290581Y389590D01*
X1291944Y396152D02*
X1290581Y389590D01*
X1291944Y396152D02*
X1293308Y389590D01*
X1294672Y396152D02*
X1293308Y389590D01*
X1297740Y396152D02*
X1299103Y389590D01*
X1300467Y396152D02*
X1299103Y389590D01*
X1300467Y396152D02*
X1301831Y389590D01*
X1303194Y396152D02*
X1301831Y389590D01*
X1306263Y396152D02*
X1307626Y389590D01*
X1308990Y396152D02*
X1307626Y389590D01*
X1308990Y396152D02*
X1310353Y389590D01*
X1311717Y396152D02*
X1310353Y389590D01*
X1315126Y390527D02*
X1314785Y390059D01*
X1315126Y389590*
X1315467Y390059*
X1315126Y390527*
X1318535Y396152D02*
X1319899Y389590D01*
X1321263Y396152D02*
X1319899Y389590D01*
X1321263Y396152D02*
X1322626Y389590D01*
X1323990Y396152D02*
X1322626Y389590D01*
X1330808Y394746D02*
X1330467Y395684D01*
X1329444Y396152*
X1328422*
X1327399Y395684*
X1327058Y394746*
X1327399Y393809*
X1328081Y393340*
X1329785Y392871*
X1330467Y392402*
X1330808Y391465*
Y390996*
X1330467Y390059*
X1329444Y389590*
X1328422*
X1327399Y390059*
X1327058Y390996*
X1334899Y399434D02*
Y391465D01*
X1335240Y390059*
X1335922Y389590*
X1336603*
X1333876Y396152D02*
X1336263D01*
X1343422Y394746D02*
X1343081Y395684D01*
X1342058Y396152*
X1341035*
X1340013Y395684*
X1339672Y394746*
X1340013Y393809*
X1340694Y393340*
X1342399Y392871*
X1343081Y392402*
X1343422Y391465*
Y390996*
X1343081Y390059*
X1342058Y389590*
X1341035*
X1340013Y390059*
X1339672Y390996*
X1350581Y394746D02*
X1349899Y395684D01*
X1349217Y396152*
X1348194*
X1347513Y395684*
X1346831Y394746*
X1346490Y393340*
Y392402*
X1346831Y390996*
X1347513Y390059*
X1348194Y389590*
X1349217*
X1349899Y390059*
X1350581Y390996*
X1355353Y396152D02*
X1354672Y395684D01*
X1353990Y394746*
X1353649Y393340*
Y392402*
X1353990Y390996*
X1354672Y390059*
X1355353Y389590*
X1356376*
X1357058Y390059*
X1357740Y390996*
X1358081Y392402*
Y393340*
X1357740Y394746*
X1357058Y395684*
X1356376Y396152*
X1355353*
X1361149D02*
Y389590D01*
Y393340D02*
X1361490Y394746D01*
X1362172Y395684*
X1362853Y396152*
X1363876*
X1366944D02*
Y386309D01*
Y394746D02*
X1367626Y395684D01*
X1368308Y396152*
X1369331*
X1370013Y395684*
X1370694Y394746*
X1371035Y393340*
Y392402*
X1370694Y390996*
X1370013Y390059*
X1369331Y389590*
X1368308*
X1367626Y390059*
X1366944Y390996*
X1374444Y390527D02*
X1374103Y390059D01*
X1374444Y389590*
X1374785Y390059*
X1374444Y390527*
X1381944Y394746D02*
X1381263Y395684D01*
X1380581Y396152*
X1379558*
X1378876Y395684*
X1378194Y394746*
X1377853Y393340*
Y392402*
X1378194Y390996*
X1378876Y390059*
X1379558Y389590*
X1380581*
X1381263Y390059*
X1381944Y390996*
X1386717Y396152D02*
X1386035Y395684D01*
X1385353Y394746*
X1385013Y393340*
Y392402*
X1385353Y390996*
X1386035Y390059*
X1386717Y389590*
X1387740*
X1388422Y390059*
X1389103Y390996*
X1389444Y392402*
Y393340*
X1389103Y394746*
X1388422Y395684*
X1387740Y396152*
X1386717*
X1392513D02*
Y389590D01*
Y394277D02*
X1393535Y395684D01*
X1394217Y396152*
X1395240*
X1395922Y395684*
X1396263Y394277*
Y389590*
Y394277D02*
X1397285Y395684D01*
X1397967Y396152*
X1398990*
X1399672Y395684*
X1400013Y394277*
Y389590*
X1143575Y398182D02*
Y388339D01*
Y398182D02*
X1146643D01*
X1147665Y397714*
X1148006Y397245*
X1148347Y396307*
Y394901*
X1148006Y393964*
X1147665Y393495*
X1146643Y393026*
X1143575*
X1151415Y398182D02*
Y388339D01*
X1156188Y398182D02*
Y388339D01*
X1151415Y393495D02*
X1156188D01*
X1171529Y398182D02*
X1168120D01*
X1167779Y393964*
X1168120Y394432*
X1169143Y394901*
X1170165*
X1171188Y394432*
X1171870Y393495*
X1172211Y392089*
X1171870Y391151*
X1171529Y389745*
X1170847Y388807*
X1169825Y388339*
X1168802*
X1167779Y388807*
X1167438Y389276*
X1167097Y390214*
X1177325Y398182D02*
X1176302Y397714D01*
X1175620Y396307*
X1175279Y393964*
Y392557*
X1175620Y390214*
X1176302Y388807*
X1177325Y388339*
X1178006*
X1179029Y388807*
X1179711Y390214*
X1180052Y392557*
Y393964*
X1179711Y396307*
X1179029Y397714*
X1178006Y398182*
X1177325*
X1184825D02*
X1183802Y397714D01*
X1183461Y396776*
Y395839*
X1183802Y394901*
X1184484Y394432*
X1185847Y393964*
X1186870Y393495*
X1187552Y392557*
X1187893Y391620*
Y390214*
X1187552Y389276*
X1187211Y388807*
X1186188Y388339*
X1184825*
X1183802Y388807*
X1183461Y389276*
X1183120Y390214*
Y391620*
X1183461Y392557*
X1184143Y393495*
X1185165Y393964*
X1186529Y394432*
X1187211Y394901*
X1187552Y395839*
Y396776*
X1187211Y397714*
X1186188Y398182*
X1184825*
X1190961Y392557D02*
X1197097D01*
X1204597Y394901D02*
X1204256Y393495D01*
X1203575Y392557*
X1202552Y392089*
X1202211*
X1201188Y392557*
X1200506Y393495*
X1200165Y394901*
Y395370*
X1200506Y396776*
X1201188Y397714*
X1202211Y398182*
X1202552*
X1203575Y397714*
X1204256Y396776*
X1204597Y394901*
Y392557*
X1204256Y390214*
X1203575Y388807*
X1202552Y388339*
X1201870*
X1200847Y388807*
X1200506Y389745*
X1211075Y398182D02*
X1207665Y391620D01*
X1212779*
X1211075Y398182D02*
Y388339D01*
X1220620Y398182D02*
X1217211Y388339D01*
X1215847Y398182D02*
X1220620D01*
X1223688Y392557D02*
X1229825D01*
X1233234Y395839D02*
Y396307D01*
X1233575Y397245*
X1233915Y397714*
X1234597Y398182*
X1235961*
X1236643Y397714*
X1236984Y397245*
X1237325Y396307*
Y395370*
X1236984Y394432*
X1236302Y393026*
X1232893Y388339*
X1237665*
X1245506Y398182D02*
X1242097Y388339D01*
X1240734Y398182D02*
X1245506D01*
X1250620D02*
X1249597Y397714D01*
X1248915Y396307*
X1248575Y393964*
Y392557*
X1248915Y390214*
X1249597Y388807*
X1250620Y388339*
X1251302*
X1252325Y388807*
X1253006Y390214*
X1253347Y392557*
Y393964*
X1253006Y396307*
X1252325Y397714*
X1251302Y398182*
X1250620*
X1260847Y394901D02*
X1260506Y393495D01*
X1259825Y392557*
X1258802Y392089*
X1258461*
X1257438Y392557*
X1256756Y393495*
X1256415Y394901*
Y395370*
X1256756Y396776*
X1257438Y397714*
X1258461Y398182*
X1258802*
X1259825Y397714*
X1260506Y396776*
X1260847Y394901*
Y392557*
X1260506Y390214*
X1259825Y388807*
X1258802Y388339*
X1258120*
X1257097Y388807*
X1256756Y389745*
X1647727Y329484D02*
Y319641D01*
X1650795Y326203D02*
Y319641D01*
Y324328D02*
X1651818Y325734D01*
X1652500Y326203*
X1653523*
X1654205Y325734*
X1654545Y324328*
Y319641*
X1658636Y329484D02*
Y321516D01*
X1658977Y320109*
X1659659Y319641*
X1660341*
X1657614Y326203D02*
X1660000D01*
X1663409Y323391D02*
X1667500D01*
Y324328*
X1667159Y325266*
X1666818Y325734*
X1666136Y326203*
X1665114*
X1664432Y325734*
X1663750Y324797*
X1663409Y323391*
Y322453*
X1663750Y321047*
X1664432Y320109*
X1665114Y319641*
X1666136*
X1666818Y320109*
X1667500Y321047*
X1670568Y326203D02*
Y319641D01*
Y323391D02*
X1670909Y324797D01*
X1671591Y325734*
X1672273Y326203*
X1673295*
X1676364D02*
Y319641D01*
Y324328D02*
X1677386Y325734D01*
X1678068Y326203*
X1679091*
X1679773Y325734*
X1680114Y324328*
Y319641*
X1687273Y326203D02*
Y319641D01*
Y324797D02*
X1686591Y325734D01*
X1685909Y326203*
X1684886*
X1684205Y325734*
X1683523Y324797*
X1683182Y323391*
Y322453*
X1683523Y321047*
X1684205Y320109*
X1684886Y319641*
X1685909*
X1686591Y320109*
X1687273Y321047*
X1690341Y329484D02*
Y319641D01*
X1701250Y329484D02*
Y319641D01*
Y329484D02*
X1704318D01*
X1705341Y329016*
X1705682Y328547*
X1706023Y327609*
Y326203*
X1705682Y325266*
X1705341Y324797*
X1704318Y324328*
X1701250*
X1709091Y329484D02*
Y319641D01*
X1716250Y326203D02*
Y319641D01*
Y324797D02*
X1715568Y325734D01*
X1714886Y326203*
X1713864*
X1713182Y325734*
X1712500Y324797*
X1712159Y323391*
Y322453*
X1712500Y321047*
X1713182Y320109*
X1713864Y319641*
X1714886*
X1715568Y320109*
X1716250Y321047*
X1719318Y326203D02*
Y319641D01*
Y324328D02*
X1720341Y325734D01*
X1721023Y326203*
X1722045*
X1722727Y325734*
X1723068Y324328*
Y319641*
X1726136Y323391D02*
X1730227D01*
Y324328*
X1729886Y325266*
X1729545Y325734*
X1728864Y326203*
X1727841*
X1727159Y325734*
X1726477Y324797*
X1726136Y323391*
Y322453*
X1726477Y321047*
X1727159Y320109*
X1727841Y319641*
X1728864*
X1729545Y320109*
X1730227Y321047*
X1741477Y327141D02*
Y327609D01*
X1741818Y328547*
X1742159Y329016*
X1742841Y329484*
X1744205*
X1744886Y329016*
X1745227Y328547*
X1745568Y327609*
Y326672*
X1745227Y325734*
X1744545Y324328*
X1741136Y319641*
X1745909*
X1016280Y785990D02*
Y796800D01*
X1018000Y798400*
X1060396Y792768D02*
X1062418Y794790D01*
X1060374Y785990D02*
Y792746D01*
X1035178Y785990D02*
Y791978D01*
X1036800Y793600*
X1079272Y785990D02*
Y791600D01*
X1080858Y793200*
X1148563Y785990D02*
Y791990D01*
X1150138Y793590*
X1151338Y794790*
Y799070*
X1151218Y799190*
X1120217Y785990D02*
Y793590D01*
X1120418*
X1192658Y785990D02*
Y790489D01*
X1196058Y793890*
X1310248Y785990D02*
Y793700D01*
X1310300Y793900*
X1344894Y785990D02*
Y793872D01*
X1345689Y794666*
Y802520*
X1344894Y803315*
Y805190*
X1344874Y806790*
X1379540Y785990D02*
Y795390D01*
X1379358Y795890*
X1018338Y821734D02*
X1018256Y821815D01*
Y825190*
X1034338Y821734D02*
X1034256D01*
Y825190*
X1067138Y821734D02*
X1067256D01*
Y825190*
X1050338Y821734D02*
X1050256Y821815D01*
Y825190*
X1098338Y821734D02*
X1098256Y821815D01*
Y825190*
X1083138Y821734D02*
X1083256Y821852D01*
Y825190*
X1303358Y823040D02*
X1303958Y823390D01*
X1306858*
X1342608Y830390D02*
X1342858Y830640D01*
X1335299Y830331D02*
X1335358Y830390D01*
Y834390D02*
Y837390D01*
X1342108Y819390D02*
X1342858Y820140D01*
X1377097Y834390D02*
X1377658D01*
X1378358Y835090*
X1377097Y834390D02*
Y840331D01*
X1379263Y834090D02*
X1379363Y834190D01*
X1361658Y825490D02*
Y829940D01*
X1361763*
X1379363Y834190D02*
X1379163Y834390D01*
X1379158*
X1378458Y835090*
X1378358*
X1143855Y865851D02*
Y869251D01*
X1143938Y869334*
X1139855Y874851D02*
Y877574D01*
X1139831Y877598*
X1197311Y867563D02*
X1196274D01*
Y871690*
X1338358Y847390D02*
X1338608Y847640D01*
Y852890*
X1337358Y842890D02*
X1332358D01*
X1338358Y837890D02*
X1338608Y838140D01*
X1342858*
X1368458Y845449D02*
X1368829D01*
X1380458Y864290D02*
X1375513D01*
Y864490*
X1380458Y849490D02*
Y855290D01*
X1380463*
X1361763Y864490D02*
X1368013D01*
X1377097Y840331D02*
X1378058D01*
Y842590*
X1377397*
X1377097Y842890*
X1368829D02*
X1372963D01*
X989508Y890061D02*
X992626D01*
X989508Y894392D02*
X992626D01*
X989508Y898723D02*
X992626D01*
X997311Y906339D02*
X997152Y906498D01*
Y914140*
X1021398Y894392D02*
X1021456Y894450D01*
X1026981*
X1010374Y884156D02*
X1010321Y884210D01*
X1004981*
X1020933Y909488D02*
X1020780Y909641D01*
Y914140*
X1026981Y897010D02*
X1021536D01*
X1021398Y897148*
X1010935Y914140D02*
Y919422D01*
X1010768Y919589*
X1001090Y914140D02*
Y920512D01*
X1000854*
X1059909Y912244D02*
X1060055Y912390D01*
X1065981*
X1041083Y899510D02*
X1037965D01*
X1085981Y912390D02*
X1091405D01*
X1091799Y912638*
X1150854Y881535D02*
X1144755D01*
X1138055D02*
Y885272D01*
X1138256Y885472*
X1194161Y911457D02*
X1195736Y913031D01*
X1184713Y895709D02*
X1186287Y897283D01*
X1184713Y905157D02*
X1186287Y906732D01*
X1181563Y905157D02*
X1183138Y906732D01*
X1187862Y895709D02*
X1189437Y897283D01*
X1184713Y914606D02*
X1186287Y916181D01*
X1184713Y911457D02*
X1186287Y913031D01*
X1184713Y908307D02*
X1186287Y909882D01*
X1184713Y902008D02*
X1186287Y903583D01*
X1178413Y886260D02*
X1179988Y887835D01*
X1175264Y889409D02*
X1176839Y890984D01*
X1175264Y886260D02*
X1176839Y887835D01*
X1205185Y905157D02*
X1208335D01*
Y906732*
X1205185Y905157D02*
Y906732D01*
X1217783Y909882D02*
X1214634D01*
X1200461Y901220D02*
X1201248D01*
X1205185Y905157*
Y906732*
X1211484Y903583D02*
Y906732D01*
X1225658Y911456D02*
X1224083Y913031D01*
X1222508Y895708D02*
X1220933Y897283D01*
X1206760Y908307D02*
X1205185Y909882D01*
X1231957Y886260D02*
X1230382Y887835D01*
X1225658Y902008D02*
X1224083Y903583D01*
X1213059Y911457D02*
X1211484Y913031D01*
X1213059Y908307D02*
X1211484Y909882D01*
X1209909Y911457D02*
X1208335Y913031D01*
X1209909Y908307D02*
X1208335Y909882D01*
X1209910Y895708D02*
X1208335Y897283D01*
X1206760Y911457D02*
X1205185Y913031D01*
X1203610Y895708D02*
X1205185Y897283D01*
X1200461Y911457D02*
X1202035Y913031D01*
X1200461Y908307D02*
X1202035Y909882D01*
X1200460Y895708D02*
X1202035Y897283D01*
X1197311Y911457D02*
X1198886Y913031D01*
X1197311Y908307D02*
X1198886Y909882D01*
X1235106Y889409D02*
X1233531Y890984D01*
X1235106Y886260D02*
X1233531Y887835D01*
X1330323Y903063D02*
X1322085D01*
X1322058Y903090*
X1330323Y905031D02*
X1325258D01*
X1324058Y906231*
X1320517*
X1320458Y906290*
X1355717Y897354D02*
Y901031D01*
X1354858Y901890*
X1364634Y883304D02*
Y883500D01*
X1369000*
X993374Y922480D02*
X990942D01*
X989831Y923591*
X985731*
X989508Y935337D02*
X989440Y935405D01*
X985731*
Y945250D02*
X980053D01*
X979988Y945315*
X1001248Y952008D02*
X1001090Y952166D01*
Y958640*
X1025335Y951085D02*
X1025407Y951157D01*
X1030231*
X1025729Y923526D02*
X1025794Y923591D01*
X1030231*
X994858Y951090D02*
Y953965D01*
X995183Y954290*
Y958640*
X1005185Y953189D02*
X1005028Y953346D01*
Y958640*
X1030231Y935405D02*
X1025725D01*
X1025657Y935472*
X1034784Y921557D02*
X1034719Y921622D01*
X1030231*
X1059909Y927205D02*
X1060094Y927390D01*
X1065981*
X1059981Y936518D02*
Y939712D01*
X1061658Y941390*
X1065981*
X1034458Y925490D02*
X1034388Y925560D01*
X1030231*
X1065981Y936390D02*
X1060109D01*
X1059981Y936518*
X1065981Y951390D02*
X1060070D01*
X1059981Y951479*
X1050908Y933390D02*
Y943390D01*
X1048058Y946240*
Y971490*
X1040458Y979090*
Y989163*
X1040231Y989390*
X1091799Y936260D02*
X1091669Y936390D01*
X1085981*
X1127594Y934291D02*
X1124576D01*
X1124378Y934490*
X1124670Y927205D02*
Y931690D01*
X1124378*
X1139669Y947913D02*
Y952398D01*
X1139578Y952490*
X1194161Y917756D02*
X1195736Y919331D01*
X1166602Y937441D02*
X1166705Y937544D01*
X1169494*
X1184713Y917756D02*
X1186287Y919331D01*
X1189437Y935079D02*
X1187862Y936654D01*
X1186287Y935079D02*
X1184713Y936654D01*
X1186287Y931929D02*
X1184713Y933504D01*
X1186287Y928780D02*
X1184713Y930354D01*
X1186287Y925630D02*
X1184713Y927205D01*
X1186287Y922480D02*
X1184713Y924055D01*
X1179988Y944528D02*
X1178413Y946102D01*
X1176839Y944528D02*
X1175264Y946102D01*
X1176839Y941378D02*
X1175264Y942953D01*
X1233531Y944528D02*
X1235106Y946102D01*
X1233531Y941378D02*
X1235106Y942953D01*
X1230382Y944528D02*
X1231957Y946102D01*
X1227232Y925630D02*
X1228807Y927205D01*
X1224083Y928780D02*
X1225657Y930354D01*
X1224083Y925630D02*
X1225658Y927205D01*
X1220933Y935079D02*
X1222508Y936654D01*
X1211484Y922480D02*
X1213059Y924055D01*
X1211484Y919331D02*
X1213059Y920906D01*
X1211484Y916181D02*
X1213059Y917756D01*
X1208335Y935079D02*
X1209909Y936654D01*
X1208335Y922480D02*
X1209909Y924055D01*
X1208335Y919331D02*
X1209909Y920906D01*
X1208335Y916181D02*
X1209909Y917756D01*
X1205185Y935079D02*
X1206760Y936654D01*
X1205185Y922480D02*
X1206760Y924055D01*
X1205185Y919331D02*
X1206760Y920906D01*
X1205185Y916181D02*
X1206760Y917756D01*
X1202035Y935079D02*
X1203610Y936654D01*
X1202035Y922480D02*
X1200461Y924055D01*
X1202035Y919331D02*
X1200461Y920906D01*
X1202035Y916181D02*
X1200461Y917756D01*
X1198886Y922480D02*
X1197311Y924055D01*
X1198886Y919331D02*
X1197311Y920906D01*
X1198886Y916181D02*
X1197311Y917756D01*
X1195736Y925630D02*
X1194161Y927205D01*
X1270965Y952402D02*
X1273581D01*
X1273760Y952581*
X1274548Y941164D02*
X1274677Y941293D01*
Y945315*
X1301489Y942728D02*
Y945862D01*
X1301248Y946102*
X1353658Y925890D02*
X1353748Y925980D01*
Y930425*
X1328738Y943734D02*
Y943772D01*
X1333925*
X1315938Y931734D02*
X1316094Y931890D01*
X1320508*
X1345874Y930425D02*
Y934823D01*
X1346130Y935079*
X1315858Y919390D02*
Y922490D01*
X1315658Y922690*
X986938Y969982D02*
X982486D01*
X982350Y970118*
X1026839Y976417D02*
X1026774Y976482D01*
X1022579*
X1007131Y969768D02*
Y973245D01*
X1007154Y973268*
X1001713Y976482D02*
Y976811D01*
X1005972*
X1017067Y969620D02*
Y972803D01*
X1016996Y972874*
X1022487Y987017D02*
X1020569D01*
X1020539Y987047*
X1026425Y992617D02*
X1026498Y992690D01*
X1031158*
X1026425Y992617D02*
Y1004290D01*
X999121Y958640D02*
Y963266D01*
X999279Y963425*
X1003059Y958640D02*
Y963661D01*
X1003217Y963819*
X1014873Y958640D02*
Y963122D01*
X1014705Y963290*
X1022749Y958640D02*
Y963120D01*
X1022579Y963290*
X1059981Y959353D02*
X1060018Y959390D01*
X1065981*
X1059981Y974313D02*
X1060057Y974390D01*
X1065981*
X1047776Y984156D02*
X1047731Y984201D01*
Y989390*
X1065981Y982390D02*
X1060172D01*
X1059981Y982581*
X1047731Y989390D02*
X1047776Y989434D01*
Y993595*
X1044981Y996390*
X1040231Y989390D02*
X1040509Y989668D01*
Y995967*
X1040558*
X1040981Y996390*
X1040231Y989390D02*
X1034458D01*
X1031158Y992690*
X1037354Y969982D02*
X1045736D01*
Y970118*
X1091799Y982323D02*
X1091732Y982390D01*
X1085981*
X1111801Y985290D02*
X1111717Y985374D01*
X1106606*
X1085981Y974390D02*
X1091740D01*
X1091799Y974449*
X1151178Y982890D02*
X1151356Y983069D01*
Y987540*
X1178831Y983110D02*
X1187075D01*
X1187862Y983898*
Y988734*
X1187706Y988890*
X1178831Y983110D02*
X1176051Y985890D01*
X1172706*
X1187862Y956764D02*
Y960094D01*
X1188058Y960290*
X1187706Y988890D02*
Y999640D01*
X1184356*
X1187706Y988890D02*
Y999640D01*
X1192581*
X1192587Y999646*
X1205972Y994921D02*
X1206356Y995305D01*
Y998790*
X1257156Y970095D02*
X1261464D01*
X1261658Y970290*
X1279656Y970095D02*
X1273453D01*
X1273258Y970290*
X1033925Y999646D02*
X1033981Y999702D01*
Y1004040*
X1034658Y1011417D02*
X1033981Y1010740D01*
X1037862*
Y1011457*
X1008858Y1003740D02*
X1003288D01*
Y1003841*
X1037862Y1011457D02*
X1037895Y1011490D01*
X1041241*
X1054075Y1002660D02*
X1053981Y1002754D01*
Y1006390*
X1065981Y997390D02*
X1060133D01*
X1059981Y997542*
X1065981Y1021390D02*
X1060148D01*
X1059981Y1021557*
X1040981Y996390D02*
X1040689D01*
Y1000738*
X1041241Y1001290*
X1044981Y996390D02*
Y1001290D01*
X1052731Y1020390D02*
Y1025728D01*
X1052637*
X1048721Y1001290D02*
Y1004628D01*
X1046753Y1006597*
X1042658*
X1041241Y1001290D02*
X1041477D01*
Y1005416*
X1042658Y1006597*
X1091799Y1006339D02*
X1091748Y1006390D01*
X1085981*
X1134458Y1000690D02*
X1134419Y1000729D01*
X1128606*
X1146917Y1007520D02*
X1147043Y1007646D01*
X1149388*
X1149279Y1022480D02*
X1149592Y1022793D01*
Y1027086*
X1151642Y1013031D02*
X1151364Y1013309D01*
Y1016850*
X1169752Y1012244D02*
X1169474D01*
Y1016456*
X1159516Y1021693D02*
X1159632Y1021809D01*
Y1027086*
X1168965Y1021693D02*
X1169081Y1021809D01*
Y1027086*
X1179201Y1022480D02*
X1179120D01*
Y1027086*
X1176051Y1013031D02*
Y1016850D01*
X1177348*
X1159516Y1012244D02*
X1159238D01*
Y1016456*
X1184356Y1009890D02*
X1188800D01*
X1188839Y1009928*
X1175356Y1008890D02*
X1183356D01*
X1184356Y1009890*
X1232858Y1021490D02*
X1232856Y1021492D01*
X1233856Y1027595*
X1274476Y1007520D02*
X1274756Y1007800D01*
Y1012595*
X1286456Y1022895D02*
X1280253D01*
X1280058Y1023090*
X1302358Y838390D02*
X1311858D01*
Y829790*
X1320358*
Y828390*
X1302358*
Y838390*
X1300358Y873390D02*
X1307358D01*
Y864890*
X1314358*
Y857890*
X1323358*
Y842390*
X1300358*
Y873390*
X1351758Y848590D02*
X1362758D01*
Y840190*
X1367958*
Y835590*
X1351758*
Y848590*
X1377358Y842590D02*
X1381558D01*
Y832790*
X1377358*
Y842590*
X1302358Y829288D02*
X1320358D01*
X1302358Y838288D02*
X1311858D01*
X1302358Y837388D02*
X1311858D01*
X1302358Y836488D02*
X1311858D01*
X1302358Y835588D02*
X1311858D01*
X1302358Y834688D02*
X1311858D01*
X1302358Y833788D02*
X1311858D01*
X1302358Y832888D02*
X1311858D01*
X1302358Y831988D02*
X1311858D01*
X1302358Y831088D02*
X1311858D01*
X1302358Y830188D02*
X1311858D01*
X1300358Y857688D02*
X1323358D01*
X1300358Y856788D02*
X1323358D01*
X1300358Y855888D02*
X1323358D01*
X1300358Y854988D02*
X1323358D01*
X1300358Y854088D02*
X1323358D01*
X1300358Y853188D02*
X1323358D01*
X1300358Y852288D02*
X1323358D01*
X1300358Y851388D02*
X1323358D01*
X1300358Y850488D02*
X1323358D01*
X1300358Y849588D02*
X1323358D01*
X1300358Y848688D02*
X1323358D01*
X1300358Y847788D02*
X1323358D01*
X1300358Y846888D02*
X1323358D01*
X1300358Y845988D02*
X1323358D01*
X1300358Y845088D02*
X1323358D01*
X1300358Y844188D02*
X1323358D01*
X1300358Y843288D02*
X1323358D01*
X1300358Y864888D02*
X1314358D01*
X1300358Y863988D02*
X1314358D01*
X1300358Y863088D02*
X1314358D01*
X1300358Y862188D02*
X1314358D01*
X1300358Y861288D02*
X1314358D01*
X1300358Y860388D02*
X1314358D01*
X1300358Y859488D02*
X1314358D01*
X1300358Y858588D02*
X1314358D01*
X1300358Y872988D02*
X1307358D01*
X1300358Y872088D02*
X1307358D01*
X1300358Y871188D02*
X1307358D01*
X1300358Y870288D02*
X1307358D01*
X1300358Y869388D02*
X1307358D01*
X1300358Y868488D02*
X1307358D01*
X1300358Y867588D02*
X1307358D01*
X1300358Y866688D02*
X1307358D01*
X1300358Y865788D02*
X1307358D01*
X1351758Y840088D02*
X1367958D01*
X1351758Y839188D02*
X1367958D01*
X1351758Y838288D02*
X1367958D01*
X1351758Y837388D02*
X1367958D01*
X1351758Y836488D02*
X1367958D01*
X1351758Y848188D02*
X1362758D01*
X1351758Y847288D02*
X1362758D01*
X1351758Y846388D02*
X1362758D01*
X1351758Y845488D02*
X1362758D01*
X1351758Y844588D02*
X1362758D01*
X1351758Y843688D02*
X1362758D01*
X1351758Y842788D02*
X1362758D01*
X1351758Y841888D02*
X1362758D01*
X1351758Y840988D02*
X1362758D01*
X1377358Y841788D02*
X1381558D01*
X1377358Y840888D02*
X1381558D01*
X1377358Y839988D02*
X1381558D01*
X1377358Y839088D02*
X1381558D01*
X1377358Y838188D02*
X1381558D01*
X1377358Y837288D02*
X1381558D01*
X1377358Y836388D02*
X1381558D01*
X1377358Y835488D02*
X1381558D01*
X1377358Y834588D02*
X1381558D01*
X1377358Y833688D02*
X1381558D01*
G54D190*
X1019429Y785990D02*
X1019658Y783290D01*
Y799142*
X1018400Y800400*
Y802456*
X1015256Y805600*
Y805940*
X1032028Y785990D02*
Y789589D01*
X1033578Y791139*
Y796858*
X1035978Y799258*
X1039902*
X1041256Y800613*
Y805940*
X1028878Y785990D02*
Y797463D01*
X1032256Y800841*
Y805940*
X1022579Y785990D02*
Y800613D01*
X1023256Y801290*
Y805940*
X1013130Y785990D02*
Y797200D01*
X1014705Y798800*
X1009981Y785990D02*
Y797200D01*
X1011555Y798800*
X1006831Y785990D02*
Y797200D01*
X1008406Y798800*
X1047776Y785990D02*
X1047705Y783361D01*
Y791705*
X1049600Y793600*
X1060374Y792746D02*
X1060396Y792768D01*
X1066674Y785990D02*
Y792000D01*
X1068248Y793600*
X1063524Y785990D02*
Y790155D01*
X1065658Y792290*
Y795088*
X1064856Y795890*
Y811105*
X1062272Y813690*
Y819074*
X1060856Y820490*
X1056056*
X1054004Y822542*
Y825182*
X1053996Y825190*
X1057225Y785990D02*
Y793200D01*
X1058738Y794400*
X1054075Y785990D02*
Y792800D01*
X1054000Y793600*
X1044626Y785990D02*
Y792000D01*
X1046400Y793600*
X1041477Y785990D02*
Y792000D01*
X1043052Y793600*
X1038327Y785990D02*
Y792000D01*
X1039600Y793600*
X1091870Y785990D02*
Y783600D01*
X1091905Y789601*
X1092000Y789695*
Y806000*
X1113918Y785990D02*
Y792090D01*
X1115474Y793646*
Y800049*
X1114256Y801267*
Y805924*
X1110768Y785990D02*
Y791990D01*
X1112418Y793590*
X1107618Y785990D02*
Y794890D01*
X1109178Y796449*
Y798090*
X1088721Y785990D02*
Y792000D01*
X1088750Y792035*
X1088754Y792038*
Y792354*
X1090400Y794000*
X1085571Y785990D02*
Y792400D01*
X1087146Y794000*
X1082422Y785990D02*
Y792400D01*
X1083996Y794000*
X1076122Y785990D02*
Y794000D01*
X1077304Y795200*
X1140689Y793590D02*
Y798490D01*
X1143889Y801690*
X1190192*
X1208978Y820476*
Y822490*
X1222963Y836476*
X1225349*
X1240163Y836490*
X1241763Y838090*
Y865290*
X1245363Y868890*
X1264563*
X1269363Y873690*
X1271763*
X1137578Y793590D02*
Y798090D01*
X1141978Y802490*
X1189811*
X1207787Y820466*
Y822890*
X1223363Y838466*
X1238563*
X1240563Y840466*
Y865290*
X1245763Y870490*
X1264963*
X1269763Y875290*
X1270963*
X1272963Y877290*
Y879290*
X1273763Y880090*
X1276563*
X1134378Y793590D02*
Y796890D01*
X1140778Y803290*
X1189429*
X1206596Y820457*
Y823336*
X1223750Y840490*
X1230163*
X1232163Y842490*
Y865290*
X1232963Y866090*
X1239363*
X1244563Y871290*
X1249363*
X1253363Y875290*
X1264163*
X1131178Y793590D02*
Y797394D01*
X1138674Y804890*
X1188667*
X1204615Y820838*
Y824438*
X1213015Y832838*
Y845200*
X1214705Y846890*
Y865431*
X1218963Y869690*
X1222963*
X1227763Y874490*
X1231098*
X1128117Y793590D02*
Y797150D01*
X1137457Y806490*
X1187763*
X1195763Y814490*
Y816090*
X1124917Y793590D02*
Y796890D01*
X1136117Y808090*
X1182812*
X1209317Y834595*
Y846536*
X1206963Y848890*
X1151713Y785990D02*
Y790490D01*
X1151717Y791990*
X1153317Y793590*
X1145414Y785990D02*
Y791990D01*
X1146989Y793590*
X1142264Y785990D02*
Y791990D01*
X1143839Y793590*
X1139115Y785990D02*
Y790490D01*
X1139089Y791990*
X1140689Y793590*
X1135965Y785990D02*
Y790490D01*
X1135978Y791990*
X1137578Y793590*
X1132815Y785990D02*
Y791990D01*
X1134378Y793590*
X1129666Y785990D02*
Y791990D01*
X1131178Y793590*
X1126516Y785990D02*
Y791990D01*
X1128117Y793590*
X1123367Y785990D02*
Y791990D01*
X1124917Y793590*
X1117067Y785990D02*
Y793039D01*
X1120136Y796107*
Y799636*
X1121720Y801220*
X1189508Y785990D02*
Y794390D01*
X1191083Y795990*
X1186359Y785990D02*
Y794390D01*
X1187933Y795990*
X1183209Y785990D02*
Y794390D01*
X1184784Y795990*
X1180059Y785990D02*
Y794390D01*
X1181634Y795990*
X1176910Y785990D02*
Y794390D01*
X1178485Y795990*
X1173760Y785990D02*
Y794390D01*
X1175335Y795990*
X1170611Y785990D02*
Y792799D01*
X1171801Y793990*
X1167461Y785990D02*
Y794790D01*
X1167801*
X1164311Y785990D02*
Y795079D01*
X1164201Y795190*
X1161162Y785990D02*
Y795315D01*
X1165137Y799290*
X1194091*
X1210963Y816162*
Y821290*
X1222892Y833219*
X1248563*
X1251763Y836419*
Y865690*
X1252563Y866490*
X1272163*
X1272963Y867290*
X1277763*
X1278963Y868490*
Y870890*
X1158012Y785990D02*
Y795315D01*
X1162787Y800090*
X1193710*
X1210137Y816517*
Y822063*
X1222963Y834890*
X1247763*
X1250563Y837690*
Y866090*
X1251763Y867290*
X1271363*
X1272163Y868090*
X1272963*
X1274163Y869290*
X1154863Y785990D02*
Y791990D01*
X1156437Y793590*
X1313398Y785990D02*
Y793865D01*
X1314976Y795440*
X1307099Y785990D02*
Y794313D01*
X1308674Y795888*
X1303949Y785990D02*
Y794313D01*
X1305524Y795888*
X1300800Y785990D02*
Y794313D01*
X1302374Y795888*
X1297650Y785990D02*
Y794313D01*
X1299225Y795888*
X1294500Y785990D02*
Y794313D01*
X1296075Y795888*
X1291351Y785990D02*
Y794313D01*
X1292925Y795888*
X1288201Y785990D02*
Y794313D01*
X1289776Y795888*
X1354343Y785990D02*
Y793865D01*
X1355918Y795440*
X1351193Y785990D02*
Y793865D01*
X1352768Y795440*
X1348044Y785990D02*
Y793865D01*
X1349618Y795440*
X1341744Y785990D02*
Y793990D01*
X1343319Y795590*
X1338595Y785990D02*
Y793865D01*
X1340176Y795440*
X1335445Y785990D02*
Y793990D01*
X1337020Y795590*
X1332296Y785990D02*
Y793865D01*
X1333876Y795440*
X1329146Y785990D02*
Y793865D01*
X1330726Y795440*
X1325996Y785990D02*
Y793865D01*
X1327576Y795440*
X1322847Y785990D02*
Y793865D01*
X1324426Y795440*
X1319697Y785990D02*
Y793865D01*
X1321276Y795440*
X1316548Y785990D02*
Y793865D01*
X1318126Y795440*
X1363792Y785990D02*
Y793865D01*
X1365367Y795440*
X1360642Y785990D02*
Y793865D01*
X1362217Y795440*
X1357492Y785990D02*
Y793865D01*
X1359067Y795440*
X1030338Y821734D02*
X1030516Y821912D01*
Y825190*
X1023138Y816534D02*
X1026338Y819734D01*
X1036338*
X1037938Y821334*
Y825131*
X1037996Y825190*
X1021938Y822134D02*
X1021996Y822192D01*
Y825190*
X1015138Y816534D02*
X1015221Y816617D01*
Y819195*
X1014516Y819900*
Y825190*
X1030338Y832134D02*
X1030516Y832312D01*
Y835390*
X1023256Y812640D02*
Y816415D01*
X1023138Y816534*
X1015256Y812640D02*
X1015304Y812687D01*
Y816494*
X1015264Y816534*
X1015138*
X1032256Y812640D02*
X1032338Y812721D01*
Y816534*
X1068338D02*
Y819075D01*
X1070996Y821734*
Y825190*
X1063578Y821690D02*
X1063516Y821751D01*
Y825190*
X1037938Y832134D02*
X1037996Y832192D01*
Y835390*
X1041138Y816534D02*
Y828534D01*
X1039138Y830534*
X1023538*
X1021996Y832075*
Y835390*
X1050378Y802090D02*
X1050256Y802211D01*
Y805940*
X1059178Y801600D02*
X1059256Y801679D01*
Y805940*
X1068378Y802090D02*
X1068256Y802211D01*
Y805940*
X1046338Y821734D02*
X1046516Y821912D01*
Y825190*
Y831457D02*
Y835390D01*
X1059256Y812640D02*
X1059178Y812719D01*
Y818890*
X1050256Y812640D02*
X1050260Y812643D01*
Y816587*
X1068256Y812640D02*
X1068338Y812721D01*
Y816534*
X1041256Y812640D02*
X1041138Y812758D01*
Y816534*
X1037996Y825190D02*
Y828534D01*
X1037938*
X1053996Y825190D02*
Y829275D01*
X1053938Y829334*
X1077538Y816534D02*
Y819226D01*
X1076674Y820090*
Y826057*
X1070996Y831734*
Y835390*
X1077178Y800490D02*
X1077256Y800569D01*
Y805940*
X1079578Y820890D02*
X1079516Y820951D01*
Y825190*
X1094378Y831690D02*
X1094516Y831829D01*
Y835390*
X1094378Y821290D02*
X1094516Y821429D01*
Y825190*
X1101978Y821290D02*
X1101996Y821309D01*
Y825190*
X1113846Y818543D02*
Y831159D01*
X1117578Y834890*
X1114256Y812624D02*
X1113846Y813034D01*
Y818543*
X1077256Y812640D02*
X1077538Y812921D01*
Y816534*
X1086996Y825190D02*
Y828392D01*
X1087138Y828534*
X1144500Y829500D02*
Y844500D01*
X1148500Y848500*
X1152000*
X1154000Y850500*
Y860000*
X1145000Y811000D02*
X1144855Y811145D01*
Y822500*
X1139000Y828355*
Y848645*
X1143855Y853500*
Y861851*
X1121720Y801220D02*
Y805924D01*
X1122256*
X1145414Y795888D02*
X1150415Y800890D01*
X1191578*
X1200378Y809690*
X1132817Y796024D02*
Y797690D01*
X1139217Y804090*
X1189048*
X1205606Y820647*
Y823979*
X1223317Y841690*
X1228963*
X1230963Y843690*
Y865690*
X1232963Y867690*
X1236563*
X1237763Y868890*
X1129667Y796024D02*
Y797083D01*
X1138274Y805690*
X1188286*
X1203425Y820828*
Y824791*
X1211924Y833290*
Y846090*
X1213524Y847690*
Y865850*
X1218163Y870490*
X1222163*
X1226963Y875290*
X1232163*
X1126517Y796024D02*
Y796962D01*
X1136845Y807290*
X1183193*
X1210769Y834865*
Y846295*
X1212563Y848090*
Y853539*
X1208012Y858090*
Y867935*
X1211767Y871690*
X1221763*
X1226277Y876203*
X1233363*
X1242850Y885690*
X1269363*
X1123218Y796390D02*
Y796490D01*
X1135717Y808890*
X1182431*
X1206917Y833376*
Y841290*
X1204963Y843243*
Y851290*
X1206917Y853243*
Y868612*
X1216795Y878490*
X1121720Y818543D02*
Y835866D01*
X1147000Y835000D02*
Y838500D01*
X1152000Y843500*
X1157000*
X1159000Y845500*
Y860000*
X1122256Y812624D02*
Y818007D01*
X1121720Y818543*
X1153858Y834390D02*
Y838358D01*
X1154000Y838500*
X1168858Y834390D02*
Y838358D01*
X1169000Y838500*
X1163858Y834390D02*
Y838142D01*
X1163500Y838500*
X1158858Y834390D02*
Y838358D01*
X1159000Y838500*
X1291363Y818090D02*
X1289363Y820090D01*
Y825690*
X1285363Y829690*
X1267763*
X1262963Y834490*
Y839537*
X1261600Y840900*
Y850000*
X1303358Y829740D02*
Y837040D01*
X1332301Y805990D02*
X1332201Y806090D01*
X1295401*
X1294963Y806528*
Y824528*
X1283801Y835690*
X1278201*
X1276358Y837533*
Y846142*
X1333876Y795440D02*
Y801120D01*
X1330501Y804490*
X1294601*
X1293363Y805728*
Y824128*
X1285801Y831690*
X1274358*
X1266358Y839690*
Y846142*
X1321224Y830331D02*
X1310858D01*
Y837040*
X1014516Y835390D02*
Y839334D01*
X1014738*
X1021996Y835390D02*
Y838934D01*
X1024338Y841275*
Y843734*
X1030516Y835390D02*
Y866712D01*
X1030738Y866934*
X1060378Y835290D02*
X1060278Y835390D01*
X1053996*
X1063516D02*
Y839229D01*
X1063578Y839290*
X1070996Y835390D02*
Y839109D01*
X1071178Y839290*
X1046516Y835390D02*
Y849334D01*
X1045578Y850312*
Y866090*
X1053996Y835390D02*
Y854134D01*
X1049178Y858992*
Y867290*
X1111484Y861850D02*
X1111358Y861976D01*
Y866673*
X1111484Y846890D02*
X1111358Y847016D01*
Y852106*
X1104398Y846890D02*
X1104469Y846961D01*
Y852106*
X1110674Y837290D02*
X1113874D01*
X1123074Y846490*
Y850890*
X1079469Y846594D02*
Y852106D01*
X1086378Y871290D02*
X1086358Y871309D01*
X1086287Y846890D02*
X1086358Y846961D01*
Y852106*
X1104469Y866673D02*
Y872490D01*
X1104601*
X1101996Y835390D02*
Y839271D01*
X1101978Y839290*
X1079516Y835390D02*
Y838847D01*
X1079074Y839290*
X1077474*
X1086996Y835390D02*
Y839109D01*
X1087178Y839290*
X1086358Y866673D02*
Y871309D01*
X1079469Y866673D02*
Y872185D01*
X1149500Y838500D02*
X1153000Y842000D01*
X1161500*
X1164000Y844500*
Y860000*
X1154000D02*
X1153858Y860142D01*
Y864390*
X1118571Y846890D02*
X1118248Y847213D01*
Y852106*
X1118571Y861850D02*
X1118248Y862173D01*
Y866673*
X1135855Y874851D02*
X1130855D01*
Y879851*
X1137855Y868201D02*
Y870906D01*
X1137075Y871685*
X1136624*
X1135855Y872455*
Y874851*
X1173500Y840500D02*
Y842000D01*
X1172000Y843500*
X1170000*
X1169000Y844500*
Y860000*
X1177500Y858000D02*
Y864839D01*
X1176839Y865500*
Y872255*
X1184713Y880129*
Y886260*
X1186287Y887835*
X1164000Y860000D02*
X1163858Y860142D01*
Y864390*
X1159000Y860000D02*
X1158858Y860142D01*
Y864390*
X1189763Y839690D02*
Y841690D01*
X1191363Y843290*
Y845290*
X1193363Y847290*
Y851800*
X1191074Y854090*
Y876890*
X1195736Y881552*
Y887835*
X1187763Y841290D02*
X1189763Y843290D01*
Y877290*
X1194161Y881578*
Y889409*
X1195736Y890984*
X1188163Y844090D02*
Y851980D01*
X1188674Y852490*
Y877690*
X1192587Y881603*
Y887835*
X1184390Y844313D02*
X1186752Y846676D01*
Y859734*
X1187474Y860455*
Y878090*
X1191012Y881628*
Y889409*
X1192587Y890984*
X1184674Y847463D02*
Y876890D01*
X1189437Y881653*
Y887835*
X1181474Y849431D02*
Y875290D01*
X1187862Y881678*
Y889409*
X1189437Y890984*
X1169000Y860000D02*
X1168858Y860142D01*
Y864390*
X1194963Y845690D02*
Y852259D01*
X1192274Y854949*
Y876090*
X1197311Y881127*
Y889409*
X1198886Y890984*
X1238963Y872490D02*
X1234963D01*
X1232163Y875290*
X1238963Y872490D02*
X1241763Y875290D01*
X1243663*
X1243098Y871024D02*
X1234563D01*
X1231098Y874490*
X1243098Y871024D02*
X1249363Y877290D01*
X1270163*
X1274163Y872890D02*
X1272563D01*
X1271763Y873690*
X1265763D02*
X1264163Y875290D01*
X1303358Y843740D02*
Y863000D01*
X1304569*
X1304958Y863390*
X1303358Y837040D02*
X1310858D01*
X1322067Y874890D02*
X1368563D01*
X1371363Y877690*
X1374963*
X1322067Y874890D02*
X1316467Y880490D01*
X1283363*
X1276163Y887690*
X1242490*
X1352963Y847140D02*
X1361363D01*
X1361763Y836640D02*
X1364858D01*
Y840331*
X1368829*
X1361763Y836640D02*
X1361363D01*
Y847140*
X1372963Y842890D02*
Y845449D01*
X1021792Y889274D02*
X1021847Y889330D01*
X1026981*
X1014634Y886654D02*
X1014518Y886770D01*
X1004981*
X996626Y898723D02*
X998957D01*
X999744Y899510*
X1004922*
X1004981Y899570*
X996626Y894392D02*
X998563D01*
X999351Y895180*
Y896361*
X1000000Y897010*
X1004981*
X996626Y890061D02*
X998563D01*
X1000532Y892030*
Y894056*
X1000926Y894450*
X1004981*
X1033965Y899510D02*
X1033905Y899570D01*
X1026981*
Y886770D02*
X1021792D01*
X1016532Y892030*
X1005121*
X1026981Y884210D02*
X1048383D01*
X1055551Y891378*
Y913425*
X1059516Y917390*
X1065981*
X1004981Y889330D02*
X1010617D01*
X1010697Y889409*
X1004981Y891890D02*
Y892030D01*
X1000532*
Y894056*
X1000926Y894450*
X1004981*
Y891890D02*
X1005121Y892030D01*
X1004981Y897010D02*
X1010630D01*
X1010768Y897148*
X1008966Y914140D02*
Y918306D01*
X1008335Y918937*
X1007154*
X1006997Y914140D02*
Y918937D01*
X1005028Y914140D02*
Y919173D01*
X1008335Y922480*
X1017783*
X999121Y914140D02*
Y919032D01*
X998957Y919195*
X1040618Y903976D02*
X1007783D01*
X1003059Y908701*
Y914140*
X1040618Y903976D02*
X1043374Y906732D01*
Y914213*
X1050854Y921693*
X1034713Y886654D02*
X1046524D01*
X1053217Y893346*
Y918059*
X1057547Y922390*
X1065981*
X1098456Y876890D02*
X1120224D01*
X1139024Y895690*
X1162646*
X1165815Y898858*
X1178413*
X1179988Y900433*
X1107178Y885690D02*
X1125178D01*
X1141178Y901690*
X1171009*
X1171327Y902008*
X1178413*
X1179988Y903583*
X1104778Y879290D02*
X1121178D01*
X1138384Y896496*
X1161091*
X1165028Y900433*
X1176839*
X1121138Y904134D02*
X1123622D01*
X1132778Y913290*
X1148694*
X1150853Y915449*
X1173605*
X1174338Y916181*
X1176839*
X1132778Y904534D02*
X1134778Y906534D01*
X1160034*
X1164957Y911457*
X1178413*
X1179988Y913031*
X1134378Y900890D02*
X1138378Y904890D01*
X1162520*
X1165938Y908307*
X1178413*
X1179988Y909882*
X1126378Y909334D02*
X1131133Y914090D01*
X1146098*
X1148542Y916534*
X1172467*
X1173689Y917756*
X1178413*
X1179988Y919331*
X1125178Y900134D02*
Y901746D01*
X1131165Y907734*
X1146130*
X1151428Y913031*
X1176839*
X1123538Y902090D02*
X1125978Y904490D01*
X1133978Y912490*
X1149096*
X1151138Y914531*
X1178339*
X1179988Y916181*
X1118778Y892890D02*
X1122422Y896534D01*
X1132422*
X1139978Y904090*
X1163172*
X1165815Y906732*
X1176839*
X1123978Y892890D02*
X1125978Y894890D01*
Y894934*
X1132022*
X1140378Y903290*
X1164735*
X1166602Y905157*
X1127178Y892890D02*
X1131178D01*
X1140778Y902490*
X1169446*
X1170539Y903583*
X1176839*
X1126738Y912134D02*
X1129494Y914890D01*
X1144445*
X1146889Y917334*
X1171742*
X1173739Y919331*
X1176839*
X1131978Y900890D02*
X1136778Y905690D01*
X1161623*
X1165815Y909882*
X1176839*
X1130855Y879851D02*
X1131169Y880165D01*
Y886260*
X1139799Y894890*
X1178413Y905157D02*
X1179988Y906732D01*
X1178413Y878386D02*
Y881535D01*
X1181563Y884685*
Y889409*
X1179988Y890984*
X1194161Y908307D02*
X1195736Y909882D01*
X1194161Y914606D02*
X1195736Y916181D01*
X1194161Y905157D02*
X1195736Y906732D01*
X1178413Y892559D02*
X1179988Y894134D01*
X1178413Y895709D02*
X1179988Y897283D01*
X1175264Y895709D02*
X1176839Y897283D01*
X1181563Y902008D02*
X1183138Y903583D01*
X1181563Y908307D02*
X1183138Y909882D01*
X1194161Y892559D02*
X1195736Y894134D01*
X1194161Y895708D02*
X1195736Y897283D01*
X1191012Y892559D02*
X1192587Y894134D01*
X1191012Y895708D02*
X1192587Y897283D01*
X1187862Y892559D02*
X1189437Y894134D01*
X1176839D02*
X1171178D01*
X1170422Y894890*
X1139799*
X1228807Y883110D02*
X1235510D01*
X1242490Y890090*
X1228807Y883110D02*
X1224083Y887835D01*
X1227232Y881535D02*
X1235135D01*
X1242490Y888890*
X1227232Y881535D02*
X1220933Y887835D01*
X1225128Y880490D02*
X1235290D01*
X1242490Y887690*
X1225128Y880490D02*
X1217783Y887835D01*
X1230382Y884685D02*
X1235885D01*
X1242490Y891290*
X1230382Y884685D02*
X1227232Y887835D01*
X1231957Y892559D02*
X1297528D01*
X1303858Y898890*
X1313858*
X1231957Y892559D02*
X1230382Y894134D01*
X1231974Y905140D02*
X1264509D01*
X1265059Y905690*
X1231974Y905140D02*
X1230382Y906732D01*
X1231975Y901990D02*
X1237713D01*
X1237813Y902090*
X1268378*
X1231975Y901990D02*
X1230382Y903583D01*
X1223763Y877290D02*
X1229763D01*
X1230963Y878490*
X1233463*
X1223763Y877290D02*
X1222563Y878490D01*
X1216795*
X1200461Y905157D02*
X1202035Y906732D01*
X1197311Y905157D02*
X1198886Y906732D01*
X1228807Y889409D02*
X1227232Y890984D01*
X1228807Y892559D02*
X1227232Y894134D01*
X1225657Y889409D02*
X1224083Y890984D01*
X1225657Y892559D02*
X1224083Y894134D01*
X1222508Y889409D02*
X1220933Y890984D01*
X1222508Y892559D02*
X1220933Y894134D01*
X1219358Y889409D02*
X1217783Y890984D01*
X1219358Y892559D02*
X1217783Y894134D01*
X1219358Y895708D02*
X1217783Y897283D01*
X1218517Y880140D02*
Y883951D01*
X1214634Y887835*
X1228807Y898858D02*
X1227232Y900433D01*
X1228807Y895708D02*
X1227232Y897283D01*
X1231957Y889409D02*
X1230382Y890984D01*
X1228807Y911456D02*
X1227232Y913031D01*
X1228807Y914606D02*
X1227232Y916181D01*
X1228807Y905157D02*
X1227232Y906732D01*
X1228807Y908307D02*
X1227232Y909882D01*
X1200461Y886260D02*
X1198886Y887835D01*
X1228807Y902008D02*
X1227232Y903583D01*
X1197311Y892559D02*
X1198886Y894134D01*
X1197311Y895708D02*
X1198886Y897283D01*
X1213059Y895708D02*
X1211484Y897283D01*
X1216209Y895708D02*
X1214634Y897283D01*
X1216209Y905157D02*
X1214634Y906732D01*
X1225658Y914606D02*
X1224083Y916181D01*
X1233531Y903583D02*
Y903690D01*
X1266778*
X1233531Y900433D02*
Y900490D01*
X1269978*
X1233531Y897283D02*
X1279201D01*
X1233531Y894134D02*
X1295858D01*
X1302614Y900890*
X1315858*
X1240980Y910190D02*
X1275596D01*
X1276863Y911457*
X1283363*
X1285196Y913290*
X1288163*
X1240980Y910190D02*
X1239713Y911457D01*
X1231957*
X1230382Y913031*
X1239381Y907340D02*
X1263296D01*
X1263705Y907748*
X1239381Y907340D02*
X1238413Y908307D01*
X1231957*
X1230382Y909882*
X1263313Y906182D02*
X1238463D01*
X1237913Y906732*
X1233531*
X1263313Y906182D02*
X1263863Y906732D01*
X1275363*
X1242513Y911431D02*
X1273855D01*
X1275463Y913040*
X1242513Y911431D02*
X1240913Y913031D01*
X1233531*
X1280222Y906890D02*
X1284563D01*
X1286163Y908490*
X1292163*
X1280222Y906890D02*
X1279363Y907748D01*
X1263705*
X1283363Y907690D02*
X1280963D01*
X1279913Y908740*
X1240155*
X1239013Y909882*
X1233531*
X1283363Y907690D02*
X1286563Y910890D01*
X1287763*
X1281091Y885163D02*
X1284036D01*
X1289263Y890390*
X1281091Y885163D02*
X1276163Y890090D01*
X1242490*
X1281363Y883690D02*
X1285763D01*
X1288163Y886090*
X1293858*
X1296158Y888390*
X1300358*
X1281363Y883690D02*
X1276163Y888890D01*
X1242490*
X1281100Y886353D02*
X1282827D01*
X1287863Y891390*
X1281100Y886353D02*
X1276163Y891290D01*
X1242490*
X1280563Y895709D02*
X1231957D01*
X1230382Y897283*
X1280563Y895709D02*
X1281344Y896490D01*
X1282563*
X1287763Y904490D02*
X1277606D01*
X1275363Y906732*
X1282963Y898890D02*
X1231957D01*
X1230382Y900433*
X1311858Y886390D02*
X1306858D01*
X1302858Y890390*
X1289263*
X1299763Y910890D02*
X1300163Y911063D01*
X1303185*
X1312358Y890390D02*
X1311358Y891390D01*
X1287863*
X1283763Y902890D02*
X1277213D01*
X1274413Y905690*
X1265059*
X1282601Y914090D02*
X1280094D01*
X1279578Y914606*
X1231957*
X1230382Y916181*
X1307185Y905945D02*
X1311484D01*
X1318177Y912638*
X1330055*
X1330323Y912906*
X1303185Y905945D02*
X1299279D01*
X1307185Y911063D02*
X1314240D01*
X1317390Y914213*
X1326445*
X1327232Y915000*
X1344000Y878500D02*
Y884161D01*
X1346130Y886291*
X1349000Y878500D02*
Y879669D01*
X1348169Y880500*
Y884000*
X1350461Y886291*
X1338900Y877000D02*
X1336500D01*
X1336000Y877500*
Y879000*
X1338900Y877000D02*
X1339000D01*
X1340600Y878600*
Y879800*
X1339800Y880600*
Y884292*
X1341799Y886291*
X1346130Y886260D02*
X1347843Y887835D01*
Y897354*
X1346130Y886260D02*
Y886291D01*
X1334378Y906890D02*
X1334267Y907000D01*
X1330323*
X1351500Y878500D02*
Y882291D01*
X1350461*
X1346358Y878390D02*
X1346130Y878618D01*
Y882291*
X1341763Y876890D02*
X1341799Y876926D01*
Y882291*
X1330163Y878890D02*
X1329988Y879065D01*
Y882291*
X1338500Y879000D02*
X1337862Y879638D01*
Y882291*
X1326117Y879290D02*
X1326051Y879356D01*
Y882291*
X1333200Y878900D02*
Y882291D01*
X1333925*
X1330323Y908969D02*
X1334160D01*
Y909072*
X1334378Y909290*
X1330323Y914874D02*
X1330197Y915000D01*
X1327232*
X1333925Y886291D02*
X1336256Y888622D01*
X1338650*
X1341937Y891909*
Y897354*
X1341799Y886291D02*
X1342000Y886492D01*
Y888626*
X1345874Y892500*
Y897354*
X1337862Y886291D02*
X1343906Y892335D01*
Y897354*
X1326051Y886291D02*
Y889016D01*
X1328020Y890984*
X1336287*
X1338000Y892697*
Y897354*
X1329988Y886291D02*
X1333500Y889803D01*
X1337862*
X1339969Y891909*
Y897354*
X1350461Y886291D02*
X1349811D01*
Y897354*
X1365000Y878500D02*
X1363500D01*
X1361500Y880500*
Y883913*
X1359122Y886291*
X1357500Y878500D02*
Y880000D01*
X1357000Y880500*
Y884083*
X1354791Y886291*
X1355000Y878500D02*
X1354791Y878709D01*
Y882291*
X1360500Y878500D02*
X1360413Y878587D01*
Y881000*
X1359122Y882291*
X1363394Y914874D02*
X1367390D01*
X1368697Y916181*
Y919850*
X1370146Y921299*
X1372083*
X1363394Y912906D02*
X1368020D01*
X1372083Y916969*
X1363394Y910937D02*
X1368413D01*
X1368965Y911488*
X1370933*
X1372083Y912638*
X1363394Y905031D02*
X1363488Y905126D01*
X1366602*
X1363394Y903063D02*
X1363520Y903189D01*
X1366209*
X1376083Y912638D02*
X1379232D01*
X1372083Y908307D02*
X1368839D01*
X1368177Y908969*
X1363394*
X1376083Y908307D02*
X1379365D01*
X1372083Y903976D02*
X1369059Y907000D01*
X1363394*
X1376083Y903976D02*
X1379380D01*
X1379538Y904134*
X1372083Y899646D02*
X1366602Y905126D01*
X1376083Y899646D02*
Y899734D01*
X1379538*
X1372083Y895315D02*
X1368177Y899220D01*
Y901220*
X1366209Y903189*
X1376083Y895315D02*
Y895334D01*
X1379538*
X1354791Y886291D02*
X1355500Y887000D01*
Y890000*
X1351780Y893720*
Y897354*
X1359122Y886291D02*
X1358866D01*
Y888622*
X1353748Y893740*
Y897354*
X986458Y917890D02*
Y921622D01*
X985731*
X990296Y929431D02*
X990229Y929498D01*
X985731*
X991477Y937306D02*
X991408Y937374D01*
X985731*
X991477Y947148D02*
X993214Y948885D01*
Y958640*
X985731Y947219D02*
X989043D01*
X991405Y949581*
Y956339*
X989437Y958307*
X985731Y949188D02*
X989043D01*
X989831Y949976*
Y954370*
X985731Y951157D02*
X987075D01*
Y953583*
X1021567D02*
X1023689D01*
X1026051Y955945*
Y957520*
X1021567Y953583D02*
X1020780Y954370D01*
Y958640*
X1006997Y918937D02*
X1007154D01*
X1013846Y937441D02*
X1018965D01*
X1021720Y940197*
Y942494*
X1024476Y945250*
X1030231*
X1013846Y942559D02*
X1016602D01*
X1021263Y947219*
X1030231*
X1013846Y947283D02*
X1015815Y949188D01*
X1030231*
X1024870Y942559D02*
X1025592Y943281D01*
X1030231*
X997311Y952008D02*
X997152Y952167D01*
Y958640*
X1011949Y952660D02*
Y954067D01*
X1012904Y955022*
Y958640*
X1007154Y918937D02*
X1006997D01*
X999279Y924055D02*
X996060D01*
X994555Y925560*
X985731*
X1025264Y926417D02*
X1005185D01*
X1001248Y930354*
Y939738*
X997705Y943281*
X985731*
X997311Y925630D02*
Y936981D01*
X994949Y939343*
X985731*
X999279Y926811D02*
X999214Y926877D01*
Y937441*
X995342Y941312*
X985731*
X1024870Y928780D02*
X1012272D01*
X1010697Y930354*
Y941243*
X1007154Y944786*
X1000854*
X998492Y947148*
X991477*
X1030231Y933436D02*
X1030299Y933504D01*
X1036192*
X1037075Y934387*
Y937835*
X1038650Y939409*
Y941378*
X1030231Y931467D02*
X1038581D01*
X1038650Y931535*
X1065981Y946390D02*
X1058835D01*
X1054791Y950433*
X1050854*
X1043408Y933390D02*
Y935472D01*
X1038650*
X1043408Y943390D02*
Y945315D01*
X1038650*
X1109193Y922345D02*
X1109148Y922390D01*
X1085981*
Y946390D02*
X1099351D01*
X1108377Y955416*
X1141631*
X1085981Y917390D02*
X1105972D01*
X1119358Y922480D02*
X1159089D01*
X1162239Y925630*
X1176839*
X1128738Y918534D02*
X1131109Y920906D01*
X1159516*
X1161091Y922480*
X1176839*
X1144669Y947913D02*
Y952378D01*
X1141631Y955416*
X1157874Y925428D02*
X1150738D01*
X1146432Y929734*
X1138338*
X1157874Y925428D02*
X1161225Y928780D01*
X1176839*
X1194185Y951181D02*
X1191799Y953567D01*
Y963488*
X1196461Y968150*
Y974055*
X1192587Y944528D02*
X1191012Y946102D01*
X1192587Y941378D02*
X1191012Y942953D01*
X1192587Y938228D02*
X1191012Y939803D01*
X1192587Y935079D02*
X1194161Y936654D01*
X1189437Y944528D02*
X1187862Y946102D01*
Y952764*
X1189437Y941378D02*
X1187862Y942953D01*
X1189437Y938228D02*
X1187862Y939803D01*
X1186287Y944528D02*
X1184713Y946102D01*
X1186287Y941378D02*
X1184713Y942953D01*
X1186287Y938228D02*
X1184713Y939803D01*
X1183138Y944528D02*
X1181563Y946102D01*
X1183138Y941378D02*
X1181563Y942953D01*
X1183138Y938228D02*
X1181563Y939803D01*
X1183138Y935079D02*
X1181563Y936654D01*
X1183138Y931929D02*
X1181563Y933504D01*
X1183138Y928780D02*
X1181563Y930355D01*
X1183138Y925630D02*
X1181563Y927205D01*
X1183138Y922480D02*
X1181563Y924055D01*
X1179988Y941378D02*
X1178413Y942953D01*
X1179988Y938228D02*
X1178413Y939803D01*
X1179988Y935079D02*
X1178413Y936654D01*
X1179988Y931929D02*
X1178413Y933504D01*
X1179988Y928780D02*
X1178413Y930354D01*
X1179988Y925630D02*
X1178413Y927205D01*
X1179988Y922480D02*
X1178413Y924055D01*
X1176839Y938228D02*
X1175264Y939803D01*
X1176839Y935079D02*
X1175264Y936654D01*
X1176839Y931929D02*
X1173689D01*
X1172114Y933504*
X1169533*
X1169494Y933544*
X1202193Y925295D02*
Y925472D01*
X1202035Y925630*
X1202193Y925295D02*
X1201858Y925630D01*
X1198886*
X1233531Y919290D02*
X1250963D01*
X1253363Y921690*
X1233531Y919290D02*
Y919331D01*
X1231938Y917775D02*
X1251363D01*
X1252878Y919290*
X1260163*
X1231938Y917775D02*
X1230382Y919331D01*
X1198185Y951181D02*
Y958249D01*
X1198243Y958307*
X1200461*
X1201248Y959094*
Y972480*
X1202429Y973661*
X1206303*
X1205909Y974055*
X1198185Y951181D02*
Y958249D01*
X1198243Y958307*
X1196461*
X1233531Y938228D02*
X1244555D01*
X1233531Y931929D02*
Y932000D01*
X1241200*
X1233531Y928780D02*
Y928800D01*
X1239600*
X1233531Y922480D02*
X1251401D01*
X1233531Y916181D02*
X1263363D01*
X1264472Y917290*
X1274963*
X1230382Y941378D02*
X1231957Y942953D01*
X1230382Y938228D02*
X1231957Y939803D01*
X1242193*
X1230382Y935079D02*
X1231957Y936654D01*
X1277626*
X1279201Y938228*
X1282350*
X1230382Y931929D02*
X1231957Y933504D01*
X1248499*
X1230382Y928780D02*
X1231957Y930354D01*
X1250109*
X1230382Y925630D02*
X1231957Y927205D01*
X1244478*
X1245363Y928090*
X1230382Y922480D02*
X1231957Y924055D01*
X1235363*
X1227232Y944528D02*
X1230382Y947677D01*
Y961850*
X1227232Y965000*
Y985472*
Y941378D02*
X1228807Y942953D01*
X1227232Y938228D02*
X1228807Y939803D01*
X1227232Y935079D02*
X1228807Y936654D01*
X1227232Y931929D02*
X1228807Y933504D01*
X1227232Y928780D02*
X1228807Y930354D01*
X1227232Y922480D02*
X1228807Y924055D01*
X1227232Y919331D02*
X1228807Y920906D01*
X1224083Y944528D02*
Y946102D01*
X1227578Y949597*
Y960718*
X1224217Y964078*
Y972874*
X1224216*
Y983110*
X1221578Y985749*
Y986890*
X1224083Y941378D02*
X1225657Y942953D01*
Y946102*
X1228807Y949252*
Y961850*
X1225657Y965000*
Y983898*
X1224378Y985178*
Y986890*
X1224083Y938228D02*
X1225657Y939803D01*
X1220933Y944528D02*
X1222902Y946496D01*
Y981927*
X1220539Y984289*
Y984291*
X1218571Y986260*
X1220933Y941378D02*
X1222508Y942953D01*
X1220933Y938228D02*
X1222508Y939803D01*
X1217783Y944528D02*
X1221578Y948322D01*
Y976954*
X1213846Y984685*
X1217783Y941378D02*
X1219358Y942953D01*
X1217783Y938228D02*
X1219358Y939803D01*
X1217783Y935079D02*
X1219358Y936654D01*
X1214634Y944528D02*
X1217178Y947071D01*
Y980090*
X1214320Y982947*
X1212435*
X1209909Y985472*
X1214634Y941378D02*
X1216209Y942953D01*
X1214634Y938228D02*
X1216209Y939803D01*
X1214634Y935079D02*
X1216209Y936654D01*
X1211484Y944528D02*
X1216378Y949421D01*
Y976890*
X1212778Y980490*
X1211484Y941378D02*
X1213059Y942953D01*
X1211484Y938228D02*
X1213059Y939803D01*
X1211484Y935079D02*
X1213059Y936654D01*
X1208335Y944528D02*
X1215578Y951770D01*
Y974490*
X1207978Y982090*
X1206778*
X1208335Y941378D02*
X1209909Y942953D01*
X1208335Y938228D02*
X1209909Y939803D01*
X1208335Y925630D02*
X1209909Y927205D01*
X1205185Y944528D02*
X1214778Y954120D01*
Y973518*
X1209122Y979173*
X1199673*
X1194161Y984685*
Y987047*
X1205185Y941378D02*
X1206760Y942953D01*
X1205185Y938228D02*
X1206760Y939803D01*
X1205185Y925630D02*
X1206760Y927205D01*
X1202035Y944528D02*
Y953933D01*
X1205909Y957807*
Y958307*
X1202035Y941378D02*
X1203610Y942953D01*
X1202035Y938228D02*
X1203610Y939803D01*
X1198886Y944528D02*
Y947932D01*
X1198185Y948633*
Y951181*
X1198886Y941378D02*
Y944528D01*
Y938228D02*
X1200461Y939803D01*
X1198886Y935079D02*
X1200461Y936654D01*
X1198886Y925630D02*
X1197311Y927205D01*
X1195736Y944528D02*
Y947701D01*
X1194185Y949252*
Y951181*
X1195736Y941378D02*
X1197311Y942953D01*
X1195736Y938228D02*
X1197311Y939803D01*
X1195736Y935079D02*
X1197311Y936654D01*
X1195736Y922480D02*
X1194161Y924055D01*
X1265028Y928780D02*
X1253224D01*
X1248499Y933504*
X1265028Y928780D02*
X1269752Y933504D01*
X1276051*
X1249398Y923290D02*
X1236129D01*
X1235363Y924055*
X1249398Y923290D02*
X1250163Y924055D01*
X1272114*
X1237304Y924090D02*
X1247660D01*
X1249200Y925630*
X1237304Y924090D02*
X1235763Y925630D01*
X1233531*
X1256366Y930354D02*
X1254004D01*
X1249279Y935079*
X1233531*
X1274476Y923268D02*
X1281563D01*
X1282385Y924090*
X1286601*
X1274476Y923268D02*
X1272454Y925290D01*
X1252563*
X1249763Y928090*
X1245363*
X1274476Y926390D02*
X1254073D01*
X1250109Y930354*
X1288201Y921690D02*
X1288198Y921693D01*
X1274476*
X1272114Y924055*
X1281763Y919290D02*
X1264563D01*
X1262163Y921690*
X1253363*
X1291358Y931390D02*
Y934358D01*
X1291500Y934500*
X1297608Y919390D02*
X1297312Y919686D01*
X1293760*
X1291358Y922087*
Y927390*
X1333531Y930354D02*
X1333602Y930425D01*
X1336031*
X1333925Y936654D02*
Y939772D01*
X1320338Y916534D02*
X1320347Y916543D01*
X1324870*
X1327208Y939390D02*
X1327590Y939772D01*
X1333925*
X1330323Y918811D02*
X1334587D01*
X1334713Y918937*
X1330323Y920780D02*
X1333257D01*
X1334564Y922087*
X1334713*
X1330323Y922748D02*
X1333012D01*
X1334713Y924449*
X1339969Y930425D02*
Y935079D01*
X1338394Y936654*
X1333925*
X1341937Y930425D02*
Y936811D01*
X1338858Y939890*
X1343906Y930425D02*
Y939843D01*
X1343858Y939890*
X1349811Y930425D02*
X1349800D01*
Y936100*
X1351780Y930425D02*
Y934547D01*
X1324870Y916543D02*
Y916843D01*
X1330323*
X1327208Y931890D02*
Y939390D01*
X1357547Y926417D02*
X1357685Y926555D01*
Y930425*
X1379538Y916934D02*
Y916969D01*
X1376083*
X1355717Y930425D02*
Y934547D01*
X1355579Y934685*
X1372083Y921299D02*
Y924811D01*
X1372114Y924843*
X987008Y990354D02*
Y1023425D01*
X1007705Y989409D02*
X1006760Y990354D01*
X987008*
X1007705Y989409D02*
Y990185D01*
X1007874Y990354*
X1028485Y986912D02*
X1028379Y987017D01*
X1026425*
X1007131Y965768D02*
X1003288D01*
X1001713Y967342*
Y969782*
X1001513Y969982*
X994438*
X1017067Y965620D02*
Y966568D01*
X1019365*
X1022579Y969782*
X1022779Y969982*
X1029854*
X1022487Y992617D02*
Y995287D01*
X1023600Y996400*
X1007874Y990354D02*
X1008858Y991339D01*
Y997283*
X1006997Y958640D02*
Y965768D01*
X1007131*
X1008966Y958640D02*
Y962109D01*
X1009909Y963052*
Y972874*
X1020146Y983110*
X1022715*
X1024548Y984943*
Y989274*
X1024154Y989668*
X1022973*
X1022579Y990061*
Y992525*
X1022487Y992617*
X1010935Y958640D02*
Y972325D01*
X1020404Y981794*
X1024548*
X1026516Y983762*
Y986926*
X1026425Y987017*
X1016842Y958640D02*
Y965033D01*
X1017067Y965258*
Y965620*
X1018811Y958640D02*
Y962244D01*
X1021960Y965394*
X1039831Y964213D02*
X1026051D01*
X1024870Y965394*
X1021960*
X1052429Y969331D02*
X1052488Y969390D01*
X1065981*
X1047311Y980354D02*
X1051693D01*
X1058728Y987390*
X1065981*
Y964390D02*
X1053217D01*
X1050458Y967148*
Y972876*
X1046524Y976811*
X1065981Y992390D02*
X1056142D01*
X1055972Y992559*
X1052823*
X1096601Y969290D02*
Y969390D01*
X1085981*
X1106606Y987933D02*
X1106446Y988093D01*
X1102188*
X1106606Y993051D02*
X1112272D01*
X1113846Y994626*
Y994921*
X1085981Y964390D02*
X1098957D01*
X1101007Y966439*
Y986912*
X1102188Y988093*
X1085981Y992390D02*
X1095414D01*
X1099520Y996496*
X1085981Y987390D02*
X1095414D01*
X1098479Y990455*
X1106569*
X1106606Y990492*
X1120146Y990455D02*
X1120183Y990492D01*
X1128606*
X1144555Y973268D02*
X1144669Y973382D01*
Y977913*
X1124181Y987933D02*
X1128606D01*
X1134319Y992953D02*
X1134220Y993051D01*
X1128606*
X1139669Y977913D02*
Y1005783D01*
X1139831Y1005945*
X1128606Y985374D02*
X1124181D01*
X1124083Y985472*
X1151356Y994240D02*
Y1002134D01*
X1159516Y990591D02*
X1159356Y990750D01*
Y994890*
X1169356Y992890D02*
Y993346D01*
X1165815*
X1166006Y985890D02*
X1161878Y990018D01*
Y1006368*
X1159356Y1008890*
X1181006Y988890D02*
X1176839D01*
X1176051Y989677*
Y994921*
X1172902Y998071*
X1210060Y994487D02*
X1210096Y994524D01*
Y998790*
X1205909Y958307D02*
Y960181D01*
X1212185*
Y964181D02*
Y973268D01*
X1211398Y974055*
X1205909*
X1026425Y1004290D02*
X1026398Y1004317D01*
X1022881*
X1008858Y997283D02*
Y996496D01*
Y1000591*
Y997283D02*
Y1000591D01*
X1007874Y1023425D02*
X987008D01*
X1008858Y1006890D02*
X1003389D01*
X1003288Y1006991*
X1008858Y1010039D02*
X1003389D01*
X1003288Y1010140*
X1044949Y1015000D02*
X1045231Y1015282D01*
Y1020390*
X1054398Y997677D02*
X1056760Y1000039D01*
X1056827*
Y1009094*
X1059122Y1011390*
X1065981*
X1053610Y1014213D02*
X1055764D01*
X1057941Y1016390*
X1065981*
Y1006390D02*
X1059975D01*
X1059837Y1006528*
X1053981Y1010390D02*
X1048721D01*
Y1011490*
X1102035Y995573D02*
X1106606D01*
Y995610*
X1102035Y995573D02*
X1101113Y996496D01*
X1099520*
X1102175Y1000691D02*
X1106569D01*
X1106606Y1000728*
X1102175Y1000691D02*
X1091477Y1011390D01*
X1085981*
X1101319Y1005760D02*
X1106520D01*
X1106606Y1005846*
X1101319Y1005760D02*
X1090689Y1016390D01*
X1085981*
X1106606Y998169D02*
X1112370D01*
X1113846Y999646*
X1117783Y1005945D02*
X1113945D01*
X1111484Y1008406*
X1106606*
X1118571Y995573D02*
X1118608Y995610D01*
X1128606*
X1136287Y1003189D02*
X1136189Y1003287D01*
X1128606*
Y1005846D02*
X1117882D01*
X1117783Y1005945*
X1128606Y998169D02*
X1124064D01*
X1122981Y999252*
X1122902*
X1153325Y1007646D02*
X1153368Y1007689D01*
Y1009897*
X1154358Y1010888*
X1167100Y1008800D02*
X1166600Y1009300D01*
Y1012200*
X1166100Y1012700*
Y1013785*
X1166915Y1014600*
Y1016456*
X1167100Y1008800D02*
X1169267D01*
X1169356Y1008890*
X1164240Y1001220D02*
X1165520D01*
X1166000Y1001700*
Y1003246*
X1164356Y1004890*
X1173689Y1001220D02*
Y1003222D01*
X1175356Y1004890*
X1156366Y1004370D02*
X1159356D01*
Y1004890*
X1164400Y998000D02*
X1166850Y1000450D01*
Y1002383*
X1169356Y1004890*
X1155579Y1000039D02*
Y1001346D01*
X1154791Y1002134*
X1151356*
X1159356Y1008890D02*
X1157358Y1010888D01*
X1154358*
X1159356Y1008890D02*
X1159516D01*
Y1009094*
X1161797Y1011457*
Y1016456*
X1159356Y998890D02*
X1156728D01*
X1155579Y1000039*
X1169356Y996890D02*
X1171552D01*
X1172733Y998071*
X1172902*
X1164356Y1008890D02*
X1165800Y1010333D01*
Y1011756*
X1165078Y1012478*
Y1013778*
X1164356Y1014500*
Y1016456*
X1211356Y1025640D02*
X1211372Y1025655D01*
X1218571*
X1201356Y1025640D02*
X1201335Y1025661D01*
X1194949*
X1202616Y1008990D02*
X1202560Y1009046D01*
Y1013284*
X1201356Y1014487*
Y1018140*
X1210096Y1008990D02*
X1210260Y1009153D01*
Y1013391*
X1211356Y1014487*
Y1018140*
X1202616Y998790D02*
Y1002214D01*
X1202035Y1002795*
X1257358Y1005795D02*
X1257556Y1005993D01*
Y1010195*
X1261878Y1005945D02*
X1261856Y1005967D01*
Y1011795*
X1252858Y1007295D02*
Y1011457D01*
X1253256*
Y1011795*
X1270456D02*
Y1018543D01*
X1269752*
X1283356Y1011795D02*
Y1016969D01*
X1283925*
X1279056Y1011795D02*
Y1016824D01*
X1279201Y1016969*
G54D191*
X1335299Y830331D02*
X1329492D01*
X1325358Y832890D02*
Y835449D01*
X1329492*
Y830331D02*
Y832890D01*
X1321224D02*
X1325358D01*
X1018256Y835390D02*
X1018738D01*
Y839334*
X1034256Y835390D02*
Y839252D01*
X1034338Y839334*
X1067256Y835390D02*
Y839215D01*
X1067138Y839334*
X1050256Y835390D02*
Y839252D01*
X1050338Y839334*
X1093374Y861850D02*
X1093248Y861976D01*
Y866673*
X1096274Y851290D02*
X1093248D01*
Y852106*
X1098256Y835390D02*
Y838852D01*
X1098338Y838934*
X1083256Y835390D02*
Y839215D01*
X1083138Y839334*
X1127978Y865690D02*
X1128139Y865851D01*
X1130855*
Y870851D02*
X1128017D01*
X1127978Y870890*
X1202117Y849290D02*
Y851684D01*
X1197311Y856490*
Y860863*
X1315358Y835390D02*
X1315417Y835449D01*
X1321224*
X1352637Y860500D02*
X1357763D01*
Y864490*
X1318858Y870390D02*
X1314358D01*
Y870890*
X1361363Y853840D02*
X1352963D01*
Y860174*
X1352637Y860500*
X1368458Y845449D02*
Y848290D01*
X1372963Y845449D02*
X1377097D01*
X1361363Y853840D02*
X1369463D01*
Y855290*
X1181739Y914828D02*
X1183091Y916181D01*
X1183138*
X1181639Y911528D02*
X1183138Y913028D01*
Y913031*
X1186287Y900433D02*
X1189437D01*
X1194161Y905157*
X1186287Y897283D02*
Y900433D01*
X1225658Y908307D02*
X1224083Y909882D01*
X1225658Y905157D02*
X1224083Y906732D01*
X1225657Y895709D02*
X1224083Y897283D01*
X1225657Y898858D02*
X1224083Y900433D01*
X1214634Y913031D02*
X1216209D01*
Y916181*
X1214634*
Y909882D02*
X1216209D01*
Y913031*
X1214634*
X1319938Y910934D02*
X1319941Y910937D01*
X1330323*
X1336031Y897354D02*
X1335858D01*
Y902390*
X1357685Y897354D02*
Y901611D01*
X1357763Y901690*
X1364634Y890004D02*
Y897690D01*
X1364563*
X1091799Y927205D02*
Y927390D01*
X1085981*
X1091799Y951220D02*
X1091630Y951390D01*
X1085981*
X1140618Y927205D02*
X1131370D01*
X1131594Y927430*
Y934291*
X1181563Y917756D02*
X1183138Y919331D01*
X1224083Y935079D02*
X1225657Y936654D01*
X1224083Y931929D02*
X1225657Y933504D01*
X1214634Y925630D02*
X1216209Y927205D01*
X1214634Y922480D02*
X1216209Y924055D01*
X1214634Y916181D02*
X1216209D01*
Y919331*
X1214634*
X1211484Y925630D02*
X1213059Y927205D01*
X1268177Y939803D02*
X1267977Y940004D01*
Y945315*
X1266674*
Y952402*
X1266965*
X1308189Y942728D02*
X1312047D01*
X1312272Y942953*
X1311858Y919390D02*
Y922054D01*
X1311938Y922134*
X1311858Y919390D02*
X1305108D01*
X1338256Y926417D02*
X1338000Y926673D01*
Y930425*
X1347705Y926417D02*
X1347843Y926555D01*
Y930425*
X1315938Y939334D02*
X1315994Y939390D01*
X1320508*
X1346858Y942690D02*
X1345058D01*
X1343858Y943890*
X1321138Y920534D02*
X1321147Y920543D01*
X1324870*
X1343858Y943890D02*
X1338858D01*
X1376083Y921299D02*
X1376000D01*
Y926000*
X1376083Y921299D02*
X1376000D01*
X1085981Y959390D02*
X1091701D01*
X1091799Y959488*
Y1021299D02*
X1091709Y1021390D01*
X1085981*
X1091799Y997283D02*
X1091693Y997390D01*
X1085981*
X1134058Y1008290D02*
X1128606D01*
Y1008406*
X1205972Y1004370D02*
X1206356Y1004754D01*
Y1008990*
X1218358Y1017390D02*
X1218571Y1017602D01*
Y1021655*
X1194858Y1016890D02*
X1194949Y1016980D01*
Y1021661*
X1266156Y1012595D02*
Y1017600D01*
X1266000*
G54D192*
X1166602Y905157D02*
X1178413D01*
G54D193*
X1177626Y854370D03*
G54D194*
X565117Y309990D02*
X1843517D01*
Y1459490*
X565117*
Y309990*
X1123517D02*
X1843517D01*
Y504990*
X1123517*
Y309990*
X1408517Y449990D02*
X1843517D01*
Y309990*
X1408517*
Y449990*
Y339990D02*
X1843517D01*
Y309990*
X1408517*
Y339990*
X1568517*
Y309990*
X1408517*
Y339990*
Y449990D02*
X1843517D01*
Y504990*
X1408517*
Y449990*
Y379990D02*
X1843517D01*
Y449990*
X1408517*
Y379990*
X1708517Y339990D02*
X1843517D01*
Y379990*
X1708517*
Y339990*
X1123517D02*
X1283517D01*
Y309990*
X1123517*
Y339990*
X1283517Y309990D02*
X1408517D01*
Y339990*
X1283517*
Y309990*
G54D199*
X1130855Y855851D02*
Y861851D01*
X1137855Y861501D02*
X1137505Y861851D01*
X1143855*
X1147578*
X1149227Y863500*
Y875000*
X1152727Y878500*
X1174500*
X1143855Y861851D02*
X1130855D01*
X1174500Y878500D02*
X1176629Y876371D01*
X1179548*
X1181563Y878386*
Y883110*
X1183138Y884685*
Y887835*
G54D201*
X1224083Y922480D02*
X1225657Y924055D01*
X1224083Y919331D02*
X1225657Y920906D01*
G54D245*
X1342108Y819390D03*
G54D246*
X1331858D03*
G54D247*
X1342858Y820140D02*
Y830640D01*
X1331858Y811390D02*
Y819390D01*
X1335358Y830390D02*
X1342608D01*
X1342108Y819390D02*
X1365358D01*
X1372163Y826195*
Y834090*
X1379358Y819390D02*
X1379363Y819395D01*
Y825190*
X1372163Y834090D02*
X1379263D01*
X1304958Y863390D02*
Y870890D01*
X1305358*
X1313958Y863390D02*
Y864005D01*
X1304958*
Y870890*
X1305358*
X1310858Y843740D02*
X1303358D01*
X1331108Y852890D02*
Y859890D01*
X1327608Y863390*
X1317958*
X1321358Y842890D02*
Y843740D01*
X1310858*
X1008858Y1013189D02*
X1017461D01*
X1018642Y1014370*
X1022881*
Y1014567*
X0Y0D02*
M02*
