%
T1C.008F0S0
X098951Y089006
X098951Y089439
X098951Y089872
X099731Y090634
X098646Y091789
X099896Y09192
X100085Y092051
X097927Y092077
X099337Y092248
X099928Y092406
X099731Y092563
X097927Y092589
X099928Y092681
X09903Y092943
X097959Y093075
X1004Y093232
X098951Y093534
X100408Y093731
X099148Y093731
X1004Y094217
X097999Y094531
X099148Y094715
X100408Y094754
X097999Y094965
X099486Y095109
X100125Y095201
X099731Y095201
X098707Y095358
X098983Y095437
X098944Y095831
X099613Y096343
X099928Y096343
X100322Y096382
X098235Y097012
X100329Y100384
X100329Y100699
X100329Y101014
X100886Y099728
X10236Y09964
X102054Y098705
X102848Y098691
X100597Y097681
X102684Y097642
X100715Y097327
X1017Y097287
X101267Y096382
X102258Y096329
X101471Y096329
X102605Y095752
X100519Y095319
X101195Y095266
X101431Y095187
X102534Y095109
X101385Y094728
X101385Y094256
X102487Y094256
X101385Y093744
X102566Y093547
X102487Y092878
X102526Y092642
X102573Y092353
X102179Y092274
X101778Y092248
X101077Y091959
X100715Y091894
X102093Y090949
X100952Y090752
X101077Y089715
X10214Y089715
X10214Y089439
X10107Y088941
X102179Y088927
X101463Y088665
X101037Y088416
X102234Y085053
X102434Y084373
X101674Y084293
X102034Y084133
X101474Y083933
X101874Y083933
X102602Y083693
X102194Y082213
X101834Y082173
X102678Y081769
X102314Y081653
X101514Y081653
X102758Y080609
X101918Y080609
X10132Y08008
X10204Y08008
X10068Y08008
X101Y08008
X10164Y08008
X101156Y07988
X101471Y07988
X100841Y07988
X1018Y07984
X102573Y079431
X1054Y07936
X104305Y07936
X10496Y07936
X10396Y07936
X10464Y07936
X10368Y07936
X103518Y07956
X10412Y0796
X10448Y0796
X1048Y0796
X105358Y079609
X1032Y07964
X10464Y08012
X105038Y080209
X104518Y080609
X103638Y080609
X104114Y081653
X103234Y081653
X105026Y081659
X104358Y081729
X104758Y081929
X105286Y082129
X103434Y082173
X104634Y082173
X103034Y082173
X105034Y082173
X103794Y082853
X104318Y082889
X105394Y082933
X104652Y083146
X103794Y083213
X103034Y083213
X103434Y083933
X105034Y083933
X104358Y084049
X103794Y084693
X104234Y085413
X105074Y085453
X104558Y086609
X103074Y086693
X104918Y086729
X103471Y088665
X104108Y089951
X104935Y091605
X104581Y092156
X103478Y092156
X105085Y092169
X103446Y092549
X103865Y093154
X10355Y093547
X103865Y093547
X103865Y094138
X103589Y094256
X103865Y094531
X104141Y094886
X105085Y095043
X104416Y095752
X103983Y096421
X105243Y096933
X104574Y097012
X104652Y097681
X103117Y097681
X103196Y097996
X104731Y098035
X104778Y098416
X105282Y099256
X103393Y099965
X105408Y100266
X103786Y101146
X105361Y101421
X104495Y1015
X105264Y102573
X107015Y102602
X106818Y102602
X105998Y102156
X105984Y100653
X106975Y100319
X106778Y100319
X10544Y099768
X105998Y099754
X105998Y098258
X105998Y097431
X105998Y095935
X105998Y095148
X105998Y093652
X105991Y09272
X105991Y091224
X107518Y086849
X107198Y086289
X106918Y085969
X107758Y085889
X106558Y085729
X106358Y085569
X105598Y084489
X106714Y083933
X107747Y083929
X106358Y083929
X107118Y083929
X105838Y083729
X106038Y083529
X107398Y082409
X105726Y082249
X106714Y082173
X106358Y082169
X105918Y081889
X107754Y081653
X106834Y081653
X10724Y08068
X106318Y080609
X105438Y080609
X106838Y080209
X105918Y08016
X107718Y080049
X106674Y079733
X106998Y079729
X10604Y07968
X10568Y0796
X10773Y07952
X106242Y079479
X105874Y07944
X106825Y07936
X10744Y07936
X108086Y07932
X10904Y0794
X108715Y0794
X1084Y0794
X108872Y079589
X108558Y079602
X108243Y079602
X108Y07968
X1092Y0806
X108118Y080609
X10956Y08072
X107958Y082089
X109438Y082129
X110198Y082129
X108314Y082173
X109834Y082173
X108714Y082853
X109438Y083169
X109834Y083893
X108718Y083929
X110198Y083929
X108314Y083933
X109027Y084049
X109387Y084209
X109227Y084409
X107947Y084659
X108629Y084689
X108242Y084943
X109627Y085129
X108278Y085329
X109747Y085729
X108198Y085769
X110078Y086009
X109638Y086049
X109337Y086185
X108638Y087129
X107947Y087219
X109846Y087689
X109046Y087809
X108834Y088249
X108634Y089053
X10918Y091264
X10918Y09272
X10918Y093626
X10918Y095122
X10918Y095949
X10966Y096929
X10918Y097445
X10918Y098232
X110046Y099413
X10918Y099728
X110046Y099965
X108393Y100319
X108629Y100319
X10918Y100634
X10918Y10213
X108629Y102524
X108393Y102524
X112246Y101229
X112766Y101229
X111778Y100594
X111385Y099965
X11229Y099925
X111857Y099557
X111385Y099492
X112326Y099309
X112015Y099046
X112418Y098793
X112408Y098547
X11118Y098529
X112438Y093449
X112438Y093169
X111936Y092248
X110919Y092234
X112874Y091853
X110597Y091739
X112674Y091213
X112638Y090933
X112114Y090413
X110874Y090293
X112354Y090209
X112518Y090013
X112398Y089289
X112718Y089289
X111878Y089289
X110718Y088569
X110478Y087929
X11142Y087249
X11046Y087249
X112798Y087089
X112798Y086569
X111148Y086185
X111857Y086185
X112478Y085849
X112678Y085689
X110758Y085089
X112307Y085089
X111438Y084849
X11044Y084689
X111148Y084689
X111857Y084689
X111067Y083729
X112172Y083587
X111758Y083489
X110598Y082529
X111385Y081854
X112172Y081854
X112172Y080122
X110918Y079809
X112322Y079639
X111392Y079602
X111707Y079602
X112652Y079602
X111082Y079599
X112042Y079359
X112492Y079359
X111242Y079359
X112812Y079359
X115332Y079359
X114699Y079359
X114384Y079359
X114069Y079359
X113758Y079359
X113438Y079359
X113118Y079359
X114226Y079589
X114541Y079589
X112967Y079602
X113282Y079602
X113912Y079602
X113597Y079602
X114922Y079609
X115122Y079919
X1145Y0811
X115387Y081769
X113052Y082409
X11445Y08295
X1147Y0835
X11495Y08385
X1154Y08385
X114252Y084489
X115Y08455
X11505Y0853
X113772Y085489
X113492Y085569
X1154Y086
X114394Y086933
X113983Y08776
X113826Y088547
X114062Y088941
X114062Y089886
X113198Y090089
X113438Y090089
X113278Y090453
X114062Y090988
X114062Y091776
X114062Y09272
X113834Y092973
X114484Y093683
X113958Y095249
X1153Y097089
X114456Y097327
X115118Y098289
X113432Y099295
X113446Y100069
X113629Y100319
X113983Y100594
X114692Y100752
X113406Y100829
X115164Y101303
X114928Y102248
X11792Y102248
X115952Y102169
X116896Y102169
X117605Y101303
X116975Y101224
X115952Y101224
X115586Y100739
X115637Y100437
X116424Y100122
X117369Y100122
X115558Y100004
X11729Y099807
X11644Y0998
X117684Y099728
X116581Y099335
X115952Y099059
X116581Y09902
X117198Y097569
X1167Y09461
X117841Y09461
X117526Y09461
X115991Y094571
X117841Y094295
X117526Y094295
X117841Y09398
X117526Y09398
X11666Y093744
X117841Y093665
X117526Y093665
X117841Y09335
X117841Y093035
X115684Y092773
X117841Y09272
X117841Y092406
X115638Y091889
X115638Y090929
X115637Y089886
X117526Y089571
X117841Y089571
X117841Y089256
X117526Y088941
X117054Y088941
X115637Y088941
X117841Y088626
X117526Y088626
X117841Y087839
X1164Y086
X1159Y086
X1169Y086
X11775Y0858
X11725Y08455
X11735Y08405
X1159Y08385
X11635Y08385
X1169Y08385
X11725Y0835
X117684Y082969
X11695Y08295
X117526Y082809
X116471Y08266
X117841Y082609
X1164Y08235
X11675Y082
X116392Y08199
X1171Y0819
X117736Y081689
X116198Y081609
X115627Y081489
X1173Y0814
X116904Y0814
X115878Y081369
X116067Y081089
X117062Y079746
X11662Y079679
X117534Y079599
X117848Y079599
X11642Y079519
X11678Y079479
X11718Y079399
X115644Y079359
X119606Y079389
X119108Y079599
X118793Y079599
X118478Y079599
X118163Y079599
X11938Y079719
X120038Y080969
X119576Y081609
X118216Y081769
X117936Y081849
X118296Y083049
X118016Y083129
X118976Y083969
X118776Y084129
X120296Y084329
X118816Y084409
X118439Y084431
X119496Y084569
X118467Y084746
X119736Y084849
X119176Y084929
X120212Y084929
X118147Y084943
X118307Y086649
X120187Y086649
X119627Y087169
X118318Y088129
X120198Y088129
X120046Y088626
X119101Y089256
X119416Y089256
X119731Y089256
X118786Y089256
X120046Y089571
X119416Y089571
X119101Y089571
X120361Y089571
X119731Y089571
X118471Y089571
X118786Y089571
X120046Y090122
X118471Y090201
X118156Y090201
X118156Y090516
X119416Y090516
X120046Y090516
X119731Y090516
X118471Y090516
X120046Y090831
X118471Y090831
X119416Y090831
X118156Y090831
X119731Y090831
X118471Y091146
X119731Y091146
X119416Y091146
X120046Y091146
X118164Y091153
X118471Y091461
X119416Y091461
X118174Y091483
X118156Y091776
X118471Y091776
X120046Y091776
X119731Y091776
X119416Y091776
X118471Y092091
X120046Y092091
X119731Y092091
X120046Y092406
X119731Y092406
X118471Y092406
X119416Y092406
X118156Y092406
X119731Y09272
X118471Y09272
X119416Y09272
X118156Y09272
X120074Y092773
X118471Y093035
X118156Y093035
X118471Y09335
X118156Y09335
X119731Y093665
X120361Y093665
X119416Y093665
X118786Y093665
X118156Y093665
X118471Y093665
X120046Y093665
X120046Y09398
X118156Y09398
X118471Y09398
X120361Y09398
X119101Y09398
X119731Y09398
X118786Y09398
X118471Y094295
X118156Y094295
X120361Y094295
X119731Y094295
X119101Y094295
X118786Y094295
X118471Y09461
X119101Y09461
X118156Y09461
X118806Y096029
X119416Y098705
X119259Y099177
X119259Y099965
X120204Y10028
X118884Y100993
X119486Y101689
X121836Y101739
X120597Y100437
X120597Y099492
X121006Y099449
X122438Y098689
X122158Y098689
X121857Y098626
X122723Y098547
X120991Y098547
X121385Y098469
X122881Y098232
X121936Y098232
X120678Y098209
X121278Y098049
X122881Y096657
X121936Y096657
X122251Y094295
X120991Y094295
X122881Y094295
X121936Y094295
X121306Y094295
X120676Y094295
X121621Y094295
X120676Y09398
X121936Y09398
X122566Y09398
X122251Y09398
X121621Y09398
X122881Y09398
X120991Y09398
X121306Y09398
X121306Y093665
X121621Y093665
X121936Y093665
X122881Y093665
X120991Y093665
X122251Y093665
X120676Y093665
X122566Y093665
X121306Y09335
X122881Y09335
X122566Y09335
X122566Y093035
X122881Y093035
X120519Y092957
X121306Y09272
X122881Y09272
X121621Y09272
X122566Y09272
X120991Y09272
X120676Y09272
X121621Y092406
X120991Y092406
X120676Y092406
X121306Y092406
X122566Y092406
X122881Y092406
X120676Y092091
X122566Y092091
X120991Y092091
X121306Y092091
X122881Y092091
X121306Y091776
X120676Y091776
X120991Y091776
X122881Y091461
X122566Y091461
X120991Y091146
X120676Y091146
X121306Y091146
X122881Y091146
X122566Y091146
X121778Y090988
X120991Y090831
X121306Y090831
X120676Y090831
X122566Y090831
X122881Y090831
X122566Y090516
X122881Y090516
X121621Y090516
X121148Y090358
X122881Y090201
X122566Y090201
X122566Y089886
X122881Y089886
X122566Y089571
X120991Y089571
X121306Y089571
X121621Y089571
X121936Y089571
X122251Y089571
X122881Y089571
X122251Y089256
X121936Y089256
X122566Y089256
X122881Y089256
X122251Y088941
X122881Y088941
X121936Y088941
X122566Y088941
X121148Y088129
X121852Y088014
X122696Y087889
X121147Y086649
X121092Y084929
X120696Y084889
X12208Y08488
X120656Y084569
X121616Y084529
X121616Y083809
X121274Y0814
X120722Y081006
X12055Y08045
X123176Y086889
X123776Y086889
X122936Y087249
X124366Y087529
X123346Y087849
X12428Y08812
X125175Y08822
X123511Y088626
X123196Y088626
X123196Y088941
X123511Y088941
X124594Y092093
X12514Y092248
X12492Y092563
X124594Y092573
X12396Y09288
X12412Y0932
X124456Y093823
X124219Y09398
X1254Y094138
X123196Y094295
X123511Y094295
X123511Y09461
X123196Y09461
X123826Y096657
X123826Y098232
X125007Y099965
X125286Y10073
X124406Y101189
X123286Y102149
X127605Y102169
X126975Y101854
X1266Y10176
X12792Y101697
X127448Y100752
X126188Y100594
X125736Y10058
X12603Y099965
X12612Y09956
X12548Y09916
X12584Y09892
X125637Y098705
X126424Y098469
X126264Y098075
X127326Y097029
X126166Y097029
X127376Y095258
X127455Y094116
X12654Y094089
X126818Y09398
X126188Y09398
X125637Y09335
X127605Y09335
X125637Y093035
X126896Y092799
X127448Y092639
X126424Y092248
X127054Y092091
X126016Y091929
X127496Y091729
X127546Y091304
X12729Y091303
X125637Y091303
X126678Y090369
X126838Y090209
X126998Y090049
X12792Y089728
X126936Y088569
X126696Y088049
X127656Y088009
X125776Y087969
X125456Y087969
X127016Y087729
X127776Y087729
X126576Y087369
X127416Y087289
X125816Y087249
X126976Y087169
X127896Y087089
X127416Y086929
X126958Y086889
X12616Y085
X129608Y079589
X128978Y079589
X129293Y079589
X130237Y079589
X129922Y079589
X129765Y079746
X12882Y079746
X13008Y079746
X12945Y079746
X129135Y079746
X130395Y079746
X129136Y081809
X128016Y085009
X128656Y086889
X128376Y087249
X130036Y088839
X128107Y088929
X128256Y089649
X128296Y089889
X12855Y090122
X128376Y090289
X128776Y090449
X129928Y090594
X128776Y090689
X129216Y090849
X128296Y090969
X129976Y091089
X128776Y091089
X128816Y091329
X12826Y091409
X129376Y091449
X128896Y091729
X128176Y091929
X12882Y092169
X12866Y092409
X12874Y093009
X12915Y09345
X129974Y093683
X128235Y093823
X130125Y09461
X129889Y094689
X129259Y094846
X128798Y094929
X129731Y095013
X128398Y095169
X128878Y095209
X129574Y095398
X130282Y095555
X12798Y095689
X128393Y099965
X128393Y101697
X128006Y102309
X132236Y10163
X130874Y095733
X130554Y095333
X1315Y0953
X132874Y094373
X131227Y094295
X131594Y093933
X130998Y093841
X132394Y093653
X131594Y093173
X131966Y092749
X132206Y092589
X131566Y092269
X131194Y092213
X132114Y092053
X132034Y091653
X131486Y091489
X131994Y091093
X132046Y090629
X131486Y090339
X132206Y090309
X131586Y090089
X131386Y089889
X131936Y089839
X130836Y089339
X131586Y089289
X132198Y089169
X131236Y089039
X131976Y088689
X131186Y088639
X132612Y087929
X131886Y087039
X131536Y083539
X130686Y082339
X1326Y079859
X132285Y079859
X132915Y079859
X13134Y079859
X131655Y079859
X13197Y079859
X13071Y079746
X130867Y079589
X130552Y079589
X132128Y079544
X132443Y079544
X132758Y079544
X131813Y079544
X131498Y079544
X13103Y07939
X133388Y079544
X133073Y079544
X134018Y079544
X135277Y079544
X134962Y079544
X134332Y079559
X133702Y079559
X13386Y079859
X134175Y079859
X133545Y079859
X134805Y079859
X13512Y079859
X13323Y080599
X134487Y080679
X133186Y081139
X133536Y083739
X133836Y083789
X133736Y084289
X133836Y084739
X13475Y08565
X13455Y0858
X135Y08585
X135264Y08605
X13435Y08615
X13375Y0862
X134Y08625
X13295Y08715
X134176Y087689
X134636Y087839
X13515Y08785
X1349Y08785
X1344Y08785
X133016Y087889
X13332Y08789
X13385Y0879
X1336Y0879
X13535Y08895
X1346Y08895
X1335Y0893
X133586Y090239
X133438Y090689
X134186Y090889
X134686Y090889
X135186Y090889
X133936Y090889
X133438Y090929
X135186Y091389
X134186Y091389
X134686Y091389
X133806Y091629
X135186Y091889
X134186Y091889
X133471Y091894
X134486Y091909
X133471Y092209
X133471Y092445
X135366Y092589
X13477Y092642
X133826Y092642
X133353Y093035
X135178Y093455
X134613Y093508
X13498Y09361
X133393Y093665
X134686Y094269
X134566Y097149
X135046Y097149
X135046Y098269
X134566Y098269
X1339Y10175
X13684Y10192
X1355Y1012
X13741Y09526
X13741Y09416
X1374Y09377
X135558Y093469
X13772Y09303
X135755Y092642
X1376Y0926
X137211Y092484
X137923Y091264
X135486Y090889
X135486Y090189
X135776Y090169
X136456Y089769
X136856Y089409
X1369Y08895
X1361Y08895
X137376Y088849
X1369Y08835
X137136Y088089
X1365Y08785
X13605Y08785
X13575Y08785
X1355Y08785
X137496Y087769
X137696Y087529
X13715Y0871
X136846Y084829
X136166Y082549
X13638Y079859
X13575Y079859
X136065Y079859
X135435Y079859
X137636Y079589
X136537Y079544
X136222Y079544
X135592Y079544
X135907Y079544
X137936Y079589
X137936Y081939
X138046Y084949
X138046Y086429
X137954Y089533
X137954Y089973
X137954Y090413
X137936Y090831
X137954Y091693
T2C.01F095S3
X117763Y085437
T3C.01181F095S3
X132536Y083131
X132536Y083446
X137296Y084446
X137296Y084131
T4C.02F197S55
X106304Y100173
X109104Y100173
X109024Y102573
X106304Y102573
X115085Y088154
X113085Y087985
X113085Y085585
X130496Y086339
X123696Y087529
X122096Y087529
X137216Y083409
T5C.035F197S55
X134982Y09553
X133982Y09553
X132982Y09553
X133482Y09653
X134482Y09653
X135482Y09653
X136482Y09653
X135982Y09553
T6C.036F197S55
X1Y1
X1Y101378
T7C.04F139S55
X132242Y10036
X133242Y10096
X137222Y10096
X136222Y10036
T8C.042F139S55
X122636Y084614
X122636Y085402
X122636Y086189
X123636Y086189
X124636Y086189
X125636Y086189
X126636Y086189
X127636Y086189
X125636Y085402
X123636Y085402
X126636Y085402
X124636Y085402
X127636Y085402
X124636Y084614
X126636Y084614
X125636Y084614
X123636Y084614
X127636Y084614
T9C.063F089S55
X131632Y09783
X137832Y09783
T10C.126F035S794
X132482Y09903
X136982Y09903
M30
