*
*
G04 PADS9.1 Build Number: 384028 generated Gerber (RS-274-X) file*
G04 PC Version=2.1*
*
%IN "{TEX086}_F28M36x_contro"*%
*
%MOIN*%
*
%FSLAX35Y35*%
*
*
*
*
G04 PC Standard Apertures*
*
*
G04 Thermal Relief Aperture macro.*
%AMTER*
1,1,$1,0,0*
1,0,$1-$2,0,0*
21,0,$3,$4,0,0,45*
21,0,$3,$4,0,0,135*
%
*
*
G04 Annular Aperture macro.*
%AMANN*
1,1,$1,0,0*
1,0,$2,0,0*
%
*
*
G04 Odd Aperture macro.*
%AMODD*
1,1,$1,0,0*
1,0,$1-0.005,0,0*
%
*
*
G04 PC Custom Aperture Macros*
*
*
*
*
*
*
G04 PC Aperture Table*
*
%ADD087R,0.039X0.027*%
%ADD092R,0.025X0.025*%
%ADD093R,0.043X0.039*%
%ADD094R,0.051X0.059*%
%ADD095R,0.039X0.043*%
%ADD096R,0.063X0.071*%
%ADD099R,0.059X0.051*%
%ADD120R,0.065X0.026*%
%ADD158C,0*%
%ADD168R,0.05X0.063*%
%ADD188C,0.01*%
%ADD194C,0.008*%
%ADD195R,0.154X0.063*%
%ADD196R,0.07874X0.07874*%
%ADD198R,0.045X0.125*%
*
*
*
*
G04 PC Circuitry*
G04 Layer Name {TEX086}_F28M36x_contro - circuitry*
%LPD*%
*
*
G04 PC Custom Flashes*
G04 Layer Name {TEX086}_F28M36x_contro - flashes*
%LPD*%
*
*
G04 PC Circuitry*
G04 Layer Name {TEX086}_F28M36x_contro - circuitry*
%LPD*%
*
G54D87*
G01X1169456Y1007630D03*
Y1003890D03*
Y1000150D03*
X1159256D03*
Y1007630D03*
G54D92*
X1204760Y903583D03*
X1208760D03*
X1209484Y930354D03*
X1213484D03*
X1220933Y901581D03*
Y905581D03*
Y920481D03*
Y924481D03*
X1221358Y930356D03*
X1217358D03*
X1220933Y911031D03*
Y915031D03*
X1243408Y920906D03*
X1239408D03*
X1243408Y925631D03*
X1239408D03*
X1206398Y999646D03*
X1202398D03*
X1098098Y828276D03*
Y832276D03*
X991477Y940030D03*
Y944030D03*
X986658Y930890D03*
X982658D03*
X986658Y920890D03*
X982658D03*
X983531Y949677D03*
Y945677D03*
X982658Y925890D03*
X986658D03*
X1009658Y911390D03*
Y915390D03*
X1032776Y935472D03*
X1028776D03*
X1008728Y1000008D03*
Y1004008D03*
X996106Y960317D03*
Y956317D03*
X1011856Y960317D03*
Y956317D03*
X1028756Y942567D03*
X1032756D03*
X998981Y915390D03*
Y911390D03*
X1042158Y931390D03*
Y935390D03*
Y941390D03*
Y945390D03*
X1021658Y925890D03*
X1017658D03*
X1011658D03*
X1007658D03*
X1035468Y979961D03*
X1039468D03*
X1037481Y948867D03*
X1033481D03*
X1002406Y960317D03*
Y956317D03*
X1017823Y951872D03*
X1021823D03*
X1042296Y921557D03*
X1038296D03*
X1040981Y1011390D03*
X1044981D03*
X1050461Y828276D03*
Y832276D03*
X1339037Y919728D03*
Y923728D03*
X1347705Y919693D03*
Y923693D03*
X1327437Y937328D03*
X1331437D03*
X1339358Y906890D03*
Y902890D03*
X1357763Y908890D03*
Y904890D03*
X1355000Y1008000D03*
Y1004000D03*
X1339000Y1014000D03*
Y1010000D03*
X1318000Y953000D03*
Y949000D03*
X1154000Y853000D03*
Y857000D03*
X1159000Y853000D03*
Y857000D03*
X1164000Y853000D03*
Y857000D03*
X1169000Y853000D03*
Y857000D03*
X1154000Y841500D03*
Y845500D03*
X1159000Y841500D03*
Y845500D03*
X1164000Y841500D03*
Y845500D03*
X1169000Y841500D03*
Y845500D03*
X1372358Y1019295D03*
Y1015295D03*
X1322358Y1013295D03*
Y1009295D03*
X1324778Y891690D03*
X1328778D03*
X1324778Y925690D03*
X1328778D03*
X1374058Y944690D03*
Y948690D03*
X1374000Y934300D03*
Y930300D03*
X1314634Y907094D03*
Y911094D03*
X1059981Y1011890D03*
Y1015890D03*
X1091981Y1011890D03*
Y1015890D03*
X1059981Y987890D03*
Y991890D03*
X1091981Y987890D03*
Y991890D03*
X1059981Y917890D03*
Y921890D03*
X1091981Y917890D03*
Y921890D03*
X1059981Y941890D03*
Y945890D03*
X1091981Y941890D03*
Y945890D03*
X1059981Y968890D03*
Y964890D03*
X1091981Y968890D03*
Y964890D03*
X1127606Y1004890D03*
Y1008890D03*
X1122606Y1004890D03*
Y1008890D03*
X1283531Y1007945D03*
Y1003945D03*
X1252858Y999295D03*
Y1003295D03*
X1257358Y999295D03*
Y1003295D03*
X1272146Y1022087D03*
X1268146D03*
X1350481Y979218D03*
Y975218D03*
X1345756Y979218D03*
Y975218D03*
X1126858Y999390D03*
X1130858D03*
X1126858Y994390D03*
X1130858D03*
X1106858Y999390D03*
X1110858D03*
X1106858Y994390D03*
X1110858D03*
G54D93*
X1160508Y918795D03*
X1167208D03*
X1160508Y909295D03*
X1167208D03*
X1160508Y899295D03*
X1167208D03*
X1199208Y931295D03*
X1192508D03*
X1252629Y933504D03*
X1245929D03*
X1160089Y942328D03*
X1166789D03*
X1160508Y889295D03*
X1167208D03*
X1160508Y927795D03*
X1167208D03*
X1252629Y913031D03*
X1245929D03*
X1045095Y916146D03*
X1038395D03*
X1327208Y931890D03*
X1320508D03*
X1365350Y948800D03*
X1358650D03*
X1365350Y941900D03*
X1358650D03*
X1368250Y934700D03*
X1361550D03*
X1368250Y926500D03*
X1361550D03*
G54D94*
X1152428Y899118D03*
X1144928D03*
X1268778Y933504D03*
X1261278D03*
X1152428Y909118D03*
X1144928D03*
X1152428Y918796D03*
X1144928D03*
X1144889Y942228D03*
X1152389D03*
X1144928Y889118D03*
X1152428D03*
X1145108Y928295D03*
X1152608D03*
X1268778Y913031D03*
X1261278D03*
G54D95*
X1189433Y900231D03*
Y906931D03*
Y915981D03*
Y922681D03*
X1219358Y962051D03*
Y955351D03*
X1228807Y962051D03*
Y955351D03*
X1202035Y870311D03*
Y877011D03*
X1015256Y805940D03*
Y812640D03*
X1032260Y805937D03*
Y812637D03*
X1041160Y805937D03*
Y812637D03*
X1023260Y805937D03*
Y812637D03*
X1050256Y805940D03*
Y812640D03*
X1068248Y805924D03*
Y812624D03*
X1077304Y805924D03*
Y812624D03*
X1059193Y805924D03*
Y812624D03*
X1183138Y870311D03*
Y877011D03*
X1192587Y870311D03*
Y877011D03*
X1211484Y870311D03*
Y877011D03*
X1238256Y962051D03*
Y955351D03*
X1114256Y812624D03*
Y805924D03*
X1122256Y812624D03*
Y805924D03*
X1244058Y1006440D03*
Y999740D03*
X1365000Y866650D03*
Y873350D03*
Y882650D03*
Y889350D03*
X1357500Y866650D03*
Y873350D03*
Y882650D03*
Y889350D03*
X1350000Y866650D03*
Y873350D03*
Y882650D03*
Y889350D03*
X1342500Y866650D03*
Y873350D03*
Y882650D03*
Y889350D03*
X1335000Y866650D03*
Y873350D03*
Y882650D03*
Y889350D03*
G54D96*
X1182856Y980890D03*
X1171856D03*
X1182856Y991890D03*
X1171856D03*
G54D99*
X1178356Y1001140D03*
Y1008640D03*
X1219358Y978199D03*
Y970699D03*
X1228807Y978199D03*
Y970699D03*
X1202035Y854163D03*
Y861663D03*
X1183138Y854163D03*
Y861663D03*
X1192587Y854163D03*
Y861663D03*
X1211484Y854163D03*
Y861663D03*
X1238256Y978199D03*
Y970699D03*
G54D120*
X1018917Y947390D03*
Y942390D03*
Y937390D03*
Y932390D03*
X998917D03*
Y937390D03*
Y942390D03*
Y947390D03*
G54D158*
G54D168*
X1031151Y957334D03*
Y971900D03*
X1039811D03*
X1039812Y957334D03*
G54D188*
X1451097Y330974D02*
Y321130D01*
X1455188*
X1460983Y330974D02*
X1458256Y321130D01*
X1460983Y330974D02*
X1463710Y321130D01*
X1459278Y324412D02*
X1462688D01*
X1466778Y330974D02*
X1469506Y326287D01*
Y321130*
X1472233Y330974D02*
X1469506Y326287D01*
X1475301Y330974D02*
Y321130D01*
Y330974D02*
X1479733D01*
X1475301Y326287D02*
X1478028D01*
X1475301Y321130D02*
X1479733D01*
X1482801Y330974D02*
Y321130D01*
Y330974D02*
X1485869D01*
X1486892Y330505*
X1487233Y330037*
X1487574Y329099*
Y328162*
X1487233Y327224*
X1486892Y326755*
X1485869Y326287*
X1482801*
X1485188D02*
X1487574Y321130D01*
X1418244Y501834D02*
X1415517Y491990D01*
X1418244Y501834D02*
X1420972Y491990D01*
X1416540Y495271D02*
X1419949D01*
X1424040Y498552D02*
Y491990D01*
Y495740D02*
X1424381Y497146D01*
X1425063Y498084*
X1425744Y498552*
X1426767*
X1430858Y501834D02*
Y493865D01*
X1431199Y492459*
X1431881Y491990*
X1432563*
X1429835Y498552D02*
X1432222D01*
X1435631D02*
X1436994Y491990D01*
X1438358Y498552D02*
X1436994Y491990D01*
X1438358Y498552D02*
X1439722Y491990D01*
X1441085Y498552D02*
X1439722Y491990D01*
X1445858Y498552D02*
X1445176Y498084D01*
X1444494Y497146*
X1444153Y495740*
Y494802*
X1444494Y493396*
X1445176Y492459*
X1445858Y491990*
X1446881*
X1447563Y492459*
X1448244Y493396*
X1448585Y494802*
Y495740*
X1448244Y497146*
X1447563Y498084*
X1446881Y498552*
X1445858*
X1451653D02*
Y491990D01*
Y495740D02*
X1451994Y497146D01*
X1452676Y498084*
X1453358Y498552*
X1454381*
X1457449Y501834D02*
Y491990D01*
X1460858Y498552D02*
X1457449Y493865D01*
X1458813Y495740D02*
X1461199Y491990D01*
X1472108Y501834D02*
Y491990D01*
Y501834D02*
X1474494D01*
X1475517Y501365*
X1476199Y500427*
X1476540Y499490*
X1476881Y498084*
Y495740*
X1476540Y494334*
X1476199Y493396*
X1475517Y492459*
X1474494Y491990*
X1472108*
X1479949Y495740D02*
X1484040D01*
Y496677*
X1483699Y497615*
X1483358Y498084*
X1482676Y498552*
X1481653*
X1480972Y498084*
X1480290Y497146*
X1479949Y495740*
Y494802*
X1480290Y493396*
X1480972Y492459*
X1481653Y491990*
X1482676*
X1483358Y492459*
X1484040Y493396*
X1490858Y497146D02*
X1490517Y498084D01*
X1489494Y498552*
X1488472*
X1487449Y498084*
X1487108Y497146*
X1487449Y496209*
X1488131Y495740*
X1489835Y495271*
X1490517Y494802*
X1490858Y493865*
Y493396*
X1490517Y492459*
X1489494Y491990*
X1488472*
X1487449Y492459*
X1487108Y493396*
X1493926Y501834D02*
X1494267Y501365D01*
X1494608Y501834*
X1494267Y502302*
X1493926Y501834*
X1494267Y498552D02*
Y491990D01*
X1501767Y498552D02*
Y491052D01*
X1501426Y489646*
X1501085Y489177*
X1500403Y488709*
X1499381*
X1498699Y489177*
X1501767Y497146D02*
X1501085Y498084D01*
X1500403Y498552*
X1499381*
X1498699Y498084*
X1498017Y497146*
X1497676Y495740*
Y494802*
X1498017Y493396*
X1498699Y492459*
X1499381Y491990*
X1500403*
X1501085Y492459*
X1501767Y493396*
X1504835Y498552D02*
Y491990D01*
Y496677D02*
X1505858Y498084D01*
X1506540Y498552*
X1507563*
X1508244Y498084*
X1508585Y496677*
Y491990*
X1511653Y495740D02*
X1515744D01*
Y496677*
X1515403Y497615*
X1515063Y498084*
X1514381Y498552*
X1513358*
X1512676Y498084*
X1511994Y497146*
X1511653Y495740*
Y494802*
X1511994Y493396*
X1512676Y492459*
X1513358Y491990*
X1514381*
X1515063Y492459*
X1515744Y493396*
X1522903Y501834D02*
Y491990D01*
Y497146D02*
X1522222Y498084D01*
X1521540Y498552*
X1520517*
X1519835Y498084*
X1519153Y497146*
X1518813Y495740*
Y494802*
X1519153Y493396*
X1519835Y492459*
X1520517Y491990*
X1521540*
X1522222Y492459*
X1522903Y493396*
X1533813Y501834D02*
Y491990D01*
Y501834D02*
X1538244D01*
X1533813Y497146D02*
X1536540D01*
X1543017Y498552D02*
X1542335Y498084D01*
X1541653Y497146*
X1541313Y495740*
Y494802*
X1541653Y493396*
X1542335Y492459*
X1543017Y491990*
X1544040*
X1544722Y492459*
X1545403Y493396*
X1545744Y494802*
Y495740*
X1545403Y497146*
X1544722Y498084*
X1544040Y498552*
X1543017*
X1548813D02*
Y491990D01*
Y495740D02*
X1549153Y497146D01*
X1549835Y498084*
X1550517Y498552*
X1551540*
X1554949D02*
X1554608Y498084D01*
X1554949Y497615*
X1555290Y498084*
X1554949Y498552*
Y492927D02*
X1554608Y492459D01*
X1554949Y491990*
X1555290Y492459*
X1554949Y492927*
X1415517Y446834D02*
Y436990D01*
Y446834D02*
X1418585D01*
X1419608Y446365*
X1419949Y445896*
X1420290Y444959*
Y444021*
X1419949Y443084*
X1419608Y442615*
X1418585Y442146*
X1415517D02*
X1418585D01*
X1419608Y441677*
X1419949Y441209*
X1420290Y440271*
Y438865*
X1419949Y437927*
X1419608Y437459*
X1418585Y436990*
X1415517*
X1425063Y443552D02*
X1424381Y443084D01*
X1423699Y442146*
X1423358Y440740*
Y439802*
X1423699Y438396*
X1424381Y437459*
X1425063Y436990*
X1426085*
X1426767Y437459*
X1427449Y438396*
X1427790Y439802*
Y440740*
X1427449Y442146*
X1426767Y443084*
X1426085Y443552*
X1425063*
X1434949D02*
Y436990D01*
Y442146D02*
X1434267Y443084D01*
X1433585Y443552*
X1432563*
X1431881Y443084*
X1431199Y442146*
X1430858Y440740*
Y439802*
X1431199Y438396*
X1431881Y437459*
X1432563Y436990*
X1433585*
X1434267Y437459*
X1434949Y438396*
X1438017Y443552D02*
Y436990D01*
Y440740D02*
X1438358Y442146D01*
X1439040Y443084*
X1439722Y443552*
X1440744*
X1447903Y446834D02*
Y436990D01*
Y442146D02*
X1447222Y443084D01*
X1446540Y443552*
X1445517*
X1444835Y443084*
X1444153Y442146*
X1443813Y440740*
Y439802*
X1444153Y438396*
X1444835Y437459*
X1445517Y436990*
X1446540*
X1447222Y437459*
X1447903Y438396*
X1458813Y446834D02*
Y436990D01*
Y446834D02*
X1461199D01*
X1462222Y446365*
X1462903Y445427*
X1463244Y444490*
X1463585Y443084*
Y440740*
X1463244Y439334*
X1462903Y438396*
X1462222Y437459*
X1461199Y436990*
X1458813*
X1466653Y440740D02*
X1470744D01*
Y441677*
X1470403Y442615*
X1470063Y443084*
X1469381Y443552*
X1468358*
X1467676Y443084*
X1466994Y442146*
X1466653Y440740*
Y439802*
X1466994Y438396*
X1467676Y437459*
X1468358Y436990*
X1469381*
X1470063Y437459*
X1470744Y438396*
X1477563Y442146D02*
X1477222Y443084D01*
X1476199Y443552*
X1475176*
X1474153Y443084*
X1473813Y442146*
X1474153Y441209*
X1474835Y440740*
X1476540Y440271*
X1477222Y439802*
X1477563Y438865*
Y438396*
X1477222Y437459*
X1476199Y436990*
X1475176*
X1474153Y437459*
X1473813Y438396*
X1484722Y442146D02*
X1484040Y443084D01*
X1483358Y443552*
X1482335*
X1481653Y443084*
X1480972Y442146*
X1480631Y440740*
Y439802*
X1480972Y438396*
X1481653Y437459*
X1482335Y436990*
X1483358*
X1484040Y437459*
X1484722Y438396*
X1487790Y443552D02*
Y436990D01*
Y440740D02*
X1488131Y442146D01*
X1488813Y443084*
X1489494Y443552*
X1490517*
X1493585Y446834D02*
X1493926Y446365D01*
X1494267Y446834*
X1493926Y447302*
X1493585Y446834*
X1493926Y443552D02*
Y436990D01*
X1497335Y443552D02*
Y433709D01*
Y442146D02*
X1498017Y443084D01*
X1498699Y443552*
X1499722*
X1500403Y443084*
X1501085Y442146*
X1501426Y440740*
Y439802*
X1501085Y438396*
X1500403Y437459*
X1499722Y436990*
X1498699*
X1498017Y437459*
X1497335Y438396*
X1505517Y446834D02*
Y438865D01*
X1505858Y437459*
X1506540Y436990*
X1507222*
X1504494Y443552D02*
X1506881D01*
X1510290Y446834D02*
X1510631Y446365D01*
X1510972Y446834*
X1510631Y447302*
X1510290Y446834*
X1510631Y443552D02*
Y436990D01*
X1515744Y443552D02*
X1515063Y443084D01*
X1514381Y442146*
X1514040Y440740*
Y439802*
X1514381Y438396*
X1515063Y437459*
X1515744Y436990*
X1516767*
X1517449Y437459*
X1518131Y438396*
X1518472Y439802*
Y440740*
X1518131Y442146*
X1517449Y443084*
X1516767Y443552*
X1515744*
X1521540D02*
Y436990D01*
Y441677D02*
X1522563Y443084D01*
X1523244Y443552*
X1524267*
X1524949Y443084*
X1525290Y441677*
Y436990*
X1528699Y443552D02*
X1528358Y443084D01*
X1528699Y442615*
X1529040Y443084*
X1528699Y443552*
Y437927D02*
X1528358Y437459D01*
X1528699Y436990*
X1529040Y437459*
X1528699Y437927*
X1415517Y376834D02*
Y366990D01*
Y376834D02*
X1418585D01*
X1419608Y376365*
X1419949Y375896*
X1420290Y374959*
Y373552*
X1419949Y372615*
X1419608Y372146*
X1418585Y371677*
X1415517*
X1427449Y373552D02*
Y366990D01*
Y372146D02*
X1426767Y373084D01*
X1426085Y373552*
X1425063*
X1424381Y373084*
X1423699Y372146*
X1423358Y370740*
Y369802*
X1423699Y368396*
X1424381Y367459*
X1425063Y366990*
X1426085*
X1426767Y367459*
X1427449Y368396*
X1430517Y373552D02*
Y366990D01*
Y370740D02*
X1430858Y372146D01*
X1431540Y373084*
X1432222Y373552*
X1433244*
X1437335Y376834D02*
Y368865D01*
X1437676Y367459*
X1438358Y366990*
X1439040*
X1436313Y373552D02*
X1438699D01*
X1449949Y376834D02*
Y366990D01*
Y376834D02*
X1454722Y366990D01*
Y376834D02*
Y366990D01*
X1459494Y373552D02*
X1458813Y373084D01*
X1458131Y372146*
X1457790Y370740*
Y369802*
X1458131Y368396*
X1458813Y367459*
X1459494Y366990*
X1460517*
X1461199Y367459*
X1461881Y368396*
X1462222Y369802*
Y370740*
X1461881Y372146*
X1461199Y373084*
X1460517Y373552*
X1459494*
X1465631D02*
X1465290Y373084D01*
X1465631Y372615*
X1465972Y373084*
X1465631Y373552*
Y367927D02*
X1465290Y367459D01*
X1465631Y366990*
X1465972Y367459*
X1465631Y367927*
X1715517Y376834D02*
Y366990D01*
Y376834D02*
X1718585D01*
X1719608Y376365*
X1719949Y375896*
X1720290Y374959*
Y374021*
X1719949Y373084*
X1719608Y372615*
X1718585Y372146*
X1715517*
X1717903D02*
X1720290Y366990D01*
X1723358Y370740D02*
X1727449D01*
Y371677*
X1727108Y372615*
X1726767Y373084*
X1726085Y373552*
X1725063*
X1724381Y373084*
X1723699Y372146*
X1723358Y370740*
Y369802*
X1723699Y368396*
X1724381Y367459*
X1725063Y366990*
X1726085*
X1726767Y367459*
X1727449Y368396*
X1730517Y373552D02*
X1732563Y366990D01*
X1734608Y373552D02*
X1732563Y366990D01*
X1737676Y376834D02*
X1738017Y376365D01*
X1738358Y376834*
X1738017Y377302*
X1737676Y376834*
X1738017Y373552D02*
Y366990D01*
X1745176Y372146D02*
X1744835Y373084D01*
X1743813Y373552*
X1742790*
X1741767Y373084*
X1741426Y372146*
X1741767Y371209*
X1742449Y370740*
X1744153Y370271*
X1744835Y369802*
X1745176Y368865*
Y368396*
X1744835Y367459*
X1743813Y366990*
X1742790*
X1741767Y367459*
X1741426Y368396*
X1748244Y376834D02*
X1748585Y376365D01*
X1748926Y376834*
X1748585Y377302*
X1748244Y376834*
X1748585Y373552D02*
Y366990D01*
X1753699Y373552D02*
X1753017Y373084D01*
X1752335Y372146*
X1751994Y370740*
Y369802*
X1752335Y368396*
X1753017Y367459*
X1753699Y366990*
X1754722*
X1755403Y367459*
X1756085Y368396*
X1756426Y369802*
Y370740*
X1756085Y372146*
X1755403Y373084*
X1754722Y373552*
X1753699*
X1759494D02*
Y366990D01*
Y371677D02*
X1760517Y373084D01*
X1761199Y373552*
X1762222*
X1762903Y373084*
X1763244Y371677*
Y366990*
X1766653Y373552D02*
X1766313Y373084D01*
X1766653Y372615*
X1766994Y373084*
X1766653Y373552*
Y367927D02*
X1766313Y367459D01*
X1766653Y366990*
X1766994Y367459*
X1766653Y367927*
X1510517Y365115D02*
Y351990D01*
Y365115D02*
X1516426D01*
X1510517Y358865D02*
X1514153D01*
X1520972Y361990D02*
Y362615D01*
X1521426Y363865*
X1521881Y364490*
X1522790Y365115*
X1524608*
X1525517Y364490*
X1525972Y363865*
X1526426Y362615*
Y361365*
X1525972Y360115*
X1525063Y358240*
X1520517Y351990*
X1526881*
X1533244Y365115D02*
X1531881Y364490D01*
X1531426Y363240*
Y361990*
X1531881Y360740*
X1532790Y360115*
X1534608Y359490*
X1535972Y358865*
X1536881Y357615*
X1537335Y356365*
Y354490*
X1536881Y353240*
X1536426Y352615*
X1535063Y351990*
X1533244*
X1531881Y352615*
X1531426Y353240*
X1530972Y354490*
Y356365*
X1531426Y357615*
X1532335Y358865*
X1533699Y359490*
X1535517Y360115*
X1536426Y360740*
X1536881Y361990*
Y363240*
X1536426Y364490*
X1535063Y365115*
X1533244*
X1541426D02*
Y351990D01*
Y365115D02*
X1545063Y351990D01*
X1548699Y365115D02*
X1545063Y351990D01*
X1548699Y365115D02*
Y351990D01*
X1553699Y365115D02*
X1558699D01*
X1555972Y360115*
X1557335*
X1558244Y359490*
X1558699Y358865*
X1559153Y356990*
Y355740*
X1558699Y353865*
X1557790Y352615*
X1556426Y351990*
X1555063*
X1553699Y352615*
X1553244Y353240*
X1552790Y354490*
X1568699Y363240D02*
X1568244Y364490D01*
X1566881Y365115*
X1565972*
X1564608Y364490*
X1563699Y362615*
X1563244Y359490*
Y356365*
X1563699Y353865*
X1564608Y352615*
X1565972Y351990*
X1566426*
X1567790Y352615*
X1568699Y353865*
X1569153Y355740*
Y356365*
X1568699Y358240*
X1567790Y359490*
X1566426Y360115*
X1565972*
X1564608Y359490*
X1563699Y358240*
X1563244Y356365*
X1573244Y360740D02*
X1578244Y351990D01*
Y360740D02*
X1573244Y351990D01*
X1582335Y349490D02*
X1591881D01*
X1600063Y358865D02*
X1599153Y360115D01*
X1598244Y360740*
X1596881*
X1595972Y360115*
X1595063Y358865*
X1594608Y356990*
Y355740*
X1595063Y353865*
X1595972Y352615*
X1596881Y351990*
X1598244*
X1599153Y352615*
X1600063Y353865*
X1606426Y360740D02*
X1605517Y360115D01*
X1604608Y358865*
X1604153Y356990*
Y355740*
X1604608Y353865*
X1605517Y352615*
X1606426Y351990*
X1607790*
X1608699Y352615*
X1609608Y353865*
X1610063Y355740*
Y356990*
X1609608Y358865*
X1608699Y360115*
X1607790Y360740*
X1606426*
X1614153D02*
Y351990D01*
Y358240D02*
X1615517Y360115D01*
X1616426Y360740*
X1617790*
X1618699Y360115*
X1619153Y358240*
Y351990*
X1624608Y365115D02*
Y354490D01*
X1625063Y352615*
X1625972Y351990*
X1626881*
X1623244Y360740D02*
X1626426D01*
X1630972D02*
Y351990D01*
Y356990D02*
X1631426Y358865D01*
X1632335Y360115*
X1633244Y360740*
X1634608*
X1640972D02*
X1640063Y360115D01*
X1639153Y358865*
X1638699Y356990*
Y355740*
X1639153Y353865*
X1640063Y352615*
X1640972Y351990*
X1642335*
X1643244Y352615*
X1644153Y353865*
X1644608Y355740*
Y356990*
X1644153Y358865*
X1643244Y360115*
X1642335Y360740*
X1640972*
X1648699Y365115D02*
Y351990D01*
X1659608Y361990D02*
X1659153Y363240D01*
X1658244Y364490*
X1657335Y365115*
X1655517*
X1654608Y364490*
X1653699Y363240*
X1653244Y361990*
X1652790Y360115*
Y356990*
X1653244Y355115*
X1653699Y353865*
X1654608Y352615*
X1655517Y351990*
X1657335*
X1658244Y352615*
X1659153Y353865*
X1659608Y355115*
X1667335Y365115D02*
X1663699Y351990D01*
X1667335Y365115D02*
X1670972Y351990D01*
X1665063Y356365D02*
X1669608D01*
X1675063Y365115D02*
Y351990D01*
Y365115D02*
X1679153D01*
X1680517Y364490*
X1680972Y363865*
X1681426Y362615*
Y361365*
X1680972Y360115*
X1680517Y359490*
X1679153Y358865*
X1675063*
X1678244D02*
X1681426Y351990D01*
X1685517Y365115D02*
Y351990D01*
Y365115D02*
X1688699D01*
X1690063Y364490*
X1690972Y363240*
X1691426Y361990*
X1691881Y360115*
Y356990*
X1691426Y355115*
X1690972Y353865*
X1690063Y352615*
X1688699Y351990*
X1685517*
X1796835Y362615D02*
X1797744Y363240D01*
X1799108Y365115*
Y351990*
X1803653Y353240D02*
X1803199Y352615D01*
X1803653Y351990*
X1804108Y352615*
X1803653Y353240*
X1808199Y362615D02*
X1809108Y363240D01*
X1810472Y365115*
Y351990*
X1548199Y477302D02*
Y464177D01*
X1545017Y477302D02*
X1551381D01*
X1555472D02*
Y464177D01*
Y477302D02*
X1561381D01*
X1555472Y471052D02*
X1559108D01*
X1555472Y464177D02*
X1561381D01*
X1565472Y477302D02*
X1571835Y464177D01*
Y477302D02*
X1565472Y464177D01*
X1579563Y477302D02*
X1575926Y464177D01*
X1579563Y477302D02*
X1583199Y464177D01*
X1577290Y468552D02*
X1581835D01*
X1593653Y475427D02*
X1592744Y476677D01*
X1591381Y477302*
X1589563*
X1588199Y476677*
X1587290Y475427*
Y474177*
X1587744Y472927*
X1588199Y472302*
X1589108Y471677*
X1591835Y470427*
X1592744Y469802*
X1593199Y469177*
X1593653Y467927*
Y466052*
X1592744Y464802*
X1591381Y464177*
X1589563*
X1588199Y464802*
X1587290Y466052*
X1608199Y477302D02*
Y464177D01*
X1612290Y477302D02*
Y464177D01*
Y477302D02*
X1618653Y464177D01*
Y477302D02*
Y464177D01*
X1629108Y475427D02*
X1628199Y476677D01*
X1626835Y477302*
X1625017*
X1623653Y476677*
X1622744Y475427*
Y474177*
X1623199Y472927*
X1623653Y472302*
X1624563Y471677*
X1627290Y470427*
X1628199Y469802*
X1628653Y469177*
X1629108Y467927*
Y466052*
X1628199Y464802*
X1626835Y464177*
X1625017*
X1623653Y464802*
X1622744Y466052*
X1636381Y477302D02*
Y464177D01*
X1633199Y477302D02*
X1639563D01*
X1643653D02*
Y464177D01*
Y477302D02*
X1647744D01*
X1649108Y476677*
X1649563Y476052*
X1650017Y474802*
Y473552*
X1649563Y472302*
X1649108Y471677*
X1647744Y471052*
X1643653*
X1646835D02*
X1650017Y464177D01*
X1654108Y477302D02*
Y467927D01*
X1654563Y466052*
X1655472Y464802*
X1656835Y464177*
X1657744*
X1659108Y464802*
X1660017Y466052*
X1660472Y467927*
Y477302*
X1664563D02*
Y464177D01*
Y477302D02*
X1668199Y464177D01*
X1671835Y477302D02*
X1668199Y464177D01*
X1671835Y477302D02*
Y464177D01*
X1675926Y477302D02*
Y464177D01*
Y477302D02*
X1681835D01*
X1675926Y471052D02*
X1679563D01*
X1675926Y464177D02*
X1681835D01*
X1685926Y477302D02*
Y464177D01*
Y477302D02*
X1692290Y464177D01*
Y477302D02*
Y464177D01*
X1699563Y477302D02*
Y464177D01*
X1696381Y477302D02*
X1702744D01*
X1713199Y475427D02*
X1712290Y476677D01*
X1710926Y477302*
X1709108*
X1707744Y476677*
X1706835Y475427*
Y474177*
X1707290Y472927*
X1707744Y472302*
X1708653Y471677*
X1711381Y470427*
X1712290Y469802*
X1712744Y469177*
X1713199Y467927*
Y466052*
X1712290Y464802*
X1710926Y464177*
X1709108*
X1707744Y464802*
X1706835Y466052*
X1539335Y427302D02*
Y414177D01*
Y427302D02*
X1545244D01*
X1539335Y421052D02*
X1542972D01*
X1549790Y424177D02*
Y424802D01*
X1550244Y426052*
X1550699Y426677*
X1551608Y427302*
X1553426*
X1554335Y426677*
X1554790Y426052*
X1555244Y424802*
Y423552*
X1554790Y422302*
X1553881Y420427*
X1549335Y414177*
X1555699*
X1562063Y427302D02*
X1560699Y426677D01*
X1560244Y425427*
Y424177*
X1560699Y422927*
X1561608Y422302*
X1563426Y421677*
X1564790Y421052*
X1565699Y419802*
X1566153Y418552*
Y416677*
X1565699Y415427*
X1565244Y414802*
X1563881Y414177*
X1562063*
X1560699Y414802*
X1560244Y415427*
X1559790Y416677*
Y418552*
X1560244Y419802*
X1561153Y421052*
X1562517Y421677*
X1564335Y422302*
X1565244Y422927*
X1565699Y424177*
Y425427*
X1565244Y426677*
X1563881Y427302*
X1562063*
X1570244D02*
Y414177D01*
Y427302D02*
X1573881Y414177D01*
X1577517Y427302D02*
X1573881Y414177D01*
X1577517Y427302D02*
Y414177D01*
X1582517Y427302D02*
X1587517D01*
X1584790Y422302*
X1586153*
X1587063Y421677*
X1587517Y421052*
X1587972Y419177*
Y417927*
X1587517Y416052*
X1586608Y414802*
X1585244Y414177*
X1583881*
X1582517Y414802*
X1582063Y415427*
X1581608Y416677*
X1597517Y425427D02*
X1597063Y426677D01*
X1595699Y427302*
X1594790*
X1593426Y426677*
X1592517Y424802*
X1592063Y421677*
Y418552*
X1592517Y416052*
X1593426Y414802*
X1594790Y414177*
X1595244*
X1596608Y414802*
X1597517Y416052*
X1597972Y417927*
Y418552*
X1597517Y420427*
X1596608Y421677*
X1595244Y422302*
X1594790*
X1593426Y421677*
X1592517Y420427*
X1592063Y418552*
X1602063Y422927D02*
X1607063Y414177D01*
Y422927D02*
X1602063Y414177D01*
X1627063Y421052D02*
X1626153Y422302D01*
X1625244Y422927*
X1623881*
X1622972Y422302*
X1622063Y421052*
X1621608Y419177*
Y417927*
X1622063Y416052*
X1622972Y414802*
X1623881Y414177*
X1625244*
X1626153Y414802*
X1627063Y416052*
X1633426Y422927D02*
X1632517Y422302D01*
X1631608Y421052*
X1631153Y419177*
Y417927*
X1631608Y416052*
X1632517Y414802*
X1633426Y414177*
X1634790*
X1635699Y414802*
X1636608Y416052*
X1637063Y417927*
Y419177*
X1636608Y421052*
X1635699Y422302*
X1634790Y422927*
X1633426*
X1641153D02*
Y414177D01*
Y420427D02*
X1642517Y422302D01*
X1643426Y422927*
X1644790*
X1645699Y422302*
X1646153Y420427*
Y414177*
X1651608Y427302D02*
Y416677D01*
X1652063Y414802*
X1652972Y414177*
X1653881*
X1650244Y422927D02*
X1653426D01*
X1657972D02*
Y414177D01*
Y419177D02*
X1658426Y421052D01*
X1659335Y422302*
X1660244Y422927*
X1661608*
X1667972D02*
X1667063Y422302D01*
X1666153Y421052*
X1665699Y419177*
Y417927*
X1666153Y416052*
X1667063Y414802*
X1667972Y414177*
X1669335*
X1670244Y414802*
X1671153Y416052*
X1671608Y417927*
Y419177*
X1671153Y421052*
X1670244Y422302*
X1669335Y422927*
X1667972*
X1675699Y427302D02*
Y414177D01*
X1686608Y424177D02*
X1686153Y425427D01*
X1685244Y426677*
X1684335Y427302*
X1682517*
X1681608Y426677*
X1680699Y425427*
X1680244Y424177*
X1679790Y422302*
Y419177*
X1680244Y417302*
X1680699Y416052*
X1681608Y414802*
X1682517Y414177*
X1684335*
X1685244Y414802*
X1686153Y416052*
X1686608Y417302*
X1694335Y427302D02*
X1690699Y414177D01*
X1694335Y427302D02*
X1697972Y414177D01*
X1692063Y418552D02*
X1696608D01*
X1702063Y427302D02*
Y414177D01*
Y427302D02*
X1706153D01*
X1707517Y426677*
X1707972Y426052*
X1708426Y424802*
Y423552*
X1707972Y422302*
X1707517Y421677*
X1706153Y421052*
X1702063*
X1705244D02*
X1708426Y414177D01*
X1712517Y427302D02*
Y414177D01*
Y427302D02*
X1715699D01*
X1717063Y426677*
X1717972Y425427*
X1718426Y424177*
X1718881Y422302*
Y419177*
X1718426Y417302*
X1717972Y416052*
X1717063Y414802*
X1715699Y414177*
X1712517*
X1133244Y501834D02*
X1130517Y491990D01*
X1133244Y501834D02*
X1135972Y491990D01*
X1131540Y495271D02*
X1134949D01*
X1139040Y498552D02*
Y491990D01*
Y495740D02*
X1139381Y497146D01*
X1140063Y498084*
X1140744Y498552*
X1141767*
X1145858Y501834D02*
Y493865D01*
X1146199Y492459*
X1146881Y491990*
X1147563*
X1144835Y498552D02*
X1147222D01*
X1150631D02*
X1151994Y491990D01*
X1153358Y498552D02*
X1151994Y491990D01*
X1153358Y498552D02*
X1154722Y491990D01*
X1156085Y498552D02*
X1154722Y491990D01*
X1160858Y498552D02*
X1160176Y498084D01*
X1159494Y497146*
X1159153Y495740*
Y494802*
X1159494Y493396*
X1160176Y492459*
X1160858Y491990*
X1161881*
X1162563Y492459*
X1163244Y493396*
X1163585Y494802*
Y495740*
X1163244Y497146*
X1162563Y498084*
X1161881Y498552*
X1160858*
X1166653D02*
Y491990D01*
Y495740D02*
X1166994Y497146D01*
X1167676Y498084*
X1168358Y498552*
X1169381*
X1172449Y501834D02*
Y491990D01*
X1175858Y498552D02*
X1172449Y493865D01*
X1173813Y495740D02*
X1176199Y491990D01*
X1187108Y501834D02*
Y491990D01*
Y501834D02*
X1189494D01*
X1190517Y501365*
X1191199Y500427*
X1191540Y499490*
X1191881Y498084*
Y495740*
X1191540Y494334*
X1191199Y493396*
X1190517Y492459*
X1189494Y491990*
X1187108*
X1194949Y495740D02*
X1199040D01*
Y496677*
X1198699Y497615*
X1198358Y498084*
X1197676Y498552*
X1196653*
X1195972Y498084*
X1195290Y497146*
X1194949Y495740*
Y494802*
X1195290Y493396*
X1195972Y492459*
X1196653Y491990*
X1197676*
X1198358Y492459*
X1199040Y493396*
X1205858Y497146D02*
X1205517Y498084D01*
X1204494Y498552*
X1203472*
X1202449Y498084*
X1202108Y497146*
X1202449Y496209*
X1203131Y495740*
X1204835Y495271*
X1205517Y494802*
X1205858Y493865*
Y493396*
X1205517Y492459*
X1204494Y491990*
X1203472*
X1202449Y492459*
X1202108Y493396*
X1208926Y501834D02*
X1209267Y501365D01*
X1209608Y501834*
X1209267Y502302*
X1208926Y501834*
X1209267Y498552D02*
Y491990D01*
X1216767Y498552D02*
Y491052D01*
X1216426Y489646*
X1216085Y489177*
X1215403Y488709*
X1214381*
X1213699Y489177*
X1216767Y497146D02*
X1216085Y498084D01*
X1215403Y498552*
X1214381*
X1213699Y498084*
X1213017Y497146*
X1212676Y495740*
Y494802*
X1213017Y493396*
X1213699Y492459*
X1214381Y491990*
X1215403*
X1216085Y492459*
X1216767Y493396*
X1219835Y498552D02*
Y491990D01*
Y496677D02*
X1220858Y498084D01*
X1221540Y498552*
X1222563*
X1223244Y498084*
X1223585Y496677*
Y491990*
X1226653Y495740D02*
X1230744D01*
Y496677*
X1230403Y497615*
X1230063Y498084*
X1229381Y498552*
X1228358*
X1227676Y498084*
X1226994Y497146*
X1226653Y495740*
Y494802*
X1226994Y493396*
X1227676Y492459*
X1228358Y491990*
X1229381*
X1230063Y492459*
X1230744Y493396*
X1237903Y501834D02*
Y491990D01*
Y497146D02*
X1237222Y498084D01*
X1236540Y498552*
X1235517*
X1234835Y498084*
X1234153Y497146*
X1233813Y495740*
Y494802*
X1234153Y493396*
X1234835Y492459*
X1235517Y491990*
X1236540*
X1237222Y492459*
X1237903Y493396*
X1248813Y501834D02*
Y491990D01*
Y501834D02*
X1251881D01*
X1252903Y501365*
X1253244Y500896*
X1253585Y499959*
Y499021*
X1253244Y498084*
X1252903Y497615*
X1251881Y497146*
X1248813D02*
X1251881D01*
X1252903Y496677*
X1253244Y496209*
X1253585Y495271*
Y493865*
X1253244Y492927*
X1252903Y492459*
X1251881Y491990*
X1248813*
X1256994Y498552D02*
X1259040Y491990D01*
X1261085Y498552D02*
X1259040Y491990D01*
X1258358Y490115*
X1257676Y489177*
X1256994Y488709*
X1256653*
X1264494Y498552D02*
X1264153Y498084D01*
X1264494Y497615*
X1264835Y498084*
X1264494Y498552*
Y492927D02*
X1264153Y492459D01*
X1264494Y491990*
X1264835Y492459*
X1264494Y492927*
X1133926Y336834D02*
Y329334D01*
X1133585Y327927*
X1133244Y327459*
X1132563Y326990*
X1131881*
X1131199Y327459*
X1130858Y327927*
X1130517Y329334*
Y330271*
X1138699Y333552D02*
X1138017Y333084D01*
X1137335Y332146*
X1136994Y330740*
Y329802*
X1137335Y328396*
X1138017Y327459*
X1138699Y326990*
X1139722*
X1140403Y327459*
X1141085Y328396*
X1141426Y329802*
Y330740*
X1141085Y332146*
X1140403Y333084*
X1139722Y333552*
X1138699*
X1144494Y336834D02*
Y326990D01*
Y332146D02*
X1145176Y333084D01*
X1145858Y333552*
X1146881*
X1147563Y333084*
X1148244Y332146*
X1148585Y330740*
Y329802*
X1148244Y328396*
X1147563Y327459*
X1146881Y326990*
X1145858*
X1145176Y327459*
X1144494Y328396*
X1159494Y336834D02*
Y326990D01*
Y336834D02*
X1164267Y326990D01*
Y336834D02*
Y326990D01*
X1169040Y333552D02*
X1168358Y333084D01*
X1167676Y332146*
X1167335Y330740*
Y329802*
X1167676Y328396*
X1168358Y327459*
X1169040Y326990*
X1170063*
X1170744Y327459*
X1171426Y328396*
X1171767Y329802*
Y330740*
X1171426Y332146*
X1170744Y333084*
X1170063Y333552*
X1169040*
X1175176D02*
X1174835Y333084D01*
X1175176Y332615*
X1175517Y333084*
X1175176Y333552*
Y327927D02*
X1174835Y327459D01*
X1175176Y326990*
X1175517Y327459*
X1175176Y327927*
X1200926Y332302D02*
Y319177D01*
X1197744Y332302D02*
X1204108D01*
X1208199D02*
Y319177D01*
Y332302D02*
X1214108D01*
X1208199Y326052D02*
X1211835D01*
X1208199Y319177D02*
X1214108D01*
X1218199Y332302D02*
X1224563Y319177D01*
Y332302D02*
X1218199Y319177D01*
X1229108Y320427D02*
X1228653Y319802D01*
X1229108Y319177*
X1229563Y319802*
X1229108Y320427*
X1236381Y332302D02*
X1235017Y331677D01*
X1234108Y329802*
X1233653Y326677*
Y324802*
X1234108Y321677*
X1235017Y319802*
X1236381Y319177*
X1237290*
X1238653Y319802*
X1239563Y321677*
X1240017Y324802*
Y326677*
X1239563Y329802*
X1238653Y331677*
X1237290Y332302*
X1236381*
X1246381D02*
X1245017Y331677D01*
X1244563Y330427*
Y329177*
X1245017Y327927*
X1245926Y327302*
X1247744Y326677*
X1249108Y326052*
X1250017Y324802*
X1250472Y323552*
Y321677*
X1250017Y320427*
X1249563Y319802*
X1248199Y319177*
X1246381*
X1245017Y319802*
X1244563Y320427*
X1244108Y321677*
Y323552*
X1244563Y324802*
X1245472Y326052*
X1246835Y326677*
X1248653Y327302*
X1249563Y327927*
X1250017Y329177*
Y330427*
X1249563Y331677*
X1248199Y332302*
X1246381*
X1260017Y330427D02*
X1259563Y331677D01*
X1258199Y332302*
X1257290*
X1255926Y331677*
X1255017Y329802*
X1254563Y326677*
Y323552*
X1255017Y321052*
X1255926Y319802*
X1257290Y319177*
X1257744*
X1259108Y319802*
X1260017Y321052*
X1260472Y322927*
Y323552*
X1260017Y325427*
X1259108Y326677*
X1257744Y327302*
X1257290*
X1255926Y326677*
X1255017Y325427*
X1254563Y323552*
X1290517Y336834D02*
Y326990D01*
Y336834D02*
X1292903D01*
X1293926Y336365*
X1294608Y335427*
X1294949Y334490*
X1295290Y333084*
Y330740*
X1294949Y329334*
X1294608Y328396*
X1293926Y327459*
X1292903Y326990*
X1290517*
X1302449Y333552D02*
Y326990D01*
Y332146D02*
X1301767Y333084D01*
X1301085Y333552*
X1300063*
X1299381Y333084*
X1298699Y332146*
X1298358Y330740*
Y329802*
X1298699Y328396*
X1299381Y327459*
X1300063Y326990*
X1301085*
X1301767Y327459*
X1302449Y328396*
X1306540Y336834D02*
Y328865D01*
X1306881Y327459*
X1307563Y326990*
X1308244*
X1305517Y333552D02*
X1307903D01*
X1311313Y330740D02*
X1315403D01*
Y331677*
X1315063Y332615*
X1314722Y333084*
X1314040Y333552*
X1313017*
X1312335Y333084*
X1311653Y332146*
X1311313Y330740*
Y329802*
X1311653Y328396*
X1312335Y327459*
X1313017Y326990*
X1314040*
X1314722Y327459*
X1315403Y328396*
X1318813Y333552D02*
X1318472Y333084D01*
X1318813Y332615*
X1319153Y333084*
X1318813Y333552*
Y327927D02*
X1318472Y327459D01*
X1318813Y326990*
X1319153Y327459*
X1318813Y327927*
X1337290Y332302D02*
X1335926Y331677D01*
X1335472Y330427*
Y329177*
X1335926Y327927*
X1336835Y327302*
X1338653Y326677*
X1340017Y326052*
X1340926Y324802*
X1341381Y323552*
Y321677*
X1340926Y320427*
X1340472Y319802*
X1339108Y319177*
X1337290*
X1335926Y319802*
X1335472Y320427*
X1335017Y321677*
Y323552*
X1335472Y324802*
X1336381Y326052*
X1337744Y326677*
X1339563Y327302*
X1340472Y327927*
X1340926Y329177*
Y330427*
X1340472Y331677*
X1339108Y332302*
X1337290*
X1353653Y334802D02*
X1345472Y314802D01*
X1358653Y332302D02*
X1363653D01*
X1360926Y327302*
X1362290*
X1363199Y326677*
X1363653Y326052*
X1364108Y324177*
Y322927*
X1363653Y321052*
X1362744Y319802*
X1361381Y319177*
X1360017*
X1358653Y319802*
X1358199Y320427*
X1357744Y321677*
X1376381Y334802D02*
X1368199Y314802D01*
X1380472Y329802D02*
X1381381Y330427D01*
X1382744Y332302*
Y319177*
X1387290Y329177D02*
Y329802D01*
X1387744Y331052*
X1388199Y331677*
X1389108Y332302*
X1390926*
X1391835Y331677*
X1392290Y331052*
X1392744Y329802*
Y328552*
X1392290Y327302*
X1391381Y325427*
X1386835Y319177*
X1393199*
X1152017Y469034D02*
X1153722Y459190D01*
X1155426Y469034D02*
X1153722Y459190D01*
X1155426Y469034D02*
X1157131Y459190D01*
X1158835Y469034D02*
X1157131Y459190D01*
X1161903Y469034D02*
X1162244Y468565D01*
X1162585Y469034*
X1162244Y469502*
X1161903Y469034*
X1162244Y465752D02*
Y459190D01*
X1165653Y469034D02*
Y459190D01*
X1168722Y469034D02*
Y459190D01*
X1173494Y465752D02*
X1172813Y465284D01*
X1172131Y464346*
X1171790Y462940*
Y462002*
X1172131Y460596*
X1172813Y459659*
X1173494Y459190*
X1174517*
X1175199Y459659*
X1175881Y460596*
X1176222Y462002*
Y462940*
X1175881Y464346*
X1175199Y465284*
X1174517Y465752*
X1173494*
X1179290D02*
X1180653Y459190D01*
X1182017Y465752D02*
X1180653Y459190D01*
X1182017Y465752D02*
X1183381Y459190D01*
X1184744Y465752D02*
X1183381Y459190D01*
X1200426Y467627D02*
X1199744Y468565D01*
X1198722Y469034*
X1197358*
X1196335Y468565*
X1195653Y467627*
Y466690*
X1195994Y465752*
X1196335Y465284*
X1197017Y464815*
X1199063Y463877*
X1199744Y463409*
X1200085Y462940*
X1200426Y462002*
Y460596*
X1199744Y459659*
X1198722Y459190*
X1197358*
X1196335Y459659*
X1195653Y460596*
X1203494Y465752D02*
Y455909D01*
Y464346D02*
X1204176Y465284D01*
X1204858Y465752*
X1205881*
X1206563Y465284*
X1207244Y464346*
X1207585Y462940*
Y462002*
X1207244Y460596*
X1206563Y459659*
X1205881Y459190*
X1204858*
X1204176Y459659*
X1203494Y460596*
X1210653Y465752D02*
Y459190D01*
Y462940D02*
X1210994Y464346D01*
X1211676Y465284*
X1212358Y465752*
X1213381*
X1216449Y469034D02*
X1216790Y468565D01*
X1217131Y469034*
X1216790Y469502*
X1216449Y469034*
X1216790Y465752D02*
Y459190D01*
X1220199Y465752D02*
Y459190D01*
Y463877D02*
X1221222Y465284D01*
X1221903Y465752*
X1222926*
X1223608Y465284*
X1223949Y463877*
Y459190*
X1231108Y465752D02*
Y458252D01*
X1230767Y456846*
X1230426Y456377*
X1229744Y455909*
X1228722*
X1228040Y456377*
X1231108Y464346D02*
X1230426Y465284D01*
X1229744Y465752*
X1228722*
X1228040Y465284*
X1227358Y464346*
X1227017Y462940*
Y462002*
X1227358Y460596*
X1228040Y459659*
X1228722Y459190*
X1229744*
X1230426Y459659*
X1231108Y460596*
X1244403Y469034D02*
Y459190D01*
X1242017Y469034D02*
X1246790D01*
X1249858Y462940D02*
X1253949D01*
Y463877*
X1253608Y464815*
X1253267Y465284*
X1252585Y465752*
X1251563*
X1250881Y465284*
X1250199Y464346*
X1249858Y462940*
Y462002*
X1250199Y460596*
X1250881Y459659*
X1251563Y459190*
X1252585*
X1253267Y459659*
X1253949Y460596*
X1261108Y464346D02*
X1260426Y465284D01*
X1259744Y465752*
X1258722*
X1258040Y465284*
X1257358Y464346*
X1257017Y462940*
Y462002*
X1257358Y460596*
X1258040Y459659*
X1258722Y459190*
X1259744*
X1260426Y459659*
X1261108Y460596*
X1264176Y469034D02*
Y459190D01*
Y463877D02*
X1265199Y465284D01*
X1265881Y465752*
X1266903*
X1267585Y465284*
X1267926Y463877*
Y459190*
X1270994Y465752D02*
Y459190D01*
Y463877D02*
X1272017Y465284D01*
X1272699Y465752*
X1273722*
X1274403Y465284*
X1274744Y463877*
Y459190*
X1277813Y469034D02*
X1278153Y468565D01*
X1278494Y469034*
X1278153Y469502*
X1277813Y469034*
X1278153Y465752D02*
Y459190D01*
X1285653Y464346D02*
X1284972Y465284D01*
X1284290Y465752*
X1283267*
X1282585Y465284*
X1281903Y464346*
X1281563Y462940*
Y462002*
X1281903Y460596*
X1282585Y459659*
X1283267Y459190*
X1284290*
X1284972Y459659*
X1285653Y460596*
X1292813Y465752D02*
Y459190D01*
Y464346D02*
X1292131Y465284D01*
X1291449Y465752*
X1290426*
X1289744Y465284*
X1289063Y464346*
X1288722Y462940*
Y462002*
X1289063Y460596*
X1289744Y459659*
X1290426Y459190*
X1291449*
X1292131Y459659*
X1292813Y460596*
X1295881Y469034D02*
Y459190D01*
X1311563Y467627D02*
X1310881Y468565D01*
X1309858Y469034*
X1308494*
X1307472Y468565*
X1306790Y467627*
Y466690*
X1307131Y465752*
X1307472Y465284*
X1308153Y464815*
X1310199Y463877*
X1310881Y463409*
X1311222Y462940*
X1311563Y462002*
Y460596*
X1310881Y459659*
X1309858Y459190*
X1308494*
X1307472Y459659*
X1306790Y460596*
X1314631Y462940D02*
X1318722D01*
Y463877*
X1318381Y464815*
X1318040Y465284*
X1317358Y465752*
X1316335*
X1315653Y465284*
X1314972Y464346*
X1314631Y462940*
Y462002*
X1314972Y460596*
X1315653Y459659*
X1316335Y459190*
X1317358*
X1318040Y459659*
X1318722Y460596*
X1321790Y465752D02*
Y459190D01*
Y462940D02*
X1322131Y464346D01*
X1322813Y465284*
X1323494Y465752*
X1324517*
X1327585D02*
X1329631Y459190D01*
X1331676Y465752D02*
X1329631Y459190D01*
X1334744Y469034D02*
X1335085Y468565D01*
X1335426Y469034*
X1335085Y469502*
X1334744Y469034*
X1335085Y465752D02*
Y459190D01*
X1342585Y464346D02*
X1341903Y465284D01*
X1341222Y465752*
X1340199*
X1339517Y465284*
X1338835Y464346*
X1338494Y462940*
Y462002*
X1338835Y460596*
X1339517Y459659*
X1340199Y459190*
X1341222*
X1341903Y459659*
X1342585Y460596*
X1345653Y462940D02*
X1349744D01*
Y463877*
X1349403Y464815*
X1349063Y465284*
X1348381Y465752*
X1347358*
X1346676Y465284*
X1345994Y464346*
X1345653Y462940*
Y462002*
X1345994Y460596*
X1346676Y459659*
X1347358Y459190*
X1348381*
X1349063Y459659*
X1349744Y460596*
X1356563Y464346D02*
X1356222Y465284D01*
X1355199Y465752*
X1354176*
X1353153Y465284*
X1352813Y464346*
X1353153Y463409*
X1353835Y462940*
X1355540Y462471*
X1356222Y462002*
X1356563Y461065*
Y460596*
X1356222Y459659*
X1355199Y459190*
X1354176*
X1353153Y459659*
X1352813Y460596*
X1372585Y466690D02*
X1372244Y467627D01*
X1371563Y468565*
X1370881Y469034*
X1369517*
X1368835Y468565*
X1368153Y467627*
X1367813Y466690*
X1367472Y465284*
Y462940*
X1367813Y461534*
X1368153Y460596*
X1368835Y459659*
X1369517Y459190*
X1370881*
X1371563Y459659*
X1372244Y460596*
X1372585Y461534*
X1377358Y465752D02*
X1376676Y465284D01*
X1375994Y464346*
X1375653Y462940*
Y462002*
X1375994Y460596*
X1376676Y459659*
X1377358Y459190*
X1378381*
X1379063Y459659*
X1379744Y460596*
X1380085Y462002*
Y462940*
X1379744Y464346*
X1379063Y465284*
X1378381Y465752*
X1377358*
X1383153D02*
Y459190D01*
Y462940D02*
X1383494Y464346D01*
X1384176Y465284*
X1384858Y465752*
X1385881*
X1388949D02*
Y455909D01*
Y464346D02*
X1389631Y465284D01*
X1390313Y465752*
X1391335*
X1392017Y465284*
X1392699Y464346*
X1393040Y462940*
Y462002*
X1392699Y460596*
X1392017Y459659*
X1391335Y459190*
X1390313*
X1389631Y459659*
X1388949Y460596*
X1396449Y460127D02*
X1396108Y459659D01*
X1396449Y459190*
X1396790Y459659*
X1396449Y460127*
X1218575Y443807D02*
X1219256Y444276D01*
X1220279Y445682*
Y435839*
X1223347Y443807D02*
X1224029Y444276D01*
X1225052Y445682*
Y435839*
X1229825Y445682D02*
X1228802Y445214D01*
X1228461Y444276*
Y443339*
X1228802Y442401*
X1229484Y441932*
X1230847Y441464*
X1231870Y440995*
X1232552Y440057*
X1232893Y439120*
Y437714*
X1232552Y436776*
X1232211Y436307*
X1231188Y435839*
X1229825*
X1228802Y436307*
X1228461Y436776*
X1228120Y437714*
Y439120*
X1228461Y440057*
X1229143Y440995*
X1230165Y441464*
X1231529Y441932*
X1232211Y442401*
X1232552Y443339*
Y444276*
X1232211Y445214*
X1231188Y445682*
X1229825*
X1240393D02*
X1236984D01*
X1236643Y441464*
X1236984Y441932*
X1238006Y442401*
X1239029*
X1240052Y441932*
X1240734Y440995*
X1241075Y439589*
X1240734Y438651*
X1240393Y437245*
X1239711Y436307*
X1238688Y435839*
X1237665*
X1236643Y436307*
X1236302Y436776*
X1235961Y437714*
X1257097Y443339D02*
X1256756Y444276D01*
X1256075Y445214*
X1255393Y445682*
X1254029*
X1253347Y445214*
X1252665Y444276*
X1252325Y443339*
X1251984Y441932*
Y439589*
X1252325Y438182*
X1252665Y437245*
X1253347Y436307*
X1254029Y435839*
X1255393*
X1256075Y436307*
X1256756Y437245*
X1257097Y438182*
X1260165Y439589D02*
X1264256D01*
Y440526*
X1263915Y441464*
X1263575Y441932*
X1262893Y442401*
X1261870*
X1261188Y441932*
X1260506Y440995*
X1260165Y439589*
Y438651*
X1260506Y437245*
X1261188Y436307*
X1261870Y435839*
X1262893*
X1263575Y436307*
X1264256Y437245*
X1267325Y442401D02*
Y435839D01*
Y440526D02*
X1268347Y441932D01*
X1269029Y442401*
X1270052*
X1270734Y441932*
X1271075Y440526*
Y435839*
X1275165Y445682D02*
Y437714D01*
X1275506Y436307*
X1276188Y435839*
X1276870*
X1274143Y442401D02*
X1276529D01*
X1279938D02*
Y435839D01*
Y439589D02*
X1280279Y440995D01*
X1280961Y441932*
X1281643Y442401*
X1282665*
X1285734Y439589D02*
X1289825D01*
Y440526*
X1289484Y441464*
X1289143Y441932*
X1288461Y442401*
X1287438*
X1286756Y441932*
X1286075Y440995*
X1285734Y439589*
Y438651*
X1286075Y437245*
X1286756Y436307*
X1287438Y435839*
X1288461*
X1289143Y436307*
X1289825Y437245*
X1305506Y444276D02*
X1304825Y445214D01*
X1303802Y445682*
X1302438*
X1301415Y445214*
X1300734Y444276*
Y443339*
X1301075Y442401*
X1301415Y441932*
X1302097Y441464*
X1304143Y440526*
X1304825Y440057*
X1305165Y439589*
X1305506Y438651*
Y437245*
X1304825Y436307*
X1303802Y435839*
X1302438*
X1301415Y436307*
X1300734Y437245*
X1309597Y445682D02*
Y437714D01*
X1309938Y436307*
X1310620Y435839*
X1311302*
X1308575Y442401D02*
X1310961D01*
X1314370D02*
Y435839D01*
Y439589D02*
X1314711Y440995D01*
X1315393Y441932*
X1316075Y442401*
X1317097*
X1320165Y439589D02*
X1324256D01*
Y440526*
X1323915Y441464*
X1323575Y441932*
X1322893Y442401*
X1321870*
X1321188Y441932*
X1320506Y440995*
X1320165Y439589*
Y438651*
X1320506Y437245*
X1321188Y436307*
X1321870Y435839*
X1322893*
X1323575Y436307*
X1324256Y437245*
X1327325Y439589D02*
X1331415D01*
Y440526*
X1331075Y441464*
X1330734Y441932*
X1330052Y442401*
X1329029*
X1328347Y441932*
X1327665Y440995*
X1327325Y439589*
Y438651*
X1327665Y437245*
X1328347Y436307*
X1329029Y435839*
X1330052*
X1330734Y436307*
X1331415Y437245*
X1335506Y445682D02*
Y437714D01*
X1335847Y436307*
X1336529Y435839*
X1337211*
X1334484Y442401D02*
X1336870D01*
X1208575Y423182D02*
Y413339D01*
Y423182D02*
X1211302Y413339D01*
X1214029Y423182D02*
X1211302Y413339D01*
X1214029Y423182D02*
Y413339D01*
X1217097Y423182D02*
X1217438Y422714D01*
X1217779Y423182*
X1217438Y423651*
X1217097Y423182*
X1217438Y419901D02*
Y413339D01*
X1224938Y423182D02*
Y413339D01*
Y418495D02*
X1224256Y419432D01*
X1223575Y419901*
X1222552*
X1221870Y419432*
X1221188Y418495*
X1220847Y417089*
Y416151*
X1221188Y414745*
X1221870Y413807*
X1222552Y413339*
X1223575*
X1224256Y413807*
X1224938Y414745*
X1232097Y423182D02*
Y413339D01*
Y418495D02*
X1231415Y419432D01*
X1230734Y419901*
X1229711*
X1229029Y419432*
X1228347Y418495*
X1228006Y417089*
Y416151*
X1228347Y414745*
X1229029Y413807*
X1229711Y413339*
X1230734*
X1231415Y413807*
X1232097Y414745*
X1235165Y423182D02*
Y413339D01*
X1238234Y417089D02*
X1242325D01*
Y418026*
X1241984Y418964*
X1241643Y419432*
X1240961Y419901*
X1239938*
X1239256Y419432*
X1238575Y418495*
X1238234Y417089*
Y416151*
X1238575Y414745*
X1239256Y413807*
X1239938Y413339*
X1240961*
X1241643Y413807*
X1242325Y414745*
X1245393Y423182D02*
Y413339D01*
Y418495D02*
X1246075Y419432D01*
X1246756Y419901*
X1247779*
X1248461Y419432*
X1249143Y418495*
X1249484Y417089*
Y416151*
X1249143Y414745*
X1248461Y413807*
X1247779Y413339*
X1246756*
X1246075Y413807*
X1245393Y414745*
X1254256Y419901D02*
X1253575Y419432D01*
X1252893Y418495*
X1252552Y417089*
Y416151*
X1252893Y414745*
X1253575Y413807*
X1254256Y413339*
X1255279*
X1255961Y413807*
X1256643Y414745*
X1256984Y416151*
Y417089*
X1256643Y418495*
X1255961Y419432*
X1255279Y419901*
X1254256*
X1260052D02*
Y413339D01*
Y417089D02*
X1260393Y418495D01*
X1261075Y419432*
X1261756Y419901*
X1262779*
X1267552D02*
X1266870Y419432D01*
X1266188Y418495*
X1265847Y417089*
Y416151*
X1266188Y414745*
X1266870Y413807*
X1267552Y413339*
X1268575*
X1269256Y413807*
X1269938Y414745*
X1270279Y416151*
Y417089*
X1269938Y418495*
X1269256Y419432*
X1268575Y419901*
X1267552*
X1274029Y413807D02*
X1273688Y413339D01*
X1273347Y413807*
X1273688Y414276*
X1274029Y413807*
Y412870*
X1273688Y411932*
X1273347Y411464*
X1284938Y423182D02*
Y413339D01*
Y423182D02*
X1287665Y413339D01*
X1290393Y423182D02*
X1287665Y413339D01*
X1290393Y423182D02*
Y413339D01*
X1296188Y423182D02*
X1293461Y413339D01*
X1296188Y423182D02*
X1298915Y413339D01*
X1294484Y416620D02*
X1297893D01*
X1311870Y423182D02*
X1310847Y422714D01*
X1310165Y421307*
X1309825Y418964*
Y417557*
X1310165Y415214*
X1310847Y413807*
X1311870Y413339*
X1312552*
X1313575Y413807*
X1314256Y415214*
X1314597Y417557*
Y418964*
X1314256Y421307*
X1313575Y422714*
X1312552Y423182*
X1311870*
X1318006Y420839D02*
Y421307D01*
X1318347Y422245*
X1318688Y422714*
X1319370Y423182*
X1320734*
X1321415Y422714*
X1321756Y422245*
X1322097Y421307*
Y420370*
X1321756Y419432*
X1321075Y418026*
X1317665Y413339*
X1322438*
X1326188Y423182D02*
X1329938D01*
X1327893Y419432*
X1328915*
X1329597Y418964*
X1329938Y418495*
X1330279Y417089*
Y416151*
X1329938Y414745*
X1329256Y413807*
X1328234Y413339*
X1327211*
X1326188Y413807*
X1325847Y414276*
X1325506Y415214*
X1336756Y423182D02*
X1333347Y416620D01*
X1338461*
X1336756Y423182D02*
Y413339D01*
X1345620Y421776D02*
X1345279Y422714D01*
X1344256Y423182*
X1343575*
X1342552Y422714*
X1341870Y421307*
X1341529Y418964*
Y416620*
X1341870Y414745*
X1342552Y413807*
X1343575Y413339*
X1343915*
X1344938Y413807*
X1345620Y414745*
X1345961Y416151*
Y416620*
X1345620Y418026*
X1344938Y418964*
X1343915Y419432*
X1343575*
X1342552Y418964*
X1341870Y418026*
X1341529Y416620*
X1289217Y396152D02*
X1290581Y389590D01*
X1291944Y396152D02*
X1290581Y389590D01*
X1291944Y396152D02*
X1293308Y389590D01*
X1294672Y396152D02*
X1293308Y389590D01*
X1297740Y396152D02*
X1299103Y389590D01*
X1300467Y396152D02*
X1299103Y389590D01*
X1300467Y396152D02*
X1301831Y389590D01*
X1303194Y396152D02*
X1301831Y389590D01*
X1306263Y396152D02*
X1307626Y389590D01*
X1308990Y396152D02*
X1307626Y389590D01*
X1308990Y396152D02*
X1310353Y389590D01*
X1311717Y396152D02*
X1310353Y389590D01*
X1315126Y390527D02*
X1314785Y390059D01*
X1315126Y389590*
X1315467Y390059*
X1315126Y390527*
X1318535Y396152D02*
X1319899Y389590D01*
X1321263Y396152D02*
X1319899Y389590D01*
X1321263Y396152D02*
X1322626Y389590D01*
X1323990Y396152D02*
X1322626Y389590D01*
X1330808Y394746D02*
X1330467Y395684D01*
X1329444Y396152*
X1328422*
X1327399Y395684*
X1327058Y394746*
X1327399Y393809*
X1328081Y393340*
X1329785Y392871*
X1330467Y392402*
X1330808Y391465*
Y390996*
X1330467Y390059*
X1329444Y389590*
X1328422*
X1327399Y390059*
X1327058Y390996*
X1334899Y399434D02*
Y391465D01*
X1335240Y390059*
X1335922Y389590*
X1336603*
X1333876Y396152D02*
X1336263D01*
X1343422Y394746D02*
X1343081Y395684D01*
X1342058Y396152*
X1341035*
X1340013Y395684*
X1339672Y394746*
X1340013Y393809*
X1340694Y393340*
X1342399Y392871*
X1343081Y392402*
X1343422Y391465*
Y390996*
X1343081Y390059*
X1342058Y389590*
X1341035*
X1340013Y390059*
X1339672Y390996*
X1350581Y394746D02*
X1349899Y395684D01*
X1349217Y396152*
X1348194*
X1347513Y395684*
X1346831Y394746*
X1346490Y393340*
Y392402*
X1346831Y390996*
X1347513Y390059*
X1348194Y389590*
X1349217*
X1349899Y390059*
X1350581Y390996*
X1355353Y396152D02*
X1354672Y395684D01*
X1353990Y394746*
X1353649Y393340*
Y392402*
X1353990Y390996*
X1354672Y390059*
X1355353Y389590*
X1356376*
X1357058Y390059*
X1357740Y390996*
X1358081Y392402*
Y393340*
X1357740Y394746*
X1357058Y395684*
X1356376Y396152*
X1355353*
X1361149D02*
Y389590D01*
Y393340D02*
X1361490Y394746D01*
X1362172Y395684*
X1362853Y396152*
X1363876*
X1366944D02*
Y386309D01*
Y394746D02*
X1367626Y395684D01*
X1368308Y396152*
X1369331*
X1370013Y395684*
X1370694Y394746*
X1371035Y393340*
Y392402*
X1370694Y390996*
X1370013Y390059*
X1369331Y389590*
X1368308*
X1367626Y390059*
X1366944Y390996*
X1374444Y390527D02*
X1374103Y390059D01*
X1374444Y389590*
X1374785Y390059*
X1374444Y390527*
X1381944Y394746D02*
X1381263Y395684D01*
X1380581Y396152*
X1379558*
X1378876Y395684*
X1378194Y394746*
X1377853Y393340*
Y392402*
X1378194Y390996*
X1378876Y390059*
X1379558Y389590*
X1380581*
X1381263Y390059*
X1381944Y390996*
X1386717Y396152D02*
X1386035Y395684D01*
X1385353Y394746*
X1385013Y393340*
Y392402*
X1385353Y390996*
X1386035Y390059*
X1386717Y389590*
X1387740*
X1388422Y390059*
X1389103Y390996*
X1389444Y392402*
Y393340*
X1389103Y394746*
X1388422Y395684*
X1387740Y396152*
X1386717*
X1392513D02*
Y389590D01*
Y394277D02*
X1393535Y395684D01*
X1394217Y396152*
X1395240*
X1395922Y395684*
X1396263Y394277*
Y389590*
Y394277D02*
X1397285Y395684D01*
X1397967Y396152*
X1398990*
X1399672Y395684*
X1400013Y394277*
Y389590*
X1143575Y398182D02*
Y388339D01*
Y398182D02*
X1146643D01*
X1147665Y397714*
X1148006Y397245*
X1148347Y396307*
Y394901*
X1148006Y393964*
X1147665Y393495*
X1146643Y393026*
X1143575*
X1151415Y398182D02*
Y388339D01*
X1156188Y398182D02*
Y388339D01*
X1151415Y393495D02*
X1156188D01*
X1171529Y398182D02*
X1168120D01*
X1167779Y393964*
X1168120Y394432*
X1169143Y394901*
X1170165*
X1171188Y394432*
X1171870Y393495*
X1172211Y392089*
X1171870Y391151*
X1171529Y389745*
X1170847Y388807*
X1169825Y388339*
X1168802*
X1167779Y388807*
X1167438Y389276*
X1167097Y390214*
X1177325Y398182D02*
X1176302Y397714D01*
X1175620Y396307*
X1175279Y393964*
Y392557*
X1175620Y390214*
X1176302Y388807*
X1177325Y388339*
X1178006*
X1179029Y388807*
X1179711Y390214*
X1180052Y392557*
Y393964*
X1179711Y396307*
X1179029Y397714*
X1178006Y398182*
X1177325*
X1184825D02*
X1183802Y397714D01*
X1183461Y396776*
Y395839*
X1183802Y394901*
X1184484Y394432*
X1185847Y393964*
X1186870Y393495*
X1187552Y392557*
X1187893Y391620*
Y390214*
X1187552Y389276*
X1187211Y388807*
X1186188Y388339*
X1184825*
X1183802Y388807*
X1183461Y389276*
X1183120Y390214*
Y391620*
X1183461Y392557*
X1184143Y393495*
X1185165Y393964*
X1186529Y394432*
X1187211Y394901*
X1187552Y395839*
Y396776*
X1187211Y397714*
X1186188Y398182*
X1184825*
X1190961Y392557D02*
X1197097D01*
X1204597Y394901D02*
X1204256Y393495D01*
X1203575Y392557*
X1202552Y392089*
X1202211*
X1201188Y392557*
X1200506Y393495*
X1200165Y394901*
Y395370*
X1200506Y396776*
X1201188Y397714*
X1202211Y398182*
X1202552*
X1203575Y397714*
X1204256Y396776*
X1204597Y394901*
Y392557*
X1204256Y390214*
X1203575Y388807*
X1202552Y388339*
X1201870*
X1200847Y388807*
X1200506Y389745*
X1211075Y398182D02*
X1207665Y391620D01*
X1212779*
X1211075Y398182D02*
Y388339D01*
X1220620Y398182D02*
X1217211Y388339D01*
X1215847Y398182D02*
X1220620D01*
X1223688Y392557D02*
X1229825D01*
X1233234Y395839D02*
Y396307D01*
X1233575Y397245*
X1233915Y397714*
X1234597Y398182*
X1235961*
X1236643Y397714*
X1236984Y397245*
X1237325Y396307*
Y395370*
X1236984Y394432*
X1236302Y393026*
X1232893Y388339*
X1237665*
X1245506Y398182D02*
X1242097Y388339D01*
X1240734Y398182D02*
X1245506D01*
X1250620D02*
X1249597Y397714D01*
X1248915Y396307*
X1248575Y393964*
Y392557*
X1248915Y390214*
X1249597Y388807*
X1250620Y388339*
X1251302*
X1252325Y388807*
X1253006Y390214*
X1253347Y392557*
Y393964*
X1253006Y396307*
X1252325Y397714*
X1251302Y398182*
X1250620*
X1260847Y394901D02*
X1260506Y393495D01*
X1259825Y392557*
X1258802Y392089*
X1258461*
X1257438Y392557*
X1256756Y393495*
X1256415Y394901*
Y395370*
X1256756Y396776*
X1257438Y397714*
X1258461Y398182*
X1258802*
X1259825Y397714*
X1260506Y396776*
X1260847Y394901*
Y392557*
X1260506Y390214*
X1259825Y388807*
X1258802Y388339*
X1258120*
X1257097Y388807*
X1256756Y389745*
X1606307Y328078D02*
X1605625Y329016D01*
X1604602Y329484*
X1603239*
X1602216Y329016*
X1601534Y328078*
Y327141*
X1601875Y326203*
X1602216Y325734*
X1602898Y325266*
X1604943Y324328*
X1605625Y323859*
X1605966Y323391*
X1606307Y322453*
Y321047*
X1605625Y320109*
X1604602Y319641*
X1603239*
X1602216Y320109*
X1601534Y321047*
X1609375Y323391D02*
X1613466D01*
Y324328*
X1613125Y325266*
X1612784Y325734*
X1612102Y326203*
X1611080*
X1610398Y325734*
X1609716Y324797*
X1609375Y323391*
Y322453*
X1609716Y321047*
X1610398Y320109*
X1611080Y319641*
X1612102*
X1612784Y320109*
X1613466Y321047*
X1620625Y324797D02*
X1619943Y325734D01*
X1619261Y326203*
X1618239*
X1617557Y325734*
X1616875Y324797*
X1616534Y323391*
Y322453*
X1616875Y321047*
X1617557Y320109*
X1618239Y319641*
X1619261*
X1619943Y320109*
X1620625Y321047*
X1625398Y326203D02*
X1624716Y325734D01*
X1624034Y324797*
X1623693Y323391*
Y322453*
X1624034Y321047*
X1624716Y320109*
X1625398Y319641*
X1626420*
X1627102Y320109*
X1627784Y321047*
X1628125Y322453*
Y323391*
X1627784Y324797*
X1627102Y325734*
X1626420Y326203*
X1625398*
X1631193D02*
Y319641D01*
Y324328D02*
X1632216Y325734D01*
X1632898Y326203*
X1633920*
X1634602Y325734*
X1634943Y324328*
Y319641*
X1642102Y329484D02*
Y319641D01*
Y324797D02*
X1641420Y325734D01*
X1640739Y326203*
X1639716*
X1639034Y325734*
X1638352Y324797*
X1638011Y323391*
Y322453*
X1638352Y321047*
X1639034Y320109*
X1639716Y319641*
X1640739*
X1641420Y320109*
X1642102Y321047*
X1649261Y326203D02*
Y319641D01*
Y324797D02*
X1648580Y325734D01*
X1647898Y326203*
X1646875*
X1646193Y325734*
X1645511Y324797*
X1645170Y323391*
Y322453*
X1645511Y321047*
X1646193Y320109*
X1646875Y319641*
X1647898*
X1648580Y320109*
X1649261Y321047*
X1652330Y326203D02*
Y319641D01*
Y323391D02*
X1652670Y324797D01*
X1653352Y325734*
X1654034Y326203*
X1655057*
X1658466D02*
X1660511Y319641D01*
X1662557Y326203D02*
X1660511Y319641D01*
X1659830Y317766*
X1659148Y316828*
X1658466Y316359*
X1658125*
X1678239Y328078D02*
X1677557Y329016D01*
X1676534Y329484*
X1675170*
X1674148Y329016*
X1673466Y328078*
Y327141*
X1673807Y326203*
X1674148Y325734*
X1674830Y325266*
X1676875Y324328*
X1677557Y323859*
X1677898Y323391*
X1678239Y322453*
Y321047*
X1677557Y320109*
X1676534Y319641*
X1675170*
X1674148Y320109*
X1673466Y321047*
X1681307Y329484D02*
X1681648Y329016D01*
X1681989Y329484*
X1681648Y329953*
X1681307Y329484*
X1681648Y326203D02*
Y319641D01*
X1689148Y329484D02*
Y319641D01*
Y324797D02*
X1688466Y325734D01*
X1687784Y326203*
X1686761*
X1686080Y325734*
X1685398Y324797*
X1685057Y323391*
Y322453*
X1685398Y321047*
X1686080Y320109*
X1686761Y319641*
X1687784*
X1688466Y320109*
X1689148Y321047*
X1692216Y323391D02*
X1696307D01*
Y324328*
X1695966Y325266*
X1695625Y325734*
X1694943Y326203*
X1693920*
X1693239Y325734*
X1692557Y324797*
X1692216Y323391*
Y322453*
X1692557Y321047*
X1693239Y320109*
X1693920Y319641*
X1694943*
X1695625Y320109*
X1696307Y321047*
X1711989Y328078D02*
X1711307Y329016D01*
X1710284Y329484*
X1708920*
X1707898Y329016*
X1707216Y328078*
Y327141*
X1707557Y326203*
X1707898Y325734*
X1708580Y325266*
X1710625Y324328*
X1711307Y323859*
X1711648Y323391*
X1711989Y322453*
Y321047*
X1711307Y320109*
X1710284Y319641*
X1708920*
X1707898Y320109*
X1707216Y321047*
X1716761Y326203D02*
X1716080Y325734D01*
X1715398Y324797*
X1715057Y323391*
Y322453*
X1715398Y321047*
X1716080Y320109*
X1716761Y319641*
X1717784*
X1718466Y320109*
X1719148Y321047*
X1719489Y322453*
Y323391*
X1719148Y324797*
X1718466Y325734*
X1717784Y326203*
X1716761*
X1722557Y329484D02*
Y319641D01*
X1729716Y329484D02*
Y319641D01*
Y324797D02*
X1729034Y325734D01*
X1728352Y326203*
X1727330*
X1726648Y325734*
X1725966Y324797*
X1725625Y323391*
Y322453*
X1725966Y321047*
X1726648Y320109*
X1727330Y319641*
X1728352*
X1729034Y320109*
X1729716Y321047*
X1732784Y323391D02*
X1736875D01*
Y324328*
X1736534Y325266*
X1736193Y325734*
X1735511Y326203*
X1734489*
X1733807Y325734*
X1733125Y324797*
X1732784Y323391*
Y322453*
X1733125Y321047*
X1733807Y320109*
X1734489Y319641*
X1735511*
X1736193Y320109*
X1736875Y321047*
X1739943Y326203D02*
Y319641D01*
Y323391D02*
X1740284Y324797D01*
X1740966Y325734*
X1741648Y326203*
X1742670*
X1758352Y328078D02*
X1757670Y329016D01*
X1756648Y329484*
X1755284*
X1754261Y329016*
X1753580Y328078*
Y327141*
X1753920Y326203*
X1754261Y325734*
X1754943Y325266*
X1756989Y324328*
X1757670Y323859*
X1758011Y323391*
X1758352Y322453*
Y321047*
X1757670Y320109*
X1756648Y319641*
X1755284*
X1754261Y320109*
X1753580Y321047*
X1762443Y329484D02*
Y321516D01*
X1762784Y320109*
X1763466Y319641*
X1764148*
X1761420Y326203D02*
X1763807D01*
X1767216Y323391D02*
X1771307D01*
Y324328*
X1770966Y325266*
X1770625Y325734*
X1769943Y326203*
X1768920*
X1768239Y325734*
X1767557Y324797*
X1767216Y323391*
Y322453*
X1767557Y321047*
X1768239Y320109*
X1768920Y319641*
X1769943*
X1770625Y320109*
X1771307Y321047*
X1774375Y326203D02*
Y319641D01*
Y324328D02*
X1775398Y325734D01*
X1776080Y326203*
X1777102*
X1777784Y325734*
X1778125Y324328*
Y319641*
X1785284Y324797D02*
X1784602Y325734D01*
X1783920Y326203*
X1782898*
X1782216Y325734*
X1781534Y324797*
X1781193Y323391*
Y322453*
X1781534Y321047*
X1782216Y320109*
X1782898Y319641*
X1783920*
X1784602Y320109*
X1785284Y321047*
X1788352Y329484D02*
X1788693Y329016D01*
X1789034Y329484*
X1788693Y329953*
X1788352Y329484*
X1788693Y326203D02*
Y319641D01*
X1792102Y329484D02*
Y319641D01*
G54D194*
X565117Y309990D02*
X1843517D01*
Y1459490*
X565117*
Y309990*
X1123517D02*
X1843517D01*
Y504990*
X1123517*
Y309990*
X1408517Y449990D02*
X1843517D01*
Y309990*
X1408517*
Y449990*
Y339990D02*
X1843517D01*
Y309990*
X1408517*
Y339990*
X1568517*
Y309990*
X1408517*
Y339990*
Y449990D02*
X1843517D01*
Y504990*
X1408517*
Y449990*
Y379990D02*
X1843517D01*
Y449990*
X1408517*
Y379990*
X1708517Y339990D02*
X1843517D01*
Y379990*
X1708517*
Y339990*
X1123517D02*
X1283517D01*
Y309990*
X1123517*
Y339990*
X1283517Y309990D02*
X1408517D01*
Y339990*
X1283517*
Y309990*
G54D195*
X1315358Y842681D03*
Y854098D03*
X1361763Y842381D03*
Y853798D03*
G54D196*
X1328778Y900616D03*
Y916364D03*
G54D198*
X1085158Y1015890D03*
X1069158D03*
X0Y0D02*
M02*
