*
*
G04 PADS9.1 Build Number: 384028 generated Gerber (RS-274-X) file*
G04 PC Version=2.1*
*
%IN "{TEX113}_F2837x control"*%
*
%MOIN*%
*
%FSLAX35Y35*%
*
*
*
*
G04 PC Standard Apertures*
*
*
G04 Thermal Relief Aperture macro.*
%AMTER*
1,1,$1,0,0*
1,0,$1-$2,0,0*
21,0,$3,$4,0,0,45*
21,0,$3,$4,0,0,135*
%
*
*
G04 Annular Aperture macro.*
%AMANN*
1,1,$1,0,0*
1,0,$2,0,0*
%
*
*
G04 Odd Aperture macro.*
%AMODD*
1,1,$1,0,0*
1,0,$1-0.005,0,0*
%
*
*
G04 PC Custom Aperture Macros*
*
*
*
*
*
*
G04 PC Aperture Table*
*
%ADD038C,0.04*%
%ADD042C,0.001*%
%ADD047C,0.02*%
%ADD098C,0.062*%
%ADD133C,0.03*%
%ADD158C,0*%
%ADD188C,0.01*%
%ADD193C,0.028*%
%ADD194C,0.008*%
%ADD266C,0.017*%
%ADD277C,0.0055*%
*
*
*
*
G04 PC Circuitry*
G04 Layer Name {TEX113}_F2837x control - circuitry*
%LPD*%
*
*
G04 PC Custom Flashes*
G04 Layer Name {TEX113}_F2837x control - flashes*
%LPD*%
*
*
G04 PC Circuitry*
G04 Layer Name {TEX113}_F2837x control - circuitry*
%LPD*%
*
G54D38*
G01X1260654Y989752D03*
X1065356Y926390D03*
Y920390D03*
X1086356Y926390D03*
Y920390D03*
X1332054Y868752D03*
X1208154Y902846D03*
X1220654Y949346D03*
X1370154Y899846D03*
G54D42*
X1000000Y1013780D03*
Y1000000D03*
G54D47*
X1327531Y907453D03*
X1331469D03*
X1327531Y901547D03*
X1331469D03*
G54D98*
X1224154Y911846D03*
Y903972D03*
Y896098D03*
X1234154Y911846D03*
Y903972D03*
Y896098D03*
X1244154Y911846D03*
Y903972D03*
Y896098D03*
X1254154Y911846D03*
Y903972D03*
Y896098D03*
X1264154Y911846D03*
Y903972D03*
Y896098D03*
X1274154Y911846D03*
Y903972D03*
Y896098D03*
G54D133*
X1329500Y904500D03*
G54D158*
G54D188*
X1451097Y383484D02*
Y373641D01*
X1455187*
X1460983Y383484D02*
X1458256Y373641D01*
X1460983Y383484D02*
X1463710Y373641D01*
X1459278Y376922D02*
X1462687D01*
X1466778Y383484D02*
X1469506Y378797D01*
Y373641*
X1472233Y383484D02*
X1469506Y378797D01*
X1475301Y383484D02*
Y373641D01*
Y383484D02*
X1479733D01*
X1475301Y378797D02*
X1478028D01*
X1475301Y373641D02*
X1479733D01*
X1482801Y383484D02*
Y373641D01*
Y383484D02*
X1485869D01*
X1486892Y383016*
X1487233Y382547*
X1487574Y381609*
Y380672*
X1487233Y379734*
X1486892Y379266*
X1485869Y378797*
X1482801*
X1485187D02*
X1487574Y373641D01*
X1418244Y554334D02*
X1415517Y544490D01*
X1418244Y554334D02*
X1420972Y544490D01*
X1416540Y547771D02*
X1419949D01*
X1424040Y551052D02*
Y544490D01*
Y548240D02*
X1424381Y549646D01*
X1425063Y550584*
X1425744Y551052*
X1426767*
X1430858Y554334D02*
Y546365D01*
X1431199Y544959*
X1431881Y544490*
X1432563*
X1429835Y551052D02*
X1432222D01*
X1435631D02*
X1436994Y544490D01*
X1438358Y551052D02*
X1436994Y544490D01*
X1438358Y551052D02*
X1439722Y544490D01*
X1441085Y551052D02*
X1439722Y544490D01*
X1445858Y551052D02*
X1445176Y550584D01*
X1444494Y549646*
X1444153Y548240*
Y547302*
X1444494Y545896*
X1445176Y544959*
X1445858Y544490*
X1446881*
X1447563Y544959*
X1448244Y545896*
X1448585Y547302*
Y548240*
X1448244Y549646*
X1447563Y550584*
X1446881Y551052*
X1445858*
X1451653D02*
Y544490D01*
Y548240D02*
X1451994Y549646D01*
X1452676Y550584*
X1453358Y551052*
X1454381*
X1457449Y554334D02*
Y544490D01*
X1460858Y551052D02*
X1457449Y546365D01*
X1458813Y548240D02*
X1461199Y544490D01*
X1472108Y554334D02*
Y544490D01*
Y554334D02*
X1474494D01*
X1475517Y553865*
X1476199Y552927*
X1476540Y551990*
X1476881Y550584*
Y548240*
X1476540Y546834*
X1476199Y545896*
X1475517Y544959*
X1474494Y544490*
X1472108*
X1479949Y548240D02*
X1484040D01*
Y549177*
X1483699Y550115*
X1483358Y550584*
X1482676Y551052*
X1481653*
X1480972Y550584*
X1480290Y549646*
X1479949Y548240*
Y547302*
X1480290Y545896*
X1480972Y544959*
X1481653Y544490*
X1482676*
X1483358Y544959*
X1484040Y545896*
X1490858Y549646D02*
X1490517Y550584D01*
X1489494Y551052*
X1488472*
X1487449Y550584*
X1487108Y549646*
X1487449Y548709*
X1488131Y548240*
X1489835Y547771*
X1490517Y547302*
X1490858Y546365*
Y545896*
X1490517Y544959*
X1489494Y544490*
X1488472*
X1487449Y544959*
X1487108Y545896*
X1493926Y554334D02*
X1494267Y553865D01*
X1494608Y554334*
X1494267Y554802*
X1493926Y554334*
X1494267Y551052D02*
Y544490D01*
X1501767Y551052D02*
Y543552D01*
X1501426Y542146*
X1501085Y541677*
X1500403Y541209*
X1499381*
X1498699Y541677*
X1501767Y549646D02*
X1501085Y550584D01*
X1500403Y551052*
X1499381*
X1498699Y550584*
X1498017Y549646*
X1497676Y548240*
Y547302*
X1498017Y545896*
X1498699Y544959*
X1499381Y544490*
X1500403*
X1501085Y544959*
X1501767Y545896*
X1504835Y551052D02*
Y544490D01*
Y549177D02*
X1505858Y550584D01*
X1506540Y551052*
X1507563*
X1508244Y550584*
X1508585Y549177*
Y544490*
X1511653Y548240D02*
X1515744D01*
Y549177*
X1515403Y550115*
X1515063Y550584*
X1514381Y551052*
X1513358*
X1512676Y550584*
X1511994Y549646*
X1511653Y548240*
Y547302*
X1511994Y545896*
X1512676Y544959*
X1513358Y544490*
X1514381*
X1515063Y544959*
X1515744Y545896*
X1522903Y554334D02*
Y544490D01*
Y549646D02*
X1522222Y550584D01*
X1521540Y551052*
X1520517*
X1519835Y550584*
X1519153Y549646*
X1518813Y548240*
Y547302*
X1519153Y545896*
X1519835Y544959*
X1520517Y544490*
X1521540*
X1522222Y544959*
X1522903Y545896*
X1533813Y554334D02*
Y544490D01*
Y554334D02*
X1538244D01*
X1533813Y549646D02*
X1536540D01*
X1543017Y551052D02*
X1542335Y550584D01*
X1541653Y549646*
X1541313Y548240*
Y547302*
X1541653Y545896*
X1542335Y544959*
X1543017Y544490*
X1544040*
X1544722Y544959*
X1545403Y545896*
X1545744Y547302*
Y548240*
X1545403Y549646*
X1544722Y550584*
X1544040Y551052*
X1543017*
X1548813D02*
Y544490D01*
Y548240D02*
X1549153Y549646D01*
X1549835Y550584*
X1550517Y551052*
X1551540*
X1554949D02*
X1554608Y550584D01*
X1554949Y550115*
X1555290Y550584*
X1554949Y551052*
Y545427D02*
X1554608Y544959D01*
X1554949Y544490*
X1555290Y544959*
X1554949Y545427*
X1415517Y499334D02*
Y489490D01*
Y499334D02*
X1418585D01*
X1419608Y498865*
X1419949Y498396*
X1420290Y497459*
Y496521*
X1419949Y495584*
X1419608Y495115*
X1418585Y494646*
X1415517D02*
X1418585D01*
X1419608Y494177*
X1419949Y493709*
X1420290Y492771*
Y491365*
X1419949Y490427*
X1419608Y489959*
X1418585Y489490*
X1415517*
X1425063Y496052D02*
X1424381Y495584D01*
X1423699Y494646*
X1423358Y493240*
Y492302*
X1423699Y490896*
X1424381Y489959*
X1425063Y489490*
X1426085*
X1426767Y489959*
X1427449Y490896*
X1427790Y492302*
Y493240*
X1427449Y494646*
X1426767Y495584*
X1426085Y496052*
X1425063*
X1434949D02*
Y489490D01*
Y494646D02*
X1434267Y495584D01*
X1433585Y496052*
X1432563*
X1431881Y495584*
X1431199Y494646*
X1430858Y493240*
Y492302*
X1431199Y490896*
X1431881Y489959*
X1432563Y489490*
X1433585*
X1434267Y489959*
X1434949Y490896*
X1438017Y496052D02*
Y489490D01*
Y493240D02*
X1438358Y494646D01*
X1439040Y495584*
X1439722Y496052*
X1440744*
X1447903Y499334D02*
Y489490D01*
Y494646D02*
X1447222Y495584D01*
X1446540Y496052*
X1445517*
X1444835Y495584*
X1444153Y494646*
X1443813Y493240*
Y492302*
X1444153Y490896*
X1444835Y489959*
X1445517Y489490*
X1446540*
X1447222Y489959*
X1447903Y490896*
X1458813Y499334D02*
Y489490D01*
Y499334D02*
X1461199D01*
X1462222Y498865*
X1462903Y497927*
X1463244Y496990*
X1463585Y495584*
Y493240*
X1463244Y491834*
X1462903Y490896*
X1462222Y489959*
X1461199Y489490*
X1458813*
X1466653Y493240D02*
X1470744D01*
Y494177*
X1470403Y495115*
X1470063Y495584*
X1469381Y496052*
X1468358*
X1467676Y495584*
X1466994Y494646*
X1466653Y493240*
Y492302*
X1466994Y490896*
X1467676Y489959*
X1468358Y489490*
X1469381*
X1470063Y489959*
X1470744Y490896*
X1477563Y494646D02*
X1477222Y495584D01*
X1476199Y496052*
X1475176*
X1474153Y495584*
X1473813Y494646*
X1474153Y493709*
X1474835Y493240*
X1476540Y492771*
X1477222Y492302*
X1477563Y491365*
Y490896*
X1477222Y489959*
X1476199Y489490*
X1475176*
X1474153Y489959*
X1473813Y490896*
X1484722Y494646D02*
X1484040Y495584D01*
X1483358Y496052*
X1482335*
X1481653Y495584*
X1480972Y494646*
X1480631Y493240*
Y492302*
X1480972Y490896*
X1481653Y489959*
X1482335Y489490*
X1483358*
X1484040Y489959*
X1484722Y490896*
X1487790Y496052D02*
Y489490D01*
Y493240D02*
X1488131Y494646D01*
X1488813Y495584*
X1489494Y496052*
X1490517*
X1493585Y499334D02*
X1493926Y498865D01*
X1494267Y499334*
X1493926Y499802*
X1493585Y499334*
X1493926Y496052D02*
Y489490D01*
X1497335Y496052D02*
Y486209D01*
Y494646D02*
X1498017Y495584D01*
X1498699Y496052*
X1499722*
X1500403Y495584*
X1501085Y494646*
X1501426Y493240*
Y492302*
X1501085Y490896*
X1500403Y489959*
X1499722Y489490*
X1498699*
X1498017Y489959*
X1497335Y490896*
X1505517Y499334D02*
Y491365D01*
X1505858Y489959*
X1506540Y489490*
X1507222*
X1504494Y496052D02*
X1506881D01*
X1510290Y499334D02*
X1510631Y498865D01*
X1510972Y499334*
X1510631Y499802*
X1510290Y499334*
X1510631Y496052D02*
Y489490D01*
X1515744Y496052D02*
X1515063Y495584D01*
X1514381Y494646*
X1514040Y493240*
Y492302*
X1514381Y490896*
X1515063Y489959*
X1515744Y489490*
X1516767*
X1517449Y489959*
X1518131Y490896*
X1518472Y492302*
Y493240*
X1518131Y494646*
X1517449Y495584*
X1516767Y496052*
X1515744*
X1521540D02*
Y489490D01*
Y494177D02*
X1522563Y495584D01*
X1523244Y496052*
X1524267*
X1524949Y495584*
X1525290Y494177*
Y489490*
X1528699Y496052D02*
X1528358Y495584D01*
X1528699Y495115*
X1529040Y495584*
X1528699Y496052*
Y490427D02*
X1528358Y489959D01*
X1528699Y489490*
X1529040Y489959*
X1528699Y490427*
X1415517Y429334D02*
Y419490D01*
Y429334D02*
X1418585D01*
X1419608Y428865*
X1419949Y428396*
X1420290Y427459*
Y426052*
X1419949Y425115*
X1419608Y424646*
X1418585Y424177*
X1415517*
X1427449Y426052D02*
Y419490D01*
Y424646D02*
X1426767Y425584D01*
X1426085Y426052*
X1425063*
X1424381Y425584*
X1423699Y424646*
X1423358Y423240*
Y422302*
X1423699Y420896*
X1424381Y419959*
X1425063Y419490*
X1426085*
X1426767Y419959*
X1427449Y420896*
X1430517Y426052D02*
Y419490D01*
Y423240D02*
X1430858Y424646D01*
X1431540Y425584*
X1432222Y426052*
X1433244*
X1437335Y429334D02*
Y421365D01*
X1437676Y419959*
X1438358Y419490*
X1439040*
X1436313Y426052D02*
X1438699D01*
X1449949Y429334D02*
Y419490D01*
Y429334D02*
X1454722Y419490D01*
Y429334D02*
Y419490D01*
X1459494Y426052D02*
X1458813Y425584D01*
X1458131Y424646*
X1457790Y423240*
Y422302*
X1458131Y420896*
X1458813Y419959*
X1459494Y419490*
X1460517*
X1461199Y419959*
X1461881Y420896*
X1462222Y422302*
Y423240*
X1461881Y424646*
X1461199Y425584*
X1460517Y426052*
X1459494*
X1465631D02*
X1465290Y425584D01*
X1465631Y425115*
X1465972Y425584*
X1465631Y426052*
Y420427D02*
X1465290Y419959D01*
X1465631Y419490*
X1465972Y419959*
X1465631Y420427*
X1715517Y429334D02*
Y419490D01*
Y429334D02*
X1718585D01*
X1719608Y428865*
X1719949Y428396*
X1720290Y427459*
Y426521*
X1719949Y425584*
X1719608Y425115*
X1718585Y424646*
X1715517*
X1717903D02*
X1720290Y419490D01*
X1723358Y423240D02*
X1727449D01*
Y424177*
X1727108Y425115*
X1726767Y425584*
X1726085Y426052*
X1725063*
X1724381Y425584*
X1723699Y424646*
X1723358Y423240*
Y422302*
X1723699Y420896*
X1724381Y419959*
X1725063Y419490*
X1726085*
X1726767Y419959*
X1727449Y420896*
X1730517Y426052D02*
X1732563Y419490D01*
X1734608Y426052D02*
X1732563Y419490D01*
X1737676Y429334D02*
X1738017Y428865D01*
X1738358Y429334*
X1738017Y429802*
X1737676Y429334*
X1738017Y426052D02*
Y419490D01*
X1745176Y424646D02*
X1744835Y425584D01*
X1743813Y426052*
X1742790*
X1741767Y425584*
X1741426Y424646*
X1741767Y423709*
X1742449Y423240*
X1744153Y422771*
X1744835Y422302*
X1745176Y421365*
Y420896*
X1744835Y419959*
X1743813Y419490*
X1742790*
X1741767Y419959*
X1741426Y420896*
X1748244Y429334D02*
X1748585Y428865D01*
X1748926Y429334*
X1748585Y429802*
X1748244Y429334*
X1748585Y426052D02*
Y419490D01*
X1753699Y426052D02*
X1753017Y425584D01*
X1752335Y424646*
X1751994Y423240*
Y422302*
X1752335Y420896*
X1753017Y419959*
X1753699Y419490*
X1754722*
X1755403Y419959*
X1756085Y420896*
X1756426Y422302*
Y423240*
X1756085Y424646*
X1755403Y425584*
X1754722Y426052*
X1753699*
X1759494D02*
Y419490D01*
Y424177D02*
X1760517Y425584D01*
X1761199Y426052*
X1762222*
X1762903Y425584*
X1763244Y424177*
Y419490*
X1766653Y426052D02*
X1766313Y425584D01*
X1766653Y425115*
X1766994Y425584*
X1766653Y426052*
Y420427D02*
X1766313Y419959D01*
X1766653Y419490*
X1766994Y419959*
X1766653Y420427*
X1510517Y417615D02*
Y404490D01*
Y417615D02*
X1516426D01*
X1510517Y411365D02*
X1514153D01*
X1520972Y414490D02*
Y415115D01*
X1521426Y416365*
X1521881Y416990*
X1522790Y417615*
X1524608*
X1525517Y416990*
X1525972Y416365*
X1526426Y415115*
Y413865*
X1525972Y412615*
X1525063Y410740*
X1520517Y404490*
X1526881*
X1533244Y417615D02*
X1531881Y416990D01*
X1531426Y415740*
Y414490*
X1531881Y413240*
X1532790Y412615*
X1534608Y411990*
X1535972Y411365*
X1536881Y410115*
X1537335Y408865*
Y406990*
X1536881Y405740*
X1536426Y405115*
X1535063Y404490*
X1533244*
X1531881Y405115*
X1531426Y405740*
X1530972Y406990*
Y408865*
X1531426Y410115*
X1532335Y411365*
X1533699Y411990*
X1535517Y412615*
X1536426Y413240*
X1536881Y414490*
Y415740*
X1536426Y416990*
X1535063Y417615*
X1533244*
X1542335D02*
X1547335D01*
X1544608Y412615*
X1545972*
X1546881Y411990*
X1547335Y411365*
X1547790Y409490*
Y408240*
X1547335Y406365*
X1546426Y405115*
X1545063Y404490*
X1543699*
X1542335Y405115*
X1541881Y405740*
X1541426Y406990*
X1558244Y417615D02*
X1553699Y404490D01*
X1551881Y417615D02*
X1558244D01*
X1562335Y413240D02*
X1567335Y404490D01*
Y413240D02*
X1562335Y404490D01*
X1587335Y411365D02*
X1586426Y412615D01*
X1585517Y413240*
X1584153*
X1583244Y412615*
X1582335Y411365*
X1581881Y409490*
Y408240*
X1582335Y406365*
X1583244Y405115*
X1584153Y404490*
X1585517*
X1586426Y405115*
X1587335Y406365*
X1593699Y413240D02*
X1592790Y412615D01*
X1591881Y411365*
X1591426Y409490*
Y408240*
X1591881Y406365*
X1592790Y405115*
X1593699Y404490*
X1595063*
X1595972Y405115*
X1596881Y406365*
X1597335Y408240*
Y409490*
X1596881Y411365*
X1595972Y412615*
X1595063Y413240*
X1593699*
X1601426D02*
Y404490D01*
Y410740D02*
X1602790Y412615D01*
X1603699Y413240*
X1605063*
X1605972Y412615*
X1606426Y410740*
Y404490*
X1611881Y417615D02*
Y406990D01*
X1612335Y405115*
X1613244Y404490*
X1614153*
X1610517Y413240D02*
X1613699D01*
X1618244D02*
Y404490D01*
Y409490D02*
X1618699Y411365D01*
X1619608Y412615*
X1620517Y413240*
X1621881*
X1628244D02*
X1627335Y412615D01*
X1626426Y411365*
X1625972Y409490*
Y408240*
X1626426Y406365*
X1627335Y405115*
X1628244Y404490*
X1629608*
X1630517Y405115*
X1631426Y406365*
X1631881Y408240*
Y409490*
X1631426Y411365*
X1630517Y412615*
X1629608Y413240*
X1628244*
X1635972Y417615D02*
Y404490D01*
X1646881Y414490D02*
X1646426Y415740D01*
X1645517Y416990*
X1644608Y417615*
X1642790*
X1641881Y416990*
X1640972Y415740*
X1640517Y414490*
X1640063Y412615*
Y409490*
X1640517Y407615*
X1640972Y406365*
X1641881Y405115*
X1642790Y404490*
X1644608*
X1645517Y405115*
X1646426Y406365*
X1646881Y407615*
X1654608Y417615D02*
X1650972Y404490D01*
X1654608Y417615D02*
X1658244Y404490D01*
X1652335Y408865D02*
X1656881D01*
X1662335Y417615D02*
Y404490D01*
Y417615D02*
X1666426D01*
X1667790Y416990*
X1668244Y416365*
X1668699Y415115*
Y413865*
X1668244Y412615*
X1667790Y411990*
X1666426Y411365*
X1662335*
X1665517D02*
X1668699Y404490D01*
X1672790Y417615D02*
Y404490D01*
Y417615D02*
X1675972D01*
X1677335Y416990*
X1678244Y415740*
X1678699Y414490*
X1679153Y412615*
Y409490*
X1678699Y407615*
X1678244Y406365*
X1677335Y405115*
X1675972Y404490*
X1672790*
X1796835Y415115D02*
X1797744Y415740D01*
X1799108Y417615*
Y404490*
X1803653Y405740D02*
X1803199Y405115D01*
X1803653Y404490*
X1804108Y405115*
X1803653Y405740*
X1808199Y415115D02*
X1809108Y415740D01*
X1810472Y417615*
Y404490*
X1548199Y529802D02*
Y516677D01*
X1545017Y529802D02*
X1551381D01*
X1555472D02*
Y516677D01*
Y529802D02*
X1561381D01*
X1555472Y523552D02*
X1559108D01*
X1555472Y516677D02*
X1561381D01*
X1565472Y529802D02*
X1571835Y516677D01*
Y529802D02*
X1565472Y516677D01*
X1579563Y529802D02*
X1575926Y516677D01*
X1579563Y529802D02*
X1583199Y516677D01*
X1577290Y521052D02*
X1581835D01*
X1593653Y527927D02*
X1592744Y529177D01*
X1591381Y529802*
X1589563*
X1588199Y529177*
X1587290Y527927*
Y526677*
X1587744Y525427*
X1588199Y524802*
X1589108Y524177*
X1591835Y522927*
X1592744Y522302*
X1593199Y521677*
X1593653Y520427*
Y518552*
X1592744Y517302*
X1591381Y516677*
X1589563*
X1588199Y517302*
X1587290Y518552*
X1608199Y529802D02*
Y516677D01*
X1612290Y529802D02*
Y516677D01*
Y529802D02*
X1618653Y516677D01*
Y529802D02*
Y516677D01*
X1629108Y527927D02*
X1628199Y529177D01*
X1626835Y529802*
X1625017*
X1623653Y529177*
X1622744Y527927*
Y526677*
X1623199Y525427*
X1623653Y524802*
X1624563Y524177*
X1627290Y522927*
X1628199Y522302*
X1628653Y521677*
X1629108Y520427*
Y518552*
X1628199Y517302*
X1626835Y516677*
X1625017*
X1623653Y517302*
X1622744Y518552*
X1636381Y529802D02*
Y516677D01*
X1633199Y529802D02*
X1639563D01*
X1643653D02*
Y516677D01*
Y529802D02*
X1647744D01*
X1649108Y529177*
X1649563Y528552*
X1650017Y527302*
Y526052*
X1649563Y524802*
X1649108Y524177*
X1647744Y523552*
X1643653*
X1646835D02*
X1650017Y516677D01*
X1654108Y529802D02*
Y520427D01*
X1654563Y518552*
X1655472Y517302*
X1656835Y516677*
X1657744*
X1659108Y517302*
X1660017Y518552*
X1660472Y520427*
Y529802*
X1664563D02*
Y516677D01*
Y529802D02*
X1668199Y516677D01*
X1671835Y529802D02*
X1668199Y516677D01*
X1671835Y529802D02*
Y516677D01*
X1675926Y529802D02*
Y516677D01*
Y529802D02*
X1681835D01*
X1675926Y523552D02*
X1679563D01*
X1675926Y516677D02*
X1681835D01*
X1685926Y529802D02*
Y516677D01*
Y529802D02*
X1692290Y516677D01*
Y529802D02*
Y516677D01*
X1699563Y529802D02*
Y516677D01*
X1696381Y529802D02*
X1702744D01*
X1713199Y527927D02*
X1712290Y529177D01*
X1710926Y529802*
X1709108*
X1707744Y529177*
X1706835Y527927*
Y526677*
X1707290Y525427*
X1707744Y524802*
X1708653Y524177*
X1711381Y522927*
X1712290Y522302*
X1712744Y521677*
X1713199Y520427*
Y518552*
X1712290Y517302*
X1710926Y516677*
X1709108*
X1707744Y517302*
X1706835Y518552*
X1543881Y479802D02*
Y466677D01*
Y479802D02*
X1549790D01*
X1543881Y473552D02*
X1547517D01*
X1554335Y476677D02*
Y477302D01*
X1554790Y478552*
X1555244Y479177*
X1556153Y479802*
X1557972*
X1558881Y479177*
X1559335Y478552*
X1559790Y477302*
Y476052*
X1559335Y474802*
X1558426Y472927*
X1553881Y466677*
X1560244*
X1566608Y479802D02*
X1565244Y479177D01*
X1564790Y477927*
Y476677*
X1565244Y475427*
X1566153Y474802*
X1567972Y474177*
X1569335Y473552*
X1570244Y472302*
X1570699Y471052*
Y469177*
X1570244Y467927*
X1569790Y467302*
X1568426Y466677*
X1566608*
X1565244Y467302*
X1564790Y467927*
X1564335Y469177*
Y471052*
X1564790Y472302*
X1565699Y473552*
X1567063Y474177*
X1568881Y474802*
X1569790Y475427*
X1570244Y476677*
Y477927*
X1569790Y479177*
X1568426Y479802*
X1566608*
X1575699D02*
X1580699D01*
X1577972Y474802*
X1579335*
X1580244Y474177*
X1580699Y473552*
X1581153Y471677*
Y470427*
X1580699Y468552*
X1579790Y467302*
X1578426Y466677*
X1577063*
X1575699Y467302*
X1575244Y467927*
X1574790Y469177*
X1586153Y479802D02*
X1591153D01*
X1588426Y474802*
X1589790*
X1590699Y474177*
X1591153Y473552*
X1591608Y471677*
Y470427*
X1591153Y468552*
X1590244Y467302*
X1588881Y466677*
X1587517*
X1586153Y467302*
X1585699Y467927*
X1585244Y469177*
X1601608Y479802D02*
X1597063D01*
X1596608Y474177*
X1597063Y474802*
X1598426Y475427*
X1599790*
X1601153Y474802*
X1602063Y473552*
X1602517Y471677*
X1602063Y470427*
X1601608Y468552*
X1600699Y467302*
X1599335Y466677*
X1597972*
X1596608Y467302*
X1596153Y467927*
X1595699Y469177*
X1622517Y473552D02*
X1621608Y474802D01*
X1620699Y475427*
X1619335*
X1618426Y474802*
X1617517Y473552*
X1617063Y471677*
Y470427*
X1617517Y468552*
X1618426Y467302*
X1619335Y466677*
X1620699*
X1621608Y467302*
X1622517Y468552*
X1628881Y475427D02*
X1627972Y474802D01*
X1627063Y473552*
X1626608Y471677*
Y470427*
X1627063Y468552*
X1627972Y467302*
X1628881Y466677*
X1630244*
X1631153Y467302*
X1632063Y468552*
X1632517Y470427*
Y471677*
X1632063Y473552*
X1631153Y474802*
X1630244Y475427*
X1628881*
X1636608D02*
Y466677D01*
Y472927D02*
X1637972Y474802D01*
X1638881Y475427*
X1640244*
X1641153Y474802*
X1641608Y472927*
Y466677*
X1647063Y479802D02*
Y469177D01*
X1647517Y467302*
X1648426Y466677*
X1649335*
X1645699Y475427D02*
X1648881D01*
X1653426D02*
Y466677D01*
Y471677D02*
X1653881Y473552D01*
X1654790Y474802*
X1655699Y475427*
X1657063*
X1663426D02*
X1662517Y474802D01*
X1661608Y473552*
X1661153Y471677*
Y470427*
X1661608Y468552*
X1662517Y467302*
X1663426Y466677*
X1664790*
X1665699Y467302*
X1666608Y468552*
X1667063Y470427*
Y471677*
X1666608Y473552*
X1665699Y474802*
X1664790Y475427*
X1663426*
X1671153Y479802D02*
Y466677D01*
X1682063Y476677D02*
X1681608Y477927D01*
X1680699Y479177*
X1679790Y479802*
X1677972*
X1677063Y479177*
X1676153Y477927*
X1675699Y476677*
X1675244Y474802*
Y471677*
X1675699Y469802*
X1676153Y468552*
X1677063Y467302*
X1677972Y466677*
X1679790*
X1680699Y467302*
X1681608Y468552*
X1682063Y469802*
X1689790Y479802D02*
X1686153Y466677D01*
X1689790Y479802D02*
X1693426Y466677D01*
X1687517Y471052D02*
X1692063D01*
X1697517Y479802D02*
Y466677D01*
Y479802D02*
X1701608D01*
X1702972Y479177*
X1703426Y478552*
X1703881Y477302*
Y476052*
X1703426Y474802*
X1702972Y474177*
X1701608Y473552*
X1697517*
X1700699D02*
X1703881Y466677D01*
X1707972Y479802D02*
Y466677D01*
Y479802D02*
X1711153D01*
X1712517Y479177*
X1713426Y477927*
X1713881Y476677*
X1714335Y474802*
Y471677*
X1713881Y469802*
X1713426Y468552*
X1712517Y467302*
X1711153Y466677*
X1707972*
X1133244Y554334D02*
X1130517Y544490D01*
X1133244Y554334D02*
X1135972Y544490D01*
X1131540Y547771D02*
X1134949D01*
X1139040Y551052D02*
Y544490D01*
Y548240D02*
X1139381Y549646D01*
X1140063Y550584*
X1140744Y551052*
X1141767*
X1145858Y554334D02*
Y546365D01*
X1146199Y544959*
X1146881Y544490*
X1147563*
X1144835Y551052D02*
X1147222D01*
X1150631D02*
X1151994Y544490D01*
X1153358Y551052D02*
X1151994Y544490D01*
X1153358Y551052D02*
X1154722Y544490D01*
X1156085Y551052D02*
X1154722Y544490D01*
X1160858Y551052D02*
X1160176Y550584D01*
X1159494Y549646*
X1159153Y548240*
Y547302*
X1159494Y545896*
X1160176Y544959*
X1160858Y544490*
X1161881*
X1162563Y544959*
X1163244Y545896*
X1163585Y547302*
Y548240*
X1163244Y549646*
X1162563Y550584*
X1161881Y551052*
X1160858*
X1166653D02*
Y544490D01*
Y548240D02*
X1166994Y549646D01*
X1167676Y550584*
X1168358Y551052*
X1169381*
X1172449Y554334D02*
Y544490D01*
X1175858Y551052D02*
X1172449Y546365D01*
X1173813Y548240D02*
X1176199Y544490D01*
X1187108Y554334D02*
Y544490D01*
Y554334D02*
X1189494D01*
X1190517Y553865*
X1191199Y552927*
X1191540Y551990*
X1191881Y550584*
Y548240*
X1191540Y546834*
X1191199Y545896*
X1190517Y544959*
X1189494Y544490*
X1187108*
X1194949Y548240D02*
X1199040D01*
Y549177*
X1198699Y550115*
X1198358Y550584*
X1197676Y551052*
X1196653*
X1195972Y550584*
X1195290Y549646*
X1194949Y548240*
Y547302*
X1195290Y545896*
X1195972Y544959*
X1196653Y544490*
X1197676*
X1198358Y544959*
X1199040Y545896*
X1205858Y549646D02*
X1205517Y550584D01*
X1204494Y551052*
X1203472*
X1202449Y550584*
X1202108Y549646*
X1202449Y548709*
X1203131Y548240*
X1204835Y547771*
X1205517Y547302*
X1205858Y546365*
Y545896*
X1205517Y544959*
X1204494Y544490*
X1203472*
X1202449Y544959*
X1202108Y545896*
X1208926Y554334D02*
X1209267Y553865D01*
X1209608Y554334*
X1209267Y554802*
X1208926Y554334*
X1209267Y551052D02*
Y544490D01*
X1216767Y551052D02*
Y543552D01*
X1216426Y542146*
X1216085Y541677*
X1215403Y541209*
X1214381*
X1213699Y541677*
X1216767Y549646D02*
X1216085Y550584D01*
X1215403Y551052*
X1214381*
X1213699Y550584*
X1213017Y549646*
X1212676Y548240*
Y547302*
X1213017Y545896*
X1213699Y544959*
X1214381Y544490*
X1215403*
X1216085Y544959*
X1216767Y545896*
X1219835Y551052D02*
Y544490D01*
Y549177D02*
X1220858Y550584D01*
X1221540Y551052*
X1222563*
X1223244Y550584*
X1223585Y549177*
Y544490*
X1226653Y548240D02*
X1230744D01*
Y549177*
X1230403Y550115*
X1230063Y550584*
X1229381Y551052*
X1228358*
X1227676Y550584*
X1226994Y549646*
X1226653Y548240*
Y547302*
X1226994Y545896*
X1227676Y544959*
X1228358Y544490*
X1229381*
X1230063Y544959*
X1230744Y545896*
X1237903Y554334D02*
Y544490D01*
Y549646D02*
X1237222Y550584D01*
X1236540Y551052*
X1235517*
X1234835Y550584*
X1234153Y549646*
X1233813Y548240*
Y547302*
X1234153Y545896*
X1234835Y544959*
X1235517Y544490*
X1236540*
X1237222Y544959*
X1237903Y545896*
X1248813Y554334D02*
Y544490D01*
Y554334D02*
X1251881D01*
X1252903Y553865*
X1253244Y553396*
X1253585Y552459*
Y551521*
X1253244Y550584*
X1252903Y550115*
X1251881Y549646*
X1248813D02*
X1251881D01*
X1252903Y549177*
X1253244Y548709*
X1253585Y547771*
Y546365*
X1253244Y545427*
X1252903Y544959*
X1251881Y544490*
X1248813*
X1256994Y551052D02*
X1259040Y544490D01*
X1261085Y551052D02*
X1259040Y544490D01*
X1258358Y542615*
X1257676Y541677*
X1256994Y541209*
X1256653*
X1264494Y551052D02*
X1264153Y550584D01*
X1264494Y550115*
X1264835Y550584*
X1264494Y551052*
Y545427D02*
X1264153Y544959D01*
X1264494Y544490*
X1264835Y544959*
X1264494Y545427*
X1133926Y389334D02*
Y381834D01*
X1133585Y380427*
X1133244Y379959*
X1132563Y379490*
X1131881*
X1131199Y379959*
X1130858Y380427*
X1130517Y381834*
Y382771*
X1138699Y386052D02*
X1138017Y385584D01*
X1137335Y384646*
X1136994Y383240*
Y382302*
X1137335Y380896*
X1138017Y379959*
X1138699Y379490*
X1139722*
X1140403Y379959*
X1141085Y380896*
X1141426Y382302*
Y383240*
X1141085Y384646*
X1140403Y385584*
X1139722Y386052*
X1138699*
X1144494Y389334D02*
Y379490D01*
Y384646D02*
X1145176Y385584D01*
X1145858Y386052*
X1146881*
X1147563Y385584*
X1148244Y384646*
X1148585Y383240*
Y382302*
X1148244Y380896*
X1147563Y379959*
X1146881Y379490*
X1145858*
X1145176Y379959*
X1144494Y380896*
X1159494Y389334D02*
Y379490D01*
Y389334D02*
X1164267Y379490D01*
Y389334D02*
Y379490D01*
X1169040Y386052D02*
X1168358Y385584D01*
X1167676Y384646*
X1167335Y383240*
Y382302*
X1167676Y380896*
X1168358Y379959*
X1169040Y379490*
X1170063*
X1170744Y379959*
X1171426Y380896*
X1171767Y382302*
Y383240*
X1171426Y384646*
X1170744Y385584*
X1170063Y386052*
X1169040*
X1175176D02*
X1174835Y385584D01*
X1175176Y385115*
X1175517Y385584*
X1175176Y386052*
Y380427D02*
X1174835Y379959D01*
X1175176Y379490*
X1175517Y379959*
X1175176Y380427*
X1204790Y384802D02*
Y371677D01*
X1201608Y384802D02*
X1207972D01*
X1212063D02*
Y371677D01*
Y384802D02*
X1217972D01*
X1212063Y378552D02*
X1215699D01*
X1212063Y371677D02*
X1217972D01*
X1222063Y384802D02*
X1228426Y371677D01*
Y384802D02*
X1222063Y371677D01*
X1232972Y372927D02*
X1232517Y372302D01*
X1232972Y371677*
X1233426Y372302*
X1232972Y372927*
X1237517Y382302D02*
X1238426Y382927D01*
X1239790Y384802*
Y371677*
X1243881Y382302D02*
X1244790Y382927D01*
X1246153Y384802*
Y371677*
X1251153Y384802D02*
X1256153D01*
X1253426Y379802*
X1254790*
X1255699Y379177*
X1256153Y378552*
X1256608Y376677*
Y375427*
X1256153Y373552*
X1255244Y372302*
X1253881Y371677*
X1252517*
X1251153Y372302*
X1250699Y372927*
X1250244Y374177*
X1290517Y389334D02*
Y379490D01*
Y389334D02*
X1292903D01*
X1293926Y388865*
X1294608Y387927*
X1294949Y386990*
X1295290Y385584*
Y383240*
X1294949Y381834*
X1294608Y380896*
X1293926Y379959*
X1292903Y379490*
X1290517*
X1302449Y386052D02*
Y379490D01*
Y384646D02*
X1301767Y385584D01*
X1301085Y386052*
X1300063*
X1299381Y385584*
X1298699Y384646*
X1298358Y383240*
Y382302*
X1298699Y380896*
X1299381Y379959*
X1300063Y379490*
X1301085*
X1301767Y379959*
X1302449Y380896*
X1306540Y389334D02*
Y381365D01*
X1306881Y379959*
X1307563Y379490*
X1308244*
X1305517Y386052D02*
X1307903D01*
X1311313Y383240D02*
X1315403D01*
Y384177*
X1315063Y385115*
X1314722Y385584*
X1314040Y386052*
X1313017*
X1312335Y385584*
X1311653Y384646*
X1311313Y383240*
Y382302*
X1311653Y380896*
X1312335Y379959*
X1313017Y379490*
X1314040*
X1314722Y379959*
X1315403Y380896*
X1318813Y386052D02*
X1318472Y385584D01*
X1318813Y385115*
X1319153Y385584*
X1318813Y386052*
Y380427D02*
X1318472Y379959D01*
X1318813Y379490*
X1319153Y379959*
X1318813Y380427*
X1326608Y382302D02*
X1327517Y382927D01*
X1328881Y384802*
Y371677*
X1335699Y384802D02*
X1334335Y384177D01*
X1333426Y382302*
X1332972Y379177*
Y377302*
X1333426Y374177*
X1334335Y372302*
X1335699Y371677*
X1336608*
X1337972Y372302*
X1338881Y374177*
X1339335Y377302*
Y379177*
X1338881Y382302*
X1337972Y384177*
X1336608Y384802*
X1335699*
X1351608Y387302D02*
X1343426Y367302D01*
X1356153Y381677D02*
Y382302D01*
X1356608Y383552*
X1357063Y384177*
X1357972Y384802*
X1359790*
X1360699Y384177*
X1361153Y383552*
X1361608Y382302*
Y381052*
X1361153Y379802*
X1360244Y377927*
X1355699Y371677*
X1362063*
X1367063Y384802D02*
X1372063D01*
X1369335Y379802*
X1370699*
X1371608Y379177*
X1372063Y378552*
X1372517Y376677*
Y375427*
X1372063Y373552*
X1371153Y372302*
X1369790Y371677*
X1368426*
X1367063Y372302*
X1366608Y372927*
X1366153Y374177*
X1384790Y387302D02*
X1376608Y367302D01*
X1388881Y382302D02*
X1389790Y382927D01*
X1391153Y384802*
Y371677*
X1396153Y384802D02*
X1401153D01*
X1398426Y379802*
X1399790*
X1400699Y379177*
X1401153Y378552*
X1401608Y376677*
Y375427*
X1401153Y373552*
X1400244Y372302*
X1398881Y371677*
X1397517*
X1396153Y372302*
X1395699Y372927*
X1395244Y374177*
X1152017Y521534D02*
X1153722Y511690D01*
X1155426Y521534D02*
X1153722Y511690D01*
X1155426Y521534D02*
X1157131Y511690D01*
X1158835Y521534D02*
X1157131Y511690D01*
X1161903Y521534D02*
X1162244Y521065D01*
X1162585Y521534*
X1162244Y522002*
X1161903Y521534*
X1162244Y518252D02*
Y511690D01*
X1165653Y521534D02*
Y511690D01*
X1168722Y521534D02*
Y511690D01*
X1173494Y518252D02*
X1172813Y517784D01*
X1172131Y516846*
X1171790Y515440*
Y514502*
X1172131Y513096*
X1172813Y512159*
X1173494Y511690*
X1174517*
X1175199Y512159*
X1175881Y513096*
X1176222Y514502*
Y515440*
X1175881Y516846*
X1175199Y517784*
X1174517Y518252*
X1173494*
X1179290D02*
X1180653Y511690D01*
X1182017Y518252D02*
X1180653Y511690D01*
X1182017Y518252D02*
X1183381Y511690D01*
X1184744Y518252D02*
X1183381Y511690D01*
X1200426Y520127D02*
X1199744Y521065D01*
X1198722Y521534*
X1197358*
X1196335Y521065*
X1195653Y520127*
Y519190*
X1195994Y518252*
X1196335Y517784*
X1197017Y517315*
X1199063Y516377*
X1199744Y515909*
X1200085Y515440*
X1200426Y514502*
Y513096*
X1199744Y512159*
X1198722Y511690*
X1197358*
X1196335Y512159*
X1195653Y513096*
X1203494Y518252D02*
Y508409D01*
Y516846D02*
X1204176Y517784D01*
X1204858Y518252*
X1205881*
X1206563Y517784*
X1207244Y516846*
X1207585Y515440*
Y514502*
X1207244Y513096*
X1206563Y512159*
X1205881Y511690*
X1204858*
X1204176Y512159*
X1203494Y513096*
X1210653Y518252D02*
Y511690D01*
Y515440D02*
X1210994Y516846D01*
X1211676Y517784*
X1212358Y518252*
X1213381*
X1216449Y521534D02*
X1216790Y521065D01*
X1217131Y521534*
X1216790Y522002*
X1216449Y521534*
X1216790Y518252D02*
Y511690D01*
X1220199Y518252D02*
Y511690D01*
Y516377D02*
X1221222Y517784D01*
X1221903Y518252*
X1222926*
X1223608Y517784*
X1223949Y516377*
Y511690*
X1231108Y518252D02*
Y510752D01*
X1230767Y509346*
X1230426Y508877*
X1229744Y508409*
X1228722*
X1228040Y508877*
X1231108Y516846D02*
X1230426Y517784D01*
X1229744Y518252*
X1228722*
X1228040Y517784*
X1227358Y516846*
X1227017Y515440*
Y514502*
X1227358Y513096*
X1228040Y512159*
X1228722Y511690*
X1229744*
X1230426Y512159*
X1231108Y513096*
X1244403Y521534D02*
Y511690D01*
X1242017Y521534D02*
X1246790D01*
X1249858Y515440D02*
X1253949D01*
Y516377*
X1253608Y517315*
X1253267Y517784*
X1252585Y518252*
X1251563*
X1250881Y517784*
X1250199Y516846*
X1249858Y515440*
Y514502*
X1250199Y513096*
X1250881Y512159*
X1251563Y511690*
X1252585*
X1253267Y512159*
X1253949Y513096*
X1261108Y516846D02*
X1260426Y517784D01*
X1259744Y518252*
X1258722*
X1258040Y517784*
X1257358Y516846*
X1257017Y515440*
Y514502*
X1257358Y513096*
X1258040Y512159*
X1258722Y511690*
X1259744*
X1260426Y512159*
X1261108Y513096*
X1264176Y521534D02*
Y511690D01*
Y516377D02*
X1265199Y517784D01*
X1265881Y518252*
X1266903*
X1267585Y517784*
X1267926Y516377*
Y511690*
X1270994Y518252D02*
Y511690D01*
Y516377D02*
X1272017Y517784D01*
X1272699Y518252*
X1273722*
X1274403Y517784*
X1274744Y516377*
Y511690*
X1277813Y521534D02*
X1278153Y521065D01*
X1278494Y521534*
X1278153Y522002*
X1277813Y521534*
X1278153Y518252D02*
Y511690D01*
X1285653Y516846D02*
X1284972Y517784D01*
X1284290Y518252*
X1283267*
X1282585Y517784*
X1281903Y516846*
X1281563Y515440*
Y514502*
X1281903Y513096*
X1282585Y512159*
X1283267Y511690*
X1284290*
X1284972Y512159*
X1285653Y513096*
X1292813Y518252D02*
Y511690D01*
Y516846D02*
X1292131Y517784D01*
X1291449Y518252*
X1290426*
X1289744Y517784*
X1289063Y516846*
X1288722Y515440*
Y514502*
X1289063Y513096*
X1289744Y512159*
X1290426Y511690*
X1291449*
X1292131Y512159*
X1292813Y513096*
X1295881Y521534D02*
Y511690D01*
X1311563Y520127D02*
X1310881Y521065D01*
X1309858Y521534*
X1308494*
X1307472Y521065*
X1306790Y520127*
Y519190*
X1307131Y518252*
X1307472Y517784*
X1308153Y517315*
X1310199Y516377*
X1310881Y515909*
X1311222Y515440*
X1311563Y514502*
Y513096*
X1310881Y512159*
X1309858Y511690*
X1308494*
X1307472Y512159*
X1306790Y513096*
X1314631Y515440D02*
X1318722D01*
Y516377*
X1318381Y517315*
X1318040Y517784*
X1317358Y518252*
X1316335*
X1315653Y517784*
X1314972Y516846*
X1314631Y515440*
Y514502*
X1314972Y513096*
X1315653Y512159*
X1316335Y511690*
X1317358*
X1318040Y512159*
X1318722Y513096*
X1321790Y518252D02*
Y511690D01*
Y515440D02*
X1322131Y516846D01*
X1322813Y517784*
X1323494Y518252*
X1324517*
X1327585D02*
X1329631Y511690D01*
X1331676Y518252D02*
X1329631Y511690D01*
X1334744Y521534D02*
X1335085Y521065D01*
X1335426Y521534*
X1335085Y522002*
X1334744Y521534*
X1335085Y518252D02*
Y511690D01*
X1342585Y516846D02*
X1341903Y517784D01*
X1341222Y518252*
X1340199*
X1339517Y517784*
X1338835Y516846*
X1338494Y515440*
Y514502*
X1338835Y513096*
X1339517Y512159*
X1340199Y511690*
X1341222*
X1341903Y512159*
X1342585Y513096*
X1345653Y515440D02*
X1349744D01*
Y516377*
X1349403Y517315*
X1349063Y517784*
X1348381Y518252*
X1347358*
X1346676Y517784*
X1345994Y516846*
X1345653Y515440*
Y514502*
X1345994Y513096*
X1346676Y512159*
X1347358Y511690*
X1348381*
X1349063Y512159*
X1349744Y513096*
X1356563Y516846D02*
X1356222Y517784D01*
X1355199Y518252*
X1354176*
X1353153Y517784*
X1352813Y516846*
X1353153Y515909*
X1353835Y515440*
X1355540Y514971*
X1356222Y514502*
X1356563Y513565*
Y513096*
X1356222Y512159*
X1355199Y511690*
X1354176*
X1353153Y512159*
X1352813Y513096*
X1372585Y519190D02*
X1372244Y520127D01*
X1371563Y521065*
X1370881Y521534*
X1369517*
X1368835Y521065*
X1368153Y520127*
X1367813Y519190*
X1367472Y517784*
Y515440*
X1367813Y514034*
X1368153Y513096*
X1368835Y512159*
X1369517Y511690*
X1370881*
X1371563Y512159*
X1372244Y513096*
X1372585Y514034*
X1377358Y518252D02*
X1376676Y517784D01*
X1375994Y516846*
X1375653Y515440*
Y514502*
X1375994Y513096*
X1376676Y512159*
X1377358Y511690*
X1378381*
X1379063Y512159*
X1379744Y513096*
X1380085Y514502*
Y515440*
X1379744Y516846*
X1379063Y517784*
X1378381Y518252*
X1377358*
X1383153D02*
Y511690D01*
Y515440D02*
X1383494Y516846D01*
X1384176Y517784*
X1384858Y518252*
X1385881*
X1388949D02*
Y508409D01*
Y516846D02*
X1389631Y517784D01*
X1390313Y518252*
X1391335*
X1392017Y517784*
X1392699Y516846*
X1393040Y515440*
Y514502*
X1392699Y513096*
X1392017Y512159*
X1391335Y511690*
X1390313*
X1389631Y512159*
X1388949Y513096*
X1396449Y512627D02*
X1396108Y512159D01*
X1396449Y511690*
X1396790Y512159*
X1396449Y512627*
X1218575Y496307D02*
X1219256Y496776D01*
X1220279Y498182*
Y488339*
X1223347Y496307D02*
X1224029Y496776D01*
X1225052Y498182*
Y488339*
X1229825Y498182D02*
X1228802Y497714D01*
X1228461Y496776*
Y495839*
X1228802Y494901*
X1229484Y494432*
X1230847Y493964*
X1231870Y493495*
X1232552Y492557*
X1232893Y491620*
Y490214*
X1232552Y489276*
X1232211Y488807*
X1231188Y488339*
X1229825*
X1228802Y488807*
X1228461Y489276*
X1228120Y490214*
Y491620*
X1228461Y492557*
X1229143Y493495*
X1230165Y493964*
X1231529Y494432*
X1232211Y494901*
X1232552Y495839*
Y496776*
X1232211Y497714*
X1231188Y498182*
X1229825*
X1240393D02*
X1236984D01*
X1236643Y493964*
X1236984Y494432*
X1238006Y494901*
X1239029*
X1240052Y494432*
X1240734Y493495*
X1241075Y492089*
X1240734Y491151*
X1240393Y489745*
X1239711Y488807*
X1238688Y488339*
X1237665*
X1236643Y488807*
X1236302Y489276*
X1235961Y490214*
X1257097Y495839D02*
X1256756Y496776D01*
X1256075Y497714*
X1255393Y498182*
X1254029*
X1253347Y497714*
X1252665Y496776*
X1252325Y495839*
X1251984Y494432*
Y492089*
X1252325Y490682*
X1252665Y489745*
X1253347Y488807*
X1254029Y488339*
X1255393*
X1256075Y488807*
X1256756Y489745*
X1257097Y490682*
X1260165Y492089D02*
X1264256D01*
Y493026*
X1263915Y493964*
X1263575Y494432*
X1262893Y494901*
X1261870*
X1261188Y494432*
X1260506Y493495*
X1260165Y492089*
Y491151*
X1260506Y489745*
X1261188Y488807*
X1261870Y488339*
X1262893*
X1263575Y488807*
X1264256Y489745*
X1267325Y494901D02*
Y488339D01*
Y493026D02*
X1268347Y494432D01*
X1269029Y494901*
X1270052*
X1270734Y494432*
X1271075Y493026*
Y488339*
X1275165Y498182D02*
Y490214D01*
X1275506Y488807*
X1276188Y488339*
X1276870*
X1274143Y494901D02*
X1276529D01*
X1279938D02*
Y488339D01*
Y492089D02*
X1280279Y493495D01*
X1280961Y494432*
X1281643Y494901*
X1282665*
X1285734Y492089D02*
X1289825D01*
Y493026*
X1289484Y493964*
X1289143Y494432*
X1288461Y494901*
X1287438*
X1286756Y494432*
X1286075Y493495*
X1285734Y492089*
Y491151*
X1286075Y489745*
X1286756Y488807*
X1287438Y488339*
X1288461*
X1289143Y488807*
X1289825Y489745*
X1305506Y496776D02*
X1304825Y497714D01*
X1303802Y498182*
X1302438*
X1301415Y497714*
X1300734Y496776*
Y495839*
X1301075Y494901*
X1301415Y494432*
X1302097Y493964*
X1304143Y493026*
X1304825Y492557*
X1305165Y492089*
X1305506Y491151*
Y489745*
X1304825Y488807*
X1303802Y488339*
X1302438*
X1301415Y488807*
X1300734Y489745*
X1309597Y498182D02*
Y490214D01*
X1309938Y488807*
X1310620Y488339*
X1311302*
X1308575Y494901D02*
X1310961D01*
X1314370D02*
Y488339D01*
Y492089D02*
X1314711Y493495D01*
X1315393Y494432*
X1316075Y494901*
X1317097*
X1320165Y492089D02*
X1324256D01*
Y493026*
X1323915Y493964*
X1323575Y494432*
X1322893Y494901*
X1321870*
X1321188Y494432*
X1320506Y493495*
X1320165Y492089*
Y491151*
X1320506Y489745*
X1321188Y488807*
X1321870Y488339*
X1322893*
X1323575Y488807*
X1324256Y489745*
X1327325Y492089D02*
X1331415D01*
Y493026*
X1331075Y493964*
X1330734Y494432*
X1330052Y494901*
X1329029*
X1328347Y494432*
X1327665Y493495*
X1327325Y492089*
Y491151*
X1327665Y489745*
X1328347Y488807*
X1329029Y488339*
X1330052*
X1330734Y488807*
X1331415Y489745*
X1335506Y498182D02*
Y490214D01*
X1335847Y488807*
X1336529Y488339*
X1337211*
X1334484Y494901D02*
X1336870D01*
X1208575Y475682D02*
Y465839D01*
Y475682D02*
X1211302Y465839D01*
X1214029Y475682D02*
X1211302Y465839D01*
X1214029Y475682D02*
Y465839D01*
X1217097Y475682D02*
X1217438Y475214D01*
X1217779Y475682*
X1217438Y476151*
X1217097Y475682*
X1217438Y472401D02*
Y465839D01*
X1224938Y475682D02*
Y465839D01*
Y470995D02*
X1224256Y471932D01*
X1223575Y472401*
X1222552*
X1221870Y471932*
X1221188Y470995*
X1220847Y469589*
Y468651*
X1221188Y467245*
X1221870Y466307*
X1222552Y465839*
X1223575*
X1224256Y466307*
X1224938Y467245*
X1232097Y475682D02*
Y465839D01*
Y470995D02*
X1231415Y471932D01*
X1230734Y472401*
X1229711*
X1229029Y471932*
X1228347Y470995*
X1228006Y469589*
Y468651*
X1228347Y467245*
X1229029Y466307*
X1229711Y465839*
X1230734*
X1231415Y466307*
X1232097Y467245*
X1235165Y475682D02*
Y465839D01*
X1238234Y469589D02*
X1242325D01*
Y470526*
X1241984Y471464*
X1241643Y471932*
X1240961Y472401*
X1239938*
X1239256Y471932*
X1238575Y470995*
X1238234Y469589*
Y468651*
X1238575Y467245*
X1239256Y466307*
X1239938Y465839*
X1240961*
X1241643Y466307*
X1242325Y467245*
X1245393Y475682D02*
Y465839D01*
Y470995D02*
X1246075Y471932D01*
X1246756Y472401*
X1247779*
X1248461Y471932*
X1249143Y470995*
X1249484Y469589*
Y468651*
X1249143Y467245*
X1248461Y466307*
X1247779Y465839*
X1246756*
X1246075Y466307*
X1245393Y467245*
X1254256Y472401D02*
X1253575Y471932D01*
X1252893Y470995*
X1252552Y469589*
Y468651*
X1252893Y467245*
X1253575Y466307*
X1254256Y465839*
X1255279*
X1255961Y466307*
X1256643Y467245*
X1256984Y468651*
Y469589*
X1256643Y470995*
X1255961Y471932*
X1255279Y472401*
X1254256*
X1260052D02*
Y465839D01*
Y469589D02*
X1260393Y470995D01*
X1261075Y471932*
X1261756Y472401*
X1262779*
X1267552D02*
X1266870Y471932D01*
X1266188Y470995*
X1265847Y469589*
Y468651*
X1266188Y467245*
X1266870Y466307*
X1267552Y465839*
X1268575*
X1269256Y466307*
X1269938Y467245*
X1270279Y468651*
Y469589*
X1269938Y470995*
X1269256Y471932*
X1268575Y472401*
X1267552*
X1274029Y466307D02*
X1273688Y465839D01*
X1273347Y466307*
X1273688Y466776*
X1274029Y466307*
Y465370*
X1273688Y464432*
X1273347Y463964*
X1284938Y475682D02*
Y465839D01*
Y475682D02*
X1287665Y465839D01*
X1290393Y475682D02*
X1287665Y465839D01*
X1290393Y475682D02*
Y465839D01*
X1296188Y475682D02*
X1293461Y465839D01*
X1296188Y475682D02*
X1298915Y465839D01*
X1294484Y469120D02*
X1297893D01*
X1311870Y475682D02*
X1310847Y475214D01*
X1310165Y473807*
X1309825Y471464*
Y470057*
X1310165Y467714*
X1310847Y466307*
X1311870Y465839*
X1312552*
X1313575Y466307*
X1314256Y467714*
X1314597Y470057*
Y471464*
X1314256Y473807*
X1313575Y475214*
X1312552Y475682*
X1311870*
X1318006Y473339D02*
Y473807D01*
X1318347Y474745*
X1318688Y475214*
X1319370Y475682*
X1320734*
X1321415Y475214*
X1321756Y474745*
X1322097Y473807*
Y472870*
X1321756Y471932*
X1321075Y470526*
X1317665Y465839*
X1322438*
X1326188Y475682D02*
X1329938D01*
X1327893Y471932*
X1328915*
X1329597Y471464*
X1329938Y470995*
X1330279Y469589*
Y468651*
X1329938Y467245*
X1329256Y466307*
X1328234Y465839*
X1327211*
X1326188Y466307*
X1325847Y466776*
X1325506Y467714*
X1336756Y475682D02*
X1333347Y469120D01*
X1338461*
X1336756Y475682D02*
Y465839D01*
X1345620Y474276D02*
X1345279Y475214D01*
X1344256Y475682*
X1343575*
X1342552Y475214*
X1341870Y473807*
X1341529Y471464*
Y469120*
X1341870Y467245*
X1342552Y466307*
X1343575Y465839*
X1343915*
X1344938Y466307*
X1345620Y467245*
X1345961Y468651*
Y469120*
X1345620Y470526*
X1344938Y471464*
X1343915Y471932*
X1343575*
X1342552Y471464*
X1341870Y470526*
X1341529Y469120*
X1289217Y448652D02*
X1290581Y442090D01*
X1291944Y448652D02*
X1290581Y442090D01*
X1291944Y448652D02*
X1293308Y442090D01*
X1294672Y448652D02*
X1293308Y442090D01*
X1297740Y448652D02*
X1299103Y442090D01*
X1300467Y448652D02*
X1299103Y442090D01*
X1300467Y448652D02*
X1301831Y442090D01*
X1303194Y448652D02*
X1301831Y442090D01*
X1306263Y448652D02*
X1307626Y442090D01*
X1308990Y448652D02*
X1307626Y442090D01*
X1308990Y448652D02*
X1310353Y442090D01*
X1311717Y448652D02*
X1310353Y442090D01*
X1315126Y443027D02*
X1314785Y442559D01*
X1315126Y442090*
X1315467Y442559*
X1315126Y443027*
X1318535Y448652D02*
X1319899Y442090D01*
X1321263Y448652D02*
X1319899Y442090D01*
X1321263Y448652D02*
X1322626Y442090D01*
X1323990Y448652D02*
X1322626Y442090D01*
X1330808Y447246D02*
X1330467Y448184D01*
X1329444Y448652*
X1328422*
X1327399Y448184*
X1327058Y447246*
X1327399Y446309*
X1328081Y445840*
X1329785Y445371*
X1330467Y444902*
X1330808Y443965*
Y443496*
X1330467Y442559*
X1329444Y442090*
X1328422*
X1327399Y442559*
X1327058Y443496*
X1334899Y451934D02*
Y443965D01*
X1335240Y442559*
X1335922Y442090*
X1336603*
X1333876Y448652D02*
X1336263D01*
X1343422Y447246D02*
X1343081Y448184D01*
X1342058Y448652*
X1341035*
X1340013Y448184*
X1339672Y447246*
X1340013Y446309*
X1340694Y445840*
X1342399Y445371*
X1343081Y444902*
X1343422Y443965*
Y443496*
X1343081Y442559*
X1342058Y442090*
X1341035*
X1340013Y442559*
X1339672Y443496*
X1350581Y447246D02*
X1349899Y448184D01*
X1349217Y448652*
X1348194*
X1347513Y448184*
X1346831Y447246*
X1346490Y445840*
Y444902*
X1346831Y443496*
X1347513Y442559*
X1348194Y442090*
X1349217*
X1349899Y442559*
X1350581Y443496*
X1355353Y448652D02*
X1354672Y448184D01*
X1353990Y447246*
X1353649Y445840*
Y444902*
X1353990Y443496*
X1354672Y442559*
X1355353Y442090*
X1356376*
X1357058Y442559*
X1357740Y443496*
X1358081Y444902*
Y445840*
X1357740Y447246*
X1357058Y448184*
X1356376Y448652*
X1355353*
X1361149D02*
Y442090D01*
Y445840D02*
X1361490Y447246D01*
X1362172Y448184*
X1362853Y448652*
X1363876*
X1366944D02*
Y438809D01*
Y447246D02*
X1367626Y448184D01*
X1368308Y448652*
X1369331*
X1370013Y448184*
X1370694Y447246*
X1371035Y445840*
Y444902*
X1370694Y443496*
X1370013Y442559*
X1369331Y442090*
X1368308*
X1367626Y442559*
X1366944Y443496*
X1374444Y443027D02*
X1374103Y442559D01*
X1374444Y442090*
X1374785Y442559*
X1374444Y443027*
X1381944Y447246D02*
X1381263Y448184D01*
X1380581Y448652*
X1379558*
X1378876Y448184*
X1378194Y447246*
X1377853Y445840*
Y444902*
X1378194Y443496*
X1378876Y442559*
X1379558Y442090*
X1380581*
X1381263Y442559*
X1381944Y443496*
X1386717Y448652D02*
X1386035Y448184D01*
X1385353Y447246*
X1385013Y445840*
Y444902*
X1385353Y443496*
X1386035Y442559*
X1386717Y442090*
X1387740*
X1388422Y442559*
X1389103Y443496*
X1389444Y444902*
Y445840*
X1389103Y447246*
X1388422Y448184*
X1387740Y448652*
X1386717*
X1392513D02*
Y442090D01*
Y446777D02*
X1393535Y448184D01*
X1394217Y448652*
X1395240*
X1395922Y448184*
X1396263Y446777*
Y442090*
Y446777D02*
X1397285Y448184D01*
X1397967Y448652*
X1398990*
X1399672Y448184*
X1400013Y446777*
Y442090*
X1143575Y450682D02*
Y440839D01*
Y450682D02*
X1146643D01*
X1147665Y450214*
X1148006Y449745*
X1148347Y448807*
Y447401*
X1148006Y446464*
X1147665Y445995*
X1146643Y445526*
X1143575*
X1151415Y450682D02*
Y440839D01*
X1156188Y450682D02*
Y440839D01*
X1151415Y445995D02*
X1156188D01*
X1171529Y450682D02*
X1168120D01*
X1167779Y446464*
X1168120Y446932*
X1169143Y447401*
X1170165*
X1171188Y446932*
X1171870Y445995*
X1172211Y444589*
X1171870Y443651*
X1171529Y442245*
X1170847Y441307*
X1169825Y440839*
X1168802*
X1167779Y441307*
X1167438Y441776*
X1167097Y442714*
X1177325Y450682D02*
X1176302Y450214D01*
X1175620Y448807*
X1175279Y446464*
Y445057*
X1175620Y442714*
X1176302Y441307*
X1177325Y440839*
X1178006*
X1179029Y441307*
X1179711Y442714*
X1180052Y445057*
Y446464*
X1179711Y448807*
X1179029Y450214*
X1178006Y450682*
X1177325*
X1184825D02*
X1183802Y450214D01*
X1183461Y449276*
Y448339*
X1183802Y447401*
X1184484Y446932*
X1185847Y446464*
X1186870Y445995*
X1187552Y445057*
X1187893Y444120*
Y442714*
X1187552Y441776*
X1187211Y441307*
X1186188Y440839*
X1184825*
X1183802Y441307*
X1183461Y441776*
X1183120Y442714*
Y444120*
X1183461Y445057*
X1184143Y445995*
X1185165Y446464*
X1186529Y446932*
X1187211Y447401*
X1187552Y448339*
Y449276*
X1187211Y450214*
X1186188Y450682*
X1184825*
X1190961Y445057D02*
X1197097D01*
X1204597Y447401D02*
X1204256Y445995D01*
X1203575Y445057*
X1202552Y444589*
X1202211*
X1201188Y445057*
X1200506Y445995*
X1200165Y447401*
Y447870*
X1200506Y449276*
X1201188Y450214*
X1202211Y450682*
X1202552*
X1203575Y450214*
X1204256Y449276*
X1204597Y447401*
Y445057*
X1204256Y442714*
X1203575Y441307*
X1202552Y440839*
X1201870*
X1200847Y441307*
X1200506Y442245*
X1211075Y450682D02*
X1207665Y444120D01*
X1212779*
X1211075Y450682D02*
Y440839D01*
X1220620Y450682D02*
X1217211Y440839D01*
X1215847Y450682D02*
X1220620D01*
X1223688Y445057D02*
X1229825D01*
X1233234Y448339D02*
Y448807D01*
X1233575Y449745*
X1233915Y450214*
X1234597Y450682*
X1235961*
X1236643Y450214*
X1236984Y449745*
X1237325Y448807*
Y447870*
X1236984Y446932*
X1236302Y445526*
X1232893Y440839*
X1237665*
X1245506Y450682D02*
X1242097Y440839D01*
X1240734Y450682D02*
X1245506D01*
X1250620D02*
X1249597Y450214D01*
X1248915Y448807*
X1248575Y446464*
Y445057*
X1248915Y442714*
X1249597Y441307*
X1250620Y440839*
X1251302*
X1252325Y441307*
X1253006Y442714*
X1253347Y445057*
Y446464*
X1253006Y448807*
X1252325Y450214*
X1251302Y450682*
X1250620*
X1260847Y447401D02*
X1260506Y445995D01*
X1259825Y445057*
X1258802Y444589*
X1258461*
X1257438Y445057*
X1256756Y445995*
X1256415Y447401*
Y447870*
X1256756Y449276*
X1257438Y450214*
X1258461Y450682*
X1258802*
X1259825Y450214*
X1260506Y449276*
X1260847Y447401*
Y445057*
X1260506Y442714*
X1259825Y441307*
X1258802Y440839*
X1258120*
X1257097Y441307*
X1256756Y442245*
X1509114Y383484D02*
X1512864D01*
X1510818Y379734*
X1511841*
X1512523Y379266*
X1512864Y378797*
X1513205Y377391*
Y376453*
X1512864Y375047*
X1512182Y374109*
X1511159Y373641*
X1510136*
X1509114Y374109*
X1508773Y374578*
X1508432Y375516*
X1631386Y383484D02*
Y373641D01*
X1634455Y380203D02*
Y373641D01*
Y378328D02*
X1635477Y379734D01*
X1636159Y380203*
X1637182*
X1637864Y379734*
X1638205Y378328*
Y373641*
X1642295Y383484D02*
Y375516D01*
X1642636Y374109*
X1643318Y373641*
X1644000*
X1641273Y380203D02*
X1643659D01*
X1647068Y377391D02*
X1651159D01*
Y378328*
X1650818Y379266*
X1650477Y379734*
X1649795Y380203*
X1648773*
X1648091Y379734*
X1647409Y378797*
X1647068Y377391*
Y376453*
X1647409Y375047*
X1648091Y374109*
X1648773Y373641*
X1649795*
X1650477Y374109*
X1651159Y375047*
X1654227Y380203D02*
Y373641D01*
Y377391D02*
X1654568Y378797D01*
X1655250Y379734*
X1655932Y380203*
X1656955*
X1660023D02*
Y373641D01*
Y378328D02*
X1661045Y379734D01*
X1661727Y380203*
X1662750*
X1663432Y379734*
X1663773Y378328*
Y373641*
X1670932Y380203D02*
Y373641D01*
Y378797D02*
X1670250Y379734D01*
X1669568Y380203*
X1668545*
X1667864Y379734*
X1667182Y378797*
X1666841Y377391*
Y376453*
X1667182Y375047*
X1667864Y374109*
X1668545Y373641*
X1669568*
X1670250Y374109*
X1670932Y375047*
X1674000Y383484D02*
Y373641D01*
X1689682Y382078D02*
X1689000Y383016D01*
X1687977Y383484*
X1686614*
X1685591Y383016*
X1684909Y382078*
Y381141*
X1685250Y380203*
X1685591Y379734*
X1686273Y379266*
X1688318Y378328*
X1689000Y377859*
X1689341Y377391*
X1689682Y376453*
Y375047*
X1689000Y374109*
X1687977Y373641*
X1686614*
X1685591Y374109*
X1684909Y375047*
X1692750Y383484D02*
X1693091Y383016D01*
X1693432Y383484*
X1693091Y383953*
X1692750Y383484*
X1693091Y380203D02*
Y373641D01*
X1700591Y380203D02*
Y372703D01*
X1700250Y371297*
X1699909Y370828*
X1699227Y370359*
X1698205*
X1697523Y370828*
X1700591Y378797D02*
X1699909Y379734D01*
X1699227Y380203*
X1698205*
X1697523Y379734*
X1696841Y378797*
X1696500Y377391*
Y376453*
X1696841Y375047*
X1697523Y374109*
X1698205Y373641*
X1699227*
X1699909Y374109*
X1700591Y375047*
X1703659Y380203D02*
Y373641D01*
Y378328D02*
X1704682Y379734D01*
X1705364Y380203*
X1706386*
X1707068Y379734*
X1707409Y378328*
Y373641*
X1714568Y380203D02*
Y373641D01*
Y378797D02*
X1713886Y379734D01*
X1713205Y380203*
X1712182*
X1711500Y379734*
X1710818Y378797*
X1710477Y377391*
Y376453*
X1710818Y375047*
X1711500Y374109*
X1712182Y373641*
X1713205*
X1713886Y374109*
X1714568Y375047*
X1717636Y383484D02*
Y373641D01*
X1728545Y381609D02*
X1729227Y382078D01*
X1730250Y383484*
Y373641*
G54D193*
X1364500Y887000D03*
Y884000D03*
Y890000D03*
X1359500Y925000D03*
Y931000D03*
Y928000D03*
X1052624Y1025749D03*
G54D194*
X565117Y362490D02*
X1843517D01*
Y1511990*
X565117*
Y362490*
X1123517D02*
X1843517D01*
Y557490*
X1123517*
Y362490*
X1408517Y502490D02*
X1843517D01*
Y362490*
X1408517*
Y502490*
Y392490D02*
X1843517D01*
Y362490*
X1408517*
Y392490*
X1568517*
Y362490*
X1408517*
Y392490*
Y502490D02*
X1843517D01*
Y557490*
X1408517*
Y502490*
Y432490D02*
X1843517D01*
Y502490*
X1408517*
Y432490*
X1708517Y392490D02*
X1843517D01*
Y432490*
X1708517*
Y392490*
X1123517D02*
X1283517D01*
Y362490*
X1123517*
Y392490*
X1283517Y362490D02*
X1408517D01*
Y392490*
X1283517*
Y362490*
G54D266*
X1019654Y845846D03*
X1063554Y845646D03*
X1060118Y845490D03*
X1035154Y845846D03*
X1038354Y845746D03*
X1092151Y845650D03*
X1088754Y845552D03*
X1085554D03*
X1079081Y845810D03*
X1075661Y845960D03*
X1150000Y847500D03*
X1120218Y845790D03*
X1147068Y845640D03*
X1169500Y847500D03*
X1172194Y845577D03*
X1196318Y846640D03*
X1346000Y847000D03*
X1343326Y845577D03*
X1377418Y847290D03*
X1033454Y871452D03*
X1031740Y874388D03*
X1024260Y874346D03*
X1017240Y874000D03*
X1010000Y873846D03*
X1001654Y862846D03*
X999618Y860990D03*
X1003654Y860346D03*
X1005618Y865346D03*
X1011618Y847990D03*
X1003654Y867846D03*
X1006654Y872346D03*
X1028054Y880952D03*
X1013654Y881346D03*
X1073654Y874346D03*
X1066260Y874240D03*
X1052260Y873846D03*
X1046654Y870346D03*
X1049154D03*
X1045654Y874346D03*
X1039154D03*
X1035154Y873352D03*
X1059700Y874000D03*
X1041954Y880952D03*
X1069254Y881252D03*
X1055554D03*
X1081000Y850400D03*
X1107300Y862400D03*
X1095700Y869100D03*
X1111300Y862100D03*
X1093500Y865600D03*
X1108500Y857700D03*
X1080654Y873846D03*
X1112343Y851090D03*
Y847940D03*
X1109193D03*
X1105858Y856252D03*
X1091854Y848252D03*
X1088654Y848352D03*
X1085454Y848152D03*
X1101479Y862727D03*
X1098504Y862302D03*
X1088600Y868346D03*
X1090800Y870800D03*
X1088154Y873846D03*
X1078344Y871802D03*
X1078154Y874346D03*
X1112700Y879900D03*
X1095400Y880400D03*
X1084504Y881252D03*
X1122100Y880650D03*
X1124300Y867450D03*
X1153293Y851090D03*
X1150143Y851140D03*
X1143843Y847940D03*
Y851090D03*
X1140693D03*
X1137543Y847940D03*
X1134393Y851090D03*
Y847940D03*
X1131243D03*
Y851090D03*
X1128147Y851086D03*
X1128093Y847940D03*
X1124943D03*
Y851090D03*
X1121793D03*
X1118643Y847940D03*
X1115493D03*
Y851090D03*
X1151454Y885346D03*
Y875246D03*
X1138454Y884652D03*
X1153293Y847940D03*
X1146993D03*
X1140693D03*
X1137543Y851090D03*
X1193500Y849000D03*
X1156600Y865400D03*
X1163000Y876200D03*
X1156500Y887200D03*
X1172193Y847940D03*
X1162743Y851090D03*
X1159593D03*
Y847940D03*
X1156443D03*
X1162743Y854240D03*
X1191093Y847940D03*
X1187943D03*
X1175343Y851090D03*
X1159154Y875646D03*
X1184793Y851090D03*
X1181643Y847940D03*
X1178493Y851090D03*
X1175343Y847940D03*
X1187943Y854240D03*
X1172193D03*
X1169043Y855815D03*
X1184793D03*
X1181643Y851090D03*
X1178493Y847940D03*
X1169043Y851090D03*
X1165893Y847940D03*
Y851090D03*
X1162743Y847940D03*
X1166854Y875346D03*
X1192654Y870252D03*
X1166854Y886446D03*
X1187654Y860752D03*
X1182551Y871248D03*
X1159154Y886846D03*
X1205454Y852852D03*
X1197504Y861552D03*
X1202654Y857252D03*
X1209668Y870590D03*
X1311826Y855900D03*
X1308676Y851090D03*
X1305525D03*
X1305526Y847940D03*
X1302375D03*
X1302376Y851090D03*
X1299226D03*
Y847940D03*
X1296076D03*
Y851090D03*
X1292926D03*
X1289776Y847940D03*
X1292926D03*
X1288154Y851952D03*
Y855952D03*
X1308676Y847940D03*
X1352769D03*
Y851090D03*
X1349619D03*
Y847940D03*
X1346469Y849515D03*
X1343319Y855350D03*
X1340169D03*
X1340176Y851090D03*
X1337026D03*
Y847940D03*
X1333876D03*
Y851090D03*
X1330726D03*
Y847940D03*
X1327576D03*
Y851090D03*
X1324426D03*
Y847940D03*
X1321276D03*
Y851090D03*
X1318126D03*
Y847940D03*
X1314976D03*
Y855900D03*
X1340000Y884500D03*
X1318054Y879252D03*
X1377500Y851000D03*
X1365369Y851090D03*
X1362219D03*
Y847940D03*
X1359069D03*
X1355919D03*
Y851090D03*
X1359069D03*
X1013654Y891346D03*
X1028018Y891873D03*
X1024154Y891846D03*
X1031654D03*
X1009654D03*
X1017154D03*
X1023228Y927519D03*
X1029424Y923349D03*
X1017424D03*
X1027024Y925349D03*
X1004224D03*
X1020654Y906346D03*
X1024154D03*
X1017154D03*
X1009654D03*
X1031654D03*
X1026624Y920949D03*
X1056154Y891752D03*
X1041954Y891946D03*
X1069954Y891746D03*
X1066154Y891846D03*
X1073654D03*
X1052154D03*
X1059654D03*
X1038154D03*
X1045654D03*
X1073654Y906346D03*
X1066154D03*
X1059654D03*
X1045654D03*
X1038654D03*
X1052654D03*
X1049154D03*
X1111650Y919700D03*
X1100100Y907300D03*
X1100200Y892700D03*
X1092900Y898900D03*
X1084600Y892000D03*
X1080654Y891846D03*
X1088154D03*
X1107000Y906900D03*
Y893000D03*
X1110700Y907400D03*
X1077154Y906346D03*
X1088654D03*
X1080654D03*
X1118800Y899350D03*
X1133228Y917677D03*
Y920827D03*
X1145827Y905079D03*
Y908228D03*
Y914527D03*
X1126718Y922090D03*
X1145827Y920827D03*
Y917677D03*
X1152126Y908228D03*
Y911378D03*
Y914527D03*
X1148976Y911378D03*
Y914527D03*
X1145827Y911378D03*
X1142677D03*
Y914527D03*
X1139527Y920827D03*
Y917677D03*
X1136378Y920827D03*
Y917677D03*
X1139527Y905079D03*
Y908228D03*
X1136378Y905079D03*
Y908228D03*
X1133228Y905079D03*
Y908228D03*
X1136378Y914527D03*
Y911378D03*
X1133228Y914527D03*
Y911378D03*
X1130079Y914527D03*
Y911378D03*
X1125654Y891352D03*
X1130079Y917677D03*
X1138254Y891152D03*
X1142677Y905079D03*
X1127554Y893452D03*
X1130079Y908228D03*
X1142677D03*
X1130079Y927126D03*
X1142677D03*
X1145827D03*
X1152126Y905079D03*
X1139527Y911378D03*
X1130079Y923976D03*
Y920827D03*
Y905079D03*
X1142677Y917677D03*
Y920827D03*
Y923976D03*
X1145827D03*
X1148976Y905079D03*
Y908228D03*
Y917677D03*
Y920827D03*
X1152126Y917677D03*
Y920827D03*
Y927126D03*
X1139527Y914527D03*
X1161700Y897100D03*
X1180473Y917677D03*
X1183622Y911378D03*
Y908228D03*
Y905079D03*
X1168554Y900552D03*
X1171024Y914527D03*
X1169654Y894630D03*
X1171024Y911378D03*
X1164725Y914527D03*
X1183622Y923976D03*
Y917677D03*
X1171024D03*
X1161575D03*
X1171023Y920828D03*
X1161575Y920827D03*
X1183622Y927126D03*
X1186772Y923976D03*
X1180473D03*
X1189921Y920827D03*
X1186772D03*
X1183622D03*
X1180473D03*
X1189921Y917677D03*
X1186772D03*
X1180473Y914527D03*
Y911378D03*
Y908228D03*
X1174173Y914527D03*
X1155275D03*
X1180473Y905079D03*
X1177323Y911378D03*
X1189921D03*
X1180473Y927126D03*
X1192454Y900352D03*
X1187454Y891152D03*
X1177323Y905079D03*
X1155275Y920827D03*
Y917677D03*
X1189921Y908228D03*
X1174173Y923976D03*
X1177323D03*
X1174173Y911378D03*
X1164725D03*
Y905079D03*
Y908228D03*
X1173654Y899952D03*
X1174173Y908228D03*
Y905079D03*
X1179154Y889846D03*
X1171024Y905079D03*
X1177323Y908228D03*
X1167874Y917677D03*
X1164725D03*
X1171023Y908228D03*
X1155300Y903600D03*
X1193168Y914340D03*
X1173654Y890202D03*
X1155276Y911373D03*
X1189921Y905079D03*
X1177323Y917677D03*
X1174173D03*
X1167874Y920827D03*
X1164725D03*
X1177323D03*
X1174173D03*
X1177323Y927126D03*
X1174173D03*
X1155275D03*
X1161575D03*
X1164725D03*
X1167874D03*
X1203754Y914046D03*
X1201718Y903990D03*
X1210354Y924946D03*
X1216154Y916846D03*
X1206354Y922846D03*
Y916846D03*
X1197454Y891152D03*
X1202454D03*
X1201718Y911690D03*
X1299000Y922500D03*
X1294000D03*
X1286454Y923152D03*
X1277254Y923052D03*
X1281254Y919552D03*
X1277754Y917352D03*
X1279854Y925152D03*
X1299000Y900500D03*
X1294000D03*
X1299000Y913000D03*
X1294000D03*
Y910500D03*
X1299000D03*
X1309754Y902352D03*
X1309354Y890452D03*
X1338600Y925000D03*
X1340954Y905152D03*
X1318354Y899052D03*
X1338000Y914000D03*
X1350510Y888450D03*
X1351354Y918602D03*
X1343554Y923802D03*
X980224Y948949D03*
Y959349D03*
X985424Y942149D03*
X981824Y936549D03*
X992624Y954519D03*
X991728Y952019D03*
X991824Y966149D03*
X986728Y959019D03*
X1017979Y957890D03*
X996224Y942149D03*
X1031424Y940949D03*
X1009424Y948949D03*
X1005228Y956019D03*
X1027228Y958019D03*
X1005228Y944019D03*
X997228Y928019D03*
X995024Y957349D03*
X996224Y946149D03*
X1010224Y940949D03*
X1005024Y962949D03*
X1027424D03*
X1017024D03*
X1027941Y940519D03*
X1025824Y955349D03*
X1017024Y940519D03*
X995228Y964019D03*
X1040728Y945519D03*
X1051228Y951519D03*
X1050228Y966019D03*
X1059824Y953749D03*
X1041024Y942149D03*
Y950149D03*
X1048224Y937349D03*
X1060224Y935749D03*
X1045824Y932549D03*
X1049824Y956149D03*
X1037424Y952949D03*
X1060624Y959349D03*
X1035424Y941749D03*
X1051424Y948149D03*
X1055824Y953749D03*
X1039728Y957519D03*
X1053424Y964019D03*
X1060624Y945749D03*
X1052624Y946019D03*
X1110654Y943552D03*
X1109054Y945952D03*
X1090654Y964252D03*
X1100368Y934090D03*
X1086654Y954346D03*
X1090606Y959440D03*
X1086654Y932746D03*
X1139527Y949173D03*
X1139529Y946022D03*
X1130079Y930272D03*
Y933425D03*
X1133228D03*
X1136378D03*
X1139527D03*
Y952323D03*
Y939725D03*
X1136378Y952323D03*
Y949173D03*
X1133228Y952323D03*
X1133229Y949172D03*
X1130079Y952323D03*
X1136378Y955473D03*
X1130079Y958622D03*
X1133228Y955473D03*
Y961772D03*
X1130079Y955473D03*
X1136378Y946024D03*
X1133228Y958622D03*
Y946024D03*
X1145827Y961772D03*
X1148976D03*
X1145827Y964921D03*
X1148976D03*
Y955473D03*
X1152126D03*
X1148976Y958622D03*
X1152126D03*
X1142677Y933425D03*
X1145827D03*
X1136378Y964921D03*
X1139527Y961772D03*
Y964921D03*
X1142677Y961772D03*
Y964921D03*
X1145827Y955473D03*
Y958622D03*
X1152129Y961772D03*
Y964922D03*
X1118206Y958390D03*
X1142677Y942874D03*
X1145827D03*
X1142677Y946024D03*
X1145827D03*
X1148976Y949173D03*
Y952323D03*
X1130079Y961772D03*
X1127768Y934690D03*
X1125300Y955500D03*
X1142677Y939725D03*
Y930275D03*
X1145827D03*
X1152126Y939725D03*
Y930275D03*
Y933425D03*
Y942874D03*
X1142677Y949173D03*
X1145827D03*
X1152126D03*
Y952323D03*
X1145827D03*
X1142677D03*
X1130079Y964921D03*
X1180473Y961772D03*
X1189921Y936575D03*
X1186772D03*
X1164725Y949173D03*
Y952323D03*
X1177323Y939725D03*
X1174179Y939722D03*
X1177323Y946024D03*
X1174179Y946022D03*
X1155275Y949173D03*
Y952323D03*
X1194051Y961248D03*
X1183622Y942874D03*
X1180473D03*
X1189921D03*
X1186772D03*
X1189921Y949173D03*
X1189926Y939723D03*
X1189921Y946024D03*
X1164725Y955473D03*
Y958622D03*
Y961772D03*
Y964921D03*
X1174173Y958622D03*
Y961772D03*
Y964921D03*
X1177323Y955473D03*
Y958622D03*
Y961772D03*
Y964921D03*
X1180473Y958622D03*
Y955473D03*
X1183622Y958622D03*
X1180474Y964922D03*
X1183622Y961772D03*
X1186772D03*
Y958622D03*
X1189921Y961772D03*
X1180473Y936575D03*
Y939725D03*
X1183626Y939723D03*
X1186772Y952323D03*
X1192000Y951000D03*
X1189921Y958622D03*
Y955473D03*
X1155275D03*
Y958622D03*
X1186772Y946024D03*
X1180473Y930275D03*
X1183622Y936575D03*
Y930275D03*
Y964921D03*
X1186776Y939723D03*
X1177323Y930278D03*
X1174173D03*
X1180473Y949173D03*
Y952323D03*
X1158425Y949173D03*
Y952323D03*
X1171024Y949173D03*
Y952323D03*
X1186772Y964921D03*
X1155275D03*
X1193868Y932490D03*
X1167874Y961771D03*
Y949173D03*
Y952323D03*
X1186772Y930275D03*
X1177323Y936575D03*
X1174179Y936572D03*
X1177323Y942874D03*
X1174179Y942872D03*
X1183622Y946024D03*
X1180473D03*
X1158425Y939725D03*
X1155275D03*
Y930275D03*
Y933425D03*
X1158425D03*
X1161575Y930275D03*
X1164725D03*
X1167874D03*
X1164725Y936575D03*
Y939725D03*
Y942874D03*
X1158425D03*
X1155275D03*
X1177323Y949173D03*
Y952323D03*
X1174173D03*
Y949173D03*
X1158425Y964921D03*
X1189921D03*
X1212000Y960150D03*
X1222606Y967390D03*
X1195454Y966852D03*
X1218654Y943740D03*
X1222671Y939470D03*
X1220661Y941800D03*
X1216654Y945620D03*
X1234168Y937140D03*
X1206804Y961352D03*
X1226618Y963202D03*
X1211654Y966852D03*
X1200154Y944952D03*
X1253300Y955000D03*
X1253600Y959000D03*
X1239600Y954700D03*
X1248200Y950000D03*
X1257654Y949352D03*
X1234606Y967390D03*
X1248100Y965700D03*
X1272854Y944752D03*
X1244468Y944840D03*
X1257900Y956900D03*
X1245600Y956000D03*
X1238154Y963202D03*
X1305518Y954390D03*
X1307668Y955930D03*
X1299500Y936000D03*
X1298654Y962752D03*
X1297504Y949152D03*
X1294154Y967252D03*
X1288654Y964752D03*
X1290254Y956402D03*
X1288654Y959252D03*
X1284654Y958252D03*
X1281654Y963752D03*
X1280154Y961752D03*
X1278654Y959752D03*
X1288000Y932402D03*
X1285254Y934752D03*
X1283654Y939752D03*
X1285654Y937452D03*
X1283456Y929490D03*
X1281754Y933652D03*
X1312654Y959952D03*
X1309354Y958952D03*
X1310954Y957252D03*
X1307154Y952452D03*
X1277554Y941752D03*
X1279604Y943852D03*
X1275554Y947252D03*
X1313354Y934952D03*
X1314454Y962952D03*
X1314900Y946630D03*
X1317530Y946670D03*
X1329904Y941352D03*
X1336404Y931602D03*
X983824Y1006549D03*
X978224Y994149D03*
X992224Y971349D03*
X982224Y1001349D03*
X1029824Y973749D03*
X1005424Y972549D03*
X1029500Y1003000D03*
Y1005500D03*
X1011824Y998149D03*
X1003424Y1006949D03*
X1022624Y971349D03*
X1020224Y974149D03*
X1001424Y994149D03*
X1027228Y968019D03*
X1025424Y973749D03*
X1029824Y984149D03*
X995424Y979749D03*
X1005424Y977349D03*
X1019424Y996549D03*
X1025424Y996149D03*
X1034224Y1000149D03*
X1002624Y1003749D03*
X1033424Y984549D03*
X1023824Y992949D03*
X1016224Y972549D03*
X1019424Y994549D03*
X1033424Y973349D03*
X1019024Y983749D03*
X1017024Y967749D03*
X1037024Y996549D03*
X1059824Y971749D03*
X1036224Y984149D03*
X1041424Y1007349D03*
X1043856Y983890D03*
X1061228Y997519D03*
X1069354Y1003189D03*
X1048624Y996549D03*
X1047424Y974549D03*
X1055824Y971349D03*
X1038224Y973749D03*
X1051824Y989349D03*
X1063824Y979349D03*
X1067354Y1003189D03*
X1051024Y1006549D03*
X1040228Y977519D03*
X1059024Y981519D03*
X1051424Y972519D03*
X1056624Y978949D03*
X1104254Y978952D03*
X1112756Y994090D03*
X1110556Y988990D03*
X1109150Y983834D03*
X1099454Y989046D03*
Y994146D03*
X1090224Y974549D03*
X1091799Y997283D03*
X1097806Y981190D03*
X1085206Y1003390D03*
X1092004Y982402D03*
X1091806Y1006390D03*
X1097004Y977602D03*
X1137354Y974452D03*
X1115783Y1001945D03*
X1150904Y989152D03*
X1115356Y994190D03*
X1118856Y983890D03*
X1121654Y981252D03*
X1117156Y996990D03*
X1120956Y988990D03*
X1138300Y981930D03*
X1138270Y984680D03*
X1145654Y999252D03*
X1137304Y977702D03*
X1131654Y996846D03*
X1175654Y969846D03*
X1172654Y999046D03*
X1187654D03*
X1177654D03*
X1182654D03*
X1193954Y999852D03*
X1169154Y1005852D03*
X1175654Y986752D03*
X1182154Y968846D03*
X1189154Y969346D03*
X1161550Y971310D03*
X1159520Y971346D03*
X1190454Y995302D03*
X1187454Y994952D03*
X1160754Y967852D03*
X1182154Y993752D03*
X1185154Y990846D03*
X1173154Y995402D03*
X1171154Y987252D03*
X1166299Y986540D03*
X1168654Y999352D03*
X1178898Y989202D03*
X1160654Y987046D03*
X1230904Y998852D03*
X1213154Y1004052D03*
X1230954Y987252D03*
X1217454Y980452D03*
X1222606Y992590D03*
X1203406Y990190D03*
X1210606Y992590D03*
X1224654Y980752D03*
X1238300Y981000D03*
X1248100Y983100D03*
X1250054Y1000952D03*
X1242754Y1000852D03*
X1234654Y998052D03*
X1246154Y1000952D03*
X1311754Y989252D03*
X1302654Y981752D03*
X1302154Y984752D03*
X1300154Y979252D03*
X1298654Y983252D03*
X1299654Y970990D03*
X1301618Y973490D03*
X1292654Y980252D03*
X1296654Y974490D03*
X1294656Y970890D03*
X1292654Y974252D03*
X1290154Y971252D03*
Y974252D03*
X1286654Y973252D03*
X1280154Y990002D03*
X1284154Y967752D03*
X1314154Y1003252D03*
X1309154D03*
Y993152D03*
X1314154D03*
X1313954Y972752D03*
X1327154Y998752D03*
X1335654Y1003252D03*
X1318654D03*
X1339654D03*
X1323154Y1005752D03*
X1330154Y1002752D03*
X1336454Y972752D03*
X1339654Y991852D03*
X1331654Y1005752D03*
X1029424Y1008149D03*
X1003000Y1011000D03*
X1034228Y1015019D03*
X1060728Y1021519D03*
X1069154Y1026024D03*
X1046228Y1008019D03*
X1091799Y1021299D03*
X1085206Y1024990D03*
X1150854Y1019052D03*
X1120458Y1008290D03*
X1125658D03*
X1171454Y1014352D03*
X1161254Y1014752D03*
X1174254Y1019252D03*
X1183754Y1019652D03*
X1164254Y1020852D03*
X1193754Y1020552D03*
X1222418Y1010940D03*
X1221654Y1014752D03*
X1208154Y1021752D03*
X1222654Y1018752D03*
X1195754Y1009052D03*
X1208654Y1011502D03*
X1196554Y1014752D03*
X1233204Y1014852D03*
X1235154Y1017546D03*
X1257654Y1017646D03*
X1246356Y1011690D03*
X1290654Y1018752D03*
X1343154Y1015252D03*
G54D277*
X999654Y863610D02*
X997986Y865277D01*
Y895136*
X1001654Y862846D02*
Y864670D01*
X999046Y867277*
Y894546*
X999618Y860990D02*
X999654Y863610D01*
X1003654Y860346D02*
Y864302D01*
X1000106Y867850*
Y893956*
X1005618Y865346D02*
Y869882D01*
X1004400Y871100*
Y894950*
X1003654Y867846D02*
Y870346D01*
X1003300Y870700*
Y895500*
X1006654Y872346D02*
Y874346D01*
X1005500Y875500*
Y894346*
X1112343Y851090D02*
X1113918Y852665D01*
Y855700*
X1115700Y857482*
Y865500*
X1114950Y866250*
Y880650*
X1112354Y883246*
Y903200*
X1113850Y904696*
Y909404*
X1112354Y910900*
Y915696*
X1109906Y918144*
Y935242*
X1112354Y937690*
Y940352*
X1122654Y950652*
Y958652*
X1124198Y960197*
X1131653*
X1133228Y961772*
X1109193Y847940D02*
X1110768Y849515D01*
Y855800*
X1113700Y858732*
Y865204*
X1110654Y868250*
Y903200*
X1112750Y905296*
Y908700*
X1110654Y910796*
Y914646*
X1108806Y916494*
Y935942*
X1110654Y937790*
Y943552*
X1105858Y856252D02*
Y857752D01*
X1106700Y858594*
Y859100*
X1109500Y861900*
Y863846*
X1109592Y863938*
Y902242*
X1109042Y902792*
Y913508*
X1107706Y914844*
Y937442*
X1109054Y938790*
Y945952*
X1091854Y848252D02*
Y853052D01*
X1096154Y857352*
X1102454*
X1105600Y860498*
Y867450*
X1105050Y868000*
Y910350*
X1106150Y911450*
Y954523*
X1119079Y967452*
X1146104*
X1088654Y848352D02*
Y852102D01*
X1095029Y858477*
X1101904*
X1104500Y861073*
Y866350*
X1103950Y866900*
Y915850*
X1105050Y916950*
Y956398*
X1117554Y968902*
X1147154*
X1085454Y848152D02*
Y851677D01*
X1093466Y859689*
X1101416*
X1103127Y861400*
Y865250*
X1102850Y865527*
Y917298*
X1103950Y918398*
Y957848*
X1116454Y970352*
X1148004*
X1098504Y862302D02*
X1101750Y865548D01*
Y918946*
X1102850Y920046*
Y958846*
X1115656Y971652*
X1149804*
X1151418Y867681D02*
X1152768Y869031D01*
X1173077*
X1185556Y881510*
Y909444*
X1149868Y868690D02*
X1151618Y870440D01*
X1171391*
X1183704Y882752*
Y900902*
X1153293Y851090D02*
X1154804Y852600D01*
Y855190*
X1153754Y856240*
X1149168*
X1148168Y857240*
Y869240*
X1150700Y871771*
X1169737*
X1171704Y873737*
Y899252*
X1170404Y900552*
X1168554*
X1150143Y851140D02*
X1151718Y852740D01*
Y853890*
X1150768Y854840*
X1148068*
X1146818Y856090*
Y869990*
X1149975Y873146*
X1168412*
X1170504Y875237*
Y893800*
X1169654Y894650*
X1143843Y847940D02*
X1145418Y849515D01*
Y865787*
X1132653Y878553*
Y884947*
X1128150Y889450*
X1124653*
X1123553Y890550*
Y893850*
X1124850Y895147*
Y925044*
X1130079Y930272*
X1140693Y851090D02*
X1142268Y852665D01*
Y867137*
X1130928Y878478*
Y884775*
X1128150Y887553*
X1124547*
X1122100Y890000*
Y894400*
X1123750Y896050*
Y927048*
X1130079Y933377*
Y933425*
X1137543Y847940D02*
X1139118Y849515D01*
Y868187*
X1129053Y878253*
Y883950*
X1126775Y886228*
X1123672*
X1120450Y889450*
Y894950*
X1122650Y897150*
Y935419*
X1124371Y937140*
X1129513*
X1134393Y851090D02*
X1135968Y852665D01*
Y865325*
X1134454Y866840*
Y871046*
X1127325Y878175*
Y882850*
X1125125Y885050*
X1120450*
X1118826Y886674*
Y894976*
X1121550Y897700*
Y936559*
X1123351Y938360*
X1131443*
X1131243Y847940D02*
X1132818Y849515D01*
Y855815*
X1131254Y857380*
Y872596*
X1125950Y877900*
Y881750*
X1123750Y883950*
X1119900*
X1117766Y886084*
Y895500*
X1120516Y898250*
Y914750*
X1117766Y917500*
Y935125*
X1122393Y939752*
X1136428*
X1141102Y944426*
Y950774*
X1139527Y952323*
X1128147Y851086D02*
X1129629Y852568D01*
Y857390*
X1128054Y858965*
Y874146*
X1124300Y877900*
Y881750*
X1123200Y882850*
X1119350*
X1116706Y885494*
Y900556*
X1118800Y902650*
Y914306*
X1116706Y916400*
Y935855*
X1122903Y942052*
X1136154*
X1137953Y943851*
Y951153*
X1136782Y952323*
X1136378*
X1124943Y847940D02*
X1126518Y849515D01*
Y874032*
X1115646Y884904*
Y901146*
X1117150Y902650*
Y913246*
X1115646Y914750*
Y936985*
X1122213Y943552*
X1133254*
X1134803Y945102*
Y950748*
X1133228Y952323*
X1121793Y851090D02*
X1123368Y852665D01*
Y854728*
X1118848Y859248*
Y880052*
X1114586Y884314*
Y902100*
X1116050Y903564*
Y911636*
X1114586Y913100*
Y938035*
X1125554Y949002*
Y949552*
X1128325Y952323*
X1130079*
X1115493Y847940D02*
X1117068Y849515D01*
Y880182*
X1113526Y883724*
Y902650*
X1114950Y904074*
Y910576*
X1113526Y912000*
Y939055*
X1123754Y949282*
Y956452*
X1126054Y958752*
X1129949*
X1138454Y884652D02*
Y887152D01*
X1134196Y891409*
Y896095*
X1141102Y903001*
Y906654*
X1142677Y908228*
X1167988Y865509D02*
X1169918Y867440D01*
X1175788*
X1189306Y880958*
Y899490*
X1173768Y857240D02*
X1172618Y858390D01*
X1169588*
X1167988Y859990*
Y865509*
X1161168Y857122D02*
X1159451Y858840D01*
X1152668*
X1151418Y860090*
Y867681*
X1158018Y855490D02*
X1155968Y857540D01*
X1150768*
X1149868Y858440*
Y868690*
X1169718Y865090D02*
X1170982Y866353D01*
X1181725*
X1190506Y875135*
Y900799*
X1176918Y857740D02*
X1174918Y859740D01*
X1171068*
X1169718Y861090*
Y865090*
X1173668Y863440D02*
X1174218Y863990D01*
X1183221*
X1193504Y874272*
Y895237*
X1195754Y897487*
Y915702*
X1183218Y860490D02*
X1181718Y861990D01*
X1174168*
X1173668Y862490*
Y863440*
X1171268Y864578D02*
X1171868Y865178D01*
X1182500*
X1192104Y874782*
Y895952*
X1194054Y897902*
Y910552*
X1180068Y857990D02*
X1177168Y860890D01*
X1172218*
X1171268Y861840*
Y864578*
X1172193Y847940D02*
X1173768Y849515D01*
Y857240*
X1159593Y851090D02*
X1161168Y852665D01*
Y857122*
X1156443Y847940D02*
X1158018Y849515D01*
Y855490*
X1175343Y851090D02*
X1176918Y852665D01*
Y857740*
X1181643Y851090D02*
X1183218Y852665D01*
Y860490*
X1178493Y847940D02*
X1180068Y849515D01*
Y857990*
X1205454Y852852D02*
Y878452D01*
X1218654Y891652*
Y920152*
X1224654Y926152*
Y945346*
X1220654Y949346*
X1306500Y886206D02*
Y905846D01*
X1307500Y906846*
X1305000Y885601D02*
Y906946D01*
X1306000Y907946*
X1303500Y884651D02*
Y907546D01*
X1304500Y908546*
X1302000Y883602D02*
Y908546D01*
X1302500Y909046*
X1307101Y852666D02*
Y868495D01*
X1292806Y882790*
Y889637*
X1290500Y891943*
Y919000*
X1289653Y919847*
Y935653*
X1288154Y937152*
Y938752*
X1280354Y946552*
Y961752*
X1280154*
X1303951Y849516D02*
Y869845D01*
X1291006Y882790*
Y889137*
X1288354Y891790*
Y906442*
X1287406Y907390*
X1300801Y852665D02*
Y871195D01*
X1285589Y886407*
Y911650*
X1285936Y911997*
Y920072*
X1286454Y920590*
Y923152*
X1297651Y849515D02*
Y872545D01*
X1283476Y886720*
Y912742*
X1284654Y913919*
Y924052*
X1285354Y924752*
X1294501Y852665D02*
Y873895D01*
X1281901Y886495*
Y912801*
X1283154Y914054*
X1280319Y886277D02*
Y913156D01*
X1281254Y914090*
Y919552*
X1278744Y886052D02*
Y914556D01*
X1279854Y915665*
X1311826Y855900D02*
X1313401Y857550D01*
Y863995*
X1294006Y883390*
Y888790*
X1295897Y890681*
Y916103*
X1290947Y921053*
Y941049*
X1284654Y947342*
Y958252*
X1305525Y851090D02*
X1307101Y852666D01*
X1302375Y847940D02*
X1303951Y849516D01*
X1299226Y851090D02*
X1300801Y852665D01*
X1296076Y847940D02*
X1297651Y849515D01*
X1292926Y851090D02*
X1294501Y852665D01*
X1292926Y847940D02*
X1291351Y849515D01*
Y875245*
X1280319Y886277*
X1288154Y855952D02*
Y876642D01*
X1278744Y886052*
X1348044Y851090D02*
Y869304D01*
X1341696Y875652*
X1331854*
X1323554Y883952*
Y886681*
X1316206Y894028*
Y922390*
X1306661Y931935*
Y946782*
X1304654Y948790*
Y952227*
X1303221Y953660*
X1338594Y852658D02*
Y870405D01*
X1335647Y873352*
X1329847*
X1320054Y883146*
Y886581*
X1313725Y892909*
Y921271*
X1304206Y930790*
Y944537*
X1301751Y946992*
Y951090*
X1300131Y952710*
X1300051*
X1332301Y852665D02*
Y862604D01*
X1311263Y883643*
Y891607*
X1308000Y894870*
X1329151Y849515D02*
Y863554D01*
X1306500Y886206*
X1326001Y852665D02*
Y864600D01*
X1305000Y885601*
X1322851Y849515D02*
Y865300D01*
X1303500Y884651*
X1319701Y852665D02*
Y865901D01*
X1302000Y883602*
X1352769Y847940D02*
X1354344Y849515D01*
X1349619Y851090D02*
X1351194Y852665D01*
Y870403*
X1344646Y876952*
X1334454*
X1325054Y886352*
Y886981*
X1320204Y891831*
Y920192*
X1307806Y932590*
Y947905*
X1308754Y948852*
Y954845*
X1307668Y955930*
X1346469Y849515D02*
X1348044Y851090D01*
X1340169Y855350D02*
X1342097Y857000D01*
Y869952*
X1337497Y874552*
X1330897*
X1321854Y883595*
Y886581*
X1314925Y893509*
Y921871*
X1305325Y931471*
Y946318*
X1303454Y948190*
Y951470*
X1301604Y953320*
X1301561Y958767*
X1303454Y960660*
Y978452*
X1298654Y983252*
X1337026Y851090D02*
X1338594Y852658D01*
X1333876Y847940D02*
X1335451Y849515D01*
Y864156*
X1336560Y865265*
Y869990*
X1334498Y872052*
X1328354*
X1316754Y883652*
Y888081*
X1312525Y892309*
Y920671*
X1299500Y933696*
Y936000*
X1330726Y851090D02*
X1332301Y852665D01*
X1327576Y847940D02*
X1329151Y849515D01*
X1324426Y851090D02*
X1326001Y852665D01*
X1321276Y847940D02*
X1322851Y849515D01*
X1318126Y851090D02*
X1319701Y852665D01*
X1314976Y847940D02*
X1316551Y849515D01*
Y866801*
X1298926Y884426*
X1298574Y885500*
X1297000Y887000*
Y917000*
X1294000Y920000*
Y922500*
X1354344Y849515D02*
Y871403D01*
X1347395Y878352*
X1334754*
X1326654Y886452*
Y887181*
X1321747Y892087*
Y920449*
X1309006Y933190*
X1363744Y852614D02*
Y868152D01*
X1350544Y881352*
X1336082*
X1323947Y893487*
Y921849*
X1311406Y934390*
X1362219Y851090D02*
X1363744Y852614D01*
X1359069Y847940D02*
X1360644Y849465D01*
Y868752*
X1349744Y879652*
X1335054*
X1327954Y886752*
Y887681*
X1322847Y892787*
Y921149*
X1310206Y933790*
Y945205*
X1310954Y945952*
Y957252*
X999046Y894546D02*
X1007700Y903200D01*
X1082452*
X1084678Y905426*
Y908376*
X1092454Y916152*
Y955699*
X1094706Y957952*
Y965199*
X1112756Y983249*
Y994090*
X997986Y895136D02*
X1007150Y904300D01*
X1081607*
X1083256Y905949*
Y908905*
X1091404Y917052*
Y956752*
X1093206Y958555*
Y965199*
X1100802Y972794*
Y981635*
X1108156Y988990*
X1110556*
X1000106Y893956D02*
X1008250Y902100D01*
X1083302*
X1086156Y904955*
Y907755*
X1093554Y915152*
Y954737*
X1096154Y957337*
Y964946*
X1114102Y982894*
Y990135*
X1115356Y991390*
Y994190*
X1004400Y894950D02*
X1009350Y899900D01*
X1087141*
X1095854Y908613*
Y953437*
X1099006Y956590*
Y964040*
X1118856Y983890*
X1003300Y895500D02*
X1008800Y901000D01*
X1086257*
X1094754Y909497*
Y954137*
X1097506Y956890*
Y964690*
X1115702Y982885*
Y989335*
X1117156Y990790*
Y996990*
X1005500Y894346D02*
X1009954Y898800D01*
X1087767*
X1096954Y907987*
Y952737*
X1100606Y956390*
Y962799*
X1120956Y983149*
Y988990*
X1125654Y891352D02*
Y894400D01*
X1125950Y894696*
Y913548*
X1130079Y917677*
X1138254Y891152D02*
X1135786Y893619D01*
Y895685*
X1142677Y902575*
Y905079*
X1127554Y893452D02*
Y905703D01*
X1130079Y908228*
X1189306Y899490D02*
X1186706Y902090D01*
Y911999*
X1185754Y912952*
X1182554*
X1182104Y913402*
Y916046*
X1180473Y917677*
X1185556Y909444D02*
X1183622Y911378D01*
X1182047Y906596D02*
X1183622Y908171D01*
Y908228*
X1183704Y900902D02*
X1182047Y902558D01*
Y906596*
X1190506Y900799D02*
X1187904Y903402D01*
Y912652*
X1186354Y914202*
X1184704*
X1183754Y915152*
Y917546*
X1183622Y917677*
X1194054Y910552D02*
X1186929Y917677D01*
X1186772*
X1175748Y909803D02*
Y966752D01*
X1173154Y969346*
Y995402*
X1169654Y894630D02*
Y894650D01*
X1164725Y905079D02*
X1163154Y906650D01*
X1160554*
X1160000Y907203*
Y967098*
X1160754Y967852*
X1164725Y908228D02*
X1163150Y909803D01*
Y968193*
X1164290Y969334*
Y978363*
X1155954Y986699*
Y995752*
X1150854Y1000852*
Y1019052*
X1174173Y908228D02*
X1175748Y909803D01*
X1174173Y905079D02*
X1172598Y906654D01*
Y966902*
X1171154Y968346*
Y987252*
X1179154Y889846D02*
Y897852D01*
X1174659Y902346*
X1167799*
X1166299Y903846*
Y986540*
X1171024Y905079D02*
X1169449Y906654D01*
Y967551*
X1168654Y968346*
Y999352*
X1177323Y908228D02*
X1178898Y909859D01*
Y989202*
X1195754Y915702D02*
X1193779Y917677D01*
X1189921*
X1234154Y911846D02*
X1229754Y916246D01*
Y980646*
X1204654Y1005746*
X1224154Y911846D02*
X1228554Y916246D01*
Y980046*
X1204054Y1004546*
X1308000Y894870D02*
Y905246D01*
X1309000Y906246*
Y922543*
X1297547Y933996*
X1307500Y906846D02*
Y922096D01*
X1296447Y933149*
X1306000Y907946D02*
Y921796D01*
X1295347Y932449*
Y944358*
X1293754Y945952*
Y958352*
X1291504Y960602*
Y966402*
X1290154Y967752*
Y971252*
X1304500Y908546D02*
Y921496D01*
X1294247Y931749*
Y943658*
X1292154Y945752*
Y958252*
X1288654Y961752*
Y964752*
X1302500Y909046D02*
Y921543D01*
X1293147Y930896*
Y942758*
X1288654Y947252*
Y959252*
X1287406Y907390D02*
Y919642D01*
X1288354Y920590*
Y930098*
X1288000Y930452*
Y932402*
X1285354Y924752D02*
Y930052D01*
X1283654Y931752*
X1283154Y914054D02*
Y921652D01*
X1281754Y923052*
Y933652*
X1279854Y915665D02*
Y918190D01*
X1279006Y919037*
Y920942*
X1279854Y921790*
Y925152*
X1294000Y922500D02*
X1293898Y922648D01*
X1292047Y924499*
Y941749*
X1286654Y947142*
Y959752*
X1284154Y962252*
Y963752*
X1280154Y967752*
Y990002*
X1133228Y933425D02*
X1129513Y937140D01*
X1136378Y933425D02*
X1131443Y938360D01*
X1130079Y958622D02*
X1129949Y958752D01*
X1148976Y961772D02*
X1147402Y963346D01*
Y966154*
X1146104Y967452*
X1148976Y964921D02*
Y967079D01*
X1147154Y968902*
X1152126Y955473D02*
X1150551Y957047D01*
Y967804*
X1148004Y970352*
X1152126Y958622D02*
X1153701Y960197D01*
Y967755*
X1149804Y971652*
X1183622Y961772D02*
X1182047Y963347D01*
Y967046*
X1182154Y967152*
Y968846*
X1183622Y964921D02*
X1185654Y966953D01*
Y968346*
X1186654Y969346*
X1189154*
X1272854Y944752D02*
Y991452D01*
X1280854Y999452*
X1313354*
X1314154Y1000252*
Y1003252*
X1309006Y933190D02*
Y946705D01*
X1309804Y947502*
Y956157*
X1307454Y958507*
Y962152*
X1311754Y966452*
Y989252*
X1303221Y953660D02*
Y958067D01*
X1304654Y959500*
Y982252*
X1302154Y984752*
X1300051Y952710D02*
Y959680D01*
X1301751Y961380*
Y973357*
X1301618Y973490*
X1297547Y933996D02*
Y944641D01*
X1299406Y946500*
Y949745*
X1295806Y953345*
Y969599*
X1294554Y970852*
X1296447Y933149D02*
Y945494D01*
X1297454Y946500*
Y949152*
X1297504*
X1283654Y931752D02*
Y936752D01*
X1284354Y937452*
X1285654*
X1311406Y934390D02*
Y943205D01*
X1312654Y944452*
Y959952*
X1299500Y936000D02*
Y944083D01*
X1300606Y945190*
Y950355*
X1297006Y953955*
Y970899*
X1296654Y971252*
Y974490*
X1277554Y941752D02*
Y949252D01*
X1275304Y951502*
Y989902*
X1282454Y997052*
X1325454*
X1327154Y998752*
X1279604Y943852D02*
Y945252D01*
X1278654Y946202*
Y950252*
X1276654Y952252*
Y989252*
X1283254Y995852*
X1331254*
X1335654Y1000252*
Y1003252*
X1275554Y947252D02*
Y949402D01*
X1274104Y950852*
Y990702*
X1281654Y998252*
X1316354*
X1318654Y1000552*
Y1003252*
X1177654Y999046D02*
X1179354Y1000746D01*
Y1002946*
X1182154Y1005746*
X1204654*
X1182654Y999046D02*
X1180954Y1000746D01*
Y1002546*
X1182954Y1004546*
X1204054*
X1294554Y970852D02*
Y970787D01*
X1294656Y970890*
X0Y0D02*
M02*
