*
*
G04 PADS9.1 Build Number: 384028 generated Gerber (RS-274-X) file*
G04 PC Version=2.1*
*
%IN "{TEX113}_F2837x control"*%
*
%MOIN*%
*
%FSLAX35Y35*%
*
*
*
*
G04 PC Standard Apertures*
*
*
G04 Thermal Relief Aperture macro.*
%AMTER*
1,1,$1,0,0*
1,0,$1-$2,0,0*
21,0,$3,$4,0,0,45*
21,0,$3,$4,0,0,135*
%
*
*
G04 Annular Aperture macro.*
%AMANN*
1,1,$1,0,0*
1,0,$2,0,0*
%
*
*
G04 Odd Aperture macro.*
%AMODD*
1,1,$1,0,0*
1,0,$1-0.005,0,0*
%
*
*
G04 PC Custom Aperture Macros*
*
*
*
*
*
*
G04 PC Aperture Table*
*
%ADD158C,0*%
%ADD188C,0.01*%
%ADD190C,0.004*%
%ADD194C,0.008*%
%ADD199C,0.006*%
%ADD200C,0.00787*%
%ADD201C,0.005*%
*
*
*
*
G04 PC Circuitry*
G04 Layer Name {TEX113}_F2837x control - circuitry*
%LPD*%
*
*
G04 PC Custom Flashes*
G04 Layer Name {TEX113}_F2837x control - flashes*
%LPD*%
*
*
G04 PC Circuitry*
G04 Layer Name {TEX113}_F2837x control - circuitry*
%LPD*%
*
G54D158*
G54D188*
G01X1017083Y970390D02*
X1020583D01*
Y967890*
X1023583*
Y970390*
X1027083*
Y950390*
X1017083*
Y970390*
X1020583*
Y967890*
X1023583*
Y970390*
X1027083*
Y950390*
X1017083*
Y970390*
X1070500Y976890D02*
X1074000D01*
Y974390*
X1077000*
Y976890*
X1080500*
Y956890*
X1070500*
Y976890*
X1074000*
Y974390*
X1077000*
Y976890*
X1080500*
Y956890*
X1070500*
Y976890*
X1070481Y953390D02*
X1073981D01*
Y950890*
X1076981*
Y953390*
X1080481*
Y933390*
X1070481*
Y953390*
X1073981*
Y950890*
X1076981*
Y953390*
X1080481*
Y933390*
X1070481*
Y953390*
X1070981Y1023890D02*
X1074481D01*
Y1021390*
X1077481*
Y1023890*
X1080981*
Y1003890*
X1070981*
Y1023890*
X1074481*
Y1021390*
X1077481*
Y1023890*
X1080981*
Y1003890*
X1070981*
Y1023890*
Y999890D02*
X1074481D01*
Y997390*
X1077481*
Y999890*
X1080981*
Y979890*
X1070981*
Y999890*
X1074481*
Y997390*
X1077481*
Y999890*
X1080981*
Y979890*
X1070981*
Y999890*
X1219154Y916846D02*
X1229154D01*
Y891846*
X1219154*
Y916846*
X1229154D02*
X1239154D01*
Y891846*
X1229154*
Y916846*
X1239154D02*
X1249154D01*
Y891846*
X1239154*
Y916846*
X1249154D02*
X1259154D01*
Y891846*
X1249154*
Y916846*
X1259154D02*
X1269154D01*
Y891846*
X1259154*
Y916846*
X1269154D02*
X1279154D01*
Y891846*
X1269154*
Y916846*
X1451097Y383484D02*
Y373641D01*
X1455187*
X1460983Y383484D02*
X1458256Y373641D01*
X1460983Y383484D02*
X1463710Y373641D01*
X1459278Y376922D02*
X1462687D01*
X1466778Y383484D02*
X1469506Y378797D01*
Y373641*
X1472233Y383484D02*
X1469506Y378797D01*
X1475301Y383484D02*
Y373641D01*
Y383484D02*
X1479733D01*
X1475301Y378797D02*
X1478028D01*
X1475301Y373641D02*
X1479733D01*
X1482801Y383484D02*
Y373641D01*
Y383484D02*
X1485869D01*
X1486892Y383016*
X1487233Y382547*
X1487574Y381609*
Y380672*
X1487233Y379734*
X1486892Y379266*
X1485869Y378797*
X1482801*
X1485187D02*
X1487574Y373641D01*
X1418244Y554334D02*
X1415517Y544490D01*
X1418244Y554334D02*
X1420972Y544490D01*
X1416540Y547771D02*
X1419949D01*
X1424040Y551052D02*
Y544490D01*
Y548240D02*
X1424381Y549646D01*
X1425063Y550584*
X1425744Y551052*
X1426767*
X1430858Y554334D02*
Y546365D01*
X1431199Y544959*
X1431881Y544490*
X1432563*
X1429835Y551052D02*
X1432222D01*
X1435631D02*
X1436994Y544490D01*
X1438358Y551052D02*
X1436994Y544490D01*
X1438358Y551052D02*
X1439722Y544490D01*
X1441085Y551052D02*
X1439722Y544490D01*
X1445858Y551052D02*
X1445176Y550584D01*
X1444494Y549646*
X1444153Y548240*
Y547302*
X1444494Y545896*
X1445176Y544959*
X1445858Y544490*
X1446881*
X1447563Y544959*
X1448244Y545896*
X1448585Y547302*
Y548240*
X1448244Y549646*
X1447563Y550584*
X1446881Y551052*
X1445858*
X1451653D02*
Y544490D01*
Y548240D02*
X1451994Y549646D01*
X1452676Y550584*
X1453358Y551052*
X1454381*
X1457449Y554334D02*
Y544490D01*
X1460858Y551052D02*
X1457449Y546365D01*
X1458813Y548240D02*
X1461199Y544490D01*
X1472108Y554334D02*
Y544490D01*
Y554334D02*
X1474494D01*
X1475517Y553865*
X1476199Y552927*
X1476540Y551990*
X1476881Y550584*
Y548240*
X1476540Y546834*
X1476199Y545896*
X1475517Y544959*
X1474494Y544490*
X1472108*
X1479949Y548240D02*
X1484040D01*
Y549177*
X1483699Y550115*
X1483358Y550584*
X1482676Y551052*
X1481653*
X1480972Y550584*
X1480290Y549646*
X1479949Y548240*
Y547302*
X1480290Y545896*
X1480972Y544959*
X1481653Y544490*
X1482676*
X1483358Y544959*
X1484040Y545896*
X1490858Y549646D02*
X1490517Y550584D01*
X1489494Y551052*
X1488472*
X1487449Y550584*
X1487108Y549646*
X1487449Y548709*
X1488131Y548240*
X1489835Y547771*
X1490517Y547302*
X1490858Y546365*
Y545896*
X1490517Y544959*
X1489494Y544490*
X1488472*
X1487449Y544959*
X1487108Y545896*
X1493926Y554334D02*
X1494267Y553865D01*
X1494608Y554334*
X1494267Y554802*
X1493926Y554334*
X1494267Y551052D02*
Y544490D01*
X1501767Y551052D02*
Y543552D01*
X1501426Y542146*
X1501085Y541677*
X1500403Y541209*
X1499381*
X1498699Y541677*
X1501767Y549646D02*
X1501085Y550584D01*
X1500403Y551052*
X1499381*
X1498699Y550584*
X1498017Y549646*
X1497676Y548240*
Y547302*
X1498017Y545896*
X1498699Y544959*
X1499381Y544490*
X1500403*
X1501085Y544959*
X1501767Y545896*
X1504835Y551052D02*
Y544490D01*
Y549177D02*
X1505858Y550584D01*
X1506540Y551052*
X1507563*
X1508244Y550584*
X1508585Y549177*
Y544490*
X1511653Y548240D02*
X1515744D01*
Y549177*
X1515403Y550115*
X1515063Y550584*
X1514381Y551052*
X1513358*
X1512676Y550584*
X1511994Y549646*
X1511653Y548240*
Y547302*
X1511994Y545896*
X1512676Y544959*
X1513358Y544490*
X1514381*
X1515063Y544959*
X1515744Y545896*
X1522903Y554334D02*
Y544490D01*
Y549646D02*
X1522222Y550584D01*
X1521540Y551052*
X1520517*
X1519835Y550584*
X1519153Y549646*
X1518813Y548240*
Y547302*
X1519153Y545896*
X1519835Y544959*
X1520517Y544490*
X1521540*
X1522222Y544959*
X1522903Y545896*
X1533813Y554334D02*
Y544490D01*
Y554334D02*
X1538244D01*
X1533813Y549646D02*
X1536540D01*
X1543017Y551052D02*
X1542335Y550584D01*
X1541653Y549646*
X1541313Y548240*
Y547302*
X1541653Y545896*
X1542335Y544959*
X1543017Y544490*
X1544040*
X1544722Y544959*
X1545403Y545896*
X1545744Y547302*
Y548240*
X1545403Y549646*
X1544722Y550584*
X1544040Y551052*
X1543017*
X1548813D02*
Y544490D01*
Y548240D02*
X1549153Y549646D01*
X1549835Y550584*
X1550517Y551052*
X1551540*
X1554949D02*
X1554608Y550584D01*
X1554949Y550115*
X1555290Y550584*
X1554949Y551052*
Y545427D02*
X1554608Y544959D01*
X1554949Y544490*
X1555290Y544959*
X1554949Y545427*
X1415517Y499334D02*
Y489490D01*
Y499334D02*
X1418585D01*
X1419608Y498865*
X1419949Y498396*
X1420290Y497459*
Y496521*
X1419949Y495584*
X1419608Y495115*
X1418585Y494646*
X1415517D02*
X1418585D01*
X1419608Y494177*
X1419949Y493709*
X1420290Y492771*
Y491365*
X1419949Y490427*
X1419608Y489959*
X1418585Y489490*
X1415517*
X1425063Y496052D02*
X1424381Y495584D01*
X1423699Y494646*
X1423358Y493240*
Y492302*
X1423699Y490896*
X1424381Y489959*
X1425063Y489490*
X1426085*
X1426767Y489959*
X1427449Y490896*
X1427790Y492302*
Y493240*
X1427449Y494646*
X1426767Y495584*
X1426085Y496052*
X1425063*
X1434949D02*
Y489490D01*
Y494646D02*
X1434267Y495584D01*
X1433585Y496052*
X1432563*
X1431881Y495584*
X1431199Y494646*
X1430858Y493240*
Y492302*
X1431199Y490896*
X1431881Y489959*
X1432563Y489490*
X1433585*
X1434267Y489959*
X1434949Y490896*
X1438017Y496052D02*
Y489490D01*
Y493240D02*
X1438358Y494646D01*
X1439040Y495584*
X1439722Y496052*
X1440744*
X1447903Y499334D02*
Y489490D01*
Y494646D02*
X1447222Y495584D01*
X1446540Y496052*
X1445517*
X1444835Y495584*
X1444153Y494646*
X1443813Y493240*
Y492302*
X1444153Y490896*
X1444835Y489959*
X1445517Y489490*
X1446540*
X1447222Y489959*
X1447903Y490896*
X1458813Y499334D02*
Y489490D01*
Y499334D02*
X1461199D01*
X1462222Y498865*
X1462903Y497927*
X1463244Y496990*
X1463585Y495584*
Y493240*
X1463244Y491834*
X1462903Y490896*
X1462222Y489959*
X1461199Y489490*
X1458813*
X1466653Y493240D02*
X1470744D01*
Y494177*
X1470403Y495115*
X1470063Y495584*
X1469381Y496052*
X1468358*
X1467676Y495584*
X1466994Y494646*
X1466653Y493240*
Y492302*
X1466994Y490896*
X1467676Y489959*
X1468358Y489490*
X1469381*
X1470063Y489959*
X1470744Y490896*
X1477563Y494646D02*
X1477222Y495584D01*
X1476199Y496052*
X1475176*
X1474153Y495584*
X1473813Y494646*
X1474153Y493709*
X1474835Y493240*
X1476540Y492771*
X1477222Y492302*
X1477563Y491365*
Y490896*
X1477222Y489959*
X1476199Y489490*
X1475176*
X1474153Y489959*
X1473813Y490896*
X1484722Y494646D02*
X1484040Y495584D01*
X1483358Y496052*
X1482335*
X1481653Y495584*
X1480972Y494646*
X1480631Y493240*
Y492302*
X1480972Y490896*
X1481653Y489959*
X1482335Y489490*
X1483358*
X1484040Y489959*
X1484722Y490896*
X1487790Y496052D02*
Y489490D01*
Y493240D02*
X1488131Y494646D01*
X1488813Y495584*
X1489494Y496052*
X1490517*
X1493585Y499334D02*
X1493926Y498865D01*
X1494267Y499334*
X1493926Y499802*
X1493585Y499334*
X1493926Y496052D02*
Y489490D01*
X1497335Y496052D02*
Y486209D01*
Y494646D02*
X1498017Y495584D01*
X1498699Y496052*
X1499722*
X1500403Y495584*
X1501085Y494646*
X1501426Y493240*
Y492302*
X1501085Y490896*
X1500403Y489959*
X1499722Y489490*
X1498699*
X1498017Y489959*
X1497335Y490896*
X1505517Y499334D02*
Y491365D01*
X1505858Y489959*
X1506540Y489490*
X1507222*
X1504494Y496052D02*
X1506881D01*
X1510290Y499334D02*
X1510631Y498865D01*
X1510972Y499334*
X1510631Y499802*
X1510290Y499334*
X1510631Y496052D02*
Y489490D01*
X1515744Y496052D02*
X1515063Y495584D01*
X1514381Y494646*
X1514040Y493240*
Y492302*
X1514381Y490896*
X1515063Y489959*
X1515744Y489490*
X1516767*
X1517449Y489959*
X1518131Y490896*
X1518472Y492302*
Y493240*
X1518131Y494646*
X1517449Y495584*
X1516767Y496052*
X1515744*
X1521540D02*
Y489490D01*
Y494177D02*
X1522563Y495584D01*
X1523244Y496052*
X1524267*
X1524949Y495584*
X1525290Y494177*
Y489490*
X1528699Y496052D02*
X1528358Y495584D01*
X1528699Y495115*
X1529040Y495584*
X1528699Y496052*
Y490427D02*
X1528358Y489959D01*
X1528699Y489490*
X1529040Y489959*
X1528699Y490427*
X1415517Y429334D02*
Y419490D01*
Y429334D02*
X1418585D01*
X1419608Y428865*
X1419949Y428396*
X1420290Y427459*
Y426052*
X1419949Y425115*
X1419608Y424646*
X1418585Y424177*
X1415517*
X1427449Y426052D02*
Y419490D01*
Y424646D02*
X1426767Y425584D01*
X1426085Y426052*
X1425063*
X1424381Y425584*
X1423699Y424646*
X1423358Y423240*
Y422302*
X1423699Y420896*
X1424381Y419959*
X1425063Y419490*
X1426085*
X1426767Y419959*
X1427449Y420896*
X1430517Y426052D02*
Y419490D01*
Y423240D02*
X1430858Y424646D01*
X1431540Y425584*
X1432222Y426052*
X1433244*
X1437335Y429334D02*
Y421365D01*
X1437676Y419959*
X1438358Y419490*
X1439040*
X1436313Y426052D02*
X1438699D01*
X1449949Y429334D02*
Y419490D01*
Y429334D02*
X1454722Y419490D01*
Y429334D02*
Y419490D01*
X1459494Y426052D02*
X1458813Y425584D01*
X1458131Y424646*
X1457790Y423240*
Y422302*
X1458131Y420896*
X1458813Y419959*
X1459494Y419490*
X1460517*
X1461199Y419959*
X1461881Y420896*
X1462222Y422302*
Y423240*
X1461881Y424646*
X1461199Y425584*
X1460517Y426052*
X1459494*
X1465631D02*
X1465290Y425584D01*
X1465631Y425115*
X1465972Y425584*
X1465631Y426052*
Y420427D02*
X1465290Y419959D01*
X1465631Y419490*
X1465972Y419959*
X1465631Y420427*
X1715517Y429334D02*
Y419490D01*
Y429334D02*
X1718585D01*
X1719608Y428865*
X1719949Y428396*
X1720290Y427459*
Y426521*
X1719949Y425584*
X1719608Y425115*
X1718585Y424646*
X1715517*
X1717903D02*
X1720290Y419490D01*
X1723358Y423240D02*
X1727449D01*
Y424177*
X1727108Y425115*
X1726767Y425584*
X1726085Y426052*
X1725063*
X1724381Y425584*
X1723699Y424646*
X1723358Y423240*
Y422302*
X1723699Y420896*
X1724381Y419959*
X1725063Y419490*
X1726085*
X1726767Y419959*
X1727449Y420896*
X1730517Y426052D02*
X1732563Y419490D01*
X1734608Y426052D02*
X1732563Y419490D01*
X1737676Y429334D02*
X1738017Y428865D01*
X1738358Y429334*
X1738017Y429802*
X1737676Y429334*
X1738017Y426052D02*
Y419490D01*
X1745176Y424646D02*
X1744835Y425584D01*
X1743813Y426052*
X1742790*
X1741767Y425584*
X1741426Y424646*
X1741767Y423709*
X1742449Y423240*
X1744153Y422771*
X1744835Y422302*
X1745176Y421365*
Y420896*
X1744835Y419959*
X1743813Y419490*
X1742790*
X1741767Y419959*
X1741426Y420896*
X1748244Y429334D02*
X1748585Y428865D01*
X1748926Y429334*
X1748585Y429802*
X1748244Y429334*
X1748585Y426052D02*
Y419490D01*
X1753699Y426052D02*
X1753017Y425584D01*
X1752335Y424646*
X1751994Y423240*
Y422302*
X1752335Y420896*
X1753017Y419959*
X1753699Y419490*
X1754722*
X1755403Y419959*
X1756085Y420896*
X1756426Y422302*
Y423240*
X1756085Y424646*
X1755403Y425584*
X1754722Y426052*
X1753699*
X1759494D02*
Y419490D01*
Y424177D02*
X1760517Y425584D01*
X1761199Y426052*
X1762222*
X1762903Y425584*
X1763244Y424177*
Y419490*
X1766653Y426052D02*
X1766313Y425584D01*
X1766653Y425115*
X1766994Y425584*
X1766653Y426052*
Y420427D02*
X1766313Y419959D01*
X1766653Y419490*
X1766994Y419959*
X1766653Y420427*
X1510517Y417615D02*
Y404490D01*
Y417615D02*
X1516426D01*
X1510517Y411365D02*
X1514153D01*
X1520972Y414490D02*
Y415115D01*
X1521426Y416365*
X1521881Y416990*
X1522790Y417615*
X1524608*
X1525517Y416990*
X1525972Y416365*
X1526426Y415115*
Y413865*
X1525972Y412615*
X1525063Y410740*
X1520517Y404490*
X1526881*
X1533244Y417615D02*
X1531881Y416990D01*
X1531426Y415740*
Y414490*
X1531881Y413240*
X1532790Y412615*
X1534608Y411990*
X1535972Y411365*
X1536881Y410115*
X1537335Y408865*
Y406990*
X1536881Y405740*
X1536426Y405115*
X1535063Y404490*
X1533244*
X1531881Y405115*
X1531426Y405740*
X1530972Y406990*
Y408865*
X1531426Y410115*
X1532335Y411365*
X1533699Y411990*
X1535517Y412615*
X1536426Y413240*
X1536881Y414490*
Y415740*
X1536426Y416990*
X1535063Y417615*
X1533244*
X1542335D02*
X1547335D01*
X1544608Y412615*
X1545972*
X1546881Y411990*
X1547335Y411365*
X1547790Y409490*
Y408240*
X1547335Y406365*
X1546426Y405115*
X1545063Y404490*
X1543699*
X1542335Y405115*
X1541881Y405740*
X1541426Y406990*
X1558244Y417615D02*
X1553699Y404490D01*
X1551881Y417615D02*
X1558244D01*
X1562335Y413240D02*
X1567335Y404490D01*
Y413240D02*
X1562335Y404490D01*
X1587335Y411365D02*
X1586426Y412615D01*
X1585517Y413240*
X1584153*
X1583244Y412615*
X1582335Y411365*
X1581881Y409490*
Y408240*
X1582335Y406365*
X1583244Y405115*
X1584153Y404490*
X1585517*
X1586426Y405115*
X1587335Y406365*
X1593699Y413240D02*
X1592790Y412615D01*
X1591881Y411365*
X1591426Y409490*
Y408240*
X1591881Y406365*
X1592790Y405115*
X1593699Y404490*
X1595063*
X1595972Y405115*
X1596881Y406365*
X1597335Y408240*
Y409490*
X1596881Y411365*
X1595972Y412615*
X1595063Y413240*
X1593699*
X1601426D02*
Y404490D01*
Y410740D02*
X1602790Y412615D01*
X1603699Y413240*
X1605063*
X1605972Y412615*
X1606426Y410740*
Y404490*
X1611881Y417615D02*
Y406990D01*
X1612335Y405115*
X1613244Y404490*
X1614153*
X1610517Y413240D02*
X1613699D01*
X1618244D02*
Y404490D01*
Y409490D02*
X1618699Y411365D01*
X1619608Y412615*
X1620517Y413240*
X1621881*
X1628244D02*
X1627335Y412615D01*
X1626426Y411365*
X1625972Y409490*
Y408240*
X1626426Y406365*
X1627335Y405115*
X1628244Y404490*
X1629608*
X1630517Y405115*
X1631426Y406365*
X1631881Y408240*
Y409490*
X1631426Y411365*
X1630517Y412615*
X1629608Y413240*
X1628244*
X1635972Y417615D02*
Y404490D01*
X1646881Y414490D02*
X1646426Y415740D01*
X1645517Y416990*
X1644608Y417615*
X1642790*
X1641881Y416990*
X1640972Y415740*
X1640517Y414490*
X1640063Y412615*
Y409490*
X1640517Y407615*
X1640972Y406365*
X1641881Y405115*
X1642790Y404490*
X1644608*
X1645517Y405115*
X1646426Y406365*
X1646881Y407615*
X1654608Y417615D02*
X1650972Y404490D01*
X1654608Y417615D02*
X1658244Y404490D01*
X1652335Y408865D02*
X1656881D01*
X1662335Y417615D02*
Y404490D01*
Y417615D02*
X1666426D01*
X1667790Y416990*
X1668244Y416365*
X1668699Y415115*
Y413865*
X1668244Y412615*
X1667790Y411990*
X1666426Y411365*
X1662335*
X1665517D02*
X1668699Y404490D01*
X1672790Y417615D02*
Y404490D01*
Y417615D02*
X1675972D01*
X1677335Y416990*
X1678244Y415740*
X1678699Y414490*
X1679153Y412615*
Y409490*
X1678699Y407615*
X1678244Y406365*
X1677335Y405115*
X1675972Y404490*
X1672790*
X1796835Y415115D02*
X1797744Y415740D01*
X1799108Y417615*
Y404490*
X1803653Y405740D02*
X1803199Y405115D01*
X1803653Y404490*
X1804108Y405115*
X1803653Y405740*
X1808199Y415115D02*
X1809108Y415740D01*
X1810472Y417615*
Y404490*
X1548199Y529802D02*
Y516677D01*
X1545017Y529802D02*
X1551381D01*
X1555472D02*
Y516677D01*
Y529802D02*
X1561381D01*
X1555472Y523552D02*
X1559108D01*
X1555472Y516677D02*
X1561381D01*
X1565472Y529802D02*
X1571835Y516677D01*
Y529802D02*
X1565472Y516677D01*
X1579563Y529802D02*
X1575926Y516677D01*
X1579563Y529802D02*
X1583199Y516677D01*
X1577290Y521052D02*
X1581835D01*
X1593653Y527927D02*
X1592744Y529177D01*
X1591381Y529802*
X1589563*
X1588199Y529177*
X1587290Y527927*
Y526677*
X1587744Y525427*
X1588199Y524802*
X1589108Y524177*
X1591835Y522927*
X1592744Y522302*
X1593199Y521677*
X1593653Y520427*
Y518552*
X1592744Y517302*
X1591381Y516677*
X1589563*
X1588199Y517302*
X1587290Y518552*
X1608199Y529802D02*
Y516677D01*
X1612290Y529802D02*
Y516677D01*
Y529802D02*
X1618653Y516677D01*
Y529802D02*
Y516677D01*
X1629108Y527927D02*
X1628199Y529177D01*
X1626835Y529802*
X1625017*
X1623653Y529177*
X1622744Y527927*
Y526677*
X1623199Y525427*
X1623653Y524802*
X1624563Y524177*
X1627290Y522927*
X1628199Y522302*
X1628653Y521677*
X1629108Y520427*
Y518552*
X1628199Y517302*
X1626835Y516677*
X1625017*
X1623653Y517302*
X1622744Y518552*
X1636381Y529802D02*
Y516677D01*
X1633199Y529802D02*
X1639563D01*
X1643653D02*
Y516677D01*
Y529802D02*
X1647744D01*
X1649108Y529177*
X1649563Y528552*
X1650017Y527302*
Y526052*
X1649563Y524802*
X1649108Y524177*
X1647744Y523552*
X1643653*
X1646835D02*
X1650017Y516677D01*
X1654108Y529802D02*
Y520427D01*
X1654563Y518552*
X1655472Y517302*
X1656835Y516677*
X1657744*
X1659108Y517302*
X1660017Y518552*
X1660472Y520427*
Y529802*
X1664563D02*
Y516677D01*
Y529802D02*
X1668199Y516677D01*
X1671835Y529802D02*
X1668199Y516677D01*
X1671835Y529802D02*
Y516677D01*
X1675926Y529802D02*
Y516677D01*
Y529802D02*
X1681835D01*
X1675926Y523552D02*
X1679563D01*
X1675926Y516677D02*
X1681835D01*
X1685926Y529802D02*
Y516677D01*
Y529802D02*
X1692290Y516677D01*
Y529802D02*
Y516677D01*
X1699563Y529802D02*
Y516677D01*
X1696381Y529802D02*
X1702744D01*
X1713199Y527927D02*
X1712290Y529177D01*
X1710926Y529802*
X1709108*
X1707744Y529177*
X1706835Y527927*
Y526677*
X1707290Y525427*
X1707744Y524802*
X1708653Y524177*
X1711381Y522927*
X1712290Y522302*
X1712744Y521677*
X1713199Y520427*
Y518552*
X1712290Y517302*
X1710926Y516677*
X1709108*
X1707744Y517302*
X1706835Y518552*
X1543881Y479802D02*
Y466677D01*
Y479802D02*
X1549790D01*
X1543881Y473552D02*
X1547517D01*
X1554335Y476677D02*
Y477302D01*
X1554790Y478552*
X1555244Y479177*
X1556153Y479802*
X1557972*
X1558881Y479177*
X1559335Y478552*
X1559790Y477302*
Y476052*
X1559335Y474802*
X1558426Y472927*
X1553881Y466677*
X1560244*
X1566608Y479802D02*
X1565244Y479177D01*
X1564790Y477927*
Y476677*
X1565244Y475427*
X1566153Y474802*
X1567972Y474177*
X1569335Y473552*
X1570244Y472302*
X1570699Y471052*
Y469177*
X1570244Y467927*
X1569790Y467302*
X1568426Y466677*
X1566608*
X1565244Y467302*
X1564790Y467927*
X1564335Y469177*
Y471052*
X1564790Y472302*
X1565699Y473552*
X1567063Y474177*
X1568881Y474802*
X1569790Y475427*
X1570244Y476677*
Y477927*
X1569790Y479177*
X1568426Y479802*
X1566608*
X1575699D02*
X1580699D01*
X1577972Y474802*
X1579335*
X1580244Y474177*
X1580699Y473552*
X1581153Y471677*
Y470427*
X1580699Y468552*
X1579790Y467302*
X1578426Y466677*
X1577063*
X1575699Y467302*
X1575244Y467927*
X1574790Y469177*
X1586153Y479802D02*
X1591153D01*
X1588426Y474802*
X1589790*
X1590699Y474177*
X1591153Y473552*
X1591608Y471677*
Y470427*
X1591153Y468552*
X1590244Y467302*
X1588881Y466677*
X1587517*
X1586153Y467302*
X1585699Y467927*
X1585244Y469177*
X1601608Y479802D02*
X1597063D01*
X1596608Y474177*
X1597063Y474802*
X1598426Y475427*
X1599790*
X1601153Y474802*
X1602063Y473552*
X1602517Y471677*
X1602063Y470427*
X1601608Y468552*
X1600699Y467302*
X1599335Y466677*
X1597972*
X1596608Y467302*
X1596153Y467927*
X1595699Y469177*
X1622517Y473552D02*
X1621608Y474802D01*
X1620699Y475427*
X1619335*
X1618426Y474802*
X1617517Y473552*
X1617063Y471677*
Y470427*
X1617517Y468552*
X1618426Y467302*
X1619335Y466677*
X1620699*
X1621608Y467302*
X1622517Y468552*
X1628881Y475427D02*
X1627972Y474802D01*
X1627063Y473552*
X1626608Y471677*
Y470427*
X1627063Y468552*
X1627972Y467302*
X1628881Y466677*
X1630244*
X1631153Y467302*
X1632063Y468552*
X1632517Y470427*
Y471677*
X1632063Y473552*
X1631153Y474802*
X1630244Y475427*
X1628881*
X1636608D02*
Y466677D01*
Y472927D02*
X1637972Y474802D01*
X1638881Y475427*
X1640244*
X1641153Y474802*
X1641608Y472927*
Y466677*
X1647063Y479802D02*
Y469177D01*
X1647517Y467302*
X1648426Y466677*
X1649335*
X1645699Y475427D02*
X1648881D01*
X1653426D02*
Y466677D01*
Y471677D02*
X1653881Y473552D01*
X1654790Y474802*
X1655699Y475427*
X1657063*
X1663426D02*
X1662517Y474802D01*
X1661608Y473552*
X1661153Y471677*
Y470427*
X1661608Y468552*
X1662517Y467302*
X1663426Y466677*
X1664790*
X1665699Y467302*
X1666608Y468552*
X1667063Y470427*
Y471677*
X1666608Y473552*
X1665699Y474802*
X1664790Y475427*
X1663426*
X1671153Y479802D02*
Y466677D01*
X1682063Y476677D02*
X1681608Y477927D01*
X1680699Y479177*
X1679790Y479802*
X1677972*
X1677063Y479177*
X1676153Y477927*
X1675699Y476677*
X1675244Y474802*
Y471677*
X1675699Y469802*
X1676153Y468552*
X1677063Y467302*
X1677972Y466677*
X1679790*
X1680699Y467302*
X1681608Y468552*
X1682063Y469802*
X1689790Y479802D02*
X1686153Y466677D01*
X1689790Y479802D02*
X1693426Y466677D01*
X1687517Y471052D02*
X1692063D01*
X1697517Y479802D02*
Y466677D01*
Y479802D02*
X1701608D01*
X1702972Y479177*
X1703426Y478552*
X1703881Y477302*
Y476052*
X1703426Y474802*
X1702972Y474177*
X1701608Y473552*
X1697517*
X1700699D02*
X1703881Y466677D01*
X1707972Y479802D02*
Y466677D01*
Y479802D02*
X1711153D01*
X1712517Y479177*
X1713426Y477927*
X1713881Y476677*
X1714335Y474802*
Y471677*
X1713881Y469802*
X1713426Y468552*
X1712517Y467302*
X1711153Y466677*
X1707972*
X1133244Y554334D02*
X1130517Y544490D01*
X1133244Y554334D02*
X1135972Y544490D01*
X1131540Y547771D02*
X1134949D01*
X1139040Y551052D02*
Y544490D01*
Y548240D02*
X1139381Y549646D01*
X1140063Y550584*
X1140744Y551052*
X1141767*
X1145858Y554334D02*
Y546365D01*
X1146199Y544959*
X1146881Y544490*
X1147563*
X1144835Y551052D02*
X1147222D01*
X1150631D02*
X1151994Y544490D01*
X1153358Y551052D02*
X1151994Y544490D01*
X1153358Y551052D02*
X1154722Y544490D01*
X1156085Y551052D02*
X1154722Y544490D01*
X1160858Y551052D02*
X1160176Y550584D01*
X1159494Y549646*
X1159153Y548240*
Y547302*
X1159494Y545896*
X1160176Y544959*
X1160858Y544490*
X1161881*
X1162563Y544959*
X1163244Y545896*
X1163585Y547302*
Y548240*
X1163244Y549646*
X1162563Y550584*
X1161881Y551052*
X1160858*
X1166653D02*
Y544490D01*
Y548240D02*
X1166994Y549646D01*
X1167676Y550584*
X1168358Y551052*
X1169381*
X1172449Y554334D02*
Y544490D01*
X1175858Y551052D02*
X1172449Y546365D01*
X1173813Y548240D02*
X1176199Y544490D01*
X1187108Y554334D02*
Y544490D01*
Y554334D02*
X1189494D01*
X1190517Y553865*
X1191199Y552927*
X1191540Y551990*
X1191881Y550584*
Y548240*
X1191540Y546834*
X1191199Y545896*
X1190517Y544959*
X1189494Y544490*
X1187108*
X1194949Y548240D02*
X1199040D01*
Y549177*
X1198699Y550115*
X1198358Y550584*
X1197676Y551052*
X1196653*
X1195972Y550584*
X1195290Y549646*
X1194949Y548240*
Y547302*
X1195290Y545896*
X1195972Y544959*
X1196653Y544490*
X1197676*
X1198358Y544959*
X1199040Y545896*
X1205858Y549646D02*
X1205517Y550584D01*
X1204494Y551052*
X1203472*
X1202449Y550584*
X1202108Y549646*
X1202449Y548709*
X1203131Y548240*
X1204835Y547771*
X1205517Y547302*
X1205858Y546365*
Y545896*
X1205517Y544959*
X1204494Y544490*
X1203472*
X1202449Y544959*
X1202108Y545896*
X1208926Y554334D02*
X1209267Y553865D01*
X1209608Y554334*
X1209267Y554802*
X1208926Y554334*
X1209267Y551052D02*
Y544490D01*
X1216767Y551052D02*
Y543552D01*
X1216426Y542146*
X1216085Y541677*
X1215403Y541209*
X1214381*
X1213699Y541677*
X1216767Y549646D02*
X1216085Y550584D01*
X1215403Y551052*
X1214381*
X1213699Y550584*
X1213017Y549646*
X1212676Y548240*
Y547302*
X1213017Y545896*
X1213699Y544959*
X1214381Y544490*
X1215403*
X1216085Y544959*
X1216767Y545896*
X1219835Y551052D02*
Y544490D01*
Y549177D02*
X1220858Y550584D01*
X1221540Y551052*
X1222563*
X1223244Y550584*
X1223585Y549177*
Y544490*
X1226653Y548240D02*
X1230744D01*
Y549177*
X1230403Y550115*
X1230063Y550584*
X1229381Y551052*
X1228358*
X1227676Y550584*
X1226994Y549646*
X1226653Y548240*
Y547302*
X1226994Y545896*
X1227676Y544959*
X1228358Y544490*
X1229381*
X1230063Y544959*
X1230744Y545896*
X1237903Y554334D02*
Y544490D01*
Y549646D02*
X1237222Y550584D01*
X1236540Y551052*
X1235517*
X1234835Y550584*
X1234153Y549646*
X1233813Y548240*
Y547302*
X1234153Y545896*
X1234835Y544959*
X1235517Y544490*
X1236540*
X1237222Y544959*
X1237903Y545896*
X1248813Y554334D02*
Y544490D01*
Y554334D02*
X1251881D01*
X1252903Y553865*
X1253244Y553396*
X1253585Y552459*
Y551521*
X1253244Y550584*
X1252903Y550115*
X1251881Y549646*
X1248813D02*
X1251881D01*
X1252903Y549177*
X1253244Y548709*
X1253585Y547771*
Y546365*
X1253244Y545427*
X1252903Y544959*
X1251881Y544490*
X1248813*
X1256994Y551052D02*
X1259040Y544490D01*
X1261085Y551052D02*
X1259040Y544490D01*
X1258358Y542615*
X1257676Y541677*
X1256994Y541209*
X1256653*
X1264494Y551052D02*
X1264153Y550584D01*
X1264494Y550115*
X1264835Y550584*
X1264494Y551052*
Y545427D02*
X1264153Y544959D01*
X1264494Y544490*
X1264835Y544959*
X1264494Y545427*
X1133926Y389334D02*
Y381834D01*
X1133585Y380427*
X1133244Y379959*
X1132563Y379490*
X1131881*
X1131199Y379959*
X1130858Y380427*
X1130517Y381834*
Y382771*
X1138699Y386052D02*
X1138017Y385584D01*
X1137335Y384646*
X1136994Y383240*
Y382302*
X1137335Y380896*
X1138017Y379959*
X1138699Y379490*
X1139722*
X1140403Y379959*
X1141085Y380896*
X1141426Y382302*
Y383240*
X1141085Y384646*
X1140403Y385584*
X1139722Y386052*
X1138699*
X1144494Y389334D02*
Y379490D01*
Y384646D02*
X1145176Y385584D01*
X1145858Y386052*
X1146881*
X1147563Y385584*
X1148244Y384646*
X1148585Y383240*
Y382302*
X1148244Y380896*
X1147563Y379959*
X1146881Y379490*
X1145858*
X1145176Y379959*
X1144494Y380896*
X1159494Y389334D02*
Y379490D01*
Y389334D02*
X1164267Y379490D01*
Y389334D02*
Y379490D01*
X1169040Y386052D02*
X1168358Y385584D01*
X1167676Y384646*
X1167335Y383240*
Y382302*
X1167676Y380896*
X1168358Y379959*
X1169040Y379490*
X1170063*
X1170744Y379959*
X1171426Y380896*
X1171767Y382302*
Y383240*
X1171426Y384646*
X1170744Y385584*
X1170063Y386052*
X1169040*
X1175176D02*
X1174835Y385584D01*
X1175176Y385115*
X1175517Y385584*
X1175176Y386052*
Y380427D02*
X1174835Y379959D01*
X1175176Y379490*
X1175517Y379959*
X1175176Y380427*
X1204790Y384802D02*
Y371677D01*
X1201608Y384802D02*
X1207972D01*
X1212063D02*
Y371677D01*
Y384802D02*
X1217972D01*
X1212063Y378552D02*
X1215699D01*
X1212063Y371677D02*
X1217972D01*
X1222063Y384802D02*
X1228426Y371677D01*
Y384802D02*
X1222063Y371677D01*
X1232972Y372927D02*
X1232517Y372302D01*
X1232972Y371677*
X1233426Y372302*
X1232972Y372927*
X1237517Y382302D02*
X1238426Y382927D01*
X1239790Y384802*
Y371677*
X1243881Y382302D02*
X1244790Y382927D01*
X1246153Y384802*
Y371677*
X1251153Y384802D02*
X1256153D01*
X1253426Y379802*
X1254790*
X1255699Y379177*
X1256153Y378552*
X1256608Y376677*
Y375427*
X1256153Y373552*
X1255244Y372302*
X1253881Y371677*
X1252517*
X1251153Y372302*
X1250699Y372927*
X1250244Y374177*
X1290517Y389334D02*
Y379490D01*
Y389334D02*
X1292903D01*
X1293926Y388865*
X1294608Y387927*
X1294949Y386990*
X1295290Y385584*
Y383240*
X1294949Y381834*
X1294608Y380896*
X1293926Y379959*
X1292903Y379490*
X1290517*
X1302449Y386052D02*
Y379490D01*
Y384646D02*
X1301767Y385584D01*
X1301085Y386052*
X1300063*
X1299381Y385584*
X1298699Y384646*
X1298358Y383240*
Y382302*
X1298699Y380896*
X1299381Y379959*
X1300063Y379490*
X1301085*
X1301767Y379959*
X1302449Y380896*
X1306540Y389334D02*
Y381365D01*
X1306881Y379959*
X1307563Y379490*
X1308244*
X1305517Y386052D02*
X1307903D01*
X1311313Y383240D02*
X1315403D01*
Y384177*
X1315063Y385115*
X1314722Y385584*
X1314040Y386052*
X1313017*
X1312335Y385584*
X1311653Y384646*
X1311313Y383240*
Y382302*
X1311653Y380896*
X1312335Y379959*
X1313017Y379490*
X1314040*
X1314722Y379959*
X1315403Y380896*
X1318813Y386052D02*
X1318472Y385584D01*
X1318813Y385115*
X1319153Y385584*
X1318813Y386052*
Y380427D02*
X1318472Y379959D01*
X1318813Y379490*
X1319153Y379959*
X1318813Y380427*
X1326608Y382302D02*
X1327517Y382927D01*
X1328881Y384802*
Y371677*
X1335699Y384802D02*
X1334335Y384177D01*
X1333426Y382302*
X1332972Y379177*
Y377302*
X1333426Y374177*
X1334335Y372302*
X1335699Y371677*
X1336608*
X1337972Y372302*
X1338881Y374177*
X1339335Y377302*
Y379177*
X1338881Y382302*
X1337972Y384177*
X1336608Y384802*
X1335699*
X1351608Y387302D02*
X1343426Y367302D01*
X1356153Y381677D02*
Y382302D01*
X1356608Y383552*
X1357063Y384177*
X1357972Y384802*
X1359790*
X1360699Y384177*
X1361153Y383552*
X1361608Y382302*
Y381052*
X1361153Y379802*
X1360244Y377927*
X1355699Y371677*
X1362063*
X1367063Y384802D02*
X1372063D01*
X1369335Y379802*
X1370699*
X1371608Y379177*
X1372063Y378552*
X1372517Y376677*
Y375427*
X1372063Y373552*
X1371153Y372302*
X1369790Y371677*
X1368426*
X1367063Y372302*
X1366608Y372927*
X1366153Y374177*
X1384790Y387302D02*
X1376608Y367302D01*
X1388881Y382302D02*
X1389790Y382927D01*
X1391153Y384802*
Y371677*
X1396153Y384802D02*
X1401153D01*
X1398426Y379802*
X1399790*
X1400699Y379177*
X1401153Y378552*
X1401608Y376677*
Y375427*
X1401153Y373552*
X1400244Y372302*
X1398881Y371677*
X1397517*
X1396153Y372302*
X1395699Y372927*
X1395244Y374177*
X1606159Y383484D02*
Y373641D01*
Y383484D02*
X1609227D01*
X1610250Y383016*
X1610591Y382547*
X1610932Y381609*
Y380203*
X1610591Y379266*
X1610250Y378797*
X1609227Y378328*
X1606159*
X1614000Y380203D02*
Y373641D01*
Y377391D02*
X1614341Y378797D01*
X1615023Y379734*
X1615705Y380203*
X1616727*
X1619795Y383484D02*
X1620136Y383016D01*
X1620477Y383484*
X1620136Y383953*
X1619795Y383484*
X1620136Y380203D02*
Y373641D01*
X1623545Y380203D02*
Y373641D01*
Y378328D02*
X1624568Y379734D01*
X1625250Y380203*
X1626273*
X1626955Y379734*
X1627295Y378328*
Y373641*
Y378328D02*
X1628318Y379734D01*
X1629000Y380203*
X1630023*
X1630705Y379734*
X1631045Y378328*
Y373641*
X1638205Y380203D02*
Y373641D01*
Y378797D02*
X1637523Y379734D01*
X1636841Y380203*
X1635818*
X1635136Y379734*
X1634455Y378797*
X1634114Y377391*
Y376453*
X1634455Y375047*
X1635136Y374109*
X1635818Y373641*
X1636841*
X1637523Y374109*
X1638205Y375047*
X1641273Y380203D02*
Y373641D01*
Y377391D02*
X1641614Y378797D01*
X1642295Y379734*
X1642977Y380203*
X1644000*
X1647409D02*
X1649455Y373641D01*
X1651500Y380203D02*
X1649455Y373641D01*
X1648773Y371766*
X1648091Y370828*
X1647409Y370359*
X1647068*
X1667182Y382078D02*
X1666500Y383016D01*
X1665477Y383484*
X1664114*
X1663091Y383016*
X1662409Y382078*
Y381141*
X1662750Y380203*
X1663091Y379734*
X1663773Y379266*
X1665818Y378328*
X1666500Y377859*
X1666841Y377391*
X1667182Y376453*
Y375047*
X1666500Y374109*
X1665477Y373641*
X1664114*
X1663091Y374109*
X1662409Y375047*
X1670250Y383484D02*
X1670591Y383016D01*
X1670932Y383484*
X1670591Y383953*
X1670250Y383484*
X1670591Y380203D02*
Y373641D01*
X1678091Y383484D02*
Y373641D01*
Y378797D02*
X1677409Y379734D01*
X1676727Y380203*
X1675705*
X1675023Y379734*
X1674341Y378797*
X1674000Y377391*
Y376453*
X1674341Y375047*
X1675023Y374109*
X1675705Y373641*
X1676727*
X1677409Y374109*
X1678091Y375047*
X1681159Y377391D02*
X1685250D01*
Y378328*
X1684909Y379266*
X1684568Y379734*
X1683886Y380203*
X1682864*
X1682182Y379734*
X1681500Y378797*
X1681159Y377391*
Y376453*
X1681500Y375047*
X1682182Y374109*
X1682864Y373641*
X1683886*
X1684568Y374109*
X1685250Y375047*
X1700932Y382078D02*
X1700250Y383016D01*
X1699227Y383484*
X1697864*
X1696841Y383016*
X1696159Y382078*
Y381141*
X1696500Y380203*
X1696841Y379734*
X1697523Y379266*
X1699568Y378328*
X1700250Y377859*
X1700591Y377391*
X1700932Y376453*
Y375047*
X1700250Y374109*
X1699227Y373641*
X1697864*
X1696841Y374109*
X1696159Y375047*
X1704000Y383484D02*
X1704341Y383016D01*
X1704682Y383484*
X1704341Y383953*
X1704000Y383484*
X1704341Y380203D02*
Y373641D01*
X1707750Y383484D02*
Y373641D01*
X1710818Y383484D02*
Y373641D01*
X1714227Y380203D02*
X1710818Y375516D01*
X1712182Y377391D02*
X1714568Y373641D01*
X1721386Y378797D02*
X1721045Y379734D01*
X1720023Y380203*
X1719000*
X1717977Y379734*
X1717636Y378797*
X1717977Y377859*
X1718659Y377391*
X1720364Y376922*
X1721045Y376453*
X1721386Y375516*
Y375047*
X1721045Y374109*
X1720023Y373641*
X1719000*
X1717977Y374109*
X1717636Y375047*
X1728545Y378797D02*
X1727864Y379734D01*
X1727182Y380203*
X1726159*
X1725477Y379734*
X1724795Y378797*
X1724455Y377391*
Y376453*
X1724795Y375047*
X1725477Y374109*
X1726159Y373641*
X1727182*
X1727864Y374109*
X1728545Y375047*
X1731614Y380203D02*
Y373641D01*
Y377391D02*
X1731955Y378797D01*
X1732636Y379734*
X1733318Y380203*
X1734341*
X1737409Y377391D02*
X1741500D01*
Y378328*
X1741159Y379266*
X1740818Y379734*
X1740136Y380203*
X1739114*
X1738432Y379734*
X1737750Y378797*
X1737409Y377391*
Y376453*
X1737750Y375047*
X1738432Y374109*
X1739114Y373641*
X1740136*
X1740818Y374109*
X1741500Y375047*
X1744568Y377391D02*
X1748659D01*
Y378328*
X1748318Y379266*
X1747977Y379734*
X1747295Y380203*
X1746273*
X1745591Y379734*
X1744909Y378797*
X1744568Y377391*
Y376453*
X1744909Y375047*
X1745591Y374109*
X1746273Y373641*
X1747295*
X1747977Y374109*
X1748659Y375047*
X1751727Y380203D02*
Y373641D01*
Y378328D02*
X1752750Y379734D01*
X1753432Y380203*
X1754455*
X1755136Y379734*
X1755477Y378328*
Y373641*
X1152017Y521534D02*
X1153722Y511690D01*
X1155426Y521534D02*
X1153722Y511690D01*
X1155426Y521534D02*
X1157131Y511690D01*
X1158835Y521534D02*
X1157131Y511690D01*
X1161903Y521534D02*
X1162244Y521065D01*
X1162585Y521534*
X1162244Y522002*
X1161903Y521534*
X1162244Y518252D02*
Y511690D01*
X1165653Y521534D02*
Y511690D01*
X1168722Y521534D02*
Y511690D01*
X1173494Y518252D02*
X1172813Y517784D01*
X1172131Y516846*
X1171790Y515440*
Y514502*
X1172131Y513096*
X1172813Y512159*
X1173494Y511690*
X1174517*
X1175199Y512159*
X1175881Y513096*
X1176222Y514502*
Y515440*
X1175881Y516846*
X1175199Y517784*
X1174517Y518252*
X1173494*
X1179290D02*
X1180653Y511690D01*
X1182017Y518252D02*
X1180653Y511690D01*
X1182017Y518252D02*
X1183381Y511690D01*
X1184744Y518252D02*
X1183381Y511690D01*
X1200426Y520127D02*
X1199744Y521065D01*
X1198722Y521534*
X1197358*
X1196335Y521065*
X1195653Y520127*
Y519190*
X1195994Y518252*
X1196335Y517784*
X1197017Y517315*
X1199063Y516377*
X1199744Y515909*
X1200085Y515440*
X1200426Y514502*
Y513096*
X1199744Y512159*
X1198722Y511690*
X1197358*
X1196335Y512159*
X1195653Y513096*
X1203494Y518252D02*
Y508409D01*
Y516846D02*
X1204176Y517784D01*
X1204858Y518252*
X1205881*
X1206563Y517784*
X1207244Y516846*
X1207585Y515440*
Y514502*
X1207244Y513096*
X1206563Y512159*
X1205881Y511690*
X1204858*
X1204176Y512159*
X1203494Y513096*
X1210653Y518252D02*
Y511690D01*
Y515440D02*
X1210994Y516846D01*
X1211676Y517784*
X1212358Y518252*
X1213381*
X1216449Y521534D02*
X1216790Y521065D01*
X1217131Y521534*
X1216790Y522002*
X1216449Y521534*
X1216790Y518252D02*
Y511690D01*
X1220199Y518252D02*
Y511690D01*
Y516377D02*
X1221222Y517784D01*
X1221903Y518252*
X1222926*
X1223608Y517784*
X1223949Y516377*
Y511690*
X1231108Y518252D02*
Y510752D01*
X1230767Y509346*
X1230426Y508877*
X1229744Y508409*
X1228722*
X1228040Y508877*
X1231108Y516846D02*
X1230426Y517784D01*
X1229744Y518252*
X1228722*
X1228040Y517784*
X1227358Y516846*
X1227017Y515440*
Y514502*
X1227358Y513096*
X1228040Y512159*
X1228722Y511690*
X1229744*
X1230426Y512159*
X1231108Y513096*
X1244403Y521534D02*
Y511690D01*
X1242017Y521534D02*
X1246790D01*
X1249858Y515440D02*
X1253949D01*
Y516377*
X1253608Y517315*
X1253267Y517784*
X1252585Y518252*
X1251563*
X1250881Y517784*
X1250199Y516846*
X1249858Y515440*
Y514502*
X1250199Y513096*
X1250881Y512159*
X1251563Y511690*
X1252585*
X1253267Y512159*
X1253949Y513096*
X1261108Y516846D02*
X1260426Y517784D01*
X1259744Y518252*
X1258722*
X1258040Y517784*
X1257358Y516846*
X1257017Y515440*
Y514502*
X1257358Y513096*
X1258040Y512159*
X1258722Y511690*
X1259744*
X1260426Y512159*
X1261108Y513096*
X1264176Y521534D02*
Y511690D01*
Y516377D02*
X1265199Y517784D01*
X1265881Y518252*
X1266903*
X1267585Y517784*
X1267926Y516377*
Y511690*
X1270994Y518252D02*
Y511690D01*
Y516377D02*
X1272017Y517784D01*
X1272699Y518252*
X1273722*
X1274403Y517784*
X1274744Y516377*
Y511690*
X1277813Y521534D02*
X1278153Y521065D01*
X1278494Y521534*
X1278153Y522002*
X1277813Y521534*
X1278153Y518252D02*
Y511690D01*
X1285653Y516846D02*
X1284972Y517784D01*
X1284290Y518252*
X1283267*
X1282585Y517784*
X1281903Y516846*
X1281563Y515440*
Y514502*
X1281903Y513096*
X1282585Y512159*
X1283267Y511690*
X1284290*
X1284972Y512159*
X1285653Y513096*
X1292813Y518252D02*
Y511690D01*
Y516846D02*
X1292131Y517784D01*
X1291449Y518252*
X1290426*
X1289744Y517784*
X1289063Y516846*
X1288722Y515440*
Y514502*
X1289063Y513096*
X1289744Y512159*
X1290426Y511690*
X1291449*
X1292131Y512159*
X1292813Y513096*
X1295881Y521534D02*
Y511690D01*
X1311563Y520127D02*
X1310881Y521065D01*
X1309858Y521534*
X1308494*
X1307472Y521065*
X1306790Y520127*
Y519190*
X1307131Y518252*
X1307472Y517784*
X1308153Y517315*
X1310199Y516377*
X1310881Y515909*
X1311222Y515440*
X1311563Y514502*
Y513096*
X1310881Y512159*
X1309858Y511690*
X1308494*
X1307472Y512159*
X1306790Y513096*
X1314631Y515440D02*
X1318722D01*
Y516377*
X1318381Y517315*
X1318040Y517784*
X1317358Y518252*
X1316335*
X1315653Y517784*
X1314972Y516846*
X1314631Y515440*
Y514502*
X1314972Y513096*
X1315653Y512159*
X1316335Y511690*
X1317358*
X1318040Y512159*
X1318722Y513096*
X1321790Y518252D02*
Y511690D01*
Y515440D02*
X1322131Y516846D01*
X1322813Y517784*
X1323494Y518252*
X1324517*
X1327585D02*
X1329631Y511690D01*
X1331676Y518252D02*
X1329631Y511690D01*
X1334744Y521534D02*
X1335085Y521065D01*
X1335426Y521534*
X1335085Y522002*
X1334744Y521534*
X1335085Y518252D02*
Y511690D01*
X1342585Y516846D02*
X1341903Y517784D01*
X1341222Y518252*
X1340199*
X1339517Y517784*
X1338835Y516846*
X1338494Y515440*
Y514502*
X1338835Y513096*
X1339517Y512159*
X1340199Y511690*
X1341222*
X1341903Y512159*
X1342585Y513096*
X1345653Y515440D02*
X1349744D01*
Y516377*
X1349403Y517315*
X1349063Y517784*
X1348381Y518252*
X1347358*
X1346676Y517784*
X1345994Y516846*
X1345653Y515440*
Y514502*
X1345994Y513096*
X1346676Y512159*
X1347358Y511690*
X1348381*
X1349063Y512159*
X1349744Y513096*
X1356563Y516846D02*
X1356222Y517784D01*
X1355199Y518252*
X1354176*
X1353153Y517784*
X1352813Y516846*
X1353153Y515909*
X1353835Y515440*
X1355540Y514971*
X1356222Y514502*
X1356563Y513565*
Y513096*
X1356222Y512159*
X1355199Y511690*
X1354176*
X1353153Y512159*
X1352813Y513096*
X1372585Y519190D02*
X1372244Y520127D01*
X1371563Y521065*
X1370881Y521534*
X1369517*
X1368835Y521065*
X1368153Y520127*
X1367813Y519190*
X1367472Y517784*
Y515440*
X1367813Y514034*
X1368153Y513096*
X1368835Y512159*
X1369517Y511690*
X1370881*
X1371563Y512159*
X1372244Y513096*
X1372585Y514034*
X1377358Y518252D02*
X1376676Y517784D01*
X1375994Y516846*
X1375653Y515440*
Y514502*
X1375994Y513096*
X1376676Y512159*
X1377358Y511690*
X1378381*
X1379063Y512159*
X1379744Y513096*
X1380085Y514502*
Y515440*
X1379744Y516846*
X1379063Y517784*
X1378381Y518252*
X1377358*
X1383153D02*
Y511690D01*
Y515440D02*
X1383494Y516846D01*
X1384176Y517784*
X1384858Y518252*
X1385881*
X1388949D02*
Y508409D01*
Y516846D02*
X1389631Y517784D01*
X1390313Y518252*
X1391335*
X1392017Y517784*
X1392699Y516846*
X1393040Y515440*
Y514502*
X1392699Y513096*
X1392017Y512159*
X1391335Y511690*
X1390313*
X1389631Y512159*
X1388949Y513096*
X1396449Y512627D02*
X1396108Y512159D01*
X1396449Y511690*
X1396790Y512159*
X1396449Y512627*
X1218575Y496307D02*
X1219256Y496776D01*
X1220279Y498182*
Y488339*
X1223347Y496307D02*
X1224029Y496776D01*
X1225052Y498182*
Y488339*
X1229825Y498182D02*
X1228802Y497714D01*
X1228461Y496776*
Y495839*
X1228802Y494901*
X1229484Y494432*
X1230847Y493964*
X1231870Y493495*
X1232552Y492557*
X1232893Y491620*
Y490214*
X1232552Y489276*
X1232211Y488807*
X1231188Y488339*
X1229825*
X1228802Y488807*
X1228461Y489276*
X1228120Y490214*
Y491620*
X1228461Y492557*
X1229143Y493495*
X1230165Y493964*
X1231529Y494432*
X1232211Y494901*
X1232552Y495839*
Y496776*
X1232211Y497714*
X1231188Y498182*
X1229825*
X1240393D02*
X1236984D01*
X1236643Y493964*
X1236984Y494432*
X1238006Y494901*
X1239029*
X1240052Y494432*
X1240734Y493495*
X1241075Y492089*
X1240734Y491151*
X1240393Y489745*
X1239711Y488807*
X1238688Y488339*
X1237665*
X1236643Y488807*
X1236302Y489276*
X1235961Y490214*
X1257097Y495839D02*
X1256756Y496776D01*
X1256075Y497714*
X1255393Y498182*
X1254029*
X1253347Y497714*
X1252665Y496776*
X1252325Y495839*
X1251984Y494432*
Y492089*
X1252325Y490682*
X1252665Y489745*
X1253347Y488807*
X1254029Y488339*
X1255393*
X1256075Y488807*
X1256756Y489745*
X1257097Y490682*
X1260165Y492089D02*
X1264256D01*
Y493026*
X1263915Y493964*
X1263575Y494432*
X1262893Y494901*
X1261870*
X1261188Y494432*
X1260506Y493495*
X1260165Y492089*
Y491151*
X1260506Y489745*
X1261188Y488807*
X1261870Y488339*
X1262893*
X1263575Y488807*
X1264256Y489745*
X1267325Y494901D02*
Y488339D01*
Y493026D02*
X1268347Y494432D01*
X1269029Y494901*
X1270052*
X1270734Y494432*
X1271075Y493026*
Y488339*
X1275165Y498182D02*
Y490214D01*
X1275506Y488807*
X1276188Y488339*
X1276870*
X1274143Y494901D02*
X1276529D01*
X1279938D02*
Y488339D01*
Y492089D02*
X1280279Y493495D01*
X1280961Y494432*
X1281643Y494901*
X1282665*
X1285734Y492089D02*
X1289825D01*
Y493026*
X1289484Y493964*
X1289143Y494432*
X1288461Y494901*
X1287438*
X1286756Y494432*
X1286075Y493495*
X1285734Y492089*
Y491151*
X1286075Y489745*
X1286756Y488807*
X1287438Y488339*
X1288461*
X1289143Y488807*
X1289825Y489745*
X1305506Y496776D02*
X1304825Y497714D01*
X1303802Y498182*
X1302438*
X1301415Y497714*
X1300734Y496776*
Y495839*
X1301075Y494901*
X1301415Y494432*
X1302097Y493964*
X1304143Y493026*
X1304825Y492557*
X1305165Y492089*
X1305506Y491151*
Y489745*
X1304825Y488807*
X1303802Y488339*
X1302438*
X1301415Y488807*
X1300734Y489745*
X1309597Y498182D02*
Y490214D01*
X1309938Y488807*
X1310620Y488339*
X1311302*
X1308575Y494901D02*
X1310961D01*
X1314370D02*
Y488339D01*
Y492089D02*
X1314711Y493495D01*
X1315393Y494432*
X1316075Y494901*
X1317097*
X1320165Y492089D02*
X1324256D01*
Y493026*
X1323915Y493964*
X1323575Y494432*
X1322893Y494901*
X1321870*
X1321188Y494432*
X1320506Y493495*
X1320165Y492089*
Y491151*
X1320506Y489745*
X1321188Y488807*
X1321870Y488339*
X1322893*
X1323575Y488807*
X1324256Y489745*
X1327325Y492089D02*
X1331415D01*
Y493026*
X1331075Y493964*
X1330734Y494432*
X1330052Y494901*
X1329029*
X1328347Y494432*
X1327665Y493495*
X1327325Y492089*
Y491151*
X1327665Y489745*
X1328347Y488807*
X1329029Y488339*
X1330052*
X1330734Y488807*
X1331415Y489745*
X1335506Y498182D02*
Y490214D01*
X1335847Y488807*
X1336529Y488339*
X1337211*
X1334484Y494901D02*
X1336870D01*
X1208575Y475682D02*
Y465839D01*
Y475682D02*
X1211302Y465839D01*
X1214029Y475682D02*
X1211302Y465839D01*
X1214029Y475682D02*
Y465839D01*
X1217097Y475682D02*
X1217438Y475214D01*
X1217779Y475682*
X1217438Y476151*
X1217097Y475682*
X1217438Y472401D02*
Y465839D01*
X1224938Y475682D02*
Y465839D01*
Y470995D02*
X1224256Y471932D01*
X1223575Y472401*
X1222552*
X1221870Y471932*
X1221188Y470995*
X1220847Y469589*
Y468651*
X1221188Y467245*
X1221870Y466307*
X1222552Y465839*
X1223575*
X1224256Y466307*
X1224938Y467245*
X1232097Y475682D02*
Y465839D01*
Y470995D02*
X1231415Y471932D01*
X1230734Y472401*
X1229711*
X1229029Y471932*
X1228347Y470995*
X1228006Y469589*
Y468651*
X1228347Y467245*
X1229029Y466307*
X1229711Y465839*
X1230734*
X1231415Y466307*
X1232097Y467245*
X1235165Y475682D02*
Y465839D01*
X1238234Y469589D02*
X1242325D01*
Y470526*
X1241984Y471464*
X1241643Y471932*
X1240961Y472401*
X1239938*
X1239256Y471932*
X1238575Y470995*
X1238234Y469589*
Y468651*
X1238575Y467245*
X1239256Y466307*
X1239938Y465839*
X1240961*
X1241643Y466307*
X1242325Y467245*
X1245393Y475682D02*
Y465839D01*
Y470995D02*
X1246075Y471932D01*
X1246756Y472401*
X1247779*
X1248461Y471932*
X1249143Y470995*
X1249484Y469589*
Y468651*
X1249143Y467245*
X1248461Y466307*
X1247779Y465839*
X1246756*
X1246075Y466307*
X1245393Y467245*
X1254256Y472401D02*
X1253575Y471932D01*
X1252893Y470995*
X1252552Y469589*
Y468651*
X1252893Y467245*
X1253575Y466307*
X1254256Y465839*
X1255279*
X1255961Y466307*
X1256643Y467245*
X1256984Y468651*
Y469589*
X1256643Y470995*
X1255961Y471932*
X1255279Y472401*
X1254256*
X1260052D02*
Y465839D01*
Y469589D02*
X1260393Y470995D01*
X1261075Y471932*
X1261756Y472401*
X1262779*
X1267552D02*
X1266870Y471932D01*
X1266188Y470995*
X1265847Y469589*
Y468651*
X1266188Y467245*
X1266870Y466307*
X1267552Y465839*
X1268575*
X1269256Y466307*
X1269938Y467245*
X1270279Y468651*
Y469589*
X1269938Y470995*
X1269256Y471932*
X1268575Y472401*
X1267552*
X1274029Y466307D02*
X1273688Y465839D01*
X1273347Y466307*
X1273688Y466776*
X1274029Y466307*
Y465370*
X1273688Y464432*
X1273347Y463964*
X1284938Y475682D02*
Y465839D01*
Y475682D02*
X1287665Y465839D01*
X1290393Y475682D02*
X1287665Y465839D01*
X1290393Y475682D02*
Y465839D01*
X1296188Y475682D02*
X1293461Y465839D01*
X1296188Y475682D02*
X1298915Y465839D01*
X1294484Y469120D02*
X1297893D01*
X1311870Y475682D02*
X1310847Y475214D01*
X1310165Y473807*
X1309825Y471464*
Y470057*
X1310165Y467714*
X1310847Y466307*
X1311870Y465839*
X1312552*
X1313575Y466307*
X1314256Y467714*
X1314597Y470057*
Y471464*
X1314256Y473807*
X1313575Y475214*
X1312552Y475682*
X1311870*
X1318006Y473339D02*
Y473807D01*
X1318347Y474745*
X1318688Y475214*
X1319370Y475682*
X1320734*
X1321415Y475214*
X1321756Y474745*
X1322097Y473807*
Y472870*
X1321756Y471932*
X1321075Y470526*
X1317665Y465839*
X1322438*
X1326188Y475682D02*
X1329938D01*
X1327893Y471932*
X1328915*
X1329597Y471464*
X1329938Y470995*
X1330279Y469589*
Y468651*
X1329938Y467245*
X1329256Y466307*
X1328234Y465839*
X1327211*
X1326188Y466307*
X1325847Y466776*
X1325506Y467714*
X1336756Y475682D02*
X1333347Y469120D01*
X1338461*
X1336756Y475682D02*
Y465839D01*
X1345620Y474276D02*
X1345279Y475214D01*
X1344256Y475682*
X1343575*
X1342552Y475214*
X1341870Y473807*
X1341529Y471464*
Y469120*
X1341870Y467245*
X1342552Y466307*
X1343575Y465839*
X1343915*
X1344938Y466307*
X1345620Y467245*
X1345961Y468651*
Y469120*
X1345620Y470526*
X1344938Y471464*
X1343915Y471932*
X1343575*
X1342552Y471464*
X1341870Y470526*
X1341529Y469120*
X1289217Y448652D02*
X1290581Y442090D01*
X1291944Y448652D02*
X1290581Y442090D01*
X1291944Y448652D02*
X1293308Y442090D01*
X1294672Y448652D02*
X1293308Y442090D01*
X1297740Y448652D02*
X1299103Y442090D01*
X1300467Y448652D02*
X1299103Y442090D01*
X1300467Y448652D02*
X1301831Y442090D01*
X1303194Y448652D02*
X1301831Y442090D01*
X1306263Y448652D02*
X1307626Y442090D01*
X1308990Y448652D02*
X1307626Y442090D01*
X1308990Y448652D02*
X1310353Y442090D01*
X1311717Y448652D02*
X1310353Y442090D01*
X1315126Y443027D02*
X1314785Y442559D01*
X1315126Y442090*
X1315467Y442559*
X1315126Y443027*
X1318535Y448652D02*
X1319899Y442090D01*
X1321263Y448652D02*
X1319899Y442090D01*
X1321263Y448652D02*
X1322626Y442090D01*
X1323990Y448652D02*
X1322626Y442090D01*
X1330808Y447246D02*
X1330467Y448184D01*
X1329444Y448652*
X1328422*
X1327399Y448184*
X1327058Y447246*
X1327399Y446309*
X1328081Y445840*
X1329785Y445371*
X1330467Y444902*
X1330808Y443965*
Y443496*
X1330467Y442559*
X1329444Y442090*
X1328422*
X1327399Y442559*
X1327058Y443496*
X1334899Y451934D02*
Y443965D01*
X1335240Y442559*
X1335922Y442090*
X1336603*
X1333876Y448652D02*
X1336263D01*
X1343422Y447246D02*
X1343081Y448184D01*
X1342058Y448652*
X1341035*
X1340013Y448184*
X1339672Y447246*
X1340013Y446309*
X1340694Y445840*
X1342399Y445371*
X1343081Y444902*
X1343422Y443965*
Y443496*
X1343081Y442559*
X1342058Y442090*
X1341035*
X1340013Y442559*
X1339672Y443496*
X1350581Y447246D02*
X1349899Y448184D01*
X1349217Y448652*
X1348194*
X1347513Y448184*
X1346831Y447246*
X1346490Y445840*
Y444902*
X1346831Y443496*
X1347513Y442559*
X1348194Y442090*
X1349217*
X1349899Y442559*
X1350581Y443496*
X1355353Y448652D02*
X1354672Y448184D01*
X1353990Y447246*
X1353649Y445840*
Y444902*
X1353990Y443496*
X1354672Y442559*
X1355353Y442090*
X1356376*
X1357058Y442559*
X1357740Y443496*
X1358081Y444902*
Y445840*
X1357740Y447246*
X1357058Y448184*
X1356376Y448652*
X1355353*
X1361149D02*
Y442090D01*
Y445840D02*
X1361490Y447246D01*
X1362172Y448184*
X1362853Y448652*
X1363876*
X1366944D02*
Y438809D01*
Y447246D02*
X1367626Y448184D01*
X1368308Y448652*
X1369331*
X1370013Y448184*
X1370694Y447246*
X1371035Y445840*
Y444902*
X1370694Y443496*
X1370013Y442559*
X1369331Y442090*
X1368308*
X1367626Y442559*
X1366944Y443496*
X1374444Y443027D02*
X1374103Y442559D01*
X1374444Y442090*
X1374785Y442559*
X1374444Y443027*
X1381944Y447246D02*
X1381263Y448184D01*
X1380581Y448652*
X1379558*
X1378876Y448184*
X1378194Y447246*
X1377853Y445840*
Y444902*
X1378194Y443496*
X1378876Y442559*
X1379558Y442090*
X1380581*
X1381263Y442559*
X1381944Y443496*
X1386717Y448652D02*
X1386035Y448184D01*
X1385353Y447246*
X1385013Y445840*
Y444902*
X1385353Y443496*
X1386035Y442559*
X1386717Y442090*
X1387740*
X1388422Y442559*
X1389103Y443496*
X1389444Y444902*
Y445840*
X1389103Y447246*
X1388422Y448184*
X1387740Y448652*
X1386717*
X1392513D02*
Y442090D01*
Y446777D02*
X1393535Y448184D01*
X1394217Y448652*
X1395240*
X1395922Y448184*
X1396263Y446777*
Y442090*
Y446777D02*
X1397285Y448184D01*
X1397967Y448652*
X1398990*
X1399672Y448184*
X1400013Y446777*
Y442090*
X1143575Y450682D02*
Y440839D01*
Y450682D02*
X1146643D01*
X1147665Y450214*
X1148006Y449745*
X1148347Y448807*
Y447401*
X1148006Y446464*
X1147665Y445995*
X1146643Y445526*
X1143575*
X1151415Y450682D02*
Y440839D01*
X1156188Y450682D02*
Y440839D01*
X1151415Y445995D02*
X1156188D01*
X1171529Y450682D02*
X1168120D01*
X1167779Y446464*
X1168120Y446932*
X1169143Y447401*
X1170165*
X1171188Y446932*
X1171870Y445995*
X1172211Y444589*
X1171870Y443651*
X1171529Y442245*
X1170847Y441307*
X1169825Y440839*
X1168802*
X1167779Y441307*
X1167438Y441776*
X1167097Y442714*
X1177325Y450682D02*
X1176302Y450214D01*
X1175620Y448807*
X1175279Y446464*
Y445057*
X1175620Y442714*
X1176302Y441307*
X1177325Y440839*
X1178006*
X1179029Y441307*
X1179711Y442714*
X1180052Y445057*
Y446464*
X1179711Y448807*
X1179029Y450214*
X1178006Y450682*
X1177325*
X1184825D02*
X1183802Y450214D01*
X1183461Y449276*
Y448339*
X1183802Y447401*
X1184484Y446932*
X1185847Y446464*
X1186870Y445995*
X1187552Y445057*
X1187893Y444120*
Y442714*
X1187552Y441776*
X1187211Y441307*
X1186188Y440839*
X1184825*
X1183802Y441307*
X1183461Y441776*
X1183120Y442714*
Y444120*
X1183461Y445057*
X1184143Y445995*
X1185165Y446464*
X1186529Y446932*
X1187211Y447401*
X1187552Y448339*
Y449276*
X1187211Y450214*
X1186188Y450682*
X1184825*
X1190961Y445057D02*
X1197097D01*
X1204597Y447401D02*
X1204256Y445995D01*
X1203575Y445057*
X1202552Y444589*
X1202211*
X1201188Y445057*
X1200506Y445995*
X1200165Y447401*
Y447870*
X1200506Y449276*
X1201188Y450214*
X1202211Y450682*
X1202552*
X1203575Y450214*
X1204256Y449276*
X1204597Y447401*
Y445057*
X1204256Y442714*
X1203575Y441307*
X1202552Y440839*
X1201870*
X1200847Y441307*
X1200506Y442245*
X1211075Y450682D02*
X1207665Y444120D01*
X1212779*
X1211075Y450682D02*
Y440839D01*
X1220620Y450682D02*
X1217211Y440839D01*
X1215847Y450682D02*
X1220620D01*
X1223688Y445057D02*
X1229825D01*
X1233234Y448339D02*
Y448807D01*
X1233575Y449745*
X1233915Y450214*
X1234597Y450682*
X1235961*
X1236643Y450214*
X1236984Y449745*
X1237325Y448807*
Y447870*
X1236984Y446932*
X1236302Y445526*
X1232893Y440839*
X1237665*
X1245506Y450682D02*
X1242097Y440839D01*
X1240734Y450682D02*
X1245506D01*
X1250620D02*
X1249597Y450214D01*
X1248915Y448807*
X1248575Y446464*
Y445057*
X1248915Y442714*
X1249597Y441307*
X1250620Y440839*
X1251302*
X1252325Y441307*
X1253006Y442714*
X1253347Y445057*
Y446464*
X1253006Y448807*
X1252325Y450214*
X1251302Y450682*
X1250620*
X1260847Y447401D02*
X1260506Y445995D01*
X1259825Y445057*
X1258802Y444589*
X1258461*
X1257438Y445057*
X1256756Y445995*
X1256415Y447401*
Y447870*
X1256756Y449276*
X1257438Y450214*
X1258461Y450682*
X1258802*
X1259825Y450214*
X1260506Y449276*
X1260847Y447401*
Y445057*
X1260506Y442714*
X1259825Y441307*
X1258802Y440839*
X1258120*
X1257097Y441307*
X1256756Y442245*
G54D190*
X1098816Y1027335D02*
Y1024710D01*
X1098180Y1027335D02*
X1099452D01*
X1100271Y1025710D02*
X1101362D01*
Y1025960*
X1101271Y1026210*
X1101180Y1026335*
X1100998Y1026460*
X1100725*
X1100543Y1026335*
X1100362Y1026085*
X1100271Y1025710*
Y1025460*
X1100362Y1025085*
X1100543Y1024835*
X1100725Y1024710*
X1100998*
X1101180Y1024835*
X1101362Y1025085*
X1102180Y1026460D02*
X1103180Y1024710D01*
Y1026460D02*
X1102180Y1024710D01*
X1105089Y1026460D02*
Y1024710D01*
Y1026085D02*
X1104907Y1026335D01*
X1104725Y1026460*
X1104452*
X1104271Y1026335*
X1104089Y1026085*
X1103998Y1025710*
Y1025460*
X1104089Y1025085*
X1104271Y1024835*
X1104452Y1024710*
X1104725*
X1104907Y1024835*
X1105089Y1025085*
X1106907Y1026085D02*
X1106816Y1026335D01*
X1106543Y1026460*
X1106271*
X1105998Y1026335*
X1105907Y1026085*
X1105998Y1025835*
X1106180Y1025710*
X1106634Y1025585*
X1106816Y1025460*
X1106907Y1025210*
Y1025085*
X1106816Y1024835*
X1106543Y1024710*
X1106271*
X1105998Y1024835*
X1105907Y1025085*
X1098680Y1023835D02*
Y1021210D01*
X1099498Y1022960D02*
Y1021210D01*
Y1022460D02*
X1099771Y1022835D01*
X1099952Y1022960*
X1100225*
X1100407Y1022835*
X1100498Y1022460*
Y1021210*
X1102316Y1022585D02*
X1102225Y1022835D01*
X1101952Y1022960*
X1101680*
X1101407Y1022835*
X1101316Y1022585*
X1101407Y1022335*
X1101589Y1022210*
X1102043Y1022085*
X1102225Y1021960*
X1102316Y1021710*
Y1021585*
X1102225Y1021335*
X1101952Y1021210*
X1101680*
X1101407Y1021335*
X1101316Y1021585*
X1103407Y1023835D02*
Y1021710D01*
X1103498Y1021335*
X1103680Y1021210*
X1103862*
X1103134Y1022960D02*
X1103771D01*
X1104680D02*
Y1021210D01*
Y1022210D02*
X1104771Y1022585D01*
X1104952Y1022835*
X1105134Y1022960*
X1105407*
X1106225D02*
Y1021710D01*
X1106316Y1021335*
X1106498Y1021210*
X1106771*
X1106952Y1021335*
X1107225Y1021710*
Y1022960D02*
Y1021210D01*
X1108043Y1022960D02*
Y1021210D01*
Y1022460D02*
X1108316Y1022835D01*
X1108498Y1022960*
X1108771*
X1108952Y1022835*
X1109043Y1022460*
Y1021210*
Y1022460D02*
X1109316Y1022835D01*
X1109498Y1022960*
X1109771*
X1109952Y1022835*
X1110043Y1022460*
Y1021210*
X1110862Y1022210D02*
X1111952D01*
Y1022460*
X1111862Y1022710*
X1111771Y1022835*
X1111589Y1022960*
X1111316*
X1111134Y1022835*
X1110952Y1022585*
X1110862Y1022210*
Y1021960*
X1110952Y1021585*
X1111134Y1021335*
X1111316Y1021210*
X1111589*
X1111771Y1021335*
X1111952Y1021585*
X1112771Y1022960D02*
Y1021210D01*
Y1022460D02*
X1113043Y1022835D01*
X1113225Y1022960*
X1113498*
X1113680Y1022835*
X1113771Y1022460*
Y1021210*
X1114862Y1023835D02*
Y1021710D01*
X1114952Y1021335*
X1115134Y1021210*
X1115316*
X1114589Y1022960D02*
X1115225D01*
X1117134Y1022585D02*
X1117043Y1022835D01*
X1116771Y1022960*
X1116498*
X1116225Y1022835*
X1116134Y1022585*
X1116225Y1022335*
X1116407Y1022210*
X1116862Y1022085*
X1117043Y1021960*
X1117134Y1021710*
Y1021585*
X1117043Y1021335*
X1116771Y1021210*
X1116498*
X1116225Y1021335*
X1116134Y1021585*
G54D194*
X1244856Y1013390D02*
Y1027390D01*
X1237856*
Y1013390*
X1244856*
X1254856D02*
Y1027390D01*
X1247856*
Y1013390*
X1254856*
X1055981Y1023890D02*
X1041981D01*
Y1016890*
X1055981*
Y1023890*
X1036981Y985890D02*
X1050981D01*
Y992890*
X1036981*
Y985890*
X1214154Y971352D02*
Y956352D01*
X1222154*
Y971352*
X1214154*
X1334929Y935396D02*
X1320929D01*
Y928396*
X1334929*
Y935396*
X1116654Y937846D02*
Y922846D01*
X1124654*
Y937846*
X1116654*
X1206154Y1002846D02*
Y983846D01*
X1215154*
Y1002846*
X1206154*
X1209466Y1006324D02*
X1206654D01*
X1208060Y1007346D02*
Y1005301D01*
X1217154Y1002846D02*
Y983846D01*
X1226154*
Y1002846*
X1217154*
X1220466Y1006324D02*
X1217654D01*
X1219060Y1007346D02*
Y1005301D01*
X565117Y362490D02*
X1843517D01*
Y1511990*
X565117*
Y362490*
X1123517D02*
X1843517D01*
Y557490*
X1123517*
Y362490*
X1408517Y502490D02*
X1843517D01*
Y362490*
X1408517*
Y502490*
Y392490D02*
X1843517D01*
Y362490*
X1408517*
Y392490*
X1568517*
Y362490*
X1408517*
Y392490*
Y502490D02*
X1843517D01*
Y557490*
X1408517*
Y502490*
Y432490D02*
X1843517D01*
Y502490*
X1408517*
Y432490*
X1708517Y392490D02*
X1843517D01*
Y432490*
X1708517*
Y392490*
X1123517D02*
X1283517D01*
Y362490*
X1123517*
Y392490*
X1283517Y362490D02*
X1408517D01*
Y392490*
X1283517*
Y362490*
X1117750Y1019900D02*
X1117900Y1019550D01*
X1118150Y1019150*
G54D199*
X1034250Y885000D02*
Y881000D01*
X1021750*
Y885000*
X1034250*
X1252606Y1005140D02*
Y999640D01*
X1240106*
Y1005140*
X1252606*
X1259654Y1018346D02*
Y1026346D01*
X1255654*
Y1018346*
X1259654*
X1241950Y1011022D02*
G75*
G03X1241950I-500J0D01*
G01X1251950D02*
G03X1251950I-500J0D01*
G01X1037650Y854307D02*
Y867693D01*
X1031350*
Y854307*
X1037650*
X1174654Y999846D02*
Y1007846D01*
X1170654*
Y999846*
X1174654*
X1076250Y885000D02*
Y881000D01*
X1063750*
Y885000*
X1076250*
X1090750D02*
Y881000D01*
X1078250*
Y885000*
X1090750*
X1019750D02*
Y881000D01*
X1007250*
Y885000*
X1019750*
X1031150Y854307D02*
Y867693D01*
X1024850*
Y854307*
X1031150*
X1013858Y1022090D02*
Y991690D01*
X1002559Y1022090D02*
X992323D01*
X1002559Y991690D02*
X992323D01*
X981693Y1022090D02*
X974606D01*
Y991690*
X981693*
X1051481Y1009140D02*
Y1003640D01*
X1038731*
Y1009140*
X1051481*
Y1003640*
X1038731*
Y1009140*
X1051481*
X1045000Y930500D02*
Y938500D01*
X1041000*
Y930500*
X1045000*
X998145Y926672D02*
X1006145D01*
Y930672*
X998145*
Y926672*
Y931002D02*
X1006145D01*
Y935002*
X998145*
Y931002*
Y935333D02*
X1006145D01*
Y939333*
X998145*
Y935333*
X1041523Y958530D02*
Y966530D01*
X1037523*
Y958530*
X1041523*
X1042342Y949390D02*
X1050342D01*
Y953390*
X1042342*
Y949390*
Y939390D02*
X1050342D01*
Y943390*
X1042342*
Y939390*
X1045469Y972177D02*
Y964177D01*
X1049469*
Y972177*
X1045469*
X1050342Y948390D02*
X1042342D01*
Y944390*
X1050342*
Y948390*
X996224Y953972D02*
X1004224D01*
Y957972*
X996224*
Y953972*
X1032894Y982817D02*
Y974817D01*
X1036894*
Y982817*
X1032894*
X1027024Y985349D02*
X1019024D01*
Y981349*
X1027024*
Y985349*
X996244Y961067D02*
X1004244D01*
Y965067*
X996244*
Y961067*
X990842Y949890D02*
Y957890D01*
X986842*
Y949890*
X990842*
Y959890D02*
Y967890D01*
X986842*
Y959890*
X990842*
X1007342Y944390D02*
X1015342D01*
Y948390*
X1007342*
Y944390*
X982755Y933890D02*
X995755D01*
Y939402*
X982755*
Y933890*
X1027824Y983349D02*
Y975349D01*
X1031824*
Y983349*
X1027824*
X1015177Y974372D02*
X1007177D01*
Y970372*
X1015177*
Y974372*
X986704Y940057D02*
X994704D01*
Y944057*
X986704*
Y940057*
X1055981Y1004390D02*
Y1012390D01*
X1051981*
Y1004390*
X1055981*
X1036737Y1000890D02*
Y1013890D01*
X1031225*
Y1000890*
X1036737*
X1058849Y1020483D02*
G03X1058849I-500J0D01*
G01X1046981Y998390D02*
X1038981D01*
Y994390*
X1046981*
Y998390*
X1028881Y998067D02*
X1016881D01*
Y1017567*
X1028881*
Y998067*
X1179654Y999846D02*
Y1007846D01*
X1175654*
Y999846*
X1179654*
X1189654D02*
Y1007846D01*
X1185654*
Y999846*
X1189654*
X1206154Y1022846D02*
X1214154D01*
Y1026846*
X1206154*
Y1022846*
X1175654Y890846D02*
Y898846D01*
X1171654*
Y890846*
X1175654*
X1053824Y948949D02*
X1061824D01*
Y952949*
X1053824*
Y948949*
Y972549D02*
X1061824D01*
Y976549*
X1053824*
Y972549*
X1099024Y976549D02*
X1091024D01*
Y972549*
X1099024*
Y976549*
X1106748Y1005685D02*
Y1005882D01*
X1124465*
Y1005685*
X1106748Y980094D02*
Y979898D01*
X1124465*
Y980094*
X1140888Y998264D02*
X1155888D01*
Y1021264*
X1140888*
Y998264*
X1144888Y1016264D02*
Y1003264D01*
X1147388*
Y1016264*
X1144888*
X1149888D02*
Y1003264D01*
X1152388*
Y1016264*
X1149888*
X1156388Y993576D02*
X1156115Y993389D01*
X1155706Y992826*
Y996764*
X1155546Y978702D02*
X1142161D01*
Y972402*
X1155546*
Y978702*
X1311329Y929896D02*
X1319329D01*
Y933896*
X1311329*
Y929896*
X1184654Y999846D02*
Y1007846D01*
X1180654*
Y999846*
X1184654*
X1225154Y962346D02*
Y954346D01*
X1229154*
Y962346*
X1225154*
X1103200Y867500D02*
X1095200D01*
Y863500*
X1103200*
Y867500*
X1337797Y931990D02*
G03X1337797I-500J0D01*
G01X1024650Y854307D02*
Y867693D01*
X1018350*
Y854307*
X1024650*
X1286780Y1029700D02*
X1299200D01*
Y1049800*
X1343300*
Y1025100*
X1346820*
Y964100*
X1286780*
Y1029700*
X1328650Y893799D02*
X1331012D01*
Y881201*
X1328650*
X1322350Y893799D02*
X1319988D01*
Y881201*
X1322350*
X1319299Y911850D02*
Y909488D01*
X1306701*
Y911850*
X1319299Y918150D02*
Y920512D01*
X1306701*
Y918150*
X1214421Y955051D02*
Y930642D01*
X1197886*
Y955051*
X1214421*
X1199086Y956228D02*
G03X1199086I-500J0D01*
G01X1202654Y926346D02*
X1210654D01*
Y930346*
X1202654*
Y926346*
X1210154Y959846D02*
X1202154D01*
Y955846*
X1210154*
Y959846*
X1014398Y905846D02*
Y892846D01*
X1019909*
Y905846*
X1014398*
X1006898D02*
Y892846D01*
X1012409*
Y905846*
X1006898*
X1028898D02*
Y892846D01*
X1034409*
Y905846*
X1028898*
X1085398Y905346D02*
Y892346D01*
X1090909*
Y905346*
X1085398*
X1193654Y979596D02*
Y995096D01*
X1202654*
Y979596*
X1193654*
X1164039Y1030413D02*
Y1033661D01*
X1193961*
Y1030713*
X1221404Y1021346D02*
X1226904D01*
Y1008596*
X1221404*
Y1021346*
X1226904*
Y1008596*
X1221404*
Y1021346*
X1206654Y1021465D02*
X1199654D01*
Y1011228*
X1206654*
Y1021465*
X1328500Y927200D02*
Y919200D01*
X1332500*
Y927200*
X1328500*
X1337500Y919000D02*
Y927000D01*
X1333500*
Y919000*
X1337500*
X1330054Y875952D02*
X1338054D01*
Y879952*
X1330054*
Y875952*
X1334054Y880052D02*
X1342054D01*
Y884052*
X1334054*
Y880052*
X1237154Y1018346D02*
Y1026346D01*
X1233154*
Y1018346*
X1237154*
X1181154Y890846D02*
Y898846D01*
X1177154*
Y890846*
X1181154*
X1177654Y970346D02*
Y978346D01*
X1173654*
Y970346*
X1177654*
X1193154Y948846D02*
Y940846D01*
X1197154*
Y948846*
X1193154*
X1237653Y968904D02*
Y982289D01*
X1231354*
Y968904*
X1237653*
X1237303Y953154D02*
Y966539D01*
X1231004*
Y953154*
X1237303*
X1057150Y854307D02*
Y867693D01*
X1050850*
Y854307*
X1057150*
X1063650D02*
Y867693D01*
X1057350*
Y854307*
X1063650*
X1070150D02*
Y867693D01*
X1063850*
Y854307*
X1070150*
X1076650D02*
Y867693D01*
X1070350*
Y854307*
X1076650*
X1083150D02*
Y867693D01*
X1076850*
Y854307*
X1083150*
X1089650D02*
Y867693D01*
X1083350*
Y854307*
X1089650*
X1186004Y994039D02*
Y980654D01*
X1192303*
Y994039*
X1186004*
X1185203Y969254D02*
Y982639D01*
X1178904*
Y969254*
X1185203*
X1303846Y923154D02*
X1288846D01*
Y900154*
X1303846*
Y923154*
X1299846Y905154D02*
Y918154D01*
X1297346*
Y905154*
X1299846*
X1294846D02*
Y918154D01*
X1292346*
Y905154*
X1294846*
X1288346Y927841D02*
X1288619Y928029D01*
X1289028Y928591*
Y924654*
X1186500Y887000D02*
Y874000D01*
X1189000*
Y887000*
X1186500*
X1182500Y869000D02*
X1207500D01*
Y892000*
X1182500*
Y869000*
X1191500Y887000D02*
Y874000D01*
X1194000*
Y887000*
X1191500*
X1196500D02*
Y874000D01*
X1199000*
Y887000*
X1196500*
X1201500D02*
Y874000D01*
X1204000*
Y887000*
X1201500*
X1182406Y867200D02*
G03X1182406I-906J0D01*
G01X1096055Y868700D02*
X1117945D01*
Y891700*
X1096055*
Y868700*
X1094000Y872888D02*
X1094273Y873075D01*
X1094682Y873638*
X1094682D02*
Y869700D01*
X1338054Y876052D02*
X1330054D01*
Y872052*
X1338054*
Y876052*
X1042898Y905846D02*
Y892846D01*
X1048409*
Y905846*
X1042898*
X1049898Y905346D02*
Y892346D01*
X1055409*
Y905346*
X1049898*
X1070898D02*
Y892346D01*
X1076409*
Y905346*
X1070898*
X1125154Y955596D02*
Y940096D01*
X1116154*
Y955596*
X1125154*
X1021398Y905846D02*
Y892846D01*
X1026909*
Y905846*
X1021398*
X1063398Y905346D02*
Y892346D01*
X1068909*
Y905346*
X1063398*
X1329379Y936846D02*
X1313879D01*
Y945846*
X1329379*
Y936846*
X1349654Y917346D02*
Y909346D01*
X1353654*
Y917346*
X1349654*
X1348154Y923596D02*
Y908096D01*
X1339154*
Y923596*
X1348154*
X1310000Y888500D02*
X1318000D01*
Y892500*
X1310000*
Y888500*
X1314654Y900452D02*
Y908452D01*
X1310654*
Y900452*
X1314654*
X1314004Y878552D02*
X1329504D01*
Y869552*
X1314004*
Y878552*
X1267004Y960846D02*
Y945346D01*
X1258004*
Y960846*
X1267004*
X1035898Y905846D02*
Y892846D01*
X1041409*
Y905846*
X1035898*
X1056898Y905346D02*
Y892346D01*
X1062409*
Y905346*
X1056898*
X1077898D02*
Y892346D01*
X1083409*
Y905346*
X1077898*
X1062250Y885000D02*
Y881000D01*
X1049750*
Y885000*
X1062250*
X1048250D02*
Y881000D01*
X1035750*
Y885000*
X1048250*
X1017342Y944390D02*
X1025342D01*
Y948390*
X1017342*
Y944390*
X1191154Y969846D02*
Y977846D01*
X1187154*
Y969846*
X1191154*
X1237303Y938654D02*
Y952039D01*
X1231004*
Y938654*
X1237303*
X1204303Y996654D02*
Y1010039D01*
X1198004*
Y996654*
X1204303*
X1237653Y983904D02*
Y997289D01*
X1231354*
Y983904*
X1237653*
X1018150Y854307D02*
Y867693D01*
X1011850*
Y854307*
X1018150*
X1044150D02*
Y867693D01*
X1037850*
Y854307*
X1044150*
X1050650D02*
Y867693D01*
X1044350*
Y854307*
X1050650*
X1209504Y1021539D02*
Y1008154D01*
X1215803*
Y1021539*
X1209504*
X1310000Y893500D02*
X1318000D01*
Y897500*
X1310000*
Y893500*
X1353654Y906346D02*
X1365654D01*
Y886846*
X1353654*
Y906346*
X1245654Y942846D02*
X1253654D01*
Y946846*
X1245654*
Y942846*
X1316354Y908452D02*
Y900452D01*
X1320354*
Y908452*
X1316354*
X1345654Y899152D02*
Y907152D01*
X1341654*
Y899152*
X1345654*
X1340504Y898545D02*
Y885159D01*
X1346803*
Y898545*
X1340504*
X1363654Y907846D02*
X1355654D01*
Y923846*
X1363654*
Y907846*
X1247300Y955100D02*
Y948500D01*
X1240900*
Y955100*
X1247300*
X1242183Y956300D02*
G03X1242183I-283J0D01*
G01X1329300Y913700D02*
X1337300D01*
Y917700*
X1329300*
Y913700*
X1134200Y869500D02*
X1126200D01*
Y865500*
X1134200*
Y869500*
X1135300Y876556D02*
X1122300D01*
Y871044*
X1135300*
Y876556*
X1119500Y890300D02*
Y877300D01*
X1135000*
Y890300*
X1119500*
X1113300Y867500D02*
X1105300D01*
Y863500*
X1113300*
Y867500*
X1096055Y894500D02*
X1117945D01*
Y917500*
X1096055*
Y894500*
X1094000Y898688D02*
X1094273Y898875D01*
X1094682Y899438*
X1094682D02*
Y895500D01*
X1246700Y984300D02*
Y977700D01*
X1240300*
Y984300*
X1246700*
X1241583Y985500D02*
G03X1241583I-283J0D01*
G01X1052733Y990630D02*
X1051824Y987349D01*
X1052733Y990630D02*
X1053642Y987349D01*
X1052165Y988443D02*
X1053301D01*
X1054778Y989537D02*
X1054665Y989380D01*
X1054778Y989224*
X1054892Y989380*
X1054778Y989537*
Y987662D02*
X1054665Y987505D01*
X1054778Y987349*
X1054892Y987505*
X1054778Y987662*
X1057619Y989849D02*
X1057506Y990162D01*
X1057278Y990474*
X1057051Y990630*
X1056597*
X1056369Y990474*
X1056142Y990162*
X1056028Y989849*
X1055915Y989380*
Y988599*
X1056028Y988130*
X1056142Y987818*
X1056369Y987505*
X1056597Y987349*
X1057051*
X1057278Y987505*
X1057506Y987818*
X1057619Y988130*
X1058869Y990630D02*
X1060119D01*
X1059437Y989380*
X1059778*
X1060006Y989224*
X1060119Y989068*
X1060233Y988599*
Y988287*
X1060119Y987818*
X1059892Y987505*
X1059551Y987349*
X1059210*
X1058869Y987505*
X1058756Y987662*
X1058642Y987974*
X1089419Y928230D02*
Y924949D01*
X1088624Y928230D02*
X1090215D01*
X1091237D02*
Y924949D01*
Y928230D02*
X1092260D01*
X1092601Y928074*
X1092715Y927918*
X1092828Y927605*
Y927137*
X1092715Y926824*
X1092601Y926668*
X1092260Y926512*
X1091237*
X1095328Y928230D02*
X1094192D01*
X1094078Y926824*
X1094192Y926980*
X1094533Y927137*
X1094874*
X1095215Y926980*
X1095442Y926668*
X1095556Y926199*
X1095442Y925887*
X1095328Y925418*
X1095101Y925105*
X1094760Y924949*
X1094419*
X1094078Y925105*
X1093965Y925262*
X1093851Y925574*
X1089419Y921830D02*
Y918549D01*
X1088624Y921830D02*
X1090215D01*
X1091237D02*
Y918549D01*
Y921830D02*
X1092260D01*
X1092601Y921674*
X1092715Y921518*
X1092828Y921205*
Y920737*
X1092715Y920424*
X1092601Y920268*
X1092260Y920112*
X1091237*
X1095442Y921830D02*
X1094306Y918549D01*
X1093851Y921830D02*
X1095442D01*
X1178591Y864313D02*
X1178364Y864625D01*
X1178023Y864781*
X1177568*
X1177227Y864625*
X1177000Y864313*
X1177000D02*
Y864000D01*
X1177114Y863688*
X1177114D02*
X1177227Y863531D01*
X1177455Y863375*
X1178136Y863063*
X1178136D02*
X1178364Y862906D01*
X1178477Y862750*
X1178591Y862438*
X1178591D02*
Y861969D01*
X1178364Y861656*
X1178023Y861500*
X1177568*
X1177227Y861656*
X1177000Y861969*
X1179614Y864781D02*
X1180182Y861500D01*
X1180750Y864781D02*
X1180182Y861500D01*
X1180750Y864781D02*
X1181318Y861500D01*
X1181886Y864781D02*
X1181318Y861500D01*
X1183023Y864000D02*
Y864156D01*
X1183136Y864469*
X1183250Y864625*
X1183477Y864781*
X1183932*
X1184159Y864625*
X1184273Y864469*
X1184386Y864156*
Y863844*
X1184273Y863531*
X1184045Y863063*
X1184045D02*
X1182909Y861500D01*
X1184500*
X1137314Y868656D02*
X1137177Y869031D01*
X1136905Y869406*
X1136632Y869594*
X1136086*
X1135814Y869406*
X1135541Y869031*
X1135405Y868656*
X1135268Y868094*
Y867156*
X1135405Y866594*
X1135541Y866219*
X1135814Y865844*
X1136086Y865656*
X1136632*
X1136905Y865844*
X1137177Y866219*
X1137314Y866594*
X1140314Y868281D02*
X1140177Y867719D01*
X1139905Y867344*
X1139495Y867156*
X1139359*
X1138950Y867344*
X1138677Y867719*
X1138541Y868281*
Y868469*
X1138677Y869031*
X1138950Y869406*
X1139359Y869594*
X1139495*
X1139905Y869406*
X1140177Y869031*
X1140314Y868281*
Y867344*
X1140177Y866406*
X1139905Y865844*
X1139495Y865656*
X1139223*
X1138814Y865844*
X1138677Y866219*
X1143314Y869594D02*
X1141950D01*
X1141814Y867906*
X1141950Y868094*
X1142359Y868281*
X1142768*
X1143177Y868094*
X1143450Y867719*
X1143586Y867156*
X1143450Y866781*
X1143314Y866219*
X1143041Y865844*
X1142632Y865656*
X1142223*
X1141814Y865844*
X1141677Y866031*
X1141541Y866406*
X1138545Y874500D02*
X1138409Y874875D01*
X1138136Y875250*
X1137864Y875438*
X1137318*
X1137045Y875250*
X1136773Y874875*
X1136636Y874500*
X1136500Y873938*
Y873000*
X1136636Y872438*
X1136773Y872063*
X1137045Y871688*
X1137318Y871500*
X1137864*
X1138136Y871688*
X1138409Y872063*
X1138545Y872438*
X1141545Y874125D02*
X1141409Y873563D01*
X1141136Y873188*
X1140727Y873000*
X1140591*
X1140182Y873188*
X1139909Y873563*
X1139773Y874125*
Y874313*
X1139909Y874875*
X1140182Y875250*
X1140591Y875438*
X1140727*
X1141136Y875250*
X1141409Y874875*
X1141545Y874125*
Y873188*
X1141409Y872250*
X1141136Y871688*
X1140727Y871500*
X1140455*
X1140045Y871688*
X1139909Y872063*
X1144409Y874875D02*
X1144273Y875250D01*
X1143864Y875438*
X1143591*
X1143182Y875250*
X1142909Y874688*
X1142773Y873750*
Y872813*
X1142909Y872063*
X1143182Y871688*
X1143591Y871500*
X1143727*
X1144136Y871688*
X1144409Y872063*
X1144545Y872625*
Y872813*
X1144409Y873375*
X1144136Y873750*
X1143727Y873938*
X1143591*
X1143182Y873750*
X1142909Y873375*
X1142773Y872813*
X1136950Y882388D02*
Y879575D01*
X1137086Y879013*
X1137359Y878638*
X1137768Y878450*
X1138041*
X1138450Y878638*
X1138723Y879013*
X1138859Y879575*
Y882388*
X1140086Y881638D02*
X1140359Y881825D01*
X1140768Y882388*
Y878450*
X1143905Y882388D02*
X1142541Y878450D01*
X1141995Y882388D02*
X1143905D01*
X1092425Y909809D02*
X1092050Y909536D01*
X1091862Y909127*
X1091862D02*
Y908582D01*
X1091862D02*
X1092050Y908173D01*
X1092425Y907900*
X1092800*
X1093175Y908036*
X1093362Y908173*
X1093362D02*
X1093550Y908445D01*
X1093925Y909264*
X1094112Y909536*
X1094112D02*
X1094300Y909673D01*
X1094675Y909809*
X1095237*
X1095237D02*
X1095612Y909536D01*
X1095612D02*
X1095800Y909127D01*
Y908582*
X1095612Y908173*
X1095612D02*
X1095237Y907900D01*
X1091862Y911036D02*
X1095800Y911718D01*
X1091862Y912400D02*
X1095800Y911718D01*
X1091862Y912400D02*
X1095800Y913082D01*
X1091862Y913764D02*
X1095800Y913082D01*
X1091862Y916355D02*
X1094487Y914991D01*
X1094487D02*
Y917036D01*
X1091862Y916355D02*
X1095800D01*
X1380881Y956940D02*
X1384818D01*
X1380881D02*
Y958712D01*
X1382756Y956940D02*
Y958031D01*
X1381818Y960076D02*
X1381631D01*
X1381256Y960212*
X1381068Y960349*
X1380881Y960622*
Y961167*
X1381068Y961440*
X1381256Y961576*
X1381631Y961712*
X1382006*
X1382381Y961576*
X1382943Y961303*
X1384818Y959940*
Y961849*
X1380881Y963758D02*
X1381068Y963349D01*
X1381443Y963212*
X1381818*
X1382193Y963349*
X1382381Y963622*
X1382568Y964167*
X1382756Y964576*
X1383131Y964849*
X1383506Y964985*
X1384068*
X1384443Y964849*
X1384631Y964712*
X1384818Y964303*
Y963758*
X1384631Y963349*
X1384443Y963212*
X1384068Y963076*
X1383506*
X1383131Y963212*
X1382756Y963485*
X1382568Y963894*
X1382381Y964440*
X1382193Y964712*
X1381818Y964849*
X1381443*
X1381068Y964712*
X1380881Y964303*
Y963758*
Y966485D02*
Y967985D01*
X1382381Y967167*
Y967576*
X1382568Y967849*
X1382756Y967985*
X1383318Y968122*
X1383693*
X1384256Y967985*
X1384631Y967712*
X1384818Y967303*
Y966894*
X1384631Y966485*
X1384443Y966349*
X1384068Y966212*
X1380881Y971258D02*
X1384818Y969894D01*
X1380881Y969349D02*
Y971258D01*
X1382193Y972485D02*
X1384818Y973985D01*
X1382193D02*
X1384818Y972485D01*
X1382756Y979985D02*
X1382381Y979712D01*
X1382193Y979440*
Y979031*
X1382381Y978758*
X1382756Y978485*
X1383318Y978349*
X1383693*
X1384256Y978485*
X1384631Y978758*
X1384818Y979031*
Y979440*
X1384631Y979712*
X1384256Y979985*
X1382193Y981894D02*
X1382381Y981622D01*
X1382756Y981349*
X1383318Y981212*
X1383693*
X1384256Y981349*
X1384631Y981622*
X1384818Y981894*
Y982303*
X1384631Y982576*
X1384256Y982849*
X1383693Y982985*
X1383318*
X1382756Y982849*
X1382381Y982576*
X1382193Y982303*
Y981894*
Y984212D02*
X1384818D01*
X1382943D02*
X1382381Y984622D01*
X1382193Y984894*
Y985303*
X1382381Y985576*
X1382943Y985712*
X1384818*
X1380881Y987349D02*
X1384068D01*
X1384631Y987485*
X1384818Y987758*
Y988031*
X1382193Y986940D02*
Y987894D01*
Y989258D02*
X1384818D01*
X1383318D02*
X1382756Y989394D01*
X1382381Y989667*
X1382193Y989940*
Y990349*
Y992258D02*
X1382381Y991985D01*
X1382756Y991712*
X1383318Y991576*
X1383693*
X1384256Y991712*
X1384631Y991985*
X1384818Y992258*
Y992667*
X1384631Y992940*
X1384256Y993212*
X1383693Y993349*
X1383318*
X1382756Y993212*
X1382381Y992940*
X1382193Y992667*
Y992258*
X1380881Y994576D02*
X1384818D01*
X1381818Y997849D02*
X1381443Y997712D01*
X1381068Y997440*
X1380881Y997167*
Y996622*
X1381068Y996349*
X1381443Y996076*
X1381818Y995940*
X1382381Y995803*
X1383318*
X1383881Y995940*
X1384256Y996076*
X1384631Y996349*
X1384818Y996622*
Y997167*
X1384631Y997440*
X1384256Y997712*
X1383881Y997849*
X1380881Y1000167D02*
X1384818Y999076D01*
X1380881Y1000167D02*
X1384818Y1001258D01*
X1383506Y999485D02*
Y1000849D01*
X1380881Y1002485D02*
X1384818D01*
X1380881D02*
Y1003712D01*
X1381068Y1004122*
X1381256Y1004258*
X1381631Y1004394*
X1382006*
X1382381Y1004258*
X1382568Y1004122*
X1382756Y1003712*
Y1002485*
Y1003440D02*
X1384818Y1004394D01*
X1380881Y1005622D02*
X1384818D01*
X1380881D02*
Y1006576D01*
X1381068Y1006985*
X1381443Y1007258*
X1381818Y1007394*
X1382381Y1007531*
X1383318*
X1383881Y1007394*
X1384256Y1007258*
X1384631Y1006985*
X1384818Y1006576*
Y1005622*
X1380881Y1011894D02*
X1384818D01*
X1380881D02*
Y1013122D01*
X1381068Y1013531*
X1381256Y1013667*
X1381631Y1013803*
X1382006*
X1382381Y1013667*
X1382568Y1013531*
X1382756Y1013122*
Y1011894*
Y1012849D02*
X1384818Y1013803D01*
X1381631Y1015031D02*
X1381443Y1015303D01*
X1380881Y1015712*
X1384818*
X1384443Y1017076D02*
X1384631Y1016940D01*
X1384818Y1017076*
X1384631Y1017212*
X1384443Y1017076*
X1381631Y1018440D02*
X1381443Y1018712D01*
X1380881Y1019122*
X1384818*
X1165000Y1025688D02*
X1165273Y1025875D01*
X1165682Y1026438*
X1165682D02*
Y1022500D01*
X1288818Y898938D02*
X1288409Y898750D01*
X1288136Y898188*
X1288136D02*
X1288000Y897250D01*
Y896688*
X1288000D02*
X1288136Y895750D01*
X1288409Y895188*
X1288409D02*
X1288818Y895000D01*
X1289091*
X1289500Y895188*
X1289500D02*
X1289773Y895750D01*
X1289909Y896688*
X1289909D02*
Y897250D01*
X1289773Y898188*
X1289773D02*
X1289500Y898750D01*
X1289091Y898938*
X1289091D02*
X1288818D01*
X1119591Y867938D02*
X1118500Y864000D01*
X1119591Y867938D02*
X1120682Y864000D01*
X1118909Y865313D02*
X1120273D01*
X1120000Y895938D02*
Y892000D01*
Y895938D02*
X1121227D01*
X1121227D02*
X1121636Y895750D01*
X1121773Y895563*
X1121773D02*
X1121909Y895188D01*
X1121909D02*
Y894813D01*
X1121909D02*
X1121773Y894438D01*
X1121773D02*
X1121636Y894250D01*
X1121227Y894063*
X1120000D02*
X1121227D01*
X1121227D02*
X1121636Y893875D01*
X1121773Y893688*
X1121773D02*
X1121909Y893313D01*
X1121909D02*
Y892750D01*
X1121773Y892375*
X1121636Y892188*
X1121636D02*
X1121227Y892000D01*
X1120000*
X1122045Y901500D02*
X1121909Y901875D01*
X1121636Y902250*
X1121364Y902438*
X1121364D02*
X1120818D01*
X1120818D02*
X1120545Y902250D01*
X1120273Y901875*
X1120136Y901500*
X1120000Y900938*
X1120000D02*
Y900000D01*
X1120136Y899438*
X1120136D02*
X1120273Y899063D01*
X1120273D02*
X1120545Y898688D01*
X1120545D02*
X1120818Y898500D01*
X1121364*
X1121636Y898688*
X1121636D02*
X1121909Y899063D01*
X1121909D02*
X1122045Y899438D01*
X1120000Y916938D02*
Y913000D01*
Y916938D02*
X1120955D01*
X1120955D02*
X1121364Y916750D01*
X1121636Y916375*
X1121773Y916000*
X1121909Y915438*
X1121909D02*
Y914500D01*
X1121773Y913938*
X1121773D02*
X1121636Y913563D01*
X1121636D02*
X1121364Y913188D01*
X1121364D02*
X1120955Y913000D01*
X1120000*
X1127650Y1023500D02*
G03X1127650I-825J0D01*
G01X1125650Y1017600D02*
X1126600Y1021950D01*
X1126300*
X1125312Y1017591D02*
X1126262Y1021941D01*
X1125300Y1017600D02*
X1125650D01*
X1126800Y1019600D02*
X1126350Y1017550D01*
X1128100Y1019600D02*
X1126800D01*
X1128300Y1020450D02*
X1128100Y1019600D01*
X1126950Y1020450D02*
X1128300D01*
X1127300Y1021900D02*
X1126950Y1020450D01*
X1128000Y1022000D02*
X1127650D01*
X1127550Y1021950*
X1127300Y1021900*
X1128450Y1022100D02*
X1128200Y1022000D01*
X1128000*
X1129000Y1022100D02*
X1128450D01*
X1129200Y1022000D02*
X1129050D01*
X1129000Y1022100*
X1129550Y1021950D02*
X1129200Y1022000D01*
X1129950Y1021650D02*
X1129750Y1021900D01*
X1129550Y1021950*
X1130050Y1021400D02*
X1129950Y1021650D01*
X1130050Y1021200D02*
X1129950Y1021400D01*
X1130050*
X1130100Y1020800D02*
X1130050Y1021200D01*
X1130150Y1020350D02*
X1130100Y1020800D01*
X1130150Y1019900D02*
Y1020350D01*
X1130250Y1019700D02*
X1130150Y1019900D01*
X1130650Y1019200D02*
X1130450Y1019550D01*
X1130250Y1019700*
X1130850Y1018800D02*
X1130650Y1019200D01*
X1130850Y1018450D02*
Y1018800D01*
X1130950Y1017950D02*
X1130850Y1018450D01*
X1130800Y1017050D02*
X1130950Y1017600D01*
Y1017950*
X1130650Y1016850D02*
X1130800Y1017050D01*
X1130050Y1016600D02*
X1130650Y1016850D01*
X1129350Y1016300D02*
X1130050Y1016600D01*
X1128750Y1016100D02*
X1129350Y1016300D01*
X1127700Y1015650D02*
X1128250Y1015900D01*
X1128750Y1016100*
X1127300Y1015450D02*
X1127700Y1015650D01*
X1126800Y1015150D02*
X1127300Y1015450D01*
X1126600Y1014750D02*
X1126800Y1015150D01*
X1126400Y1014100D02*
X1126600Y1014750D01*
X1126450Y1013650D02*
X1126400Y1014100D01*
X1126550Y1013350D02*
X1126450Y1013650D01*
X1126650Y1013150D02*
X1126550Y1013350D01*
Y1012900D02*
X1126650Y1013150D01*
X1125900Y1012800D02*
X1126400Y1012750D01*
X1126550Y1012900*
X1125250Y1013150D02*
X1125900Y1012800D01*
X1124400Y1013550D02*
X1125250Y1013150D01*
X1123950Y1014100D02*
X1124400Y1013550D01*
X1123700Y1014450D02*
X1123950Y1014100D01*
X1123450Y1015100D02*
X1123700Y1014450D01*
X1123450Y1015350D02*
Y1015100D01*
X1122900Y1016200D02*
X1123450Y1015350D01*
X1122500Y1016750D02*
X1122900Y1016200D01*
X1122200Y1017050D02*
X1122500Y1016750D01*
X1121500Y1016800D02*
X1122000Y1017150D01*
X1122200Y1017050*
X1121250Y1016600D02*
X1121500Y1016800D01*
X1120700Y1016600D02*
X1121250D01*
X1120000Y1017000D02*
X1120700Y1016600D01*
X1124550Y1017150D02*
Y1017300D01*
X1125100Y1019600*
X1124750Y1016950D02*
X1124550Y1017150D01*
X1125100Y1016750D02*
X1124750Y1016950D01*
X1125500Y1016600D02*
X1125100Y1016750D01*
X1125800Y1016600D02*
X1125500D01*
X1126450Y1016800D02*
X1126050Y1016650D01*
X1125800Y1016600*
X1126600Y1017200D02*
Y1017000D01*
X1126450Y1016850*
Y1016800*
Y1017500D02*
X1126550Y1017400D01*
X1126600Y1017300*
Y1017200*
X1126450Y1017500D02*
X1126350Y1017550D01*
X1119450Y1017850D02*
X1120000Y1017000D01*
X1119000Y1018450D02*
X1119450Y1017850D01*
X1118150Y1019150D02*
X1119000Y1018450D01*
X1121200Y1019900D02*
X1117750D01*
X1125100Y1019600D02*
X1123700D01*
X1124000Y1020500*
X1125250*
X1124600Y1025050D02*
X1121200D01*
Y1019900*
X1125250Y1020500D02*
X1125650Y1022000D01*
X1125450Y1022100*
X1125000Y1022300*
X1124900Y1022500*
X1124600Y1022750*
Y1025050*
G54D200*
X1129291Y904291D02*
Y964729D01*
X1130271Y965709*
X1190709*
Y904291*
X1129291*
G54D201*
X1017000Y941180D02*
X1030000D01*
Y919820*
X1017000*
Y941180*
X1034504Y988702D02*
Y985890D01*
X1033481Y987296D02*
X1035527D01*
X1148474Y874846D02*
Y887846D01*
X1169834*
Y874846*
X1148474*
X1321500Y912500D02*
X1337500D01*
Y896500*
X1321500*
Y912500*
X1337000Y897500D02*
G03X1337000I-500J0D01*
G01X1254013Y986815D02*
X1257294D01*
X1254013Y986019D02*
Y987610D01*
Y988633D02*
X1257294D01*
X1254013D02*
Y989656D01*
X1254169Y989997*
X1254325Y990110*
X1254638Y990224*
X1255107*
X1255419Y990110*
X1255575Y989997*
X1255732Y989656*
Y988633*
X1254013Y991474D02*
Y992724D01*
X1255263Y992042*
Y992383*
X1255419Y992610*
X1255575Y992724*
X1256044Y992838*
X1256357*
X1256825Y992724*
X1257138Y992497*
X1257294Y992156*
Y991815*
X1257138Y991474*
X1256982Y991360*
X1256669Y991247*
X1025439Y874218D02*
Y871874D01*
X1025553Y871405*
X1025780Y871093*
X1026121Y870937*
X1026348*
X1026689Y871093*
X1026916Y871405*
X1027030Y871874*
Y874218*
X1029643D02*
X1028507Y870937D01*
X1028053Y874218D02*
X1029643D01*
X1234239Y1004768D02*
Y1002424D01*
X1234353Y1001955*
X1234580Y1001643*
X1234921Y1001487*
X1235148*
X1235489Y1001643*
X1235716Y1001955*
X1235830Y1002424*
Y1004768*
X1236966Y1003987D02*
Y1004143D01*
X1237080Y1004455*
X1237193Y1004612*
X1237421Y1004768*
X1237875*
X1238103Y1004612*
X1238216Y1004455*
X1238330Y1004143*
Y1003830*
X1238216Y1003518*
X1237989Y1003049*
X1236853Y1001487*
X1238443*
X1265590Y1017815D02*
X1268872D01*
X1265590D02*
Y1018837D01*
X1265747Y1019178*
X1265903Y1019292*
X1266215Y1019406*
X1266528*
X1266840Y1019292*
X1266997Y1019178*
X1267153Y1018837*
Y1017815*
Y1018610D02*
X1268872Y1019406D01*
X1266215Y1020428D02*
X1266059Y1020656D01*
X1265590Y1020997*
X1268872*
X1265590Y1022247D02*
Y1023497D01*
X1266840Y1022815*
Y1023156*
X1266997Y1023383*
X1267153Y1023497*
X1267622Y1023610*
X1267934*
X1268403Y1023497*
X1268715Y1023269*
X1268872Y1022928*
Y1022587*
X1268715Y1022247*
X1268559Y1022133*
X1268247Y1022019*
X1228787Y1021590D02*
X1232068D01*
Y1022953*
X1228787Y1023976D02*
X1232068D01*
X1228787D02*
Y1024772D01*
X1228943Y1025112*
X1229256Y1025340*
X1229568Y1025453*
X1230037Y1025567*
X1230818*
X1231287Y1025453*
X1231600Y1025340*
X1231912Y1025112*
X1232068Y1024772*
Y1023976*
X1229568Y1026703D02*
X1229412D01*
X1229100Y1026817*
X1228943Y1026931*
X1228787Y1027158*
Y1027612*
X1228943Y1027840*
X1229100Y1027953*
X1229412Y1028067*
X1229725*
X1230037Y1027953*
X1230506Y1027726*
X1232068Y1026590*
Y1028181*
X1260937Y1018340D02*
X1264218D01*
Y1019703*
X1260937Y1020726D02*
X1264218D01*
X1260937D02*
Y1021522D01*
X1261093Y1021862*
X1261406Y1022090*
X1261718Y1022203*
X1262187Y1022317*
X1262968*
X1263437Y1022203*
X1263750Y1022090*
X1264062Y1021862*
X1264218Y1021522*
Y1020726*
X1260937Y1023567D02*
Y1024817D01*
X1262187Y1024135*
Y1024476*
X1262343Y1024703*
X1262500Y1024817*
X1262968Y1024931*
X1263281*
X1263750Y1024817*
X1264062Y1024590*
X1264218Y1024249*
Y1023908*
X1264062Y1023567*
X1263906Y1023453*
X1263593Y1023340*
X1033537Y846590D02*
X1036818D01*
X1033537D02*
Y847612D01*
X1033693Y847953*
X1033850Y848067*
X1034162Y848181*
X1034475*
X1034787Y848067*
X1034943Y847953*
X1035100Y847612*
Y846590*
Y847385D02*
X1036818Y848181D01*
X1033537Y849431D02*
Y850681D01*
X1034787Y849999*
Y850340*
X1034943Y850567*
X1035100Y850681*
X1035568Y850794*
X1035881*
X1036350Y850681*
X1036662Y850453*
X1036818Y850112*
Y849772*
X1036662Y849431*
X1036506Y849317*
X1036193Y849203*
X1033537Y852044D02*
Y853294D01*
X1034787Y852612*
Y852953*
X1034943Y853181*
X1035100Y853294*
X1035568Y853408*
X1035881*
X1036350Y853294*
X1036662Y853067*
X1036818Y852726*
Y852385*
X1036662Y852044*
X1036506Y851931*
X1036193Y851817*
X1170490Y991897D02*
X1173772D01*
X1170490D02*
Y992919D01*
X1170647Y993260*
X1170803Y993374*
X1171115Y993487*
X1171428*
X1171740Y993374*
X1171897Y993260*
X1172053Y992919*
Y991897*
Y992692D02*
X1173772Y993487D01*
X1170490Y996101D02*
X1173772Y994965D01*
X1170490Y994510D02*
Y996101D01*
Y998260D02*
X1172678Y997124D01*
Y998828*
X1170490Y998260D02*
X1173772D01*
X1066443Y874668D02*
Y872324D01*
X1066557Y871855*
X1066784Y871543*
X1067125Y871387*
X1067353*
X1067693Y871543*
X1067921Y871855*
X1068034Y872324*
Y874668*
X1069057Y874043D02*
X1069284Y874199D01*
X1069625Y874668*
Y871387*
X1071330Y874668D02*
X1070989Y874512D01*
X1070762Y874043*
X1070648Y873262*
Y872793*
X1070762Y872012*
X1070989Y871543*
X1071330Y871387*
X1071557*
X1071898Y871543*
X1072125Y872012*
X1072239Y872793*
Y873262*
X1072125Y874043*
X1071898Y874512*
X1071557Y874668*
X1071330*
X1081305Y874868D02*
Y872524D01*
X1081418Y872055*
X1081646Y871743*
X1081987Y871587*
X1082214*
X1082555Y871743*
X1082782Y872055*
X1082896Y872524*
Y874868*
X1083918Y874243D02*
X1084146Y874399D01*
X1084487Y874868*
Y871587*
X1085509Y874243D02*
X1085737Y874399D01*
X1086078Y874868*
Y871587*
X1011546Y874668D02*
Y872324D01*
X1011659Y871855*
X1011887Y871543*
X1012228Y871387*
X1012455*
X1012796Y871543*
X1013023Y871855*
X1013137Y872324*
Y874668*
X1015523Y874199D02*
X1015409Y874512D01*
X1015068Y874668*
X1014841*
X1014500Y874512*
X1014273Y874043*
X1014159Y873262*
Y872480*
X1014273Y871855*
X1014500Y871543*
X1014841Y871387*
X1014955*
X1015296Y871543*
X1015523Y871855*
X1015637Y872324*
Y872480*
X1015523Y872949*
X1015296Y873262*
X1014955Y873418*
X1014841*
X1014500Y873262*
X1014273Y872949*
X1014159Y872480*
X1026687Y846590D02*
X1029968D01*
X1026687D02*
Y847612D01*
X1026843Y847953*
X1027000Y848067*
X1027312Y848181*
X1027625*
X1027937Y848067*
X1028093Y847953*
X1028250Y847612*
Y846590*
Y847385D02*
X1029968Y848181D01*
X1026687Y849431D02*
Y850681D01*
X1027937Y849999*
Y850340*
X1028093Y850567*
X1028250Y850681*
X1028718Y850794*
X1029031*
X1029500Y850681*
X1029812Y850453*
X1029968Y850112*
Y849772*
X1029812Y849431*
X1029656Y849317*
X1029343Y849203*
X1027468Y851931D02*
X1027312D01*
X1027000Y852044*
X1026843Y852158*
X1026687Y852385*
Y852840*
X1026843Y853067*
X1027000Y853181*
X1027312Y853294*
X1027625*
X1027937Y853181*
X1028406Y852953*
X1029968Y851817*
Y853408*
X980909Y983781D02*
X980000Y980500D01*
X980909Y983781D02*
X981818Y980500D01*
X980341Y981594D02*
X981477D01*
X982955Y982688D02*
X982841Y982531D01*
X982955Y982375*
X983068Y982531*
X982955Y982688*
Y980813D02*
X982841Y980656D01*
X982955Y980500*
X983068Y980656*
X982955Y980813*
X985227Y983781D02*
Y981281D01*
X985114Y980813*
X985114D02*
X985000Y980656D01*
X984773Y980500*
X984545*
X984318Y980656*
X984205Y980813*
X984205D02*
X984091Y981281D01*
Y981594*
X986250Y983156D02*
X986477Y983313D01*
X986477D02*
X986818Y983781D01*
Y980500*
X1012758Y917745D02*
X1011849Y914791D01*
X1012758Y917745D02*
X1013667Y914791D01*
X1012190Y915776D02*
X1013326D01*
X1014803Y916760D02*
X1014690Y916620D01*
X1014803Y916479*
X1014917Y916620*
X1014803Y916760*
Y915073D02*
X1014690Y914932D01*
X1014803Y914791*
X1014917Y914932*
X1014803Y915073*
X1015940Y917745D02*
Y915635D01*
X1016053Y915213*
X1016281Y914932*
X1016622Y914791*
X1016849*
X1017190Y914932*
X1017417Y915213*
X1017531Y915635*
Y917745*
X1018781D02*
X1020031D01*
X1019349Y916620*
X1019690*
X1019917Y916479*
X1020031Y916338*
X1020144Y915916*
Y915635*
X1020031Y915213*
X1019803Y914932*
X1019462Y914791*
X1019122*
X1018781Y914932*
X1018667Y915073*
X1018553Y915354*
X1021101Y974945D02*
X1020192Y971991D01*
X1021101Y974945D02*
X1022010Y971991D01*
X1020533Y972976D02*
X1021669D01*
X1023147Y973960D02*
X1023033Y973820D01*
X1023147Y973679*
X1023260Y973820*
X1023147Y973960*
Y972273D02*
X1023033Y972132D01*
X1023147Y971991*
X1023260Y972132*
X1023147Y972273*
X1024283Y974945D02*
Y972835D01*
X1024397Y972413*
X1024624Y972132*
X1024965Y971991*
X1025192*
X1025533Y972132*
X1025760Y972413*
X1025874Y972835*
Y974945*
X1028374D02*
X1027237D01*
X1027124Y973679*
X1027237Y973820*
X1027578Y973960*
X1027919*
X1028260Y973820*
X1028487Y973538*
X1028601Y973116*
X1028487Y972835*
X1028374Y972413*
X1028147Y972132*
X1027806Y971991*
X1027465*
X1027124Y972132*
X1027010Y972273*
X1026897Y972554*
X1052395Y1002928D02*
X1051486Y999647D01*
X1052395Y1002928D02*
X1053305Y999647D01*
X1051827Y1000741D02*
X1052964D01*
X1054441Y1001834D02*
X1054327Y1001678D01*
X1054441Y1001522*
X1054555Y1001678*
X1054441Y1001834*
Y999959D02*
X1054327Y999803D01*
X1054441Y999647*
X1054555Y999803*
X1054441Y999959*
X1055577Y1002928D02*
Y1000584D01*
X1055691Y1000116*
X1055918Y999803*
X1056259Y999647*
X1056486*
X1056827Y999803*
X1057055Y1000116*
X1057168Y1000584*
Y1002928*
X1058191Y1002303D02*
X1058418Y1002459D01*
X1058759Y1002928*
Y999647*
X1041296Y917981D02*
X1044577Y917072D01*
X1041296Y917981D02*
X1044577Y918890D01*
X1043483Y917413D02*
Y918549D01*
X1042389Y920026D02*
X1042546Y919913D01*
X1042702Y920026*
X1042546Y920140*
X1042389Y920026*
X1044264D02*
X1044421Y919913D01*
X1044577Y920026*
X1044421Y920140*
X1044264Y920026*
X1042077Y922867D02*
X1041764Y922754D01*
X1041452Y922526*
X1041296Y922299*
Y921845*
X1041452Y921617*
X1041764Y921390*
X1042077Y921276*
X1042546Y921163*
X1043327*
X1043796Y921276*
X1044108Y921390*
X1044421Y921617*
X1044577Y921845*
Y922299*
X1044421Y922526*
X1044108Y922754*
X1043796Y922867*
X1041921Y923890D02*
X1041764Y924117D01*
X1041296Y924458*
X1044577*
X1041296Y927072D02*
X1044577Y925936D01*
X1041296Y925481D02*
Y927072D01*
X996908Y919877D02*
X995999Y916596D01*
X996908Y919877D02*
X997817Y916596D01*
X996340Y917690D02*
X997476D01*
X998953Y918784D02*
X998840Y918627D01*
X998953Y918471*
X999067Y918627*
X998953Y918784*
Y916909D02*
X998840Y916752D01*
X998953Y916596*
X999067Y916752*
X998953Y916909*
X1000090Y919877D02*
Y916596D01*
Y919877D02*
X1001112D01*
X1001453Y919721*
X1001567Y919565*
X1001681Y919252*
Y918940*
X1001567Y918627*
X1001453Y918471*
X1001112Y918315*
X1000090*
X1000885D02*
X1001681Y916596D01*
X1002817Y919096D02*
Y919252D01*
X1002931Y919565*
X1003044Y919721*
X1003272Y919877*
X1003726*
X1003953Y919721*
X1004067Y919565*
X1004181Y919252*
Y918940*
X1004067Y918627*
X1003840Y918159*
X1002703Y916596*
X1004294*
X997708Y925077D02*
X996799Y921796D01*
X997708Y925077D02*
X998617Y921796D01*
X997140Y922890D02*
X998276D01*
X999753Y923984D02*
X999640Y923827D01*
X999753Y923671*
X999867Y923827*
X999753Y923984*
Y922109D02*
X999640Y921952D01*
X999753Y921796*
X999867Y921952*
X999753Y922109*
X1000890Y925077D02*
Y921796D01*
Y925077D02*
X1001912D01*
X1002253Y924921*
X1002367Y924765*
X1002481Y924452*
Y924140*
X1002367Y923827*
X1002253Y923671*
X1001912Y923515*
X1000890*
X1001685D02*
X1002481Y921796D01*
X1003731Y925077D02*
X1004981D01*
X1004299Y923827*
X1004640*
X1004867Y923671*
X1004981Y923515*
X1005094Y923046*
Y922734*
X1004981Y922265*
X1004753Y921952*
X1004412Y921796*
X1004072*
X1003731Y921952*
X1003617Y922109*
X1003503Y922421*
X998051Y943877D02*
X997142Y940596D01*
X998051Y943877D02*
X998960Y940596D01*
X997483Y941690D02*
X998619D01*
X1000097Y942784D02*
X999983Y942627D01*
X1000097Y942471*
X1000210Y942627*
X1000097Y942784*
Y940909D02*
X999983Y940752D01*
X1000097Y940596*
X1000210Y940752*
X1000097Y940909*
X1001233Y943877D02*
Y940596D01*
Y943877D02*
X1002256D01*
X1002597Y943721*
X1002710Y943565*
X1002824Y943252*
Y942940*
X1002710Y942627*
X1002597Y942471*
X1002256Y942315*
X1001233*
X1002028D02*
X1002824Y940596D01*
X1004983Y943877D02*
X1003847Y941690D01*
X1005551*
X1004983Y943877D02*
Y940596D01*
X1041696Y961633D02*
X1044977Y960724D01*
X1041696Y961633D02*
X1044977Y962542D01*
X1043883Y961065D02*
Y962201D01*
X1042789Y963679D02*
X1042946Y963565D01*
X1043102Y963679*
X1042946Y963792*
X1042789Y963679*
X1044664D02*
X1044821Y963565D01*
X1044977Y963679*
X1044821Y963792*
X1044664Y963679*
X1041696Y964815D02*
X1044977D01*
X1041696D02*
Y965838D01*
X1041852Y966179*
X1042008Y966292*
X1042321Y966406*
X1042633*
X1042946Y966292*
X1043102Y966179*
X1043258Y965838*
Y964815*
Y965611D02*
X1044977Y966406D01*
X1041696Y969020D02*
X1044977Y967883D01*
X1041696Y967429D02*
Y969020D01*
X1043047Y958356D02*
X1042138Y955074D01*
X1043047Y958356D02*
X1043956Y955074D01*
X1042479Y956168D02*
X1043615D01*
X1045093Y957262D02*
X1044979Y957106D01*
X1045093Y956949*
X1045206Y957106*
X1045093Y957262*
Y955387D02*
X1044979Y955231D01*
X1045093Y955074*
X1045206Y955231*
X1045093Y955387*
X1046229Y958356D02*
Y955074D01*
Y958356D02*
X1047252D01*
X1047593Y958199*
X1047706Y958043*
X1047820Y957731*
Y957418*
X1047706Y957106*
X1047593Y956949*
X1047252Y956793*
X1046229*
X1047024D02*
X1047820Y955074D01*
X1049411Y958356D02*
X1049070Y958199D01*
X1048956Y957887*
Y957574*
X1049070Y957262*
X1049297Y957106*
X1049752Y956949*
X1050093Y956793*
X1050320Y956481*
X1050433Y956168*
Y955699*
X1050320Y955387*
X1050206Y955231*
X1049865Y955074*
X1049411*
X1049070Y955231*
X1048956Y955387*
X1048843Y955699*
Y956168*
X1048956Y956481*
X1049183Y956793*
X1049524Y956949*
X1049979Y957106*
X1050206Y957262*
X1050320Y957574*
Y957887*
X1050206Y958199*
X1049865Y958356*
X1049411*
X1050965Y932677D02*
X1050056Y929396D01*
X1050965Y932677D02*
X1051874Y929396D01*
X1050397Y930490D02*
X1051533D01*
X1053010Y931584D02*
X1052897Y931427D01*
X1053010Y931271*
X1053124Y931427*
X1053010Y931584*
Y929709D02*
X1052897Y929552D01*
X1053010Y929396*
X1053124Y929552*
X1053010Y929709*
X1054147Y932677D02*
Y929396D01*
Y932677D02*
X1055169D01*
X1055510Y932521*
X1055624Y932365*
X1055737Y932052*
Y931740*
X1055624Y931427*
X1055510Y931271*
X1055169Y931115*
X1054147*
X1054942D02*
X1055737Y929396D01*
X1058237Y931584D02*
X1058124Y931115D01*
X1057897Y930802*
X1057556Y930646*
X1057442*
X1057101Y930802*
X1056874Y931115*
X1056760Y931584*
Y931740*
X1056874Y932209*
X1057101Y932521*
X1057442Y932677*
X1057556*
X1057897Y932521*
X1058124Y932209*
X1058237Y931584*
Y930802*
X1058124Y930021*
X1057897Y929552*
X1057556Y929396*
X1057328*
X1056987Y929552*
X1056874Y929865*
X1050896Y963233D02*
X1054177Y962324D01*
X1050896Y963233D02*
X1054177Y964142D01*
X1053083Y962665D02*
Y963801D01*
X1051989Y965279D02*
X1052146Y965165D01*
X1052302Y965279*
X1052146Y965392*
X1051989Y965279*
X1053864D02*
X1054021Y965165D01*
X1054177Y965279*
X1054021Y965392*
X1053864Y965279*
X1051677Y968120D02*
X1051364Y968006D01*
X1051052Y967779*
X1050896Y967551*
Y967097*
X1051052Y966870*
X1051364Y966642*
X1051677Y966529*
X1052146Y966415*
X1052927*
X1053396Y966529*
X1053708Y966642*
X1054021Y966870*
X1054177Y967097*
Y967551*
X1054021Y967779*
X1053708Y968006*
X1053396Y968120*
X1051989Y970620D02*
X1052458Y970506D01*
X1052771Y970279*
X1052927Y969938*
Y969824*
X1052771Y969483*
X1052458Y969256*
X1051989Y969142*
X1051833*
X1051364Y969256*
X1051052Y969483*
X1050896Y969824*
Y969938*
X1051052Y970279*
X1051364Y970506*
X1051989Y970620*
X1052771*
X1053552Y970506*
X1054021Y970279*
X1054177Y969938*
Y969711*
X1054021Y969370*
X1053708Y969256*
X1050056Y938277D02*
X1049147Y934996D01*
X1050056Y938277D02*
X1050965Y934996D01*
X1049487Y936090D02*
X1050624D01*
X1052101Y937184D02*
X1051987Y937027D01*
X1052101Y936871*
X1052215Y937027*
X1052101Y937184*
Y935309D02*
X1051987Y935152D01*
X1052101Y934996*
X1052215Y935152*
X1052101Y935309*
X1054942Y937496D02*
X1054828Y937809D01*
X1054601Y938121*
X1054374Y938277*
X1053919*
X1053692Y938121*
X1053465Y937809*
X1053351Y937496*
X1053237Y937027*
Y936246*
X1053351Y935777*
X1053465Y935465*
X1053692Y935152*
X1053919Y934996*
X1054374*
X1054601Y935152*
X1054828Y935465*
X1054942Y935777*
X1055965Y937652D02*
X1056192Y937809D01*
X1056533Y938277*
Y934996*
X1058237Y938277D02*
X1057897Y938121D01*
X1057669Y937652*
X1057556Y936871*
Y936402*
X1057669Y935621*
X1057897Y935152*
X1058237Y934996*
X1058465*
X1058806Y935152*
X1059033Y935621*
X1059147Y936402*
Y936871*
X1059033Y937652*
X1058806Y938121*
X1058465Y938277*
X1058237*
X996832Y910628D02*
X995923Y907347D01*
X996832Y910628D02*
X997741Y907347D01*
X996264Y908441D02*
X997400D01*
X998877Y909534D02*
X998764Y909378D01*
X998877Y909222*
X998991Y909378*
X998877Y909534*
Y907659D02*
X998764Y907503D01*
X998877Y907347*
X998991Y907503*
X998877Y907659*
X1001718Y909847D02*
X1001605Y910159D01*
X1001377Y910472*
X1001150Y910628*
X1000695*
X1000468Y910472*
X1000241Y910159*
X1000127Y909847*
X1000014Y909378*
Y908597*
X1000127Y908128*
X1000241Y907816*
X1000468Y907503*
X1000695Y907347*
X1001150*
X1001377Y907503*
X1001605Y907816*
X1001718Y908128*
X1002741Y910003D02*
X1002968Y910159D01*
X1003309Y910628*
Y907347*
X1004445Y909847D02*
Y910003D01*
X1004559Y910316*
X1004673Y910472*
X1004900Y910628*
X1005355*
X1005582Y910472*
X1005695Y910316*
X1005809Y910003*
Y909691*
X1005695Y909378*
X1005468Y908909*
X1004332Y907347*
X1005923*
X1038896Y974376D02*
X1042177Y973467D01*
X1038896Y974376D02*
X1042177Y975286D01*
X1041083Y973808D02*
Y974945D01*
X1039989Y976422D02*
X1040146Y976308D01*
X1040302Y976422*
X1040146Y976536*
X1039989Y976422*
X1041864D02*
X1042021Y976308D01*
X1042177Y976422*
X1042021Y976536*
X1041864Y976422*
X1038896Y977558D02*
X1042177D01*
X1038896D02*
Y978581D01*
X1039052Y978922*
X1039208Y979036*
X1039521Y979149*
X1039833*
X1040146Y979036*
X1040302Y978922*
X1040458Y978581*
Y977558*
Y978354D02*
X1042177Y979149D01*
X1038896Y981649D02*
Y980513D01*
X1040302Y980399*
X1040146Y980513*
X1039989Y980854*
Y981195*
X1040146Y981536*
X1040458Y981763*
X1040927Y981876*
X1041239Y981763*
X1041708Y981649*
X1042021Y981422*
X1042177Y981081*
Y980740*
X1042021Y980399*
X1041864Y980286*
X1041552Y980172*
X1018565Y990277D02*
X1017656Y986996D01*
X1018565Y990277D02*
X1019474Y986996D01*
X1017997Y988090D02*
X1019133D01*
X1020610Y989184D02*
X1020497Y989027D01*
X1020610Y988871*
X1020724Y989027*
X1020610Y989184*
Y987309D02*
X1020497Y987152D01*
X1020610Y986996*
X1020724Y987152*
X1020610Y987309*
X1021747Y990277D02*
Y986996D01*
Y990277D02*
X1022769D01*
X1023110Y990121*
X1023224Y989965*
X1023337Y989652*
Y989340*
X1023224Y989027*
X1023110Y988871*
X1022769Y988715*
X1021747*
X1022542D02*
X1023337Y986996D01*
X1025724Y989809D02*
X1025610Y990121D01*
X1025269Y990277*
X1025042*
X1024701Y990121*
X1024474Y989652*
X1024360Y988871*
Y988090*
X1024474Y987465*
X1024701Y987152*
X1025042Y986996*
X1025156*
X1025497Y987152*
X1025724Y987465*
X1025837Y987934*
Y988090*
X1025724Y988559*
X1025497Y988871*
X1025156Y989027*
X1025042*
X1024701Y988871*
X1024474Y988559*
X1024360Y988090*
X995312Y970677D02*
X994403Y967396D01*
X995312Y970677D02*
X996222Y967396D01*
X994744Y968490D02*
X995881D01*
X997358Y969584D02*
X997244Y969427D01*
X997358Y969271*
X997472Y969427*
X997358Y969584*
Y967709D02*
X997244Y967552D01*
X997358Y967396*
X997472Y967552*
X997358Y967709*
X998494Y970677D02*
Y967396D01*
Y970677D02*
X999517D01*
X999858Y970521*
X999972Y970365*
X1000085Y970052*
Y969740*
X999972Y969427*
X999858Y969271*
X999517Y969115*
X998494*
X999290D02*
X1000085Y967396D01*
X1001108Y970052D02*
X1001335Y970209D01*
X1001676Y970677*
Y967396*
X1002926Y970677D02*
X1004176D01*
X1003494Y969427*
X1003835*
X1004062Y969271*
X1004176Y969115*
X1004290Y968646*
Y968334*
X1004176Y967865*
X1003949Y967552*
X1003608Y967396*
X1003267*
X1002926Y967552*
X1002812Y967709*
X1002699Y968021*
X980896Y948949D02*
X984177Y948040D01*
X980896Y948949D02*
X984177Y949858D01*
X983083Y948381D02*
Y949517D01*
X981989Y950995D02*
X982146Y950881D01*
X982302Y950995*
X982146Y951108*
X981989Y950995*
X983864D02*
X984021Y950881D01*
X984177Y950995*
X984021Y951108*
X983864Y950995*
X980896Y952131D02*
X984177D01*
X980896D02*
Y953154D01*
X981052Y953495*
X981208Y953608*
X981521Y953722*
X981833*
X982146Y953608*
X982302Y953495*
X982458Y953154*
Y952131*
Y952926D02*
X984177Y953722D01*
X981521Y954745D02*
X981364Y954972D01*
X980896Y955313*
X984177*
X981521Y956336D02*
X981364Y956563D01*
X980896Y956904*
X984177*
X980896Y962438D02*
X984177Y961529D01*
X980896Y962438D02*
X984177Y963347D01*
X983083Y961870D02*
Y963006D01*
X981989Y964483D02*
X982146Y964370D01*
X982302Y964483*
X982146Y964597*
X981989Y964483*
X983864D02*
X984021Y964370D01*
X984177Y964483*
X984021Y964597*
X983864Y964483*
X980896Y965620D02*
X984177D01*
X980896D02*
Y966642D01*
X981052Y966983*
X981208Y967097*
X981521Y967211*
X981833*
X982146Y967097*
X982302Y966983*
X982458Y966642*
Y965620*
Y966415D02*
X984177Y967211D01*
X981521Y968233D02*
X981364Y968461D01*
X980896Y968801*
X984177*
X981677Y969938D02*
X981521D01*
X981208Y970051*
X981052Y970165*
X980896Y970392*
Y970847*
X981052Y971074*
X981208Y971188*
X981521Y971301*
X981833*
X982146Y971188*
X982614Y970961*
X984177Y969824*
Y971415*
X995656Y949077D02*
X994747Y945796D01*
X995656Y949077D02*
X996565Y945796D01*
X995087Y946890D02*
X996224D01*
X997701Y947984D02*
X997587Y947827D01*
X997701Y947671*
X997815Y947827*
X997701Y947984*
Y946109D02*
X997587Y945952D01*
X997701Y945796*
X997815Y945952*
X997701Y946109*
X998837Y949077D02*
Y945796D01*
Y949077D02*
X999860D01*
X1000201Y948921*
X1000315Y948765*
X1000428Y948452*
Y948140*
X1000315Y947827*
X1000201Y947671*
X999860Y947515*
X998837*
X999633D02*
X1000428Y945796D01*
X1001451Y948452D02*
X1001678Y948609D01*
X1002019Y949077*
Y945796*
X1004519Y949077D02*
X1003383D01*
X1003269Y947671*
X1003383Y947827*
X1003724Y947984*
X1004065*
X1004406Y947827*
X1004633Y947515*
X1004747Y947046*
X1004633Y946734*
X1004519Y946265*
X1004292Y945952*
X1003951Y945796*
X1003610*
X1003269Y945952*
X1003156Y946109*
X1003042Y946421*
X981933Y932230D02*
X981024Y928949D01*
X981933Y932230D02*
X982842Y928949D01*
X981365Y930043D02*
X982501D01*
X983978Y931137D02*
X983865Y930980D01*
X983978Y930824*
X984092Y930980*
X983978Y931137*
Y929262D02*
X983865Y929105D01*
X983978Y928949*
X984092Y929105*
X983978Y929262*
X986819Y931449D02*
X986706Y931762D01*
X986478Y932074*
X986251Y932230*
X985797*
X985569Y932074*
X985342Y931762*
X985228Y931449*
X985115Y930980*
Y930199*
X985228Y929730*
X985342Y929418*
X985569Y929105*
X985797Y928949*
X986251*
X986478Y929105*
X986706Y929418*
X986819Y929730*
X989319Y932230D02*
X988183D01*
X988069Y930824*
X988183Y930980*
X988524Y931137*
X988865*
X989206Y930980*
X989433Y930668*
X989547Y930199*
X989433Y929887*
X989319Y929418*
X989092Y929105*
X988751Y928949*
X988410*
X988069Y929105*
X987956Y929262*
X987842Y929574*
X1027696Y986433D02*
X1030977Y985524D01*
X1027696Y986433D02*
X1030977Y987342D01*
X1029883Y985865D02*
Y987001D01*
X1028789Y988479D02*
X1028946Y988365D01*
X1029102Y988479*
X1028946Y988592*
X1028789Y988479*
X1030664D02*
X1030821Y988365D01*
X1030977Y988479*
X1030821Y988592*
X1030664Y988479*
X1028477Y991320D02*
X1028164Y991206D01*
X1027852Y990979*
X1027696Y990751*
Y990297*
X1027852Y990070*
X1028164Y989842*
X1028477Y989729*
X1028946Y989615*
X1029727*
X1030196Y989729*
X1030508Y989842*
X1030821Y990070*
X1030977Y990297*
Y990751*
X1030821Y990979*
X1030508Y991206*
X1030196Y991320*
X1028164Y993706D02*
X1027852Y993592D01*
X1027696Y993251*
Y993024*
X1027852Y992683*
X1028321Y992456*
X1029102Y992342*
X1029883*
X1030508Y992456*
X1030821Y992683*
X1030977Y993024*
Y993138*
X1030821Y993479*
X1030508Y993706*
X1030039Y993820*
X1029883*
X1029414Y993706*
X1029102Y993479*
X1028946Y993138*
Y993024*
X1029102Y992683*
X1029414Y992456*
X1029883Y992342*
X1007390Y979156D02*
X1006481Y975874D01*
X1007390Y979156D02*
X1008299Y975874D01*
X1006822Y976968D02*
X1007958D01*
X1009436Y978062D02*
X1009322Y977906D01*
X1009436Y977749*
X1009549Y977906*
X1009436Y978062*
Y976187D02*
X1009322Y976031D01*
X1009436Y975874*
X1009549Y976031*
X1009436Y976187*
X1012277Y978374D02*
X1012163Y978687D01*
X1011936Y978999*
X1011708Y979156*
X1011254*
X1011027Y978999*
X1010799Y978687*
X1010686Y978374*
X1010572Y977906*
Y977124*
X1010686Y976656*
X1010799Y976343*
X1011027Y976031*
X1011254Y975874*
X1011708*
X1011936Y976031*
X1012163Y976343*
X1012277Y976656*
X1013868Y979156D02*
X1013527Y978999D01*
X1013413Y978687*
Y978374*
X1013527Y978062*
X1013754Y977906*
X1014208Y977749*
X1014549Y977593*
X1014777Y977281*
X1014890Y976968*
Y976499*
X1014777Y976187*
X1014663Y976031*
X1014322Y975874*
X1013868*
X1013527Y976031*
X1013413Y976187*
X1013299Y976499*
Y976968*
X1013413Y977281*
X1013640Y977593*
X1013981Y977749*
X1014436Y977906*
X1014663Y978062*
X1014777Y978374*
Y978687*
X1014663Y978999*
X1014322Y979156*
X1013868*
X977651Y944677D02*
X976742Y941396D01*
X977651Y944677D02*
X978560Y941396D01*
X977083Y942490D02*
X978219D01*
X979697Y943584D02*
X979583Y943427D01*
X979697Y943271*
X979810Y943427*
X979697Y943584*
Y941709D02*
X979583Y941552D01*
X979697Y941396*
X979810Y941552*
X979697Y941709*
X982537Y943896D02*
X982424Y944209D01*
X982197Y944521*
X981969Y944677*
X981515*
X981287Y944521*
X981060Y944209*
X980947Y943896*
X980833Y943427*
Y942646*
X980947Y942177*
X981060Y941865*
X981287Y941552*
X981515Y941396*
X981969*
X982197Y941552*
X982424Y941865*
X982537Y942177*
X985151Y944677D02*
X984015Y941396D01*
X983560Y944677D02*
X985151D01*
X1056672Y1004970D02*
X1059953Y1004061D01*
X1056672Y1004970D02*
X1059953Y1005880D01*
X1058859Y1004402D02*
Y1005539D01*
X1057766Y1007016D02*
X1057922Y1006902D01*
X1058078Y1007016*
X1057922Y1007130*
X1057766Y1007016*
X1059641D02*
X1059797Y1006902D01*
X1059953Y1007016*
X1059797Y1007130*
X1059641Y1007016*
X1057453Y1009857D02*
X1057141Y1009743D01*
X1056828Y1009516*
X1056672Y1009289*
Y1008834*
X1056828Y1008607*
X1057141Y1008380*
X1057453Y1008266*
X1057922Y1008152*
X1058703*
X1059172Y1008266*
X1059484Y1008380*
X1059797Y1008607*
X1059953Y1008834*
Y1009289*
X1059797Y1009516*
X1059484Y1009743*
X1059172Y1009857*
X1056672Y1012016D02*
X1058859Y1010880D01*
Y1012584*
X1056672Y1012016D02*
X1059953D01*
X1032719Y992409D02*
X1036000Y991500D01*
X1032719Y992409D02*
X1036000Y993318D01*
X1034906Y991841D02*
Y992977D01*
X1033812Y994455D02*
X1033969Y994341D01*
X1034125Y994455*
X1033969Y994568*
X1033812Y994455*
X1035687D02*
X1035844Y994341D01*
X1036000Y994455*
X1035844Y994568*
X1035687Y994455*
X1033500Y997295D02*
X1033187Y997182D01*
X1033187D02*
X1032875Y996955D01*
X1032719Y996727*
Y996273*
X1032875Y996045*
X1033187Y995818*
X1033187D02*
X1033500Y995705D01*
X1033969Y995591*
X1034750*
X1035219Y995705*
X1035531Y995818*
X1035844Y996045*
X1036000Y996273*
Y996727*
X1035844Y996955*
X1035531Y997182*
X1035219Y997295*
X1033500Y998432D02*
X1033344D01*
X1033031Y998545*
X1032875Y998659*
X1032719Y998886*
Y999341*
X1032875Y999568*
X1033031Y999682*
X1033344Y999795*
X1033656*
X1033969Y999682*
X1034437Y999455*
X1034437D02*
X1036000Y998318D01*
Y999909*
X1033409Y1022781D02*
X1032500Y1019500D01*
X1033409Y1022781D02*
X1034318Y1019500D01*
X1032841Y1020594D02*
X1033977D01*
X1035455Y1021688D02*
X1035341Y1021531D01*
X1035455Y1021375*
X1035568Y1021531*
X1035455Y1021688*
Y1019813D02*
X1035341Y1019656D01*
X1035455Y1019500*
X1035568Y1019656*
X1035455Y1019813*
X1036591Y1022781D02*
Y1019500D01*
Y1022781D02*
X1037386D01*
X1037727Y1022625*
X1037955Y1022313*
X1037955D02*
X1038068Y1022000D01*
X1038182Y1021531*
Y1020750*
X1038068Y1020281*
X1037955Y1019969*
X1037727Y1019656*
X1037386Y1019500*
X1036591*
X1039318Y1022000D02*
Y1022156D01*
X1039432Y1022469*
X1039545Y1022625*
X1039773Y1022781*
X1040227*
X1040455Y1022625*
X1040568Y1022469*
X1040682Y1022156*
Y1021844*
X1040568Y1021531*
X1040341Y1021063*
X1040341D02*
X1039205Y1019500D01*
X1040795*
X1053133Y927430D02*
X1052224Y924149D01*
X1053133Y927430D02*
X1054042Y924149D01*
X1052565Y925243D02*
X1053701D01*
X1055178Y926337D02*
X1055065Y926180D01*
X1055178Y926024*
X1055292Y926180*
X1055178Y926337*
Y924462D02*
X1055065Y924305D01*
X1055178Y924149*
X1055292Y924305*
X1055178Y924462*
X1057110Y927430D02*
Y924149D01*
X1056315Y927430D02*
X1057906D01*
X1058928D02*
Y924149D01*
Y927430D02*
X1059951D01*
X1060292Y927274*
X1060406Y927118*
X1060519Y926805*
Y926337*
X1060406Y926024*
X1060292Y925868*
X1059951Y925712*
X1058928*
X1061542Y926805D02*
X1061769Y926962D01*
X1062110Y927430*
Y924149*
X1050562Y997477D02*
X1049653Y994196D01*
X1050562Y997477D02*
X1051472Y994196D01*
X1049994Y995290D02*
X1051131D01*
X1052608Y996384D02*
X1052494Y996227D01*
X1052608Y996071*
X1052722Y996227*
X1052608Y996384*
Y994509D02*
X1052494Y994352D01*
X1052608Y994196*
X1052722Y994352*
X1052608Y994509*
X1055449Y996696D02*
X1055335Y997009D01*
X1055108Y997321*
X1054881Y997477*
X1054426*
X1054199Y997321*
X1053972Y997009*
X1053858Y996696*
X1053744Y996227*
Y995446*
X1053858Y994977*
X1053972Y994665*
X1054199Y994352*
X1054426Y994196*
X1054881*
X1055108Y994352*
X1055335Y994665*
X1055449Y994977*
X1056472Y996852D02*
X1056699Y997009D01*
X1057040Y997477*
Y994196*
X1017696Y1020545D02*
X1020977Y1019636D01*
X1017696Y1020545D02*
X1020977Y1021454D01*
X1019883Y1019976D02*
Y1021113D01*
X1018789Y1022590D02*
X1018946Y1022476D01*
X1019102Y1022590*
X1018946Y1022704*
X1018789Y1022590*
X1020664D02*
X1020821Y1022476D01*
X1020977Y1022590*
X1020821Y1022704*
X1020664Y1022590*
X1017696Y1023726D02*
X1020977D01*
X1017696D02*
Y1024522D01*
X1017852Y1024863*
X1018164Y1025090*
X1018477Y1025204*
X1018946Y1025317*
X1019727*
X1020196Y1025204*
X1020508Y1025090*
X1020821Y1024863*
X1020977Y1024522*
Y1023726*
X1018321Y1026340D02*
X1018164Y1026567D01*
X1017696Y1026908*
X1020977*
X1052333Y922130D02*
X1051424Y918849D01*
X1052333Y922130D02*
X1053242Y918849D01*
X1051765Y919943D02*
X1052901D01*
X1054378Y921037D02*
X1054265Y920880D01*
X1054378Y920724*
X1054492Y920880*
X1054378Y921037*
Y919162D02*
X1054265Y919005D01*
X1054378Y918849*
X1054492Y919005*
X1054378Y919162*
X1056310Y922130D02*
Y918849D01*
X1055515Y922130D02*
X1057106D01*
X1058128D02*
Y918849D01*
Y922130D02*
X1059151D01*
X1059492Y921974*
X1059606Y921818*
X1059719Y921505*
Y921037*
X1059606Y920724*
X1059492Y920568*
X1059151Y920412*
X1058128*
X1060856Y921349D02*
Y921505D01*
X1060969Y921818*
X1061083Y921974*
X1061310Y922130*
X1061765*
X1061992Y921974*
X1062106Y921818*
X1062219Y921505*
Y921193*
X1062106Y920880*
X1061878Y920412*
X1060742Y918849*
X1062333*
X1175890Y991603D02*
X1179172D01*
X1175890D02*
Y992626D01*
X1176047Y992967*
X1176203Y993081*
X1176515Y993194*
X1176828*
X1177140Y993081*
X1177297Y992967*
X1177453Y992626*
Y991603*
Y992399D02*
X1179172Y993194D01*
X1175890Y995808D02*
X1179172Y994672D01*
X1175890Y994217D02*
Y995808D01*
Y997512D02*
X1176047Y997172D01*
X1176515Y996944*
X1177297Y996831*
X1177765*
X1178547Y996944*
X1179015Y997172*
X1179172Y997512*
Y997740*
X1179015Y998081*
X1178547Y998308*
X1177765Y998422*
X1177297*
X1176515Y998308*
X1176047Y998081*
X1175890Y997740*
Y997512*
X1190540Y997903D02*
X1193822D01*
X1190540D02*
Y998926D01*
X1190697Y999267*
X1190853Y999381*
X1191165Y999494*
X1191478*
X1191790Y999381*
X1191947Y999267*
X1192103Y998926*
Y997903*
Y998699D02*
X1193822Y999494D01*
X1190540Y1002108D02*
X1193822Y1000972D01*
X1190540Y1000517D02*
Y1002108D01*
X1191322Y1003244D02*
X1191165D01*
X1190853Y1003358*
X1190697Y1003472*
X1190540Y1003699*
Y1004153*
X1190697Y1004381*
X1190853Y1004494*
X1191165Y1004608*
X1191478*
X1191790Y1004494*
X1192259Y1004267*
X1193822Y1003131*
Y1004722*
X1198682Y1027368D02*
Y1024087D01*
Y1027368D02*
X1199705D01*
X1200046Y1027212*
X1200159Y1027055*
X1200273Y1026743*
Y1026430*
X1200159Y1026118*
X1200046Y1025962*
X1199705Y1025805*
X1198682*
X1199478D02*
X1200273Y1024087D01*
X1202887Y1027368D02*
X1201750Y1024087D01*
X1201296Y1027368D02*
X1202887D01*
X1204137D02*
X1205387D01*
X1204705Y1026118*
X1205046*
X1205273Y1025962*
X1205387Y1025805*
X1205500Y1025337*
Y1025024*
X1205387Y1024555*
X1205159Y1024243*
X1204818Y1024087*
X1204478*
X1204137Y1024243*
X1204023Y1024399*
X1203909Y1024712*
X1172140Y883776D02*
X1175422D01*
X1172140D02*
Y884799D01*
X1172297Y885140*
X1172453Y885253*
X1172765Y885367*
X1173078*
X1173390Y885253*
X1173547Y885140*
X1173703Y884799*
Y883776*
Y884572D02*
X1175422Y885367D01*
X1172765Y886390D02*
X1172609Y886617D01*
X1172140Y886958*
X1175422*
X1172765Y887981D02*
X1172609Y888208D01*
X1172140Y888549*
X1175422*
X1053601Y957477D02*
X1052692Y954196D01*
X1053601Y957477D02*
X1054510Y954196D01*
X1053033Y955290D02*
X1054169D01*
X1055647Y956384D02*
X1055533Y956227D01*
X1055647Y956071*
X1055760Y956227*
X1055647Y956384*
Y954509D02*
X1055533Y954352D01*
X1055647Y954196*
X1055760Y954352*
X1055647Y954509*
X1058487Y956696D02*
X1058374Y957009D01*
X1058147Y957321*
X1057919Y957477*
X1057465*
X1057237Y957321*
X1057010Y957009*
X1056897Y956696*
X1056783Y956227*
Y955446*
X1056897Y954977*
X1057010Y954665*
X1057237Y954352*
X1057465Y954196*
X1057919*
X1058147Y954352*
X1058374Y954665*
X1058487Y954977*
X1059624Y956696D02*
Y956852D01*
X1059737Y957165*
X1059851Y957321*
X1060078Y957477*
X1060533*
X1060760Y957321*
X1060874Y957165*
X1060987Y956852*
Y956540*
X1060874Y956227*
X1060647Y955759*
X1059510Y954196*
X1061101*
X1063601Y956384D02*
X1063487Y955915D01*
X1063260Y955602*
X1062919Y955446*
X1062806*
X1062465Y955602*
X1062237Y955915*
X1062124Y956384*
Y956540*
X1062237Y957009*
X1062465Y957321*
X1062806Y957477*
X1062919*
X1063260Y957321*
X1063487Y957009*
X1063601Y956384*
Y955602*
X1063487Y954821*
X1063260Y954352*
X1062919Y954196*
X1062692*
X1062351Y954352*
X1062237Y954665*
X1049944Y981077D02*
X1049035Y977796D01*
X1049944Y981077D02*
X1050853Y977796D01*
X1049376Y978890D02*
X1050512D01*
X1051990Y979984D02*
X1051876Y979827D01*
X1051990Y979671*
X1052103Y979827*
X1051990Y979984*
Y978109D02*
X1051876Y977952D01*
X1051990Y977796*
X1052103Y977952*
X1051990Y978109*
X1054831Y980296D02*
X1054717Y980609D01*
X1054490Y980921*
X1054262Y981077*
X1053808*
X1053581Y980921*
X1053353Y980609*
X1053240Y980296*
X1053126Y979827*
Y979046*
X1053240Y978577*
X1053353Y978265*
X1053581Y977952*
X1053808Y977796*
X1054262*
X1054490Y977952*
X1054717Y978265*
X1054831Y978577*
X1055967Y980296D02*
Y980452D01*
X1056081Y980765*
X1056194Y980921*
X1056422Y981077*
X1056876*
X1057103Y980921*
X1057217Y980765*
X1057331Y980452*
Y980140*
X1057217Y979827*
X1056990Y979359*
X1055853Y977796*
X1057444*
X1060058Y981077D02*
X1058922Y977796D01*
X1058467Y981077D02*
X1060058D01*
X1089944Y980677D02*
X1089035Y977396D01*
X1089944Y980677D02*
X1090853Y977396D01*
X1089376Y978490D02*
X1090512D01*
X1091990Y979584D02*
X1091876Y979427D01*
X1091990Y979271*
X1092103Y979427*
X1091990Y979584*
Y977709D02*
X1091876Y977552D01*
X1091990Y977396*
X1092103Y977552*
X1091990Y977709*
X1094831Y979896D02*
X1094717Y980209D01*
X1094490Y980521*
X1094262Y980677*
X1093808*
X1093581Y980521*
X1093353Y980209*
X1093240Y979896*
X1093126Y979427*
Y978646*
X1093240Y978177*
X1093353Y977865*
X1093581Y977552*
X1093808Y977396*
X1094262*
X1094490Y977552*
X1094717Y977865*
X1094831Y978177*
X1095967Y979896D02*
Y980052D01*
X1096081Y980365*
X1096194Y980521*
X1096422Y980677*
X1096876*
X1097103Y980521*
X1097217Y980365*
X1097331Y980052*
Y979740*
X1097217Y979427*
X1096990Y978959*
X1095853Y977396*
X1097444*
X1099035Y980677D02*
X1098694Y980521D01*
X1098581Y980209*
Y979896*
X1098694Y979584*
X1098922Y979427*
X1099376Y979271*
X1099717Y979115*
X1099944Y978802*
X1100058Y978490*
Y978021*
X1099944Y977709*
X1099831Y977552*
X1099490Y977396*
X1099035*
X1098694Y977552*
X1098581Y977709*
X1098467Y978021*
Y978490*
X1098581Y978802*
X1098808Y979115*
X1099149Y979271*
X1099603Y979427*
X1099831Y979584*
X1099944Y979896*
Y980209*
X1099831Y980521*
X1099490Y980677*
X1099035*
X1112735Y977879D02*
X1111825Y974598D01*
X1112735Y977879D02*
X1113644Y974598D01*
X1112166Y975692D02*
X1113303D01*
X1114780Y976786D02*
X1114666Y976629D01*
X1114780Y976473*
X1114894Y976629*
X1114780Y976786*
Y974911D02*
X1114666Y974754D01*
X1114780Y974598*
X1114894Y974754*
X1114780Y974911*
X1115916Y977879D02*
Y975536D01*
X1116030Y975067*
X1116257Y974754*
X1116598Y974598*
X1116825*
X1117166Y974754*
X1117394Y975067*
X1117507Y975536*
Y977879*
X1120007Y976786D02*
X1119894Y976317D01*
X1119666Y976004*
X1119325Y975848*
X1119212*
X1118871Y976004*
X1118644Y976317*
X1118530Y976786*
Y976942*
X1118644Y977411*
X1118871Y977723*
X1119212Y977879*
X1119325*
X1119666Y977723*
X1119894Y977411*
X1120007Y976786*
Y976004*
X1119894Y975223*
X1119666Y974754*
X1119325Y974598*
X1119098*
X1118757Y974754*
X1118644Y975067*
X1142733Y989030D02*
X1141824Y985749D01*
X1142733Y989030D02*
X1143642Y985749D01*
X1142165Y986843D02*
X1143301D01*
X1144778Y987937D02*
X1144665Y987780D01*
X1144778Y987624*
X1144892Y987780*
X1144778Y987937*
Y986062D02*
X1144665Y985905D01*
X1144778Y985749*
X1144892Y985905*
X1144778Y986062*
X1147506Y988562D02*
X1147278Y988874D01*
X1146937Y989030*
X1146483*
X1146142Y988874*
X1145915Y988562*
Y988249*
X1146028Y987937*
X1146142Y987780*
X1146369Y987624*
X1147051Y987312*
X1147278Y987155*
X1147392Y986999*
X1147506Y986687*
Y986218*
X1147278Y985905*
X1146937Y985749*
X1146483*
X1146142Y985905*
X1145915Y986218*
X1148528Y989030D02*
X1149097Y985749D01*
X1149665Y989030D02*
X1149097Y985749D01*
X1149665Y989030D02*
X1150233Y985749D01*
X1150801Y989030D02*
X1150233Y985749D01*
X1151824Y988405D02*
X1152051Y988562D01*
X1152392Y989030*
Y985749*
X1145368Y983321D02*
Y980040D01*
Y983321D02*
X1146391D01*
X1146732Y983165*
X1146846Y983009*
X1146959Y982696*
Y982384*
X1146846Y982071*
X1146732Y981915*
X1146391Y981759*
X1145368*
X1146164D02*
X1146959Y980040D01*
X1149346Y982852D02*
X1149232Y983165D01*
X1148891Y983321*
X1148664*
X1148323Y983165*
X1148096Y982696*
X1147982Y981915*
Y981134*
X1148096Y980509*
X1148323Y980196*
X1148664Y980040*
X1148778*
X1149118Y980196*
X1149346Y980509*
X1149459Y980977*
Y981134*
X1149346Y981602*
X1149118Y981915*
X1148778Y982071*
X1148664*
X1148323Y981915*
X1148096Y981602*
X1147982Y981134*
X1152073Y983321D02*
X1150937Y980040D01*
X1150482Y983321D02*
X1152073D01*
X1302098Y933684D02*
Y930403D01*
Y933684D02*
X1303120D01*
X1303461Y933528*
X1303575Y933372*
X1303688Y933059*
Y932747*
X1303575Y932434*
X1303461Y932278*
X1303120Y932122*
X1302098*
X1302893D02*
X1303688Y930403D01*
X1306075Y933216D02*
X1305961Y933528D01*
X1305620Y933684*
X1305393*
X1305052Y933528*
X1304825Y933059*
X1304711Y932278*
Y931497*
X1304825Y930872*
X1305052Y930559*
X1305393Y930403*
X1305507*
X1305848Y930559*
X1306075Y930872*
X1306188Y931341*
Y931497*
X1306075Y931966*
X1305848Y932278*
X1305507Y932434*
X1305393*
X1305052Y932278*
X1304825Y931966*
X1304711Y931497*
X1307893Y933684D02*
X1307552Y933528D01*
X1307325Y933059*
X1307211Y932278*
Y931809*
X1307325Y931028*
X1307552Y930559*
X1307893Y930403*
X1308120*
X1308461Y930559*
X1308688Y931028*
X1308802Y931809*
Y932278*
X1308688Y933059*
X1308461Y933528*
X1308120Y933684*
X1307893*
X1209587Y967040D02*
X1212868D01*
Y968403*
X1209587Y970562D02*
X1211775Y969426D01*
Y971131*
X1209587Y970562D02*
X1212868D01*
X1180890Y991717D02*
X1184172D01*
X1180890D02*
Y992740D01*
X1181047Y993081*
X1181203Y993194*
X1181515Y993308*
X1181828*
X1182140Y993194*
X1182297Y993081*
X1182453Y992740*
Y991717*
Y992512D02*
X1184172Y993308D01*
X1181359Y995694D02*
X1181047Y995581D01*
X1180890Y995240*
Y995012*
X1181047Y994672*
X1181515Y994444*
X1182297Y994331*
X1183078*
X1183703Y994444*
X1184015Y994672*
X1184172Y995012*
Y995126*
X1184015Y995467*
X1183703Y995694*
X1183234Y995808*
X1183078*
X1182609Y995694*
X1182297Y995467*
X1182140Y995126*
Y995012*
X1182297Y994672*
X1182609Y994444*
X1183078Y994331*
X1181984Y998308D02*
X1182453Y998194D01*
X1182765Y997967*
X1182922Y997626*
Y997512*
X1182765Y997172*
X1182453Y996944*
X1181984Y996831*
X1181828*
X1181359Y996944*
X1181047Y997172*
X1180890Y997512*
Y997626*
X1181047Y997967*
X1181359Y998194*
X1181984Y998308*
X1182765*
X1183547Y998194*
X1184015Y997967*
X1184172Y997626*
Y997399*
X1184015Y997058*
X1183703Y996944*
X1226622Y950201D02*
X1226309Y950087D01*
X1225997Y949860*
X1225840Y949633*
Y949178*
X1225997Y948951*
X1226309Y948724*
X1226622Y948610*
X1227090Y948497*
X1227872*
X1228340Y948610*
X1228653Y948724*
X1228965Y948951*
X1229122Y949178*
Y949633*
X1228965Y949860*
X1228653Y950087*
X1228340Y950201*
X1225840Y952360D02*
X1228028Y951224D01*
Y952928*
X1225840Y952360D02*
X1229122D01*
X1096661Y861347D02*
X1096548Y861659D01*
X1096320Y861972*
X1096093Y862128*
X1095639*
X1095411Y861972*
X1095184Y861659*
X1095070Y861347*
X1094957Y860878*
Y860097*
X1095070Y859628*
X1095184Y859316*
X1095411Y859003*
X1095639Y858847*
X1096093*
X1096320Y859003*
X1096548Y859316*
X1096661Y859628*
X1098820Y862128D02*
X1097684Y859941D01*
X1099389*
X1098820Y862128D02*
Y858847D01*
X1101775Y861659D02*
X1101661Y861972D01*
X1101320Y862128*
X1101093*
X1100752Y861972*
X1100525Y861503*
X1100411Y860722*
Y859941*
X1100525Y859316*
X1100752Y859003*
X1101093Y858847*
X1101207*
X1101548Y859003*
X1101775Y859316*
X1101889Y859784*
Y859941*
X1101775Y860409*
X1101548Y860722*
X1101207Y860878*
X1101093*
X1100752Y860722*
X1100525Y860409*
X1100411Y859941*
X1338768Y936521D02*
Y933240D01*
X1340132*
X1341155Y936521D02*
Y933240D01*
Y936521D02*
X1341950D01*
X1342291Y936365*
X1342518Y936052*
X1342632Y935740*
X1342746Y935271*
Y934490*
X1342632Y934021*
X1342518Y933709*
X1342291Y933396*
X1341950Y933240*
X1341155*
X1343768Y935896D02*
X1343996Y936052D01*
X1344337Y936521*
Y933240*
X1020437Y846890D02*
X1023718D01*
X1020437D02*
Y847912D01*
X1020593Y848253*
X1020750Y848367*
X1021062Y848481*
X1021375*
X1021687Y848367*
X1021843Y848253*
X1022000Y847912*
Y846890*
Y847685D02*
X1023718Y848481D01*
X1020437Y849731D02*
Y850981D01*
X1021687Y850299*
Y850640*
X1021843Y850867*
X1022000Y850981*
X1022468Y851094*
X1022781*
X1023250Y850981*
X1023562Y850753*
X1023718Y850412*
Y850072*
X1023562Y849731*
X1023406Y849617*
X1023093Y849503*
X1021062Y852117D02*
X1020906Y852344D01*
X1020437Y852685*
X1023718*
X1007967Y848070D02*
Y845570D01*
X1007854Y845101*
X1007740Y844945*
X1007513Y844789*
X1007286*
X1007058Y844945*
X1006945Y845101*
X1006831Y845570*
Y845883*
X1008990Y847445D02*
X1009217Y847601D01*
X1009558Y848070*
Y844789*
X1090723Y962339D02*
X1093676Y961430D01*
X1090723Y962339D02*
X1093676Y963248D01*
X1092692Y961771D02*
Y962907D01*
X1091708Y964385D02*
X1091848Y964271D01*
X1091989Y964385*
X1091848Y964498*
X1091708Y964385*
X1093395D02*
X1093536Y964271D01*
X1093676Y964385*
X1093536Y964498*
X1093395Y964385*
X1090723Y965521D02*
X1092833D01*
X1093254Y965635*
X1093536Y965862*
X1093676Y966203*
Y966430*
X1093536Y966771*
X1093254Y966998*
X1092833Y967112*
X1090723*
X1091286Y968135D02*
X1091145Y968362D01*
X1090723Y968703*
X1093676*
X1090723Y970407D02*
X1090864Y970066D01*
X1091286Y969839*
X1091989Y969725*
X1092411*
X1093114Y969839*
X1093536Y970066*
X1093676Y970407*
Y970635*
X1093536Y970975*
X1093114Y971203*
X1092411Y971316*
X1091989*
X1091286Y971203*
X1090864Y970975*
X1090723Y970635*
Y970407*
X1091105Y940150D02*
X1094058Y939241D01*
X1091105Y940150D02*
X1094058Y941059D01*
X1093073Y939582D02*
Y940718D01*
X1092089Y942195D02*
X1092230Y942082D01*
X1092370Y942195*
X1092230Y942309*
X1092089Y942195*
X1093777D02*
X1093917Y942082D01*
X1094058Y942195*
X1093917Y942309*
X1093777Y942195*
X1091105Y943332D02*
X1093214D01*
X1093636Y943445*
X1093917Y943673*
X1094058Y944014*
Y944241*
X1093917Y944582*
X1093636Y944809*
X1093214Y944923*
X1091105*
X1091667Y945945D02*
X1091527Y946173D01*
X1091105Y946514*
X1094058*
X1091667Y947536D02*
X1091527Y947764D01*
X1091105Y948105*
X1094058*
X1091205Y1010191D02*
X1094158Y1009282D01*
X1091205Y1010191D02*
X1094158Y1011100D01*
X1093173Y1009623D02*
Y1010759D01*
X1092189Y1012236D02*
X1092330Y1012123D01*
X1092470Y1012236*
X1092330Y1012350*
X1092189Y1012236*
X1093877D02*
X1094017Y1012123D01*
X1094158Y1012236*
X1094017Y1012350*
X1093877Y1012236*
X1091205Y1013373D02*
X1093314D01*
X1093736Y1013486*
X1094017Y1013714*
X1094158Y1014055*
Y1014282*
X1094017Y1014623*
X1093736Y1014850*
X1093314Y1014964*
X1091205*
X1091627Y1017350D02*
X1091345Y1017236D01*
X1091205Y1016895*
Y1016668*
X1091345Y1016327*
X1091767Y1016100*
X1092470Y1015986*
X1093173*
X1093736Y1016100*
X1094017Y1016327*
X1094158Y1016668*
Y1016782*
X1094017Y1017123*
X1093736Y1017350*
X1093314Y1017464*
X1093173*
X1092752Y1017350*
X1092470Y1017123*
X1092330Y1016782*
Y1016668*
X1092470Y1016327*
X1092752Y1016100*
X1093173Y1015986*
X1091205Y985734D02*
X1094158Y984825D01*
X1091205Y985734D02*
X1094158Y986643D01*
X1093173Y985166D02*
Y986302D01*
X1092189Y987780D02*
X1092330Y987666D01*
X1092470Y987780*
X1092330Y987893*
X1092189Y987780*
X1093877D02*
X1094017Y987666D01*
X1094158Y987780*
X1094017Y987893*
X1093877Y987780*
X1091205Y988916D02*
X1093314D01*
X1093736Y989030*
X1094017Y989257*
X1094158Y989598*
Y989825*
X1094017Y990166*
X1093736Y990393*
X1093314Y990507*
X1091205*
Y993120D02*
X1094158Y991984D01*
X1091205Y991530D02*
Y993120D01*
X1335000Y962781D02*
Y960438D01*
X1335000D02*
X1335114Y959969D01*
X1335341Y959656*
X1335682Y959500*
X1335909*
X1336250Y959656*
X1336477Y959969*
X1336591Y960438*
X1336591D02*
Y962781D01*
X1339091D02*
X1337955D01*
X1337841Y961375*
X1337955Y961531*
X1338295Y961688*
X1338295D02*
X1338636D01*
X1338636D02*
X1338977Y961531D01*
X1339205Y961219*
X1339318Y960750*
X1339205Y960438*
X1339205D02*
X1339091Y959969D01*
X1338864Y959656*
X1338523Y959500*
X1338182*
X1337841Y959656*
X1337727Y959813*
X1337727D02*
X1337614Y960125D01*
X1315437Y882340D02*
X1318718D01*
Y883703*
X1316218Y884840D02*
X1316062D01*
X1315750Y884953*
X1315593Y885067*
X1315437Y885294*
Y885749*
X1315593Y885976*
X1315750Y886090*
X1316062Y886203*
X1316375*
X1316687Y886090*
X1317156Y885862*
X1318718Y884726*
Y886317*
X1309500Y925281D02*
Y922000D01*
X1310864*
X1311886Y924656D02*
X1312114Y924812D01*
X1312114D02*
X1312455Y925281D01*
Y922000*
X1111887Y928540D02*
X1115168D01*
Y929903*
X1111887Y932403D02*
Y931267D01*
X1113293Y931153*
X1113137Y931267*
X1112981Y931608*
Y931949*
X1113137Y932290*
X1113450Y932517*
X1113918Y932631*
X1114231Y932517*
X1114700Y932403*
X1115012Y932176*
X1115168Y931835*
Y931494*
X1115012Y931153*
X1114856Y931040*
X1114543Y930926*
X1132643Y970691D02*
Y968347D01*
X1132756Y967878*
X1132983Y967566*
X1133324Y967409*
X1133552*
X1133893Y967566*
X1134120Y967878*
X1134233Y968347*
Y970691*
X1135256Y970066D02*
X1135483Y970222D01*
X1135824Y970691*
Y967409*
X1216218Y936271D02*
X1217809Y932990D01*
Y936271D02*
X1216218Y932990D01*
X1218832Y935646D02*
X1219059Y935802D01*
X1219400Y936271*
Y932990*
X1205293Y924237D02*
X1205180Y924549D01*
X1204953Y924862*
X1204725Y925018*
X1204271*
X1204043Y924862*
X1203816Y924549*
X1203703Y924237*
X1203589Y923768*
Y922987*
X1203703Y922518*
X1203816Y922205*
X1204043Y921893*
X1204271Y921737*
X1204725*
X1204953Y921893*
X1205180Y922205*
X1205293Y922518*
X1207793Y923924D02*
X1207680Y923455D01*
X1207453Y923143*
X1207112Y922987*
X1206998*
X1206657Y923143*
X1206430Y923455*
X1206316Y923924*
Y924080*
X1206430Y924549*
X1206657Y924862*
X1206998Y925018*
X1207112*
X1207453Y924862*
X1207680Y924549*
X1207793Y923924*
Y923143*
X1207680Y922362*
X1207453Y921893*
X1207112Y921737*
X1206884*
X1206543Y921893*
X1206430Y922205*
X1205537Y963887D02*
X1205423Y964199D01*
X1205196Y964512*
X1204968Y964668*
X1204514*
X1204287Y964512*
X1204059Y964199*
X1203946Y963887*
X1203832Y963418*
Y962637*
X1203946Y962168*
X1204059Y961855*
X1204287Y961543*
X1204514Y961387*
X1204968*
X1205196Y961543*
X1205423Y961855*
X1205537Y962168*
X1207128Y964668D02*
X1206787Y964512D01*
X1206673Y964199*
Y963887*
X1206787Y963574*
X1207014Y963418*
X1207468Y963262*
X1207809Y963105*
X1208037Y962793*
X1208150Y962480*
Y962012*
X1208037Y961699*
X1207923Y961543*
X1207582Y961387*
X1207128*
X1206787Y961543*
X1206673Y961699*
X1206559Y962012*
Y962480*
X1206673Y962793*
X1206900Y963105*
X1207241Y963262*
X1207696Y963418*
X1207923Y963574*
X1208037Y963887*
Y964199*
X1207923Y964512*
X1207582Y964668*
X1207128*
X1017068Y909194D02*
X1016756Y909081D01*
X1016443Y908853*
X1016287Y908626*
Y908172*
X1016443Y907944*
X1016756Y907717*
X1017068Y907603*
X1017537Y907490*
X1018318*
X1018787Y907603*
X1019100Y907717*
X1019412Y907944*
X1019568Y908172*
Y908626*
X1019412Y908853*
X1019100Y909081*
X1018787Y909194*
X1017068Y910331D02*
X1016912D01*
X1016600Y910444*
X1016443Y910558*
X1016287Y910785*
Y911240*
X1016443Y911467*
X1016600Y911581*
X1016912Y911694*
X1017225*
X1017537Y911581*
X1018006Y911353*
X1019568Y910217*
Y911808*
X1016912Y912831D02*
X1016756Y913058D01*
X1016287Y913399*
X1019568*
X1008968Y908844D02*
X1008656Y908731D01*
X1008343Y908503*
X1008187Y908276*
Y907822*
X1008343Y907594*
X1008656Y907367*
X1008968Y907253*
X1009437Y907140*
X1010218*
X1010687Y907253*
X1011000Y907367*
X1011312Y907594*
X1011468Y907822*
Y908276*
X1011312Y908503*
X1011000Y908731*
X1010687Y908844*
X1008968Y909981D02*
X1008812D01*
X1008500Y910094*
X1008343Y910208*
X1008187Y910435*
Y910890*
X1008343Y911117*
X1008500Y911231*
X1008812Y911344*
X1009125*
X1009437Y911231*
X1009906Y911003*
X1011468Y909867*
Y911458*
X1008968Y912594D02*
X1008812D01*
X1008500Y912708*
X1008343Y912822*
X1008187Y913049*
Y913503*
X1008343Y913731*
X1008500Y913844*
X1008812Y913958*
X1009125*
X1009437Y913844*
X1009906Y913617*
X1011468Y912481*
Y914072*
X1031168Y909044D02*
X1030856Y908931D01*
X1030543Y908703*
X1030387Y908476*
Y908022*
X1030543Y907794*
X1030856Y907567*
X1031168Y907453*
X1031637Y907340*
X1032418*
X1032887Y907453*
X1033200Y907567*
X1033512Y907794*
X1033668Y908022*
Y908476*
X1033512Y908703*
X1033200Y908931*
X1032887Y909044*
X1031168Y910181D02*
X1031012D01*
X1030700Y910294*
X1030543Y910408*
X1030387Y910635*
Y911090*
X1030543Y911317*
X1030700Y911431*
X1031012Y911544*
X1031325*
X1031637Y911431*
X1032106Y911203*
X1033668Y910067*
Y911658*
X1030387Y914158D02*
Y913022D01*
X1031793Y912908*
X1031637Y913022*
X1031481Y913362*
Y913703*
X1031637Y914044*
X1031950Y914272*
X1032418Y914385*
X1032731Y914272*
X1033200Y914158*
X1033512Y913931*
X1033668Y913590*
Y913249*
X1033512Y912908*
X1033356Y912794*
X1033043Y912681*
X1087268Y908844D02*
X1086956Y908731D01*
X1086643Y908503*
X1086487Y908276*
Y907822*
X1086643Y907594*
X1086956Y907367*
X1087268Y907253*
X1087737Y907140*
X1088518*
X1088987Y907253*
X1089300Y907367*
X1089612Y907594*
X1089768Y907822*
Y908276*
X1089612Y908503*
X1089300Y908731*
X1088987Y908844*
X1086487Y911003D02*
X1088675Y909867D01*
Y911572*
X1086487Y911003D02*
X1089768D01*
X1087112Y912594D02*
X1086956Y912822D01*
X1086487Y913162*
X1089768*
X1200068Y973144D02*
X1199756Y973031D01*
X1199443Y972803*
X1199287Y972576*
Y972122*
X1199443Y971894*
X1199756Y971667*
X1200068Y971553*
X1200537Y971440*
X1201318*
X1201787Y971553*
X1202100Y971667*
X1202412Y971894*
X1202568Y972122*
Y972576*
X1202412Y972803*
X1202100Y973031*
X1201787Y973144*
X1200381Y975644D02*
X1200850Y975531D01*
X1201162Y975303*
X1201318Y974962*
Y974849*
X1201162Y974508*
X1200850Y974281*
X1200381Y974167*
X1200225*
X1199756Y974281*
X1199443Y974508*
X1199287Y974849*
Y974962*
X1199443Y975303*
X1199756Y975531*
X1200381Y975644*
X1201162*
X1201943Y975531*
X1202412Y975303*
X1202568Y974962*
Y974735*
X1202412Y974394*
X1202100Y974281*
X1199287Y977803D02*
X1201475Y976667D01*
Y978372*
X1199287Y977803D02*
X1202568D01*
X1164636Y1009781D02*
Y1007281D01*
X1164523Y1006813*
X1164523D02*
X1164409Y1006656D01*
X1164182Y1006500*
X1163955*
X1163727Y1006656*
X1163614Y1006813*
X1163614D02*
X1163500Y1007281D01*
Y1007594*
X1166227Y1009781D02*
X1165886Y1009625D01*
X1165773Y1009313*
X1165773D02*
Y1009000D01*
X1165886Y1008688*
X1165886D02*
X1166114Y1008531D01*
X1166568Y1008375*
X1166909Y1008219*
X1167136Y1007906*
X1167250Y1007594*
Y1007125*
X1167136Y1006813*
X1167136D02*
X1167023Y1006656D01*
X1166682Y1006500*
X1166227*
X1165886Y1006656*
X1165773Y1006813*
X1165773D02*
X1165659Y1007125D01*
Y1007594*
X1165773Y1007906*
X1166000Y1008219*
X1166341Y1008375*
X1166795Y1008531*
X1167023Y1008688*
X1167023D02*
X1167136Y1009000D01*
Y1009313*
X1167136D02*
X1167023Y1009625D01*
X1166682Y1009781*
X1166227*
X1222737Y919876D02*
X1225237D01*
X1225706Y919762*
X1225862Y919649*
X1226018Y919422*
Y919194*
X1225862Y918967*
X1225706Y918853*
X1225237Y918740*
X1224925*
X1223518Y921012D02*
X1223362D01*
X1223050Y921126*
X1222893Y921240*
X1222737Y921467*
Y921922*
X1222893Y922149*
X1223050Y922262*
X1223362Y922376*
X1223675*
X1223987Y922262*
X1224456Y922035*
X1226018Y920899*
Y922490*
X1232587Y920226D02*
X1235087D01*
X1235556Y920112*
X1235712Y919999*
X1235868Y919772*
Y919544*
X1235712Y919317*
X1235556Y919203*
X1235087Y919090*
X1234775*
X1232587Y921476D02*
Y922726D01*
X1233837Y922044*
Y922385*
X1233993Y922612*
X1234150Y922726*
X1234618Y922840*
X1234931*
X1235400Y922726*
X1235712Y922499*
X1235868Y922158*
Y921817*
X1235712Y921476*
X1235556Y921362*
X1235243Y921249*
X1242137Y920526D02*
X1244637D01*
X1245106Y920412*
X1245262Y920299*
X1245418Y920072*
Y919844*
X1245262Y919617*
X1245106Y919503*
X1244637Y919390*
X1244325*
X1242137Y922685D02*
X1244325Y921549D01*
Y923253*
X1242137Y922685D02*
X1245418D01*
X1252287Y920626D02*
X1254787D01*
X1255256Y920512*
X1255412Y920399*
X1255568Y920172*
Y919944*
X1255412Y919717*
X1255256Y919603*
X1254787Y919490*
X1254475*
X1252287Y923126D02*
Y921990D01*
X1253693Y921876*
X1253537Y921990*
X1253381Y922331*
Y922672*
X1253537Y923012*
X1253850Y923240*
X1254318Y923353*
X1254631Y923240*
X1255100Y923126*
X1255412Y922899*
X1255568Y922558*
Y922217*
X1255412Y921876*
X1255256Y921762*
X1254943Y921649*
X1262387Y920776D02*
X1264887D01*
X1265356Y920662*
X1265512Y920549*
X1265668Y920322*
Y920094*
X1265512Y919867*
X1265356Y919753*
X1264887Y919640*
X1264575*
X1262856Y923162D02*
X1262543Y923049D01*
X1262387Y922708*
Y922481*
X1262543Y922140*
X1263012Y921912*
X1263793Y921799*
X1264575*
X1265200Y921912*
X1265512Y922140*
X1265668Y922481*
Y922594*
X1265512Y922935*
X1265200Y923162*
X1264731Y923276*
X1264575*
X1264106Y923162*
X1263793Y922935*
X1263637Y922594*
Y922481*
X1263793Y922140*
X1264106Y921912*
X1264575Y921799*
X1271337Y920726D02*
X1273837D01*
X1274306Y920612*
X1274462Y920499*
X1274618Y920272*
Y920044*
X1274462Y919817*
X1274306Y919703*
X1273837Y919590*
X1273525*
X1271337Y923340D02*
X1274618Y922203D01*
X1271337Y921749D02*
Y923340D01*
X1150193Y865635D02*
Y863526D01*
X1150307Y863104*
X1150534Y862823*
X1150875Y862682*
X1151103*
X1151443Y862823*
X1151671Y863104*
X1151784Y863526*
Y865635*
X1152807Y865073D02*
X1153034Y865213D01*
X1153375Y865635*
Y862682*
X1154512Y864932D02*
Y865073D01*
X1154625Y865354*
X1154739Y865494*
X1154966Y865635*
X1155421*
X1155648Y865494*
X1155762Y865354*
X1155875Y865073*
Y864791*
X1155762Y864510*
X1155534Y864088*
X1154398Y862682*
X1155989*
X1219590Y1022308D02*
X1221934D01*
X1222403Y1022422*
X1222715Y1022649*
X1222872Y1022990*
Y1023217*
X1222715Y1023558*
X1222403Y1023785*
X1221934Y1023899*
X1219590*
X1220215Y1024922D02*
X1220059Y1025149D01*
X1219590Y1025490*
X1222872*
X1219590Y1027990D02*
Y1026853D01*
X1220997Y1026740*
X1220840Y1026853*
X1220684Y1027194*
Y1027535*
X1220840Y1027876*
X1221153Y1028103*
X1221622Y1028217*
X1221934Y1028103*
X1222403Y1027990*
X1222715Y1027762*
X1222872Y1027422*
Y1027081*
X1222715Y1026740*
X1222559Y1026626*
X1222247Y1026512*
X1195737Y1013590D02*
X1198081D01*
X1198550Y1013703*
X1198862Y1013931*
X1199018Y1014272*
Y1014499*
X1198862Y1014840*
X1198550Y1015067*
X1198081Y1015181*
X1195737*
X1196362Y1016203D02*
X1196206Y1016431D01*
X1195737Y1016772*
X1199018*
X1196206Y1019158D02*
X1195893Y1019044D01*
X1195737Y1018703*
Y1018476*
X1195893Y1018135*
X1196362Y1017908*
X1197143Y1017794*
X1197925*
X1198550Y1017908*
X1198862Y1018135*
X1199018Y1018476*
Y1018590*
X1198862Y1018931*
X1198550Y1019158*
X1198081Y1019272*
X1197925*
X1197456Y1019158*
X1197143Y1018931*
X1196987Y1018590*
Y1018476*
X1197143Y1018135*
X1197456Y1017908*
X1197925Y1017794*
X1320172Y919782D02*
X1323453D01*
X1320172D02*
Y920805D01*
X1320328Y921145*
X1320484Y921259*
X1320797Y921373*
X1321109*
X1321422Y921259*
X1321578Y921145*
X1321734Y920805*
Y919782*
Y920577D02*
X1323453Y921373D01*
X1320641Y923759D02*
X1320328Y923645D01*
X1320172Y923305*
Y923077*
X1320328Y922736*
X1320797Y922509*
X1321578Y922395*
X1322359*
X1322984Y922509*
X1323297Y922736*
X1323453Y923077*
Y923191*
X1323297Y923532*
X1322984Y923759*
X1322516Y923873*
X1322359*
X1321891Y923759*
X1321578Y923532*
X1321422Y923191*
Y923077*
X1321578Y922736*
X1321891Y922509*
X1322359Y922395*
X1320797Y924895D02*
X1320641Y925123D01*
X1320172Y925464*
X1323453*
X1324272Y919570D02*
X1327553D01*
X1324272D02*
Y920593D01*
X1324428Y920934*
X1324584Y921048*
X1324897Y921161*
X1325209*
X1325522Y921048*
X1325678Y920934*
X1325834Y920593*
Y919570*
Y920366D02*
X1327553Y921161D01*
X1324741Y923548D02*
X1324428Y923434D01*
X1324272Y923093*
Y922866*
X1324428Y922525*
X1324897Y922298*
X1325678Y922184*
X1326459*
X1327084Y922298*
X1327397Y922525*
X1327553Y922866*
Y922980*
X1327397Y923320*
X1327084Y923548*
X1326616Y923661*
X1326459*
X1325991Y923548*
X1325678Y923320*
X1325522Y922980*
Y922866*
X1325678Y922525*
X1325991Y922298*
X1326459Y922184*
X1324272Y924911D02*
Y926161D01*
X1325522Y925480*
Y925820*
X1325678Y926048*
X1325834Y926161*
X1326303Y926275*
X1326616*
X1327084Y926161*
X1327397Y925934*
X1327553Y925593*
Y925252*
X1327397Y924911*
X1327241Y924798*
X1326928Y924684*
X1339432Y878968D02*
Y875687D01*
Y878968D02*
X1340455D01*
X1340796Y878812*
X1340909Y878655*
X1341023Y878343*
Y878030*
X1340909Y877718*
X1340796Y877562*
X1340455Y877405*
X1339432*
X1340228D02*
X1341023Y875687D01*
X1343409Y878499D02*
X1343296Y878812D01*
X1342955Y878968*
X1342728*
X1342387Y878812*
X1342159Y878343*
X1342046Y877562*
Y876780*
X1342159Y876155*
X1342387Y875843*
X1342728Y875687*
X1342841*
X1343182Y875843*
X1343409Y876155*
X1343523Y876624*
Y876780*
X1343409Y877249*
X1343182Y877562*
X1342841Y877718*
X1342728*
X1342387Y877562*
X1342159Y877249*
X1342046Y876780*
X1346023Y878968D02*
X1344887D01*
X1344773Y877562*
X1344887Y877718*
X1345228Y877874*
X1345568*
X1345909Y877718*
X1346137Y877405*
X1346250Y876937*
X1346137Y876624*
X1346023Y876155*
X1345796Y875843*
X1345455Y875687*
X1345114*
X1344773Y875843*
X1344659Y875999*
X1344546Y876312*
X1343446Y883768D02*
Y880487D01*
Y883768D02*
X1344468D01*
X1344809Y883612*
X1344923Y883455*
X1345037Y883143*
Y882830*
X1344923Y882518*
X1344809Y882362*
X1344468Y882205*
X1343446*
X1344241D02*
X1345037Y880487D01*
X1347423Y883299D02*
X1347309Y883612D01*
X1346968Y883768*
X1346741*
X1346400Y883612*
X1346173Y883143*
X1346059Y882362*
Y881580*
X1346173Y880955*
X1346400Y880643*
X1346741Y880487*
X1346855*
X1347196Y880643*
X1347423Y880955*
X1347537Y881424*
Y881580*
X1347423Y882049*
X1347196Y882362*
X1346855Y882518*
X1346741*
X1346400Y882362*
X1346173Y882049*
X1346059Y881580*
X1349923Y883299D02*
X1349809Y883612D01*
X1349468Y883768*
X1349241*
X1348900Y883612*
X1348673Y883143*
X1348559Y882362*
Y881580*
X1348673Y880955*
X1348900Y880643*
X1349241Y880487*
X1349355*
X1349696Y880643*
X1349923Y880955*
X1350037Y881424*
Y881580*
X1349923Y882049*
X1349696Y882362*
X1349355Y882518*
X1349241*
X1348900Y882362*
X1348673Y882049*
X1348559Y881580*
X1224240Y1022465D02*
X1227522D01*
X1224240D02*
Y1023487D01*
X1224397Y1023828*
X1224553Y1023942*
X1224865Y1024056*
X1225178*
X1225490Y1023942*
X1225647Y1023828*
X1225803Y1023487*
Y1022465*
Y1023260D02*
X1227522Y1024056D01*
X1224865Y1025078D02*
X1224709Y1025306D01*
X1224240Y1025647*
X1227522*
X1225022Y1026783D02*
X1224865D01*
X1224553Y1026897*
X1224397Y1027010*
X1224240Y1027237*
Y1027692*
X1224397Y1027919*
X1224553Y1028033*
X1224865Y1028147*
X1225178*
X1225490Y1028033*
X1225959Y1027806*
X1227522Y1026669*
Y1028260*
X1177740Y882758D02*
X1181022D01*
X1177740D02*
Y883781D01*
X1177897Y884122*
X1178053Y884235*
X1178365Y884349*
X1178678*
X1178990Y884235*
X1179147Y884122*
X1179303Y883781*
Y882758*
Y883553D02*
X1181022Y884349D01*
X1178365Y885372D02*
X1178209Y885599D01*
X1177740Y885940*
X1181022*
X1177740Y888099D02*
X1179928Y886962D01*
Y888667*
X1177740Y888099D02*
X1181022D01*
X1164672Y972420D02*
X1167953D01*
X1164672D02*
Y973443D01*
X1164828Y973784*
X1164984Y973898*
X1165297Y974011*
X1165609*
X1165922Y973898*
X1166078Y973784*
X1166234Y973443*
Y972420*
Y973216D02*
X1167953Y974011D01*
X1164672Y975602D02*
X1164828Y975261D01*
X1165141Y975148*
X1165453*
X1165766Y975261*
X1165922Y975489*
X1166078Y975943*
X1166234Y976284*
X1166547Y976511*
X1166859Y976625*
X1167328*
X1167641Y976511*
X1167797Y976398*
X1167953Y976057*
Y975602*
X1167797Y975261*
X1167641Y975148*
X1167328Y975034*
X1166859*
X1166547Y975148*
X1166234Y975375*
X1166078Y975716*
X1165922Y976170*
X1165766Y976398*
X1165453Y976511*
X1165141*
X1164828Y976398*
X1164672Y976057*
Y975602*
X1193040Y932053D02*
X1196322D01*
X1193040D02*
Y933076D01*
X1193197Y933417*
X1193353Y933531*
X1193665Y933644*
X1193978*
X1194290Y933531*
X1194447Y933417*
X1194603Y933076*
Y932053*
Y932849D02*
X1196322Y933644D01*
X1193822Y934781D02*
X1193665D01*
X1193353Y934894*
X1193197Y935008*
X1193040Y935235*
Y935690*
X1193197Y935917*
X1193353Y936031*
X1193665Y936144*
X1193978*
X1194290Y936031*
X1194759Y935803*
X1196322Y934667*
Y936258*
X1193040Y937849D02*
X1193197Y937508D01*
X1193509Y937394*
X1193822*
X1194134Y937508*
X1194290Y937735*
X1194447Y938190*
X1194603Y938531*
X1194915Y938758*
X1195228Y938872*
X1195697*
X1196009Y938758*
X1196165Y938644*
X1196322Y938303*
Y937849*
X1196165Y937508*
X1196009Y937394*
X1195697Y937281*
X1195228*
X1194915Y937394*
X1194603Y937622*
X1194447Y937962*
X1194290Y938417*
X1194134Y938644*
X1193822Y938758*
X1193509*
X1193197Y938644*
X1193040Y938303*
Y937849*
X1226837Y972890D02*
X1230118D01*
X1226837D02*
Y973912D01*
X1226993Y974253*
X1227150Y974367*
X1227462Y974481*
X1227775*
X1228087Y974367*
X1228243Y974253*
X1228400Y973912*
Y972890*
Y973685D02*
X1230118Y974481D01*
X1227618Y975617D02*
X1227462D01*
X1227150Y975731*
X1226993Y975844*
X1226837Y976072*
Y976526*
X1226993Y976753*
X1227150Y976867*
X1227462Y976981*
X1227775*
X1228087Y976867*
X1228556Y976640*
X1230118Y975503*
Y977094*
X1226837Y978799D02*
X1226993Y978458D01*
X1227462Y978231*
X1228243Y978117*
X1228712*
X1229493Y978231*
X1229962Y978458*
X1230118Y978799*
Y979026*
X1229962Y979367*
X1229493Y979594*
X1228712Y979708*
X1228243*
X1227462Y979594*
X1226993Y979367*
X1226837Y979026*
Y978799*
X1238737Y961290D02*
X1242018D01*
X1238737D02*
Y962312D01*
X1238893Y962653*
X1239050Y962767*
X1239362Y962881*
X1239675*
X1239987Y962767*
X1240143Y962653*
X1240300Y962312*
Y961290*
Y962085D02*
X1242018Y962881D01*
X1239518Y964017D02*
X1239362D01*
X1239050Y964131*
X1238893Y964244*
X1238737Y964472*
Y964926*
X1238893Y965153*
X1239050Y965267*
X1239362Y965381*
X1239675*
X1239987Y965267*
X1240456Y965040*
X1242018Y963903*
Y965494*
X1239362Y966517D02*
X1239206Y966744D01*
X1238737Y967085*
X1242018*
X1053437Y845090D02*
X1056718D01*
X1053437D02*
Y846112D01*
X1053593Y846453*
X1053750Y846567*
X1054062Y846681*
X1054375*
X1054687Y846567*
X1054843Y846453*
X1055000Y846112*
Y845090*
Y845885D02*
X1056718Y846681D01*
X1053437Y848840D02*
X1055625Y847703D01*
Y849408*
X1053437Y848840D02*
X1056718D01*
X1053437Y851567D02*
X1055625Y850431D01*
Y852135*
X1053437Y851567D02*
X1056718D01*
X1060037Y845640D02*
X1063318D01*
X1060037D02*
Y846662D01*
X1060193Y847003*
X1060350Y847117*
X1060662Y847231*
X1060975*
X1061287Y847117*
X1061443Y847003*
X1061600Y846662*
Y845640*
Y846435D02*
X1063318Y847231D01*
X1060037Y849390D02*
X1062225Y848253D01*
Y849958*
X1060037Y849390D02*
X1063318D01*
X1060037Y852458D02*
Y851322D01*
X1061443Y851208*
X1061287Y851322*
X1061131Y851662*
Y852003*
X1061287Y852344*
X1061600Y852572*
X1062068Y852685*
X1062381Y852572*
X1062850Y852458*
X1063162Y852231*
X1063318Y851890*
Y851549*
X1063162Y851208*
X1063006Y851094*
X1062693Y850981*
X1066137Y845190D02*
X1069418D01*
X1066137D02*
Y846212D01*
X1066293Y846553*
X1066450Y846667*
X1066762Y846781*
X1067075*
X1067387Y846667*
X1067543Y846553*
X1067700Y846212*
Y845190*
Y845985D02*
X1069418Y846781D01*
X1066137Y848940D02*
X1068325Y847803D01*
Y849508*
X1066137Y848940D02*
X1069418D01*
X1066606Y851894D02*
X1066293Y851781D01*
X1066137Y851440*
Y851212*
X1066293Y850872*
X1066762Y850644*
X1067543Y850531*
X1068325*
X1068950Y850644*
X1069262Y850872*
X1069418Y851212*
Y851326*
X1069262Y851667*
X1068950Y851894*
X1068481Y852008*
X1068325*
X1067856Y851894*
X1067543Y851667*
X1067387Y851326*
Y851212*
X1067543Y850872*
X1067856Y850644*
X1068325Y850531*
X1072287Y845290D02*
X1075568D01*
X1072287D02*
Y846312D01*
X1072443Y846653*
X1072600Y846767*
X1072912Y846881*
X1073225*
X1073537Y846767*
X1073693Y846653*
X1073850Y846312*
Y845290*
Y846085D02*
X1075568Y846881D01*
X1072287Y849040D02*
X1074475Y847903D01*
Y849608*
X1072287Y849040D02*
X1075568D01*
X1072287Y852222D02*
X1075568Y851085D01*
X1072287Y850631D02*
Y852222D01*
X1078887Y845640D02*
X1082168D01*
X1078887D02*
Y846662D01*
X1079043Y847003*
X1079200Y847117*
X1079512Y847231*
X1079825*
X1080137Y847117*
X1080293Y847003*
X1080450Y846662*
Y845640*
Y846435D02*
X1082168Y847231D01*
X1078887Y849390D02*
X1081075Y848253D01*
Y849958*
X1078887Y849390D02*
X1082168D01*
X1078887Y851549D02*
X1079043Y851208D01*
X1079356Y851094*
X1079668*
X1079981Y851208*
X1080137Y851435*
X1080293Y851890*
X1080450Y852231*
X1080762Y852458*
X1081075Y852572*
X1081543*
X1081856Y852458*
X1082012Y852344*
X1082168Y852003*
Y851549*
X1082012Y851208*
X1081856Y851094*
X1081543Y850981*
X1081075*
X1080762Y851094*
X1080450Y851322*
X1080293Y851662*
X1080137Y852117*
X1079981Y852344*
X1079668Y852458*
X1079356*
X1079043Y852344*
X1078887Y852003*
Y851549*
X1085537Y845590D02*
X1088818D01*
X1085537D02*
Y846612D01*
X1085693Y846953*
X1085850Y847067*
X1086162Y847181*
X1086475*
X1086787Y847067*
X1086943Y846953*
X1087100Y846612*
Y845590*
Y846385D02*
X1088818Y847181D01*
X1085537Y849340D02*
X1087725Y848203D01*
Y849908*
X1085537Y849340D02*
X1088818D01*
X1086631Y852408D02*
X1087100Y852294D01*
X1087412Y852067*
X1087568Y851726*
Y851612*
X1087412Y851272*
X1087100Y851044*
X1086631Y850931*
X1086475*
X1086006Y851044*
X1085693Y851272*
X1085537Y851612*
Y851726*
X1085693Y852067*
X1086006Y852294*
X1086631Y852408*
X1087412*
X1088193Y852294*
X1088662Y852067*
X1088818Y851726*
Y851499*
X1088662Y851158*
X1088350Y851044*
X1180987Y985840D02*
X1184268D01*
X1180987D02*
Y986862D01*
X1181143Y987203*
X1181300Y987317*
X1181612Y987431*
X1181925*
X1182237Y987317*
X1182393Y987203*
X1182550Y986862*
Y985840*
Y986635D02*
X1184268Y987431D01*
X1180987Y989590D02*
X1183175Y988453D01*
Y990158*
X1180987Y989590D02*
X1184268D01*
X1169219Y975000D02*
X1172500D01*
X1169219D02*
Y976023D01*
X1169375Y976364*
X1169531Y976477*
X1169844Y976591*
X1170156*
X1170469Y976477*
X1170625Y976364*
X1170781Y976023*
Y975000*
Y975795D02*
X1172500Y976591D01*
X1169219Y977841D02*
Y979091D01*
X1170469Y978409*
Y978750*
X1170625Y978977*
X1170781Y979091*
X1171250Y979205*
X1171562*
X1171562D02*
X1172031Y979091D01*
X1172344Y978864*
X1172500Y978523*
Y978182*
X1172344Y977841*
X1172187Y977727*
X1172187D02*
X1171875Y977614D01*
X1284688Y903591D02*
X1284375Y903364D01*
X1284219Y903023*
Y902568*
X1284375Y902227*
X1284688Y902000*
X1284688D02*
X1285000D01*
X1285313Y902114*
X1285313D02*
X1285469Y902227D01*
X1285625Y902455*
X1285938Y903136*
X1285938D02*
X1286094Y903364D01*
X1286250Y903477*
X1286563Y903591*
X1286563D02*
X1287031D01*
X1287344Y903364*
X1287500Y903023*
Y902568*
X1287344Y902227*
X1287031Y902000*
X1284219Y904614D02*
X1287500Y905182D01*
X1284219Y905750D02*
X1287500Y905182D01*
X1284219Y905750D02*
X1287500Y906318D01*
X1284219Y906886D02*
X1287500Y906318D01*
X1284844Y907909D02*
X1284688Y908136D01*
X1284688D02*
X1284219Y908477D01*
X1287500*
X1092487Y884791D02*
X1092175Y884564D01*
X1092019Y884223*
Y883768*
X1092175Y883427*
X1092487Y883200*
X1092487D02*
X1092800D01*
X1093112Y883314*
X1093112D02*
X1093269Y883427D01*
X1093425Y883655*
X1093737Y884336*
X1093737D02*
X1093894Y884564D01*
X1094050Y884677*
X1094362Y884791*
X1094362D02*
X1094831D01*
X1095144Y884564*
X1095300Y884223*
Y883768*
X1095144Y883427*
X1094831Y883200*
X1092019Y885814D02*
X1095300Y886382D01*
X1092019Y886950D02*
X1095300Y886382D01*
X1092019Y886950D02*
X1095300Y887518D01*
X1092019Y888086D02*
X1095300Y887518D01*
X1092019Y889336D02*
Y890586D01*
X1093269Y889905*
Y890245*
X1093425Y890473*
X1093581Y890586*
X1094050Y890700*
X1094362*
X1094362D02*
X1094831Y890586D01*
X1095144Y890359*
X1095300Y890018*
Y889677*
X1095144Y889336*
X1094987Y889223*
X1094987D02*
X1094675Y889109D01*
X1329364Y865221D02*
Y861940D01*
X1328568Y865221D02*
X1330159D01*
X1331182D02*
Y861940D01*
Y865221D02*
X1332205D01*
X1332546Y865065*
X1332659Y864909*
X1332773Y864596*
Y864127*
X1332659Y863815*
X1332546Y863659*
X1332205Y863502*
X1331182*
X1335159Y864752D02*
X1335046Y865065D01*
X1334705Y865221*
X1334478*
X1334137Y865065*
X1333909Y864596*
X1333796Y863815*
Y863034*
X1333909Y862409*
X1334137Y862096*
X1334478Y861940*
X1334591*
X1334932Y862096*
X1335159Y862409*
X1335273Y862877*
Y863034*
X1335159Y863502*
X1334932Y863815*
X1334591Y863971*
X1334478*
X1334137Y863815*
X1333909Y863502*
X1333796Y863034*
X1205149Y909328D02*
Y906046D01*
X1204354Y909328D02*
X1205944D01*
X1206967D02*
Y906046D01*
Y909328D02*
X1207990D01*
X1208331Y909171*
X1208444Y909015*
X1208558Y908703*
Y908234*
X1208444Y907921*
X1208331Y907765*
X1207990Y907609*
X1206967*
X1209581Y908703D02*
X1209808Y908859D01*
X1210149Y909328*
Y906046*
X1340687Y873637D02*
X1340573Y873949D01*
X1340346Y874262*
X1340118Y874418*
X1339664*
X1339437Y874262*
X1339209Y873949*
X1339096Y873637*
X1338982Y873168*
Y872387*
X1339096Y871918*
X1339209Y871605*
X1339437Y871293*
X1339664Y871137*
X1340118*
X1340346Y871293*
X1340573Y871605*
X1340687Y871918*
X1343073Y873949D02*
X1342959Y874262D01*
X1342618Y874418*
X1342391*
X1342050Y874262*
X1341823Y873793*
X1341709Y873012*
Y872230*
X1341823Y871605*
X1342050Y871293*
X1342391Y871137*
X1342505*
X1342846Y871293*
X1343073Y871605*
X1343187Y872074*
Y872230*
X1343073Y872699*
X1342846Y873012*
X1342505Y873168*
X1342391*
X1342050Y873012*
X1341823Y872699*
X1341709Y872230*
X1344778Y874418D02*
X1344437Y874262D01*
X1344323Y873949*
Y873637*
X1344437Y873324*
X1344664Y873168*
X1345118Y873012*
X1345459Y872855*
X1345687Y872543*
X1345800Y872230*
Y871762*
X1345687Y871449*
X1345573Y871293*
X1345232Y871137*
X1344778*
X1344437Y871293*
X1344323Y871449*
X1344209Y871762*
Y872230*
X1344323Y872543*
X1344550Y872855*
X1344891Y873012*
X1345346Y873168*
X1345573Y873324*
X1345687Y873637*
Y873949*
X1345573Y874262*
X1345232Y874418*
X1344778*
X1208118Y977694D02*
X1207806Y977581D01*
X1207493Y977353*
X1207337Y977126*
Y976672*
X1207493Y976444*
X1207806Y976217*
X1208118Y976103*
X1208587Y975990*
X1209368*
X1209837Y976103*
X1210150Y976217*
X1210462Y976444*
X1210618Y976672*
Y977126*
X1210462Y977353*
X1210150Y977581*
X1209837Y977694*
X1208431Y980194D02*
X1208900Y980081D01*
X1209212Y979853*
X1209368Y979512*
Y979399*
X1209212Y979058*
X1208900Y978831*
X1208431Y978717*
X1208275*
X1207806Y978831*
X1207493Y979058*
X1207337Y979399*
Y979512*
X1207493Y979853*
X1207806Y980081*
X1208431Y980194*
X1209212*
X1209993Y980081*
X1210462Y979853*
X1210618Y979512*
Y979285*
X1210462Y978944*
X1210150Y978831*
X1208118Y981331D02*
X1207962D01*
X1207650Y981444*
X1207493Y981558*
X1207337Y981785*
Y982240*
X1207493Y982467*
X1207650Y982581*
X1207962Y982694*
X1208275*
X1208587Y982581*
X1209056Y982353*
X1210618Y981217*
Y982808*
X1044818Y909394D02*
X1044506Y909281D01*
X1044193Y909053*
X1044037Y908826*
Y908372*
X1044193Y908144*
X1044506Y907917*
X1044818Y907803*
X1045287Y907690*
X1046068*
X1046537Y907803*
X1046850Y907917*
X1047162Y908144*
X1047318Y908372*
Y908826*
X1047162Y909053*
X1046850Y909281*
X1046537Y909394*
X1044818Y910531D02*
X1044662D01*
X1044350Y910644*
X1044193Y910758*
X1044037Y910985*
Y911440*
X1044193Y911667*
X1044350Y911781*
X1044662Y911894*
X1044975*
X1045287Y911781*
X1045756Y911553*
X1047318Y910417*
Y912008*
X1045131Y914508D02*
X1045600Y914394D01*
X1045912Y914167*
X1046068Y913826*
Y913712*
X1045912Y913372*
X1045600Y913144*
X1045131Y913031*
X1044975*
X1044506Y913144*
X1044193Y913372*
X1044037Y913712*
Y913826*
X1044193Y914167*
X1044506Y914394*
X1045131Y914508*
X1045912*
X1046693Y914394*
X1047162Y914167*
X1047318Y913826*
Y913599*
X1047162Y913258*
X1046850Y913144*
X1050968Y909294D02*
X1050656Y909181D01*
X1050343Y908953*
X1050187Y908726*
Y908272*
X1050343Y908044*
X1050656Y907817*
X1050968Y907703*
X1051437Y907590*
X1052218*
X1052687Y907703*
X1053000Y907817*
X1053312Y908044*
X1053468Y908272*
Y908726*
X1053312Y908953*
X1053000Y909181*
X1052687Y909294*
X1050187Y910544D02*
Y911794D01*
X1051437Y911112*
Y911453*
X1051593Y911681*
X1051750Y911794*
X1052218Y911908*
X1052531*
X1053000Y911794*
X1053312Y911567*
X1053468Y911226*
Y910885*
X1053312Y910544*
X1053156Y910431*
X1052843Y910317*
X1050187Y914067D02*
X1052375Y912931D01*
Y914635*
X1050187Y914067D02*
X1053468D01*
X1072672Y908451D02*
X1072359Y908337D01*
X1072047Y908110*
X1071890Y907883*
Y907428*
X1072047Y907201*
X1072359Y906974*
X1072672Y906860*
X1073140Y906747*
X1073922*
X1074390Y906860*
X1074703Y906974*
X1075015Y907201*
X1075172Y907428*
Y907883*
X1075015Y908110*
X1074703Y908337*
X1074390Y908451*
X1071890Y909701D02*
Y910951D01*
X1073140Y910269*
Y910610*
X1073297Y910837*
X1073453Y910951*
X1073922Y911065*
X1074234*
X1074703Y910951*
X1075015Y910724*
X1075172Y910383*
Y910042*
X1075015Y909701*
X1074859Y909587*
X1074547Y909474*
X1071890Y913678D02*
X1075172Y912542D01*
X1071890Y912087D02*
Y913678D01*
X1112472Y946312D02*
X1112159Y946199D01*
X1111847Y945972*
X1111690Y945744*
Y945290*
X1111847Y945062*
X1112159Y944835*
X1112472Y944722*
X1112940Y944608*
X1113722*
X1114190Y944722*
X1114503Y944835*
X1114815Y945062*
X1114972Y945290*
Y945744*
X1114815Y945972*
X1114503Y946199*
X1114190Y946312*
X1111690Y947903D02*
X1111847Y947562D01*
X1112159Y947449*
X1112472*
X1112784Y947562*
X1112940Y947790*
X1113097Y948244*
X1113253Y948585*
X1113565Y948812*
X1113878Y948926*
X1114347*
X1114659Y948812*
X1114815Y948699*
X1114972Y948358*
Y947903*
X1114815Y947562*
X1114659Y947449*
X1114347Y947335*
X1113878*
X1113565Y947449*
X1113253Y947676*
X1113097Y948017*
X1112940Y948472*
X1112784Y948699*
X1112472Y948812*
X1112159*
X1111847Y948699*
X1111690Y948358*
Y947903*
X1112315Y949949D02*
X1112159Y950176D01*
X1111690Y950517*
X1114972*
X1220122Y976958D02*
X1219809Y976844D01*
X1219497Y976617*
X1219340Y976390*
Y975935*
X1219497Y975708*
X1219809Y975481*
X1220122Y975367*
X1220590Y975253*
X1221372*
X1221840Y975367*
X1222153Y975481*
X1222465Y975708*
X1222622Y975935*
Y976390*
X1222465Y976617*
X1222153Y976844*
X1221840Y976958*
X1220434Y979458D02*
X1220903Y979344D01*
X1221215Y979117*
X1221372Y978776*
Y978662*
X1221215Y978322*
X1220903Y978094*
X1220434Y977981*
X1220278*
X1219809Y978094*
X1219497Y978322*
X1219340Y978662*
Y978776*
X1219497Y979117*
X1219809Y979344*
X1220434Y979458*
X1221215*
X1221997Y979344*
X1222465Y979117*
X1222622Y978776*
Y978549*
X1222465Y978208*
X1222153Y978094*
X1219340Y980708D02*
Y981958D01*
X1220590Y981276*
Y981617*
X1220747Y981844*
X1220903Y981958*
X1221372Y982072*
X1221684*
X1222153Y981958*
X1222465Y981731*
X1222622Y981390*
Y981049*
X1222465Y980708*
X1222309Y980594*
X1221997Y980481*
X1023672Y910708D02*
X1023359Y910594D01*
X1023047Y910367*
X1022890Y910140*
Y909685*
X1023047Y909458*
X1023359Y909231*
X1023672Y909117*
X1024140Y909003*
X1024922*
X1025390Y909117*
X1025703Y909231*
X1026015Y909458*
X1026172Y909685*
Y910140*
X1026015Y910367*
X1025703Y910594*
X1025390Y910708*
X1023672Y911844D02*
X1023515D01*
X1023203Y911958*
X1023047Y912072*
X1022890Y912299*
Y912753*
X1023047Y912981*
X1023203Y913094*
X1023515Y913208*
X1023828*
X1024140Y913094*
X1024609Y912867*
X1026172Y911731*
Y913322*
X1023359Y915708D02*
X1023047Y915594D01*
X1022890Y915253*
Y915026*
X1023047Y914685*
X1023515Y914458*
X1024297Y914344*
X1025078*
X1025703Y914458*
X1026015Y914685*
X1026172Y915026*
Y915140*
X1026015Y915481*
X1025703Y915708*
X1025234Y915822*
X1025078*
X1024609Y915708*
X1024297Y915481*
X1024140Y915140*
Y915026*
X1024297Y914685*
X1024609Y914458*
X1025078Y914344*
X1064422Y910551D02*
X1064109Y910437D01*
X1063797Y910210*
X1063640Y909983*
Y909528*
X1063797Y909301*
X1064109Y909074*
X1064422Y908960*
X1064890Y908847*
X1065672*
X1066140Y908960*
X1066453Y909074*
X1066765Y909301*
X1066922Y909528*
Y909983*
X1066765Y910210*
X1066453Y910437*
X1066140Y910551*
X1063640Y911801D02*
Y913051D01*
X1064890Y912369*
Y912710*
X1065047Y912937*
X1065203Y913051*
X1065672Y913165*
X1065984*
X1066453Y913051*
X1066765Y912824*
X1066922Y912483*
Y912142*
X1066765Y911801*
X1066609Y911687*
X1066297Y911574*
X1063640Y914756D02*
X1063797Y914415D01*
X1064109Y914301*
X1064422*
X1064734Y914415*
X1064890Y914642*
X1065047Y915097*
X1065203Y915437*
X1065515Y915665*
X1065828Y915778*
X1066297*
X1066609Y915665*
X1066765Y915551*
X1066922Y915210*
Y914756*
X1066765Y914415*
X1066609Y914301*
X1066297Y914187*
X1065828*
X1065515Y914301*
X1065203Y914528*
X1065047Y914869*
X1064890Y915324*
X1064734Y915551*
X1064422Y915665*
X1064109*
X1063797Y915551*
X1063640Y915210*
Y914756*
X1306673Y942440D02*
X1306559Y942752D01*
X1306332Y943065*
X1306105Y943221*
X1305650*
X1305423Y943065*
X1305196Y942752*
X1305082Y942440*
X1304968Y941971*
Y941190*
X1305082Y940721*
X1305196Y940409*
X1305423Y940096*
X1305650Y939940*
X1306105*
X1306332Y940096*
X1306559Y940409*
X1306673Y940721*
X1308832Y943221D02*
X1307696Y941034D01*
X1309400*
X1308832Y943221D02*
Y939940D01*
X1312014Y943221D02*
X1310878Y939940D01*
X1310423Y943221D02*
X1312014D01*
X1350868Y921644D02*
X1350556Y921531D01*
X1350243Y921303*
X1350087Y921076*
Y920622*
X1350243Y920394*
X1350556Y920167*
X1350868Y920053*
X1351337Y919940*
X1352118*
X1352587Y920053*
X1352900Y920167*
X1353212Y920394*
X1353368Y920622*
Y921076*
X1353212Y921303*
X1352900Y921531*
X1352587Y921644*
X1350556Y924031D02*
X1350243Y923917D01*
X1350087Y923576*
Y923349*
X1350243Y923008*
X1350712Y922781*
X1351493Y922667*
X1352275*
X1352900Y922781*
X1353212Y923008*
X1353368Y923349*
Y923462*
X1353212Y923803*
X1352900Y924031*
X1352431Y924144*
X1352275*
X1351806Y924031*
X1351493Y923803*
X1351337Y923462*
Y923349*
X1351493Y923008*
X1351806Y922781*
X1352275Y922667*
X1350087Y926303D02*
X1352275Y925167D01*
Y926872*
X1350087Y926303D02*
X1353368D01*
X1345468Y927044D02*
X1345156Y926931D01*
X1344843Y926703*
X1344687Y926476*
Y926022*
X1344843Y925794*
X1345156Y925567*
X1345468Y925453*
X1345937Y925340*
X1346718*
X1347187Y925453*
X1347500Y925567*
X1347812Y925794*
X1347968Y926022*
Y926476*
X1347812Y926703*
X1347500Y926931*
X1347187Y927044*
X1345156Y929431D02*
X1344843Y929317D01*
X1344687Y928976*
Y928749*
X1344843Y928408*
X1345312Y928181*
X1346093Y928067*
X1346875*
X1347500Y928181*
X1347812Y928408*
X1347968Y928749*
Y928862*
X1347812Y929203*
X1347500Y929431*
X1347031Y929544*
X1346875*
X1346406Y929431*
X1346093Y929203*
X1345937Y928862*
Y928749*
X1346093Y928408*
X1346406Y928181*
X1346875Y928067*
X1344687Y932044D02*
Y930908D01*
X1346093Y930794*
X1345937Y930908*
X1345781Y931249*
Y931590*
X1345937Y931931*
X1346250Y932158*
X1346718Y932272*
X1347031Y932158*
X1347500Y932044*
X1347812Y931817*
X1347968Y931476*
Y931135*
X1347812Y930794*
X1347656Y930681*
X1347343Y930567*
X1303205Y879000D02*
X1303091Y879313D01*
X1303091D02*
X1302864Y879625D01*
X1302636Y879781*
X1302182*
X1301955Y879625*
X1301727Y879313*
X1301727D02*
X1301614Y879000D01*
X1301500Y878531*
Y877750*
X1301614Y877281*
X1301727Y876969*
X1301955Y876656*
X1302182Y876500*
X1302636*
X1302864Y876656*
X1303091Y876969*
X1303205Y877281*
X1305591Y879313D02*
X1305477Y879625D01*
X1305136Y879781*
X1304909*
X1304568Y879625*
X1304341Y879156*
X1304227Y878375*
Y877594*
X1304341Y876969*
X1304568Y876656*
X1304909Y876500*
X1305023*
X1305364Y876656*
X1305591Y876969*
X1305705Y877438*
X1305705D02*
Y877594D01*
X1305591Y878063*
X1305591D02*
X1305364Y878375D01*
X1305023Y878531*
X1304909*
X1304568Y878375*
X1304341Y878063*
X1304341D02*
X1304227Y877594D01*
X1308091Y879313D02*
X1307977Y879625D01*
X1307636Y879781*
X1307409*
X1307068Y879625*
X1306841Y879156*
X1306727Y878375*
Y877594*
X1306841Y876969*
X1307068Y876656*
X1307409Y876500*
X1307523*
X1307864Y876656*
X1308091Y876969*
X1308205Y877438*
X1308205D02*
Y877594D01*
X1308091Y878063*
X1308091D02*
X1307864Y878375D01*
X1307523Y878531*
X1307409*
X1307068Y878375*
X1306841Y878063*
X1306841D02*
X1306727Y877594D01*
X1302000Y887705D02*
X1301688Y887591D01*
X1301688D02*
X1301375Y887364D01*
X1301219Y887136*
Y886682*
X1301375Y886455*
X1301688Y886227*
X1301688D02*
X1302000Y886114D01*
X1302469Y886000*
X1303250*
X1303719Y886114*
X1304031Y886227*
X1304344Y886455*
X1304500Y886682*
Y887136*
X1304344Y887364*
X1304031Y887591*
X1303719Y887705*
X1301688Y890091D02*
X1301375Y889977D01*
X1301219Y889636*
Y889409*
X1301375Y889068*
X1301844Y888841*
X1302625Y888727*
X1303406*
X1304031Y888841*
X1304344Y889068*
X1304500Y889409*
Y889523*
X1304344Y889864*
X1304031Y890091*
X1303563Y890205*
X1303563D02*
X1303406D01*
X1302938Y890091*
X1302938D02*
X1302625Y889864D01*
X1302469Y889523*
Y889409*
X1302625Y889068*
X1302938Y888841*
X1302938D02*
X1303406Y888727D01*
X1301219Y892818D02*
X1304500Y891682D01*
X1301219Y891227D02*
Y892818D01*
X1315723Y867390D02*
X1315609Y867702D01*
X1315382Y868015*
X1315155Y868171*
X1314700*
X1314473Y868015*
X1314246Y867702*
X1314132Y867390*
X1314018Y866921*
Y866140*
X1314132Y865671*
X1314246Y865359*
X1314473Y865046*
X1314700Y864890*
X1315155*
X1315382Y865046*
X1315609Y865359*
X1315723Y865671*
X1318109Y867702D02*
X1317996Y868015D01*
X1317655Y868171*
X1317428*
X1317087Y868015*
X1316859Y867546*
X1316746Y866765*
Y865984*
X1316859Y865359*
X1317087Y865046*
X1317428Y864890*
X1317541*
X1317882Y865046*
X1318109Y865359*
X1318223Y865827*
Y865984*
X1318109Y866452*
X1317882Y866765*
X1317541Y866921*
X1317428*
X1317087Y866765*
X1316859Y866452*
X1316746Y865984*
X1320723Y867077D02*
X1320609Y866609D01*
X1320382Y866296*
X1320041Y866140*
X1319928*
X1319587Y866296*
X1319359Y866609*
X1319246Y867077*
Y867234*
X1319359Y867702*
X1319587Y868015*
X1319928Y868171*
X1320041*
X1320382Y868015*
X1320609Y867702*
X1320723Y867077*
Y866296*
X1320609Y865515*
X1320382Y865046*
X1320041Y864890*
X1319814*
X1319473Y865046*
X1319359Y865359*
X1259518Y938944D02*
X1259206Y938831D01*
X1258893Y938603*
X1258737Y938376*
Y937922*
X1258893Y937694*
X1259206Y937467*
X1259518Y937353*
X1259987Y937240*
X1260768*
X1261237Y937353*
X1261550Y937467*
X1261862Y937694*
X1262018Y937922*
Y938376*
X1261862Y938603*
X1261550Y938831*
X1261237Y938944*
X1258737Y941558D02*
X1262018Y940422D01*
X1258737Y939967D02*
Y941558D01*
Y942808D02*
Y944058D01*
X1259987Y943376*
Y943717*
X1260143Y943944*
X1260300Y944058*
X1260768Y944172*
X1261081*
X1261550Y944058*
X1261862Y943831*
X1262018Y943490*
Y943149*
X1261862Y942808*
X1261706Y942694*
X1261393Y942581*
X1038122Y908901D02*
X1037809Y908787D01*
X1037497Y908560*
X1037340Y908333*
Y907878*
X1037497Y907651*
X1037809Y907424*
X1038122Y907310*
X1038590Y907197*
X1039372*
X1039840Y907310*
X1040153Y907424*
X1040465Y907651*
X1040622Y907878*
Y908333*
X1040465Y908560*
X1040153Y908787*
X1039840Y908901*
X1037340Y910151D02*
Y911401D01*
X1038590Y910719*
Y911060*
X1038747Y911287*
X1038903Y911401*
X1039372Y911515*
X1039684*
X1040153Y911401*
X1040465Y911174*
X1040622Y910833*
Y910492*
X1040465Y910151*
X1040309Y910037*
X1039997Y909924*
X1037340Y913219D02*
X1037497Y912878D01*
X1037965Y912651*
X1038747Y912537*
X1039215*
X1039997Y912651*
X1040465Y912878*
X1040622Y913219*
Y913447*
X1040465Y913787*
X1039997Y914015*
X1039215Y914128*
X1038747*
X1037965Y914015*
X1037497Y913787*
X1037340Y913447*
Y913219*
X1058222Y908801D02*
X1057909Y908687D01*
X1057597Y908460*
X1057440Y908233*
Y907778*
X1057597Y907551*
X1057909Y907324*
X1058222Y907210*
X1058690Y907097*
X1059472*
X1059940Y907210*
X1060253Y907324*
X1060565Y907551*
X1060722Y907778*
Y908233*
X1060565Y908460*
X1060253Y908687*
X1059940Y908801*
X1057440Y910051D02*
Y911301D01*
X1058690Y910619*
Y910960*
X1058847Y911187*
X1059003Y911301*
X1059472Y911415*
X1059784*
X1060253Y911301*
X1060565Y911074*
X1060722Y910733*
Y910392*
X1060565Y910051*
X1060409Y909937*
X1060097Y909824*
X1057440Y912665D02*
Y913915D01*
X1058690Y913233*
Y913574*
X1058847Y913801*
X1059003Y913915*
X1059472Y914028*
X1059784*
X1060253Y913915*
X1060565Y913687*
X1060722Y913347*
Y913006*
X1060565Y912665*
X1060409Y912551*
X1060097Y912437*
X1080018Y908544D02*
X1079706Y908431D01*
X1079393Y908203*
X1079237Y907976*
Y907522*
X1079393Y907294*
X1079706Y907067*
X1080018Y906953*
X1080487Y906840*
X1081268*
X1081737Y906953*
X1082050Y907067*
X1082362Y907294*
X1082518Y907522*
Y907976*
X1082362Y908203*
X1082050Y908431*
X1081737Y908544*
X1079237Y910703D02*
X1081425Y909567D01*
Y911272*
X1079237Y910703D02*
X1082518D01*
X1080018Y912408D02*
X1079862D01*
X1079550Y912522*
X1079393Y912635*
X1079237Y912862*
Y913317*
X1079393Y913544*
X1079550Y913658*
X1079862Y913772*
X1080175*
X1080487Y913658*
X1080956Y913431*
X1082518Y912294*
Y913885*
X1053646Y873718D02*
Y871374D01*
X1053759Y870905*
X1053987Y870593*
X1054328Y870437*
X1054555*
X1054896Y870593*
X1055123Y870905*
X1055237Y871374*
Y873718*
X1057737Y872624D02*
X1057623Y872155D01*
X1057396Y871843*
X1057055Y871687*
X1056941*
X1056600Y871843*
X1056373Y872155*
X1056259Y872624*
Y872780*
X1056373Y873249*
X1056600Y873562*
X1056941Y873718*
X1057055*
X1057396Y873562*
X1057623Y873249*
X1057737Y872624*
Y871843*
X1057623Y871062*
X1057396Y870593*
X1057055Y870437*
X1056828*
X1056487Y870593*
X1056373Y870905*
X1039639Y874218D02*
Y871874D01*
X1039753Y871405*
X1039980Y871093*
X1040321Y870937*
X1040548*
X1040889Y871093*
X1041116Y871405*
X1041230Y871874*
Y874218*
X1042821D02*
X1042480Y874062D01*
X1042366Y873749*
Y873437*
X1042480Y873124*
X1042707Y872968*
X1043162Y872812*
X1043503Y872655*
X1043730Y872343*
X1043843Y872030*
Y871562*
X1043730Y871249*
X1043616Y871093*
X1043275Y870937*
X1042821*
X1042480Y871093*
X1042366Y871249*
X1042253Y871562*
Y872030*
X1042366Y872343*
X1042593Y872655*
X1042934Y872812*
X1043389Y872968*
X1043616Y873124*
X1043730Y873437*
Y873749*
X1043616Y874062*
X1043275Y874218*
X1042821*
X1028969Y945877D02*
X1028060Y942596D01*
X1028969Y945877D02*
X1029878Y942596D01*
X1028401Y943690D02*
X1029537D01*
X1031015Y944784D02*
X1030901Y944627D01*
X1031015Y944471*
X1031128Y944627*
X1031015Y944784*
Y942909D02*
X1030901Y942752D01*
X1031015Y942596*
X1031128Y942752*
X1031015Y942909*
X1032151Y945877D02*
Y942596D01*
Y945877D02*
X1033174D01*
X1033515Y945721*
X1033628Y945565*
X1033742Y945252*
Y944940*
X1033628Y944627*
X1033515Y944471*
X1033174Y944315*
X1032151*
X1032947D02*
X1033742Y942596D01*
X1034765Y945252D02*
X1034992Y945409D01*
X1035333Y945877*
Y942596*
X1037719Y945409D02*
X1037606Y945721D01*
X1037265Y945877*
X1037037*
X1036697Y945721*
X1036469Y945252*
X1036356Y944471*
Y943690*
X1036469Y943065*
X1036697Y942752*
X1037037Y942596*
X1037151*
X1037492Y942752*
X1037719Y943065*
X1037833Y943534*
Y943690*
X1037719Y944159*
X1037492Y944471*
X1037151Y944627*
X1037037*
X1036697Y944471*
X1036469Y944159*
X1036356Y943690*
X1192590Y970960D02*
X1195872D01*
X1192590D02*
Y971983D01*
X1192747Y972324*
X1192903Y972437*
X1193215Y972551*
X1193528*
X1193840Y972437*
X1193997Y972324*
X1194153Y971983*
Y970960*
Y971756D02*
X1195872Y972551D01*
X1192590Y975165D02*
X1195872Y974028D01*
X1192590Y973574D02*
Y975165D01*
X1232325Y956971D02*
X1235607D01*
X1232325D02*
Y957994D01*
X1232482Y958335*
X1232638Y958449*
X1232950Y958562*
X1233263*
X1233575Y958449*
X1233732Y958335*
X1233888Y957994*
Y956971*
Y957767D02*
X1235607Y958562D01*
X1232950Y959585D02*
X1232794Y959812D01*
X1232325Y960153*
X1235607*
X1232325Y962767D02*
X1235607Y961631D01*
X1232325Y961176D02*
Y962767D01*
X1194437Y999190D02*
X1197718D01*
X1194437D02*
Y1000212D01*
X1194593Y1000553*
X1194750Y1000667*
X1195062Y1000781*
X1195375*
X1195687Y1000667*
X1195843Y1000553*
X1196000Y1000212*
Y999190*
Y999985D02*
X1197718Y1000781D01*
X1194437Y1003394D02*
X1197718Y1002258D01*
X1194437Y1001803D02*
Y1003394D01*
X1194906Y1005781D02*
X1194593Y1005667D01*
X1194437Y1005326*
Y1005099*
X1194593Y1004758*
X1195062Y1004531*
X1195843Y1004417*
X1196625*
X1197250Y1004531*
X1197562Y1004758*
X1197718Y1005099*
Y1005212*
X1197562Y1005553*
X1197250Y1005781*
X1196781Y1005894*
X1196625*
X1196156Y1005781*
X1195843Y1005553*
X1195687Y1005212*
Y1005099*
X1195843Y1004758*
X1196156Y1004531*
X1196625Y1004417*
X1227222Y983696D02*
X1230504D01*
X1227222D02*
Y984719D01*
X1227379Y985060*
X1227535Y985174*
X1227847Y985287*
X1228160*
X1228472Y985174*
X1228629Y985060*
X1228785Y984719*
Y983696*
Y984492D02*
X1230504Y985287D01*
X1228004Y986424D02*
X1227847D01*
X1227535Y986537*
X1227379Y986651*
X1227222Y986878*
Y987333*
X1227379Y987560*
X1227535Y987674*
X1227847Y987787*
X1228160*
X1228472Y987674*
X1228941Y987446*
X1230504Y986310*
Y987901*
X1227222Y989151D02*
Y990401D01*
X1228472Y989719*
Y990060*
X1228629Y990287*
X1228785Y990401*
X1229254Y990515*
X1229566*
X1230035Y990401*
X1230347Y990174*
X1230504Y989833*
Y989492*
X1230347Y989151*
X1230191Y989037*
X1229879Y988924*
X1013787Y845940D02*
X1017068D01*
X1013787D02*
Y846962D01*
X1013943Y847303*
X1014100Y847417*
X1014412Y847531*
X1014725*
X1015037Y847417*
X1015193Y847303*
X1015350Y846962*
Y845940*
Y846735D02*
X1017068Y847531D01*
X1013787Y848781D02*
Y850031D01*
X1015037Y849349*
Y849690*
X1015193Y849917*
X1015350Y850031*
X1015818Y850144*
X1016131*
X1016600Y850031*
X1016912Y849803*
X1017068Y849462*
Y849122*
X1016912Y848781*
X1016756Y848667*
X1016443Y848553*
X1013787Y851849D02*
X1013943Y851508D01*
X1014412Y851281*
X1015193Y851167*
X1015662*
X1016443Y851281*
X1016912Y851508*
X1017068Y851849*
Y852076*
X1016912Y852417*
X1016443Y852644*
X1015662Y852758*
X1015193*
X1014412Y852644*
X1013943Y852417*
X1013787Y852076*
Y851849*
X1040437Y845590D02*
X1043718D01*
X1040437D02*
Y846612D01*
X1040593Y846953*
X1040750Y847067*
X1041062Y847181*
X1041375*
X1041687Y847067*
X1041843Y846953*
X1042000Y846612*
Y845590*
Y846385D02*
X1043718Y847181D01*
X1040437Y848431D02*
Y849681D01*
X1041687Y848999*
Y849340*
X1041843Y849567*
X1042000Y849681*
X1042468Y849794*
X1042781*
X1043250Y849681*
X1043562Y849453*
X1043718Y849112*
Y848772*
X1043562Y848431*
X1043406Y848317*
X1043093Y848203*
X1040437Y851953D02*
X1042625Y850817D01*
Y852522*
X1040437Y851953D02*
X1043718D01*
X1046287Y845940D02*
X1049568D01*
X1046287D02*
Y846962D01*
X1046443Y847303*
X1046600Y847417*
X1046912Y847531*
X1047225*
X1047537Y847417*
X1047693Y847303*
X1047850Y846962*
Y845940*
Y846735D02*
X1049568Y847531D01*
X1046287Y848781D02*
Y850031D01*
X1047537Y849349*
Y849690*
X1047693Y849917*
X1047850Y850031*
X1048318Y850144*
X1048631*
X1049100Y850031*
X1049412Y849803*
X1049568Y849462*
Y849122*
X1049412Y848781*
X1049256Y848667*
X1048943Y848553*
X1046287Y852644D02*
Y851508D01*
X1047693Y851394*
X1047537Y851508*
X1047381Y851849*
Y852190*
X1047537Y852531*
X1047850Y852758*
X1048318Y852872*
X1048631Y852758*
X1049100Y852644*
X1049412Y852417*
X1049568Y852076*
Y851735*
X1049412Y851394*
X1049256Y851281*
X1048943Y851167*
X1214987Y1022590D02*
X1218268D01*
X1214987D02*
Y1023612D01*
X1215143Y1023953*
X1215300Y1024067*
X1215612Y1024181*
X1215925*
X1216237Y1024067*
X1216393Y1023953*
X1216550Y1023612*
Y1022590*
Y1023385D02*
X1218268Y1024181D01*
X1214987Y1026794D02*
X1218268Y1025658D01*
X1214987Y1025203D02*
Y1026794D01*
Y1029408D02*
X1218268Y1028272D01*
X1214987Y1027817D02*
Y1029408D01*
X1302000Y884781D02*
Y881500D01*
Y884781D02*
X1303023D01*
X1303364Y884625*
X1303477Y884469*
X1303591Y884156*
Y883844*
X1303477Y883531*
X1303364Y883375*
X1303023Y883219*
X1302000*
X1302795D02*
X1303591Y881500D01*
X1306091Y884781D02*
X1304955D01*
X1304841Y883375*
X1304955Y883531*
X1305295Y883688*
X1305295D02*
X1305636D01*
X1305636D02*
X1305977Y883531D01*
X1306205Y883219*
X1306318Y882750*
X1306205Y882438*
X1306205D02*
X1306091Y881969D01*
X1305864Y881656*
X1305523Y881500*
X1305182*
X1304841Y881656*
X1304727Y881813*
X1304727D02*
X1304614Y882125D01*
X1307909Y884781D02*
X1307568Y884625D01*
X1307455Y884313*
X1307455D02*
Y884000D01*
X1307568Y883688*
X1307568D02*
X1307795Y883531D01*
X1308250Y883375*
X1308591Y883219*
X1308818Y882906*
X1308932Y882594*
Y882125*
X1308818Y881813*
X1308818D02*
X1308705Y881656D01*
X1308364Y881500*
X1307909*
X1307568Y881656*
X1307455Y881813*
X1307455D02*
X1307341Y882125D01*
Y882594*
X1307455Y882906*
X1307682Y883219*
X1308023Y883375*
X1308477Y883531*
X1308705Y883688*
X1308705D02*
X1308818Y884000D01*
Y884313*
X1308818D02*
X1308705Y884625D01*
X1308364Y884781*
X1307909*
X1367190Y888622D02*
X1370472D01*
X1367190D02*
Y889417D01*
X1367347Y889758*
X1367659Y889985*
X1367972Y890099*
X1368440Y890212*
X1369222*
X1369690Y890099*
X1370003Y889985*
X1370315Y889758*
X1370472Y889417*
Y888622*
X1367815Y891235D02*
X1367659Y891462D01*
X1367190Y891803*
X1370472*
X1334072Y888252D02*
X1336416D01*
X1336885Y888366*
X1337197Y888593*
X1337354Y888934*
Y889161*
X1337197Y889502*
X1336885Y889729*
X1336416Y889843*
X1334072*
X1334697Y890866D02*
X1334541Y891093D01*
X1334072Y891434*
X1337354*
X1334072Y893593D02*
X1336260Y892457D01*
Y894161*
X1334072Y893593D02*
X1337354D01*
X1245582Y941068D02*
Y937787D01*
Y941068D02*
X1246605D01*
X1246946Y940912*
X1247059Y940755*
X1247173Y940443*
Y940130*
X1247059Y939818*
X1246946Y939662*
X1246605Y939505*
X1245582*
X1246378D02*
X1247173Y937787D01*
X1248309Y940287D02*
Y940443D01*
X1248423Y940755*
X1248537Y940912*
X1248764Y941068*
X1249218*
X1249446Y940912*
X1249559Y940755*
X1249673Y940443*
Y940130*
X1249559Y939818*
X1249332Y939349*
X1248196Y937787*
X1249787*
X1250923Y940287D02*
Y940443D01*
X1251037Y940755*
X1251150Y940912*
X1251378Y941068*
X1251832*
X1252059Y940912*
X1252173Y940755*
X1252287Y940443*
Y940130*
X1252173Y939818*
X1251946Y939349*
X1250809Y937787*
X1252400*
X1305672Y886114D02*
X1308953D01*
X1305672D02*
Y887136D01*
X1305828Y887477*
X1305984Y887591*
X1306297Y887705*
X1306609*
X1306922Y887591*
X1307078Y887477*
X1307234Y887136*
Y886114*
Y886909D02*
X1308953Y887705D01*
X1305672Y890205D02*
Y889068D01*
X1307078Y888955*
X1306922Y889068*
X1306766Y889409*
Y889750*
X1306922Y890091*
X1307234Y890318*
X1307703Y890432*
X1308016Y890318*
X1308484Y890205*
X1308797Y889977*
X1308953Y889636*
Y889295*
X1308797Y888955*
X1308641Y888841*
X1308328Y888727*
X1306766Y892932D02*
X1307234Y892818D01*
X1307547Y892591*
X1307703Y892250*
Y892136*
X1307547Y891795*
X1307234Y891568*
X1306766Y891455*
X1306609*
X1306141Y891568*
X1305828Y891795*
X1305672Y892136*
Y892250*
X1305828Y892591*
X1306141Y892818*
X1306766Y892932*
X1307547*
X1308328Y892818*
X1308797Y892591*
X1308953Y892250*
Y892023*
X1308797Y891682*
X1308484Y891568*
X1347140Y899860D02*
X1350422D01*
X1347140D02*
Y900883D01*
X1347297Y901224*
X1347453Y901337*
X1347765Y901451*
X1348078*
X1348390Y901337*
X1348547Y901224*
X1348703Y900883*
Y899860*
Y900656D02*
X1350422Y901451D01*
X1347609Y903837D02*
X1347297Y903724D01*
X1347140Y903383*
Y903156*
X1347297Y902815*
X1347765Y902587*
X1348547Y902474*
X1349328*
X1349953Y902587*
X1350265Y902815*
X1350422Y903156*
Y903269*
X1350265Y903610*
X1349953Y903837*
X1349484Y903951*
X1349328*
X1348859Y903837*
X1348547Y903610*
X1348390Y903269*
Y903156*
X1348547Y902815*
X1348859Y902587*
X1349328Y902474*
X1347922Y905087D02*
X1347765D01*
X1347453Y905201*
X1347297Y905315*
X1347140Y905542*
Y905997*
X1347297Y906224*
X1347453Y906337*
X1347765Y906451*
X1348078*
X1348390Y906337*
X1348859Y906110*
X1350422Y904974*
Y906565*
X1347587Y890540D02*
X1350868D01*
X1347587D02*
Y891562D01*
X1347743Y891903*
X1347900Y892017*
X1348212Y892131*
X1348525*
X1348837Y892017*
X1348993Y891903*
X1349150Y891562*
Y890540*
Y891335D02*
X1350868Y892131D01*
X1348056Y894517D02*
X1347743Y894403D01*
X1347587Y894062*
Y893835*
X1347743Y893494*
X1348212Y893267*
X1348993Y893153*
X1349775*
X1350400Y893267*
X1350712Y893494*
X1350868Y893835*
Y893949*
X1350712Y894290*
X1350400Y894517*
X1349931Y894631*
X1349775*
X1349306Y894517*
X1348993Y894290*
X1348837Y893949*
Y893835*
X1348993Y893494*
X1349306Y893267*
X1349775Y893153*
X1347587Y896790D02*
X1349775Y895653D01*
Y897358*
X1347587Y896790D02*
X1350868D01*
X1365337Y912890D02*
X1368618D01*
X1365337D02*
Y913912D01*
X1365493Y914253*
X1365650Y914367*
X1365962Y914481*
X1366275*
X1366587Y914367*
X1366743Y914253*
X1366900Y913912*
Y912890*
Y913685D02*
X1368618Y914481D01*
X1365337Y916981D02*
Y915844D01*
X1366743Y915731*
X1366587Y915844*
X1366431Y916185*
Y916526*
X1366587Y916867*
X1366900Y917094*
X1367368Y917208*
X1367681Y917094*
X1368150Y916981*
X1368462Y916753*
X1368618Y916412*
Y916072*
X1368462Y915731*
X1368306Y915617*
X1367993Y915503*
X1365337Y919822D02*
X1368618Y918685D01*
X1365337Y918231D02*
Y919822D01*
X1217664Y955271D02*
Y951990D01*
X1216868Y955271D02*
X1218459D01*
X1219482D02*
Y951990D01*
Y955271D02*
X1220505D01*
X1220846Y955115*
X1220959Y954959*
X1221073Y954646*
Y954177*
X1220959Y953865*
X1220846Y953709*
X1220505Y953552*
X1219482*
X1222209Y954490D02*
Y954646D01*
X1222323Y954959*
X1222437Y955115*
X1222664Y955271*
X1223118*
X1223346Y955115*
X1223459Y954959*
X1223573Y954646*
Y954334*
X1223459Y954021*
X1223232Y953552*
X1222096Y951990*
X1223687*
X1367149Y906328D02*
Y903046D01*
X1366354Y906328D02*
X1367944D01*
X1368967D02*
Y903046D01*
Y906328D02*
X1369990D01*
X1370331Y906171*
X1370444Y906015*
X1370558Y905703*
Y905234*
X1370444Y904921*
X1370331Y904765*
X1369990Y904609*
X1368967*
X1372717Y906328D02*
X1371581Y904140D01*
X1373285*
X1372717Y906328D02*
Y903046D01*
X1248464Y955128D02*
Y952784D01*
X1248577Y952316*
X1248805Y952003*
X1249145Y951847*
X1249373*
X1249714Y952003*
X1249941Y952316*
X1250055Y952784*
Y955128*
X1252214D02*
X1251077Y952941D01*
X1252782*
X1252214Y955128D02*
Y951847D01*
X1325471Y917868D02*
X1322190D01*
X1325471D02*
Y916846D01*
X1325315Y916505*
X1325159Y916391*
X1324846Y916278*
X1324534*
X1324221Y916391*
X1324065Y916505*
X1323909Y916846*
Y917868*
Y917073D02*
X1322190Y916278D01*
X1325471Y913778D02*
Y914914D01*
X1324065Y915028*
X1324221Y914914*
X1324377Y914573*
Y914232*
X1324221Y913891*
X1323909Y913664*
X1323440Y913550*
X1323127Y913664*
X1322659Y913778*
X1322346Y914005*
X1322190Y914346*
Y914687*
X1322346Y915028*
X1322502Y915141*
X1322815Y915255*
X1325002Y911164D02*
X1325315Y911278D01*
X1325471Y911618*
Y911846*
X1325315Y912187*
X1324846Y912414*
X1324065Y912528*
X1323284*
X1322659Y912414*
X1322346Y912187*
X1322190Y911846*
Y911732*
X1322346Y911391*
X1322659Y911164*
X1323127Y911050*
X1323284*
X1323752Y911164*
X1324065Y911391*
X1324221Y911732*
Y911846*
X1324065Y912187*
X1323752Y912414*
X1323284Y912528*
X1107118Y861347D02*
X1107005Y861659D01*
X1106777Y861972*
X1106550Y862128*
X1106095*
X1105868Y861972*
X1105641Y861659*
X1105527Y861347*
X1105414Y860878*
Y860097*
X1105527Y859628*
X1105641Y859316*
X1105868Y859003*
X1106095Y858847*
X1106550*
X1106777Y859003*
X1107005Y859316*
X1107118Y859628*
X1109618Y861034D02*
X1109505Y860566D01*
X1109277Y860253*
X1108936Y860097*
X1108823*
X1108482Y860253*
X1108255Y860566*
X1108141Y861034*
Y861191*
X1108255Y861659*
X1108482Y861972*
X1108823Y862128*
X1108936*
X1109277Y861972*
X1109505Y861659*
X1109618Y861034*
Y860253*
X1109505Y859472*
X1109277Y859003*
X1108936Y858847*
X1108709*
X1108368Y859003*
X1108255Y859316*
X1112232Y862128D02*
X1111095Y858847D01*
X1110641Y862128D02*
X1112232D01*
X1248420Y984328D02*
Y981984D01*
X1248534Y981516*
X1248761Y981203*
X1249102Y981047*
X1249330*
X1249670Y981203*
X1249898Y981516*
X1250011Y981984*
Y984328*
X1251261D02*
X1252511D01*
X1251830Y983078*
X1252170*
X1252398Y982922*
X1252511Y982766*
X1252625Y982297*
Y981984*
X1252511Y981516*
X1252284Y981203*
X1251943Y981047*
X1251602*
X1251261Y981203*
X1251148Y981359*
X1251034Y981672*
X1020852Y879234D02*
X1020625Y879078D01*
X1020398Y878766*
X1020284Y878297*
Y877984*
X1020398Y877516*
X1020625Y877203*
X1020852Y877047*
X1021193*
X1021420Y877203*
X1021648Y877516*
X1021761Y877984*
Y878297*
X1021648Y878766*
X1021420Y879078*
X1021193Y879234*
X1020852*
X1239209Y998624D02*
X1238981Y998468D01*
X1238754Y998155*
X1238640Y997687*
Y997374*
X1238754Y996905*
X1238981Y996593*
X1239209Y996437*
X1239549*
X1239777Y996593*
X1240004Y996905*
X1240118Y997374*
Y997687*
X1240004Y998155*
X1239777Y998468*
X1239549Y998624*
X1239209*
X1062852Y879234D02*
X1062625Y879078D01*
X1062398Y878766*
X1062284Y878297*
Y877984*
X1062398Y877516*
X1062625Y877203*
X1062852Y877047*
X1063193*
X1063420Y877203*
X1063648Y877516*
X1063761Y877984*
Y878297*
X1063648Y878766*
X1063420Y879078*
X1063193Y879234*
X1062852*
X1077352D02*
X1077125Y879078D01*
X1076898Y878766*
X1076784Y878297*
Y877984*
X1076898Y877516*
X1077125Y877203*
X1077352Y877047*
X1077693*
X1077920Y877203*
X1078148Y877516*
X1078261Y877984*
Y878297*
X1078148Y878766*
X1077920Y879078*
X1077693Y879234*
X1077352*
X1006352D02*
X1006125Y879078D01*
X1005898Y878766*
X1005784Y878297*
Y877984*
X1005898Y877516*
X1006125Y877203*
X1006352Y877047*
X1006693*
X1006920Y877203*
X1007148Y877516*
X1007261Y877984*
Y878297*
X1007148Y878766*
X1006920Y879078*
X1006693Y879234*
X1006352*
X1015711Y940898D02*
X1015570Y941125D01*
X1015289Y941352*
X1014867Y941466*
X1014586*
X1014164Y941352*
X1013883Y941125*
X1013742Y940898*
Y940557*
X1013883Y940330*
X1014164Y940102*
X1014586Y939989*
X1014867*
X1015289Y940102*
X1015570Y940330*
X1015711Y940557*
Y940898*
X1037752Y1002234D02*
X1037525Y1002078D01*
X1037298Y1001766*
X1037184Y1001297*
Y1000984*
X1037298Y1000516*
X1037525Y1000203*
X1037752Y1000047*
X1038093*
X1038320Y1000203*
X1038548Y1000516*
X1038661Y1000984*
Y1001297*
X1038548Y1001766*
X1038320Y1002078*
X1038093Y1002234*
X1037752*
X1104151Y1007596D02*
X1104308Y1007369D01*
X1104620Y1007142*
X1105089Y1007028*
X1105401*
X1105870Y1007142*
X1106183Y1007369*
X1106339Y1007596*
Y1007937*
X1106183Y1008165*
X1105870Y1008392*
X1105401Y1008505*
X1105089*
X1104620Y1008392*
X1104308Y1008165*
X1104151Y1007937*
Y1007596*
X1148756Y873557D02*
X1148529Y873417D01*
X1148301Y873136*
X1148188Y872714*
Y872432*
X1148301Y872011*
X1148529Y871729*
X1148756Y871589*
X1149097*
X1149324Y871729*
X1149551Y872011*
X1149665Y872432*
Y872714*
X1149551Y873136*
X1149324Y873417*
X1149097Y873557*
X1148756*
X1227919Y1007699D02*
X1228075Y1007471D01*
X1228388Y1007244*
X1228857Y1007131*
X1229169*
X1229638Y1007244*
X1229950Y1007471*
X1230107Y1007699*
Y1008040*
X1229950Y1008267*
X1229638Y1008494*
X1229169Y1008608*
X1228857*
X1228388Y1008494*
X1228075Y1008267*
X1227919Y1008040*
Y1007699*
X1048852Y879234D02*
X1048625Y879078D01*
X1048398Y878766*
X1048284Y878297*
Y877984*
X1048398Y877516*
X1048625Y877203*
X1048852Y877047*
X1049193*
X1049420Y877203*
X1049648Y877516*
X1049761Y877984*
Y878297*
X1049648Y878766*
X1049420Y879078*
X1049193Y879234*
X1048852*
X1034852D02*
X1034625Y879078D01*
X1034398Y878766*
X1034284Y878297*
Y877984*
X1034398Y877516*
X1034625Y877203*
X1034852Y877047*
X1035193*
X1035420Y877203*
X1035648Y877516*
X1035761Y877984*
Y878297*
X1035648Y878766*
X1035420Y879078*
X1035193Y879234*
X1034852*
X1135538Y995671D02*
X1135311Y995515D01*
X1135084Y995202*
X1134970Y994890*
X1134856Y994421*
Y993640*
X1134970Y993171*
X1135084Y992859*
X1135311Y992546*
X1135538Y992390*
X1135993*
X1136220Y992546*
X1136447Y992859*
X1136561Y993171*
X1136674Y993640*
Y994421*
X1136561Y994890*
X1136447Y995202*
X1136220Y995515*
X1135993Y995671*
X1135538*
X1137697D02*
Y992390D01*
Y995671D02*
X1139174D01*
X1137697Y994109D02*
X1138606D01*
X1140197Y995671D02*
Y992390D01*
Y995671D02*
X1141674D01*
X1140197Y994109D02*
X1141106D01*
X1135107Y1014764D02*
X1138388D01*
X1135575Y1017377D02*
X1135263Y1017150D01*
X1135107Y1016809*
Y1016355*
X1135263Y1016014*
X1135575Y1015786*
X1135888*
X1136200Y1015900*
X1136357Y1016014*
X1136513Y1016241*
X1136825Y1016923*
X1136982Y1017150*
X1137138Y1017264*
X1137450Y1017377*
X1137919*
X1138232Y1017150*
X1138388Y1016809*
Y1016355*
X1138232Y1016014*
X1137919Y1015786*
X1135107Y1019082D02*
X1135263Y1018855D01*
X1135575Y1018627*
X1135888Y1018514*
X1136357Y1018400*
X1137138*
X1137607Y1018514*
X1137919Y1018627*
X1138232Y1018855*
X1138388Y1019082*
Y1019536*
X1138232Y1019764*
X1137919Y1019991*
X1137607Y1020105*
X1137138Y1020218*
X1136357*
X1135888Y1020105*
X1135575Y1019991*
X1135263Y1019764*
X1135107Y1019536*
Y1019082*
Y1000900D02*
X1137607D01*
X1138075Y1000786*
X1138232Y1000673*
X1138388Y1000446*
Y1000218*
X1138232Y999991*
X1138075Y999877*
X1137607Y999764*
X1137294*
X1135107Y1002718D02*
X1138388D01*
X1135107Y1001923D02*
Y1003514D01*
Y1005446D02*
X1138388Y1004536D01*
X1135107Y1005446D02*
X1138388Y1006355D01*
X1137294Y1004877D02*
Y1006014D01*
X1135888Y1009082D02*
X1135575Y1008968D01*
X1135263Y1008741*
X1135107Y1008514*
Y1008059*
X1135263Y1007832*
X1135575Y1007605*
X1135888Y1007491*
X1136357Y1007377*
X1137138*
X1137607Y1007491*
X1137919Y1007605*
X1138232Y1007832*
X1138388Y1008059*
Y1008514*
X1138232Y1008741*
X1137919Y1008968*
X1137607Y1009082*
X1137138*
Y1008514D02*
Y1009082D01*
X1157719Y1015500D02*
X1161000D01*
X1158187Y1018114D02*
X1157875Y1017886D01*
X1157719Y1017545*
Y1017091*
X1157875Y1016750*
X1158187Y1016523*
X1158187D02*
X1158500D01*
X1158812Y1016636*
X1158812D02*
X1158969Y1016750D01*
X1159125Y1016977*
X1159437Y1017659*
X1159437D02*
X1159594Y1017886D01*
X1159750Y1018000*
X1160062Y1018114*
X1160062D02*
X1160531D01*
X1160844Y1017886*
X1161000Y1017545*
Y1017091*
X1160844Y1016750*
X1160531Y1016523*
X1157719Y1019818D02*
X1157875Y1019591D01*
X1158187Y1019364*
X1158187D02*
X1158500Y1019250D01*
X1158969Y1019136*
X1159750*
X1160219Y1019250*
X1160531Y1019364*
X1160844Y1019591*
X1161000Y1019818*
Y1020273*
X1160844Y1020500*
X1160531Y1020727*
X1160219Y1020841*
X1159750Y1020955*
X1158969*
X1158500Y1020841*
X1158187Y1020727*
X1158187D02*
X1157875Y1020500D01*
X1157719Y1020273*
Y1019818*
Y999500D02*
X1160062D01*
X1160062D02*
X1160531Y999614D01*
X1160844Y999841*
X1161000Y1000182*
Y1000409*
X1160844Y1000750*
X1160531Y1000977*
X1160062Y1001091*
X1160062D02*
X1157719D01*
Y1003023D02*
X1161000Y1002114D01*
X1157719Y1003023D02*
X1161000Y1003932D01*
X1159906Y1002455D02*
Y1003591D01*
X1157719Y1004955D02*
X1161000D01*
X1157719D02*
Y1005977D01*
X1157875Y1006318*
X1158031Y1006432*
X1158344Y1006545*
X1158656*
X1158969Y1006432*
X1159125Y1006318*
X1159281Y1005977*
Y1004955*
Y1005750D02*
X1161000Y1006545D01*
X1157719Y1008364D02*
X1161000D01*
X1157719Y1007568D02*
Y1009159D01*
X1215000Y912656D02*
X1215227Y912813D01*
X1215227D02*
X1215568Y913281D01*
Y910000*
X1215114Y905000D02*
Y905156D01*
X1215227Y905469*
X1215341Y905625*
X1215568Y905781*
X1216023*
X1216250Y905625*
X1216364Y905469*
X1216477Y905156*
Y904844*
X1216364Y904531*
X1216136Y904063*
X1216136D02*
X1215000Y902500D01*
X1216591*
X1215227Y897781D02*
X1216477D01*
X1215795Y896531*
X1216136*
X1216364Y896375*
X1216477Y896219*
X1216591Y895750*
Y895438*
X1216591D02*
X1216477Y894969D01*
X1216250Y894656*
X1215909Y894500*
X1215568*
X1215227Y894656*
X1215114Y894813*
X1215114D02*
X1215000Y895125D01*
G74*
X0Y0D02*
M02*
