*
*
G04 PADS9.1 Build Number: 384028 generated Gerber (RS-274-X) file*
G04 PC Version=2.1*
*
%IN "{TEX113}_F2837x control"*%
*
%MOIN*%
*
%FSLAX35Y35*%
*
*
*
*
G04 PC Standard Apertures*
*
*
G04 Thermal Relief Aperture macro.*
%AMTER*
1,1,$1,0,0*
1,0,$1-$2,0,0*
21,0,$3,$4,0,0,45*
21,0,$3,$4,0,0,135*
%
*
*
G04 Annular Aperture macro.*
%AMANN*
1,1,$1,0,0*
1,0,$2,0,0*
%
*
*
G04 Odd Aperture macro.*
%AMODD*
1,1,$1,0,0*
1,0,$1-0.005,0,0*
%
*
*
G04 PC Custom Aperture Macros*
*
*
*
*
*
*
G04 PC Aperture Table*
*
%ADD108R,0.031X0.031*%
%ADD109R,0.049X0.045*%
%ADD110R,0.057X0.065*%
%ADD111R,0.045X0.049*%
%ADD113R,0.068X0.068*%
%ADD114C,0.068*%
%ADD115R,0.065X0.057*%
%ADD127R,0.071X0.032*%
%ADD158C,0*%
%ADD188C,0.01*%
%ADD194C,0.008*%
%ADD206C,0.046*%
%ADD212R,0.056X0.069*%
%ADD215R,0.016X0.059*%
%ADD216R,0.059X0.016*%
%ADD219C,0.055*%
%ADD235R,0.051X0.131*%
%ADD248C,0.025*%
%ADD249R,0.111X0.106*%
%ADD250R,0.046X0.056*%
%ADD263R,0.034X0.016*%
%ADD282R,0.041X0.041*%
*
*
*
*
G04 PC Circuitry*
G04 Layer Name {TEX113}_F2837x control - circuitry*
%LPD*%
*
*
G04 PC Custom Flashes*
G04 Layer Name {TEX113}_F2837x control - flashes*
%LPD*%
*
*
G04 PC Circuitry*
G04 Layer Name {TEX113}_F2837x control - circuitry*
%LPD*%
*
G54D108*
G01X1167653Y959248D03*
Y955248D03*
X1314154Y996346D03*
Y1000346D03*
X1095700Y876100D03*
Y872100D03*
X1200154Y936846D03*
X1196154D03*
X1246154Y1004346D03*
Y1008346D03*
X1135654Y923846D03*
X1139654D03*
X1020000Y923500D03*
Y927500D03*
X1011728Y1001519D03*
Y1005519D03*
X1032000Y927500D03*
Y923500D03*
X985000Y1001500D03*
X989000D03*
Y971500D03*
X985000D03*
X1218807Y1014693D03*
Y1018693D03*
X1019228Y992019D03*
Y988019D03*
X1023869Y990268D03*
Y986268D03*
X1040981Y1011390D03*
X1044981D03*
X1234654Y989846D03*
Y985846D03*
X1159307Y883193D03*
Y879193D03*
X1059981Y1011890D03*
Y1015890D03*
X1091981Y1011890D03*
Y1015890D03*
X1059981Y987890D03*
Y991890D03*
X1091981Y987890D03*
Y991890D03*
X1086654Y946846D03*
Y950846D03*
X1055824Y974549D03*
X1059824D03*
X1097024D03*
X1093024D03*
X1125606Y1000890D03*
Y1004890D03*
X1120606Y1000890D03*
Y1004890D03*
X1143118Y956990D03*
X1139118D03*
X1020654Y897846D03*
Y893846D03*
X1309154Y996346D03*
Y1000346D03*
X1339654Y999846D03*
Y995846D03*
X1156154Y924346D03*
Y928346D03*
X1157154Y946346D03*
Y942346D03*
X1153154Y946346D03*
Y942346D03*
X1149154Y946346D03*
Y942346D03*
X1145654Y938646D03*
X1149654D03*
X1151500Y901000D03*
X1155500D03*
X1148554Y928746D03*
X1152554D03*
X1148654Y924346D03*
X1152654D03*
X1127000Y961500D03*
Y965500D03*
X1165154Y924346D03*
Y928346D03*
X1169654Y924346D03*
Y928346D03*
X1187000Y965000D03*
X1191000D03*
X1169654Y946346D03*
X1165654D03*
X1161154D03*
Y942346D03*
X1241004Y983096D03*
X1245004D03*
X1049154Y897846D03*
Y893846D03*
X1167654Y909846D03*
Y913846D03*
X1188154Y914346D03*
X1184154D03*
X1180254Y933546D03*
X1176254D03*
X1158654Y959846D03*
Y955846D03*
X1136154Y936846D03*
X1140154D03*
X1187154Y949346D03*
X1183154D03*
X1107354Y989046D03*
X1103354D03*
Y994146D03*
X1107354D03*
X1299000Y916000D03*
Y920000D03*
X1294000Y903500D03*
Y907500D03*
X1299000Y903500D03*
Y907500D03*
X1200154Y941846D03*
X1196154D03*
X1077154Y897346D03*
Y893346D03*
X1327154Y1002846D03*
X1323154D03*
X1158654Y914346D03*
Y918346D03*
X1135654Y928846D03*
X1139654D03*
X1204154Y961346D03*
X1200154D03*
X1204154Y956846D03*
X1200154D03*
X1158654Y905346D03*
Y909346D03*
X1125154Y950846D03*
Y946846D03*
X1245000Y965000D03*
Y961000D03*
X1250500Y959000D03*
Y955000D03*
X1169654Y932846D03*
X1165654D03*
X1192500Y908500D03*
Y904500D03*
X1294000Y916000D03*
Y920000D03*
X1209154Y916846D03*
X1213154D03*
X1198654Y927346D03*
X1202654D03*
Y922846D03*
X1198654D03*
X1202654Y918846D03*
X1198654D03*
X1316154Y935252D03*
Y931252D03*
X1114700Y899600D03*
X1110700D03*
X1115500Y879900D03*
Y883900D03*
X1114700Y904300D03*
X1110700D03*
G54D109*
X1207504Y966846D03*
X1200804D03*
X1116000Y921350D03*
X1122700D03*
X1107750Y888700D03*
X1101050D03*
X1101550Y912100D03*
X1108250D03*
G54D110*
X987592Y963890D03*
X980092D03*
X987592Y953890D03*
X980092D03*
X1044062Y990482D03*
X1036562D03*
X1224904Y975846D03*
X1217404D03*
X1208904D03*
X1201404D03*
G54D111*
X1013728Y994369D03*
Y987669D03*
X1029287Y996982D03*
Y990282D03*
X1118154Y954196D03*
Y947496D03*
X1038154Y884696D03*
Y877996D03*
X1045654Y884696D03*
Y877996D03*
X1010154Y884696D03*
Y877996D03*
X1017154Y884696D03*
Y877996D03*
X1024154Y884696D03*
Y877996D03*
X1031654Y884696D03*
Y877996D03*
X1160654Y982696D03*
Y975996D03*
X1124154Y934696D03*
Y927996D03*
X1197654Y911696D03*
Y904996D03*
X1011500Y857650D03*
Y864350D03*
X1018000Y857650D03*
Y864350D03*
X1024500Y857650D03*
Y864350D03*
X1031000Y857650D03*
Y864350D03*
X1037500Y857650D03*
Y864350D03*
X1044000Y857650D03*
Y864350D03*
X1050500Y857650D03*
Y864350D03*
X1057000Y857650D03*
Y864350D03*
X1070000Y857650D03*
Y864350D03*
X1076500Y857650D03*
Y864350D03*
X1083000Y857650D03*
Y864350D03*
X1052154Y884696D03*
Y877996D03*
X1066154Y884696D03*
Y877996D03*
X1073654Y884696D03*
Y877996D03*
X1094500Y887150D03*
Y893850D03*
X1080654Y884696D03*
Y877996D03*
X1088154Y884696D03*
Y877996D03*
X1059654Y884696D03*
Y877996D03*
X1225807Y1011843D03*
Y1018543D03*
X1063500Y857650D03*
Y864350D03*
G54D113*
X1224154Y911846D03*
X1234154D03*
X1244154D03*
X1254154D03*
X1264154D03*
X1274154D03*
G54D114*
X1224154Y903972D03*
Y896098D03*
X1234154Y903972D03*
Y896098D03*
X1244154Y903972D03*
Y896098D03*
X1254154Y903972D03*
Y896098D03*
X1264154Y903972D03*
Y896098D03*
X1274154Y903972D03*
Y896098D03*
G54D115*
X1006228Y995769D03*
Y988269D03*
X1182654Y875502D03*
Y883002D03*
X1191654Y875502D03*
Y883002D03*
X1200654Y875502D03*
Y883002D03*
X1209654Y875502D03*
Y883002D03*
X1142654Y975596D03*
Y983096D03*
X1152154D03*
Y975596D03*
G54D127*
X1085481Y974390D03*
Y969390D03*
Y964390D03*
Y959390D03*
X1065481D03*
Y964390D03*
Y969390D03*
Y974390D03*
G54D158*
G54D188*
X1451097Y383484D02*
Y373641D01*
X1455187*
X1460983Y383484D02*
X1458256Y373641D01*
X1460983Y383484D02*
X1463710Y373641D01*
X1459278Y376922D02*
X1462687D01*
X1466778Y383484D02*
X1469506Y378797D01*
Y373641*
X1472233Y383484D02*
X1469506Y378797D01*
X1475301Y383484D02*
Y373641D01*
Y383484D02*
X1479733D01*
X1475301Y378797D02*
X1478028D01*
X1475301Y373641D02*
X1479733D01*
X1482801Y383484D02*
Y373641D01*
Y383484D02*
X1485869D01*
X1486892Y383016*
X1487233Y382547*
X1487574Y381609*
Y380672*
X1487233Y379734*
X1486892Y379266*
X1485869Y378797*
X1482801*
X1485187D02*
X1487574Y373641D01*
X1418244Y554334D02*
X1415517Y544490D01*
X1418244Y554334D02*
X1420972Y544490D01*
X1416540Y547771D02*
X1419949D01*
X1424040Y551052D02*
Y544490D01*
Y548240D02*
X1424381Y549646D01*
X1425063Y550584*
X1425744Y551052*
X1426767*
X1430858Y554334D02*
Y546365D01*
X1431199Y544959*
X1431881Y544490*
X1432563*
X1429835Y551052D02*
X1432222D01*
X1435631D02*
X1436994Y544490D01*
X1438358Y551052D02*
X1436994Y544490D01*
X1438358Y551052D02*
X1439722Y544490D01*
X1441085Y551052D02*
X1439722Y544490D01*
X1445858Y551052D02*
X1445176Y550584D01*
X1444494Y549646*
X1444153Y548240*
Y547302*
X1444494Y545896*
X1445176Y544959*
X1445858Y544490*
X1446881*
X1447563Y544959*
X1448244Y545896*
X1448585Y547302*
Y548240*
X1448244Y549646*
X1447563Y550584*
X1446881Y551052*
X1445858*
X1451653D02*
Y544490D01*
Y548240D02*
X1451994Y549646D01*
X1452676Y550584*
X1453358Y551052*
X1454381*
X1457449Y554334D02*
Y544490D01*
X1460858Y551052D02*
X1457449Y546365D01*
X1458813Y548240D02*
X1461199Y544490D01*
X1472108Y554334D02*
Y544490D01*
Y554334D02*
X1474494D01*
X1475517Y553865*
X1476199Y552927*
X1476540Y551990*
X1476881Y550584*
Y548240*
X1476540Y546834*
X1476199Y545896*
X1475517Y544959*
X1474494Y544490*
X1472108*
X1479949Y548240D02*
X1484040D01*
Y549177*
X1483699Y550115*
X1483358Y550584*
X1482676Y551052*
X1481653*
X1480972Y550584*
X1480290Y549646*
X1479949Y548240*
Y547302*
X1480290Y545896*
X1480972Y544959*
X1481653Y544490*
X1482676*
X1483358Y544959*
X1484040Y545896*
X1490858Y549646D02*
X1490517Y550584D01*
X1489494Y551052*
X1488472*
X1487449Y550584*
X1487108Y549646*
X1487449Y548709*
X1488131Y548240*
X1489835Y547771*
X1490517Y547302*
X1490858Y546365*
Y545896*
X1490517Y544959*
X1489494Y544490*
X1488472*
X1487449Y544959*
X1487108Y545896*
X1493926Y554334D02*
X1494267Y553865D01*
X1494608Y554334*
X1494267Y554802*
X1493926Y554334*
X1494267Y551052D02*
Y544490D01*
X1501767Y551052D02*
Y543552D01*
X1501426Y542146*
X1501085Y541677*
X1500403Y541209*
X1499381*
X1498699Y541677*
X1501767Y549646D02*
X1501085Y550584D01*
X1500403Y551052*
X1499381*
X1498699Y550584*
X1498017Y549646*
X1497676Y548240*
Y547302*
X1498017Y545896*
X1498699Y544959*
X1499381Y544490*
X1500403*
X1501085Y544959*
X1501767Y545896*
X1504835Y551052D02*
Y544490D01*
Y549177D02*
X1505858Y550584D01*
X1506540Y551052*
X1507563*
X1508244Y550584*
X1508585Y549177*
Y544490*
X1511653Y548240D02*
X1515744D01*
Y549177*
X1515403Y550115*
X1515063Y550584*
X1514381Y551052*
X1513358*
X1512676Y550584*
X1511994Y549646*
X1511653Y548240*
Y547302*
X1511994Y545896*
X1512676Y544959*
X1513358Y544490*
X1514381*
X1515063Y544959*
X1515744Y545896*
X1522903Y554334D02*
Y544490D01*
Y549646D02*
X1522222Y550584D01*
X1521540Y551052*
X1520517*
X1519835Y550584*
X1519153Y549646*
X1518813Y548240*
Y547302*
X1519153Y545896*
X1519835Y544959*
X1520517Y544490*
X1521540*
X1522222Y544959*
X1522903Y545896*
X1533813Y554334D02*
Y544490D01*
Y554334D02*
X1538244D01*
X1533813Y549646D02*
X1536540D01*
X1543017Y551052D02*
X1542335Y550584D01*
X1541653Y549646*
X1541313Y548240*
Y547302*
X1541653Y545896*
X1542335Y544959*
X1543017Y544490*
X1544040*
X1544722Y544959*
X1545403Y545896*
X1545744Y547302*
Y548240*
X1545403Y549646*
X1544722Y550584*
X1544040Y551052*
X1543017*
X1548813D02*
Y544490D01*
Y548240D02*
X1549153Y549646D01*
X1549835Y550584*
X1550517Y551052*
X1551540*
X1554949D02*
X1554608Y550584D01*
X1554949Y550115*
X1555290Y550584*
X1554949Y551052*
Y545427D02*
X1554608Y544959D01*
X1554949Y544490*
X1555290Y544959*
X1554949Y545427*
X1415517Y499334D02*
Y489490D01*
Y499334D02*
X1418585D01*
X1419608Y498865*
X1419949Y498396*
X1420290Y497459*
Y496521*
X1419949Y495584*
X1419608Y495115*
X1418585Y494646*
X1415517D02*
X1418585D01*
X1419608Y494177*
X1419949Y493709*
X1420290Y492771*
Y491365*
X1419949Y490427*
X1419608Y489959*
X1418585Y489490*
X1415517*
X1425063Y496052D02*
X1424381Y495584D01*
X1423699Y494646*
X1423358Y493240*
Y492302*
X1423699Y490896*
X1424381Y489959*
X1425063Y489490*
X1426085*
X1426767Y489959*
X1427449Y490896*
X1427790Y492302*
Y493240*
X1427449Y494646*
X1426767Y495584*
X1426085Y496052*
X1425063*
X1434949D02*
Y489490D01*
Y494646D02*
X1434267Y495584D01*
X1433585Y496052*
X1432563*
X1431881Y495584*
X1431199Y494646*
X1430858Y493240*
Y492302*
X1431199Y490896*
X1431881Y489959*
X1432563Y489490*
X1433585*
X1434267Y489959*
X1434949Y490896*
X1438017Y496052D02*
Y489490D01*
Y493240D02*
X1438358Y494646D01*
X1439040Y495584*
X1439722Y496052*
X1440744*
X1447903Y499334D02*
Y489490D01*
Y494646D02*
X1447222Y495584D01*
X1446540Y496052*
X1445517*
X1444835Y495584*
X1444153Y494646*
X1443813Y493240*
Y492302*
X1444153Y490896*
X1444835Y489959*
X1445517Y489490*
X1446540*
X1447222Y489959*
X1447903Y490896*
X1458813Y499334D02*
Y489490D01*
Y499334D02*
X1461199D01*
X1462222Y498865*
X1462903Y497927*
X1463244Y496990*
X1463585Y495584*
Y493240*
X1463244Y491834*
X1462903Y490896*
X1462222Y489959*
X1461199Y489490*
X1458813*
X1466653Y493240D02*
X1470744D01*
Y494177*
X1470403Y495115*
X1470063Y495584*
X1469381Y496052*
X1468358*
X1467676Y495584*
X1466994Y494646*
X1466653Y493240*
Y492302*
X1466994Y490896*
X1467676Y489959*
X1468358Y489490*
X1469381*
X1470063Y489959*
X1470744Y490896*
X1477563Y494646D02*
X1477222Y495584D01*
X1476199Y496052*
X1475176*
X1474153Y495584*
X1473813Y494646*
X1474153Y493709*
X1474835Y493240*
X1476540Y492771*
X1477222Y492302*
X1477563Y491365*
Y490896*
X1477222Y489959*
X1476199Y489490*
X1475176*
X1474153Y489959*
X1473813Y490896*
X1484722Y494646D02*
X1484040Y495584D01*
X1483358Y496052*
X1482335*
X1481653Y495584*
X1480972Y494646*
X1480631Y493240*
Y492302*
X1480972Y490896*
X1481653Y489959*
X1482335Y489490*
X1483358*
X1484040Y489959*
X1484722Y490896*
X1487790Y496052D02*
Y489490D01*
Y493240D02*
X1488131Y494646D01*
X1488813Y495584*
X1489494Y496052*
X1490517*
X1493585Y499334D02*
X1493926Y498865D01*
X1494267Y499334*
X1493926Y499802*
X1493585Y499334*
X1493926Y496052D02*
Y489490D01*
X1497335Y496052D02*
Y486209D01*
Y494646D02*
X1498017Y495584D01*
X1498699Y496052*
X1499722*
X1500403Y495584*
X1501085Y494646*
X1501426Y493240*
Y492302*
X1501085Y490896*
X1500403Y489959*
X1499722Y489490*
X1498699*
X1498017Y489959*
X1497335Y490896*
X1505517Y499334D02*
Y491365D01*
X1505858Y489959*
X1506540Y489490*
X1507222*
X1504494Y496052D02*
X1506881D01*
X1510290Y499334D02*
X1510631Y498865D01*
X1510972Y499334*
X1510631Y499802*
X1510290Y499334*
X1510631Y496052D02*
Y489490D01*
X1515744Y496052D02*
X1515063Y495584D01*
X1514381Y494646*
X1514040Y493240*
Y492302*
X1514381Y490896*
X1515063Y489959*
X1515744Y489490*
X1516767*
X1517449Y489959*
X1518131Y490896*
X1518472Y492302*
Y493240*
X1518131Y494646*
X1517449Y495584*
X1516767Y496052*
X1515744*
X1521540D02*
Y489490D01*
Y494177D02*
X1522563Y495584D01*
X1523244Y496052*
X1524267*
X1524949Y495584*
X1525290Y494177*
Y489490*
X1528699Y496052D02*
X1528358Y495584D01*
X1528699Y495115*
X1529040Y495584*
X1528699Y496052*
Y490427D02*
X1528358Y489959D01*
X1528699Y489490*
X1529040Y489959*
X1528699Y490427*
X1415517Y429334D02*
Y419490D01*
Y429334D02*
X1418585D01*
X1419608Y428865*
X1419949Y428396*
X1420290Y427459*
Y426052*
X1419949Y425115*
X1419608Y424646*
X1418585Y424177*
X1415517*
X1427449Y426052D02*
Y419490D01*
Y424646D02*
X1426767Y425584D01*
X1426085Y426052*
X1425063*
X1424381Y425584*
X1423699Y424646*
X1423358Y423240*
Y422302*
X1423699Y420896*
X1424381Y419959*
X1425063Y419490*
X1426085*
X1426767Y419959*
X1427449Y420896*
X1430517Y426052D02*
Y419490D01*
Y423240D02*
X1430858Y424646D01*
X1431540Y425584*
X1432222Y426052*
X1433244*
X1437335Y429334D02*
Y421365D01*
X1437676Y419959*
X1438358Y419490*
X1439040*
X1436313Y426052D02*
X1438699D01*
X1449949Y429334D02*
Y419490D01*
Y429334D02*
X1454722Y419490D01*
Y429334D02*
Y419490D01*
X1459494Y426052D02*
X1458813Y425584D01*
X1458131Y424646*
X1457790Y423240*
Y422302*
X1458131Y420896*
X1458813Y419959*
X1459494Y419490*
X1460517*
X1461199Y419959*
X1461881Y420896*
X1462222Y422302*
Y423240*
X1461881Y424646*
X1461199Y425584*
X1460517Y426052*
X1459494*
X1465631D02*
X1465290Y425584D01*
X1465631Y425115*
X1465972Y425584*
X1465631Y426052*
Y420427D02*
X1465290Y419959D01*
X1465631Y419490*
X1465972Y419959*
X1465631Y420427*
X1715517Y429334D02*
Y419490D01*
Y429334D02*
X1718585D01*
X1719608Y428865*
X1719949Y428396*
X1720290Y427459*
Y426521*
X1719949Y425584*
X1719608Y425115*
X1718585Y424646*
X1715517*
X1717903D02*
X1720290Y419490D01*
X1723358Y423240D02*
X1727449D01*
Y424177*
X1727108Y425115*
X1726767Y425584*
X1726085Y426052*
X1725063*
X1724381Y425584*
X1723699Y424646*
X1723358Y423240*
Y422302*
X1723699Y420896*
X1724381Y419959*
X1725063Y419490*
X1726085*
X1726767Y419959*
X1727449Y420896*
X1730517Y426052D02*
X1732563Y419490D01*
X1734608Y426052D02*
X1732563Y419490D01*
X1737676Y429334D02*
X1738017Y428865D01*
X1738358Y429334*
X1738017Y429802*
X1737676Y429334*
X1738017Y426052D02*
Y419490D01*
X1745176Y424646D02*
X1744835Y425584D01*
X1743813Y426052*
X1742790*
X1741767Y425584*
X1741426Y424646*
X1741767Y423709*
X1742449Y423240*
X1744153Y422771*
X1744835Y422302*
X1745176Y421365*
Y420896*
X1744835Y419959*
X1743813Y419490*
X1742790*
X1741767Y419959*
X1741426Y420896*
X1748244Y429334D02*
X1748585Y428865D01*
X1748926Y429334*
X1748585Y429802*
X1748244Y429334*
X1748585Y426052D02*
Y419490D01*
X1753699Y426052D02*
X1753017Y425584D01*
X1752335Y424646*
X1751994Y423240*
Y422302*
X1752335Y420896*
X1753017Y419959*
X1753699Y419490*
X1754722*
X1755403Y419959*
X1756085Y420896*
X1756426Y422302*
Y423240*
X1756085Y424646*
X1755403Y425584*
X1754722Y426052*
X1753699*
X1759494D02*
Y419490D01*
Y424177D02*
X1760517Y425584D01*
X1761199Y426052*
X1762222*
X1762903Y425584*
X1763244Y424177*
Y419490*
X1766653Y426052D02*
X1766313Y425584D01*
X1766653Y425115*
X1766994Y425584*
X1766653Y426052*
Y420427D02*
X1766313Y419959D01*
X1766653Y419490*
X1766994Y419959*
X1766653Y420427*
X1510517Y417615D02*
Y404490D01*
Y417615D02*
X1516426D01*
X1510517Y411365D02*
X1514153D01*
X1520972Y414490D02*
Y415115D01*
X1521426Y416365*
X1521881Y416990*
X1522790Y417615*
X1524608*
X1525517Y416990*
X1525972Y416365*
X1526426Y415115*
Y413865*
X1525972Y412615*
X1525063Y410740*
X1520517Y404490*
X1526881*
X1533244Y417615D02*
X1531881Y416990D01*
X1531426Y415740*
Y414490*
X1531881Y413240*
X1532790Y412615*
X1534608Y411990*
X1535972Y411365*
X1536881Y410115*
X1537335Y408865*
Y406990*
X1536881Y405740*
X1536426Y405115*
X1535063Y404490*
X1533244*
X1531881Y405115*
X1531426Y405740*
X1530972Y406990*
Y408865*
X1531426Y410115*
X1532335Y411365*
X1533699Y411990*
X1535517Y412615*
X1536426Y413240*
X1536881Y414490*
Y415740*
X1536426Y416990*
X1535063Y417615*
X1533244*
X1542335D02*
X1547335D01*
X1544608Y412615*
X1545972*
X1546881Y411990*
X1547335Y411365*
X1547790Y409490*
Y408240*
X1547335Y406365*
X1546426Y405115*
X1545063Y404490*
X1543699*
X1542335Y405115*
X1541881Y405740*
X1541426Y406990*
X1558244Y417615D02*
X1553699Y404490D01*
X1551881Y417615D02*
X1558244D01*
X1562335Y413240D02*
X1567335Y404490D01*
Y413240D02*
X1562335Y404490D01*
X1587335Y411365D02*
X1586426Y412615D01*
X1585517Y413240*
X1584153*
X1583244Y412615*
X1582335Y411365*
X1581881Y409490*
Y408240*
X1582335Y406365*
X1583244Y405115*
X1584153Y404490*
X1585517*
X1586426Y405115*
X1587335Y406365*
X1593699Y413240D02*
X1592790Y412615D01*
X1591881Y411365*
X1591426Y409490*
Y408240*
X1591881Y406365*
X1592790Y405115*
X1593699Y404490*
X1595063*
X1595972Y405115*
X1596881Y406365*
X1597335Y408240*
Y409490*
X1596881Y411365*
X1595972Y412615*
X1595063Y413240*
X1593699*
X1601426D02*
Y404490D01*
Y410740D02*
X1602790Y412615D01*
X1603699Y413240*
X1605063*
X1605972Y412615*
X1606426Y410740*
Y404490*
X1611881Y417615D02*
Y406990D01*
X1612335Y405115*
X1613244Y404490*
X1614153*
X1610517Y413240D02*
X1613699D01*
X1618244D02*
Y404490D01*
Y409490D02*
X1618699Y411365D01*
X1619608Y412615*
X1620517Y413240*
X1621881*
X1628244D02*
X1627335Y412615D01*
X1626426Y411365*
X1625972Y409490*
Y408240*
X1626426Y406365*
X1627335Y405115*
X1628244Y404490*
X1629608*
X1630517Y405115*
X1631426Y406365*
X1631881Y408240*
Y409490*
X1631426Y411365*
X1630517Y412615*
X1629608Y413240*
X1628244*
X1635972Y417615D02*
Y404490D01*
X1646881Y414490D02*
X1646426Y415740D01*
X1645517Y416990*
X1644608Y417615*
X1642790*
X1641881Y416990*
X1640972Y415740*
X1640517Y414490*
X1640063Y412615*
Y409490*
X1640517Y407615*
X1640972Y406365*
X1641881Y405115*
X1642790Y404490*
X1644608*
X1645517Y405115*
X1646426Y406365*
X1646881Y407615*
X1654608Y417615D02*
X1650972Y404490D01*
X1654608Y417615D02*
X1658244Y404490D01*
X1652335Y408865D02*
X1656881D01*
X1662335Y417615D02*
Y404490D01*
Y417615D02*
X1666426D01*
X1667790Y416990*
X1668244Y416365*
X1668699Y415115*
Y413865*
X1668244Y412615*
X1667790Y411990*
X1666426Y411365*
X1662335*
X1665517D02*
X1668699Y404490D01*
X1672790Y417615D02*
Y404490D01*
Y417615D02*
X1675972D01*
X1677335Y416990*
X1678244Y415740*
X1678699Y414490*
X1679153Y412615*
Y409490*
X1678699Y407615*
X1678244Y406365*
X1677335Y405115*
X1675972Y404490*
X1672790*
X1796835Y415115D02*
X1797744Y415740D01*
X1799108Y417615*
Y404490*
X1803653Y405740D02*
X1803199Y405115D01*
X1803653Y404490*
X1804108Y405115*
X1803653Y405740*
X1808199Y415115D02*
X1809108Y415740D01*
X1810472Y417615*
Y404490*
X1548199Y529802D02*
Y516677D01*
X1545017Y529802D02*
X1551381D01*
X1555472D02*
Y516677D01*
Y529802D02*
X1561381D01*
X1555472Y523552D02*
X1559108D01*
X1555472Y516677D02*
X1561381D01*
X1565472Y529802D02*
X1571835Y516677D01*
Y529802D02*
X1565472Y516677D01*
X1579563Y529802D02*
X1575926Y516677D01*
X1579563Y529802D02*
X1583199Y516677D01*
X1577290Y521052D02*
X1581835D01*
X1593653Y527927D02*
X1592744Y529177D01*
X1591381Y529802*
X1589563*
X1588199Y529177*
X1587290Y527927*
Y526677*
X1587744Y525427*
X1588199Y524802*
X1589108Y524177*
X1591835Y522927*
X1592744Y522302*
X1593199Y521677*
X1593653Y520427*
Y518552*
X1592744Y517302*
X1591381Y516677*
X1589563*
X1588199Y517302*
X1587290Y518552*
X1608199Y529802D02*
Y516677D01*
X1612290Y529802D02*
Y516677D01*
Y529802D02*
X1618653Y516677D01*
Y529802D02*
Y516677D01*
X1629108Y527927D02*
X1628199Y529177D01*
X1626835Y529802*
X1625017*
X1623653Y529177*
X1622744Y527927*
Y526677*
X1623199Y525427*
X1623653Y524802*
X1624563Y524177*
X1627290Y522927*
X1628199Y522302*
X1628653Y521677*
X1629108Y520427*
Y518552*
X1628199Y517302*
X1626835Y516677*
X1625017*
X1623653Y517302*
X1622744Y518552*
X1636381Y529802D02*
Y516677D01*
X1633199Y529802D02*
X1639563D01*
X1643653D02*
Y516677D01*
Y529802D02*
X1647744D01*
X1649108Y529177*
X1649563Y528552*
X1650017Y527302*
Y526052*
X1649563Y524802*
X1649108Y524177*
X1647744Y523552*
X1643653*
X1646835D02*
X1650017Y516677D01*
X1654108Y529802D02*
Y520427D01*
X1654563Y518552*
X1655472Y517302*
X1656835Y516677*
X1657744*
X1659108Y517302*
X1660017Y518552*
X1660472Y520427*
Y529802*
X1664563D02*
Y516677D01*
Y529802D02*
X1668199Y516677D01*
X1671835Y529802D02*
X1668199Y516677D01*
X1671835Y529802D02*
Y516677D01*
X1675926Y529802D02*
Y516677D01*
Y529802D02*
X1681835D01*
X1675926Y523552D02*
X1679563D01*
X1675926Y516677D02*
X1681835D01*
X1685926Y529802D02*
Y516677D01*
Y529802D02*
X1692290Y516677D01*
Y529802D02*
Y516677D01*
X1699563Y529802D02*
Y516677D01*
X1696381Y529802D02*
X1702744D01*
X1713199Y527927D02*
X1712290Y529177D01*
X1710926Y529802*
X1709108*
X1707744Y529177*
X1706835Y527927*
Y526677*
X1707290Y525427*
X1707744Y524802*
X1708653Y524177*
X1711381Y522927*
X1712290Y522302*
X1712744Y521677*
X1713199Y520427*
Y518552*
X1712290Y517302*
X1710926Y516677*
X1709108*
X1707744Y517302*
X1706835Y518552*
X1543881Y479802D02*
Y466677D01*
Y479802D02*
X1549790D01*
X1543881Y473552D02*
X1547517D01*
X1554335Y476677D02*
Y477302D01*
X1554790Y478552*
X1555244Y479177*
X1556153Y479802*
X1557972*
X1558881Y479177*
X1559335Y478552*
X1559790Y477302*
Y476052*
X1559335Y474802*
X1558426Y472927*
X1553881Y466677*
X1560244*
X1566608Y479802D02*
X1565244Y479177D01*
X1564790Y477927*
Y476677*
X1565244Y475427*
X1566153Y474802*
X1567972Y474177*
X1569335Y473552*
X1570244Y472302*
X1570699Y471052*
Y469177*
X1570244Y467927*
X1569790Y467302*
X1568426Y466677*
X1566608*
X1565244Y467302*
X1564790Y467927*
X1564335Y469177*
Y471052*
X1564790Y472302*
X1565699Y473552*
X1567063Y474177*
X1568881Y474802*
X1569790Y475427*
X1570244Y476677*
Y477927*
X1569790Y479177*
X1568426Y479802*
X1566608*
X1575699D02*
X1580699D01*
X1577972Y474802*
X1579335*
X1580244Y474177*
X1580699Y473552*
X1581153Y471677*
Y470427*
X1580699Y468552*
X1579790Y467302*
X1578426Y466677*
X1577063*
X1575699Y467302*
X1575244Y467927*
X1574790Y469177*
X1586153Y479802D02*
X1591153D01*
X1588426Y474802*
X1589790*
X1590699Y474177*
X1591153Y473552*
X1591608Y471677*
Y470427*
X1591153Y468552*
X1590244Y467302*
X1588881Y466677*
X1587517*
X1586153Y467302*
X1585699Y467927*
X1585244Y469177*
X1601608Y479802D02*
X1597063D01*
X1596608Y474177*
X1597063Y474802*
X1598426Y475427*
X1599790*
X1601153Y474802*
X1602063Y473552*
X1602517Y471677*
X1602063Y470427*
X1601608Y468552*
X1600699Y467302*
X1599335Y466677*
X1597972*
X1596608Y467302*
X1596153Y467927*
X1595699Y469177*
X1622517Y473552D02*
X1621608Y474802D01*
X1620699Y475427*
X1619335*
X1618426Y474802*
X1617517Y473552*
X1617063Y471677*
Y470427*
X1617517Y468552*
X1618426Y467302*
X1619335Y466677*
X1620699*
X1621608Y467302*
X1622517Y468552*
X1628881Y475427D02*
X1627972Y474802D01*
X1627063Y473552*
X1626608Y471677*
Y470427*
X1627063Y468552*
X1627972Y467302*
X1628881Y466677*
X1630244*
X1631153Y467302*
X1632063Y468552*
X1632517Y470427*
Y471677*
X1632063Y473552*
X1631153Y474802*
X1630244Y475427*
X1628881*
X1636608D02*
Y466677D01*
Y472927D02*
X1637972Y474802D01*
X1638881Y475427*
X1640244*
X1641153Y474802*
X1641608Y472927*
Y466677*
X1647063Y479802D02*
Y469177D01*
X1647517Y467302*
X1648426Y466677*
X1649335*
X1645699Y475427D02*
X1648881D01*
X1653426D02*
Y466677D01*
Y471677D02*
X1653881Y473552D01*
X1654790Y474802*
X1655699Y475427*
X1657063*
X1663426D02*
X1662517Y474802D01*
X1661608Y473552*
X1661153Y471677*
Y470427*
X1661608Y468552*
X1662517Y467302*
X1663426Y466677*
X1664790*
X1665699Y467302*
X1666608Y468552*
X1667063Y470427*
Y471677*
X1666608Y473552*
X1665699Y474802*
X1664790Y475427*
X1663426*
X1671153Y479802D02*
Y466677D01*
X1682063Y476677D02*
X1681608Y477927D01*
X1680699Y479177*
X1679790Y479802*
X1677972*
X1677063Y479177*
X1676153Y477927*
X1675699Y476677*
X1675244Y474802*
Y471677*
X1675699Y469802*
X1676153Y468552*
X1677063Y467302*
X1677972Y466677*
X1679790*
X1680699Y467302*
X1681608Y468552*
X1682063Y469802*
X1689790Y479802D02*
X1686153Y466677D01*
X1689790Y479802D02*
X1693426Y466677D01*
X1687517Y471052D02*
X1692063D01*
X1697517Y479802D02*
Y466677D01*
Y479802D02*
X1701608D01*
X1702972Y479177*
X1703426Y478552*
X1703881Y477302*
Y476052*
X1703426Y474802*
X1702972Y474177*
X1701608Y473552*
X1697517*
X1700699D02*
X1703881Y466677D01*
X1707972Y479802D02*
Y466677D01*
Y479802D02*
X1711153D01*
X1712517Y479177*
X1713426Y477927*
X1713881Y476677*
X1714335Y474802*
Y471677*
X1713881Y469802*
X1713426Y468552*
X1712517Y467302*
X1711153Y466677*
X1707972*
X1133244Y554334D02*
X1130517Y544490D01*
X1133244Y554334D02*
X1135972Y544490D01*
X1131540Y547771D02*
X1134949D01*
X1139040Y551052D02*
Y544490D01*
Y548240D02*
X1139381Y549646D01*
X1140063Y550584*
X1140744Y551052*
X1141767*
X1145858Y554334D02*
Y546365D01*
X1146199Y544959*
X1146881Y544490*
X1147563*
X1144835Y551052D02*
X1147222D01*
X1150631D02*
X1151994Y544490D01*
X1153358Y551052D02*
X1151994Y544490D01*
X1153358Y551052D02*
X1154722Y544490D01*
X1156085Y551052D02*
X1154722Y544490D01*
X1160858Y551052D02*
X1160176Y550584D01*
X1159494Y549646*
X1159153Y548240*
Y547302*
X1159494Y545896*
X1160176Y544959*
X1160858Y544490*
X1161881*
X1162563Y544959*
X1163244Y545896*
X1163585Y547302*
Y548240*
X1163244Y549646*
X1162563Y550584*
X1161881Y551052*
X1160858*
X1166653D02*
Y544490D01*
Y548240D02*
X1166994Y549646D01*
X1167676Y550584*
X1168358Y551052*
X1169381*
X1172449Y554334D02*
Y544490D01*
X1175858Y551052D02*
X1172449Y546365D01*
X1173813Y548240D02*
X1176199Y544490D01*
X1187108Y554334D02*
Y544490D01*
Y554334D02*
X1189494D01*
X1190517Y553865*
X1191199Y552927*
X1191540Y551990*
X1191881Y550584*
Y548240*
X1191540Y546834*
X1191199Y545896*
X1190517Y544959*
X1189494Y544490*
X1187108*
X1194949Y548240D02*
X1199040D01*
Y549177*
X1198699Y550115*
X1198358Y550584*
X1197676Y551052*
X1196653*
X1195972Y550584*
X1195290Y549646*
X1194949Y548240*
Y547302*
X1195290Y545896*
X1195972Y544959*
X1196653Y544490*
X1197676*
X1198358Y544959*
X1199040Y545896*
X1205858Y549646D02*
X1205517Y550584D01*
X1204494Y551052*
X1203472*
X1202449Y550584*
X1202108Y549646*
X1202449Y548709*
X1203131Y548240*
X1204835Y547771*
X1205517Y547302*
X1205858Y546365*
Y545896*
X1205517Y544959*
X1204494Y544490*
X1203472*
X1202449Y544959*
X1202108Y545896*
X1208926Y554334D02*
X1209267Y553865D01*
X1209608Y554334*
X1209267Y554802*
X1208926Y554334*
X1209267Y551052D02*
Y544490D01*
X1216767Y551052D02*
Y543552D01*
X1216426Y542146*
X1216085Y541677*
X1215403Y541209*
X1214381*
X1213699Y541677*
X1216767Y549646D02*
X1216085Y550584D01*
X1215403Y551052*
X1214381*
X1213699Y550584*
X1213017Y549646*
X1212676Y548240*
Y547302*
X1213017Y545896*
X1213699Y544959*
X1214381Y544490*
X1215403*
X1216085Y544959*
X1216767Y545896*
X1219835Y551052D02*
Y544490D01*
Y549177D02*
X1220858Y550584D01*
X1221540Y551052*
X1222563*
X1223244Y550584*
X1223585Y549177*
Y544490*
X1226653Y548240D02*
X1230744D01*
Y549177*
X1230403Y550115*
X1230063Y550584*
X1229381Y551052*
X1228358*
X1227676Y550584*
X1226994Y549646*
X1226653Y548240*
Y547302*
X1226994Y545896*
X1227676Y544959*
X1228358Y544490*
X1229381*
X1230063Y544959*
X1230744Y545896*
X1237903Y554334D02*
Y544490D01*
Y549646D02*
X1237222Y550584D01*
X1236540Y551052*
X1235517*
X1234835Y550584*
X1234153Y549646*
X1233813Y548240*
Y547302*
X1234153Y545896*
X1234835Y544959*
X1235517Y544490*
X1236540*
X1237222Y544959*
X1237903Y545896*
X1248813Y554334D02*
Y544490D01*
Y554334D02*
X1251881D01*
X1252903Y553865*
X1253244Y553396*
X1253585Y552459*
Y551521*
X1253244Y550584*
X1252903Y550115*
X1251881Y549646*
X1248813D02*
X1251881D01*
X1252903Y549177*
X1253244Y548709*
X1253585Y547771*
Y546365*
X1253244Y545427*
X1252903Y544959*
X1251881Y544490*
X1248813*
X1256994Y551052D02*
X1259040Y544490D01*
X1261085Y551052D02*
X1259040Y544490D01*
X1258358Y542615*
X1257676Y541677*
X1256994Y541209*
X1256653*
X1264494Y551052D02*
X1264153Y550584D01*
X1264494Y550115*
X1264835Y550584*
X1264494Y551052*
Y545427D02*
X1264153Y544959D01*
X1264494Y544490*
X1264835Y544959*
X1264494Y545427*
X1133926Y389334D02*
Y381834D01*
X1133585Y380427*
X1133244Y379959*
X1132563Y379490*
X1131881*
X1131199Y379959*
X1130858Y380427*
X1130517Y381834*
Y382771*
X1138699Y386052D02*
X1138017Y385584D01*
X1137335Y384646*
X1136994Y383240*
Y382302*
X1137335Y380896*
X1138017Y379959*
X1138699Y379490*
X1139722*
X1140403Y379959*
X1141085Y380896*
X1141426Y382302*
Y383240*
X1141085Y384646*
X1140403Y385584*
X1139722Y386052*
X1138699*
X1144494Y389334D02*
Y379490D01*
Y384646D02*
X1145176Y385584D01*
X1145858Y386052*
X1146881*
X1147563Y385584*
X1148244Y384646*
X1148585Y383240*
Y382302*
X1148244Y380896*
X1147563Y379959*
X1146881Y379490*
X1145858*
X1145176Y379959*
X1144494Y380896*
X1159494Y389334D02*
Y379490D01*
Y389334D02*
X1164267Y379490D01*
Y389334D02*
Y379490D01*
X1169040Y386052D02*
X1168358Y385584D01*
X1167676Y384646*
X1167335Y383240*
Y382302*
X1167676Y380896*
X1168358Y379959*
X1169040Y379490*
X1170063*
X1170744Y379959*
X1171426Y380896*
X1171767Y382302*
Y383240*
X1171426Y384646*
X1170744Y385584*
X1170063Y386052*
X1169040*
X1175176D02*
X1174835Y385584D01*
X1175176Y385115*
X1175517Y385584*
X1175176Y386052*
Y380427D02*
X1174835Y379959D01*
X1175176Y379490*
X1175517Y379959*
X1175176Y380427*
X1204790Y384802D02*
Y371677D01*
X1201608Y384802D02*
X1207972D01*
X1212063D02*
Y371677D01*
Y384802D02*
X1217972D01*
X1212063Y378552D02*
X1215699D01*
X1212063Y371677D02*
X1217972D01*
X1222063Y384802D02*
X1228426Y371677D01*
Y384802D02*
X1222063Y371677D01*
X1232972Y372927D02*
X1232517Y372302D01*
X1232972Y371677*
X1233426Y372302*
X1232972Y372927*
X1237517Y382302D02*
X1238426Y382927D01*
X1239790Y384802*
Y371677*
X1243881Y382302D02*
X1244790Y382927D01*
X1246153Y384802*
Y371677*
X1251153Y384802D02*
X1256153D01*
X1253426Y379802*
X1254790*
X1255699Y379177*
X1256153Y378552*
X1256608Y376677*
Y375427*
X1256153Y373552*
X1255244Y372302*
X1253881Y371677*
X1252517*
X1251153Y372302*
X1250699Y372927*
X1250244Y374177*
X1290517Y389334D02*
Y379490D01*
Y389334D02*
X1292903D01*
X1293926Y388865*
X1294608Y387927*
X1294949Y386990*
X1295290Y385584*
Y383240*
X1294949Y381834*
X1294608Y380896*
X1293926Y379959*
X1292903Y379490*
X1290517*
X1302449Y386052D02*
Y379490D01*
Y384646D02*
X1301767Y385584D01*
X1301085Y386052*
X1300063*
X1299381Y385584*
X1298699Y384646*
X1298358Y383240*
Y382302*
X1298699Y380896*
X1299381Y379959*
X1300063Y379490*
X1301085*
X1301767Y379959*
X1302449Y380896*
X1306540Y389334D02*
Y381365D01*
X1306881Y379959*
X1307563Y379490*
X1308244*
X1305517Y386052D02*
X1307903D01*
X1311313Y383240D02*
X1315403D01*
Y384177*
X1315063Y385115*
X1314722Y385584*
X1314040Y386052*
X1313017*
X1312335Y385584*
X1311653Y384646*
X1311313Y383240*
Y382302*
X1311653Y380896*
X1312335Y379959*
X1313017Y379490*
X1314040*
X1314722Y379959*
X1315403Y380896*
X1318813Y386052D02*
X1318472Y385584D01*
X1318813Y385115*
X1319153Y385584*
X1318813Y386052*
Y380427D02*
X1318472Y379959D01*
X1318813Y379490*
X1319153Y379959*
X1318813Y380427*
X1326608Y382302D02*
X1327517Y382927D01*
X1328881Y384802*
Y371677*
X1335699Y384802D02*
X1334335Y384177D01*
X1333426Y382302*
X1332972Y379177*
Y377302*
X1333426Y374177*
X1334335Y372302*
X1335699Y371677*
X1336608*
X1337972Y372302*
X1338881Y374177*
X1339335Y377302*
Y379177*
X1338881Y382302*
X1337972Y384177*
X1336608Y384802*
X1335699*
X1351608Y387302D02*
X1343426Y367302D01*
X1356153Y381677D02*
Y382302D01*
X1356608Y383552*
X1357063Y384177*
X1357972Y384802*
X1359790*
X1360699Y384177*
X1361153Y383552*
X1361608Y382302*
Y381052*
X1361153Y379802*
X1360244Y377927*
X1355699Y371677*
X1362063*
X1367063Y384802D02*
X1372063D01*
X1369335Y379802*
X1370699*
X1371608Y379177*
X1372063Y378552*
X1372517Y376677*
Y375427*
X1372063Y373552*
X1371153Y372302*
X1369790Y371677*
X1368426*
X1367063Y372302*
X1366608Y372927*
X1366153Y374177*
X1384790Y387302D02*
X1376608Y367302D01*
X1388881Y382302D02*
X1389790Y382927D01*
X1391153Y384802*
Y371677*
X1396153Y384802D02*
X1401153D01*
X1398426Y379802*
X1399790*
X1400699Y379177*
X1401153Y378552*
X1401608Y376677*
Y375427*
X1401153Y373552*
X1400244Y372302*
X1398881Y371677*
X1397517*
X1396153Y372302*
X1395699Y372927*
X1395244Y374177*
X1599341Y382078D02*
X1598659Y383016D01*
X1597636Y383484*
X1596273*
X1595250Y383016*
X1594568Y382078*
Y381141*
X1594909Y380203*
X1595250Y379734*
X1595932Y379266*
X1597977Y378328*
X1598659Y377859*
X1599000Y377391*
X1599341Y376453*
Y375047*
X1598659Y374109*
X1597636Y373641*
X1596273*
X1595250Y374109*
X1594568Y375047*
X1602409Y377391D02*
X1606500D01*
Y378328*
X1606159Y379266*
X1605818Y379734*
X1605136Y380203*
X1604114*
X1603432Y379734*
X1602750Y378797*
X1602409Y377391*
Y376453*
X1602750Y375047*
X1603432Y374109*
X1604114Y373641*
X1605136*
X1605818Y374109*
X1606500Y375047*
X1613659Y378797D02*
X1612977Y379734D01*
X1612295Y380203*
X1611273*
X1610591Y379734*
X1609909Y378797*
X1609568Y377391*
Y376453*
X1609909Y375047*
X1610591Y374109*
X1611273Y373641*
X1612295*
X1612977Y374109*
X1613659Y375047*
X1618432Y380203D02*
X1617750Y379734D01*
X1617068Y378797*
X1616727Y377391*
Y376453*
X1617068Y375047*
X1617750Y374109*
X1618432Y373641*
X1619455*
X1620136Y374109*
X1620818Y375047*
X1621159Y376453*
Y377391*
X1620818Y378797*
X1620136Y379734*
X1619455Y380203*
X1618432*
X1624227D02*
Y373641D01*
Y378328D02*
X1625250Y379734D01*
X1625932Y380203*
X1626955*
X1627636Y379734*
X1627977Y378328*
Y373641*
X1635136Y383484D02*
Y373641D01*
Y378797D02*
X1634455Y379734D01*
X1633773Y380203*
X1632750*
X1632068Y379734*
X1631386Y378797*
X1631045Y377391*
Y376453*
X1631386Y375047*
X1632068Y374109*
X1632750Y373641*
X1633773*
X1634455Y374109*
X1635136Y375047*
X1642295Y380203D02*
Y373641D01*
Y378797D02*
X1641614Y379734D01*
X1640932Y380203*
X1639909*
X1639227Y379734*
X1638545Y378797*
X1638205Y377391*
Y376453*
X1638545Y375047*
X1639227Y374109*
X1639909Y373641*
X1640932*
X1641614Y374109*
X1642295Y375047*
X1645364Y380203D02*
Y373641D01*
Y377391D02*
X1645705Y378797D01*
X1646386Y379734*
X1647068Y380203*
X1648091*
X1651500D02*
X1653545Y373641D01*
X1655591Y380203D02*
X1653545Y373641D01*
X1652864Y371766*
X1652182Y370828*
X1651500Y370359*
X1651159*
X1671273Y382078D02*
X1670591Y383016D01*
X1669568Y383484*
X1668205*
X1667182Y383016*
X1666500Y382078*
Y381141*
X1666841Y380203*
X1667182Y379734*
X1667864Y379266*
X1669909Y378328*
X1670591Y377859*
X1670932Y377391*
X1671273Y376453*
Y375047*
X1670591Y374109*
X1669568Y373641*
X1668205*
X1667182Y374109*
X1666500Y375047*
X1674341Y383484D02*
X1674682Y383016D01*
X1675023Y383484*
X1674682Y383953*
X1674341Y383484*
X1674682Y380203D02*
Y373641D01*
X1682182Y383484D02*
Y373641D01*
Y378797D02*
X1681500Y379734D01*
X1680818Y380203*
X1679795*
X1679114Y379734*
X1678432Y378797*
X1678091Y377391*
Y376453*
X1678432Y375047*
X1679114Y374109*
X1679795Y373641*
X1680818*
X1681500Y374109*
X1682182Y375047*
X1685250Y377391D02*
X1689341D01*
Y378328*
X1689000Y379266*
X1688659Y379734*
X1687977Y380203*
X1686955*
X1686273Y379734*
X1685591Y378797*
X1685250Y377391*
Y376453*
X1685591Y375047*
X1686273Y374109*
X1686955Y373641*
X1687977*
X1688659Y374109*
X1689341Y375047*
X1705023Y382078D02*
X1704341Y383016D01*
X1703318Y383484*
X1701955*
X1700932Y383016*
X1700250Y382078*
Y381141*
X1700591Y380203*
X1700932Y379734*
X1701614Y379266*
X1703659Y378328*
X1704341Y377859*
X1704682Y377391*
X1705023Y376453*
Y375047*
X1704341Y374109*
X1703318Y373641*
X1701955*
X1700932Y374109*
X1700250Y375047*
X1709795Y380203D02*
X1709114Y379734D01*
X1708432Y378797*
X1708091Y377391*
Y376453*
X1708432Y375047*
X1709114Y374109*
X1709795Y373641*
X1710818*
X1711500Y374109*
X1712182Y375047*
X1712523Y376453*
Y377391*
X1712182Y378797*
X1711500Y379734*
X1710818Y380203*
X1709795*
X1715591Y383484D02*
Y373641D01*
X1722750Y383484D02*
Y373641D01*
Y378797D02*
X1722068Y379734D01*
X1721386Y380203*
X1720364*
X1719682Y379734*
X1719000Y378797*
X1718659Y377391*
Y376453*
X1719000Y375047*
X1719682Y374109*
X1720364Y373641*
X1721386*
X1722068Y374109*
X1722750Y375047*
X1725818Y377391D02*
X1729909D01*
Y378328*
X1729568Y379266*
X1729227Y379734*
X1728545Y380203*
X1727523*
X1726841Y379734*
X1726159Y378797*
X1725818Y377391*
Y376453*
X1726159Y375047*
X1726841Y374109*
X1727523Y373641*
X1728545*
X1729227Y374109*
X1729909Y375047*
X1732977Y380203D02*
Y373641D01*
Y377391D02*
X1733318Y378797D01*
X1734000Y379734*
X1734682Y380203*
X1735705*
X1738773D02*
Y373641D01*
Y378328D02*
X1739795Y379734D01*
X1740477Y380203*
X1741500*
X1742182Y379734*
X1742523Y378328*
Y373641*
Y378328D02*
X1743545Y379734D01*
X1744227Y380203*
X1745250*
X1745932Y379734*
X1746273Y378328*
Y373641*
X1753432Y380203D02*
Y373641D01*
Y378797D02*
X1752750Y379734D01*
X1752068Y380203*
X1751045*
X1750364Y379734*
X1749682Y378797*
X1749341Y377391*
Y376453*
X1749682Y375047*
X1750364Y374109*
X1751045Y373641*
X1752068*
X1752750Y374109*
X1753432Y375047*
X1760250Y378797D02*
X1759909Y379734D01*
X1758886Y380203*
X1757864*
X1756841Y379734*
X1756500Y378797*
X1756841Y377859*
X1757523Y377391*
X1759227Y376922*
X1759909Y376453*
X1760250Y375516*
Y375047*
X1759909Y374109*
X1758886Y373641*
X1757864*
X1756841Y374109*
X1756500Y375047*
X1763318Y383484D02*
Y373641D01*
X1766727Y380203D02*
X1763318Y375516D01*
X1764682Y377391D02*
X1767068Y373641D01*
X1152017Y521534D02*
X1153722Y511690D01*
X1155426Y521534D02*
X1153722Y511690D01*
X1155426Y521534D02*
X1157131Y511690D01*
X1158835Y521534D02*
X1157131Y511690D01*
X1161903Y521534D02*
X1162244Y521065D01*
X1162585Y521534*
X1162244Y522002*
X1161903Y521534*
X1162244Y518252D02*
Y511690D01*
X1165653Y521534D02*
Y511690D01*
X1168722Y521534D02*
Y511690D01*
X1173494Y518252D02*
X1172813Y517784D01*
X1172131Y516846*
X1171790Y515440*
Y514502*
X1172131Y513096*
X1172813Y512159*
X1173494Y511690*
X1174517*
X1175199Y512159*
X1175881Y513096*
X1176222Y514502*
Y515440*
X1175881Y516846*
X1175199Y517784*
X1174517Y518252*
X1173494*
X1179290D02*
X1180653Y511690D01*
X1182017Y518252D02*
X1180653Y511690D01*
X1182017Y518252D02*
X1183381Y511690D01*
X1184744Y518252D02*
X1183381Y511690D01*
X1200426Y520127D02*
X1199744Y521065D01*
X1198722Y521534*
X1197358*
X1196335Y521065*
X1195653Y520127*
Y519190*
X1195994Y518252*
X1196335Y517784*
X1197017Y517315*
X1199063Y516377*
X1199744Y515909*
X1200085Y515440*
X1200426Y514502*
Y513096*
X1199744Y512159*
X1198722Y511690*
X1197358*
X1196335Y512159*
X1195653Y513096*
X1203494Y518252D02*
Y508409D01*
Y516846D02*
X1204176Y517784D01*
X1204858Y518252*
X1205881*
X1206563Y517784*
X1207244Y516846*
X1207585Y515440*
Y514502*
X1207244Y513096*
X1206563Y512159*
X1205881Y511690*
X1204858*
X1204176Y512159*
X1203494Y513096*
X1210653Y518252D02*
Y511690D01*
Y515440D02*
X1210994Y516846D01*
X1211676Y517784*
X1212358Y518252*
X1213381*
X1216449Y521534D02*
X1216790Y521065D01*
X1217131Y521534*
X1216790Y522002*
X1216449Y521534*
X1216790Y518252D02*
Y511690D01*
X1220199Y518252D02*
Y511690D01*
Y516377D02*
X1221222Y517784D01*
X1221903Y518252*
X1222926*
X1223608Y517784*
X1223949Y516377*
Y511690*
X1231108Y518252D02*
Y510752D01*
X1230767Y509346*
X1230426Y508877*
X1229744Y508409*
X1228722*
X1228040Y508877*
X1231108Y516846D02*
X1230426Y517784D01*
X1229744Y518252*
X1228722*
X1228040Y517784*
X1227358Y516846*
X1227017Y515440*
Y514502*
X1227358Y513096*
X1228040Y512159*
X1228722Y511690*
X1229744*
X1230426Y512159*
X1231108Y513096*
X1244403Y521534D02*
Y511690D01*
X1242017Y521534D02*
X1246790D01*
X1249858Y515440D02*
X1253949D01*
Y516377*
X1253608Y517315*
X1253267Y517784*
X1252585Y518252*
X1251563*
X1250881Y517784*
X1250199Y516846*
X1249858Y515440*
Y514502*
X1250199Y513096*
X1250881Y512159*
X1251563Y511690*
X1252585*
X1253267Y512159*
X1253949Y513096*
X1261108Y516846D02*
X1260426Y517784D01*
X1259744Y518252*
X1258722*
X1258040Y517784*
X1257358Y516846*
X1257017Y515440*
Y514502*
X1257358Y513096*
X1258040Y512159*
X1258722Y511690*
X1259744*
X1260426Y512159*
X1261108Y513096*
X1264176Y521534D02*
Y511690D01*
Y516377D02*
X1265199Y517784D01*
X1265881Y518252*
X1266903*
X1267585Y517784*
X1267926Y516377*
Y511690*
X1270994Y518252D02*
Y511690D01*
Y516377D02*
X1272017Y517784D01*
X1272699Y518252*
X1273722*
X1274403Y517784*
X1274744Y516377*
Y511690*
X1277813Y521534D02*
X1278153Y521065D01*
X1278494Y521534*
X1278153Y522002*
X1277813Y521534*
X1278153Y518252D02*
Y511690D01*
X1285653Y516846D02*
X1284972Y517784D01*
X1284290Y518252*
X1283267*
X1282585Y517784*
X1281903Y516846*
X1281563Y515440*
Y514502*
X1281903Y513096*
X1282585Y512159*
X1283267Y511690*
X1284290*
X1284972Y512159*
X1285653Y513096*
X1292813Y518252D02*
Y511690D01*
Y516846D02*
X1292131Y517784D01*
X1291449Y518252*
X1290426*
X1289744Y517784*
X1289063Y516846*
X1288722Y515440*
Y514502*
X1289063Y513096*
X1289744Y512159*
X1290426Y511690*
X1291449*
X1292131Y512159*
X1292813Y513096*
X1295881Y521534D02*
Y511690D01*
X1311563Y520127D02*
X1310881Y521065D01*
X1309858Y521534*
X1308494*
X1307472Y521065*
X1306790Y520127*
Y519190*
X1307131Y518252*
X1307472Y517784*
X1308153Y517315*
X1310199Y516377*
X1310881Y515909*
X1311222Y515440*
X1311563Y514502*
Y513096*
X1310881Y512159*
X1309858Y511690*
X1308494*
X1307472Y512159*
X1306790Y513096*
X1314631Y515440D02*
X1318722D01*
Y516377*
X1318381Y517315*
X1318040Y517784*
X1317358Y518252*
X1316335*
X1315653Y517784*
X1314972Y516846*
X1314631Y515440*
Y514502*
X1314972Y513096*
X1315653Y512159*
X1316335Y511690*
X1317358*
X1318040Y512159*
X1318722Y513096*
X1321790Y518252D02*
Y511690D01*
Y515440D02*
X1322131Y516846D01*
X1322813Y517784*
X1323494Y518252*
X1324517*
X1327585D02*
X1329631Y511690D01*
X1331676Y518252D02*
X1329631Y511690D01*
X1334744Y521534D02*
X1335085Y521065D01*
X1335426Y521534*
X1335085Y522002*
X1334744Y521534*
X1335085Y518252D02*
Y511690D01*
X1342585Y516846D02*
X1341903Y517784D01*
X1341222Y518252*
X1340199*
X1339517Y517784*
X1338835Y516846*
X1338494Y515440*
Y514502*
X1338835Y513096*
X1339517Y512159*
X1340199Y511690*
X1341222*
X1341903Y512159*
X1342585Y513096*
X1345653Y515440D02*
X1349744D01*
Y516377*
X1349403Y517315*
X1349063Y517784*
X1348381Y518252*
X1347358*
X1346676Y517784*
X1345994Y516846*
X1345653Y515440*
Y514502*
X1345994Y513096*
X1346676Y512159*
X1347358Y511690*
X1348381*
X1349063Y512159*
X1349744Y513096*
X1356563Y516846D02*
X1356222Y517784D01*
X1355199Y518252*
X1354176*
X1353153Y517784*
X1352813Y516846*
X1353153Y515909*
X1353835Y515440*
X1355540Y514971*
X1356222Y514502*
X1356563Y513565*
Y513096*
X1356222Y512159*
X1355199Y511690*
X1354176*
X1353153Y512159*
X1352813Y513096*
X1372585Y519190D02*
X1372244Y520127D01*
X1371563Y521065*
X1370881Y521534*
X1369517*
X1368835Y521065*
X1368153Y520127*
X1367813Y519190*
X1367472Y517784*
Y515440*
X1367813Y514034*
X1368153Y513096*
X1368835Y512159*
X1369517Y511690*
X1370881*
X1371563Y512159*
X1372244Y513096*
X1372585Y514034*
X1377358Y518252D02*
X1376676Y517784D01*
X1375994Y516846*
X1375653Y515440*
Y514502*
X1375994Y513096*
X1376676Y512159*
X1377358Y511690*
X1378381*
X1379063Y512159*
X1379744Y513096*
X1380085Y514502*
Y515440*
X1379744Y516846*
X1379063Y517784*
X1378381Y518252*
X1377358*
X1383153D02*
Y511690D01*
Y515440D02*
X1383494Y516846D01*
X1384176Y517784*
X1384858Y518252*
X1385881*
X1388949D02*
Y508409D01*
Y516846D02*
X1389631Y517784D01*
X1390313Y518252*
X1391335*
X1392017Y517784*
X1392699Y516846*
X1393040Y515440*
Y514502*
X1392699Y513096*
X1392017Y512159*
X1391335Y511690*
X1390313*
X1389631Y512159*
X1388949Y513096*
X1396449Y512627D02*
X1396108Y512159D01*
X1396449Y511690*
X1396790Y512159*
X1396449Y512627*
X1218575Y496307D02*
X1219256Y496776D01*
X1220279Y498182*
Y488339*
X1223347Y496307D02*
X1224029Y496776D01*
X1225052Y498182*
Y488339*
X1229825Y498182D02*
X1228802Y497714D01*
X1228461Y496776*
Y495839*
X1228802Y494901*
X1229484Y494432*
X1230847Y493964*
X1231870Y493495*
X1232552Y492557*
X1232893Y491620*
Y490214*
X1232552Y489276*
X1232211Y488807*
X1231188Y488339*
X1229825*
X1228802Y488807*
X1228461Y489276*
X1228120Y490214*
Y491620*
X1228461Y492557*
X1229143Y493495*
X1230165Y493964*
X1231529Y494432*
X1232211Y494901*
X1232552Y495839*
Y496776*
X1232211Y497714*
X1231188Y498182*
X1229825*
X1240393D02*
X1236984D01*
X1236643Y493964*
X1236984Y494432*
X1238006Y494901*
X1239029*
X1240052Y494432*
X1240734Y493495*
X1241075Y492089*
X1240734Y491151*
X1240393Y489745*
X1239711Y488807*
X1238688Y488339*
X1237665*
X1236643Y488807*
X1236302Y489276*
X1235961Y490214*
X1257097Y495839D02*
X1256756Y496776D01*
X1256075Y497714*
X1255393Y498182*
X1254029*
X1253347Y497714*
X1252665Y496776*
X1252325Y495839*
X1251984Y494432*
Y492089*
X1252325Y490682*
X1252665Y489745*
X1253347Y488807*
X1254029Y488339*
X1255393*
X1256075Y488807*
X1256756Y489745*
X1257097Y490682*
X1260165Y492089D02*
X1264256D01*
Y493026*
X1263915Y493964*
X1263575Y494432*
X1262893Y494901*
X1261870*
X1261188Y494432*
X1260506Y493495*
X1260165Y492089*
Y491151*
X1260506Y489745*
X1261188Y488807*
X1261870Y488339*
X1262893*
X1263575Y488807*
X1264256Y489745*
X1267325Y494901D02*
Y488339D01*
Y493026D02*
X1268347Y494432D01*
X1269029Y494901*
X1270052*
X1270734Y494432*
X1271075Y493026*
Y488339*
X1275165Y498182D02*
Y490214D01*
X1275506Y488807*
X1276188Y488339*
X1276870*
X1274143Y494901D02*
X1276529D01*
X1279938D02*
Y488339D01*
Y492089D02*
X1280279Y493495D01*
X1280961Y494432*
X1281643Y494901*
X1282665*
X1285734Y492089D02*
X1289825D01*
Y493026*
X1289484Y493964*
X1289143Y494432*
X1288461Y494901*
X1287438*
X1286756Y494432*
X1286075Y493495*
X1285734Y492089*
Y491151*
X1286075Y489745*
X1286756Y488807*
X1287438Y488339*
X1288461*
X1289143Y488807*
X1289825Y489745*
X1305506Y496776D02*
X1304825Y497714D01*
X1303802Y498182*
X1302438*
X1301415Y497714*
X1300734Y496776*
Y495839*
X1301075Y494901*
X1301415Y494432*
X1302097Y493964*
X1304143Y493026*
X1304825Y492557*
X1305165Y492089*
X1305506Y491151*
Y489745*
X1304825Y488807*
X1303802Y488339*
X1302438*
X1301415Y488807*
X1300734Y489745*
X1309597Y498182D02*
Y490214D01*
X1309938Y488807*
X1310620Y488339*
X1311302*
X1308575Y494901D02*
X1310961D01*
X1314370D02*
Y488339D01*
Y492089D02*
X1314711Y493495D01*
X1315393Y494432*
X1316075Y494901*
X1317097*
X1320165Y492089D02*
X1324256D01*
Y493026*
X1323915Y493964*
X1323575Y494432*
X1322893Y494901*
X1321870*
X1321188Y494432*
X1320506Y493495*
X1320165Y492089*
Y491151*
X1320506Y489745*
X1321188Y488807*
X1321870Y488339*
X1322893*
X1323575Y488807*
X1324256Y489745*
X1327325Y492089D02*
X1331415D01*
Y493026*
X1331075Y493964*
X1330734Y494432*
X1330052Y494901*
X1329029*
X1328347Y494432*
X1327665Y493495*
X1327325Y492089*
Y491151*
X1327665Y489745*
X1328347Y488807*
X1329029Y488339*
X1330052*
X1330734Y488807*
X1331415Y489745*
X1335506Y498182D02*
Y490214D01*
X1335847Y488807*
X1336529Y488339*
X1337211*
X1334484Y494901D02*
X1336870D01*
X1208575Y475682D02*
Y465839D01*
Y475682D02*
X1211302Y465839D01*
X1214029Y475682D02*
X1211302Y465839D01*
X1214029Y475682D02*
Y465839D01*
X1217097Y475682D02*
X1217438Y475214D01*
X1217779Y475682*
X1217438Y476151*
X1217097Y475682*
X1217438Y472401D02*
Y465839D01*
X1224938Y475682D02*
Y465839D01*
Y470995D02*
X1224256Y471932D01*
X1223575Y472401*
X1222552*
X1221870Y471932*
X1221188Y470995*
X1220847Y469589*
Y468651*
X1221188Y467245*
X1221870Y466307*
X1222552Y465839*
X1223575*
X1224256Y466307*
X1224938Y467245*
X1232097Y475682D02*
Y465839D01*
Y470995D02*
X1231415Y471932D01*
X1230734Y472401*
X1229711*
X1229029Y471932*
X1228347Y470995*
X1228006Y469589*
Y468651*
X1228347Y467245*
X1229029Y466307*
X1229711Y465839*
X1230734*
X1231415Y466307*
X1232097Y467245*
X1235165Y475682D02*
Y465839D01*
X1238234Y469589D02*
X1242325D01*
Y470526*
X1241984Y471464*
X1241643Y471932*
X1240961Y472401*
X1239938*
X1239256Y471932*
X1238575Y470995*
X1238234Y469589*
Y468651*
X1238575Y467245*
X1239256Y466307*
X1239938Y465839*
X1240961*
X1241643Y466307*
X1242325Y467245*
X1245393Y475682D02*
Y465839D01*
Y470995D02*
X1246075Y471932D01*
X1246756Y472401*
X1247779*
X1248461Y471932*
X1249143Y470995*
X1249484Y469589*
Y468651*
X1249143Y467245*
X1248461Y466307*
X1247779Y465839*
X1246756*
X1246075Y466307*
X1245393Y467245*
X1254256Y472401D02*
X1253575Y471932D01*
X1252893Y470995*
X1252552Y469589*
Y468651*
X1252893Y467245*
X1253575Y466307*
X1254256Y465839*
X1255279*
X1255961Y466307*
X1256643Y467245*
X1256984Y468651*
Y469589*
X1256643Y470995*
X1255961Y471932*
X1255279Y472401*
X1254256*
X1260052D02*
Y465839D01*
Y469589D02*
X1260393Y470995D01*
X1261075Y471932*
X1261756Y472401*
X1262779*
X1267552D02*
X1266870Y471932D01*
X1266188Y470995*
X1265847Y469589*
Y468651*
X1266188Y467245*
X1266870Y466307*
X1267552Y465839*
X1268575*
X1269256Y466307*
X1269938Y467245*
X1270279Y468651*
Y469589*
X1269938Y470995*
X1269256Y471932*
X1268575Y472401*
X1267552*
X1274029Y466307D02*
X1273688Y465839D01*
X1273347Y466307*
X1273688Y466776*
X1274029Y466307*
Y465370*
X1273688Y464432*
X1273347Y463964*
X1284938Y475682D02*
Y465839D01*
Y475682D02*
X1287665Y465839D01*
X1290393Y475682D02*
X1287665Y465839D01*
X1290393Y475682D02*
Y465839D01*
X1296188Y475682D02*
X1293461Y465839D01*
X1296188Y475682D02*
X1298915Y465839D01*
X1294484Y469120D02*
X1297893D01*
X1311870Y475682D02*
X1310847Y475214D01*
X1310165Y473807*
X1309825Y471464*
Y470057*
X1310165Y467714*
X1310847Y466307*
X1311870Y465839*
X1312552*
X1313575Y466307*
X1314256Y467714*
X1314597Y470057*
Y471464*
X1314256Y473807*
X1313575Y475214*
X1312552Y475682*
X1311870*
X1318006Y473339D02*
Y473807D01*
X1318347Y474745*
X1318688Y475214*
X1319370Y475682*
X1320734*
X1321415Y475214*
X1321756Y474745*
X1322097Y473807*
Y472870*
X1321756Y471932*
X1321075Y470526*
X1317665Y465839*
X1322438*
X1326188Y475682D02*
X1329938D01*
X1327893Y471932*
X1328915*
X1329597Y471464*
X1329938Y470995*
X1330279Y469589*
Y468651*
X1329938Y467245*
X1329256Y466307*
X1328234Y465839*
X1327211*
X1326188Y466307*
X1325847Y466776*
X1325506Y467714*
X1336756Y475682D02*
X1333347Y469120D01*
X1338461*
X1336756Y475682D02*
Y465839D01*
X1345620Y474276D02*
X1345279Y475214D01*
X1344256Y475682*
X1343575*
X1342552Y475214*
X1341870Y473807*
X1341529Y471464*
Y469120*
X1341870Y467245*
X1342552Y466307*
X1343575Y465839*
X1343915*
X1344938Y466307*
X1345620Y467245*
X1345961Y468651*
Y469120*
X1345620Y470526*
X1344938Y471464*
X1343915Y471932*
X1343575*
X1342552Y471464*
X1341870Y470526*
X1341529Y469120*
X1289217Y448652D02*
X1290581Y442090D01*
X1291944Y448652D02*
X1290581Y442090D01*
X1291944Y448652D02*
X1293308Y442090D01*
X1294672Y448652D02*
X1293308Y442090D01*
X1297740Y448652D02*
X1299103Y442090D01*
X1300467Y448652D02*
X1299103Y442090D01*
X1300467Y448652D02*
X1301831Y442090D01*
X1303194Y448652D02*
X1301831Y442090D01*
X1306263Y448652D02*
X1307626Y442090D01*
X1308990Y448652D02*
X1307626Y442090D01*
X1308990Y448652D02*
X1310353Y442090D01*
X1311717Y448652D02*
X1310353Y442090D01*
X1315126Y443027D02*
X1314785Y442559D01*
X1315126Y442090*
X1315467Y442559*
X1315126Y443027*
X1318535Y448652D02*
X1319899Y442090D01*
X1321263Y448652D02*
X1319899Y442090D01*
X1321263Y448652D02*
X1322626Y442090D01*
X1323990Y448652D02*
X1322626Y442090D01*
X1330808Y447246D02*
X1330467Y448184D01*
X1329444Y448652*
X1328422*
X1327399Y448184*
X1327058Y447246*
X1327399Y446309*
X1328081Y445840*
X1329785Y445371*
X1330467Y444902*
X1330808Y443965*
Y443496*
X1330467Y442559*
X1329444Y442090*
X1328422*
X1327399Y442559*
X1327058Y443496*
X1334899Y451934D02*
Y443965D01*
X1335240Y442559*
X1335922Y442090*
X1336603*
X1333876Y448652D02*
X1336263D01*
X1343422Y447246D02*
X1343081Y448184D01*
X1342058Y448652*
X1341035*
X1340013Y448184*
X1339672Y447246*
X1340013Y446309*
X1340694Y445840*
X1342399Y445371*
X1343081Y444902*
X1343422Y443965*
Y443496*
X1343081Y442559*
X1342058Y442090*
X1341035*
X1340013Y442559*
X1339672Y443496*
X1350581Y447246D02*
X1349899Y448184D01*
X1349217Y448652*
X1348194*
X1347513Y448184*
X1346831Y447246*
X1346490Y445840*
Y444902*
X1346831Y443496*
X1347513Y442559*
X1348194Y442090*
X1349217*
X1349899Y442559*
X1350581Y443496*
X1355353Y448652D02*
X1354672Y448184D01*
X1353990Y447246*
X1353649Y445840*
Y444902*
X1353990Y443496*
X1354672Y442559*
X1355353Y442090*
X1356376*
X1357058Y442559*
X1357740Y443496*
X1358081Y444902*
Y445840*
X1357740Y447246*
X1357058Y448184*
X1356376Y448652*
X1355353*
X1361149D02*
Y442090D01*
Y445840D02*
X1361490Y447246D01*
X1362172Y448184*
X1362853Y448652*
X1363876*
X1366944D02*
Y438809D01*
Y447246D02*
X1367626Y448184D01*
X1368308Y448652*
X1369331*
X1370013Y448184*
X1370694Y447246*
X1371035Y445840*
Y444902*
X1370694Y443496*
X1370013Y442559*
X1369331Y442090*
X1368308*
X1367626Y442559*
X1366944Y443496*
X1374444Y443027D02*
X1374103Y442559D01*
X1374444Y442090*
X1374785Y442559*
X1374444Y443027*
X1381944Y447246D02*
X1381263Y448184D01*
X1380581Y448652*
X1379558*
X1378876Y448184*
X1378194Y447246*
X1377853Y445840*
Y444902*
X1378194Y443496*
X1378876Y442559*
X1379558Y442090*
X1380581*
X1381263Y442559*
X1381944Y443496*
X1386717Y448652D02*
X1386035Y448184D01*
X1385353Y447246*
X1385013Y445840*
Y444902*
X1385353Y443496*
X1386035Y442559*
X1386717Y442090*
X1387740*
X1388422Y442559*
X1389103Y443496*
X1389444Y444902*
Y445840*
X1389103Y447246*
X1388422Y448184*
X1387740Y448652*
X1386717*
X1392513D02*
Y442090D01*
Y446777D02*
X1393535Y448184D01*
X1394217Y448652*
X1395240*
X1395922Y448184*
X1396263Y446777*
Y442090*
Y446777D02*
X1397285Y448184D01*
X1397967Y448652*
X1398990*
X1399672Y448184*
X1400013Y446777*
Y442090*
X1143575Y450682D02*
Y440839D01*
Y450682D02*
X1146643D01*
X1147665Y450214*
X1148006Y449745*
X1148347Y448807*
Y447401*
X1148006Y446464*
X1147665Y445995*
X1146643Y445526*
X1143575*
X1151415Y450682D02*
Y440839D01*
X1156188Y450682D02*
Y440839D01*
X1151415Y445995D02*
X1156188D01*
X1171529Y450682D02*
X1168120D01*
X1167779Y446464*
X1168120Y446932*
X1169143Y447401*
X1170165*
X1171188Y446932*
X1171870Y445995*
X1172211Y444589*
X1171870Y443651*
X1171529Y442245*
X1170847Y441307*
X1169825Y440839*
X1168802*
X1167779Y441307*
X1167438Y441776*
X1167097Y442714*
X1177325Y450682D02*
X1176302Y450214D01*
X1175620Y448807*
X1175279Y446464*
Y445057*
X1175620Y442714*
X1176302Y441307*
X1177325Y440839*
X1178006*
X1179029Y441307*
X1179711Y442714*
X1180052Y445057*
Y446464*
X1179711Y448807*
X1179029Y450214*
X1178006Y450682*
X1177325*
X1184825D02*
X1183802Y450214D01*
X1183461Y449276*
Y448339*
X1183802Y447401*
X1184484Y446932*
X1185847Y446464*
X1186870Y445995*
X1187552Y445057*
X1187893Y444120*
Y442714*
X1187552Y441776*
X1187211Y441307*
X1186188Y440839*
X1184825*
X1183802Y441307*
X1183461Y441776*
X1183120Y442714*
Y444120*
X1183461Y445057*
X1184143Y445995*
X1185165Y446464*
X1186529Y446932*
X1187211Y447401*
X1187552Y448339*
Y449276*
X1187211Y450214*
X1186188Y450682*
X1184825*
X1190961Y445057D02*
X1197097D01*
X1204597Y447401D02*
X1204256Y445995D01*
X1203575Y445057*
X1202552Y444589*
X1202211*
X1201188Y445057*
X1200506Y445995*
X1200165Y447401*
Y447870*
X1200506Y449276*
X1201188Y450214*
X1202211Y450682*
X1202552*
X1203575Y450214*
X1204256Y449276*
X1204597Y447401*
Y445057*
X1204256Y442714*
X1203575Y441307*
X1202552Y440839*
X1201870*
X1200847Y441307*
X1200506Y442245*
X1211075Y450682D02*
X1207665Y444120D01*
X1212779*
X1211075Y450682D02*
Y440839D01*
X1220620Y450682D02*
X1217211Y440839D01*
X1215847Y450682D02*
X1220620D01*
X1223688Y445057D02*
X1229825D01*
X1233234Y448339D02*
Y448807D01*
X1233575Y449745*
X1233915Y450214*
X1234597Y450682*
X1235961*
X1236643Y450214*
X1236984Y449745*
X1237325Y448807*
Y447870*
X1236984Y446932*
X1236302Y445526*
X1232893Y440839*
X1237665*
X1245506Y450682D02*
X1242097Y440839D01*
X1240734Y450682D02*
X1245506D01*
X1250620D02*
X1249597Y450214D01*
X1248915Y448807*
X1248575Y446464*
Y445057*
X1248915Y442714*
X1249597Y441307*
X1250620Y440839*
X1251302*
X1252325Y441307*
X1253006Y442714*
X1253347Y445057*
Y446464*
X1253006Y448807*
X1252325Y450214*
X1251302Y450682*
X1250620*
X1260847Y447401D02*
X1260506Y445995D01*
X1259825Y445057*
X1258802Y444589*
X1258461*
X1257438Y445057*
X1256756Y445995*
X1256415Y447401*
Y447870*
X1256756Y449276*
X1257438Y450214*
X1258461Y450682*
X1258802*
X1259825Y450214*
X1260506Y449276*
X1260847Y447401*
Y445057*
X1260506Y442714*
X1259825Y441307*
X1258802Y440839*
X1258120*
X1257097Y441307*
X1256756Y442245*
X1104160Y830650D02*
X1207500D01*
Y843400*
X1104160*
Y830650*
X1003500Y831000D02*
X1092950D01*
Y844100*
X1003500*
Y831000*
X1284560Y830850D02*
X1383700D01*
Y843600*
X1284560*
Y830850*
X1104160Y843249D02*
X1207500D01*
X1104160Y842349D02*
X1207500D01*
X1104160Y841449D02*
X1207500D01*
X1104160Y840549D02*
X1207500D01*
X1104160Y839649D02*
X1207500D01*
X1104160Y838749D02*
X1207500D01*
X1104160Y837849D02*
X1207500D01*
X1104160Y836949D02*
X1207500D01*
X1104160Y836049D02*
X1207500D01*
X1104160Y835149D02*
X1207500D01*
X1104160Y834249D02*
X1207500D01*
X1104160Y833349D02*
X1207500D01*
X1104160Y832449D02*
X1207500D01*
X1104160Y831549D02*
X1207500D01*
X1003500Y843599D02*
X1092950D01*
X1003500Y842699D02*
X1092950D01*
X1003500Y841799D02*
X1092950D01*
X1003500Y840899D02*
X1092950D01*
X1003500Y839999D02*
X1092950D01*
X1003500Y839099D02*
X1092950D01*
X1003500Y838199D02*
X1092950D01*
X1003500Y837299D02*
X1092950D01*
X1003500Y836399D02*
X1092950D01*
X1003500Y835499D02*
X1092950D01*
X1003500Y834599D02*
X1092950D01*
X1003500Y833699D02*
X1092950D01*
X1003500Y832799D02*
X1092950D01*
X1003500Y831899D02*
X1092950D01*
X1284560Y843449D02*
X1383700D01*
X1284560Y842549D02*
X1383700D01*
X1284560Y841649D02*
X1383700D01*
X1284560Y840749D02*
X1383700D01*
X1284560Y839849D02*
X1383700D01*
X1284560Y838949D02*
X1383700D01*
X1284560Y838049D02*
X1383700D01*
X1284560Y837149D02*
X1383700D01*
X1284560Y836249D02*
X1383700D01*
X1284560Y835349D02*
X1383700D01*
X1284560Y834449D02*
X1383700D01*
X1284560Y833549D02*
X1383700D01*
X1284560Y832649D02*
X1383700D01*
X1284560Y831749D02*
X1383700D01*
G54D194*
X565117Y362490D02*
X1843517D01*
Y1511990*
X565117*
Y362490*
X1123517D02*
X1843517D01*
Y557490*
X1123517*
Y362490*
X1408517Y502490D02*
X1843517D01*
Y362490*
X1408517*
Y502490*
Y392490D02*
X1843517D01*
Y362490*
X1408517*
Y392490*
X1568517*
Y362490*
X1408517*
Y392490*
Y502490D02*
X1843517D01*
Y557490*
X1408517*
Y502490*
Y432490D02*
X1843517D01*
Y502490*
X1408517*
Y432490*
X1708517Y392490D02*
X1843517D01*
Y432490*
X1708517*
Y392490*
X1123517D02*
X1283517D01*
Y362490*
X1123517*
Y392490*
X1283517Y362490D02*
X1408517D01*
Y392490*
X1283517*
Y362490*
G54D206*
X1260654Y989752D03*
X1065356Y926390D03*
Y920390D03*
X1086356Y926390D03*
Y920390D03*
X1332054Y868752D03*
X1208154Y902846D03*
X1220654Y949346D03*
X1370154Y899846D03*
G54D212*
X982670Y979717D03*
Y994283D03*
X991330D03*
Y979717D03*
G54D215*
X1008251Y979140D03*
X1010220D03*
X1012189D03*
X1014158D03*
X1016127D03*
X1018096D03*
X1020065D03*
X1022034D03*
X1024003D03*
X1025972D03*
X1027941D03*
X1029910D03*
X1031879D03*
X1033848D03*
X1035817D03*
X1037786D03*
Y934640D03*
X1035817D03*
X1033848D03*
X1031879D03*
X1029910D03*
X1027941D03*
X1025972D03*
X1024003D03*
X1022034D03*
X1020065D03*
X1018096D03*
X1016127D03*
X1014158D03*
X1012189D03*
X1010220D03*
X1008251D03*
G54D216*
X1045269Y971657D03*
Y969688D03*
Y967719D03*
Y965750D03*
Y963781D03*
Y961812D03*
Y959843D03*
Y957874D03*
Y955905D03*
Y953936D03*
Y951967D03*
Y949998D03*
Y948029D03*
Y946060D03*
Y944091D03*
Y942122D03*
X1000769D03*
Y944091D03*
Y946060D03*
Y948029D03*
Y949998D03*
Y951967D03*
Y953936D03*
Y955905D03*
Y957874D03*
Y959843D03*
Y961812D03*
Y963781D03*
Y965750D03*
Y967719D03*
Y969688D03*
Y971657D03*
G54D219*
X1000000Y1013780D03*
Y1000000D03*
G54D235*
X1085158Y1015890D03*
X1069158D03*
G54D248*
X1002856Y829390D02*
X1095067D01*
Y849090*
X1104467D02*
G75*
G03X1095067I-4700J-0D01*
G01X1104467D02*
Y829390D01*
X1209356*
Y852990*
X1227056*
Y860890*
X1225456*
X1219206Y863989D02*
G03X1225459Y860892I3900J13D01*
G01X1219206Y863990D02*
X1219156D01*
Y877390*
X1284187*
Y829790*
X1383715*
Y853000*
X1390256*
Y1030519*
X973607*
X973606Y877390*
X992956*
Y864090*
X993006*
X986758Y860788D02*
G03X993006Y864089I2353J3111D01*
G01X986756Y860790D02*
X985156D01*
Y852990*
X1002856*
Y829390*
G54D249*
X1223404Y999846D03*
G54D250*
X1213154D03*
G54D263*
X992800Y1010469D03*
Y1008500D03*
Y1006531D03*
X987200D03*
Y1010469D03*
G54D282*
X1100650Y880050D03*
X1108150D03*
X1104400Y869800D03*
G74*
X0Y0D02*
M02*
