G75*
%MOIN*%
%OFA0B0*%
%FSLAX25Y25*%
%IPPOS*%
%LPD*%
%AMOC8*
5,1,8,0,0,1.08239X$1,22.5*
%
%ADD10C,0.00442*%
%ADD11C,0.00429*%
%ADD12C,0.04381*%
%ADD13C,0.00486*%
%ADD14C,0.00827*%
%ADD15C,0.00434*%
%ADD16C,0.03898*%
%ADD17C,0.00465*%
%ADD18C,0.05200*%
%ADD19C,0.00800*%
%ADD20C,0.00450*%
%ADD21C,0.00670*%
%ADD22C,0.00520*%
%ADD23C,0.00906*%
%ADD24C,0.00808*%
%ADD25R,0.07000X0.07000*%
%ADD26C,0.07400*%
%ADD27C,0.00590*%
%ADD28C,0.00788*%
%ADD29C,0.00485*%
%ADD30C,0.00480*%
%ADD31C,0.08000*%
%ADD32R,0.07400X0.07400*%
%ADD33C,0.00455*%
D10*
X0185618Y0162089D02*
X0185618Y0164245D01*
X0185618Y0162089D02*
X0177162Y0162089D01*
X0177162Y0164245D01*
X0185618Y0164245D01*
X0185618Y0162530D02*
X0177162Y0162530D01*
X0177162Y0162971D02*
X0185618Y0162971D01*
X0185618Y0163412D02*
X0177162Y0163412D01*
X0177162Y0163853D02*
X0185618Y0163853D01*
X0185618Y0167089D02*
X0185618Y0169245D01*
X0185618Y0167089D02*
X0177162Y0167089D01*
X0177162Y0169245D01*
X0185618Y0169245D01*
X0185618Y0167530D02*
X0177162Y0167530D01*
X0177162Y0167971D02*
X0185618Y0167971D01*
X0185618Y0168412D02*
X0177162Y0168412D01*
X0177162Y0168853D02*
X0185618Y0168853D01*
X0185618Y0172089D02*
X0185618Y0174245D01*
X0185618Y0172089D02*
X0177162Y0172089D01*
X0177162Y0174245D01*
X0185618Y0174245D01*
X0185618Y0172530D02*
X0177162Y0172530D01*
X0177162Y0172971D02*
X0185618Y0172971D01*
X0185618Y0173412D02*
X0177162Y0173412D01*
X0177162Y0173853D02*
X0185618Y0173853D01*
X0185618Y0177089D02*
X0185618Y0179245D01*
X0185618Y0177089D02*
X0177162Y0177089D01*
X0177162Y0179245D01*
X0185618Y0179245D01*
X0185618Y0177530D02*
X0177162Y0177530D01*
X0177162Y0177971D02*
X0185618Y0177971D01*
X0185618Y0178412D02*
X0177162Y0178412D01*
X0177162Y0178853D02*
X0185618Y0178853D01*
X0185618Y0182089D02*
X0185618Y0184245D01*
X0185618Y0182089D02*
X0177162Y0182089D01*
X0177162Y0184245D01*
X0185618Y0184245D01*
X0185618Y0182530D02*
X0177162Y0182530D01*
X0177162Y0182971D02*
X0185618Y0182971D01*
X0185618Y0183412D02*
X0177162Y0183412D01*
X0177162Y0183853D02*
X0185618Y0183853D01*
X0185618Y0187089D02*
X0185618Y0189245D01*
X0185618Y0187089D02*
X0177162Y0187089D01*
X0177162Y0189245D01*
X0185618Y0189245D01*
X0185618Y0187530D02*
X0177162Y0187530D01*
X0177162Y0187971D02*
X0185618Y0187971D01*
X0185618Y0188412D02*
X0177162Y0188412D01*
X0177162Y0188853D02*
X0185618Y0188853D01*
X0185618Y0192089D02*
X0185618Y0194245D01*
X0185618Y0192089D02*
X0177162Y0192089D01*
X0177162Y0194245D01*
X0185618Y0194245D01*
X0185618Y0192530D02*
X0177162Y0192530D01*
X0177162Y0192971D02*
X0185618Y0192971D01*
X0185618Y0193412D02*
X0177162Y0193412D01*
X0177162Y0193853D02*
X0185618Y0193853D01*
X0185618Y0197089D02*
X0185618Y0199245D01*
X0185618Y0197089D02*
X0177162Y0197089D01*
X0177162Y0199245D01*
X0185618Y0199245D01*
X0185618Y0197530D02*
X0177162Y0197530D01*
X0177162Y0197971D02*
X0185618Y0197971D01*
X0185618Y0198412D02*
X0177162Y0198412D01*
X0177162Y0198853D02*
X0185618Y0198853D01*
X0177162Y0206089D02*
X0177162Y0208245D01*
X0185618Y0208245D01*
X0185618Y0206089D01*
X0177162Y0206089D01*
X0177162Y0206530D02*
X0185618Y0206530D01*
X0185618Y0206971D02*
X0177162Y0206971D01*
X0177162Y0207412D02*
X0185618Y0207412D01*
X0185618Y0207853D02*
X0177162Y0207853D01*
X0177162Y0211089D02*
X0177162Y0213245D01*
X0185618Y0213245D01*
X0185618Y0211089D01*
X0177162Y0211089D01*
X0177162Y0211530D02*
X0185618Y0211530D01*
X0185618Y0211971D02*
X0177162Y0211971D01*
X0177162Y0212412D02*
X0185618Y0212412D01*
X0185618Y0212853D02*
X0177162Y0212853D01*
X0177162Y0216089D02*
X0177162Y0218245D01*
X0185618Y0218245D01*
X0185618Y0216089D01*
X0177162Y0216089D01*
X0177162Y0216530D02*
X0185618Y0216530D01*
X0185618Y0216971D02*
X0177162Y0216971D01*
X0177162Y0217412D02*
X0185618Y0217412D01*
X0185618Y0217853D02*
X0177162Y0217853D01*
X0177162Y0221089D02*
X0177162Y0223245D01*
X0185618Y0223245D01*
X0185618Y0221089D01*
X0177162Y0221089D01*
X0177162Y0221530D02*
X0185618Y0221530D01*
X0185618Y0221971D02*
X0177162Y0221971D01*
X0177162Y0222412D02*
X0185618Y0222412D01*
X0185618Y0222853D02*
X0177162Y0222853D01*
X0177162Y0226089D02*
X0177162Y0228245D01*
X0185618Y0228245D01*
X0185618Y0226089D01*
X0177162Y0226089D01*
X0177162Y0226530D02*
X0185618Y0226530D01*
X0185618Y0226971D02*
X0177162Y0226971D01*
X0177162Y0227412D02*
X0185618Y0227412D01*
X0185618Y0227853D02*
X0177162Y0227853D01*
X0177162Y0231089D02*
X0177162Y0233245D01*
X0185618Y0233245D01*
X0185618Y0231089D01*
X0177162Y0231089D01*
X0177162Y0231530D02*
X0185618Y0231530D01*
X0185618Y0231971D02*
X0177162Y0231971D01*
X0177162Y0232412D02*
X0185618Y0232412D01*
X0185618Y0232853D02*
X0177162Y0232853D01*
X0177162Y0236089D02*
X0177162Y0238245D01*
X0185618Y0238245D01*
X0185618Y0236089D01*
X0177162Y0236089D01*
X0177162Y0236530D02*
X0185618Y0236530D01*
X0185618Y0236971D02*
X0177162Y0236971D01*
X0177162Y0237412D02*
X0185618Y0237412D01*
X0185618Y0237853D02*
X0177162Y0237853D01*
X0177162Y0241089D02*
X0177162Y0243245D01*
X0185618Y0243245D01*
X0185618Y0241089D01*
X0177162Y0241089D01*
X0177162Y0241530D02*
X0185618Y0241530D01*
X0185618Y0241971D02*
X0177162Y0241971D01*
X0177162Y0242412D02*
X0185618Y0242412D01*
X0185618Y0242853D02*
X0177162Y0242853D01*
X0177078Y0247620D02*
X0177078Y0249776D01*
X0177078Y0247620D02*
X0174922Y0247620D01*
X0174922Y0249776D01*
X0177078Y0249776D01*
X0177078Y0248061D02*
X0174922Y0248061D01*
X0174922Y0248502D02*
X0177078Y0248502D01*
X0177078Y0248943D02*
X0174922Y0248943D01*
X0174922Y0249384D02*
X0177078Y0249384D01*
X0177078Y0251557D02*
X0177078Y0253713D01*
X0177078Y0251557D02*
X0174922Y0251557D01*
X0174922Y0253713D01*
X0177078Y0253713D01*
X0177078Y0251998D02*
X0174922Y0251998D01*
X0174922Y0252439D02*
X0177078Y0252439D01*
X0177078Y0252880D02*
X0174922Y0252880D01*
X0174922Y0253321D02*
X0177078Y0253321D01*
X0173078Y0253713D02*
X0173078Y0251557D01*
X0170922Y0251557D01*
X0170922Y0253713D01*
X0173078Y0253713D01*
X0173078Y0251998D02*
X0170922Y0251998D01*
X0170922Y0252439D02*
X0173078Y0252439D01*
X0173078Y0252880D02*
X0170922Y0252880D01*
X0170922Y0253321D02*
X0173078Y0253321D01*
X0173078Y0249776D02*
X0173078Y0247620D01*
X0170922Y0247620D01*
X0170922Y0249776D01*
X0173078Y0249776D01*
X0173078Y0248061D02*
X0170922Y0248061D01*
X0170922Y0248502D02*
X0173078Y0248502D01*
X0173078Y0248943D02*
X0170922Y0248943D01*
X0170922Y0249384D02*
X0173078Y0249384D01*
X0169078Y0249776D02*
X0169078Y0247620D01*
X0166922Y0247620D01*
X0166922Y0249776D01*
X0169078Y0249776D01*
X0169078Y0248061D02*
X0166922Y0248061D01*
X0166922Y0248502D02*
X0169078Y0248502D01*
X0169078Y0248943D02*
X0166922Y0248943D01*
X0166922Y0249384D02*
X0169078Y0249384D01*
X0169078Y0251557D02*
X0169078Y0253713D01*
X0169078Y0251557D02*
X0166922Y0251557D01*
X0166922Y0253713D01*
X0169078Y0253713D01*
X0169078Y0251998D02*
X0166922Y0251998D01*
X0166922Y0252439D02*
X0169078Y0252439D01*
X0169078Y0252880D02*
X0166922Y0252880D01*
X0166922Y0253321D02*
X0169078Y0253321D01*
X0161922Y0253713D02*
X0161922Y0251557D01*
X0161922Y0253713D02*
X0164078Y0253713D01*
X0164078Y0251557D01*
X0161922Y0251557D01*
X0161922Y0251998D02*
X0164078Y0251998D01*
X0164078Y0252439D02*
X0161922Y0252439D01*
X0161922Y0252880D02*
X0164078Y0252880D01*
X0164078Y0253321D02*
X0161922Y0253321D01*
X0161922Y0249776D02*
X0161922Y0247620D01*
X0161922Y0249776D02*
X0164078Y0249776D01*
X0164078Y0247620D01*
X0161922Y0247620D01*
X0161922Y0248061D02*
X0164078Y0248061D01*
X0164078Y0248502D02*
X0161922Y0248502D01*
X0161922Y0248943D02*
X0164078Y0248943D01*
X0164078Y0249384D02*
X0161922Y0249384D01*
X0148922Y0248713D02*
X0148922Y0246557D01*
X0148922Y0248713D02*
X0151078Y0248713D01*
X0151078Y0246557D01*
X0148922Y0246557D01*
X0148922Y0246998D02*
X0151078Y0246998D01*
X0151078Y0247439D02*
X0148922Y0247439D01*
X0148922Y0247880D02*
X0151078Y0247880D01*
X0151078Y0248321D02*
X0148922Y0248321D01*
X0151078Y0254620D02*
X0151078Y0256776D01*
X0151078Y0254620D02*
X0148922Y0254620D01*
X0148922Y0256776D01*
X0151078Y0256776D01*
X0151078Y0255061D02*
X0148922Y0255061D01*
X0148922Y0255502D02*
X0151078Y0255502D01*
X0151078Y0255943D02*
X0148922Y0255943D01*
X0148922Y0256384D02*
X0151078Y0256384D01*
X0151078Y0258557D02*
X0151078Y0260713D01*
X0151078Y0258557D02*
X0148922Y0258557D01*
X0148922Y0260713D01*
X0151078Y0260713D01*
X0151078Y0258998D02*
X0148922Y0258998D01*
X0148922Y0259439D02*
X0151078Y0259439D01*
X0151078Y0259880D02*
X0148922Y0259880D01*
X0148922Y0260321D02*
X0151078Y0260321D01*
X0153422Y0259620D02*
X0153422Y0261776D01*
X0155578Y0261776D01*
X0155578Y0259620D01*
X0153422Y0259620D01*
X0153422Y0260061D02*
X0155578Y0260061D01*
X0155578Y0260502D02*
X0153422Y0260502D01*
X0153422Y0260943D02*
X0155578Y0260943D01*
X0155578Y0261384D02*
X0153422Y0261384D01*
X0153422Y0263557D02*
X0153422Y0265713D01*
X0155578Y0265713D01*
X0155578Y0263557D01*
X0153422Y0263557D01*
X0153422Y0263998D02*
X0155578Y0263998D01*
X0155578Y0264439D02*
X0153422Y0264439D01*
X0153422Y0264880D02*
X0155578Y0264880D01*
X0155578Y0265321D02*
X0153422Y0265321D01*
X0148922Y0244776D02*
X0148922Y0242620D01*
X0148922Y0244776D02*
X0151078Y0244776D01*
X0151078Y0242620D01*
X0148922Y0242620D01*
X0148922Y0243061D02*
X0151078Y0243061D01*
X0151078Y0243502D02*
X0148922Y0243502D01*
X0148922Y0243943D02*
X0151078Y0243943D01*
X0151078Y0244384D02*
X0148922Y0244384D01*
X0159453Y0231589D02*
X0161609Y0231589D01*
X0159453Y0231589D02*
X0159453Y0233745D01*
X0161609Y0233745D01*
X0161609Y0231589D01*
X0161609Y0232030D02*
X0159453Y0232030D01*
X0159453Y0232471D02*
X0161609Y0232471D01*
X0161609Y0232912D02*
X0159453Y0232912D01*
X0159453Y0233353D02*
X0161609Y0233353D01*
X0163391Y0231589D02*
X0165547Y0231589D01*
X0163391Y0231589D02*
X0163391Y0233745D01*
X0165547Y0233745D01*
X0165547Y0231589D01*
X0165547Y0232030D02*
X0163391Y0232030D01*
X0163391Y0232471D02*
X0165547Y0232471D01*
X0165547Y0232912D02*
X0163391Y0232912D01*
X0163391Y0233353D02*
X0165547Y0233353D01*
X0165547Y0228745D02*
X0163391Y0228745D01*
X0165547Y0228745D02*
X0165547Y0226589D01*
X0163391Y0226589D01*
X0163391Y0228745D01*
X0163391Y0227030D02*
X0165547Y0227030D01*
X0165547Y0227471D02*
X0163391Y0227471D01*
X0163391Y0227912D02*
X0165547Y0227912D01*
X0165547Y0228353D02*
X0163391Y0228353D01*
X0161609Y0228745D02*
X0159453Y0228745D01*
X0161609Y0228745D02*
X0161609Y0226589D01*
X0159453Y0226589D01*
X0159453Y0228745D01*
X0159453Y0227030D02*
X0161609Y0227030D01*
X0161609Y0227471D02*
X0159453Y0227471D01*
X0159453Y0227912D02*
X0161609Y0227912D01*
X0161609Y0228353D02*
X0159453Y0228353D01*
X0159453Y0223745D02*
X0161609Y0223745D01*
X0161609Y0221589D01*
X0159453Y0221589D01*
X0159453Y0223745D01*
X0159453Y0222030D02*
X0161609Y0222030D01*
X0161609Y0222471D02*
X0159453Y0222471D01*
X0159453Y0222912D02*
X0161609Y0222912D01*
X0161609Y0223353D02*
X0159453Y0223353D01*
X0163391Y0223745D02*
X0165547Y0223745D01*
X0165547Y0221589D01*
X0163391Y0221589D01*
X0163391Y0223745D01*
X0163391Y0222030D02*
X0165547Y0222030D01*
X0165547Y0222471D02*
X0163391Y0222471D01*
X0163391Y0222912D02*
X0165547Y0222912D01*
X0165547Y0223353D02*
X0163391Y0223353D01*
X0184922Y0248620D02*
X0184922Y0250776D01*
X0187078Y0250776D01*
X0187078Y0248620D01*
X0184922Y0248620D01*
X0184922Y0249061D02*
X0187078Y0249061D01*
X0187078Y0249502D02*
X0184922Y0249502D01*
X0184922Y0249943D02*
X0187078Y0249943D01*
X0187078Y0250384D02*
X0184922Y0250384D01*
X0184922Y0252557D02*
X0184922Y0254713D01*
X0187078Y0254713D01*
X0187078Y0252557D01*
X0184922Y0252557D01*
X0184922Y0252998D02*
X0187078Y0252998D01*
X0187078Y0253439D02*
X0184922Y0253439D01*
X0184922Y0253880D02*
X0187078Y0253880D01*
X0187078Y0254321D02*
X0184922Y0254321D01*
X0189922Y0254713D02*
X0189922Y0252557D01*
X0189922Y0254713D02*
X0192078Y0254713D01*
X0192078Y0252557D01*
X0189922Y0252557D01*
X0189922Y0252998D02*
X0192078Y0252998D01*
X0192078Y0253439D02*
X0189922Y0253439D01*
X0189922Y0253880D02*
X0192078Y0253880D01*
X0192078Y0254321D02*
X0189922Y0254321D01*
X0189922Y0250776D02*
X0189922Y0248620D01*
X0189922Y0250776D02*
X0192078Y0250776D01*
X0192078Y0248620D01*
X0189922Y0248620D01*
X0189922Y0249061D02*
X0192078Y0249061D01*
X0192078Y0249502D02*
X0189922Y0249502D01*
X0189922Y0249943D02*
X0192078Y0249943D01*
X0192078Y0250384D02*
X0189922Y0250384D01*
X0197078Y0250776D02*
X0197078Y0248620D01*
X0194922Y0248620D01*
X0194922Y0250776D01*
X0197078Y0250776D01*
X0197078Y0249061D02*
X0194922Y0249061D01*
X0194922Y0249502D02*
X0197078Y0249502D01*
X0197078Y0249943D02*
X0194922Y0249943D01*
X0194922Y0250384D02*
X0197078Y0250384D01*
X0197078Y0252557D02*
X0197078Y0254713D01*
X0197078Y0252557D02*
X0194922Y0252557D01*
X0194922Y0254713D01*
X0197078Y0254713D01*
X0197078Y0252998D02*
X0194922Y0252998D01*
X0194922Y0253439D02*
X0197078Y0253439D01*
X0197078Y0253880D02*
X0194922Y0253880D01*
X0194922Y0254321D02*
X0197078Y0254321D01*
X0213382Y0243245D02*
X0213382Y0241089D01*
X0213382Y0243245D02*
X0221838Y0243245D01*
X0221838Y0241089D01*
X0213382Y0241089D01*
X0213382Y0241530D02*
X0221838Y0241530D01*
X0221838Y0241971D02*
X0213382Y0241971D01*
X0213382Y0242412D02*
X0221838Y0242412D01*
X0221838Y0242853D02*
X0213382Y0242853D01*
X0213382Y0238245D02*
X0213382Y0236089D01*
X0213382Y0238245D02*
X0221838Y0238245D01*
X0221838Y0236089D01*
X0213382Y0236089D01*
X0213382Y0236530D02*
X0221838Y0236530D01*
X0221838Y0236971D02*
X0213382Y0236971D01*
X0213382Y0237412D02*
X0221838Y0237412D01*
X0221838Y0237853D02*
X0213382Y0237853D01*
X0213382Y0233245D02*
X0213382Y0231089D01*
X0213382Y0233245D02*
X0221838Y0233245D01*
X0221838Y0231089D01*
X0213382Y0231089D01*
X0213382Y0231530D02*
X0221838Y0231530D01*
X0221838Y0231971D02*
X0213382Y0231971D01*
X0213382Y0232412D02*
X0221838Y0232412D01*
X0221838Y0232853D02*
X0213382Y0232853D01*
X0213382Y0228245D02*
X0213382Y0226089D01*
X0213382Y0228245D02*
X0221838Y0228245D01*
X0221838Y0226089D01*
X0213382Y0226089D01*
X0213382Y0226530D02*
X0221838Y0226530D01*
X0221838Y0226971D02*
X0213382Y0226971D01*
X0213382Y0227412D02*
X0221838Y0227412D01*
X0221838Y0227853D02*
X0213382Y0227853D01*
X0213382Y0223245D02*
X0213382Y0221089D01*
X0213382Y0223245D02*
X0221838Y0223245D01*
X0221838Y0221089D01*
X0213382Y0221089D01*
X0213382Y0221530D02*
X0221838Y0221530D01*
X0221838Y0221971D02*
X0213382Y0221971D01*
X0213382Y0222412D02*
X0221838Y0222412D01*
X0221838Y0222853D02*
X0213382Y0222853D01*
X0213382Y0218245D02*
X0213382Y0216089D01*
X0213382Y0218245D02*
X0221838Y0218245D01*
X0221838Y0216089D01*
X0213382Y0216089D01*
X0213382Y0216530D02*
X0221838Y0216530D01*
X0221838Y0216971D02*
X0213382Y0216971D01*
X0213382Y0217412D02*
X0221838Y0217412D01*
X0221838Y0217853D02*
X0213382Y0217853D01*
X0213382Y0213245D02*
X0213382Y0211089D01*
X0213382Y0213245D02*
X0221838Y0213245D01*
X0221838Y0211089D01*
X0213382Y0211089D01*
X0213382Y0211530D02*
X0221838Y0211530D01*
X0221838Y0211971D02*
X0213382Y0211971D01*
X0213382Y0212412D02*
X0221838Y0212412D01*
X0221838Y0212853D02*
X0213382Y0212853D01*
X0213382Y0208245D02*
X0213382Y0206089D01*
X0213382Y0208245D02*
X0221838Y0208245D01*
X0221838Y0206089D01*
X0213382Y0206089D01*
X0213382Y0206530D02*
X0221838Y0206530D01*
X0221838Y0206971D02*
X0213382Y0206971D01*
X0213382Y0207412D02*
X0221838Y0207412D01*
X0221838Y0207853D02*
X0213382Y0207853D01*
X0221838Y0199245D02*
X0221838Y0197089D01*
X0213382Y0197089D01*
X0213382Y0199245D01*
X0221838Y0199245D01*
X0221838Y0197530D02*
X0213382Y0197530D01*
X0213382Y0197971D02*
X0221838Y0197971D01*
X0221838Y0198412D02*
X0213382Y0198412D01*
X0213382Y0198853D02*
X0221838Y0198853D01*
X0221838Y0194245D02*
X0221838Y0192089D01*
X0213382Y0192089D01*
X0213382Y0194245D01*
X0221838Y0194245D01*
X0221838Y0192530D02*
X0213382Y0192530D01*
X0213382Y0192971D02*
X0221838Y0192971D01*
X0221838Y0193412D02*
X0213382Y0193412D01*
X0213382Y0193853D02*
X0221838Y0193853D01*
X0221838Y0189245D02*
X0221838Y0187089D01*
X0213382Y0187089D01*
X0213382Y0189245D01*
X0221838Y0189245D01*
X0221838Y0187530D02*
X0213382Y0187530D01*
X0213382Y0187971D02*
X0221838Y0187971D01*
X0221838Y0188412D02*
X0213382Y0188412D01*
X0213382Y0188853D02*
X0221838Y0188853D01*
X0221838Y0184245D02*
X0221838Y0182089D01*
X0213382Y0182089D01*
X0213382Y0184245D01*
X0221838Y0184245D01*
X0221838Y0182530D02*
X0213382Y0182530D01*
X0213382Y0182971D02*
X0221838Y0182971D01*
X0221838Y0183412D02*
X0213382Y0183412D01*
X0213382Y0183853D02*
X0221838Y0183853D01*
X0221838Y0179245D02*
X0221838Y0177089D01*
X0213382Y0177089D01*
X0213382Y0179245D01*
X0221838Y0179245D01*
X0221838Y0177530D02*
X0213382Y0177530D01*
X0213382Y0177971D02*
X0221838Y0177971D01*
X0221838Y0178412D02*
X0213382Y0178412D01*
X0213382Y0178853D02*
X0221838Y0178853D01*
X0221838Y0174245D02*
X0221838Y0172089D01*
X0213382Y0172089D01*
X0213382Y0174245D01*
X0221838Y0174245D01*
X0221838Y0172530D02*
X0213382Y0172530D01*
X0213382Y0172971D02*
X0221838Y0172971D01*
X0221838Y0173412D02*
X0213382Y0173412D01*
X0213382Y0173853D02*
X0221838Y0173853D01*
X0221838Y0169245D02*
X0221838Y0167089D01*
X0213382Y0167089D01*
X0213382Y0169245D01*
X0221838Y0169245D01*
X0221838Y0167530D02*
X0213382Y0167530D01*
X0213382Y0167971D02*
X0221838Y0167971D01*
X0221838Y0168412D02*
X0213382Y0168412D01*
X0213382Y0168853D02*
X0221838Y0168853D01*
X0221838Y0164245D02*
X0221838Y0162089D01*
X0213382Y0162089D01*
X0213382Y0164245D01*
X0221838Y0164245D01*
X0221838Y0162530D02*
X0213382Y0162530D01*
X0213382Y0162971D02*
X0221838Y0162971D01*
X0221838Y0163412D02*
X0213382Y0163412D01*
X0213382Y0163853D02*
X0221838Y0163853D01*
X0282078Y0193620D02*
X0282078Y0195776D01*
X0282078Y0193620D02*
X0279922Y0193620D01*
X0279922Y0195776D01*
X0282078Y0195776D01*
X0282078Y0194061D02*
X0279922Y0194061D01*
X0279922Y0194502D02*
X0282078Y0194502D01*
X0282078Y0194943D02*
X0279922Y0194943D01*
X0279922Y0195384D02*
X0282078Y0195384D01*
X0282078Y0197557D02*
X0282078Y0199713D01*
X0282078Y0197557D02*
X0279922Y0197557D01*
X0279922Y0199713D01*
X0282078Y0199713D01*
X0282078Y0197998D02*
X0279922Y0197998D01*
X0279922Y0198439D02*
X0282078Y0198439D01*
X0282078Y0198880D02*
X0279922Y0198880D01*
X0279922Y0199321D02*
X0282078Y0199321D01*
X0287078Y0199713D02*
X0287078Y0197557D01*
X0284922Y0197557D01*
X0284922Y0199713D01*
X0287078Y0199713D01*
X0287078Y0197998D02*
X0284922Y0197998D01*
X0284922Y0198439D02*
X0287078Y0198439D01*
X0287078Y0198880D02*
X0284922Y0198880D01*
X0284922Y0199321D02*
X0287078Y0199321D01*
X0287078Y0195776D02*
X0287078Y0193620D01*
X0284922Y0193620D01*
X0284922Y0195776D01*
X0287078Y0195776D01*
X0287078Y0194061D02*
X0284922Y0194061D01*
X0284922Y0194502D02*
X0287078Y0194502D01*
X0287078Y0194943D02*
X0284922Y0194943D01*
X0284922Y0195384D02*
X0287078Y0195384D01*
X0311422Y0200620D02*
X0311422Y0202776D01*
X0313578Y0202776D01*
X0313578Y0200620D01*
X0311422Y0200620D01*
X0311422Y0201061D02*
X0313578Y0201061D01*
X0313578Y0201502D02*
X0311422Y0201502D01*
X0311422Y0201943D02*
X0313578Y0201943D01*
X0313578Y0202384D02*
X0311422Y0202384D01*
X0311422Y0204557D02*
X0311422Y0206713D01*
X0313578Y0206713D01*
X0313578Y0204557D01*
X0311422Y0204557D01*
X0311422Y0204998D02*
X0313578Y0204998D01*
X0313578Y0205439D02*
X0311422Y0205439D01*
X0311422Y0205880D02*
X0313578Y0205880D01*
X0313578Y0206321D02*
X0311422Y0206321D01*
X0316422Y0206713D02*
X0316422Y0204557D01*
X0316422Y0206713D02*
X0318578Y0206713D01*
X0318578Y0204557D01*
X0316422Y0204557D01*
X0316422Y0204998D02*
X0318578Y0204998D01*
X0318578Y0205439D02*
X0316422Y0205439D01*
X0316422Y0205880D02*
X0318578Y0205880D01*
X0318578Y0206321D02*
X0316422Y0206321D01*
X0316422Y0202776D02*
X0316422Y0200620D01*
X0316422Y0202776D02*
X0318578Y0202776D01*
X0318578Y0200620D01*
X0316422Y0200620D01*
X0316422Y0201061D02*
X0318578Y0201061D01*
X0318578Y0201502D02*
X0316422Y0201502D01*
X0316422Y0201943D02*
X0318578Y0201943D01*
X0318578Y0202384D02*
X0316422Y0202384D01*
X0337453Y0189745D02*
X0339609Y0189745D01*
X0339609Y0187589D01*
X0337453Y0187589D01*
X0337453Y0189745D01*
X0337453Y0188030D02*
X0339609Y0188030D01*
X0339609Y0188471D02*
X0337453Y0188471D01*
X0337453Y0188912D02*
X0339609Y0188912D01*
X0339609Y0189353D02*
X0337453Y0189353D01*
X0341391Y0189745D02*
X0343547Y0189745D01*
X0343547Y0187589D01*
X0341391Y0187589D01*
X0341391Y0189745D01*
X0341391Y0188030D02*
X0343547Y0188030D01*
X0343547Y0188471D02*
X0341391Y0188471D01*
X0341391Y0188912D02*
X0343547Y0188912D01*
X0343547Y0189353D02*
X0341391Y0189353D01*
X0342422Y0193620D02*
X0342422Y0195776D01*
X0344578Y0195776D01*
X0344578Y0193620D01*
X0342422Y0193620D01*
X0342422Y0194061D02*
X0344578Y0194061D01*
X0344578Y0194502D02*
X0342422Y0194502D01*
X0342422Y0194943D02*
X0344578Y0194943D01*
X0344578Y0195384D02*
X0342422Y0195384D01*
X0342422Y0197557D02*
X0342422Y0199713D01*
X0344578Y0199713D01*
X0344578Y0197557D01*
X0342422Y0197557D01*
X0342422Y0197998D02*
X0344578Y0197998D01*
X0344578Y0198439D02*
X0342422Y0198439D01*
X0342422Y0198880D02*
X0344578Y0198880D01*
X0344578Y0199321D02*
X0342422Y0199321D01*
X0341391Y0179745D02*
X0343547Y0179745D01*
X0343547Y0177589D01*
X0341391Y0177589D01*
X0341391Y0179745D01*
X0341391Y0178030D02*
X0343547Y0178030D01*
X0343547Y0178471D02*
X0341391Y0178471D01*
X0341391Y0178912D02*
X0343547Y0178912D01*
X0343547Y0179353D02*
X0341391Y0179353D01*
X0339609Y0179745D02*
X0337453Y0179745D01*
X0339609Y0179745D02*
X0339609Y0177589D01*
X0337453Y0177589D01*
X0337453Y0179745D01*
X0337453Y0178030D02*
X0339609Y0178030D01*
X0339609Y0178471D02*
X0337453Y0178471D01*
X0337453Y0178912D02*
X0339609Y0178912D01*
X0339609Y0179353D02*
X0337453Y0179353D01*
X0337453Y0169745D02*
X0339609Y0169745D01*
X0339609Y0167589D01*
X0337453Y0167589D01*
X0337453Y0169745D01*
X0337453Y0168030D02*
X0339609Y0168030D01*
X0339609Y0168471D02*
X0337453Y0168471D01*
X0337453Y0168912D02*
X0339609Y0168912D01*
X0339609Y0169353D02*
X0337453Y0169353D01*
X0341391Y0169745D02*
X0343547Y0169745D01*
X0343547Y0167589D01*
X0341391Y0167589D01*
X0341391Y0169745D01*
X0341391Y0168030D02*
X0343547Y0168030D01*
X0343547Y0168471D02*
X0341391Y0168471D01*
X0341391Y0168912D02*
X0343547Y0168912D01*
X0343547Y0169353D02*
X0341391Y0169353D01*
X0366453Y0212745D02*
X0368609Y0212745D01*
X0368609Y0210589D01*
X0366453Y0210589D01*
X0366453Y0212745D01*
X0366453Y0211030D02*
X0368609Y0211030D01*
X0368609Y0211471D02*
X0366453Y0211471D01*
X0366453Y0211912D02*
X0368609Y0211912D01*
X0368609Y0212353D02*
X0366453Y0212353D01*
X0370391Y0212745D02*
X0372547Y0212745D01*
X0372547Y0210589D01*
X0370391Y0210589D01*
X0370391Y0212745D01*
X0370391Y0211030D02*
X0372547Y0211030D01*
X0372547Y0211471D02*
X0370391Y0211471D01*
X0370391Y0211912D02*
X0372547Y0211912D01*
X0372547Y0212353D02*
X0370391Y0212353D01*
X0370391Y0222745D02*
X0372547Y0222745D01*
X0372547Y0220589D01*
X0370391Y0220589D01*
X0370391Y0222745D01*
X0370391Y0221030D02*
X0372547Y0221030D01*
X0372547Y0221471D02*
X0370391Y0221471D01*
X0370391Y0221912D02*
X0372547Y0221912D01*
X0372547Y0222353D02*
X0370391Y0222353D01*
X0368609Y0222745D02*
X0366453Y0222745D01*
X0368609Y0222745D02*
X0368609Y0220589D01*
X0366453Y0220589D01*
X0366453Y0222745D01*
X0366453Y0221030D02*
X0368609Y0221030D01*
X0368609Y0221471D02*
X0366453Y0221471D01*
X0366453Y0221912D02*
X0368609Y0221912D01*
X0368609Y0222353D02*
X0366453Y0222353D01*
X0366453Y0232745D02*
X0368609Y0232745D01*
X0368609Y0230589D01*
X0366453Y0230589D01*
X0366453Y0232745D01*
X0366453Y0231030D02*
X0368609Y0231030D01*
X0368609Y0231471D02*
X0366453Y0231471D01*
X0366453Y0231912D02*
X0368609Y0231912D01*
X0368609Y0232353D02*
X0366453Y0232353D01*
X0370391Y0232745D02*
X0372547Y0232745D01*
X0372547Y0230589D01*
X0370391Y0230589D01*
X0370391Y0232745D01*
X0370391Y0231030D02*
X0372547Y0231030D01*
X0372547Y0231471D02*
X0370391Y0231471D01*
X0370391Y0231912D02*
X0372547Y0231912D01*
X0372547Y0232353D02*
X0370391Y0232353D01*
X0370391Y0243745D02*
X0372547Y0243745D01*
X0372547Y0241589D01*
X0370391Y0241589D01*
X0370391Y0243745D01*
X0370391Y0242030D02*
X0372547Y0242030D01*
X0372547Y0242471D02*
X0370391Y0242471D01*
X0370391Y0242912D02*
X0372547Y0242912D01*
X0372547Y0243353D02*
X0370391Y0243353D01*
X0368609Y0243745D02*
X0366453Y0243745D01*
X0368609Y0243745D02*
X0368609Y0241589D01*
X0366453Y0241589D01*
X0366453Y0243745D01*
X0366453Y0242030D02*
X0368609Y0242030D01*
X0368609Y0242471D02*
X0366453Y0242471D01*
X0366453Y0242912D02*
X0368609Y0242912D01*
X0368609Y0243353D02*
X0366453Y0243353D01*
X0306578Y0272620D02*
X0306578Y0274776D01*
X0306578Y0272620D02*
X0304422Y0272620D01*
X0304422Y0274776D01*
X0306578Y0274776D01*
X0306578Y0273061D02*
X0304422Y0273061D01*
X0304422Y0273502D02*
X0306578Y0273502D01*
X0306578Y0273943D02*
X0304422Y0273943D01*
X0304422Y0274384D02*
X0306578Y0274384D01*
X0306578Y0276557D02*
X0306578Y0278713D01*
X0306578Y0276557D02*
X0304422Y0276557D01*
X0304422Y0278713D01*
X0306578Y0278713D01*
X0306578Y0276998D02*
X0304422Y0276998D01*
X0304422Y0277439D02*
X0306578Y0277439D01*
X0306578Y0277880D02*
X0304422Y0277880D01*
X0304422Y0278321D02*
X0306578Y0278321D01*
X0301578Y0278713D02*
X0301578Y0276557D01*
X0299422Y0276557D01*
X0299422Y0278713D01*
X0301578Y0278713D01*
X0301578Y0276998D02*
X0299422Y0276998D01*
X0299422Y0277439D02*
X0301578Y0277439D01*
X0301578Y0277880D02*
X0299422Y0277880D01*
X0299422Y0278321D02*
X0301578Y0278321D01*
X0301578Y0274776D02*
X0301578Y0272620D01*
X0299422Y0272620D01*
X0299422Y0274776D01*
X0301578Y0274776D01*
X0301578Y0273061D02*
X0299422Y0273061D01*
X0299422Y0273502D02*
X0301578Y0273502D01*
X0301578Y0273943D02*
X0299422Y0273943D01*
X0299422Y0274384D02*
X0301578Y0274384D01*
X0296578Y0274776D02*
X0296578Y0272620D01*
X0294422Y0272620D01*
X0294422Y0274776D01*
X0296578Y0274776D01*
X0296578Y0273061D02*
X0294422Y0273061D01*
X0294422Y0273502D02*
X0296578Y0273502D01*
X0296578Y0273943D02*
X0294422Y0273943D01*
X0294422Y0274384D02*
X0296578Y0274384D01*
X0296578Y0276557D02*
X0296578Y0278713D01*
X0296578Y0276557D02*
X0294422Y0276557D01*
X0294422Y0278713D01*
X0296578Y0278713D01*
X0296578Y0276998D02*
X0294422Y0276998D01*
X0294422Y0277439D02*
X0296578Y0277439D01*
X0296578Y0277880D02*
X0294422Y0277880D01*
X0294422Y0278321D02*
X0296578Y0278321D01*
X0260578Y0252213D02*
X0260578Y0250057D01*
X0258422Y0250057D01*
X0258422Y0252213D01*
X0260578Y0252213D01*
X0260578Y0250498D02*
X0258422Y0250498D01*
X0258422Y0250939D02*
X0260578Y0250939D01*
X0260578Y0251380D02*
X0258422Y0251380D01*
X0258422Y0251821D02*
X0260578Y0251821D01*
X0260578Y0248276D02*
X0260578Y0246120D01*
X0258422Y0246120D01*
X0258422Y0248276D01*
X0260578Y0248276D01*
X0260578Y0246561D02*
X0258422Y0246561D01*
X0258422Y0247002D02*
X0260578Y0247002D01*
X0260578Y0247443D02*
X0258422Y0247443D01*
X0258422Y0247884D02*
X0260578Y0247884D01*
X0258422Y0234713D02*
X0258422Y0232557D01*
X0258422Y0234713D02*
X0260578Y0234713D01*
X0260578Y0232557D01*
X0258422Y0232557D01*
X0258422Y0232998D02*
X0260578Y0232998D01*
X0260578Y0233439D02*
X0258422Y0233439D01*
X0258422Y0233880D02*
X0260578Y0233880D01*
X0260578Y0234321D02*
X0258422Y0234321D01*
X0258422Y0230776D02*
X0258422Y0228620D01*
X0258422Y0230776D02*
X0260578Y0230776D01*
X0260578Y0228620D01*
X0258422Y0228620D01*
X0258422Y0229061D02*
X0260578Y0229061D01*
X0260578Y0229502D02*
X0258422Y0229502D01*
X0258422Y0229943D02*
X0260578Y0229943D01*
X0260578Y0230384D02*
X0258422Y0230384D01*
X0231578Y0227213D02*
X0231578Y0225057D01*
X0229422Y0225057D01*
X0229422Y0227213D01*
X0231578Y0227213D01*
X0231578Y0225498D02*
X0229422Y0225498D01*
X0229422Y0225939D02*
X0231578Y0225939D01*
X0231578Y0226380D02*
X0229422Y0226380D01*
X0229422Y0226821D02*
X0231578Y0226821D01*
X0231578Y0223276D02*
X0231578Y0221120D01*
X0229422Y0221120D01*
X0229422Y0223276D01*
X0231578Y0223276D01*
X0231578Y0221561D02*
X0229422Y0221561D01*
X0229422Y0222002D02*
X0231578Y0222002D01*
X0231578Y0222443D02*
X0229422Y0222443D01*
X0229422Y0222884D02*
X0231578Y0222884D01*
X0229422Y0236120D02*
X0229422Y0238276D01*
X0231578Y0238276D01*
X0231578Y0236120D01*
X0229422Y0236120D01*
X0229422Y0236561D02*
X0231578Y0236561D01*
X0231578Y0237002D02*
X0229422Y0237002D01*
X0229422Y0237443D02*
X0231578Y0237443D01*
X0231578Y0237884D02*
X0229422Y0237884D01*
X0229422Y0240057D02*
X0229422Y0242213D01*
X0231578Y0242213D01*
X0231578Y0240057D01*
X0229422Y0240057D01*
X0229422Y0240498D02*
X0231578Y0240498D01*
X0231578Y0240939D02*
X0229422Y0240939D01*
X0229422Y0241380D02*
X0231578Y0241380D01*
X0231578Y0241821D02*
X0229422Y0241821D01*
X0220578Y0272620D02*
X0220578Y0274776D01*
X0220578Y0272620D02*
X0218422Y0272620D01*
X0218422Y0274776D01*
X0220578Y0274776D01*
X0220578Y0273061D02*
X0218422Y0273061D01*
X0218422Y0273502D02*
X0220578Y0273502D01*
X0220578Y0273943D02*
X0218422Y0273943D01*
X0218422Y0274384D02*
X0220578Y0274384D01*
X0220578Y0276557D02*
X0220578Y0278713D01*
X0220578Y0276557D02*
X0218422Y0276557D01*
X0218422Y0278713D01*
X0220578Y0278713D01*
X0220578Y0276998D02*
X0218422Y0276998D01*
X0218422Y0277439D02*
X0220578Y0277439D01*
X0220578Y0277880D02*
X0218422Y0277880D01*
X0218422Y0278321D02*
X0220578Y0278321D01*
X0220578Y0285620D02*
X0220578Y0287776D01*
X0220578Y0285620D02*
X0218422Y0285620D01*
X0218422Y0287776D01*
X0220578Y0287776D01*
X0220578Y0286061D02*
X0218422Y0286061D01*
X0218422Y0286502D02*
X0220578Y0286502D01*
X0220578Y0286943D02*
X0218422Y0286943D01*
X0218422Y0287384D02*
X0220578Y0287384D01*
X0220578Y0289557D02*
X0220578Y0291713D01*
X0220578Y0289557D02*
X0218422Y0289557D01*
X0218422Y0291713D01*
X0220578Y0291713D01*
X0220578Y0289998D02*
X0218422Y0289998D01*
X0218422Y0290439D02*
X0220578Y0290439D01*
X0220578Y0290880D02*
X0218422Y0290880D01*
X0218422Y0291321D02*
X0220578Y0291321D01*
X0197078Y0306620D02*
X0197078Y0308776D01*
X0197078Y0306620D02*
X0194922Y0306620D01*
X0194922Y0308776D01*
X0197078Y0308776D01*
X0197078Y0307061D02*
X0194922Y0307061D01*
X0194922Y0307502D02*
X0197078Y0307502D01*
X0197078Y0307943D02*
X0194922Y0307943D01*
X0194922Y0308384D02*
X0197078Y0308384D01*
X0197078Y0310557D02*
X0197078Y0312713D01*
X0197078Y0310557D02*
X0194922Y0310557D01*
X0194922Y0312713D01*
X0197078Y0312713D01*
X0197078Y0310998D02*
X0194922Y0310998D01*
X0194922Y0311439D02*
X0197078Y0311439D01*
X0197078Y0311880D02*
X0194922Y0311880D01*
X0194922Y0312321D02*
X0197078Y0312321D01*
X0157547Y0319745D02*
X0155391Y0319745D01*
X0157547Y0319745D02*
X0157547Y0317589D01*
X0155391Y0317589D01*
X0155391Y0319745D01*
X0155391Y0318030D02*
X0157547Y0318030D01*
X0157547Y0318471D02*
X0155391Y0318471D01*
X0155391Y0318912D02*
X0157547Y0318912D01*
X0157547Y0319353D02*
X0155391Y0319353D01*
X0153609Y0319745D02*
X0151453Y0319745D01*
X0153609Y0319745D02*
X0153609Y0317589D01*
X0151453Y0317589D01*
X0151453Y0319745D01*
X0151453Y0318030D02*
X0153609Y0318030D01*
X0153609Y0318471D02*
X0151453Y0318471D01*
X0151453Y0318912D02*
X0153609Y0318912D01*
X0153609Y0319353D02*
X0151453Y0319353D01*
X0151453Y0324745D02*
X0153609Y0324745D01*
X0153609Y0322589D01*
X0151453Y0322589D01*
X0151453Y0324745D01*
X0151453Y0323030D02*
X0153609Y0323030D01*
X0153609Y0323471D02*
X0151453Y0323471D01*
X0151453Y0323912D02*
X0153609Y0323912D01*
X0153609Y0324353D02*
X0151453Y0324353D01*
X0155391Y0324745D02*
X0157547Y0324745D01*
X0157547Y0322589D01*
X0155391Y0322589D01*
X0155391Y0324745D01*
X0155391Y0323030D02*
X0157547Y0323030D01*
X0157547Y0323471D02*
X0155391Y0323471D01*
X0155391Y0323912D02*
X0157547Y0323912D01*
X0157547Y0324353D02*
X0155391Y0324353D01*
X0141547Y0324745D02*
X0139391Y0324745D01*
X0141547Y0324745D02*
X0141547Y0322589D01*
X0139391Y0322589D01*
X0139391Y0324745D01*
X0139391Y0323030D02*
X0141547Y0323030D01*
X0141547Y0323471D02*
X0139391Y0323471D01*
X0139391Y0323912D02*
X0141547Y0323912D01*
X0141547Y0324353D02*
X0139391Y0324353D01*
X0137609Y0324745D02*
X0135453Y0324745D01*
X0137609Y0324745D02*
X0137609Y0322589D01*
X0135453Y0322589D01*
X0135453Y0324745D01*
X0135453Y0323030D02*
X0137609Y0323030D01*
X0137609Y0323471D02*
X0135453Y0323471D01*
X0135453Y0323912D02*
X0137609Y0323912D01*
X0137609Y0324353D02*
X0135453Y0324353D01*
X0135453Y0319745D02*
X0137609Y0319745D01*
X0137609Y0317589D01*
X0135453Y0317589D01*
X0135453Y0319745D01*
X0135453Y0318030D02*
X0137609Y0318030D01*
X0137609Y0318471D02*
X0135453Y0318471D01*
X0135453Y0318912D02*
X0137609Y0318912D01*
X0137609Y0319353D02*
X0135453Y0319353D01*
X0139391Y0319745D02*
X0141547Y0319745D01*
X0141547Y0317589D01*
X0139391Y0317589D01*
X0139391Y0319745D01*
X0139391Y0318030D02*
X0141547Y0318030D01*
X0141547Y0318471D02*
X0139391Y0318471D01*
X0139391Y0318912D02*
X0141547Y0318912D01*
X0141547Y0319353D02*
X0139391Y0319353D01*
X0130578Y0309713D02*
X0130578Y0307557D01*
X0128422Y0307557D01*
X0128422Y0309713D01*
X0130578Y0309713D01*
X0130578Y0307998D02*
X0128422Y0307998D01*
X0128422Y0308439D02*
X0130578Y0308439D01*
X0130578Y0308880D02*
X0128422Y0308880D01*
X0128422Y0309321D02*
X0130578Y0309321D01*
X0130578Y0305776D02*
X0130578Y0303620D01*
X0128422Y0303620D01*
X0128422Y0305776D01*
X0130578Y0305776D01*
X0130578Y0304061D02*
X0128422Y0304061D01*
X0128422Y0304502D02*
X0130578Y0304502D01*
X0130578Y0304943D02*
X0128422Y0304943D01*
X0128422Y0305384D02*
X0130578Y0305384D01*
X0123422Y0305776D02*
X0123422Y0303620D01*
X0123422Y0305776D02*
X0125578Y0305776D01*
X0125578Y0303620D01*
X0123422Y0303620D01*
X0123422Y0304061D02*
X0125578Y0304061D01*
X0125578Y0304502D02*
X0123422Y0304502D01*
X0123422Y0304943D02*
X0125578Y0304943D01*
X0125578Y0305384D02*
X0123422Y0305384D01*
X0123422Y0307557D02*
X0123422Y0309713D01*
X0125578Y0309713D01*
X0125578Y0307557D01*
X0123422Y0307557D01*
X0123422Y0307998D02*
X0125578Y0307998D01*
X0125578Y0308439D02*
X0123422Y0308439D01*
X0123422Y0308880D02*
X0125578Y0308880D01*
X0125578Y0309321D02*
X0123422Y0309321D01*
X0135453Y0292589D02*
X0137609Y0292589D01*
X0135453Y0292589D02*
X0135453Y0294745D01*
X0137609Y0294745D01*
X0137609Y0292589D01*
X0137609Y0293030D02*
X0135453Y0293030D01*
X0135453Y0293471D02*
X0137609Y0293471D01*
X0137609Y0293912D02*
X0135453Y0293912D01*
X0135453Y0294353D02*
X0137609Y0294353D01*
X0139391Y0292589D02*
X0141547Y0292589D01*
X0139391Y0292589D02*
X0139391Y0294745D01*
X0141547Y0294745D01*
X0141547Y0292589D01*
X0141547Y0293030D02*
X0139391Y0293030D01*
X0139391Y0293471D02*
X0141547Y0293471D01*
X0141547Y0293912D02*
X0139391Y0293912D01*
X0139391Y0294353D02*
X0141547Y0294353D01*
X0345578Y0295620D02*
X0345578Y0297776D01*
X0345578Y0295620D02*
X0343422Y0295620D01*
X0343422Y0297776D01*
X0345578Y0297776D01*
X0345578Y0296061D02*
X0343422Y0296061D01*
X0343422Y0296502D02*
X0345578Y0296502D01*
X0345578Y0296943D02*
X0343422Y0296943D01*
X0343422Y0297384D02*
X0345578Y0297384D01*
X0345578Y0299557D02*
X0345578Y0301713D01*
X0345578Y0299557D02*
X0343422Y0299557D01*
X0343422Y0301713D01*
X0345578Y0301713D01*
X0345578Y0299998D02*
X0343422Y0299998D01*
X0343422Y0300439D02*
X0345578Y0300439D01*
X0345578Y0300880D02*
X0343422Y0300880D01*
X0343422Y0301321D02*
X0345578Y0301321D01*
D11*
X0345126Y0247384D02*
X0345126Y0245430D01*
X0345126Y0247384D02*
X0349638Y0247384D01*
X0349638Y0245430D01*
X0345126Y0245430D01*
X0345126Y0245858D02*
X0349638Y0245858D01*
X0349638Y0246286D02*
X0345126Y0246286D01*
X0345126Y0246714D02*
X0349638Y0246714D01*
X0349638Y0247142D02*
X0345126Y0247142D01*
X0345126Y0243644D02*
X0345126Y0241690D01*
X0345126Y0243644D02*
X0349638Y0243644D01*
X0349638Y0241690D01*
X0345126Y0241690D01*
X0345126Y0242118D02*
X0349638Y0242118D01*
X0349638Y0242546D02*
X0345126Y0242546D01*
X0345126Y0242974D02*
X0349638Y0242974D01*
X0349638Y0243402D02*
X0345126Y0243402D01*
X0345126Y0239904D02*
X0345126Y0237950D01*
X0345126Y0239904D02*
X0349638Y0239904D01*
X0349638Y0237950D01*
X0345126Y0237950D01*
X0345126Y0238378D02*
X0349638Y0238378D01*
X0349638Y0238806D02*
X0345126Y0238806D01*
X0345126Y0239234D02*
X0349638Y0239234D01*
X0349638Y0239662D02*
X0345126Y0239662D01*
X0355362Y0239904D02*
X0355362Y0237950D01*
X0355362Y0239904D02*
X0359874Y0239904D01*
X0359874Y0237950D01*
X0355362Y0237950D01*
X0355362Y0238378D02*
X0359874Y0238378D01*
X0359874Y0238806D02*
X0355362Y0238806D01*
X0355362Y0239234D02*
X0359874Y0239234D01*
X0359874Y0239662D02*
X0355362Y0239662D01*
X0355362Y0241690D02*
X0355362Y0243644D01*
X0359874Y0243644D01*
X0359874Y0241690D01*
X0355362Y0241690D01*
X0355362Y0242118D02*
X0359874Y0242118D01*
X0359874Y0242546D02*
X0355362Y0242546D01*
X0355362Y0242974D02*
X0359874Y0242974D01*
X0359874Y0243402D02*
X0355362Y0243402D01*
X0355362Y0245430D02*
X0355362Y0247384D01*
X0359874Y0247384D01*
X0359874Y0245430D01*
X0355362Y0245430D01*
X0355362Y0245858D02*
X0359874Y0245858D01*
X0359874Y0246286D02*
X0355362Y0246286D01*
X0355362Y0246714D02*
X0359874Y0246714D01*
X0359874Y0247142D02*
X0355362Y0247142D01*
X0355362Y0228384D02*
X0355362Y0226430D01*
X0355362Y0228384D02*
X0359874Y0228384D01*
X0359874Y0226430D01*
X0355362Y0226430D01*
X0355362Y0226858D02*
X0359874Y0226858D01*
X0359874Y0227286D02*
X0355362Y0227286D01*
X0355362Y0227714D02*
X0359874Y0227714D01*
X0359874Y0228142D02*
X0355362Y0228142D01*
X0355362Y0224644D02*
X0355362Y0222690D01*
X0355362Y0224644D02*
X0359874Y0224644D01*
X0359874Y0222690D01*
X0355362Y0222690D01*
X0355362Y0223118D02*
X0359874Y0223118D01*
X0359874Y0223546D02*
X0355362Y0223546D01*
X0355362Y0223974D02*
X0359874Y0223974D01*
X0359874Y0224402D02*
X0355362Y0224402D01*
X0355362Y0220904D02*
X0355362Y0218950D01*
X0355362Y0220904D02*
X0359874Y0220904D01*
X0359874Y0218950D01*
X0355362Y0218950D01*
X0355362Y0219378D02*
X0359874Y0219378D01*
X0359874Y0219806D02*
X0355362Y0219806D01*
X0355362Y0220234D02*
X0359874Y0220234D01*
X0359874Y0220662D02*
X0355362Y0220662D01*
X0345126Y0220904D02*
X0345126Y0218950D01*
X0345126Y0220904D02*
X0349638Y0220904D01*
X0349638Y0218950D01*
X0345126Y0218950D01*
X0345126Y0219378D02*
X0349638Y0219378D01*
X0349638Y0219806D02*
X0345126Y0219806D01*
X0345126Y0220234D02*
X0349638Y0220234D01*
X0349638Y0220662D02*
X0345126Y0220662D01*
X0345126Y0222690D02*
X0345126Y0224644D01*
X0349638Y0224644D01*
X0349638Y0222690D01*
X0345126Y0222690D01*
X0345126Y0223118D02*
X0349638Y0223118D01*
X0349638Y0223546D02*
X0345126Y0223546D01*
X0345126Y0223974D02*
X0349638Y0223974D01*
X0349638Y0224402D02*
X0345126Y0224402D01*
X0345126Y0226430D02*
X0345126Y0228384D01*
X0349638Y0228384D01*
X0349638Y0226430D01*
X0345126Y0226430D01*
X0345126Y0226858D02*
X0349638Y0226858D01*
X0349638Y0227286D02*
X0345126Y0227286D01*
X0345126Y0227714D02*
X0349638Y0227714D01*
X0349638Y0228142D02*
X0345126Y0228142D01*
X0143217Y0297293D02*
X0141263Y0297293D01*
X0141263Y0301805D01*
X0143217Y0301805D01*
X0143217Y0297293D01*
X0143217Y0297721D02*
X0141263Y0297721D01*
X0141263Y0298149D02*
X0143217Y0298149D01*
X0143217Y0298577D02*
X0141263Y0298577D01*
X0141263Y0299005D02*
X0143217Y0299005D01*
X0143217Y0299433D02*
X0141263Y0299433D01*
X0141263Y0299861D02*
X0143217Y0299861D01*
X0143217Y0300289D02*
X0141263Y0300289D01*
X0141263Y0300717D02*
X0143217Y0300717D01*
X0143217Y0301145D02*
X0141263Y0301145D01*
X0141263Y0301573D02*
X0143217Y0301573D01*
X0139477Y0297293D02*
X0137523Y0297293D01*
X0137523Y0301805D01*
X0139477Y0301805D01*
X0139477Y0297293D01*
X0139477Y0297721D02*
X0137523Y0297721D01*
X0137523Y0298149D02*
X0139477Y0298149D01*
X0139477Y0298577D02*
X0137523Y0298577D01*
X0137523Y0299005D02*
X0139477Y0299005D01*
X0139477Y0299433D02*
X0137523Y0299433D01*
X0137523Y0299861D02*
X0139477Y0299861D01*
X0139477Y0300289D02*
X0137523Y0300289D01*
X0137523Y0300717D02*
X0139477Y0300717D01*
X0139477Y0301145D02*
X0137523Y0301145D01*
X0137523Y0301573D02*
X0139477Y0301573D01*
X0135737Y0297293D02*
X0133783Y0297293D01*
X0133783Y0301805D01*
X0135737Y0301805D01*
X0135737Y0297293D01*
X0135737Y0297721D02*
X0133783Y0297721D01*
X0133783Y0298149D02*
X0135737Y0298149D01*
X0135737Y0298577D02*
X0133783Y0298577D01*
X0133783Y0299005D02*
X0135737Y0299005D01*
X0135737Y0299433D02*
X0133783Y0299433D01*
X0133783Y0299861D02*
X0135737Y0299861D01*
X0135737Y0300289D02*
X0133783Y0300289D01*
X0133783Y0300717D02*
X0135737Y0300717D01*
X0135737Y0301145D02*
X0133783Y0301145D01*
X0133783Y0301573D02*
X0135737Y0301573D01*
X0135737Y0307529D02*
X0133783Y0307529D01*
X0133783Y0312041D01*
X0135737Y0312041D01*
X0135737Y0307529D01*
X0135737Y0307957D02*
X0133783Y0307957D01*
X0133783Y0308385D02*
X0135737Y0308385D01*
X0135737Y0308813D02*
X0133783Y0308813D01*
X0133783Y0309241D02*
X0135737Y0309241D01*
X0135737Y0309669D02*
X0133783Y0309669D01*
X0133783Y0310097D02*
X0135737Y0310097D01*
X0135737Y0310525D02*
X0133783Y0310525D01*
X0133783Y0310953D02*
X0135737Y0310953D01*
X0135737Y0311381D02*
X0133783Y0311381D01*
X0133783Y0311809D02*
X0135737Y0311809D01*
X0137523Y0307529D02*
X0139477Y0307529D01*
X0137523Y0307529D02*
X0137523Y0312041D01*
X0139477Y0312041D01*
X0139477Y0307529D01*
X0139477Y0307957D02*
X0137523Y0307957D01*
X0137523Y0308385D02*
X0139477Y0308385D01*
X0139477Y0308813D02*
X0137523Y0308813D01*
X0137523Y0309241D02*
X0139477Y0309241D01*
X0139477Y0309669D02*
X0137523Y0309669D01*
X0137523Y0310097D02*
X0139477Y0310097D01*
X0139477Y0310525D02*
X0137523Y0310525D01*
X0137523Y0310953D02*
X0139477Y0310953D01*
X0139477Y0311381D02*
X0137523Y0311381D01*
X0137523Y0311809D02*
X0139477Y0311809D01*
X0141263Y0307529D02*
X0143217Y0307529D01*
X0141263Y0307529D02*
X0141263Y0312041D01*
X0143217Y0312041D01*
X0143217Y0307529D01*
X0143217Y0307957D02*
X0141263Y0307957D01*
X0141263Y0308385D02*
X0143217Y0308385D01*
X0143217Y0308813D02*
X0141263Y0308813D01*
X0141263Y0309241D02*
X0143217Y0309241D01*
X0143217Y0309669D02*
X0141263Y0309669D01*
X0141263Y0310097D02*
X0143217Y0310097D01*
X0143217Y0310525D02*
X0141263Y0310525D01*
X0141263Y0310953D02*
X0143217Y0310953D01*
X0143217Y0311381D02*
X0141263Y0311381D01*
X0141263Y0311809D02*
X0143217Y0311809D01*
D12*
X0181073Y0294740D02*
X0181073Y0281594D01*
X0167927Y0281594D01*
X0167927Y0294740D01*
X0181073Y0294740D01*
X0181073Y0285974D02*
X0167927Y0285974D01*
X0167927Y0290354D02*
X0181073Y0290354D01*
X0181073Y0294734D02*
X0167927Y0294734D01*
D13*
X0158215Y0294707D02*
X0158215Y0295405D01*
X0158215Y0294707D02*
X0155351Y0294707D01*
X0155351Y0295405D01*
X0158215Y0295405D01*
X0158215Y0295192D02*
X0155351Y0295192D01*
X0158215Y0296676D02*
X0158215Y0297374D01*
X0158215Y0296676D02*
X0155351Y0296676D01*
X0155351Y0297374D01*
X0158215Y0297374D01*
X0158215Y0297161D02*
X0155351Y0297161D01*
X0158215Y0298644D02*
X0158215Y0299342D01*
X0158215Y0298644D02*
X0155351Y0298644D01*
X0155351Y0299342D01*
X0158215Y0299342D01*
X0158215Y0299129D02*
X0155351Y0299129D01*
X0158215Y0300613D02*
X0158215Y0301311D01*
X0158215Y0300613D02*
X0155351Y0300613D01*
X0155351Y0301311D01*
X0158215Y0301311D01*
X0158215Y0301098D02*
X0155351Y0301098D01*
X0158215Y0302581D02*
X0158215Y0303279D01*
X0158215Y0302581D02*
X0155351Y0302581D01*
X0155351Y0303279D01*
X0158215Y0303279D01*
X0158215Y0303066D02*
X0155351Y0303066D01*
X0159387Y0304451D02*
X0160085Y0304451D01*
X0159387Y0304451D02*
X0159387Y0307315D01*
X0160085Y0307315D01*
X0160085Y0304451D01*
X0160085Y0304936D02*
X0159387Y0304936D01*
X0159387Y0305421D02*
X0160085Y0305421D01*
X0160085Y0305906D02*
X0159387Y0305906D01*
X0159387Y0306391D02*
X0160085Y0306391D01*
X0160085Y0306876D02*
X0159387Y0306876D01*
X0161356Y0304451D02*
X0162054Y0304451D01*
X0161356Y0304451D02*
X0161356Y0307315D01*
X0162054Y0307315D01*
X0162054Y0304451D01*
X0162054Y0304936D02*
X0161356Y0304936D01*
X0161356Y0305421D02*
X0162054Y0305421D01*
X0162054Y0305906D02*
X0161356Y0305906D01*
X0161356Y0306391D02*
X0162054Y0306391D01*
X0162054Y0306876D02*
X0161356Y0306876D01*
X0163324Y0304451D02*
X0164022Y0304451D01*
X0163324Y0304451D02*
X0163324Y0307315D01*
X0164022Y0307315D01*
X0164022Y0304451D01*
X0164022Y0304936D02*
X0163324Y0304936D01*
X0163324Y0305421D02*
X0164022Y0305421D01*
X0164022Y0305906D02*
X0163324Y0305906D01*
X0163324Y0306391D02*
X0164022Y0306391D01*
X0164022Y0306876D02*
X0163324Y0306876D01*
X0165293Y0304451D02*
X0165991Y0304451D01*
X0165293Y0304451D02*
X0165293Y0307315D01*
X0165991Y0307315D01*
X0165991Y0304451D01*
X0165991Y0304936D02*
X0165293Y0304936D01*
X0165293Y0305421D02*
X0165991Y0305421D01*
X0165991Y0305906D02*
X0165293Y0305906D01*
X0165293Y0306391D02*
X0165991Y0306391D01*
X0165991Y0306876D02*
X0165293Y0306876D01*
X0167261Y0304451D02*
X0167959Y0304451D01*
X0167261Y0304451D02*
X0167261Y0307315D01*
X0167959Y0307315D01*
X0167959Y0304451D01*
X0167959Y0304936D02*
X0167261Y0304936D01*
X0167261Y0305421D02*
X0167959Y0305421D01*
X0167959Y0305906D02*
X0167261Y0305906D01*
X0167261Y0306391D02*
X0167959Y0306391D01*
X0167959Y0306876D02*
X0167261Y0306876D01*
X0169230Y0304451D02*
X0169928Y0304451D01*
X0169230Y0304451D02*
X0169230Y0307315D01*
X0169928Y0307315D01*
X0169928Y0304451D01*
X0169928Y0304936D02*
X0169230Y0304936D01*
X0169230Y0305421D02*
X0169928Y0305421D01*
X0169928Y0305906D02*
X0169230Y0305906D01*
X0169230Y0306391D02*
X0169928Y0306391D01*
X0169928Y0306876D02*
X0169230Y0306876D01*
X0171198Y0304451D02*
X0171896Y0304451D01*
X0171198Y0304451D02*
X0171198Y0307315D01*
X0171896Y0307315D01*
X0171896Y0304451D01*
X0171896Y0304936D02*
X0171198Y0304936D01*
X0171198Y0305421D02*
X0171896Y0305421D01*
X0171896Y0305906D02*
X0171198Y0305906D01*
X0171198Y0306391D02*
X0171896Y0306391D01*
X0171896Y0306876D02*
X0171198Y0306876D01*
X0173167Y0304451D02*
X0173865Y0304451D01*
X0173167Y0304451D02*
X0173167Y0307315D01*
X0173865Y0307315D01*
X0173865Y0304451D01*
X0173865Y0304936D02*
X0173167Y0304936D01*
X0173167Y0305421D02*
X0173865Y0305421D01*
X0173865Y0305906D02*
X0173167Y0305906D01*
X0173167Y0306391D02*
X0173865Y0306391D01*
X0173865Y0306876D02*
X0173167Y0306876D01*
X0175135Y0304451D02*
X0175833Y0304451D01*
X0175135Y0304451D02*
X0175135Y0307315D01*
X0175833Y0307315D01*
X0175833Y0304451D01*
X0175833Y0304936D02*
X0175135Y0304936D01*
X0175135Y0305421D02*
X0175833Y0305421D01*
X0175833Y0305906D02*
X0175135Y0305906D01*
X0175135Y0306391D02*
X0175833Y0306391D01*
X0175833Y0306876D02*
X0175135Y0306876D01*
X0177104Y0304451D02*
X0177802Y0304451D01*
X0177104Y0304451D02*
X0177104Y0307315D01*
X0177802Y0307315D01*
X0177802Y0304451D01*
X0177802Y0304936D02*
X0177104Y0304936D01*
X0177104Y0305421D02*
X0177802Y0305421D01*
X0177802Y0305906D02*
X0177104Y0305906D01*
X0177104Y0306391D02*
X0177802Y0306391D01*
X0177802Y0306876D02*
X0177104Y0306876D01*
X0179072Y0304451D02*
X0179770Y0304451D01*
X0179072Y0304451D02*
X0179072Y0307315D01*
X0179770Y0307315D01*
X0179770Y0304451D01*
X0179770Y0304936D02*
X0179072Y0304936D01*
X0179072Y0305421D02*
X0179770Y0305421D01*
X0179770Y0305906D02*
X0179072Y0305906D01*
X0179072Y0306391D02*
X0179770Y0306391D01*
X0179770Y0306876D02*
X0179072Y0306876D01*
X0181041Y0304451D02*
X0181739Y0304451D01*
X0181041Y0304451D02*
X0181041Y0307315D01*
X0181739Y0307315D01*
X0181739Y0304451D01*
X0181739Y0304936D02*
X0181041Y0304936D01*
X0181041Y0305421D02*
X0181739Y0305421D01*
X0181739Y0305906D02*
X0181041Y0305906D01*
X0181041Y0306391D02*
X0181739Y0306391D01*
X0181739Y0306876D02*
X0181041Y0306876D01*
X0183009Y0304451D02*
X0183707Y0304451D01*
X0183009Y0304451D02*
X0183009Y0307315D01*
X0183707Y0307315D01*
X0183707Y0304451D01*
X0183707Y0304936D02*
X0183009Y0304936D01*
X0183009Y0305421D02*
X0183707Y0305421D01*
X0183707Y0305906D02*
X0183009Y0305906D01*
X0183009Y0306391D02*
X0183707Y0306391D01*
X0183707Y0306876D02*
X0183009Y0306876D01*
X0184978Y0304451D02*
X0185676Y0304451D01*
X0184978Y0304451D02*
X0184978Y0307315D01*
X0185676Y0307315D01*
X0185676Y0304451D01*
X0185676Y0304936D02*
X0184978Y0304936D01*
X0184978Y0305421D02*
X0185676Y0305421D01*
X0185676Y0305906D02*
X0184978Y0305906D01*
X0184978Y0306391D02*
X0185676Y0306391D01*
X0185676Y0306876D02*
X0184978Y0306876D01*
X0186946Y0304451D02*
X0187644Y0304451D01*
X0186946Y0304451D02*
X0186946Y0307315D01*
X0187644Y0307315D01*
X0187644Y0304451D01*
X0187644Y0304936D02*
X0186946Y0304936D01*
X0186946Y0305421D02*
X0187644Y0305421D01*
X0187644Y0305906D02*
X0186946Y0305906D01*
X0186946Y0306391D02*
X0187644Y0306391D01*
X0187644Y0306876D02*
X0186946Y0306876D01*
X0188915Y0304451D02*
X0189613Y0304451D01*
X0188915Y0304451D02*
X0188915Y0307315D01*
X0189613Y0307315D01*
X0189613Y0304451D01*
X0189613Y0304936D02*
X0188915Y0304936D01*
X0188915Y0305421D02*
X0189613Y0305421D01*
X0189613Y0305906D02*
X0188915Y0305906D01*
X0188915Y0306391D02*
X0189613Y0306391D01*
X0189613Y0306876D02*
X0188915Y0306876D01*
X0190785Y0303279D02*
X0190785Y0302581D01*
X0190785Y0303279D02*
X0193649Y0303279D01*
X0193649Y0302581D01*
X0190785Y0302581D01*
X0190785Y0303066D02*
X0193649Y0303066D01*
X0190785Y0301311D02*
X0190785Y0300613D01*
X0190785Y0301311D02*
X0193649Y0301311D01*
X0193649Y0300613D01*
X0190785Y0300613D01*
X0190785Y0301098D02*
X0193649Y0301098D01*
X0190785Y0299342D02*
X0190785Y0298644D01*
X0190785Y0299342D02*
X0193649Y0299342D01*
X0193649Y0298644D01*
X0190785Y0298644D01*
X0190785Y0299129D02*
X0193649Y0299129D01*
X0190785Y0297374D02*
X0190785Y0296676D01*
X0190785Y0297374D02*
X0193649Y0297374D01*
X0193649Y0296676D01*
X0190785Y0296676D01*
X0190785Y0297161D02*
X0193649Y0297161D01*
X0190785Y0295405D02*
X0190785Y0294707D01*
X0190785Y0295405D02*
X0193649Y0295405D01*
X0193649Y0294707D01*
X0190785Y0294707D01*
X0190785Y0295192D02*
X0193649Y0295192D01*
X0190785Y0293437D02*
X0190785Y0292739D01*
X0190785Y0293437D02*
X0193649Y0293437D01*
X0193649Y0292739D01*
X0190785Y0292739D01*
X0190785Y0293224D02*
X0193649Y0293224D01*
X0190785Y0291468D02*
X0190785Y0290770D01*
X0190785Y0291468D02*
X0193649Y0291468D01*
X0193649Y0290770D01*
X0190785Y0290770D01*
X0190785Y0291255D02*
X0193649Y0291255D01*
X0190785Y0289500D02*
X0190785Y0288802D01*
X0190785Y0289500D02*
X0193649Y0289500D01*
X0193649Y0288802D01*
X0190785Y0288802D01*
X0190785Y0289287D02*
X0193649Y0289287D01*
X0190785Y0287531D02*
X0190785Y0286833D01*
X0190785Y0287531D02*
X0193649Y0287531D01*
X0193649Y0286833D01*
X0190785Y0286833D01*
X0190785Y0287318D02*
X0193649Y0287318D01*
X0190785Y0285563D02*
X0190785Y0284865D01*
X0190785Y0285563D02*
X0193649Y0285563D01*
X0193649Y0284865D01*
X0190785Y0284865D01*
X0190785Y0285350D02*
X0193649Y0285350D01*
X0190785Y0283594D02*
X0190785Y0282896D01*
X0190785Y0283594D02*
X0193649Y0283594D01*
X0193649Y0282896D01*
X0190785Y0282896D01*
X0190785Y0283381D02*
X0193649Y0283381D01*
X0190785Y0281626D02*
X0190785Y0280928D01*
X0190785Y0281626D02*
X0193649Y0281626D01*
X0193649Y0280928D01*
X0190785Y0280928D01*
X0190785Y0281413D02*
X0193649Y0281413D01*
X0190785Y0279657D02*
X0190785Y0278959D01*
X0190785Y0279657D02*
X0193649Y0279657D01*
X0193649Y0278959D01*
X0190785Y0278959D01*
X0190785Y0279444D02*
X0193649Y0279444D01*
X0190785Y0277689D02*
X0190785Y0276991D01*
X0190785Y0277689D02*
X0193649Y0277689D01*
X0193649Y0276991D01*
X0190785Y0276991D01*
X0190785Y0277476D02*
X0193649Y0277476D01*
X0190785Y0275720D02*
X0190785Y0275022D01*
X0190785Y0275720D02*
X0193649Y0275720D01*
X0193649Y0275022D01*
X0190785Y0275022D01*
X0190785Y0275507D02*
X0193649Y0275507D01*
X0190785Y0273752D02*
X0190785Y0273054D01*
X0190785Y0273752D02*
X0193649Y0273752D01*
X0193649Y0273054D01*
X0190785Y0273054D01*
X0190785Y0273539D02*
X0193649Y0273539D01*
X0189613Y0271882D02*
X0188915Y0271882D01*
X0189613Y0271882D02*
X0189613Y0269018D01*
X0188915Y0269018D01*
X0188915Y0271882D01*
X0188915Y0269503D02*
X0189613Y0269503D01*
X0189613Y0269988D02*
X0188915Y0269988D01*
X0188915Y0270473D02*
X0189613Y0270473D01*
X0189613Y0270958D02*
X0188915Y0270958D01*
X0188915Y0271443D02*
X0189613Y0271443D01*
X0187644Y0271882D02*
X0186946Y0271882D01*
X0187644Y0271882D02*
X0187644Y0269018D01*
X0186946Y0269018D01*
X0186946Y0271882D01*
X0186946Y0269503D02*
X0187644Y0269503D01*
X0187644Y0269988D02*
X0186946Y0269988D01*
X0186946Y0270473D02*
X0187644Y0270473D01*
X0187644Y0270958D02*
X0186946Y0270958D01*
X0186946Y0271443D02*
X0187644Y0271443D01*
X0185676Y0271882D02*
X0184978Y0271882D01*
X0185676Y0271882D02*
X0185676Y0269018D01*
X0184978Y0269018D01*
X0184978Y0271882D01*
X0184978Y0269503D02*
X0185676Y0269503D01*
X0185676Y0269988D02*
X0184978Y0269988D01*
X0184978Y0270473D02*
X0185676Y0270473D01*
X0185676Y0270958D02*
X0184978Y0270958D01*
X0184978Y0271443D02*
X0185676Y0271443D01*
X0183707Y0271882D02*
X0183009Y0271882D01*
X0183707Y0271882D02*
X0183707Y0269018D01*
X0183009Y0269018D01*
X0183009Y0271882D01*
X0183009Y0269503D02*
X0183707Y0269503D01*
X0183707Y0269988D02*
X0183009Y0269988D01*
X0183009Y0270473D02*
X0183707Y0270473D01*
X0183707Y0270958D02*
X0183009Y0270958D01*
X0183009Y0271443D02*
X0183707Y0271443D01*
X0181739Y0271882D02*
X0181041Y0271882D01*
X0181739Y0271882D02*
X0181739Y0269018D01*
X0181041Y0269018D01*
X0181041Y0271882D01*
X0181041Y0269503D02*
X0181739Y0269503D01*
X0181739Y0269988D02*
X0181041Y0269988D01*
X0181041Y0270473D02*
X0181739Y0270473D01*
X0181739Y0270958D02*
X0181041Y0270958D01*
X0181041Y0271443D02*
X0181739Y0271443D01*
X0179770Y0271882D02*
X0179072Y0271882D01*
X0179770Y0271882D02*
X0179770Y0269018D01*
X0179072Y0269018D01*
X0179072Y0271882D01*
X0179072Y0269503D02*
X0179770Y0269503D01*
X0179770Y0269988D02*
X0179072Y0269988D01*
X0179072Y0270473D02*
X0179770Y0270473D01*
X0179770Y0270958D02*
X0179072Y0270958D01*
X0179072Y0271443D02*
X0179770Y0271443D01*
X0177802Y0271882D02*
X0177104Y0271882D01*
X0177802Y0271882D02*
X0177802Y0269018D01*
X0177104Y0269018D01*
X0177104Y0271882D01*
X0177104Y0269503D02*
X0177802Y0269503D01*
X0177802Y0269988D02*
X0177104Y0269988D01*
X0177104Y0270473D02*
X0177802Y0270473D01*
X0177802Y0270958D02*
X0177104Y0270958D01*
X0177104Y0271443D02*
X0177802Y0271443D01*
X0175833Y0271882D02*
X0175135Y0271882D01*
X0175833Y0271882D02*
X0175833Y0269018D01*
X0175135Y0269018D01*
X0175135Y0271882D01*
X0175135Y0269503D02*
X0175833Y0269503D01*
X0175833Y0269988D02*
X0175135Y0269988D01*
X0175135Y0270473D02*
X0175833Y0270473D01*
X0175833Y0270958D02*
X0175135Y0270958D01*
X0175135Y0271443D02*
X0175833Y0271443D01*
X0173865Y0271882D02*
X0173167Y0271882D01*
X0173865Y0271882D02*
X0173865Y0269018D01*
X0173167Y0269018D01*
X0173167Y0271882D01*
X0173167Y0269503D02*
X0173865Y0269503D01*
X0173865Y0269988D02*
X0173167Y0269988D01*
X0173167Y0270473D02*
X0173865Y0270473D01*
X0173865Y0270958D02*
X0173167Y0270958D01*
X0173167Y0271443D02*
X0173865Y0271443D01*
X0171896Y0271882D02*
X0171198Y0271882D01*
X0171896Y0271882D02*
X0171896Y0269018D01*
X0171198Y0269018D01*
X0171198Y0271882D01*
X0171198Y0269503D02*
X0171896Y0269503D01*
X0171896Y0269988D02*
X0171198Y0269988D01*
X0171198Y0270473D02*
X0171896Y0270473D01*
X0171896Y0270958D02*
X0171198Y0270958D01*
X0171198Y0271443D02*
X0171896Y0271443D01*
X0169928Y0271882D02*
X0169230Y0271882D01*
X0169928Y0271882D02*
X0169928Y0269018D01*
X0169230Y0269018D01*
X0169230Y0271882D01*
X0169230Y0269503D02*
X0169928Y0269503D01*
X0169928Y0269988D02*
X0169230Y0269988D01*
X0169230Y0270473D02*
X0169928Y0270473D01*
X0169928Y0270958D02*
X0169230Y0270958D01*
X0169230Y0271443D02*
X0169928Y0271443D01*
X0167959Y0271882D02*
X0167261Y0271882D01*
X0167959Y0271882D02*
X0167959Y0269018D01*
X0167261Y0269018D01*
X0167261Y0271882D01*
X0167261Y0269503D02*
X0167959Y0269503D01*
X0167959Y0269988D02*
X0167261Y0269988D01*
X0167261Y0270473D02*
X0167959Y0270473D01*
X0167959Y0270958D02*
X0167261Y0270958D01*
X0167261Y0271443D02*
X0167959Y0271443D01*
X0165991Y0271882D02*
X0165293Y0271882D01*
X0165991Y0271882D02*
X0165991Y0269018D01*
X0165293Y0269018D01*
X0165293Y0271882D01*
X0165293Y0269503D02*
X0165991Y0269503D01*
X0165991Y0269988D02*
X0165293Y0269988D01*
X0165293Y0270473D02*
X0165991Y0270473D01*
X0165991Y0270958D02*
X0165293Y0270958D01*
X0165293Y0271443D02*
X0165991Y0271443D01*
X0164022Y0271882D02*
X0163324Y0271882D01*
X0164022Y0271882D02*
X0164022Y0269018D01*
X0163324Y0269018D01*
X0163324Y0271882D01*
X0163324Y0269503D02*
X0164022Y0269503D01*
X0164022Y0269988D02*
X0163324Y0269988D01*
X0163324Y0270473D02*
X0164022Y0270473D01*
X0164022Y0270958D02*
X0163324Y0270958D01*
X0163324Y0271443D02*
X0164022Y0271443D01*
X0162054Y0271882D02*
X0161356Y0271882D01*
X0162054Y0271882D02*
X0162054Y0269018D01*
X0161356Y0269018D01*
X0161356Y0271882D01*
X0161356Y0269503D02*
X0162054Y0269503D01*
X0162054Y0269988D02*
X0161356Y0269988D01*
X0161356Y0270473D02*
X0162054Y0270473D01*
X0162054Y0270958D02*
X0161356Y0270958D01*
X0161356Y0271443D02*
X0162054Y0271443D01*
X0160085Y0271882D02*
X0159387Y0271882D01*
X0160085Y0271882D02*
X0160085Y0269018D01*
X0159387Y0269018D01*
X0159387Y0271882D01*
X0159387Y0269503D02*
X0160085Y0269503D01*
X0160085Y0269988D02*
X0159387Y0269988D01*
X0159387Y0270473D02*
X0160085Y0270473D01*
X0160085Y0270958D02*
X0159387Y0270958D01*
X0159387Y0271443D02*
X0160085Y0271443D01*
X0158215Y0273054D02*
X0158215Y0273752D01*
X0158215Y0273054D02*
X0155351Y0273054D01*
X0155351Y0273752D01*
X0158215Y0273752D01*
X0158215Y0273539D02*
X0155351Y0273539D01*
X0158215Y0275022D02*
X0158215Y0275720D01*
X0158215Y0275022D02*
X0155351Y0275022D01*
X0155351Y0275720D01*
X0158215Y0275720D01*
X0158215Y0275507D02*
X0155351Y0275507D01*
X0158215Y0276991D02*
X0158215Y0277689D01*
X0158215Y0276991D02*
X0155351Y0276991D01*
X0155351Y0277689D01*
X0158215Y0277689D01*
X0158215Y0277476D02*
X0155351Y0277476D01*
X0158215Y0278959D02*
X0158215Y0279657D01*
X0158215Y0278959D02*
X0155351Y0278959D01*
X0155351Y0279657D01*
X0158215Y0279657D01*
X0158215Y0279444D02*
X0155351Y0279444D01*
X0158215Y0280928D02*
X0158215Y0281626D01*
X0158215Y0280928D02*
X0155351Y0280928D01*
X0155351Y0281626D01*
X0158215Y0281626D01*
X0158215Y0281413D02*
X0155351Y0281413D01*
X0158215Y0282896D02*
X0158215Y0283594D01*
X0158215Y0282896D02*
X0155351Y0282896D01*
X0155351Y0283594D01*
X0158215Y0283594D01*
X0158215Y0283381D02*
X0155351Y0283381D01*
X0158215Y0284865D02*
X0158215Y0285563D01*
X0158215Y0284865D02*
X0155351Y0284865D01*
X0155351Y0285563D01*
X0158215Y0285563D01*
X0158215Y0285350D02*
X0155351Y0285350D01*
X0158215Y0286833D02*
X0158215Y0287531D01*
X0158215Y0286833D02*
X0155351Y0286833D01*
X0155351Y0287531D01*
X0158215Y0287531D01*
X0158215Y0287318D02*
X0155351Y0287318D01*
X0158215Y0288802D02*
X0158215Y0289500D01*
X0158215Y0288802D02*
X0155351Y0288802D01*
X0155351Y0289500D01*
X0158215Y0289500D01*
X0158215Y0289287D02*
X0155351Y0289287D01*
X0158215Y0290770D02*
X0158215Y0291468D01*
X0158215Y0290770D02*
X0155351Y0290770D01*
X0155351Y0291468D01*
X0158215Y0291468D01*
X0158215Y0291255D02*
X0155351Y0291255D01*
X0158215Y0292739D02*
X0158215Y0293437D01*
X0158215Y0292739D02*
X0155351Y0292739D01*
X0155351Y0293437D01*
X0158215Y0293437D01*
X0158215Y0293224D02*
X0155351Y0293224D01*
D14*
X0132397Y0137423D02*
X0122981Y0137423D01*
X0122981Y0144871D01*
X0132397Y0144871D01*
X0132397Y0137423D01*
X0132397Y0138249D02*
X0122981Y0138249D01*
X0122981Y0139075D02*
X0132397Y0139075D01*
X0132397Y0139901D02*
X0122981Y0139901D01*
X0122981Y0140727D02*
X0132397Y0140727D01*
X0132397Y0141553D02*
X0122981Y0141553D01*
X0122981Y0142379D02*
X0132397Y0142379D01*
X0132397Y0143205D02*
X0122981Y0143205D01*
X0122981Y0144031D02*
X0132397Y0144031D01*
X0132397Y0144857D02*
X0122981Y0144857D01*
X0144634Y0137423D02*
X0157200Y0137423D01*
X0144634Y0137423D02*
X0144634Y0144871D01*
X0157200Y0144871D01*
X0157200Y0137423D01*
X0157200Y0138249D02*
X0144634Y0138249D01*
X0144634Y0139075D02*
X0157200Y0139075D01*
X0157200Y0139901D02*
X0144634Y0139901D01*
X0144634Y0140727D02*
X0157200Y0140727D01*
X0157200Y0141553D02*
X0144634Y0141553D01*
X0144634Y0142379D02*
X0157200Y0142379D01*
X0157200Y0143205D02*
X0144634Y0143205D01*
X0144634Y0144031D02*
X0157200Y0144031D01*
X0157200Y0144857D02*
X0144634Y0144857D01*
X0144634Y0172462D02*
X0157200Y0172462D01*
X0144634Y0172462D02*
X0144634Y0179910D01*
X0157200Y0179910D01*
X0157200Y0172462D01*
X0157200Y0173288D02*
X0144634Y0173288D01*
X0144634Y0174114D02*
X0157200Y0174114D01*
X0157200Y0174940D02*
X0144634Y0174940D01*
X0144634Y0175766D02*
X0157200Y0175766D01*
X0157200Y0176592D02*
X0144634Y0176592D01*
X0144634Y0177418D02*
X0157200Y0177418D01*
X0157200Y0178244D02*
X0144634Y0178244D01*
X0144634Y0179070D02*
X0157200Y0179070D01*
X0157200Y0179896D02*
X0144634Y0179896D01*
X0132397Y0172462D02*
X0122981Y0172462D01*
X0122981Y0179910D01*
X0132397Y0179910D01*
X0132397Y0172462D01*
X0132397Y0173288D02*
X0122981Y0173288D01*
X0122981Y0174114D02*
X0132397Y0174114D01*
X0132397Y0174940D02*
X0122981Y0174940D01*
X0122981Y0175766D02*
X0132397Y0175766D01*
X0132397Y0176592D02*
X0122981Y0176592D01*
X0122981Y0177418D02*
X0132397Y0177418D01*
X0132397Y0178244D02*
X0122981Y0178244D01*
X0122981Y0179070D02*
X0132397Y0179070D01*
X0132397Y0179896D02*
X0122981Y0179896D01*
D15*
X0145326Y0164099D02*
X0157296Y0164099D01*
X0145326Y0164099D02*
X0145326Y0165833D01*
X0157296Y0165833D01*
X0157296Y0164099D01*
X0157296Y0164532D02*
X0145326Y0164532D01*
X0145326Y0164965D02*
X0157296Y0164965D01*
X0157296Y0165398D02*
X0145326Y0165398D01*
X0145326Y0165831D02*
X0157296Y0165831D01*
X0157296Y0160949D02*
X0145326Y0160949D01*
X0145326Y0162683D01*
X0157296Y0162683D01*
X0157296Y0160949D01*
X0157296Y0161382D02*
X0145326Y0161382D01*
X0145326Y0161815D02*
X0157296Y0161815D01*
X0157296Y0162248D02*
X0145326Y0162248D01*
X0145326Y0162681D02*
X0157296Y0162681D01*
X0157296Y0157800D02*
X0145326Y0157800D01*
X0145326Y0159534D01*
X0157296Y0159534D01*
X0157296Y0157800D01*
X0157296Y0158233D02*
X0145326Y0158233D01*
X0145326Y0158666D02*
X0157296Y0158666D01*
X0157296Y0159099D02*
X0145326Y0159099D01*
X0145326Y0159532D02*
X0157296Y0159532D01*
X0157296Y0154650D02*
X0145326Y0154650D01*
X0145326Y0156384D01*
X0157296Y0156384D01*
X0157296Y0154650D01*
X0157296Y0155083D02*
X0145326Y0155083D01*
X0145326Y0155516D02*
X0157296Y0155516D01*
X0157296Y0155949D02*
X0145326Y0155949D01*
X0145326Y0156382D02*
X0157296Y0156382D01*
X0157296Y0151500D02*
X0145326Y0151500D01*
X0145326Y0153234D01*
X0157296Y0153234D01*
X0157296Y0151500D01*
X0157296Y0151933D02*
X0145326Y0151933D01*
X0145326Y0152366D02*
X0157296Y0152366D01*
X0157296Y0152799D02*
X0145326Y0152799D01*
X0145326Y0153232D02*
X0157296Y0153232D01*
D16*
X0139500Y0150005D03*
X0139500Y0167328D03*
D17*
X0287892Y0220322D02*
X0287892Y0221358D01*
X0287892Y0220322D02*
X0282250Y0220322D01*
X0282250Y0221358D01*
X0287892Y0221358D01*
X0287892Y0220786D02*
X0282250Y0220786D01*
X0282250Y0221250D02*
X0287892Y0221250D01*
X0287892Y0222290D02*
X0287892Y0223326D01*
X0287892Y0222290D02*
X0282250Y0222290D01*
X0282250Y0223326D01*
X0287892Y0223326D01*
X0287892Y0222754D02*
X0282250Y0222754D01*
X0282250Y0223218D02*
X0287892Y0223218D01*
X0287892Y0224259D02*
X0287892Y0225295D01*
X0287892Y0224259D02*
X0282250Y0224259D01*
X0282250Y0225295D01*
X0287892Y0225295D01*
X0287892Y0224723D02*
X0282250Y0224723D01*
X0282250Y0225187D02*
X0287892Y0225187D01*
X0287892Y0226227D02*
X0287892Y0227263D01*
X0287892Y0226227D02*
X0282250Y0226227D01*
X0282250Y0227263D01*
X0287892Y0227263D01*
X0287892Y0226691D02*
X0282250Y0226691D01*
X0282250Y0227155D02*
X0287892Y0227155D01*
X0287892Y0228196D02*
X0287892Y0229232D01*
X0287892Y0228196D02*
X0282250Y0228196D01*
X0282250Y0229232D01*
X0287892Y0229232D01*
X0287892Y0228660D02*
X0282250Y0228660D01*
X0282250Y0229124D02*
X0287892Y0229124D01*
X0287892Y0230164D02*
X0287892Y0231200D01*
X0287892Y0230164D02*
X0282250Y0230164D01*
X0282250Y0231200D01*
X0287892Y0231200D01*
X0287892Y0230628D02*
X0282250Y0230628D01*
X0282250Y0231092D02*
X0287892Y0231092D01*
X0287892Y0232133D02*
X0287892Y0233169D01*
X0287892Y0232133D02*
X0282250Y0232133D01*
X0282250Y0233169D01*
X0287892Y0233169D01*
X0287892Y0232597D02*
X0282250Y0232597D01*
X0282250Y0233061D02*
X0287892Y0233061D01*
X0287892Y0234101D02*
X0287892Y0235137D01*
X0287892Y0234101D02*
X0282250Y0234101D01*
X0282250Y0235137D01*
X0287892Y0235137D01*
X0287892Y0234565D02*
X0282250Y0234565D01*
X0282250Y0235029D02*
X0287892Y0235029D01*
X0287892Y0236070D02*
X0287892Y0237106D01*
X0287892Y0236070D02*
X0282250Y0236070D01*
X0282250Y0237106D01*
X0287892Y0237106D01*
X0287892Y0236534D02*
X0282250Y0236534D01*
X0282250Y0236998D02*
X0287892Y0236998D01*
X0287892Y0238038D02*
X0287892Y0239074D01*
X0287892Y0238038D02*
X0282250Y0238038D01*
X0282250Y0239074D01*
X0287892Y0239074D01*
X0287892Y0238502D02*
X0282250Y0238502D01*
X0282250Y0238966D02*
X0287892Y0238966D01*
X0287892Y0240007D02*
X0287892Y0241043D01*
X0287892Y0240007D02*
X0282250Y0240007D01*
X0282250Y0241043D01*
X0287892Y0241043D01*
X0287892Y0240471D02*
X0282250Y0240471D01*
X0282250Y0240935D02*
X0287892Y0240935D01*
X0287892Y0241975D02*
X0287892Y0243011D01*
X0287892Y0241975D02*
X0282250Y0241975D01*
X0282250Y0243011D01*
X0287892Y0243011D01*
X0287892Y0242439D02*
X0282250Y0242439D01*
X0282250Y0242903D02*
X0287892Y0242903D01*
X0291691Y0245775D02*
X0291691Y0251417D01*
X0291691Y0245775D02*
X0290655Y0245775D01*
X0290655Y0251417D01*
X0291691Y0251417D01*
X0291691Y0246239D02*
X0290655Y0246239D01*
X0290655Y0246703D02*
X0291691Y0246703D01*
X0291691Y0247167D02*
X0290655Y0247167D01*
X0290655Y0247631D02*
X0291691Y0247631D01*
X0291691Y0248095D02*
X0290655Y0248095D01*
X0290655Y0248559D02*
X0291691Y0248559D01*
X0291691Y0249023D02*
X0290655Y0249023D01*
X0290655Y0249487D02*
X0291691Y0249487D01*
X0291691Y0249951D02*
X0290655Y0249951D01*
X0290655Y0250415D02*
X0291691Y0250415D01*
X0291691Y0250879D02*
X0290655Y0250879D01*
X0290655Y0251343D02*
X0291691Y0251343D01*
X0293660Y0251417D02*
X0293660Y0245775D01*
X0292624Y0245775D01*
X0292624Y0251417D01*
X0293660Y0251417D01*
X0293660Y0246239D02*
X0292624Y0246239D01*
X0292624Y0246703D02*
X0293660Y0246703D01*
X0293660Y0247167D02*
X0292624Y0247167D01*
X0292624Y0247631D02*
X0293660Y0247631D01*
X0293660Y0248095D02*
X0292624Y0248095D01*
X0292624Y0248559D02*
X0293660Y0248559D01*
X0293660Y0249023D02*
X0292624Y0249023D01*
X0292624Y0249487D02*
X0293660Y0249487D01*
X0293660Y0249951D02*
X0292624Y0249951D01*
X0292624Y0250415D02*
X0293660Y0250415D01*
X0293660Y0250879D02*
X0292624Y0250879D01*
X0292624Y0251343D02*
X0293660Y0251343D01*
X0295628Y0251417D02*
X0295628Y0245775D01*
X0294592Y0245775D01*
X0294592Y0251417D01*
X0295628Y0251417D01*
X0295628Y0246239D02*
X0294592Y0246239D01*
X0294592Y0246703D02*
X0295628Y0246703D01*
X0295628Y0247167D02*
X0294592Y0247167D01*
X0294592Y0247631D02*
X0295628Y0247631D01*
X0295628Y0248095D02*
X0294592Y0248095D01*
X0294592Y0248559D02*
X0295628Y0248559D01*
X0295628Y0249023D02*
X0294592Y0249023D01*
X0294592Y0249487D02*
X0295628Y0249487D01*
X0295628Y0249951D02*
X0294592Y0249951D01*
X0294592Y0250415D02*
X0295628Y0250415D01*
X0295628Y0250879D02*
X0294592Y0250879D01*
X0294592Y0251343D02*
X0295628Y0251343D01*
X0297597Y0251417D02*
X0297597Y0245775D01*
X0296561Y0245775D01*
X0296561Y0251417D01*
X0297597Y0251417D01*
X0297597Y0246239D02*
X0296561Y0246239D01*
X0296561Y0246703D02*
X0297597Y0246703D01*
X0297597Y0247167D02*
X0296561Y0247167D01*
X0296561Y0247631D02*
X0297597Y0247631D01*
X0297597Y0248095D02*
X0296561Y0248095D01*
X0296561Y0248559D02*
X0297597Y0248559D01*
X0297597Y0249023D02*
X0296561Y0249023D01*
X0296561Y0249487D02*
X0297597Y0249487D01*
X0297597Y0249951D02*
X0296561Y0249951D01*
X0296561Y0250415D02*
X0297597Y0250415D01*
X0297597Y0250879D02*
X0296561Y0250879D01*
X0296561Y0251343D02*
X0297597Y0251343D01*
X0299565Y0251417D02*
X0299565Y0245775D01*
X0298529Y0245775D01*
X0298529Y0251417D01*
X0299565Y0251417D01*
X0299565Y0246239D02*
X0298529Y0246239D01*
X0298529Y0246703D02*
X0299565Y0246703D01*
X0299565Y0247167D02*
X0298529Y0247167D01*
X0298529Y0247631D02*
X0299565Y0247631D01*
X0299565Y0248095D02*
X0298529Y0248095D01*
X0298529Y0248559D02*
X0299565Y0248559D01*
X0299565Y0249023D02*
X0298529Y0249023D01*
X0298529Y0249487D02*
X0299565Y0249487D01*
X0299565Y0249951D02*
X0298529Y0249951D01*
X0298529Y0250415D02*
X0299565Y0250415D01*
X0299565Y0250879D02*
X0298529Y0250879D01*
X0298529Y0251343D02*
X0299565Y0251343D01*
X0301534Y0251417D02*
X0301534Y0245775D01*
X0300498Y0245775D01*
X0300498Y0251417D01*
X0301534Y0251417D01*
X0301534Y0246239D02*
X0300498Y0246239D01*
X0300498Y0246703D02*
X0301534Y0246703D01*
X0301534Y0247167D02*
X0300498Y0247167D01*
X0300498Y0247631D02*
X0301534Y0247631D01*
X0301534Y0248095D02*
X0300498Y0248095D01*
X0300498Y0248559D02*
X0301534Y0248559D01*
X0301534Y0249023D02*
X0300498Y0249023D01*
X0300498Y0249487D02*
X0301534Y0249487D01*
X0301534Y0249951D02*
X0300498Y0249951D01*
X0300498Y0250415D02*
X0301534Y0250415D01*
X0301534Y0250879D02*
X0300498Y0250879D01*
X0300498Y0251343D02*
X0301534Y0251343D01*
X0303502Y0251417D02*
X0303502Y0245775D01*
X0302466Y0245775D01*
X0302466Y0251417D01*
X0303502Y0251417D01*
X0303502Y0246239D02*
X0302466Y0246239D01*
X0302466Y0246703D02*
X0303502Y0246703D01*
X0303502Y0247167D02*
X0302466Y0247167D01*
X0302466Y0247631D02*
X0303502Y0247631D01*
X0303502Y0248095D02*
X0302466Y0248095D01*
X0302466Y0248559D02*
X0303502Y0248559D01*
X0303502Y0249023D02*
X0302466Y0249023D01*
X0302466Y0249487D02*
X0303502Y0249487D01*
X0303502Y0249951D02*
X0302466Y0249951D01*
X0302466Y0250415D02*
X0303502Y0250415D01*
X0303502Y0250879D02*
X0302466Y0250879D01*
X0302466Y0251343D02*
X0303502Y0251343D01*
X0305471Y0251417D02*
X0305471Y0245775D01*
X0304435Y0245775D01*
X0304435Y0251417D01*
X0305471Y0251417D01*
X0305471Y0246239D02*
X0304435Y0246239D01*
X0304435Y0246703D02*
X0305471Y0246703D01*
X0305471Y0247167D02*
X0304435Y0247167D01*
X0304435Y0247631D02*
X0305471Y0247631D01*
X0305471Y0248095D02*
X0304435Y0248095D01*
X0304435Y0248559D02*
X0305471Y0248559D01*
X0305471Y0249023D02*
X0304435Y0249023D01*
X0304435Y0249487D02*
X0305471Y0249487D01*
X0305471Y0249951D02*
X0304435Y0249951D01*
X0304435Y0250415D02*
X0305471Y0250415D01*
X0305471Y0250879D02*
X0304435Y0250879D01*
X0304435Y0251343D02*
X0305471Y0251343D01*
X0307439Y0251417D02*
X0307439Y0245775D01*
X0306403Y0245775D01*
X0306403Y0251417D01*
X0307439Y0251417D01*
X0307439Y0246239D02*
X0306403Y0246239D01*
X0306403Y0246703D02*
X0307439Y0246703D01*
X0307439Y0247167D02*
X0306403Y0247167D01*
X0306403Y0247631D02*
X0307439Y0247631D01*
X0307439Y0248095D02*
X0306403Y0248095D01*
X0306403Y0248559D02*
X0307439Y0248559D01*
X0307439Y0249023D02*
X0306403Y0249023D01*
X0306403Y0249487D02*
X0307439Y0249487D01*
X0307439Y0249951D02*
X0306403Y0249951D01*
X0306403Y0250415D02*
X0307439Y0250415D01*
X0307439Y0250879D02*
X0306403Y0250879D01*
X0306403Y0251343D02*
X0307439Y0251343D01*
X0309408Y0251417D02*
X0309408Y0245775D01*
X0308372Y0245775D01*
X0308372Y0251417D01*
X0309408Y0251417D01*
X0309408Y0246239D02*
X0308372Y0246239D01*
X0308372Y0246703D02*
X0309408Y0246703D01*
X0309408Y0247167D02*
X0308372Y0247167D01*
X0308372Y0247631D02*
X0309408Y0247631D01*
X0309408Y0248095D02*
X0308372Y0248095D01*
X0308372Y0248559D02*
X0309408Y0248559D01*
X0309408Y0249023D02*
X0308372Y0249023D01*
X0308372Y0249487D02*
X0309408Y0249487D01*
X0309408Y0249951D02*
X0308372Y0249951D01*
X0308372Y0250415D02*
X0309408Y0250415D01*
X0309408Y0250879D02*
X0308372Y0250879D01*
X0308372Y0251343D02*
X0309408Y0251343D01*
X0311376Y0251417D02*
X0311376Y0245775D01*
X0310340Y0245775D01*
X0310340Y0251417D01*
X0311376Y0251417D01*
X0311376Y0246239D02*
X0310340Y0246239D01*
X0310340Y0246703D02*
X0311376Y0246703D01*
X0311376Y0247167D02*
X0310340Y0247167D01*
X0310340Y0247631D02*
X0311376Y0247631D01*
X0311376Y0248095D02*
X0310340Y0248095D01*
X0310340Y0248559D02*
X0311376Y0248559D01*
X0311376Y0249023D02*
X0310340Y0249023D01*
X0310340Y0249487D02*
X0311376Y0249487D01*
X0311376Y0249951D02*
X0310340Y0249951D01*
X0310340Y0250415D02*
X0311376Y0250415D01*
X0311376Y0250879D02*
X0310340Y0250879D01*
X0310340Y0251343D02*
X0311376Y0251343D01*
X0313345Y0251417D02*
X0313345Y0245775D01*
X0312309Y0245775D01*
X0312309Y0251417D01*
X0313345Y0251417D01*
X0313345Y0246239D02*
X0312309Y0246239D01*
X0312309Y0246703D02*
X0313345Y0246703D01*
X0313345Y0247167D02*
X0312309Y0247167D01*
X0312309Y0247631D02*
X0313345Y0247631D01*
X0313345Y0248095D02*
X0312309Y0248095D01*
X0312309Y0248559D02*
X0313345Y0248559D01*
X0313345Y0249023D02*
X0312309Y0249023D01*
X0312309Y0249487D02*
X0313345Y0249487D01*
X0313345Y0249951D02*
X0312309Y0249951D01*
X0312309Y0250415D02*
X0313345Y0250415D01*
X0313345Y0250879D02*
X0312309Y0250879D01*
X0312309Y0251343D02*
X0313345Y0251343D01*
X0321750Y0243011D02*
X0321750Y0241975D01*
X0316108Y0241975D01*
X0316108Y0243011D01*
X0321750Y0243011D01*
X0321750Y0242439D02*
X0316108Y0242439D01*
X0316108Y0242903D02*
X0321750Y0242903D01*
X0321750Y0241043D02*
X0321750Y0240007D01*
X0316108Y0240007D01*
X0316108Y0241043D01*
X0321750Y0241043D01*
X0321750Y0240471D02*
X0316108Y0240471D01*
X0316108Y0240935D02*
X0321750Y0240935D01*
X0321750Y0239074D02*
X0321750Y0238038D01*
X0316108Y0238038D01*
X0316108Y0239074D01*
X0321750Y0239074D01*
X0321750Y0238502D02*
X0316108Y0238502D01*
X0316108Y0238966D02*
X0321750Y0238966D01*
X0321750Y0237106D02*
X0321750Y0236070D01*
X0316108Y0236070D01*
X0316108Y0237106D01*
X0321750Y0237106D01*
X0321750Y0236534D02*
X0316108Y0236534D01*
X0316108Y0236998D02*
X0321750Y0236998D01*
X0321750Y0235137D02*
X0321750Y0234101D01*
X0316108Y0234101D01*
X0316108Y0235137D01*
X0321750Y0235137D01*
X0321750Y0234565D02*
X0316108Y0234565D01*
X0316108Y0235029D02*
X0321750Y0235029D01*
X0321750Y0233169D02*
X0321750Y0232133D01*
X0316108Y0232133D01*
X0316108Y0233169D01*
X0321750Y0233169D01*
X0321750Y0232597D02*
X0316108Y0232597D01*
X0316108Y0233061D02*
X0321750Y0233061D01*
X0321750Y0231200D02*
X0321750Y0230164D01*
X0316108Y0230164D01*
X0316108Y0231200D01*
X0321750Y0231200D01*
X0321750Y0230628D02*
X0316108Y0230628D01*
X0316108Y0231092D02*
X0321750Y0231092D01*
X0321750Y0229232D02*
X0321750Y0228196D01*
X0316108Y0228196D01*
X0316108Y0229232D01*
X0321750Y0229232D01*
X0321750Y0228660D02*
X0316108Y0228660D01*
X0316108Y0229124D02*
X0321750Y0229124D01*
X0321750Y0227263D02*
X0321750Y0226227D01*
X0316108Y0226227D01*
X0316108Y0227263D01*
X0321750Y0227263D01*
X0321750Y0226691D02*
X0316108Y0226691D01*
X0316108Y0227155D02*
X0321750Y0227155D01*
X0321750Y0225295D02*
X0321750Y0224259D01*
X0316108Y0224259D01*
X0316108Y0225295D01*
X0321750Y0225295D01*
X0321750Y0224723D02*
X0316108Y0224723D01*
X0316108Y0225187D02*
X0321750Y0225187D01*
X0321750Y0223326D02*
X0321750Y0222290D01*
X0316108Y0222290D01*
X0316108Y0223326D01*
X0321750Y0223326D01*
X0321750Y0222754D02*
X0316108Y0222754D01*
X0316108Y0223218D02*
X0321750Y0223218D01*
X0321750Y0221358D02*
X0321750Y0220322D01*
X0316108Y0220322D01*
X0316108Y0221358D01*
X0321750Y0221358D01*
X0321750Y0220786D02*
X0316108Y0220786D01*
X0316108Y0221250D02*
X0321750Y0221250D01*
X0313345Y0217559D02*
X0313345Y0211917D01*
X0312309Y0211917D01*
X0312309Y0217559D01*
X0313345Y0217559D01*
X0313345Y0212381D02*
X0312309Y0212381D01*
X0312309Y0212845D02*
X0313345Y0212845D01*
X0313345Y0213309D02*
X0312309Y0213309D01*
X0312309Y0213773D02*
X0313345Y0213773D01*
X0313345Y0214237D02*
X0312309Y0214237D01*
X0312309Y0214701D02*
X0313345Y0214701D01*
X0313345Y0215165D02*
X0312309Y0215165D01*
X0312309Y0215629D02*
X0313345Y0215629D01*
X0313345Y0216093D02*
X0312309Y0216093D01*
X0312309Y0216557D02*
X0313345Y0216557D01*
X0313345Y0217021D02*
X0312309Y0217021D01*
X0312309Y0217485D02*
X0313345Y0217485D01*
X0311376Y0217559D02*
X0311376Y0211917D01*
X0310340Y0211917D01*
X0310340Y0217559D01*
X0311376Y0217559D01*
X0311376Y0212381D02*
X0310340Y0212381D01*
X0310340Y0212845D02*
X0311376Y0212845D01*
X0311376Y0213309D02*
X0310340Y0213309D01*
X0310340Y0213773D02*
X0311376Y0213773D01*
X0311376Y0214237D02*
X0310340Y0214237D01*
X0310340Y0214701D02*
X0311376Y0214701D01*
X0311376Y0215165D02*
X0310340Y0215165D01*
X0310340Y0215629D02*
X0311376Y0215629D01*
X0311376Y0216093D02*
X0310340Y0216093D01*
X0310340Y0216557D02*
X0311376Y0216557D01*
X0311376Y0217021D02*
X0310340Y0217021D01*
X0310340Y0217485D02*
X0311376Y0217485D01*
X0309408Y0217559D02*
X0309408Y0211917D01*
X0308372Y0211917D01*
X0308372Y0217559D01*
X0309408Y0217559D01*
X0309408Y0212381D02*
X0308372Y0212381D01*
X0308372Y0212845D02*
X0309408Y0212845D01*
X0309408Y0213309D02*
X0308372Y0213309D01*
X0308372Y0213773D02*
X0309408Y0213773D01*
X0309408Y0214237D02*
X0308372Y0214237D01*
X0308372Y0214701D02*
X0309408Y0214701D01*
X0309408Y0215165D02*
X0308372Y0215165D01*
X0308372Y0215629D02*
X0309408Y0215629D01*
X0309408Y0216093D02*
X0308372Y0216093D01*
X0308372Y0216557D02*
X0309408Y0216557D01*
X0309408Y0217021D02*
X0308372Y0217021D01*
X0308372Y0217485D02*
X0309408Y0217485D01*
X0307439Y0217559D02*
X0307439Y0211917D01*
X0306403Y0211917D01*
X0306403Y0217559D01*
X0307439Y0217559D01*
X0307439Y0212381D02*
X0306403Y0212381D01*
X0306403Y0212845D02*
X0307439Y0212845D01*
X0307439Y0213309D02*
X0306403Y0213309D01*
X0306403Y0213773D02*
X0307439Y0213773D01*
X0307439Y0214237D02*
X0306403Y0214237D01*
X0306403Y0214701D02*
X0307439Y0214701D01*
X0307439Y0215165D02*
X0306403Y0215165D01*
X0306403Y0215629D02*
X0307439Y0215629D01*
X0307439Y0216093D02*
X0306403Y0216093D01*
X0306403Y0216557D02*
X0307439Y0216557D01*
X0307439Y0217021D02*
X0306403Y0217021D01*
X0306403Y0217485D02*
X0307439Y0217485D01*
X0305471Y0217559D02*
X0305471Y0211917D01*
X0304435Y0211917D01*
X0304435Y0217559D01*
X0305471Y0217559D01*
X0305471Y0212381D02*
X0304435Y0212381D01*
X0304435Y0212845D02*
X0305471Y0212845D01*
X0305471Y0213309D02*
X0304435Y0213309D01*
X0304435Y0213773D02*
X0305471Y0213773D01*
X0305471Y0214237D02*
X0304435Y0214237D01*
X0304435Y0214701D02*
X0305471Y0214701D01*
X0305471Y0215165D02*
X0304435Y0215165D01*
X0304435Y0215629D02*
X0305471Y0215629D01*
X0305471Y0216093D02*
X0304435Y0216093D01*
X0304435Y0216557D02*
X0305471Y0216557D01*
X0305471Y0217021D02*
X0304435Y0217021D01*
X0304435Y0217485D02*
X0305471Y0217485D01*
X0303502Y0217559D02*
X0303502Y0211917D01*
X0302466Y0211917D01*
X0302466Y0217559D01*
X0303502Y0217559D01*
X0303502Y0212381D02*
X0302466Y0212381D01*
X0302466Y0212845D02*
X0303502Y0212845D01*
X0303502Y0213309D02*
X0302466Y0213309D01*
X0302466Y0213773D02*
X0303502Y0213773D01*
X0303502Y0214237D02*
X0302466Y0214237D01*
X0302466Y0214701D02*
X0303502Y0214701D01*
X0303502Y0215165D02*
X0302466Y0215165D01*
X0302466Y0215629D02*
X0303502Y0215629D01*
X0303502Y0216093D02*
X0302466Y0216093D01*
X0302466Y0216557D02*
X0303502Y0216557D01*
X0303502Y0217021D02*
X0302466Y0217021D01*
X0302466Y0217485D02*
X0303502Y0217485D01*
X0301534Y0217559D02*
X0301534Y0211917D01*
X0300498Y0211917D01*
X0300498Y0217559D01*
X0301534Y0217559D01*
X0301534Y0212381D02*
X0300498Y0212381D01*
X0300498Y0212845D02*
X0301534Y0212845D01*
X0301534Y0213309D02*
X0300498Y0213309D01*
X0300498Y0213773D02*
X0301534Y0213773D01*
X0301534Y0214237D02*
X0300498Y0214237D01*
X0300498Y0214701D02*
X0301534Y0214701D01*
X0301534Y0215165D02*
X0300498Y0215165D01*
X0300498Y0215629D02*
X0301534Y0215629D01*
X0301534Y0216093D02*
X0300498Y0216093D01*
X0300498Y0216557D02*
X0301534Y0216557D01*
X0301534Y0217021D02*
X0300498Y0217021D01*
X0300498Y0217485D02*
X0301534Y0217485D01*
X0299565Y0217559D02*
X0299565Y0211917D01*
X0298529Y0211917D01*
X0298529Y0217559D01*
X0299565Y0217559D01*
X0299565Y0212381D02*
X0298529Y0212381D01*
X0298529Y0212845D02*
X0299565Y0212845D01*
X0299565Y0213309D02*
X0298529Y0213309D01*
X0298529Y0213773D02*
X0299565Y0213773D01*
X0299565Y0214237D02*
X0298529Y0214237D01*
X0298529Y0214701D02*
X0299565Y0214701D01*
X0299565Y0215165D02*
X0298529Y0215165D01*
X0298529Y0215629D02*
X0299565Y0215629D01*
X0299565Y0216093D02*
X0298529Y0216093D01*
X0298529Y0216557D02*
X0299565Y0216557D01*
X0299565Y0217021D02*
X0298529Y0217021D01*
X0298529Y0217485D02*
X0299565Y0217485D01*
X0297597Y0217559D02*
X0297597Y0211917D01*
X0296561Y0211917D01*
X0296561Y0217559D01*
X0297597Y0217559D01*
X0297597Y0212381D02*
X0296561Y0212381D01*
X0296561Y0212845D02*
X0297597Y0212845D01*
X0297597Y0213309D02*
X0296561Y0213309D01*
X0296561Y0213773D02*
X0297597Y0213773D01*
X0297597Y0214237D02*
X0296561Y0214237D01*
X0296561Y0214701D02*
X0297597Y0214701D01*
X0297597Y0215165D02*
X0296561Y0215165D01*
X0296561Y0215629D02*
X0297597Y0215629D01*
X0297597Y0216093D02*
X0296561Y0216093D01*
X0296561Y0216557D02*
X0297597Y0216557D01*
X0297597Y0217021D02*
X0296561Y0217021D01*
X0296561Y0217485D02*
X0297597Y0217485D01*
X0295628Y0217559D02*
X0295628Y0211917D01*
X0294592Y0211917D01*
X0294592Y0217559D01*
X0295628Y0217559D01*
X0295628Y0212381D02*
X0294592Y0212381D01*
X0294592Y0212845D02*
X0295628Y0212845D01*
X0295628Y0213309D02*
X0294592Y0213309D01*
X0294592Y0213773D02*
X0295628Y0213773D01*
X0295628Y0214237D02*
X0294592Y0214237D01*
X0294592Y0214701D02*
X0295628Y0214701D01*
X0295628Y0215165D02*
X0294592Y0215165D01*
X0294592Y0215629D02*
X0295628Y0215629D01*
X0295628Y0216093D02*
X0294592Y0216093D01*
X0294592Y0216557D02*
X0295628Y0216557D01*
X0295628Y0217021D02*
X0294592Y0217021D01*
X0294592Y0217485D02*
X0295628Y0217485D01*
X0293660Y0217559D02*
X0293660Y0211917D01*
X0292624Y0211917D01*
X0292624Y0217559D01*
X0293660Y0217559D01*
X0293660Y0212381D02*
X0292624Y0212381D01*
X0292624Y0212845D02*
X0293660Y0212845D01*
X0293660Y0213309D02*
X0292624Y0213309D01*
X0292624Y0213773D02*
X0293660Y0213773D01*
X0293660Y0214237D02*
X0292624Y0214237D01*
X0292624Y0214701D02*
X0293660Y0214701D01*
X0293660Y0215165D02*
X0292624Y0215165D01*
X0292624Y0215629D02*
X0293660Y0215629D01*
X0293660Y0216093D02*
X0292624Y0216093D01*
X0292624Y0216557D02*
X0293660Y0216557D01*
X0293660Y0217021D02*
X0292624Y0217021D01*
X0292624Y0217485D02*
X0293660Y0217485D01*
X0291691Y0217559D02*
X0291691Y0211917D01*
X0290655Y0211917D01*
X0290655Y0217559D01*
X0291691Y0217559D01*
X0291691Y0212381D02*
X0290655Y0212381D01*
X0290655Y0212845D02*
X0291691Y0212845D01*
X0291691Y0213309D02*
X0290655Y0213309D01*
X0290655Y0213773D02*
X0291691Y0213773D01*
X0291691Y0214237D02*
X0290655Y0214237D01*
X0290655Y0214701D02*
X0291691Y0214701D01*
X0291691Y0215165D02*
X0290655Y0215165D01*
X0290655Y0215629D02*
X0291691Y0215629D01*
X0291691Y0216093D02*
X0290655Y0216093D01*
X0290655Y0216557D02*
X0291691Y0216557D01*
X0291691Y0217021D02*
X0290655Y0217021D01*
X0290655Y0217485D02*
X0291691Y0217485D01*
D18*
X0244500Y0222167D03*
X0244500Y0241167D03*
D19*
X0240900Y0240367D02*
X0240900Y0260967D01*
X0248100Y0260967D01*
X0248100Y0240367D01*
X0240900Y0240367D01*
X0240900Y0241166D02*
X0248100Y0241166D01*
X0248100Y0241965D02*
X0240900Y0241965D01*
X0240900Y0242764D02*
X0248100Y0242764D01*
X0248100Y0243563D02*
X0240900Y0243563D01*
X0240900Y0244362D02*
X0248100Y0244362D01*
X0248100Y0245161D02*
X0240900Y0245161D01*
X0240900Y0245960D02*
X0248100Y0245960D01*
X0248100Y0246759D02*
X0240900Y0246759D01*
X0240900Y0247558D02*
X0248100Y0247558D01*
X0248100Y0248357D02*
X0240900Y0248357D01*
X0240900Y0249156D02*
X0248100Y0249156D01*
X0248100Y0249955D02*
X0240900Y0249955D01*
X0240900Y0250754D02*
X0248100Y0250754D01*
X0248100Y0251553D02*
X0240900Y0251553D01*
X0240900Y0252352D02*
X0248100Y0252352D01*
X0248100Y0253151D02*
X0240900Y0253151D01*
X0240900Y0253950D02*
X0248100Y0253950D01*
X0248100Y0254749D02*
X0240900Y0254749D01*
X0240900Y0255548D02*
X0248100Y0255548D01*
X0248100Y0256347D02*
X0240900Y0256347D01*
X0240900Y0257146D02*
X0248100Y0257146D01*
X0248100Y0257945D02*
X0240900Y0257945D01*
X0240900Y0258744D02*
X0248100Y0258744D01*
X0248100Y0259543D02*
X0240900Y0259543D01*
X0240900Y0260342D02*
X0248100Y0260342D01*
X0240900Y0222967D02*
X0240900Y0202367D01*
X0240900Y0222967D02*
X0248100Y0222967D01*
X0248100Y0202367D01*
X0240900Y0202367D01*
X0240900Y0203166D02*
X0248100Y0203166D01*
X0248100Y0203965D02*
X0240900Y0203965D01*
X0240900Y0204764D02*
X0248100Y0204764D01*
X0248100Y0205563D02*
X0240900Y0205563D01*
X0240900Y0206362D02*
X0248100Y0206362D01*
X0248100Y0207161D02*
X0240900Y0207161D01*
X0240900Y0207960D02*
X0248100Y0207960D01*
X0248100Y0208759D02*
X0240900Y0208759D01*
X0240900Y0209558D02*
X0248100Y0209558D01*
X0248100Y0210357D02*
X0240900Y0210357D01*
X0240900Y0211156D02*
X0248100Y0211156D01*
X0248100Y0211955D02*
X0240900Y0211955D01*
X0240900Y0212754D02*
X0248100Y0212754D01*
X0248100Y0213553D02*
X0240900Y0213553D01*
X0240900Y0214352D02*
X0248100Y0214352D01*
X0248100Y0215151D02*
X0240900Y0215151D01*
X0240900Y0215950D02*
X0248100Y0215950D01*
X0248100Y0216749D02*
X0240900Y0216749D01*
X0240900Y0217548D02*
X0248100Y0217548D01*
X0248100Y0218347D02*
X0240900Y0218347D01*
X0240900Y0219146D02*
X0248100Y0219146D01*
X0248100Y0219945D02*
X0240900Y0219945D01*
X0240900Y0220744D02*
X0248100Y0220744D01*
X0248100Y0221543D02*
X0240900Y0221543D01*
X0240900Y0222342D02*
X0248100Y0222342D01*
X0132900Y0222367D02*
X0132900Y0242967D01*
X0140100Y0242967D01*
X0140100Y0222367D01*
X0132900Y0222367D01*
X0132900Y0223166D02*
X0140100Y0223166D01*
X0140100Y0223965D02*
X0132900Y0223965D01*
X0132900Y0224764D02*
X0140100Y0224764D01*
X0140100Y0225563D02*
X0132900Y0225563D01*
X0132900Y0226362D02*
X0140100Y0226362D01*
X0140100Y0227161D02*
X0132900Y0227161D01*
X0132900Y0227960D02*
X0140100Y0227960D01*
X0140100Y0228759D02*
X0132900Y0228759D01*
X0132900Y0229558D02*
X0140100Y0229558D01*
X0140100Y0230357D02*
X0132900Y0230357D01*
X0132900Y0231156D02*
X0140100Y0231156D01*
X0140100Y0231955D02*
X0132900Y0231955D01*
X0132900Y0232754D02*
X0140100Y0232754D01*
X0140100Y0233553D02*
X0132900Y0233553D01*
X0132900Y0234352D02*
X0140100Y0234352D01*
X0140100Y0235151D02*
X0132900Y0235151D01*
X0132900Y0235950D02*
X0140100Y0235950D01*
X0140100Y0236749D02*
X0132900Y0236749D01*
X0132900Y0237548D02*
X0140100Y0237548D01*
X0140100Y0238347D02*
X0132900Y0238347D01*
X0132900Y0239146D02*
X0140100Y0239146D01*
X0140100Y0239945D02*
X0132900Y0239945D01*
X0132900Y0240744D02*
X0140100Y0240744D01*
X0140100Y0241543D02*
X0132900Y0241543D01*
X0132900Y0242342D02*
X0140100Y0242342D01*
X0132900Y0260367D02*
X0132900Y0280967D01*
X0140100Y0280967D01*
X0140100Y0260367D01*
X0132900Y0260367D01*
X0132900Y0261166D02*
X0140100Y0261166D01*
X0140100Y0261965D02*
X0132900Y0261965D01*
X0132900Y0262764D02*
X0140100Y0262764D01*
X0140100Y0263563D02*
X0132900Y0263563D01*
X0132900Y0264362D02*
X0140100Y0264362D01*
X0140100Y0265161D02*
X0132900Y0265161D01*
X0132900Y0265960D02*
X0140100Y0265960D01*
X0140100Y0266759D02*
X0132900Y0266759D01*
X0132900Y0267558D02*
X0140100Y0267558D01*
X0140100Y0268357D02*
X0132900Y0268357D01*
X0132900Y0269156D02*
X0140100Y0269156D01*
X0140100Y0269955D02*
X0132900Y0269955D01*
X0132900Y0270754D02*
X0140100Y0270754D01*
X0140100Y0271553D02*
X0132900Y0271553D01*
X0132900Y0272352D02*
X0140100Y0272352D01*
X0140100Y0273151D02*
X0132900Y0273151D01*
X0132900Y0273950D02*
X0140100Y0273950D01*
X0140100Y0274749D02*
X0132900Y0274749D01*
X0132900Y0275548D02*
X0140100Y0275548D01*
X0140100Y0276347D02*
X0132900Y0276347D01*
X0132900Y0277146D02*
X0140100Y0277146D01*
X0140100Y0277945D02*
X0132900Y0277945D01*
X0132900Y0278744D02*
X0140100Y0278744D01*
X0140100Y0279543D02*
X0132900Y0279543D01*
X0132900Y0280342D02*
X0140100Y0280342D01*
D20*
X0128946Y0317160D02*
X0128946Y0320174D01*
X0131960Y0320174D01*
X0131960Y0317160D01*
X0128946Y0317160D01*
X0128946Y0317609D02*
X0131960Y0317609D01*
X0131960Y0318058D02*
X0128946Y0318058D01*
X0128946Y0318507D02*
X0131960Y0318507D01*
X0131960Y0318956D02*
X0128946Y0318956D01*
X0128946Y0319405D02*
X0131960Y0319405D01*
X0131960Y0319854D02*
X0128946Y0319854D01*
X0128946Y0322160D02*
X0128946Y0325174D01*
X0131960Y0325174D01*
X0131960Y0322160D01*
X0128946Y0322160D01*
X0128946Y0322609D02*
X0131960Y0322609D01*
X0131960Y0323058D02*
X0128946Y0323058D01*
X0128946Y0323507D02*
X0131960Y0323507D01*
X0131960Y0323956D02*
X0128946Y0323956D01*
X0128946Y0324405D02*
X0131960Y0324405D01*
X0131960Y0324854D02*
X0128946Y0324854D01*
X0123040Y0325174D02*
X0123040Y0322160D01*
X0123040Y0325174D02*
X0126054Y0325174D01*
X0126054Y0322160D01*
X0123040Y0322160D01*
X0123040Y0322609D02*
X0126054Y0322609D01*
X0126054Y0323058D02*
X0123040Y0323058D01*
X0123040Y0323507D02*
X0126054Y0323507D01*
X0126054Y0323956D02*
X0123040Y0323956D01*
X0123040Y0324405D02*
X0126054Y0324405D01*
X0126054Y0324854D02*
X0123040Y0324854D01*
X0123040Y0320174D02*
X0123040Y0317160D01*
X0123040Y0320174D02*
X0126054Y0320174D01*
X0126054Y0317160D01*
X0123040Y0317160D01*
X0123040Y0317609D02*
X0126054Y0317609D01*
X0126054Y0318058D02*
X0123040Y0318058D01*
X0123040Y0318507D02*
X0126054Y0318507D01*
X0126054Y0318956D02*
X0123040Y0318956D01*
X0123040Y0319405D02*
X0126054Y0319405D01*
X0126054Y0319854D02*
X0123040Y0319854D01*
X0217993Y0268126D02*
X0221007Y0268126D01*
X0221007Y0265112D01*
X0217993Y0265112D01*
X0217993Y0268126D01*
X0217993Y0265561D02*
X0221007Y0265561D01*
X0221007Y0266010D02*
X0217993Y0266010D01*
X0217993Y0266459D02*
X0221007Y0266459D01*
X0221007Y0266908D02*
X0217993Y0266908D01*
X0217993Y0267357D02*
X0221007Y0267357D01*
X0221007Y0267806D02*
X0217993Y0267806D01*
X0217993Y0262221D02*
X0221007Y0262221D01*
X0221007Y0259207D01*
X0217993Y0259207D01*
X0217993Y0262221D01*
X0217993Y0259656D02*
X0221007Y0259656D01*
X0221007Y0260105D02*
X0217993Y0260105D01*
X0217993Y0260554D02*
X0221007Y0260554D01*
X0221007Y0261003D02*
X0217993Y0261003D01*
X0217993Y0261452D02*
X0221007Y0261452D01*
X0221007Y0261901D02*
X0217993Y0261901D01*
X0163946Y0239174D02*
X0163946Y0236160D01*
X0163946Y0239174D02*
X0166960Y0239174D01*
X0166960Y0236160D01*
X0163946Y0236160D01*
X0163946Y0236609D02*
X0166960Y0236609D01*
X0166960Y0237058D02*
X0163946Y0237058D01*
X0163946Y0237507D02*
X0166960Y0237507D01*
X0166960Y0237956D02*
X0163946Y0237956D01*
X0163946Y0238405D02*
X0166960Y0238405D01*
X0166960Y0238854D02*
X0163946Y0238854D01*
X0158040Y0239174D02*
X0158040Y0236160D01*
X0158040Y0239174D02*
X0161054Y0239174D01*
X0161054Y0236160D01*
X0158040Y0236160D01*
X0158040Y0236609D02*
X0161054Y0236609D01*
X0161054Y0237058D02*
X0158040Y0237058D01*
X0158040Y0237507D02*
X0161054Y0237507D01*
X0161054Y0237956D02*
X0158040Y0237956D01*
X0158040Y0238405D02*
X0161054Y0238405D01*
X0161054Y0238854D02*
X0158040Y0238854D01*
X0368054Y0238174D02*
X0368054Y0235160D01*
X0365040Y0235160D01*
X0365040Y0238174D01*
X0368054Y0238174D01*
X0368054Y0235609D02*
X0365040Y0235609D01*
X0365040Y0236058D02*
X0368054Y0236058D01*
X0368054Y0236507D02*
X0365040Y0236507D01*
X0365040Y0236956D02*
X0368054Y0236956D01*
X0368054Y0237405D02*
X0365040Y0237405D01*
X0365040Y0237854D02*
X0368054Y0237854D01*
X0373960Y0238174D02*
X0373960Y0235160D01*
X0370946Y0235160D01*
X0370946Y0238174D01*
X0373960Y0238174D01*
X0373960Y0235609D02*
X0370946Y0235609D01*
X0370946Y0236058D02*
X0373960Y0236058D01*
X0373960Y0236507D02*
X0370946Y0236507D01*
X0370946Y0236956D02*
X0373960Y0236956D01*
X0373960Y0237405D02*
X0370946Y0237405D01*
X0370946Y0237854D02*
X0373960Y0237854D01*
X0373960Y0246160D02*
X0373960Y0249174D01*
X0373960Y0246160D02*
X0370946Y0246160D01*
X0370946Y0249174D01*
X0373960Y0249174D01*
X0373960Y0246609D02*
X0370946Y0246609D01*
X0370946Y0247058D02*
X0373960Y0247058D01*
X0373960Y0247507D02*
X0370946Y0247507D01*
X0370946Y0247956D02*
X0373960Y0247956D01*
X0373960Y0248405D02*
X0370946Y0248405D01*
X0370946Y0248854D02*
X0373960Y0248854D01*
X0368054Y0249174D02*
X0368054Y0246160D01*
X0365040Y0246160D01*
X0365040Y0249174D01*
X0368054Y0249174D01*
X0368054Y0246609D02*
X0365040Y0246609D01*
X0365040Y0247058D02*
X0368054Y0247058D01*
X0368054Y0247507D02*
X0365040Y0247507D01*
X0365040Y0247956D02*
X0368054Y0247956D01*
X0368054Y0248405D02*
X0365040Y0248405D01*
X0365040Y0248854D02*
X0368054Y0248854D01*
X0368054Y0228174D02*
X0368054Y0225160D01*
X0365040Y0225160D01*
X0365040Y0228174D01*
X0368054Y0228174D01*
X0368054Y0225609D02*
X0365040Y0225609D01*
X0365040Y0226058D02*
X0368054Y0226058D01*
X0368054Y0226507D02*
X0365040Y0226507D01*
X0365040Y0226956D02*
X0368054Y0226956D01*
X0368054Y0227405D02*
X0365040Y0227405D01*
X0365040Y0227854D02*
X0368054Y0227854D01*
X0373960Y0228174D02*
X0373960Y0225160D01*
X0370946Y0225160D01*
X0370946Y0228174D01*
X0373960Y0228174D01*
X0373960Y0225609D02*
X0370946Y0225609D01*
X0370946Y0226058D02*
X0373960Y0226058D01*
X0373960Y0226507D02*
X0370946Y0226507D01*
X0370946Y0226956D02*
X0373960Y0226956D01*
X0373960Y0227405D02*
X0370946Y0227405D01*
X0370946Y0227854D02*
X0373960Y0227854D01*
X0373960Y0218174D02*
X0373960Y0215160D01*
X0370946Y0215160D01*
X0370946Y0218174D01*
X0373960Y0218174D01*
X0373960Y0215609D02*
X0370946Y0215609D01*
X0370946Y0216058D02*
X0373960Y0216058D01*
X0373960Y0216507D02*
X0370946Y0216507D01*
X0370946Y0216956D02*
X0373960Y0216956D01*
X0373960Y0217405D02*
X0370946Y0217405D01*
X0370946Y0217854D02*
X0373960Y0217854D01*
X0368054Y0218174D02*
X0368054Y0215160D01*
X0365040Y0215160D01*
X0365040Y0218174D01*
X0368054Y0218174D01*
X0368054Y0215609D02*
X0365040Y0215609D01*
X0365040Y0216058D02*
X0368054Y0216058D01*
X0368054Y0216507D02*
X0365040Y0216507D01*
X0365040Y0216956D02*
X0368054Y0216956D01*
X0368054Y0217405D02*
X0365040Y0217405D01*
X0365040Y0217854D02*
X0368054Y0217854D01*
D21*
X0208112Y0218753D02*
X0202084Y0218753D01*
X0202084Y0225581D01*
X0208112Y0225581D01*
X0208112Y0218753D01*
X0208112Y0219422D02*
X0202084Y0219422D01*
X0202084Y0220091D02*
X0208112Y0220091D01*
X0208112Y0220760D02*
X0202084Y0220760D01*
X0202084Y0221429D02*
X0208112Y0221429D01*
X0208112Y0222098D02*
X0202084Y0222098D01*
X0202084Y0222767D02*
X0208112Y0222767D01*
X0208112Y0223436D02*
X0202084Y0223436D01*
X0202084Y0224105D02*
X0208112Y0224105D01*
X0208112Y0224774D02*
X0202084Y0224774D01*
X0202084Y0225443D02*
X0208112Y0225443D01*
X0208112Y0228753D02*
X0202084Y0228753D01*
X0202084Y0235581D01*
X0208112Y0235581D01*
X0208112Y0228753D01*
X0208112Y0229422D02*
X0202084Y0229422D01*
X0202084Y0230091D02*
X0208112Y0230091D01*
X0208112Y0230760D02*
X0202084Y0230760D01*
X0202084Y0231429D02*
X0208112Y0231429D01*
X0208112Y0232098D02*
X0202084Y0232098D01*
X0202084Y0232767D02*
X0208112Y0232767D01*
X0208112Y0233436D02*
X0202084Y0233436D01*
X0202084Y0234105D02*
X0208112Y0234105D01*
X0208112Y0234774D02*
X0202084Y0234774D01*
X0202084Y0235443D02*
X0208112Y0235443D01*
X0208112Y0238753D02*
X0202084Y0238753D01*
X0202084Y0245581D01*
X0208112Y0245581D01*
X0208112Y0238753D01*
X0208112Y0239422D02*
X0202084Y0239422D01*
X0202084Y0240091D02*
X0208112Y0240091D01*
X0208112Y0240760D02*
X0202084Y0240760D01*
X0202084Y0241429D02*
X0208112Y0241429D01*
X0208112Y0242098D02*
X0202084Y0242098D01*
X0202084Y0242767D02*
X0208112Y0242767D01*
X0208112Y0243436D02*
X0202084Y0243436D01*
X0202084Y0244105D02*
X0208112Y0244105D01*
X0208112Y0244774D02*
X0202084Y0244774D01*
X0202084Y0245443D02*
X0208112Y0245443D01*
X0196916Y0238753D02*
X0190888Y0238753D01*
X0190888Y0245581D01*
X0196916Y0245581D01*
X0196916Y0238753D01*
X0196916Y0239422D02*
X0190888Y0239422D01*
X0190888Y0240091D02*
X0196916Y0240091D01*
X0196916Y0240760D02*
X0190888Y0240760D01*
X0190888Y0241429D02*
X0196916Y0241429D01*
X0196916Y0242098D02*
X0190888Y0242098D01*
X0190888Y0242767D02*
X0196916Y0242767D01*
X0196916Y0243436D02*
X0190888Y0243436D01*
X0190888Y0244105D02*
X0196916Y0244105D01*
X0196916Y0244774D02*
X0190888Y0244774D01*
X0190888Y0245443D02*
X0196916Y0245443D01*
X0196916Y0228753D02*
X0190888Y0228753D01*
X0190888Y0235581D01*
X0196916Y0235581D01*
X0196916Y0228753D01*
X0196916Y0229422D02*
X0190888Y0229422D01*
X0190888Y0230091D02*
X0196916Y0230091D01*
X0196916Y0230760D02*
X0190888Y0230760D01*
X0190888Y0231429D02*
X0196916Y0231429D01*
X0196916Y0232098D02*
X0190888Y0232098D01*
X0190888Y0232767D02*
X0196916Y0232767D01*
X0196916Y0233436D02*
X0190888Y0233436D01*
X0190888Y0234105D02*
X0196916Y0234105D01*
X0196916Y0234774D02*
X0190888Y0234774D01*
X0190888Y0235443D02*
X0196916Y0235443D01*
X0196916Y0218753D02*
X0190888Y0218753D01*
X0190888Y0225581D01*
X0196916Y0225581D01*
X0196916Y0218753D01*
X0196916Y0219422D02*
X0190888Y0219422D01*
X0190888Y0220091D02*
X0196916Y0220091D01*
X0196916Y0220760D02*
X0190888Y0220760D01*
X0190888Y0221429D02*
X0196916Y0221429D01*
X0196916Y0222098D02*
X0190888Y0222098D01*
X0190888Y0222767D02*
X0196916Y0222767D01*
X0196916Y0223436D02*
X0190888Y0223436D01*
X0190888Y0224105D02*
X0196916Y0224105D01*
X0196916Y0224774D02*
X0190888Y0224774D01*
X0190888Y0225443D02*
X0196916Y0225443D01*
X0196916Y0208753D02*
X0190888Y0208753D01*
X0190888Y0215581D01*
X0196916Y0215581D01*
X0196916Y0208753D01*
X0196916Y0209422D02*
X0190888Y0209422D01*
X0190888Y0210091D02*
X0196916Y0210091D01*
X0196916Y0210760D02*
X0190888Y0210760D01*
X0190888Y0211429D02*
X0196916Y0211429D01*
X0196916Y0212098D02*
X0190888Y0212098D01*
X0190888Y0212767D02*
X0196916Y0212767D01*
X0196916Y0213436D02*
X0190888Y0213436D01*
X0190888Y0214105D02*
X0196916Y0214105D01*
X0196916Y0214774D02*
X0190888Y0214774D01*
X0190888Y0215443D02*
X0196916Y0215443D01*
X0202084Y0208753D02*
X0208112Y0208753D01*
X0202084Y0208753D02*
X0202084Y0215581D01*
X0208112Y0215581D01*
X0208112Y0208753D01*
X0208112Y0209422D02*
X0202084Y0209422D01*
X0202084Y0210091D02*
X0208112Y0210091D01*
X0208112Y0210760D02*
X0202084Y0210760D01*
X0202084Y0211429D02*
X0208112Y0211429D01*
X0208112Y0212098D02*
X0202084Y0212098D01*
X0202084Y0212767D02*
X0208112Y0212767D01*
X0208112Y0213436D02*
X0202084Y0213436D01*
X0202084Y0214105D02*
X0208112Y0214105D01*
X0208112Y0214774D02*
X0202084Y0214774D01*
X0202084Y0215443D02*
X0208112Y0215443D01*
X0208112Y0198753D02*
X0202084Y0198753D01*
X0202084Y0205581D01*
X0208112Y0205581D01*
X0208112Y0198753D01*
X0208112Y0199422D02*
X0202084Y0199422D01*
X0202084Y0200091D02*
X0208112Y0200091D01*
X0208112Y0200760D02*
X0202084Y0200760D01*
X0202084Y0201429D02*
X0208112Y0201429D01*
X0208112Y0202098D02*
X0202084Y0202098D01*
X0202084Y0202767D02*
X0208112Y0202767D01*
X0208112Y0203436D02*
X0202084Y0203436D01*
X0202084Y0204105D02*
X0208112Y0204105D01*
X0208112Y0204774D02*
X0202084Y0204774D01*
X0202084Y0205443D02*
X0208112Y0205443D01*
X0208112Y0188753D02*
X0202084Y0188753D01*
X0202084Y0195581D01*
X0208112Y0195581D01*
X0208112Y0188753D01*
X0208112Y0189422D02*
X0202084Y0189422D01*
X0202084Y0190091D02*
X0208112Y0190091D01*
X0208112Y0190760D02*
X0202084Y0190760D01*
X0202084Y0191429D02*
X0208112Y0191429D01*
X0208112Y0192098D02*
X0202084Y0192098D01*
X0202084Y0192767D02*
X0208112Y0192767D01*
X0208112Y0193436D02*
X0202084Y0193436D01*
X0202084Y0194105D02*
X0208112Y0194105D01*
X0208112Y0194774D02*
X0202084Y0194774D01*
X0202084Y0195443D02*
X0208112Y0195443D01*
X0196916Y0188753D02*
X0190888Y0188753D01*
X0190888Y0195581D01*
X0196916Y0195581D01*
X0196916Y0188753D01*
X0196916Y0189422D02*
X0190888Y0189422D01*
X0190888Y0190091D02*
X0196916Y0190091D01*
X0196916Y0190760D02*
X0190888Y0190760D01*
X0190888Y0191429D02*
X0196916Y0191429D01*
X0196916Y0192098D02*
X0190888Y0192098D01*
X0190888Y0192767D02*
X0196916Y0192767D01*
X0196916Y0193436D02*
X0190888Y0193436D01*
X0190888Y0194105D02*
X0196916Y0194105D01*
X0196916Y0194774D02*
X0190888Y0194774D01*
X0190888Y0195443D02*
X0196916Y0195443D01*
X0196916Y0198753D02*
X0190888Y0198753D01*
X0190888Y0205581D01*
X0196916Y0205581D01*
X0196916Y0198753D01*
X0196916Y0199422D02*
X0190888Y0199422D01*
X0190888Y0200091D02*
X0196916Y0200091D01*
X0196916Y0200760D02*
X0190888Y0200760D01*
X0190888Y0201429D02*
X0196916Y0201429D01*
X0196916Y0202098D02*
X0190888Y0202098D01*
X0190888Y0202767D02*
X0196916Y0202767D01*
X0196916Y0203436D02*
X0190888Y0203436D01*
X0190888Y0204105D02*
X0196916Y0204105D01*
X0196916Y0204774D02*
X0190888Y0204774D01*
X0190888Y0205443D02*
X0196916Y0205443D01*
X0196916Y0178753D02*
X0190888Y0178753D01*
X0190888Y0185581D01*
X0196916Y0185581D01*
X0196916Y0178753D01*
X0196916Y0179422D02*
X0190888Y0179422D01*
X0190888Y0180091D02*
X0196916Y0180091D01*
X0196916Y0180760D02*
X0190888Y0180760D01*
X0190888Y0181429D02*
X0196916Y0181429D01*
X0196916Y0182098D02*
X0190888Y0182098D01*
X0190888Y0182767D02*
X0196916Y0182767D01*
X0196916Y0183436D02*
X0190888Y0183436D01*
X0190888Y0184105D02*
X0196916Y0184105D01*
X0196916Y0184774D02*
X0190888Y0184774D01*
X0190888Y0185443D02*
X0196916Y0185443D01*
X0202084Y0178753D02*
X0208112Y0178753D01*
X0202084Y0178753D02*
X0202084Y0185581D01*
X0208112Y0185581D01*
X0208112Y0178753D01*
X0208112Y0179422D02*
X0202084Y0179422D01*
X0202084Y0180091D02*
X0208112Y0180091D01*
X0208112Y0180760D02*
X0202084Y0180760D01*
X0202084Y0181429D02*
X0208112Y0181429D01*
X0208112Y0182098D02*
X0202084Y0182098D01*
X0202084Y0182767D02*
X0208112Y0182767D01*
X0208112Y0183436D02*
X0202084Y0183436D01*
X0202084Y0184105D02*
X0208112Y0184105D01*
X0208112Y0184774D02*
X0202084Y0184774D01*
X0202084Y0185443D02*
X0208112Y0185443D01*
X0208112Y0168753D02*
X0202084Y0168753D01*
X0202084Y0175581D01*
X0208112Y0175581D01*
X0208112Y0168753D01*
X0208112Y0169422D02*
X0202084Y0169422D01*
X0202084Y0170091D02*
X0208112Y0170091D01*
X0208112Y0170760D02*
X0202084Y0170760D01*
X0202084Y0171429D02*
X0208112Y0171429D01*
X0208112Y0172098D02*
X0202084Y0172098D01*
X0202084Y0172767D02*
X0208112Y0172767D01*
X0208112Y0173436D02*
X0202084Y0173436D01*
X0202084Y0174105D02*
X0208112Y0174105D01*
X0208112Y0174774D02*
X0202084Y0174774D01*
X0202084Y0175443D02*
X0208112Y0175443D01*
X0196916Y0168753D02*
X0190888Y0168753D01*
X0190888Y0175581D01*
X0196916Y0175581D01*
X0196916Y0168753D01*
X0196916Y0169422D02*
X0190888Y0169422D01*
X0190888Y0170091D02*
X0196916Y0170091D01*
X0196916Y0170760D02*
X0190888Y0170760D01*
X0190888Y0171429D02*
X0196916Y0171429D01*
X0196916Y0172098D02*
X0190888Y0172098D01*
X0190888Y0172767D02*
X0196916Y0172767D01*
X0196916Y0173436D02*
X0190888Y0173436D01*
X0190888Y0174105D02*
X0196916Y0174105D01*
X0196916Y0174774D02*
X0190888Y0174774D01*
X0190888Y0175443D02*
X0196916Y0175443D01*
X0196916Y0158753D02*
X0190888Y0158753D01*
X0190888Y0165581D01*
X0196916Y0165581D01*
X0196916Y0158753D01*
X0196916Y0159422D02*
X0190888Y0159422D01*
X0190888Y0160091D02*
X0196916Y0160091D01*
X0196916Y0160760D02*
X0190888Y0160760D01*
X0190888Y0161429D02*
X0196916Y0161429D01*
X0196916Y0162098D02*
X0190888Y0162098D01*
X0190888Y0162767D02*
X0196916Y0162767D01*
X0196916Y0163436D02*
X0190888Y0163436D01*
X0190888Y0164105D02*
X0196916Y0164105D01*
X0196916Y0164774D02*
X0190888Y0164774D01*
X0190888Y0165443D02*
X0196916Y0165443D01*
X0202084Y0158753D02*
X0208112Y0158753D01*
X0202084Y0158753D02*
X0202084Y0165581D01*
X0208112Y0165581D01*
X0208112Y0158753D01*
X0208112Y0159422D02*
X0202084Y0159422D01*
X0202084Y0160091D02*
X0208112Y0160091D01*
X0208112Y0160760D02*
X0202084Y0160760D01*
X0202084Y0161429D02*
X0208112Y0161429D01*
X0208112Y0162098D02*
X0202084Y0162098D01*
X0202084Y0162767D02*
X0208112Y0162767D01*
X0208112Y0163436D02*
X0202084Y0163436D01*
X0202084Y0164105D02*
X0208112Y0164105D01*
X0208112Y0164774D02*
X0202084Y0164774D01*
X0202084Y0165443D02*
X0208112Y0165443D01*
D22*
X0156040Y0196227D02*
X0156040Y0200907D01*
X0156040Y0196227D02*
X0147360Y0196227D01*
X0147360Y0200907D01*
X0156040Y0200907D01*
X0156040Y0196746D02*
X0147360Y0196746D01*
X0147360Y0197265D02*
X0156040Y0197265D01*
X0156040Y0197784D02*
X0147360Y0197784D01*
X0147360Y0198303D02*
X0156040Y0198303D01*
X0156040Y0198822D02*
X0147360Y0198822D01*
X0147360Y0199341D02*
X0156040Y0199341D01*
X0156040Y0199860D02*
X0147360Y0199860D01*
X0147360Y0200379D02*
X0156040Y0200379D01*
X0156040Y0200898D02*
X0147360Y0200898D01*
X0156040Y0205327D02*
X0156040Y0210007D01*
X0156040Y0205327D02*
X0147360Y0205327D01*
X0147360Y0210007D01*
X0156040Y0210007D01*
X0156040Y0205846D02*
X0147360Y0205846D01*
X0147360Y0206365D02*
X0156040Y0206365D01*
X0156040Y0206884D02*
X0147360Y0206884D01*
X0147360Y0207403D02*
X0156040Y0207403D01*
X0156040Y0207922D02*
X0147360Y0207922D01*
X0147360Y0208441D02*
X0156040Y0208441D01*
X0156040Y0208960D02*
X0147360Y0208960D01*
X0147360Y0209479D02*
X0156040Y0209479D01*
X0156040Y0209998D02*
X0147360Y0209998D01*
X0156040Y0214427D02*
X0156040Y0219107D01*
X0156040Y0214427D02*
X0147360Y0214427D01*
X0147360Y0219107D01*
X0156040Y0219107D01*
X0156040Y0214946D02*
X0147360Y0214946D01*
X0147360Y0215465D02*
X0156040Y0215465D01*
X0156040Y0215984D02*
X0147360Y0215984D01*
X0147360Y0216503D02*
X0156040Y0216503D01*
X0156040Y0217022D02*
X0147360Y0217022D01*
X0147360Y0217541D02*
X0156040Y0217541D01*
X0156040Y0218060D02*
X0147360Y0218060D01*
X0147360Y0218579D02*
X0156040Y0218579D01*
X0156040Y0219098D02*
X0147360Y0219098D01*
D23*
X0131376Y0214500D02*
X0131376Y0200834D01*
X0123222Y0200834D01*
X0123222Y0214500D01*
X0131376Y0214500D01*
X0131376Y0201739D02*
X0123222Y0201739D01*
X0123222Y0202644D02*
X0131376Y0202644D01*
X0131376Y0203549D02*
X0123222Y0203549D01*
X0123222Y0204454D02*
X0131376Y0204454D01*
X0131376Y0205359D02*
X0123222Y0205359D01*
X0123222Y0206264D02*
X0131376Y0206264D01*
X0131376Y0207169D02*
X0123222Y0207169D01*
X0123222Y0208074D02*
X0131376Y0208074D01*
X0131376Y0208979D02*
X0123222Y0208979D01*
X0123222Y0209884D02*
X0131376Y0209884D01*
X0131376Y0210789D02*
X0123222Y0210789D01*
X0123222Y0211694D02*
X0131376Y0211694D01*
X0131376Y0212599D02*
X0123222Y0212599D01*
X0123222Y0213504D02*
X0131376Y0213504D01*
X0131376Y0214409D02*
X0123222Y0214409D01*
D24*
X0132362Y0192384D02*
X0139630Y0192384D01*
X0139630Y0182950D01*
X0132362Y0182950D01*
X0132362Y0192384D01*
X0132362Y0183757D02*
X0139630Y0183757D01*
X0139630Y0184564D02*
X0132362Y0184564D01*
X0132362Y0185371D02*
X0139630Y0185371D01*
X0139630Y0186178D02*
X0132362Y0186178D01*
X0132362Y0186985D02*
X0139630Y0186985D01*
X0139630Y0187792D02*
X0132362Y0187792D01*
X0132362Y0188599D02*
X0139630Y0188599D01*
X0139630Y0189406D02*
X0132362Y0189406D01*
X0132362Y0190213D02*
X0139630Y0190213D01*
X0139630Y0191020D02*
X0132362Y0191020D01*
X0132362Y0191827D02*
X0139630Y0191827D01*
X0144370Y0192384D02*
X0151638Y0192384D01*
X0151638Y0182950D01*
X0144370Y0182950D01*
X0144370Y0192384D01*
X0144370Y0183757D02*
X0151638Y0183757D01*
X0151638Y0184564D02*
X0144370Y0184564D01*
X0144370Y0185371D02*
X0151638Y0185371D01*
X0151638Y0186178D02*
X0144370Y0186178D01*
X0144370Y0186985D02*
X0151638Y0186985D01*
X0151638Y0187792D02*
X0144370Y0187792D01*
X0144370Y0188599D02*
X0151638Y0188599D01*
X0151638Y0189406D02*
X0144370Y0189406D01*
X0144370Y0190213D02*
X0151638Y0190213D01*
X0151638Y0191020D02*
X0144370Y0191020D01*
X0144370Y0191827D02*
X0151638Y0191827D01*
D25*
X0199500Y0151667D03*
X0199500Y0141667D03*
X0199500Y0321667D03*
X0374500Y0321667D03*
D26*
X0334500Y0321667D03*
X0324500Y0321667D03*
X0314500Y0321667D03*
X0304500Y0321667D03*
X0294500Y0321667D03*
X0284500Y0321667D03*
X0274500Y0321667D03*
X0264500Y0321667D03*
X0254500Y0321667D03*
X0254500Y0311667D03*
X0264500Y0311667D03*
X0274500Y0311667D03*
X0284500Y0311667D03*
X0294500Y0311667D03*
X0304500Y0311667D03*
X0314500Y0311667D03*
X0324500Y0311667D03*
X0334500Y0311667D03*
X0209500Y0321667D03*
X0209500Y0151667D03*
X0209500Y0141667D03*
X0254500Y0141667D03*
X0264500Y0141667D03*
X0274500Y0141667D03*
X0284500Y0141667D03*
X0294500Y0141667D03*
X0304500Y0141667D03*
X0314500Y0141667D03*
X0324500Y0141667D03*
X0334500Y0141667D03*
X0334500Y0151667D03*
X0324500Y0151667D03*
X0314500Y0151667D03*
X0304500Y0151667D03*
X0294500Y0151667D03*
X0284500Y0151667D03*
X0274500Y0151667D03*
X0264500Y0151667D03*
X0254500Y0151667D03*
D27*
X0349145Y0167722D02*
X0354455Y0167722D01*
X0354455Y0159612D01*
X0349145Y0159612D01*
X0349145Y0167722D01*
X0349145Y0160201D02*
X0354455Y0160201D01*
X0354455Y0160790D02*
X0349145Y0160790D01*
X0349145Y0161379D02*
X0354455Y0161379D01*
X0354455Y0161968D02*
X0349145Y0161968D01*
X0349145Y0162557D02*
X0354455Y0162557D01*
X0354455Y0163146D02*
X0349145Y0163146D01*
X0349145Y0163735D02*
X0354455Y0163735D01*
X0354455Y0164324D02*
X0349145Y0164324D01*
X0349145Y0164913D02*
X0354455Y0164913D01*
X0354455Y0165502D02*
X0349145Y0165502D01*
X0349145Y0166091D02*
X0354455Y0166091D01*
X0354455Y0166680D02*
X0349145Y0166680D01*
X0349145Y0167269D02*
X0354455Y0167269D01*
X0366845Y0167722D02*
X0372155Y0167722D01*
X0372155Y0159612D01*
X0366845Y0159612D01*
X0366845Y0167722D01*
X0366845Y0160201D02*
X0372155Y0160201D01*
X0372155Y0160790D02*
X0366845Y0160790D01*
X0366845Y0161379D02*
X0372155Y0161379D01*
X0372155Y0161968D02*
X0366845Y0161968D01*
X0366845Y0162557D02*
X0372155Y0162557D01*
X0372155Y0163146D02*
X0366845Y0163146D01*
X0366845Y0163735D02*
X0372155Y0163735D01*
X0372155Y0164324D02*
X0366845Y0164324D01*
X0366845Y0164913D02*
X0372155Y0164913D01*
X0372155Y0165502D02*
X0366845Y0165502D01*
X0366845Y0166091D02*
X0372155Y0166091D01*
X0372155Y0166680D02*
X0366845Y0166680D01*
X0366845Y0167269D02*
X0372155Y0167269D01*
X0372155Y0203622D02*
X0366845Y0203622D01*
X0372155Y0203622D02*
X0372155Y0195512D01*
X0366845Y0195512D01*
X0366845Y0203622D01*
X0366845Y0196101D02*
X0372155Y0196101D01*
X0372155Y0196690D02*
X0366845Y0196690D01*
X0366845Y0197279D02*
X0372155Y0197279D01*
X0372155Y0197868D02*
X0366845Y0197868D01*
X0366845Y0198457D02*
X0372155Y0198457D01*
X0372155Y0199046D02*
X0366845Y0199046D01*
X0366845Y0199635D02*
X0372155Y0199635D01*
X0372155Y0200224D02*
X0366845Y0200224D01*
X0366845Y0200813D02*
X0372155Y0200813D01*
X0372155Y0201402D02*
X0366845Y0201402D01*
X0366845Y0201991D02*
X0372155Y0201991D01*
X0372155Y0202580D02*
X0366845Y0202580D01*
X0366845Y0203169D02*
X0372155Y0203169D01*
X0354455Y0203622D02*
X0349145Y0203622D01*
X0354455Y0203622D02*
X0354455Y0195512D01*
X0349145Y0195512D01*
X0349145Y0203622D01*
X0349145Y0196101D02*
X0354455Y0196101D01*
X0354455Y0196690D02*
X0349145Y0196690D01*
X0349145Y0197279D02*
X0354455Y0197279D01*
X0354455Y0197868D02*
X0349145Y0197868D01*
X0349145Y0198457D02*
X0354455Y0198457D01*
X0354455Y0199046D02*
X0349145Y0199046D01*
X0349145Y0199635D02*
X0354455Y0199635D01*
X0354455Y0200224D02*
X0349145Y0200224D01*
X0349145Y0200813D02*
X0354455Y0200813D01*
X0354455Y0201402D02*
X0349145Y0201402D01*
X0349145Y0201991D02*
X0354455Y0201991D01*
X0354455Y0202580D02*
X0349145Y0202580D01*
X0349145Y0203169D02*
X0354455Y0203169D01*
X0354455Y0267722D02*
X0349145Y0267722D01*
X0354455Y0267722D02*
X0354455Y0259612D01*
X0349145Y0259612D01*
X0349145Y0267722D01*
X0349145Y0260201D02*
X0354455Y0260201D01*
X0354455Y0260790D02*
X0349145Y0260790D01*
X0349145Y0261379D02*
X0354455Y0261379D01*
X0354455Y0261968D02*
X0349145Y0261968D01*
X0349145Y0262557D02*
X0354455Y0262557D01*
X0354455Y0263146D02*
X0349145Y0263146D01*
X0349145Y0263735D02*
X0354455Y0263735D01*
X0354455Y0264324D02*
X0349145Y0264324D01*
X0349145Y0264913D02*
X0354455Y0264913D01*
X0354455Y0265502D02*
X0349145Y0265502D01*
X0349145Y0266091D02*
X0354455Y0266091D01*
X0354455Y0266680D02*
X0349145Y0266680D01*
X0349145Y0267269D02*
X0354455Y0267269D01*
X0366845Y0267722D02*
X0372155Y0267722D01*
X0372155Y0259612D01*
X0366845Y0259612D01*
X0366845Y0267722D01*
X0366845Y0260201D02*
X0372155Y0260201D01*
X0372155Y0260790D02*
X0366845Y0260790D01*
X0366845Y0261379D02*
X0372155Y0261379D01*
X0372155Y0261968D02*
X0366845Y0261968D01*
X0366845Y0262557D02*
X0372155Y0262557D01*
X0372155Y0263146D02*
X0366845Y0263146D01*
X0366845Y0263735D02*
X0372155Y0263735D01*
X0372155Y0264324D02*
X0366845Y0264324D01*
X0366845Y0264913D02*
X0372155Y0264913D01*
X0372155Y0265502D02*
X0366845Y0265502D01*
X0366845Y0266091D02*
X0372155Y0266091D01*
X0372155Y0266680D02*
X0366845Y0266680D01*
X0366845Y0267269D02*
X0372155Y0267269D01*
X0372155Y0303622D02*
X0366845Y0303622D01*
X0372155Y0303622D02*
X0372155Y0295512D01*
X0366845Y0295512D01*
X0366845Y0303622D01*
X0366845Y0296101D02*
X0372155Y0296101D01*
X0372155Y0296690D02*
X0366845Y0296690D01*
X0366845Y0297279D02*
X0372155Y0297279D01*
X0372155Y0297868D02*
X0366845Y0297868D01*
X0366845Y0298457D02*
X0372155Y0298457D01*
X0372155Y0299046D02*
X0366845Y0299046D01*
X0366845Y0299635D02*
X0372155Y0299635D01*
X0372155Y0300224D02*
X0366845Y0300224D01*
X0366845Y0300813D02*
X0372155Y0300813D01*
X0372155Y0301402D02*
X0366845Y0301402D01*
X0366845Y0301991D02*
X0372155Y0301991D01*
X0372155Y0302580D02*
X0366845Y0302580D01*
X0366845Y0303169D02*
X0372155Y0303169D01*
X0354455Y0303622D02*
X0349145Y0303622D01*
X0354455Y0303622D02*
X0354455Y0295512D01*
X0349145Y0295512D01*
X0349145Y0303622D01*
X0349145Y0296101D02*
X0354455Y0296101D01*
X0354455Y0296690D02*
X0349145Y0296690D01*
X0349145Y0297279D02*
X0354455Y0297279D01*
X0354455Y0297868D02*
X0349145Y0297868D01*
X0349145Y0298457D02*
X0354455Y0298457D01*
X0354455Y0299046D02*
X0349145Y0299046D01*
X0349145Y0299635D02*
X0354455Y0299635D01*
X0354455Y0300224D02*
X0349145Y0300224D01*
X0349145Y0300813D02*
X0354455Y0300813D01*
X0354455Y0301402D02*
X0349145Y0301402D01*
X0349145Y0301991D02*
X0354455Y0301991D01*
X0354455Y0302580D02*
X0349145Y0302580D01*
X0349145Y0303169D02*
X0354455Y0303169D01*
D28*
X0158001Y0218890D02*
X0158001Y0211798D01*
X0158001Y0218890D02*
X0170999Y0218890D01*
X0170999Y0211798D01*
X0158001Y0211798D01*
X0158001Y0212585D02*
X0170999Y0212585D01*
X0170999Y0213372D02*
X0158001Y0213372D01*
X0158001Y0214159D02*
X0170999Y0214159D01*
X0170999Y0214946D02*
X0158001Y0214946D01*
X0158001Y0215733D02*
X0170999Y0215733D01*
X0170999Y0216520D02*
X0158001Y0216520D01*
X0158001Y0217307D02*
X0170999Y0217307D01*
X0170999Y0218094D02*
X0158001Y0218094D01*
X0158001Y0218881D02*
X0170999Y0218881D01*
X0158001Y0203535D02*
X0158001Y0196443D01*
X0158001Y0203535D02*
X0170999Y0203535D01*
X0170999Y0196443D01*
X0158001Y0196443D01*
X0158001Y0197230D02*
X0170999Y0197230D01*
X0170999Y0198017D02*
X0158001Y0198017D01*
X0158001Y0198804D02*
X0170999Y0198804D01*
X0170999Y0199591D02*
X0158001Y0199591D01*
X0158001Y0200378D02*
X0170999Y0200378D01*
X0170999Y0201165D02*
X0158001Y0201165D01*
X0158001Y0201952D02*
X0170999Y0201952D01*
X0170999Y0202739D02*
X0158001Y0202739D01*
X0158001Y0203526D02*
X0170999Y0203526D01*
D29*
X0287810Y0190849D02*
X0287810Y0186485D01*
X0287810Y0190849D02*
X0297332Y0190849D01*
X0297332Y0186485D01*
X0287810Y0186485D01*
X0287810Y0186969D02*
X0297332Y0186969D01*
X0297332Y0187453D02*
X0287810Y0187453D01*
X0287810Y0187937D02*
X0297332Y0187937D01*
X0297332Y0188421D02*
X0287810Y0188421D01*
X0287810Y0188905D02*
X0297332Y0188905D01*
X0297332Y0189389D02*
X0287810Y0189389D01*
X0287810Y0189873D02*
X0297332Y0189873D01*
X0297332Y0190357D02*
X0287810Y0190357D01*
X0287810Y0190841D02*
X0297332Y0190841D01*
X0287810Y0180849D02*
X0287810Y0176485D01*
X0287810Y0180849D02*
X0297332Y0180849D01*
X0297332Y0176485D01*
X0287810Y0176485D01*
X0287810Y0176969D02*
X0297332Y0176969D01*
X0297332Y0177453D02*
X0287810Y0177453D01*
X0287810Y0177937D02*
X0297332Y0177937D01*
X0297332Y0178421D02*
X0287810Y0178421D01*
X0287810Y0178905D02*
X0297332Y0178905D01*
X0297332Y0179389D02*
X0287810Y0179389D01*
X0287810Y0179873D02*
X0297332Y0179873D01*
X0297332Y0180357D02*
X0287810Y0180357D01*
X0287810Y0180841D02*
X0297332Y0180841D01*
X0287810Y0170849D02*
X0287810Y0166485D01*
X0287810Y0170849D02*
X0297332Y0170849D01*
X0297332Y0166485D01*
X0287810Y0166485D01*
X0287810Y0166969D02*
X0297332Y0166969D01*
X0297332Y0167453D02*
X0287810Y0167453D01*
X0287810Y0167937D02*
X0297332Y0167937D01*
X0297332Y0168421D02*
X0287810Y0168421D01*
X0287810Y0168905D02*
X0297332Y0168905D01*
X0297332Y0169389D02*
X0287810Y0169389D01*
X0287810Y0169873D02*
X0297332Y0169873D01*
X0297332Y0170357D02*
X0287810Y0170357D01*
X0287810Y0170841D02*
X0297332Y0170841D01*
X0331190Y0170849D02*
X0331190Y0166485D01*
X0321668Y0166485D01*
X0321668Y0170849D01*
X0331190Y0170849D01*
X0331190Y0166969D02*
X0321668Y0166969D01*
X0321668Y0167453D02*
X0331190Y0167453D01*
X0331190Y0167937D02*
X0321668Y0167937D01*
X0321668Y0168421D02*
X0331190Y0168421D01*
X0331190Y0168905D02*
X0321668Y0168905D01*
X0321668Y0169389D02*
X0331190Y0169389D01*
X0331190Y0169873D02*
X0321668Y0169873D01*
X0321668Y0170357D02*
X0331190Y0170357D01*
X0331190Y0170841D02*
X0321668Y0170841D01*
X0331190Y0176485D02*
X0331190Y0180849D01*
X0331190Y0176485D02*
X0321668Y0176485D01*
X0321668Y0180849D01*
X0331190Y0180849D01*
X0331190Y0176969D02*
X0321668Y0176969D01*
X0321668Y0177453D02*
X0331190Y0177453D01*
X0331190Y0177937D02*
X0321668Y0177937D01*
X0321668Y0178421D02*
X0331190Y0178421D01*
X0331190Y0178905D02*
X0321668Y0178905D01*
X0321668Y0179389D02*
X0331190Y0179389D01*
X0331190Y0179873D02*
X0321668Y0179873D01*
X0321668Y0180357D02*
X0331190Y0180357D01*
X0331190Y0180841D02*
X0321668Y0180841D01*
X0331190Y0186485D02*
X0331190Y0190849D01*
X0331190Y0186485D02*
X0321668Y0186485D01*
X0321668Y0190849D01*
X0331190Y0190849D01*
X0331190Y0186969D02*
X0321668Y0186969D01*
X0321668Y0187453D02*
X0331190Y0187453D01*
X0331190Y0187937D02*
X0321668Y0187937D01*
X0321668Y0188421D02*
X0331190Y0188421D01*
X0331190Y0188905D02*
X0321668Y0188905D01*
X0321668Y0189389D02*
X0331190Y0189389D01*
X0331190Y0189873D02*
X0321668Y0189873D01*
X0321668Y0190357D02*
X0331190Y0190357D01*
X0331190Y0190841D02*
X0321668Y0190841D01*
D30*
X0279210Y0185827D02*
X0279210Y0181507D01*
X0269690Y0181507D01*
X0269690Y0185827D01*
X0279210Y0185827D01*
X0279210Y0181986D02*
X0269690Y0181986D01*
X0269690Y0182465D02*
X0279210Y0182465D01*
X0279210Y0182944D02*
X0269690Y0182944D01*
X0269690Y0183423D02*
X0279210Y0183423D01*
X0279210Y0183902D02*
X0269690Y0183902D01*
X0269690Y0184381D02*
X0279210Y0184381D01*
X0279210Y0184860D02*
X0269690Y0184860D01*
X0269690Y0185339D02*
X0279210Y0185339D01*
X0279210Y0185818D02*
X0269690Y0185818D01*
X0279210Y0175827D02*
X0279210Y0171507D01*
X0269690Y0171507D01*
X0269690Y0175827D01*
X0279210Y0175827D01*
X0279210Y0171986D02*
X0269690Y0171986D01*
X0269690Y0172465D02*
X0279210Y0172465D01*
X0279210Y0172944D02*
X0269690Y0172944D01*
X0269690Y0173423D02*
X0279210Y0173423D01*
X0279210Y0173902D02*
X0269690Y0173902D01*
X0269690Y0174381D02*
X0279210Y0174381D01*
X0279210Y0174860D02*
X0269690Y0174860D01*
X0269690Y0175339D02*
X0279210Y0175339D01*
X0279210Y0175818D02*
X0269690Y0175818D01*
X0245310Y0175827D02*
X0245310Y0171507D01*
X0235790Y0171507D01*
X0235790Y0175827D01*
X0245310Y0175827D01*
X0245310Y0171986D02*
X0235790Y0171986D01*
X0235790Y0172465D02*
X0245310Y0172465D01*
X0245310Y0172944D02*
X0235790Y0172944D01*
X0235790Y0173423D02*
X0245310Y0173423D01*
X0245310Y0173902D02*
X0235790Y0173902D01*
X0235790Y0174381D02*
X0245310Y0174381D01*
X0245310Y0174860D02*
X0235790Y0174860D01*
X0235790Y0175339D02*
X0245310Y0175339D01*
X0245310Y0175818D02*
X0235790Y0175818D01*
X0245310Y0181507D02*
X0245310Y0185827D01*
X0245310Y0181507D02*
X0235790Y0181507D01*
X0235790Y0185827D01*
X0245310Y0185827D01*
X0245310Y0181986D02*
X0235790Y0181986D01*
X0235790Y0182465D02*
X0245310Y0182465D01*
X0245310Y0182944D02*
X0235790Y0182944D01*
X0235790Y0183423D02*
X0245310Y0183423D01*
X0245310Y0183902D02*
X0235790Y0183902D01*
X0235790Y0184381D02*
X0245310Y0184381D01*
X0245310Y0184860D02*
X0235790Y0184860D01*
X0235790Y0185339D02*
X0245310Y0185339D01*
X0245310Y0185818D02*
X0235790Y0185818D01*
D31*
X0354500Y0321667D03*
X0364500Y0321667D03*
D32*
X0244500Y0321667D03*
X0244500Y0311667D03*
X0244500Y0151667D03*
X0244500Y0141667D03*
D33*
X0287818Y0295820D02*
X0287818Y0298396D01*
X0291182Y0298396D01*
X0291182Y0295820D01*
X0287818Y0295820D01*
X0287818Y0296274D02*
X0291182Y0296274D01*
X0291182Y0296728D02*
X0287818Y0296728D01*
X0287818Y0297182D02*
X0291182Y0297182D01*
X0291182Y0297636D02*
X0287818Y0297636D01*
X0287818Y0298090D02*
X0291182Y0298090D01*
X0292818Y0298396D02*
X0292818Y0295820D01*
X0292818Y0298396D02*
X0296182Y0298396D01*
X0296182Y0295820D01*
X0292818Y0295820D01*
X0292818Y0296274D02*
X0296182Y0296274D01*
X0296182Y0296728D02*
X0292818Y0296728D01*
X0292818Y0297182D02*
X0296182Y0297182D01*
X0296182Y0297636D02*
X0292818Y0297636D01*
X0292818Y0298090D02*
X0296182Y0298090D01*
X0297818Y0298396D02*
X0297818Y0295820D01*
X0297818Y0298396D02*
X0301182Y0298396D01*
X0301182Y0295820D01*
X0297818Y0295820D01*
X0297818Y0296274D02*
X0301182Y0296274D01*
X0301182Y0296728D02*
X0297818Y0296728D01*
X0297818Y0297182D02*
X0301182Y0297182D01*
X0301182Y0297636D02*
X0297818Y0297636D01*
X0297818Y0298090D02*
X0301182Y0298090D01*
X0302818Y0298396D02*
X0302818Y0295820D01*
X0302818Y0298396D02*
X0306182Y0298396D01*
X0306182Y0295820D01*
X0302818Y0295820D01*
X0302818Y0296274D02*
X0306182Y0296274D01*
X0306182Y0296728D02*
X0302818Y0296728D01*
X0302818Y0297182D02*
X0306182Y0297182D01*
X0306182Y0297636D02*
X0302818Y0297636D01*
X0302818Y0298090D02*
X0306182Y0298090D01*
X0307818Y0298396D02*
X0307818Y0295820D01*
X0307818Y0298396D02*
X0311182Y0298396D01*
X0311182Y0295820D01*
X0307818Y0295820D01*
X0307818Y0296274D02*
X0311182Y0296274D01*
X0311182Y0296728D02*
X0307818Y0296728D01*
X0307818Y0297182D02*
X0311182Y0297182D01*
X0311182Y0297636D02*
X0307818Y0297636D01*
X0307818Y0298090D02*
X0311182Y0298090D01*
X0312818Y0298396D02*
X0312818Y0295820D01*
X0312818Y0298396D02*
X0316182Y0298396D01*
X0316182Y0295820D01*
X0312818Y0295820D01*
X0312818Y0296274D02*
X0316182Y0296274D01*
X0316182Y0296728D02*
X0312818Y0296728D01*
X0312818Y0297182D02*
X0316182Y0297182D01*
X0316182Y0297636D02*
X0312818Y0297636D01*
X0312818Y0298090D02*
X0316182Y0298090D01*
X0317818Y0298396D02*
X0317818Y0295820D01*
X0317818Y0298396D02*
X0321182Y0298396D01*
X0321182Y0295820D01*
X0317818Y0295820D01*
X0317818Y0296274D02*
X0321182Y0296274D01*
X0321182Y0296728D02*
X0317818Y0296728D01*
X0317818Y0297182D02*
X0321182Y0297182D01*
X0321182Y0297636D02*
X0317818Y0297636D01*
X0317818Y0298090D02*
X0321182Y0298090D01*
X0322818Y0298396D02*
X0322818Y0295820D01*
X0322818Y0298396D02*
X0326182Y0298396D01*
X0326182Y0295820D01*
X0322818Y0295820D01*
X0322818Y0296274D02*
X0326182Y0296274D01*
X0326182Y0296728D02*
X0322818Y0296728D01*
X0322818Y0297182D02*
X0326182Y0297182D01*
X0326182Y0297636D02*
X0322818Y0297636D01*
X0322818Y0298090D02*
X0326182Y0298090D01*
X0322818Y0300938D02*
X0322818Y0303514D01*
X0326182Y0303514D01*
X0326182Y0300938D01*
X0322818Y0300938D01*
X0322818Y0301392D02*
X0326182Y0301392D01*
X0326182Y0301846D02*
X0322818Y0301846D01*
X0322818Y0302300D02*
X0326182Y0302300D01*
X0326182Y0302754D02*
X0322818Y0302754D01*
X0322818Y0303208D02*
X0326182Y0303208D01*
X0317818Y0303514D02*
X0317818Y0300938D01*
X0317818Y0303514D02*
X0321182Y0303514D01*
X0321182Y0300938D01*
X0317818Y0300938D01*
X0317818Y0301392D02*
X0321182Y0301392D01*
X0321182Y0301846D02*
X0317818Y0301846D01*
X0317818Y0302300D02*
X0321182Y0302300D01*
X0321182Y0302754D02*
X0317818Y0302754D01*
X0317818Y0303208D02*
X0321182Y0303208D01*
X0312818Y0303514D02*
X0312818Y0300938D01*
X0312818Y0303514D02*
X0316182Y0303514D01*
X0316182Y0300938D01*
X0312818Y0300938D01*
X0312818Y0301392D02*
X0316182Y0301392D01*
X0316182Y0301846D02*
X0312818Y0301846D01*
X0312818Y0302300D02*
X0316182Y0302300D01*
X0316182Y0302754D02*
X0312818Y0302754D01*
X0312818Y0303208D02*
X0316182Y0303208D01*
X0307818Y0303514D02*
X0307818Y0300938D01*
X0307818Y0303514D02*
X0311182Y0303514D01*
X0311182Y0300938D01*
X0307818Y0300938D01*
X0307818Y0301392D02*
X0311182Y0301392D01*
X0311182Y0301846D02*
X0307818Y0301846D01*
X0307818Y0302300D02*
X0311182Y0302300D01*
X0311182Y0302754D02*
X0307818Y0302754D01*
X0307818Y0303208D02*
X0311182Y0303208D01*
X0302818Y0303514D02*
X0302818Y0300938D01*
X0302818Y0303514D02*
X0306182Y0303514D01*
X0306182Y0300938D01*
X0302818Y0300938D01*
X0302818Y0301392D02*
X0306182Y0301392D01*
X0306182Y0301846D02*
X0302818Y0301846D01*
X0302818Y0302300D02*
X0306182Y0302300D01*
X0306182Y0302754D02*
X0302818Y0302754D01*
X0302818Y0303208D02*
X0306182Y0303208D01*
X0297818Y0303514D02*
X0297818Y0300938D01*
X0297818Y0303514D02*
X0301182Y0303514D01*
X0301182Y0300938D01*
X0297818Y0300938D01*
X0297818Y0301392D02*
X0301182Y0301392D01*
X0301182Y0301846D02*
X0297818Y0301846D01*
X0297818Y0302300D02*
X0301182Y0302300D01*
X0301182Y0302754D02*
X0297818Y0302754D01*
X0297818Y0303208D02*
X0301182Y0303208D01*
X0292818Y0303514D02*
X0292818Y0300938D01*
X0292818Y0303514D02*
X0296182Y0303514D01*
X0296182Y0300938D01*
X0292818Y0300938D01*
X0292818Y0301392D02*
X0296182Y0301392D01*
X0296182Y0301846D02*
X0292818Y0301846D01*
X0292818Y0302300D02*
X0296182Y0302300D01*
X0296182Y0302754D02*
X0292818Y0302754D01*
X0292818Y0303208D02*
X0296182Y0303208D01*
X0287818Y0303514D02*
X0287818Y0300938D01*
X0287818Y0303514D02*
X0291182Y0303514D01*
X0291182Y0300938D01*
X0287818Y0300938D01*
X0287818Y0301392D02*
X0291182Y0301392D01*
X0291182Y0301846D02*
X0287818Y0301846D01*
X0287818Y0302300D02*
X0291182Y0302300D01*
X0291182Y0302754D02*
X0287818Y0302754D01*
X0287818Y0303208D02*
X0291182Y0303208D01*
M02*
