%
M48
M72
T01C0.01500
T02C0.03200
T03C0.03543
T04C0.03600
T05C0.04000
%
T01
X162500Y148667
X168000Y148667
X170500Y160667
X167500Y163667
X187500Y170667
X187500Y175667
X187500Y180667
X187500Y185667
X181500Y201667
X187500Y214667
X187500Y219667
X187500Y224667
X187500Y229667
X187500Y234667
X174500Y239667
X169500Y237667
X179500Y248667
X174500Y264667
X170500Y264667
X180500Y266667
X189500Y265667
X192500Y270667
X199500Y272667
X199500Y281667
X179500Y283167
X174500Y288167
X169500Y293167
X179500Y293167
X169500Y283167
X150500Y272667
X145500Y280667
X147500Y284667
X146500Y292667
X136500Y286667
X125500Y299667
X136500Y304667
X136500Y314667
X140500Y314667
X130500Y314667
X148500Y324667
X150500Y313667
X153500Y306667
X163500Y318167
X169500Y315667
X175500Y316667
X176500Y311667
X180500Y311667
X219500Y281667
X238500Y279667
X238500Y294667
X259500Y271667
X254500Y265667
X249500Y265667
X244500Y265667
X232500Y254167
X219500Y245667
X200500Y254667
X230500Y231667
X225500Y225667
X225500Y220667
X224500Y200667
X234500Y195667
X227500Y182667
X225500Y170667
X225500Y165667
X219500Y156667
X234500Y146667
X269500Y168667
X279500Y164667
X285500Y160667
X290500Y173667
X290500Y183667
X292500Y196667
X312500Y197667
X317500Y197667
X329500Y194667
X334500Y194667
X338500Y196667
X351500Y191667
X360500Y187667
X369500Y173667
X357500Y170667
X345500Y163667
X345500Y157667
X337500Y163667
X329500Y160667
X326500Y163667
X333500Y158667
X319500Y156667
X310500Y166667
X307500Y168667
X313500Y168667
X312500Y176667
X312500Y181667
X324500Y173667
X331500Y173667
X342500Y174667
X342500Y184667
X331500Y207667
X327500Y207667
X322500Y211667
X316500Y211667
X317500Y217667
X308500Y230667
X308500Y237667
X308500Y241667
X295500Y239667
X279500Y244667
X282500Y250667
X282500Y266667
X288500Y265667
X288500Y271667
X298000Y267667
X310500Y261667
X304500Y256667
X318500Y258667
X332500Y253667
X341500Y251667
X341500Y246667
X334500Y237667
X331500Y234667
X345500Y235667
X353500Y231667
X352500Y223667
X363500Y221667
X363500Y231667
X363500Y242667
X363500Y260667
X367500Y271667
X355500Y271667
X344500Y268667
X338500Y271667
X334500Y276667
X324500Y269667
X319500Y286667
X314500Y293667
X309500Y293667
X304500Y293667
X299500Y293667
X294500Y293667
X289500Y293667
X295500Y281667
X300500Y281667
X276500Y275667
X274500Y265667
X264500Y248667
X259500Y239667
X259500Y223667
X253500Y202667
X261500Y189667
X258500Y178667
X274500Y178667
X274500Y189667
X273500Y202667
X287500Y211667
X346500Y213667
X354500Y209667
X357500Y212667
X363500Y212667
X369500Y206667
X357500Y162667
X364500Y157667
X362500Y152667
X369500Y154667
X369500Y150667
X369500Y142667
X369500Y138667
X362500Y140667
X170500Y222667
X151500Y222667
X151500Y227667
X151500Y232667
X149500Y239667
X158500Y249667
X149500Y263667
X127500Y225667
X127500Y221667
X127500Y217667
X137500Y198667
X143500Y198667
X127500Y197667
X127500Y193667
X127500Y189667
X135500Y178667
X140500Y178667
X267500Y293667
X267500Y298667
X267500Y303667
X234500Y316667
X324500Y293667
X336500Y291667
X351500Y290667
T02
X244500Y241167
X244500Y222167
T03
X139500Y150005
X139500Y167328
T04
X199500Y151667
X209500Y151667
X209500Y141667
X199500Y141667
X199500Y321667
X209500Y321667
T05
X244500Y321667
X254500Y321667
X264500Y321667
X274500Y321667
X284500Y321667
X294500Y321667
X304500Y321667
X314500Y321667
X324500Y321667
X334500Y321667
X334500Y311667
X324500Y311667
X314500Y311667
X304500Y311667
X294500Y311667
X284500Y311667
X274500Y311667
X264500Y311667
X254500Y311667
X244500Y311667
X354500Y321667
X364500Y321667
X374500Y321667
X334500Y151667
X324500Y151667
X314500Y151667
X304500Y151667
X294500Y151667
X284500Y151667
X274500Y151667
X264500Y151667
X254500Y151667
X244500Y151667
X244500Y141667
X254500Y141667
X264500Y141667
X274500Y141667
X284500Y141667
X294500Y141667
X304500Y141667
X314500Y141667
X324500Y141667
X334500Y141667
M30
