G75*
%MOIN*%
%OFA0B0*%
%FSLAX25Y25*%
%IPPOS*%
%LPD*%
%AMOC8*
5,1,8,0,0,1.08239X$1,22.5*
%
%ADD10C,0.00361*%
%ADD11C,0.00351*%
%ADD12C,0.03853*%
%ADD13C,0.00322*%
%ADD14C,0.00709*%
%ADD15C,0.00354*%
%ADD16C,0.00341*%
%ADD17C,0.00684*%
%ADD18C,0.00369*%
%ADD19C,0.00567*%
%ADD20C,0.00432*%
%ADD21C,0.00780*%
%ADD22C,0.00691*%
%ADD23C,0.00495*%
%ADD24C,0.00673*%
%ADD25C,0.00400*%
%ADD26C,0.00396*%
%ADD27C,0.00372*%
D10*
X0185422Y0162284D02*
X0185422Y0164050D01*
X0185422Y0162284D02*
X0177358Y0162284D01*
X0177358Y0164050D01*
X0185422Y0164050D01*
X0185422Y0162644D02*
X0177358Y0162644D01*
X0177358Y0163004D02*
X0185422Y0163004D01*
X0185422Y0163364D02*
X0177358Y0163364D01*
X0177358Y0163724D02*
X0185422Y0163724D01*
X0185422Y0167284D02*
X0185422Y0169050D01*
X0185422Y0167284D02*
X0177358Y0167284D01*
X0177358Y0169050D01*
X0185422Y0169050D01*
X0185422Y0167644D02*
X0177358Y0167644D01*
X0177358Y0168004D02*
X0185422Y0168004D01*
X0185422Y0168364D02*
X0177358Y0168364D01*
X0177358Y0168724D02*
X0185422Y0168724D01*
X0185422Y0172284D02*
X0185422Y0174050D01*
X0185422Y0172284D02*
X0177358Y0172284D01*
X0177358Y0174050D01*
X0185422Y0174050D01*
X0185422Y0172644D02*
X0177358Y0172644D01*
X0177358Y0173004D02*
X0185422Y0173004D01*
X0185422Y0173364D02*
X0177358Y0173364D01*
X0177358Y0173724D02*
X0185422Y0173724D01*
X0185422Y0177284D02*
X0185422Y0179050D01*
X0185422Y0177284D02*
X0177358Y0177284D01*
X0177358Y0179050D01*
X0185422Y0179050D01*
X0185422Y0177644D02*
X0177358Y0177644D01*
X0177358Y0178004D02*
X0185422Y0178004D01*
X0185422Y0178364D02*
X0177358Y0178364D01*
X0177358Y0178724D02*
X0185422Y0178724D01*
X0185422Y0182284D02*
X0185422Y0184050D01*
X0185422Y0182284D02*
X0177358Y0182284D01*
X0177358Y0184050D01*
X0185422Y0184050D01*
X0185422Y0182644D02*
X0177358Y0182644D01*
X0177358Y0183004D02*
X0185422Y0183004D01*
X0185422Y0183364D02*
X0177358Y0183364D01*
X0177358Y0183724D02*
X0185422Y0183724D01*
X0185422Y0187284D02*
X0185422Y0189050D01*
X0185422Y0187284D02*
X0177358Y0187284D01*
X0177358Y0189050D01*
X0185422Y0189050D01*
X0185422Y0187644D02*
X0177358Y0187644D01*
X0177358Y0188004D02*
X0185422Y0188004D01*
X0185422Y0188364D02*
X0177358Y0188364D01*
X0177358Y0188724D02*
X0185422Y0188724D01*
X0185422Y0192284D02*
X0185422Y0194050D01*
X0185422Y0192284D02*
X0177358Y0192284D01*
X0177358Y0194050D01*
X0185422Y0194050D01*
X0185422Y0192644D02*
X0177358Y0192644D01*
X0177358Y0193004D02*
X0185422Y0193004D01*
X0185422Y0193364D02*
X0177358Y0193364D01*
X0177358Y0193724D02*
X0185422Y0193724D01*
X0185422Y0197284D02*
X0185422Y0199050D01*
X0185422Y0197284D02*
X0177358Y0197284D01*
X0177358Y0199050D01*
X0185422Y0199050D01*
X0185422Y0197644D02*
X0177358Y0197644D01*
X0177358Y0198004D02*
X0185422Y0198004D01*
X0185422Y0198364D02*
X0177358Y0198364D01*
X0177358Y0198724D02*
X0185422Y0198724D01*
X0177358Y0206284D02*
X0177358Y0208050D01*
X0185422Y0208050D01*
X0185422Y0206284D01*
X0177358Y0206284D01*
X0177358Y0206644D02*
X0185422Y0206644D01*
X0185422Y0207004D02*
X0177358Y0207004D01*
X0177358Y0207364D02*
X0185422Y0207364D01*
X0185422Y0207724D02*
X0177358Y0207724D01*
X0177358Y0211284D02*
X0177358Y0213050D01*
X0185422Y0213050D01*
X0185422Y0211284D01*
X0177358Y0211284D01*
X0177358Y0211644D02*
X0185422Y0211644D01*
X0185422Y0212004D02*
X0177358Y0212004D01*
X0177358Y0212364D02*
X0185422Y0212364D01*
X0185422Y0212724D02*
X0177358Y0212724D01*
X0177358Y0216284D02*
X0177358Y0218050D01*
X0185422Y0218050D01*
X0185422Y0216284D01*
X0177358Y0216284D01*
X0177358Y0216644D02*
X0185422Y0216644D01*
X0185422Y0217004D02*
X0177358Y0217004D01*
X0177358Y0217364D02*
X0185422Y0217364D01*
X0185422Y0217724D02*
X0177358Y0217724D01*
X0177358Y0221284D02*
X0177358Y0223050D01*
X0185422Y0223050D01*
X0185422Y0221284D01*
X0177358Y0221284D01*
X0177358Y0221644D02*
X0185422Y0221644D01*
X0185422Y0222004D02*
X0177358Y0222004D01*
X0177358Y0222364D02*
X0185422Y0222364D01*
X0185422Y0222724D02*
X0177358Y0222724D01*
X0177358Y0226284D02*
X0177358Y0228050D01*
X0185422Y0228050D01*
X0185422Y0226284D01*
X0177358Y0226284D01*
X0177358Y0226644D02*
X0185422Y0226644D01*
X0185422Y0227004D02*
X0177358Y0227004D01*
X0177358Y0227364D02*
X0185422Y0227364D01*
X0185422Y0227724D02*
X0177358Y0227724D01*
X0177358Y0231284D02*
X0177358Y0233050D01*
X0185422Y0233050D01*
X0185422Y0231284D01*
X0177358Y0231284D01*
X0177358Y0231644D02*
X0185422Y0231644D01*
X0185422Y0232004D02*
X0177358Y0232004D01*
X0177358Y0232364D02*
X0185422Y0232364D01*
X0185422Y0232724D02*
X0177358Y0232724D01*
X0177358Y0236284D02*
X0177358Y0238050D01*
X0185422Y0238050D01*
X0185422Y0236284D01*
X0177358Y0236284D01*
X0177358Y0236644D02*
X0185422Y0236644D01*
X0185422Y0237004D02*
X0177358Y0237004D01*
X0177358Y0237364D02*
X0185422Y0237364D01*
X0185422Y0237724D02*
X0177358Y0237724D01*
X0177358Y0241284D02*
X0177358Y0243050D01*
X0185422Y0243050D01*
X0185422Y0241284D01*
X0177358Y0241284D01*
X0177358Y0241644D02*
X0185422Y0241644D01*
X0185422Y0242004D02*
X0177358Y0242004D01*
X0177358Y0242364D02*
X0185422Y0242364D01*
X0185422Y0242724D02*
X0177358Y0242724D01*
X0176883Y0247815D02*
X0176883Y0249581D01*
X0176883Y0247815D02*
X0175117Y0247815D01*
X0175117Y0249581D01*
X0176883Y0249581D01*
X0176883Y0248175D02*
X0175117Y0248175D01*
X0175117Y0248535D02*
X0176883Y0248535D01*
X0176883Y0248895D02*
X0175117Y0248895D01*
X0175117Y0249255D02*
X0176883Y0249255D01*
X0176883Y0251752D02*
X0176883Y0253518D01*
X0176883Y0251752D02*
X0175117Y0251752D01*
X0175117Y0253518D01*
X0176883Y0253518D01*
X0176883Y0252112D02*
X0175117Y0252112D01*
X0175117Y0252472D02*
X0176883Y0252472D01*
X0176883Y0252832D02*
X0175117Y0252832D01*
X0175117Y0253192D02*
X0176883Y0253192D01*
X0172883Y0253518D02*
X0172883Y0251752D01*
X0171117Y0251752D01*
X0171117Y0253518D01*
X0172883Y0253518D01*
X0172883Y0252112D02*
X0171117Y0252112D01*
X0171117Y0252472D02*
X0172883Y0252472D01*
X0172883Y0252832D02*
X0171117Y0252832D01*
X0171117Y0253192D02*
X0172883Y0253192D01*
X0172883Y0249581D02*
X0172883Y0247815D01*
X0171117Y0247815D01*
X0171117Y0249581D01*
X0172883Y0249581D01*
X0172883Y0248175D02*
X0171117Y0248175D01*
X0171117Y0248535D02*
X0172883Y0248535D01*
X0172883Y0248895D02*
X0171117Y0248895D01*
X0171117Y0249255D02*
X0172883Y0249255D01*
X0168883Y0249581D02*
X0168883Y0247815D01*
X0167117Y0247815D01*
X0167117Y0249581D01*
X0168883Y0249581D01*
X0168883Y0248175D02*
X0167117Y0248175D01*
X0167117Y0248535D02*
X0168883Y0248535D01*
X0168883Y0248895D02*
X0167117Y0248895D01*
X0167117Y0249255D02*
X0168883Y0249255D01*
X0168883Y0251752D02*
X0168883Y0253518D01*
X0168883Y0251752D02*
X0167117Y0251752D01*
X0167117Y0253518D01*
X0168883Y0253518D01*
X0168883Y0252112D02*
X0167117Y0252112D01*
X0167117Y0252472D02*
X0168883Y0252472D01*
X0168883Y0252832D02*
X0167117Y0252832D01*
X0167117Y0253192D02*
X0168883Y0253192D01*
X0162117Y0253518D02*
X0162117Y0251752D01*
X0162117Y0253518D02*
X0163883Y0253518D01*
X0163883Y0251752D01*
X0162117Y0251752D01*
X0162117Y0252112D02*
X0163883Y0252112D01*
X0163883Y0252472D02*
X0162117Y0252472D01*
X0162117Y0252832D02*
X0163883Y0252832D01*
X0163883Y0253192D02*
X0162117Y0253192D01*
X0162117Y0249581D02*
X0162117Y0247815D01*
X0162117Y0249581D02*
X0163883Y0249581D01*
X0163883Y0247815D01*
X0162117Y0247815D01*
X0162117Y0248175D02*
X0163883Y0248175D01*
X0163883Y0248535D02*
X0162117Y0248535D01*
X0162117Y0248895D02*
X0163883Y0248895D01*
X0163883Y0249255D02*
X0162117Y0249255D01*
X0149117Y0248518D02*
X0149117Y0246752D01*
X0149117Y0248518D02*
X0150883Y0248518D01*
X0150883Y0246752D01*
X0149117Y0246752D01*
X0149117Y0247112D02*
X0150883Y0247112D01*
X0150883Y0247472D02*
X0149117Y0247472D01*
X0149117Y0247832D02*
X0150883Y0247832D01*
X0150883Y0248192D02*
X0149117Y0248192D01*
X0149117Y0244581D02*
X0149117Y0242815D01*
X0149117Y0244581D02*
X0150883Y0244581D01*
X0150883Y0242815D01*
X0149117Y0242815D01*
X0149117Y0243175D02*
X0150883Y0243175D01*
X0150883Y0243535D02*
X0149117Y0243535D01*
X0149117Y0243895D02*
X0150883Y0243895D01*
X0150883Y0244255D02*
X0149117Y0244255D01*
X0150883Y0254815D02*
X0150883Y0256581D01*
X0150883Y0254815D02*
X0149117Y0254815D01*
X0149117Y0256581D01*
X0150883Y0256581D01*
X0150883Y0255175D02*
X0149117Y0255175D01*
X0149117Y0255535D02*
X0150883Y0255535D01*
X0150883Y0255895D02*
X0149117Y0255895D01*
X0149117Y0256255D02*
X0150883Y0256255D01*
X0150883Y0258752D02*
X0150883Y0260518D01*
X0150883Y0258752D02*
X0149117Y0258752D01*
X0149117Y0260518D01*
X0150883Y0260518D01*
X0150883Y0259112D02*
X0149117Y0259112D01*
X0149117Y0259472D02*
X0150883Y0259472D01*
X0150883Y0259832D02*
X0149117Y0259832D01*
X0149117Y0260192D02*
X0150883Y0260192D01*
X0153617Y0259815D02*
X0153617Y0261581D01*
X0155383Y0261581D01*
X0155383Y0259815D01*
X0153617Y0259815D01*
X0153617Y0260175D02*
X0155383Y0260175D01*
X0155383Y0260535D02*
X0153617Y0260535D01*
X0153617Y0260895D02*
X0155383Y0260895D01*
X0155383Y0261255D02*
X0153617Y0261255D01*
X0153617Y0263752D02*
X0153617Y0265518D01*
X0155383Y0265518D01*
X0155383Y0263752D01*
X0153617Y0263752D01*
X0153617Y0264112D02*
X0155383Y0264112D01*
X0155383Y0264472D02*
X0153617Y0264472D01*
X0153617Y0264832D02*
X0155383Y0264832D01*
X0155383Y0265192D02*
X0153617Y0265192D01*
X0141352Y0292784D02*
X0139586Y0292784D01*
X0139586Y0294550D01*
X0141352Y0294550D01*
X0141352Y0292784D01*
X0141352Y0293144D02*
X0139586Y0293144D01*
X0139586Y0293504D02*
X0141352Y0293504D01*
X0141352Y0293864D02*
X0139586Y0293864D01*
X0139586Y0294224D02*
X0141352Y0294224D01*
X0137414Y0292784D02*
X0135648Y0292784D01*
X0135648Y0294550D01*
X0137414Y0294550D01*
X0137414Y0292784D01*
X0137414Y0293144D02*
X0135648Y0293144D01*
X0135648Y0293504D02*
X0137414Y0293504D01*
X0137414Y0293864D02*
X0135648Y0293864D01*
X0135648Y0294224D02*
X0137414Y0294224D01*
X0130383Y0303815D02*
X0130383Y0305581D01*
X0130383Y0303815D02*
X0128617Y0303815D01*
X0128617Y0305581D01*
X0130383Y0305581D01*
X0130383Y0304175D02*
X0128617Y0304175D01*
X0128617Y0304535D02*
X0130383Y0304535D01*
X0130383Y0304895D02*
X0128617Y0304895D01*
X0128617Y0305255D02*
X0130383Y0305255D01*
X0130383Y0307752D02*
X0130383Y0309518D01*
X0130383Y0307752D02*
X0128617Y0307752D01*
X0128617Y0309518D01*
X0130383Y0309518D01*
X0130383Y0308112D02*
X0128617Y0308112D01*
X0128617Y0308472D02*
X0130383Y0308472D01*
X0130383Y0308832D02*
X0128617Y0308832D01*
X0128617Y0309192D02*
X0130383Y0309192D01*
X0123617Y0309518D02*
X0123617Y0307752D01*
X0123617Y0309518D02*
X0125383Y0309518D01*
X0125383Y0307752D01*
X0123617Y0307752D01*
X0123617Y0308112D02*
X0125383Y0308112D01*
X0125383Y0308472D02*
X0123617Y0308472D01*
X0123617Y0308832D02*
X0125383Y0308832D01*
X0125383Y0309192D02*
X0123617Y0309192D01*
X0123617Y0305581D02*
X0123617Y0303815D01*
X0123617Y0305581D02*
X0125383Y0305581D01*
X0125383Y0303815D01*
X0123617Y0303815D01*
X0123617Y0304175D02*
X0125383Y0304175D01*
X0125383Y0304535D02*
X0123617Y0304535D01*
X0123617Y0304895D02*
X0125383Y0304895D01*
X0125383Y0305255D02*
X0123617Y0305255D01*
X0135648Y0319550D02*
X0137414Y0319550D01*
X0137414Y0317784D01*
X0135648Y0317784D01*
X0135648Y0319550D01*
X0135648Y0318144D02*
X0137414Y0318144D01*
X0137414Y0318504D02*
X0135648Y0318504D01*
X0135648Y0318864D02*
X0137414Y0318864D01*
X0137414Y0319224D02*
X0135648Y0319224D01*
X0135648Y0324550D02*
X0137414Y0324550D01*
X0137414Y0322784D01*
X0135648Y0322784D01*
X0135648Y0324550D01*
X0135648Y0323144D02*
X0137414Y0323144D01*
X0137414Y0323504D02*
X0135648Y0323504D01*
X0135648Y0323864D02*
X0137414Y0323864D01*
X0137414Y0324224D02*
X0135648Y0324224D01*
X0139586Y0324550D02*
X0141352Y0324550D01*
X0141352Y0322784D01*
X0139586Y0322784D01*
X0139586Y0324550D01*
X0139586Y0323144D02*
X0141352Y0323144D01*
X0141352Y0323504D02*
X0139586Y0323504D01*
X0139586Y0323864D02*
X0141352Y0323864D01*
X0141352Y0324224D02*
X0139586Y0324224D01*
X0139586Y0319550D02*
X0141352Y0319550D01*
X0141352Y0317784D01*
X0139586Y0317784D01*
X0139586Y0319550D01*
X0139586Y0318144D02*
X0141352Y0318144D01*
X0141352Y0318504D02*
X0139586Y0318504D01*
X0139586Y0318864D02*
X0141352Y0318864D01*
X0141352Y0319224D02*
X0139586Y0319224D01*
X0151648Y0319550D02*
X0153414Y0319550D01*
X0153414Y0317784D01*
X0151648Y0317784D01*
X0151648Y0319550D01*
X0151648Y0318144D02*
X0153414Y0318144D01*
X0153414Y0318504D02*
X0151648Y0318504D01*
X0151648Y0318864D02*
X0153414Y0318864D01*
X0153414Y0319224D02*
X0151648Y0319224D01*
X0151648Y0324550D02*
X0153414Y0324550D01*
X0153414Y0322784D01*
X0151648Y0322784D01*
X0151648Y0324550D01*
X0151648Y0323144D02*
X0153414Y0323144D01*
X0153414Y0323504D02*
X0151648Y0323504D01*
X0151648Y0323864D02*
X0153414Y0323864D01*
X0153414Y0324224D02*
X0151648Y0324224D01*
X0155586Y0324550D02*
X0157352Y0324550D01*
X0157352Y0322784D01*
X0155586Y0322784D01*
X0155586Y0324550D01*
X0155586Y0323144D02*
X0157352Y0323144D01*
X0157352Y0323504D02*
X0155586Y0323504D01*
X0155586Y0323864D02*
X0157352Y0323864D01*
X0157352Y0324224D02*
X0155586Y0324224D01*
X0155586Y0319550D02*
X0157352Y0319550D01*
X0157352Y0317784D01*
X0155586Y0317784D01*
X0155586Y0319550D01*
X0155586Y0318144D02*
X0157352Y0318144D01*
X0157352Y0318504D02*
X0155586Y0318504D01*
X0155586Y0318864D02*
X0157352Y0318864D01*
X0157352Y0319224D02*
X0155586Y0319224D01*
X0196883Y0312518D02*
X0196883Y0310752D01*
X0195117Y0310752D01*
X0195117Y0312518D01*
X0196883Y0312518D01*
X0196883Y0311112D02*
X0195117Y0311112D01*
X0195117Y0311472D02*
X0196883Y0311472D01*
X0196883Y0311832D02*
X0195117Y0311832D01*
X0195117Y0312192D02*
X0196883Y0312192D01*
X0196883Y0308581D02*
X0196883Y0306815D01*
X0195117Y0306815D01*
X0195117Y0308581D01*
X0196883Y0308581D01*
X0196883Y0307175D02*
X0195117Y0307175D01*
X0195117Y0307535D02*
X0196883Y0307535D01*
X0196883Y0307895D02*
X0195117Y0307895D01*
X0195117Y0308255D02*
X0196883Y0308255D01*
X0220383Y0291518D02*
X0220383Y0289752D01*
X0218617Y0289752D01*
X0218617Y0291518D01*
X0220383Y0291518D01*
X0220383Y0290112D02*
X0218617Y0290112D01*
X0218617Y0290472D02*
X0220383Y0290472D01*
X0220383Y0290832D02*
X0218617Y0290832D01*
X0218617Y0291192D02*
X0220383Y0291192D01*
X0220383Y0287581D02*
X0220383Y0285815D01*
X0218617Y0285815D01*
X0218617Y0287581D01*
X0220383Y0287581D01*
X0220383Y0286175D02*
X0218617Y0286175D01*
X0218617Y0286535D02*
X0220383Y0286535D01*
X0220383Y0286895D02*
X0218617Y0286895D01*
X0218617Y0287255D02*
X0220383Y0287255D01*
X0220383Y0278518D02*
X0220383Y0276752D01*
X0218617Y0276752D01*
X0218617Y0278518D01*
X0220383Y0278518D01*
X0220383Y0277112D02*
X0218617Y0277112D01*
X0218617Y0277472D02*
X0220383Y0277472D01*
X0220383Y0277832D02*
X0218617Y0277832D01*
X0218617Y0278192D02*
X0220383Y0278192D01*
X0220383Y0274581D02*
X0220383Y0272815D01*
X0218617Y0272815D01*
X0218617Y0274581D01*
X0220383Y0274581D01*
X0220383Y0273175D02*
X0218617Y0273175D01*
X0218617Y0273535D02*
X0220383Y0273535D01*
X0220383Y0273895D02*
X0218617Y0273895D01*
X0218617Y0274255D02*
X0220383Y0274255D01*
X0196883Y0254518D02*
X0196883Y0252752D01*
X0195117Y0252752D01*
X0195117Y0254518D01*
X0196883Y0254518D01*
X0196883Y0253112D02*
X0195117Y0253112D01*
X0195117Y0253472D02*
X0196883Y0253472D01*
X0196883Y0253832D02*
X0195117Y0253832D01*
X0195117Y0254192D02*
X0196883Y0254192D01*
X0196883Y0250581D02*
X0196883Y0248815D01*
X0195117Y0248815D01*
X0195117Y0250581D01*
X0196883Y0250581D01*
X0196883Y0249175D02*
X0195117Y0249175D01*
X0195117Y0249535D02*
X0196883Y0249535D01*
X0196883Y0249895D02*
X0195117Y0249895D01*
X0195117Y0250255D02*
X0196883Y0250255D01*
X0190117Y0250581D02*
X0190117Y0248815D01*
X0190117Y0250581D02*
X0191883Y0250581D01*
X0191883Y0248815D01*
X0190117Y0248815D01*
X0190117Y0249175D02*
X0191883Y0249175D01*
X0191883Y0249535D02*
X0190117Y0249535D01*
X0190117Y0249895D02*
X0191883Y0249895D01*
X0191883Y0250255D02*
X0190117Y0250255D01*
X0190117Y0252752D02*
X0190117Y0254518D01*
X0191883Y0254518D01*
X0191883Y0252752D01*
X0190117Y0252752D01*
X0190117Y0253112D02*
X0191883Y0253112D01*
X0191883Y0253472D02*
X0190117Y0253472D01*
X0190117Y0253832D02*
X0191883Y0253832D01*
X0191883Y0254192D02*
X0190117Y0254192D01*
X0185117Y0254518D02*
X0185117Y0252752D01*
X0185117Y0254518D02*
X0186883Y0254518D01*
X0186883Y0252752D01*
X0185117Y0252752D01*
X0185117Y0253112D02*
X0186883Y0253112D01*
X0186883Y0253472D02*
X0185117Y0253472D01*
X0185117Y0253832D02*
X0186883Y0253832D01*
X0186883Y0254192D02*
X0185117Y0254192D01*
X0185117Y0250581D02*
X0185117Y0248815D01*
X0185117Y0250581D02*
X0186883Y0250581D01*
X0186883Y0248815D01*
X0185117Y0248815D01*
X0185117Y0249175D02*
X0186883Y0249175D01*
X0186883Y0249535D02*
X0185117Y0249535D01*
X0185117Y0249895D02*
X0186883Y0249895D01*
X0186883Y0250255D02*
X0185117Y0250255D01*
X0165352Y0231784D02*
X0163586Y0231784D01*
X0163586Y0233550D01*
X0165352Y0233550D01*
X0165352Y0231784D01*
X0165352Y0232144D02*
X0163586Y0232144D01*
X0163586Y0232504D02*
X0165352Y0232504D01*
X0165352Y0232864D02*
X0163586Y0232864D01*
X0163586Y0233224D02*
X0165352Y0233224D01*
X0161414Y0231784D02*
X0159648Y0231784D01*
X0159648Y0233550D01*
X0161414Y0233550D01*
X0161414Y0231784D01*
X0161414Y0232144D02*
X0159648Y0232144D01*
X0159648Y0232504D02*
X0161414Y0232504D01*
X0161414Y0232864D02*
X0159648Y0232864D01*
X0159648Y0233224D02*
X0161414Y0233224D01*
X0161414Y0228550D02*
X0159648Y0228550D01*
X0161414Y0228550D02*
X0161414Y0226784D01*
X0159648Y0226784D01*
X0159648Y0228550D01*
X0159648Y0227144D02*
X0161414Y0227144D01*
X0161414Y0227504D02*
X0159648Y0227504D01*
X0159648Y0227864D02*
X0161414Y0227864D01*
X0161414Y0228224D02*
X0159648Y0228224D01*
X0163586Y0228550D02*
X0165352Y0228550D01*
X0165352Y0226784D01*
X0163586Y0226784D01*
X0163586Y0228550D01*
X0163586Y0227144D02*
X0165352Y0227144D01*
X0165352Y0227504D02*
X0163586Y0227504D01*
X0163586Y0227864D02*
X0165352Y0227864D01*
X0165352Y0228224D02*
X0163586Y0228224D01*
X0163586Y0223550D02*
X0165352Y0223550D01*
X0165352Y0221784D01*
X0163586Y0221784D01*
X0163586Y0223550D01*
X0163586Y0222144D02*
X0165352Y0222144D01*
X0165352Y0222504D02*
X0163586Y0222504D01*
X0163586Y0222864D02*
X0165352Y0222864D01*
X0165352Y0223224D02*
X0163586Y0223224D01*
X0161414Y0223550D02*
X0159648Y0223550D01*
X0161414Y0223550D02*
X0161414Y0221784D01*
X0159648Y0221784D01*
X0159648Y0223550D01*
X0159648Y0222144D02*
X0161414Y0222144D01*
X0161414Y0222504D02*
X0159648Y0222504D01*
X0159648Y0222864D02*
X0161414Y0222864D01*
X0161414Y0223224D02*
X0159648Y0223224D01*
X0213578Y0223050D02*
X0213578Y0221284D01*
X0213578Y0223050D02*
X0221642Y0223050D01*
X0221642Y0221284D01*
X0213578Y0221284D01*
X0213578Y0221644D02*
X0221642Y0221644D01*
X0221642Y0222004D02*
X0213578Y0222004D01*
X0213578Y0222364D02*
X0221642Y0222364D01*
X0221642Y0222724D02*
X0213578Y0222724D01*
X0213578Y0226284D02*
X0213578Y0228050D01*
X0221642Y0228050D01*
X0221642Y0226284D01*
X0213578Y0226284D01*
X0213578Y0226644D02*
X0221642Y0226644D01*
X0221642Y0227004D02*
X0213578Y0227004D01*
X0213578Y0227364D02*
X0221642Y0227364D01*
X0221642Y0227724D02*
X0213578Y0227724D01*
X0213578Y0231284D02*
X0213578Y0233050D01*
X0221642Y0233050D01*
X0221642Y0231284D01*
X0213578Y0231284D01*
X0213578Y0231644D02*
X0221642Y0231644D01*
X0221642Y0232004D02*
X0213578Y0232004D01*
X0213578Y0232364D02*
X0221642Y0232364D01*
X0221642Y0232724D02*
X0213578Y0232724D01*
X0213578Y0236284D02*
X0213578Y0238050D01*
X0221642Y0238050D01*
X0221642Y0236284D01*
X0213578Y0236284D01*
X0213578Y0236644D02*
X0221642Y0236644D01*
X0221642Y0237004D02*
X0213578Y0237004D01*
X0213578Y0237364D02*
X0221642Y0237364D01*
X0221642Y0237724D02*
X0213578Y0237724D01*
X0213578Y0241284D02*
X0213578Y0243050D01*
X0221642Y0243050D01*
X0221642Y0241284D01*
X0213578Y0241284D01*
X0213578Y0241644D02*
X0221642Y0241644D01*
X0221642Y0242004D02*
X0213578Y0242004D01*
X0213578Y0242364D02*
X0221642Y0242364D01*
X0221642Y0242724D02*
X0213578Y0242724D01*
X0229617Y0242018D02*
X0229617Y0240252D01*
X0229617Y0242018D02*
X0231383Y0242018D01*
X0231383Y0240252D01*
X0229617Y0240252D01*
X0229617Y0240612D02*
X0231383Y0240612D01*
X0231383Y0240972D02*
X0229617Y0240972D01*
X0229617Y0241332D02*
X0231383Y0241332D01*
X0231383Y0241692D02*
X0229617Y0241692D01*
X0229617Y0238081D02*
X0229617Y0236315D01*
X0229617Y0238081D02*
X0231383Y0238081D01*
X0231383Y0236315D01*
X0229617Y0236315D01*
X0229617Y0236675D02*
X0231383Y0236675D01*
X0231383Y0237035D02*
X0229617Y0237035D01*
X0229617Y0237395D02*
X0231383Y0237395D01*
X0231383Y0237755D02*
X0229617Y0237755D01*
X0231383Y0227018D02*
X0231383Y0225252D01*
X0229617Y0225252D01*
X0229617Y0227018D01*
X0231383Y0227018D01*
X0231383Y0225612D02*
X0229617Y0225612D01*
X0229617Y0225972D02*
X0231383Y0225972D01*
X0231383Y0226332D02*
X0229617Y0226332D01*
X0229617Y0226692D02*
X0231383Y0226692D01*
X0231383Y0223081D02*
X0231383Y0221315D01*
X0229617Y0221315D01*
X0229617Y0223081D01*
X0231383Y0223081D01*
X0231383Y0221675D02*
X0229617Y0221675D01*
X0229617Y0222035D02*
X0231383Y0222035D01*
X0231383Y0222395D02*
X0229617Y0222395D01*
X0229617Y0222755D02*
X0231383Y0222755D01*
X0213578Y0218050D02*
X0213578Y0216284D01*
X0213578Y0218050D02*
X0221642Y0218050D01*
X0221642Y0216284D01*
X0213578Y0216284D01*
X0213578Y0216644D02*
X0221642Y0216644D01*
X0221642Y0217004D02*
X0213578Y0217004D01*
X0213578Y0217364D02*
X0221642Y0217364D01*
X0221642Y0217724D02*
X0213578Y0217724D01*
X0213578Y0213050D02*
X0213578Y0211284D01*
X0213578Y0213050D02*
X0221642Y0213050D01*
X0221642Y0211284D01*
X0213578Y0211284D01*
X0213578Y0211644D02*
X0221642Y0211644D01*
X0221642Y0212004D02*
X0213578Y0212004D01*
X0213578Y0212364D02*
X0221642Y0212364D01*
X0221642Y0212724D02*
X0213578Y0212724D01*
X0213578Y0208050D02*
X0213578Y0206284D01*
X0213578Y0208050D02*
X0221642Y0208050D01*
X0221642Y0206284D01*
X0213578Y0206284D01*
X0213578Y0206644D02*
X0221642Y0206644D01*
X0221642Y0207004D02*
X0213578Y0207004D01*
X0213578Y0207364D02*
X0221642Y0207364D01*
X0221642Y0207724D02*
X0213578Y0207724D01*
X0221642Y0199050D02*
X0221642Y0197284D01*
X0213578Y0197284D01*
X0213578Y0199050D01*
X0221642Y0199050D01*
X0221642Y0197644D02*
X0213578Y0197644D01*
X0213578Y0198004D02*
X0221642Y0198004D01*
X0221642Y0198364D02*
X0213578Y0198364D01*
X0213578Y0198724D02*
X0221642Y0198724D01*
X0221642Y0194050D02*
X0221642Y0192284D01*
X0213578Y0192284D01*
X0213578Y0194050D01*
X0221642Y0194050D01*
X0221642Y0192644D02*
X0213578Y0192644D01*
X0213578Y0193004D02*
X0221642Y0193004D01*
X0221642Y0193364D02*
X0213578Y0193364D01*
X0213578Y0193724D02*
X0221642Y0193724D01*
X0221642Y0189050D02*
X0221642Y0187284D01*
X0213578Y0187284D01*
X0213578Y0189050D01*
X0221642Y0189050D01*
X0221642Y0187644D02*
X0213578Y0187644D01*
X0213578Y0188004D02*
X0221642Y0188004D01*
X0221642Y0188364D02*
X0213578Y0188364D01*
X0213578Y0188724D02*
X0221642Y0188724D01*
X0221642Y0184050D02*
X0221642Y0182284D01*
X0213578Y0182284D01*
X0213578Y0184050D01*
X0221642Y0184050D01*
X0221642Y0182644D02*
X0213578Y0182644D01*
X0213578Y0183004D02*
X0221642Y0183004D01*
X0221642Y0183364D02*
X0213578Y0183364D01*
X0213578Y0183724D02*
X0221642Y0183724D01*
X0221642Y0179050D02*
X0221642Y0177284D01*
X0213578Y0177284D01*
X0213578Y0179050D01*
X0221642Y0179050D01*
X0221642Y0177644D02*
X0213578Y0177644D01*
X0213578Y0178004D02*
X0221642Y0178004D01*
X0221642Y0178364D02*
X0213578Y0178364D01*
X0213578Y0178724D02*
X0221642Y0178724D01*
X0221642Y0174050D02*
X0221642Y0172284D01*
X0213578Y0172284D01*
X0213578Y0174050D01*
X0221642Y0174050D01*
X0221642Y0172644D02*
X0213578Y0172644D01*
X0213578Y0173004D02*
X0221642Y0173004D01*
X0221642Y0173364D02*
X0213578Y0173364D01*
X0213578Y0173724D02*
X0221642Y0173724D01*
X0221642Y0169050D02*
X0221642Y0167284D01*
X0213578Y0167284D01*
X0213578Y0169050D01*
X0221642Y0169050D01*
X0221642Y0167644D02*
X0213578Y0167644D01*
X0213578Y0168004D02*
X0221642Y0168004D01*
X0221642Y0168364D02*
X0213578Y0168364D01*
X0213578Y0168724D02*
X0221642Y0168724D01*
X0221642Y0164050D02*
X0221642Y0162284D01*
X0213578Y0162284D01*
X0213578Y0164050D01*
X0221642Y0164050D01*
X0221642Y0162644D02*
X0213578Y0162644D01*
X0213578Y0163004D02*
X0221642Y0163004D01*
X0221642Y0163364D02*
X0213578Y0163364D01*
X0213578Y0163724D02*
X0221642Y0163724D01*
X0281883Y0193815D02*
X0281883Y0195581D01*
X0281883Y0193815D02*
X0280117Y0193815D01*
X0280117Y0195581D01*
X0281883Y0195581D01*
X0281883Y0194175D02*
X0280117Y0194175D01*
X0280117Y0194535D02*
X0281883Y0194535D01*
X0281883Y0194895D02*
X0280117Y0194895D01*
X0280117Y0195255D02*
X0281883Y0195255D01*
X0281883Y0197752D02*
X0281883Y0199518D01*
X0281883Y0197752D02*
X0280117Y0197752D01*
X0280117Y0199518D01*
X0281883Y0199518D01*
X0281883Y0198112D02*
X0280117Y0198112D01*
X0280117Y0198472D02*
X0281883Y0198472D01*
X0281883Y0198832D02*
X0280117Y0198832D01*
X0280117Y0199192D02*
X0281883Y0199192D01*
X0286883Y0199518D02*
X0286883Y0197752D01*
X0285117Y0197752D01*
X0285117Y0199518D01*
X0286883Y0199518D01*
X0286883Y0198112D02*
X0285117Y0198112D01*
X0285117Y0198472D02*
X0286883Y0198472D01*
X0286883Y0198832D02*
X0285117Y0198832D01*
X0285117Y0199192D02*
X0286883Y0199192D01*
X0286883Y0195581D02*
X0286883Y0193815D01*
X0285117Y0193815D01*
X0285117Y0195581D01*
X0286883Y0195581D01*
X0286883Y0194175D02*
X0285117Y0194175D01*
X0285117Y0194535D02*
X0286883Y0194535D01*
X0286883Y0194895D02*
X0285117Y0194895D01*
X0285117Y0195255D02*
X0286883Y0195255D01*
X0311617Y0200815D02*
X0311617Y0202581D01*
X0313383Y0202581D01*
X0313383Y0200815D01*
X0311617Y0200815D01*
X0311617Y0201175D02*
X0313383Y0201175D01*
X0313383Y0201535D02*
X0311617Y0201535D01*
X0311617Y0201895D02*
X0313383Y0201895D01*
X0313383Y0202255D02*
X0311617Y0202255D01*
X0311617Y0204752D02*
X0311617Y0206518D01*
X0313383Y0206518D01*
X0313383Y0204752D01*
X0311617Y0204752D01*
X0311617Y0205112D02*
X0313383Y0205112D01*
X0313383Y0205472D02*
X0311617Y0205472D01*
X0311617Y0205832D02*
X0313383Y0205832D01*
X0313383Y0206192D02*
X0311617Y0206192D01*
X0316617Y0206518D02*
X0316617Y0204752D01*
X0316617Y0206518D02*
X0318383Y0206518D01*
X0318383Y0204752D01*
X0316617Y0204752D01*
X0316617Y0205112D02*
X0318383Y0205112D01*
X0318383Y0205472D02*
X0316617Y0205472D01*
X0316617Y0205832D02*
X0318383Y0205832D01*
X0318383Y0206192D02*
X0316617Y0206192D01*
X0316617Y0202581D02*
X0316617Y0200815D01*
X0316617Y0202581D02*
X0318383Y0202581D01*
X0318383Y0200815D01*
X0316617Y0200815D01*
X0316617Y0201175D02*
X0318383Y0201175D01*
X0318383Y0201535D02*
X0316617Y0201535D01*
X0316617Y0201895D02*
X0318383Y0201895D01*
X0318383Y0202255D02*
X0316617Y0202255D01*
X0337648Y0189550D02*
X0339414Y0189550D01*
X0339414Y0187784D01*
X0337648Y0187784D01*
X0337648Y0189550D01*
X0337648Y0188144D02*
X0339414Y0188144D01*
X0339414Y0188504D02*
X0337648Y0188504D01*
X0337648Y0188864D02*
X0339414Y0188864D01*
X0339414Y0189224D02*
X0337648Y0189224D01*
X0341586Y0189550D02*
X0343352Y0189550D01*
X0343352Y0187784D01*
X0341586Y0187784D01*
X0341586Y0189550D01*
X0341586Y0188144D02*
X0343352Y0188144D01*
X0343352Y0188504D02*
X0341586Y0188504D01*
X0341586Y0188864D02*
X0343352Y0188864D01*
X0343352Y0189224D02*
X0341586Y0189224D01*
X0342617Y0193815D02*
X0342617Y0195581D01*
X0344383Y0195581D01*
X0344383Y0193815D01*
X0342617Y0193815D01*
X0342617Y0194175D02*
X0344383Y0194175D01*
X0344383Y0194535D02*
X0342617Y0194535D01*
X0342617Y0194895D02*
X0344383Y0194895D01*
X0344383Y0195255D02*
X0342617Y0195255D01*
X0342617Y0197752D02*
X0342617Y0199518D01*
X0344383Y0199518D01*
X0344383Y0197752D01*
X0342617Y0197752D01*
X0342617Y0198112D02*
X0344383Y0198112D01*
X0344383Y0198472D02*
X0342617Y0198472D01*
X0342617Y0198832D02*
X0344383Y0198832D01*
X0344383Y0199192D02*
X0342617Y0199192D01*
X0343352Y0179550D02*
X0341586Y0179550D01*
X0343352Y0179550D02*
X0343352Y0177784D01*
X0341586Y0177784D01*
X0341586Y0179550D01*
X0341586Y0178144D02*
X0343352Y0178144D01*
X0343352Y0178504D02*
X0341586Y0178504D01*
X0341586Y0178864D02*
X0343352Y0178864D01*
X0343352Y0179224D02*
X0341586Y0179224D01*
X0339414Y0179550D02*
X0337648Y0179550D01*
X0339414Y0179550D02*
X0339414Y0177784D01*
X0337648Y0177784D01*
X0337648Y0179550D01*
X0337648Y0178144D02*
X0339414Y0178144D01*
X0339414Y0178504D02*
X0337648Y0178504D01*
X0337648Y0178864D02*
X0339414Y0178864D01*
X0339414Y0179224D02*
X0337648Y0179224D01*
X0337648Y0169550D02*
X0339414Y0169550D01*
X0339414Y0167784D01*
X0337648Y0167784D01*
X0337648Y0169550D01*
X0337648Y0168144D02*
X0339414Y0168144D01*
X0339414Y0168504D02*
X0337648Y0168504D01*
X0337648Y0168864D02*
X0339414Y0168864D01*
X0339414Y0169224D02*
X0337648Y0169224D01*
X0341586Y0169550D02*
X0343352Y0169550D01*
X0343352Y0167784D01*
X0341586Y0167784D01*
X0341586Y0169550D01*
X0341586Y0168144D02*
X0343352Y0168144D01*
X0343352Y0168504D02*
X0341586Y0168504D01*
X0341586Y0168864D02*
X0343352Y0168864D01*
X0343352Y0169224D02*
X0341586Y0169224D01*
X0366648Y0212550D02*
X0368414Y0212550D01*
X0368414Y0210784D01*
X0366648Y0210784D01*
X0366648Y0212550D01*
X0366648Y0211144D02*
X0368414Y0211144D01*
X0368414Y0211504D02*
X0366648Y0211504D01*
X0366648Y0211864D02*
X0368414Y0211864D01*
X0368414Y0212224D02*
X0366648Y0212224D01*
X0370586Y0212550D02*
X0372352Y0212550D01*
X0372352Y0210784D01*
X0370586Y0210784D01*
X0370586Y0212550D01*
X0370586Y0211144D02*
X0372352Y0211144D01*
X0372352Y0211504D02*
X0370586Y0211504D01*
X0370586Y0211864D02*
X0372352Y0211864D01*
X0372352Y0212224D02*
X0370586Y0212224D01*
X0370586Y0222550D02*
X0372352Y0222550D01*
X0372352Y0220784D01*
X0370586Y0220784D01*
X0370586Y0222550D01*
X0370586Y0221144D02*
X0372352Y0221144D01*
X0372352Y0221504D02*
X0370586Y0221504D01*
X0370586Y0221864D02*
X0372352Y0221864D01*
X0372352Y0222224D02*
X0370586Y0222224D01*
X0368414Y0222550D02*
X0366648Y0222550D01*
X0368414Y0222550D02*
X0368414Y0220784D01*
X0366648Y0220784D01*
X0366648Y0222550D01*
X0366648Y0221144D02*
X0368414Y0221144D01*
X0368414Y0221504D02*
X0366648Y0221504D01*
X0366648Y0221864D02*
X0368414Y0221864D01*
X0368414Y0222224D02*
X0366648Y0222224D01*
X0366648Y0232550D02*
X0368414Y0232550D01*
X0368414Y0230784D01*
X0366648Y0230784D01*
X0366648Y0232550D01*
X0366648Y0231144D02*
X0368414Y0231144D01*
X0368414Y0231504D02*
X0366648Y0231504D01*
X0366648Y0231864D02*
X0368414Y0231864D01*
X0368414Y0232224D02*
X0366648Y0232224D01*
X0370586Y0232550D02*
X0372352Y0232550D01*
X0372352Y0230784D01*
X0370586Y0230784D01*
X0370586Y0232550D01*
X0370586Y0231144D02*
X0372352Y0231144D01*
X0372352Y0231504D02*
X0370586Y0231504D01*
X0370586Y0231864D02*
X0372352Y0231864D01*
X0372352Y0232224D02*
X0370586Y0232224D01*
X0370586Y0243550D02*
X0372352Y0243550D01*
X0372352Y0241784D01*
X0370586Y0241784D01*
X0370586Y0243550D01*
X0370586Y0242144D02*
X0372352Y0242144D01*
X0372352Y0242504D02*
X0370586Y0242504D01*
X0370586Y0242864D02*
X0372352Y0242864D01*
X0372352Y0243224D02*
X0370586Y0243224D01*
X0368414Y0243550D02*
X0366648Y0243550D01*
X0368414Y0243550D02*
X0368414Y0241784D01*
X0366648Y0241784D01*
X0366648Y0243550D01*
X0366648Y0242144D02*
X0368414Y0242144D01*
X0368414Y0242504D02*
X0366648Y0242504D01*
X0366648Y0242864D02*
X0368414Y0242864D01*
X0368414Y0243224D02*
X0366648Y0243224D01*
X0306383Y0272815D02*
X0306383Y0274581D01*
X0306383Y0272815D02*
X0304617Y0272815D01*
X0304617Y0274581D01*
X0306383Y0274581D01*
X0306383Y0273175D02*
X0304617Y0273175D01*
X0304617Y0273535D02*
X0306383Y0273535D01*
X0306383Y0273895D02*
X0304617Y0273895D01*
X0304617Y0274255D02*
X0306383Y0274255D01*
X0306383Y0276752D02*
X0306383Y0278518D01*
X0306383Y0276752D02*
X0304617Y0276752D01*
X0304617Y0278518D01*
X0306383Y0278518D01*
X0306383Y0277112D02*
X0304617Y0277112D01*
X0304617Y0277472D02*
X0306383Y0277472D01*
X0306383Y0277832D02*
X0304617Y0277832D01*
X0304617Y0278192D02*
X0306383Y0278192D01*
X0301383Y0278518D02*
X0301383Y0276752D01*
X0299617Y0276752D01*
X0299617Y0278518D01*
X0301383Y0278518D01*
X0301383Y0277112D02*
X0299617Y0277112D01*
X0299617Y0277472D02*
X0301383Y0277472D01*
X0301383Y0277832D02*
X0299617Y0277832D01*
X0299617Y0278192D02*
X0301383Y0278192D01*
X0301383Y0274581D02*
X0301383Y0272815D01*
X0299617Y0272815D01*
X0299617Y0274581D01*
X0301383Y0274581D01*
X0301383Y0273175D02*
X0299617Y0273175D01*
X0299617Y0273535D02*
X0301383Y0273535D01*
X0301383Y0273895D02*
X0299617Y0273895D01*
X0299617Y0274255D02*
X0301383Y0274255D01*
X0296383Y0274581D02*
X0296383Y0272815D01*
X0294617Y0272815D01*
X0294617Y0274581D01*
X0296383Y0274581D01*
X0296383Y0273175D02*
X0294617Y0273175D01*
X0294617Y0273535D02*
X0296383Y0273535D01*
X0296383Y0273895D02*
X0294617Y0273895D01*
X0294617Y0274255D02*
X0296383Y0274255D01*
X0296383Y0276752D02*
X0296383Y0278518D01*
X0296383Y0276752D02*
X0294617Y0276752D01*
X0294617Y0278518D01*
X0296383Y0278518D01*
X0296383Y0277112D02*
X0294617Y0277112D01*
X0294617Y0277472D02*
X0296383Y0277472D01*
X0296383Y0277832D02*
X0294617Y0277832D01*
X0294617Y0278192D02*
X0296383Y0278192D01*
X0260383Y0252018D02*
X0260383Y0250252D01*
X0258617Y0250252D01*
X0258617Y0252018D01*
X0260383Y0252018D01*
X0260383Y0250612D02*
X0258617Y0250612D01*
X0258617Y0250972D02*
X0260383Y0250972D01*
X0260383Y0251332D02*
X0258617Y0251332D01*
X0258617Y0251692D02*
X0260383Y0251692D01*
X0260383Y0248081D02*
X0260383Y0246315D01*
X0258617Y0246315D01*
X0258617Y0248081D01*
X0260383Y0248081D01*
X0260383Y0246675D02*
X0258617Y0246675D01*
X0258617Y0247035D02*
X0260383Y0247035D01*
X0260383Y0247395D02*
X0258617Y0247395D01*
X0258617Y0247755D02*
X0260383Y0247755D01*
X0258617Y0234518D02*
X0258617Y0232752D01*
X0258617Y0234518D02*
X0260383Y0234518D01*
X0260383Y0232752D01*
X0258617Y0232752D01*
X0258617Y0233112D02*
X0260383Y0233112D01*
X0260383Y0233472D02*
X0258617Y0233472D01*
X0258617Y0233832D02*
X0260383Y0233832D01*
X0260383Y0234192D02*
X0258617Y0234192D01*
X0258617Y0230581D02*
X0258617Y0228815D01*
X0258617Y0230581D02*
X0260383Y0230581D01*
X0260383Y0228815D01*
X0258617Y0228815D01*
X0258617Y0229175D02*
X0260383Y0229175D01*
X0260383Y0229535D02*
X0258617Y0229535D01*
X0258617Y0229895D02*
X0260383Y0229895D01*
X0260383Y0230255D02*
X0258617Y0230255D01*
X0345383Y0295815D02*
X0345383Y0297581D01*
X0345383Y0295815D02*
X0343617Y0295815D01*
X0343617Y0297581D01*
X0345383Y0297581D01*
X0345383Y0296175D02*
X0343617Y0296175D01*
X0343617Y0296535D02*
X0345383Y0296535D01*
X0345383Y0296895D02*
X0343617Y0296895D01*
X0343617Y0297255D02*
X0345383Y0297255D01*
X0345383Y0299752D02*
X0345383Y0301518D01*
X0345383Y0299752D02*
X0343617Y0299752D01*
X0343617Y0301518D01*
X0345383Y0301518D01*
X0345383Y0300112D02*
X0343617Y0300112D01*
X0343617Y0300472D02*
X0345383Y0300472D01*
X0345383Y0300832D02*
X0343617Y0300832D01*
X0343617Y0301192D02*
X0345383Y0301192D01*
D11*
X0345303Y0247206D02*
X0345303Y0245608D01*
X0345303Y0247206D02*
X0349461Y0247206D01*
X0349461Y0245608D01*
X0345303Y0245608D01*
X0345303Y0245958D02*
X0349461Y0245958D01*
X0349461Y0246308D02*
X0345303Y0246308D01*
X0345303Y0246658D02*
X0349461Y0246658D01*
X0349461Y0247008D02*
X0345303Y0247008D01*
X0345303Y0243466D02*
X0345303Y0241868D01*
X0345303Y0243466D02*
X0349461Y0243466D01*
X0349461Y0241868D01*
X0345303Y0241868D01*
X0345303Y0242218D02*
X0349461Y0242218D01*
X0349461Y0242568D02*
X0345303Y0242568D01*
X0345303Y0242918D02*
X0349461Y0242918D01*
X0349461Y0243268D02*
X0345303Y0243268D01*
X0345303Y0239726D02*
X0345303Y0238128D01*
X0345303Y0239726D02*
X0349461Y0239726D01*
X0349461Y0238128D01*
X0345303Y0238128D01*
X0345303Y0238478D02*
X0349461Y0238478D01*
X0349461Y0238828D02*
X0345303Y0238828D01*
X0345303Y0239178D02*
X0349461Y0239178D01*
X0349461Y0239528D02*
X0345303Y0239528D01*
X0355539Y0239726D02*
X0355539Y0238128D01*
X0355539Y0239726D02*
X0359697Y0239726D01*
X0359697Y0238128D01*
X0355539Y0238128D01*
X0355539Y0238478D02*
X0359697Y0238478D01*
X0359697Y0238828D02*
X0355539Y0238828D01*
X0355539Y0239178D02*
X0359697Y0239178D01*
X0359697Y0239528D02*
X0355539Y0239528D01*
X0355539Y0241868D02*
X0355539Y0243466D01*
X0359697Y0243466D01*
X0359697Y0241868D01*
X0355539Y0241868D01*
X0355539Y0242218D02*
X0359697Y0242218D01*
X0359697Y0242568D02*
X0355539Y0242568D01*
X0355539Y0242918D02*
X0359697Y0242918D01*
X0359697Y0243268D02*
X0355539Y0243268D01*
X0355539Y0245608D02*
X0355539Y0247206D01*
X0359697Y0247206D01*
X0359697Y0245608D01*
X0355539Y0245608D01*
X0355539Y0245958D02*
X0359697Y0245958D01*
X0359697Y0246308D02*
X0355539Y0246308D01*
X0355539Y0246658D02*
X0359697Y0246658D01*
X0359697Y0247008D02*
X0355539Y0247008D01*
X0355539Y0228206D02*
X0355539Y0226608D01*
X0355539Y0228206D02*
X0359697Y0228206D01*
X0359697Y0226608D01*
X0355539Y0226608D01*
X0355539Y0226958D02*
X0359697Y0226958D01*
X0359697Y0227308D02*
X0355539Y0227308D01*
X0355539Y0227658D02*
X0359697Y0227658D01*
X0359697Y0228008D02*
X0355539Y0228008D01*
X0355539Y0224466D02*
X0355539Y0222868D01*
X0355539Y0224466D02*
X0359697Y0224466D01*
X0359697Y0222868D01*
X0355539Y0222868D01*
X0355539Y0223218D02*
X0359697Y0223218D01*
X0359697Y0223568D02*
X0355539Y0223568D01*
X0355539Y0223918D02*
X0359697Y0223918D01*
X0359697Y0224268D02*
X0355539Y0224268D01*
X0355539Y0220726D02*
X0355539Y0219128D01*
X0355539Y0220726D02*
X0359697Y0220726D01*
X0359697Y0219128D01*
X0355539Y0219128D01*
X0355539Y0219478D02*
X0359697Y0219478D01*
X0359697Y0219828D02*
X0355539Y0219828D01*
X0355539Y0220178D02*
X0359697Y0220178D01*
X0359697Y0220528D02*
X0355539Y0220528D01*
X0345303Y0220726D02*
X0345303Y0219128D01*
X0345303Y0220726D02*
X0349461Y0220726D01*
X0349461Y0219128D01*
X0345303Y0219128D01*
X0345303Y0219478D02*
X0349461Y0219478D01*
X0349461Y0219828D02*
X0345303Y0219828D01*
X0345303Y0220178D02*
X0349461Y0220178D01*
X0349461Y0220528D02*
X0345303Y0220528D01*
X0345303Y0222868D02*
X0345303Y0224466D01*
X0349461Y0224466D01*
X0349461Y0222868D01*
X0345303Y0222868D01*
X0345303Y0223218D02*
X0349461Y0223218D01*
X0349461Y0223568D02*
X0345303Y0223568D01*
X0345303Y0223918D02*
X0349461Y0223918D01*
X0349461Y0224268D02*
X0345303Y0224268D01*
X0345303Y0226608D02*
X0345303Y0228206D01*
X0349461Y0228206D01*
X0349461Y0226608D01*
X0345303Y0226608D01*
X0345303Y0226958D02*
X0349461Y0226958D01*
X0349461Y0227308D02*
X0345303Y0227308D01*
X0345303Y0227658D02*
X0349461Y0227658D01*
X0349461Y0228008D02*
X0345303Y0228008D01*
X0143039Y0297470D02*
X0141441Y0297470D01*
X0141441Y0301628D01*
X0143039Y0301628D01*
X0143039Y0297470D01*
X0143039Y0297820D02*
X0141441Y0297820D01*
X0141441Y0298170D02*
X0143039Y0298170D01*
X0143039Y0298520D02*
X0141441Y0298520D01*
X0141441Y0298870D02*
X0143039Y0298870D01*
X0143039Y0299220D02*
X0141441Y0299220D01*
X0141441Y0299570D02*
X0143039Y0299570D01*
X0143039Y0299920D02*
X0141441Y0299920D01*
X0141441Y0300270D02*
X0143039Y0300270D01*
X0143039Y0300620D02*
X0141441Y0300620D01*
X0141441Y0300970D02*
X0143039Y0300970D01*
X0143039Y0301320D02*
X0141441Y0301320D01*
X0139299Y0297470D02*
X0137701Y0297470D01*
X0137701Y0301628D01*
X0139299Y0301628D01*
X0139299Y0297470D01*
X0139299Y0297820D02*
X0137701Y0297820D01*
X0137701Y0298170D02*
X0139299Y0298170D01*
X0139299Y0298520D02*
X0137701Y0298520D01*
X0137701Y0298870D02*
X0139299Y0298870D01*
X0139299Y0299220D02*
X0137701Y0299220D01*
X0137701Y0299570D02*
X0139299Y0299570D01*
X0139299Y0299920D02*
X0137701Y0299920D01*
X0137701Y0300270D02*
X0139299Y0300270D01*
X0139299Y0300620D02*
X0137701Y0300620D01*
X0137701Y0300970D02*
X0139299Y0300970D01*
X0139299Y0301320D02*
X0137701Y0301320D01*
X0135559Y0297470D02*
X0133961Y0297470D01*
X0133961Y0301628D01*
X0135559Y0301628D01*
X0135559Y0297470D01*
X0135559Y0297820D02*
X0133961Y0297820D01*
X0133961Y0298170D02*
X0135559Y0298170D01*
X0135559Y0298520D02*
X0133961Y0298520D01*
X0133961Y0298870D02*
X0135559Y0298870D01*
X0135559Y0299220D02*
X0133961Y0299220D01*
X0133961Y0299570D02*
X0135559Y0299570D01*
X0135559Y0299920D02*
X0133961Y0299920D01*
X0133961Y0300270D02*
X0135559Y0300270D01*
X0135559Y0300620D02*
X0133961Y0300620D01*
X0133961Y0300970D02*
X0135559Y0300970D01*
X0135559Y0301320D02*
X0133961Y0301320D01*
X0133961Y0307706D02*
X0135559Y0307706D01*
X0133961Y0307706D02*
X0133961Y0311864D01*
X0135559Y0311864D01*
X0135559Y0307706D01*
X0135559Y0308056D02*
X0133961Y0308056D01*
X0133961Y0308406D02*
X0135559Y0308406D01*
X0135559Y0308756D02*
X0133961Y0308756D01*
X0133961Y0309106D02*
X0135559Y0309106D01*
X0135559Y0309456D02*
X0133961Y0309456D01*
X0133961Y0309806D02*
X0135559Y0309806D01*
X0135559Y0310156D02*
X0133961Y0310156D01*
X0133961Y0310506D02*
X0135559Y0310506D01*
X0135559Y0310856D02*
X0133961Y0310856D01*
X0133961Y0311206D02*
X0135559Y0311206D01*
X0135559Y0311556D02*
X0133961Y0311556D01*
X0137701Y0307706D02*
X0139299Y0307706D01*
X0137701Y0307706D02*
X0137701Y0311864D01*
X0139299Y0311864D01*
X0139299Y0307706D01*
X0139299Y0308056D02*
X0137701Y0308056D01*
X0137701Y0308406D02*
X0139299Y0308406D01*
X0139299Y0308756D02*
X0137701Y0308756D01*
X0137701Y0309106D02*
X0139299Y0309106D01*
X0139299Y0309456D02*
X0137701Y0309456D01*
X0137701Y0309806D02*
X0139299Y0309806D01*
X0139299Y0310156D02*
X0137701Y0310156D01*
X0137701Y0310506D02*
X0139299Y0310506D01*
X0139299Y0310856D02*
X0137701Y0310856D01*
X0137701Y0311206D02*
X0139299Y0311206D01*
X0139299Y0311556D02*
X0137701Y0311556D01*
X0141441Y0307706D02*
X0143039Y0307706D01*
X0141441Y0307706D02*
X0141441Y0311864D01*
X0143039Y0311864D01*
X0143039Y0307706D01*
X0143039Y0308056D02*
X0141441Y0308056D01*
X0141441Y0308406D02*
X0143039Y0308406D01*
X0143039Y0308756D02*
X0141441Y0308756D01*
X0141441Y0309106D02*
X0143039Y0309106D01*
X0143039Y0309456D02*
X0141441Y0309456D01*
X0141441Y0309806D02*
X0143039Y0309806D01*
X0143039Y0310156D02*
X0141441Y0310156D01*
X0141441Y0310506D02*
X0143039Y0310506D01*
X0143039Y0310856D02*
X0141441Y0310856D01*
X0141441Y0311206D02*
X0143039Y0311206D01*
X0143039Y0311556D02*
X0141441Y0311556D01*
D12*
X0180280Y0293947D02*
X0180280Y0282387D01*
X0168720Y0282387D01*
X0168720Y0293947D01*
X0180280Y0293947D01*
X0180280Y0286239D02*
X0168720Y0286239D01*
X0168720Y0290091D02*
X0180280Y0290091D01*
X0180280Y0293943D02*
X0168720Y0293943D01*
D13*
X0158097Y0293319D02*
X0158097Y0292857D01*
X0155469Y0292857D01*
X0155469Y0293319D01*
X0158097Y0293319D01*
X0158097Y0293178D02*
X0155469Y0293178D01*
X0158097Y0294825D02*
X0158097Y0295287D01*
X0158097Y0294825D02*
X0155469Y0294825D01*
X0155469Y0295287D01*
X0158097Y0295287D01*
X0158097Y0295146D02*
X0155469Y0295146D01*
X0158097Y0296794D02*
X0158097Y0297256D01*
X0158097Y0296794D02*
X0155469Y0296794D01*
X0155469Y0297256D01*
X0158097Y0297256D01*
X0158097Y0297115D02*
X0155469Y0297115D01*
X0158097Y0298762D02*
X0158097Y0299224D01*
X0158097Y0298762D02*
X0155469Y0298762D01*
X0155469Y0299224D01*
X0158097Y0299224D01*
X0158097Y0299083D02*
X0155469Y0299083D01*
X0158097Y0300731D02*
X0158097Y0301193D01*
X0158097Y0300731D02*
X0155469Y0300731D01*
X0155469Y0301193D01*
X0158097Y0301193D01*
X0158097Y0301052D02*
X0155469Y0301052D01*
X0158097Y0302699D02*
X0158097Y0303161D01*
X0158097Y0302699D02*
X0155469Y0302699D01*
X0155469Y0303161D01*
X0158097Y0303161D01*
X0158097Y0303020D02*
X0155469Y0303020D01*
X0159505Y0304569D02*
X0159967Y0304569D01*
X0159505Y0304569D02*
X0159505Y0307197D01*
X0159967Y0307197D01*
X0159967Y0304569D01*
X0159967Y0304890D02*
X0159505Y0304890D01*
X0159505Y0305211D02*
X0159967Y0305211D01*
X0159967Y0305532D02*
X0159505Y0305532D01*
X0159505Y0305853D02*
X0159967Y0305853D01*
X0159967Y0306174D02*
X0159505Y0306174D01*
X0159505Y0306495D02*
X0159967Y0306495D01*
X0159967Y0306816D02*
X0159505Y0306816D01*
X0159505Y0307137D02*
X0159967Y0307137D01*
X0161474Y0304569D02*
X0161936Y0304569D01*
X0161474Y0304569D02*
X0161474Y0307197D01*
X0161936Y0307197D01*
X0161936Y0304569D01*
X0161936Y0304890D02*
X0161474Y0304890D01*
X0161474Y0305211D02*
X0161936Y0305211D01*
X0161936Y0305532D02*
X0161474Y0305532D01*
X0161474Y0305853D02*
X0161936Y0305853D01*
X0161936Y0306174D02*
X0161474Y0306174D01*
X0161474Y0306495D02*
X0161936Y0306495D01*
X0161936Y0306816D02*
X0161474Y0306816D01*
X0161474Y0307137D02*
X0161936Y0307137D01*
X0163442Y0304569D02*
X0163904Y0304569D01*
X0163442Y0304569D02*
X0163442Y0307197D01*
X0163904Y0307197D01*
X0163904Y0304569D01*
X0163904Y0304890D02*
X0163442Y0304890D01*
X0163442Y0305211D02*
X0163904Y0305211D01*
X0163904Y0305532D02*
X0163442Y0305532D01*
X0163442Y0305853D02*
X0163904Y0305853D01*
X0163904Y0306174D02*
X0163442Y0306174D01*
X0163442Y0306495D02*
X0163904Y0306495D01*
X0163904Y0306816D02*
X0163442Y0306816D01*
X0163442Y0307137D02*
X0163904Y0307137D01*
X0165411Y0304569D02*
X0165873Y0304569D01*
X0165411Y0304569D02*
X0165411Y0307197D01*
X0165873Y0307197D01*
X0165873Y0304569D01*
X0165873Y0304890D02*
X0165411Y0304890D01*
X0165411Y0305211D02*
X0165873Y0305211D01*
X0165873Y0305532D02*
X0165411Y0305532D01*
X0165411Y0305853D02*
X0165873Y0305853D01*
X0165873Y0306174D02*
X0165411Y0306174D01*
X0165411Y0306495D02*
X0165873Y0306495D01*
X0165873Y0306816D02*
X0165411Y0306816D01*
X0165411Y0307137D02*
X0165873Y0307137D01*
X0167379Y0304569D02*
X0167841Y0304569D01*
X0167379Y0304569D02*
X0167379Y0307197D01*
X0167841Y0307197D01*
X0167841Y0304569D01*
X0167841Y0304890D02*
X0167379Y0304890D01*
X0167379Y0305211D02*
X0167841Y0305211D01*
X0167841Y0305532D02*
X0167379Y0305532D01*
X0167379Y0305853D02*
X0167841Y0305853D01*
X0167841Y0306174D02*
X0167379Y0306174D01*
X0167379Y0306495D02*
X0167841Y0306495D01*
X0167841Y0306816D02*
X0167379Y0306816D01*
X0167379Y0307137D02*
X0167841Y0307137D01*
X0169348Y0304569D02*
X0169810Y0304569D01*
X0169348Y0304569D02*
X0169348Y0307197D01*
X0169810Y0307197D01*
X0169810Y0304569D01*
X0169810Y0304890D02*
X0169348Y0304890D01*
X0169348Y0305211D02*
X0169810Y0305211D01*
X0169810Y0305532D02*
X0169348Y0305532D01*
X0169348Y0305853D02*
X0169810Y0305853D01*
X0169810Y0306174D02*
X0169348Y0306174D01*
X0169348Y0306495D02*
X0169810Y0306495D01*
X0169810Y0306816D02*
X0169348Y0306816D01*
X0169348Y0307137D02*
X0169810Y0307137D01*
X0171316Y0304569D02*
X0171778Y0304569D01*
X0171316Y0304569D02*
X0171316Y0307197D01*
X0171778Y0307197D01*
X0171778Y0304569D01*
X0171778Y0304890D02*
X0171316Y0304890D01*
X0171316Y0305211D02*
X0171778Y0305211D01*
X0171778Y0305532D02*
X0171316Y0305532D01*
X0171316Y0305853D02*
X0171778Y0305853D01*
X0171778Y0306174D02*
X0171316Y0306174D01*
X0171316Y0306495D02*
X0171778Y0306495D01*
X0171778Y0306816D02*
X0171316Y0306816D01*
X0171316Y0307137D02*
X0171778Y0307137D01*
X0173285Y0304569D02*
X0173747Y0304569D01*
X0173285Y0304569D02*
X0173285Y0307197D01*
X0173747Y0307197D01*
X0173747Y0304569D01*
X0173747Y0304890D02*
X0173285Y0304890D01*
X0173285Y0305211D02*
X0173747Y0305211D01*
X0173747Y0305532D02*
X0173285Y0305532D01*
X0173285Y0305853D02*
X0173747Y0305853D01*
X0173747Y0306174D02*
X0173285Y0306174D01*
X0173285Y0306495D02*
X0173747Y0306495D01*
X0173747Y0306816D02*
X0173285Y0306816D01*
X0173285Y0307137D02*
X0173747Y0307137D01*
X0175253Y0304569D02*
X0175715Y0304569D01*
X0175253Y0304569D02*
X0175253Y0307197D01*
X0175715Y0307197D01*
X0175715Y0304569D01*
X0175715Y0304890D02*
X0175253Y0304890D01*
X0175253Y0305211D02*
X0175715Y0305211D01*
X0175715Y0305532D02*
X0175253Y0305532D01*
X0175253Y0305853D02*
X0175715Y0305853D01*
X0175715Y0306174D02*
X0175253Y0306174D01*
X0175253Y0306495D02*
X0175715Y0306495D01*
X0175715Y0306816D02*
X0175253Y0306816D01*
X0175253Y0307137D02*
X0175715Y0307137D01*
X0177222Y0304569D02*
X0177684Y0304569D01*
X0177222Y0304569D02*
X0177222Y0307197D01*
X0177684Y0307197D01*
X0177684Y0304569D01*
X0177684Y0304890D02*
X0177222Y0304890D01*
X0177222Y0305211D02*
X0177684Y0305211D01*
X0177684Y0305532D02*
X0177222Y0305532D01*
X0177222Y0305853D02*
X0177684Y0305853D01*
X0177684Y0306174D02*
X0177222Y0306174D01*
X0177222Y0306495D02*
X0177684Y0306495D01*
X0177684Y0306816D02*
X0177222Y0306816D01*
X0177222Y0307137D02*
X0177684Y0307137D01*
X0179190Y0304569D02*
X0179652Y0304569D01*
X0179190Y0304569D02*
X0179190Y0307197D01*
X0179652Y0307197D01*
X0179652Y0304569D01*
X0179652Y0304890D02*
X0179190Y0304890D01*
X0179190Y0305211D02*
X0179652Y0305211D01*
X0179652Y0305532D02*
X0179190Y0305532D01*
X0179190Y0305853D02*
X0179652Y0305853D01*
X0179652Y0306174D02*
X0179190Y0306174D01*
X0179190Y0306495D02*
X0179652Y0306495D01*
X0179652Y0306816D02*
X0179190Y0306816D01*
X0179190Y0307137D02*
X0179652Y0307137D01*
X0181159Y0304569D02*
X0181621Y0304569D01*
X0181159Y0304569D02*
X0181159Y0307197D01*
X0181621Y0307197D01*
X0181621Y0304569D01*
X0181621Y0304890D02*
X0181159Y0304890D01*
X0181159Y0305211D02*
X0181621Y0305211D01*
X0181621Y0305532D02*
X0181159Y0305532D01*
X0181159Y0305853D02*
X0181621Y0305853D01*
X0181621Y0306174D02*
X0181159Y0306174D01*
X0181159Y0306495D02*
X0181621Y0306495D01*
X0181621Y0306816D02*
X0181159Y0306816D01*
X0181159Y0307137D02*
X0181621Y0307137D01*
X0183127Y0304569D02*
X0183589Y0304569D01*
X0183127Y0304569D02*
X0183127Y0307197D01*
X0183589Y0307197D01*
X0183589Y0304569D01*
X0183589Y0304890D02*
X0183127Y0304890D01*
X0183127Y0305211D02*
X0183589Y0305211D01*
X0183589Y0305532D02*
X0183127Y0305532D01*
X0183127Y0305853D02*
X0183589Y0305853D01*
X0183589Y0306174D02*
X0183127Y0306174D01*
X0183127Y0306495D02*
X0183589Y0306495D01*
X0183589Y0306816D02*
X0183127Y0306816D01*
X0183127Y0307137D02*
X0183589Y0307137D01*
X0185096Y0304569D02*
X0185558Y0304569D01*
X0185096Y0304569D02*
X0185096Y0307197D01*
X0185558Y0307197D01*
X0185558Y0304569D01*
X0185558Y0304890D02*
X0185096Y0304890D01*
X0185096Y0305211D02*
X0185558Y0305211D01*
X0185558Y0305532D02*
X0185096Y0305532D01*
X0185096Y0305853D02*
X0185558Y0305853D01*
X0185558Y0306174D02*
X0185096Y0306174D01*
X0185096Y0306495D02*
X0185558Y0306495D01*
X0185558Y0306816D02*
X0185096Y0306816D01*
X0185096Y0307137D02*
X0185558Y0307137D01*
X0187064Y0304569D02*
X0187526Y0304569D01*
X0187064Y0304569D02*
X0187064Y0307197D01*
X0187526Y0307197D01*
X0187526Y0304569D01*
X0187526Y0304890D02*
X0187064Y0304890D01*
X0187064Y0305211D02*
X0187526Y0305211D01*
X0187526Y0305532D02*
X0187064Y0305532D01*
X0187064Y0305853D02*
X0187526Y0305853D01*
X0187526Y0306174D02*
X0187064Y0306174D01*
X0187064Y0306495D02*
X0187526Y0306495D01*
X0187526Y0306816D02*
X0187064Y0306816D01*
X0187064Y0307137D02*
X0187526Y0307137D01*
X0189033Y0304569D02*
X0189495Y0304569D01*
X0189033Y0304569D02*
X0189033Y0307197D01*
X0189495Y0307197D01*
X0189495Y0304569D01*
X0189495Y0304890D02*
X0189033Y0304890D01*
X0189033Y0305211D02*
X0189495Y0305211D01*
X0189495Y0305532D02*
X0189033Y0305532D01*
X0189033Y0305853D02*
X0189495Y0305853D01*
X0189495Y0306174D02*
X0189033Y0306174D01*
X0189033Y0306495D02*
X0189495Y0306495D01*
X0189495Y0306816D02*
X0189033Y0306816D01*
X0189033Y0307137D02*
X0189495Y0307137D01*
X0190903Y0303161D02*
X0190903Y0302699D01*
X0190903Y0303161D02*
X0193531Y0303161D01*
X0193531Y0302699D01*
X0190903Y0302699D01*
X0190903Y0303020D02*
X0193531Y0303020D01*
X0190903Y0301193D02*
X0190903Y0300731D01*
X0190903Y0301193D02*
X0193531Y0301193D01*
X0193531Y0300731D01*
X0190903Y0300731D01*
X0190903Y0301052D02*
X0193531Y0301052D01*
X0190903Y0299224D02*
X0190903Y0298762D01*
X0190903Y0299224D02*
X0193531Y0299224D01*
X0193531Y0298762D01*
X0190903Y0298762D01*
X0190903Y0299083D02*
X0193531Y0299083D01*
X0190903Y0297256D02*
X0190903Y0296794D01*
X0190903Y0297256D02*
X0193531Y0297256D01*
X0193531Y0296794D01*
X0190903Y0296794D01*
X0190903Y0297115D02*
X0193531Y0297115D01*
X0190903Y0295287D02*
X0190903Y0294825D01*
X0190903Y0295287D02*
X0193531Y0295287D01*
X0193531Y0294825D01*
X0190903Y0294825D01*
X0190903Y0295146D02*
X0193531Y0295146D01*
X0190903Y0293319D02*
X0190903Y0292857D01*
X0190903Y0293319D02*
X0193531Y0293319D01*
X0193531Y0292857D01*
X0190903Y0292857D01*
X0190903Y0293178D02*
X0193531Y0293178D01*
X0190903Y0291350D02*
X0190903Y0290888D01*
X0190903Y0291350D02*
X0193531Y0291350D01*
X0193531Y0290888D01*
X0190903Y0290888D01*
X0190903Y0291209D02*
X0193531Y0291209D01*
X0190903Y0289382D02*
X0190903Y0288920D01*
X0190903Y0289382D02*
X0193531Y0289382D01*
X0193531Y0288920D01*
X0190903Y0288920D01*
X0190903Y0289241D02*
X0193531Y0289241D01*
X0190903Y0287413D02*
X0190903Y0286951D01*
X0190903Y0287413D02*
X0193531Y0287413D01*
X0193531Y0286951D01*
X0190903Y0286951D01*
X0190903Y0287272D02*
X0193531Y0287272D01*
X0190903Y0285445D02*
X0190903Y0284983D01*
X0190903Y0285445D02*
X0193531Y0285445D01*
X0193531Y0284983D01*
X0190903Y0284983D01*
X0190903Y0285304D02*
X0193531Y0285304D01*
X0190903Y0283476D02*
X0190903Y0283014D01*
X0190903Y0283476D02*
X0193531Y0283476D01*
X0193531Y0283014D01*
X0190903Y0283014D01*
X0190903Y0283335D02*
X0193531Y0283335D01*
X0190903Y0281508D02*
X0190903Y0281046D01*
X0190903Y0281508D02*
X0193531Y0281508D01*
X0193531Y0281046D01*
X0190903Y0281046D01*
X0190903Y0281367D02*
X0193531Y0281367D01*
X0190903Y0279539D02*
X0190903Y0279077D01*
X0190903Y0279539D02*
X0193531Y0279539D01*
X0193531Y0279077D01*
X0190903Y0279077D01*
X0190903Y0279398D02*
X0193531Y0279398D01*
X0190903Y0277571D02*
X0190903Y0277109D01*
X0190903Y0277571D02*
X0193531Y0277571D01*
X0193531Y0277109D01*
X0190903Y0277109D01*
X0190903Y0277430D02*
X0193531Y0277430D01*
X0190903Y0275602D02*
X0190903Y0275140D01*
X0190903Y0275602D02*
X0193531Y0275602D01*
X0193531Y0275140D01*
X0190903Y0275140D01*
X0190903Y0275461D02*
X0193531Y0275461D01*
X0190903Y0273634D02*
X0190903Y0273172D01*
X0190903Y0273634D02*
X0193531Y0273634D01*
X0193531Y0273172D01*
X0190903Y0273172D01*
X0190903Y0273493D02*
X0193531Y0273493D01*
X0189495Y0271764D02*
X0189033Y0271764D01*
X0189495Y0271764D02*
X0189495Y0269136D01*
X0189033Y0269136D01*
X0189033Y0271764D01*
X0189033Y0269457D02*
X0189495Y0269457D01*
X0189495Y0269778D02*
X0189033Y0269778D01*
X0189033Y0270099D02*
X0189495Y0270099D01*
X0189495Y0270420D02*
X0189033Y0270420D01*
X0189033Y0270741D02*
X0189495Y0270741D01*
X0189495Y0271062D02*
X0189033Y0271062D01*
X0189033Y0271383D02*
X0189495Y0271383D01*
X0189495Y0271704D02*
X0189033Y0271704D01*
X0187526Y0271764D02*
X0187064Y0271764D01*
X0187526Y0271764D02*
X0187526Y0269136D01*
X0187064Y0269136D01*
X0187064Y0271764D01*
X0187064Y0269457D02*
X0187526Y0269457D01*
X0187526Y0269778D02*
X0187064Y0269778D01*
X0187064Y0270099D02*
X0187526Y0270099D01*
X0187526Y0270420D02*
X0187064Y0270420D01*
X0187064Y0270741D02*
X0187526Y0270741D01*
X0187526Y0271062D02*
X0187064Y0271062D01*
X0187064Y0271383D02*
X0187526Y0271383D01*
X0187526Y0271704D02*
X0187064Y0271704D01*
X0185558Y0271764D02*
X0185096Y0271764D01*
X0185558Y0271764D02*
X0185558Y0269136D01*
X0185096Y0269136D01*
X0185096Y0271764D01*
X0185096Y0269457D02*
X0185558Y0269457D01*
X0185558Y0269778D02*
X0185096Y0269778D01*
X0185096Y0270099D02*
X0185558Y0270099D01*
X0185558Y0270420D02*
X0185096Y0270420D01*
X0185096Y0270741D02*
X0185558Y0270741D01*
X0185558Y0271062D02*
X0185096Y0271062D01*
X0185096Y0271383D02*
X0185558Y0271383D01*
X0185558Y0271704D02*
X0185096Y0271704D01*
X0183589Y0271764D02*
X0183127Y0271764D01*
X0183589Y0271764D02*
X0183589Y0269136D01*
X0183127Y0269136D01*
X0183127Y0271764D01*
X0183127Y0269457D02*
X0183589Y0269457D01*
X0183589Y0269778D02*
X0183127Y0269778D01*
X0183127Y0270099D02*
X0183589Y0270099D01*
X0183589Y0270420D02*
X0183127Y0270420D01*
X0183127Y0270741D02*
X0183589Y0270741D01*
X0183589Y0271062D02*
X0183127Y0271062D01*
X0183127Y0271383D02*
X0183589Y0271383D01*
X0183589Y0271704D02*
X0183127Y0271704D01*
X0181621Y0271764D02*
X0181159Y0271764D01*
X0181621Y0271764D02*
X0181621Y0269136D01*
X0181159Y0269136D01*
X0181159Y0271764D01*
X0181159Y0269457D02*
X0181621Y0269457D01*
X0181621Y0269778D02*
X0181159Y0269778D01*
X0181159Y0270099D02*
X0181621Y0270099D01*
X0181621Y0270420D02*
X0181159Y0270420D01*
X0181159Y0270741D02*
X0181621Y0270741D01*
X0181621Y0271062D02*
X0181159Y0271062D01*
X0181159Y0271383D02*
X0181621Y0271383D01*
X0181621Y0271704D02*
X0181159Y0271704D01*
X0179652Y0271764D02*
X0179190Y0271764D01*
X0179652Y0271764D02*
X0179652Y0269136D01*
X0179190Y0269136D01*
X0179190Y0271764D01*
X0179190Y0269457D02*
X0179652Y0269457D01*
X0179652Y0269778D02*
X0179190Y0269778D01*
X0179190Y0270099D02*
X0179652Y0270099D01*
X0179652Y0270420D02*
X0179190Y0270420D01*
X0179190Y0270741D02*
X0179652Y0270741D01*
X0179652Y0271062D02*
X0179190Y0271062D01*
X0179190Y0271383D02*
X0179652Y0271383D01*
X0179652Y0271704D02*
X0179190Y0271704D01*
X0177684Y0271764D02*
X0177222Y0271764D01*
X0177684Y0271764D02*
X0177684Y0269136D01*
X0177222Y0269136D01*
X0177222Y0271764D01*
X0177222Y0269457D02*
X0177684Y0269457D01*
X0177684Y0269778D02*
X0177222Y0269778D01*
X0177222Y0270099D02*
X0177684Y0270099D01*
X0177684Y0270420D02*
X0177222Y0270420D01*
X0177222Y0270741D02*
X0177684Y0270741D01*
X0177684Y0271062D02*
X0177222Y0271062D01*
X0177222Y0271383D02*
X0177684Y0271383D01*
X0177684Y0271704D02*
X0177222Y0271704D01*
X0175715Y0271764D02*
X0175253Y0271764D01*
X0175715Y0271764D02*
X0175715Y0269136D01*
X0175253Y0269136D01*
X0175253Y0271764D01*
X0175253Y0269457D02*
X0175715Y0269457D01*
X0175715Y0269778D02*
X0175253Y0269778D01*
X0175253Y0270099D02*
X0175715Y0270099D01*
X0175715Y0270420D02*
X0175253Y0270420D01*
X0175253Y0270741D02*
X0175715Y0270741D01*
X0175715Y0271062D02*
X0175253Y0271062D01*
X0175253Y0271383D02*
X0175715Y0271383D01*
X0175715Y0271704D02*
X0175253Y0271704D01*
X0173747Y0271764D02*
X0173285Y0271764D01*
X0173747Y0271764D02*
X0173747Y0269136D01*
X0173285Y0269136D01*
X0173285Y0271764D01*
X0173285Y0269457D02*
X0173747Y0269457D01*
X0173747Y0269778D02*
X0173285Y0269778D01*
X0173285Y0270099D02*
X0173747Y0270099D01*
X0173747Y0270420D02*
X0173285Y0270420D01*
X0173285Y0270741D02*
X0173747Y0270741D01*
X0173747Y0271062D02*
X0173285Y0271062D01*
X0173285Y0271383D02*
X0173747Y0271383D01*
X0173747Y0271704D02*
X0173285Y0271704D01*
X0171778Y0271764D02*
X0171316Y0271764D01*
X0171778Y0271764D02*
X0171778Y0269136D01*
X0171316Y0269136D01*
X0171316Y0271764D01*
X0171316Y0269457D02*
X0171778Y0269457D01*
X0171778Y0269778D02*
X0171316Y0269778D01*
X0171316Y0270099D02*
X0171778Y0270099D01*
X0171778Y0270420D02*
X0171316Y0270420D01*
X0171316Y0270741D02*
X0171778Y0270741D01*
X0171778Y0271062D02*
X0171316Y0271062D01*
X0171316Y0271383D02*
X0171778Y0271383D01*
X0171778Y0271704D02*
X0171316Y0271704D01*
X0169810Y0271764D02*
X0169348Y0271764D01*
X0169810Y0271764D02*
X0169810Y0269136D01*
X0169348Y0269136D01*
X0169348Y0271764D01*
X0169348Y0269457D02*
X0169810Y0269457D01*
X0169810Y0269778D02*
X0169348Y0269778D01*
X0169348Y0270099D02*
X0169810Y0270099D01*
X0169810Y0270420D02*
X0169348Y0270420D01*
X0169348Y0270741D02*
X0169810Y0270741D01*
X0169810Y0271062D02*
X0169348Y0271062D01*
X0169348Y0271383D02*
X0169810Y0271383D01*
X0169810Y0271704D02*
X0169348Y0271704D01*
X0167841Y0271764D02*
X0167379Y0271764D01*
X0167841Y0271764D02*
X0167841Y0269136D01*
X0167379Y0269136D01*
X0167379Y0271764D01*
X0167379Y0269457D02*
X0167841Y0269457D01*
X0167841Y0269778D02*
X0167379Y0269778D01*
X0167379Y0270099D02*
X0167841Y0270099D01*
X0167841Y0270420D02*
X0167379Y0270420D01*
X0167379Y0270741D02*
X0167841Y0270741D01*
X0167841Y0271062D02*
X0167379Y0271062D01*
X0167379Y0271383D02*
X0167841Y0271383D01*
X0167841Y0271704D02*
X0167379Y0271704D01*
X0165873Y0271764D02*
X0165411Y0271764D01*
X0165873Y0271764D02*
X0165873Y0269136D01*
X0165411Y0269136D01*
X0165411Y0271764D01*
X0165411Y0269457D02*
X0165873Y0269457D01*
X0165873Y0269778D02*
X0165411Y0269778D01*
X0165411Y0270099D02*
X0165873Y0270099D01*
X0165873Y0270420D02*
X0165411Y0270420D01*
X0165411Y0270741D02*
X0165873Y0270741D01*
X0165873Y0271062D02*
X0165411Y0271062D01*
X0165411Y0271383D02*
X0165873Y0271383D01*
X0165873Y0271704D02*
X0165411Y0271704D01*
X0163904Y0271764D02*
X0163442Y0271764D01*
X0163904Y0271764D02*
X0163904Y0269136D01*
X0163442Y0269136D01*
X0163442Y0271764D01*
X0163442Y0269457D02*
X0163904Y0269457D01*
X0163904Y0269778D02*
X0163442Y0269778D01*
X0163442Y0270099D02*
X0163904Y0270099D01*
X0163904Y0270420D02*
X0163442Y0270420D01*
X0163442Y0270741D02*
X0163904Y0270741D01*
X0163904Y0271062D02*
X0163442Y0271062D01*
X0163442Y0271383D02*
X0163904Y0271383D01*
X0163904Y0271704D02*
X0163442Y0271704D01*
X0161936Y0271764D02*
X0161474Y0271764D01*
X0161936Y0271764D02*
X0161936Y0269136D01*
X0161474Y0269136D01*
X0161474Y0271764D01*
X0161474Y0269457D02*
X0161936Y0269457D01*
X0161936Y0269778D02*
X0161474Y0269778D01*
X0161474Y0270099D02*
X0161936Y0270099D01*
X0161936Y0270420D02*
X0161474Y0270420D01*
X0161474Y0270741D02*
X0161936Y0270741D01*
X0161936Y0271062D02*
X0161474Y0271062D01*
X0161474Y0271383D02*
X0161936Y0271383D01*
X0161936Y0271704D02*
X0161474Y0271704D01*
X0159967Y0271764D02*
X0159505Y0271764D01*
X0159967Y0271764D02*
X0159967Y0269136D01*
X0159505Y0269136D01*
X0159505Y0271764D01*
X0159505Y0269457D02*
X0159967Y0269457D01*
X0159967Y0269778D02*
X0159505Y0269778D01*
X0159505Y0270099D02*
X0159967Y0270099D01*
X0159967Y0270420D02*
X0159505Y0270420D01*
X0159505Y0270741D02*
X0159967Y0270741D01*
X0159967Y0271062D02*
X0159505Y0271062D01*
X0159505Y0271383D02*
X0159967Y0271383D01*
X0159967Y0271704D02*
X0159505Y0271704D01*
X0158097Y0273172D02*
X0158097Y0273634D01*
X0158097Y0273172D02*
X0155469Y0273172D01*
X0155469Y0273634D01*
X0158097Y0273634D01*
X0158097Y0273493D02*
X0155469Y0273493D01*
X0158097Y0275140D02*
X0158097Y0275602D01*
X0158097Y0275140D02*
X0155469Y0275140D01*
X0155469Y0275602D01*
X0158097Y0275602D01*
X0158097Y0275461D02*
X0155469Y0275461D01*
X0158097Y0277109D02*
X0158097Y0277571D01*
X0158097Y0277109D02*
X0155469Y0277109D01*
X0155469Y0277571D01*
X0158097Y0277571D01*
X0158097Y0277430D02*
X0155469Y0277430D01*
X0158097Y0279077D02*
X0158097Y0279539D01*
X0158097Y0279077D02*
X0155469Y0279077D01*
X0155469Y0279539D01*
X0158097Y0279539D01*
X0158097Y0279398D02*
X0155469Y0279398D01*
X0158097Y0281046D02*
X0158097Y0281508D01*
X0158097Y0281046D02*
X0155469Y0281046D01*
X0155469Y0281508D01*
X0158097Y0281508D01*
X0158097Y0281367D02*
X0155469Y0281367D01*
X0158097Y0283014D02*
X0158097Y0283476D01*
X0158097Y0283014D02*
X0155469Y0283014D01*
X0155469Y0283476D01*
X0158097Y0283476D01*
X0158097Y0283335D02*
X0155469Y0283335D01*
X0158097Y0284983D02*
X0158097Y0285445D01*
X0158097Y0284983D02*
X0155469Y0284983D01*
X0155469Y0285445D01*
X0158097Y0285445D01*
X0158097Y0285304D02*
X0155469Y0285304D01*
X0158097Y0286951D02*
X0158097Y0287413D01*
X0158097Y0286951D02*
X0155469Y0286951D01*
X0155469Y0287413D01*
X0158097Y0287413D01*
X0158097Y0287272D02*
X0155469Y0287272D01*
X0158097Y0288920D02*
X0158097Y0289382D01*
X0158097Y0288920D02*
X0155469Y0288920D01*
X0155469Y0289382D01*
X0158097Y0289382D01*
X0158097Y0289241D02*
X0155469Y0289241D01*
X0158097Y0290888D02*
X0158097Y0291350D01*
X0158097Y0290888D02*
X0155469Y0290888D01*
X0155469Y0291350D01*
X0158097Y0291350D01*
X0158097Y0291209D02*
X0155469Y0291209D01*
D14*
X0131862Y0137958D02*
X0123516Y0137958D01*
X0123516Y0144336D01*
X0131862Y0144336D01*
X0131862Y0137958D01*
X0131862Y0138666D02*
X0123516Y0138666D01*
X0123516Y0139374D02*
X0131862Y0139374D01*
X0131862Y0140082D02*
X0123516Y0140082D01*
X0123516Y0140790D02*
X0131862Y0140790D01*
X0131862Y0141498D02*
X0123516Y0141498D01*
X0123516Y0142206D02*
X0131862Y0142206D01*
X0131862Y0142914D02*
X0123516Y0142914D01*
X0123516Y0143622D02*
X0131862Y0143622D01*
X0131862Y0144330D02*
X0123516Y0144330D01*
X0145169Y0137958D02*
X0156665Y0137958D01*
X0145169Y0137958D02*
X0145169Y0144336D01*
X0156665Y0144336D01*
X0156665Y0137958D01*
X0156665Y0138666D02*
X0145169Y0138666D01*
X0145169Y0139374D02*
X0156665Y0139374D01*
X0156665Y0140082D02*
X0145169Y0140082D01*
X0145169Y0140790D02*
X0156665Y0140790D01*
X0156665Y0141498D02*
X0145169Y0141498D01*
X0145169Y0142206D02*
X0156665Y0142206D01*
X0156665Y0142914D02*
X0145169Y0142914D01*
X0145169Y0143622D02*
X0156665Y0143622D01*
X0156665Y0144330D02*
X0145169Y0144330D01*
X0145169Y0172997D02*
X0156665Y0172997D01*
X0145169Y0172997D02*
X0145169Y0179375D01*
X0156665Y0179375D01*
X0156665Y0172997D01*
X0156665Y0173705D02*
X0145169Y0173705D01*
X0145169Y0174413D02*
X0156665Y0174413D01*
X0156665Y0175121D02*
X0145169Y0175121D01*
X0145169Y0175829D02*
X0156665Y0175829D01*
X0156665Y0176537D02*
X0145169Y0176537D01*
X0145169Y0177245D02*
X0156665Y0177245D01*
X0156665Y0177953D02*
X0145169Y0177953D01*
X0145169Y0178661D02*
X0156665Y0178661D01*
X0156665Y0179369D02*
X0145169Y0179369D01*
X0131862Y0172997D02*
X0123516Y0172997D01*
X0123516Y0179375D01*
X0131862Y0179375D01*
X0131862Y0172997D01*
X0131862Y0173705D02*
X0123516Y0173705D01*
X0123516Y0174413D02*
X0131862Y0174413D01*
X0131862Y0175121D02*
X0123516Y0175121D01*
X0123516Y0175829D02*
X0131862Y0175829D01*
X0131862Y0176537D02*
X0123516Y0176537D01*
X0123516Y0177245D02*
X0131862Y0177245D01*
X0131862Y0177953D02*
X0123516Y0177953D01*
X0123516Y0178661D02*
X0131862Y0178661D01*
X0131862Y0179369D02*
X0123516Y0179369D01*
D15*
X0145486Y0164259D02*
X0157136Y0164259D01*
X0145486Y0164259D02*
X0145486Y0165673D01*
X0157136Y0165673D01*
X0157136Y0164259D01*
X0157136Y0164612D02*
X0145486Y0164612D01*
X0145486Y0164965D02*
X0157136Y0164965D01*
X0157136Y0165318D02*
X0145486Y0165318D01*
X0145486Y0165671D02*
X0157136Y0165671D01*
X0157136Y0161109D02*
X0145486Y0161109D01*
X0145486Y0162523D01*
X0157136Y0162523D01*
X0157136Y0161109D01*
X0157136Y0161462D02*
X0145486Y0161462D01*
X0145486Y0161815D02*
X0157136Y0161815D01*
X0157136Y0162168D02*
X0145486Y0162168D01*
X0145486Y0162521D02*
X0157136Y0162521D01*
X0157136Y0157960D02*
X0145486Y0157960D01*
X0145486Y0159374D01*
X0157136Y0159374D01*
X0157136Y0157960D01*
X0157136Y0158313D02*
X0145486Y0158313D01*
X0145486Y0158666D02*
X0157136Y0158666D01*
X0157136Y0159019D02*
X0145486Y0159019D01*
X0145486Y0159372D02*
X0157136Y0159372D01*
X0157136Y0154810D02*
X0145486Y0154810D01*
X0145486Y0156224D01*
X0157136Y0156224D01*
X0157136Y0154810D01*
X0157136Y0155163D02*
X0145486Y0155163D01*
X0145486Y0155516D02*
X0157136Y0155516D01*
X0157136Y0155869D02*
X0145486Y0155869D01*
X0145486Y0156222D02*
X0157136Y0156222D01*
X0157136Y0151660D02*
X0145486Y0151660D01*
X0145486Y0153074D01*
X0157136Y0153074D01*
X0157136Y0151660D01*
X0157136Y0152013D02*
X0145486Y0152013D01*
X0145486Y0152366D02*
X0157136Y0152366D01*
X0157136Y0152719D02*
X0145486Y0152719D01*
X0145486Y0153072D02*
X0157136Y0153072D01*
D16*
X0287754Y0220460D02*
X0287754Y0221220D01*
X0287754Y0220460D02*
X0282388Y0220460D01*
X0282388Y0221220D01*
X0287754Y0221220D01*
X0287754Y0220800D02*
X0282388Y0220800D01*
X0282388Y0221140D02*
X0287754Y0221140D01*
X0287754Y0222428D02*
X0287754Y0223188D01*
X0287754Y0222428D02*
X0282388Y0222428D01*
X0282388Y0223188D01*
X0287754Y0223188D01*
X0287754Y0222768D02*
X0282388Y0222768D01*
X0282388Y0223108D02*
X0287754Y0223108D01*
X0287754Y0224397D02*
X0287754Y0225157D01*
X0287754Y0224397D02*
X0282388Y0224397D01*
X0282388Y0225157D01*
X0287754Y0225157D01*
X0287754Y0224737D02*
X0282388Y0224737D01*
X0282388Y0225077D02*
X0287754Y0225077D01*
X0287754Y0226365D02*
X0287754Y0227125D01*
X0287754Y0226365D02*
X0282388Y0226365D01*
X0282388Y0227125D01*
X0287754Y0227125D01*
X0287754Y0226705D02*
X0282388Y0226705D01*
X0282388Y0227045D02*
X0287754Y0227045D01*
X0287754Y0228334D02*
X0287754Y0229094D01*
X0287754Y0228334D02*
X0282388Y0228334D01*
X0282388Y0229094D01*
X0287754Y0229094D01*
X0287754Y0228674D02*
X0282388Y0228674D01*
X0282388Y0229014D02*
X0287754Y0229014D01*
X0287754Y0230302D02*
X0287754Y0231062D01*
X0287754Y0230302D02*
X0282388Y0230302D01*
X0282388Y0231062D01*
X0287754Y0231062D01*
X0287754Y0230642D02*
X0282388Y0230642D01*
X0282388Y0230982D02*
X0287754Y0230982D01*
X0287754Y0232271D02*
X0287754Y0233031D01*
X0287754Y0232271D02*
X0282388Y0232271D01*
X0282388Y0233031D01*
X0287754Y0233031D01*
X0287754Y0232611D02*
X0282388Y0232611D01*
X0282388Y0232951D02*
X0287754Y0232951D01*
X0287754Y0234239D02*
X0287754Y0234999D01*
X0287754Y0234239D02*
X0282388Y0234239D01*
X0282388Y0234999D01*
X0287754Y0234999D01*
X0287754Y0234579D02*
X0282388Y0234579D01*
X0282388Y0234919D02*
X0287754Y0234919D01*
X0287754Y0236208D02*
X0287754Y0236968D01*
X0287754Y0236208D02*
X0282388Y0236208D01*
X0282388Y0236968D01*
X0287754Y0236968D01*
X0287754Y0236548D02*
X0282388Y0236548D01*
X0282388Y0236888D02*
X0287754Y0236888D01*
X0287754Y0238176D02*
X0287754Y0238936D01*
X0287754Y0238176D02*
X0282388Y0238176D01*
X0282388Y0238936D01*
X0287754Y0238936D01*
X0287754Y0238516D02*
X0282388Y0238516D01*
X0282388Y0238856D02*
X0287754Y0238856D01*
X0287754Y0240145D02*
X0287754Y0240905D01*
X0287754Y0240145D02*
X0282388Y0240145D01*
X0282388Y0240905D01*
X0287754Y0240905D01*
X0287754Y0240485D02*
X0282388Y0240485D01*
X0282388Y0240825D02*
X0287754Y0240825D01*
X0287754Y0242113D02*
X0287754Y0242873D01*
X0287754Y0242113D02*
X0282388Y0242113D01*
X0282388Y0242873D01*
X0287754Y0242873D01*
X0287754Y0242453D02*
X0282388Y0242453D01*
X0282388Y0242793D02*
X0287754Y0242793D01*
X0291553Y0245913D02*
X0291553Y0251279D01*
X0291553Y0245913D02*
X0290793Y0245913D01*
X0290793Y0251279D01*
X0291553Y0251279D01*
X0291553Y0246253D02*
X0290793Y0246253D01*
X0290793Y0246593D02*
X0291553Y0246593D01*
X0291553Y0246933D02*
X0290793Y0246933D01*
X0290793Y0247273D02*
X0291553Y0247273D01*
X0291553Y0247613D02*
X0290793Y0247613D01*
X0290793Y0247953D02*
X0291553Y0247953D01*
X0291553Y0248293D02*
X0290793Y0248293D01*
X0290793Y0248633D02*
X0291553Y0248633D01*
X0291553Y0248973D02*
X0290793Y0248973D01*
X0290793Y0249313D02*
X0291553Y0249313D01*
X0291553Y0249653D02*
X0290793Y0249653D01*
X0290793Y0249993D02*
X0291553Y0249993D01*
X0291553Y0250333D02*
X0290793Y0250333D01*
X0290793Y0250673D02*
X0291553Y0250673D01*
X0291553Y0251013D02*
X0290793Y0251013D01*
X0293522Y0251279D02*
X0293522Y0245913D01*
X0292762Y0245913D01*
X0292762Y0251279D01*
X0293522Y0251279D01*
X0293522Y0246253D02*
X0292762Y0246253D01*
X0292762Y0246593D02*
X0293522Y0246593D01*
X0293522Y0246933D02*
X0292762Y0246933D01*
X0292762Y0247273D02*
X0293522Y0247273D01*
X0293522Y0247613D02*
X0292762Y0247613D01*
X0292762Y0247953D02*
X0293522Y0247953D01*
X0293522Y0248293D02*
X0292762Y0248293D01*
X0292762Y0248633D02*
X0293522Y0248633D01*
X0293522Y0248973D02*
X0292762Y0248973D01*
X0292762Y0249313D02*
X0293522Y0249313D01*
X0293522Y0249653D02*
X0292762Y0249653D01*
X0292762Y0249993D02*
X0293522Y0249993D01*
X0293522Y0250333D02*
X0292762Y0250333D01*
X0292762Y0250673D02*
X0293522Y0250673D01*
X0293522Y0251013D02*
X0292762Y0251013D01*
X0295490Y0251279D02*
X0295490Y0245913D01*
X0294730Y0245913D01*
X0294730Y0251279D01*
X0295490Y0251279D01*
X0295490Y0246253D02*
X0294730Y0246253D01*
X0294730Y0246593D02*
X0295490Y0246593D01*
X0295490Y0246933D02*
X0294730Y0246933D01*
X0294730Y0247273D02*
X0295490Y0247273D01*
X0295490Y0247613D02*
X0294730Y0247613D01*
X0294730Y0247953D02*
X0295490Y0247953D01*
X0295490Y0248293D02*
X0294730Y0248293D01*
X0294730Y0248633D02*
X0295490Y0248633D01*
X0295490Y0248973D02*
X0294730Y0248973D01*
X0294730Y0249313D02*
X0295490Y0249313D01*
X0295490Y0249653D02*
X0294730Y0249653D01*
X0294730Y0249993D02*
X0295490Y0249993D01*
X0295490Y0250333D02*
X0294730Y0250333D01*
X0294730Y0250673D02*
X0295490Y0250673D01*
X0295490Y0251013D02*
X0294730Y0251013D01*
X0297459Y0251279D02*
X0297459Y0245913D01*
X0296699Y0245913D01*
X0296699Y0251279D01*
X0297459Y0251279D01*
X0297459Y0246253D02*
X0296699Y0246253D01*
X0296699Y0246593D02*
X0297459Y0246593D01*
X0297459Y0246933D02*
X0296699Y0246933D01*
X0296699Y0247273D02*
X0297459Y0247273D01*
X0297459Y0247613D02*
X0296699Y0247613D01*
X0296699Y0247953D02*
X0297459Y0247953D01*
X0297459Y0248293D02*
X0296699Y0248293D01*
X0296699Y0248633D02*
X0297459Y0248633D01*
X0297459Y0248973D02*
X0296699Y0248973D01*
X0296699Y0249313D02*
X0297459Y0249313D01*
X0297459Y0249653D02*
X0296699Y0249653D01*
X0296699Y0249993D02*
X0297459Y0249993D01*
X0297459Y0250333D02*
X0296699Y0250333D01*
X0296699Y0250673D02*
X0297459Y0250673D01*
X0297459Y0251013D02*
X0296699Y0251013D01*
X0299427Y0251279D02*
X0299427Y0245913D01*
X0298667Y0245913D01*
X0298667Y0251279D01*
X0299427Y0251279D01*
X0299427Y0246253D02*
X0298667Y0246253D01*
X0298667Y0246593D02*
X0299427Y0246593D01*
X0299427Y0246933D02*
X0298667Y0246933D01*
X0298667Y0247273D02*
X0299427Y0247273D01*
X0299427Y0247613D02*
X0298667Y0247613D01*
X0298667Y0247953D02*
X0299427Y0247953D01*
X0299427Y0248293D02*
X0298667Y0248293D01*
X0298667Y0248633D02*
X0299427Y0248633D01*
X0299427Y0248973D02*
X0298667Y0248973D01*
X0298667Y0249313D02*
X0299427Y0249313D01*
X0299427Y0249653D02*
X0298667Y0249653D01*
X0298667Y0249993D02*
X0299427Y0249993D01*
X0299427Y0250333D02*
X0298667Y0250333D01*
X0298667Y0250673D02*
X0299427Y0250673D01*
X0299427Y0251013D02*
X0298667Y0251013D01*
X0301396Y0251279D02*
X0301396Y0245913D01*
X0300636Y0245913D01*
X0300636Y0251279D01*
X0301396Y0251279D01*
X0301396Y0246253D02*
X0300636Y0246253D01*
X0300636Y0246593D02*
X0301396Y0246593D01*
X0301396Y0246933D02*
X0300636Y0246933D01*
X0300636Y0247273D02*
X0301396Y0247273D01*
X0301396Y0247613D02*
X0300636Y0247613D01*
X0300636Y0247953D02*
X0301396Y0247953D01*
X0301396Y0248293D02*
X0300636Y0248293D01*
X0300636Y0248633D02*
X0301396Y0248633D01*
X0301396Y0248973D02*
X0300636Y0248973D01*
X0300636Y0249313D02*
X0301396Y0249313D01*
X0301396Y0249653D02*
X0300636Y0249653D01*
X0300636Y0249993D02*
X0301396Y0249993D01*
X0301396Y0250333D02*
X0300636Y0250333D01*
X0300636Y0250673D02*
X0301396Y0250673D01*
X0301396Y0251013D02*
X0300636Y0251013D01*
X0303364Y0251279D02*
X0303364Y0245913D01*
X0302604Y0245913D01*
X0302604Y0251279D01*
X0303364Y0251279D01*
X0303364Y0246253D02*
X0302604Y0246253D01*
X0302604Y0246593D02*
X0303364Y0246593D01*
X0303364Y0246933D02*
X0302604Y0246933D01*
X0302604Y0247273D02*
X0303364Y0247273D01*
X0303364Y0247613D02*
X0302604Y0247613D01*
X0302604Y0247953D02*
X0303364Y0247953D01*
X0303364Y0248293D02*
X0302604Y0248293D01*
X0302604Y0248633D02*
X0303364Y0248633D01*
X0303364Y0248973D02*
X0302604Y0248973D01*
X0302604Y0249313D02*
X0303364Y0249313D01*
X0303364Y0249653D02*
X0302604Y0249653D01*
X0302604Y0249993D02*
X0303364Y0249993D01*
X0303364Y0250333D02*
X0302604Y0250333D01*
X0302604Y0250673D02*
X0303364Y0250673D01*
X0303364Y0251013D02*
X0302604Y0251013D01*
X0305333Y0251279D02*
X0305333Y0245913D01*
X0304573Y0245913D01*
X0304573Y0251279D01*
X0305333Y0251279D01*
X0305333Y0246253D02*
X0304573Y0246253D01*
X0304573Y0246593D02*
X0305333Y0246593D01*
X0305333Y0246933D02*
X0304573Y0246933D01*
X0304573Y0247273D02*
X0305333Y0247273D01*
X0305333Y0247613D02*
X0304573Y0247613D01*
X0304573Y0247953D02*
X0305333Y0247953D01*
X0305333Y0248293D02*
X0304573Y0248293D01*
X0304573Y0248633D02*
X0305333Y0248633D01*
X0305333Y0248973D02*
X0304573Y0248973D01*
X0304573Y0249313D02*
X0305333Y0249313D01*
X0305333Y0249653D02*
X0304573Y0249653D01*
X0304573Y0249993D02*
X0305333Y0249993D01*
X0305333Y0250333D02*
X0304573Y0250333D01*
X0304573Y0250673D02*
X0305333Y0250673D01*
X0305333Y0251013D02*
X0304573Y0251013D01*
X0307301Y0251279D02*
X0307301Y0245913D01*
X0306541Y0245913D01*
X0306541Y0251279D01*
X0307301Y0251279D01*
X0307301Y0246253D02*
X0306541Y0246253D01*
X0306541Y0246593D02*
X0307301Y0246593D01*
X0307301Y0246933D02*
X0306541Y0246933D01*
X0306541Y0247273D02*
X0307301Y0247273D01*
X0307301Y0247613D02*
X0306541Y0247613D01*
X0306541Y0247953D02*
X0307301Y0247953D01*
X0307301Y0248293D02*
X0306541Y0248293D01*
X0306541Y0248633D02*
X0307301Y0248633D01*
X0307301Y0248973D02*
X0306541Y0248973D01*
X0306541Y0249313D02*
X0307301Y0249313D01*
X0307301Y0249653D02*
X0306541Y0249653D01*
X0306541Y0249993D02*
X0307301Y0249993D01*
X0307301Y0250333D02*
X0306541Y0250333D01*
X0306541Y0250673D02*
X0307301Y0250673D01*
X0307301Y0251013D02*
X0306541Y0251013D01*
X0309270Y0251279D02*
X0309270Y0245913D01*
X0308510Y0245913D01*
X0308510Y0251279D01*
X0309270Y0251279D01*
X0309270Y0246253D02*
X0308510Y0246253D01*
X0308510Y0246593D02*
X0309270Y0246593D01*
X0309270Y0246933D02*
X0308510Y0246933D01*
X0308510Y0247273D02*
X0309270Y0247273D01*
X0309270Y0247613D02*
X0308510Y0247613D01*
X0308510Y0247953D02*
X0309270Y0247953D01*
X0309270Y0248293D02*
X0308510Y0248293D01*
X0308510Y0248633D02*
X0309270Y0248633D01*
X0309270Y0248973D02*
X0308510Y0248973D01*
X0308510Y0249313D02*
X0309270Y0249313D01*
X0309270Y0249653D02*
X0308510Y0249653D01*
X0308510Y0249993D02*
X0309270Y0249993D01*
X0309270Y0250333D02*
X0308510Y0250333D01*
X0308510Y0250673D02*
X0309270Y0250673D01*
X0309270Y0251013D02*
X0308510Y0251013D01*
X0311238Y0251279D02*
X0311238Y0245913D01*
X0310478Y0245913D01*
X0310478Y0251279D01*
X0311238Y0251279D01*
X0311238Y0246253D02*
X0310478Y0246253D01*
X0310478Y0246593D02*
X0311238Y0246593D01*
X0311238Y0246933D02*
X0310478Y0246933D01*
X0310478Y0247273D02*
X0311238Y0247273D01*
X0311238Y0247613D02*
X0310478Y0247613D01*
X0310478Y0247953D02*
X0311238Y0247953D01*
X0311238Y0248293D02*
X0310478Y0248293D01*
X0310478Y0248633D02*
X0311238Y0248633D01*
X0311238Y0248973D02*
X0310478Y0248973D01*
X0310478Y0249313D02*
X0311238Y0249313D01*
X0311238Y0249653D02*
X0310478Y0249653D01*
X0310478Y0249993D02*
X0311238Y0249993D01*
X0311238Y0250333D02*
X0310478Y0250333D01*
X0310478Y0250673D02*
X0311238Y0250673D01*
X0311238Y0251013D02*
X0310478Y0251013D01*
X0313207Y0251279D02*
X0313207Y0245913D01*
X0312447Y0245913D01*
X0312447Y0251279D01*
X0313207Y0251279D01*
X0313207Y0246253D02*
X0312447Y0246253D01*
X0312447Y0246593D02*
X0313207Y0246593D01*
X0313207Y0246933D02*
X0312447Y0246933D01*
X0312447Y0247273D02*
X0313207Y0247273D01*
X0313207Y0247613D02*
X0312447Y0247613D01*
X0312447Y0247953D02*
X0313207Y0247953D01*
X0313207Y0248293D02*
X0312447Y0248293D01*
X0312447Y0248633D02*
X0313207Y0248633D01*
X0313207Y0248973D02*
X0312447Y0248973D01*
X0312447Y0249313D02*
X0313207Y0249313D01*
X0313207Y0249653D02*
X0312447Y0249653D01*
X0312447Y0249993D02*
X0313207Y0249993D01*
X0313207Y0250333D02*
X0312447Y0250333D01*
X0312447Y0250673D02*
X0313207Y0250673D01*
X0313207Y0251013D02*
X0312447Y0251013D01*
X0321612Y0242873D02*
X0321612Y0242113D01*
X0316246Y0242113D01*
X0316246Y0242873D01*
X0321612Y0242873D01*
X0321612Y0242453D02*
X0316246Y0242453D01*
X0316246Y0242793D02*
X0321612Y0242793D01*
X0321612Y0240905D02*
X0321612Y0240145D01*
X0316246Y0240145D01*
X0316246Y0240905D01*
X0321612Y0240905D01*
X0321612Y0240485D02*
X0316246Y0240485D01*
X0316246Y0240825D02*
X0321612Y0240825D01*
X0321612Y0238936D02*
X0321612Y0238176D01*
X0316246Y0238176D01*
X0316246Y0238936D01*
X0321612Y0238936D01*
X0321612Y0238516D02*
X0316246Y0238516D01*
X0316246Y0238856D02*
X0321612Y0238856D01*
X0321612Y0236968D02*
X0321612Y0236208D01*
X0316246Y0236208D01*
X0316246Y0236968D01*
X0321612Y0236968D01*
X0321612Y0236548D02*
X0316246Y0236548D01*
X0316246Y0236888D02*
X0321612Y0236888D01*
X0321612Y0234999D02*
X0321612Y0234239D01*
X0316246Y0234239D01*
X0316246Y0234999D01*
X0321612Y0234999D01*
X0321612Y0234579D02*
X0316246Y0234579D01*
X0316246Y0234919D02*
X0321612Y0234919D01*
X0321612Y0233031D02*
X0321612Y0232271D01*
X0316246Y0232271D01*
X0316246Y0233031D01*
X0321612Y0233031D01*
X0321612Y0232611D02*
X0316246Y0232611D01*
X0316246Y0232951D02*
X0321612Y0232951D01*
X0321612Y0231062D02*
X0321612Y0230302D01*
X0316246Y0230302D01*
X0316246Y0231062D01*
X0321612Y0231062D01*
X0321612Y0230642D02*
X0316246Y0230642D01*
X0316246Y0230982D02*
X0321612Y0230982D01*
X0321612Y0229094D02*
X0321612Y0228334D01*
X0316246Y0228334D01*
X0316246Y0229094D01*
X0321612Y0229094D01*
X0321612Y0228674D02*
X0316246Y0228674D01*
X0316246Y0229014D02*
X0321612Y0229014D01*
X0321612Y0227125D02*
X0321612Y0226365D01*
X0316246Y0226365D01*
X0316246Y0227125D01*
X0321612Y0227125D01*
X0321612Y0226705D02*
X0316246Y0226705D01*
X0316246Y0227045D02*
X0321612Y0227045D01*
X0321612Y0225157D02*
X0321612Y0224397D01*
X0316246Y0224397D01*
X0316246Y0225157D01*
X0321612Y0225157D01*
X0321612Y0224737D02*
X0316246Y0224737D01*
X0316246Y0225077D02*
X0321612Y0225077D01*
X0321612Y0223188D02*
X0321612Y0222428D01*
X0316246Y0222428D01*
X0316246Y0223188D01*
X0321612Y0223188D01*
X0321612Y0222768D02*
X0316246Y0222768D01*
X0316246Y0223108D02*
X0321612Y0223108D01*
X0321612Y0221220D02*
X0321612Y0220460D01*
X0316246Y0220460D01*
X0316246Y0221220D01*
X0321612Y0221220D01*
X0321612Y0220800D02*
X0316246Y0220800D01*
X0316246Y0221140D02*
X0321612Y0221140D01*
X0313207Y0217421D02*
X0313207Y0212055D01*
X0312447Y0212055D01*
X0312447Y0217421D01*
X0313207Y0217421D01*
X0313207Y0212395D02*
X0312447Y0212395D01*
X0312447Y0212735D02*
X0313207Y0212735D01*
X0313207Y0213075D02*
X0312447Y0213075D01*
X0312447Y0213415D02*
X0313207Y0213415D01*
X0313207Y0213755D02*
X0312447Y0213755D01*
X0312447Y0214095D02*
X0313207Y0214095D01*
X0313207Y0214435D02*
X0312447Y0214435D01*
X0312447Y0214775D02*
X0313207Y0214775D01*
X0313207Y0215115D02*
X0312447Y0215115D01*
X0312447Y0215455D02*
X0313207Y0215455D01*
X0313207Y0215795D02*
X0312447Y0215795D01*
X0312447Y0216135D02*
X0313207Y0216135D01*
X0313207Y0216475D02*
X0312447Y0216475D01*
X0312447Y0216815D02*
X0313207Y0216815D01*
X0313207Y0217155D02*
X0312447Y0217155D01*
X0311238Y0217421D02*
X0311238Y0212055D01*
X0310478Y0212055D01*
X0310478Y0217421D01*
X0311238Y0217421D01*
X0311238Y0212395D02*
X0310478Y0212395D01*
X0310478Y0212735D02*
X0311238Y0212735D01*
X0311238Y0213075D02*
X0310478Y0213075D01*
X0310478Y0213415D02*
X0311238Y0213415D01*
X0311238Y0213755D02*
X0310478Y0213755D01*
X0310478Y0214095D02*
X0311238Y0214095D01*
X0311238Y0214435D02*
X0310478Y0214435D01*
X0310478Y0214775D02*
X0311238Y0214775D01*
X0311238Y0215115D02*
X0310478Y0215115D01*
X0310478Y0215455D02*
X0311238Y0215455D01*
X0311238Y0215795D02*
X0310478Y0215795D01*
X0310478Y0216135D02*
X0311238Y0216135D01*
X0311238Y0216475D02*
X0310478Y0216475D01*
X0310478Y0216815D02*
X0311238Y0216815D01*
X0311238Y0217155D02*
X0310478Y0217155D01*
X0309270Y0217421D02*
X0309270Y0212055D01*
X0308510Y0212055D01*
X0308510Y0217421D01*
X0309270Y0217421D01*
X0309270Y0212395D02*
X0308510Y0212395D01*
X0308510Y0212735D02*
X0309270Y0212735D01*
X0309270Y0213075D02*
X0308510Y0213075D01*
X0308510Y0213415D02*
X0309270Y0213415D01*
X0309270Y0213755D02*
X0308510Y0213755D01*
X0308510Y0214095D02*
X0309270Y0214095D01*
X0309270Y0214435D02*
X0308510Y0214435D01*
X0308510Y0214775D02*
X0309270Y0214775D01*
X0309270Y0215115D02*
X0308510Y0215115D01*
X0308510Y0215455D02*
X0309270Y0215455D01*
X0309270Y0215795D02*
X0308510Y0215795D01*
X0308510Y0216135D02*
X0309270Y0216135D01*
X0309270Y0216475D02*
X0308510Y0216475D01*
X0308510Y0216815D02*
X0309270Y0216815D01*
X0309270Y0217155D02*
X0308510Y0217155D01*
X0307301Y0217421D02*
X0307301Y0212055D01*
X0306541Y0212055D01*
X0306541Y0217421D01*
X0307301Y0217421D01*
X0307301Y0212395D02*
X0306541Y0212395D01*
X0306541Y0212735D02*
X0307301Y0212735D01*
X0307301Y0213075D02*
X0306541Y0213075D01*
X0306541Y0213415D02*
X0307301Y0213415D01*
X0307301Y0213755D02*
X0306541Y0213755D01*
X0306541Y0214095D02*
X0307301Y0214095D01*
X0307301Y0214435D02*
X0306541Y0214435D01*
X0306541Y0214775D02*
X0307301Y0214775D01*
X0307301Y0215115D02*
X0306541Y0215115D01*
X0306541Y0215455D02*
X0307301Y0215455D01*
X0307301Y0215795D02*
X0306541Y0215795D01*
X0306541Y0216135D02*
X0307301Y0216135D01*
X0307301Y0216475D02*
X0306541Y0216475D01*
X0306541Y0216815D02*
X0307301Y0216815D01*
X0307301Y0217155D02*
X0306541Y0217155D01*
X0305333Y0217421D02*
X0305333Y0212055D01*
X0304573Y0212055D01*
X0304573Y0217421D01*
X0305333Y0217421D01*
X0305333Y0212395D02*
X0304573Y0212395D01*
X0304573Y0212735D02*
X0305333Y0212735D01*
X0305333Y0213075D02*
X0304573Y0213075D01*
X0304573Y0213415D02*
X0305333Y0213415D01*
X0305333Y0213755D02*
X0304573Y0213755D01*
X0304573Y0214095D02*
X0305333Y0214095D01*
X0305333Y0214435D02*
X0304573Y0214435D01*
X0304573Y0214775D02*
X0305333Y0214775D01*
X0305333Y0215115D02*
X0304573Y0215115D01*
X0304573Y0215455D02*
X0305333Y0215455D01*
X0305333Y0215795D02*
X0304573Y0215795D01*
X0304573Y0216135D02*
X0305333Y0216135D01*
X0305333Y0216475D02*
X0304573Y0216475D01*
X0304573Y0216815D02*
X0305333Y0216815D01*
X0305333Y0217155D02*
X0304573Y0217155D01*
X0303364Y0217421D02*
X0303364Y0212055D01*
X0302604Y0212055D01*
X0302604Y0217421D01*
X0303364Y0217421D01*
X0303364Y0212395D02*
X0302604Y0212395D01*
X0302604Y0212735D02*
X0303364Y0212735D01*
X0303364Y0213075D02*
X0302604Y0213075D01*
X0302604Y0213415D02*
X0303364Y0213415D01*
X0303364Y0213755D02*
X0302604Y0213755D01*
X0302604Y0214095D02*
X0303364Y0214095D01*
X0303364Y0214435D02*
X0302604Y0214435D01*
X0302604Y0214775D02*
X0303364Y0214775D01*
X0303364Y0215115D02*
X0302604Y0215115D01*
X0302604Y0215455D02*
X0303364Y0215455D01*
X0303364Y0215795D02*
X0302604Y0215795D01*
X0302604Y0216135D02*
X0303364Y0216135D01*
X0303364Y0216475D02*
X0302604Y0216475D01*
X0302604Y0216815D02*
X0303364Y0216815D01*
X0303364Y0217155D02*
X0302604Y0217155D01*
X0301396Y0217421D02*
X0301396Y0212055D01*
X0300636Y0212055D01*
X0300636Y0217421D01*
X0301396Y0217421D01*
X0301396Y0212395D02*
X0300636Y0212395D01*
X0300636Y0212735D02*
X0301396Y0212735D01*
X0301396Y0213075D02*
X0300636Y0213075D01*
X0300636Y0213415D02*
X0301396Y0213415D01*
X0301396Y0213755D02*
X0300636Y0213755D01*
X0300636Y0214095D02*
X0301396Y0214095D01*
X0301396Y0214435D02*
X0300636Y0214435D01*
X0300636Y0214775D02*
X0301396Y0214775D01*
X0301396Y0215115D02*
X0300636Y0215115D01*
X0300636Y0215455D02*
X0301396Y0215455D01*
X0301396Y0215795D02*
X0300636Y0215795D01*
X0300636Y0216135D02*
X0301396Y0216135D01*
X0301396Y0216475D02*
X0300636Y0216475D01*
X0300636Y0216815D02*
X0301396Y0216815D01*
X0301396Y0217155D02*
X0300636Y0217155D01*
X0299427Y0217421D02*
X0299427Y0212055D01*
X0298667Y0212055D01*
X0298667Y0217421D01*
X0299427Y0217421D01*
X0299427Y0212395D02*
X0298667Y0212395D01*
X0298667Y0212735D02*
X0299427Y0212735D01*
X0299427Y0213075D02*
X0298667Y0213075D01*
X0298667Y0213415D02*
X0299427Y0213415D01*
X0299427Y0213755D02*
X0298667Y0213755D01*
X0298667Y0214095D02*
X0299427Y0214095D01*
X0299427Y0214435D02*
X0298667Y0214435D01*
X0298667Y0214775D02*
X0299427Y0214775D01*
X0299427Y0215115D02*
X0298667Y0215115D01*
X0298667Y0215455D02*
X0299427Y0215455D01*
X0299427Y0215795D02*
X0298667Y0215795D01*
X0298667Y0216135D02*
X0299427Y0216135D01*
X0299427Y0216475D02*
X0298667Y0216475D01*
X0298667Y0216815D02*
X0299427Y0216815D01*
X0299427Y0217155D02*
X0298667Y0217155D01*
X0297459Y0217421D02*
X0297459Y0212055D01*
X0296699Y0212055D01*
X0296699Y0217421D01*
X0297459Y0217421D01*
X0297459Y0212395D02*
X0296699Y0212395D01*
X0296699Y0212735D02*
X0297459Y0212735D01*
X0297459Y0213075D02*
X0296699Y0213075D01*
X0296699Y0213415D02*
X0297459Y0213415D01*
X0297459Y0213755D02*
X0296699Y0213755D01*
X0296699Y0214095D02*
X0297459Y0214095D01*
X0297459Y0214435D02*
X0296699Y0214435D01*
X0296699Y0214775D02*
X0297459Y0214775D01*
X0297459Y0215115D02*
X0296699Y0215115D01*
X0296699Y0215455D02*
X0297459Y0215455D01*
X0297459Y0215795D02*
X0296699Y0215795D01*
X0296699Y0216135D02*
X0297459Y0216135D01*
X0297459Y0216475D02*
X0296699Y0216475D01*
X0296699Y0216815D02*
X0297459Y0216815D01*
X0297459Y0217155D02*
X0296699Y0217155D01*
X0295490Y0217421D02*
X0295490Y0212055D01*
X0294730Y0212055D01*
X0294730Y0217421D01*
X0295490Y0217421D01*
X0295490Y0212395D02*
X0294730Y0212395D01*
X0294730Y0212735D02*
X0295490Y0212735D01*
X0295490Y0213075D02*
X0294730Y0213075D01*
X0294730Y0213415D02*
X0295490Y0213415D01*
X0295490Y0213755D02*
X0294730Y0213755D01*
X0294730Y0214095D02*
X0295490Y0214095D01*
X0295490Y0214435D02*
X0294730Y0214435D01*
X0294730Y0214775D02*
X0295490Y0214775D01*
X0295490Y0215115D02*
X0294730Y0215115D01*
X0294730Y0215455D02*
X0295490Y0215455D01*
X0295490Y0215795D02*
X0294730Y0215795D01*
X0294730Y0216135D02*
X0295490Y0216135D01*
X0295490Y0216475D02*
X0294730Y0216475D01*
X0294730Y0216815D02*
X0295490Y0216815D01*
X0295490Y0217155D02*
X0294730Y0217155D01*
X0293522Y0217421D02*
X0293522Y0212055D01*
X0292762Y0212055D01*
X0292762Y0217421D01*
X0293522Y0217421D01*
X0293522Y0212395D02*
X0292762Y0212395D01*
X0292762Y0212735D02*
X0293522Y0212735D01*
X0293522Y0213075D02*
X0292762Y0213075D01*
X0292762Y0213415D02*
X0293522Y0213415D01*
X0293522Y0213755D02*
X0292762Y0213755D01*
X0292762Y0214095D02*
X0293522Y0214095D01*
X0293522Y0214435D02*
X0292762Y0214435D01*
X0292762Y0214775D02*
X0293522Y0214775D01*
X0293522Y0215115D02*
X0292762Y0215115D01*
X0292762Y0215455D02*
X0293522Y0215455D01*
X0293522Y0215795D02*
X0292762Y0215795D01*
X0292762Y0216135D02*
X0293522Y0216135D01*
X0293522Y0216475D02*
X0292762Y0216475D01*
X0292762Y0216815D02*
X0293522Y0216815D01*
X0293522Y0217155D02*
X0292762Y0217155D01*
X0291553Y0217421D02*
X0291553Y0212055D01*
X0290793Y0212055D01*
X0290793Y0217421D01*
X0291553Y0217421D01*
X0291553Y0212395D02*
X0290793Y0212395D01*
X0290793Y0212735D02*
X0291553Y0212735D01*
X0291553Y0213075D02*
X0290793Y0213075D01*
X0290793Y0213415D02*
X0291553Y0213415D01*
X0291553Y0213755D02*
X0290793Y0213755D01*
X0290793Y0214095D02*
X0291553Y0214095D01*
X0291553Y0214435D02*
X0290793Y0214435D01*
X0290793Y0214775D02*
X0291553Y0214775D01*
X0291553Y0215115D02*
X0290793Y0215115D01*
X0290793Y0215455D02*
X0291553Y0215455D01*
X0291553Y0215795D02*
X0290793Y0215795D01*
X0290793Y0216135D02*
X0291553Y0216135D01*
X0291553Y0216475D02*
X0290793Y0216475D01*
X0290793Y0216815D02*
X0291553Y0216815D01*
X0291553Y0217155D02*
X0290793Y0217155D01*
D17*
X0241422Y0222445D02*
X0241422Y0202889D01*
X0241422Y0222445D02*
X0247578Y0222445D01*
X0247578Y0202889D01*
X0241422Y0202889D01*
X0241422Y0203572D02*
X0247578Y0203572D01*
X0247578Y0204255D02*
X0241422Y0204255D01*
X0241422Y0204938D02*
X0247578Y0204938D01*
X0247578Y0205621D02*
X0241422Y0205621D01*
X0241422Y0206304D02*
X0247578Y0206304D01*
X0247578Y0206987D02*
X0241422Y0206987D01*
X0241422Y0207670D02*
X0247578Y0207670D01*
X0247578Y0208353D02*
X0241422Y0208353D01*
X0241422Y0209036D02*
X0247578Y0209036D01*
X0247578Y0209719D02*
X0241422Y0209719D01*
X0241422Y0210402D02*
X0247578Y0210402D01*
X0247578Y0211085D02*
X0241422Y0211085D01*
X0241422Y0211768D02*
X0247578Y0211768D01*
X0247578Y0212451D02*
X0241422Y0212451D01*
X0241422Y0213134D02*
X0247578Y0213134D01*
X0247578Y0213817D02*
X0241422Y0213817D01*
X0241422Y0214500D02*
X0247578Y0214500D01*
X0247578Y0215183D02*
X0241422Y0215183D01*
X0241422Y0215866D02*
X0247578Y0215866D01*
X0247578Y0216549D02*
X0241422Y0216549D01*
X0241422Y0217232D02*
X0247578Y0217232D01*
X0247578Y0217915D02*
X0241422Y0217915D01*
X0241422Y0218598D02*
X0247578Y0218598D01*
X0247578Y0219281D02*
X0241422Y0219281D01*
X0241422Y0219964D02*
X0247578Y0219964D01*
X0247578Y0220647D02*
X0241422Y0220647D01*
X0241422Y0221330D02*
X0247578Y0221330D01*
X0247578Y0222013D02*
X0241422Y0222013D01*
X0241422Y0240889D02*
X0241422Y0260445D01*
X0247578Y0260445D01*
X0247578Y0240889D01*
X0241422Y0240889D01*
X0241422Y0241572D02*
X0247578Y0241572D01*
X0247578Y0242255D02*
X0241422Y0242255D01*
X0241422Y0242938D02*
X0247578Y0242938D01*
X0247578Y0243621D02*
X0241422Y0243621D01*
X0241422Y0244304D02*
X0247578Y0244304D01*
X0247578Y0244987D02*
X0241422Y0244987D01*
X0241422Y0245670D02*
X0247578Y0245670D01*
X0247578Y0246353D02*
X0241422Y0246353D01*
X0241422Y0247036D02*
X0247578Y0247036D01*
X0247578Y0247719D02*
X0241422Y0247719D01*
X0241422Y0248402D02*
X0247578Y0248402D01*
X0247578Y0249085D02*
X0241422Y0249085D01*
X0241422Y0249768D02*
X0247578Y0249768D01*
X0247578Y0250451D02*
X0241422Y0250451D01*
X0241422Y0251134D02*
X0247578Y0251134D01*
X0247578Y0251817D02*
X0241422Y0251817D01*
X0241422Y0252500D02*
X0247578Y0252500D01*
X0247578Y0253183D02*
X0241422Y0253183D01*
X0241422Y0253866D02*
X0247578Y0253866D01*
X0247578Y0254549D02*
X0241422Y0254549D01*
X0241422Y0255232D02*
X0247578Y0255232D01*
X0247578Y0255915D02*
X0241422Y0255915D01*
X0241422Y0256598D02*
X0247578Y0256598D01*
X0247578Y0257281D02*
X0241422Y0257281D01*
X0241422Y0257964D02*
X0247578Y0257964D01*
X0247578Y0258647D02*
X0241422Y0258647D01*
X0241422Y0259330D02*
X0247578Y0259330D01*
X0247578Y0260013D02*
X0241422Y0260013D01*
X0133422Y0260889D02*
X0133422Y0280445D01*
X0139578Y0280445D01*
X0139578Y0260889D01*
X0133422Y0260889D01*
X0133422Y0261572D02*
X0139578Y0261572D01*
X0139578Y0262255D02*
X0133422Y0262255D01*
X0133422Y0262938D02*
X0139578Y0262938D01*
X0139578Y0263621D02*
X0133422Y0263621D01*
X0133422Y0264304D02*
X0139578Y0264304D01*
X0139578Y0264987D02*
X0133422Y0264987D01*
X0133422Y0265670D02*
X0139578Y0265670D01*
X0139578Y0266353D02*
X0133422Y0266353D01*
X0133422Y0267036D02*
X0139578Y0267036D01*
X0139578Y0267719D02*
X0133422Y0267719D01*
X0133422Y0268402D02*
X0139578Y0268402D01*
X0139578Y0269085D02*
X0133422Y0269085D01*
X0133422Y0269768D02*
X0139578Y0269768D01*
X0139578Y0270451D02*
X0133422Y0270451D01*
X0133422Y0271134D02*
X0139578Y0271134D01*
X0139578Y0271817D02*
X0133422Y0271817D01*
X0133422Y0272500D02*
X0139578Y0272500D01*
X0139578Y0273183D02*
X0133422Y0273183D01*
X0133422Y0273866D02*
X0139578Y0273866D01*
X0139578Y0274549D02*
X0133422Y0274549D01*
X0133422Y0275232D02*
X0139578Y0275232D01*
X0139578Y0275915D02*
X0133422Y0275915D01*
X0133422Y0276598D02*
X0139578Y0276598D01*
X0139578Y0277281D02*
X0133422Y0277281D01*
X0133422Y0277964D02*
X0139578Y0277964D01*
X0139578Y0278647D02*
X0133422Y0278647D01*
X0133422Y0279330D02*
X0139578Y0279330D01*
X0139578Y0280013D02*
X0133422Y0280013D01*
X0133422Y0242445D02*
X0133422Y0222889D01*
X0133422Y0242445D02*
X0139578Y0242445D01*
X0139578Y0222889D01*
X0133422Y0222889D01*
X0133422Y0223572D02*
X0139578Y0223572D01*
X0139578Y0224255D02*
X0133422Y0224255D01*
X0133422Y0224938D02*
X0139578Y0224938D01*
X0139578Y0225621D02*
X0133422Y0225621D01*
X0133422Y0226304D02*
X0139578Y0226304D01*
X0139578Y0226987D02*
X0133422Y0226987D01*
X0133422Y0227670D02*
X0139578Y0227670D01*
X0139578Y0228353D02*
X0133422Y0228353D01*
X0133422Y0229036D02*
X0139578Y0229036D01*
X0139578Y0229719D02*
X0133422Y0229719D01*
X0133422Y0230402D02*
X0139578Y0230402D01*
X0139578Y0231085D02*
X0133422Y0231085D01*
X0133422Y0231768D02*
X0139578Y0231768D01*
X0139578Y0232451D02*
X0133422Y0232451D01*
X0133422Y0233134D02*
X0139578Y0233134D01*
X0139578Y0233817D02*
X0133422Y0233817D01*
X0133422Y0234500D02*
X0139578Y0234500D01*
X0139578Y0235183D02*
X0133422Y0235183D01*
X0133422Y0235866D02*
X0139578Y0235866D01*
X0139578Y0236549D02*
X0133422Y0236549D01*
X0133422Y0237232D02*
X0139578Y0237232D01*
X0139578Y0237915D02*
X0133422Y0237915D01*
X0133422Y0238598D02*
X0139578Y0238598D01*
X0139578Y0239281D02*
X0133422Y0239281D01*
X0133422Y0239964D02*
X0139578Y0239964D01*
X0139578Y0240647D02*
X0133422Y0240647D01*
X0133422Y0241330D02*
X0139578Y0241330D01*
X0139578Y0242013D02*
X0133422Y0242013D01*
D18*
X0158314Y0238900D02*
X0158314Y0236434D01*
X0158314Y0238900D02*
X0160780Y0238900D01*
X0160780Y0236434D01*
X0158314Y0236434D01*
X0158314Y0236802D02*
X0160780Y0236802D01*
X0160780Y0237170D02*
X0158314Y0237170D01*
X0158314Y0237538D02*
X0160780Y0237538D01*
X0160780Y0237906D02*
X0158314Y0237906D01*
X0158314Y0238274D02*
X0160780Y0238274D01*
X0160780Y0238642D02*
X0158314Y0238642D01*
X0164220Y0238900D02*
X0164220Y0236434D01*
X0164220Y0238900D02*
X0166686Y0238900D01*
X0166686Y0236434D01*
X0164220Y0236434D01*
X0164220Y0236802D02*
X0166686Y0236802D01*
X0166686Y0237170D02*
X0164220Y0237170D01*
X0164220Y0237538D02*
X0166686Y0237538D01*
X0166686Y0237906D02*
X0164220Y0237906D01*
X0164220Y0238274D02*
X0166686Y0238274D01*
X0166686Y0238642D02*
X0164220Y0238642D01*
X0218267Y0261947D02*
X0220733Y0261947D01*
X0220733Y0259481D01*
X0218267Y0259481D01*
X0218267Y0261947D01*
X0218267Y0259849D02*
X0220733Y0259849D01*
X0220733Y0260217D02*
X0218267Y0260217D01*
X0218267Y0260585D02*
X0220733Y0260585D01*
X0220733Y0260953D02*
X0218267Y0260953D01*
X0218267Y0261321D02*
X0220733Y0261321D01*
X0220733Y0261689D02*
X0218267Y0261689D01*
X0218267Y0267852D02*
X0220733Y0267852D01*
X0220733Y0265386D01*
X0218267Y0265386D01*
X0218267Y0267852D01*
X0218267Y0265754D02*
X0220733Y0265754D01*
X0220733Y0266122D02*
X0218267Y0266122D01*
X0218267Y0266490D02*
X0220733Y0266490D01*
X0220733Y0266858D02*
X0218267Y0266858D01*
X0218267Y0267226D02*
X0220733Y0267226D01*
X0220733Y0267594D02*
X0218267Y0267594D01*
X0129220Y0317434D02*
X0129220Y0319900D01*
X0131686Y0319900D01*
X0131686Y0317434D01*
X0129220Y0317434D01*
X0129220Y0317802D02*
X0131686Y0317802D01*
X0131686Y0318170D02*
X0129220Y0318170D01*
X0129220Y0318538D02*
X0131686Y0318538D01*
X0131686Y0318906D02*
X0129220Y0318906D01*
X0129220Y0319274D02*
X0131686Y0319274D01*
X0131686Y0319642D02*
X0129220Y0319642D01*
X0129220Y0322434D02*
X0129220Y0324900D01*
X0131686Y0324900D01*
X0131686Y0322434D01*
X0129220Y0322434D01*
X0129220Y0322802D02*
X0131686Y0322802D01*
X0131686Y0323170D02*
X0129220Y0323170D01*
X0129220Y0323538D02*
X0131686Y0323538D01*
X0131686Y0323906D02*
X0129220Y0323906D01*
X0129220Y0324274D02*
X0131686Y0324274D01*
X0131686Y0324642D02*
X0129220Y0324642D01*
X0123314Y0324900D02*
X0123314Y0322434D01*
X0123314Y0324900D02*
X0125780Y0324900D01*
X0125780Y0322434D01*
X0123314Y0322434D01*
X0123314Y0322802D02*
X0125780Y0322802D01*
X0125780Y0323170D02*
X0123314Y0323170D01*
X0123314Y0323538D02*
X0125780Y0323538D01*
X0125780Y0323906D02*
X0123314Y0323906D01*
X0123314Y0324274D02*
X0125780Y0324274D01*
X0125780Y0324642D02*
X0123314Y0324642D01*
X0123314Y0319900D02*
X0123314Y0317434D01*
X0123314Y0319900D02*
X0125780Y0319900D01*
X0125780Y0317434D01*
X0123314Y0317434D01*
X0123314Y0317802D02*
X0125780Y0317802D01*
X0125780Y0318170D02*
X0123314Y0318170D01*
X0123314Y0318538D02*
X0125780Y0318538D01*
X0125780Y0318906D02*
X0123314Y0318906D01*
X0123314Y0319274D02*
X0125780Y0319274D01*
X0125780Y0319642D02*
X0123314Y0319642D01*
X0367780Y0248900D02*
X0367780Y0246434D01*
X0365314Y0246434D01*
X0365314Y0248900D01*
X0367780Y0248900D01*
X0367780Y0246802D02*
X0365314Y0246802D01*
X0365314Y0247170D02*
X0367780Y0247170D01*
X0367780Y0247538D02*
X0365314Y0247538D01*
X0365314Y0247906D02*
X0367780Y0247906D01*
X0367780Y0248274D02*
X0365314Y0248274D01*
X0365314Y0248642D02*
X0367780Y0248642D01*
X0373686Y0248900D02*
X0373686Y0246434D01*
X0371220Y0246434D01*
X0371220Y0248900D01*
X0373686Y0248900D01*
X0373686Y0246802D02*
X0371220Y0246802D01*
X0371220Y0247170D02*
X0373686Y0247170D01*
X0373686Y0247538D02*
X0371220Y0247538D01*
X0371220Y0247906D02*
X0373686Y0247906D01*
X0373686Y0248274D02*
X0371220Y0248274D01*
X0371220Y0248642D02*
X0373686Y0248642D01*
X0373686Y0237900D02*
X0373686Y0235434D01*
X0371220Y0235434D01*
X0371220Y0237900D01*
X0373686Y0237900D01*
X0373686Y0235802D02*
X0371220Y0235802D01*
X0371220Y0236170D02*
X0373686Y0236170D01*
X0373686Y0236538D02*
X0371220Y0236538D01*
X0371220Y0236906D02*
X0373686Y0236906D01*
X0373686Y0237274D02*
X0371220Y0237274D01*
X0371220Y0237642D02*
X0373686Y0237642D01*
X0367780Y0237900D02*
X0367780Y0235434D01*
X0365314Y0235434D01*
X0365314Y0237900D01*
X0367780Y0237900D01*
X0367780Y0235802D02*
X0365314Y0235802D01*
X0365314Y0236170D02*
X0367780Y0236170D01*
X0367780Y0236538D02*
X0365314Y0236538D01*
X0365314Y0236906D02*
X0367780Y0236906D01*
X0367780Y0237274D02*
X0365314Y0237274D01*
X0365314Y0237642D02*
X0367780Y0237642D01*
X0367780Y0227900D02*
X0367780Y0225434D01*
X0365314Y0225434D01*
X0365314Y0227900D01*
X0367780Y0227900D01*
X0367780Y0225802D02*
X0365314Y0225802D01*
X0365314Y0226170D02*
X0367780Y0226170D01*
X0367780Y0226538D02*
X0365314Y0226538D01*
X0365314Y0226906D02*
X0367780Y0226906D01*
X0367780Y0227274D02*
X0365314Y0227274D01*
X0365314Y0227642D02*
X0367780Y0227642D01*
X0373686Y0227900D02*
X0373686Y0225434D01*
X0371220Y0225434D01*
X0371220Y0227900D01*
X0373686Y0227900D01*
X0373686Y0225802D02*
X0371220Y0225802D01*
X0371220Y0226170D02*
X0373686Y0226170D01*
X0373686Y0226538D02*
X0371220Y0226538D01*
X0371220Y0226906D02*
X0373686Y0226906D01*
X0373686Y0227274D02*
X0371220Y0227274D01*
X0371220Y0227642D02*
X0373686Y0227642D01*
X0373686Y0217900D02*
X0373686Y0215434D01*
X0371220Y0215434D01*
X0371220Y0217900D01*
X0373686Y0217900D01*
X0373686Y0215802D02*
X0371220Y0215802D01*
X0371220Y0216170D02*
X0373686Y0216170D01*
X0373686Y0216538D02*
X0371220Y0216538D01*
X0371220Y0216906D02*
X0373686Y0216906D01*
X0373686Y0217274D02*
X0371220Y0217274D01*
X0371220Y0217642D02*
X0373686Y0217642D01*
X0367780Y0217900D02*
X0367780Y0215434D01*
X0365314Y0215434D01*
X0365314Y0217900D01*
X0367780Y0217900D01*
X0367780Y0215802D02*
X0365314Y0215802D01*
X0365314Y0216170D02*
X0367780Y0216170D01*
X0367780Y0216538D02*
X0365314Y0216538D01*
X0365314Y0216906D02*
X0367780Y0216906D01*
X0367780Y0217274D02*
X0365314Y0217274D01*
X0365314Y0217642D02*
X0367780Y0217642D01*
D19*
X0207649Y0219216D02*
X0202547Y0219216D01*
X0202547Y0225118D01*
X0207649Y0225118D01*
X0207649Y0219216D01*
X0207649Y0219782D02*
X0202547Y0219782D01*
X0202547Y0220348D02*
X0207649Y0220348D01*
X0207649Y0220914D02*
X0202547Y0220914D01*
X0202547Y0221480D02*
X0207649Y0221480D01*
X0207649Y0222046D02*
X0202547Y0222046D01*
X0202547Y0222612D02*
X0207649Y0222612D01*
X0207649Y0223178D02*
X0202547Y0223178D01*
X0202547Y0223744D02*
X0207649Y0223744D01*
X0207649Y0224310D02*
X0202547Y0224310D01*
X0202547Y0224876D02*
X0207649Y0224876D01*
X0207649Y0229216D02*
X0202547Y0229216D01*
X0202547Y0235118D01*
X0207649Y0235118D01*
X0207649Y0229216D01*
X0207649Y0229782D02*
X0202547Y0229782D01*
X0202547Y0230348D02*
X0207649Y0230348D01*
X0207649Y0230914D02*
X0202547Y0230914D01*
X0202547Y0231480D02*
X0207649Y0231480D01*
X0207649Y0232046D02*
X0202547Y0232046D01*
X0202547Y0232612D02*
X0207649Y0232612D01*
X0207649Y0233178D02*
X0202547Y0233178D01*
X0202547Y0233744D02*
X0207649Y0233744D01*
X0207649Y0234310D02*
X0202547Y0234310D01*
X0202547Y0234876D02*
X0207649Y0234876D01*
X0207649Y0239216D02*
X0202547Y0239216D01*
X0202547Y0245118D01*
X0207649Y0245118D01*
X0207649Y0239216D01*
X0207649Y0239782D02*
X0202547Y0239782D01*
X0202547Y0240348D02*
X0207649Y0240348D01*
X0207649Y0240914D02*
X0202547Y0240914D01*
X0202547Y0241480D02*
X0207649Y0241480D01*
X0207649Y0242046D02*
X0202547Y0242046D01*
X0202547Y0242612D02*
X0207649Y0242612D01*
X0207649Y0243178D02*
X0202547Y0243178D01*
X0202547Y0243744D02*
X0207649Y0243744D01*
X0207649Y0244310D02*
X0202547Y0244310D01*
X0202547Y0244876D02*
X0207649Y0244876D01*
X0196453Y0239216D02*
X0191351Y0239216D01*
X0191351Y0245118D01*
X0196453Y0245118D01*
X0196453Y0239216D01*
X0196453Y0239782D02*
X0191351Y0239782D01*
X0191351Y0240348D02*
X0196453Y0240348D01*
X0196453Y0240914D02*
X0191351Y0240914D01*
X0191351Y0241480D02*
X0196453Y0241480D01*
X0196453Y0242046D02*
X0191351Y0242046D01*
X0191351Y0242612D02*
X0196453Y0242612D01*
X0196453Y0243178D02*
X0191351Y0243178D01*
X0191351Y0243744D02*
X0196453Y0243744D01*
X0196453Y0244310D02*
X0191351Y0244310D01*
X0191351Y0244876D02*
X0196453Y0244876D01*
X0196453Y0229216D02*
X0191351Y0229216D01*
X0191351Y0235118D01*
X0196453Y0235118D01*
X0196453Y0229216D01*
X0196453Y0229782D02*
X0191351Y0229782D01*
X0191351Y0230348D02*
X0196453Y0230348D01*
X0196453Y0230914D02*
X0191351Y0230914D01*
X0191351Y0231480D02*
X0196453Y0231480D01*
X0196453Y0232046D02*
X0191351Y0232046D01*
X0191351Y0232612D02*
X0196453Y0232612D01*
X0196453Y0233178D02*
X0191351Y0233178D01*
X0191351Y0233744D02*
X0196453Y0233744D01*
X0196453Y0234310D02*
X0191351Y0234310D01*
X0191351Y0234876D02*
X0196453Y0234876D01*
X0196453Y0219216D02*
X0191351Y0219216D01*
X0191351Y0225118D01*
X0196453Y0225118D01*
X0196453Y0219216D01*
X0196453Y0219782D02*
X0191351Y0219782D01*
X0191351Y0220348D02*
X0196453Y0220348D01*
X0196453Y0220914D02*
X0191351Y0220914D01*
X0191351Y0221480D02*
X0196453Y0221480D01*
X0196453Y0222046D02*
X0191351Y0222046D01*
X0191351Y0222612D02*
X0196453Y0222612D01*
X0196453Y0223178D02*
X0191351Y0223178D01*
X0191351Y0223744D02*
X0196453Y0223744D01*
X0196453Y0224310D02*
X0191351Y0224310D01*
X0191351Y0224876D02*
X0196453Y0224876D01*
X0196453Y0209216D02*
X0191351Y0209216D01*
X0191351Y0215118D01*
X0196453Y0215118D01*
X0196453Y0209216D01*
X0196453Y0209782D02*
X0191351Y0209782D01*
X0191351Y0210348D02*
X0196453Y0210348D01*
X0196453Y0210914D02*
X0191351Y0210914D01*
X0191351Y0211480D02*
X0196453Y0211480D01*
X0196453Y0212046D02*
X0191351Y0212046D01*
X0191351Y0212612D02*
X0196453Y0212612D01*
X0196453Y0213178D02*
X0191351Y0213178D01*
X0191351Y0213744D02*
X0196453Y0213744D01*
X0196453Y0214310D02*
X0191351Y0214310D01*
X0191351Y0214876D02*
X0196453Y0214876D01*
X0202547Y0209216D02*
X0207649Y0209216D01*
X0202547Y0209216D02*
X0202547Y0215118D01*
X0207649Y0215118D01*
X0207649Y0209216D01*
X0207649Y0209782D02*
X0202547Y0209782D01*
X0202547Y0210348D02*
X0207649Y0210348D01*
X0207649Y0210914D02*
X0202547Y0210914D01*
X0202547Y0211480D02*
X0207649Y0211480D01*
X0207649Y0212046D02*
X0202547Y0212046D01*
X0202547Y0212612D02*
X0207649Y0212612D01*
X0207649Y0213178D02*
X0202547Y0213178D01*
X0202547Y0213744D02*
X0207649Y0213744D01*
X0207649Y0214310D02*
X0202547Y0214310D01*
X0202547Y0214876D02*
X0207649Y0214876D01*
X0207649Y0199216D02*
X0202547Y0199216D01*
X0202547Y0205118D01*
X0207649Y0205118D01*
X0207649Y0199216D01*
X0207649Y0199782D02*
X0202547Y0199782D01*
X0202547Y0200348D02*
X0207649Y0200348D01*
X0207649Y0200914D02*
X0202547Y0200914D01*
X0202547Y0201480D02*
X0207649Y0201480D01*
X0207649Y0202046D02*
X0202547Y0202046D01*
X0202547Y0202612D02*
X0207649Y0202612D01*
X0207649Y0203178D02*
X0202547Y0203178D01*
X0202547Y0203744D02*
X0207649Y0203744D01*
X0207649Y0204310D02*
X0202547Y0204310D01*
X0202547Y0204876D02*
X0207649Y0204876D01*
X0207649Y0189216D02*
X0202547Y0189216D01*
X0202547Y0195118D01*
X0207649Y0195118D01*
X0207649Y0189216D01*
X0207649Y0189782D02*
X0202547Y0189782D01*
X0202547Y0190348D02*
X0207649Y0190348D01*
X0207649Y0190914D02*
X0202547Y0190914D01*
X0202547Y0191480D02*
X0207649Y0191480D01*
X0207649Y0192046D02*
X0202547Y0192046D01*
X0202547Y0192612D02*
X0207649Y0192612D01*
X0207649Y0193178D02*
X0202547Y0193178D01*
X0202547Y0193744D02*
X0207649Y0193744D01*
X0207649Y0194310D02*
X0202547Y0194310D01*
X0202547Y0194876D02*
X0207649Y0194876D01*
X0196453Y0189216D02*
X0191351Y0189216D01*
X0191351Y0195118D01*
X0196453Y0195118D01*
X0196453Y0189216D01*
X0196453Y0189782D02*
X0191351Y0189782D01*
X0191351Y0190348D02*
X0196453Y0190348D01*
X0196453Y0190914D02*
X0191351Y0190914D01*
X0191351Y0191480D02*
X0196453Y0191480D01*
X0196453Y0192046D02*
X0191351Y0192046D01*
X0191351Y0192612D02*
X0196453Y0192612D01*
X0196453Y0193178D02*
X0191351Y0193178D01*
X0191351Y0193744D02*
X0196453Y0193744D01*
X0196453Y0194310D02*
X0191351Y0194310D01*
X0191351Y0194876D02*
X0196453Y0194876D01*
X0196453Y0199216D02*
X0191351Y0199216D01*
X0191351Y0205118D01*
X0196453Y0205118D01*
X0196453Y0199216D01*
X0196453Y0199782D02*
X0191351Y0199782D01*
X0191351Y0200348D02*
X0196453Y0200348D01*
X0196453Y0200914D02*
X0191351Y0200914D01*
X0191351Y0201480D02*
X0196453Y0201480D01*
X0196453Y0202046D02*
X0191351Y0202046D01*
X0191351Y0202612D02*
X0196453Y0202612D01*
X0196453Y0203178D02*
X0191351Y0203178D01*
X0191351Y0203744D02*
X0196453Y0203744D01*
X0196453Y0204310D02*
X0191351Y0204310D01*
X0191351Y0204876D02*
X0196453Y0204876D01*
X0196453Y0179216D02*
X0191351Y0179216D01*
X0191351Y0185118D01*
X0196453Y0185118D01*
X0196453Y0179216D01*
X0196453Y0179782D02*
X0191351Y0179782D01*
X0191351Y0180348D02*
X0196453Y0180348D01*
X0196453Y0180914D02*
X0191351Y0180914D01*
X0191351Y0181480D02*
X0196453Y0181480D01*
X0196453Y0182046D02*
X0191351Y0182046D01*
X0191351Y0182612D02*
X0196453Y0182612D01*
X0196453Y0183178D02*
X0191351Y0183178D01*
X0191351Y0183744D02*
X0196453Y0183744D01*
X0196453Y0184310D02*
X0191351Y0184310D01*
X0191351Y0184876D02*
X0196453Y0184876D01*
X0202547Y0179216D02*
X0207649Y0179216D01*
X0202547Y0179216D02*
X0202547Y0185118D01*
X0207649Y0185118D01*
X0207649Y0179216D01*
X0207649Y0179782D02*
X0202547Y0179782D01*
X0202547Y0180348D02*
X0207649Y0180348D01*
X0207649Y0180914D02*
X0202547Y0180914D01*
X0202547Y0181480D02*
X0207649Y0181480D01*
X0207649Y0182046D02*
X0202547Y0182046D01*
X0202547Y0182612D02*
X0207649Y0182612D01*
X0207649Y0183178D02*
X0202547Y0183178D01*
X0202547Y0183744D02*
X0207649Y0183744D01*
X0207649Y0184310D02*
X0202547Y0184310D01*
X0202547Y0184876D02*
X0207649Y0184876D01*
X0207649Y0169216D02*
X0202547Y0169216D01*
X0202547Y0175118D01*
X0207649Y0175118D01*
X0207649Y0169216D01*
X0207649Y0169782D02*
X0202547Y0169782D01*
X0202547Y0170348D02*
X0207649Y0170348D01*
X0207649Y0170914D02*
X0202547Y0170914D01*
X0202547Y0171480D02*
X0207649Y0171480D01*
X0207649Y0172046D02*
X0202547Y0172046D01*
X0202547Y0172612D02*
X0207649Y0172612D01*
X0207649Y0173178D02*
X0202547Y0173178D01*
X0202547Y0173744D02*
X0207649Y0173744D01*
X0207649Y0174310D02*
X0202547Y0174310D01*
X0202547Y0174876D02*
X0207649Y0174876D01*
X0196453Y0169216D02*
X0191351Y0169216D01*
X0191351Y0175118D01*
X0196453Y0175118D01*
X0196453Y0169216D01*
X0196453Y0169782D02*
X0191351Y0169782D01*
X0191351Y0170348D02*
X0196453Y0170348D01*
X0196453Y0170914D02*
X0191351Y0170914D01*
X0191351Y0171480D02*
X0196453Y0171480D01*
X0196453Y0172046D02*
X0191351Y0172046D01*
X0191351Y0172612D02*
X0196453Y0172612D01*
X0196453Y0173178D02*
X0191351Y0173178D01*
X0191351Y0173744D02*
X0196453Y0173744D01*
X0196453Y0174310D02*
X0191351Y0174310D01*
X0191351Y0174876D02*
X0196453Y0174876D01*
X0196453Y0159216D02*
X0191351Y0159216D01*
X0191351Y0165118D01*
X0196453Y0165118D01*
X0196453Y0159216D01*
X0196453Y0159782D02*
X0191351Y0159782D01*
X0191351Y0160348D02*
X0196453Y0160348D01*
X0196453Y0160914D02*
X0191351Y0160914D01*
X0191351Y0161480D02*
X0196453Y0161480D01*
X0196453Y0162046D02*
X0191351Y0162046D01*
X0191351Y0162612D02*
X0196453Y0162612D01*
X0196453Y0163178D02*
X0191351Y0163178D01*
X0191351Y0163744D02*
X0196453Y0163744D01*
X0196453Y0164310D02*
X0191351Y0164310D01*
X0191351Y0164876D02*
X0196453Y0164876D01*
X0202547Y0159216D02*
X0207649Y0159216D01*
X0202547Y0159216D02*
X0202547Y0165118D01*
X0207649Y0165118D01*
X0207649Y0159216D01*
X0207649Y0159782D02*
X0202547Y0159782D01*
X0202547Y0160348D02*
X0207649Y0160348D01*
X0207649Y0160914D02*
X0202547Y0160914D01*
X0202547Y0161480D02*
X0207649Y0161480D01*
X0207649Y0162046D02*
X0202547Y0162046D01*
X0202547Y0162612D02*
X0207649Y0162612D01*
X0207649Y0163178D02*
X0202547Y0163178D01*
X0202547Y0163744D02*
X0207649Y0163744D01*
X0207649Y0164310D02*
X0202547Y0164310D01*
X0202547Y0164876D02*
X0207649Y0164876D01*
D20*
X0155644Y0196623D02*
X0155644Y0200511D01*
X0155644Y0196623D02*
X0147756Y0196623D01*
X0147756Y0200511D01*
X0155644Y0200511D01*
X0155644Y0197054D02*
X0147756Y0197054D01*
X0147756Y0197485D02*
X0155644Y0197485D01*
X0155644Y0197916D02*
X0147756Y0197916D01*
X0147756Y0198347D02*
X0155644Y0198347D01*
X0155644Y0198778D02*
X0147756Y0198778D01*
X0147756Y0199209D02*
X0155644Y0199209D01*
X0155644Y0199640D02*
X0147756Y0199640D01*
X0147756Y0200071D02*
X0155644Y0200071D01*
X0155644Y0200502D02*
X0147756Y0200502D01*
X0155644Y0205723D02*
X0155644Y0209611D01*
X0155644Y0205723D02*
X0147756Y0205723D01*
X0147756Y0209611D01*
X0155644Y0209611D01*
X0155644Y0206154D02*
X0147756Y0206154D01*
X0147756Y0206585D02*
X0155644Y0206585D01*
X0155644Y0207016D02*
X0147756Y0207016D01*
X0147756Y0207447D02*
X0155644Y0207447D01*
X0155644Y0207878D02*
X0147756Y0207878D01*
X0147756Y0208309D02*
X0155644Y0208309D01*
X0155644Y0208740D02*
X0147756Y0208740D01*
X0147756Y0209171D02*
X0155644Y0209171D01*
X0155644Y0209602D02*
X0147756Y0209602D01*
X0155644Y0214823D02*
X0155644Y0218711D01*
X0155644Y0214823D02*
X0147756Y0214823D01*
X0147756Y0218711D01*
X0155644Y0218711D01*
X0155644Y0215254D02*
X0147756Y0215254D01*
X0147756Y0215685D02*
X0155644Y0215685D01*
X0155644Y0216116D02*
X0147756Y0216116D01*
X0147756Y0216547D02*
X0155644Y0216547D01*
X0155644Y0216978D02*
X0147756Y0216978D01*
X0147756Y0217409D02*
X0155644Y0217409D01*
X0155644Y0217840D02*
X0147756Y0217840D01*
X0147756Y0218271D02*
X0155644Y0218271D01*
X0155644Y0218702D02*
X0147756Y0218702D01*
D21*
X0130806Y0213930D02*
X0130806Y0201404D01*
X0123792Y0201404D01*
X0123792Y0213930D01*
X0130806Y0213930D01*
X0130806Y0202183D02*
X0123792Y0202183D01*
X0123792Y0202962D02*
X0130806Y0202962D01*
X0130806Y0203741D02*
X0123792Y0203741D01*
X0123792Y0204520D02*
X0130806Y0204520D01*
X0130806Y0205299D02*
X0123792Y0205299D01*
X0123792Y0206078D02*
X0130806Y0206078D01*
X0130806Y0206857D02*
X0123792Y0206857D01*
X0123792Y0207636D02*
X0130806Y0207636D01*
X0130806Y0208415D02*
X0123792Y0208415D01*
X0123792Y0209194D02*
X0130806Y0209194D01*
X0130806Y0209973D02*
X0123792Y0209973D01*
X0123792Y0210752D02*
X0130806Y0210752D01*
X0130806Y0211531D02*
X0123792Y0211531D01*
X0123792Y0212310D02*
X0130806Y0212310D01*
X0130806Y0213089D02*
X0123792Y0213089D01*
X0123792Y0213868D02*
X0130806Y0213868D01*
D22*
X0132887Y0191859D02*
X0139105Y0191859D01*
X0139105Y0183475D01*
X0132887Y0183475D01*
X0132887Y0191859D01*
X0132887Y0184165D02*
X0139105Y0184165D01*
X0139105Y0184855D02*
X0132887Y0184855D01*
X0132887Y0185545D02*
X0139105Y0185545D01*
X0139105Y0186235D02*
X0132887Y0186235D01*
X0132887Y0186925D02*
X0139105Y0186925D01*
X0139105Y0187615D02*
X0132887Y0187615D01*
X0132887Y0188305D02*
X0139105Y0188305D01*
X0139105Y0188995D02*
X0132887Y0188995D01*
X0132887Y0189685D02*
X0139105Y0189685D01*
X0139105Y0190375D02*
X0132887Y0190375D01*
X0132887Y0191065D02*
X0139105Y0191065D01*
X0139105Y0191755D02*
X0132887Y0191755D01*
X0144895Y0191859D02*
X0151113Y0191859D01*
X0151113Y0183475D01*
X0144895Y0183475D01*
X0144895Y0191859D01*
X0144895Y0184165D02*
X0151113Y0184165D01*
X0151113Y0184855D02*
X0144895Y0184855D01*
X0144895Y0185545D02*
X0151113Y0185545D01*
X0151113Y0186235D02*
X0144895Y0186235D01*
X0144895Y0186925D02*
X0151113Y0186925D01*
X0151113Y0187615D02*
X0144895Y0187615D01*
X0144895Y0188305D02*
X0151113Y0188305D01*
X0151113Y0188995D02*
X0144895Y0188995D01*
X0144895Y0189685D02*
X0151113Y0189685D01*
X0151113Y0190375D02*
X0144895Y0190375D01*
X0144895Y0191065D02*
X0151113Y0191065D01*
X0151113Y0191755D02*
X0144895Y0191755D01*
D23*
X0349572Y0203195D02*
X0354028Y0203195D01*
X0354028Y0195939D01*
X0349572Y0195939D01*
X0349572Y0203195D01*
X0349572Y0196433D02*
X0354028Y0196433D01*
X0354028Y0196927D02*
X0349572Y0196927D01*
X0349572Y0197421D02*
X0354028Y0197421D01*
X0354028Y0197915D02*
X0349572Y0197915D01*
X0349572Y0198409D02*
X0354028Y0198409D01*
X0354028Y0198903D02*
X0349572Y0198903D01*
X0349572Y0199397D02*
X0354028Y0199397D01*
X0354028Y0199891D02*
X0349572Y0199891D01*
X0349572Y0200385D02*
X0354028Y0200385D01*
X0354028Y0200879D02*
X0349572Y0200879D01*
X0349572Y0201373D02*
X0354028Y0201373D01*
X0354028Y0201867D02*
X0349572Y0201867D01*
X0349572Y0202361D02*
X0354028Y0202361D01*
X0354028Y0202855D02*
X0349572Y0202855D01*
X0367272Y0203195D02*
X0371728Y0203195D01*
X0371728Y0195939D01*
X0367272Y0195939D01*
X0367272Y0203195D01*
X0367272Y0196433D02*
X0371728Y0196433D01*
X0371728Y0196927D02*
X0367272Y0196927D01*
X0367272Y0197421D02*
X0371728Y0197421D01*
X0371728Y0197915D02*
X0367272Y0197915D01*
X0367272Y0198409D02*
X0371728Y0198409D01*
X0371728Y0198903D02*
X0367272Y0198903D01*
X0367272Y0199397D02*
X0371728Y0199397D01*
X0371728Y0199891D02*
X0367272Y0199891D01*
X0367272Y0200385D02*
X0371728Y0200385D01*
X0371728Y0200879D02*
X0367272Y0200879D01*
X0367272Y0201373D02*
X0371728Y0201373D01*
X0371728Y0201867D02*
X0367272Y0201867D01*
X0367272Y0202361D02*
X0371728Y0202361D01*
X0371728Y0202855D02*
X0367272Y0202855D01*
X0367272Y0167295D02*
X0371728Y0167295D01*
X0371728Y0160039D01*
X0367272Y0160039D01*
X0367272Y0167295D01*
X0367272Y0160533D02*
X0371728Y0160533D01*
X0371728Y0161027D02*
X0367272Y0161027D01*
X0367272Y0161521D02*
X0371728Y0161521D01*
X0371728Y0162015D02*
X0367272Y0162015D01*
X0367272Y0162509D02*
X0371728Y0162509D01*
X0371728Y0163003D02*
X0367272Y0163003D01*
X0367272Y0163497D02*
X0371728Y0163497D01*
X0371728Y0163991D02*
X0367272Y0163991D01*
X0367272Y0164485D02*
X0371728Y0164485D01*
X0371728Y0164979D02*
X0367272Y0164979D01*
X0367272Y0165473D02*
X0371728Y0165473D01*
X0371728Y0165967D02*
X0367272Y0165967D01*
X0367272Y0166461D02*
X0371728Y0166461D01*
X0371728Y0166955D02*
X0367272Y0166955D01*
X0354028Y0167295D02*
X0349572Y0167295D01*
X0354028Y0167295D02*
X0354028Y0160039D01*
X0349572Y0160039D01*
X0349572Y0167295D01*
X0349572Y0160533D02*
X0354028Y0160533D01*
X0354028Y0161027D02*
X0349572Y0161027D01*
X0349572Y0161521D02*
X0354028Y0161521D01*
X0354028Y0162015D02*
X0349572Y0162015D01*
X0349572Y0162509D02*
X0354028Y0162509D01*
X0354028Y0163003D02*
X0349572Y0163003D01*
X0349572Y0163497D02*
X0354028Y0163497D01*
X0354028Y0163991D02*
X0349572Y0163991D01*
X0349572Y0164485D02*
X0354028Y0164485D01*
X0354028Y0164979D02*
X0349572Y0164979D01*
X0349572Y0165473D02*
X0354028Y0165473D01*
X0354028Y0165967D02*
X0349572Y0165967D01*
X0349572Y0166461D02*
X0354028Y0166461D01*
X0354028Y0166955D02*
X0349572Y0166955D01*
X0349572Y0267295D02*
X0354028Y0267295D01*
X0354028Y0260039D01*
X0349572Y0260039D01*
X0349572Y0267295D01*
X0349572Y0260533D02*
X0354028Y0260533D01*
X0354028Y0261027D02*
X0349572Y0261027D01*
X0349572Y0261521D02*
X0354028Y0261521D01*
X0354028Y0262015D02*
X0349572Y0262015D01*
X0349572Y0262509D02*
X0354028Y0262509D01*
X0354028Y0263003D02*
X0349572Y0263003D01*
X0349572Y0263497D02*
X0354028Y0263497D01*
X0354028Y0263991D02*
X0349572Y0263991D01*
X0349572Y0264485D02*
X0354028Y0264485D01*
X0354028Y0264979D02*
X0349572Y0264979D01*
X0349572Y0265473D02*
X0354028Y0265473D01*
X0354028Y0265967D02*
X0349572Y0265967D01*
X0349572Y0266461D02*
X0354028Y0266461D01*
X0354028Y0266955D02*
X0349572Y0266955D01*
X0367272Y0267295D02*
X0371728Y0267295D01*
X0371728Y0260039D01*
X0367272Y0260039D01*
X0367272Y0267295D01*
X0367272Y0260533D02*
X0371728Y0260533D01*
X0371728Y0261027D02*
X0367272Y0261027D01*
X0367272Y0261521D02*
X0371728Y0261521D01*
X0371728Y0262015D02*
X0367272Y0262015D01*
X0367272Y0262509D02*
X0371728Y0262509D01*
X0371728Y0263003D02*
X0367272Y0263003D01*
X0367272Y0263497D02*
X0371728Y0263497D01*
X0371728Y0263991D02*
X0367272Y0263991D01*
X0367272Y0264485D02*
X0371728Y0264485D01*
X0371728Y0264979D02*
X0367272Y0264979D01*
X0367272Y0265473D02*
X0371728Y0265473D01*
X0371728Y0265967D02*
X0367272Y0265967D01*
X0367272Y0266461D02*
X0371728Y0266461D01*
X0371728Y0266955D02*
X0367272Y0266955D01*
X0367272Y0303195D02*
X0371728Y0303195D01*
X0371728Y0295939D01*
X0367272Y0295939D01*
X0367272Y0303195D01*
X0367272Y0296433D02*
X0371728Y0296433D01*
X0371728Y0296927D02*
X0367272Y0296927D01*
X0367272Y0297421D02*
X0371728Y0297421D01*
X0371728Y0297915D02*
X0367272Y0297915D01*
X0367272Y0298409D02*
X0371728Y0298409D01*
X0371728Y0298903D02*
X0367272Y0298903D01*
X0367272Y0299397D02*
X0371728Y0299397D01*
X0371728Y0299891D02*
X0367272Y0299891D01*
X0367272Y0300385D02*
X0371728Y0300385D01*
X0371728Y0300879D02*
X0367272Y0300879D01*
X0367272Y0301373D02*
X0371728Y0301373D01*
X0371728Y0301867D02*
X0367272Y0301867D01*
X0367272Y0302361D02*
X0371728Y0302361D01*
X0371728Y0302855D02*
X0367272Y0302855D01*
X0354028Y0303195D02*
X0349572Y0303195D01*
X0354028Y0303195D02*
X0354028Y0295939D01*
X0349572Y0295939D01*
X0349572Y0303195D01*
X0349572Y0296433D02*
X0354028Y0296433D01*
X0354028Y0296927D02*
X0349572Y0296927D01*
X0349572Y0297421D02*
X0354028Y0297421D01*
X0354028Y0297915D02*
X0349572Y0297915D01*
X0349572Y0298409D02*
X0354028Y0298409D01*
X0354028Y0298903D02*
X0349572Y0298903D01*
X0349572Y0299397D02*
X0354028Y0299397D01*
X0354028Y0299891D02*
X0349572Y0299891D01*
X0349572Y0300385D02*
X0354028Y0300385D01*
X0354028Y0300879D02*
X0349572Y0300879D01*
X0349572Y0301373D02*
X0354028Y0301373D01*
X0354028Y0301867D02*
X0349572Y0301867D01*
X0349572Y0302361D02*
X0354028Y0302361D01*
X0354028Y0302855D02*
X0349572Y0302855D01*
D24*
X0158517Y0218374D02*
X0158517Y0212314D01*
X0158517Y0218374D02*
X0170483Y0218374D01*
X0170483Y0212314D01*
X0158517Y0212314D01*
X0158517Y0212986D02*
X0170483Y0212986D01*
X0170483Y0213658D02*
X0158517Y0213658D01*
X0158517Y0214330D02*
X0170483Y0214330D01*
X0170483Y0215002D02*
X0158517Y0215002D01*
X0158517Y0215674D02*
X0170483Y0215674D01*
X0170483Y0216346D02*
X0158517Y0216346D01*
X0158517Y0217018D02*
X0170483Y0217018D01*
X0170483Y0217690D02*
X0158517Y0217690D01*
X0158517Y0218362D02*
X0170483Y0218362D01*
X0158517Y0203019D02*
X0158517Y0196959D01*
X0158517Y0203019D02*
X0170483Y0203019D01*
X0170483Y0196959D01*
X0158517Y0196959D01*
X0158517Y0197631D02*
X0170483Y0197631D01*
X0170483Y0198303D02*
X0158517Y0198303D01*
X0158517Y0198975D02*
X0170483Y0198975D01*
X0170483Y0199647D02*
X0158517Y0199647D01*
X0158517Y0200319D02*
X0170483Y0200319D01*
X0170483Y0200991D02*
X0158517Y0200991D01*
X0158517Y0201663D02*
X0170483Y0201663D01*
X0170483Y0202335D02*
X0158517Y0202335D01*
X0158517Y0203007D02*
X0170483Y0203007D01*
D25*
X0288191Y0190469D02*
X0288191Y0186865D01*
X0288191Y0190469D02*
X0296951Y0190469D01*
X0296951Y0186865D01*
X0288191Y0186865D01*
X0288191Y0187264D02*
X0296951Y0187264D01*
X0296951Y0187663D02*
X0288191Y0187663D01*
X0288191Y0188062D02*
X0296951Y0188062D01*
X0296951Y0188461D02*
X0288191Y0188461D01*
X0288191Y0188860D02*
X0296951Y0188860D01*
X0296951Y0189259D02*
X0288191Y0189259D01*
X0288191Y0189658D02*
X0296951Y0189658D01*
X0296951Y0190057D02*
X0288191Y0190057D01*
X0288191Y0190456D02*
X0296951Y0190456D01*
X0288191Y0180469D02*
X0288191Y0176865D01*
X0288191Y0180469D02*
X0296951Y0180469D01*
X0296951Y0176865D01*
X0288191Y0176865D01*
X0288191Y0177264D02*
X0296951Y0177264D01*
X0296951Y0177663D02*
X0288191Y0177663D01*
X0288191Y0178062D02*
X0296951Y0178062D01*
X0296951Y0178461D02*
X0288191Y0178461D01*
X0288191Y0178860D02*
X0296951Y0178860D01*
X0296951Y0179259D02*
X0288191Y0179259D01*
X0288191Y0179658D02*
X0296951Y0179658D01*
X0296951Y0180057D02*
X0288191Y0180057D01*
X0288191Y0180456D02*
X0296951Y0180456D01*
X0288191Y0170469D02*
X0288191Y0166865D01*
X0288191Y0170469D02*
X0296951Y0170469D01*
X0296951Y0166865D01*
X0288191Y0166865D01*
X0288191Y0167264D02*
X0296951Y0167264D01*
X0296951Y0167663D02*
X0288191Y0167663D01*
X0288191Y0168062D02*
X0296951Y0168062D01*
X0296951Y0168461D02*
X0288191Y0168461D01*
X0288191Y0168860D02*
X0296951Y0168860D01*
X0296951Y0169259D02*
X0288191Y0169259D01*
X0288191Y0169658D02*
X0296951Y0169658D01*
X0296951Y0170057D02*
X0288191Y0170057D01*
X0288191Y0170456D02*
X0296951Y0170456D01*
X0330809Y0170469D02*
X0330809Y0166865D01*
X0322049Y0166865D01*
X0322049Y0170469D01*
X0330809Y0170469D01*
X0330809Y0167264D02*
X0322049Y0167264D01*
X0322049Y0167663D02*
X0330809Y0167663D01*
X0330809Y0168062D02*
X0322049Y0168062D01*
X0322049Y0168461D02*
X0330809Y0168461D01*
X0330809Y0168860D02*
X0322049Y0168860D01*
X0322049Y0169259D02*
X0330809Y0169259D01*
X0330809Y0169658D02*
X0322049Y0169658D01*
X0322049Y0170057D02*
X0330809Y0170057D01*
X0330809Y0170456D02*
X0322049Y0170456D01*
X0330809Y0176865D02*
X0330809Y0180469D01*
X0330809Y0176865D02*
X0322049Y0176865D01*
X0322049Y0180469D01*
X0330809Y0180469D01*
X0330809Y0177264D02*
X0322049Y0177264D01*
X0322049Y0177663D02*
X0330809Y0177663D01*
X0330809Y0178062D02*
X0322049Y0178062D01*
X0322049Y0178461D02*
X0330809Y0178461D01*
X0330809Y0178860D02*
X0322049Y0178860D01*
X0322049Y0179259D02*
X0330809Y0179259D01*
X0330809Y0179658D02*
X0322049Y0179658D01*
X0322049Y0180057D02*
X0330809Y0180057D01*
X0330809Y0180456D02*
X0322049Y0180456D01*
X0330809Y0186865D02*
X0330809Y0190469D01*
X0330809Y0186865D02*
X0322049Y0186865D01*
X0322049Y0190469D01*
X0330809Y0190469D01*
X0330809Y0187264D02*
X0322049Y0187264D01*
X0322049Y0187663D02*
X0330809Y0187663D01*
X0330809Y0188062D02*
X0322049Y0188062D01*
X0322049Y0188461D02*
X0330809Y0188461D01*
X0330809Y0188860D02*
X0322049Y0188860D01*
X0322049Y0189259D02*
X0330809Y0189259D01*
X0330809Y0189658D02*
X0322049Y0189658D01*
X0322049Y0190057D02*
X0330809Y0190057D01*
X0330809Y0190456D02*
X0322049Y0190456D01*
D26*
X0278832Y0185449D02*
X0278832Y0181885D01*
X0270068Y0181885D01*
X0270068Y0185449D01*
X0278832Y0185449D01*
X0278832Y0182280D02*
X0270068Y0182280D01*
X0270068Y0182675D02*
X0278832Y0182675D01*
X0278832Y0183070D02*
X0270068Y0183070D01*
X0270068Y0183465D02*
X0278832Y0183465D01*
X0278832Y0183860D02*
X0270068Y0183860D01*
X0270068Y0184255D02*
X0278832Y0184255D01*
X0278832Y0184650D02*
X0270068Y0184650D01*
X0270068Y0185045D02*
X0278832Y0185045D01*
X0278832Y0185440D02*
X0270068Y0185440D01*
X0278832Y0175449D02*
X0278832Y0171885D01*
X0270068Y0171885D01*
X0270068Y0175449D01*
X0278832Y0175449D01*
X0278832Y0172280D02*
X0270068Y0172280D01*
X0270068Y0172675D02*
X0278832Y0172675D01*
X0278832Y0173070D02*
X0270068Y0173070D01*
X0270068Y0173465D02*
X0278832Y0173465D01*
X0278832Y0173860D02*
X0270068Y0173860D01*
X0270068Y0174255D02*
X0278832Y0174255D01*
X0278832Y0174650D02*
X0270068Y0174650D01*
X0270068Y0175045D02*
X0278832Y0175045D01*
X0278832Y0175440D02*
X0270068Y0175440D01*
X0244932Y0175449D02*
X0244932Y0171885D01*
X0236168Y0171885D01*
X0236168Y0175449D01*
X0244932Y0175449D01*
X0244932Y0172280D02*
X0236168Y0172280D01*
X0236168Y0172675D02*
X0244932Y0172675D01*
X0244932Y0173070D02*
X0236168Y0173070D01*
X0236168Y0173465D02*
X0244932Y0173465D01*
X0244932Y0173860D02*
X0236168Y0173860D01*
X0236168Y0174255D02*
X0244932Y0174255D01*
X0244932Y0174650D02*
X0236168Y0174650D01*
X0236168Y0175045D02*
X0244932Y0175045D01*
X0244932Y0175440D02*
X0236168Y0175440D01*
X0244932Y0181885D02*
X0244932Y0185449D01*
X0244932Y0181885D02*
X0236168Y0181885D01*
X0236168Y0185449D01*
X0244932Y0185449D01*
X0244932Y0182280D02*
X0236168Y0182280D01*
X0236168Y0182675D02*
X0244932Y0182675D01*
X0244932Y0183070D02*
X0236168Y0183070D01*
X0236168Y0183465D02*
X0244932Y0183465D01*
X0244932Y0183860D02*
X0236168Y0183860D01*
X0236168Y0184255D02*
X0244932Y0184255D01*
X0244932Y0184650D02*
X0236168Y0184650D01*
X0236168Y0185045D02*
X0244932Y0185045D01*
X0244932Y0185440D02*
X0236168Y0185440D01*
D27*
X0288052Y0296054D02*
X0288052Y0298162D01*
X0290948Y0298162D01*
X0290948Y0296054D01*
X0288052Y0296054D01*
X0288052Y0296425D02*
X0290948Y0296425D01*
X0290948Y0296796D02*
X0288052Y0296796D01*
X0288052Y0297167D02*
X0290948Y0297167D01*
X0290948Y0297538D02*
X0288052Y0297538D01*
X0288052Y0297909D02*
X0290948Y0297909D01*
X0293052Y0298162D02*
X0293052Y0296054D01*
X0293052Y0298162D02*
X0295948Y0298162D01*
X0295948Y0296054D01*
X0293052Y0296054D01*
X0293052Y0296425D02*
X0295948Y0296425D01*
X0295948Y0296796D02*
X0293052Y0296796D01*
X0293052Y0297167D02*
X0295948Y0297167D01*
X0295948Y0297538D02*
X0293052Y0297538D01*
X0293052Y0297909D02*
X0295948Y0297909D01*
X0298052Y0298162D02*
X0298052Y0296054D01*
X0298052Y0298162D02*
X0300948Y0298162D01*
X0300948Y0296054D01*
X0298052Y0296054D01*
X0298052Y0296425D02*
X0300948Y0296425D01*
X0300948Y0296796D02*
X0298052Y0296796D01*
X0298052Y0297167D02*
X0300948Y0297167D01*
X0300948Y0297538D02*
X0298052Y0297538D01*
X0298052Y0297909D02*
X0300948Y0297909D01*
X0303052Y0298162D02*
X0303052Y0296054D01*
X0303052Y0298162D02*
X0305948Y0298162D01*
X0305948Y0296054D01*
X0303052Y0296054D01*
X0303052Y0296425D02*
X0305948Y0296425D01*
X0305948Y0296796D02*
X0303052Y0296796D01*
X0303052Y0297167D02*
X0305948Y0297167D01*
X0305948Y0297538D02*
X0303052Y0297538D01*
X0303052Y0297909D02*
X0305948Y0297909D01*
X0308052Y0298162D02*
X0308052Y0296054D01*
X0308052Y0298162D02*
X0310948Y0298162D01*
X0310948Y0296054D01*
X0308052Y0296054D01*
X0308052Y0296425D02*
X0310948Y0296425D01*
X0310948Y0296796D02*
X0308052Y0296796D01*
X0308052Y0297167D02*
X0310948Y0297167D01*
X0310948Y0297538D02*
X0308052Y0297538D01*
X0308052Y0297909D02*
X0310948Y0297909D01*
X0313052Y0298162D02*
X0313052Y0296054D01*
X0313052Y0298162D02*
X0315948Y0298162D01*
X0315948Y0296054D01*
X0313052Y0296054D01*
X0313052Y0296425D02*
X0315948Y0296425D01*
X0315948Y0296796D02*
X0313052Y0296796D01*
X0313052Y0297167D02*
X0315948Y0297167D01*
X0315948Y0297538D02*
X0313052Y0297538D01*
X0313052Y0297909D02*
X0315948Y0297909D01*
X0318052Y0298162D02*
X0318052Y0296054D01*
X0318052Y0298162D02*
X0320948Y0298162D01*
X0320948Y0296054D01*
X0318052Y0296054D01*
X0318052Y0296425D02*
X0320948Y0296425D01*
X0320948Y0296796D02*
X0318052Y0296796D01*
X0318052Y0297167D02*
X0320948Y0297167D01*
X0320948Y0297538D02*
X0318052Y0297538D01*
X0318052Y0297909D02*
X0320948Y0297909D01*
X0323052Y0298162D02*
X0323052Y0296054D01*
X0323052Y0298162D02*
X0325948Y0298162D01*
X0325948Y0296054D01*
X0323052Y0296054D01*
X0323052Y0296425D02*
X0325948Y0296425D01*
X0325948Y0296796D02*
X0323052Y0296796D01*
X0323052Y0297167D02*
X0325948Y0297167D01*
X0325948Y0297538D02*
X0323052Y0297538D01*
X0323052Y0297909D02*
X0325948Y0297909D01*
X0323052Y0301172D02*
X0323052Y0303280D01*
X0325948Y0303280D01*
X0325948Y0301172D01*
X0323052Y0301172D01*
X0323052Y0301543D02*
X0325948Y0301543D01*
X0325948Y0301914D02*
X0323052Y0301914D01*
X0323052Y0302285D02*
X0325948Y0302285D01*
X0325948Y0302656D02*
X0323052Y0302656D01*
X0323052Y0303027D02*
X0325948Y0303027D01*
X0318052Y0303280D02*
X0318052Y0301172D01*
X0318052Y0303280D02*
X0320948Y0303280D01*
X0320948Y0301172D01*
X0318052Y0301172D01*
X0318052Y0301543D02*
X0320948Y0301543D01*
X0320948Y0301914D02*
X0318052Y0301914D01*
X0318052Y0302285D02*
X0320948Y0302285D01*
X0320948Y0302656D02*
X0318052Y0302656D01*
X0318052Y0303027D02*
X0320948Y0303027D01*
X0313052Y0303280D02*
X0313052Y0301172D01*
X0313052Y0303280D02*
X0315948Y0303280D01*
X0315948Y0301172D01*
X0313052Y0301172D01*
X0313052Y0301543D02*
X0315948Y0301543D01*
X0315948Y0301914D02*
X0313052Y0301914D01*
X0313052Y0302285D02*
X0315948Y0302285D01*
X0315948Y0302656D02*
X0313052Y0302656D01*
X0313052Y0303027D02*
X0315948Y0303027D01*
X0308052Y0303280D02*
X0308052Y0301172D01*
X0308052Y0303280D02*
X0310948Y0303280D01*
X0310948Y0301172D01*
X0308052Y0301172D01*
X0308052Y0301543D02*
X0310948Y0301543D01*
X0310948Y0301914D02*
X0308052Y0301914D01*
X0308052Y0302285D02*
X0310948Y0302285D01*
X0310948Y0302656D02*
X0308052Y0302656D01*
X0308052Y0303027D02*
X0310948Y0303027D01*
X0303052Y0303280D02*
X0303052Y0301172D01*
X0303052Y0303280D02*
X0305948Y0303280D01*
X0305948Y0301172D01*
X0303052Y0301172D01*
X0303052Y0301543D02*
X0305948Y0301543D01*
X0305948Y0301914D02*
X0303052Y0301914D01*
X0303052Y0302285D02*
X0305948Y0302285D01*
X0305948Y0302656D02*
X0303052Y0302656D01*
X0303052Y0303027D02*
X0305948Y0303027D01*
X0298052Y0303280D02*
X0298052Y0301172D01*
X0298052Y0303280D02*
X0300948Y0303280D01*
X0300948Y0301172D01*
X0298052Y0301172D01*
X0298052Y0301543D02*
X0300948Y0301543D01*
X0300948Y0301914D02*
X0298052Y0301914D01*
X0298052Y0302285D02*
X0300948Y0302285D01*
X0300948Y0302656D02*
X0298052Y0302656D01*
X0298052Y0303027D02*
X0300948Y0303027D01*
X0293052Y0303280D02*
X0293052Y0301172D01*
X0293052Y0303280D02*
X0295948Y0303280D01*
X0295948Y0301172D01*
X0293052Y0301172D01*
X0293052Y0301543D02*
X0295948Y0301543D01*
X0295948Y0301914D02*
X0293052Y0301914D01*
X0293052Y0302285D02*
X0295948Y0302285D01*
X0295948Y0302656D02*
X0293052Y0302656D01*
X0293052Y0303027D02*
X0295948Y0303027D01*
X0288052Y0303280D02*
X0288052Y0301172D01*
X0288052Y0303280D02*
X0290948Y0303280D01*
X0290948Y0301172D01*
X0288052Y0301172D01*
X0288052Y0301543D02*
X0290948Y0301543D01*
X0290948Y0301914D02*
X0288052Y0301914D01*
X0288052Y0302285D02*
X0290948Y0302285D01*
X0290948Y0302656D02*
X0288052Y0302656D01*
X0288052Y0303027D02*
X0290948Y0303027D01*
M02*
