*
*
G04 PADS Layout (Build Number 2008.43.1) generated Gerber (RS-274-X) file*
G04 PC Version=2.1*
*
%IN "TEX003.pcb"*%
*
%MOIN*%
*
%FSLAX35Y35*%
*
*
*
*
G04 PC Standard Apertures*
*
*
G04 Thermal Relief Aperture macro.*
%AMTER*
1,1,$1,0,0*
1,0,$1-$2,0,0*
21,0,$3,$4,0,0,45*
21,0,$3,$4,0,0,135*
%
*
*
G04 Annular Aperture macro.*
%AMANN*
1,1,$1,0,0*
1,0,$2,0,0*
%
*
*
G04 Odd Aperture macro.*
%AMODD*
1,1,$1,0,0*
1,0,$1-0.005,0,0*
%
*
*
G04 PC Custom Aperture Macros*
*
*
*
*
*
*
G04 PC Aperture Table*
*
%ADD027C,0.01*%
%ADD028C,0.005*%
%ADD030C,0.02*%
%ADD031C,0.028*%
%ADD032C,0.018*%
%ADD033C,0.008*%
%ADD038C,0.004*%
%ADD060C,0*%
%ADD069C,0.03*%
*
*
*
*
G04 PC Circuitry*
G04 Layer Name TEX003.pcb - circuitry*
%LPD*%
*
*
G04 PC Custom Flashes*
G04 Layer Name TEX003.pcb - flashes*
%LPD*%
*
*
G04 PC Circuitry*
G04 Layer Name TEX003.pcb - circuitry*
%LPD*%
*
G54D27*
G01X1293580Y664184D02*
Y654341D01*
X1297670*
X1303466Y664184D02*
X1300739Y654341D01*
X1303466Y664184D02*
X1306193Y654341D01*
X1301761Y657622D02*
X1305170D01*
X1309261Y664184D02*
X1311989Y659497D01*
Y654341*
X1314716Y664184D02*
X1311989Y659497D01*
X1317784Y664184D02*
Y654341D01*
Y664184D02*
X1322216D01*
X1317784Y659497D02*
X1320511D01*
X1317784Y654341D02*
X1322216D01*
X1325284Y664184D02*
Y654341D01*
Y664184D02*
X1328352D01*
X1329375Y663716*
X1329716Y663247*
X1330057Y662309*
Y661372*
X1329716Y660434*
X1329375Y659966*
X1328352Y659497*
X1325284*
X1327670D02*
X1330057Y654341D01*
X1035078Y707903D02*
Y698060D01*
Y707903D02*
X1038146D01*
X1039169Y707435*
X1039509Y706966*
X1039850Y706028*
Y704622*
X1039509Y703685*
X1039169Y703216*
X1038146Y702747*
X1035078*
X1042919Y707903D02*
Y698060D01*
X1047691Y707903D02*
Y698060D01*
X1042919Y703216D02*
X1047691D01*
X1052805Y707903D02*
X1052123Y707435D01*
X1051441Y706497*
X1051100Y705560*
X1050759Y704153*
Y701810*
X1051100Y700403*
X1051441Y699466*
X1052123Y698528*
X1052805Y698060*
X1054169*
X1054850Y698528*
X1055532Y699466*
X1055873Y700403*
X1056214Y701810*
Y704153*
X1055873Y705560*
X1055532Y706497*
X1054850Y707435*
X1054169Y707903*
X1052805*
X1059282D02*
Y698060D01*
Y707903D02*
X1064055Y698060D01*
Y707903D02*
Y698060D01*
X1067123Y707903D02*
Y698060D01*
Y707903D02*
X1071555D01*
X1067123Y703216D02*
X1069850D01*
X1067123Y698060D02*
X1071555D01*
X1074964Y704622D02*
X1074623Y704153D01*
X1074964Y703685*
X1075305Y704153*
X1074964Y704622*
Y698997D02*
X1074623Y698528D01*
X1074964Y698060*
X1075305Y698528*
X1074964Y698997*
X1090646Y707903D02*
X1087237D01*
X1086896Y703685*
X1087237Y704153*
X1088259Y704622*
X1089282*
X1090305Y704153*
X1090987Y703216*
X1091328Y701810*
X1090987Y700872*
X1090646Y699466*
X1089964Y698528*
X1088941Y698060*
X1087919*
X1086896Y698528*
X1086555Y698997*
X1086214Y699935*
X1096441Y707903D02*
X1095419Y707435D01*
X1094737Y706028*
X1094396Y703685*
Y702278*
X1094737Y699935*
X1095419Y698528*
X1096441Y698060*
X1097123*
X1098146Y698528*
X1098828Y699935*
X1099169Y702278*
Y703685*
X1098828Y706028*
X1098146Y707435*
X1097123Y707903*
X1096441*
X1103941D02*
X1102919Y707435D01*
X1102578Y706497*
Y705560*
X1102919Y704622*
X1103600Y704153*
X1104964Y703685*
X1105987Y703216*
X1106669Y702278*
X1107009Y701341*
Y699935*
X1106669Y698997*
X1106328Y698528*
X1105305Y698060*
X1103941*
X1102919Y698528*
X1102578Y698997*
X1102237Y699935*
Y701341*
X1102578Y702278*
X1103259Y703216*
X1104282Y703685*
X1105646Y704153*
X1106328Y704622*
X1106669Y705560*
Y706497*
X1106328Y707435*
X1105305Y707903*
X1103941*
X1110419Y698997D02*
X1110078Y698528D01*
X1110419Y698060*
X1110759Y698528*
X1110419Y698997*
X1118259Y704622D02*
X1117919Y703216D01*
X1117237Y702278*
X1116214Y701810*
X1115873*
X1114850Y702278*
X1114169Y703216*
X1113828Y704622*
Y705091*
X1114169Y706497*
X1114850Y707435*
X1115873Y707903*
X1116214*
X1117237Y707435*
X1117919Y706497*
X1118259Y704622*
Y702278*
X1117919Y699935*
X1117237Y698528*
X1116214Y698060*
X1115532*
X1114509Y698528*
X1114169Y699466*
X1124737Y707903D02*
X1121328Y701341D01*
X1126441*
X1124737Y707903D02*
Y698060D01*
X1134282Y707903D02*
X1130873Y698060D01*
X1129509Y707903D02*
X1134282D01*
X1137691Y698997D02*
X1137350Y698528D01*
X1137691Y698060*
X1138032Y698528*
X1137691Y698997*
X1141441Y705560D02*
Y706028D01*
X1141782Y706966*
X1142123Y707435*
X1142805Y707903*
X1144169*
X1144850Y707435*
X1145191Y706966*
X1145532Y706028*
Y705091*
X1145191Y704153*
X1144509Y702747*
X1141100Y698060*
X1145873*
X1153714Y707903D02*
X1150305Y698060D01*
X1148941Y707903D02*
X1153714D01*
X1158828D02*
X1157805Y707435D01*
X1157123Y706028*
X1156782Y703685*
Y702278*
X1157123Y699935*
X1157805Y698528*
X1158828Y698060*
X1159509*
X1160532Y698528*
X1161214Y699935*
X1161555Y702278*
Y703685*
X1161214Y706028*
X1160532Y707435*
X1159509Y707903*
X1158828*
X1169055Y704622D02*
X1168714Y703216D01*
X1168032Y702278*
X1167009Y701810*
X1166669*
X1165646Y702278*
X1164964Y703216*
X1164623Y704622*
Y705091*
X1164964Y706497*
X1165646Y707435*
X1166669Y707903*
X1167009*
X1168032Y707435*
X1168714Y706497*
X1169055Y704622*
Y702278*
X1168714Y699935*
X1168032Y698528*
X1167009Y698060*
X1166328*
X1165305Y698528*
X1164964Y699466*
X1032578Y726403D02*
Y716560D01*
Y726403D02*
X1035305Y716560D01*
X1038032Y726403D02*
X1035305Y716560D01*
X1038032Y726403D02*
Y716560D01*
X1041100Y726403D02*
X1041441Y725935D01*
X1041782Y726403*
X1041441Y726872*
X1041100Y726403*
X1041441Y723122D02*
Y716560D01*
X1048941Y726403D02*
Y716560D01*
Y721716D02*
X1048259Y722653D01*
X1047578Y723122*
X1046555*
X1045873Y722653*
X1045191Y721716*
X1044850Y720310*
Y719372*
X1045191Y717966*
X1045873Y717028*
X1046555Y716560*
X1047578*
X1048259Y717028*
X1048941Y717966*
X1056100Y726403D02*
Y716560D01*
Y721716D02*
X1055419Y722653D01*
X1054737Y723122*
X1053714*
X1053032Y722653*
X1052350Y721716*
X1052009Y720310*
Y719372*
X1052350Y717966*
X1053032Y717028*
X1053714Y716560*
X1054737*
X1055419Y717028*
X1056100Y717966*
X1059169Y726403D02*
Y716560D01*
X1062237Y720310D02*
X1066328D01*
Y721247*
X1065987Y722185*
X1065646Y722653*
X1064964Y723122*
X1063941*
X1063259Y722653*
X1062578Y721716*
X1062237Y720310*
Y719372*
X1062578Y717966*
X1063259Y717028*
X1063941Y716560*
X1064964*
X1065646Y717028*
X1066328Y717966*
X1069396Y726403D02*
Y716560D01*
Y721716D02*
X1070078Y722653D01*
X1070759Y723122*
X1071782*
X1072464Y722653*
X1073146Y721716*
X1073487Y720310*
Y719372*
X1073146Y717966*
X1072464Y717028*
X1071782Y716560*
X1070759*
X1070078Y717028*
X1069396Y717966*
X1078259Y723122D02*
X1077578Y722653D01*
X1076896Y721716*
X1076555Y720310*
Y719372*
X1076896Y717966*
X1077578Y717028*
X1078259Y716560*
X1079282*
X1079964Y717028*
X1080646Y717966*
X1080987Y719372*
Y720310*
X1080646Y721716*
X1079964Y722653*
X1079282Y723122*
X1078259*
X1084055D02*
Y716560D01*
Y720310D02*
X1084396Y721716D01*
X1085078Y722653*
X1085759Y723122*
X1086782*
X1091555D02*
X1090873Y722653D01*
X1090191Y721716*
X1089850Y720310*
Y719372*
X1090191Y717966*
X1090873Y717028*
X1091555Y716560*
X1092578*
X1093259Y717028*
X1093941Y717966*
X1094282Y719372*
Y720310*
X1093941Y721716*
X1093259Y722653*
X1092578Y723122*
X1091555*
X1098032Y717028D02*
X1097691Y716560D01*
X1097350Y717028*
X1097691Y717497*
X1098032Y717028*
Y716091*
X1097691Y715153*
X1097350Y714685*
X1108941Y726403D02*
Y716560D01*
Y726403D02*
X1111669Y716560D01*
X1114396Y726403D02*
X1111669Y716560D01*
X1114396Y726403D02*
Y716560D01*
X1120191Y726403D02*
X1117464Y716560D01*
X1120191Y726403D02*
X1122919Y716560D01*
X1118487Y719841D02*
X1121896D01*
X1135873Y726403D02*
X1134850Y725935D01*
X1134169Y724528*
X1133828Y722185*
Y720778*
X1134169Y718435*
X1134850Y717028*
X1135873Y716560*
X1136555*
X1137578Y717028*
X1138259Y718435*
X1138600Y720778*
Y722185*
X1138259Y724528*
X1137578Y725935*
X1136555Y726403*
X1135873*
X1142009Y724060D02*
Y724528D01*
X1142350Y725466*
X1142691Y725935*
X1143373Y726403*
X1144737*
X1145419Y725935*
X1145759Y725466*
X1146100Y724528*
Y723591*
X1145759Y722653*
X1145078Y721247*
X1141669Y716560*
X1146441*
X1150191Y726403D02*
X1153941D01*
X1151896Y722653*
X1152919*
X1153600Y722185*
X1153941Y721716*
X1154282Y720310*
Y719372*
X1153941Y717966*
X1153259Y717028*
X1152237Y716560*
X1151214*
X1150191Y717028*
X1149850Y717497*
X1149509Y718435*
X1160759Y726403D02*
X1157350Y719841D01*
X1162464*
X1160759Y726403D02*
Y716560D01*
X1169623Y724997D02*
X1169282Y725935D01*
X1168259Y726403*
X1167578*
X1166555Y725935*
X1165873Y724528*
X1165532Y722185*
Y719841*
X1165873Y717966*
X1166555Y717028*
X1167578Y716560*
X1167919*
X1168941Y717028*
X1169623Y717966*
X1169964Y719372*
Y719841*
X1169623Y721247*
X1168941Y722185*
X1167919Y722653*
X1167578*
X1166555Y722185*
X1165873Y721247*
X1165532Y719841*
X1041078Y743028D02*
X1041759Y743497D01*
X1042782Y744903*
Y735060*
X1045850Y743028D02*
X1046532Y743497D01*
X1047555Y744903*
Y735060*
X1052328Y744903D02*
X1051305Y744435D01*
X1050964Y743497*
Y742560*
X1051305Y741622*
X1051987Y741153*
X1053350Y740685*
X1054373Y740216*
X1055055Y739278*
X1055396Y738341*
Y736935*
X1055055Y735997*
X1054714Y735528*
X1053691Y735060*
X1052328*
X1051305Y735528*
X1050964Y735997*
X1050623Y736935*
Y738341*
X1050964Y739278*
X1051646Y740216*
X1052669Y740685*
X1054032Y741153*
X1054714Y741622*
X1055055Y742560*
Y743497*
X1054714Y744435*
X1053691Y744903*
X1052328*
X1062896D02*
X1059487D01*
X1059146Y740685*
X1059487Y741153*
X1060509Y741622*
X1061532*
X1062555Y741153*
X1063237Y740216*
X1063578Y738810*
X1063237Y737872*
X1062896Y736466*
X1062214Y735528*
X1061191Y735060*
X1060169*
X1059146Y735528*
X1058805Y735997*
X1058464Y736935*
X1079600Y742560D02*
X1079259Y743497D01*
X1078578Y744435*
X1077896Y744903*
X1076532*
X1075850Y744435*
X1075169Y743497*
X1074828Y742560*
X1074487Y741153*
Y738810*
X1074828Y737403*
X1075169Y736466*
X1075850Y735528*
X1076532Y735060*
X1077896*
X1078578Y735528*
X1079259Y736466*
X1079600Y737403*
X1082669Y738810D02*
X1086759D01*
Y739747*
X1086419Y740685*
X1086078Y741153*
X1085396Y741622*
X1084373*
X1083691Y741153*
X1083009Y740216*
X1082669Y738810*
Y737872*
X1083009Y736466*
X1083691Y735528*
X1084373Y735060*
X1085396*
X1086078Y735528*
X1086759Y736466*
X1089828Y741622D02*
Y735060D01*
Y739747D02*
X1090850Y741153D01*
X1091532Y741622*
X1092555*
X1093237Y741153*
X1093578Y739747*
Y735060*
X1097669Y744903D02*
Y736935D01*
X1098009Y735528*
X1098691Y735060*
X1099373*
X1096646Y741622D02*
X1099032D01*
X1102441D02*
Y735060D01*
Y738810D02*
X1102782Y740216D01*
X1103464Y741153*
X1104146Y741622*
X1105169*
X1108237Y738810D02*
X1112328D01*
Y739747*
X1111987Y740685*
X1111646Y741153*
X1110964Y741622*
X1109941*
X1109259Y741153*
X1108578Y740216*
X1108237Y738810*
Y737872*
X1108578Y736466*
X1109259Y735528*
X1109941Y735060*
X1110964*
X1111646Y735528*
X1112328Y736466*
X1128009Y743497D02*
X1127328Y744435D01*
X1126305Y744903*
X1124941*
X1123919Y744435*
X1123237Y743497*
Y742560*
X1123578Y741622*
X1123919Y741153*
X1124600Y740685*
X1126646Y739747*
X1127328Y739278*
X1127669Y738810*
X1128009Y737872*
Y736466*
X1127328Y735528*
X1126305Y735060*
X1124941*
X1123919Y735528*
X1123237Y736466*
X1132100Y744903D02*
Y736935D01*
X1132441Y735528*
X1133123Y735060*
X1133805*
X1131078Y741622D02*
X1133464D01*
X1136873D02*
Y735060D01*
Y738810D02*
X1137214Y740216D01*
X1137896Y741153*
X1138578Y741622*
X1139600*
X1142669Y738810D02*
X1146759D01*
Y739747*
X1146419Y740685*
X1146078Y741153*
X1145396Y741622*
X1144373*
X1143691Y741153*
X1143009Y740216*
X1142669Y738810*
Y737872*
X1143009Y736466*
X1143691Y735528*
X1144373Y735060*
X1145396*
X1146078Y735528*
X1146759Y736466*
X1149828Y738810D02*
X1153919D01*
Y739747*
X1153578Y740685*
X1153237Y741153*
X1152555Y741622*
X1151532*
X1150850Y741153*
X1150169Y740216*
X1149828Y738810*
Y737872*
X1150169Y736466*
X1150850Y735528*
X1151532Y735060*
X1152555*
X1153237Y735528*
X1153919Y736466*
X1158009Y744903D02*
Y736935D01*
X1158350Y735528*
X1159032Y735060*
X1159714*
X1156987Y741622D02*
X1159373D01*
X1165773Y666513D02*
X1161227Y657762D01*
X1161227D02*
X1168045D01*
X1165773Y666513D02*
Y653387D01*
X1180318Y669013D02*
X1172136Y649012D01*
X1187136Y666513D02*
X1185773Y665888D01*
X1185773D02*
X1184864Y664013D01*
X1184864D02*
X1184409Y660887D01*
X1184409D02*
Y659012D01*
X1184409D02*
X1184864Y655887D01*
X1184864D02*
X1185773Y654012D01*
X1185773D02*
X1187136Y653387D01*
X1187136D02*
X1188045D01*
X1188045D02*
X1189409Y654012D01*
X1189409D02*
X1190318Y655887D01*
X1190318D02*
X1190773Y659012D01*
X1190773D02*
Y660887D01*
X1190773D02*
X1190318Y664013D01*
X1190318D02*
X1189409Y665888D01*
X1189409D02*
X1188045Y666513D01*
X1188045D02*
X1187136D01*
X1195318Y663388D02*
Y664013D01*
X1195318D02*
X1195773Y665263D01*
X1195773D02*
X1196227Y665888D01*
X1196227D02*
X1197136Y666513D01*
X1197136D02*
X1198955D01*
X1198955D02*
X1199864Y665888D01*
X1199864D02*
X1200318Y665263D01*
X1200318D02*
X1200773Y664013D01*
X1200773D02*
Y662763D01*
X1200773D02*
X1200318Y661513D01*
X1200318D02*
X1199409Y659637D01*
X1199409D02*
X1194864Y653387D01*
X1194864D02*
X1201227D01*
X1213500Y669013D02*
X1205318Y649012D01*
X1220318Y666513D02*
X1218955Y665888D01*
X1218955D02*
X1218045Y664013D01*
X1218045D02*
X1217591Y660887D01*
X1217591D02*
Y659012D01*
X1217591D02*
X1218045Y655887D01*
X1218045D02*
X1218955Y654012D01*
X1218955D02*
X1220318Y653387D01*
X1220318D02*
X1221227D01*
X1221227D02*
X1222591Y654012D01*
X1222591D02*
X1223500Y655887D01*
X1223500D02*
X1223955Y659012D01*
X1223955D02*
Y660887D01*
X1223955D02*
X1223500Y664013D01*
X1223500D02*
X1222591Y665888D01*
X1222591D02*
X1221227Y666513D01*
X1221227D02*
X1220318D01*
X1233955Y662138D02*
X1233500Y660262D01*
X1233500D02*
X1232591Y659012D01*
X1232591D02*
X1231227Y658387D01*
X1231227D02*
X1230773D01*
X1230773D02*
X1229409Y659012D01*
X1229409D02*
X1228500Y660262D01*
X1228500D02*
X1228045Y662138D01*
X1228045D02*
Y662763D01*
X1228045D02*
X1228500Y664638D01*
X1228500D02*
X1229409Y665888D01*
X1229409D02*
X1230773Y666513D01*
X1230773D02*
X1231227D01*
X1231227D02*
X1232591Y665888D01*
X1232591D02*
X1233500Y664638D01*
X1233500D02*
X1233955Y662138D01*
X1233955D02*
Y659012D01*
X1233955D02*
X1233500Y655887D01*
X1233500D02*
X1232591Y654012D01*
X1232591D02*
X1231227Y653387D01*
X1231227D02*
X1230318D01*
X1230318D02*
X1228955Y654012D01*
X1228955D02*
X1228500Y655262D01*
X838909Y666344D02*
Y658844D01*
X838568Y657438*
X838568D02*
X838227Y656969D01*
X837545Y656500*
X836864*
X836182Y656969*
X835841Y657438*
X835841D02*
X835500Y658844D01*
Y659781*
X843682Y663063D02*
X843000Y662594D01*
X842318Y661656*
X841977Y660250*
Y659313*
X841977D02*
X842318Y657906D01*
X843000Y656969*
X843682Y656500*
X844705*
X845386Y656969*
X846068Y657906*
X846409Y659313*
X846409D02*
Y660250D01*
X846068Y661656*
X845386Y662594*
X844705Y663063*
X844705D02*
X843682D01*
X849477Y666344D02*
Y656500D01*
Y661656D02*
X850159Y662594D01*
X850841Y663063*
X850841D02*
X851864D01*
X851864D02*
X852545Y662594D01*
X853227Y661656*
X853568Y660250*
Y659313*
X853568D02*
X853227Y657906D01*
X852545Y656969*
X851864Y656500*
X850841*
X850159Y656969*
X849477Y657906*
X864477Y666344D02*
Y656500D01*
Y666344D02*
X869250Y656500D01*
Y666344D02*
Y656500D01*
X874023Y663063D02*
X873341Y662594D01*
X872659Y661656*
X872318Y660250*
Y659313*
X872318D02*
X872659Y657906D01*
X873341Y656969*
X874023Y656500*
X875045*
X875727Y656969*
X876409Y657906*
X876750Y659313*
X876750D02*
Y660250D01*
X876409Y661656*
X875727Y662594*
X875045Y663063*
X875045D02*
X874023D01*
X880159D02*
X879818Y662594D01*
X880159Y662125*
X880500Y662594*
X880159Y663063*
Y657438D02*
X879818Y656969D01*
X880159Y656500*
X880500Y656969*
X880159Y657438*
X1041000Y663544D02*
Y653700D01*
Y663544D02*
X1043386D01*
X1044409Y663075*
X1045091Y662138*
X1045091D02*
X1045432Y661200D01*
X1045773Y659794*
Y657450*
X1045432Y656044*
X1045091Y655106*
X1044409Y654169*
X1043386Y653700*
X1041000*
X1052932Y660263D02*
Y653700D01*
Y658856D02*
X1052250Y659794D01*
X1051568Y660263*
X1051568D02*
X1050545D01*
X1050545D02*
X1049864Y659794D01*
X1049182Y658856*
X1048841Y657450*
Y656513*
X1048841D02*
X1049182Y655106D01*
X1049864Y654169*
X1050545Y653700*
X1051568*
X1052250Y654169*
X1052932Y655106*
X1057023Y663544D02*
Y655575D01*
X1057364Y654169*
X1058045Y653700*
X1058727*
X1056000Y660263D02*
X1058386D01*
X1061795Y657450D02*
X1065886D01*
Y658388*
X1065886D02*
X1065545Y659325D01*
X1065205Y659794*
X1064523Y660263*
X1064523D02*
X1063500D01*
X1063500D02*
X1062818Y659794D01*
X1062136Y658856*
X1061795Y657450*
Y656513*
X1061795D02*
X1062136Y655106D01*
X1062818Y654169*
X1063500Y653700*
X1064523*
X1065205Y654169*
X1065886Y655106*
X1069295Y660263D02*
X1068955Y659794D01*
X1069295Y659325*
X1069636Y659794*
X1069295Y660263*
Y654638D02*
X1068955Y654169D01*
X1069295Y653700*
X1069636Y654169*
X1069295Y654638*
X841305Y763403D02*
X838578Y753560D01*
X841305Y763403D02*
X844032Y753560D01*
X839600Y756841D02*
X843009D01*
X847100Y760122D02*
Y753560D01*
Y757310D02*
X847441Y758716D01*
X848123Y759653*
X848805Y760122*
X849828*
X853919Y763403D02*
Y755435D01*
X854259Y754028*
X854941Y753560*
X855623*
X852896Y760122D02*
X855282D01*
X858691D02*
X860055Y753560D01*
X861419Y760122D02*
X860055Y753560D01*
X861419Y760122D02*
X862782Y753560D01*
X864146Y760122D02*
X862782Y753560D01*
X868919Y760122D02*
X868237Y759653D01*
X867555Y758716*
X867214Y757310*
Y756372*
X867555Y754966*
X868237Y754028*
X868919Y753560*
X869941*
X870623Y754028*
X871305Y754966*
X871646Y756372*
Y757310*
X871305Y758716*
X870623Y759653*
X869941Y760122*
X868919*
X874714D02*
Y753560D01*
Y757310D02*
X875055Y758716D01*
X875737Y759653*
X876419Y760122*
X877441*
X880509Y763403D02*
Y753560D01*
X883919Y760122D02*
X880509Y755435D01*
X881873Y757310D02*
X884259Y753560D01*
X895169Y763403D02*
Y753560D01*
Y763403D02*
X897555D01*
X898578Y762935*
X899259Y761997*
X899600Y761060*
X899941Y759653*
Y757310*
X899600Y755903*
X899259Y754966*
X898578Y754028*
X897555Y753560*
X895169*
X903009Y757310D02*
X907100D01*
Y758247*
X906759Y759185*
X906419Y759653*
X905737Y760122*
X904714*
X904032Y759653*
X903350Y758716*
X903009Y757310*
Y756372*
X903350Y754966*
X904032Y754028*
X904714Y753560*
X905737*
X906419Y754028*
X907100Y754966*
X913919Y758716D02*
X913578Y759653D01*
X912555Y760122*
X911532*
X910509Y759653*
X910169Y758716*
X910509Y757778*
X911191Y757310*
X912896Y756841*
X913578Y756372*
X913919Y755435*
Y754966*
X913578Y754028*
X912555Y753560*
X911532*
X910509Y754028*
X910169Y754966*
X916987Y763403D02*
X917328Y762935D01*
X917669Y763403*
X917328Y763872*
X916987Y763403*
X917328Y760122D02*
Y753560D01*
X924828Y760122D02*
Y752622D01*
X924487Y751216*
X924146Y750747*
X923464Y750278*
X922441*
X921759Y750747*
X924828Y758716D02*
X924146Y759653D01*
X923464Y760122*
X922441*
X921759Y759653*
X921078Y758716*
X920737Y757310*
Y756372*
X921078Y754966*
X921759Y754028*
X922441Y753560*
X923464*
X924146Y754028*
X924828Y754966*
X927896Y760122D02*
Y753560D01*
Y758247D02*
X928919Y759653D01*
X929600Y760122*
X930623*
X931305Y759653*
X931646Y758247*
Y753560*
X934714Y757310D02*
X938805D01*
Y758247*
X938464Y759185*
X938123Y759653*
X937441Y760122*
X936419*
X935737Y759653*
X935055Y758716*
X934714Y757310*
Y756372*
X935055Y754966*
X935737Y754028*
X936419Y753560*
X937441*
X938123Y754028*
X938805Y754966*
X945964Y763403D02*
Y753560D01*
Y758716D02*
X945282Y759653D01*
X944600Y760122*
X943578*
X942896Y759653*
X942214Y758716*
X941873Y757310*
Y756372*
X942214Y754966*
X942896Y754028*
X943578Y753560*
X944600*
X945282Y754028*
X945964Y754966*
X956873Y763403D02*
Y753560D01*
Y763403D02*
X959941D01*
X960964Y762935*
X961305Y762466*
X961646Y761528*
Y760591*
X961305Y759653*
X960964Y759185*
X959941Y758716*
X956873D02*
X959941D01*
X960964Y758247*
X961305Y757778*
X961646Y756841*
Y755435*
X961305Y754497*
X960964Y754028*
X959941Y753560*
X956873*
X965055Y760122D02*
X967100Y753560D01*
X969146Y760122D02*
X967100Y753560D01*
X966419Y751685*
X965737Y750747*
X965055Y750278*
X964714*
X972555Y760122D02*
X972214Y759653D01*
X972555Y759185*
X972896Y759653*
X972555Y760122*
Y754497D02*
X972214Y754028D01*
X972555Y753560*
X972896Y754028*
X972555Y754497*
X983805Y763403D02*
X985509Y753560D01*
X987214Y763403D02*
X985509Y753560D01*
X987214Y763403D02*
X988919Y753560D01*
X990623Y763403D02*
X988919Y753560D01*
X993691Y763403D02*
X994032Y762935D01*
X994373Y763403*
X994032Y763872*
X993691Y763403*
X994032Y760122D02*
Y753560D01*
X997441Y763403D02*
Y753560D01*
X1000509Y763403D02*
Y753560D01*
X1005282Y760122D02*
X1004600Y759653D01*
X1003919Y758716*
X1003578Y757310*
Y756372*
X1003919Y754966*
X1004600Y754028*
X1005282Y753560*
X1006305*
X1006987Y754028*
X1007669Y754966*
X1008009Y756372*
Y757310*
X1007669Y758716*
X1006987Y759653*
X1006305Y760122*
X1005282*
X1011078D02*
X1012441Y753560D01*
X1013805Y760122D02*
X1012441Y753560D01*
X1013805Y760122D02*
X1015169Y753560D01*
X1016532Y760122D02*
X1015169Y753560D01*
X1032214Y761997D02*
X1031532Y762935D01*
X1030509Y763403*
X1029146*
X1028123Y762935*
X1027441Y761997*
Y761060*
X1027782Y760122*
X1028123Y759653*
X1028805Y759185*
X1030850Y758247*
X1031532Y757778*
X1031873Y757310*
X1032214Y756372*
Y754966*
X1031532Y754028*
X1030509Y753560*
X1029146*
X1028123Y754028*
X1027441Y754966*
X1035282Y760122D02*
Y750278D01*
Y758716D02*
X1035964Y759653D01*
X1036646Y760122*
X1037669*
X1038350Y759653*
X1039032Y758716*
X1039373Y757310*
Y756372*
X1039032Y754966*
X1038350Y754028*
X1037669Y753560*
X1036646*
X1035964Y754028*
X1035282Y754966*
X1042441Y760122D02*
Y753560D01*
Y757310D02*
X1042782Y758716D01*
X1043464Y759653*
X1044146Y760122*
X1045169*
X1048237Y763403D02*
X1048578Y762935D01*
X1048919Y763403*
X1048578Y763872*
X1048237Y763403*
X1048578Y760122D02*
Y753560D01*
X1051987Y760122D02*
Y753560D01*
Y758247D02*
X1053009Y759653D01*
X1053691Y760122*
X1054714*
X1055396Y759653*
X1055737Y758247*
Y753560*
X1062896Y760122D02*
Y752622D01*
X1062555Y751216*
X1062214Y750747*
X1061532Y750278*
X1060509*
X1059828Y750747*
X1062896Y758716D02*
X1062214Y759653D01*
X1061532Y760122*
X1060509*
X1059828Y759653*
X1059146Y758716*
X1058805Y757310*
Y756372*
X1059146Y754966*
X1059828Y754028*
X1060509Y753560*
X1061532*
X1062214Y754028*
X1062896Y754966*
X1076191Y763403D02*
Y753560D01*
X1073805Y763403D02*
X1078578D01*
X1081646Y757310D02*
X1085737D01*
Y758247*
X1085396Y759185*
X1085055Y759653*
X1084373Y760122*
X1083350*
X1082669Y759653*
X1081987Y758716*
X1081646Y757310*
Y756372*
X1081987Y754966*
X1082669Y754028*
X1083350Y753560*
X1084373*
X1085055Y754028*
X1085737Y754966*
X1092896Y758716D02*
X1092214Y759653D01*
X1091532Y760122*
X1090509*
X1089828Y759653*
X1089146Y758716*
X1088805Y757310*
Y756372*
X1089146Y754966*
X1089828Y754028*
X1090509Y753560*
X1091532*
X1092214Y754028*
X1092896Y754966*
X1095964Y763403D02*
Y753560D01*
Y758247D02*
X1096987Y759653D01*
X1097669Y760122*
X1098691*
X1099373Y759653*
X1099714Y758247*
Y753560*
X1102782Y760122D02*
Y753560D01*
Y758247D02*
X1103805Y759653D01*
X1104487Y760122*
X1105509*
X1106191Y759653*
X1106532Y758247*
Y753560*
X1109600Y763403D02*
X1109941Y762935D01*
X1110282Y763403*
X1109941Y763872*
X1109600Y763403*
X1109941Y760122D02*
Y753560D01*
X1117441Y758716D02*
X1116759Y759653D01*
X1116078Y760122*
X1115055*
X1114373Y759653*
X1113691Y758716*
X1113350Y757310*
Y756372*
X1113691Y754966*
X1114373Y754028*
X1115055Y753560*
X1116078*
X1116759Y754028*
X1117441Y754966*
X1124600Y760122D02*
Y753560D01*
Y758716D02*
X1123919Y759653D01*
X1123237Y760122*
X1122214*
X1121532Y759653*
X1120850Y758716*
X1120509Y757310*
Y756372*
X1120850Y754966*
X1121532Y754028*
X1122214Y753560*
X1123237*
X1123919Y754028*
X1124600Y754966*
X1127669Y763403D02*
Y753560D01*
X1143350Y761997D02*
X1142669Y762935D01*
X1141646Y763403*
X1140282*
X1139259Y762935*
X1138578Y761997*
Y761060*
X1138919Y760122*
X1139259Y759653*
X1139941Y759185*
X1141987Y758247*
X1142669Y757778*
X1143009Y757310*
X1143350Y756372*
Y754966*
X1142669Y754028*
X1141646Y753560*
X1140282*
X1139259Y754028*
X1138578Y754966*
X1146419Y757310D02*
X1150509D01*
Y758247*
X1150169Y759185*
X1149828Y759653*
X1149146Y760122*
X1148123*
X1147441Y759653*
X1146759Y758716*
X1146419Y757310*
Y756372*
X1146759Y754966*
X1147441Y754028*
X1148123Y753560*
X1149146*
X1149828Y754028*
X1150509Y754966*
X1153578Y760122D02*
Y753560D01*
Y757310D02*
X1153919Y758716D01*
X1154600Y759653*
X1155282Y760122*
X1156305*
X1159373D02*
X1161419Y753560D01*
X1163464Y760122D02*
X1161419Y753560D01*
X1166532Y763403D02*
X1166873Y762935D01*
X1167214Y763403*
X1166873Y763872*
X1166532Y763403*
X1166873Y760122D02*
Y753560D01*
X1174373Y758716D02*
X1173691Y759653D01*
X1173009Y760122*
X1171987*
X1171305Y759653*
X1170623Y758716*
X1170282Y757310*
Y756372*
X1170623Y754966*
X1171305Y754028*
X1171987Y753560*
X1173009*
X1173691Y754028*
X1174373Y754966*
X1177441Y757310D02*
X1181532D01*
Y758247*
X1181191Y759185*
X1180850Y759653*
X1180169Y760122*
X1179146*
X1178464Y759653*
X1177782Y758716*
X1177441Y757310*
Y756372*
X1177782Y754966*
X1178464Y754028*
X1179146Y753560*
X1180169*
X1180850Y754028*
X1181532Y754966*
X1188350Y758716D02*
X1188009Y759653D01*
X1186987Y760122*
X1185964*
X1184941Y759653*
X1184600Y758716*
X1184941Y757778*
X1185623Y757310*
X1187328Y756841*
X1188009Y756372*
X1188350Y755435*
Y754966*
X1188009Y754028*
X1186987Y753560*
X1185964*
X1184941Y754028*
X1184600Y754966*
X1204373Y761060D02*
X1204032Y761997D01*
X1203350Y762935*
X1202669Y763403*
X1201305*
X1200623Y762935*
X1199941Y761997*
X1199600Y761060*
X1199259Y759653*
Y757310*
X1199600Y755903*
X1199941Y754966*
X1200623Y754028*
X1201305Y753560*
X1202669*
X1203350Y754028*
X1204032Y754966*
X1204373Y755903*
X1209146Y760122D02*
X1208464Y759653D01*
X1207782Y758716*
X1207441Y757310*
Y756372*
X1207782Y754966*
X1208464Y754028*
X1209146Y753560*
X1210169*
X1210850Y754028*
X1211532Y754966*
X1211873Y756372*
Y757310*
X1211532Y758716*
X1210850Y759653*
X1210169Y760122*
X1209146*
X1214941D02*
Y753560D01*
Y757310D02*
X1215282Y758716D01*
X1215964Y759653*
X1216646Y760122*
X1217669*
X1220737D02*
Y750278D01*
Y758716D02*
X1221419Y759653D01*
X1222100Y760122*
X1223123*
X1223805Y759653*
X1224487Y758716*
X1224828Y757310*
Y756372*
X1224487Y754966*
X1223805Y754028*
X1223123Y753560*
X1222100*
X1221419Y754028*
X1220737Y754966*
X1228237Y754497D02*
X1227896Y754028D01*
X1228237Y753560*
X1228578Y754028*
X1228237Y754497*
X906682Y665513D02*
Y652387D01*
X903500Y665513D02*
X909864D01*
X913955D02*
Y652387D01*
Y665513D02*
X919864D01*
X913955Y659262D02*
X917591D01*
X913955Y652387D02*
X919864D01*
X923955Y665513D02*
X930318Y652387D01*
Y665513D02*
X923955Y652387D01*
X934864Y653637D02*
X934409Y653012D01*
X934409D02*
X934864Y652387D01*
X934864D02*
X935318Y653012D01*
X935318D02*
X934864Y653637D01*
X942136Y665513D02*
X940773Y664888D01*
X940773D02*
X939864Y663013D01*
X939864D02*
X939409Y659887D01*
X939409D02*
Y658012D01*
X939409D02*
X939864Y654887D01*
X939864D02*
X940773Y653012D01*
X940773D02*
X942136Y652387D01*
X942136D02*
X943045D01*
X943045D02*
X944409Y653012D01*
X944409D02*
X945318Y654887D01*
X945318D02*
X945773Y658012D01*
X945773D02*
Y659887D01*
X945773D02*
X945318Y663013D01*
X945318D02*
X944409Y664888D01*
X944409D02*
X943045Y665513D01*
X943045D02*
X942136D01*
X952591D02*
X951227Y664888D01*
X951227D02*
X950318Y663013D01*
X950318D02*
X949864Y659887D01*
X949864D02*
Y658012D01*
X949864D02*
X950318Y654887D01*
X950318D02*
X951227Y653012D01*
X951227D02*
X952591Y652387D01*
X952591D02*
X953500D01*
X953500D02*
X954864Y653012D01*
X954864D02*
X955773Y654887D01*
X955773D02*
X956227Y658012D01*
X956227D02*
Y659887D01*
X956227D02*
X955773Y663013D01*
X955773D02*
X954864Y664888D01*
X954864D02*
X953500Y665513D01*
X953500D02*
X952591D01*
X961227D02*
X966227D01*
X966227D02*
X963500Y660513D01*
X963500D02*
X964864D01*
X964864D02*
X965773Y659887D01*
X965773D02*
X966227Y659262D01*
X966227D02*
X966682Y657387D01*
X966682D02*
Y656137D01*
X966682D02*
X966227Y654262D01*
X966227D02*
X965318Y653012D01*
X965318D02*
X963955Y652387D01*
X963955D02*
X962591D01*
X962591D02*
X961227Y653012D01*
X961227D02*
X960773Y653637D01*
X960773D02*
X960318Y654887D01*
X1260727Y835044D02*
X1258000Y825200D01*
X1260727Y835044D02*
X1263455Y825200D01*
X1259023Y828481D02*
X1262432D01*
X1266523Y831763D02*
Y825200D01*
Y828950D02*
X1266864Y830356D01*
X1267545Y831294*
X1268227Y831763*
X1268227D02*
X1269250D01*
X1273341Y835044D02*
Y827075D01*
X1273682Y825669*
X1274364Y825200*
X1275045*
X1272318Y831763D02*
X1274705D01*
X1278114D02*
X1279477Y825200D01*
X1280841Y831763D02*
X1279477Y825200D01*
X1280841Y831763D02*
X1282205Y825200D01*
X1283568Y831763D02*
X1282205Y825200D01*
X1288341Y831763D02*
X1287659Y831294D01*
X1286977Y830356*
X1286636Y828950*
Y828013*
X1286636D02*
X1286977Y826606D01*
X1287659Y825669*
X1288341Y825200*
X1289364*
X1290045Y825669*
X1290727Y826606*
X1291068Y828013*
X1291068D02*
Y828950D01*
X1290727Y830356*
X1290045Y831294*
X1289364Y831763*
X1289364D02*
X1288341D01*
X1294136D02*
Y825200D01*
Y828950D02*
X1294477Y830356D01*
X1295159Y831294*
X1295841Y831763*
X1295841D02*
X1296864D01*
X1299932Y835044D02*
Y825200D01*
X1303341Y831763D02*
X1299932Y827075D01*
X1301295Y828950D02*
X1303682Y825200D01*
X1314591Y835044D02*
Y825200D01*
Y835044D02*
X1316977D01*
X1318000Y834575*
X1318682Y833638*
X1318682D02*
X1319023Y832700D01*
X1319364Y831294*
Y828950*
X1319023Y827544*
X1318682Y826606*
X1318000Y825669*
X1316977Y825200*
X1314591*
X1322432Y828950D02*
X1326523D01*
Y829888*
X1326523D02*
X1326182Y830825D01*
X1325841Y831294*
X1325159Y831763*
X1325159D02*
X1324136D01*
X1324136D02*
X1323455Y831294D01*
X1322773Y830356*
X1322432Y828950*
Y828013*
X1322432D02*
X1322773Y826606D01*
X1323455Y825669*
X1324136Y825200*
X1325159*
X1325841Y825669*
X1326523Y826606*
X1333341Y830356D02*
X1333000Y831294D01*
X1331977Y831763*
X1331977D02*
X1330955D01*
X1330955D02*
X1329932Y831294D01*
X1329591Y830356*
X1329932Y829419*
X1330614Y828950*
X1332318Y828481*
X1333000Y828013*
X1333000D02*
X1333341Y827075D01*
Y826606*
X1333000Y825669*
X1331977Y825200*
X1330955*
X1329932Y825669*
X1329591Y826606*
X1336409Y835044D02*
X1336750Y834575D01*
X1337091Y835044*
X1336750Y835513*
X1336750D02*
X1336409Y835044D01*
X1336750Y831763D02*
Y825200D01*
X1344250Y831763D02*
Y824262D01*
X1344250D02*
X1343909Y822856D01*
X1343568Y822387*
X1343568D02*
X1342886Y821919D01*
X1341864*
X1341182Y822387*
X1344250Y830356D02*
X1343568Y831294D01*
X1342886Y831763*
X1342886D02*
X1341864D01*
X1341864D02*
X1341182Y831294D01*
X1340500Y830356*
X1340159Y828950*
Y828013*
X1340159D02*
X1340500Y826606D01*
X1341182Y825669*
X1341864Y825200*
X1342886*
X1343568Y825669*
X1344250Y826606*
X1347318Y831763D02*
Y825200D01*
Y829888D02*
X1348341Y831294D01*
X1349023Y831763*
X1349023D02*
X1350045D01*
X1350045D02*
X1350727Y831294D01*
X1351068Y829888*
X1351068D02*
Y825200D01*
X1354136Y828950D02*
X1358227D01*
Y829888*
X1358227D02*
X1357886Y830825D01*
X1357545Y831294*
X1356864Y831763*
X1356864D02*
X1355841D01*
X1355841D02*
X1355159Y831294D01*
X1354477Y830356*
X1354136Y828950*
Y828013*
X1354136D02*
X1354477Y826606D01*
X1355159Y825669*
X1355841Y825200*
X1356864*
X1357545Y825669*
X1358227Y826606*
X1365386Y835044D02*
Y825200D01*
Y830356D02*
X1364705Y831294D01*
X1364023Y831763*
X1364023D02*
X1363000D01*
X1363000D02*
X1362318Y831294D01*
X1361636Y830356*
X1361295Y828950*
Y828013*
X1361295D02*
X1361636Y826606D01*
X1362318Y825669*
X1363000Y825200*
X1364023*
X1364705Y825669*
X1365386Y826606*
X1376295Y835044D02*
Y825200D01*
Y835044D02*
X1380727D01*
X1376295Y830356D02*
X1379023D01*
X1385500Y831763D02*
X1384818Y831294D01*
X1384136Y830356*
X1383795Y828950*
Y828013*
X1383795D02*
X1384136Y826606D01*
X1384818Y825669*
X1385500Y825200*
X1386523*
X1387205Y825669*
X1387886Y826606*
X1388227Y828013*
X1388227D02*
Y828950D01*
X1387886Y830356*
X1387205Y831294*
X1386523Y831763*
X1386523D02*
X1385500D01*
X1391295D02*
Y825200D01*
Y828950D02*
X1391636Y830356D01*
X1392318Y831294*
X1393000Y831763*
X1393000D02*
X1394023D01*
X1397432D02*
X1397091Y831294D01*
X1397432Y830825*
X1397773Y831294*
X1397432Y831763*
Y826138D02*
X1397091Y825669D01*
X1397432Y825200*
X1397773Y825669*
X1397432Y826138*
X1258000Y780044D02*
Y770200D01*
Y780044D02*
X1261068D01*
X1262091Y779575*
X1262432Y779106*
X1262773Y778169*
Y777231*
X1262432Y776294*
X1262091Y775825*
X1261068Y775356*
X1258000D02*
X1261068D01*
X1262091Y774888*
X1262091D02*
X1262432Y774419D01*
X1262773Y773481*
Y772075*
X1262432Y771138*
X1262432D02*
X1262091Y770669D01*
X1261068Y770200*
X1258000*
X1267545Y776763D02*
X1266864Y776294D01*
X1266182Y775356*
X1265841Y773950*
Y773013*
X1265841D02*
X1266182Y771606D01*
X1266864Y770669*
X1267545Y770200*
X1268568*
X1269250Y770669*
X1269932Y771606*
X1270273Y773013*
X1270273D02*
Y773950D01*
X1269932Y775356*
X1269250Y776294*
X1268568Y776763*
X1268568D02*
X1267545D01*
X1277432D02*
Y770200D01*
Y775356D02*
X1276750Y776294D01*
X1276068Y776763*
X1276068D02*
X1275045D01*
X1275045D02*
X1274364Y776294D01*
X1273682Y775356*
X1273341Y773950*
Y773013*
X1273341D02*
X1273682Y771606D01*
X1274364Y770669*
X1275045Y770200*
X1276068*
X1276750Y770669*
X1277432Y771606*
X1280500Y776763D02*
Y770200D01*
Y773950D02*
X1280841Y775356D01*
X1281523Y776294*
X1282205Y776763*
X1282205D02*
X1283227D01*
X1290386Y780044D02*
Y770200D01*
Y775356D02*
X1289705Y776294D01*
X1289023Y776763*
X1289023D02*
X1288000D01*
X1288000D02*
X1287318Y776294D01*
X1286636Y775356*
X1286295Y773950*
Y773013*
X1286295D02*
X1286636Y771606D01*
X1287318Y770669*
X1288000Y770200*
X1289023*
X1289705Y770669*
X1290386Y771606*
X1301295Y780044D02*
Y770200D01*
Y780044D02*
X1303682D01*
X1304705Y779575*
X1305386Y778638*
X1305386D02*
X1305727Y777700D01*
X1306068Y776294*
Y773950*
X1305727Y772544*
X1305386Y771606*
X1304705Y770669*
X1303682Y770200*
X1301295*
X1309136Y773950D02*
X1313227D01*
Y774888*
X1313227D02*
X1312886Y775825D01*
X1312545Y776294*
X1311864Y776763*
X1311864D02*
X1310841D01*
X1310841D02*
X1310159Y776294D01*
X1309477Y775356*
X1309136Y773950*
Y773013*
X1309136D02*
X1309477Y771606D01*
X1310159Y770669*
X1310841Y770200*
X1311864*
X1312545Y770669*
X1313227Y771606*
X1320045Y775356D02*
X1319705Y776294D01*
X1318682Y776763*
X1318682D02*
X1317659D01*
X1317659D02*
X1316636Y776294D01*
X1316295Y775356*
X1316636Y774419*
X1317318Y773950*
X1319023Y773481*
X1319705Y773013*
X1319705D02*
X1320045Y772075D01*
Y771606*
X1319705Y770669*
X1318682Y770200*
X1317659*
X1316636Y770669*
X1316295Y771606*
X1327205Y775356D02*
X1326523Y776294D01*
X1325841Y776763*
X1325841D02*
X1324818D01*
X1324818D02*
X1324136Y776294D01*
X1323455Y775356*
X1323114Y773950*
Y773013*
X1323114D02*
X1323455Y771606D01*
X1324136Y770669*
X1324818Y770200*
X1325841*
X1326523Y770669*
X1327205Y771606*
X1330273Y776763D02*
Y770200D01*
Y773950D02*
X1330614Y775356D01*
X1331295Y776294*
X1331977Y776763*
X1331977D02*
X1333000D01*
X1336068Y780044D02*
X1336409Y779575D01*
X1336750Y780044*
X1336409Y780513*
X1336409D02*
X1336068Y780044D01*
X1336409Y776763D02*
Y770200D01*
X1339818Y776763D02*
Y766919D01*
Y775356D02*
X1340500Y776294D01*
X1341182Y776763*
X1341182D02*
X1342205D01*
X1342205D02*
X1342886Y776294D01*
X1343568Y775356*
X1343909Y773950*
Y773013*
X1343909D02*
X1343568Y771606D01*
X1342886Y770669*
X1342205Y770200*
X1341182*
X1340500Y770669*
X1339818Y771606*
X1348000Y780044D02*
Y772075D01*
X1348341Y770669*
X1349023Y770200*
X1349705*
X1346977Y776763D02*
X1349364D01*
X1352773Y780044D02*
X1353114Y779575D01*
X1353455Y780044*
X1353114Y780513*
X1353114D02*
X1352773Y780044D01*
X1353114Y776763D02*
Y770200D01*
X1358227Y776763D02*
X1357545Y776294D01*
X1356864Y775356*
X1356523Y773950*
Y773013*
X1356523D02*
X1356864Y771606D01*
X1357545Y770669*
X1358227Y770200*
X1359250*
X1359932Y770669*
X1360614Y771606*
X1360955Y773013*
X1360955D02*
Y773950D01*
X1360614Y775356*
X1359932Y776294*
X1359250Y776763*
X1359250D02*
X1358227D01*
X1364023D02*
Y770200D01*
Y774888D02*
X1365045Y776294D01*
X1365727Y776763*
X1365727D02*
X1366750D01*
X1366750D02*
X1367432Y776294D01*
X1367773Y774888*
X1367773D02*
Y770200D01*
X1371182Y776763D02*
X1370841Y776294D01*
X1371182Y775825*
X1371523Y776294*
X1371182Y776763*
Y771138D02*
X1370841Y770669D01*
X1371182Y770200*
X1371523Y770669*
X1371182Y771138*
X1258000Y710044D02*
Y700200D01*
Y710044D02*
X1261068D01*
X1262091Y709575*
X1262432Y709106*
X1262773Y708169*
Y706763*
X1262773D02*
X1262432Y705825D01*
X1262091Y705356*
X1261068Y704888*
X1261068D02*
X1258000D01*
X1269932Y706763D02*
Y700200D01*
Y705356D02*
X1269250Y706294D01*
X1268568Y706763*
X1268568D02*
X1267545D01*
X1267545D02*
X1266864Y706294D01*
X1266182Y705356*
X1265841Y703950*
Y703013*
X1265841D02*
X1266182Y701606D01*
X1266864Y700669*
X1267545Y700200*
X1268568*
X1269250Y700669*
X1269932Y701606*
X1273000Y706763D02*
Y700200D01*
Y703950D02*
X1273341Y705356D01*
X1274023Y706294*
X1274705Y706763*
X1274705D02*
X1275727D01*
X1279818Y710044D02*
Y702075D01*
X1280159Y700669*
X1280841Y700200*
X1281523*
X1278795Y706763D02*
X1281182D01*
X1292432Y710044D02*
Y700200D01*
Y710044D02*
X1297205Y700200D01*
Y710044D02*
Y700200D01*
X1301977Y706763D02*
X1301295Y706294D01*
X1300614Y705356*
X1300273Y703950*
Y703013*
X1300273D02*
X1300614Y701606D01*
X1301295Y700669*
X1301977Y700200*
X1303000*
X1303682Y700669*
X1304364Y701606*
X1304705Y703013*
X1304705D02*
Y703950D01*
X1304364Y705356*
X1303682Y706294*
X1303000Y706763*
X1303000D02*
X1301977D01*
X1308114D02*
X1307773Y706294D01*
X1308114Y705825*
X1308455Y706294*
X1308114Y706763*
Y701138D02*
X1307773Y700669D01*
X1308114Y700200*
X1308455Y700669*
X1308114Y701138*
X1558000Y710044D02*
Y700200D01*
Y710044D02*
X1561068D01*
X1562091Y709575*
X1562432Y709106*
X1562773Y708169*
Y707231*
X1562432Y706294*
X1562091Y705825*
X1561068Y705356*
X1558000*
X1560386D02*
X1562773Y700200D01*
X1565841Y703950D02*
X1569932D01*
Y704888*
X1569932D02*
X1569591Y705825D01*
X1569250Y706294*
X1568568Y706763*
X1568568D02*
X1567545D01*
X1567545D02*
X1566864Y706294D01*
X1566182Y705356*
X1565841Y703950*
Y703013*
X1565841D02*
X1566182Y701606D01*
X1566864Y700669*
X1567545Y700200*
X1568568*
X1569250Y700669*
X1569932Y701606*
X1573000Y706763D02*
X1575045Y700200D01*
X1577091Y706763D02*
X1575045Y700200D01*
X1580159Y710044D02*
X1580500Y709575D01*
X1580841Y710044*
X1580500Y710513*
X1580500D02*
X1580159Y710044D01*
X1580500Y706763D02*
Y700200D01*
X1587659Y705356D02*
X1587318Y706294D01*
X1586295Y706763*
X1586295D02*
X1585273D01*
X1585273D02*
X1584250Y706294D01*
X1583909Y705356*
X1584250Y704419*
X1584932Y703950*
X1586636Y703481*
X1587318Y703013*
X1587318D02*
X1587659Y702075D01*
Y701606*
X1587318Y700669*
X1586295Y700200*
X1585273*
X1584250Y700669*
X1583909Y701606*
X1590727Y710044D02*
X1591068Y709575D01*
X1591409Y710044*
X1591068Y710513*
X1591068D02*
X1590727Y710044D01*
X1591068Y706763D02*
Y700200D01*
X1596182Y706763D02*
X1595500Y706294D01*
X1594818Y705356*
X1594477Y703950*
Y703013*
X1594477D02*
X1594818Y701606D01*
X1595500Y700669*
X1596182Y700200*
X1597205*
X1597886Y700669*
X1598568Y701606*
X1598909Y703013*
X1598909D02*
Y703950D01*
X1598568Y705356*
X1597886Y706294*
X1597205Y706763*
X1597205D02*
X1596182D01*
X1601977D02*
Y700200D01*
Y704888D02*
X1603000Y706294D01*
X1603682Y706763*
X1603682D02*
X1604705D01*
X1604705D02*
X1605386Y706294D01*
X1605727Y704888*
X1605727D02*
Y700200D01*
X1609136Y706763D02*
X1608795Y706294D01*
X1609136Y705825*
X1609477Y706294*
X1609136Y706763*
Y701138D02*
X1608795Y700669D01*
X1609136Y700200*
X1609477Y700669*
X1609136Y701138*
X1359818Y695200D02*
X1359364Y696450D01*
X1358455Y697700*
X1357545Y698325*
X1355727*
X1354818Y697700*
X1353909Y696450*
X1353455Y695200*
X1353000Y693325*
Y690200*
X1353455Y688325*
X1353909Y687075*
X1354818Y685825*
X1355727Y685200*
X1357545*
X1358455Y685825*
X1359364Y687075*
X1359818Y688325*
X1364364Y695200D02*
Y695825D01*
X1364818Y697075*
X1365273Y697700*
X1366182Y698325*
X1368000*
X1368909Y697700*
X1369364Y697075*
X1369818Y695825*
Y694575*
X1369364Y693325*
X1368455Y691450*
X1363909Y685200*
X1370273*
X1376636Y698325D02*
X1375273Y697700D01*
X1374818Y696450*
Y695200*
X1375273Y693950*
X1376182Y693325*
X1378000Y692700*
X1379364Y692075*
X1380273Y690825*
X1380727Y689575*
Y687700*
X1380273Y686450*
X1379818Y685825*
X1378455Y685200*
X1376636*
X1375273Y685825*
X1374818Y686450*
X1374364Y687700*
Y689575*
X1374818Y690825*
X1375727Y692075*
X1377091Y692700*
X1378909Y693325*
X1379818Y693950*
X1380273Y695200*
Y696450*
X1379818Y697700*
X1378455Y698325*
X1376636*
X1385727D02*
X1390727D01*
X1388000Y693325*
X1389364*
X1390273Y692700*
X1390727Y692075*
X1391182Y690200*
Y688950*
X1390727Y687075*
X1389818Y685825*
X1388455Y685200*
X1387091*
X1385727Y685825*
X1385273Y686450*
X1384818Y687700*
X1399818Y698325D02*
X1395273Y689575D01*
X1402091*
X1399818Y698325D02*
Y685200D01*
X1406182Y693950D02*
X1411182Y685200D01*
Y693950D02*
X1406182Y685200D01*
X1631773Y699813D02*
X1632682Y700438D01*
X1632682D02*
X1634045Y702313D01*
X1634045D02*
Y689187D01*
X1638591Y690437D02*
X1638136Y689812D01*
X1638136D02*
X1638591Y689187D01*
X1638591D02*
X1639045Y689812D01*
X1639045D02*
X1638591Y690437D01*
X1643136Y699813D02*
X1644045Y700438D01*
X1644045D02*
X1645409Y702313D01*
X1645409D02*
Y689187D01*
X1399545Y810513D02*
Y797387D01*
X1396364Y810513D02*
X1402727D01*
X1406818Y802387D02*
X1412273D01*
X1412273D02*
Y803637D01*
X1412273D02*
X1411818Y804887D01*
X1411818D02*
X1411364Y805513D01*
X1411364D02*
X1410455Y806138D01*
X1410455D02*
X1409091D01*
X1409091D02*
X1408182Y805513D01*
X1408182D02*
X1407273Y804262D01*
X1407273D02*
X1406818Y802387D01*
X1406818D02*
Y801137D01*
X1406818D02*
X1407273Y799262D01*
X1407273D02*
X1408182Y798012D01*
X1408182D02*
X1409091Y797387D01*
X1409091D02*
X1410455D01*
X1410455D02*
X1411364Y798012D01*
X1411364D02*
X1412273Y799262D01*
X1416364Y806138D02*
X1421364Y797387D01*
Y806138D02*
X1416364Y797387D01*
X1430909Y806138D02*
Y797387D01*
Y804262D02*
X1430000Y805513D01*
X1430000D02*
X1429091Y806138D01*
X1429091D02*
X1427727D01*
X1427727D02*
X1426818Y805513D01*
X1426818D02*
X1425909Y804262D01*
X1425909D02*
X1425455Y802387D01*
X1425455D02*
Y801137D01*
X1425455D02*
X1425909Y799262D01*
X1425909D02*
X1426818Y798012D01*
X1426818D02*
X1427727Y797387D01*
X1427727D02*
X1429091D01*
X1429091D02*
X1430000Y798012D01*
X1430000D02*
X1430909Y799262D01*
X1440000Y804262D02*
X1439545Y805513D01*
X1439545D02*
X1438182Y806138D01*
X1438182D02*
X1436818D01*
X1436818D02*
X1435455Y805513D01*
X1435455D02*
X1435000Y804262D01*
X1435000D02*
X1435455Y803012D01*
X1435455D02*
X1436364Y802387D01*
X1436364D02*
X1438636Y801762D01*
X1438636D02*
X1439545Y801137D01*
X1439545D02*
X1440000Y799887D01*
X1440000D02*
Y799262D01*
X1440000D02*
X1439545Y798012D01*
X1439545D02*
X1438182Y797387D01*
X1438182D02*
X1436818D01*
X1436818D02*
X1435455Y798012D01*
X1435455D02*
X1435000Y799262D01*
X1454545Y810513D02*
Y797387D01*
X1458636Y806138D02*
Y797387D01*
Y803637D02*
X1460000Y805513D01*
X1460000D02*
X1460909Y806138D01*
X1460909D02*
X1462273D01*
X1462273D02*
X1463182Y805513D01*
X1463182D02*
X1463636Y803637D01*
X1463636D02*
Y797387D01*
X1472727Y804262D02*
X1472273Y805513D01*
X1472273D02*
X1470909Y806138D01*
X1470909D02*
X1469545D01*
X1469545D02*
X1468182Y805513D01*
X1468182D02*
X1467727Y804262D01*
X1467727D02*
X1468182Y803012D01*
X1468182D02*
X1469091Y802387D01*
X1469091D02*
X1471364Y801762D01*
X1471364D02*
X1472273Y801137D01*
X1472273D02*
X1472727Y799887D01*
X1472727D02*
Y799262D01*
X1472727D02*
X1472273Y798012D01*
X1472273D02*
X1470909Y797387D01*
X1470909D02*
X1469545D01*
X1469545D02*
X1468182Y798012D01*
X1468182D02*
X1467727Y799262D01*
X1478182Y810513D02*
Y799887D01*
X1478182D02*
X1478636Y798012D01*
X1478636D02*
X1479545Y797387D01*
X1479545D02*
X1480455D01*
X1476818Y806138D02*
X1480000D01*
X1484545D02*
Y797387D01*
Y802387D02*
X1485000Y804262D01*
X1485000D02*
X1485909Y805513D01*
X1485909D02*
X1486818Y806138D01*
X1486818D02*
X1488182D01*
X1492273D02*
Y799887D01*
X1492273D02*
X1492727Y798012D01*
X1492727D02*
X1493636Y797387D01*
X1493636D02*
X1495000D01*
X1495000D02*
X1495909Y798012D01*
X1495909D02*
X1497273Y799887D01*
Y806138D02*
Y797387D01*
X1501364Y806138D02*
Y797387D01*
Y803637D02*
X1502727Y805513D01*
X1502727D02*
X1503636Y806138D01*
X1503636D02*
X1505000D01*
X1505000D02*
X1505909Y805513D01*
X1505909D02*
X1506364Y803637D01*
X1506364D02*
Y797387D01*
Y803637D02*
X1507727Y805513D01*
X1507727D02*
X1508636Y806138D01*
X1508636D02*
X1510000D01*
X1510000D02*
X1510909Y805513D01*
X1510909D02*
X1511364Y803637D01*
X1511364D02*
Y797387D01*
X1515455Y802387D02*
X1520909D01*
X1520909D02*
Y803637D01*
X1520909D02*
X1520455Y804887D01*
X1520455D02*
X1520000Y805513D01*
X1520000D02*
X1519091Y806138D01*
X1519091D02*
X1517727D01*
X1517727D02*
X1516818Y805513D01*
X1516818D02*
X1515909Y804262D01*
X1515909D02*
X1515455Y802387D01*
X1515455D02*
Y801137D01*
X1515455D02*
X1515909Y799262D01*
X1515909D02*
X1516818Y798012D01*
X1516818D02*
X1517727Y797387D01*
X1517727D02*
X1519091D01*
X1519091D02*
X1520000Y798012D01*
X1520000D02*
X1520909Y799262D01*
X1525000Y806138D02*
Y797387D01*
Y803637D02*
X1526364Y805513D01*
X1526364D02*
X1527273Y806138D01*
X1527273D02*
X1528636D01*
X1528636D02*
X1529545Y805513D01*
X1529545D02*
X1530000Y803637D01*
X1530000D02*
Y797387D01*
X1535455Y810513D02*
Y799887D01*
X1535455D02*
X1535909Y798012D01*
X1535909D02*
X1536818Y797387D01*
X1536818D02*
X1537727D01*
X1534091Y806138D02*
X1537273D01*
X1546818Y804262D02*
X1546364Y805513D01*
X1546364D02*
X1545000Y806138D01*
X1545000D02*
X1543636D01*
X1543636D02*
X1542273Y805513D01*
X1542273D02*
X1541818Y804262D01*
X1541818D02*
X1542273Y803012D01*
X1542273D02*
X1543182Y802387D01*
X1543182D02*
X1545455Y801762D01*
X1545455D02*
X1546364Y801137D01*
X1546364D02*
X1546818Y799887D01*
X1546818D02*
Y799262D01*
X1546818D02*
X1546364Y798012D01*
X1546364D02*
X1545000Y797387D01*
X1545000D02*
X1543636D01*
X1543636D02*
X1542273Y798012D01*
X1542273D02*
X1541818Y799262D01*
X1374578Y746247D02*
X1374123Y747497D01*
X1373214Y748747*
X1372305Y749372*
X1370487*
X1369578Y748747*
X1368669Y747497*
X1368214Y746247*
X1367759Y744372*
Y741247*
X1368214Y739372*
X1368669Y738122*
X1369578Y736872*
X1370487Y736247*
X1372305*
X1373214Y736872*
X1374123Y738122*
X1374578Y739372*
X1379123Y746247D02*
Y746872D01*
X1379578Y748122*
X1380032Y748747*
X1380941Y749372*
X1382759*
X1383669Y748747*
X1384123Y748122*
X1384578Y746872*
Y745622*
X1384123Y744372*
X1383214Y742497*
X1378669Y736247*
X1385032*
X1391396Y749372D02*
X1390032Y748747D01*
X1389578Y747497*
Y746247*
X1390032Y744997*
X1390941Y744372*
X1392759Y743747*
X1394123Y743122*
X1395032Y741872*
X1395487Y740622*
Y738747*
X1395032Y737497*
X1394578Y736872*
X1393214Y736247*
X1391396*
X1390032Y736872*
X1389578Y737497*
X1389123Y738747*
Y740622*
X1389578Y741872*
X1390487Y743122*
X1391850Y743747*
X1393669Y744372*
X1394578Y744997*
X1395032Y746247*
Y747497*
X1394578Y748747*
X1393214Y749372*
X1391396*
X1400487D02*
X1405487D01*
X1402759Y744372*
X1404123*
X1405032Y743747*
X1405487Y743122*
X1405941Y741247*
Y739997*
X1405487Y738122*
X1404578Y736872*
X1403214Y736247*
X1401850*
X1400487Y736872*
X1400032Y737497*
X1399578Y738747*
X1414578Y749372D02*
X1410032Y740622D01*
X1416850*
X1414578Y749372D02*
Y736247D01*
X1420941Y744997D02*
X1425941Y736247D01*
Y744997D02*
X1420941Y736247D01*
X1447305Y746247D02*
X1446850Y747497D01*
X1445941Y748747*
X1445032Y749372*
X1443214*
X1442305Y748747*
X1441396Y747497*
X1440941Y746247*
X1440487Y744372*
Y741247*
X1440941Y739372*
X1441396Y738122*
X1442305Y736872*
X1443214Y736247*
X1445032*
X1445941Y736872*
X1446850Y738122*
X1447305Y739372*
X1454123Y749372D02*
X1453214Y748747D01*
X1452305Y747497*
X1451850Y746247*
X1451396Y744372*
Y741247*
X1451850Y739372*
X1452305Y738122*
X1453214Y736872*
X1454123Y736247*
X1455941*
X1456850Y736872*
X1457759Y738122*
X1458214Y739372*
X1458669Y741247*
Y744372*
X1458214Y746247*
X1457759Y747497*
X1456850Y748747*
X1455941Y749372*
X1454123*
X1462759D02*
Y736247D01*
Y749372D02*
X1469123Y736247D01*
Y749372D02*
Y736247D01*
X1476396Y749372D02*
Y736247D01*
X1473214Y749372D02*
X1479578D01*
X1483669D02*
Y736247D01*
Y749372D02*
X1487759D01*
X1489123Y748747*
X1489578Y748122*
X1490032Y746872*
Y745622*
X1489578Y744372*
X1489123Y743747*
X1487759Y743122*
X1483669*
X1486850D02*
X1490032Y736247D01*
X1496850Y749372D02*
X1495941Y748747D01*
X1495032Y747497*
X1494578Y746247*
X1494123Y744372*
Y741247*
X1494578Y739372*
X1495032Y738122*
X1495941Y736872*
X1496850Y736247*
X1498669*
X1499578Y736872*
X1500487Y738122*
X1500941Y739372*
X1501396Y741247*
Y744372*
X1500941Y746247*
X1500487Y747497*
X1499578Y748747*
X1498669Y749372*
X1496850*
X1505487D02*
Y736247D01*
X1510941*
X1532305Y746247D02*
X1531850Y747497D01*
X1530941Y748747*
X1530032Y749372*
X1528214*
X1527305Y748747*
X1526396Y747497*
X1525941Y746247*
X1525487Y744372*
Y741247*
X1525941Y739372*
X1526396Y738122*
X1527305Y736872*
X1528214Y736247*
X1530032*
X1530941Y736872*
X1531850Y738122*
X1532305Y739372*
X1540032Y749372D02*
X1536396Y736247D01*
X1540032Y749372D02*
X1543669Y736247D01*
X1537759Y740622D02*
X1542305D01*
X1547759Y749372D02*
Y736247D01*
Y749372D02*
X1551850D01*
X1553214Y748747*
X1553669Y748122*
X1554123Y746872*
Y745622*
X1553669Y744372*
X1553214Y743747*
X1551850Y743122*
X1547759*
X1550941D02*
X1554123Y736247D01*
X1558214Y749372D02*
Y736247D01*
Y749372D02*
X1561396D01*
X1562759Y748747*
X1563669Y747497*
X1564123Y746247*
X1564578Y744372*
Y741247*
X1564123Y739372*
X1563669Y738122*
X1562759Y736872*
X1561396Y736247*
X1558214*
X1340114Y664184D02*
X1343864D01*
X1341818Y660434*
X1342841*
X1343523Y659966*
X1343864Y659497*
X1344205Y658091*
Y657153*
X1343864Y655747*
X1343182Y654809*
X1342159Y654341*
X1341136*
X1340114Y654809*
X1339773Y655278*
X1339432Y656216*
X1499386Y663984D02*
Y654141D01*
X1502455Y660703D02*
Y654141D01*
Y658828D02*
X1503477Y660234D01*
X1504159Y660703*
X1505182*
X1505864Y660234*
X1506205Y658828*
Y654141*
X1510295Y663984D02*
Y656016D01*
X1510636Y654609*
X1511318Y654141*
X1512000*
X1509273Y660703D02*
X1511659D01*
X1515068Y657891D02*
X1519159D01*
Y658828*
X1518818Y659766*
X1518477Y660234*
X1517795Y660703*
X1516773*
X1516091Y660234*
X1515409Y659297*
X1515068Y657891*
Y656953*
X1515409Y655547*
X1516091Y654609*
X1516773Y654141*
X1517795*
X1518477Y654609*
X1519159Y655547*
X1522227Y660703D02*
Y654141D01*
Y657891D02*
X1522568Y659297D01*
X1523250Y660234*
X1523932Y660703*
X1524955*
X1528023D02*
Y654141D01*
Y658828D02*
X1529045Y660234D01*
X1529727Y660703*
X1530750*
X1531432Y660234*
X1531773Y658828*
Y654141*
X1538932Y660703D02*
Y654141D01*
Y659297D02*
X1538250Y660234D01*
X1537568Y660703*
X1536545*
X1535864Y660234*
X1535182Y659297*
X1534841Y657891*
Y656953*
X1535182Y655547*
X1535864Y654609*
X1536545Y654141*
X1537568*
X1538250Y654609*
X1538932Y655547*
X1542000Y663984D02*
Y654141D01*
X1557682Y662578D02*
X1557000Y663516D01*
X1555977Y663984*
X1554614*
X1553591Y663516*
X1552909Y662578*
Y661641*
X1553250Y660703*
X1553591Y660234*
X1554273Y659766*
X1556318Y658828*
X1557000Y658359*
X1557341Y657891*
X1557682Y656953*
Y655547*
X1557000Y654609*
X1555977Y654141*
X1554614*
X1553591Y654609*
X1552909Y655547*
X1560750Y663984D02*
X1561091Y663516D01*
X1561432Y663984*
X1561091Y664453*
X1560750Y663984*
X1561091Y660703D02*
Y654141D01*
X1568591Y660703D02*
Y653203D01*
X1568250Y651797*
X1567909Y651328*
X1567227Y650859*
X1566205*
X1565523Y651328*
X1568591Y659297D02*
X1567909Y660234D01*
X1567227Y660703*
X1566205*
X1565523Y660234*
X1564841Y659297*
X1564500Y657891*
Y656953*
X1564841Y655547*
X1565523Y654609*
X1566205Y654141*
X1567227*
X1567909Y654609*
X1568591Y655547*
X1571659Y660703D02*
Y654141D01*
Y658828D02*
X1572682Y660234D01*
X1573364Y660703*
X1574386*
X1575068Y660234*
X1575409Y658828*
Y654141*
X1582568Y660703D02*
Y654141D01*
Y659297D02*
X1581886Y660234D01*
X1581205Y660703*
X1580182*
X1579500Y660234*
X1578818Y659297*
X1578477Y657891*
Y656953*
X1578818Y655547*
X1579500Y654609*
X1580182Y654141*
X1581205*
X1581886Y654609*
X1582568Y655547*
X1585636Y663984D02*
Y654141D01*
X1596545Y662109D02*
X1597227Y662578D01*
X1598250Y663984*
Y654141*
G54D28*
X1228377Y1012415D02*
X1229125Y1013163D01*
Y1015111*
X1229574Y1015560*
X1232232*
X1232877Y1014915*
X1247377*
X1250022Y1017560*
X1257377*
X1259377Y1015560*
X1263022*
X1267877Y1020415*
X1288800Y1012189D02*
Y1016560D01*
X1292377Y1020137*
X1070078Y1017860D02*
X1070932Y1018714D01*
X1073727*
X1074379Y1018063*
X1084879*
X1085877Y1019060*
X1091377*
X1093377Y1017060*
Y1012060*
X1083877Y1020060D02*
X1093377D01*
X1096377Y1017060*
Y1012060*
X1085227Y1050214D02*
X1085381Y1050060D01*
X1086877*
X1089377Y1047560*
Y1026714*
X1092031Y1024060*
X1104377*
X1116377Y1012060*
X1190877Y1048864D02*
Y1043465D01*
X1195227Y1039114*
Y1034214*
X1191877Y1047513D02*
Y1044065D01*
X1202227Y1033714*
X1191877Y1047513D02*
X1195003Y1050640D01*
X1180827Y1051014D02*
Y1057327D01*
X1189214Y1065714*
X1229481Y1041060D02*
X1260754D01*
X1261293Y1040521*
X1275000*
X1276479Y1042000*
X1286542*
X1299500Y1029042*
Y1022000*
X1301000Y1020500*
X1305500*
X1226227Y1022360D02*
X1232377D01*
X1235676Y1019060*
X1240877*
X1244377Y1022560*
X1246526*
X1248026Y1021060*
X1264576*
X1267503Y1023988*
X1271950*
X1273078Y1022860*
X1218578Y1041819D02*
X1221481Y1038915D01*
X1241976*
X1242877Y1038014*
X1244863*
X1244877Y1038000*
X1202827Y1040673D02*
X1208440Y1035060D01*
X1236377*
X1237377Y1034060*
X1243877*
X1245377Y1035560*
X1255377*
X1217127Y1038614D02*
X1218528Y1037214D01*
X1220574*
X1220377Y1022915D02*
X1223377Y1025915D01*
X1238732*
X1239877Y1027060*
X1243877*
X1223877Y1019060D02*
X1225022Y1017915D01*
X1233877*
X1234732Y1017060*
X1242877*
X1243022*
X1243877Y1017915*
X1224377Y1023915D02*
Y1021210D01*
X1226227Y1019360*
X1233877*
X1235176Y1018060*
X1241428*
X1243227Y1019860*
X1246727*
X1217377Y1019415D02*
X1219522D01*
X1222267Y1016671*
X1232767*
X1233437Y1016000*
X1246816*
X1249377Y1018560*
X1258377*
X1259377Y1017560*
X1260877*
X1226904Y1040027D02*
X1247911D01*
X1248877Y1039060*
X1254000*
X1200727Y1023714D02*
Y1019714D01*
X1203151Y1017291*
X1218497*
X1221074Y1014714*
X1226078*
X1228377Y1012415*
X1200727Y1023714D02*
X1202227Y1025214D01*
Y1033714*
X1199728Y1041714D02*
X1207381Y1034060D01*
X1235377*
X1236377Y1033060*
X1245377*
X1246816Y1034500*
X1250437*
X1252377Y1032560*
X1259877*
X1261377Y1034060*
X1285377*
X1292377Y1027060*
Y1020137*
X1195527Y1041914D02*
X1205381Y1032060D01*
X1233377*
X1234449Y1030988*
X1245304*
X1248578Y1027714*
X1258224*
X1263078Y1022860*
X1205881Y1033060D02*
X1234377D01*
X1235377Y1032060*
X1246060*
X1247500Y1033500*
X1249937*
X1251877Y1031560*
X1260877*
X1262377Y1033060*
X1283781*
X1286500Y1030342*
Y1023500*
X1247148Y1053789D02*
X1248723Y1052214D01*
X1263227*
X1270227Y1045214*
X1276227*
X1247178Y1052260D02*
X1248223Y1051214D01*
X1262727*
X1270727Y1043214*
X1273727*
X1246798Y1050640D02*
X1247260Y1050177D01*
X1261265*
X1266227Y1045214*
X1238877Y1028915D02*
X1245672D01*
X1249026Y1025560*
X1256377*
X1241377Y1049060D02*
X1241877Y1049560D01*
X1245877*
X1246377Y1049060*
X1260881*
X1264227Y1045714*
Y1044714*
X1266227Y1042714*
X1268727*
X1255377Y1035560D02*
X1259316Y1039500D01*
X1284877*
X1240877Y1025060D02*
X1247522D01*
X1249522Y1023060*
X1256727*
X1243877Y1017915D02*
X1247232D01*
X1249377Y1020060*
X1265022*
X1267377Y1022415*
X1270499*
X1272377Y1020537*
X1275755*
X1278078Y1022860*
X1077500Y1075684D02*
Y1035437D01*
X1090377Y1022560*
X1102877*
X1113377Y1012060*
X1077500Y1075684D02*
X1079877Y1078060D01*
X1085877*
X1087377Y1079560*
Y1092561*
X1083040Y1075112D02*
X1088330D01*
X1090227Y1073214*
Y1061900*
X1097727Y1054400*
X1100400*
X1081227Y1065214D02*
X1081326Y1065116D01*
X1084224*
X1084330Y1065112*
X1097042Y1052400*
X1098800*
X1075500Y1076184D02*
Y1032437D01*
X1086377Y1021560*
X1093877*
X1103377Y1012060*
X1075500Y1076184D02*
X1077877Y1078560D01*
Y1089060*
X1079676Y1090860*
X1082078*
X1132000Y1076500D02*
X1136000D01*
X1141000Y1081500*
X1152000*
X1153750Y1083250*
X1162375*
X1164125Y1085000*
X1166000*
X1167500Y1083500*
X1174000*
X1146000Y1093500D02*
Y1087000D01*
X1147000Y1086000*
X1151000*
X1146000Y1093500D02*
X1147500Y1095000D01*
X1153000*
X1156286Y1091714*
X1179227*
X1182073Y1094560*
X1203305*
X1205535Y1092330*
X1207612*
X1207706Y1092236*
X1147000Y1093000D02*
Y1089000D01*
X1148000Y1088000*
X1149500*
X1147000Y1093000D02*
X1148000Y1094000D01*
X1152500*
X1155786Y1090714*
X1179727*
X1182573Y1093560*
X1202727*
X1205019Y1091269*
X1207073*
X1207101Y1091241*
X1153500Y1085000D02*
X1155700D01*
X1156200Y1084500*
X1160300*
X1162500Y1086700*
X1192418*
X1192578Y1086860*
X1193078*
X1145000Y1094000D02*
Y1085500D01*
X1146500Y1084000*
X1149500*
X1145000Y1094000D02*
X1147000Y1096000D01*
X1153500*
X1156786Y1092714*
X1173227*
X1177227Y1096714*
X1182074*
X1183228Y1095560*
X1203888*
X1206074Y1093375*
X1208167*
X1208261Y1093281*
X1149500Y1092000D02*
X1153000D01*
X1155286Y1089714*
X1180227*
X1183073Y1092560*
X1202227*
X1204574Y1090214*
X1205074*
X1151500Y1090000D02*
X1153500D01*
X1154786Y1088714*
X1180727*
X1183573Y1091560*
X1201608*
X1202877Y1090291*
X1134000Y1070000D02*
Y1063900D01*
X1141400Y1056500*
X1117227Y1091663D02*
Y1096227D01*
X1118000Y1097000*
X1119500*
X1121000Y1098500*
Y1101500*
X1123500Y1104000*
X1132000*
X1139000*
X1141000Y1106000*
X1119227Y1093163D02*
Y1094727D01*
X1121500Y1097000*
X1123500*
X1125000Y1098500*
Y1101500*
X1126500Y1103000*
X1141500*
X1144000Y1105500*
Y1107500*
X1121227Y1091663D02*
Y1094727D01*
X1122500Y1096000*
X1125000*
X1126000Y1097000*
Y1100500*
X1127500Y1102000*
X1142500*
X1148000Y1107500*
X1123377Y1093163D02*
X1123714Y1093500D01*
X1125000*
X1128000Y1096500*
Y1100000*
X1129000Y1101000*
X1145500*
X1150000Y1105500*
X1155000Y1080000D02*
X1159937D01*
X1163877Y1076060*
X1184727*
X1176327Y1062214D02*
X1183402D01*
X1188500Y1067312*
X1157500Y1086500D02*
X1160286D01*
X1161500Y1087714*
X1181227*
X1184073Y1090560*
X1199228*
X1201302Y1088486*
Y1088435*
X1180227Y1073714D02*
X1180327Y1073814D01*
X1184950*
X1189227Y1069537*
X1228078Y1092143D02*
X1230227Y1094293D01*
X1243573Y1058560D02*
X1244527Y1059514D01*
X1277500*
X1286000Y1051014*
Y1047500*
X1244123Y1068560D02*
X1257877D01*
X1259377Y1067060*
X1249727Y1080714D02*
X1286377D01*
X1288223Y1082560*
X1293531*
X1295377Y1080714*
X1306000*
X1310786Y1085500*
X1316500*
X1317000Y1085000*
X1247627Y1085114D02*
Y1087614D01*
X1254527Y1094514*
X1280927*
X1290727Y1084714*
X1292859*
X1293074Y1084500*
X1240377Y1061714D02*
X1240723Y1062060D01*
X1244381*
X1245727Y1060714*
X1256027*
X1256527Y1061214*
X1259727*
X1247078Y1055360D02*
X1249223Y1053214D01*
X1264727*
X1270227Y1047714*
X1242982Y1066060D02*
X1244227Y1064814D01*
X1246423*
X1246477Y1064760*
X1247227Y1076214D02*
X1250727D01*
X1253227Y1073714*
X1241427Y1065014D02*
X1243227Y1063214D01*
X1244727*
X1246227Y1061714*
X1255227*
X1256727Y1063214*
X1277000*
X1288714Y1051500*
X1296000*
X1303000Y1044500*
X1305500*
X1250341Y1082801D02*
X1254814D01*
X1261427Y1089414*
X1266527*
X1266727Y1089214*
X1241381Y1057560D02*
X1244573D01*
X1245227Y1058214*
X1261727*
X1269227Y1050714*
X1282286*
X1283500Y1049500*
Y1047000*
X1288286Y1042214*
X1293727*
X1241831Y1069014D02*
X1243877Y1071060D01*
X1253877*
X1255377Y1069560*
X1258377*
X1259377Y1070560*
X1283440*
X1285500Y1068500*
X1299500*
X1304500Y1063500*
Y1051560*
X1305877Y1050184*
Y1048560*
X1249227Y1083714D02*
Y1087414D01*
X1255027Y1093214*
X1272027*
X1276027Y1089214*
X1281727*
X1246477Y1064760D02*
X1246531Y1064814D01*
X1247940*
X1250686Y1067560*
X1256500*
X1259000Y1065060*
X1261560*
X1263500Y1067000*
X1275500*
X1288000Y1054500*
X1297437*
X1303377Y1048560*
X1247592Y1056575D02*
X1249877Y1054289D01*
X1255106*
X1256377Y1055560*
X1253227Y1073714D02*
X1258227Y1078714D01*
X1283877*
X1285531Y1077060*
X1293223*
X1294877Y1078714*
X1314227*
X1319227Y1083714*
Y1094214*
X1321227Y1096214*
X1323227*
X1028077Y1113512D02*
X1060500D01*
X1063488Y1116500*
X1074512*
X1077500Y1113512*
X1104077*
X1111279Y1120714*
X1127000*
X1128500Y1122214*
X1170727*
X1172227Y1120714*
Y1119360*
X1173227Y1118360*
X1184087*
X1185727Y1120000*
X1197060*
X1198060Y1119000*
X1206940*
X1208500Y1120560*
X1241440*
X1249000Y1113000*
X1254000*
X1043577Y1118312D02*
X1066727D01*
X1071630Y1123214*
X1185227*
X1186727Y1121714*
X1197500*
X1198214Y1121000*
X1200000*
X1085078Y1094860D02*
X1087377Y1092561D01*
X1130500Y1109000D02*
X1132500Y1111000D01*
X1146000*
X1148900Y1113900*
X1166100*
X1169000Y1111000*
X1174200*
X1175000Y1111800*
X1181000*
X1128000Y1106500D02*
Y1110500D01*
X1132000Y1114500*
X1136286*
X1140786Y1119000*
X1162500*
X1167000Y1114500*
X1188227*
X1119227Y1099714D02*
Y1102714D01*
X1125500Y1108987*
Y1113500*
X1132000Y1120000*
X1163000*
X1167500Y1115500*
X1186000*
X1187000Y1116500*
X1191727*
X1150300Y1109000D02*
X1153700Y1112400D01*
X1165600*
X1168500Y1109500*
X1184788*
X1187573Y1106714*
X1201031*
X1210377Y1116060*
X1213877*
X1219877Y1110060*
X1234227*
X1238192Y1106096*
Y1097350*
X1239098Y1096444*
X1117677Y1111112D02*
X1120727D01*
X1130615Y1121000*
X1163500*
X1167640Y1116860*
X1184366*
X1186220Y1118714*
X1196000*
X1197714Y1117000*
X1204500*
X1172500Y1105000D02*
X1176214D01*
X1177500Y1103714*
X1202531*
X1206877Y1108060*
X1216877*
X1217877Y1107060*
X1225877*
X1231178Y1101760*
X1167500Y1101000D02*
X1169786D01*
X1171500Y1102714*
X1203531*
X1206377Y1105560*
X1211877*
X1214377Y1103060*
X1227727*
X1230227Y1100560*
Y1094293*
X1154500Y1108000D02*
X1157400Y1110900D01*
X1165100*
X1167500Y1108500*
X1184288*
X1187073Y1105714*
X1201531*
X1205877Y1110060*
X1217877*
X1218877Y1109060*
X1226877*
X1234378Y1101560*
X1158000Y1108000D02*
X1165500D01*
X1166000Y1107500*
X1183788*
X1186573Y1104714*
X1202031*
X1206377Y1109060*
X1217377*
X1218377Y1108060*
X1226377*
X1232798Y1101639*
Y1099644*
X1162000Y1097714D02*
Y1102000D01*
X1163500Y1103500*
X1165500*
X1162000Y1097714D02*
X1164714Y1095000D01*
X1172513*
X1176227Y1098714*
X1189377*
X1190531Y1097560*
X1205377*
X1207377Y1095560*
X1212381*
X1217227Y1090714*
X1172000Y1100500D02*
X1173214Y1101714D01*
X1204031*
X1206877Y1104560*
X1210377*
X1225070Y1089867*
X1163214Y1098000D02*
X1165000Y1096214D01*
X1172227*
X1175727Y1099714*
X1206031*
X1207377Y1101060*
X1209877*
X1218227Y1092710*
X1163214Y1098000D02*
Y1100714D01*
X1164000Y1101500*
X1161000Y1096714D02*
X1164000Y1093714D01*
X1172727*
X1176727Y1097714*
X1185574*
X1186728Y1096560*
X1204728*
X1206728Y1094560*
X1208981*
X1212627Y1090914*
X1214827*
X1215727Y1090014*
X1161000Y1096714D02*
Y1104500D01*
X1162500Y1106000*
X1164000*
X1165500Y1099000D02*
X1168200D01*
X1169600Y1097600*
X1171600*
X1174714Y1100714*
X1205031*
X1206877Y1102560*
X1210377*
X1221727Y1091210*
X1200000Y1121000D02*
X1203786D01*
X1204500Y1121714*
X1257786*
X1261000Y1118500*
X1278000*
X1244500Y1099000D02*
X1252942D01*
X1256227Y1095714*
X1282723*
X1288723Y1089714*
X1296727*
G54D30*
X1315985Y1057094D03*
Y1061031D03*
X1321891Y1057094D03*
Y1061031D03*
G54D31*
X1035074Y1013714D03*
X1100227Y1011714D03*
X1110227D03*
X1203074Y1013214D03*
X1253877Y1012060D03*
X1020578Y1036860D03*
X1018074Y1050214D03*
X1031578Y1032860D03*
X1024078Y1052860D03*
X1029078Y1053360D03*
X1065500Y1028500D03*
X1043578Y1024860D03*
X1047578Y1036360D03*
X1037078Y1052860D03*
X1036777Y1028012D03*
X1039077Y1041187D03*
X1056000Y1054000D03*
X1112877Y1027060D03*
X1097227Y1029214D03*
X1145074D03*
X1134074Y1025214D03*
X1130727Y1027214D03*
X1115574Y1030714D03*
X1115200Y1046000D03*
X1130800Y1033200D03*
X1182000Y1033500D03*
X1162000Y1040500D03*
Y1033500D03*
X1178000Y1040500D03*
X1171500Y1028000D03*
X1189727Y1039860D03*
X1182000Y1026000D03*
X1184377Y1040060D03*
X1156477Y1024312D03*
X1165277Y1028312D03*
Y1020712D03*
X1213727Y1029214D03*
X1229727Y1028714D03*
X1217227Y1029214D03*
X1209227D03*
X1204727D03*
X1223727Y1028714D03*
X1206574Y1014714D03*
X1240377Y1036560D03*
X1248500Y1031000D03*
X1273227Y1048214D03*
X1244877Y1047060D03*
X1262727Y1036214D03*
X1235952Y1028587D03*
X1256377Y1015060D03*
X1312078Y1048860D03*
X1311078Y1031360D03*
X1281227Y1048214D03*
X1296227Y1038714D03*
X1277727Y1036214D03*
X1305227Y1014663D03*
X1311227Y1023714D03*
X1300227Y1015714D03*
X1280077Y1015060D03*
X1333000Y1024000D03*
X1347227Y1027214D03*
X1342078Y1040860D03*
X1347227Y1020714D03*
X1342078Y1044360D03*
Y1037360D03*
X1023077Y1093812D03*
X1022677Y1063012D03*
X1034177Y1055912D03*
X1033078Y1093860D03*
X1028078Y1083360D03*
X1044574Y1090214D03*
X1038074Y1093714D03*
X1056000Y1060500D03*
X1064877Y1056312D03*
X1048574Y1090214D03*
X1046578Y1082360D03*
X1045078Y1069360D03*
X1064477Y1086312D03*
X1103078Y1061360D03*
X1105074Y1082214D03*
X1100727Y1077663D03*
X1096500Y1066500D03*
X1130227Y1067714D03*
X1115377Y1085560D03*
X1130227Y1061214D03*
X1131078Y1081360D03*
X1191727Y1056714D03*
X1193574Y1075835D03*
X1182500Y1068000D03*
X1216727Y1063714D03*
X1251677Y1063912D03*
X1258077Y1074312D03*
X1254877Y1065112D03*
X1272077Y1084312D03*
X1255227Y1089214D03*
X1311500Y1091000D03*
X1311074Y1064714D03*
X1301078Y1075360D03*
X1311000Y1072500D03*
Y1069500D03*
X1300574Y1085714D03*
X1279277Y1084712D03*
X1317000Y1085000D03*
X1323277Y1083512D03*
X1326378Y1083460D03*
X1335678Y1069960D03*
X1330000Y1092000D03*
X1013000Y1111000D03*
Y1117500D03*
X1023074Y1102714D03*
X1048500Y1108500D03*
X1069500Y1113000D03*
X1044574Y1108714D03*
X1038227Y1102714D03*
X1064477Y1096312D03*
X1100000Y1104500D03*
X1115500Y1098300D03*
X1175727Y1120860D03*
X1183227D03*
X1179227D03*
X1169300Y1119500D03*
X1178377Y1094560D03*
X1169300Y1103700D03*
X1215377Y1105560D03*
X1195877Y1110060D03*
X1219927Y1116614D03*
X1229727Y1116214D03*
X1208727Y1098214D03*
X1220377Y1098560D03*
X1227727Y1098714D03*
X1249000Y1102000D03*
X1261500Y1107500D03*
X1241500Y1112500D03*
X1235227Y1104214D03*
X1253500Y1117500D03*
X1246500Y1094500D03*
X1240477Y1098712D03*
X1256900Y1098400D03*
X1343727Y1110714D03*
Y1117714D03*
X1323227Y1114714D03*
X1340227Y1103214D03*
X1326727Y1096214D03*
X1323227D03*
X1335227Y1110714D03*
G54D32*
X1060000Y1012000D03*
X1086077Y1012312D03*
X1096377Y1012060D03*
X1106377D03*
X1113377D03*
X1103377D03*
X1083377Y1012189D03*
X1093377Y1012060D03*
X1123377D03*
X1116377D03*
X1136377D03*
X1141377Y1013560D03*
X1146377Y1012060D03*
X1151377Y1013560D03*
X1126377Y1012060D03*
X1143377D03*
X1133377D03*
X1153377D03*
X1148377Y1013560D03*
X1138377D03*
X1156377Y1012060D03*
X1161377Y1013560D03*
X1158377D03*
X1226277Y1011460D03*
X1228377Y1012415D03*
X1223577Y1011360D03*
X1233800Y1012189D03*
X1231074Y1013714D03*
X1216077Y1012312D03*
X1211227Y1012214D03*
X1213677Y1012312D03*
X1208727Y1012214D03*
X1218877Y1012415D03*
X1221477Y1012312D03*
X1238877Y1012415D03*
X1236227Y1012214D03*
X1246227Y1012215D03*
X1251377Y1014060D03*
X1266227Y1012215D03*
X1271227D03*
X1241377Y1012415D03*
X1243800Y1012189D03*
X1248800D03*
X1258800D03*
X1263800D03*
X1268800D03*
X1273800D03*
X1311227Y1012214D03*
X1286227D03*
X1291227D03*
X1276227D03*
X1296227D03*
X1283800Y1012189D03*
X1288800D03*
X1293800D03*
X1298800D03*
X1308800D03*
X1313800D03*
X1316227Y1012214D03*
X1318727D03*
X1321727Y1011714D03*
X1064500Y1036000D03*
X1056000Y1042000D03*
X1067000Y1022000D03*
X1060227Y1025560D03*
X1062727Y1021500D03*
X1056227Y1023500D03*
X1058877Y1021500D03*
X1070078Y1017860D03*
X1054500Y1018000D03*
X1064877Y1046312D03*
X1113000Y1053000D03*
X1093000Y1027500D03*
X1078227Y1022060D03*
X1083877Y1020060D03*
X1085227Y1050214D03*
Y1046214D03*
X1094727Y1031214D03*
X1085227Y1039714D03*
X1083727Y1044214D03*
Y1052214D03*
X1099227Y1040163D03*
X1100400Y1042800D03*
X1098227Y1044163D03*
X1110500Y1054000D03*
X1098800Y1052400D03*
X1100400Y1050400D03*
X1098800Y1048400D03*
X1100400Y1046400D03*
X1154100Y1034900D03*
X1153000Y1046000D03*
X1149000Y1054000D03*
X1142000D03*
X1134000Y1044500D03*
X1123227Y1050500D03*
X1132500Y1042500D03*
X1141000Y1035000D03*
X1128500Y1014500D03*
X1132500Y1046500D03*
X1115500Y1041000D03*
X1117727Y1050663D03*
X1114727D03*
X1120727D03*
X1134500Y1048500D03*
X1134000Y1040500D03*
X1132500Y1050500D03*
X1134500Y1052500D03*
X1160000Y1050000D03*
X1191574Y1052214D03*
X1156500Y1041300D03*
X1180827Y1051014D03*
X1192727Y1038860D03*
X1193877Y1045060D03*
X1188078Y1015360D03*
X1192078D03*
X1185677Y1031512D03*
X1194077D03*
X1186877Y1037360D03*
X1188077Y1029912D03*
X1232798Y1050640D03*
X1226227Y1022360D03*
X1220377Y1022915D03*
X1223877Y1019060D03*
X1224377Y1023915D03*
X1217377Y1019415D03*
X1220574Y1037214D03*
X1220200Y1053789D03*
X1226499D03*
X1220200Y1050640D03*
X1213901Y1047490D03*
X1201302D03*
X1232798Y1053789D03*
X1220200Y1047490D03*
X1213901Y1050640D03*
Y1053789D03*
X1229649D03*
Y1044340D03*
X1201302Y1050640D03*
X1196078Y1015360D03*
X1200078D03*
X1198153Y1044340D03*
X1207601Y1053789D03*
Y1047490D03*
X1200077Y1029912D03*
X1210751Y1047490D03*
X1195227Y1034214D03*
X1207601Y1050640D03*
X1210751D03*
X1201302Y1044340D03*
X1229649Y1047490D03*
X1223350Y1044340D03*
X1210751D03*
X1204452Y1050640D03*
X1198153Y1053789D03*
X1232798Y1047490D03*
X1226499Y1044340D03*
X1220200D03*
X1229649Y1050640D03*
X1223350Y1047490D03*
X1210751Y1053789D03*
X1204452Y1047490D03*
X1195003Y1053789D03*
X1204452D03*
X1198153Y1050640D03*
X1195003D03*
X1226499Y1047490D03*
X1232798Y1044340D03*
X1226499Y1050640D03*
X1223350D03*
Y1053789D03*
X1201302D03*
X1213901Y1044340D03*
X1207601D03*
X1204452D03*
X1198153Y1047490D03*
X1239098Y1044340D03*
X1256377Y1025560D03*
X1246727Y1019860D03*
X1239098Y1047490D03*
X1238877Y1028915D03*
X1256727Y1023060D03*
X1260877Y1017560D03*
X1273727Y1043214D03*
X1266227Y1045214D03*
X1255377Y1035560D03*
X1243877Y1027060D03*
X1244877Y1038000D03*
X1270227Y1047714D03*
X1254000Y1039060D03*
X1240877Y1025060D03*
X1235948Y1047490D03*
X1239098Y1053789D03*
X1235948D03*
X1239098Y1050640D03*
X1243877Y1017915D03*
X1273078Y1022860D03*
X1263078D03*
X1267877Y1020415D03*
X1268727Y1042714D03*
X1235948Y1044340D03*
X1303377Y1048560D03*
X1289574Y1023714D03*
X1286000Y1047500D03*
X1305877Y1048560D03*
X1305500Y1044500D03*
X1293727Y1042214D03*
X1284877Y1039500D03*
X1286500Y1023500D03*
X1303000Y1023000D03*
Y1039500D03*
X1276227Y1045214D03*
X1291727Y1046214D03*
X1297227D03*
X1294727D03*
X1305500Y1020500D03*
X1281000Y1020000D03*
X1289227Y1046214D03*
X1296000Y1023500D03*
X1278078Y1022860D03*
X1329000Y1018500D03*
X1322578Y1036860D03*
X1328227Y1021714D03*
X1327227Y1029214D03*
X1056500Y1082000D03*
X1064500Y1066000D03*
Y1076000D03*
X1083040Y1075112D03*
X1081227Y1065214D03*
X1085227Y1054214D03*
X1100227Y1085163D03*
X1100727Y1063663D03*
X1085227Y1057163D03*
X1105074Y1057214D03*
X1098578Y1086860D03*
X1082078Y1090860D03*
X1082578Y1084360D03*
X1084578Y1088860D03*
X1100078Y1093360D03*
Y1089360D03*
X1098078Y1090860D03*
X1100400Y1054400D03*
X1084500Y1082500D03*
X1107000Y1078500D03*
X1153500Y1075000D03*
X1137000Y1054500D03*
X1132000Y1076500D03*
X1151000Y1086000D03*
X1144000Y1077500D03*
X1141400Y1056500D03*
X1149500Y1088000D03*
X1153500Y1085000D03*
X1143500Y1075000D03*
X1139500Y1069100D03*
X1149500Y1092000D03*
Y1084000D03*
X1151500Y1090000D03*
X1134000Y1070000D03*
X1130300Y1078200D03*
Y1074500D03*
X1115727Y1074163D03*
X1117227Y1091663D03*
X1119227Y1093163D03*
X1121227Y1091663D03*
X1123377Y1093163D03*
X1133000Y1093000D03*
Y1089000D03*
X1132877Y1084060D03*
X1134500Y1091000D03*
X1133877Y1086560D03*
X1158300Y1066300D03*
X1154500Y1067500D03*
X1166000Y1071500D03*
X1161500Y1063500D03*
X1174000Y1083500D03*
X1159500Y1062100D03*
X1155000Y1080000D03*
X1165000Y1083000D03*
X1176327Y1062214D03*
X1157500Y1086500D03*
X1160500Y1057000D03*
X1165500Y1059500D03*
X1180227Y1073714D03*
X1189727Y1088714D03*
X1201303Y1075835D03*
X1229649Y1072687D03*
X1201302Y1069537D03*
X1229649Y1060088D03*
X1195003Y1069537D03*
X1198153D03*
X1232798D03*
X1210751Y1088435D03*
X1207601Y1078986D03*
X1210751Y1075836D03*
X1220200Y1082136D03*
X1223350Y1085285D03*
X1220200D03*
X1207601D03*
X1232798Y1063238D03*
X1210751Y1082136D03*
X1213901D03*
Y1085285D03*
X1210751D03*
X1201302Y1088435D03*
X1232798Y1060088D03*
X1226499D03*
X1223350Y1056939D03*
X1232798D03*
X1195003Y1082136D03*
X1210751Y1056939D03*
X1226499Y1063238D03*
Y1056939D03*
X1204452Y1063238D03*
X1198153Y1060088D03*
X1195003Y1078986D03*
X1201302Y1072687D03*
X1210752Y1078987D03*
X1204452Y1088437D03*
X1229649Y1088435D03*
X1226499Y1069537D03*
X1223350Y1088435D03*
X1198153D03*
X1213901Y1075836D03*
X1207601Y1082136D03*
X1204452D03*
X1201302Y1078986D03*
X1220200Y1088435D03*
Y1078986D03*
X1226499D03*
Y1072687D03*
X1229649Y1075836D03*
Y1063238D03*
Y1056939D03*
Y1069537D03*
X1232798Y1082136D03*
Y1072687D03*
X1226499Y1075836D03*
X1223350D03*
X1220200D03*
X1213901Y1056939D03*
X1195003Y1060088D03*
Y1063238D03*
X1204452Y1069537D03*
X1207601Y1072687D03*
X1213901Y1078986D03*
Y1088435D03*
X1198153Y1078986D03*
X1204452Y1085285D03*
X1207601Y1088435D03*
X1204452Y1056939D03*
X1220200D03*
X1232798Y1088435D03*
X1207601Y1069537D03*
X1201302Y1063238D03*
X1229649Y1085285D03*
Y1082136D03*
X1207601Y1056939D03*
X1201302Y1060088D03*
X1198153Y1063238D03*
X1226499Y1085285D03*
X1232798D03*
X1195003Y1088435D03*
Y1085285D03*
X1201302Y1082136D03*
X1198153D03*
X1204452Y1078986D03*
X1232798Y1075836D03*
X1198153Y1085285D03*
X1256377Y1055560D03*
X1273227Y1065214D03*
X1246727Y1089714D03*
X1264877Y1065214D03*
X1259377Y1067060D03*
X1253377Y1056060D03*
X1246477Y1064760D03*
X1247227Y1073714D03*
X1253227D03*
X1256227Y1071714D03*
X1235948Y1063238D03*
Y1082136D03*
X1239098Y1069537D03*
X1235948D03*
Y1072687D03*
X1260227Y1082714D03*
X1266727Y1089214D03*
X1251727Y1085163D03*
X1239098Y1072687D03*
Y1082136D03*
Y1085285D03*
X1235948D03*
X1239098Y1056939D03*
X1235948Y1060088D03*
X1239098D03*
Y1078986D03*
X1235948Y1088435D03*
Y1056939D03*
X1242477Y1060312D03*
X1239098Y1063238D03*
X1267727Y1068714D03*
X1239098Y1088435D03*
X1259727Y1061214D03*
X1239098Y1075836D03*
X1281227Y1065214D03*
X1293074Y1084500D03*
X1289227Y1065214D03*
X1281727Y1089214D03*
X1290727Y1079663D03*
Y1072163D03*
X1279227Y1067663D03*
X1296727Y1089714D03*
X1319500Y1071500D03*
X1335500Y1063000D03*
X1320877Y1067912D03*
X1028077Y1113512D03*
X1043577Y1118312D03*
X1064500Y1106000D03*
X1107227Y1103714D03*
X1100078Y1096860D03*
X1085078Y1094860D03*
X1083277Y1096712D03*
X1085277Y1098712D03*
X1098078Y1098860D03*
Y1094860D03*
X1113677Y1111512D03*
X1091500Y1110500D03*
X1135500Y1106000D03*
X1130500Y1109000D03*
X1135000Y1117500D03*
X1154000Y1116500D03*
X1128000Y1106500D03*
X1141000Y1106000D03*
X1144000Y1107500D03*
X1150000Y1105500D03*
X1119227Y1099714D03*
X1123227D03*
X1148000Y1107500D03*
X1150300Y1109000D03*
X1134500Y1099000D03*
X1133000Y1097000D03*
X1134500Y1095000D03*
X1146500Y1116500D03*
X1117677Y1111112D03*
X1172500Y1105000D03*
X1167500Y1101000D03*
X1154500Y1108000D03*
X1158000D03*
X1172000Y1100500D03*
X1179574Y1105714D03*
X1188227Y1114500D03*
X1164000Y1101500D03*
X1161000Y1116000D03*
X1181000Y1111800D03*
X1164000Y1106000D03*
X1165500Y1099000D03*
Y1103500D03*
X1191727Y1116500D03*
X1200000Y1121000D03*
X1211500Y1114000D03*
X1204500Y1117000D03*
X1199500Y1110500D03*
X1244500Y1099000D03*
X1254000Y1113000D03*
X1262727Y1100163D03*
X1274227Y1104714D03*
X1278000Y1118500D03*
X1296727Y1104714D03*
X1304227D03*
X1289227D03*
X1281727D03*
G54D33*
X652000Y645200D02*
X1688000D01*
Y1350000*
X652000*
Y645200*
X1253500D02*
X1688000D01*
Y840200*
X1253500*
Y645200*
X1253000Y785200D02*
X1688000D01*
Y645200*
X1253000*
Y785200*
Y675200D02*
X1688000D01*
Y645200*
X1253000*
Y675200*
X1413000*
Y645200*
X1253000*
Y675200*
Y785200D02*
X1688000D01*
Y840200*
X1253000*
Y785200*
Y715200D02*
X1688000D01*
Y785200*
X1253000*
Y715200*
X1553000Y675200D02*
X1688000D01*
Y715200*
X1553000*
Y675200*
X818500Y675700D02*
X1024000D01*
Y645200*
X818500*
Y675700*
X1024000Y645200D02*
X1253500D01*
Y675700*
X1024000*
Y645200*
X818500Y785700D02*
X1253500D01*
Y675700*
X818500*
Y785700*
G54D38*
X1190877Y1048864D02*
X1194223Y1052210D01*
X1206031*
X1207601Y1050640*
X1199728Y1041714D02*
Y1045915D01*
X1201302Y1047490*
X1195527Y1041914D02*
Y1048014D01*
X1198153Y1050640*
X1228074Y1042468D02*
Y1058513D01*
X1229649Y1060088*
X1228074Y1042468D02*
X1229481Y1041060D01*
X1232798Y1053789D02*
X1234369Y1055360D01*
X1247078*
X1229649Y1053789D02*
X1231227Y1052210D01*
X1235333*
X1238483Y1049060*
X1241377*
X1201302Y1050640D02*
X1202827Y1049114D01*
Y1040673*
X1196527Y1042414D02*
Y1045865D01*
X1198153Y1047490*
X1196527Y1042414D02*
X1205881Y1033060D01*
X1204452Y1053789D02*
X1206026Y1055364D01*
X1215478*
X1217127Y1053714*
Y1038614*
X1239098Y1053789D02*
X1247148D01*
X1235948D02*
X1237478Y1052260D01*
X1247178*
X1239098Y1050640D02*
X1246798D01*
X1193078Y1086860D02*
X1199078D01*
X1202877Y1083060*
Y1081560*
X1203878Y1080560*
X1206028*
X1207601Y1078986*
X1184727Y1076060D02*
X1187877D01*
X1191078Y1072860*
X1195078*
X1196478Y1074260*
X1209174*
X1210751Y1075836*
X1189214Y1065714D02*
X1197479D01*
X1201302Y1069537*
X1189227D02*
X1195003D01*
X1188500Y1067312D02*
X1195927D01*
X1198153Y1069537*
X1207706Y1092236D02*
X1210751Y1089191D01*
Y1088435*
X1202877Y1090291D02*
Y1084560D01*
X1203778Y1083659*
X1209227*
X1210751Y1082136*
X1228078Y1092143D02*
Y1083707D01*
X1229649Y1082136*
X1224924Y1058513D02*
Y1042018D01*
X1226904Y1040027*
X1224924Y1058513D02*
X1226499Y1060088D01*
X1225070Y1089867D02*
Y1086714D01*
X1226499Y1085285*
X1221727Y1091210D02*
Y1086907D01*
X1223350Y1085285*
X1217227Y1090714D02*
Y1085108D01*
X1220200Y1082136*
X1218227Y1092710D02*
Y1087258D01*
X1220200Y1085285*
X1208261Y1093281D02*
X1212326Y1089216D01*
Y1086860*
X1213901Y1085285*
X1205074Y1090214D02*
X1206026Y1089261D01*
Y1086860*
X1207601Y1085285*
X1207101Y1091241D02*
X1209176Y1089166D01*
Y1086714*
X1210751Y1085285*
X1231178Y1058560D02*
Y1065065D01*
X1232973Y1066860*
X1242422*
X1244123Y1068560*
X1231178Y1058560D02*
X1232798Y1056939D01*
Y1069537D02*
X1234480Y1067660D01*
X1240476*
X1241831Y1069014*
X1232798Y1063238D02*
X1235620Y1066060D01*
X1242982*
X1213901Y1082136D02*
X1215727Y1083962D01*
Y1090014*
X1232798Y1060088D02*
X1234424Y1061714D01*
X1240377*
X1204452Y1056939D02*
X1206026Y1058513D01*
X1216683*
X1218578Y1056618*
Y1041819*
X1229649Y1085285D02*
X1231178Y1086814D01*
Y1101760*
X1232798Y1085285D02*
X1234378Y1086865D01*
Y1101560*
X1195003Y1085285D02*
X1196627Y1083661D01*
Y1078114*
X1197332Y1077410*
X1239923*
X1247627Y1085114*
X1235948Y1063238D02*
X1237724Y1065014D01*
X1241427*
X1239098Y1069537D02*
X1240550D01*
X1247227Y1076214*
X1235948Y1069537D02*
X1237570Y1071160D01*
X1240173*
X1249727Y1080714*
X1235948Y1072687D02*
X1237521Y1074260D01*
X1239773*
X1249227Y1083714*
X1239098Y1072687D02*
X1240227D01*
X1250341Y1082801*
X1239098Y1056939D02*
X1240377D01*
X1240741Y1056575*
X1247592*
X1235948Y1060088D02*
X1237477Y1058560D01*
X1240382*
X1241381Y1057560*
X1239098Y1060088D02*
X1240349D01*
X1241877Y1058560*
X1243573*
X1232798Y1099644D02*
Y1088435D01*
X1239098Y1096444D02*
Y1088435D01*
G54D60*
G54D69*
X1318938Y1059063D03*
X0Y0D02*
M02*
