*
*
G04 PADS Layout (Build Number 2008.43.1) generated Gerber (RS-274-X) file*
G04 PC Version=2.1*
*
%IN "TEX003.pcb"*%
*
%MOIN*%
*
%FSLAX35Y35*%
*
*
*
*
G04 PC Standard Apertures*
*
*
G04 Thermal Relief Aperture macro.*
%AMTER*
1,1,$1,0,0*
1,0,$1-$2,0,0*
21,0,$3,$4,0,0,45*
21,0,$3,$4,0,0,135*
%
*
*
G04 Annular Aperture macro.*
%AMANN*
1,1,$1,0,0*
1,0,$2,0,0*
%
*
*
G04 Odd Aperture macro.*
%AMODD*
1,1,$1,0,0*
1,0,$1-0.005,0,0*
%
*
*
G04 PC Custom Aperture Macros*
*
*
*
*
*
*
G04 PC Aperture Table*
*
%ADD011R,0.039X0.039*%
%ADD012R,0.051X0.051*%
%ADD013R,0.026X0.026*%
%ADD014R,0.03937X0.03937*%
%ADD015R,0.017X0.017*%
%ADD016R,0.011X0.011*%
%ADD019R,0.027X0.027*%
%ADD027C,0.01*%
%ADD028C,0.005*%
%ADD029C,0.012*%
%ADD030C,0.02*%
%ADD031C,0.028*%
%ADD032C,0.018*%
%ADD033C,0.008*%
%ADD038C,0.004*%
%ADD041R,0.08X0.08*%
%ADD042C,0.006*%
%ADD060C,0*%
%ADD066R,0.065X0.065*%
*
*
*
*
G04 PC Circuitry*
G04 Layer Name TEX003.pcb - circuitry*
%LPD*%
*
*
G04 PC Custom Flashes*
G04 Layer Name TEX003.pcb - flashes*
%LPD*%
*
*
G04 PC Circuitry*
G04 Layer Name TEX003.pcb - circuitry*
%LPD*%
*
G54D11*
G01X1279451Y1073188D02*
Y1073588D01*
Y1079888D02*
Y1080288D01*
X1161277Y1020762D02*
Y1021162D01*
Y1027462D02*
Y1027862D01*
X1034124Y1102714D02*
X1033724D01*
X1027424D02*
X1027024D01*
X1328263Y1103025D02*
X1328663D01*
X1334963D02*
X1335363D01*
X1187074Y1052764D02*
Y1052364D01*
Y1046064D02*
Y1045664D01*
X1210263Y1040563D02*
Y1040163D01*
Y1033863D02*
Y1033463D01*
X1229950Y1040563D02*
Y1040163D01*
Y1033863D02*
Y1033463D01*
X1223650Y1040563D02*
Y1040163D01*
Y1033863D02*
Y1033463D01*
X1213413Y1070488D02*
Y1070088D01*
Y1063788D02*
Y1063388D01*
X1203963Y1091738D02*
Y1092138D01*
Y1098438D02*
Y1098838D01*
X1246727Y1077664D02*
Y1078064D01*
Y1084364D02*
Y1084764D01*
X1223650Y1091738D02*
Y1092138D01*
Y1098438D02*
Y1098838D01*
X1323263Y1110525D02*
X1323663D01*
X1329963D02*
X1330363D01*
X1236250Y1040563D02*
Y1040163D01*
Y1033863D02*
Y1033463D01*
X1220500Y1070488D02*
Y1070088D01*
Y1063788D02*
Y1063388D01*
X1216563Y1091738D02*
Y1092138D01*
Y1098438D02*
Y1098838D01*
X1217350Y1040563D02*
Y1040163D01*
Y1033863D02*
Y1033463D01*
X1203175Y1040563D02*
Y1040163D01*
Y1033863D02*
Y1033463D01*
X1189788Y1067338D02*
Y1066938D01*
Y1060638D02*
Y1060238D01*
X1242938Y1067725D02*
X1243338D01*
X1249638D02*
X1250038D01*
X1242938Y1056700D02*
X1243338D01*
X1249638D02*
X1250038D01*
X1189788Y1078350D02*
Y1078750D01*
Y1085050D02*
Y1085450D01*
X1076628Y1035860D02*
X1076228D01*
X1069928D02*
X1069528D01*
X1076628Y1045360D02*
X1076228D01*
X1069928D02*
X1069528D01*
X1076628Y1065360D02*
X1076228D01*
X1069928D02*
X1069528D01*
X1076628Y1075360D02*
X1076228D01*
X1069928D02*
X1069528D01*
Y1028360D02*
X1069928D01*
X1076228D02*
X1076628D01*
X1126550Y1033075D02*
X1126150D01*
X1119850D02*
X1119450D01*
X1126550Y1039375D02*
X1126150D01*
X1119850D02*
X1119450D01*
X1126550Y1046463D02*
X1126150D01*
X1119850D02*
X1119450D01*
Y1087413D02*
X1119850D01*
X1126150D02*
X1126550D01*
X1076628Y1085360D02*
X1076228D01*
X1069928D02*
X1069528D01*
X1076628Y1095360D02*
X1076228D01*
X1069928D02*
X1069528D01*
X1076628Y1105360D02*
X1076228D01*
X1069928D02*
X1069528D01*
Y1055360D02*
X1069928D01*
X1076228D02*
X1076628D01*
X1126550Y1061425D02*
X1126150D01*
X1119850D02*
X1119450D01*
X1126550Y1067725D02*
X1126150D01*
X1119850D02*
X1119450D01*
X1126550Y1074025D02*
X1126150D01*
X1119850D02*
X1119450D01*
X1255150Y1085450D02*
Y1085050D01*
Y1078750D02*
Y1078350D01*
X1331951Y1070288D02*
Y1069888D01*
Y1063588D02*
Y1063188D01*
X1306227Y1062664D02*
Y1063064D01*
Y1069364D02*
Y1069764D01*
X1296227Y1027664D02*
Y1028064D01*
Y1034364D02*
Y1034764D01*
X1303227D02*
Y1034364D01*
Y1028064D02*
Y1027664D01*
X1259078Y1036410D02*
Y1036010D01*
Y1029710D02*
Y1029310D01*
X1320363Y1103025D02*
X1319963D01*
X1313663D02*
X1313263D01*
X1285028Y1019860D02*
X1285428D01*
X1291728D02*
X1292128D01*
X1281677Y1042714D02*
X1282077D01*
X1288377D02*
X1288777D01*
X1184727Y1106164D02*
Y1106564D01*
Y1112864D02*
Y1113264D01*
X1191727Y1106164D02*
Y1106564D01*
Y1112864D02*
Y1113264D01*
X1130550Y1112500D02*
X1130150D01*
X1123850D02*
X1123450D01*
X1161050D02*
X1160650D01*
X1154350D02*
X1153950D01*
X1266578Y1036410D02*
Y1036010D01*
Y1029710D02*
Y1029310D01*
X1274078Y1036410D02*
Y1036010D01*
Y1029710D02*
Y1029310D01*
X1281578Y1036410D02*
Y1036010D01*
Y1029710D02*
Y1029310D01*
X1236250Y1091738D02*
Y1092138D01*
Y1098438D02*
Y1098838D01*
X1146550Y1112500D02*
X1146150D01*
X1139850D02*
X1139450D01*
X1126550Y1081113D02*
X1126150D01*
X1119850D02*
X1119450D01*
X1126550Y1027214D02*
X1126150D01*
X1119850D02*
X1119450D01*
X1126550Y1054860D02*
X1126150D01*
X1119850D02*
X1119450D01*
X1099950Y1108500D02*
X1100350D01*
X1106650D02*
X1107050D01*
X1149500Y1068450D02*
Y1068850D01*
Y1075150D02*
Y1075550D01*
X1176550Y1111000D02*
X1176150D01*
X1169850D02*
X1169450D01*
X1250025Y1094500D02*
X1250425D01*
X1256725D02*
X1257125D01*
X1249638Y1045288D02*
Y1044888D01*
Y1038588D02*
Y1038188D01*
X1311500Y1078950D02*
Y1079350D01*
Y1085650D02*
Y1086050D01*
X1322950Y1087500D02*
X1323350D01*
X1329650D02*
X1330050D01*
X1145000Y1046950D02*
Y1047350D01*
Y1053650D02*
Y1054050D01*
G54D12*
X1046974Y1102964D02*
X1046174D01*
X1046974Y1095464D02*
X1046174D01*
X1288328Y1028310D02*
X1289128D01*
X1288328Y1035810D02*
X1289128D01*
X1265627Y1060464D02*
X1264827D01*
X1265627Y1052964D02*
X1264827D01*
X1273627Y1060464D02*
X1272827D01*
X1273627Y1052964D02*
X1272827D01*
X1281627Y1060464D02*
X1280827D01*
X1281627Y1052964D02*
X1280827D01*
X1289627Y1060464D02*
X1288827D01*
X1289627Y1052964D02*
X1288827D01*
X1333400Y1036750D02*
X1332600D01*
X1333400Y1029250D02*
X1332600D01*
X1177400Y1033250D02*
X1176600D01*
X1177400Y1025750D02*
X1176600D01*
X1248750Y1107900D02*
Y1107100D01*
X1256250Y1107900D02*
Y1107100D01*
X1213250Y1023100D02*
Y1023900D01*
X1205750Y1023100D02*
Y1023900D01*
X1241250Y1117900D02*
Y1117100D01*
X1248750Y1117900D02*
Y1117100D01*
X1316050Y1022200D02*
Y1021400D01*
X1323550Y1022200D02*
Y1021400D01*
G54D13*
X1088050Y1031088D02*
X1091950D01*
X1088050Y1036088D02*
X1091950D01*
X1088050Y1041088D02*
X1091950D01*
X1088050Y1046088D02*
X1091950D01*
X1108050D02*
X1111950D01*
X1108050Y1041088D02*
X1111950D01*
X1108050Y1036088D02*
X1111950D01*
X1108050Y1031088D02*
X1111950D01*
X1088050Y1057075D02*
X1091950D01*
X1088050Y1062075D02*
X1091950D01*
X1088050Y1067075D02*
X1091950D01*
X1088050Y1072075D02*
X1091950D01*
X1108050D02*
X1111950D01*
X1108050Y1067075D02*
X1111950D01*
X1108050Y1062075D02*
X1111950D01*
X1108050Y1057075D02*
X1111950D01*
X1088050Y1082275D02*
X1091950D01*
X1088050Y1087275D02*
X1091950D01*
X1088050Y1092275D02*
X1091950D01*
X1088050Y1097275D02*
X1091950D01*
X1108050D02*
X1111950D01*
X1108050Y1092275D02*
X1111950D01*
X1108050Y1087275D02*
X1111950D01*
X1108050Y1082275D02*
X1111950D01*
G54D14*
X1035000Y1002756D02*
Y1007874D01*
X1040000Y1002756D02*
Y1007874D01*
X1045000Y1002756D02*
Y1007874D01*
X1050000Y1002756D02*
Y1007874D01*
X1055000Y1002756D02*
Y1007874D01*
X1060000Y1002756D02*
Y1007874D01*
X1085000Y1002756D02*
Y1007874D01*
X1090000Y1002756D02*
Y1007874D01*
X1095000Y1002756D02*
Y1007874D01*
X1100000Y1002756D02*
Y1007874D01*
X1105000Y1002756D02*
Y1007874D01*
X1110000Y1002756D02*
Y1007874D01*
X1115000Y1002756D02*
Y1007874D01*
X1120000Y1002756D02*
Y1007874D01*
X1125000Y1002756D02*
Y1007874D01*
X1130000Y1002756D02*
Y1007874D01*
X1135000Y1002756D02*
Y1007874D01*
X1140000Y1002756D02*
Y1007874D01*
X1145000Y1002756D02*
Y1007874D01*
X1150000Y1002756D02*
Y1007874D01*
X1155000Y1002756D02*
Y1007874D01*
X1160000Y1002756D02*
Y1007874D01*
X1185000Y1002756D02*
Y1007874D01*
X1190000Y1002756D02*
Y1007874D01*
X1195000Y1002756D02*
Y1007874D01*
X1200000Y1002756D02*
Y1007874D01*
X1205000Y1002756D02*
Y1007874D01*
X1210000Y1002756D02*
Y1007874D01*
X1215000Y1002756D02*
Y1007874D01*
X1220000Y1002756D02*
Y1007874D01*
X1225000Y1002756D02*
Y1007874D01*
X1230000Y1002756D02*
Y1007874D01*
X1235000Y1002756D02*
Y1007874D01*
X1240000Y1002756D02*
Y1007874D01*
X1245000Y1002756D02*
Y1007874D01*
X1250000Y1002756D02*
Y1007874D01*
X1255000Y1002756D02*
Y1007874D01*
X1260000Y1002756D02*
Y1007874D01*
X1265000Y1002756D02*
Y1007874D01*
X1270000Y1002756D02*
Y1007874D01*
X1275000Y1002756D02*
Y1007874D01*
X1280000Y1002756D02*
Y1007874D01*
X1285000Y1002756D02*
Y1007874D01*
X1290000Y1002756D02*
Y1007874D01*
X1295000Y1002756D02*
Y1007874D01*
X1300000Y1002756D02*
Y1007874D01*
X1305000Y1002756D02*
Y1007874D01*
X1310000Y1002756D02*
Y1007874D01*
X1315000Y1002756D02*
Y1007874D01*
X1320000Y1002756D02*
Y1007874D01*
G54D15*
X1147103Y1098234D02*
X1144803D01*
X1147103Y1083766D02*
X1144803D01*
X1141197D02*
X1138897D01*
X1141197Y1098234D02*
X1138897D01*
X1162103Y1105797D02*
X1159803D01*
X1162103Y1099203D02*
X1159803D01*
X1156197D02*
X1153897D01*
X1156197Y1105797D02*
X1153897D01*
G54D16*
X1147403Y1095921D02*
X1144503D01*
X1147403Y1093953D02*
X1144503D01*
X1147403Y1091984D02*
X1144503D01*
X1147403Y1090016D02*
X1144503D01*
X1147403Y1088047D02*
X1144503D01*
X1147403Y1086079D02*
X1144503D01*
X1141497D02*
X1138597D01*
X1141497Y1088047D02*
X1138597D01*
X1141497Y1090016D02*
X1138597D01*
X1141497Y1091984D02*
X1138597D01*
X1141497Y1093953D02*
X1138597D01*
X1141497Y1095921D02*
X1138597D01*
X1162403Y1103484D02*
X1159503D01*
X1162403Y1101516D02*
X1159503D01*
X1156497D02*
X1153597D01*
X1156497Y1103484D02*
X1153597D01*
G54D19*
X1261251Y1070498D02*
X1262451D01*
X1261251Y1074238D02*
X1262451D01*
X1261251Y1077978D02*
X1262451D01*
X1271451D02*
X1272651D01*
X1271451Y1074238D02*
X1272651D01*
X1271451Y1070498D02*
X1272651D01*
G54D27*
X1293580Y664184D02*
Y654341D01*
X1297670*
X1303466Y664184D02*
X1300739Y654341D01*
X1303466Y664184D02*
X1306193Y654341D01*
X1301761Y657622D02*
X1305170D01*
X1309261Y664184D02*
X1311989Y659497D01*
Y654341*
X1314716Y664184D02*
X1311989Y659497D01*
X1317784Y664184D02*
Y654341D01*
Y664184D02*
X1322216D01*
X1317784Y659497D02*
X1320511D01*
X1317784Y654341D02*
X1322216D01*
X1325284Y664184D02*
Y654341D01*
Y664184D02*
X1328352D01*
X1329375Y663716*
X1329716Y663247*
X1330057Y662309*
Y661372*
X1329716Y660434*
X1329375Y659966*
X1328352Y659497*
X1325284*
X1327670D02*
X1330057Y654341D01*
X1035078Y707903D02*
Y698060D01*
Y707903D02*
X1038146D01*
X1039169Y707435*
X1039509Y706966*
X1039850Y706028*
Y704622*
X1039509Y703685*
X1039169Y703216*
X1038146Y702747*
X1035078*
X1042919Y707903D02*
Y698060D01*
X1047691Y707903D02*
Y698060D01*
X1042919Y703216D02*
X1047691D01*
X1052805Y707903D02*
X1052123Y707435D01*
X1051441Y706497*
X1051100Y705560*
X1050759Y704153*
Y701810*
X1051100Y700403*
X1051441Y699466*
X1052123Y698528*
X1052805Y698060*
X1054169*
X1054850Y698528*
X1055532Y699466*
X1055873Y700403*
X1056214Y701810*
Y704153*
X1055873Y705560*
X1055532Y706497*
X1054850Y707435*
X1054169Y707903*
X1052805*
X1059282D02*
Y698060D01*
Y707903D02*
X1064055Y698060D01*
Y707903D02*
Y698060D01*
X1067123Y707903D02*
Y698060D01*
Y707903D02*
X1071555D01*
X1067123Y703216D02*
X1069850D01*
X1067123Y698060D02*
X1071555D01*
X1074964Y704622D02*
X1074623Y704153D01*
X1074964Y703685*
X1075305Y704153*
X1074964Y704622*
Y698997D02*
X1074623Y698528D01*
X1074964Y698060*
X1075305Y698528*
X1074964Y698997*
X1090646Y707903D02*
X1087237D01*
X1086896Y703685*
X1087237Y704153*
X1088259Y704622*
X1089282*
X1090305Y704153*
X1090987Y703216*
X1091328Y701810*
X1090987Y700872*
X1090646Y699466*
X1089964Y698528*
X1088941Y698060*
X1087919*
X1086896Y698528*
X1086555Y698997*
X1086214Y699935*
X1096441Y707903D02*
X1095419Y707435D01*
X1094737Y706028*
X1094396Y703685*
Y702278*
X1094737Y699935*
X1095419Y698528*
X1096441Y698060*
X1097123*
X1098146Y698528*
X1098828Y699935*
X1099169Y702278*
Y703685*
X1098828Y706028*
X1098146Y707435*
X1097123Y707903*
X1096441*
X1103941D02*
X1102919Y707435D01*
X1102578Y706497*
Y705560*
X1102919Y704622*
X1103600Y704153*
X1104964Y703685*
X1105987Y703216*
X1106669Y702278*
X1107009Y701341*
Y699935*
X1106669Y698997*
X1106328Y698528*
X1105305Y698060*
X1103941*
X1102919Y698528*
X1102578Y698997*
X1102237Y699935*
Y701341*
X1102578Y702278*
X1103259Y703216*
X1104282Y703685*
X1105646Y704153*
X1106328Y704622*
X1106669Y705560*
Y706497*
X1106328Y707435*
X1105305Y707903*
X1103941*
X1110419Y698997D02*
X1110078Y698528D01*
X1110419Y698060*
X1110759Y698528*
X1110419Y698997*
X1118259Y704622D02*
X1117919Y703216D01*
X1117237Y702278*
X1116214Y701810*
X1115873*
X1114850Y702278*
X1114169Y703216*
X1113828Y704622*
Y705091*
X1114169Y706497*
X1114850Y707435*
X1115873Y707903*
X1116214*
X1117237Y707435*
X1117919Y706497*
X1118259Y704622*
Y702278*
X1117919Y699935*
X1117237Y698528*
X1116214Y698060*
X1115532*
X1114509Y698528*
X1114169Y699466*
X1124737Y707903D02*
X1121328Y701341D01*
X1126441*
X1124737Y707903D02*
Y698060D01*
X1134282Y707903D02*
X1130873Y698060D01*
X1129509Y707903D02*
X1134282D01*
X1137691Y698997D02*
X1137350Y698528D01*
X1137691Y698060*
X1138032Y698528*
X1137691Y698997*
X1141441Y705560D02*
Y706028D01*
X1141782Y706966*
X1142123Y707435*
X1142805Y707903*
X1144169*
X1144850Y707435*
X1145191Y706966*
X1145532Y706028*
Y705091*
X1145191Y704153*
X1144509Y702747*
X1141100Y698060*
X1145873*
X1153714Y707903D02*
X1150305Y698060D01*
X1148941Y707903D02*
X1153714D01*
X1158828D02*
X1157805Y707435D01*
X1157123Y706028*
X1156782Y703685*
Y702278*
X1157123Y699935*
X1157805Y698528*
X1158828Y698060*
X1159509*
X1160532Y698528*
X1161214Y699935*
X1161555Y702278*
Y703685*
X1161214Y706028*
X1160532Y707435*
X1159509Y707903*
X1158828*
X1169055Y704622D02*
X1168714Y703216D01*
X1168032Y702278*
X1167009Y701810*
X1166669*
X1165646Y702278*
X1164964Y703216*
X1164623Y704622*
Y705091*
X1164964Y706497*
X1165646Y707435*
X1166669Y707903*
X1167009*
X1168032Y707435*
X1168714Y706497*
X1169055Y704622*
Y702278*
X1168714Y699935*
X1168032Y698528*
X1167009Y698060*
X1166328*
X1165305Y698528*
X1164964Y699466*
X1032578Y726403D02*
Y716560D01*
Y726403D02*
X1035305Y716560D01*
X1038032Y726403D02*
X1035305Y716560D01*
X1038032Y726403D02*
Y716560D01*
X1041100Y726403D02*
X1041441Y725935D01*
X1041782Y726403*
X1041441Y726872*
X1041100Y726403*
X1041441Y723122D02*
Y716560D01*
X1048941Y726403D02*
Y716560D01*
Y721716D02*
X1048259Y722653D01*
X1047578Y723122*
X1046555*
X1045873Y722653*
X1045191Y721716*
X1044850Y720310*
Y719372*
X1045191Y717966*
X1045873Y717028*
X1046555Y716560*
X1047578*
X1048259Y717028*
X1048941Y717966*
X1056100Y726403D02*
Y716560D01*
Y721716D02*
X1055419Y722653D01*
X1054737Y723122*
X1053714*
X1053032Y722653*
X1052350Y721716*
X1052009Y720310*
Y719372*
X1052350Y717966*
X1053032Y717028*
X1053714Y716560*
X1054737*
X1055419Y717028*
X1056100Y717966*
X1059169Y726403D02*
Y716560D01*
X1062237Y720310D02*
X1066328D01*
Y721247*
X1065987Y722185*
X1065646Y722653*
X1064964Y723122*
X1063941*
X1063259Y722653*
X1062578Y721716*
X1062237Y720310*
Y719372*
X1062578Y717966*
X1063259Y717028*
X1063941Y716560*
X1064964*
X1065646Y717028*
X1066328Y717966*
X1069396Y726403D02*
Y716560D01*
Y721716D02*
X1070078Y722653D01*
X1070759Y723122*
X1071782*
X1072464Y722653*
X1073146Y721716*
X1073487Y720310*
Y719372*
X1073146Y717966*
X1072464Y717028*
X1071782Y716560*
X1070759*
X1070078Y717028*
X1069396Y717966*
X1078259Y723122D02*
X1077578Y722653D01*
X1076896Y721716*
X1076555Y720310*
Y719372*
X1076896Y717966*
X1077578Y717028*
X1078259Y716560*
X1079282*
X1079964Y717028*
X1080646Y717966*
X1080987Y719372*
Y720310*
X1080646Y721716*
X1079964Y722653*
X1079282Y723122*
X1078259*
X1084055D02*
Y716560D01*
Y720310D02*
X1084396Y721716D01*
X1085078Y722653*
X1085759Y723122*
X1086782*
X1091555D02*
X1090873Y722653D01*
X1090191Y721716*
X1089850Y720310*
Y719372*
X1090191Y717966*
X1090873Y717028*
X1091555Y716560*
X1092578*
X1093259Y717028*
X1093941Y717966*
X1094282Y719372*
Y720310*
X1093941Y721716*
X1093259Y722653*
X1092578Y723122*
X1091555*
X1098032Y717028D02*
X1097691Y716560D01*
X1097350Y717028*
X1097691Y717497*
X1098032Y717028*
Y716091*
X1097691Y715153*
X1097350Y714685*
X1108941Y726403D02*
Y716560D01*
Y726403D02*
X1111669Y716560D01*
X1114396Y726403D02*
X1111669Y716560D01*
X1114396Y726403D02*
Y716560D01*
X1120191Y726403D02*
X1117464Y716560D01*
X1120191Y726403D02*
X1122919Y716560D01*
X1118487Y719841D02*
X1121896D01*
X1135873Y726403D02*
X1134850Y725935D01*
X1134169Y724528*
X1133828Y722185*
Y720778*
X1134169Y718435*
X1134850Y717028*
X1135873Y716560*
X1136555*
X1137578Y717028*
X1138259Y718435*
X1138600Y720778*
Y722185*
X1138259Y724528*
X1137578Y725935*
X1136555Y726403*
X1135873*
X1142009Y724060D02*
Y724528D01*
X1142350Y725466*
X1142691Y725935*
X1143373Y726403*
X1144737*
X1145419Y725935*
X1145759Y725466*
X1146100Y724528*
Y723591*
X1145759Y722653*
X1145078Y721247*
X1141669Y716560*
X1146441*
X1150191Y726403D02*
X1153941D01*
X1151896Y722653*
X1152919*
X1153600Y722185*
X1153941Y721716*
X1154282Y720310*
Y719372*
X1153941Y717966*
X1153259Y717028*
X1152237Y716560*
X1151214*
X1150191Y717028*
X1149850Y717497*
X1149509Y718435*
X1160759Y726403D02*
X1157350Y719841D01*
X1162464*
X1160759Y726403D02*
Y716560D01*
X1169623Y724997D02*
X1169282Y725935D01*
X1168259Y726403*
X1167578*
X1166555Y725935*
X1165873Y724528*
X1165532Y722185*
Y719841*
X1165873Y717966*
X1166555Y717028*
X1167578Y716560*
X1167919*
X1168941Y717028*
X1169623Y717966*
X1169964Y719372*
Y719841*
X1169623Y721247*
X1168941Y722185*
X1167919Y722653*
X1167578*
X1166555Y722185*
X1165873Y721247*
X1165532Y719841*
X1041078Y743028D02*
X1041759Y743497D01*
X1042782Y744903*
Y735060*
X1045850Y743028D02*
X1046532Y743497D01*
X1047555Y744903*
Y735060*
X1052328Y744903D02*
X1051305Y744435D01*
X1050964Y743497*
Y742560*
X1051305Y741622*
X1051987Y741153*
X1053350Y740685*
X1054373Y740216*
X1055055Y739278*
X1055396Y738341*
Y736935*
X1055055Y735997*
X1054714Y735528*
X1053691Y735060*
X1052328*
X1051305Y735528*
X1050964Y735997*
X1050623Y736935*
Y738341*
X1050964Y739278*
X1051646Y740216*
X1052669Y740685*
X1054032Y741153*
X1054714Y741622*
X1055055Y742560*
Y743497*
X1054714Y744435*
X1053691Y744903*
X1052328*
X1062896D02*
X1059487D01*
X1059146Y740685*
X1059487Y741153*
X1060509Y741622*
X1061532*
X1062555Y741153*
X1063237Y740216*
X1063578Y738810*
X1063237Y737872*
X1062896Y736466*
X1062214Y735528*
X1061191Y735060*
X1060169*
X1059146Y735528*
X1058805Y735997*
X1058464Y736935*
X1079600Y742560D02*
X1079259Y743497D01*
X1078578Y744435*
X1077896Y744903*
X1076532*
X1075850Y744435*
X1075169Y743497*
X1074828Y742560*
X1074487Y741153*
Y738810*
X1074828Y737403*
X1075169Y736466*
X1075850Y735528*
X1076532Y735060*
X1077896*
X1078578Y735528*
X1079259Y736466*
X1079600Y737403*
X1082669Y738810D02*
X1086759D01*
Y739747*
X1086419Y740685*
X1086078Y741153*
X1085396Y741622*
X1084373*
X1083691Y741153*
X1083009Y740216*
X1082669Y738810*
Y737872*
X1083009Y736466*
X1083691Y735528*
X1084373Y735060*
X1085396*
X1086078Y735528*
X1086759Y736466*
X1089828Y741622D02*
Y735060D01*
Y739747D02*
X1090850Y741153D01*
X1091532Y741622*
X1092555*
X1093237Y741153*
X1093578Y739747*
Y735060*
X1097669Y744903D02*
Y736935D01*
X1098009Y735528*
X1098691Y735060*
X1099373*
X1096646Y741622D02*
X1099032D01*
X1102441D02*
Y735060D01*
Y738810D02*
X1102782Y740216D01*
X1103464Y741153*
X1104146Y741622*
X1105169*
X1108237Y738810D02*
X1112328D01*
Y739747*
X1111987Y740685*
X1111646Y741153*
X1110964Y741622*
X1109941*
X1109259Y741153*
X1108578Y740216*
X1108237Y738810*
Y737872*
X1108578Y736466*
X1109259Y735528*
X1109941Y735060*
X1110964*
X1111646Y735528*
X1112328Y736466*
X1128009Y743497D02*
X1127328Y744435D01*
X1126305Y744903*
X1124941*
X1123919Y744435*
X1123237Y743497*
Y742560*
X1123578Y741622*
X1123919Y741153*
X1124600Y740685*
X1126646Y739747*
X1127328Y739278*
X1127669Y738810*
X1128009Y737872*
Y736466*
X1127328Y735528*
X1126305Y735060*
X1124941*
X1123919Y735528*
X1123237Y736466*
X1132100Y744903D02*
Y736935D01*
X1132441Y735528*
X1133123Y735060*
X1133805*
X1131078Y741622D02*
X1133464D01*
X1136873D02*
Y735060D01*
Y738810D02*
X1137214Y740216D01*
X1137896Y741153*
X1138578Y741622*
X1139600*
X1142669Y738810D02*
X1146759D01*
Y739747*
X1146419Y740685*
X1146078Y741153*
X1145396Y741622*
X1144373*
X1143691Y741153*
X1143009Y740216*
X1142669Y738810*
Y737872*
X1143009Y736466*
X1143691Y735528*
X1144373Y735060*
X1145396*
X1146078Y735528*
X1146759Y736466*
X1149828Y738810D02*
X1153919D01*
Y739747*
X1153578Y740685*
X1153237Y741153*
X1152555Y741622*
X1151532*
X1150850Y741153*
X1150169Y740216*
X1149828Y738810*
Y737872*
X1150169Y736466*
X1150850Y735528*
X1151532Y735060*
X1152555*
X1153237Y735528*
X1153919Y736466*
X1158009Y744903D02*
Y736935D01*
X1158350Y735528*
X1159032Y735060*
X1159714*
X1156987Y741622D02*
X1159373D01*
X1165773Y666513D02*
X1161227Y657762D01*
X1161227D02*
X1168045D01*
X1165773Y666513D02*
Y653387D01*
X1180318Y669013D02*
X1172136Y649012D01*
X1187136Y666513D02*
X1185773Y665888D01*
X1185773D02*
X1184864Y664013D01*
X1184864D02*
X1184409Y660887D01*
X1184409D02*
Y659012D01*
X1184409D02*
X1184864Y655887D01*
X1184864D02*
X1185773Y654012D01*
X1185773D02*
X1187136Y653387D01*
X1187136D02*
X1188045D01*
X1188045D02*
X1189409Y654012D01*
X1189409D02*
X1190318Y655887D01*
X1190318D02*
X1190773Y659012D01*
X1190773D02*
Y660887D01*
X1190773D02*
X1190318Y664013D01*
X1190318D02*
X1189409Y665888D01*
X1189409D02*
X1188045Y666513D01*
X1188045D02*
X1187136D01*
X1195318Y663388D02*
Y664013D01*
X1195318D02*
X1195773Y665263D01*
X1195773D02*
X1196227Y665888D01*
X1196227D02*
X1197136Y666513D01*
X1197136D02*
X1198955D01*
X1198955D02*
X1199864Y665888D01*
X1199864D02*
X1200318Y665263D01*
X1200318D02*
X1200773Y664013D01*
X1200773D02*
Y662763D01*
X1200773D02*
X1200318Y661513D01*
X1200318D02*
X1199409Y659637D01*
X1199409D02*
X1194864Y653387D01*
X1194864D02*
X1201227D01*
X1213500Y669013D02*
X1205318Y649012D01*
X1220318Y666513D02*
X1218955Y665888D01*
X1218955D02*
X1218045Y664013D01*
X1218045D02*
X1217591Y660887D01*
X1217591D02*
Y659012D01*
X1217591D02*
X1218045Y655887D01*
X1218045D02*
X1218955Y654012D01*
X1218955D02*
X1220318Y653387D01*
X1220318D02*
X1221227D01*
X1221227D02*
X1222591Y654012D01*
X1222591D02*
X1223500Y655887D01*
X1223500D02*
X1223955Y659012D01*
X1223955D02*
Y660887D01*
X1223955D02*
X1223500Y664013D01*
X1223500D02*
X1222591Y665888D01*
X1222591D02*
X1221227Y666513D01*
X1221227D02*
X1220318D01*
X1233955Y662138D02*
X1233500Y660262D01*
X1233500D02*
X1232591Y659012D01*
X1232591D02*
X1231227Y658387D01*
X1231227D02*
X1230773D01*
X1230773D02*
X1229409Y659012D01*
X1229409D02*
X1228500Y660262D01*
X1228500D02*
X1228045Y662138D01*
X1228045D02*
Y662763D01*
X1228045D02*
X1228500Y664638D01*
X1228500D02*
X1229409Y665888D01*
X1229409D02*
X1230773Y666513D01*
X1230773D02*
X1231227D01*
X1231227D02*
X1232591Y665888D01*
X1232591D02*
X1233500Y664638D01*
X1233500D02*
X1233955Y662138D01*
X1233955D02*
Y659012D01*
X1233955D02*
X1233500Y655887D01*
X1233500D02*
X1232591Y654012D01*
X1232591D02*
X1231227Y653387D01*
X1231227D02*
X1230318D01*
X1230318D02*
X1228955Y654012D01*
X1228955D02*
X1228500Y655262D01*
X838909Y666344D02*
Y658844D01*
X838568Y657438*
X838568D02*
X838227Y656969D01*
X837545Y656500*
X836864*
X836182Y656969*
X835841Y657438*
X835841D02*
X835500Y658844D01*
Y659781*
X843682Y663063D02*
X843000Y662594D01*
X842318Y661656*
X841977Y660250*
Y659313*
X841977D02*
X842318Y657906D01*
X843000Y656969*
X843682Y656500*
X844705*
X845386Y656969*
X846068Y657906*
X846409Y659313*
X846409D02*
Y660250D01*
X846068Y661656*
X845386Y662594*
X844705Y663063*
X844705D02*
X843682D01*
X849477Y666344D02*
Y656500D01*
Y661656D02*
X850159Y662594D01*
X850841Y663063*
X850841D02*
X851864D01*
X851864D02*
X852545Y662594D01*
X853227Y661656*
X853568Y660250*
Y659313*
X853568D02*
X853227Y657906D01*
X852545Y656969*
X851864Y656500*
X850841*
X850159Y656969*
X849477Y657906*
X864477Y666344D02*
Y656500D01*
Y666344D02*
X869250Y656500D01*
Y666344D02*
Y656500D01*
X874023Y663063D02*
X873341Y662594D01*
X872659Y661656*
X872318Y660250*
Y659313*
X872318D02*
X872659Y657906D01*
X873341Y656969*
X874023Y656500*
X875045*
X875727Y656969*
X876409Y657906*
X876750Y659313*
X876750D02*
Y660250D01*
X876409Y661656*
X875727Y662594*
X875045Y663063*
X875045D02*
X874023D01*
X880159D02*
X879818Y662594D01*
X880159Y662125*
X880500Y662594*
X880159Y663063*
Y657438D02*
X879818Y656969D01*
X880159Y656500*
X880500Y656969*
X880159Y657438*
X1041000Y663544D02*
Y653700D01*
Y663544D02*
X1043386D01*
X1044409Y663075*
X1045091Y662138*
X1045091D02*
X1045432Y661200D01*
X1045773Y659794*
Y657450*
X1045432Y656044*
X1045091Y655106*
X1044409Y654169*
X1043386Y653700*
X1041000*
X1052932Y660263D02*
Y653700D01*
Y658856D02*
X1052250Y659794D01*
X1051568Y660263*
X1051568D02*
X1050545D01*
X1050545D02*
X1049864Y659794D01*
X1049182Y658856*
X1048841Y657450*
Y656513*
X1048841D02*
X1049182Y655106D01*
X1049864Y654169*
X1050545Y653700*
X1051568*
X1052250Y654169*
X1052932Y655106*
X1057023Y663544D02*
Y655575D01*
X1057364Y654169*
X1058045Y653700*
X1058727*
X1056000Y660263D02*
X1058386D01*
X1061795Y657450D02*
X1065886D01*
Y658388*
X1065886D02*
X1065545Y659325D01*
X1065205Y659794*
X1064523Y660263*
X1064523D02*
X1063500D01*
X1063500D02*
X1062818Y659794D01*
X1062136Y658856*
X1061795Y657450*
Y656513*
X1061795D02*
X1062136Y655106D01*
X1062818Y654169*
X1063500Y653700*
X1064523*
X1065205Y654169*
X1065886Y655106*
X1069295Y660263D02*
X1068955Y659794D01*
X1069295Y659325*
X1069636Y659794*
X1069295Y660263*
Y654638D02*
X1068955Y654169D01*
X1069295Y653700*
X1069636Y654169*
X1069295Y654638*
X841305Y763403D02*
X838578Y753560D01*
X841305Y763403D02*
X844032Y753560D01*
X839600Y756841D02*
X843009D01*
X847100Y760122D02*
Y753560D01*
Y757310D02*
X847441Y758716D01*
X848123Y759653*
X848805Y760122*
X849828*
X853919Y763403D02*
Y755435D01*
X854259Y754028*
X854941Y753560*
X855623*
X852896Y760122D02*
X855282D01*
X858691D02*
X860055Y753560D01*
X861419Y760122D02*
X860055Y753560D01*
X861419Y760122D02*
X862782Y753560D01*
X864146Y760122D02*
X862782Y753560D01*
X868919Y760122D02*
X868237Y759653D01*
X867555Y758716*
X867214Y757310*
Y756372*
X867555Y754966*
X868237Y754028*
X868919Y753560*
X869941*
X870623Y754028*
X871305Y754966*
X871646Y756372*
Y757310*
X871305Y758716*
X870623Y759653*
X869941Y760122*
X868919*
X874714D02*
Y753560D01*
Y757310D02*
X875055Y758716D01*
X875737Y759653*
X876419Y760122*
X877441*
X880509Y763403D02*
Y753560D01*
X883919Y760122D02*
X880509Y755435D01*
X881873Y757310D02*
X884259Y753560D01*
X895169Y763403D02*
Y753560D01*
Y763403D02*
X897555D01*
X898578Y762935*
X899259Y761997*
X899600Y761060*
X899941Y759653*
Y757310*
X899600Y755903*
X899259Y754966*
X898578Y754028*
X897555Y753560*
X895169*
X903009Y757310D02*
X907100D01*
Y758247*
X906759Y759185*
X906419Y759653*
X905737Y760122*
X904714*
X904032Y759653*
X903350Y758716*
X903009Y757310*
Y756372*
X903350Y754966*
X904032Y754028*
X904714Y753560*
X905737*
X906419Y754028*
X907100Y754966*
X913919Y758716D02*
X913578Y759653D01*
X912555Y760122*
X911532*
X910509Y759653*
X910169Y758716*
X910509Y757778*
X911191Y757310*
X912896Y756841*
X913578Y756372*
X913919Y755435*
Y754966*
X913578Y754028*
X912555Y753560*
X911532*
X910509Y754028*
X910169Y754966*
X916987Y763403D02*
X917328Y762935D01*
X917669Y763403*
X917328Y763872*
X916987Y763403*
X917328Y760122D02*
Y753560D01*
X924828Y760122D02*
Y752622D01*
X924487Y751216*
X924146Y750747*
X923464Y750278*
X922441*
X921759Y750747*
X924828Y758716D02*
X924146Y759653D01*
X923464Y760122*
X922441*
X921759Y759653*
X921078Y758716*
X920737Y757310*
Y756372*
X921078Y754966*
X921759Y754028*
X922441Y753560*
X923464*
X924146Y754028*
X924828Y754966*
X927896Y760122D02*
Y753560D01*
Y758247D02*
X928919Y759653D01*
X929600Y760122*
X930623*
X931305Y759653*
X931646Y758247*
Y753560*
X934714Y757310D02*
X938805D01*
Y758247*
X938464Y759185*
X938123Y759653*
X937441Y760122*
X936419*
X935737Y759653*
X935055Y758716*
X934714Y757310*
Y756372*
X935055Y754966*
X935737Y754028*
X936419Y753560*
X937441*
X938123Y754028*
X938805Y754966*
X945964Y763403D02*
Y753560D01*
Y758716D02*
X945282Y759653D01*
X944600Y760122*
X943578*
X942896Y759653*
X942214Y758716*
X941873Y757310*
Y756372*
X942214Y754966*
X942896Y754028*
X943578Y753560*
X944600*
X945282Y754028*
X945964Y754966*
X956873Y763403D02*
Y753560D01*
Y763403D02*
X959941D01*
X960964Y762935*
X961305Y762466*
X961646Y761528*
Y760591*
X961305Y759653*
X960964Y759185*
X959941Y758716*
X956873D02*
X959941D01*
X960964Y758247*
X961305Y757778*
X961646Y756841*
Y755435*
X961305Y754497*
X960964Y754028*
X959941Y753560*
X956873*
X965055Y760122D02*
X967100Y753560D01*
X969146Y760122D02*
X967100Y753560D01*
X966419Y751685*
X965737Y750747*
X965055Y750278*
X964714*
X972555Y760122D02*
X972214Y759653D01*
X972555Y759185*
X972896Y759653*
X972555Y760122*
Y754497D02*
X972214Y754028D01*
X972555Y753560*
X972896Y754028*
X972555Y754497*
X983805Y763403D02*
X985509Y753560D01*
X987214Y763403D02*
X985509Y753560D01*
X987214Y763403D02*
X988919Y753560D01*
X990623Y763403D02*
X988919Y753560D01*
X993691Y763403D02*
X994032Y762935D01*
X994373Y763403*
X994032Y763872*
X993691Y763403*
X994032Y760122D02*
Y753560D01*
X997441Y763403D02*
Y753560D01*
X1000509Y763403D02*
Y753560D01*
X1005282Y760122D02*
X1004600Y759653D01*
X1003919Y758716*
X1003578Y757310*
Y756372*
X1003919Y754966*
X1004600Y754028*
X1005282Y753560*
X1006305*
X1006987Y754028*
X1007669Y754966*
X1008009Y756372*
Y757310*
X1007669Y758716*
X1006987Y759653*
X1006305Y760122*
X1005282*
X1011078D02*
X1012441Y753560D01*
X1013805Y760122D02*
X1012441Y753560D01*
X1013805Y760122D02*
X1015169Y753560D01*
X1016532Y760122D02*
X1015169Y753560D01*
X1032214Y761997D02*
X1031532Y762935D01*
X1030509Y763403*
X1029146*
X1028123Y762935*
X1027441Y761997*
Y761060*
X1027782Y760122*
X1028123Y759653*
X1028805Y759185*
X1030850Y758247*
X1031532Y757778*
X1031873Y757310*
X1032214Y756372*
Y754966*
X1031532Y754028*
X1030509Y753560*
X1029146*
X1028123Y754028*
X1027441Y754966*
X1035282Y760122D02*
Y750278D01*
Y758716D02*
X1035964Y759653D01*
X1036646Y760122*
X1037669*
X1038350Y759653*
X1039032Y758716*
X1039373Y757310*
Y756372*
X1039032Y754966*
X1038350Y754028*
X1037669Y753560*
X1036646*
X1035964Y754028*
X1035282Y754966*
X1042441Y760122D02*
Y753560D01*
Y757310D02*
X1042782Y758716D01*
X1043464Y759653*
X1044146Y760122*
X1045169*
X1048237Y763403D02*
X1048578Y762935D01*
X1048919Y763403*
X1048578Y763872*
X1048237Y763403*
X1048578Y760122D02*
Y753560D01*
X1051987Y760122D02*
Y753560D01*
Y758247D02*
X1053009Y759653D01*
X1053691Y760122*
X1054714*
X1055396Y759653*
X1055737Y758247*
Y753560*
X1062896Y760122D02*
Y752622D01*
X1062555Y751216*
X1062214Y750747*
X1061532Y750278*
X1060509*
X1059828Y750747*
X1062896Y758716D02*
X1062214Y759653D01*
X1061532Y760122*
X1060509*
X1059828Y759653*
X1059146Y758716*
X1058805Y757310*
Y756372*
X1059146Y754966*
X1059828Y754028*
X1060509Y753560*
X1061532*
X1062214Y754028*
X1062896Y754966*
X1076191Y763403D02*
Y753560D01*
X1073805Y763403D02*
X1078578D01*
X1081646Y757310D02*
X1085737D01*
Y758247*
X1085396Y759185*
X1085055Y759653*
X1084373Y760122*
X1083350*
X1082669Y759653*
X1081987Y758716*
X1081646Y757310*
Y756372*
X1081987Y754966*
X1082669Y754028*
X1083350Y753560*
X1084373*
X1085055Y754028*
X1085737Y754966*
X1092896Y758716D02*
X1092214Y759653D01*
X1091532Y760122*
X1090509*
X1089828Y759653*
X1089146Y758716*
X1088805Y757310*
Y756372*
X1089146Y754966*
X1089828Y754028*
X1090509Y753560*
X1091532*
X1092214Y754028*
X1092896Y754966*
X1095964Y763403D02*
Y753560D01*
Y758247D02*
X1096987Y759653D01*
X1097669Y760122*
X1098691*
X1099373Y759653*
X1099714Y758247*
Y753560*
X1102782Y760122D02*
Y753560D01*
Y758247D02*
X1103805Y759653D01*
X1104487Y760122*
X1105509*
X1106191Y759653*
X1106532Y758247*
Y753560*
X1109600Y763403D02*
X1109941Y762935D01*
X1110282Y763403*
X1109941Y763872*
X1109600Y763403*
X1109941Y760122D02*
Y753560D01*
X1117441Y758716D02*
X1116759Y759653D01*
X1116078Y760122*
X1115055*
X1114373Y759653*
X1113691Y758716*
X1113350Y757310*
Y756372*
X1113691Y754966*
X1114373Y754028*
X1115055Y753560*
X1116078*
X1116759Y754028*
X1117441Y754966*
X1124600Y760122D02*
Y753560D01*
Y758716D02*
X1123919Y759653D01*
X1123237Y760122*
X1122214*
X1121532Y759653*
X1120850Y758716*
X1120509Y757310*
Y756372*
X1120850Y754966*
X1121532Y754028*
X1122214Y753560*
X1123237*
X1123919Y754028*
X1124600Y754966*
X1127669Y763403D02*
Y753560D01*
X1143350Y761997D02*
X1142669Y762935D01*
X1141646Y763403*
X1140282*
X1139259Y762935*
X1138578Y761997*
Y761060*
X1138919Y760122*
X1139259Y759653*
X1139941Y759185*
X1141987Y758247*
X1142669Y757778*
X1143009Y757310*
X1143350Y756372*
Y754966*
X1142669Y754028*
X1141646Y753560*
X1140282*
X1139259Y754028*
X1138578Y754966*
X1146419Y757310D02*
X1150509D01*
Y758247*
X1150169Y759185*
X1149828Y759653*
X1149146Y760122*
X1148123*
X1147441Y759653*
X1146759Y758716*
X1146419Y757310*
Y756372*
X1146759Y754966*
X1147441Y754028*
X1148123Y753560*
X1149146*
X1149828Y754028*
X1150509Y754966*
X1153578Y760122D02*
Y753560D01*
Y757310D02*
X1153919Y758716D01*
X1154600Y759653*
X1155282Y760122*
X1156305*
X1159373D02*
X1161419Y753560D01*
X1163464Y760122D02*
X1161419Y753560D01*
X1166532Y763403D02*
X1166873Y762935D01*
X1167214Y763403*
X1166873Y763872*
X1166532Y763403*
X1166873Y760122D02*
Y753560D01*
X1174373Y758716D02*
X1173691Y759653D01*
X1173009Y760122*
X1171987*
X1171305Y759653*
X1170623Y758716*
X1170282Y757310*
Y756372*
X1170623Y754966*
X1171305Y754028*
X1171987Y753560*
X1173009*
X1173691Y754028*
X1174373Y754966*
X1177441Y757310D02*
X1181532D01*
Y758247*
X1181191Y759185*
X1180850Y759653*
X1180169Y760122*
X1179146*
X1178464Y759653*
X1177782Y758716*
X1177441Y757310*
Y756372*
X1177782Y754966*
X1178464Y754028*
X1179146Y753560*
X1180169*
X1180850Y754028*
X1181532Y754966*
X1188350Y758716D02*
X1188009Y759653D01*
X1186987Y760122*
X1185964*
X1184941Y759653*
X1184600Y758716*
X1184941Y757778*
X1185623Y757310*
X1187328Y756841*
X1188009Y756372*
X1188350Y755435*
Y754966*
X1188009Y754028*
X1186987Y753560*
X1185964*
X1184941Y754028*
X1184600Y754966*
X1204373Y761060D02*
X1204032Y761997D01*
X1203350Y762935*
X1202669Y763403*
X1201305*
X1200623Y762935*
X1199941Y761997*
X1199600Y761060*
X1199259Y759653*
Y757310*
X1199600Y755903*
X1199941Y754966*
X1200623Y754028*
X1201305Y753560*
X1202669*
X1203350Y754028*
X1204032Y754966*
X1204373Y755903*
X1209146Y760122D02*
X1208464Y759653D01*
X1207782Y758716*
X1207441Y757310*
Y756372*
X1207782Y754966*
X1208464Y754028*
X1209146Y753560*
X1210169*
X1210850Y754028*
X1211532Y754966*
X1211873Y756372*
Y757310*
X1211532Y758716*
X1210850Y759653*
X1210169Y760122*
X1209146*
X1214941D02*
Y753560D01*
Y757310D02*
X1215282Y758716D01*
X1215964Y759653*
X1216646Y760122*
X1217669*
X1220737D02*
Y750278D01*
Y758716D02*
X1221419Y759653D01*
X1222100Y760122*
X1223123*
X1223805Y759653*
X1224487Y758716*
X1224828Y757310*
Y756372*
X1224487Y754966*
X1223805Y754028*
X1223123Y753560*
X1222100*
X1221419Y754028*
X1220737Y754966*
X1228237Y754497D02*
X1227896Y754028D01*
X1228237Y753560*
X1228578Y754028*
X1228237Y754497*
X906682Y665513D02*
Y652387D01*
X903500Y665513D02*
X909864D01*
X913955D02*
Y652387D01*
Y665513D02*
X919864D01*
X913955Y659262D02*
X917591D01*
X913955Y652387D02*
X919864D01*
X923955Y665513D02*
X930318Y652387D01*
Y665513D02*
X923955Y652387D01*
X934864Y653637D02*
X934409Y653012D01*
X934409D02*
X934864Y652387D01*
X934864D02*
X935318Y653012D01*
X935318D02*
X934864Y653637D01*
X942136Y665513D02*
X940773Y664888D01*
X940773D02*
X939864Y663013D01*
X939864D02*
X939409Y659887D01*
X939409D02*
Y658012D01*
X939409D02*
X939864Y654887D01*
X939864D02*
X940773Y653012D01*
X940773D02*
X942136Y652387D01*
X942136D02*
X943045D01*
X943045D02*
X944409Y653012D01*
X944409D02*
X945318Y654887D01*
X945318D02*
X945773Y658012D01*
X945773D02*
Y659887D01*
X945773D02*
X945318Y663013D01*
X945318D02*
X944409Y664888D01*
X944409D02*
X943045Y665513D01*
X943045D02*
X942136D01*
X952591D02*
X951227Y664888D01*
X951227D02*
X950318Y663013D01*
X950318D02*
X949864Y659887D01*
X949864D02*
Y658012D01*
X949864D02*
X950318Y654887D01*
X950318D02*
X951227Y653012D01*
X951227D02*
X952591Y652387D01*
X952591D02*
X953500D01*
X953500D02*
X954864Y653012D01*
X954864D02*
X955773Y654887D01*
X955773D02*
X956227Y658012D01*
X956227D02*
Y659887D01*
X956227D02*
X955773Y663013D01*
X955773D02*
X954864Y664888D01*
X954864D02*
X953500Y665513D01*
X953500D02*
X952591D01*
X961227D02*
X966227D01*
X966227D02*
X963500Y660513D01*
X963500D02*
X964864D01*
X964864D02*
X965773Y659887D01*
X965773D02*
X966227Y659262D01*
X966227D02*
X966682Y657387D01*
X966682D02*
Y656137D01*
X966682D02*
X966227Y654262D01*
X966227D02*
X965318Y653012D01*
X965318D02*
X963955Y652387D01*
X963955D02*
X962591D01*
X962591D02*
X961227Y653012D01*
X961227D02*
X960773Y653637D01*
X960773D02*
X960318Y654887D01*
X1260727Y835044D02*
X1258000Y825200D01*
X1260727Y835044D02*
X1263455Y825200D01*
X1259023Y828481D02*
X1262432D01*
X1266523Y831763D02*
Y825200D01*
Y828950D02*
X1266864Y830356D01*
X1267545Y831294*
X1268227Y831763*
X1268227D02*
X1269250D01*
X1273341Y835044D02*
Y827075D01*
X1273682Y825669*
X1274364Y825200*
X1275045*
X1272318Y831763D02*
X1274705D01*
X1278114D02*
X1279477Y825200D01*
X1280841Y831763D02*
X1279477Y825200D01*
X1280841Y831763D02*
X1282205Y825200D01*
X1283568Y831763D02*
X1282205Y825200D01*
X1288341Y831763D02*
X1287659Y831294D01*
X1286977Y830356*
X1286636Y828950*
Y828013*
X1286636D02*
X1286977Y826606D01*
X1287659Y825669*
X1288341Y825200*
X1289364*
X1290045Y825669*
X1290727Y826606*
X1291068Y828013*
X1291068D02*
Y828950D01*
X1290727Y830356*
X1290045Y831294*
X1289364Y831763*
X1289364D02*
X1288341D01*
X1294136D02*
Y825200D01*
Y828950D02*
X1294477Y830356D01*
X1295159Y831294*
X1295841Y831763*
X1295841D02*
X1296864D01*
X1299932Y835044D02*
Y825200D01*
X1303341Y831763D02*
X1299932Y827075D01*
X1301295Y828950D02*
X1303682Y825200D01*
X1314591Y835044D02*
Y825200D01*
Y835044D02*
X1316977D01*
X1318000Y834575*
X1318682Y833638*
X1318682D02*
X1319023Y832700D01*
X1319364Y831294*
Y828950*
X1319023Y827544*
X1318682Y826606*
X1318000Y825669*
X1316977Y825200*
X1314591*
X1322432Y828950D02*
X1326523D01*
Y829888*
X1326523D02*
X1326182Y830825D01*
X1325841Y831294*
X1325159Y831763*
X1325159D02*
X1324136D01*
X1324136D02*
X1323455Y831294D01*
X1322773Y830356*
X1322432Y828950*
Y828013*
X1322432D02*
X1322773Y826606D01*
X1323455Y825669*
X1324136Y825200*
X1325159*
X1325841Y825669*
X1326523Y826606*
X1333341Y830356D02*
X1333000Y831294D01*
X1331977Y831763*
X1331977D02*
X1330955D01*
X1330955D02*
X1329932Y831294D01*
X1329591Y830356*
X1329932Y829419*
X1330614Y828950*
X1332318Y828481*
X1333000Y828013*
X1333000D02*
X1333341Y827075D01*
Y826606*
X1333000Y825669*
X1331977Y825200*
X1330955*
X1329932Y825669*
X1329591Y826606*
X1336409Y835044D02*
X1336750Y834575D01*
X1337091Y835044*
X1336750Y835513*
X1336750D02*
X1336409Y835044D01*
X1336750Y831763D02*
Y825200D01*
X1344250Y831763D02*
Y824262D01*
X1344250D02*
X1343909Y822856D01*
X1343568Y822387*
X1343568D02*
X1342886Y821919D01*
X1341864*
X1341182Y822387*
X1344250Y830356D02*
X1343568Y831294D01*
X1342886Y831763*
X1342886D02*
X1341864D01*
X1341864D02*
X1341182Y831294D01*
X1340500Y830356*
X1340159Y828950*
Y828013*
X1340159D02*
X1340500Y826606D01*
X1341182Y825669*
X1341864Y825200*
X1342886*
X1343568Y825669*
X1344250Y826606*
X1347318Y831763D02*
Y825200D01*
Y829888D02*
X1348341Y831294D01*
X1349023Y831763*
X1349023D02*
X1350045D01*
X1350045D02*
X1350727Y831294D01*
X1351068Y829888*
X1351068D02*
Y825200D01*
X1354136Y828950D02*
X1358227D01*
Y829888*
X1358227D02*
X1357886Y830825D01*
X1357545Y831294*
X1356864Y831763*
X1356864D02*
X1355841D01*
X1355841D02*
X1355159Y831294D01*
X1354477Y830356*
X1354136Y828950*
Y828013*
X1354136D02*
X1354477Y826606D01*
X1355159Y825669*
X1355841Y825200*
X1356864*
X1357545Y825669*
X1358227Y826606*
X1365386Y835044D02*
Y825200D01*
Y830356D02*
X1364705Y831294D01*
X1364023Y831763*
X1364023D02*
X1363000D01*
X1363000D02*
X1362318Y831294D01*
X1361636Y830356*
X1361295Y828950*
Y828013*
X1361295D02*
X1361636Y826606D01*
X1362318Y825669*
X1363000Y825200*
X1364023*
X1364705Y825669*
X1365386Y826606*
X1376295Y835044D02*
Y825200D01*
Y835044D02*
X1380727D01*
X1376295Y830356D02*
X1379023D01*
X1385500Y831763D02*
X1384818Y831294D01*
X1384136Y830356*
X1383795Y828950*
Y828013*
X1383795D02*
X1384136Y826606D01*
X1384818Y825669*
X1385500Y825200*
X1386523*
X1387205Y825669*
X1387886Y826606*
X1388227Y828013*
X1388227D02*
Y828950D01*
X1387886Y830356*
X1387205Y831294*
X1386523Y831763*
X1386523D02*
X1385500D01*
X1391295D02*
Y825200D01*
Y828950D02*
X1391636Y830356D01*
X1392318Y831294*
X1393000Y831763*
X1393000D02*
X1394023D01*
X1397432D02*
X1397091Y831294D01*
X1397432Y830825*
X1397773Y831294*
X1397432Y831763*
Y826138D02*
X1397091Y825669D01*
X1397432Y825200*
X1397773Y825669*
X1397432Y826138*
X1258000Y780044D02*
Y770200D01*
Y780044D02*
X1261068D01*
X1262091Y779575*
X1262432Y779106*
X1262773Y778169*
Y777231*
X1262432Y776294*
X1262091Y775825*
X1261068Y775356*
X1258000D02*
X1261068D01*
X1262091Y774888*
X1262091D02*
X1262432Y774419D01*
X1262773Y773481*
Y772075*
X1262432Y771138*
X1262432D02*
X1262091Y770669D01*
X1261068Y770200*
X1258000*
X1267545Y776763D02*
X1266864Y776294D01*
X1266182Y775356*
X1265841Y773950*
Y773013*
X1265841D02*
X1266182Y771606D01*
X1266864Y770669*
X1267545Y770200*
X1268568*
X1269250Y770669*
X1269932Y771606*
X1270273Y773013*
X1270273D02*
Y773950D01*
X1269932Y775356*
X1269250Y776294*
X1268568Y776763*
X1268568D02*
X1267545D01*
X1277432D02*
Y770200D01*
Y775356D02*
X1276750Y776294D01*
X1276068Y776763*
X1276068D02*
X1275045D01*
X1275045D02*
X1274364Y776294D01*
X1273682Y775356*
X1273341Y773950*
Y773013*
X1273341D02*
X1273682Y771606D01*
X1274364Y770669*
X1275045Y770200*
X1276068*
X1276750Y770669*
X1277432Y771606*
X1280500Y776763D02*
Y770200D01*
Y773950D02*
X1280841Y775356D01*
X1281523Y776294*
X1282205Y776763*
X1282205D02*
X1283227D01*
X1290386Y780044D02*
Y770200D01*
Y775356D02*
X1289705Y776294D01*
X1289023Y776763*
X1289023D02*
X1288000D01*
X1288000D02*
X1287318Y776294D01*
X1286636Y775356*
X1286295Y773950*
Y773013*
X1286295D02*
X1286636Y771606D01*
X1287318Y770669*
X1288000Y770200*
X1289023*
X1289705Y770669*
X1290386Y771606*
X1301295Y780044D02*
Y770200D01*
Y780044D02*
X1303682D01*
X1304705Y779575*
X1305386Y778638*
X1305386D02*
X1305727Y777700D01*
X1306068Y776294*
Y773950*
X1305727Y772544*
X1305386Y771606*
X1304705Y770669*
X1303682Y770200*
X1301295*
X1309136Y773950D02*
X1313227D01*
Y774888*
X1313227D02*
X1312886Y775825D01*
X1312545Y776294*
X1311864Y776763*
X1311864D02*
X1310841D01*
X1310841D02*
X1310159Y776294D01*
X1309477Y775356*
X1309136Y773950*
Y773013*
X1309136D02*
X1309477Y771606D01*
X1310159Y770669*
X1310841Y770200*
X1311864*
X1312545Y770669*
X1313227Y771606*
X1320045Y775356D02*
X1319705Y776294D01*
X1318682Y776763*
X1318682D02*
X1317659D01*
X1317659D02*
X1316636Y776294D01*
X1316295Y775356*
X1316636Y774419*
X1317318Y773950*
X1319023Y773481*
X1319705Y773013*
X1319705D02*
X1320045Y772075D01*
Y771606*
X1319705Y770669*
X1318682Y770200*
X1317659*
X1316636Y770669*
X1316295Y771606*
X1327205Y775356D02*
X1326523Y776294D01*
X1325841Y776763*
X1325841D02*
X1324818D01*
X1324818D02*
X1324136Y776294D01*
X1323455Y775356*
X1323114Y773950*
Y773013*
X1323114D02*
X1323455Y771606D01*
X1324136Y770669*
X1324818Y770200*
X1325841*
X1326523Y770669*
X1327205Y771606*
X1330273Y776763D02*
Y770200D01*
Y773950D02*
X1330614Y775356D01*
X1331295Y776294*
X1331977Y776763*
X1331977D02*
X1333000D01*
X1336068Y780044D02*
X1336409Y779575D01*
X1336750Y780044*
X1336409Y780513*
X1336409D02*
X1336068Y780044D01*
X1336409Y776763D02*
Y770200D01*
X1339818Y776763D02*
Y766919D01*
Y775356D02*
X1340500Y776294D01*
X1341182Y776763*
X1341182D02*
X1342205D01*
X1342205D02*
X1342886Y776294D01*
X1343568Y775356*
X1343909Y773950*
Y773013*
X1343909D02*
X1343568Y771606D01*
X1342886Y770669*
X1342205Y770200*
X1341182*
X1340500Y770669*
X1339818Y771606*
X1348000Y780044D02*
Y772075D01*
X1348341Y770669*
X1349023Y770200*
X1349705*
X1346977Y776763D02*
X1349364D01*
X1352773Y780044D02*
X1353114Y779575D01*
X1353455Y780044*
X1353114Y780513*
X1353114D02*
X1352773Y780044D01*
X1353114Y776763D02*
Y770200D01*
X1358227Y776763D02*
X1357545Y776294D01*
X1356864Y775356*
X1356523Y773950*
Y773013*
X1356523D02*
X1356864Y771606D01*
X1357545Y770669*
X1358227Y770200*
X1359250*
X1359932Y770669*
X1360614Y771606*
X1360955Y773013*
X1360955D02*
Y773950D01*
X1360614Y775356*
X1359932Y776294*
X1359250Y776763*
X1359250D02*
X1358227D01*
X1364023D02*
Y770200D01*
Y774888D02*
X1365045Y776294D01*
X1365727Y776763*
X1365727D02*
X1366750D01*
X1366750D02*
X1367432Y776294D01*
X1367773Y774888*
X1367773D02*
Y770200D01*
X1371182Y776763D02*
X1370841Y776294D01*
X1371182Y775825*
X1371523Y776294*
X1371182Y776763*
Y771138D02*
X1370841Y770669D01*
X1371182Y770200*
X1371523Y770669*
X1371182Y771138*
X1258000Y710044D02*
Y700200D01*
Y710044D02*
X1261068D01*
X1262091Y709575*
X1262432Y709106*
X1262773Y708169*
Y706763*
X1262773D02*
X1262432Y705825D01*
X1262091Y705356*
X1261068Y704888*
X1261068D02*
X1258000D01*
X1269932Y706763D02*
Y700200D01*
Y705356D02*
X1269250Y706294D01*
X1268568Y706763*
X1268568D02*
X1267545D01*
X1267545D02*
X1266864Y706294D01*
X1266182Y705356*
X1265841Y703950*
Y703013*
X1265841D02*
X1266182Y701606D01*
X1266864Y700669*
X1267545Y700200*
X1268568*
X1269250Y700669*
X1269932Y701606*
X1273000Y706763D02*
Y700200D01*
Y703950D02*
X1273341Y705356D01*
X1274023Y706294*
X1274705Y706763*
X1274705D02*
X1275727D01*
X1279818Y710044D02*
Y702075D01*
X1280159Y700669*
X1280841Y700200*
X1281523*
X1278795Y706763D02*
X1281182D01*
X1292432Y710044D02*
Y700200D01*
Y710044D02*
X1297205Y700200D01*
Y710044D02*
Y700200D01*
X1301977Y706763D02*
X1301295Y706294D01*
X1300614Y705356*
X1300273Y703950*
Y703013*
X1300273D02*
X1300614Y701606D01*
X1301295Y700669*
X1301977Y700200*
X1303000*
X1303682Y700669*
X1304364Y701606*
X1304705Y703013*
X1304705D02*
Y703950D01*
X1304364Y705356*
X1303682Y706294*
X1303000Y706763*
X1303000D02*
X1301977D01*
X1308114D02*
X1307773Y706294D01*
X1308114Y705825*
X1308455Y706294*
X1308114Y706763*
Y701138D02*
X1307773Y700669D01*
X1308114Y700200*
X1308455Y700669*
X1308114Y701138*
X1558000Y710044D02*
Y700200D01*
Y710044D02*
X1561068D01*
X1562091Y709575*
X1562432Y709106*
X1562773Y708169*
Y707231*
X1562432Y706294*
X1562091Y705825*
X1561068Y705356*
X1558000*
X1560386D02*
X1562773Y700200D01*
X1565841Y703950D02*
X1569932D01*
Y704888*
X1569932D02*
X1569591Y705825D01*
X1569250Y706294*
X1568568Y706763*
X1568568D02*
X1567545D01*
X1567545D02*
X1566864Y706294D01*
X1566182Y705356*
X1565841Y703950*
Y703013*
X1565841D02*
X1566182Y701606D01*
X1566864Y700669*
X1567545Y700200*
X1568568*
X1569250Y700669*
X1569932Y701606*
X1573000Y706763D02*
X1575045Y700200D01*
X1577091Y706763D02*
X1575045Y700200D01*
X1580159Y710044D02*
X1580500Y709575D01*
X1580841Y710044*
X1580500Y710513*
X1580500D02*
X1580159Y710044D01*
X1580500Y706763D02*
Y700200D01*
X1587659Y705356D02*
X1587318Y706294D01*
X1586295Y706763*
X1586295D02*
X1585273D01*
X1585273D02*
X1584250Y706294D01*
X1583909Y705356*
X1584250Y704419*
X1584932Y703950*
X1586636Y703481*
X1587318Y703013*
X1587318D02*
X1587659Y702075D01*
Y701606*
X1587318Y700669*
X1586295Y700200*
X1585273*
X1584250Y700669*
X1583909Y701606*
X1590727Y710044D02*
X1591068Y709575D01*
X1591409Y710044*
X1591068Y710513*
X1591068D02*
X1590727Y710044D01*
X1591068Y706763D02*
Y700200D01*
X1596182Y706763D02*
X1595500Y706294D01*
X1594818Y705356*
X1594477Y703950*
Y703013*
X1594477D02*
X1594818Y701606D01*
X1595500Y700669*
X1596182Y700200*
X1597205*
X1597886Y700669*
X1598568Y701606*
X1598909Y703013*
X1598909D02*
Y703950D01*
X1598568Y705356*
X1597886Y706294*
X1597205Y706763*
X1597205D02*
X1596182D01*
X1601977D02*
Y700200D01*
Y704888D02*
X1603000Y706294D01*
X1603682Y706763*
X1603682D02*
X1604705D01*
X1604705D02*
X1605386Y706294D01*
X1605727Y704888*
X1605727D02*
Y700200D01*
X1609136Y706763D02*
X1608795Y706294D01*
X1609136Y705825*
X1609477Y706294*
X1609136Y706763*
Y701138D02*
X1608795Y700669D01*
X1609136Y700200*
X1609477Y700669*
X1609136Y701138*
X1359818Y695200D02*
X1359364Y696450D01*
X1358455Y697700*
X1357545Y698325*
X1355727*
X1354818Y697700*
X1353909Y696450*
X1353455Y695200*
X1353000Y693325*
Y690200*
X1353455Y688325*
X1353909Y687075*
X1354818Y685825*
X1355727Y685200*
X1357545*
X1358455Y685825*
X1359364Y687075*
X1359818Y688325*
X1364364Y695200D02*
Y695825D01*
X1364818Y697075*
X1365273Y697700*
X1366182Y698325*
X1368000*
X1368909Y697700*
X1369364Y697075*
X1369818Y695825*
Y694575*
X1369364Y693325*
X1368455Y691450*
X1363909Y685200*
X1370273*
X1376636Y698325D02*
X1375273Y697700D01*
X1374818Y696450*
Y695200*
X1375273Y693950*
X1376182Y693325*
X1378000Y692700*
X1379364Y692075*
X1380273Y690825*
X1380727Y689575*
Y687700*
X1380273Y686450*
X1379818Y685825*
X1378455Y685200*
X1376636*
X1375273Y685825*
X1374818Y686450*
X1374364Y687700*
Y689575*
X1374818Y690825*
X1375727Y692075*
X1377091Y692700*
X1378909Y693325*
X1379818Y693950*
X1380273Y695200*
Y696450*
X1379818Y697700*
X1378455Y698325*
X1376636*
X1385727D02*
X1390727D01*
X1388000Y693325*
X1389364*
X1390273Y692700*
X1390727Y692075*
X1391182Y690200*
Y688950*
X1390727Y687075*
X1389818Y685825*
X1388455Y685200*
X1387091*
X1385727Y685825*
X1385273Y686450*
X1384818Y687700*
X1399818Y698325D02*
X1395273Y689575D01*
X1402091*
X1399818Y698325D02*
Y685200D01*
X1406182Y693950D02*
X1411182Y685200D01*
Y693950D02*
X1406182Y685200D01*
X1631773Y699813D02*
X1632682Y700438D01*
X1632682D02*
X1634045Y702313D01*
X1634045D02*
Y689187D01*
X1638591Y690437D02*
X1638136Y689812D01*
X1638136D02*
X1638591Y689187D01*
X1638591D02*
X1639045Y689812D01*
X1639045D02*
X1638591Y690437D01*
X1643136Y699813D02*
X1644045Y700438D01*
X1644045D02*
X1645409Y702313D01*
X1645409D02*
Y689187D01*
X1399545Y810513D02*
Y797387D01*
X1396364Y810513D02*
X1402727D01*
X1406818Y802387D02*
X1412273D01*
X1412273D02*
Y803637D01*
X1412273D02*
X1411818Y804887D01*
X1411818D02*
X1411364Y805513D01*
X1411364D02*
X1410455Y806138D01*
X1410455D02*
X1409091D01*
X1409091D02*
X1408182Y805513D01*
X1408182D02*
X1407273Y804262D01*
X1407273D02*
X1406818Y802387D01*
X1406818D02*
Y801137D01*
X1406818D02*
X1407273Y799262D01*
X1407273D02*
X1408182Y798012D01*
X1408182D02*
X1409091Y797387D01*
X1409091D02*
X1410455D01*
X1410455D02*
X1411364Y798012D01*
X1411364D02*
X1412273Y799262D01*
X1416364Y806138D02*
X1421364Y797387D01*
Y806138D02*
X1416364Y797387D01*
X1430909Y806138D02*
Y797387D01*
Y804262D02*
X1430000Y805513D01*
X1430000D02*
X1429091Y806138D01*
X1429091D02*
X1427727D01*
X1427727D02*
X1426818Y805513D01*
X1426818D02*
X1425909Y804262D01*
X1425909D02*
X1425455Y802387D01*
X1425455D02*
Y801137D01*
X1425455D02*
X1425909Y799262D01*
X1425909D02*
X1426818Y798012D01*
X1426818D02*
X1427727Y797387D01*
X1427727D02*
X1429091D01*
X1429091D02*
X1430000Y798012D01*
X1430000D02*
X1430909Y799262D01*
X1440000Y804262D02*
X1439545Y805513D01*
X1439545D02*
X1438182Y806138D01*
X1438182D02*
X1436818D01*
X1436818D02*
X1435455Y805513D01*
X1435455D02*
X1435000Y804262D01*
X1435000D02*
X1435455Y803012D01*
X1435455D02*
X1436364Y802387D01*
X1436364D02*
X1438636Y801762D01*
X1438636D02*
X1439545Y801137D01*
X1439545D02*
X1440000Y799887D01*
X1440000D02*
Y799262D01*
X1440000D02*
X1439545Y798012D01*
X1439545D02*
X1438182Y797387D01*
X1438182D02*
X1436818D01*
X1436818D02*
X1435455Y798012D01*
X1435455D02*
X1435000Y799262D01*
X1454545Y810513D02*
Y797387D01*
X1458636Y806138D02*
Y797387D01*
Y803637D02*
X1460000Y805513D01*
X1460000D02*
X1460909Y806138D01*
X1460909D02*
X1462273D01*
X1462273D02*
X1463182Y805513D01*
X1463182D02*
X1463636Y803637D01*
X1463636D02*
Y797387D01*
X1472727Y804262D02*
X1472273Y805513D01*
X1472273D02*
X1470909Y806138D01*
X1470909D02*
X1469545D01*
X1469545D02*
X1468182Y805513D01*
X1468182D02*
X1467727Y804262D01*
X1467727D02*
X1468182Y803012D01*
X1468182D02*
X1469091Y802387D01*
X1469091D02*
X1471364Y801762D01*
X1471364D02*
X1472273Y801137D01*
X1472273D02*
X1472727Y799887D01*
X1472727D02*
Y799262D01*
X1472727D02*
X1472273Y798012D01*
X1472273D02*
X1470909Y797387D01*
X1470909D02*
X1469545D01*
X1469545D02*
X1468182Y798012D01*
X1468182D02*
X1467727Y799262D01*
X1478182Y810513D02*
Y799887D01*
X1478182D02*
X1478636Y798012D01*
X1478636D02*
X1479545Y797387D01*
X1479545D02*
X1480455D01*
X1476818Y806138D02*
X1480000D01*
X1484545D02*
Y797387D01*
Y802387D02*
X1485000Y804262D01*
X1485000D02*
X1485909Y805513D01*
X1485909D02*
X1486818Y806138D01*
X1486818D02*
X1488182D01*
X1492273D02*
Y799887D01*
X1492273D02*
X1492727Y798012D01*
X1492727D02*
X1493636Y797387D01*
X1493636D02*
X1495000D01*
X1495000D02*
X1495909Y798012D01*
X1495909D02*
X1497273Y799887D01*
Y806138D02*
Y797387D01*
X1501364Y806138D02*
Y797387D01*
Y803637D02*
X1502727Y805513D01*
X1502727D02*
X1503636Y806138D01*
X1503636D02*
X1505000D01*
X1505000D02*
X1505909Y805513D01*
X1505909D02*
X1506364Y803637D01*
X1506364D02*
Y797387D01*
Y803637D02*
X1507727Y805513D01*
X1507727D02*
X1508636Y806138D01*
X1508636D02*
X1510000D01*
X1510000D02*
X1510909Y805513D01*
X1510909D02*
X1511364Y803637D01*
X1511364D02*
Y797387D01*
X1515455Y802387D02*
X1520909D01*
X1520909D02*
Y803637D01*
X1520909D02*
X1520455Y804887D01*
X1520455D02*
X1520000Y805513D01*
X1520000D02*
X1519091Y806138D01*
X1519091D02*
X1517727D01*
X1517727D02*
X1516818Y805513D01*
X1516818D02*
X1515909Y804262D01*
X1515909D02*
X1515455Y802387D01*
X1515455D02*
Y801137D01*
X1515455D02*
X1515909Y799262D01*
X1515909D02*
X1516818Y798012D01*
X1516818D02*
X1517727Y797387D01*
X1517727D02*
X1519091D01*
X1519091D02*
X1520000Y798012D01*
X1520000D02*
X1520909Y799262D01*
X1525000Y806138D02*
Y797387D01*
Y803637D02*
X1526364Y805513D01*
X1526364D02*
X1527273Y806138D01*
X1527273D02*
X1528636D01*
X1528636D02*
X1529545Y805513D01*
X1529545D02*
X1530000Y803637D01*
X1530000D02*
Y797387D01*
X1535455Y810513D02*
Y799887D01*
X1535455D02*
X1535909Y798012D01*
X1535909D02*
X1536818Y797387D01*
X1536818D02*
X1537727D01*
X1534091Y806138D02*
X1537273D01*
X1546818Y804262D02*
X1546364Y805513D01*
X1546364D02*
X1545000Y806138D01*
X1545000D02*
X1543636D01*
X1543636D02*
X1542273Y805513D01*
X1542273D02*
X1541818Y804262D01*
X1541818D02*
X1542273Y803012D01*
X1542273D02*
X1543182Y802387D01*
X1543182D02*
X1545455Y801762D01*
X1545455D02*
X1546364Y801137D01*
X1546364D02*
X1546818Y799887D01*
X1546818D02*
Y799262D01*
X1546818D02*
X1546364Y798012D01*
X1546364D02*
X1545000Y797387D01*
X1545000D02*
X1543636D01*
X1543636D02*
X1542273Y798012D01*
X1542273D02*
X1541818Y799262D01*
X1374578Y746247D02*
X1374123Y747497D01*
X1373214Y748747*
X1372305Y749372*
X1370487*
X1369578Y748747*
X1368669Y747497*
X1368214Y746247*
X1367759Y744372*
Y741247*
X1368214Y739372*
X1368669Y738122*
X1369578Y736872*
X1370487Y736247*
X1372305*
X1373214Y736872*
X1374123Y738122*
X1374578Y739372*
X1379123Y746247D02*
Y746872D01*
X1379578Y748122*
X1380032Y748747*
X1380941Y749372*
X1382759*
X1383669Y748747*
X1384123Y748122*
X1384578Y746872*
Y745622*
X1384123Y744372*
X1383214Y742497*
X1378669Y736247*
X1385032*
X1391396Y749372D02*
X1390032Y748747D01*
X1389578Y747497*
Y746247*
X1390032Y744997*
X1390941Y744372*
X1392759Y743747*
X1394123Y743122*
X1395032Y741872*
X1395487Y740622*
Y738747*
X1395032Y737497*
X1394578Y736872*
X1393214Y736247*
X1391396*
X1390032Y736872*
X1389578Y737497*
X1389123Y738747*
Y740622*
X1389578Y741872*
X1390487Y743122*
X1391850Y743747*
X1393669Y744372*
X1394578Y744997*
X1395032Y746247*
Y747497*
X1394578Y748747*
X1393214Y749372*
X1391396*
X1400487D02*
X1405487D01*
X1402759Y744372*
X1404123*
X1405032Y743747*
X1405487Y743122*
X1405941Y741247*
Y739997*
X1405487Y738122*
X1404578Y736872*
X1403214Y736247*
X1401850*
X1400487Y736872*
X1400032Y737497*
X1399578Y738747*
X1414578Y749372D02*
X1410032Y740622D01*
X1416850*
X1414578Y749372D02*
Y736247D01*
X1420941Y744997D02*
X1425941Y736247D01*
Y744997D02*
X1420941Y736247D01*
X1447305Y746247D02*
X1446850Y747497D01*
X1445941Y748747*
X1445032Y749372*
X1443214*
X1442305Y748747*
X1441396Y747497*
X1440941Y746247*
X1440487Y744372*
Y741247*
X1440941Y739372*
X1441396Y738122*
X1442305Y736872*
X1443214Y736247*
X1445032*
X1445941Y736872*
X1446850Y738122*
X1447305Y739372*
X1454123Y749372D02*
X1453214Y748747D01*
X1452305Y747497*
X1451850Y746247*
X1451396Y744372*
Y741247*
X1451850Y739372*
X1452305Y738122*
X1453214Y736872*
X1454123Y736247*
X1455941*
X1456850Y736872*
X1457759Y738122*
X1458214Y739372*
X1458669Y741247*
Y744372*
X1458214Y746247*
X1457759Y747497*
X1456850Y748747*
X1455941Y749372*
X1454123*
X1462759D02*
Y736247D01*
Y749372D02*
X1469123Y736247D01*
Y749372D02*
Y736247D01*
X1476396Y749372D02*
Y736247D01*
X1473214Y749372D02*
X1479578D01*
X1483669D02*
Y736247D01*
Y749372D02*
X1487759D01*
X1489123Y748747*
X1489578Y748122*
X1490032Y746872*
Y745622*
X1489578Y744372*
X1489123Y743747*
X1487759Y743122*
X1483669*
X1486850D02*
X1490032Y736247D01*
X1496850Y749372D02*
X1495941Y748747D01*
X1495032Y747497*
X1494578Y746247*
X1494123Y744372*
Y741247*
X1494578Y739372*
X1495032Y738122*
X1495941Y736872*
X1496850Y736247*
X1498669*
X1499578Y736872*
X1500487Y738122*
X1500941Y739372*
X1501396Y741247*
Y744372*
X1500941Y746247*
X1500487Y747497*
X1499578Y748747*
X1498669Y749372*
X1496850*
X1505487D02*
Y736247D01*
X1510941*
X1532305Y746247D02*
X1531850Y747497D01*
X1530941Y748747*
X1530032Y749372*
X1528214*
X1527305Y748747*
X1526396Y747497*
X1525941Y746247*
X1525487Y744372*
Y741247*
X1525941Y739372*
X1526396Y738122*
X1527305Y736872*
X1528214Y736247*
X1530032*
X1530941Y736872*
X1531850Y738122*
X1532305Y739372*
X1540032Y749372D02*
X1536396Y736247D01*
X1540032Y749372D02*
X1543669Y736247D01*
X1537759Y740622D02*
X1542305D01*
X1547759Y749372D02*
Y736247D01*
Y749372D02*
X1551850D01*
X1553214Y748747*
X1553669Y748122*
X1554123Y746872*
Y745622*
X1553669Y744372*
X1553214Y743747*
X1551850Y743122*
X1547759*
X1550941D02*
X1554123Y736247D01*
X1558214Y749372D02*
Y736247D01*
Y749372D02*
X1561396D01*
X1562759Y748747*
X1563669Y747497*
X1564123Y746247*
X1564578Y744372*
Y741247*
X1564123Y739372*
X1563669Y738122*
X1562759Y736872*
X1561396Y736247*
X1558214*
X1342670Y664184D02*
X1339261Y657622D01*
X1344375*
X1342670Y664184D02*
Y654341D01*
X1343693Y662778D02*
X1343352Y663716D01*
X1342330Y664184*
X1341648*
X1340625Y663716*
X1339943Y662309*
X1339602Y659966*
Y657622*
X1339943Y655747*
X1340625Y654809*
X1341648Y654341*
X1341989*
X1343011Y654809*
X1343693Y655747*
X1344034Y657153*
Y657622*
X1343693Y659028*
X1343011Y659966*
X1341989Y660434*
X1341648*
X1340625Y659966*
X1339943Y659028*
X1339602Y657622*
X1506205Y662578D02*
X1505523Y663516D01*
X1504500Y663984*
X1503136*
X1502114Y663516*
X1501432Y662578*
Y661641*
X1501773Y660703*
X1502114Y660234*
X1502795Y659766*
X1504841Y658828*
X1505523Y658359*
X1505864Y657891*
X1506205Y656953*
Y655547*
X1505523Y654609*
X1504500Y654141*
X1503136*
X1502114Y654609*
X1501432Y655547*
X1509273Y657891D02*
X1513364D01*
Y658828*
X1513023Y659766*
X1512682Y660234*
X1512000Y660703*
X1510977*
X1510295Y660234*
X1509614Y659297*
X1509273Y657891*
Y656953*
X1509614Y655547*
X1510295Y654609*
X1510977Y654141*
X1512000*
X1512682Y654609*
X1513364Y655547*
X1520523Y659297D02*
X1519841Y660234D01*
X1519159Y660703*
X1518136*
X1517455Y660234*
X1516773Y659297*
X1516432Y657891*
Y656953*
X1516773Y655547*
X1517455Y654609*
X1518136Y654141*
X1519159*
X1519841Y654609*
X1520523Y655547*
X1525295Y660703D02*
X1524614Y660234D01*
X1523932Y659297*
X1523591Y657891*
Y656953*
X1523932Y655547*
X1524614Y654609*
X1525295Y654141*
X1526318*
X1527000Y654609*
X1527682Y655547*
X1528023Y656953*
Y657891*
X1527682Y659297*
X1527000Y660234*
X1526318Y660703*
X1525295*
X1531091D02*
Y654141D01*
Y658828D02*
X1532114Y660234D01*
X1532795Y660703*
X1533818*
X1534500Y660234*
X1534841Y658828*
Y654141*
X1542000Y663984D02*
Y654141D01*
Y659297D02*
X1541318Y660234D01*
X1540636Y660703*
X1539614*
X1538932Y660234*
X1538250Y659297*
X1537909Y657891*
Y656953*
X1538250Y655547*
X1538932Y654609*
X1539614Y654141*
X1540636*
X1541318Y654609*
X1542000Y655547*
X1549159Y660703D02*
Y654141D01*
Y659297D02*
X1548477Y660234D01*
X1547795Y660703*
X1546773*
X1546091Y660234*
X1545409Y659297*
X1545068Y657891*
Y656953*
X1545409Y655547*
X1546091Y654609*
X1546773Y654141*
X1547795*
X1548477Y654609*
X1549159Y655547*
X1552227Y660703D02*
Y654141D01*
Y657891D02*
X1552568Y659297D01*
X1553250Y660234*
X1553932Y660703*
X1554955*
X1558364D02*
X1560409Y654141D01*
X1562455Y660703D02*
X1560409Y654141D01*
X1559727Y652266*
X1559045Y651328*
X1558364Y650859*
X1558023*
X1578136Y662578D02*
X1577455Y663516D01*
X1576432Y663984*
X1575068*
X1574045Y663516*
X1573364Y662578*
Y661641*
X1573705Y660703*
X1574045Y660234*
X1574727Y659766*
X1576773Y658828*
X1577455Y658359*
X1577795Y657891*
X1578136Y656953*
Y655547*
X1577455Y654609*
X1576432Y654141*
X1575068*
X1574045Y654609*
X1573364Y655547*
X1581205Y663984D02*
X1581545Y663516D01*
X1581886Y663984*
X1581545Y664453*
X1581205Y663984*
X1581545Y660703D02*
Y654141D01*
X1589045Y663984D02*
Y654141D01*
Y659297D02*
X1588364Y660234D01*
X1587682Y660703*
X1586659*
X1585977Y660234*
X1585295Y659297*
X1584955Y657891*
Y656953*
X1585295Y655547*
X1585977Y654609*
X1586659Y654141*
X1587682*
X1588364Y654609*
X1589045Y655547*
X1592114Y657891D02*
X1596205D01*
Y658828*
X1595864Y659766*
X1595523Y660234*
X1594841Y660703*
X1593818*
X1593136Y660234*
X1592455Y659297*
X1592114Y657891*
Y656953*
X1592455Y655547*
X1593136Y654609*
X1593818Y654141*
X1594841*
X1595523Y654609*
X1596205Y655547*
X1060000Y1005315D02*
Y1012000D01*
X1060000*
X1035000Y1005315D02*
X1035074Y1005389D01*
Y1013714*
X1230000Y1005315D02*
Y1005534D01*
X1231074*
Y1013714*
X1205000Y1005315D02*
Y1010089D01*
Y1011214*
X1206574Y1012788*
Y1014714*
X1255000Y1005315D02*
X1256377Y1005560D01*
Y1015060*
X1300000Y1005315D02*
Y1009702D01*
X1300727Y1010429*
Y1015214*
X1280000Y1005315D02*
Y1010218D01*
Y1014960*
X1187074Y1052564D02*
Y1052214D01*
X1191574*
X1223350Y1044340D02*
X1223650Y1044040D01*
Y1040363*
X1232798Y1044340D02*
X1236250Y1040888D01*
Y1040363*
X1213901Y1044340D02*
X1217350Y1040891D01*
Y1040363*
X1203175D02*
Y1043064D01*
X1204452Y1044340*
X1210263Y1040363D02*
Y1043852D01*
X1210751Y1044340*
X1244877Y1047060D02*
X1245283Y1046659D01*
X1262727Y1036214D02*
X1262732Y1036210D01*
X1266578*
X1274078D02*
X1277723D01*
X1277727Y1036214*
X1259078Y1036210D02*
X1262723D01*
X1262727Y1036214*
X1303000Y1039500D02*
X1303227Y1039273D01*
Y1034564*
X1277727Y1036214D02*
X1277732Y1036210D01*
X1281578*
X1281000Y1020000D02*
X1281140Y1019860D01*
X1285228*
X1300227Y1015714D02*
X1300727Y1015214D01*
X1281578Y1036210D02*
X1281877Y1036510D01*
Y1042714*
X1193574Y1075835D02*
X1201303D01*
X1189788Y1078550D02*
X1192574Y1075764D01*
X1193523*
X1193574Y1075835*
X1189788Y1067138D02*
X1196227D01*
X1198153Y1065212*
Y1063238*
X1212328Y1074158D02*
X1213413Y1073214D01*
Y1070288*
X1223350Y1088435D02*
X1223650Y1088736D01*
Y1091938*
X1213901Y1075836D02*
X1215523Y1074214D01*
X1216574*
X1220500Y1070288*
X1216563Y1091938D02*
X1216697D01*
X1220200Y1088435*
X1203963Y1091938D02*
X1204452D01*
Y1088437*
X1235948Y1088435D02*
Y1091635D01*
X1236250Y1091938*
X1242477Y1060312D02*
X1242726Y1060063D01*
Y1057112*
X1243138Y1056700*
X1239098Y1063238D02*
Y1064933D01*
X1240077Y1065912*
X1241325*
X1243138Y1067725*
X1272051Y1074238D02*
X1275727D01*
X1276302Y1073663*
X1279175*
X1279451Y1073388*
X1255150Y1085250D02*
X1255227D01*
Y1089214*
X1246727Y1077864D02*
X1247227D01*
Y1073714*
X1311000Y1069500D02*
Y1072500D01*
X1279227Y1067663D02*
X1279451Y1067886D01*
Y1073388*
X1033924Y1102714D02*
X1033924D01*
X1038227*
X1033924D02*
X1036727D01*
X1038227*
X1046574Y1095464D02*
X1048574D01*
Y1090214*
X1323227Y1114714D02*
X1323463D01*
Y1110525*
X1344578Y1046360D02*
X1329500D01*
Y1035360*
X1344578*
Y1046360*
X1329500Y1046158D02*
X1344578D01*
X1329500Y1045258D02*
X1344578D01*
X1329500Y1044358D02*
X1344578D01*
X1329500Y1043458D02*
X1344578D01*
X1329500Y1042558D02*
X1344578D01*
X1329500Y1041658D02*
X1344578D01*
X1329500Y1040758D02*
X1344578D01*
X1329500Y1039858D02*
X1344578D01*
X1329500Y1038958D02*
X1344578D01*
X1329500Y1038058D02*
X1344578D01*
X1329500Y1037158D02*
X1344578D01*
X1329500Y1036258D02*
X1344578D01*
G54D28*
X1105000Y1005315D02*
Y1010683D01*
X1106377Y1012060*
X1095000Y1005315D02*
Y1010683D01*
X1096377Y1012060*
X1085000Y1005315D02*
Y1011235D01*
X1086077Y1012312*
X1123377Y1012060D02*
X1125000Y1010437D01*
Y1005315*
X1150000D02*
Y1012183D01*
X1151377Y1013560*
X1145000Y1005315D02*
Y1010683D01*
X1146377Y1012060*
X1140000Y1005315D02*
Y1012183D01*
X1141377Y1013560*
X1135000Y1005315D02*
Y1010683D01*
X1136377Y1012060*
X1115000Y1005315D02*
Y1010683D01*
X1116377Y1012060*
X1190000Y1005315D02*
Y1011282D01*
X1192000Y1013282*
Y1015282*
X1192078Y1015360*
X1185000Y1005315D02*
Y1011782D01*
X1185578Y1012360*
X1187078*
X1188078Y1013360*
Y1015360*
X1160000Y1005315D02*
Y1012183D01*
X1161377Y1013560*
X1155000Y1005315D02*
Y1010683D01*
X1156377Y1012060*
X1225000Y1005315D02*
Y1010183D01*
X1226277Y1011460*
X1220000Y1005315D02*
Y1010760D01*
X1221477Y1012237*
Y1012312*
X1215000Y1005315D02*
Y1011235D01*
X1216077Y1012312*
X1210000Y1005315D02*
Y1010987D01*
X1211227Y1012214*
X1200000Y1005315D02*
Y1015282D01*
X1200078Y1015360*
X1195000Y1005315D02*
Y1010860D01*
X1196078Y1011938*
Y1015360*
X1238877Y1012415D02*
X1240000Y1011415D01*
Y1005315*
X1270000D02*
Y1010890D01*
X1271227Y1012117*
Y1012215*
X1265000Y1005315D02*
Y1010890D01*
X1266227Y1012117*
Y1012215*
X1260000Y1005315D02*
Y1010890D01*
X1260877Y1011617*
Y1017560*
X1250000Y1005315D02*
Y1010617D01*
X1251377Y1011994*
Y1014060*
X1245000Y1005315D02*
Y1010890D01*
X1246227Y1012117*
Y1012215*
X1235000Y1005315D02*
Y1010719D01*
X1236227Y1011947*
Y1012214*
X1302727Y1013436D02*
Y1017727D01*
X1305500Y1020500*
X1302727Y1013436D02*
X1305000Y1011163D01*
Y1005315*
X1310000D02*
Y1010870D01*
X1311227Y1012098*
Y1012214*
X1295000Y1005315D02*
Y1010889D01*
X1296227Y1012117*
Y1012214*
X1290000Y1005315D02*
Y1010889D01*
X1291227Y1012117*
Y1012214*
X1285000Y1005315D02*
Y1010889D01*
X1286227Y1012117*
Y1012214*
X1275000Y1005315D02*
Y1010889D01*
X1276227Y1012117*
Y1012214*
X1318727D02*
X1320000Y1010942D01*
Y1005315*
X1315000D02*
Y1010989D01*
X1315002*
X1316227Y1012214*
X1024078Y1052860D02*
Y1058065D01*
X1025727Y1059714*
Y1068565*
X1067000Y1022000D02*
X1067860Y1022860D01*
X1074578*
X1077223Y1020214*
X1081031*
X1082877Y1022060*
X1095877*
X1098877Y1019060*
X1139377*
X1143377Y1015060*
Y1012060*
X1060227Y1025560D02*
X1097377D01*
X1100877Y1022060*
X1149877*
X1156377Y1015560*
Y1012060*
X1062727Y1021500D02*
X1064940D01*
X1066440Y1020000*
X1068218*
X1069578Y1021360*
X1074578*
X1077877Y1018060*
X1084560*
X1087000Y1020500*
X1095937*
X1098377Y1018060*
X1132231*
X1136377Y1013915*
Y1012060*
X1056227Y1023500D02*
X1065000D01*
X1065714Y1024214*
X1096723*
X1099877Y1021060*
X1148377*
X1153377Y1016060*
Y1012060*
X1058877Y1021500D02*
X1060227D01*
X1062727Y1019000*
X1068718*
X1069578Y1019860*
X1074578*
X1077377Y1017060*
X1085560*
X1088000Y1019500*
X1094591*
X1097031Y1017060*
X1129877*
X1133377Y1013560*
Y1012060*
X1054500Y1018000D02*
X1059500D01*
X1060500Y1017000*
X1066000*
X1068500Y1014500*
X1087000*
X1090000Y1011500*
Y1005315*
X1053500Y1023500D02*
Y1033000D01*
X1056000Y1035500*
Y1042000*
X1053500Y1023500D02*
X1057750Y1019250D01*
X1060500*
X1061750Y1018000*
X1066500*
X1069000Y1015500*
X1088000*
X1089000Y1014500*
X1092000*
X1093000Y1015500*
X1115500*
X1120000Y1011000*
Y1005315*
X1097227Y1037588D02*
Y1043163D01*
X1098227Y1044163*
X1097227Y1037588D02*
X1098727Y1036088D01*
X1110000*
X1078227Y1022060D02*
X1080877D01*
X1081877Y1023060*
X1096377*
X1099377Y1020060*
X1140377*
X1146377Y1014060*
Y1012060*
X1100400Y1042800D02*
X1103515D01*
X1105227Y1041088*
X1110000*
Y1036088D02*
X1114227D01*
X1117101Y1033214*
X1119511*
X1119650Y1033075*
X1110000Y1041088D02*
X1111588D01*
X1113500Y1043000*
X1119000*
X1119500Y1042500*
Y1039525*
X1119650Y1039375*
X1110000Y1046088D02*
X1110375Y1046463D01*
X1115200*
Y1046000*
X1090000Y1046088D02*
X1093727D01*
X1094727Y1047088*
Y1049400*
X1095727Y1050400*
X1100400*
X1090000Y1041088D02*
X1093727D01*
X1094727Y1042088*
Y1045663*
X1097464Y1048400*
X1098800*
X1090000Y1036088D02*
X1094727D01*
X1096227Y1037588*
Y1045163*
X1097464Y1046400*
X1100400*
X1076428Y1028360D02*
X1076574Y1028214D01*
X1080354*
X1083354Y1031214*
Y1033714*
X1085727Y1036088*
X1090000*
X1076428Y1045360D02*
X1076580Y1045512D01*
X1079727*
X1082430Y1048214*
X1086227*
X1087227Y1049214*
X1089000*
X1090000Y1048214*
Y1046088*
X1076428Y1035860D02*
X1080727D01*
X1081655Y1036787*
Y1040015*
X1084227Y1042588*
X1086727*
X1088227Y1041088*
X1090000*
X1142000Y1054000D02*
X1144850D01*
X1145000Y1053850*
X1115200Y1046000D02*
Y1046463D01*
X1119650*
X1161277Y1020962D02*
X1165027D01*
X1165277Y1020712*
X1273078Y1022860D02*
Y1024860D01*
X1274078Y1025860*
Y1029510*
X1267877Y1020415D02*
X1267990Y1020528D01*
Y1023111*
X1266578Y1029510D02*
Y1024523D01*
X1267990Y1023111*
X1259078Y1029510D02*
Y1024359D01*
X1260577Y1022860*
X1263078*
X1280000Y1014960D02*
X1280077Y1015060D01*
X1286000Y1047500D02*
Y1045292D01*
X1288577Y1042714*
X1296000Y1023500D02*
X1296227Y1023727D01*
Y1027864*
X1278078Y1022860D02*
Y1024860D01*
X1279078Y1025860*
X1279725*
X1280225Y1026360*
Y1028157*
X1281578Y1029510*
X1288577Y1042714D02*
Y1036114D01*
X1288728Y1035810*
X1291928Y1019860D02*
X1296227Y1015560D01*
Y1012214*
X1288728Y1028310D02*
X1289478Y1027714D01*
Y1023810*
X1289574Y1023714*
X1296227Y1027864D02*
X1303227D01*
X1333000Y1036750D02*
X1333610Y1037360D01*
X1342078*
X1335205Y1040482D02*
Y1037360D01*
X1342078*
X1335205Y1040482D02*
X1342078D01*
Y1040860*
X1335205Y1040482D02*
Y1044360D01*
X1342078*
X1024078Y1086862D02*
Y1070214D01*
X1025727Y1068565*
X1024078Y1086862D02*
X1031076Y1093860D01*
X1033078*
X1021077Y1056114D02*
X1022677Y1057714D01*
Y1063012*
X1021077Y1056114D02*
Y1049852D01*
X1023715Y1047214*
X1033074*
X1034974Y1045313*
Y1033115*
X1036777Y1031312*
Y1028012*
X1034177Y1055912D02*
Y1050376D01*
X1036236Y1048317*
Y1035876*
X1040000Y1032112*
Y1005315*
X1028078Y1083360D02*
Y1058512D01*
X1029078Y1057512*
Y1053360*
X1096227Y1077210D02*
Y1087163D01*
X1097727Y1088663*
X1099381*
X1100078Y1089360*
X1096227Y1077210D02*
X1101227Y1072210D01*
Y1067663*
X1103727Y1065163*
Y1064210*
X1105862Y1062075*
X1110000*
X1083040Y1075112D02*
X1086077Y1072075D01*
X1090000*
X1081227Y1065214D02*
X1083867D01*
X1085728Y1067075*
X1085728D02*
X1085728D01*
X1090000*
X1100227Y1085163D02*
Y1083626D01*
X1104639Y1079214*
Y1073163*
X1105727Y1072075*
X1110000*
X1095227Y1076710D02*
Y1088010D01*
X1098078Y1090860*
X1095227Y1076710D02*
X1098727Y1073210D01*
Y1064575*
X1098377Y1086659D02*
Y1083411D01*
X1103227Y1078560*
Y1068575*
X1104727Y1067075*
X1110000*
X1098377Y1086659D02*
X1098578Y1086860D01*
X1100078Y1093360D02*
X1102477D01*
X1103677Y1092160*
Y1089275*
X1105677Y1087275*
X1110000*
X1112513Y1088060*
X1119650*
Y1087413*
X1090000Y1092275D02*
X1093339D01*
X1095677Y1094613*
Y1095837*
X1096552Y1096712*
X1099930*
X1100078Y1096860*
X1090000Y1087275D02*
X1093839D01*
X1094227Y1087663*
Y1091010*
X1098078Y1094860*
X1110000Y1062075D02*
X1110412Y1061663D01*
X1119650*
Y1061425*
X1110000Y1067075D02*
X1110650Y1067725D01*
X1119650*
X1110000Y1072075D02*
X1117700D01*
X1119650Y1074025*
X1090000Y1062075D02*
X1096227D01*
X1098727Y1064575*
X1076428Y1055360D02*
X1076782Y1055714D01*
X1080727*
X1081727Y1056714*
Y1060575*
X1083227Y1062075*
X1090000*
X1076428Y1085360D02*
X1076580Y1085512D01*
X1080077*
X1080877Y1086312*
X1085114*
X1086077Y1087275*
X1090000*
X1076428Y1075360D02*
X1076676Y1075112D01*
X1083040*
X1076428Y1065360D02*
X1081082D01*
X1081227Y1065214*
X1143500Y1075000D02*
X1143850Y1075350D01*
X1149500*
X1133000Y1093000D02*
X1136000D01*
X1137016Y1091984*
X1140047*
X1133000Y1089000D02*
X1135500D01*
X1136476Y1088024*
X1136476D02*
X1136500Y1088047D01*
X1140047*
X1132877Y1084060D02*
X1136706D01*
X1137000Y1083766*
X1140047*
X1134500Y1091000D02*
X1136016D01*
X1137000Y1090016*
X1140047*
X1133877Y1086560D02*
X1133937Y1086500D01*
X1136000*
X1136421Y1086079*
X1140047*
X1145953Y1083766D02*
X1149266D01*
X1149500Y1084000*
X1145953Y1086079D02*
X1150921D01*
X1151000Y1086000*
X1145953Y1088047D02*
X1149500D01*
Y1088000*
X1145953Y1090016D02*
X1151484D01*
X1151500Y1090000*
X1145953Y1091984D02*
X1149484D01*
X1149500Y1092000*
X1145953Y1093953D02*
X1152000D01*
Y1094000*
X1153500Y1092500*
Y1085000*
X1154921Y1081400D02*
Y1080079D01*
X1155000Y1080000*
X1154921Y1081400D02*
Y1081521D01*
X1155800Y1082400*
Y1086121*
X1174000Y1070374D02*
X1176363Y1071414D01*
Y1073714*
X1180227*
X1174000Y1054626D02*
X1174037Y1051015D01*
X1174038Y1051014*
X1180827*
X1212328Y1074158D02*
X1212413Y1074214D01*
X1209125Y1074860D02*
Y1077360D01*
X1210752Y1078987*
X1209125Y1074860D02*
X1209770Y1074214D01*
X1212413*
X1210752Y1078987D02*
X1212328Y1077270D01*
X1198153Y1088435D02*
X1198227Y1088714D01*
Y1090714*
X1273227Y1065214D02*
Y1060464D01*
X1264877Y1065214D02*
Y1060464D01*
X1265227*
X1253227Y1073714D02*
X1255150Y1075637D01*
Y1078550*
X1256227Y1071714D02*
X1257444Y1070498D01*
X1261851*
X1260227Y1082714D02*
X1261851Y1081091D01*
Y1077978*
X1267727Y1068714D02*
X1269511Y1070498D01*
X1272051*
Y1077978D02*
Y1084286D01*
X1272077Y1084312*
X1289227Y1065214D02*
Y1060464D01*
X1281227D02*
Y1065214D01*
X1306227Y1062864D02*
Y1064714D01*
X1311074*
X1335500Y1063000D02*
X1335888Y1063388D01*
X1331951*
X1113677Y1111512D02*
Y1116177D01*
X1117000Y1119500*
X1147150*
X1154150Y1112500*
X1090000Y1097275D02*
X1094477D01*
X1096062Y1098860*
X1098078*
X1076428Y1105360D02*
X1076477Y1105311D01*
Y1103112*
X1077277Y1102312*
X1088000*
X1090000Y1100312*
Y1097275*
X1076428Y1095360D02*
X1076676Y1095112D01*
X1081240*
X1084077Y1092275*
X1090000*
X1141000Y1106000D02*
X1142000Y1105000D01*
X1144203*
X1149000Y1100203*
X1151000*
X1152000Y1099203*
X1155047*
X1144000Y1107500D02*
X1149984Y1101516D01*
X1155047*
X1150000Y1105500D02*
Y1105797D01*
X1155047*
X1123227Y1099714D02*
X1125364D01*
X1133500Y1107850*
X1139000*
X1139650Y1108500*
Y1112500*
X1148000Y1107500D02*
Y1104984D01*
X1149500Y1103484*
X1155047*
X1134500Y1099000D02*
X1136500D01*
X1137266Y1098234*
X1140047*
X1133000Y1097000D02*
X1136000D01*
X1137079Y1095921*
X1140047*
X1134500Y1095000D02*
X1136000D01*
X1137047Y1093953*
X1140047*
X1146350Y1112500D02*
X1146500Y1112650D01*
Y1116500*
X1145953Y1095921D02*
X1153000D01*
X1154921Y1094000*
Y1087000*
X1155800Y1086121*
X1145953Y1098234D02*
X1149500D01*
X1150734Y1097000*
X1155000*
X1157500Y1094500*
Y1086500*
X1123650Y1112500D02*
Y1116000D01*
X1125000Y1117350*
X1134850*
X1135000Y1117500*
X1130350Y1112500D02*
Y1109150D01*
X1130500Y1109000*
X1184727Y1106364D02*
Y1100214D01*
X1192227Y1092714*
X1196227*
X1198227Y1090714*
X1160953Y1099203D02*
X1165297D01*
X1165500Y1099000*
X1160953Y1101516D02*
X1163984D01*
X1164000Y1101500*
X1160953Y1103484D02*
X1165484D01*
X1165500Y1103500*
X1160953Y1105797D02*
X1163797D01*
X1164000Y1106000*
X1160850Y1112500D02*
Y1115850D01*
X1161000Y1116000*
X1191727Y1113064D02*
Y1116500D01*
X1184727Y1113064D02*
Y1114500D01*
X1188227*
X1184727Y1106364D02*
X1191727D01*
X1241416Y1112584D02*
X1241500Y1112500D01*
X1313463Y1103025D02*
Y1098500D01*
X1317000Y1095000*
Y1085000*
X1328463Y1103025D02*
X1320163D01*
Y1099279*
X1323227Y1096214*
G54D29*
X1110000Y1005315D02*
Y1011487D01*
X1110227Y1011714*
X1100000Y1005315D02*
Y1011487D01*
X1100227Y1011714*
X1065500Y1028500D02*
X1065640Y1028360D01*
X1069728*
Y1055360D02*
Y1045714D01*
Y1035860*
Y1028360D02*
Y1035860D01*
Y1045360D02*
Y1045714D01*
X1112877Y1027060D02*
Y1027252D01*
X1119612*
X1119877Y1026986*
X1110000Y1031088D02*
Y1028214D01*
X1110962Y1027252*
X1112877*
Y1027060*
X1090000Y1031088D02*
X1094727D01*
Y1031214*
X1145000Y1047150D02*
X1148000D01*
X1149000Y1048150*
Y1054000*
X1119650Y1027214D02*
X1119877Y1026986D01*
X1126350Y1027214D02*
X1130727D01*
X1126350Y1046463D02*
Y1039375D01*
Y1033075*
X1130675*
X1130800Y1033200*
X1177000Y1025750D02*
X1182000D01*
Y1026000*
X1177000Y1033250D02*
X1182000D01*
Y1033500*
X1156477Y1024312D02*
Y1026565D01*
X1157574Y1027662*
X1161277*
X1187074Y1045864D02*
X1187131Y1045807D01*
Y1045739*
X1187143Y1045727*
Y1045696*
X1189727Y1043111*
Y1039860*
X1213250Y1023500D02*
X1213727D01*
Y1029214*
X1229727Y1028714D02*
X1229950Y1028937D01*
Y1033663*
X1217227Y1029214D02*
X1217350D01*
Y1033663*
X1209227Y1029214D02*
Y1033663D01*
X1210263*
X1204727Y1029214D02*
Y1024523D01*
X1205750Y1023500*
X1203175Y1033663D02*
X1204727D01*
Y1029214*
X1223650Y1033663D02*
Y1028791D01*
X1223727Y1028714*
X1245283Y1046659D02*
X1248067D01*
X1249638Y1045088*
X1248500Y1031000D02*
Y1038388D01*
X1249638*
X1273227Y1048214D02*
Y1052964D01*
X1235952Y1028587D02*
X1236250Y1028885D01*
Y1033663*
X1265227Y1052964D02*
X1273227D01*
X1281227Y1048214D02*
Y1052964D01*
X1296227Y1038714D02*
Y1034564D01*
X1311227Y1023714D02*
X1316050D01*
Y1021800*
X1281227Y1052964D02*
X1289227D01*
X1333000Y1024000D02*
Y1029250D01*
X1323550Y1021800D02*
X1327000Y1018350D01*
X1328850*
X1329000Y1018500*
X1069677Y1081112D02*
X1069728Y1081061D01*
Y1075360*
X1069677Y1081112D02*
X1069728Y1081163D01*
Y1085360*
Y1055360D02*
Y1065360D01*
X1105074Y1082214D02*
X1105135Y1082275D01*
X1110000*
X1085227Y1057163D02*
Y1057075D01*
X1090000*
X1105074Y1057214D02*
X1105213Y1057075D01*
X1110000*
X1084500Y1082500D02*
X1084725Y1082275D01*
X1090000*
X1110000D02*
X1110061Y1082214D01*
X1113972*
X1115074Y1081113*
X1119650*
X1110000Y1057075D02*
X1110139Y1057214D01*
X1114220*
X1116574Y1054860*
X1119650*
X1149500Y1068650D02*
X1152500D01*
X1153500Y1069650*
Y1075000*
X1126350Y1054860D02*
Y1061425D01*
Y1081113D02*
X1130830D01*
X1131078Y1081360*
X1126350Y1081113D02*
Y1087413D01*
Y1067725D02*
X1130217D01*
X1130227Y1067714*
X1126350Y1067725D02*
Y1074025D01*
Y1061425D02*
X1130227D01*
Y1061214*
X1189727Y1088714D02*
X1189788D01*
Y1085250*
Y1060438D02*
X1191727Y1058498D01*
Y1056714*
X1216727Y1063714D02*
X1216854Y1063588D01*
X1220500*
X1213413D02*
Y1063714D01*
X1216727*
X1246727Y1089714D02*
Y1084564D01*
X1258077Y1074312D02*
X1258152Y1074238D01*
X1261851*
X1249838Y1056700D02*
Y1056060D01*
X1253377*
X1249838Y1067725D02*
X1251677Y1065886D01*
Y1063912*
X1311500Y1091000D02*
Y1085850D01*
X1311000Y1072500D02*
X1311500Y1073000D01*
Y1079150*
X1300924Y1075360D02*
Y1071214D01*
X1302574Y1069564*
X1306227*
X1300924Y1075360D02*
X1301078D01*
X1279277Y1084712D02*
X1279451Y1084539D01*
Y1080088*
X1329850Y1087500D02*
Y1091850D01*
X1330000Y1092000*
X1323150Y1087500D02*
Y1083639D01*
X1323277Y1083512*
X1331951Y1070088D02*
X1335478D01*
X1335678Y1069960*
X1023074Y1102714D02*
X1027224D01*
X1069500Y1113000D02*
X1069728Y1112772D01*
Y1105360*
Y1095360D02*
X1069727D01*
X1069728*
Y1085360*
X1046574Y1102964D02*
X1048500D01*
Y1108500*
X1069728Y1095360D02*
Y1105360D01*
X1106850Y1108500D02*
X1107227D01*
Y1103714*
X1100000Y1104500D02*
X1100150Y1104650D01*
Y1108500*
X1176350Y1111000D02*
X1176986Y1111014D01*
X1179574Y1108426*
Y1105714*
X1169300Y1103700D02*
X1169650Y1104050D01*
Y1111000*
X1216563Y1098638D02*
X1220377D01*
Y1098560*
X1223650Y1098638D02*
X1227727D01*
Y1098714*
X1203963Y1098638D02*
X1208727D01*
Y1098214*
X1248750Y1117500D02*
X1253500D01*
X1241250D02*
Y1112750D01*
X1241416Y1112584*
X1256250Y1107500D02*
X1261500D01*
X1248750D02*
Y1102250D01*
X1249000Y1102000*
X1246500Y1094500D02*
X1246500D01*
X1250225*
X1256900Y1098400D02*
X1256925Y1098375D01*
Y1094500*
X1236250Y1098638D02*
X1240403D01*
X1240477Y1098712*
X1330163Y1110525D02*
X1335038D01*
X1335227Y1110714*
X1335163Y1103025D02*
X1340038D01*
X1340227Y1103214*
G54D30*
X1315985Y1057094D03*
Y1061031D03*
X1321891Y1057094D03*
Y1061031D03*
G54D31*
X1035074Y1013714D03*
X1100227Y1011714D03*
X1110227D03*
X1203074Y1013214D03*
X1253877Y1012060D03*
X1020578Y1036860D03*
X1018074Y1050214D03*
X1031578Y1032860D03*
X1024078Y1052860D03*
X1029078Y1053360D03*
X1065500Y1028500D03*
X1043578Y1024860D03*
X1047578Y1036360D03*
X1037078Y1052860D03*
X1036777Y1028012D03*
X1039077Y1041187D03*
X1056000Y1054000D03*
X1112877Y1027060D03*
X1097227Y1029214D03*
X1145074D03*
X1134074Y1025214D03*
X1130727Y1027214D03*
X1115574Y1030714D03*
X1115200Y1046000D03*
X1130800Y1033200D03*
X1182000Y1033500D03*
X1162000Y1040500D03*
Y1033500D03*
X1178000Y1040500D03*
X1171500Y1028000D03*
X1189727Y1039860D03*
X1182000Y1026000D03*
X1184377Y1040060D03*
X1156477Y1024312D03*
X1165277Y1028312D03*
Y1020712D03*
X1213727Y1029214D03*
X1229727Y1028714D03*
X1217227Y1029214D03*
X1209227D03*
X1204727D03*
X1223727Y1028714D03*
X1206574Y1014714D03*
X1240377Y1036560D03*
X1248500Y1031000D03*
X1273227Y1048214D03*
X1244877Y1047060D03*
X1262727Y1036214D03*
X1235952Y1028587D03*
X1256377Y1015060D03*
X1312078Y1048860D03*
X1311078Y1031360D03*
X1281227Y1048214D03*
X1296227Y1038714D03*
X1277727Y1036214D03*
X1305227Y1014663D03*
X1311227Y1023714D03*
X1300227Y1015714D03*
X1280077Y1015060D03*
X1333000Y1024000D03*
X1347227Y1027214D03*
X1342078Y1040860D03*
X1347227Y1020714D03*
X1342078Y1044360D03*
Y1037360D03*
X1023077Y1093812D03*
X1022677Y1063012D03*
X1034177Y1055912D03*
X1033078Y1093860D03*
X1028078Y1083360D03*
X1044574Y1090214D03*
X1038074Y1093714D03*
X1056000Y1060500D03*
X1064877Y1056312D03*
X1048574Y1090214D03*
X1046578Y1082360D03*
X1045078Y1069360D03*
X1064477Y1086312D03*
X1103078Y1061360D03*
X1105074Y1082214D03*
X1100727Y1077663D03*
X1096500Y1066500D03*
X1130227Y1067714D03*
X1115377Y1085560D03*
X1130227Y1061214D03*
X1131078Y1081360D03*
X1191727Y1056714D03*
X1193574Y1075835D03*
X1182500Y1068000D03*
X1216727Y1063714D03*
X1251677Y1063912D03*
X1258077Y1074312D03*
X1254877Y1065112D03*
X1272077Y1084312D03*
X1255227Y1089214D03*
X1311500Y1091000D03*
X1311074Y1064714D03*
X1301078Y1075360D03*
X1311000Y1072500D03*
Y1069500D03*
X1300574Y1085714D03*
X1279277Y1084712D03*
X1317000Y1085000D03*
X1323277Y1083512D03*
X1326378Y1083460D03*
X1335678Y1069960D03*
X1330000Y1092000D03*
X1013000Y1111000D03*
Y1117500D03*
X1023074Y1102714D03*
X1048500Y1108500D03*
X1069500Y1113000D03*
X1044574Y1108714D03*
X1038227Y1102714D03*
X1064477Y1096312D03*
X1100000Y1104500D03*
X1115500Y1098300D03*
X1175727Y1120860D03*
X1183227D03*
X1179227D03*
X1169300Y1119500D03*
X1178377Y1094560D03*
X1169300Y1103700D03*
X1215377Y1105560D03*
X1195877Y1110060D03*
X1219927Y1116614D03*
X1229727Y1116214D03*
X1208727Y1098214D03*
X1220377Y1098560D03*
X1227727Y1098714D03*
X1249000Y1102000D03*
X1261500Y1107500D03*
X1241500Y1112500D03*
X1235227Y1104214D03*
X1253500Y1117500D03*
X1246500Y1094500D03*
X1240477Y1098712D03*
X1256900Y1098400D03*
X1343727Y1110714D03*
Y1117714D03*
X1323227Y1114714D03*
X1340227Y1103214D03*
X1326727Y1096214D03*
X1323227D03*
X1335227Y1110714D03*
G54D32*
X1060000Y1012000D03*
X1086077Y1012312D03*
X1096377Y1012060D03*
X1106377D03*
X1113377D03*
X1103377D03*
X1083377Y1012189D03*
X1093377Y1012060D03*
X1123377D03*
X1116377D03*
X1136377D03*
X1141377Y1013560D03*
X1146377Y1012060D03*
X1151377Y1013560D03*
X1126377Y1012060D03*
X1143377D03*
X1133377D03*
X1153377D03*
X1148377Y1013560D03*
X1138377D03*
X1156377Y1012060D03*
X1161377Y1013560D03*
X1158377D03*
X1226277Y1011460D03*
X1228377Y1012415D03*
X1223577Y1011360D03*
X1233800Y1012189D03*
X1231074Y1013714D03*
X1216077Y1012312D03*
X1211227Y1012214D03*
X1213677Y1012312D03*
X1208727Y1012214D03*
X1218877Y1012415D03*
X1221477Y1012312D03*
X1238877Y1012415D03*
X1236227Y1012214D03*
X1246227Y1012215D03*
X1251377Y1014060D03*
X1266227Y1012215D03*
X1271227D03*
X1241377Y1012415D03*
X1243800Y1012189D03*
X1248800D03*
X1258800D03*
X1263800D03*
X1268800D03*
X1273800D03*
X1311227Y1012214D03*
X1286227D03*
X1291227D03*
X1276227D03*
X1296227D03*
X1283800Y1012189D03*
X1288800D03*
X1293800D03*
X1298800D03*
X1308800D03*
X1313800D03*
X1316227Y1012214D03*
X1318727D03*
X1321727Y1011714D03*
X1064500Y1036000D03*
X1056000Y1042000D03*
X1067000Y1022000D03*
X1060227Y1025560D03*
X1062727Y1021500D03*
X1056227Y1023500D03*
X1058877Y1021500D03*
X1070078Y1017860D03*
X1054500Y1018000D03*
X1064877Y1046312D03*
X1113000Y1053000D03*
X1093000Y1027500D03*
X1078227Y1022060D03*
X1083877Y1020060D03*
X1085227Y1050214D03*
Y1046214D03*
X1094727Y1031214D03*
X1085227Y1039714D03*
X1083727Y1044214D03*
Y1052214D03*
X1099227Y1040163D03*
X1100400Y1042800D03*
X1098227Y1044163D03*
X1110500Y1054000D03*
X1098800Y1052400D03*
X1100400Y1050400D03*
X1098800Y1048400D03*
X1100400Y1046400D03*
X1154100Y1034900D03*
X1153000Y1046000D03*
X1149000Y1054000D03*
X1142000D03*
X1134000Y1044500D03*
X1123227Y1050500D03*
X1132500Y1042500D03*
X1141000Y1035000D03*
X1128500Y1014500D03*
X1132500Y1046500D03*
X1115500Y1041000D03*
X1117727Y1050663D03*
X1114727D03*
X1120727D03*
X1134500Y1048500D03*
X1134000Y1040500D03*
X1132500Y1050500D03*
X1134500Y1052500D03*
X1160000Y1050000D03*
X1191574Y1052214D03*
X1156500Y1041300D03*
X1180827Y1051014D03*
X1192727Y1038860D03*
X1193877Y1045060D03*
X1188078Y1015360D03*
X1192078D03*
X1185677Y1031512D03*
X1194077D03*
X1186877Y1037360D03*
X1188077Y1029912D03*
X1232798Y1050640D03*
X1226227Y1022360D03*
X1220377Y1022915D03*
X1223877Y1019060D03*
X1224377Y1023915D03*
X1217377Y1019415D03*
X1220574Y1037214D03*
X1220200Y1053789D03*
X1226499D03*
X1220200Y1050640D03*
X1213901Y1047490D03*
X1201302D03*
X1232798Y1053789D03*
X1220200Y1047490D03*
X1213901Y1050640D03*
Y1053789D03*
X1229649D03*
Y1044340D03*
X1201302Y1050640D03*
X1196078Y1015360D03*
X1200078D03*
X1198153Y1044340D03*
X1207601Y1053789D03*
Y1047490D03*
X1200077Y1029912D03*
X1210751Y1047490D03*
X1195227Y1034214D03*
X1207601Y1050640D03*
X1210751D03*
X1201302Y1044340D03*
X1229649Y1047490D03*
X1223350Y1044340D03*
X1210751D03*
X1204452Y1050640D03*
X1198153Y1053789D03*
X1232798Y1047490D03*
X1226499Y1044340D03*
X1220200D03*
X1229649Y1050640D03*
X1223350Y1047490D03*
X1210751Y1053789D03*
X1204452Y1047490D03*
X1195003Y1053789D03*
X1204452D03*
X1198153Y1050640D03*
X1195003D03*
X1226499Y1047490D03*
X1232798Y1044340D03*
X1226499Y1050640D03*
X1223350D03*
Y1053789D03*
X1201302D03*
X1213901Y1044340D03*
X1207601D03*
X1204452D03*
X1198153Y1047490D03*
X1239098Y1044340D03*
X1256377Y1025560D03*
X1246727Y1019860D03*
X1239098Y1047490D03*
X1238877Y1028915D03*
X1256727Y1023060D03*
X1260877Y1017560D03*
X1273727Y1043214D03*
X1266227Y1045214D03*
X1255377Y1035560D03*
X1243877Y1027060D03*
X1244877Y1038000D03*
X1270227Y1047714D03*
X1254000Y1039060D03*
X1240877Y1025060D03*
X1235948Y1047490D03*
X1239098Y1053789D03*
X1235948D03*
X1239098Y1050640D03*
X1243877Y1017915D03*
X1273078Y1022860D03*
X1263078D03*
X1267877Y1020415D03*
X1268727Y1042714D03*
X1235948Y1044340D03*
X1303377Y1048560D03*
X1289574Y1023714D03*
X1286000Y1047500D03*
X1305877Y1048560D03*
X1305500Y1044500D03*
X1293727Y1042214D03*
X1284877Y1039500D03*
X1286500Y1023500D03*
X1303000Y1023000D03*
Y1039500D03*
X1276227Y1045214D03*
X1291727Y1046214D03*
X1297227D03*
X1294727D03*
X1305500Y1020500D03*
X1281000Y1020000D03*
X1289227Y1046214D03*
X1296000Y1023500D03*
X1278078Y1022860D03*
X1329000Y1018500D03*
X1322578Y1036860D03*
X1328227Y1021714D03*
X1327227Y1029214D03*
X1056500Y1082000D03*
X1064500Y1066000D03*
Y1076000D03*
X1083040Y1075112D03*
X1081227Y1065214D03*
X1085227Y1054214D03*
X1100227Y1085163D03*
X1100727Y1063663D03*
X1085227Y1057163D03*
X1105074Y1057214D03*
X1098578Y1086860D03*
X1082078Y1090860D03*
X1082578Y1084360D03*
X1084578Y1088860D03*
X1100078Y1093360D03*
Y1089360D03*
X1098078Y1090860D03*
X1100400Y1054400D03*
X1084500Y1082500D03*
X1107000Y1078500D03*
X1153500Y1075000D03*
X1137000Y1054500D03*
X1132000Y1076500D03*
X1151000Y1086000D03*
X1144000Y1077500D03*
X1141400Y1056500D03*
X1149500Y1088000D03*
X1153500Y1085000D03*
X1143500Y1075000D03*
X1139500Y1069100D03*
X1149500Y1092000D03*
Y1084000D03*
X1151500Y1090000D03*
X1134000Y1070000D03*
X1130300Y1078200D03*
Y1074500D03*
X1115727Y1074163D03*
X1117227Y1091663D03*
X1119227Y1093163D03*
X1121227Y1091663D03*
X1123377Y1093163D03*
X1133000Y1093000D03*
Y1089000D03*
X1132877Y1084060D03*
X1134500Y1091000D03*
X1133877Y1086560D03*
X1158300Y1066300D03*
X1154500Y1067500D03*
X1166000Y1071500D03*
X1161500Y1063500D03*
X1174000Y1083500D03*
X1159500Y1062100D03*
X1155000Y1080000D03*
X1165000Y1083000D03*
X1176327Y1062214D03*
X1157500Y1086500D03*
X1160500Y1057000D03*
X1165500Y1059500D03*
X1180227Y1073714D03*
X1189727Y1088714D03*
X1201303Y1075835D03*
X1229649Y1072687D03*
X1201302Y1069537D03*
X1229649Y1060088D03*
X1195003Y1069537D03*
X1198153D03*
X1232798D03*
X1210751Y1088435D03*
X1207601Y1078986D03*
X1210751Y1075836D03*
X1220200Y1082136D03*
X1223350Y1085285D03*
X1220200D03*
X1207601D03*
X1232798Y1063238D03*
X1210751Y1082136D03*
X1213901D03*
Y1085285D03*
X1210751D03*
X1201302Y1088435D03*
X1232798Y1060088D03*
X1226499D03*
X1223350Y1056939D03*
X1232798D03*
X1195003Y1082136D03*
X1210751Y1056939D03*
X1226499Y1063238D03*
Y1056939D03*
X1204452Y1063238D03*
X1198153Y1060088D03*
X1195003Y1078986D03*
X1201302Y1072687D03*
X1210752Y1078987D03*
X1204452Y1088437D03*
X1229649Y1088435D03*
X1226499Y1069537D03*
X1223350Y1088435D03*
X1198153D03*
X1213901Y1075836D03*
X1207601Y1082136D03*
X1204452D03*
X1201302Y1078986D03*
X1220200Y1088435D03*
Y1078986D03*
X1226499D03*
Y1072687D03*
X1229649Y1075836D03*
Y1063238D03*
Y1056939D03*
Y1069537D03*
X1232798Y1082136D03*
Y1072687D03*
X1226499Y1075836D03*
X1223350D03*
X1220200D03*
X1213901Y1056939D03*
X1195003Y1060088D03*
Y1063238D03*
X1204452Y1069537D03*
X1207601Y1072687D03*
X1213901Y1078986D03*
Y1088435D03*
X1198153Y1078986D03*
X1204452Y1085285D03*
X1207601Y1088435D03*
X1204452Y1056939D03*
X1220200D03*
X1232798Y1088435D03*
X1207601Y1069537D03*
X1201302Y1063238D03*
X1229649Y1085285D03*
Y1082136D03*
X1207601Y1056939D03*
X1201302Y1060088D03*
X1198153Y1063238D03*
X1226499Y1085285D03*
X1232798D03*
X1195003Y1088435D03*
Y1085285D03*
X1201302Y1082136D03*
X1198153D03*
X1204452Y1078986D03*
X1232798Y1075836D03*
X1198153Y1085285D03*
X1256377Y1055560D03*
X1273227Y1065214D03*
X1246727Y1089714D03*
X1264877Y1065214D03*
X1259377Y1067060D03*
X1253377Y1056060D03*
X1246477Y1064760D03*
X1247227Y1073714D03*
X1253227D03*
X1256227Y1071714D03*
X1235948Y1063238D03*
Y1082136D03*
X1239098Y1069537D03*
X1235948D03*
Y1072687D03*
X1260227Y1082714D03*
X1266727Y1089214D03*
X1251727Y1085163D03*
X1239098Y1072687D03*
Y1082136D03*
Y1085285D03*
X1235948D03*
X1239098Y1056939D03*
X1235948Y1060088D03*
X1239098D03*
Y1078986D03*
X1235948Y1088435D03*
Y1056939D03*
X1242477Y1060312D03*
X1239098Y1063238D03*
X1267727Y1068714D03*
X1239098Y1088435D03*
X1259727Y1061214D03*
X1239098Y1075836D03*
X1281227Y1065214D03*
X1293074Y1084500D03*
X1289227Y1065214D03*
X1281727Y1089214D03*
X1290727Y1079663D03*
Y1072163D03*
X1279227Y1067663D03*
X1296727Y1089714D03*
X1319500Y1071500D03*
X1335500Y1063000D03*
X1320877Y1067912D03*
X1028077Y1113512D03*
X1043577Y1118312D03*
X1064500Y1106000D03*
X1107227Y1103714D03*
X1100078Y1096860D03*
X1085078Y1094860D03*
X1083277Y1096712D03*
X1085277Y1098712D03*
X1098078Y1098860D03*
Y1094860D03*
X1113677Y1111512D03*
X1091500Y1110500D03*
X1135500Y1106000D03*
X1130500Y1109000D03*
X1135000Y1117500D03*
X1154000Y1116500D03*
X1128000Y1106500D03*
X1141000Y1106000D03*
X1144000Y1107500D03*
X1150000Y1105500D03*
X1119227Y1099714D03*
X1123227D03*
X1148000Y1107500D03*
X1150300Y1109000D03*
X1134500Y1099000D03*
X1133000Y1097000D03*
X1134500Y1095000D03*
X1146500Y1116500D03*
X1117677Y1111112D03*
X1172500Y1105000D03*
X1167500Y1101000D03*
X1154500Y1108000D03*
X1158000D03*
X1172000Y1100500D03*
X1179574Y1105714D03*
X1188227Y1114500D03*
X1164000Y1101500D03*
X1161000Y1116000D03*
X1181000Y1111800D03*
X1164000Y1106000D03*
X1165500Y1099000D03*
Y1103500D03*
X1191727Y1116500D03*
X1200000Y1121000D03*
X1211500Y1114000D03*
X1204500Y1117000D03*
X1199500Y1110500D03*
X1244500Y1099000D03*
X1254000Y1113000D03*
X1262727Y1100163D03*
X1274227Y1104714D03*
X1278000Y1118500D03*
X1296727Y1104714D03*
X1304227D03*
X1289227D03*
X1281727D03*
G54D33*
X652000Y645200D02*
X1688000D01*
Y1350000*
X652000*
Y645200*
X1253500D02*
X1688000D01*
Y840200*
X1253500*
Y645200*
X1253000Y785200D02*
X1688000D01*
Y645200*
X1253000*
Y785200*
Y675200D02*
X1688000D01*
Y645200*
X1253000*
Y675200*
X1413000*
Y645200*
X1253000*
Y675200*
Y785200D02*
X1688000D01*
Y840200*
X1253000*
Y785200*
Y715200D02*
X1688000D01*
Y785200*
X1253000*
Y715200*
X1553000Y675200D02*
X1688000D01*
Y715200*
X1553000*
Y675200*
X818500Y675700D02*
X1024000D01*
Y645200*
X818500*
Y675700*
X1024000Y645200D02*
X1253500D01*
Y675700*
X1024000*
Y645200*
X818500Y785700D02*
X1253500D01*
Y675700*
X818500*
Y785700*
G54D38*
X1229649Y1047490D02*
X1231200Y1045939D01*
X1229950Y1040363D02*
X1231200D01*
Y1045939*
X1212328Y1077270D02*
Y1074158D01*
G54D41*
X1174000Y1053876D02*
Y1055376D01*
Y1069624D02*
Y1071124D01*
G54D42*
X1009594Y1082655D02*
X1005656D01*
X1009594Y1081700D02*
Y1083609D01*
Y1084836D02*
X1005656D01*
X1009594D02*
Y1086609D01*
X1007719Y1084836D02*
Y1085927D01*
X1005656Y1084836D02*
Y1086609D01*
X1009594Y1087836D02*
X1005656Y1089745D01*
X1009594D02*
X1005656Y1087836D01*
X1009594Y1091791D02*
X1009406Y1091382D01*
X1008844Y1091109*
X1007906Y1090973*
X1007344*
X1006406Y1091109*
X1005844Y1091382*
X1005656Y1091791*
Y1092064*
X1005844Y1092473*
X1006406Y1092745*
X1007344Y1092882*
X1007906*
X1008844Y1092745*
X1009406Y1092473*
X1009594Y1092064*
Y1091791*
Y1094927D02*
X1009406Y1094518D01*
X1008844Y1094245*
X1007906Y1094109*
X1007344*
X1006406Y1094245*
X1005844Y1094518*
X1005656Y1094927*
Y1095200*
X1005844Y1095609*
X1006406Y1095882*
X1007344Y1096018*
X1007906*
X1008844Y1095882*
X1009406Y1095609*
X1009594Y1095200*
Y1094927*
Y1097518D02*
Y1099018D01*
X1008094Y1098200*
Y1098609*
X1007906Y1098882*
X1007719Y1099018*
X1007156Y1099155*
X1006781*
X1006219Y1099018*
X1005844Y1098745*
X1005656Y1098336*
Y1097927*
X1005844Y1097518*
X1006031Y1097382*
X1006406Y1097245*
G54D60*
G54D66*
X1320438Y1059063D02*
X1317438D01*
X0Y0D02*
M02*
