*
*
G04 PADS Layout (Build Number 2008.43.1) generated Gerber (RS-274-X) file*
G04 PC Version=2.1*
*
%IN "TEX003.pcb"*%
*
%MOIN*%
*
%FSLAX35Y35*%
*
*
*
*
G04 PC Standard Apertures*
*
*
G04 Thermal Relief Aperture macro.*
%AMTER*
1,1,$1,0,0*
1,0,$1-$2,0,0*
21,0,$3,$4,0,0,45*
21,0,$3,$4,0,0,135*
%
*
*
G04 Annular Aperture macro.*
%AMANN*
1,1,$1,0,0*
1,0,$2,0,0*
%
*
*
G04 Odd Aperture macro.*
%AMODD*
1,1,$1,0,0*
1,0,$1-0.005,0,0*
%
*
*
G04 PC Custom Aperture Macros*
*
*
*
*
*
*
G04 PC Aperture Table*
*
%ADD027C,0.01*%
%ADD028C,0.005*%
%ADD033C,0.008*%
%ADD042C,0.006*%
%ADD060C,0*%
*
*
*
*
G04 PC Circuitry*
G04 Layer Name TEX003.pcb - circuitry*
%LPD*%
*
*
G04 PC Custom Flashes*
G04 Layer Name TEX003.pcb - flashes*
%LPD*%
*
*
G04 PC Circuitry*
G04 Layer Name TEX003.pcb - circuitry*
%LPD*%
*
G54D27*
G01X1095000Y1028588D02*
X1098500D01*
Y1031088*
X1101500*
Y1028588*
X1105000*
Y1048588*
X1095000*
Y1028588*
X1098500*
Y1031088*
X1101500*
Y1028588*
X1105000*
Y1048588*
X1095000*
Y1028588*
Y1054575D02*
X1098500D01*
Y1057075*
X1101500*
Y1054575*
X1105000*
Y1074575*
X1095000*
Y1054575*
X1098500*
Y1057075*
X1101500*
Y1054575*
X1105000*
Y1074575*
X1095000*
Y1054575*
Y1079775D02*
X1098500D01*
Y1082275*
X1101500*
Y1079775*
X1105000*
Y1099775*
X1095000*
Y1079775*
X1098500*
Y1082275*
X1101500*
Y1079775*
X1105000*
Y1099775*
X1095000*
Y1079775*
X1293580Y664184D02*
Y654341D01*
X1297670*
X1303466Y664184D02*
X1300739Y654341D01*
X1303466Y664184D02*
X1306193Y654341D01*
X1301761Y657622D02*
X1305170D01*
X1309261Y664184D02*
X1311989Y659497D01*
Y654341*
X1314716Y664184D02*
X1311989Y659497D01*
X1317784Y664184D02*
Y654341D01*
Y664184D02*
X1322216D01*
X1317784Y659497D02*
X1320511D01*
X1317784Y654341D02*
X1322216D01*
X1325284Y664184D02*
Y654341D01*
Y664184D02*
X1328352D01*
X1329375Y663716*
X1329716Y663247*
X1330057Y662309*
Y661372*
X1329716Y660434*
X1329375Y659966*
X1328352Y659497*
X1325284*
X1327670D02*
X1330057Y654341D01*
X1035078Y707903D02*
Y698060D01*
Y707903D02*
X1038146D01*
X1039169Y707435*
X1039509Y706966*
X1039850Y706028*
Y704622*
X1039509Y703685*
X1039169Y703216*
X1038146Y702747*
X1035078*
X1042919Y707903D02*
Y698060D01*
X1047691Y707903D02*
Y698060D01*
X1042919Y703216D02*
X1047691D01*
X1052805Y707903D02*
X1052123Y707435D01*
X1051441Y706497*
X1051100Y705560*
X1050759Y704153*
Y701810*
X1051100Y700403*
X1051441Y699466*
X1052123Y698528*
X1052805Y698060*
X1054169*
X1054850Y698528*
X1055532Y699466*
X1055873Y700403*
X1056214Y701810*
Y704153*
X1055873Y705560*
X1055532Y706497*
X1054850Y707435*
X1054169Y707903*
X1052805*
X1059282D02*
Y698060D01*
Y707903D02*
X1064055Y698060D01*
Y707903D02*
Y698060D01*
X1067123Y707903D02*
Y698060D01*
Y707903D02*
X1071555D01*
X1067123Y703216D02*
X1069850D01*
X1067123Y698060D02*
X1071555D01*
X1074964Y704622D02*
X1074623Y704153D01*
X1074964Y703685*
X1075305Y704153*
X1074964Y704622*
Y698997D02*
X1074623Y698528D01*
X1074964Y698060*
X1075305Y698528*
X1074964Y698997*
X1090646Y707903D02*
X1087237D01*
X1086896Y703685*
X1087237Y704153*
X1088259Y704622*
X1089282*
X1090305Y704153*
X1090987Y703216*
X1091328Y701810*
X1090987Y700872*
X1090646Y699466*
X1089964Y698528*
X1088941Y698060*
X1087919*
X1086896Y698528*
X1086555Y698997*
X1086214Y699935*
X1096441Y707903D02*
X1095419Y707435D01*
X1094737Y706028*
X1094396Y703685*
Y702278*
X1094737Y699935*
X1095419Y698528*
X1096441Y698060*
X1097123*
X1098146Y698528*
X1098828Y699935*
X1099169Y702278*
Y703685*
X1098828Y706028*
X1098146Y707435*
X1097123Y707903*
X1096441*
X1103941D02*
X1102919Y707435D01*
X1102578Y706497*
Y705560*
X1102919Y704622*
X1103600Y704153*
X1104964Y703685*
X1105987Y703216*
X1106669Y702278*
X1107009Y701341*
Y699935*
X1106669Y698997*
X1106328Y698528*
X1105305Y698060*
X1103941*
X1102919Y698528*
X1102578Y698997*
X1102237Y699935*
Y701341*
X1102578Y702278*
X1103259Y703216*
X1104282Y703685*
X1105646Y704153*
X1106328Y704622*
X1106669Y705560*
Y706497*
X1106328Y707435*
X1105305Y707903*
X1103941*
X1110419Y698997D02*
X1110078Y698528D01*
X1110419Y698060*
X1110759Y698528*
X1110419Y698997*
X1118259Y704622D02*
X1117919Y703216D01*
X1117237Y702278*
X1116214Y701810*
X1115873*
X1114850Y702278*
X1114169Y703216*
X1113828Y704622*
Y705091*
X1114169Y706497*
X1114850Y707435*
X1115873Y707903*
X1116214*
X1117237Y707435*
X1117919Y706497*
X1118259Y704622*
Y702278*
X1117919Y699935*
X1117237Y698528*
X1116214Y698060*
X1115532*
X1114509Y698528*
X1114169Y699466*
X1124737Y707903D02*
X1121328Y701341D01*
X1126441*
X1124737Y707903D02*
Y698060D01*
X1134282Y707903D02*
X1130873Y698060D01*
X1129509Y707903D02*
X1134282D01*
X1137691Y698997D02*
X1137350Y698528D01*
X1137691Y698060*
X1138032Y698528*
X1137691Y698997*
X1141441Y705560D02*
Y706028D01*
X1141782Y706966*
X1142123Y707435*
X1142805Y707903*
X1144169*
X1144850Y707435*
X1145191Y706966*
X1145532Y706028*
Y705091*
X1145191Y704153*
X1144509Y702747*
X1141100Y698060*
X1145873*
X1153714Y707903D02*
X1150305Y698060D01*
X1148941Y707903D02*
X1153714D01*
X1158828D02*
X1157805Y707435D01*
X1157123Y706028*
X1156782Y703685*
Y702278*
X1157123Y699935*
X1157805Y698528*
X1158828Y698060*
X1159509*
X1160532Y698528*
X1161214Y699935*
X1161555Y702278*
Y703685*
X1161214Y706028*
X1160532Y707435*
X1159509Y707903*
X1158828*
X1169055Y704622D02*
X1168714Y703216D01*
X1168032Y702278*
X1167009Y701810*
X1166669*
X1165646Y702278*
X1164964Y703216*
X1164623Y704622*
Y705091*
X1164964Y706497*
X1165646Y707435*
X1166669Y707903*
X1167009*
X1168032Y707435*
X1168714Y706497*
X1169055Y704622*
Y702278*
X1168714Y699935*
X1168032Y698528*
X1167009Y698060*
X1166328*
X1165305Y698528*
X1164964Y699466*
X1032578Y726403D02*
Y716560D01*
Y726403D02*
X1035305Y716560D01*
X1038032Y726403D02*
X1035305Y716560D01*
X1038032Y726403D02*
Y716560D01*
X1041100Y726403D02*
X1041441Y725935D01*
X1041782Y726403*
X1041441Y726872*
X1041100Y726403*
X1041441Y723122D02*
Y716560D01*
X1048941Y726403D02*
Y716560D01*
Y721716D02*
X1048259Y722653D01*
X1047578Y723122*
X1046555*
X1045873Y722653*
X1045191Y721716*
X1044850Y720310*
Y719372*
X1045191Y717966*
X1045873Y717028*
X1046555Y716560*
X1047578*
X1048259Y717028*
X1048941Y717966*
X1056100Y726403D02*
Y716560D01*
Y721716D02*
X1055419Y722653D01*
X1054737Y723122*
X1053714*
X1053032Y722653*
X1052350Y721716*
X1052009Y720310*
Y719372*
X1052350Y717966*
X1053032Y717028*
X1053714Y716560*
X1054737*
X1055419Y717028*
X1056100Y717966*
X1059169Y726403D02*
Y716560D01*
X1062237Y720310D02*
X1066328D01*
Y721247*
X1065987Y722185*
X1065646Y722653*
X1064964Y723122*
X1063941*
X1063259Y722653*
X1062578Y721716*
X1062237Y720310*
Y719372*
X1062578Y717966*
X1063259Y717028*
X1063941Y716560*
X1064964*
X1065646Y717028*
X1066328Y717966*
X1069396Y726403D02*
Y716560D01*
Y721716D02*
X1070078Y722653D01*
X1070759Y723122*
X1071782*
X1072464Y722653*
X1073146Y721716*
X1073487Y720310*
Y719372*
X1073146Y717966*
X1072464Y717028*
X1071782Y716560*
X1070759*
X1070078Y717028*
X1069396Y717966*
X1078259Y723122D02*
X1077578Y722653D01*
X1076896Y721716*
X1076555Y720310*
Y719372*
X1076896Y717966*
X1077578Y717028*
X1078259Y716560*
X1079282*
X1079964Y717028*
X1080646Y717966*
X1080987Y719372*
Y720310*
X1080646Y721716*
X1079964Y722653*
X1079282Y723122*
X1078259*
X1084055D02*
Y716560D01*
Y720310D02*
X1084396Y721716D01*
X1085078Y722653*
X1085759Y723122*
X1086782*
X1091555D02*
X1090873Y722653D01*
X1090191Y721716*
X1089850Y720310*
Y719372*
X1090191Y717966*
X1090873Y717028*
X1091555Y716560*
X1092578*
X1093259Y717028*
X1093941Y717966*
X1094282Y719372*
Y720310*
X1093941Y721716*
X1093259Y722653*
X1092578Y723122*
X1091555*
X1098032Y717028D02*
X1097691Y716560D01*
X1097350Y717028*
X1097691Y717497*
X1098032Y717028*
Y716091*
X1097691Y715153*
X1097350Y714685*
X1108941Y726403D02*
Y716560D01*
Y726403D02*
X1111669Y716560D01*
X1114396Y726403D02*
X1111669Y716560D01*
X1114396Y726403D02*
Y716560D01*
X1120191Y726403D02*
X1117464Y716560D01*
X1120191Y726403D02*
X1122919Y716560D01*
X1118487Y719841D02*
X1121896D01*
X1135873Y726403D02*
X1134850Y725935D01*
X1134169Y724528*
X1133828Y722185*
Y720778*
X1134169Y718435*
X1134850Y717028*
X1135873Y716560*
X1136555*
X1137578Y717028*
X1138259Y718435*
X1138600Y720778*
Y722185*
X1138259Y724528*
X1137578Y725935*
X1136555Y726403*
X1135873*
X1142009Y724060D02*
Y724528D01*
X1142350Y725466*
X1142691Y725935*
X1143373Y726403*
X1144737*
X1145419Y725935*
X1145759Y725466*
X1146100Y724528*
Y723591*
X1145759Y722653*
X1145078Y721247*
X1141669Y716560*
X1146441*
X1150191Y726403D02*
X1153941D01*
X1151896Y722653*
X1152919*
X1153600Y722185*
X1153941Y721716*
X1154282Y720310*
Y719372*
X1153941Y717966*
X1153259Y717028*
X1152237Y716560*
X1151214*
X1150191Y717028*
X1149850Y717497*
X1149509Y718435*
X1160759Y726403D02*
X1157350Y719841D01*
X1162464*
X1160759Y726403D02*
Y716560D01*
X1169623Y724997D02*
X1169282Y725935D01*
X1168259Y726403*
X1167578*
X1166555Y725935*
X1165873Y724528*
X1165532Y722185*
Y719841*
X1165873Y717966*
X1166555Y717028*
X1167578Y716560*
X1167919*
X1168941Y717028*
X1169623Y717966*
X1169964Y719372*
Y719841*
X1169623Y721247*
X1168941Y722185*
X1167919Y722653*
X1167578*
X1166555Y722185*
X1165873Y721247*
X1165532Y719841*
X1041078Y743028D02*
X1041759Y743497D01*
X1042782Y744903*
Y735060*
X1045850Y743028D02*
X1046532Y743497D01*
X1047555Y744903*
Y735060*
X1052328Y744903D02*
X1051305Y744435D01*
X1050964Y743497*
Y742560*
X1051305Y741622*
X1051987Y741153*
X1053350Y740685*
X1054373Y740216*
X1055055Y739278*
X1055396Y738341*
Y736935*
X1055055Y735997*
X1054714Y735528*
X1053691Y735060*
X1052328*
X1051305Y735528*
X1050964Y735997*
X1050623Y736935*
Y738341*
X1050964Y739278*
X1051646Y740216*
X1052669Y740685*
X1054032Y741153*
X1054714Y741622*
X1055055Y742560*
Y743497*
X1054714Y744435*
X1053691Y744903*
X1052328*
X1062896D02*
X1059487D01*
X1059146Y740685*
X1059487Y741153*
X1060509Y741622*
X1061532*
X1062555Y741153*
X1063237Y740216*
X1063578Y738810*
X1063237Y737872*
X1062896Y736466*
X1062214Y735528*
X1061191Y735060*
X1060169*
X1059146Y735528*
X1058805Y735997*
X1058464Y736935*
X1079600Y742560D02*
X1079259Y743497D01*
X1078578Y744435*
X1077896Y744903*
X1076532*
X1075850Y744435*
X1075169Y743497*
X1074828Y742560*
X1074487Y741153*
Y738810*
X1074828Y737403*
X1075169Y736466*
X1075850Y735528*
X1076532Y735060*
X1077896*
X1078578Y735528*
X1079259Y736466*
X1079600Y737403*
X1082669Y738810D02*
X1086759D01*
Y739747*
X1086419Y740685*
X1086078Y741153*
X1085396Y741622*
X1084373*
X1083691Y741153*
X1083009Y740216*
X1082669Y738810*
Y737872*
X1083009Y736466*
X1083691Y735528*
X1084373Y735060*
X1085396*
X1086078Y735528*
X1086759Y736466*
X1089828Y741622D02*
Y735060D01*
Y739747D02*
X1090850Y741153D01*
X1091532Y741622*
X1092555*
X1093237Y741153*
X1093578Y739747*
Y735060*
X1097669Y744903D02*
Y736935D01*
X1098009Y735528*
X1098691Y735060*
X1099373*
X1096646Y741622D02*
X1099032D01*
X1102441D02*
Y735060D01*
Y738810D02*
X1102782Y740216D01*
X1103464Y741153*
X1104146Y741622*
X1105169*
X1108237Y738810D02*
X1112328D01*
Y739747*
X1111987Y740685*
X1111646Y741153*
X1110964Y741622*
X1109941*
X1109259Y741153*
X1108578Y740216*
X1108237Y738810*
Y737872*
X1108578Y736466*
X1109259Y735528*
X1109941Y735060*
X1110964*
X1111646Y735528*
X1112328Y736466*
X1128009Y743497D02*
X1127328Y744435D01*
X1126305Y744903*
X1124941*
X1123919Y744435*
X1123237Y743497*
Y742560*
X1123578Y741622*
X1123919Y741153*
X1124600Y740685*
X1126646Y739747*
X1127328Y739278*
X1127669Y738810*
X1128009Y737872*
Y736466*
X1127328Y735528*
X1126305Y735060*
X1124941*
X1123919Y735528*
X1123237Y736466*
X1132100Y744903D02*
Y736935D01*
X1132441Y735528*
X1133123Y735060*
X1133805*
X1131078Y741622D02*
X1133464D01*
X1136873D02*
Y735060D01*
Y738810D02*
X1137214Y740216D01*
X1137896Y741153*
X1138578Y741622*
X1139600*
X1142669Y738810D02*
X1146759D01*
Y739747*
X1146419Y740685*
X1146078Y741153*
X1145396Y741622*
X1144373*
X1143691Y741153*
X1143009Y740216*
X1142669Y738810*
Y737872*
X1143009Y736466*
X1143691Y735528*
X1144373Y735060*
X1145396*
X1146078Y735528*
X1146759Y736466*
X1149828Y738810D02*
X1153919D01*
Y739747*
X1153578Y740685*
X1153237Y741153*
X1152555Y741622*
X1151532*
X1150850Y741153*
X1150169Y740216*
X1149828Y738810*
Y737872*
X1150169Y736466*
X1150850Y735528*
X1151532Y735060*
X1152555*
X1153237Y735528*
X1153919Y736466*
X1158009Y744903D02*
Y736935D01*
X1158350Y735528*
X1159032Y735060*
X1159714*
X1156987Y741622D02*
X1159373D01*
X1165773Y666513D02*
X1161227Y657762D01*
X1161227D02*
X1168045D01*
X1165773Y666513D02*
Y653387D01*
X1180318Y669013D02*
X1172136Y649012D01*
X1187136Y666513D02*
X1185773Y665888D01*
X1185773D02*
X1184864Y664013D01*
X1184864D02*
X1184409Y660887D01*
X1184409D02*
Y659012D01*
X1184409D02*
X1184864Y655887D01*
X1184864D02*
X1185773Y654012D01*
X1185773D02*
X1187136Y653387D01*
X1187136D02*
X1188045D01*
X1188045D02*
X1189409Y654012D01*
X1189409D02*
X1190318Y655887D01*
X1190318D02*
X1190773Y659012D01*
X1190773D02*
Y660887D01*
X1190773D02*
X1190318Y664013D01*
X1190318D02*
X1189409Y665888D01*
X1189409D02*
X1188045Y666513D01*
X1188045D02*
X1187136D01*
X1195318Y663388D02*
Y664013D01*
X1195318D02*
X1195773Y665263D01*
X1195773D02*
X1196227Y665888D01*
X1196227D02*
X1197136Y666513D01*
X1197136D02*
X1198955D01*
X1198955D02*
X1199864Y665888D01*
X1199864D02*
X1200318Y665263D01*
X1200318D02*
X1200773Y664013D01*
X1200773D02*
Y662763D01*
X1200773D02*
X1200318Y661513D01*
X1200318D02*
X1199409Y659637D01*
X1199409D02*
X1194864Y653387D01*
X1194864D02*
X1201227D01*
X1213500Y669013D02*
X1205318Y649012D01*
X1220318Y666513D02*
X1218955Y665888D01*
X1218955D02*
X1218045Y664013D01*
X1218045D02*
X1217591Y660887D01*
X1217591D02*
Y659012D01*
X1217591D02*
X1218045Y655887D01*
X1218045D02*
X1218955Y654012D01*
X1218955D02*
X1220318Y653387D01*
X1220318D02*
X1221227D01*
X1221227D02*
X1222591Y654012D01*
X1222591D02*
X1223500Y655887D01*
X1223500D02*
X1223955Y659012D01*
X1223955D02*
Y660887D01*
X1223955D02*
X1223500Y664013D01*
X1223500D02*
X1222591Y665888D01*
X1222591D02*
X1221227Y666513D01*
X1221227D02*
X1220318D01*
X1233955Y662138D02*
X1233500Y660262D01*
X1233500D02*
X1232591Y659012D01*
X1232591D02*
X1231227Y658387D01*
X1231227D02*
X1230773D01*
X1230773D02*
X1229409Y659012D01*
X1229409D02*
X1228500Y660262D01*
X1228500D02*
X1228045Y662138D01*
X1228045D02*
Y662763D01*
X1228045D02*
X1228500Y664638D01*
X1228500D02*
X1229409Y665888D01*
X1229409D02*
X1230773Y666513D01*
X1230773D02*
X1231227D01*
X1231227D02*
X1232591Y665888D01*
X1232591D02*
X1233500Y664638D01*
X1233500D02*
X1233955Y662138D01*
X1233955D02*
Y659012D01*
X1233955D02*
X1233500Y655887D01*
X1233500D02*
X1232591Y654012D01*
X1232591D02*
X1231227Y653387D01*
X1231227D02*
X1230318D01*
X1230318D02*
X1228955Y654012D01*
X1228955D02*
X1228500Y655262D01*
X838909Y666344D02*
Y658844D01*
X838568Y657438*
X838568D02*
X838227Y656969D01*
X837545Y656500*
X836864*
X836182Y656969*
X835841Y657438*
X835841D02*
X835500Y658844D01*
Y659781*
X843682Y663063D02*
X843000Y662594D01*
X842318Y661656*
X841977Y660250*
Y659313*
X841977D02*
X842318Y657906D01*
X843000Y656969*
X843682Y656500*
X844705*
X845386Y656969*
X846068Y657906*
X846409Y659313*
X846409D02*
Y660250D01*
X846068Y661656*
X845386Y662594*
X844705Y663063*
X844705D02*
X843682D01*
X849477Y666344D02*
Y656500D01*
Y661656D02*
X850159Y662594D01*
X850841Y663063*
X850841D02*
X851864D01*
X851864D02*
X852545Y662594D01*
X853227Y661656*
X853568Y660250*
Y659313*
X853568D02*
X853227Y657906D01*
X852545Y656969*
X851864Y656500*
X850841*
X850159Y656969*
X849477Y657906*
X864477Y666344D02*
Y656500D01*
Y666344D02*
X869250Y656500D01*
Y666344D02*
Y656500D01*
X874023Y663063D02*
X873341Y662594D01*
X872659Y661656*
X872318Y660250*
Y659313*
X872318D02*
X872659Y657906D01*
X873341Y656969*
X874023Y656500*
X875045*
X875727Y656969*
X876409Y657906*
X876750Y659313*
X876750D02*
Y660250D01*
X876409Y661656*
X875727Y662594*
X875045Y663063*
X875045D02*
X874023D01*
X880159D02*
X879818Y662594D01*
X880159Y662125*
X880500Y662594*
X880159Y663063*
Y657438D02*
X879818Y656969D01*
X880159Y656500*
X880500Y656969*
X880159Y657438*
X1041000Y663544D02*
Y653700D01*
Y663544D02*
X1043386D01*
X1044409Y663075*
X1045091Y662138*
X1045091D02*
X1045432Y661200D01*
X1045773Y659794*
Y657450*
X1045432Y656044*
X1045091Y655106*
X1044409Y654169*
X1043386Y653700*
X1041000*
X1052932Y660263D02*
Y653700D01*
Y658856D02*
X1052250Y659794D01*
X1051568Y660263*
X1051568D02*
X1050545D01*
X1050545D02*
X1049864Y659794D01*
X1049182Y658856*
X1048841Y657450*
Y656513*
X1048841D02*
X1049182Y655106D01*
X1049864Y654169*
X1050545Y653700*
X1051568*
X1052250Y654169*
X1052932Y655106*
X1057023Y663544D02*
Y655575D01*
X1057364Y654169*
X1058045Y653700*
X1058727*
X1056000Y660263D02*
X1058386D01*
X1061795Y657450D02*
X1065886D01*
Y658388*
X1065886D02*
X1065545Y659325D01*
X1065205Y659794*
X1064523Y660263*
X1064523D02*
X1063500D01*
X1063500D02*
X1062818Y659794D01*
X1062136Y658856*
X1061795Y657450*
Y656513*
X1061795D02*
X1062136Y655106D01*
X1062818Y654169*
X1063500Y653700*
X1064523*
X1065205Y654169*
X1065886Y655106*
X1069295Y660263D02*
X1068955Y659794D01*
X1069295Y659325*
X1069636Y659794*
X1069295Y660263*
Y654638D02*
X1068955Y654169D01*
X1069295Y653700*
X1069636Y654169*
X1069295Y654638*
X841305Y763403D02*
X838578Y753560D01*
X841305Y763403D02*
X844032Y753560D01*
X839600Y756841D02*
X843009D01*
X847100Y760122D02*
Y753560D01*
Y757310D02*
X847441Y758716D01*
X848123Y759653*
X848805Y760122*
X849828*
X853919Y763403D02*
Y755435D01*
X854259Y754028*
X854941Y753560*
X855623*
X852896Y760122D02*
X855282D01*
X858691D02*
X860055Y753560D01*
X861419Y760122D02*
X860055Y753560D01*
X861419Y760122D02*
X862782Y753560D01*
X864146Y760122D02*
X862782Y753560D01*
X868919Y760122D02*
X868237Y759653D01*
X867555Y758716*
X867214Y757310*
Y756372*
X867555Y754966*
X868237Y754028*
X868919Y753560*
X869941*
X870623Y754028*
X871305Y754966*
X871646Y756372*
Y757310*
X871305Y758716*
X870623Y759653*
X869941Y760122*
X868919*
X874714D02*
Y753560D01*
Y757310D02*
X875055Y758716D01*
X875737Y759653*
X876419Y760122*
X877441*
X880509Y763403D02*
Y753560D01*
X883919Y760122D02*
X880509Y755435D01*
X881873Y757310D02*
X884259Y753560D01*
X895169Y763403D02*
Y753560D01*
Y763403D02*
X897555D01*
X898578Y762935*
X899259Y761997*
X899600Y761060*
X899941Y759653*
Y757310*
X899600Y755903*
X899259Y754966*
X898578Y754028*
X897555Y753560*
X895169*
X903009Y757310D02*
X907100D01*
Y758247*
X906759Y759185*
X906419Y759653*
X905737Y760122*
X904714*
X904032Y759653*
X903350Y758716*
X903009Y757310*
Y756372*
X903350Y754966*
X904032Y754028*
X904714Y753560*
X905737*
X906419Y754028*
X907100Y754966*
X913919Y758716D02*
X913578Y759653D01*
X912555Y760122*
X911532*
X910509Y759653*
X910169Y758716*
X910509Y757778*
X911191Y757310*
X912896Y756841*
X913578Y756372*
X913919Y755435*
Y754966*
X913578Y754028*
X912555Y753560*
X911532*
X910509Y754028*
X910169Y754966*
X916987Y763403D02*
X917328Y762935D01*
X917669Y763403*
X917328Y763872*
X916987Y763403*
X917328Y760122D02*
Y753560D01*
X924828Y760122D02*
Y752622D01*
X924487Y751216*
X924146Y750747*
X923464Y750278*
X922441*
X921759Y750747*
X924828Y758716D02*
X924146Y759653D01*
X923464Y760122*
X922441*
X921759Y759653*
X921078Y758716*
X920737Y757310*
Y756372*
X921078Y754966*
X921759Y754028*
X922441Y753560*
X923464*
X924146Y754028*
X924828Y754966*
X927896Y760122D02*
Y753560D01*
Y758247D02*
X928919Y759653D01*
X929600Y760122*
X930623*
X931305Y759653*
X931646Y758247*
Y753560*
X934714Y757310D02*
X938805D01*
Y758247*
X938464Y759185*
X938123Y759653*
X937441Y760122*
X936419*
X935737Y759653*
X935055Y758716*
X934714Y757310*
Y756372*
X935055Y754966*
X935737Y754028*
X936419Y753560*
X937441*
X938123Y754028*
X938805Y754966*
X945964Y763403D02*
Y753560D01*
Y758716D02*
X945282Y759653D01*
X944600Y760122*
X943578*
X942896Y759653*
X942214Y758716*
X941873Y757310*
Y756372*
X942214Y754966*
X942896Y754028*
X943578Y753560*
X944600*
X945282Y754028*
X945964Y754966*
X956873Y763403D02*
Y753560D01*
Y763403D02*
X959941D01*
X960964Y762935*
X961305Y762466*
X961646Y761528*
Y760591*
X961305Y759653*
X960964Y759185*
X959941Y758716*
X956873D02*
X959941D01*
X960964Y758247*
X961305Y757778*
X961646Y756841*
Y755435*
X961305Y754497*
X960964Y754028*
X959941Y753560*
X956873*
X965055Y760122D02*
X967100Y753560D01*
X969146Y760122D02*
X967100Y753560D01*
X966419Y751685*
X965737Y750747*
X965055Y750278*
X964714*
X972555Y760122D02*
X972214Y759653D01*
X972555Y759185*
X972896Y759653*
X972555Y760122*
Y754497D02*
X972214Y754028D01*
X972555Y753560*
X972896Y754028*
X972555Y754497*
X983805Y763403D02*
X985509Y753560D01*
X987214Y763403D02*
X985509Y753560D01*
X987214Y763403D02*
X988919Y753560D01*
X990623Y763403D02*
X988919Y753560D01*
X993691Y763403D02*
X994032Y762935D01*
X994373Y763403*
X994032Y763872*
X993691Y763403*
X994032Y760122D02*
Y753560D01*
X997441Y763403D02*
Y753560D01*
X1000509Y763403D02*
Y753560D01*
X1005282Y760122D02*
X1004600Y759653D01*
X1003919Y758716*
X1003578Y757310*
Y756372*
X1003919Y754966*
X1004600Y754028*
X1005282Y753560*
X1006305*
X1006987Y754028*
X1007669Y754966*
X1008009Y756372*
Y757310*
X1007669Y758716*
X1006987Y759653*
X1006305Y760122*
X1005282*
X1011078D02*
X1012441Y753560D01*
X1013805Y760122D02*
X1012441Y753560D01*
X1013805Y760122D02*
X1015169Y753560D01*
X1016532Y760122D02*
X1015169Y753560D01*
X1032214Y761997D02*
X1031532Y762935D01*
X1030509Y763403*
X1029146*
X1028123Y762935*
X1027441Y761997*
Y761060*
X1027782Y760122*
X1028123Y759653*
X1028805Y759185*
X1030850Y758247*
X1031532Y757778*
X1031873Y757310*
X1032214Y756372*
Y754966*
X1031532Y754028*
X1030509Y753560*
X1029146*
X1028123Y754028*
X1027441Y754966*
X1035282Y760122D02*
Y750278D01*
Y758716D02*
X1035964Y759653D01*
X1036646Y760122*
X1037669*
X1038350Y759653*
X1039032Y758716*
X1039373Y757310*
Y756372*
X1039032Y754966*
X1038350Y754028*
X1037669Y753560*
X1036646*
X1035964Y754028*
X1035282Y754966*
X1042441Y760122D02*
Y753560D01*
Y757310D02*
X1042782Y758716D01*
X1043464Y759653*
X1044146Y760122*
X1045169*
X1048237Y763403D02*
X1048578Y762935D01*
X1048919Y763403*
X1048578Y763872*
X1048237Y763403*
X1048578Y760122D02*
Y753560D01*
X1051987Y760122D02*
Y753560D01*
Y758247D02*
X1053009Y759653D01*
X1053691Y760122*
X1054714*
X1055396Y759653*
X1055737Y758247*
Y753560*
X1062896Y760122D02*
Y752622D01*
X1062555Y751216*
X1062214Y750747*
X1061532Y750278*
X1060509*
X1059828Y750747*
X1062896Y758716D02*
X1062214Y759653D01*
X1061532Y760122*
X1060509*
X1059828Y759653*
X1059146Y758716*
X1058805Y757310*
Y756372*
X1059146Y754966*
X1059828Y754028*
X1060509Y753560*
X1061532*
X1062214Y754028*
X1062896Y754966*
X1076191Y763403D02*
Y753560D01*
X1073805Y763403D02*
X1078578D01*
X1081646Y757310D02*
X1085737D01*
Y758247*
X1085396Y759185*
X1085055Y759653*
X1084373Y760122*
X1083350*
X1082669Y759653*
X1081987Y758716*
X1081646Y757310*
Y756372*
X1081987Y754966*
X1082669Y754028*
X1083350Y753560*
X1084373*
X1085055Y754028*
X1085737Y754966*
X1092896Y758716D02*
X1092214Y759653D01*
X1091532Y760122*
X1090509*
X1089828Y759653*
X1089146Y758716*
X1088805Y757310*
Y756372*
X1089146Y754966*
X1089828Y754028*
X1090509Y753560*
X1091532*
X1092214Y754028*
X1092896Y754966*
X1095964Y763403D02*
Y753560D01*
Y758247D02*
X1096987Y759653D01*
X1097669Y760122*
X1098691*
X1099373Y759653*
X1099714Y758247*
Y753560*
X1102782Y760122D02*
Y753560D01*
Y758247D02*
X1103805Y759653D01*
X1104487Y760122*
X1105509*
X1106191Y759653*
X1106532Y758247*
Y753560*
X1109600Y763403D02*
X1109941Y762935D01*
X1110282Y763403*
X1109941Y763872*
X1109600Y763403*
X1109941Y760122D02*
Y753560D01*
X1117441Y758716D02*
X1116759Y759653D01*
X1116078Y760122*
X1115055*
X1114373Y759653*
X1113691Y758716*
X1113350Y757310*
Y756372*
X1113691Y754966*
X1114373Y754028*
X1115055Y753560*
X1116078*
X1116759Y754028*
X1117441Y754966*
X1124600Y760122D02*
Y753560D01*
Y758716D02*
X1123919Y759653D01*
X1123237Y760122*
X1122214*
X1121532Y759653*
X1120850Y758716*
X1120509Y757310*
Y756372*
X1120850Y754966*
X1121532Y754028*
X1122214Y753560*
X1123237*
X1123919Y754028*
X1124600Y754966*
X1127669Y763403D02*
Y753560D01*
X1143350Y761997D02*
X1142669Y762935D01*
X1141646Y763403*
X1140282*
X1139259Y762935*
X1138578Y761997*
Y761060*
X1138919Y760122*
X1139259Y759653*
X1139941Y759185*
X1141987Y758247*
X1142669Y757778*
X1143009Y757310*
X1143350Y756372*
Y754966*
X1142669Y754028*
X1141646Y753560*
X1140282*
X1139259Y754028*
X1138578Y754966*
X1146419Y757310D02*
X1150509D01*
Y758247*
X1150169Y759185*
X1149828Y759653*
X1149146Y760122*
X1148123*
X1147441Y759653*
X1146759Y758716*
X1146419Y757310*
Y756372*
X1146759Y754966*
X1147441Y754028*
X1148123Y753560*
X1149146*
X1149828Y754028*
X1150509Y754966*
X1153578Y760122D02*
Y753560D01*
Y757310D02*
X1153919Y758716D01*
X1154600Y759653*
X1155282Y760122*
X1156305*
X1159373D02*
X1161419Y753560D01*
X1163464Y760122D02*
X1161419Y753560D01*
X1166532Y763403D02*
X1166873Y762935D01*
X1167214Y763403*
X1166873Y763872*
X1166532Y763403*
X1166873Y760122D02*
Y753560D01*
X1174373Y758716D02*
X1173691Y759653D01*
X1173009Y760122*
X1171987*
X1171305Y759653*
X1170623Y758716*
X1170282Y757310*
Y756372*
X1170623Y754966*
X1171305Y754028*
X1171987Y753560*
X1173009*
X1173691Y754028*
X1174373Y754966*
X1177441Y757310D02*
X1181532D01*
Y758247*
X1181191Y759185*
X1180850Y759653*
X1180169Y760122*
X1179146*
X1178464Y759653*
X1177782Y758716*
X1177441Y757310*
Y756372*
X1177782Y754966*
X1178464Y754028*
X1179146Y753560*
X1180169*
X1180850Y754028*
X1181532Y754966*
X1188350Y758716D02*
X1188009Y759653D01*
X1186987Y760122*
X1185964*
X1184941Y759653*
X1184600Y758716*
X1184941Y757778*
X1185623Y757310*
X1187328Y756841*
X1188009Y756372*
X1188350Y755435*
Y754966*
X1188009Y754028*
X1186987Y753560*
X1185964*
X1184941Y754028*
X1184600Y754966*
X1204373Y761060D02*
X1204032Y761997D01*
X1203350Y762935*
X1202669Y763403*
X1201305*
X1200623Y762935*
X1199941Y761997*
X1199600Y761060*
X1199259Y759653*
Y757310*
X1199600Y755903*
X1199941Y754966*
X1200623Y754028*
X1201305Y753560*
X1202669*
X1203350Y754028*
X1204032Y754966*
X1204373Y755903*
X1209146Y760122D02*
X1208464Y759653D01*
X1207782Y758716*
X1207441Y757310*
Y756372*
X1207782Y754966*
X1208464Y754028*
X1209146Y753560*
X1210169*
X1210850Y754028*
X1211532Y754966*
X1211873Y756372*
Y757310*
X1211532Y758716*
X1210850Y759653*
X1210169Y760122*
X1209146*
X1214941D02*
Y753560D01*
Y757310D02*
X1215282Y758716D01*
X1215964Y759653*
X1216646Y760122*
X1217669*
X1220737D02*
Y750278D01*
Y758716D02*
X1221419Y759653D01*
X1222100Y760122*
X1223123*
X1223805Y759653*
X1224487Y758716*
X1224828Y757310*
Y756372*
X1224487Y754966*
X1223805Y754028*
X1223123Y753560*
X1222100*
X1221419Y754028*
X1220737Y754966*
X1228237Y754497D02*
X1227896Y754028D01*
X1228237Y753560*
X1228578Y754028*
X1228237Y754497*
X906682Y665513D02*
Y652387D01*
X903500Y665513D02*
X909864D01*
X913955D02*
Y652387D01*
Y665513D02*
X919864D01*
X913955Y659262D02*
X917591D01*
X913955Y652387D02*
X919864D01*
X923955Y665513D02*
X930318Y652387D01*
Y665513D02*
X923955Y652387D01*
X934864Y653637D02*
X934409Y653012D01*
X934409D02*
X934864Y652387D01*
X934864D02*
X935318Y653012D01*
X935318D02*
X934864Y653637D01*
X942136Y665513D02*
X940773Y664888D01*
X940773D02*
X939864Y663013D01*
X939864D02*
X939409Y659887D01*
X939409D02*
Y658012D01*
X939409D02*
X939864Y654887D01*
X939864D02*
X940773Y653012D01*
X940773D02*
X942136Y652387D01*
X942136D02*
X943045D01*
X943045D02*
X944409Y653012D01*
X944409D02*
X945318Y654887D01*
X945318D02*
X945773Y658012D01*
X945773D02*
Y659887D01*
X945773D02*
X945318Y663013D01*
X945318D02*
X944409Y664888D01*
X944409D02*
X943045Y665513D01*
X943045D02*
X942136D01*
X952591D02*
X951227Y664888D01*
X951227D02*
X950318Y663013D01*
X950318D02*
X949864Y659887D01*
X949864D02*
Y658012D01*
X949864D02*
X950318Y654887D01*
X950318D02*
X951227Y653012D01*
X951227D02*
X952591Y652387D01*
X952591D02*
X953500D01*
X953500D02*
X954864Y653012D01*
X954864D02*
X955773Y654887D01*
X955773D02*
X956227Y658012D01*
X956227D02*
Y659887D01*
X956227D02*
X955773Y663013D01*
X955773D02*
X954864Y664888D01*
X954864D02*
X953500Y665513D01*
X953500D02*
X952591D01*
X961227D02*
X966227D01*
X966227D02*
X963500Y660513D01*
X963500D02*
X964864D01*
X964864D02*
X965773Y659887D01*
X965773D02*
X966227Y659262D01*
X966227D02*
X966682Y657387D01*
X966682D02*
Y656137D01*
X966682D02*
X966227Y654262D01*
X966227D02*
X965318Y653012D01*
X965318D02*
X963955Y652387D01*
X963955D02*
X962591D01*
X962591D02*
X961227Y653012D01*
X961227D02*
X960773Y653637D01*
X960773D02*
X960318Y654887D01*
X1260727Y835044D02*
X1258000Y825200D01*
X1260727Y835044D02*
X1263455Y825200D01*
X1259023Y828481D02*
X1262432D01*
X1266523Y831763D02*
Y825200D01*
Y828950D02*
X1266864Y830356D01*
X1267545Y831294*
X1268227Y831763*
X1268227D02*
X1269250D01*
X1273341Y835044D02*
Y827075D01*
X1273682Y825669*
X1274364Y825200*
X1275045*
X1272318Y831763D02*
X1274705D01*
X1278114D02*
X1279477Y825200D01*
X1280841Y831763D02*
X1279477Y825200D01*
X1280841Y831763D02*
X1282205Y825200D01*
X1283568Y831763D02*
X1282205Y825200D01*
X1288341Y831763D02*
X1287659Y831294D01*
X1286977Y830356*
X1286636Y828950*
Y828013*
X1286636D02*
X1286977Y826606D01*
X1287659Y825669*
X1288341Y825200*
X1289364*
X1290045Y825669*
X1290727Y826606*
X1291068Y828013*
X1291068D02*
Y828950D01*
X1290727Y830356*
X1290045Y831294*
X1289364Y831763*
X1289364D02*
X1288341D01*
X1294136D02*
Y825200D01*
Y828950D02*
X1294477Y830356D01*
X1295159Y831294*
X1295841Y831763*
X1295841D02*
X1296864D01*
X1299932Y835044D02*
Y825200D01*
X1303341Y831763D02*
X1299932Y827075D01*
X1301295Y828950D02*
X1303682Y825200D01*
X1314591Y835044D02*
Y825200D01*
Y835044D02*
X1316977D01*
X1318000Y834575*
X1318682Y833638*
X1318682D02*
X1319023Y832700D01*
X1319364Y831294*
Y828950*
X1319023Y827544*
X1318682Y826606*
X1318000Y825669*
X1316977Y825200*
X1314591*
X1322432Y828950D02*
X1326523D01*
Y829888*
X1326523D02*
X1326182Y830825D01*
X1325841Y831294*
X1325159Y831763*
X1325159D02*
X1324136D01*
X1324136D02*
X1323455Y831294D01*
X1322773Y830356*
X1322432Y828950*
Y828013*
X1322432D02*
X1322773Y826606D01*
X1323455Y825669*
X1324136Y825200*
X1325159*
X1325841Y825669*
X1326523Y826606*
X1333341Y830356D02*
X1333000Y831294D01*
X1331977Y831763*
X1331977D02*
X1330955D01*
X1330955D02*
X1329932Y831294D01*
X1329591Y830356*
X1329932Y829419*
X1330614Y828950*
X1332318Y828481*
X1333000Y828013*
X1333000D02*
X1333341Y827075D01*
Y826606*
X1333000Y825669*
X1331977Y825200*
X1330955*
X1329932Y825669*
X1329591Y826606*
X1336409Y835044D02*
X1336750Y834575D01*
X1337091Y835044*
X1336750Y835513*
X1336750D02*
X1336409Y835044D01*
X1336750Y831763D02*
Y825200D01*
X1344250Y831763D02*
Y824262D01*
X1344250D02*
X1343909Y822856D01*
X1343568Y822387*
X1343568D02*
X1342886Y821919D01*
X1341864*
X1341182Y822387*
X1344250Y830356D02*
X1343568Y831294D01*
X1342886Y831763*
X1342886D02*
X1341864D01*
X1341864D02*
X1341182Y831294D01*
X1340500Y830356*
X1340159Y828950*
Y828013*
X1340159D02*
X1340500Y826606D01*
X1341182Y825669*
X1341864Y825200*
X1342886*
X1343568Y825669*
X1344250Y826606*
X1347318Y831763D02*
Y825200D01*
Y829888D02*
X1348341Y831294D01*
X1349023Y831763*
X1349023D02*
X1350045D01*
X1350045D02*
X1350727Y831294D01*
X1351068Y829888*
X1351068D02*
Y825200D01*
X1354136Y828950D02*
X1358227D01*
Y829888*
X1358227D02*
X1357886Y830825D01*
X1357545Y831294*
X1356864Y831763*
X1356864D02*
X1355841D01*
X1355841D02*
X1355159Y831294D01*
X1354477Y830356*
X1354136Y828950*
Y828013*
X1354136D02*
X1354477Y826606D01*
X1355159Y825669*
X1355841Y825200*
X1356864*
X1357545Y825669*
X1358227Y826606*
X1365386Y835044D02*
Y825200D01*
Y830356D02*
X1364705Y831294D01*
X1364023Y831763*
X1364023D02*
X1363000D01*
X1363000D02*
X1362318Y831294D01*
X1361636Y830356*
X1361295Y828950*
Y828013*
X1361295D02*
X1361636Y826606D01*
X1362318Y825669*
X1363000Y825200*
X1364023*
X1364705Y825669*
X1365386Y826606*
X1376295Y835044D02*
Y825200D01*
Y835044D02*
X1380727D01*
X1376295Y830356D02*
X1379023D01*
X1385500Y831763D02*
X1384818Y831294D01*
X1384136Y830356*
X1383795Y828950*
Y828013*
X1383795D02*
X1384136Y826606D01*
X1384818Y825669*
X1385500Y825200*
X1386523*
X1387205Y825669*
X1387886Y826606*
X1388227Y828013*
X1388227D02*
Y828950D01*
X1387886Y830356*
X1387205Y831294*
X1386523Y831763*
X1386523D02*
X1385500D01*
X1391295D02*
Y825200D01*
Y828950D02*
X1391636Y830356D01*
X1392318Y831294*
X1393000Y831763*
X1393000D02*
X1394023D01*
X1397432D02*
X1397091Y831294D01*
X1397432Y830825*
X1397773Y831294*
X1397432Y831763*
Y826138D02*
X1397091Y825669D01*
X1397432Y825200*
X1397773Y825669*
X1397432Y826138*
X1258000Y780044D02*
Y770200D01*
Y780044D02*
X1261068D01*
X1262091Y779575*
X1262432Y779106*
X1262773Y778169*
Y777231*
X1262432Y776294*
X1262091Y775825*
X1261068Y775356*
X1258000D02*
X1261068D01*
X1262091Y774888*
X1262091D02*
X1262432Y774419D01*
X1262773Y773481*
Y772075*
X1262432Y771138*
X1262432D02*
X1262091Y770669D01*
X1261068Y770200*
X1258000*
X1267545Y776763D02*
X1266864Y776294D01*
X1266182Y775356*
X1265841Y773950*
Y773013*
X1265841D02*
X1266182Y771606D01*
X1266864Y770669*
X1267545Y770200*
X1268568*
X1269250Y770669*
X1269932Y771606*
X1270273Y773013*
X1270273D02*
Y773950D01*
X1269932Y775356*
X1269250Y776294*
X1268568Y776763*
X1268568D02*
X1267545D01*
X1277432D02*
Y770200D01*
Y775356D02*
X1276750Y776294D01*
X1276068Y776763*
X1276068D02*
X1275045D01*
X1275045D02*
X1274364Y776294D01*
X1273682Y775356*
X1273341Y773950*
Y773013*
X1273341D02*
X1273682Y771606D01*
X1274364Y770669*
X1275045Y770200*
X1276068*
X1276750Y770669*
X1277432Y771606*
X1280500Y776763D02*
Y770200D01*
Y773950D02*
X1280841Y775356D01*
X1281523Y776294*
X1282205Y776763*
X1282205D02*
X1283227D01*
X1290386Y780044D02*
Y770200D01*
Y775356D02*
X1289705Y776294D01*
X1289023Y776763*
X1289023D02*
X1288000D01*
X1288000D02*
X1287318Y776294D01*
X1286636Y775356*
X1286295Y773950*
Y773013*
X1286295D02*
X1286636Y771606D01*
X1287318Y770669*
X1288000Y770200*
X1289023*
X1289705Y770669*
X1290386Y771606*
X1301295Y780044D02*
Y770200D01*
Y780044D02*
X1303682D01*
X1304705Y779575*
X1305386Y778638*
X1305386D02*
X1305727Y777700D01*
X1306068Y776294*
Y773950*
X1305727Y772544*
X1305386Y771606*
X1304705Y770669*
X1303682Y770200*
X1301295*
X1309136Y773950D02*
X1313227D01*
Y774888*
X1313227D02*
X1312886Y775825D01*
X1312545Y776294*
X1311864Y776763*
X1311864D02*
X1310841D01*
X1310841D02*
X1310159Y776294D01*
X1309477Y775356*
X1309136Y773950*
Y773013*
X1309136D02*
X1309477Y771606D01*
X1310159Y770669*
X1310841Y770200*
X1311864*
X1312545Y770669*
X1313227Y771606*
X1320045Y775356D02*
X1319705Y776294D01*
X1318682Y776763*
X1318682D02*
X1317659D01*
X1317659D02*
X1316636Y776294D01*
X1316295Y775356*
X1316636Y774419*
X1317318Y773950*
X1319023Y773481*
X1319705Y773013*
X1319705D02*
X1320045Y772075D01*
Y771606*
X1319705Y770669*
X1318682Y770200*
X1317659*
X1316636Y770669*
X1316295Y771606*
X1327205Y775356D02*
X1326523Y776294D01*
X1325841Y776763*
X1325841D02*
X1324818D01*
X1324818D02*
X1324136Y776294D01*
X1323455Y775356*
X1323114Y773950*
Y773013*
X1323114D02*
X1323455Y771606D01*
X1324136Y770669*
X1324818Y770200*
X1325841*
X1326523Y770669*
X1327205Y771606*
X1330273Y776763D02*
Y770200D01*
Y773950D02*
X1330614Y775356D01*
X1331295Y776294*
X1331977Y776763*
X1331977D02*
X1333000D01*
X1336068Y780044D02*
X1336409Y779575D01*
X1336750Y780044*
X1336409Y780513*
X1336409D02*
X1336068Y780044D01*
X1336409Y776763D02*
Y770200D01*
X1339818Y776763D02*
Y766919D01*
Y775356D02*
X1340500Y776294D01*
X1341182Y776763*
X1341182D02*
X1342205D01*
X1342205D02*
X1342886Y776294D01*
X1343568Y775356*
X1343909Y773950*
Y773013*
X1343909D02*
X1343568Y771606D01*
X1342886Y770669*
X1342205Y770200*
X1341182*
X1340500Y770669*
X1339818Y771606*
X1348000Y780044D02*
Y772075D01*
X1348341Y770669*
X1349023Y770200*
X1349705*
X1346977Y776763D02*
X1349364D01*
X1352773Y780044D02*
X1353114Y779575D01*
X1353455Y780044*
X1353114Y780513*
X1353114D02*
X1352773Y780044D01*
X1353114Y776763D02*
Y770200D01*
X1358227Y776763D02*
X1357545Y776294D01*
X1356864Y775356*
X1356523Y773950*
Y773013*
X1356523D02*
X1356864Y771606D01*
X1357545Y770669*
X1358227Y770200*
X1359250*
X1359932Y770669*
X1360614Y771606*
X1360955Y773013*
X1360955D02*
Y773950D01*
X1360614Y775356*
X1359932Y776294*
X1359250Y776763*
X1359250D02*
X1358227D01*
X1364023D02*
Y770200D01*
Y774888D02*
X1365045Y776294D01*
X1365727Y776763*
X1365727D02*
X1366750D01*
X1366750D02*
X1367432Y776294D01*
X1367773Y774888*
X1367773D02*
Y770200D01*
X1371182Y776763D02*
X1370841Y776294D01*
X1371182Y775825*
X1371523Y776294*
X1371182Y776763*
Y771138D02*
X1370841Y770669D01*
X1371182Y770200*
X1371523Y770669*
X1371182Y771138*
X1258000Y710044D02*
Y700200D01*
Y710044D02*
X1261068D01*
X1262091Y709575*
X1262432Y709106*
X1262773Y708169*
Y706763*
X1262773D02*
X1262432Y705825D01*
X1262091Y705356*
X1261068Y704888*
X1261068D02*
X1258000D01*
X1269932Y706763D02*
Y700200D01*
Y705356D02*
X1269250Y706294D01*
X1268568Y706763*
X1268568D02*
X1267545D01*
X1267545D02*
X1266864Y706294D01*
X1266182Y705356*
X1265841Y703950*
Y703013*
X1265841D02*
X1266182Y701606D01*
X1266864Y700669*
X1267545Y700200*
X1268568*
X1269250Y700669*
X1269932Y701606*
X1273000Y706763D02*
Y700200D01*
Y703950D02*
X1273341Y705356D01*
X1274023Y706294*
X1274705Y706763*
X1274705D02*
X1275727D01*
X1279818Y710044D02*
Y702075D01*
X1280159Y700669*
X1280841Y700200*
X1281523*
X1278795Y706763D02*
X1281182D01*
X1292432Y710044D02*
Y700200D01*
Y710044D02*
X1297205Y700200D01*
Y710044D02*
Y700200D01*
X1301977Y706763D02*
X1301295Y706294D01*
X1300614Y705356*
X1300273Y703950*
Y703013*
X1300273D02*
X1300614Y701606D01*
X1301295Y700669*
X1301977Y700200*
X1303000*
X1303682Y700669*
X1304364Y701606*
X1304705Y703013*
X1304705D02*
Y703950D01*
X1304364Y705356*
X1303682Y706294*
X1303000Y706763*
X1303000D02*
X1301977D01*
X1308114D02*
X1307773Y706294D01*
X1308114Y705825*
X1308455Y706294*
X1308114Y706763*
Y701138D02*
X1307773Y700669D01*
X1308114Y700200*
X1308455Y700669*
X1308114Y701138*
X1558000Y710044D02*
Y700200D01*
Y710044D02*
X1561068D01*
X1562091Y709575*
X1562432Y709106*
X1562773Y708169*
Y707231*
X1562432Y706294*
X1562091Y705825*
X1561068Y705356*
X1558000*
X1560386D02*
X1562773Y700200D01*
X1565841Y703950D02*
X1569932D01*
Y704888*
X1569932D02*
X1569591Y705825D01*
X1569250Y706294*
X1568568Y706763*
X1568568D02*
X1567545D01*
X1567545D02*
X1566864Y706294D01*
X1566182Y705356*
X1565841Y703950*
Y703013*
X1565841D02*
X1566182Y701606D01*
X1566864Y700669*
X1567545Y700200*
X1568568*
X1569250Y700669*
X1569932Y701606*
X1573000Y706763D02*
X1575045Y700200D01*
X1577091Y706763D02*
X1575045Y700200D01*
X1580159Y710044D02*
X1580500Y709575D01*
X1580841Y710044*
X1580500Y710513*
X1580500D02*
X1580159Y710044D01*
X1580500Y706763D02*
Y700200D01*
X1587659Y705356D02*
X1587318Y706294D01*
X1586295Y706763*
X1586295D02*
X1585273D01*
X1585273D02*
X1584250Y706294D01*
X1583909Y705356*
X1584250Y704419*
X1584932Y703950*
X1586636Y703481*
X1587318Y703013*
X1587318D02*
X1587659Y702075D01*
Y701606*
X1587318Y700669*
X1586295Y700200*
X1585273*
X1584250Y700669*
X1583909Y701606*
X1590727Y710044D02*
X1591068Y709575D01*
X1591409Y710044*
X1591068Y710513*
X1591068D02*
X1590727Y710044D01*
X1591068Y706763D02*
Y700200D01*
X1596182Y706763D02*
X1595500Y706294D01*
X1594818Y705356*
X1594477Y703950*
Y703013*
X1594477D02*
X1594818Y701606D01*
X1595500Y700669*
X1596182Y700200*
X1597205*
X1597886Y700669*
X1598568Y701606*
X1598909Y703013*
X1598909D02*
Y703950D01*
X1598568Y705356*
X1597886Y706294*
X1597205Y706763*
X1597205D02*
X1596182D01*
X1601977D02*
Y700200D01*
Y704888D02*
X1603000Y706294D01*
X1603682Y706763*
X1603682D02*
X1604705D01*
X1604705D02*
X1605386Y706294D01*
X1605727Y704888*
X1605727D02*
Y700200D01*
X1609136Y706763D02*
X1608795Y706294D01*
X1609136Y705825*
X1609477Y706294*
X1609136Y706763*
Y701138D02*
X1608795Y700669D01*
X1609136Y700200*
X1609477Y700669*
X1609136Y701138*
X1359818Y695200D02*
X1359364Y696450D01*
X1358455Y697700*
X1357545Y698325*
X1355727*
X1354818Y697700*
X1353909Y696450*
X1353455Y695200*
X1353000Y693325*
Y690200*
X1353455Y688325*
X1353909Y687075*
X1354818Y685825*
X1355727Y685200*
X1357545*
X1358455Y685825*
X1359364Y687075*
X1359818Y688325*
X1364364Y695200D02*
Y695825D01*
X1364818Y697075*
X1365273Y697700*
X1366182Y698325*
X1368000*
X1368909Y697700*
X1369364Y697075*
X1369818Y695825*
Y694575*
X1369364Y693325*
X1368455Y691450*
X1363909Y685200*
X1370273*
X1376636Y698325D02*
X1375273Y697700D01*
X1374818Y696450*
Y695200*
X1375273Y693950*
X1376182Y693325*
X1378000Y692700*
X1379364Y692075*
X1380273Y690825*
X1380727Y689575*
Y687700*
X1380273Y686450*
X1379818Y685825*
X1378455Y685200*
X1376636*
X1375273Y685825*
X1374818Y686450*
X1374364Y687700*
Y689575*
X1374818Y690825*
X1375727Y692075*
X1377091Y692700*
X1378909Y693325*
X1379818Y693950*
X1380273Y695200*
Y696450*
X1379818Y697700*
X1378455Y698325*
X1376636*
X1385727D02*
X1390727D01*
X1388000Y693325*
X1389364*
X1390273Y692700*
X1390727Y692075*
X1391182Y690200*
Y688950*
X1390727Y687075*
X1389818Y685825*
X1388455Y685200*
X1387091*
X1385727Y685825*
X1385273Y686450*
X1384818Y687700*
X1399818Y698325D02*
X1395273Y689575D01*
X1402091*
X1399818Y698325D02*
Y685200D01*
X1406182Y693950D02*
X1411182Y685200D01*
Y693950D02*
X1406182Y685200D01*
X1631773Y699813D02*
X1632682Y700438D01*
X1632682D02*
X1634045Y702313D01*
X1634045D02*
Y689187D01*
X1638591Y690437D02*
X1638136Y689812D01*
X1638136D02*
X1638591Y689187D01*
X1638591D02*
X1639045Y689812D01*
X1639045D02*
X1638591Y690437D01*
X1643136Y699813D02*
X1644045Y700438D01*
X1644045D02*
X1645409Y702313D01*
X1645409D02*
Y689187D01*
X1399545Y810513D02*
Y797387D01*
X1396364Y810513D02*
X1402727D01*
X1406818Y802387D02*
X1412273D01*
X1412273D02*
Y803637D01*
X1412273D02*
X1411818Y804887D01*
X1411818D02*
X1411364Y805513D01*
X1411364D02*
X1410455Y806138D01*
X1410455D02*
X1409091D01*
X1409091D02*
X1408182Y805513D01*
X1408182D02*
X1407273Y804262D01*
X1407273D02*
X1406818Y802387D01*
X1406818D02*
Y801137D01*
X1406818D02*
X1407273Y799262D01*
X1407273D02*
X1408182Y798012D01*
X1408182D02*
X1409091Y797387D01*
X1409091D02*
X1410455D01*
X1410455D02*
X1411364Y798012D01*
X1411364D02*
X1412273Y799262D01*
X1416364Y806138D02*
X1421364Y797387D01*
Y806138D02*
X1416364Y797387D01*
X1430909Y806138D02*
Y797387D01*
Y804262D02*
X1430000Y805513D01*
X1430000D02*
X1429091Y806138D01*
X1429091D02*
X1427727D01*
X1427727D02*
X1426818Y805513D01*
X1426818D02*
X1425909Y804262D01*
X1425909D02*
X1425455Y802387D01*
X1425455D02*
Y801137D01*
X1425455D02*
X1425909Y799262D01*
X1425909D02*
X1426818Y798012D01*
X1426818D02*
X1427727Y797387D01*
X1427727D02*
X1429091D01*
X1429091D02*
X1430000Y798012D01*
X1430000D02*
X1430909Y799262D01*
X1440000Y804262D02*
X1439545Y805513D01*
X1439545D02*
X1438182Y806138D01*
X1438182D02*
X1436818D01*
X1436818D02*
X1435455Y805513D01*
X1435455D02*
X1435000Y804262D01*
X1435000D02*
X1435455Y803012D01*
X1435455D02*
X1436364Y802387D01*
X1436364D02*
X1438636Y801762D01*
X1438636D02*
X1439545Y801137D01*
X1439545D02*
X1440000Y799887D01*
X1440000D02*
Y799262D01*
X1440000D02*
X1439545Y798012D01*
X1439545D02*
X1438182Y797387D01*
X1438182D02*
X1436818D01*
X1436818D02*
X1435455Y798012D01*
X1435455D02*
X1435000Y799262D01*
X1454545Y810513D02*
Y797387D01*
X1458636Y806138D02*
Y797387D01*
Y803637D02*
X1460000Y805513D01*
X1460000D02*
X1460909Y806138D01*
X1460909D02*
X1462273D01*
X1462273D02*
X1463182Y805513D01*
X1463182D02*
X1463636Y803637D01*
X1463636D02*
Y797387D01*
X1472727Y804262D02*
X1472273Y805513D01*
X1472273D02*
X1470909Y806138D01*
X1470909D02*
X1469545D01*
X1469545D02*
X1468182Y805513D01*
X1468182D02*
X1467727Y804262D01*
X1467727D02*
X1468182Y803012D01*
X1468182D02*
X1469091Y802387D01*
X1469091D02*
X1471364Y801762D01*
X1471364D02*
X1472273Y801137D01*
X1472273D02*
X1472727Y799887D01*
X1472727D02*
Y799262D01*
X1472727D02*
X1472273Y798012D01*
X1472273D02*
X1470909Y797387D01*
X1470909D02*
X1469545D01*
X1469545D02*
X1468182Y798012D01*
X1468182D02*
X1467727Y799262D01*
X1478182Y810513D02*
Y799887D01*
X1478182D02*
X1478636Y798012D01*
X1478636D02*
X1479545Y797387D01*
X1479545D02*
X1480455D01*
X1476818Y806138D02*
X1480000D01*
X1484545D02*
Y797387D01*
Y802387D02*
X1485000Y804262D01*
X1485000D02*
X1485909Y805513D01*
X1485909D02*
X1486818Y806138D01*
X1486818D02*
X1488182D01*
X1492273D02*
Y799887D01*
X1492273D02*
X1492727Y798012D01*
X1492727D02*
X1493636Y797387D01*
X1493636D02*
X1495000D01*
X1495000D02*
X1495909Y798012D01*
X1495909D02*
X1497273Y799887D01*
Y806138D02*
Y797387D01*
X1501364Y806138D02*
Y797387D01*
Y803637D02*
X1502727Y805513D01*
X1502727D02*
X1503636Y806138D01*
X1503636D02*
X1505000D01*
X1505000D02*
X1505909Y805513D01*
X1505909D02*
X1506364Y803637D01*
X1506364D02*
Y797387D01*
Y803637D02*
X1507727Y805513D01*
X1507727D02*
X1508636Y806138D01*
X1508636D02*
X1510000D01*
X1510000D02*
X1510909Y805513D01*
X1510909D02*
X1511364Y803637D01*
X1511364D02*
Y797387D01*
X1515455Y802387D02*
X1520909D01*
X1520909D02*
Y803637D01*
X1520909D02*
X1520455Y804887D01*
X1520455D02*
X1520000Y805513D01*
X1520000D02*
X1519091Y806138D01*
X1519091D02*
X1517727D01*
X1517727D02*
X1516818Y805513D01*
X1516818D02*
X1515909Y804262D01*
X1515909D02*
X1515455Y802387D01*
X1515455D02*
Y801137D01*
X1515455D02*
X1515909Y799262D01*
X1515909D02*
X1516818Y798012D01*
X1516818D02*
X1517727Y797387D01*
X1517727D02*
X1519091D01*
X1519091D02*
X1520000Y798012D01*
X1520000D02*
X1520909Y799262D01*
X1525000Y806138D02*
Y797387D01*
Y803637D02*
X1526364Y805513D01*
X1526364D02*
X1527273Y806138D01*
X1527273D02*
X1528636D01*
X1528636D02*
X1529545Y805513D01*
X1529545D02*
X1530000Y803637D01*
X1530000D02*
Y797387D01*
X1535455Y810513D02*
Y799887D01*
X1535455D02*
X1535909Y798012D01*
X1535909D02*
X1536818Y797387D01*
X1536818D02*
X1537727D01*
X1534091Y806138D02*
X1537273D01*
X1546818Y804262D02*
X1546364Y805513D01*
X1546364D02*
X1545000Y806138D01*
X1545000D02*
X1543636D01*
X1543636D02*
X1542273Y805513D01*
X1542273D02*
X1541818Y804262D01*
X1541818D02*
X1542273Y803012D01*
X1542273D02*
X1543182Y802387D01*
X1543182D02*
X1545455Y801762D01*
X1545455D02*
X1546364Y801137D01*
X1546364D02*
X1546818Y799887D01*
X1546818D02*
Y799262D01*
X1546818D02*
X1546364Y798012D01*
X1546364D02*
X1545000Y797387D01*
X1545000D02*
X1543636D01*
X1543636D02*
X1542273Y798012D01*
X1542273D02*
X1541818Y799262D01*
X1374578Y746247D02*
X1374123Y747497D01*
X1373214Y748747*
X1372305Y749372*
X1370487*
X1369578Y748747*
X1368669Y747497*
X1368214Y746247*
X1367759Y744372*
Y741247*
X1368214Y739372*
X1368669Y738122*
X1369578Y736872*
X1370487Y736247*
X1372305*
X1373214Y736872*
X1374123Y738122*
X1374578Y739372*
X1379123Y746247D02*
Y746872D01*
X1379578Y748122*
X1380032Y748747*
X1380941Y749372*
X1382759*
X1383669Y748747*
X1384123Y748122*
X1384578Y746872*
Y745622*
X1384123Y744372*
X1383214Y742497*
X1378669Y736247*
X1385032*
X1391396Y749372D02*
X1390032Y748747D01*
X1389578Y747497*
Y746247*
X1390032Y744997*
X1390941Y744372*
X1392759Y743747*
X1394123Y743122*
X1395032Y741872*
X1395487Y740622*
Y738747*
X1395032Y737497*
X1394578Y736872*
X1393214Y736247*
X1391396*
X1390032Y736872*
X1389578Y737497*
X1389123Y738747*
Y740622*
X1389578Y741872*
X1390487Y743122*
X1391850Y743747*
X1393669Y744372*
X1394578Y744997*
X1395032Y746247*
Y747497*
X1394578Y748747*
X1393214Y749372*
X1391396*
X1400487D02*
X1405487D01*
X1402759Y744372*
X1404123*
X1405032Y743747*
X1405487Y743122*
X1405941Y741247*
Y739997*
X1405487Y738122*
X1404578Y736872*
X1403214Y736247*
X1401850*
X1400487Y736872*
X1400032Y737497*
X1399578Y738747*
X1414578Y749372D02*
X1410032Y740622D01*
X1416850*
X1414578Y749372D02*
Y736247D01*
X1420941Y744997D02*
X1425941Y736247D01*
Y744997D02*
X1420941Y736247D01*
X1447305Y746247D02*
X1446850Y747497D01*
X1445941Y748747*
X1445032Y749372*
X1443214*
X1442305Y748747*
X1441396Y747497*
X1440941Y746247*
X1440487Y744372*
Y741247*
X1440941Y739372*
X1441396Y738122*
X1442305Y736872*
X1443214Y736247*
X1445032*
X1445941Y736872*
X1446850Y738122*
X1447305Y739372*
X1454123Y749372D02*
X1453214Y748747D01*
X1452305Y747497*
X1451850Y746247*
X1451396Y744372*
Y741247*
X1451850Y739372*
X1452305Y738122*
X1453214Y736872*
X1454123Y736247*
X1455941*
X1456850Y736872*
X1457759Y738122*
X1458214Y739372*
X1458669Y741247*
Y744372*
X1458214Y746247*
X1457759Y747497*
X1456850Y748747*
X1455941Y749372*
X1454123*
X1462759D02*
Y736247D01*
Y749372D02*
X1469123Y736247D01*
Y749372D02*
Y736247D01*
X1476396Y749372D02*
Y736247D01*
X1473214Y749372D02*
X1479578D01*
X1483669D02*
Y736247D01*
Y749372D02*
X1487759D01*
X1489123Y748747*
X1489578Y748122*
X1490032Y746872*
Y745622*
X1489578Y744372*
X1489123Y743747*
X1487759Y743122*
X1483669*
X1486850D02*
X1490032Y736247D01*
X1496850Y749372D02*
X1495941Y748747D01*
X1495032Y747497*
X1494578Y746247*
X1494123Y744372*
Y741247*
X1494578Y739372*
X1495032Y738122*
X1495941Y736872*
X1496850Y736247*
X1498669*
X1499578Y736872*
X1500487Y738122*
X1500941Y739372*
X1501396Y741247*
Y744372*
X1500941Y746247*
X1500487Y747497*
X1499578Y748747*
X1498669Y749372*
X1496850*
X1505487D02*
Y736247D01*
X1510941*
X1532305Y746247D02*
X1531850Y747497D01*
X1530941Y748747*
X1530032Y749372*
X1528214*
X1527305Y748747*
X1526396Y747497*
X1525941Y746247*
X1525487Y744372*
Y741247*
X1525941Y739372*
X1526396Y738122*
X1527305Y736872*
X1528214Y736247*
X1530032*
X1530941Y736872*
X1531850Y738122*
X1532305Y739372*
X1540032Y749372D02*
X1536396Y736247D01*
X1540032Y749372D02*
X1543669Y736247D01*
X1537759Y740622D02*
X1542305D01*
X1547759Y749372D02*
Y736247D01*
Y749372D02*
X1551850D01*
X1553214Y748747*
X1553669Y748122*
X1554123Y746872*
Y745622*
X1553669Y744372*
X1553214Y743747*
X1551850Y743122*
X1547759*
X1550941D02*
X1554123Y736247D01*
X1558214Y749372D02*
Y736247D01*
Y749372D02*
X1561396D01*
X1562759Y748747*
X1563669Y747497*
X1564123Y746247*
X1564578Y744372*
Y741247*
X1564123Y739372*
X1563669Y738122*
X1562759Y736872*
X1561396Y736247*
X1558214*
X1471091Y662578D02*
X1470409Y663516D01*
X1469386Y663984*
X1468023*
X1467000Y663516*
X1466318Y662578*
Y661641*
X1466659Y660703*
X1467000Y660234*
X1467682Y659766*
X1469727Y658828*
X1470409Y658359*
X1470750Y657891*
X1471091Y656953*
Y655547*
X1470409Y654609*
X1469386Y654141*
X1468023*
X1467000Y654609*
X1466318Y655547*
X1474159Y657891D02*
X1478250D01*
Y658828*
X1477909Y659766*
X1477568Y660234*
X1476886Y660703*
X1475864*
X1475182Y660234*
X1474500Y659297*
X1474159Y657891*
Y656953*
X1474500Y655547*
X1475182Y654609*
X1475864Y654141*
X1476886*
X1477568Y654609*
X1478250Y655547*
X1485409Y659297D02*
X1484727Y660234D01*
X1484045Y660703*
X1483023*
X1482341Y660234*
X1481659Y659297*
X1481318Y657891*
Y656953*
X1481659Y655547*
X1482341Y654609*
X1483023Y654141*
X1484045*
X1484727Y654609*
X1485409Y655547*
X1490182Y660703D02*
X1489500Y660234D01*
X1488818Y659297*
X1488477Y657891*
Y656953*
X1488818Y655547*
X1489500Y654609*
X1490182Y654141*
X1491205*
X1491886Y654609*
X1492568Y655547*
X1492909Y656953*
Y657891*
X1492568Y659297*
X1491886Y660234*
X1491205Y660703*
X1490182*
X1495977D02*
Y654141D01*
Y658828D02*
X1497000Y660234D01*
X1497682Y660703*
X1498705*
X1499386Y660234*
X1499727Y658828*
Y654141*
X1506886Y663984D02*
Y654141D01*
Y659297D02*
X1506205Y660234D01*
X1505523Y660703*
X1504500*
X1503818Y660234*
X1503136Y659297*
X1502795Y657891*
Y656953*
X1503136Y655547*
X1503818Y654609*
X1504500Y654141*
X1505523*
X1506205Y654609*
X1506886Y655547*
X1514045Y660703D02*
Y654141D01*
Y659297D02*
X1513364Y660234D01*
X1512682Y660703*
X1511659*
X1510977Y660234*
X1510295Y659297*
X1509955Y657891*
Y656953*
X1510295Y655547*
X1510977Y654609*
X1511659Y654141*
X1512682*
X1513364Y654609*
X1514045Y655547*
X1517114Y660703D02*
Y654141D01*
Y657891D02*
X1517455Y659297D01*
X1518136Y660234*
X1518818Y660703*
X1519841*
X1523250D02*
X1525295Y654141D01*
X1527341Y660703D02*
X1525295Y654141D01*
X1524614Y652266*
X1523932Y651328*
X1523250Y650859*
X1522909*
X1543023Y662578D02*
X1542341Y663516D01*
X1541318Y663984*
X1539955*
X1538932Y663516*
X1538250Y662578*
Y661641*
X1538591Y660703*
X1538932Y660234*
X1539614Y659766*
X1541659Y658828*
X1542341Y658359*
X1542682Y657891*
X1543023Y656953*
Y655547*
X1542341Y654609*
X1541318Y654141*
X1539955*
X1538932Y654609*
X1538250Y655547*
X1546091Y663984D02*
X1546432Y663516D01*
X1546773Y663984*
X1546432Y664453*
X1546091Y663984*
X1546432Y660703D02*
Y654141D01*
X1553932Y663984D02*
Y654141D01*
Y659297D02*
X1553250Y660234D01*
X1552568Y660703*
X1551545*
X1550864Y660234*
X1550182Y659297*
X1549841Y657891*
Y656953*
X1550182Y655547*
X1550864Y654609*
X1551545Y654141*
X1552568*
X1553250Y654609*
X1553932Y655547*
X1557000Y657891D02*
X1561091D01*
Y658828*
X1560750Y659766*
X1560409Y660234*
X1559727Y660703*
X1558705*
X1558023Y660234*
X1557341Y659297*
X1557000Y657891*
Y656953*
X1557341Y655547*
X1558023Y654609*
X1558705Y654141*
X1559727*
X1560409Y654609*
X1561091Y655547*
X1576773Y662578D02*
X1576091Y663516D01*
X1575068Y663984*
X1573705*
X1572682Y663516*
X1572000Y662578*
Y661641*
X1572341Y660703*
X1572682Y660234*
X1573364Y659766*
X1575409Y658828*
X1576091Y658359*
X1576432Y657891*
X1576773Y656953*
Y655547*
X1576091Y654609*
X1575068Y654141*
X1573705*
X1572682Y654609*
X1572000Y655547*
X1579841Y663984D02*
X1580182Y663516D01*
X1580523Y663984*
X1580182Y664453*
X1579841Y663984*
X1580182Y660703D02*
Y654141D01*
X1583591Y663984D02*
Y654141D01*
X1586659Y663984D02*
Y654141D01*
X1590068Y660703D02*
X1586659Y656016D01*
X1588023Y657891D02*
X1590409Y654141D01*
X1597227Y659297D02*
X1596886Y660234D01*
X1595864Y660703*
X1594841*
X1593818Y660234*
X1593477Y659297*
X1593818Y658359*
X1594500Y657891*
X1596205Y657422*
X1596886Y656953*
X1597227Y656016*
Y655547*
X1596886Y654609*
X1595864Y654141*
X1594841*
X1593818Y654609*
X1593477Y655547*
X1604386Y659297D02*
X1603705Y660234D01*
X1603023Y660703*
X1602000*
X1601318Y660234*
X1600636Y659297*
X1600295Y657891*
Y656953*
X1600636Y655547*
X1601318Y654609*
X1602000Y654141*
X1603023*
X1603705Y654609*
X1604386Y655547*
X1607455Y660703D02*
Y654141D01*
Y657891D02*
X1607795Y659297D01*
X1608477Y660234*
X1609159Y660703*
X1610182*
X1613250Y657891D02*
X1617341D01*
Y658828*
X1617000Y659766*
X1616659Y660234*
X1615977Y660703*
X1614955*
X1614273Y660234*
X1613591Y659297*
X1613250Y657891*
Y656953*
X1613591Y655547*
X1614273Y654609*
X1614955Y654141*
X1615977*
X1616659Y654609*
X1617341Y655547*
X1620409Y657891D02*
X1624500D01*
Y658828*
X1624159Y659766*
X1623818Y660234*
X1623136Y660703*
X1622114*
X1621432Y660234*
X1620750Y659297*
X1620409Y657891*
Y656953*
X1620750Y655547*
X1621432Y654609*
X1622114Y654141*
X1623136*
X1623818Y654609*
X1624500Y655547*
X1627568Y660703D02*
Y654141D01*
Y658828D02*
X1628591Y660234D01*
X1629273Y660703*
X1630295*
X1630977Y660234*
X1631318Y658828*
Y654141*
G54D28*
X1333687Y1042477D02*
X1336500D01*
X1335094Y1043500D02*
Y1041455D01*
X1177687Y1038977D02*
X1180500D01*
X1179094Y1040000D02*
Y1037955D01*
X1243023Y1108187D02*
Y1111000D01*
X1242000Y1109594D02*
X1244045D01*
X1218977Y1022813D02*
Y1020000D01*
X1220000Y1021406D02*
X1217955D01*
X1235523Y1118187D02*
Y1121000D01*
X1234500Y1119594D02*
X1236545D01*
X1310323Y1022487D02*
Y1025300D01*
X1309300Y1023894D02*
X1311345D01*
X1312813Y1074023D02*
X1310000D01*
X1311406Y1073000D02*
Y1075045D01*
X1318023Y1086187D02*
Y1089000D01*
X1317000Y1087594D02*
X1319045D01*
G54D33*
X1050074Y1106214D02*
Y1092214D01*
X1043074*
Y1106214*
X1050074*
X1285228Y1025060D02*
Y1039060D01*
X1292228*
Y1025060*
X1285228*
X1268727Y1063714D02*
Y1049714D01*
X1261727*
Y1063714*
X1268727*
X1276727D02*
Y1049714D01*
X1269727*
Y1063714*
X1276727*
X1284727D02*
Y1049714D01*
X1277727*
Y1063714*
X1284727*
X1292727D02*
Y1049714D01*
X1285727*
Y1063714*
X1292727*
X1336500Y1040000D02*
Y1026000D01*
X1329500*
Y1040000*
X1336500*
X1180500Y1036500D02*
Y1022500D01*
X1173500*
Y1036500*
X1180500*
X1245500Y1111000D02*
X1259500D01*
Y1104000*
X1245500*
Y1111000*
X1216500Y1020000D02*
X1202500D01*
Y1027000*
X1216500*
Y1020000*
X1238000Y1121000D02*
X1252000D01*
Y1114000*
X1238000*
Y1121000*
X1312800Y1025300D02*
X1326800D01*
Y1018300*
X1312800*
Y1025300*
X1018500Y1061000D02*
G75*
G03X1018500I-1650J0D01*
G01X1019200Y1049200D02*
X1017300Y1057900D01*
X1017900*
X1019876Y1049182D02*
X1017976Y1057882D01*
X1019900Y1049200D02*
X1019200D01*
X1016900Y1053200D02*
X1017800Y1049100D01*
X1014300Y1053200D02*
X1016900D01*
X1013900Y1054900D02*
X1014300Y1053200D01*
X1016600Y1054900D02*
X1013900D01*
X1015900Y1057800D02*
X1016600Y1054900D01*
X1014500Y1058000D02*
X1015200D01*
X1015400Y1057900*
X1015900Y1057800*
X1013600Y1058200D02*
X1014100Y1058000D01*
X1014500*
X1012500Y1058200D02*
X1013600D01*
X1012100Y1058000D02*
X1012400D01*
X1012500Y1058200*
X1011400Y1057900D02*
X1012100Y1058000D01*
X1010600Y1057300D02*
X1011000Y1057800D01*
X1011400Y1057900*
X1010400Y1056800D02*
X1010600Y1057300D01*
X1010400Y1056400D02*
X1010600Y1056800D01*
X1010400*
X1010300Y1055600D02*
X1010400Y1056400D01*
X1010200Y1054700D02*
X1010300Y1055600D01*
X1010200Y1053800D02*
Y1054700D01*
X1010000Y1053400D02*
X1010200Y1053800D01*
X1009200Y1052400D02*
X1009600Y1053100D01*
X1010000Y1053400*
X1008800Y1051600D02*
X1009200Y1052400D01*
X1008800Y1050900D02*
Y1051600D01*
X1008600Y1049900D02*
X1008800Y1050900D01*
X1008900Y1048100D02*
X1008600Y1049200D01*
Y1049900*
X1009200Y1047700D02*
X1008900Y1048100D01*
X1010400Y1047200D02*
X1009200Y1047700D01*
X1011800Y1046600D02*
X1010400Y1047200D01*
X1013000Y1046200D02*
X1011800Y1046600D01*
X1015100Y1045300D02*
X1014000Y1045800D01*
X1013000Y1046200*
X1015900Y1044900D02*
X1015100Y1045300D01*
X1016900Y1044300D02*
X1015900Y1044900D01*
X1017300Y1043500D02*
X1016900Y1044300D01*
X1017700Y1042200D02*
X1017300Y1043500D01*
X1017600Y1041300D02*
X1017700Y1042200D01*
X1017400Y1040700D02*
X1017600Y1041300D01*
X1017200Y1040300D02*
X1017400Y1040700D01*
Y1039800D02*
X1017200Y1040300D01*
X1018700Y1039600D02*
X1017700Y1039500D01*
X1017400Y1039800*
X1020000Y1040300D02*
X1018700Y1039600D01*
X1021700Y1041100D02*
X1020000Y1040300D01*
X1022600Y1042200D02*
X1021700Y1041100D01*
X1023100Y1042900D02*
X1022600Y1042200D01*
X1023600Y1044200D02*
X1023100Y1042900D01*
X1023600Y1044700D02*
Y1044200D01*
X1024700Y1046400D02*
X1023600Y1044700D01*
X1025500Y1047500D02*
X1024700Y1046400D01*
X1026100Y1048100D02*
X1025500Y1047500D01*
X1027500Y1047600D02*
X1026500Y1048300D01*
X1026100Y1048100*
X1028000Y1047200D02*
X1027500Y1047600D01*
X1029100Y1047200D02*
X1028000D01*
X1030500Y1048000D02*
X1029100Y1047200D01*
X1021400Y1048300D02*
Y1048600D01*
X1020300Y1053200*
X1021000Y1047900D02*
X1021400Y1048300D01*
X1020300Y1047500D02*
X1021000Y1047900D01*
X1019500Y1047200D02*
X1020300Y1047500D01*
X1018900Y1047200D02*
X1019500D01*
X1017600Y1047600D02*
X1018400Y1047300D01*
X1018900Y1047200*
X1017300Y1048400D02*
Y1048000D01*
X1017600Y1047700*
Y1047600*
Y1049000D02*
X1017400Y1048800D01*
X1017300Y1048600*
Y1048400*
X1017600Y1049000D02*
X1017800Y1049100D01*
X1031600Y1049700D02*
X1030500Y1048000D01*
X1032500Y1050900D02*
X1031600Y1049700D01*
X1034200Y1052300D02*
X1032500Y1050900D01*
X1035000Y1053800D02*
X1034700Y1053100D01*
X1034200Y1052300*
X1028100Y1053800D02*
X1035000D01*
X1020300Y1053200D02*
X1023100D01*
X1022500Y1055000*
X1020000*
X1021300Y1064100D02*
X1028100D01*
Y1053800*
X1020000Y1055000D02*
X1019200Y1058000D01*
X1019600Y1058200*
X1020500Y1058600*
X1020700Y1059000*
X1021300Y1059500*
Y1064100*
X1042227Y1039250D02*
Y1034000D01*
X1043500Y1039250D02*
X1040955D01*
X1039318Y1036000D02*
X1037136D01*
Y1036500*
X1037318Y1037000*
X1037500Y1037250*
X1037864Y1037500*
X1038409*
X1038773Y1037250*
X1039136Y1036750*
X1039318Y1036000*
Y1035500*
X1039136Y1034750*
X1038773Y1034250*
X1038409Y1034000*
X1037864*
X1037500Y1034250*
X1037136Y1034750*
X1035500Y1037500D02*
X1033500Y1034000D01*
Y1037500D02*
X1035500Y1034000D01*
X1029682Y1037500D02*
Y1034000D01*
Y1036750D02*
X1030045Y1037250D01*
X1030409Y1037500*
X1030955*
X1031318Y1037250*
X1031682Y1036750*
X1031864Y1036000*
Y1035500*
X1031682Y1034750*
X1031318Y1034250*
X1030955Y1034000*
X1030409*
X1030045Y1034250*
X1029682Y1034750*
X1026045Y1036750D02*
X1026227Y1037250D01*
X1026773Y1037500*
X1027318*
X1027864Y1037250*
X1028045Y1036750*
X1027864Y1036250*
X1027500Y1036000*
X1026591Y1035750*
X1026227Y1035500*
X1026045Y1035000*
Y1034750*
X1026227Y1034250*
X1026773Y1034000*
X1027318*
X1027864Y1034250*
X1028045Y1034750*
X1052500Y1030750D02*
Y1025500D01*
X1050864Y1029000D02*
Y1025500D01*
Y1028000D02*
X1050318Y1028750D01*
X1049955Y1029000*
X1049409*
X1049045Y1028750*
X1048864Y1028000*
Y1025500*
X1045227Y1028250D02*
X1045409Y1028750D01*
X1045955Y1029000*
X1046500*
X1047045Y1028750*
X1047227Y1028250*
X1047045Y1027750*
X1046682Y1027500*
X1045773Y1027250*
X1045409Y1027000*
X1045227Y1026500*
Y1026250*
X1045409Y1025750*
X1045955Y1025500*
X1046500*
X1047045Y1025750*
X1047227Y1026250*
X1043045Y1030750D02*
Y1026500D01*
X1042864Y1025750*
X1042500Y1025500*
X1042136*
X1043591Y1029000D02*
X1042318D01*
X1040500D02*
Y1025500D01*
Y1027500D02*
X1040318Y1028250D01*
X1039955Y1028750*
X1039591Y1029000*
X1039045*
X1037409D02*
Y1026500D01*
X1037227Y1025750*
X1036864Y1025500*
X1036318*
X1035955Y1025750*
X1035409Y1026500*
Y1029000D02*
Y1025500D01*
X1033773Y1029000D02*
Y1025500D01*
Y1028000D02*
X1033227Y1028750D01*
X1032864Y1029000*
X1032318*
X1031955Y1028750*
X1031773Y1028000*
Y1025500*
Y1028000D02*
X1031227Y1028750D01*
X1030864Y1029000*
X1030318*
X1029955Y1028750*
X1029773Y1028000*
Y1025500*
X1028136Y1027500D02*
X1025955D01*
Y1028000*
X1026136Y1028500*
X1026318Y1028750*
X1026682Y1029000*
X1027227*
X1027591Y1028750*
X1027955Y1028250*
X1028136Y1027500*
Y1027000*
X1027955Y1026250*
X1027591Y1025750*
X1027227Y1025500*
X1026682*
X1026318Y1025750*
X1025955Y1026250*
X1024318Y1029000D02*
Y1025500D01*
Y1028000D02*
X1023773Y1028750D01*
X1023409Y1029000*
X1022864*
X1022500Y1028750*
X1022318Y1028000*
Y1025500*
X1020136Y1030750D02*
Y1026500D01*
X1019955Y1025750*
X1019591Y1025500*
X1019227*
X1020682Y1029000D02*
X1019409D01*
X1015591Y1028250D02*
X1015773Y1028750D01*
X1016318Y1029000*
X1016864*
X1017409Y1028750*
X1017591Y1028250*
X1017409Y1027750*
X1017045Y1027500*
X1016136Y1027250*
X1015773Y1027000*
X1015591Y1026500*
Y1026250*
X1015773Y1025750*
X1016318Y1025500*
X1016864*
X1017409Y1025750*
X1017591Y1026250*
X652000Y645200D02*
X1688000D01*
Y1350000*
X652000*
Y645200*
X1253500D02*
X1688000D01*
Y840200*
X1253500*
Y645200*
X1253000Y785200D02*
X1688000D01*
Y645200*
X1253000*
Y785200*
Y675200D02*
X1688000D01*
Y645200*
X1253000*
Y675200*
X1413000*
Y645200*
X1253000*
Y675200*
Y785200D02*
X1688000D01*
Y840200*
X1253000*
Y785200*
Y715200D02*
X1688000D01*
Y785200*
X1253000*
Y715200*
X1553000Y675200D02*
X1688000D01*
Y715200*
X1553000*
Y675200*
X818500Y675700D02*
X1024000D01*
Y645200*
X818500*
Y675700*
X1024000Y645200D02*
X1253500D01*
Y675700*
X1024000*
Y645200*
X818500Y785700D02*
X1253500D01*
Y675700*
X818500*
Y785700*
G54D42*
X1276451Y1070238D02*
Y1083238D01*
X1282451*
Y1070238*
X1276451*
X1158277Y1017812D02*
Y1030812D01*
X1164277*
Y1017812*
X1158277*
X1037074Y1099714D02*
X1024074D01*
Y1105714*
X1037074*
Y1099714*
X1325313Y1106025D02*
X1338313D01*
Y1100025*
X1325313*
Y1106025*
X1190074Y1055714D02*
Y1042714D01*
X1184074*
Y1055714*
X1190074*
X1213263Y1043513D02*
Y1030513D01*
X1207263*
Y1043513*
X1213263*
X1232950D02*
Y1030513D01*
X1226950*
Y1043513*
X1232950*
X1226650D02*
Y1030513D01*
X1220650*
Y1043513*
X1226650*
X1216413Y1073438D02*
Y1060438D01*
X1210413*
Y1073438*
X1216413*
X1200963Y1088788D02*
Y1101788D01*
X1206963*
Y1088788*
X1200963*
X1243727Y1074714D02*
Y1087714D01*
X1249727*
Y1074714*
X1243727*
X1220650Y1088788D02*
Y1101788D01*
X1226650*
Y1088788*
X1220650*
X1320313Y1113525D02*
X1333313D01*
Y1107525*
X1320313*
Y1113525*
X1239250Y1043513D02*
Y1030513D01*
X1233250*
Y1043513*
X1239250*
X1223500Y1073438D02*
Y1060438D01*
X1217500*
Y1073438*
X1223500*
X1213563Y1088788D02*
Y1101788D01*
X1219563*
Y1088788*
X1213563*
X1220350Y1043513D02*
Y1030513D01*
X1214350*
Y1043513*
X1220350*
X1206175D02*
Y1030513D01*
X1200175*
Y1043513*
X1206175*
X1192788Y1070288D02*
Y1057288D01*
X1186788*
Y1070288*
X1192788*
X1239988Y1070725D02*
X1252988D01*
Y1064725*
X1239988*
Y1070725*
Y1059700D02*
X1252988D01*
Y1053700*
X1239988*
Y1059700*
X1186788Y1075400D02*
Y1088400D01*
X1192788*
Y1075400*
X1186788*
X1079578Y1032860D02*
X1066578D01*
Y1038860*
X1079578*
Y1032860*
Y1042360D02*
X1066578D01*
Y1048360*
X1079578*
Y1042360*
Y1062360D02*
X1066578D01*
Y1068360*
X1079578*
Y1062360*
Y1072360D02*
X1066578D01*
Y1078360*
X1079578*
Y1072360*
X1066578Y1031360D02*
X1079578D01*
Y1025360*
X1066578*
Y1031360*
X1129500Y1030075D02*
X1116500D01*
Y1036075*
X1129500*
Y1030075*
Y1036375D02*
X1116500D01*
Y1042375*
X1129500*
Y1036375*
Y1043463D02*
X1116500D01*
Y1049463*
X1129500*
Y1043463*
X1116500Y1090413D02*
X1129500D01*
Y1084413*
X1116500*
Y1090413*
X1079578Y1082360D02*
X1066578D01*
Y1088360*
X1079578*
Y1082360*
Y1092360D02*
X1066578D01*
Y1098360*
X1079578*
Y1092360*
Y1102360D02*
X1066578D01*
Y1108360*
X1079578*
Y1102360*
X1066578Y1058360D02*
X1079578D01*
Y1052360*
X1066578*
Y1058360*
X1129500Y1058425D02*
X1116500D01*
Y1064425*
X1129500*
Y1058425*
Y1064725D02*
X1116500D01*
Y1070725*
X1129500*
Y1064725*
Y1071025D02*
X1116500D01*
Y1077025*
X1129500*
Y1071025*
X1257650Y1087900D02*
Y1075900D01*
X1252650*
Y1087900*
X1257650*
X1334951Y1073238D02*
Y1060238D01*
X1328951*
Y1073238*
X1334951*
X1303227Y1059714D02*
Y1072714D01*
X1309227*
Y1059714*
X1303227*
X1293727Y1025214D02*
Y1037214D01*
X1298727*
Y1025214*
X1293727*
X1305727Y1037214D02*
Y1025214D01*
X1300727*
Y1037214*
X1305727*
X1262078Y1039360D02*
Y1026360D01*
X1256078*
Y1039360*
X1262078*
X1323313Y1100025D02*
X1310313D01*
Y1106025*
X1323313*
Y1100025*
X1282078Y1022860D02*
X1295078D01*
Y1016860*
X1282078*
Y1022860*
X1278727Y1045714D02*
X1291727D01*
Y1039714*
X1278727*
Y1045714*
X1181727Y1103214D02*
Y1116214D01*
X1187727*
Y1103214*
X1181727*
X1188727D02*
Y1116214D01*
X1194727*
Y1103214*
X1188727*
X1133500Y1109500D02*
X1120500D01*
Y1115500*
X1133500*
Y1109500*
X1164000D02*
X1151000D01*
Y1115500*
X1164000*
Y1109500*
X1269578Y1039360D02*
Y1026360D01*
X1263578*
Y1039360*
X1269578*
X1277078D02*
Y1026360D01*
X1271078*
Y1039360*
X1277078*
X1284578D02*
Y1026360D01*
X1278578*
Y1039360*
X1284578*
X1269701Y1080488D02*
X1264201D01*
Y1067988*
X1269701*
Y1080488*
X1233250Y1088788D02*
Y1101788D01*
X1239250*
Y1088788*
X1233250*
X1148953Y1099071D02*
X1147969Y1100055D01*
X1137047*
Y1081945*
X1148953*
Y1099071*
X1163953Y1107016D02*
X1162969Y1108000D01*
X1152047*
Y1097000*
X1163953*
Y1107016*
X1149500Y1109500D02*
X1136500D01*
Y1115500*
X1149500*
Y1109500*
X1129500Y1078113D02*
X1116500D01*
Y1084113*
X1129500*
Y1078113*
Y1024214D02*
X1116500D01*
Y1030214*
X1129500*
Y1024214*
Y1051860D02*
X1116500D01*
Y1057860*
X1129500*
Y1051860*
X1097000Y1111500D02*
X1110000D01*
Y1105500*
X1097000*
Y1111500*
X1146500Y1065500D02*
Y1078500D01*
X1152500*
Y1065500*
X1146500*
X1179500Y1108000D02*
X1166500D01*
Y1114000*
X1179500*
Y1108000*
X1247075Y1097500D02*
X1260075D01*
Y1091500*
X1247075*
Y1097500*
X1252638Y1048238D02*
Y1035238D01*
X1246638*
Y1048238*
X1252638*
X1180500Y1048720D02*
Y1076280D01*
X1167500*
Y1048720*
X1180500*
X1308500Y1076000D02*
Y1089000D01*
X1314500*
Y1076000*
X1308500*
X1320000Y1090500D02*
X1333000D01*
Y1084500*
X1320000*
Y1090500*
X1142000Y1044000D02*
Y1057000D01*
X1148000*
Y1044000*
X1142000*
X1280551Y1086183D02*
X1280926Y1086047D01*
X1281301Y1085774*
X1281488Y1085501*
Y1084956*
X1281301Y1084683*
X1280926Y1084410*
X1280551Y1084274*
X1279988Y1084138*
X1279051*
X1278488Y1084274*
X1278113Y1084410*
X1277738Y1084683*
X1277551Y1084956*
Y1085501*
X1277738Y1085774*
X1278113Y1086047*
X1278488Y1086183*
X1280738Y1087410D02*
X1280926Y1087683D01*
X1281488Y1088092*
X1277551*
X1280926Y1090956D02*
X1281301Y1090819D01*
X1281488Y1090410*
Y1090138*
X1281301Y1089728*
X1280738Y1089456*
X1279801Y1089319*
X1278863*
X1278113Y1089456*
X1277738Y1089728*
X1277551Y1090138*
Y1090274*
X1277738Y1090683*
X1278113Y1090956*
X1278676Y1091092*
X1278863*
X1279426Y1090956*
X1279801Y1090683*
X1279988Y1090274*
Y1090138*
X1279801Y1089728*
X1279426Y1089456*
X1278863Y1089319*
X1156000Y1023045D02*
X1156375Y1022909D01*
X1156750Y1022636*
X1156938Y1022364*
X1156938D02*
Y1021818D01*
X1156938D02*
X1156750Y1021545D01*
X1156375Y1021273*
X1156000Y1021136*
X1155438Y1021000*
X1155438D02*
X1154500D01*
X1153938Y1021136*
X1153938D02*
X1153563Y1021273D01*
X1153563D02*
X1153188Y1021545D01*
X1153188D02*
X1153000Y1021818D01*
Y1022364*
X1153188Y1022636*
X1153188D02*
X1153563Y1022909D01*
X1153563D02*
X1153938Y1023045D01*
X1156000Y1024409D02*
X1156188D01*
X1156188D02*
X1156563Y1024545D01*
X1156563D02*
X1156750Y1024682D01*
X1156938Y1024955*
X1156938D02*
Y1025500D01*
X1156938D02*
X1156750Y1025773D01*
X1156563Y1025909*
X1156563D02*
X1156188Y1026045D01*
X1156188D02*
X1155813D01*
X1155813D02*
X1155438Y1025909D01*
X1155438D02*
X1154875Y1025636D01*
X1153000Y1024273*
Y1026182*
X1156938Y1028773D02*
X1154313Y1027409D01*
X1154313D02*
Y1029455D01*
X1156938Y1028773D02*
X1153000D01*
X1021128Y1103814D02*
X1021265Y1104189D01*
X1021537Y1104564*
X1021810Y1104751*
X1022356*
X1022628Y1104564*
X1022901Y1104189*
X1023037Y1103814*
X1023174Y1103251*
Y1102314*
X1023037Y1101751*
X1022901Y1101376*
X1022628Y1101001*
X1022356Y1100814*
X1021810*
X1021537Y1101001*
X1021265Y1101376*
X1021128Y1101751*
X1019765Y1103814D02*
Y1104001D01*
X1019628Y1104376*
X1019492Y1104564*
X1019219Y1104751*
X1018674*
X1018401Y1104564*
X1018265Y1104376*
X1018128Y1104001*
Y1103626*
X1018265Y1103251*
X1018537Y1102689*
X1019901Y1100814*
X1017992*
X1014856Y1104751D02*
X1016219Y1100814D01*
X1016765Y1104751D02*
X1014856D01*
X1344955Y1104000D02*
X1345091Y1104375D01*
X1345364Y1104750*
X1345636Y1104938*
X1345636D02*
X1346182D01*
X1346182D02*
X1346455Y1104750D01*
X1346727Y1104375*
X1346864Y1104000*
X1347000Y1103438*
X1347000D02*
Y1102500D01*
X1346864Y1101938*
X1346864D02*
X1346727Y1101563D01*
X1346727D02*
X1346455Y1101188D01*
X1346455D02*
X1346182Y1101000D01*
X1345636*
X1345364Y1101188*
X1345364D02*
X1345091Y1101563D01*
X1345091D02*
X1344955Y1101938D01*
X1343455Y1104938D02*
X1341955D01*
X1341955D02*
X1342773Y1103438D01*
X1342773D02*
X1342364D01*
X1342364D02*
X1342091Y1103250D01*
X1341955Y1103063*
X1341955D02*
X1341818Y1102500D01*
Y1102125*
X1341955Y1101563*
X1341955D02*
X1342227Y1101188D01*
X1342227D02*
X1342636Y1101000D01*
X1343045*
X1343455Y1101188*
X1343455D02*
X1343591Y1101375D01*
X1343727Y1101750*
X1194000Y1046045D02*
X1194375Y1045909D01*
X1194750Y1045636*
X1194937Y1045364*
X1194937D02*
Y1044818D01*
X1194937D02*
X1194750Y1044545D01*
X1194375Y1044273*
X1194000Y1044136*
X1193437Y1044000*
X1193437D02*
X1192500D01*
X1191937Y1044136*
X1191937D02*
X1191562Y1044273D01*
X1191562D02*
X1191187Y1044545D01*
X1191187D02*
X1191000Y1044818D01*
Y1045364*
X1191187Y1045636*
X1191187D02*
X1191562Y1045909D01*
X1191562D02*
X1191937Y1046045D01*
X1194937Y1047545D02*
Y1049045D01*
X1194937D02*
X1193437Y1048227D01*
X1193437D02*
Y1048636D01*
X1193437D02*
X1193250Y1048909D01*
X1193062Y1049045*
X1193062D02*
X1192500Y1049182D01*
X1192125*
X1191562Y1049045*
X1191562D02*
X1191187Y1048773D01*
X1191187D02*
X1191000Y1048364D01*
Y1047955*
X1191187Y1047545*
X1191187D02*
X1191375Y1047409D01*
X1191750Y1047273*
X1194937Y1051227D02*
X1194750Y1050818D01*
X1194187Y1050545*
X1194187D02*
X1193250Y1050409D01*
X1192687*
X1192687D02*
X1191750Y1050545D01*
X1191187Y1050818*
X1191187D02*
X1191000Y1051227D01*
Y1051500*
X1191187Y1051909*
X1191187D02*
X1191750Y1052182D01*
X1192687Y1052318*
X1192687D02*
X1193250D01*
X1194187Y1052182*
X1194187D02*
X1194750Y1051909D01*
X1194937Y1051500*
X1194937D02*
Y1051227D01*
X1211500Y1047545D02*
X1211875Y1047409D01*
X1212250Y1047136*
X1212438Y1046864*
Y1046318*
X1212250Y1046045*
X1211875Y1045773*
X1211500Y1045636*
X1210938Y1045500*
X1210000*
X1209438Y1045636*
X1209063Y1045773*
X1208688Y1046045*
X1208500Y1046318*
Y1046864*
X1208688Y1047136*
X1209063Y1047409*
X1209438Y1047545*
X1212438Y1049045D02*
Y1050545D01*
X1210938Y1049727*
Y1050136*
X1210750Y1050409*
X1210563Y1050545*
X1210000Y1050682*
X1209625*
X1209063Y1050545*
X1208688Y1050273*
X1208500Y1049864*
Y1049455*
X1208688Y1049045*
X1208875Y1048909*
X1209250Y1048773*
X1211688Y1051909D02*
X1211875Y1052182D01*
X1212438Y1052591*
X1208500*
X1231000Y1047045D02*
X1231375Y1046909D01*
X1231750Y1046636*
X1231938Y1046364*
Y1045818*
X1231750Y1045545*
X1231375Y1045273*
X1231000Y1045136*
X1230438Y1045000*
X1229500*
X1228938Y1045136*
X1228563Y1045273*
X1228188Y1045545*
X1228000Y1045818*
Y1046364*
X1228188Y1046636*
X1228563Y1046909*
X1228938Y1047045*
X1231938Y1048545D02*
Y1050045D01*
X1230438Y1049227*
Y1049636*
X1230250Y1049909*
X1230063Y1050045*
X1229500Y1050182*
X1229125*
X1228563Y1050045*
X1228188Y1049773*
X1228000Y1049364*
Y1048955*
X1228188Y1048545*
X1228375Y1048409*
X1228750Y1048273*
X1231000Y1051545D02*
X1231188D01*
X1231563Y1051682*
X1231750Y1051818*
X1231938Y1052091*
Y1052636*
X1231750Y1052909*
X1231563Y1053045*
X1231188Y1053182*
X1230813*
X1230438Y1053045*
X1229875Y1052773*
X1228000Y1051409*
Y1053318*
X1225000Y1046545D02*
X1225375Y1046409D01*
X1225750Y1046136*
X1225938Y1045864*
Y1045318*
X1225750Y1045045*
X1225375Y1044773*
X1225000Y1044636*
X1224438Y1044500*
X1223500*
X1222938Y1044636*
X1222563Y1044773*
X1222188Y1045045*
X1222000Y1045318*
Y1045864*
X1222188Y1046136*
X1222563Y1046409*
X1222938Y1046545*
X1225938Y1048045D02*
Y1049545D01*
X1224438Y1048727*
Y1049136*
X1224250Y1049409*
X1224063Y1049545*
X1223500Y1049682*
X1223125*
X1222563Y1049545*
X1222188Y1049273*
X1222000Y1048864*
Y1048455*
X1222188Y1048045*
X1222375Y1047909*
X1222750Y1047773*
X1225938Y1051182D02*
Y1052682D01*
X1224438Y1051864*
Y1052273*
X1224250Y1052545*
X1224063Y1052682*
X1223500Y1052818*
X1223125*
X1222563Y1052682*
X1222188Y1052409*
X1222000Y1052000*
Y1051591*
X1222188Y1051182*
X1222375Y1051045*
X1222750Y1050909*
X1208500Y1065545D02*
X1208875Y1065409D01*
X1209250Y1065136*
X1209438Y1064864*
X1209438D02*
Y1064318D01*
X1209438D02*
X1209250Y1064045D01*
X1208875Y1063773*
X1208500Y1063636*
X1207938Y1063500*
X1207938D02*
X1207000D01*
X1206438Y1063636*
X1206438D02*
X1206063Y1063773D01*
X1206063D02*
X1205688Y1064045D01*
X1205688D02*
X1205500Y1064318D01*
Y1064864*
X1205688Y1065136*
X1205688D02*
X1206063Y1065409D01*
X1206063D02*
X1206438Y1065545D01*
X1209438Y1067045D02*
Y1068545D01*
X1209438D02*
X1207938Y1067727D01*
X1207938D02*
Y1068136D01*
X1207938D02*
X1207750Y1068409D01*
X1207563Y1068545*
X1207563D02*
X1207000Y1068682D01*
X1206625*
X1206063Y1068545*
X1206063D02*
X1205688Y1068273D01*
X1205688D02*
X1205500Y1067864D01*
Y1067455*
X1205688Y1067045*
X1205688D02*
X1205875Y1066909D01*
X1206250Y1066773*
X1209438Y1071273D02*
X1206813Y1069909D01*
X1206813D02*
Y1071955D01*
X1209438Y1071273D02*
X1205500D01*
X1205000Y1081045D02*
X1205375Y1080909D01*
X1205750Y1080636*
X1205938Y1080364*
X1205938D02*
Y1079818D01*
X1205938D02*
X1205750Y1079545D01*
X1205375Y1079273*
X1205000Y1079136*
X1204438Y1079000*
X1204438D02*
X1203500D01*
X1202938Y1079136*
X1202938D02*
X1202563Y1079273D01*
X1202563D02*
X1202188Y1079545D01*
X1202188D02*
X1202000Y1079818D01*
Y1080364*
X1202188Y1080636*
X1202188D02*
X1202563Y1080909D01*
X1202563D02*
X1202938Y1081045D01*
X1205938Y1082545D02*
Y1084045D01*
X1205938D02*
X1204438Y1083227D01*
X1204438D02*
Y1083636D01*
X1204438D02*
X1204250Y1083909D01*
X1204063Y1084045*
X1204063D02*
X1203500Y1084182D01*
X1203125*
X1202563Y1084045*
X1202563D02*
X1202188Y1083773D01*
X1202188D02*
X1202000Y1083364D01*
Y1082955*
X1202188Y1082545*
X1202188D02*
X1202375Y1082409D01*
X1202750Y1082273*
X1205938Y1087182D02*
Y1085818D01*
X1205938D02*
X1204250Y1085682D01*
X1204438Y1085818*
X1204438D02*
X1204625Y1086227D01*
Y1086636*
X1204438Y1087045*
X1204438D02*
X1204063Y1087318D01*
X1204063D02*
X1203500Y1087455D01*
X1203125Y1087318*
X1202563Y1087182*
X1202563D02*
X1202188Y1086909D01*
X1202188D02*
X1202000Y1086500D01*
Y1086091*
X1202188Y1085682*
X1202188D02*
X1202375Y1085545D01*
X1202750Y1085409*
X1241500Y1079545D02*
X1241875Y1079409D01*
X1242250Y1079136*
X1242438Y1078864*
X1242438D02*
Y1078318D01*
X1242438D02*
X1242250Y1078045D01*
X1241875Y1077773*
X1241500Y1077636*
X1240938Y1077500*
X1240938D02*
X1240000D01*
X1239438Y1077636*
X1239438D02*
X1239063Y1077773D01*
X1239063D02*
X1238688Y1078045D01*
X1238688D02*
X1238500Y1078318D01*
Y1078864*
X1238688Y1079136*
X1238688D02*
X1239063Y1079409D01*
X1239063D02*
X1239438Y1079545D01*
X1242438Y1081045D02*
Y1082545D01*
X1242438D02*
X1240938Y1081727D01*
X1240938D02*
Y1082136D01*
X1240938D02*
X1240750Y1082409D01*
X1240563Y1082545*
X1240563D02*
X1240000Y1082682D01*
X1239625*
X1239063Y1082545*
X1239063D02*
X1238688Y1082273D01*
X1238688D02*
X1238500Y1081864D01*
Y1081455*
X1238688Y1081045*
X1238688D02*
X1238875Y1080909D01*
X1239250Y1080773*
X1241875Y1085545D02*
X1242250Y1085409D01*
X1242438Y1085000*
X1242438D02*
Y1084727D01*
X1242438D02*
X1242250Y1084318D01*
X1241688Y1084045*
X1241688D02*
X1240750Y1083909D01*
X1239813*
X1239813D02*
X1239063Y1084045D01*
X1239063D02*
X1238688Y1084318D01*
X1238688D02*
X1238500Y1084727D01*
Y1084864*
X1238688Y1085273*
X1238688D02*
X1239063Y1085545D01*
X1239063D02*
X1239625Y1085682D01*
X1239813*
X1239813D02*
X1240375Y1085545D01*
X1240750Y1085273*
X1240938Y1084864*
X1240938D02*
Y1084727D01*
X1240938D02*
X1240750Y1084318D01*
X1240375Y1084045*
X1239813Y1083909*
X1224500Y1081045D02*
X1224875Y1080909D01*
X1225250Y1080636*
X1225438Y1080364*
X1225438D02*
Y1079818D01*
X1225438D02*
X1225250Y1079545D01*
X1224875Y1079273*
X1224500Y1079136*
X1223938Y1079000*
X1223938D02*
X1223000D01*
X1222438Y1079136*
X1222438D02*
X1222063Y1079273D01*
X1222063D02*
X1221688Y1079545D01*
X1221688D02*
X1221500Y1079818D01*
Y1080364*
X1221688Y1080636*
X1221688D02*
X1222063Y1080909D01*
X1222063D02*
X1222438Y1081045D01*
X1225438Y1082545D02*
Y1084045D01*
X1225438D02*
X1223938Y1083227D01*
X1223938D02*
Y1083636D01*
X1223938D02*
X1223750Y1083909D01*
X1223563Y1084045*
X1223563D02*
X1223000Y1084182D01*
X1222625*
X1222063Y1084045*
X1222063D02*
X1221688Y1083773D01*
X1221688D02*
X1221500Y1083364D01*
Y1082955*
X1221688Y1082545*
X1221688D02*
X1221875Y1082409D01*
X1222250Y1082273*
X1225438Y1087318D02*
X1221500Y1085955D01*
X1225438Y1085409D02*
Y1087318D01*
X1316955Y1112000D02*
X1317091Y1112375D01*
X1317364Y1112750*
X1317636Y1112938*
X1318182*
X1318455Y1112750*
X1318727Y1112375*
X1318864Y1112000*
X1319000Y1111438*
Y1110500*
X1318864Y1109938*
X1318727Y1109563*
X1318455Y1109188*
X1318182Y1109000*
X1317636*
X1317364Y1109188*
X1317091Y1109563*
X1316955Y1109938*
X1314364Y1112938D02*
X1315727Y1110313D01*
X1313682*
X1314364Y1112938D02*
Y1109000D01*
X1237000Y1046545D02*
X1237375Y1046409D01*
X1237750Y1046136*
X1237938Y1045864*
Y1045318*
X1237750Y1045045*
X1237375Y1044773*
X1237000Y1044636*
X1236438Y1044500*
X1235500*
X1234938Y1044636*
X1234563Y1044773*
X1234188Y1045045*
X1234000Y1045318*
Y1045864*
X1234188Y1046136*
X1234563Y1046409*
X1234938Y1046545*
X1237938Y1049136D02*
X1235313Y1047773D01*
Y1049818*
X1237938Y1049136D02*
X1234000D01*
X1237938Y1051864D02*
X1237750Y1051455D01*
X1237188Y1051182*
X1236250Y1051045*
X1235688*
X1234750Y1051182*
X1234188Y1051455*
X1234000Y1051864*
Y1052136*
X1234188Y1052545*
X1234750Y1052818*
X1235688Y1052955*
X1236250*
X1237188Y1052818*
X1237750Y1052545*
X1237938Y1052136*
Y1051864*
X1228000Y1065545D02*
X1228375Y1065409D01*
X1228750Y1065136*
X1228937Y1064864*
X1228937D02*
Y1064318D01*
X1228937D02*
X1228750Y1064045D01*
X1228375Y1063773*
X1228000Y1063636*
X1227437Y1063500*
X1227437D02*
X1226500D01*
X1225937Y1063636*
X1225937D02*
X1225562Y1063773D01*
X1225562D02*
X1225187Y1064045D01*
X1225187D02*
X1225000Y1064318D01*
Y1064864*
X1225187Y1065136*
X1225187D02*
X1225562Y1065409D01*
X1225562D02*
X1225937Y1065545D01*
X1228937Y1068136D02*
X1226312Y1066773D01*
X1226312D02*
Y1068818D01*
X1228937Y1068136D02*
X1225000D01*
X1228187Y1070045D02*
X1228375Y1070318D01*
X1228937Y1070727*
X1228937D02*
X1225000D01*
X1218000Y1081045D02*
X1218375Y1080909D01*
X1218750Y1080636*
X1218938Y1080364*
X1218938D02*
Y1079818D01*
X1218938D02*
X1218750Y1079545D01*
X1218375Y1079273*
X1218000Y1079136*
X1217438Y1079000*
X1217438D02*
X1216500D01*
X1215938Y1079136*
X1215938D02*
X1215563Y1079273D01*
X1215563D02*
X1215188Y1079545D01*
X1215188D02*
X1215000Y1079818D01*
Y1080364*
X1215188Y1080636*
X1215188D02*
X1215563Y1080909D01*
X1215563D02*
X1215938Y1081045D01*
X1218938Y1083636D02*
X1216313Y1082273D01*
X1216313D02*
Y1084318D01*
X1218938Y1083636D02*
X1215000D01*
X1218000Y1085682D02*
X1218188D01*
X1218188D02*
X1218563Y1085818D01*
X1218563D02*
X1218750Y1085955D01*
X1218938Y1086227*
X1218938D02*
Y1086773D01*
X1218938D02*
X1218750Y1087045D01*
X1218563Y1087182*
X1218563D02*
X1218188Y1087318D01*
X1218188D02*
X1217813D01*
X1217813D02*
X1217438Y1087182D01*
X1217438D02*
X1216875Y1086909D01*
X1215000Y1085545*
Y1087455*
X1218500Y1046545D02*
X1218875Y1046409D01*
X1219250Y1046136*
X1219438Y1045864*
Y1045318*
X1219250Y1045045*
X1218875Y1044773*
X1218500Y1044636*
X1217938Y1044500*
X1217000*
X1216438Y1044636*
X1216063Y1044773*
X1215688Y1045045*
X1215500Y1045318*
Y1045864*
X1215688Y1046136*
X1216063Y1046409*
X1216438Y1046545*
X1219438Y1049136D02*
X1216813Y1047773D01*
Y1049818*
X1219438Y1049136D02*
X1215500D01*
X1219438Y1052818D02*
Y1051455D01*
X1217750Y1051318*
X1217938Y1051455*
X1218125Y1051864*
Y1052273*
X1217938Y1052682*
X1217563Y1052955*
X1217000Y1053091*
X1216625Y1052955*
X1216063Y1052818*
X1215688Y1052545*
X1215500Y1052136*
Y1051727*
X1215688Y1051318*
X1215875Y1051182*
X1216250Y1051045*
X1204000Y1047045D02*
X1204375Y1046909D01*
X1204750Y1046636*
X1204938Y1046364*
Y1045818*
X1204750Y1045545*
X1204375Y1045273*
X1204000Y1045136*
X1203438Y1045000*
X1202500*
X1201938Y1045136*
X1201563Y1045273*
X1201188Y1045545*
X1201000Y1045818*
Y1046364*
X1201188Y1046636*
X1201563Y1046909*
X1201938Y1047045*
X1204938Y1049636D02*
X1202313Y1048273D01*
Y1050318*
X1204938Y1049636D02*
X1201000D01*
X1204375Y1053182D02*
X1204750Y1053045D01*
X1204938Y1052636*
Y1052364*
X1204750Y1051955*
X1204188Y1051682*
X1203250Y1051545*
X1202313*
X1201563Y1051682*
X1201188Y1051955*
X1201000Y1052364*
Y1052500*
X1201188Y1052909*
X1201563Y1053182*
X1202125Y1053318*
X1202313*
X1202875Y1053182*
X1203250Y1052909*
X1203438Y1052500*
Y1052364*
X1203250Y1051955*
X1202875Y1051682*
X1202313Y1051545*
X1197513Y1062683D02*
X1197888Y1062547D01*
X1198263Y1062274*
X1198450Y1062001*
Y1061456*
X1198263Y1061183*
X1197888Y1060910*
X1197513Y1060774*
X1196950Y1060638*
X1196013*
X1195450Y1060774*
X1195075Y1060910*
X1194700Y1061183*
X1194513Y1061456*
Y1062001*
X1194700Y1062274*
X1195075Y1062547*
X1195450Y1062683*
X1198450Y1065274D02*
X1195825Y1063910D01*
Y1065956*
X1198450Y1065274D02*
X1194513D01*
X1198450Y1069092D02*
X1194513Y1067729D01*
X1198450Y1067183D02*
Y1069092D01*
X1236955Y1069500D02*
X1237091Y1069875D01*
X1237364Y1070250*
X1237636Y1070438*
X1238182*
X1238455Y1070250*
X1238727Y1069875*
X1238864Y1069500*
X1239000Y1068938*
Y1068000*
X1238864Y1067438*
X1238727Y1067063*
X1238455Y1066688*
X1238182Y1066500*
X1237636*
X1237364Y1066688*
X1237091Y1067063*
X1236955Y1067438*
X1234364Y1070438D02*
X1235727Y1067813D01*
X1233682*
X1234364Y1070438D02*
Y1066500D01*
X1231773Y1070438D02*
X1232182Y1070250D01*
X1232318Y1069875*
Y1069500*
X1232182Y1069125*
X1231909Y1068938*
X1231364Y1068750*
X1230955Y1068563*
X1230682Y1068188*
X1230545Y1067813*
Y1067250*
X1230682Y1066875*
X1230818Y1066688*
X1231227Y1066500*
X1231773*
X1232182Y1066688*
X1232318Y1066875*
X1232455Y1067250*
Y1067813*
X1232318Y1068188*
X1232045Y1068563*
X1231636Y1068750*
X1231091Y1068938*
X1230818Y1069125*
X1230682Y1069500*
Y1069875*
X1230818Y1070250*
X1231227Y1070438*
X1231773*
X1236455Y1058000D02*
X1236591Y1058375D01*
X1236864Y1058750*
X1237136Y1058938*
X1237682*
X1237955Y1058750*
X1238227Y1058375*
X1238364Y1058000*
X1238500Y1057438*
Y1056500*
X1238364Y1055938*
X1238227Y1055563*
X1237955Y1055188*
X1237682Y1055000*
X1237136*
X1236864Y1055188*
X1236591Y1055563*
X1236455Y1055938*
X1233864Y1058938D02*
X1235227Y1056313D01*
X1233182*
X1233864Y1058938D02*
Y1055000D01*
X1230182Y1057625D02*
X1230318Y1057063D01*
X1230591Y1056688*
X1231000Y1056500*
X1231136*
X1231545Y1056688*
X1231818Y1057063*
X1231955Y1057625*
Y1057813*
X1231818Y1058375*
X1231545Y1058750*
X1231136Y1058938*
X1231000*
X1230591Y1058750*
X1230318Y1058375*
X1230182Y1057625*
Y1056688*
X1230318Y1055750*
X1230591Y1055188*
X1231000Y1055000*
X1231273*
X1231682Y1055188*
X1231818Y1055563*
X1197513Y1079221D02*
X1197888Y1079084D01*
X1198263Y1078811*
X1198450Y1078539*
Y1077993*
X1198263Y1077721*
X1197888Y1077448*
X1197513Y1077311*
X1196950Y1077175*
X1196013*
X1195450Y1077311*
X1195075Y1077448*
X1194700Y1077721*
X1194513Y1077993*
Y1078539*
X1194700Y1078811*
X1195075Y1079084*
X1195450Y1079221*
X1198450Y1082221D02*
Y1080857D01*
X1196763Y1080721*
X1196950Y1080857*
X1197138Y1081266*
Y1081675*
X1196950Y1082084*
X1196575Y1082357*
X1196013Y1082493*
X1195638Y1082357*
X1195075Y1082221*
X1194700Y1081948*
X1194513Y1081539*
Y1081130*
X1194700Y1080721*
X1194888Y1080584*
X1195263Y1080448*
X1198450Y1084539D02*
X1198263Y1084130D01*
X1197700Y1083857*
X1196763Y1083721*
X1196200*
X1195263Y1083857*
X1194700Y1084130*
X1194513Y1084539*
Y1084811*
X1194700Y1085221*
X1195263Y1085493*
X1196200Y1085630*
X1196763*
X1197700Y1085493*
X1198263Y1085221*
X1198450Y1084811*
Y1084539*
X1063632Y1036960D02*
X1063769Y1037335D01*
X1064041Y1037710*
X1064314Y1037898*
X1064860*
X1065132Y1037710*
X1065405Y1037335*
X1065541Y1036960*
X1065678Y1036398*
Y1035460*
X1065541Y1034898*
X1065405Y1034523*
X1065132Y1034148*
X1064860Y1033960*
X1064314*
X1064041Y1034148*
X1063769Y1034523*
X1063632Y1034898*
X1060632Y1037898D02*
X1061996D01*
X1062132Y1036210*
X1061996Y1036398*
X1061587Y1036585*
X1061178*
X1060769Y1036398*
X1060496Y1036023*
X1060360Y1035460*
X1060496Y1035085*
X1060632Y1034523*
X1060905Y1034148*
X1061314Y1033960*
X1061723*
X1062132Y1034148*
X1062269Y1034335*
X1062405Y1034710*
X1058860Y1037898D02*
X1057360D01*
X1058178Y1036398*
X1057769*
X1057496Y1036210*
X1057360Y1036023*
X1057223Y1035460*
Y1035085*
X1057360Y1034523*
X1057632Y1034148*
X1058041Y1033960*
X1058451*
X1058860Y1034148*
X1058996Y1034335*
X1059132Y1034710*
X1063632Y1046460D02*
X1063769Y1046835D01*
X1064041Y1047210*
X1064314Y1047398*
X1064860*
X1065132Y1047210*
X1065405Y1046835*
X1065541Y1046460*
X1065678Y1045898*
Y1044960*
X1065541Y1044398*
X1065405Y1044023*
X1065132Y1043648*
X1064860Y1043460*
X1064314*
X1064041Y1043648*
X1063769Y1044023*
X1063632Y1044398*
X1060632Y1047398D02*
X1061996D01*
X1062132Y1045710*
X1061996Y1045898*
X1061587Y1046085*
X1061178*
X1060769Y1045898*
X1060496Y1045523*
X1060360Y1044960*
X1060496Y1044585*
X1060632Y1044023*
X1060905Y1043648*
X1061314Y1043460*
X1061723*
X1062132Y1043648*
X1062269Y1043835*
X1062405Y1044210*
X1057769Y1047398D02*
X1059132Y1044773D01*
X1057087*
X1057769Y1047398D02*
Y1043460D01*
X1063632Y1066460D02*
X1063769Y1066835D01*
X1064041Y1067210*
X1064314Y1067398*
X1064860*
X1065132Y1067210*
X1065405Y1066835*
X1065541Y1066460*
X1065678Y1065898*
Y1064960*
X1065541Y1064398*
X1065405Y1064023*
X1065132Y1063648*
X1064860Y1063460*
X1064314*
X1064041Y1063648*
X1063769Y1064023*
X1063632Y1064398*
X1060632Y1067398D02*
X1061996D01*
X1062132Y1065710*
X1061996Y1065898*
X1061587Y1066085*
X1061178*
X1060769Y1065898*
X1060496Y1065523*
X1060360Y1064960*
X1060496Y1064585*
X1060632Y1064023*
X1060905Y1063648*
X1061314Y1063460*
X1061723*
X1062132Y1063648*
X1062269Y1063835*
X1062405Y1064210*
X1057360Y1067398D02*
X1058723D01*
X1058860Y1065710*
X1058723Y1065898*
X1058314Y1066085*
X1057905*
X1057496Y1065898*
X1057223Y1065523*
X1057087Y1064960*
X1057223Y1064585*
X1057360Y1064023*
X1057632Y1063648*
X1058041Y1063460*
X1058451*
X1058860Y1063648*
X1058996Y1063835*
X1059132Y1064210*
X1063632Y1076460D02*
X1063769Y1076835D01*
X1064041Y1077210*
X1064314Y1077398*
X1064860*
X1065132Y1077210*
X1065405Y1076835*
X1065541Y1076460*
X1065678Y1075898*
Y1074960*
X1065541Y1074398*
X1065405Y1074023*
X1065132Y1073648*
X1064860Y1073460*
X1064314*
X1064041Y1073648*
X1063769Y1074023*
X1063632Y1074398*
X1060632Y1077398D02*
X1061996D01*
X1062132Y1075710*
X1061996Y1075898*
X1061587Y1076085*
X1061178*
X1060769Y1075898*
X1060496Y1075523*
X1060360Y1074960*
X1060496Y1074585*
X1060632Y1074023*
X1060905Y1073648*
X1061314Y1073460*
X1061723*
X1062132Y1073648*
X1062269Y1073835*
X1062405Y1074210*
X1057496Y1076835D02*
X1057632Y1077210D01*
X1058041Y1077398*
X1058314*
X1058723Y1077210*
X1058996Y1076648*
X1059132Y1075710*
Y1074773*
X1058996Y1074023*
X1058723Y1073648*
X1058314Y1073460*
X1058178*
X1057769Y1073648*
X1057496Y1074023*
X1057360Y1074585*
Y1074773*
X1057496Y1075335*
X1057769Y1075710*
X1058178Y1075898*
X1058314*
X1058723Y1075710*
X1058996Y1075335*
X1059132Y1074773*
X1063157Y1028998D02*
X1063294Y1029373D01*
X1063566Y1029748*
X1063839Y1029935*
X1064385*
X1064657Y1029748*
X1064930Y1029373*
X1065066Y1028998*
X1065203Y1028435*
Y1027498*
X1065066Y1026935*
X1064930Y1026560*
X1064657Y1026185*
X1064385Y1025998*
X1063839*
X1063566Y1026185*
X1063294Y1026560*
X1063157Y1026935*
X1060157Y1029935D02*
X1061521D01*
X1061657Y1028248*
X1061521Y1028435*
X1061112Y1028623*
X1060703*
X1060294Y1028435*
X1060021Y1028060*
X1059885Y1027498*
X1060021Y1027123*
X1060157Y1026560*
X1060430Y1026185*
X1060839Y1025998*
X1061248*
X1061657Y1026185*
X1061794Y1026373*
X1061930Y1026748*
X1056748Y1029935D02*
X1058112Y1025998D01*
X1058657Y1029935D02*
X1056748D01*
X1137455Y1034500D02*
X1137591Y1034875D01*
X1137864Y1035250*
X1138136Y1035438*
X1138136D02*
X1138682D01*
X1138682D02*
X1138955Y1035250D01*
X1139227Y1034875*
X1139364Y1034500*
X1139500Y1033938*
X1139500D02*
Y1033000D01*
X1139364Y1032438*
X1139364D02*
X1139227Y1032063D01*
X1139227D02*
X1138955Y1031688D01*
X1138955D02*
X1138682Y1031500D01*
X1138136*
X1137864Y1031688*
X1137864D02*
X1137591Y1032063D01*
X1137591D02*
X1137455Y1032438D01*
X1134455Y1035438D02*
X1135818D01*
X1135818D02*
X1135955Y1033750D01*
X1135818Y1033938*
X1135818D02*
X1135409Y1034125D01*
X1135000*
X1134591Y1033938*
X1134591D02*
X1134318Y1033563D01*
X1134318D02*
X1134182Y1033000D01*
X1134318Y1032625*
X1134455Y1032063*
X1134455D02*
X1134727Y1031688D01*
X1134727D02*
X1135136Y1031500D01*
X1135545*
X1135955Y1031688*
X1135955D02*
X1136091Y1031875D01*
X1136227Y1032250*
X1132273Y1035438D02*
X1132682Y1035250D01*
X1132818Y1034875*
Y1034500*
X1132682Y1034125*
X1132409Y1033938*
X1132409D02*
X1131864Y1033750D01*
X1131455Y1033563*
X1131455D02*
X1131182Y1033188D01*
X1131182D02*
X1131045Y1032813D01*
X1131045D02*
Y1032250D01*
X1131182Y1031875*
X1131318Y1031688*
X1131318D02*
X1131727Y1031500D01*
X1132273*
X1132682Y1031688*
X1132682D02*
X1132818Y1031875D01*
X1132955Y1032250*
Y1032813*
X1132955D02*
X1132818Y1033188D01*
X1132818D02*
X1132545Y1033563D01*
X1132545D02*
X1132136Y1033750D01*
X1131591Y1033938*
X1131591D02*
X1131318Y1034125D01*
X1131182Y1034500*
Y1034875*
X1131318Y1035250*
X1131727Y1035438*
X1131727D02*
X1132273D01*
X1136955Y1040500D02*
X1137091Y1040875D01*
X1137364Y1041250*
X1137636Y1041438*
X1137636D02*
X1138182D01*
X1138182D02*
X1138455Y1041250D01*
X1138727Y1040875*
X1138864Y1040500*
X1139000Y1039938*
X1139000D02*
Y1039000D01*
X1138864Y1038438*
X1138864D02*
X1138727Y1038063D01*
X1138727D02*
X1138455Y1037688D01*
X1138455D02*
X1138182Y1037500D01*
X1137636*
X1137364Y1037688*
X1137364D02*
X1137091Y1038063D01*
X1137091D02*
X1136955Y1038438D01*
X1133955Y1041438D02*
X1135318D01*
X1135318D02*
X1135455Y1039750D01*
X1135318Y1039938*
X1135318D02*
X1134909Y1040125D01*
X1134500*
X1134091Y1039938*
X1134091D02*
X1133818Y1039563D01*
X1133818D02*
X1133682Y1039000D01*
X1133818Y1038625*
X1133955Y1038063*
X1133955D02*
X1134227Y1037688D01*
X1134227D02*
X1134636Y1037500D01*
X1135045*
X1135455Y1037688*
X1135455D02*
X1135591Y1037875D01*
X1135727Y1038250*
X1130682Y1040125D02*
X1130818Y1039563D01*
X1130818D02*
X1131091Y1039188D01*
X1131091D02*
X1131500Y1039000D01*
X1131636*
X1132045Y1039188*
X1132045D02*
X1132318Y1039563D01*
X1132318D02*
X1132455Y1040125D01*
Y1040313*
X1132455D02*
X1132318Y1040875D01*
X1132045Y1041250*
X1131636Y1041438*
X1131636D02*
X1131500D01*
X1131500D02*
X1131091Y1041250D01*
X1130818Y1040875*
X1130682Y1040125*
Y1039188*
X1130682D02*
X1130818Y1038250D01*
X1131091Y1037688*
X1131091D02*
X1131500Y1037500D01*
X1131773*
X1132182Y1037688*
X1132182D02*
X1132318Y1038063D01*
X1136955Y1047000D02*
X1137091Y1047375D01*
X1137364Y1047750*
X1137636Y1047938*
X1137636D02*
X1138182D01*
X1138182D02*
X1138455Y1047750D01*
X1138727Y1047375*
X1138864Y1047000*
X1139000Y1046438*
X1139000D02*
Y1045500D01*
X1138864Y1044938*
X1138864D02*
X1138727Y1044563D01*
X1138727D02*
X1138455Y1044188D01*
X1138455D02*
X1138182Y1044000D01*
X1137636*
X1137364Y1044188*
X1137364D02*
X1137091Y1044563D01*
X1137091D02*
X1136955Y1044938D01*
X1134091Y1047375D02*
X1134227Y1047750D01*
X1134636Y1047938*
X1134636D02*
X1134909D01*
X1134909D02*
X1135318Y1047750D01*
X1135591Y1047188*
X1135591D02*
X1135727Y1046250D01*
Y1045313*
X1135727D02*
X1135591Y1044563D01*
X1135591D02*
X1135318Y1044188D01*
X1135318D02*
X1134909Y1044000D01*
X1134773*
X1134364Y1044188*
X1134364D02*
X1134091Y1044563D01*
X1134091D02*
X1133955Y1045125D01*
Y1045313*
X1133955D02*
X1134091Y1045875D01*
X1134364Y1046250*
X1134773Y1046438*
X1134773D02*
X1134909D01*
X1134909D02*
X1135318Y1046250D01*
X1135591Y1045875*
X1135727Y1045313*
X1131909Y1047938D02*
X1132318Y1047750D01*
X1132591Y1047188*
X1132591D02*
X1132727Y1046250D01*
Y1045688*
X1132727D02*
X1132591Y1044750D01*
X1132318Y1044188*
X1132318D02*
X1131909Y1044000D01*
X1131636*
X1131227Y1044188*
X1131227D02*
X1130955Y1044750D01*
X1130818Y1045688*
X1130818D02*
Y1046250D01*
X1130955Y1047188*
X1130955D02*
X1131227Y1047750D01*
X1131636Y1047938*
X1131636D02*
X1131909D01*
X1124955Y1100500D02*
X1125091Y1100875D01*
X1125364Y1101250*
X1125636Y1101438*
X1125636D02*
X1126182D01*
X1126182D02*
X1126455Y1101250D01*
X1126727Y1100875*
X1126864Y1100500*
X1127000Y1099938*
X1127000D02*
Y1099000D01*
X1126864Y1098438*
X1126864D02*
X1126727Y1098063D01*
X1126727D02*
X1126455Y1097688D01*
X1126455D02*
X1126182Y1097500D01*
X1125636*
X1125364Y1097688*
X1125364D02*
X1125091Y1098063D01*
X1125091D02*
X1124955Y1098438D01*
X1122091Y1100875D02*
X1122227Y1101250D01*
X1122636Y1101438*
X1122636D02*
X1122909D01*
X1122909D02*
X1123318Y1101250D01*
X1123591Y1100688*
X1123591D02*
X1123727Y1099750D01*
Y1098813*
X1123727D02*
X1123591Y1098063D01*
X1123591D02*
X1123318Y1097688D01*
X1123318D02*
X1122909Y1097500D01*
X1122773*
X1122364Y1097688*
X1122364D02*
X1122091Y1098063D01*
X1122091D02*
X1121955Y1098625D01*
Y1098813*
X1121955D02*
X1122091Y1099375D01*
X1122364Y1099750*
X1122773Y1099938*
X1122773D02*
X1122909D01*
X1122909D02*
X1123318Y1099750D01*
X1123591Y1099375*
X1123727Y1098813*
X1119364Y1101438D02*
X1120727Y1098813D01*
X1120727D02*
X1118682D01*
X1119364Y1101438D02*
Y1097500D01*
X1063632Y1086460D02*
X1063769Y1086835D01*
X1064041Y1087210*
X1064314Y1087398*
X1064860*
X1065132Y1087210*
X1065405Y1086835*
X1065541Y1086460*
X1065678Y1085898*
Y1084960*
X1065541Y1084398*
X1065405Y1084023*
X1065132Y1083648*
X1064860Y1083460*
X1064314*
X1064041Y1083648*
X1063769Y1084023*
X1063632Y1084398*
X1060769Y1086835D02*
X1060905Y1087210D01*
X1061314Y1087398*
X1061587*
X1061996Y1087210*
X1062269Y1086648*
X1062405Y1085710*
Y1084773*
X1062269Y1084023*
X1061996Y1083648*
X1061587Y1083460*
X1061451*
X1061041Y1083648*
X1060769Y1084023*
X1060632Y1084585*
Y1084773*
X1060769Y1085335*
X1061041Y1085710*
X1061451Y1085898*
X1061587*
X1061996Y1085710*
X1062269Y1085335*
X1062405Y1084773*
X1057632Y1087398D02*
X1058996D01*
X1059132Y1085710*
X1058996Y1085898*
X1058587Y1086085*
X1058178*
X1057769Y1085898*
X1057496Y1085523*
X1057360Y1084960*
X1057496Y1084585*
X1057632Y1084023*
X1057905Y1083648*
X1058314Y1083460*
X1058723*
X1059132Y1083648*
X1059269Y1083835*
X1059405Y1084210*
X1063632Y1096460D02*
X1063769Y1096835D01*
X1064041Y1097210*
X1064314Y1097398*
X1064860*
X1065132Y1097210*
X1065405Y1096835*
X1065541Y1096460*
X1065678Y1095898*
Y1094960*
X1065541Y1094398*
X1065405Y1094023*
X1065132Y1093648*
X1064860Y1093460*
X1064314*
X1064041Y1093648*
X1063769Y1094023*
X1063632Y1094398*
X1060769Y1096835D02*
X1060905Y1097210D01*
X1061314Y1097398*
X1061587*
X1061996Y1097210*
X1062269Y1096648*
X1062405Y1095710*
Y1094773*
X1062269Y1094023*
X1061996Y1093648*
X1061587Y1093460*
X1061451*
X1061041Y1093648*
X1060769Y1094023*
X1060632Y1094585*
Y1094773*
X1060769Y1095335*
X1061041Y1095710*
X1061451Y1095898*
X1061587*
X1061996Y1095710*
X1062269Y1095335*
X1062405Y1094773*
X1057769Y1096835D02*
X1057905Y1097210D01*
X1058314Y1097398*
X1058587*
X1058996Y1097210*
X1059269Y1096648*
X1059405Y1095710*
Y1094773*
X1059269Y1094023*
X1058996Y1093648*
X1058587Y1093460*
X1058451*
X1058041Y1093648*
X1057769Y1094023*
X1057632Y1094585*
Y1094773*
X1057769Y1095335*
X1058041Y1095710*
X1058451Y1095898*
X1058587*
X1058996Y1095710*
X1059269Y1095335*
X1059405Y1094773*
X1063632Y1106460D02*
X1063769Y1106835D01*
X1064041Y1107210*
X1064314Y1107398*
X1064860*
X1065132Y1107210*
X1065405Y1106835*
X1065541Y1106460*
X1065678Y1105898*
Y1104960*
X1065541Y1104398*
X1065405Y1104023*
X1065132Y1103648*
X1064860Y1103460*
X1064314*
X1064041Y1103648*
X1063769Y1104023*
X1063632Y1104398*
X1060769Y1106835D02*
X1060905Y1107210D01*
X1061314Y1107398*
X1061587*
X1061996Y1107210*
X1062269Y1106648*
X1062405Y1105710*
Y1104773*
X1062269Y1104023*
X1061996Y1103648*
X1061587Y1103460*
X1061451*
X1061041Y1103648*
X1060769Y1104023*
X1060632Y1104585*
Y1104773*
X1060769Y1105335*
X1061041Y1105710*
X1061451Y1105898*
X1061587*
X1061996Y1105710*
X1062269Y1105335*
X1062405Y1104773*
X1057496Y1107398D02*
X1058860Y1103460D01*
X1059405Y1107398D02*
X1057496D01*
X1063157Y1055998D02*
X1063294Y1056373D01*
X1063566Y1056748*
X1063839Y1056935*
X1064385*
X1064657Y1056748*
X1064930Y1056373*
X1065066Y1055998*
X1065203Y1055435*
Y1054498*
X1065066Y1053935*
X1064930Y1053560*
X1064657Y1053185*
X1064385Y1052998*
X1063839*
X1063566Y1053185*
X1063294Y1053560*
X1063157Y1053935*
X1060294Y1056373D02*
X1060430Y1056748D01*
X1060839Y1056935*
X1061112*
X1061521Y1056748*
X1061794Y1056185*
X1061930Y1055248*
Y1054310*
X1061794Y1053560*
X1061521Y1053185*
X1061112Y1052998*
X1060976*
X1060566Y1053185*
X1060294Y1053560*
X1060157Y1054123*
Y1054310*
X1060294Y1054873*
X1060566Y1055248*
X1060976Y1055435*
X1061112*
X1061521Y1055248*
X1061794Y1054873*
X1061930Y1054310*
X1058248Y1056935D02*
X1058657Y1056748D01*
X1058794Y1056373*
Y1055998*
X1058657Y1055623*
X1058385Y1055435*
X1057839Y1055248*
X1057430Y1055060*
X1057157Y1054685*
X1057021Y1054310*
Y1053748*
X1057157Y1053373*
X1057294Y1053185*
X1057703Y1052998*
X1058248*
X1058657Y1053185*
X1058794Y1053373*
X1058930Y1053748*
Y1054310*
X1058794Y1054685*
X1058521Y1055060*
X1058112Y1055248*
X1057566Y1055435*
X1057294Y1055623*
X1057157Y1055998*
Y1056373*
X1057294Y1056748*
X1057703Y1056935*
X1058248*
X1136955Y1063000D02*
X1137091Y1063375D01*
X1137364Y1063750*
X1137636Y1063938*
X1137636D02*
X1138182D01*
X1138182D02*
X1138455Y1063750D01*
X1138727Y1063375*
X1138864Y1063000*
X1139000Y1062438*
X1139000D02*
Y1061500D01*
X1138864Y1060938*
X1138864D02*
X1138727Y1060563D01*
X1138727D02*
X1138455Y1060188D01*
X1138455D02*
X1138182Y1060000D01*
X1137636*
X1137364Y1060188*
X1137364D02*
X1137091Y1060563D01*
X1137091D02*
X1136955Y1060938D01*
X1134091Y1063375D02*
X1134227Y1063750D01*
X1134636Y1063938*
X1134636D02*
X1134909D01*
X1134909D02*
X1135318Y1063750D01*
X1135591Y1063188*
X1135591D02*
X1135727Y1062250D01*
Y1061313*
X1135727D02*
X1135591Y1060563D01*
X1135591D02*
X1135318Y1060188D01*
X1135318D02*
X1134909Y1060000D01*
X1134773*
X1134364Y1060188*
X1134364D02*
X1134091Y1060563D01*
X1134091D02*
X1133955Y1061125D01*
Y1061313*
X1133955D02*
X1134091Y1061875D01*
X1134364Y1062250*
X1134773Y1062438*
X1134773D02*
X1134909D01*
X1134909D02*
X1135318Y1062250D01*
X1135591Y1061875*
X1135727Y1061313*
X1130955Y1062625D02*
X1131091Y1062063D01*
X1131091D02*
X1131364Y1061688D01*
X1131364D02*
X1131773Y1061500D01*
X1131909*
X1132318Y1061688*
X1132318D02*
X1132591Y1062063D01*
X1132591D02*
X1132727Y1062625D01*
Y1062813*
X1132727D02*
X1132591Y1063375D01*
X1132318Y1063750*
X1131909Y1063938*
X1131909D02*
X1131773D01*
X1131773D02*
X1131364Y1063750D01*
X1131091Y1063375*
X1130955Y1062625*
Y1061688*
X1130955D02*
X1131091Y1060750D01*
X1131364Y1060188*
X1131364D02*
X1131773Y1060000D01*
X1132045*
X1132455Y1060188*
X1132455D02*
X1132591Y1060563D01*
X1137455Y1069000D02*
X1137591Y1069375D01*
X1137864Y1069750*
X1138136Y1069938*
X1138136D02*
X1138682D01*
X1138682D02*
X1138955Y1069750D01*
X1139227Y1069375*
X1139364Y1069000*
X1139500Y1068438*
X1139500D02*
Y1067500D01*
X1139364Y1066938*
X1139364D02*
X1139227Y1066563D01*
X1139227D02*
X1138955Y1066188D01*
X1138955D02*
X1138682Y1066000D01*
X1138136*
X1137864Y1066188*
X1137864D02*
X1137591Y1066563D01*
X1137591D02*
X1137455Y1066938D01*
X1134318Y1069938D02*
X1135682Y1066000D01*
X1136227Y1069938D02*
X1134318D01*
X1132273D02*
X1132682Y1069750D01*
X1132955Y1069188*
X1132955D02*
X1133091Y1068250D01*
Y1067688*
X1133091D02*
X1132955Y1066750D01*
X1132682Y1066188*
X1132682D02*
X1132273Y1066000D01*
X1132000*
X1131591Y1066188*
X1131591D02*
X1131318Y1066750D01*
X1131182Y1067688*
X1131182D02*
Y1068250D01*
X1131318Y1069188*
X1131318D02*
X1131591Y1069750D01*
X1132000Y1069938*
X1132000D02*
X1132273D01*
X1136705Y1075450D02*
X1136841Y1075825D01*
X1137114Y1076200*
X1137386Y1076388*
X1137932*
X1138205Y1076200*
X1138477Y1075825*
X1138614Y1075450*
X1138750Y1074888*
Y1073950*
X1138614Y1073388*
X1138477Y1073013*
X1138205Y1072638*
X1137932Y1072450*
X1137386*
X1137114Y1072638*
X1136841Y1073013*
X1136705Y1073388*
X1133568Y1076388D02*
X1134932Y1072450D01*
X1135477Y1076388D02*
X1133568D01*
X1132341Y1075638D02*
X1132068Y1075825D01*
X1131659Y1076388*
Y1072450*
X1262438Y1084000D02*
X1258500D01*
X1262438D02*
Y1085227D01*
X1262438D02*
X1262250Y1085636D01*
X1262063Y1085773*
X1262063D02*
X1261688Y1085909D01*
X1261688D02*
X1261313D01*
X1261313D02*
X1260938Y1085773D01*
X1260938D02*
X1260750Y1085636D01*
X1260563Y1085227*
X1260563D02*
Y1084000D01*
Y1084955D02*
X1258500Y1085909D01*
X1261688Y1087136D02*
X1261875Y1087409D01*
X1262438Y1087818*
X1262438D02*
X1258500D01*
X1327438Y1063000D02*
X1323500D01*
X1327438D02*
Y1064227D01*
X1327438D02*
X1327250Y1064636D01*
X1327063Y1064773*
X1327063D02*
X1326688Y1064909D01*
X1326688D02*
X1326313D01*
X1326313D02*
X1325938Y1064773D01*
X1325938D02*
X1325750Y1064636D01*
X1325563Y1064227*
X1325563D02*
Y1063000D01*
Y1063955D02*
X1323500Y1064909D01*
X1326688Y1066136D02*
X1326875Y1066409D01*
X1327438Y1066818*
X1327438D02*
X1323500D01*
X1327438Y1069409D02*
X1324813Y1068045D01*
X1324813D02*
Y1070091D01*
X1327438Y1069409D02*
X1323500D01*
X1301938Y1061500D02*
X1298000D01*
X1301938D02*
Y1062727D01*
X1301938D02*
X1301750Y1063136D01*
X1301563Y1063273*
X1301563D02*
X1301188Y1063409D01*
X1301188D02*
X1300813D01*
X1300813D02*
X1300438Y1063273D01*
X1300438D02*
X1300250Y1063136D01*
X1300063Y1062727*
X1300063D02*
Y1061500D01*
Y1062455D02*
X1298000Y1063409D01*
X1301188Y1064636D02*
X1301375Y1064909D01*
X1301938Y1065318*
X1301938D02*
X1298000D01*
X1301938Y1068318D02*
Y1066955D01*
X1301938D02*
X1300250Y1066818D01*
X1300438Y1066955*
X1300438D02*
X1300625Y1067364D01*
Y1067773*
X1300438Y1068182*
X1300438D02*
X1300063Y1068455D01*
X1300063D02*
X1299500Y1068591D01*
X1299125Y1068455*
X1298563Y1068318*
X1298563D02*
X1298188Y1068045D01*
X1298188D02*
X1298000Y1067636D01*
Y1067227*
X1298188Y1066818*
X1298188D02*
X1298375Y1066682D01*
X1298750Y1066545*
X1302938Y1044000D02*
X1299000D01*
X1302938D02*
Y1045227D01*
X1302938D02*
X1302750Y1045636D01*
X1302563Y1045773*
X1302563D02*
X1302188Y1045909D01*
X1302188D02*
X1301813D01*
X1301813D02*
X1301438Y1045773D01*
X1301438D02*
X1301250Y1045636D01*
X1301063Y1045227*
X1301063D02*
Y1044000D01*
Y1044955D02*
X1299000Y1045909D01*
X1302188Y1047136D02*
X1302375Y1047409D01*
X1302938Y1047818*
X1302938D02*
X1299000D01*
X1302375Y1050682D02*
X1302750Y1050545D01*
X1302938Y1050136*
X1302938D02*
Y1049864D01*
X1302938D02*
X1302750Y1049455D01*
X1302188Y1049182*
X1302188D02*
X1301250Y1049045D01*
X1300313*
X1300313D02*
X1299563Y1049182D01*
X1299563D02*
X1299188Y1049455D01*
X1299188D02*
X1299000Y1049864D01*
Y1050000*
X1299188Y1050409*
X1299188D02*
X1299563Y1050682D01*
X1299563D02*
X1300125Y1050818D01*
X1300313*
X1300313D02*
X1300875Y1050682D01*
X1301250Y1050409*
X1301438Y1050000*
X1301438D02*
Y1049864D01*
X1301438D02*
X1301250Y1049455D01*
X1300875Y1049182*
X1300313Y1049045*
X1302938Y1053818D02*
Y1052455D01*
X1302938D02*
X1301250Y1052318D01*
X1301438Y1052455*
X1301438D02*
X1301625Y1052864D01*
Y1053273*
X1301438Y1053682*
X1301438D02*
X1301063Y1053955D01*
X1301063D02*
X1300500Y1054091D01*
X1300125Y1053955*
X1299563Y1053818*
X1299563D02*
X1299188Y1053545D01*
X1299188D02*
X1299000Y1053136D01*
Y1052727*
X1299188Y1052318*
X1299188D02*
X1299375Y1052182D01*
X1299750Y1052045*
X1307938Y1044000D02*
X1304000D01*
X1307938D02*
Y1045227D01*
X1307938D02*
X1307750Y1045636D01*
X1307563Y1045773*
X1307563D02*
X1307188Y1045909D01*
X1307188D02*
X1306813D01*
X1306813D02*
X1306438Y1045773D01*
X1306438D02*
X1306250Y1045636D01*
X1306063Y1045227*
X1306063D02*
Y1044000D01*
Y1044955D02*
X1304000Y1045909D01*
X1307188Y1047136D02*
X1307375Y1047409D01*
X1307938Y1047818*
X1307938D02*
X1304000D01*
X1307375Y1050682D02*
X1307750Y1050545D01*
X1307938Y1050136*
X1307938D02*
Y1049864D01*
X1307938D02*
X1307750Y1049455D01*
X1307188Y1049182*
X1307188D02*
X1306250Y1049045D01*
X1305313*
X1305313D02*
X1304563Y1049182D01*
X1304563D02*
X1304188Y1049455D01*
X1304188D02*
X1304000Y1049864D01*
Y1050000*
X1304188Y1050409*
X1304188D02*
X1304563Y1050682D01*
X1304563D02*
X1305125Y1050818D01*
X1305313*
X1305313D02*
X1305875Y1050682D01*
X1306250Y1050409*
X1306438Y1050000*
X1306438D02*
Y1049864D01*
X1306438D02*
X1306250Y1049455D01*
X1305875Y1049182*
X1305313Y1049045*
X1307375Y1053682D02*
X1307750Y1053545D01*
X1307938Y1053136*
X1307938D02*
Y1052864D01*
X1307938D02*
X1307750Y1052455D01*
X1307188Y1052182*
X1307188D02*
X1306250Y1052045D01*
X1305313*
X1305313D02*
X1304563Y1052182D01*
X1304563D02*
X1304188Y1052455D01*
X1304188D02*
X1304000Y1052864D01*
Y1053000*
X1304188Y1053409*
X1304188D02*
X1304563Y1053682D01*
X1304563D02*
X1305125Y1053818D01*
X1305313*
X1305313D02*
X1305875Y1053682D01*
X1306250Y1053409*
X1306438Y1053000*
X1306438D02*
Y1052864D01*
X1306438D02*
X1306250Y1052455D01*
X1305875Y1052182*
X1305313Y1052045*
X1048592Y1108503D02*
X1044655D01*
X1048592D02*
Y1109730D01*
X1048405Y1110139*
X1048217Y1110275*
X1047842Y1110412*
X1047467*
X1047092Y1110275*
X1046905Y1110139*
X1046717Y1109730*
Y1108503*
Y1109457D02*
X1044655Y1110412D01*
X1047842Y1111639D02*
X1048030Y1111912D01*
X1048592Y1112321*
X1044655*
X1047280Y1115321D02*
X1046717Y1115185D01*
X1046342Y1114912*
X1046155Y1114503*
Y1114366*
X1046342Y1113957*
X1046717Y1113685*
X1047280Y1113548*
X1047467*
X1048030Y1113685*
X1048405Y1113957*
X1048592Y1114366*
Y1114503*
X1048405Y1114912*
X1048030Y1115185*
X1047280Y1115321*
X1046342*
X1045405Y1115185*
X1044842Y1114912*
X1044655Y1114503*
Y1114230*
X1044842Y1113821*
X1045217Y1113685*
X1047842Y1116548D02*
X1048030Y1116821D01*
X1048592Y1117230*
X1044655*
X1297594Y1044450D02*
X1293656D01*
X1297594D02*
Y1045677D01*
X1297406Y1046086*
X1297219Y1046223*
X1296844Y1046359*
X1296469*
X1296094Y1046223*
X1295906Y1046086*
X1295719Y1045677*
Y1044450*
Y1045405D02*
X1293656Y1046359D01*
X1296844Y1047586D02*
X1297031Y1047859D01*
X1297594Y1048268*
X1293656*
X1296281Y1051268D02*
X1295719Y1051132D01*
X1295344Y1050859*
X1295156Y1050450*
Y1050314*
X1295344Y1049905*
X1295719Y1049632*
X1296281Y1049495*
X1296469*
X1297031Y1049632*
X1297406Y1049905*
X1297594Y1050314*
Y1050450*
X1297406Y1050859*
X1297031Y1051132*
X1296281Y1051268*
X1295344*
X1294406Y1051132*
X1293844Y1050859*
X1293656Y1050450*
Y1050177*
X1293844Y1049768*
X1294219Y1049632*
X1296656Y1052632D02*
X1296844D01*
X1297219Y1052768*
X1297406Y1052905*
X1297594Y1053177*
Y1053723*
X1297406Y1053995*
X1297219Y1054132*
X1296844Y1054268*
X1296469*
X1296094Y1054132*
X1295531Y1053859*
X1293656Y1052495*
Y1054405*
X1260515Y1017860D02*
X1256578D01*
X1260515D02*
Y1019087D01*
X1260328Y1019496*
X1260140Y1019633*
X1259765Y1019769*
X1259390*
X1259015Y1019633*
X1258828Y1019496*
X1258640Y1019087*
Y1017860*
Y1018815D02*
X1256578Y1019769D01*
X1259578Y1021133D02*
X1259765D01*
X1260140Y1021269*
X1260328Y1021406*
X1260515Y1021678*
Y1022224*
X1260328Y1022496*
X1260140Y1022633*
X1259765Y1022769*
X1259390*
X1259015Y1022633*
X1258453Y1022360*
X1256578Y1020996*
Y1022906*
X1260094Y1052382D02*
X1256156D01*
X1260094D02*
Y1053609D01*
X1259906Y1054018*
X1259719Y1054155*
X1259344Y1054291*
X1258969*
X1258594Y1054155*
X1258406Y1054018*
X1258219Y1053609*
Y1052382*
Y1053336D02*
X1256156Y1054291D01*
X1259156Y1055655D02*
X1259344D01*
X1259719Y1055791*
X1259906Y1055927*
X1260094Y1056200*
Y1056745*
X1259906Y1057018*
X1259719Y1057155*
X1259344Y1057291*
X1258969*
X1258594Y1057155*
X1258031Y1056882*
X1256156Y1055518*
Y1057427*
X1260094Y1059473D02*
X1259906Y1059064D01*
X1259344Y1058791*
X1258406Y1058655*
X1257844*
X1256906Y1058791*
X1256344Y1059064*
X1256156Y1059473*
Y1059745*
X1256344Y1060155*
X1256906Y1060427*
X1257844Y1060564*
X1258406*
X1259344Y1060427*
X1259906Y1060155*
X1260094Y1059745*
Y1059473*
X1259344Y1061791D02*
X1259531Y1062064D01*
X1260094Y1062473*
X1256156*
X1287594Y1068768D02*
X1283656D01*
X1287594D02*
Y1069995D01*
X1287406Y1070405*
X1287219Y1070541*
X1286844Y1070677*
X1286469*
X1286094Y1070541*
X1285906Y1070405*
X1285719Y1069995*
Y1068768*
Y1069723D02*
X1283656Y1070677D01*
X1286656Y1072041D02*
X1286844D01*
X1287219Y1072177*
X1287406Y1072314*
X1287594Y1072586*
Y1073132*
X1287406Y1073405*
X1287219Y1073541*
X1286844Y1073677*
X1286469*
X1286094Y1073541*
X1285531Y1073268*
X1283656Y1071905*
Y1073814*
X1287594Y1075859D02*
X1287406Y1075450D01*
X1286844Y1075177*
X1285906Y1075041*
X1285344*
X1284406Y1075177*
X1283844Y1075450*
X1283656Y1075859*
Y1076132*
X1283844Y1076541*
X1284406Y1076814*
X1285344Y1076950*
X1285906*
X1286844Y1076814*
X1287406Y1076541*
X1287594Y1076132*
Y1075859*
X1286656Y1078314D02*
X1286844D01*
X1287219Y1078450*
X1287406Y1078586*
X1287594Y1078859*
Y1079405*
X1287406Y1079677*
X1287219Y1079814*
X1286844Y1079950*
X1286469*
X1286094Y1079814*
X1285531Y1079541*
X1283656Y1078177*
Y1080086*
X1292594Y1068768D02*
X1288656D01*
X1292594D02*
Y1069995D01*
X1292406Y1070405*
X1292219Y1070541*
X1291844Y1070677*
X1291469*
X1291094Y1070541*
X1290906Y1070405*
X1290719Y1069995*
Y1068768*
Y1069723D02*
X1288656Y1070677D01*
X1291656Y1072041D02*
X1291844D01*
X1292219Y1072177*
X1292406Y1072314*
X1292594Y1072586*
Y1073132*
X1292406Y1073405*
X1292219Y1073541*
X1291844Y1073677*
X1291469*
X1291094Y1073541*
X1290531Y1073268*
X1288656Y1071905*
Y1073814*
X1292594Y1075859D02*
X1292406Y1075450D01*
X1291844Y1075177*
X1290906Y1075041*
X1290344*
X1289406Y1075177*
X1288844Y1075450*
X1288656Y1075859*
Y1076132*
X1288844Y1076541*
X1289406Y1076814*
X1290344Y1076950*
X1290906*
X1291844Y1076814*
X1292406Y1076541*
X1292594Y1076132*
Y1075859*
Y1078450D02*
Y1079950D01*
X1291094Y1079132*
Y1079541*
X1290906Y1079814*
X1290719Y1079950*
X1290156Y1080086*
X1289781*
X1289219Y1079950*
X1288844Y1079677*
X1288656Y1079268*
Y1078859*
X1288844Y1078450*
X1289031Y1078314*
X1289406Y1078177*
X1297594Y1068700D02*
X1293656D01*
X1297594D02*
Y1069927D01*
X1297406Y1070336*
X1297219Y1070473*
X1296844Y1070609*
X1296469*
X1296094Y1070473*
X1295906Y1070336*
X1295719Y1069927*
Y1068700*
Y1069655D02*
X1293656Y1070609D01*
X1296656Y1071973D02*
X1296844D01*
X1297219Y1072109*
X1297406Y1072245*
X1297594Y1072518*
Y1073064*
X1297406Y1073336*
X1297219Y1073473*
X1296844Y1073609*
X1296469*
X1296094Y1073473*
X1295531Y1073200*
X1293656Y1071836*
Y1073745*
X1297594Y1075791D02*
X1297406Y1075382D01*
X1296844Y1075109*
X1295906Y1074973*
X1295344*
X1294406Y1075109*
X1293844Y1075382*
X1293656Y1075791*
Y1076064*
X1293844Y1076473*
X1294406Y1076745*
X1295344Y1076882*
X1295906*
X1296844Y1076745*
X1297406Y1076473*
X1297594Y1076064*
Y1075791*
Y1079473D02*
X1294969Y1078109D01*
Y1080155*
X1297594Y1079473D02*
X1293656D01*
X1309413Y1105063D02*
Y1101125D01*
Y1105063D02*
X1308186D01*
X1307777Y1104875*
X1307640Y1104688*
X1307504Y1104313*
Y1103938*
X1307640Y1103563*
X1307777Y1103375*
X1308186Y1103188*
X1309413*
X1308458D02*
X1307504Y1101125D01*
X1306140Y1104125D02*
Y1104313D01*
X1306004Y1104688*
X1305868Y1104875*
X1305595Y1105063*
X1305049*
X1304777Y1104875*
X1304640Y1104688*
X1304504Y1104313*
Y1103938*
X1304640Y1103563*
X1304913Y1103000*
X1306277Y1101125*
X1304368*
X1302322Y1105063D02*
X1302731Y1104875D01*
X1303004Y1104313*
X1303140Y1103375*
Y1102813*
X1303004Y1101875*
X1302731Y1101313*
X1302322Y1101125*
X1302049*
X1301640Y1101313*
X1301368Y1101875*
X1301231Y1102813*
Y1103375*
X1301368Y1104313*
X1301640Y1104875*
X1302049Y1105063*
X1302322*
X1298095D02*
X1299458Y1101125D01*
X1300004Y1105063D02*
X1298095D01*
X1307000Y1021938D02*
Y1018000D01*
Y1021938D02*
X1305773D01*
X1305773D02*
X1305364Y1021750D01*
X1305227Y1021563*
X1305227D02*
X1305091Y1021188D01*
X1305091D02*
Y1020813D01*
X1305091D02*
X1305227Y1020438D01*
X1305227D02*
X1305364Y1020250D01*
X1305773Y1020063*
X1305773D02*
X1307000D01*
X1306045D02*
X1305091Y1018000D01*
X1303727Y1021000D02*
Y1021188D01*
X1303727D02*
X1303591Y1021563D01*
X1303591D02*
X1303455Y1021750D01*
X1303182Y1021938*
X1303182D02*
X1302636D01*
X1302636D02*
X1302364Y1021750D01*
X1302227Y1021563*
X1302227D02*
X1302091Y1021188D01*
X1302091D02*
Y1020813D01*
X1302091D02*
X1302227Y1020438D01*
X1302227D02*
X1302500Y1019875D01*
X1303864Y1018000*
X1301955*
X1300727Y1021188D02*
X1300455Y1021375D01*
X1300045Y1021938*
X1300045D02*
Y1018000D01*
X1298682Y1021000D02*
Y1021188D01*
X1298682D02*
X1298545Y1021563D01*
X1298545D02*
X1298409Y1021750D01*
X1298136Y1021938*
X1298136D02*
X1297591D01*
X1297591D02*
X1297318Y1021750D01*
X1297182Y1021563*
X1297182D02*
X1297045Y1021188D01*
X1297045D02*
Y1020813D01*
X1297045D02*
X1297182Y1020438D01*
X1297182D02*
X1297455Y1019875D01*
X1298818Y1018000*
X1296909*
X1276000Y1045938D02*
Y1042000D01*
Y1045938D02*
X1274773D01*
X1274364Y1045750*
X1274227Y1045563*
X1274091Y1045188*
Y1044813*
X1274227Y1044438*
X1274364Y1044250*
X1274773Y1044063*
X1276000*
X1275045D02*
X1274091Y1042000D01*
X1272727Y1045000D02*
Y1045188D01*
X1272591Y1045563*
X1272455Y1045750*
X1272182Y1045938*
X1271636*
X1271364Y1045750*
X1271227Y1045563*
X1271091Y1045188*
Y1044813*
X1271227Y1044438*
X1271500Y1043875*
X1272864Y1042000*
X1270955*
X1269727Y1045188D02*
X1269455Y1045375D01*
X1269045Y1045938*
Y1042000*
X1267545Y1045938D02*
X1266045D01*
X1266864Y1044438*
X1266455*
X1266182Y1044250*
X1266045Y1044063*
X1265909Y1043500*
Y1043125*
X1266045Y1042563*
X1266318Y1042188*
X1266727Y1042000*
X1267136*
X1267545Y1042188*
X1267682Y1042375*
X1267818Y1042750*
X1186938Y1090500D02*
X1183000D01*
X1186938D02*
Y1091727D01*
X1186938D02*
X1186750Y1092136D01*
X1186563Y1092273*
X1186563D02*
X1186188Y1092409D01*
X1186188D02*
X1185813D01*
X1185813D02*
X1185438Y1092273D01*
X1185438D02*
X1185250Y1092136D01*
X1185063Y1091727*
X1185063D02*
Y1090500D01*
Y1091455D02*
X1183000Y1092409D01*
X1186000Y1093773D02*
X1186188D01*
X1186188D02*
X1186563Y1093909D01*
X1186563D02*
X1186750Y1094045D01*
X1186938Y1094318*
X1186938D02*
Y1094864D01*
X1186938D02*
X1186750Y1095136D01*
X1186563Y1095273*
X1186563D02*
X1186188Y1095409D01*
X1186188D02*
X1185813D01*
X1185813D02*
X1185438Y1095273D01*
X1185438D02*
X1184875Y1095000D01*
X1183000Y1093636*
Y1095545*
X1186000Y1096909D02*
X1186188D01*
X1186188D02*
X1186563Y1097045D01*
X1186563D02*
X1186750Y1097182D01*
X1186938Y1097455*
X1186938D02*
Y1098000D01*
X1186938D02*
X1186750Y1098273D01*
X1186563Y1098409*
X1186563D02*
X1186188Y1098545D01*
X1186188D02*
X1185813D01*
X1185813D02*
X1185438Y1098409D01*
X1185438D02*
X1184875Y1098136D01*
X1183000Y1096773*
Y1098682*
X1186000Y1100045D02*
X1186188D01*
X1186188D02*
X1186563Y1100182D01*
X1186563D02*
X1186750Y1100318D01*
X1186938Y1100591*
X1186938D02*
Y1101136D01*
X1186938D02*
X1186750Y1101409D01*
X1186563Y1101545*
X1186563D02*
X1186188Y1101682D01*
X1186188D02*
X1185813D01*
X1185813D02*
X1185438Y1101545D01*
X1185438D02*
X1184875Y1101273D01*
X1183000Y1099909*
Y1101818*
X1193938Y1091000D02*
X1190000D01*
X1193938D02*
Y1092227D01*
X1193938D02*
X1193750Y1092636D01*
X1193563Y1092773*
X1193563D02*
X1193188Y1092909D01*
X1193188D02*
X1192813D01*
X1192813D02*
X1192438Y1092773D01*
X1192438D02*
X1192250Y1092636D01*
X1192063Y1092227*
X1192063D02*
Y1091000D01*
Y1091955D02*
X1190000Y1092909D01*
X1193000Y1094273D02*
X1193188D01*
X1193188D02*
X1193563Y1094409D01*
X1193563D02*
X1193750Y1094545D01*
X1193938Y1094818*
X1193938D02*
Y1095364D01*
X1193938D02*
X1193750Y1095636D01*
X1193563Y1095773*
X1193563D02*
X1193188Y1095909D01*
X1193188D02*
X1192813D01*
X1192813D02*
X1192438Y1095773D01*
X1192438D02*
X1191875Y1095500D01*
X1190000Y1094136*
Y1096045*
X1193000Y1097409D02*
X1193188D01*
X1193188D02*
X1193563Y1097545D01*
X1193563D02*
X1193750Y1097682D01*
X1193938Y1097955*
X1193938D02*
Y1098500D01*
X1193938D02*
X1193750Y1098773D01*
X1193563Y1098909*
X1193563D02*
X1193188Y1099045D01*
X1193188D02*
X1192813D01*
X1192813D02*
X1192438Y1098909D01*
X1192438D02*
X1191875Y1098636D01*
X1190000Y1097273*
Y1099182*
X1193938Y1100682D02*
Y1102182D01*
X1193938D02*
X1192438Y1101364D01*
X1192438D02*
Y1101773D01*
X1192438D02*
X1192250Y1102045D01*
X1192063Y1102182*
X1192063D02*
X1191500Y1102318D01*
X1191125*
X1190563Y1102182*
X1190563D02*
X1190188Y1101909D01*
X1190188D02*
X1190000Y1101500D01*
Y1101091*
X1190188Y1100682*
X1190188D02*
X1190375Y1100545D01*
X1190750Y1100409*
X1132500Y1120438D02*
Y1116500D01*
Y1120438D02*
X1131273D01*
X1131273D02*
X1130864Y1120250D01*
X1130727Y1120063*
X1130727D02*
X1130591Y1119688D01*
X1130591D02*
Y1119313D01*
X1130591D02*
X1130727Y1118938D01*
X1130727D02*
X1130864Y1118750D01*
X1131273Y1118563*
X1131273D02*
X1132500D01*
X1131545D02*
X1130591Y1116500D01*
X1129227Y1119500D02*
Y1119688D01*
X1129227D02*
X1129091Y1120063D01*
X1129091D02*
X1128955Y1120250D01*
X1128682Y1120438*
X1128682D02*
X1128136D01*
X1128136D02*
X1127864Y1120250D01*
X1127727Y1120063*
X1127727D02*
X1127591Y1119688D01*
X1127591D02*
Y1119313D01*
X1127591D02*
X1127727Y1118938D01*
X1127727D02*
X1128000Y1118375D01*
X1129364Y1116500*
X1127455*
X1126091Y1119500D02*
Y1119688D01*
X1126091D02*
X1125955Y1120063D01*
X1125955D02*
X1125818Y1120250D01*
X1125545Y1120438*
X1125545D02*
X1125000D01*
X1125000D02*
X1124727Y1120250D01*
X1124591Y1120063*
X1124591D02*
X1124455Y1119688D01*
X1124455D02*
Y1119313D01*
X1124455D02*
X1124591Y1118938D01*
X1124591D02*
X1124864Y1118375D01*
X1126227Y1116500*
X1124318*
X1121727Y1120438D02*
X1123091Y1117813D01*
X1123091D02*
X1121045D01*
X1121727Y1120438D02*
Y1116500D01*
X1162000Y1120438D02*
Y1116500D01*
Y1120438D02*
X1160773D01*
X1160773D02*
X1160364Y1120250D01*
X1160227Y1120063*
X1160227D02*
X1160091Y1119688D01*
X1160091D02*
Y1119313D01*
X1160091D02*
X1160227Y1118938D01*
X1160227D02*
X1160364Y1118750D01*
X1160773Y1118563*
X1160773D02*
X1162000D01*
X1161045D02*
X1160091Y1116500D01*
X1158727Y1119500D02*
Y1119688D01*
X1158727D02*
X1158591Y1120063D01*
X1158591D02*
X1158455Y1120250D01*
X1158182Y1120438*
X1158182D02*
X1157636D01*
X1157636D02*
X1157364Y1120250D01*
X1157227Y1120063*
X1157227D02*
X1157091Y1119688D01*
X1157091D02*
Y1119313D01*
X1157091D02*
X1157227Y1118938D01*
X1157227D02*
X1157500Y1118375D01*
X1158864Y1116500*
X1156955*
X1155591Y1119500D02*
Y1119688D01*
X1155591D02*
X1155455Y1120063D01*
X1155455D02*
X1155318Y1120250D01*
X1155045Y1120438*
X1155045D02*
X1154500D01*
X1154500D02*
X1154227Y1120250D01*
X1154091Y1120063*
X1154091D02*
X1153955Y1119688D01*
X1153955D02*
Y1119313D01*
X1153955D02*
X1154091Y1118938D01*
X1154091D02*
X1154364Y1118375D01*
X1155727Y1116500*
X1153818*
X1150682Y1120438D02*
X1152045Y1116500D01*
X1152591Y1120438D02*
X1150682D01*
X1268015Y1017860D02*
X1264078D01*
X1268015D02*
Y1019087D01*
X1267828Y1019496*
X1267640Y1019633*
X1267265Y1019769*
X1266890*
X1266515Y1019633*
X1266328Y1019496*
X1266140Y1019087*
Y1017860*
Y1018815D02*
X1264078Y1019769D01*
X1268015Y1022360D02*
X1265390Y1020996D01*
Y1023042*
X1268015Y1022360D02*
X1264078D01*
X1274438Y1018500D02*
X1270500D01*
X1274438D02*
Y1019727D01*
X1274438D02*
X1274250Y1020136D01*
X1274063Y1020273*
X1274063D02*
X1273688Y1020409D01*
X1273688D02*
X1273313D01*
X1273313D02*
X1272938Y1020273D01*
X1272938D02*
X1272750Y1020136D01*
X1272563Y1019727*
X1272563D02*
Y1018500D01*
Y1019455D02*
X1270500Y1020409D01*
X1273875Y1023273D02*
X1274250Y1023136D01*
X1274438Y1022727*
X1274438D02*
Y1022455D01*
X1274438D02*
X1274250Y1022045D01*
X1273688Y1021773*
X1273688D02*
X1272750Y1021636D01*
X1271813*
X1271813D02*
X1271063Y1021773D01*
X1271063D02*
X1270688Y1022045D01*
X1270688D02*
X1270500Y1022455D01*
Y1022591*
X1270688Y1023000*
X1270688D02*
X1271063Y1023273D01*
X1271063D02*
X1271625Y1023409D01*
X1271813*
X1271813D02*
X1272375Y1023273D01*
X1272750Y1023000*
X1272938Y1022591*
X1272938D02*
Y1022455D01*
X1272938D02*
X1272750Y1022045D01*
X1272375Y1021773*
X1271813Y1021636*
X1280938Y1018000D02*
X1277000D01*
X1280938D02*
Y1019227D01*
X1280938D02*
X1280750Y1019636D01*
X1280563Y1019773*
X1280563D02*
X1280188Y1019909D01*
X1280188D02*
X1279813D01*
X1279813D02*
X1279438Y1019773D01*
X1279438D02*
X1279250Y1019636D01*
X1279063Y1019227*
X1279063D02*
Y1018000D01*
Y1018955D02*
X1277000Y1019909D01*
X1280938Y1021818D02*
X1280750Y1021409D01*
X1280375Y1021273*
X1280000*
X1279625Y1021409*
X1279438Y1021682*
X1279438D02*
X1279250Y1022227D01*
X1279063Y1022636*
X1279063D02*
X1278688Y1022909D01*
X1278688D02*
X1278313Y1023045D01*
X1278313D02*
X1277750D01*
X1277375Y1022909*
X1277188Y1022773*
X1277188D02*
X1277000Y1022364D01*
Y1021818*
X1277188Y1021409*
X1277188D02*
X1277375Y1021273D01*
X1277750Y1021136*
X1278313*
X1278313D02*
X1278688Y1021273D01*
X1278688D02*
X1279063Y1021545D01*
X1279063D02*
X1279250Y1021955D01*
X1279438Y1022500*
X1279438D02*
X1279625Y1022773D01*
X1280000Y1022909*
X1280375*
X1280750Y1022773*
X1280938Y1022364*
X1280938D02*
Y1021818D01*
X1271027Y1086594D02*
Y1083781D01*
X1270891Y1083219*
X1270618Y1082844*
X1270209Y1082656*
X1269936*
X1269527Y1082844*
X1269255Y1083219*
X1269118Y1083781*
Y1086594*
X1266255Y1086031D02*
X1266391Y1086406D01*
X1266800Y1086594*
X1267073*
X1267482Y1086406*
X1267755Y1085844*
X1267891Y1084906*
Y1083969*
X1267755Y1083219*
X1267482Y1082844*
X1267073Y1082656*
X1266936*
X1266527Y1082844*
X1266255Y1083219*
X1266118Y1083781*
Y1083969*
X1266255Y1084531*
X1266527Y1084906*
X1266936Y1085094*
X1267073*
X1267482Y1084906*
X1267755Y1084531*
X1267891Y1083969*
X1236000Y1081545D02*
X1236375Y1081409D01*
X1236750Y1081136*
X1236938Y1080864*
X1236938D02*
Y1080318D01*
X1236938D02*
X1236750Y1080045D01*
X1236375Y1079773*
X1236000Y1079636*
X1235438Y1079500*
X1235438D02*
X1234500D01*
X1233938Y1079636*
X1233938D02*
X1233563Y1079773D01*
X1233563D02*
X1233188Y1080045D01*
X1233188D02*
X1233000Y1080318D01*
Y1080864*
X1233188Y1081136*
X1233188D02*
X1233563Y1081409D01*
X1233563D02*
X1233938Y1081545D01*
X1236938Y1083455D02*
X1236750Y1083045D01*
X1236375Y1082909*
X1236000*
X1235625Y1083045*
X1235438Y1083318*
X1235438D02*
X1235250Y1083864D01*
X1235063Y1084273*
X1235063D02*
X1234688Y1084545D01*
X1234688D02*
X1234313Y1084682D01*
X1234313D02*
X1233750D01*
X1233375Y1084545*
X1233188Y1084409*
X1233188D02*
X1233000Y1084000D01*
Y1083455*
X1233188Y1083045*
X1233188D02*
X1233375Y1082909D01*
X1233750Y1082773*
X1234313*
X1234313D02*
X1234688Y1082909D01*
X1234688D02*
X1235063Y1083182D01*
X1235063D02*
X1235250Y1083591D01*
X1235438Y1084136*
X1235438D02*
X1235625Y1084409D01*
X1236000Y1084545*
X1236375*
X1236750Y1084409*
X1236938Y1084000*
X1236938D02*
Y1083455D01*
Y1087682D02*
Y1086318D01*
X1236938D02*
X1235250Y1086182D01*
X1235438Y1086318*
X1235438D02*
X1235625Y1086727D01*
Y1087136*
X1235438Y1087545*
X1235438D02*
X1235063Y1087818D01*
X1235063D02*
X1234500Y1087955D01*
X1234125Y1087818*
X1233563Y1087682*
X1233563D02*
X1233188Y1087409D01*
X1233188D02*
X1233000Y1087000D01*
Y1086591*
X1233188Y1086182*
X1233188D02*
X1233375Y1086045D01*
X1233750Y1085909*
X1115164Y1027094D02*
Y1024281D01*
X1115027Y1023719*
X1114755Y1023344*
X1114345Y1023156*
X1114073*
X1113664Y1023344*
X1113391Y1023719*
X1113255Y1024281*
Y1027094*
X1111891Y1026156D02*
Y1026344D01*
X1111755Y1026719*
X1111618Y1026906*
X1111345Y1027094*
X1110800*
X1110527Y1026906*
X1110391Y1026719*
X1110255Y1026344*
Y1025969*
X1110391Y1025594*
X1110664Y1025031*
X1112027Y1023156*
X1110118*
X1108755Y1026156D02*
Y1026344D01*
X1108618Y1026719*
X1108482Y1026906*
X1108209Y1027094*
X1107664*
X1107391Y1026906*
X1107255Y1026719*
X1107118Y1026344*
Y1025969*
X1107255Y1025594*
X1107527Y1025031*
X1108891Y1023156*
X1106982*
X1114664Y1053094D02*
Y1050281D01*
X1114527Y1049719*
X1114255Y1049344*
X1113845Y1049156*
X1113573*
X1113164Y1049344*
X1112891Y1049719*
X1112755Y1050281*
Y1053094*
X1111391Y1052156D02*
Y1052344D01*
X1111255Y1052719*
X1111118Y1052906*
X1110845Y1053094*
X1110300*
X1110027Y1052906*
X1109891Y1052719*
X1109755Y1052344*
Y1051969*
X1109891Y1051594*
X1110164Y1051031*
X1111527Y1049156*
X1109618*
X1108118Y1053094D02*
X1106618D01*
X1107436Y1051594*
X1107027*
X1106755Y1051406*
X1106618Y1051219*
X1106482Y1050656*
Y1050281*
X1106618Y1049719*
X1106891Y1049344*
X1107300Y1049156*
X1107709*
X1108118Y1049344*
X1108255Y1049531*
X1108391Y1049906*
X1114732Y1079094D02*
Y1076281D01*
X1114595Y1075719*
X1114323Y1075344*
X1113914Y1075156*
X1113641*
X1113232Y1075344*
X1112959Y1075719*
X1112823Y1076281*
Y1079094*
X1111459Y1078156D02*
Y1078344D01*
X1111323Y1078719*
X1111186Y1078906*
X1110914Y1079094*
X1110368*
X1110095Y1078906*
X1109959Y1078719*
X1109823Y1078344*
Y1077969*
X1109959Y1077594*
X1110232Y1077031*
X1111595Y1075156*
X1109686*
X1107095Y1079094D02*
X1108459Y1076469D01*
X1106414*
X1107095Y1079094D02*
Y1075156D01*
X1154938Y1086000D02*
X1151000D01*
X1154938D02*
Y1087227D01*
X1154938D02*
X1154750Y1087636D01*
X1154563Y1087773*
X1154563D02*
X1154188Y1087909D01*
X1154188D02*
X1153813D01*
X1153813D02*
X1153438Y1087773D01*
X1153438D02*
X1153250Y1087636D01*
X1153063Y1087227*
X1153063D02*
Y1086000D01*
Y1086955D02*
X1151000Y1087909D01*
X1154938Y1089136D02*
X1151000D01*
X1154938D02*
X1151000Y1091045D01*
X1154938D02*
X1151000D01*
X1154938Y1093636D02*
X1152313Y1092273D01*
X1152313D02*
Y1094318D01*
X1154938Y1093636D02*
X1151000D01*
X1163344Y1087300D02*
X1159800D01*
X1163344D02*
Y1088527D01*
X1163175Y1088936*
X1163006Y1089073*
X1162669Y1089209*
X1162331*
X1161994Y1089073*
X1161825Y1088936*
X1161656Y1088527*
Y1087300*
Y1088255D02*
X1159800Y1089209D01*
X1163344Y1090436D02*
X1159800D01*
X1163344D02*
X1159800Y1092345D01*
X1163344D02*
X1159800D01*
X1163344Y1095345D02*
Y1093982D01*
X1161825Y1093845*
X1161994Y1093982*
X1162163Y1094391*
X1162163D02*
Y1094800D01*
X1162163D02*
X1161994Y1095209D01*
X1161656Y1095482*
X1161150Y1095618*
X1160813Y1095482*
X1160813D02*
X1160306Y1095345D01*
X1159969Y1095073*
X1159800Y1094664*
Y1094255*
X1159969Y1093845*
X1160138Y1093709*
X1160138D02*
X1160475Y1093573D01*
X1148500Y1120438D02*
Y1116500D01*
Y1120438D02*
X1147273D01*
X1147273D02*
X1146864Y1120250D01*
X1146727Y1120063*
X1146727D02*
X1146591Y1119688D01*
X1146591D02*
Y1119313D01*
X1146591D02*
X1146727Y1118938D01*
X1146727D02*
X1146864Y1118750D01*
X1147273Y1118563*
X1147273D02*
X1148500D01*
X1147545D02*
X1146591Y1116500D01*
X1145227Y1119500D02*
Y1119688D01*
X1145227D02*
X1145091Y1120063D01*
X1145091D02*
X1144955Y1120250D01*
X1144682Y1120438*
X1144682D02*
X1144136D01*
X1144136D02*
X1143864Y1120250D01*
X1143727Y1120063*
X1143727D02*
X1143591Y1119688D01*
X1143591D02*
Y1119313D01*
X1143591D02*
X1143727Y1118938D01*
X1143727D02*
X1144000Y1118375D01*
X1145364Y1116500*
X1143455*
X1142091Y1119500D02*
Y1119688D01*
X1142091D02*
X1141955Y1120063D01*
X1141955D02*
X1141818Y1120250D01*
X1141545Y1120438*
X1141545D02*
X1141000D01*
X1141000D02*
X1140727Y1120250D01*
X1140591Y1120063*
X1140591D02*
X1140455Y1119688D01*
X1140455D02*
Y1119313D01*
X1140455D02*
X1140591Y1118938D01*
X1140591D02*
X1140864Y1118375D01*
X1142227Y1116500*
X1140318*
X1137318Y1119125D02*
X1137455Y1118563D01*
X1137455D02*
X1137727Y1118188D01*
X1137727D02*
X1138136Y1118000D01*
X1138273*
X1138682Y1118188*
X1138682D02*
X1138955Y1118563D01*
X1138955D02*
X1139091Y1119125D01*
Y1119313*
X1139091D02*
X1138955Y1119875D01*
X1138682Y1120250*
X1138273Y1120438*
X1138273D02*
X1138136D01*
X1138136D02*
X1137727Y1120250D01*
X1137455Y1119875*
X1137318Y1119125*
Y1118188*
X1137318D02*
X1137455Y1117250D01*
X1137727Y1116688*
X1137727D02*
X1138136Y1116500D01*
X1138409*
X1138818Y1116688*
X1138818D02*
X1138955Y1117063D01*
X1125455Y1095000D02*
X1125591Y1095375D01*
X1125864Y1095750*
X1126136Y1095938*
X1126136D02*
X1126682D01*
X1126682D02*
X1126955Y1095750D01*
X1127227Y1095375*
X1127364Y1095000*
X1127500Y1094438*
X1127500D02*
Y1093500D01*
X1127364Y1092938*
X1127364D02*
X1127227Y1092563D01*
X1127227D02*
X1126955Y1092188D01*
X1126955D02*
X1126682Y1092000D01*
X1126136*
X1125864Y1092188*
X1125864D02*
X1125591Y1092563D01*
X1125591D02*
X1125455Y1092938D01*
X1123545Y1095938D02*
X1123955Y1095750D01*
X1124091Y1095375*
Y1095000*
X1123955Y1094625*
X1123682Y1094438*
X1123682D02*
X1123136Y1094250D01*
X1122727Y1094063*
X1122727D02*
X1122455Y1093688D01*
X1122455D02*
X1122318Y1093313D01*
X1122318D02*
Y1092750D01*
X1122455Y1092375*
X1122591Y1092188*
X1122591D02*
X1123000Y1092000D01*
X1123545*
X1123955Y1092188*
X1123955D02*
X1124091Y1092375D01*
X1124227Y1092750*
Y1093313*
X1124227D02*
X1124091Y1093688D01*
X1124091D02*
X1123818Y1094063D01*
X1123818D02*
X1123409Y1094250D01*
X1122864Y1094438*
X1122864D02*
X1122591Y1094625D01*
X1122455Y1095000*
Y1095375*
X1122591Y1095750*
X1123000Y1095938*
X1123000D02*
X1123545D01*
X1120409D02*
X1120818Y1095750D01*
X1120955Y1095375*
Y1095000*
X1120818Y1094625*
X1120545Y1094438*
X1120545D02*
X1120000Y1094250D01*
X1119591Y1094063*
X1119591D02*
X1119318Y1093688D01*
X1119318D02*
X1119182Y1093313D01*
X1119182D02*
Y1092750D01*
X1119318Y1092375*
X1119455Y1092188*
X1119455D02*
X1119864Y1092000D01*
X1120409*
X1120818Y1092188*
X1120818D02*
X1120955Y1092375D01*
X1121091Y1092750*
Y1093313*
X1121091D02*
X1120955Y1093688D01*
X1120955D02*
X1120682Y1094063D01*
X1120682D02*
X1120273Y1094250D01*
X1119727Y1094438*
X1119727D02*
X1119455Y1094625D01*
X1119318Y1095000*
Y1095375*
X1119455Y1095750*
X1119864Y1095938*
X1119864D02*
X1120409D01*
X1137227Y1028000D02*
X1137363Y1028375D01*
X1137636Y1028750*
X1137909Y1028938*
X1137909D02*
X1138454D01*
X1138454D02*
X1138727Y1028750D01*
X1139000Y1028375*
X1139136Y1028000*
X1139273Y1027438*
X1139273D02*
Y1026500D01*
X1139136Y1025938*
X1139136D02*
X1139000Y1025563D01*
X1139000D02*
X1138727Y1025188D01*
X1138727D02*
X1138454Y1025000D01*
X1137909*
X1137636Y1025188*
X1137636D02*
X1137363Y1025563D01*
X1137363D02*
X1137227Y1025938D01*
X1135318Y1028938D02*
X1135727Y1028750D01*
X1135863Y1028375*
Y1028000*
X1135727Y1027625*
X1135454Y1027438*
X1135454D02*
X1134909Y1027250D01*
X1134500Y1027063*
X1134500D02*
X1134227Y1026688D01*
X1134227D02*
X1134091Y1026313D01*
X1134091D02*
Y1025750D01*
X1134227Y1025375*
X1134363Y1025188*
X1134363D02*
X1134773Y1025000D01*
X1135318*
X1135727Y1025188*
X1135727D02*
X1135863Y1025375D01*
X1136000Y1025750*
Y1026313*
X1136000D02*
X1135863Y1026688D01*
X1135863D02*
X1135591Y1027063D01*
X1135591D02*
X1135182Y1027250D01*
X1134636Y1027438*
X1134636D02*
X1134363Y1027625D01*
X1134227Y1028000*
Y1028375*
X1134363Y1028750*
X1134773Y1028938*
X1134773D02*
X1135318D01*
X1131227Y1028375D02*
X1131363Y1028750D01*
X1131773Y1028938*
X1131773D02*
X1132045D01*
X1132045D02*
X1132454Y1028750D01*
X1132727Y1028188*
X1132727D02*
X1132863Y1027250D01*
Y1026313*
X1132863D02*
X1132727Y1025563D01*
X1132727D02*
X1132454Y1025188D01*
X1132454D02*
X1132045Y1025000D01*
X1131909*
X1131500Y1025188*
X1131500D02*
X1131227Y1025563D01*
X1131227D02*
X1131091Y1026125D01*
Y1026313*
X1131091D02*
X1131227Y1026875D01*
X1131500Y1027250*
X1131909Y1027438*
X1131909D02*
X1132045D01*
X1132045D02*
X1132454Y1027250D01*
X1132727Y1026875*
X1132863Y1026313*
X1136955Y1055500D02*
X1137091Y1055875D01*
X1137364Y1056250*
X1137636Y1056438*
X1137636D02*
X1138182D01*
X1138182D02*
X1138455Y1056250D01*
X1138727Y1055875*
X1138864Y1055500*
X1139000Y1054938*
X1139000D02*
Y1054000D01*
X1138864Y1053438*
X1138864D02*
X1138727Y1053063D01*
X1138727D02*
X1138455Y1052688D01*
X1138455D02*
X1138182Y1052500D01*
X1137636*
X1137364Y1052688*
X1137364D02*
X1137091Y1053063D01*
X1137091D02*
X1136955Y1053438D01*
X1135045Y1056438D02*
X1135455Y1056250D01*
X1135591Y1055875*
Y1055500*
X1135455Y1055125*
X1135182Y1054938*
X1135182D02*
X1134636Y1054750D01*
X1134227Y1054563*
X1134227D02*
X1133955Y1054188D01*
X1133955D02*
X1133818Y1053813D01*
X1133818D02*
Y1053250D01*
X1133955Y1052875*
X1134091Y1052688*
X1134091D02*
X1134500Y1052500D01*
X1135045*
X1135455Y1052688*
X1135455D02*
X1135591Y1052875D01*
X1135727Y1053250*
Y1053813*
X1135727D02*
X1135591Y1054188D01*
X1135591D02*
X1135318Y1054563D01*
X1135318D02*
X1134909Y1054750D01*
X1134364Y1054938*
X1134364D02*
X1134091Y1055125D01*
X1133955Y1055500*
Y1055875*
X1134091Y1056250*
X1134500Y1056438*
X1134500D02*
X1135045D01*
X1130682D02*
X1132045Y1052500D01*
X1132591Y1056438D02*
X1130682D01*
X1106455Y1115500D02*
X1106591Y1115875D01*
X1106864Y1116250*
X1107136Y1116437*
X1107136D02*
X1107682D01*
X1107682D02*
X1107955Y1116250D01*
X1108227Y1115875*
X1108364Y1115500*
X1108500Y1114937*
X1108500D02*
Y1114000D01*
X1108364Y1113437*
X1108364D02*
X1108227Y1113062D01*
X1108227D02*
X1107955Y1112687D01*
X1107955D02*
X1107682Y1112500D01*
X1107136*
X1106864Y1112687*
X1106864D02*
X1106591Y1113062D01*
X1106591D02*
X1106455Y1113437D01*
X1104545Y1116437D02*
X1104955Y1116250D01*
X1105091Y1115875*
Y1115500*
X1104955Y1115125*
X1104682Y1114937*
X1104682D02*
X1104136Y1114750D01*
X1103727Y1114562*
X1103727D02*
X1103455Y1114187D01*
X1103455D02*
X1103318Y1113812D01*
X1103318D02*
Y1113250D01*
X1103455Y1112875*
X1103591Y1112687*
X1103591D02*
X1104000Y1112500D01*
X1104545*
X1104955Y1112687*
X1104955D02*
X1105091Y1112875D01*
X1105227Y1113250*
Y1113812*
X1105227D02*
X1105091Y1114187D01*
X1105091D02*
X1104818Y1114562D01*
X1104818D02*
X1104409Y1114750D01*
X1103864Y1114937*
X1103864D02*
X1103591Y1115125D01*
X1103455Y1115500*
Y1115875*
X1103591Y1116250*
X1104000Y1116437*
X1104000D02*
X1104545D01*
X1100318Y1115125D02*
X1100455Y1114562D01*
X1100455D02*
X1100727Y1114187D01*
X1100727D02*
X1101136Y1114000D01*
X1101273*
X1101682Y1114187*
X1101682D02*
X1101955Y1114562D01*
X1101955D02*
X1102091Y1115125D01*
Y1115312*
X1102091D02*
X1101955Y1115875D01*
X1101682Y1116250*
X1101273Y1116437*
X1101273D02*
X1101136D01*
X1101136D02*
X1100727Y1116250D01*
X1100455Y1115875*
X1100318Y1115125*
Y1114187*
X1100318D02*
X1100455Y1113250D01*
X1100727Y1112687*
X1100727D02*
X1101136Y1112500D01*
X1101409*
X1101818Y1112687*
X1101818D02*
X1101955Y1113062D01*
X1157500Y1071545D02*
X1157875Y1071409D01*
X1158250Y1071136*
X1158438Y1070864*
X1158438D02*
Y1070318D01*
X1158438D02*
X1158250Y1070045D01*
X1157875Y1069773*
X1157500Y1069636*
X1156938Y1069500*
X1156938D02*
X1156000D01*
X1155438Y1069636*
X1155438D02*
X1155063Y1069773D01*
X1155063D02*
X1154688Y1070045D01*
X1154688D02*
X1154500Y1070318D01*
Y1070864*
X1154688Y1071136*
X1154688D02*
X1155063Y1071409D01*
X1155063D02*
X1155438Y1071545D01*
X1157125Y1074545D02*
X1156563Y1074409D01*
X1156563D02*
X1156188Y1074136D01*
X1156188D02*
X1156000Y1073727D01*
Y1073591*
X1156188Y1073182*
X1156188D02*
X1156563Y1072909D01*
X1156563D02*
X1157125Y1072773D01*
X1157313*
X1157313D02*
X1157875Y1072909D01*
X1158250Y1073182*
X1158438Y1073591*
X1158438D02*
Y1073727D01*
X1158438D02*
X1158250Y1074136D01*
X1157875Y1074409*
X1157125Y1074545*
X1156188*
X1156188D02*
X1155250Y1074409D01*
X1154688Y1074136*
X1154688D02*
X1154500Y1073727D01*
Y1073455*
X1154688Y1073045*
X1154688D02*
X1155063Y1072909D01*
X1158438Y1076591D02*
X1158250Y1076182D01*
X1157688Y1075909*
X1157688D02*
X1156750Y1075773D01*
X1156188*
X1156188D02*
X1155250Y1075909D01*
X1154688Y1076182*
X1154688D02*
X1154500Y1076591D01*
Y1076864*
X1154688Y1077273*
X1154688D02*
X1155250Y1077545D01*
X1156188Y1077682*
X1156188D02*
X1156750D01*
X1157688Y1077545*
X1157688D02*
X1158250Y1077273D01*
X1158438Y1076864*
X1158438D02*
Y1076591D01*
X1173955Y1105500D02*
X1174091Y1105875D01*
X1174364Y1106250*
X1174636Y1106438*
X1174636D02*
X1175182D01*
X1175182D02*
X1175455Y1106250D01*
X1175727Y1105875*
X1175864Y1105500*
X1176000Y1104938*
X1176000D02*
Y1104000D01*
X1175864Y1103438*
X1175864D02*
X1175727Y1103063D01*
X1175727D02*
X1175455Y1102688D01*
X1175455D02*
X1175182Y1102500D01*
X1174636*
X1174364Y1102688*
X1174364D02*
X1174091Y1103063D01*
X1174091D02*
X1173955Y1103438D01*
X1172727Y1105688D02*
X1172455Y1105875D01*
X1172045Y1106438*
X1172045D02*
Y1102500D01*
X1169045Y1106438D02*
X1170409D01*
X1170409D02*
X1170545Y1104750D01*
X1170409Y1104938*
X1170409D02*
X1170000Y1105125D01*
X1169591*
X1169182Y1104938*
X1169182D02*
X1168909Y1104563D01*
X1168909D02*
X1168773Y1104000D01*
X1168909Y1103625*
X1169045Y1103063*
X1169045D02*
X1169318Y1102688D01*
X1169318D02*
X1169727Y1102500D01*
X1170136*
X1170545Y1102688*
X1170545D02*
X1170682Y1102875D01*
X1170818Y1103250*
X1269455Y1095500D02*
X1269591Y1095875D01*
X1269864Y1096250*
X1270136Y1096438*
X1270136D02*
X1270682D01*
X1270682D02*
X1270955Y1096250D01*
X1271227Y1095875*
X1271364Y1095500*
X1271500Y1094938*
X1271500D02*
Y1094000D01*
X1271364Y1093438*
X1271364D02*
X1271227Y1093063D01*
X1271227D02*
X1270955Y1092688D01*
X1270955D02*
X1270682Y1092500D01*
X1270136*
X1269864Y1092688*
X1269864D02*
X1269591Y1093063D01*
X1269591D02*
X1269455Y1093438D01*
X1268227Y1095688D02*
X1267955Y1095875D01*
X1267545Y1096438*
X1267545D02*
Y1092500D01*
X1264409Y1096438D02*
X1265773Y1092500D01*
X1266318Y1096438D02*
X1264409D01*
X1243500Y1039545D02*
X1243875Y1039409D01*
X1244250Y1039136*
X1244438Y1038864*
X1244438D02*
Y1038318D01*
X1244438D02*
X1244250Y1038045D01*
X1243875Y1037773*
X1243500Y1037636*
X1242938Y1037500*
X1242938D02*
X1242000D01*
X1241438Y1037636*
X1241438D02*
X1241063Y1037773D01*
X1241063D02*
X1240688Y1038045D01*
X1240688D02*
X1240500Y1038318D01*
Y1038864*
X1240688Y1039136*
X1240688D02*
X1241063Y1039409D01*
X1241063D02*
X1241438Y1039545D01*
X1243500Y1040909D02*
X1243688D01*
X1243688D02*
X1244063Y1041045D01*
X1244063D02*
X1244250Y1041182D01*
X1244438Y1041455*
X1244438D02*
Y1042000D01*
X1244438D02*
X1244250Y1042273D01*
X1244063Y1042409*
X1244063D02*
X1243688Y1042545D01*
X1243688D02*
X1243313D01*
X1243313D02*
X1242938Y1042409D01*
X1242938D02*
X1242375Y1042136D01*
X1240500Y1040773*
Y1042682*
X1244438Y1044727D02*
X1244250Y1044318D01*
X1243688Y1044045*
X1243688D02*
X1242750Y1043909D01*
X1242188*
X1242188D02*
X1241250Y1044045D01*
X1240688Y1044318*
X1240688D02*
X1240500Y1044727D01*
Y1045000*
X1240688Y1045409*
X1240688D02*
X1241250Y1045682D01*
X1242188Y1045818*
X1242188D02*
X1242750D01*
X1243688Y1045682*
X1243688D02*
X1244250Y1045409D01*
X1244438Y1045000*
X1244438D02*
Y1044727D01*
X1173094Y1042382D02*
X1171219Y1043473D01*
X1169156*
X1173094Y1044564D02*
X1171219Y1043473D01*
X1172344Y1045791D02*
X1172531Y1046064D01*
X1173094Y1046473*
X1169156*
X1340656Y1028927D02*
X1341031Y1028791D01*
X1341406Y1028518*
X1341594Y1028245*
Y1027700*
X1341406Y1027427*
X1341031Y1027155*
X1340656Y1027018*
X1340094Y1026882*
X1339156*
X1338594Y1027018*
X1338219Y1027155*
X1337844Y1027427*
X1337656Y1027700*
Y1028245*
X1337844Y1028518*
X1338219Y1028791*
X1338594Y1028927*
X1340844Y1030155D02*
X1341031Y1030427D01*
X1341594Y1030836*
X1337656*
X1341594Y1032882D02*
X1341406Y1032473D01*
X1340844Y1032200*
X1339906Y1032064*
X1339344*
X1338406Y1032200*
X1337844Y1032473*
X1337656Y1032882*
Y1033155*
X1337844Y1033564*
X1338406Y1033836*
X1339344Y1033973*
X1339906*
X1340844Y1033836*
X1341406Y1033564*
X1341594Y1033155*
Y1032882*
X1171156Y1027314D02*
X1171531Y1027177D01*
X1171906Y1026905*
X1172094Y1026632*
Y1026086*
X1171906Y1025814*
X1171531Y1025541*
X1171156Y1025405*
X1170594Y1025268*
X1169656*
X1169094Y1025405*
X1168719Y1025541*
X1168344Y1025814*
X1168156Y1026086*
Y1026632*
X1168344Y1026905*
X1168719Y1027177*
X1169094Y1027314*
X1172094Y1028814D02*
Y1030314D01*
X1170594Y1029495*
Y1029905*
X1170406Y1030177*
X1170219Y1030314*
X1169656Y1030450*
X1169281*
X1168719Y1030314*
X1168344Y1030041*
X1168156Y1029632*
Y1029223*
X1168344Y1028814*
X1168531Y1028677*
X1168906Y1028541*
X1172094Y1032359D02*
X1171906Y1031950D01*
X1171531Y1031814*
X1171156*
X1170781Y1031950*
X1170594Y1032223*
X1170406Y1032768*
X1170219Y1033177*
X1169844Y1033450*
X1169469Y1033586*
X1168906*
X1168531Y1033450*
X1168344Y1033314*
X1168156Y1032905*
Y1032359*
X1168344Y1031950*
X1168531Y1031814*
X1168906Y1031677*
X1169469*
X1169844Y1031814*
X1170219Y1032086*
X1170406Y1032495*
X1170594Y1033041*
X1170781Y1033314*
X1171156Y1033450*
X1171531*
X1171906Y1033314*
X1172094Y1032905*
Y1032359*
X1270118Y1109156D02*
X1270255Y1109531D01*
X1270527Y1109906*
X1270800Y1110094*
X1271345*
X1271618Y1109906*
X1271891Y1109531*
X1272027Y1109156*
X1272164Y1108594*
Y1107656*
X1272027Y1107094*
X1271891Y1106719*
X1271618Y1106344*
X1271345Y1106156*
X1270800*
X1270527Y1106344*
X1270255Y1106719*
X1270118Y1107094*
X1268618Y1110094D02*
X1267118D01*
X1267936Y1108594*
X1267527*
X1267255Y1108406*
X1267118Y1108219*
X1266982Y1107656*
Y1107281*
X1267118Y1106719*
X1267391Y1106344*
X1267800Y1106156*
X1268209*
X1268618Y1106344*
X1268755Y1106531*
X1268891Y1106906*
X1263982Y1108781D02*
X1264118Y1108219D01*
X1264391Y1107844*
X1264800Y1107656*
X1264936*
X1265345Y1107844*
X1265618Y1108219*
X1265755Y1108781*
Y1108969*
X1265618Y1109531*
X1265345Y1109906*
X1264936Y1110094*
X1264800*
X1264391Y1109906*
X1264118Y1109531*
X1263982Y1108781*
Y1107844*
X1264118Y1106906*
X1264391Y1106344*
X1264800Y1106156*
X1265073*
X1265482Y1106344*
X1265618Y1106719*
X1226755Y1024656D02*
X1226891Y1025031D01*
X1227164Y1025406*
X1227436Y1025594*
X1227982*
X1228255Y1025406*
X1228527Y1025031*
X1228664Y1024656*
X1228800Y1024094*
Y1023156*
X1228664Y1022594*
X1228527Y1022219*
X1228255Y1021844*
X1227982Y1021656*
X1227436*
X1227164Y1021844*
X1226891Y1022219*
X1226755Y1022594*
X1224164Y1025594D02*
X1225527Y1022969D01*
X1223482*
X1224164Y1025594D02*
Y1021656D01*
X1221982Y1025594D02*
X1220482D01*
X1221300Y1024094*
X1220891*
X1220618Y1023906*
X1220482Y1023719*
X1220345Y1023156*
Y1022781*
X1220482Y1022219*
X1220755Y1021844*
X1221164Y1021656*
X1221573*
X1221982Y1021844*
X1222118Y1022031*
X1222255Y1022406*
X1262323Y1118156D02*
X1262459Y1118531D01*
X1262732Y1118906*
X1263005Y1119094*
X1263550*
X1263823Y1118906*
X1264095Y1118531*
X1264232Y1118156*
X1264368Y1117594*
Y1116656*
X1264232Y1116094*
X1264095Y1115719*
X1263823Y1115344*
X1263550Y1115156*
X1263005*
X1262732Y1115344*
X1262459Y1115719*
X1262323Y1116094*
X1259732Y1119094D02*
X1261095Y1116469D01*
X1259050*
X1259732Y1119094D02*
Y1115156D01*
X1256459Y1119094D02*
X1257823Y1116469D01*
X1255777*
X1256459Y1119094D02*
Y1115156D01*
X1321550Y1029656D02*
X1321686Y1030031D01*
X1321959Y1030406*
X1322232Y1030594*
X1322777*
X1323050Y1030406*
X1323323Y1030031*
X1323459Y1029656*
X1323595Y1029094*
Y1028156*
X1323459Y1027594*
X1323323Y1027219*
X1323050Y1026844*
X1322777Y1026656*
X1322232*
X1321959Y1026844*
X1321686Y1027219*
X1321550Y1027594*
X1318550Y1029281D02*
X1318686Y1028719D01*
X1318959Y1028344*
X1319368Y1028156*
X1319505*
X1319914Y1028344*
X1320186Y1028719*
X1320323Y1029281*
Y1029469*
X1320186Y1030031*
X1319914Y1030406*
X1319505Y1030594*
X1319368*
X1318959Y1030406*
X1318686Y1030031*
X1318550Y1029281*
Y1028344*
X1318686Y1027406*
X1318959Y1026844*
X1319368Y1026656*
X1319641*
X1320050Y1026844*
X1320186Y1027219*
X1306000Y1081545D02*
X1306375Y1081409D01*
X1306750Y1081136*
X1306938Y1080864*
X1306938D02*
Y1080318D01*
X1306938D02*
X1306750Y1080045D01*
X1306375Y1079773*
X1306000Y1079636*
X1305438Y1079500*
X1305438D02*
X1304500D01*
X1303938Y1079636*
X1303938D02*
X1303563Y1079773D01*
X1303563D02*
X1303188Y1080045D01*
X1303188D02*
X1303000Y1080318D01*
Y1080864*
X1303188Y1081136*
X1303188D02*
X1303563Y1081409D01*
X1303563D02*
X1303938Y1081545D01*
X1306938Y1083455D02*
X1306750Y1083045D01*
X1306375Y1082909*
X1306000*
X1305625Y1083045*
X1305438Y1083318*
X1305438D02*
X1305250Y1083864D01*
X1305063Y1084273*
X1305063D02*
X1304688Y1084545D01*
X1304688D02*
X1304313Y1084682D01*
X1304313D02*
X1303750D01*
X1303375Y1084545*
X1303188Y1084409*
X1303188D02*
X1303000Y1084000D01*
Y1083455*
X1303188Y1083045*
X1303188D02*
X1303375Y1082909D01*
X1303750Y1082773*
X1304313*
X1304313D02*
X1304688Y1082909D01*
X1304688D02*
X1305063Y1083182D01*
X1305063D02*
X1305250Y1083591D01*
X1305438Y1084136*
X1305438D02*
X1305625Y1084409D01*
X1306000Y1084545*
X1306375*
X1306750Y1084409*
X1306938Y1084000*
X1306938D02*
Y1083455D01*
X1306000Y1086045D02*
X1306188D01*
X1306188D02*
X1306563Y1086182D01*
X1306563D02*
X1306750Y1086318D01*
X1306938Y1086591*
X1306938D02*
Y1087136D01*
X1306938D02*
X1306750Y1087409D01*
X1306563Y1087545*
X1306563D02*
X1306188Y1087682D01*
X1306188D02*
X1305813D01*
X1305813D02*
X1305438Y1087545D01*
X1305438D02*
X1304875Y1087273D01*
X1303000Y1085909*
Y1087818*
X1341955Y1089000D02*
X1342091Y1089375D01*
X1342364Y1089750*
X1342636Y1089938*
X1342636D02*
X1343182D01*
X1343182D02*
X1343455Y1089750D01*
X1343727Y1089375*
X1343864Y1089000*
X1344000Y1088438*
X1344000D02*
Y1087500D01*
X1343864Y1086938*
X1343864D02*
X1343727Y1086563D01*
X1343727D02*
X1343455Y1086188D01*
X1343455D02*
X1343182Y1086000D01*
X1342636*
X1342364Y1086188*
X1342364D02*
X1342091Y1086563D01*
X1342091D02*
X1341955Y1086938D01*
X1340045Y1089938D02*
X1340455Y1089750D01*
X1340591Y1089375*
Y1089000*
X1340455Y1088625*
X1340182Y1088438*
X1340182D02*
X1339636Y1088250D01*
X1339227Y1088063*
X1339227D02*
X1338955Y1087688D01*
X1338955D02*
X1338818Y1087313D01*
X1338818D02*
Y1086750D01*
X1338955Y1086375*
X1339091Y1086188*
X1339091D02*
X1339500Y1086000D01*
X1340045*
X1340455Y1086188*
X1340455D02*
X1340591Y1086375D01*
X1340727Y1086750*
Y1087313*
X1340727D02*
X1340591Y1087688D01*
X1340591D02*
X1340318Y1088063D01*
X1340318D02*
X1339909Y1088250D01*
X1339364Y1088438*
X1339364D02*
X1339091Y1088625D01*
X1338955Y1089000*
Y1089375*
X1339091Y1089750*
X1339500Y1089938*
X1339500D02*
X1340045D01*
X1337318D02*
X1335818D01*
X1335818D02*
X1336636Y1088438D01*
X1336636D02*
X1336227D01*
X1336227D02*
X1335955Y1088250D01*
X1335818Y1088063*
X1335818D02*
X1335682Y1087500D01*
Y1087125*
X1335818Y1086563*
X1335818D02*
X1336091Y1086188D01*
X1336091D02*
X1336500Y1086000D01*
X1336909*
X1337318Y1086188*
X1337318D02*
X1337455Y1086375D01*
X1337591Y1086750*
X1152500Y1048545D02*
X1152875Y1048409D01*
X1153250Y1048136*
X1153438Y1047864*
X1153438D02*
Y1047318D01*
X1153438D02*
X1153250Y1047045D01*
X1152875Y1046773*
X1152500Y1046636*
X1151938Y1046500*
X1151938D02*
X1151000D01*
X1150438Y1046636*
X1150438D02*
X1150063Y1046773D01*
X1150063D02*
X1149688Y1047045D01*
X1149688D02*
X1149500Y1047318D01*
Y1047864*
X1149688Y1048136*
X1149688D02*
X1150063Y1048409D01*
X1150063D02*
X1150438Y1048545D01*
X1152125Y1051545D02*
X1151563Y1051409D01*
X1151563D02*
X1151188Y1051136D01*
X1151188D02*
X1151000Y1050727D01*
Y1050591*
X1151188Y1050182*
X1151188D02*
X1151563Y1049909D01*
X1151563D02*
X1152125Y1049773D01*
X1152313*
X1152313D02*
X1152875Y1049909D01*
X1153250Y1050182*
X1153438Y1050591*
X1153438D02*
Y1050727D01*
X1153438D02*
X1153250Y1051136D01*
X1152875Y1051409*
X1152125Y1051545*
X1151188*
X1151188D02*
X1150250Y1051409D01*
X1149688Y1051136*
X1149688D02*
X1149500Y1050727D01*
Y1050455*
X1149688Y1050045*
X1149688D02*
X1150063Y1049909D01*
X1152500Y1052909D02*
X1152688D01*
X1152688D02*
X1153063Y1053045D01*
X1153063D02*
X1153250Y1053182D01*
X1153438Y1053455*
X1153438D02*
Y1054000D01*
X1153438D02*
X1153250Y1054273D01*
X1153063Y1054409*
X1153063D02*
X1152688Y1054545D01*
X1152688D02*
X1152313D01*
X1152313D02*
X1151938Y1054409D01*
X1151938D02*
X1151375Y1054136D01*
X1149500Y1052773*
Y1054682*
X1263232Y1066960D02*
X1263044Y1066688D01*
X1262669Y1066415*
X1262107Y1066278*
X1261732*
X1261169Y1066415*
X1260794Y1066688*
X1260607Y1066960*
Y1067369*
X1260794Y1067642*
X1261169Y1067915*
X1261732Y1068051*
X1262107*
X1262669Y1067915*
X1263044Y1067642*
X1263232Y1067369*
Y1066960*
G54D60*
G74*
X0Y0D02*
M02*
