*
*
G04 PADS9.1 Build Number: 384028 generated Gerber (RS-274-X) file*
G04 PC Version=2.1*
*
%IN "{TXN003}_controlCARDDoc"*%
*
%MOIN*%
*
%FSLAX35Y35*%
*
*
*
*
G04 PC Standard Apertures*
*
*
G04 Thermal Relief Aperture macro.*
%AMTER*
1,1,$1,0,0*
1,0,$1-$2,0,0*
21,0,$3,$4,0,0,45*
21,0,$3,$4,0,0,135*
%
*
*
G04 Annular Aperture macro.*
%AMANN*
1,1,$1,0,0*
1,0,$2,0,0*
%
*
*
G04 Odd Aperture macro.*
%AMODD*
1,1,$1,0,0*
1,0,$1-0.005,0,0*
%
*
*
G04 PC Custom Aperture Macros*
*
*
*
*
*
*
G04 PC Aperture Table*
*
%ADD069R,0.066X0.056*%
%ADD110R,0.057X0.065*%
%ADD113R,0.068X0.068*%
%ADD114C,0.068*%
%ADD115R,0.065X0.057*%
%ADD147C,0.07*%
%ADD153C,0.086*%
%ADD158C,0*%
%ADD168C,0.05307*%
%ADD169C,0.01*%
%ADD173C,0.05*%
%ADD178C,0.008*%
%ADD181R,0.086X0.036*%
%ADD182R,0.086X0.132*%
%ADD183C,0.156*%
%ADD184C,0.166*%
%ADD185C,0.171*%
%ADD186R,0.086X0.086*%
%ADD187R,0.086X0.026*%
%ADD188R,0.094X0.106*%
%ADD189C,0.055*%
%ADD190R,0.02569X0.11324*%
*
*
*
*
G04 PC Circuitry*
G04 Layer Name {TXN003}_controlCARDDoc - circuitry*
%LPD*%
*
*
G04 PC Custom Flashes*
G04 Layer Name {TXN003}_controlCARDDoc - flashes*
%LPD*%
*
*
G04 PC Circuitry*
G04 Layer Name {TXN003}_controlCARDDoc - circuitry*
%LPD*%
*
G54D69*
G01X983000Y1030500D03*
Y1039500D03*
G54D110*
X1647250Y1090000D03*
X1654750D03*
X1647250Y1145000D03*
X1654750D03*
G54D113*
X1000000Y1060000D03*
X1054000Y1055000D03*
Y1175000D03*
Y1080000D03*
Y1150000D03*
X1384000Y1055000D03*
Y1175000D03*
X1044000Y1015000D03*
Y1185000D03*
X1234000Y1080000D03*
Y1150000D03*
X1044000Y985000D03*
Y1235000D03*
X1023000Y1128000D03*
X1374000Y1035000D03*
Y1185000D03*
X1654000Y1035000D03*
Y1185000D03*
X1374000Y985000D03*
Y1215000D03*
X1654000Y985000D03*
Y1215000D03*
G54D114*
X1010000Y1060000D03*
X1000000Y1050000D03*
X1010000D03*
X1000000Y1040000D03*
X1010000D03*
X1000000Y1030000D03*
X1010000D03*
X1000000Y1020000D03*
X1010000D03*
X1000000Y1010000D03*
X1010000D03*
X1000000Y1000000D03*
X1010000D03*
X1064000Y1055000D03*
X1074000D03*
X1084000D03*
X1094000D03*
X1104000D03*
X1114000D03*
X1124000D03*
X1134000D03*
X1144000D03*
X1154000D03*
X1164000D03*
X1174000D03*
X1184000D03*
X1194000D03*
X1204000D03*
X1214000D03*
X1224000D03*
X1234000D03*
X1244000D03*
X1254000D03*
X1264000D03*
X1274000D03*
X1284000D03*
X1294000D03*
X1304000D03*
X1314000D03*
X1324000D03*
X1334000D03*
X1344000D03*
X1354000D03*
X1364000D03*
X1064000Y1175000D03*
X1074000D03*
X1084000D03*
X1094000D03*
X1104000D03*
X1114000D03*
X1124000D03*
X1134000D03*
X1144000D03*
X1154000D03*
X1164000D03*
X1174000D03*
X1184000D03*
X1194000D03*
X1204000D03*
X1214000D03*
X1224000D03*
X1234000D03*
X1244000D03*
X1254000D03*
X1264000D03*
X1274000D03*
X1284000D03*
X1294000D03*
X1304000D03*
X1314000D03*
X1324000D03*
X1334000D03*
X1344000D03*
X1354000D03*
X1364000D03*
X1064000Y1080000D03*
X1074000D03*
X1084000D03*
X1094000D03*
X1104000D03*
X1114000D03*
X1124000D03*
X1134000D03*
X1144000D03*
X1154000D03*
X1164000D03*
X1174000D03*
X1184000D03*
X1194000D03*
X1204000D03*
X1214000D03*
X1064000Y1150000D03*
X1074000D03*
X1084000D03*
X1094000D03*
X1104000D03*
X1114000D03*
X1124000D03*
X1134000D03*
X1144000D03*
X1154000D03*
X1164000D03*
X1174000D03*
X1184000D03*
X1194000D03*
X1394000Y1055000D03*
X1404000D03*
X1414000D03*
X1424000D03*
X1434000D03*
X1444000D03*
X1454000D03*
X1464000D03*
X1474000D03*
X1484000D03*
X1494000D03*
X1504000D03*
X1514000D03*
X1524000D03*
X1534000D03*
X1544000D03*
X1554000D03*
X1564000D03*
X1574000D03*
X1584000D03*
X1594000D03*
X1604000D03*
X1614000D03*
X1624000D03*
X1634000D03*
X1644000D03*
X1394000Y1175000D03*
X1404000D03*
X1414000D03*
X1424000D03*
X1434000D03*
X1444000D03*
X1454000D03*
X1464000D03*
X1474000D03*
X1484000D03*
X1494000D03*
X1504000D03*
X1514000D03*
X1524000D03*
X1534000D03*
X1544000D03*
X1554000D03*
X1564000D03*
X1574000D03*
X1584000D03*
X1594000D03*
X1604000D03*
X1614000D03*
X1624000D03*
X1634000D03*
X1044000Y1025000D03*
Y1035000D03*
Y1045000D03*
Y1195000D03*
Y1205000D03*
Y1215000D03*
X1244000Y1080000D03*
X1254000D03*
X1264000D03*
X1244000Y1150000D03*
X1254000D03*
X1264000D03*
X1044000Y995000D03*
Y1245000D03*
X1023000Y1138000D03*
X1374000Y1045000D03*
Y1195000D03*
X1654000Y1045000D03*
Y1195000D03*
X1374000Y995000D03*
Y1005000D03*
Y1015000D03*
Y1225000D03*
Y1235000D03*
Y1245000D03*
X1654000Y995000D03*
Y1005000D03*
Y1015000D03*
Y1225000D03*
Y1235000D03*
Y1245000D03*
X1054000Y1045000D03*
X1064000D03*
X1074000D03*
X1084000D03*
X1094000D03*
X1104000D03*
X1114000D03*
X1124000D03*
X1134000D03*
X1144000D03*
X1154000D03*
X1164000D03*
X1174000D03*
X1184000D03*
X1194000D03*
X1204000D03*
X1214000D03*
X1224000D03*
X1234000D03*
X1244000D03*
X1254000D03*
X1264000D03*
X1274000D03*
X1284000D03*
X1294000D03*
X1304000D03*
X1314000D03*
X1324000D03*
X1334000D03*
X1344000D03*
X1354000D03*
X1364000D03*
X1054000Y1035000D03*
X1064000D03*
X1074000D03*
X1084000D03*
X1094000D03*
X1104000D03*
X1114000D03*
X1124000D03*
X1134000D03*
X1144000D03*
X1154000D03*
X1164000D03*
X1174000D03*
X1184000D03*
X1194000D03*
X1204000D03*
X1214000D03*
X1224000D03*
X1234000D03*
X1244000D03*
X1254000D03*
X1264000D03*
X1274000D03*
X1284000D03*
X1294000D03*
X1304000D03*
X1314000D03*
X1324000D03*
X1334000D03*
X1344000D03*
X1354000D03*
X1364000D03*
X1054000Y1025000D03*
X1064000D03*
X1074000D03*
X1084000D03*
X1094000D03*
X1104000D03*
X1114000D03*
X1124000D03*
X1134000D03*
X1144000D03*
X1154000D03*
X1164000D03*
X1174000D03*
X1184000D03*
X1194000D03*
X1204000D03*
X1214000D03*
X1224000D03*
X1234000D03*
X1244000D03*
X1254000D03*
X1264000D03*
X1274000D03*
X1284000D03*
X1294000D03*
X1304000D03*
X1314000D03*
X1324000D03*
X1334000D03*
X1344000D03*
X1354000D03*
X1364000D03*
X1054000Y1015000D03*
X1064000D03*
X1074000D03*
X1084000D03*
X1094000D03*
X1104000D03*
X1114000D03*
X1124000D03*
X1134000D03*
X1144000D03*
X1154000D03*
X1164000D03*
X1174000D03*
X1184000D03*
X1194000D03*
X1204000D03*
X1214000D03*
X1224000D03*
X1234000D03*
X1244000D03*
X1254000D03*
X1264000D03*
X1274000D03*
X1284000D03*
X1294000D03*
X1304000D03*
X1314000D03*
X1324000D03*
X1334000D03*
X1344000D03*
X1354000D03*
X1364000D03*
X1054000Y1005000D03*
X1064000D03*
X1074000D03*
X1084000D03*
X1094000D03*
X1104000D03*
X1114000D03*
X1124000D03*
X1134000D03*
X1144000D03*
X1154000D03*
X1164000D03*
X1174000D03*
X1184000D03*
X1194000D03*
X1204000D03*
X1214000D03*
X1224000D03*
X1234000D03*
X1244000D03*
X1254000D03*
X1264000D03*
X1274000D03*
X1284000D03*
X1294000D03*
X1304000D03*
X1314000D03*
X1324000D03*
X1334000D03*
X1344000D03*
X1354000D03*
X1364000D03*
X1054000Y995000D03*
X1064000D03*
X1074000D03*
X1084000D03*
X1094000D03*
X1104000D03*
X1114000D03*
X1124000D03*
X1134000D03*
X1144000D03*
X1154000D03*
X1164000D03*
X1174000D03*
X1184000D03*
X1194000D03*
X1204000D03*
X1214000D03*
X1224000D03*
X1234000D03*
X1244000D03*
X1254000D03*
X1264000D03*
X1274000D03*
X1284000D03*
X1294000D03*
X1304000D03*
X1314000D03*
X1324000D03*
X1334000D03*
X1344000D03*
X1354000D03*
X1364000D03*
X1054000Y985000D03*
X1064000D03*
X1074000D03*
X1084000D03*
X1094000D03*
X1104000D03*
X1114000D03*
X1124000D03*
X1134000D03*
X1144000D03*
X1154000D03*
X1164000D03*
X1174000D03*
X1184000D03*
X1194000D03*
X1204000D03*
X1214000D03*
X1224000D03*
X1234000D03*
X1244000D03*
X1254000D03*
X1264000D03*
X1274000D03*
X1284000D03*
X1294000D03*
X1304000D03*
X1314000D03*
X1324000D03*
X1334000D03*
X1344000D03*
X1354000D03*
X1364000D03*
X1054000Y1245000D03*
X1064000D03*
X1074000D03*
X1084000D03*
X1094000D03*
X1104000D03*
X1114000D03*
X1124000D03*
X1134000D03*
X1144000D03*
X1154000D03*
X1164000D03*
X1174000D03*
X1184000D03*
X1194000D03*
X1204000D03*
X1214000D03*
X1224000D03*
X1234000D03*
X1244000D03*
X1254000D03*
X1264000D03*
X1274000D03*
X1284000D03*
X1294000D03*
X1304000D03*
X1314000D03*
X1324000D03*
X1334000D03*
X1344000D03*
X1354000D03*
X1364000D03*
X1054000Y1235000D03*
X1064000D03*
X1074000D03*
X1084000D03*
X1094000D03*
X1104000D03*
X1114000D03*
X1124000D03*
X1134000D03*
X1144000D03*
X1154000D03*
X1164000D03*
X1174000D03*
X1184000D03*
X1194000D03*
X1204000D03*
X1214000D03*
X1224000D03*
X1234000D03*
X1244000D03*
X1254000D03*
X1264000D03*
X1274000D03*
X1284000D03*
X1294000D03*
X1304000D03*
X1314000D03*
X1324000D03*
X1334000D03*
X1344000D03*
X1354000D03*
X1364000D03*
X1054000Y1225000D03*
X1064000D03*
X1074000D03*
X1084000D03*
X1094000D03*
X1104000D03*
X1114000D03*
X1124000D03*
X1134000D03*
X1144000D03*
X1154000D03*
X1164000D03*
X1174000D03*
X1184000D03*
X1194000D03*
X1204000D03*
X1214000D03*
X1224000D03*
X1234000D03*
X1244000D03*
X1254000D03*
X1264000D03*
X1274000D03*
X1284000D03*
X1294000D03*
X1304000D03*
X1314000D03*
X1324000D03*
X1334000D03*
X1344000D03*
X1354000D03*
X1364000D03*
X1054000Y1215000D03*
X1064000D03*
X1074000D03*
X1084000D03*
X1094000D03*
X1104000D03*
X1114000D03*
X1124000D03*
X1134000D03*
X1144000D03*
X1154000D03*
X1164000D03*
X1174000D03*
X1184000D03*
X1194000D03*
X1204000D03*
X1214000D03*
X1224000D03*
X1234000D03*
X1244000D03*
X1254000D03*
X1264000D03*
X1274000D03*
X1284000D03*
X1294000D03*
X1304000D03*
X1314000D03*
X1324000D03*
X1334000D03*
X1344000D03*
X1354000D03*
X1364000D03*
X1054000Y1205000D03*
X1064000D03*
X1074000D03*
X1084000D03*
X1094000D03*
X1104000D03*
X1114000D03*
X1124000D03*
X1134000D03*
X1144000D03*
X1154000D03*
X1164000D03*
X1174000D03*
X1184000D03*
X1194000D03*
X1204000D03*
X1214000D03*
X1224000D03*
X1234000D03*
X1244000D03*
X1254000D03*
X1264000D03*
X1274000D03*
X1284000D03*
X1294000D03*
X1304000D03*
X1314000D03*
X1324000D03*
X1334000D03*
X1344000D03*
X1354000D03*
X1364000D03*
X1054000Y1195000D03*
X1064000D03*
X1074000D03*
X1084000D03*
X1094000D03*
X1104000D03*
X1114000D03*
X1124000D03*
X1134000D03*
X1144000D03*
X1154000D03*
X1164000D03*
X1174000D03*
X1184000D03*
X1194000D03*
X1204000D03*
X1214000D03*
X1224000D03*
X1234000D03*
X1244000D03*
X1254000D03*
X1264000D03*
X1274000D03*
X1284000D03*
X1294000D03*
X1304000D03*
X1314000D03*
X1324000D03*
X1334000D03*
X1344000D03*
X1354000D03*
X1364000D03*
X1054000Y1185000D03*
X1064000D03*
X1074000D03*
X1084000D03*
X1094000D03*
X1104000D03*
X1114000D03*
X1124000D03*
X1134000D03*
X1144000D03*
X1154000D03*
X1164000D03*
X1174000D03*
X1184000D03*
X1194000D03*
X1204000D03*
X1214000D03*
X1224000D03*
X1234000D03*
X1244000D03*
X1254000D03*
X1264000D03*
X1274000D03*
X1284000D03*
X1294000D03*
X1304000D03*
X1314000D03*
X1324000D03*
X1334000D03*
X1344000D03*
X1354000D03*
X1364000D03*
X1384000Y1045000D03*
X1394000D03*
X1404000D03*
X1414000D03*
X1424000D03*
X1434000D03*
X1444000D03*
X1454000D03*
X1464000D03*
X1474000D03*
X1484000D03*
X1494000D03*
X1504000D03*
X1514000D03*
X1524000D03*
X1534000D03*
X1544000D03*
X1554000D03*
X1564000D03*
X1574000D03*
X1584000D03*
X1594000D03*
X1604000D03*
X1614000D03*
X1624000D03*
X1634000D03*
X1644000D03*
X1384000Y1035000D03*
X1394000D03*
X1404000D03*
X1414000D03*
X1424000D03*
X1434000D03*
X1444000D03*
X1454000D03*
X1464000D03*
X1474000D03*
X1484000D03*
X1494000D03*
X1504000D03*
X1514000D03*
X1524000D03*
X1534000D03*
X1544000D03*
X1554000D03*
X1564000D03*
X1574000D03*
X1584000D03*
X1594000D03*
X1604000D03*
X1614000D03*
X1624000D03*
X1634000D03*
X1644000D03*
X1384000Y1025000D03*
X1394000D03*
X1404000D03*
X1414000D03*
X1424000D03*
X1434000D03*
X1444000D03*
X1454000D03*
X1464000D03*
X1474000D03*
X1484000D03*
X1494000D03*
X1504000D03*
X1514000D03*
X1524000D03*
X1534000D03*
X1544000D03*
X1554000D03*
X1564000D03*
X1574000D03*
X1584000D03*
X1594000D03*
X1604000D03*
X1614000D03*
X1624000D03*
X1634000D03*
X1644000D03*
X1384000Y1015000D03*
X1394000D03*
X1404000D03*
X1414000D03*
X1424000D03*
X1434000D03*
X1444000D03*
X1454000D03*
X1464000D03*
X1474000D03*
X1484000D03*
X1494000D03*
X1504000D03*
X1514000D03*
X1524000D03*
X1534000D03*
X1544000D03*
X1554000D03*
X1564000D03*
X1574000D03*
X1584000D03*
X1594000D03*
X1604000D03*
X1614000D03*
X1624000D03*
X1634000D03*
X1644000D03*
X1384000Y1005000D03*
X1394000D03*
X1404000D03*
X1414000D03*
X1424000D03*
X1434000D03*
X1444000D03*
X1454000D03*
X1464000D03*
X1474000D03*
X1484000D03*
X1494000D03*
X1504000D03*
X1514000D03*
X1524000D03*
X1534000D03*
X1544000D03*
X1554000D03*
X1564000D03*
X1574000D03*
X1584000D03*
X1594000D03*
X1604000D03*
X1614000D03*
X1624000D03*
X1634000D03*
X1644000D03*
X1384000Y995000D03*
X1394000D03*
X1404000D03*
X1414000D03*
X1424000D03*
X1434000D03*
X1444000D03*
X1454000D03*
X1464000D03*
X1474000D03*
X1484000D03*
X1494000D03*
X1504000D03*
X1514000D03*
X1524000D03*
X1534000D03*
X1544000D03*
X1554000D03*
X1564000D03*
X1574000D03*
X1584000D03*
X1594000D03*
X1604000D03*
X1614000D03*
X1624000D03*
X1634000D03*
X1644000D03*
X1384000Y985000D03*
X1394000D03*
X1404000D03*
X1414000D03*
X1424000D03*
X1434000D03*
X1444000D03*
X1454000D03*
X1464000D03*
X1474000D03*
X1484000D03*
X1494000D03*
X1504000D03*
X1514000D03*
X1524000D03*
X1534000D03*
X1544000D03*
X1554000D03*
X1564000D03*
X1574000D03*
X1584000D03*
X1594000D03*
X1604000D03*
X1614000D03*
X1624000D03*
X1634000D03*
X1644000D03*
X1384000Y1245000D03*
X1394000D03*
X1404000D03*
X1414000D03*
X1424000D03*
X1434000D03*
X1444000D03*
X1454000D03*
X1464000D03*
X1474000D03*
X1484000D03*
X1494000D03*
X1504000D03*
X1514000D03*
X1524000D03*
X1534000D03*
X1544000D03*
X1554000D03*
X1564000D03*
X1574000D03*
X1584000D03*
X1594000D03*
X1604000D03*
X1614000D03*
X1624000D03*
X1634000D03*
X1644000D03*
X1384000Y1235000D03*
X1394000D03*
X1404000D03*
X1414000D03*
X1424000D03*
X1434000D03*
X1444000D03*
X1454000D03*
X1464000D03*
X1474000D03*
X1484000D03*
X1494000D03*
X1504000D03*
X1514000D03*
X1524000D03*
X1534000D03*
X1544000D03*
X1554000D03*
X1564000D03*
X1574000D03*
X1584000D03*
X1594000D03*
X1604000D03*
X1614000D03*
X1624000D03*
X1634000D03*
X1644000D03*
X1384000Y1225000D03*
X1394000D03*
X1404000D03*
X1414000D03*
X1424000D03*
X1434000D03*
X1444000D03*
X1454000D03*
X1464000D03*
X1474000D03*
X1484000D03*
X1494000D03*
X1504000D03*
X1514000D03*
X1524000D03*
X1534000D03*
X1544000D03*
X1554000D03*
X1564000D03*
X1574000D03*
X1584000D03*
X1594000D03*
X1604000D03*
X1614000D03*
X1624000D03*
X1634000D03*
X1644000D03*
X1384000Y1215000D03*
X1394000D03*
X1404000D03*
X1414000D03*
X1424000D03*
X1434000D03*
X1444000D03*
X1454000D03*
X1464000D03*
X1474000D03*
X1484000D03*
X1494000D03*
X1504000D03*
X1514000D03*
X1524000D03*
X1534000D03*
X1544000D03*
X1554000D03*
X1564000D03*
X1574000D03*
X1584000D03*
X1594000D03*
X1604000D03*
X1614000D03*
X1624000D03*
X1634000D03*
X1644000D03*
X1384000Y1205000D03*
X1394000D03*
X1404000D03*
X1414000D03*
X1424000D03*
X1434000D03*
X1444000D03*
X1454000D03*
X1464000D03*
X1474000D03*
X1484000D03*
X1494000D03*
X1504000D03*
X1514000D03*
X1524000D03*
X1534000D03*
X1544000D03*
X1554000D03*
X1564000D03*
X1574000D03*
X1584000D03*
X1594000D03*
X1604000D03*
X1614000D03*
X1624000D03*
X1634000D03*
X1644000D03*
X1384000Y1195000D03*
X1394000D03*
X1404000D03*
X1414000D03*
X1424000D03*
X1434000D03*
X1444000D03*
X1454000D03*
X1464000D03*
X1474000D03*
X1484000D03*
X1494000D03*
X1504000D03*
X1514000D03*
X1524000D03*
X1534000D03*
X1544000D03*
X1554000D03*
X1564000D03*
X1574000D03*
X1584000D03*
X1594000D03*
X1604000D03*
X1614000D03*
X1624000D03*
X1634000D03*
X1644000D03*
X1384000Y1185000D03*
X1394000D03*
X1404000D03*
X1414000D03*
X1424000D03*
X1434000D03*
X1444000D03*
X1454000D03*
X1464000D03*
X1474000D03*
X1484000D03*
X1494000D03*
X1504000D03*
X1514000D03*
X1524000D03*
X1534000D03*
X1544000D03*
X1554000D03*
X1564000D03*
X1574000D03*
X1584000D03*
X1594000D03*
X1604000D03*
X1614000D03*
X1624000D03*
X1634000D03*
X1644000D03*
G54D115*
X1036000Y1107250D03*
Y1114750D03*
X983000Y1075250D03*
Y1082750D03*
Y1111750D03*
Y1104250D03*
X1022000Y1151250D03*
Y1158750D03*
X983000Y1056750D03*
Y1049250D03*
G54D147*
X1088394Y1115093D03*
X1298631Y1120998D03*
X1369765Y1115093D03*
X1472914Y1120998D03*
G54D153*
X1003500Y1192000D03*
X993500D03*
G54D158*
G54D168*
X1079143Y1115093D03*
X1307883D03*
G54D169*
X1561480Y529984D02*
Y520141D01*
X1565570*
X1571366Y529984D02*
X1568639Y520141D01*
X1571366Y529984D02*
X1574093Y520141D01*
X1569661Y523422D02*
X1573070D01*
X1577161Y529984D02*
X1579889Y525297D01*
Y520141*
X1582616Y529984D02*
X1579889Y525297D01*
X1585684Y529984D02*
Y520141D01*
Y529984D02*
X1590116D01*
X1585684Y525297D02*
X1588411D01*
X1585684Y520141D02*
X1590116D01*
X1593184Y529984D02*
Y520141D01*
Y529984D02*
X1596252D01*
X1597275Y529516*
X1597616Y529047*
X1597957Y528109*
Y527172*
X1597616Y526234*
X1597275Y525766*
X1596252Y525297*
X1593184*
X1595570D02*
X1597957Y520141D01*
X1528627Y700844D02*
X1525900Y691000D01*
X1528627Y700844D02*
X1531355Y691000D01*
X1526923Y694281D02*
X1530332D01*
X1534423Y697563D02*
Y691000D01*
Y694750D02*
X1534764Y696156D01*
X1535445Y697094*
X1536127Y697563*
X1536127D02*
X1537150D01*
X1541241Y700844D02*
Y692875D01*
X1541582Y691469*
X1542264Y691000*
X1542945*
X1540218Y697563D02*
X1542605D01*
X1546014D02*
X1547377Y691000D01*
X1548741Y697563D02*
X1547377Y691000D01*
X1548741Y697563D02*
X1550105Y691000D01*
X1551468Y697563D02*
X1550105Y691000D01*
X1556241Y697563D02*
X1555559Y697094D01*
X1554877Y696156*
X1554536Y694750*
Y693813*
X1554536D02*
X1554877Y692406D01*
X1555559Y691469*
X1556241Y691000*
X1557264*
X1557945Y691469*
X1558627Y692406*
X1558968Y693813*
X1558968D02*
Y694750D01*
X1558627Y696156*
X1557945Y697094*
X1557264Y697563*
X1557264D02*
X1556241D01*
X1562036D02*
Y691000D01*
Y694750D02*
X1562377Y696156D01*
X1563059Y697094*
X1563741Y697563*
X1563741D02*
X1564764D01*
X1567832Y700844D02*
Y691000D01*
X1571241Y697563D02*
X1567832Y692875D01*
X1569195Y694750D02*
X1571582Y691000D01*
X1582491Y700844D02*
Y691000D01*
Y700844D02*
X1584877D01*
X1585900Y700375*
X1586582Y699438*
X1586582D02*
X1586923Y698500D01*
X1587264Y697094*
Y694750*
X1586923Y693344*
X1586582Y692406*
X1585900Y691469*
X1584877Y691000*
X1582491*
X1590332Y694750D02*
X1594423D01*
Y695688*
X1594423D02*
X1594082Y696625D01*
X1593741Y697094*
X1593059Y697563*
X1593059D02*
X1592036D01*
X1592036D02*
X1591355Y697094D01*
X1590673Y696156*
X1590332Y694750*
Y693813*
X1590332D02*
X1590673Y692406D01*
X1591355Y691469*
X1592036Y691000*
X1593059*
X1593741Y691469*
X1594423Y692406*
X1601241Y696156D02*
X1600900Y697094D01*
X1599877Y697563*
X1599877D02*
X1598855D01*
X1598855D02*
X1597832Y697094D01*
X1597491Y696156*
X1597832Y695219*
X1598514Y694750*
X1600218Y694281*
X1600900Y693813*
X1600900D02*
X1601241Y692875D01*
Y692406*
X1600900Y691469*
X1599877Y691000*
X1598855*
X1597832Y691469*
X1597491Y692406*
X1604309Y700844D02*
X1604650Y700375D01*
X1604991Y700844*
X1604650Y701313*
X1604650D02*
X1604309Y700844D01*
X1604650Y697563D02*
Y691000D01*
X1612150Y697563D02*
Y690062D01*
X1612150D02*
X1611809Y688656D01*
X1611468Y688187*
X1611468D02*
X1610786Y687719D01*
X1609764*
X1609082Y688187*
X1612150Y696156D02*
X1611468Y697094D01*
X1610786Y697563*
X1610786D02*
X1609764D01*
X1609764D02*
X1609082Y697094D01*
X1608400Y696156*
X1608059Y694750*
Y693813*
X1608059D02*
X1608400Y692406D01*
X1609082Y691469*
X1609764Y691000*
X1610786*
X1611468Y691469*
X1612150Y692406*
X1615218Y697563D02*
Y691000D01*
Y695688D02*
X1616241Y697094D01*
X1616923Y697563*
X1616923D02*
X1617945D01*
X1617945D02*
X1618627Y697094D01*
X1618968Y695688*
X1618968D02*
Y691000D01*
X1622036Y694750D02*
X1626127D01*
Y695688*
X1626127D02*
X1625786Y696625D01*
X1625445Y697094*
X1624764Y697563*
X1624764D02*
X1623741D01*
X1623741D02*
X1623059Y697094D01*
X1622377Y696156*
X1622036Y694750*
Y693813*
X1622036D02*
X1622377Y692406D01*
X1623059Y691469*
X1623741Y691000*
X1624764*
X1625445Y691469*
X1626127Y692406*
X1633286Y700844D02*
Y691000D01*
Y696156D02*
X1632605Y697094D01*
X1631923Y697563*
X1631923D02*
X1630900D01*
X1630900D02*
X1630218Y697094D01*
X1629536Y696156*
X1629195Y694750*
Y693813*
X1629195D02*
X1629536Y692406D01*
X1630218Y691469*
X1630900Y691000*
X1631923*
X1632605Y691469*
X1633286Y692406*
X1644195Y700844D02*
Y691000D01*
Y700844D02*
X1648627D01*
X1644195Y696156D02*
X1646923D01*
X1653400Y697563D02*
X1652718Y697094D01*
X1652036Y696156*
X1651695Y694750*
Y693813*
X1651695D02*
X1652036Y692406D01*
X1652718Y691469*
X1653400Y691000*
X1654423*
X1655105Y691469*
X1655786Y692406*
X1656127Y693813*
X1656127D02*
Y694750D01*
X1655786Y696156*
X1655105Y697094*
X1654423Y697563*
X1654423D02*
X1653400D01*
X1659195D02*
Y691000D01*
Y694750D02*
X1659536Y696156D01*
X1660218Y697094*
X1660900Y697563*
X1660900D02*
X1661923D01*
X1665332D02*
X1664991Y697094D01*
X1665332Y696625*
X1665673Y697094*
X1665332Y697563*
Y691938D02*
X1664991Y691469D01*
X1665332Y691000*
X1665673Y691469*
X1665332Y691938*
X1525900Y645844D02*
Y636000D01*
Y645844D02*
X1528968D01*
X1529991Y645375*
X1530332Y644906*
X1530673Y643969*
Y643031*
X1530332Y642094*
X1529991Y641625*
X1528968Y641156*
X1525900D02*
X1528968D01*
X1529991Y640688*
X1529991D02*
X1530332Y640219D01*
X1530673Y639281*
Y637875*
X1530332Y636938*
X1530332D02*
X1529991Y636469D01*
X1528968Y636000*
X1525900*
X1535445Y642563D02*
X1534764Y642094D01*
X1534082Y641156*
X1533741Y639750*
Y638813*
X1533741D02*
X1534082Y637406D01*
X1534764Y636469*
X1535445Y636000*
X1536468*
X1537150Y636469*
X1537832Y637406*
X1538173Y638813*
X1538173D02*
Y639750D01*
X1537832Y641156*
X1537150Y642094*
X1536468Y642563*
X1536468D02*
X1535445D01*
X1545332D02*
Y636000D01*
Y641156D02*
X1544650Y642094D01*
X1543968Y642563*
X1543968D02*
X1542945D01*
X1542945D02*
X1542264Y642094D01*
X1541582Y641156*
X1541241Y639750*
Y638813*
X1541241D02*
X1541582Y637406D01*
X1542264Y636469*
X1542945Y636000*
X1543968*
X1544650Y636469*
X1545332Y637406*
X1548400Y642563D02*
Y636000D01*
Y639750D02*
X1548741Y641156D01*
X1549423Y642094*
X1550105Y642563*
X1550105D02*
X1551127D01*
X1558286Y645844D02*
Y636000D01*
Y641156D02*
X1557605Y642094D01*
X1556923Y642563*
X1556923D02*
X1555900D01*
X1555900D02*
X1555218Y642094D01*
X1554536Y641156*
X1554195Y639750*
Y638813*
X1554195D02*
X1554536Y637406D01*
X1555218Y636469*
X1555900Y636000*
X1556923*
X1557605Y636469*
X1558286Y637406*
X1569195Y645844D02*
Y636000D01*
Y645844D02*
X1571582D01*
X1572605Y645375*
X1573286Y644438*
X1573286D02*
X1573627Y643500D01*
X1573968Y642094*
Y639750*
X1573627Y638344*
X1573286Y637406*
X1572605Y636469*
X1571582Y636000*
X1569195*
X1577036Y639750D02*
X1581127D01*
Y640688*
X1581127D02*
X1580786Y641625D01*
X1580445Y642094*
X1579764Y642563*
X1579764D02*
X1578741D01*
X1578741D02*
X1578059Y642094D01*
X1577377Y641156*
X1577036Y639750*
Y638813*
X1577036D02*
X1577377Y637406D01*
X1578059Y636469*
X1578741Y636000*
X1579764*
X1580445Y636469*
X1581127Y637406*
X1587945Y641156D02*
X1587605Y642094D01*
X1586582Y642563*
X1586582D02*
X1585559D01*
X1585559D02*
X1584536Y642094D01*
X1584195Y641156*
X1584536Y640219*
X1585218Y639750*
X1586923Y639281*
X1587605Y638813*
X1587605D02*
X1587945Y637875D01*
Y637406*
X1587605Y636469*
X1586582Y636000*
X1585559*
X1584536Y636469*
X1584195Y637406*
X1595105Y641156D02*
X1594423Y642094D01*
X1593741Y642563*
X1593741D02*
X1592718D01*
X1592718D02*
X1592036Y642094D01*
X1591355Y641156*
X1591014Y639750*
Y638813*
X1591014D02*
X1591355Y637406D01*
X1592036Y636469*
X1592718Y636000*
X1593741*
X1594423Y636469*
X1595105Y637406*
X1598173Y642563D02*
Y636000D01*
Y639750D02*
X1598514Y641156D01*
X1599195Y642094*
X1599877Y642563*
X1599877D02*
X1600900D01*
X1603968Y645844D02*
X1604309Y645375D01*
X1604650Y645844*
X1604309Y646313*
X1604309D02*
X1603968Y645844D01*
X1604309Y642563D02*
Y636000D01*
X1607718Y642563D02*
Y632719D01*
Y641156D02*
X1608400Y642094D01*
X1609082Y642563*
X1609082D02*
X1610105D01*
X1610105D02*
X1610786Y642094D01*
X1611468Y641156*
X1611809Y639750*
Y638813*
X1611809D02*
X1611468Y637406D01*
X1610786Y636469*
X1610105Y636000*
X1609082*
X1608400Y636469*
X1607718Y637406*
X1615900Y645844D02*
Y637875D01*
X1616241Y636469*
X1616923Y636000*
X1617605*
X1614877Y642563D02*
X1617264D01*
X1620673Y645844D02*
X1621014Y645375D01*
X1621355Y645844*
X1621014Y646313*
X1621014D02*
X1620673Y645844D01*
X1621014Y642563D02*
Y636000D01*
X1626127Y642563D02*
X1625445Y642094D01*
X1624764Y641156*
X1624423Y639750*
Y638813*
X1624423D02*
X1624764Y637406D01*
X1625445Y636469*
X1626127Y636000*
X1627150*
X1627832Y636469*
X1628514Y637406*
X1628855Y638813*
X1628855D02*
Y639750D01*
X1628514Y641156*
X1627832Y642094*
X1627150Y642563*
X1627150D02*
X1626127D01*
X1631923D02*
Y636000D01*
Y640688D02*
X1632945Y642094D01*
X1633627Y642563*
X1633627D02*
X1634650D01*
X1634650D02*
X1635332Y642094D01*
X1635673Y640688*
X1635673D02*
Y636000D01*
X1639082Y642563D02*
X1638741Y642094D01*
X1639082Y641625*
X1639423Y642094*
X1639082Y642563*
Y636938D02*
X1638741Y636469D01*
X1639082Y636000*
X1639423Y636469*
X1639082Y636938*
X1525900Y575844D02*
Y566000D01*
Y575844D02*
X1528968D01*
X1529991Y575375*
X1530332Y574906*
X1530673Y573969*
Y572563*
X1530673D02*
X1530332Y571625D01*
X1529991Y571156*
X1528968Y570688*
X1528968D02*
X1525900D01*
X1537832Y572563D02*
Y566000D01*
Y571156D02*
X1537150Y572094D01*
X1536468Y572563*
X1536468D02*
X1535445D01*
X1535445D02*
X1534764Y572094D01*
X1534082Y571156*
X1533741Y569750*
Y568813*
X1533741D02*
X1534082Y567406D01*
X1534764Y566469*
X1535445Y566000*
X1536468*
X1537150Y566469*
X1537832Y567406*
X1540900Y572563D02*
Y566000D01*
Y569750D02*
X1541241Y571156D01*
X1541923Y572094*
X1542605Y572563*
X1542605D02*
X1543627D01*
X1547718Y575844D02*
Y567875D01*
X1548059Y566469*
X1548741Y566000*
X1549423*
X1546695Y572563D02*
X1549082D01*
X1560332Y575844D02*
Y566000D01*
Y575844D02*
X1565105Y566000D01*
Y575844D02*
Y566000D01*
X1569877Y572563D02*
X1569195Y572094D01*
X1568514Y571156*
X1568173Y569750*
Y568813*
X1568173D02*
X1568514Y567406D01*
X1569195Y566469*
X1569877Y566000*
X1570900*
X1571582Y566469*
X1572264Y567406*
X1572605Y568813*
X1572605D02*
Y569750D01*
X1572264Y571156*
X1571582Y572094*
X1570900Y572563*
X1570900D02*
X1569877D01*
X1576014D02*
X1575673Y572094D01*
X1576014Y571625*
X1576355Y572094*
X1576014Y572563*
Y566938D02*
X1575673Y566469D01*
X1576014Y566000*
X1576355Y566469*
X1576014Y566938*
X1825900Y575844D02*
Y566000D01*
Y575844D02*
X1828968D01*
X1829991Y575375*
X1830332Y574906*
X1830673Y573969*
Y573031*
X1830332Y572094*
X1829991Y571625*
X1828968Y571156*
X1825900*
X1828286D02*
X1830673Y566000D01*
X1833741Y569750D02*
X1837832D01*
Y570688*
X1837832D02*
X1837491Y571625D01*
X1837150Y572094*
X1836468Y572563*
X1836468D02*
X1835445D01*
X1835445D02*
X1834764Y572094D01*
X1834082Y571156*
X1833741Y569750*
Y568813*
X1833741D02*
X1834082Y567406D01*
X1834764Y566469*
X1835445Y566000*
X1836468*
X1837150Y566469*
X1837832Y567406*
X1840900Y572563D02*
X1842945Y566000D01*
X1844991Y572563D02*
X1842945Y566000D01*
X1848059Y575844D02*
X1848400Y575375D01*
X1848741Y575844*
X1848400Y576313*
X1848400D02*
X1848059Y575844D01*
X1848400Y572563D02*
Y566000D01*
X1855559Y571156D02*
X1855218Y572094D01*
X1854195Y572563*
X1854195D02*
X1853173D01*
X1853173D02*
X1852150Y572094D01*
X1851809Y571156*
X1852150Y570219*
X1852832Y569750*
X1854536Y569281*
X1855218Y568813*
X1855218D02*
X1855559Y567875D01*
Y567406*
X1855218Y566469*
X1854195Y566000*
X1853173*
X1852150Y566469*
X1851809Y567406*
X1858627Y575844D02*
X1858968Y575375D01*
X1859309Y575844*
X1858968Y576313*
X1858968D02*
X1858627Y575844D01*
X1858968Y572563D02*
Y566000D01*
X1864082Y572563D02*
X1863400Y572094D01*
X1862718Y571156*
X1862377Y569750*
Y568813*
X1862377D02*
X1862718Y567406D01*
X1863400Y566469*
X1864082Y566000*
X1865105*
X1865786Y566469*
X1866468Y567406*
X1866809Y568813*
X1866809D02*
Y569750D01*
X1866468Y571156*
X1865786Y572094*
X1865105Y572563*
X1865105D02*
X1864082D01*
X1869877D02*
Y566000D01*
Y570688D02*
X1870900Y572094D01*
X1871582Y572563*
X1871582D02*
X1872605D01*
X1872605D02*
X1873286Y572094D01*
X1873627Y570688*
X1873627D02*
Y566000D01*
X1877036Y572563D02*
X1876695Y572094D01*
X1877036Y571625*
X1877377Y572094*
X1877036Y572563*
Y566938D02*
X1876695Y566469D01*
X1877036Y566000*
X1877377Y566469*
X1877036Y566938*
X1620900Y561000D02*
Y561625D01*
X1621355Y562875*
X1621809Y563500*
X1622718Y564125*
X1624536*
X1625445Y563500*
X1625900Y562875*
X1626355Y561625*
Y560375*
X1625900Y559125*
X1625445Y558500*
X1623627Y557250*
Y555375*
Y552250D02*
X1623173Y551625D01*
X1623627Y551000*
X1624082Y551625*
X1623627Y552250*
X1909491Y564125D02*
X1904945Y555375D01*
X1911764*
X1909491Y564125D02*
Y551000D01*
X1916309Y552250D02*
X1915855Y551625D01*
X1916309Y551000*
X1916764Y551625*
X1916309Y552250*
X1920855Y561625D02*
X1921764Y562250D01*
X1923127Y564125*
Y551000*
X1658582Y676313D02*
Y663187D01*
X1655400Y676313D02*
X1661764D01*
X1665855D02*
Y663187D01*
Y676313D02*
X1671764D01*
X1665855Y670062D02*
X1669491D01*
X1665855Y663187D02*
X1671764D01*
X1675855Y676313D02*
X1682218Y663187D01*
Y676313D02*
X1675855Y663187D01*
X1689945Y676313D02*
X1686309Y663187D01*
X1689945Y676313D02*
X1693582Y663187D01*
X1687673Y667562D02*
X1692218D01*
X1704036Y674438D02*
X1703127Y675688D01*
X1703127D02*
X1701764Y676313D01*
X1701764D02*
X1699945D01*
X1699945D02*
X1698582Y675688D01*
X1698582D02*
X1697673Y674438D01*
X1697673D02*
Y673188D01*
X1697673D02*
X1698127Y671938D01*
X1698127D02*
X1698582Y671313D01*
X1698582D02*
X1699491Y670687D01*
X1699491D02*
X1702218Y669437D01*
X1702218D02*
X1703127Y668812D01*
X1703127D02*
X1703582Y668187D01*
X1703582D02*
X1704036Y666937D01*
X1704036D02*
Y665062D01*
X1704036D02*
X1703127Y663812D01*
X1703127D02*
X1701764Y663187D01*
X1701764D02*
X1699945D01*
X1699945D02*
X1698582Y663812D01*
X1698582D02*
X1697673Y665062D01*
X1718582Y676313D02*
Y663187D01*
X1722673Y676313D02*
Y663187D01*
Y676313D02*
X1729036Y663187D01*
Y676313D02*
Y663187D01*
X1739491Y674438D02*
X1738582Y675688D01*
X1738582D02*
X1737218Y676313D01*
X1737218D02*
X1735400D01*
X1735400D02*
X1734036Y675688D01*
X1734036D02*
X1733127Y674438D01*
X1733127D02*
Y673188D01*
X1733127D02*
X1733582Y671938D01*
X1733582D02*
X1734036Y671313D01*
X1734036D02*
X1734945Y670687D01*
X1734945D02*
X1737673Y669437D01*
X1737673D02*
X1738582Y668812D01*
X1738582D02*
X1739036Y668187D01*
X1739036D02*
X1739491Y666937D01*
X1739491D02*
Y665062D01*
X1739491D02*
X1738582Y663812D01*
X1738582D02*
X1737218Y663187D01*
X1737218D02*
X1735400D01*
X1735400D02*
X1734036Y663812D01*
X1734036D02*
X1733127Y665062D01*
X1746764Y676313D02*
Y663187D01*
X1743582Y676313D02*
X1749945D01*
X1754036D02*
Y663187D01*
Y676313D02*
X1758127D01*
X1758127D02*
X1759491Y675688D01*
X1759491D02*
X1759945Y675063D01*
X1759945D02*
X1760400Y673813D01*
X1760400D02*
Y672563D01*
X1760400D02*
X1759945Y671313D01*
X1759945D02*
X1759491Y670687D01*
X1759491D02*
X1758127Y670062D01*
X1758127D02*
X1754036D01*
X1757218D02*
X1760400Y663187D01*
X1764491Y676313D02*
Y666937D01*
X1764491D02*
X1764945Y665062D01*
X1764945D02*
X1765855Y663812D01*
X1765855D02*
X1767218Y663187D01*
X1767218D02*
X1768127D01*
X1768127D02*
X1769491Y663812D01*
X1769491D02*
X1770400Y665062D01*
X1770400D02*
X1770855Y666937D01*
X1770855D02*
Y676313D01*
X1774945D02*
Y663187D01*
Y676313D02*
X1778582Y663187D01*
X1782218Y676313D02*
X1778582Y663187D01*
X1782218Y676313D02*
Y663187D01*
X1786309Y676313D02*
Y663187D01*
Y676313D02*
X1792218D01*
X1786309Y670062D02*
X1789945D01*
X1786309Y663187D02*
X1792218D01*
X1796309Y676313D02*
Y663187D01*
Y676313D02*
X1802673Y663187D01*
Y676313D02*
Y663187D01*
X1809945Y676313D02*
Y663187D01*
X1806764Y676313D02*
X1813127D01*
X1823582Y674438D02*
X1822673Y675688D01*
X1822673D02*
X1821309Y676313D01*
X1821309D02*
X1819491D01*
X1819491D02*
X1818127Y675688D01*
X1818127D02*
X1817218Y674438D01*
X1817218D02*
Y673188D01*
X1817218D02*
X1817673Y671938D01*
X1817673D02*
X1818127Y671313D01*
X1818127D02*
X1819036Y670687D01*
X1819036D02*
X1821764Y669437D01*
X1821764D02*
X1822673Y668812D01*
X1822673D02*
X1823127Y668187D01*
X1823127D02*
X1823582Y666937D01*
X1823582D02*
Y665062D01*
X1823582D02*
X1822673Y663812D01*
X1822673D02*
X1821309Y663187D01*
X1821309D02*
X1819491D01*
X1819491D02*
X1818127Y663812D01*
X1818127D02*
X1817218Y665062D01*
X1664264Y626313D02*
Y613187D01*
Y626313D02*
X1667445D01*
X1667445D02*
X1668809Y625688D01*
X1668809D02*
X1669718Y624438D01*
X1669718D02*
X1670173Y623188D01*
X1670173D02*
X1670627Y621313D01*
X1670627D02*
Y618187D01*
X1670627D02*
X1670173Y616312D01*
X1670173D02*
X1669718Y615062D01*
X1669718D02*
X1668809Y613812D01*
X1668809D02*
X1667445Y613187D01*
X1667445D02*
X1664264D01*
X1676991Y621938D02*
X1676082Y621313D01*
X1676082D02*
X1675173Y620062D01*
X1675173D02*
X1674718Y618187D01*
X1674718D02*
Y616937D01*
X1674718D02*
X1675173Y615062D01*
X1675173D02*
X1676082Y613812D01*
X1676082D02*
X1676991Y613187D01*
X1676991D02*
X1678355D01*
X1678355D02*
X1679264Y613812D01*
X1679264D02*
X1680173Y615062D01*
X1680173D02*
X1680627Y616937D01*
X1680627D02*
Y618187D01*
X1680627D02*
X1680173Y620062D01*
X1680173D02*
X1679264Y621313D01*
X1679264D02*
X1678355Y621938D01*
X1678355D02*
X1676991D01*
X1690173Y620062D02*
X1689264Y621313D01*
X1689264D02*
X1688355Y621938D01*
X1688355D02*
X1686991D01*
X1686991D02*
X1686082Y621313D01*
X1686082D02*
X1685173Y620062D01*
X1685173D02*
X1684718Y618187D01*
X1684718D02*
Y616937D01*
X1684718D02*
X1685173Y615062D01*
X1685173D02*
X1686082Y613812D01*
X1686082D02*
X1686991Y613187D01*
X1686991D02*
X1688355D01*
X1688355D02*
X1689264Y613812D01*
X1689264D02*
X1690173Y615062D01*
X1694264Y626313D02*
Y613187D01*
X1698809Y621938D02*
X1694264Y615687D01*
X1696082Y618187D02*
X1699264Y613187D01*
X1703355Y626313D02*
X1703809Y625688D01*
X1703809D02*
X1704264Y626313D01*
X1704264D02*
X1703809Y626938D01*
X1703809D02*
X1703355Y626313D01*
X1703809Y621938D02*
Y613187D01*
X1708355Y621938D02*
Y613187D01*
Y619437D02*
X1709718Y621313D01*
X1709718D02*
X1710627Y621938D01*
X1710627D02*
X1711991D01*
X1711991D02*
X1712900Y621313D01*
X1712900D02*
X1713355Y619437D01*
X1713355D02*
Y613187D01*
X1722900Y621938D02*
Y611937D01*
X1722900D02*
X1722445Y610062D01*
X1722445D02*
X1721991Y609437D01*
X1721991D02*
X1721082Y608812D01*
X1721082D02*
X1719718D01*
X1719718D02*
X1718809Y609437D01*
X1722900Y620062D02*
X1721991Y621313D01*
X1721991D02*
X1721082Y621938D01*
X1721082D02*
X1719718D01*
X1719718D02*
X1718809Y621313D01*
X1718809D02*
X1717900Y620062D01*
X1717900D02*
X1717445Y618187D01*
X1717445D02*
Y616937D01*
X1717445D02*
X1717900Y615062D01*
X1717900D02*
X1718809Y613812D01*
X1718809D02*
X1719718Y613187D01*
X1719718D02*
X1721082D01*
X1721082D02*
X1721991Y613812D01*
X1721991D02*
X1722900Y615062D01*
X1733355Y624438D02*
X1732445Y625688D01*
X1732445D02*
X1731082Y626313D01*
X1731082D02*
X1729264D01*
X1729264D02*
X1727900Y625688D01*
X1727900D02*
X1726991Y624438D01*
X1726991D02*
Y623188D01*
X1726991D02*
X1727445Y621938D01*
X1727445D02*
X1727900Y621313D01*
X1727900D02*
X1728809Y620687D01*
X1728809D02*
X1731536Y619437D01*
X1731536D02*
X1732445Y618812D01*
X1732445D02*
X1732900Y618187D01*
X1732900D02*
X1733355Y616937D01*
X1733355D02*
Y615062D01*
X1733355D02*
X1732445Y613812D01*
X1732445D02*
X1731082Y613187D01*
X1731082D02*
X1729264D01*
X1729264D02*
X1727900Y613812D01*
X1727900D02*
X1726991Y615062D01*
X1738809Y626313D02*
Y615687D01*
X1738809D02*
X1739264Y613812D01*
X1739264D02*
X1740173Y613187D01*
X1740173D02*
X1741082D01*
X1737445Y621938D02*
X1740627D01*
X1745173D02*
Y613187D01*
Y619437D02*
X1746536Y621313D01*
X1746536D02*
X1747445Y621938D01*
X1747445D02*
X1748809D01*
X1748809D02*
X1749718Y621313D01*
X1749718D02*
X1750173Y619437D01*
X1750173D02*
Y613187D01*
X1754264Y610687D02*
X1763809D01*
X1766536Y626313D02*
Y613187D01*
X1772900Y626313D02*
Y613187D01*
X1766536Y620062D02*
X1772900D01*
X1783355Y624438D02*
X1782445Y625688D01*
X1782445D02*
X1781082Y626313D01*
X1781082D02*
X1779264D01*
X1779264D02*
X1777900Y625688D01*
X1777900D02*
X1776991Y624438D01*
X1776991D02*
Y623188D01*
X1776991D02*
X1777445Y621938D01*
X1777445D02*
X1777900Y621313D01*
X1777900D02*
X1778809Y620687D01*
X1778809D02*
X1781536Y619437D01*
X1781536D02*
X1782445Y618812D01*
X1782445D02*
X1782900Y618187D01*
X1782900D02*
X1783355Y616937D01*
X1783355D02*
Y615062D01*
X1783355D02*
X1782445Y613812D01*
X1782445D02*
X1781082Y613187D01*
X1781082D02*
X1779264D01*
X1779264D02*
X1777900Y613812D01*
X1777900D02*
X1776991Y615062D01*
X1787445Y626313D02*
Y613187D01*
Y626313D02*
X1793355D01*
X1787445Y620062D02*
X1791082D01*
X1787445Y613187D02*
X1793355D01*
X1804264Y623188D02*
X1803809Y624438D01*
X1803809D02*
X1802900Y625688D01*
X1802900D02*
X1801991Y626313D01*
X1801991D02*
X1800173D01*
X1800173D02*
X1799264Y625688D01*
X1799264D02*
X1798355Y624438D01*
X1798355D02*
X1797900Y623188D01*
X1797900D02*
X1797445Y621313D01*
X1797445D02*
Y618187D01*
X1797445D02*
X1797900Y616312D01*
X1797900D02*
X1798355Y615062D01*
X1798355D02*
X1799264Y613812D01*
X1799264D02*
X1800173Y613187D01*
X1800173D02*
X1801991D01*
X1801991D02*
X1802900Y613812D01*
X1802900D02*
X1803809Y615062D01*
X1803809D02*
X1804264Y616312D01*
X1810627Y626313D02*
X1809264Y625688D01*
X1809264D02*
X1808809Y624438D01*
X1808809D02*
Y623188D01*
X1808809D02*
X1809264Y621938D01*
X1809264D02*
X1810173Y621313D01*
X1810173D02*
X1811991Y620687D01*
X1811991D02*
X1813355Y620062D01*
X1813355D02*
X1814264Y618812D01*
X1814264D02*
X1814718Y617562D01*
X1814718D02*
Y615687D01*
X1814718D02*
X1814264Y614437D01*
X1814264D02*
X1813809Y613812D01*
X1813809D02*
X1812445Y613187D01*
X1812445D02*
X1810627D01*
X1810627D02*
X1809264Y613812D01*
X1809264D02*
X1808809Y614437D01*
X1808809D02*
X1808355Y615687D01*
X1808355D02*
Y617562D01*
X1808355D02*
X1808809Y618812D01*
X1808809D02*
X1809718Y620062D01*
X1809718D02*
X1811082Y620687D01*
X1811082D02*
X1812900Y621313D01*
X1812900D02*
X1813809Y621938D01*
X1813809D02*
X1814264Y623188D01*
X1814264D02*
Y624438D01*
X1814264D02*
X1813809Y625688D01*
X1813809D02*
X1812445Y626313D01*
X1812445D02*
X1810627D01*
X1244309Y535844D02*
Y528344D01*
X1243968Y526938*
X1243968D02*
X1243627Y526469D01*
X1242945Y526000*
X1242264*
X1241582Y526469*
X1241241Y526938*
X1241241D02*
X1240900Y528344D01*
Y529281*
X1249082Y532563D02*
X1248400Y532094D01*
X1247718Y531156*
X1247377Y529750*
Y528813*
X1247377D02*
X1247718Y527406D01*
X1248400Y526469*
X1249082Y526000*
X1250105*
X1250786Y526469*
X1251468Y527406*
X1251809Y528813*
X1251809D02*
Y529750D01*
X1251468Y531156*
X1250786Y532094*
X1250105Y532563*
X1250105D02*
X1249082D01*
X1254877Y535844D02*
Y526000D01*
Y531156D02*
X1255559Y532094D01*
X1256241Y532563*
X1256241D02*
X1257264D01*
X1257264D02*
X1257945Y532094D01*
X1258627Y531156*
X1258968Y529750*
Y528813*
X1258968D02*
X1258627Y527406D01*
X1257945Y526469*
X1257264Y526000*
X1256241*
X1255559Y526469*
X1254877Y527406*
X1269877Y535844D02*
Y526000D01*
Y535844D02*
X1274650Y526000D01*
Y535844D02*
Y526000D01*
X1279423Y532563D02*
X1278741Y532094D01*
X1278059Y531156*
X1277718Y529750*
Y528813*
X1277718D02*
X1278059Y527406D01*
X1278741Y526469*
X1279423Y526000*
X1280445*
X1281127Y526469*
X1281809Y527406*
X1282150Y528813*
X1282150D02*
Y529750D01*
X1281809Y531156*
X1281127Y532094*
X1280445Y532563*
X1280445D02*
X1279423D01*
X1285559D02*
X1285218Y532094D01*
X1285559Y531625*
X1285900Y532094*
X1285559Y532563*
Y526938D02*
X1285218Y526469D01*
X1285559Y526000*
X1285900Y526469*
X1285559Y526938*
X1310855Y531313D02*
Y518187D01*
X1307673Y531313D02*
X1314036D01*
X1318127D02*
X1324491Y518187D01*
Y531313D02*
X1318127Y518187D01*
X1328582Y531313D02*
Y518187D01*
Y531313D02*
X1334945Y518187D01*
Y531313D02*
Y518187D01*
X1339491Y519437D02*
X1339036Y518812D01*
X1339036D02*
X1339491Y518187D01*
X1339491D02*
X1339945Y518812D01*
X1339945D02*
X1339491Y519437D01*
X1346764Y531313D02*
X1345400Y530688D01*
X1345400D02*
X1344491Y528813D01*
X1344491D02*
X1344036Y525687D01*
X1344036D02*
Y523812D01*
X1344036D02*
X1344491Y520687D01*
X1344491D02*
X1345400Y518812D01*
X1345400D02*
X1346764Y518187D01*
X1346764D02*
X1347673D01*
X1347673D02*
X1349036Y518812D01*
X1349036D02*
X1349945Y520687D01*
X1349945D02*
X1350400Y523812D01*
X1350400D02*
Y525687D01*
X1350400D02*
X1349945Y528813D01*
X1349945D02*
X1349036Y530688D01*
X1349036D02*
X1347673Y531313D01*
X1347673D02*
X1346764D01*
X1357218D02*
X1355855Y530688D01*
X1355855D02*
X1354945Y528813D01*
X1354945D02*
X1354491Y525687D01*
X1354491D02*
Y523812D01*
X1354491D02*
X1354945Y520687D01*
X1354945D02*
X1355855Y518812D01*
X1355855D02*
X1357218Y518187D01*
X1357218D02*
X1358127D01*
X1358127D02*
X1359491Y518812D01*
X1359491D02*
X1360400Y520687D01*
X1360400D02*
X1360855Y523812D01*
X1360855D02*
Y525687D01*
X1360855D02*
X1360400Y528813D01*
X1360400D02*
X1359491Y530688D01*
X1359491D02*
X1358127Y531313D01*
X1358127D02*
X1357218D01*
X1365855D02*
X1370855D01*
X1370855D02*
X1368127Y526313D01*
X1368127D02*
X1369491D01*
X1369491D02*
X1370400Y525687D01*
X1370400D02*
X1370855Y525062D01*
X1370855D02*
X1371309Y523187D01*
X1371309D02*
Y521937D01*
X1371309D02*
X1370855Y520062D01*
X1370855D02*
X1369945Y518812D01*
X1369945D02*
X1368582Y518187D01*
X1368582D02*
X1367218D01*
X1367218D02*
X1365855Y518812D01*
X1365855D02*
X1365400Y519437D01*
X1365400D02*
X1364945Y520687D01*
X1400900Y535844D02*
Y526000D01*
Y535844D02*
X1403286D01*
X1404309Y535375*
X1404991Y534438*
X1404991D02*
X1405332Y533500D01*
X1405673Y532094*
Y529750*
X1405332Y528344*
X1404991Y527406*
X1404309Y526469*
X1403286Y526000*
X1400900*
X1412832Y532563D02*
Y526000D01*
Y531156D02*
X1412150Y532094D01*
X1411468Y532563*
X1411468D02*
X1410445D01*
X1410445D02*
X1409764Y532094D01*
X1409082Y531156*
X1408741Y529750*
Y528813*
X1408741D02*
X1409082Y527406D01*
X1409764Y526469*
X1410445Y526000*
X1411468*
X1412150Y526469*
X1412832Y527406*
X1416923Y535844D02*
Y527875D01*
X1417264Y526469*
X1417945Y526000*
X1418627*
X1415900Y532563D02*
X1418286D01*
X1421695Y529750D02*
X1425786D01*
Y530688*
X1425786D02*
X1425445Y531625D01*
X1425105Y532094*
X1424423Y532563*
X1424423D02*
X1423400D01*
X1423400D02*
X1422718Y532094D01*
X1422036Y531156*
X1421695Y529750*
Y528813*
X1421695D02*
X1422036Y527406D01*
X1422718Y526469*
X1423400Y526000*
X1424423*
X1425105Y526469*
X1425786Y527406*
X1429195Y532563D02*
X1428855Y532094D01*
X1429195Y531625*
X1429536Y532094*
X1429195Y532563*
Y526938D02*
X1428855Y526469D01*
X1429195Y526000*
X1429536Y526469*
X1429195Y526938*
X1437900Y531313D02*
X1436536Y530688D01*
X1436536D02*
X1435627Y528813D01*
X1435627D02*
X1435173Y525687D01*
X1435173D02*
Y523812D01*
X1435173D02*
X1435627Y520687D01*
X1435627D02*
X1436536Y518812D01*
X1436536D02*
X1437900Y518187D01*
X1437900D02*
X1438809D01*
X1438809D02*
X1440173Y518812D01*
X1440173D02*
X1441082Y520687D01*
X1441082D02*
X1441536Y523812D01*
X1441536D02*
Y525687D01*
X1441536D02*
X1441082Y528813D01*
X1441082D02*
X1440173Y530688D01*
X1440173D02*
X1438809Y531313D01*
X1438809D02*
X1437900D01*
X1451991D02*
X1447445Y518187D01*
X1445627Y531313D02*
X1451991D01*
X1464264Y533813D02*
X1456082Y513812D01*
X1468809Y528188D02*
Y528813D01*
X1468809D02*
X1469264Y530063D01*
X1469264D02*
X1469718Y530688D01*
X1469718D02*
X1470627Y531313D01*
X1470627D02*
X1472445D01*
X1472445D02*
X1473355Y530688D01*
X1473355D02*
X1473809Y530063D01*
X1473809D02*
X1474264Y528813D01*
X1474264D02*
Y527563D01*
X1474264D02*
X1473809Y526313D01*
X1473809D02*
X1472900Y524437D01*
X1472900D02*
X1468355Y518187D01*
X1468355D02*
X1474718D01*
X1484264Y529438D02*
X1483809Y530688D01*
X1483809D02*
X1482445Y531313D01*
X1482445D02*
X1481536D01*
X1481536D02*
X1480173Y530688D01*
X1480173D02*
X1479264Y528813D01*
X1479264D02*
X1478809Y525687D01*
X1478809D02*
Y522562D01*
X1478809D02*
X1479264Y520062D01*
X1479264D02*
X1480173Y518812D01*
X1480173D02*
X1481536Y518187D01*
X1481536D02*
X1481991D01*
X1481991D02*
X1483355Y518812D01*
X1483355D02*
X1484264Y520062D01*
X1484264D02*
X1484718Y521937D01*
X1484718D02*
Y522562D01*
X1484718D02*
X1484264Y524437D01*
X1484264D02*
X1483355Y525687D01*
X1483355D02*
X1481991Y526313D01*
X1481991D02*
X1481536D01*
X1481536D02*
X1480173Y525687D01*
X1480173D02*
X1479264Y524437D01*
X1479264D02*
X1478809Y522562D01*
X1496991Y533813D02*
X1488809Y513812D01*
X1501082Y528813D02*
X1501991Y529438D01*
X1501991D02*
X1503355Y531313D01*
X1503355D02*
Y518187D01*
X1507900Y528188D02*
Y528813D01*
X1507900D02*
X1508355Y530063D01*
X1508355D02*
X1508809Y530688D01*
X1508809D02*
X1509718Y531313D01*
X1509718D02*
X1511536D01*
X1511536D02*
X1512445Y530688D01*
X1512445D02*
X1512900Y530063D01*
X1512900D02*
X1513355Y528813D01*
X1513355D02*
Y527563D01*
X1513355D02*
X1512900Y526313D01*
X1512900D02*
X1511991Y524437D01*
X1511991D02*
X1507445Y518187D01*
X1507445D02*
X1513809D01*
X1748409Y529484D02*
Y519641D01*
Y529484D02*
X1751477D01*
X1752500Y529016*
X1752841Y528547*
X1753182Y527609*
Y526203*
X1752841Y525266*
X1752500Y524797*
X1751477Y524328*
X1748409*
X1756250Y526203D02*
Y519641D01*
Y523391D02*
X1756591Y524797D01*
X1757273Y525734*
X1757955Y526203*
X1758977*
X1762045Y529484D02*
X1762386Y529016D01*
X1762727Y529484*
X1762386Y529953*
X1762045Y529484*
X1762386Y526203D02*
Y519641D01*
X1765795Y526203D02*
Y519641D01*
Y524328D02*
X1766818Y525734D01*
X1767500Y526203*
X1768523*
X1769205Y525734*
X1769545Y524328*
Y519641*
Y524328D02*
X1770568Y525734D01*
X1771250Y526203*
X1772273*
X1772955Y525734*
X1773295Y524328*
Y519641*
X1780455Y526203D02*
Y519641D01*
Y524797D02*
X1779773Y525734D01*
X1779091Y526203*
X1778068*
X1777386Y525734*
X1776705Y524797*
X1776364Y523391*
Y522453*
X1776705Y521047*
X1777386Y520109*
X1778068Y519641*
X1779091*
X1779773Y520109*
X1780455Y521047*
X1783523Y526203D02*
Y519641D01*
Y523391D02*
X1783864Y524797D01*
X1784545Y525734*
X1785227Y526203*
X1786250*
X1789659D02*
X1791705Y519641D01*
X1793750Y526203D02*
X1791705Y519641D01*
X1791023Y517766*
X1790341Y516828*
X1789659Y516359*
X1789318*
X1809432Y528078D02*
X1808750Y529016D01*
X1807727Y529484*
X1806364*
X1805341Y529016*
X1804659Y528078*
Y527141*
X1805000Y526203*
X1805341Y525734*
X1806023Y525266*
X1808068Y524328*
X1808750Y523859*
X1809091Y523391*
X1809432Y522453*
Y521047*
X1808750Y520109*
X1807727Y519641*
X1806364*
X1805341Y520109*
X1804659Y521047*
X1812500Y529484D02*
X1812841Y529016D01*
X1813182Y529484*
X1812841Y529953*
X1812500Y529484*
X1812841Y526203D02*
Y519641D01*
X1820341Y529484D02*
Y519641D01*
Y524797D02*
X1819659Y525734D01*
X1818977Y526203*
X1817955*
X1817273Y525734*
X1816591Y524797*
X1816250Y523391*
Y522453*
X1816591Y521047*
X1817273Y520109*
X1817955Y519641*
X1818977*
X1819659Y520109*
X1820341Y521047*
X1823409Y523391D02*
X1827500D01*
Y524328*
X1827159Y525266*
X1826818Y525734*
X1826136Y526203*
X1825114*
X1824432Y525734*
X1823750Y524797*
X1823409Y523391*
Y522453*
X1823750Y521047*
X1824432Y520109*
X1825114Y519641*
X1826136*
X1826818Y520109*
X1827500Y521047*
X1843182Y528078D02*
X1842500Y529016D01*
X1841477Y529484*
X1840114*
X1839091Y529016*
X1838409Y528078*
Y527141*
X1838750Y526203*
X1839091Y525734*
X1839773Y525266*
X1841818Y524328*
X1842500Y523859*
X1842841Y523391*
X1843182Y522453*
Y521047*
X1842500Y520109*
X1841477Y519641*
X1840114*
X1839091Y520109*
X1838409Y521047*
X1847955Y526203D02*
X1847273Y525734D01*
X1846591Y524797*
X1846250Y523391*
Y522453*
X1846591Y521047*
X1847273Y520109*
X1847955Y519641*
X1848977*
X1849659Y520109*
X1850341Y521047*
X1850682Y522453*
Y523391*
X1850341Y524797*
X1849659Y525734*
X1848977Y526203*
X1847955*
X1853750Y529484D02*
Y519641D01*
X1860909Y529484D02*
Y519641D01*
Y524797D02*
X1860227Y525734D01*
X1859545Y526203*
X1858523*
X1857841Y525734*
X1857159Y524797*
X1856818Y523391*
Y522453*
X1857159Y521047*
X1857841Y520109*
X1858523Y519641*
X1859545*
X1860227Y520109*
X1860909Y521047*
X1863977Y523391D02*
X1868068D01*
Y524328*
X1867727Y525266*
X1867386Y525734*
X1866705Y526203*
X1865682*
X1865000Y525734*
X1864318Y524797*
X1863977Y523391*
Y522453*
X1864318Y521047*
X1865000Y520109*
X1865682Y519641*
X1866705*
X1867386Y520109*
X1868068Y521047*
X1871136Y526203D02*
Y519641D01*
Y523391D02*
X1871477Y524797D01*
X1872159Y525734*
X1872841Y526203*
X1873864*
X1876932D02*
Y519641D01*
Y524328D02*
X1877955Y525734D01*
X1878636Y526203*
X1879659*
X1880341Y525734*
X1880682Y524328*
Y519641*
Y524328D02*
X1881705Y525734D01*
X1882386Y526203*
X1883409*
X1884091Y525734*
X1884432Y524328*
Y519641*
X1891591Y526203D02*
Y519641D01*
Y524797D02*
X1890909Y525734D01*
X1890227Y526203*
X1889205*
X1888523Y525734*
X1887841Y524797*
X1887500Y523391*
Y522453*
X1887841Y521047*
X1888523Y520109*
X1889205Y519641*
X1890227*
X1890909Y520109*
X1891591Y521047*
X1898409Y524797D02*
X1898068Y525734D01*
X1897045Y526203*
X1896023*
X1895000Y525734*
X1894659Y524797*
X1895000Y523859*
X1895682Y523391*
X1897386Y522922*
X1898068Y522453*
X1898409Y521516*
Y521047*
X1898068Y520109*
X1897045Y519641*
X1896023*
X1895000Y520109*
X1894659Y521047*
X1901477Y529484D02*
Y519641D01*
X1904886Y526203D02*
X1901477Y521516D01*
X1902841Y523391D02*
X1905227Y519641D01*
G54D173*
X971000Y975000D02*
X1666000D01*
Y1255000*
X971000*
Y975000*
G54D178*
X677500Y509000D02*
X1955900D01*
Y1658500*
X677500*
Y509000*
X1235900D02*
X1955900D01*
Y704000*
X1235900*
Y509000*
X1520900Y649000D02*
X1955900D01*
Y509000*
X1520900*
Y649000*
Y539000D02*
X1955900D01*
Y509000*
X1520900*
Y539000*
X1680900*
Y509000*
X1520900*
Y539000*
Y649000D02*
X1955900D01*
Y704000*
X1520900*
Y649000*
Y579000D02*
X1955900D01*
Y649000*
X1520900*
Y579000*
X1820900Y539000D02*
X1955900D01*
Y579000*
X1820900*
Y539000*
X1235900D02*
X1395900D01*
Y509000*
X1235900*
Y539000*
X1395900Y509000D02*
X1520900D01*
Y539000*
X1395900*
Y509000*
G54D181*
X994900Y1113200D03*
Y1108200D03*
Y1103200D03*
Y1098200D03*
Y1093200D03*
G54D182*
X1019900Y1103200D03*
G54D183*
X991000Y1234000D03*
G54D184*
X1013500D03*
G54D185*
X1002200Y1216500D03*
G54D186*
X1013500Y1192000D03*
G54D187*
X1005300Y1160999D03*
Y1157850D03*
Y1154700D03*
Y1151550D03*
Y1148401D03*
G54D188*
X1004316Y1171235D03*
Y1138165D03*
X983450Y1171235D03*
Y1138165D03*
G54D189*
X996442Y1161590D03*
Y1147810D03*
G54D190*
X1094300Y1105400D03*
Y1124786D03*
X1097450Y1105400D03*
Y1124786D03*
X1100599Y1105400D03*
Y1124786D03*
X1103749Y1105400D03*
Y1124786D03*
X1106898Y1105400D03*
Y1124786D03*
X1110048Y1105400D03*
Y1124786D03*
X1113198Y1105400D03*
Y1124786D03*
X1116347Y1105400D03*
Y1124786D03*
X1119497Y1105400D03*
Y1124786D03*
X1122646Y1105400D03*
Y1124786D03*
X1125796Y1105400D03*
Y1124786D03*
X1128946Y1105400D03*
Y1124786D03*
X1132095Y1105400D03*
Y1124786D03*
X1135245Y1105400D03*
Y1124786D03*
X1138394Y1105400D03*
Y1124786D03*
X1141544Y1105400D03*
Y1124786D03*
X1144694Y1105400D03*
Y1124786D03*
X1147843Y1105400D03*
Y1124786D03*
X1150993Y1105400D03*
Y1124786D03*
X1154143Y1105400D03*
Y1124786D03*
X1157292Y1105400D03*
Y1124786D03*
X1160442Y1105400D03*
Y1124786D03*
X1163591Y1105400D03*
Y1124786D03*
X1166741Y1105400D03*
Y1124786D03*
X1169891Y1105400D03*
Y1124786D03*
X1173040Y1105400D03*
Y1124786D03*
X1176190Y1105400D03*
Y1124786D03*
X1179339Y1105400D03*
Y1124786D03*
X1195087Y1105400D03*
Y1124786D03*
X1198237Y1105400D03*
Y1124786D03*
X1201387Y1105400D03*
Y1124786D03*
X1204536Y1105400D03*
Y1124786D03*
X1207686Y1105400D03*
Y1124786D03*
X1210835Y1105400D03*
Y1124786D03*
X1213985Y1105400D03*
Y1124786D03*
X1217135Y1105400D03*
Y1124786D03*
X1220284Y1105400D03*
Y1124786D03*
X1223434Y1105400D03*
Y1124786D03*
X1226583Y1105400D03*
Y1124786D03*
X1229733Y1105400D03*
Y1124786D03*
X1232883Y1105400D03*
Y1124786D03*
X1236032Y1105400D03*
Y1124786D03*
X1239182Y1105400D03*
Y1124786D03*
X1242331Y1105400D03*
Y1124786D03*
X1245481Y1105400D03*
Y1124786D03*
X1248631Y1105400D03*
Y1124786D03*
X1251780Y1105400D03*
Y1124786D03*
X1254930Y1105400D03*
Y1124786D03*
X1258080Y1105400D03*
Y1124786D03*
X1261229Y1105400D03*
Y1124786D03*
X1264379Y1105400D03*
Y1124786D03*
X1267528Y1105400D03*
Y1124786D03*
X1270678Y1105400D03*
Y1124786D03*
X1273828Y1105400D03*
Y1124786D03*
X1276977Y1105400D03*
Y1124786D03*
X1280127Y1105400D03*
Y1124786D03*
X1283276Y1105400D03*
Y1124786D03*
X1286426Y1105400D03*
Y1124786D03*
X1289576Y1105400D03*
Y1124786D03*
X1292725Y1105400D03*
Y1124786D03*
X1375670Y1105400D03*
Y1124786D03*
X1378820Y1105400D03*
Y1124786D03*
X1381969Y1105400D03*
Y1124786D03*
X1385119Y1105400D03*
Y1124786D03*
X1388269Y1105400D03*
Y1124786D03*
X1391418Y1105400D03*
Y1124786D03*
X1394568Y1105400D03*
Y1124786D03*
X1397717Y1105400D03*
Y1124786D03*
X1400867Y1105400D03*
Y1124786D03*
X1404017Y1105400D03*
Y1124786D03*
X1407166Y1105400D03*
Y1124786D03*
X1410316Y1105400D03*
Y1124786D03*
X1413465Y1105400D03*
Y1124786D03*
X1416615Y1105400D03*
Y1124786D03*
X1419765Y1105400D03*
Y1124786D03*
X1422914Y1105400D03*
Y1124786D03*
X1426064Y1105400D03*
Y1124786D03*
X1429213Y1105400D03*
Y1124786D03*
X1432363Y1105400D03*
Y1124786D03*
X1435513Y1105400D03*
Y1124786D03*
X1438662Y1105400D03*
Y1124786D03*
X1441812Y1105400D03*
Y1124786D03*
X1444961Y1105400D03*
Y1124786D03*
X1448111Y1105400D03*
Y1124786D03*
X1451261Y1105400D03*
Y1124786D03*
X1454410Y1105400D03*
Y1124786D03*
X1457560Y1105400D03*
Y1124786D03*
X1460709Y1105400D03*
Y1124786D03*
X1463859Y1105400D03*
Y1124786D03*
X1467009Y1105400D03*
Y1124786D03*
X0Y0D02*
M02*
