*
*
G04 PADS9.1 Build Number: 384028 generated Gerber (RS-274-X) file*
G04 PC Version=2.1*
*
%IN "{TXN003}_controlCARDDoc"*%
*
%MOIN*%
*
%FSLAX35Y35*%
*
*
*
*
G04 PC Standard Apertures*
*
*
G04 Thermal Relief Aperture macro.*
%AMTER*
1,1,$1,0,0*
1,0,$1-$2,0,0*
21,0,$3,$4,0,0,45*
21,0,$3,$4,0,0,135*
%
*
*
G04 Annular Aperture macro.*
%AMANN*
1,1,$1,0,0*
1,0,$2,0,0*
%
*
*
G04 Odd Aperture macro.*
%AMODD*
1,1,$1,0,0*
1,0,$1-0.005,0,0*
%
*
*
G04 PC Custom Aperture Macros*
*
*
*
*
*
*
G04 PC Aperture Table*
*
%ADD158C,0*%
%ADD169C,0.01*%
%ADD171C,0.012*%
%ADD177C,0.005*%
%ADD178C,0.008*%
%ADD179C,0.006*%
%ADD180C,0.009*%
*
*
*
*
G04 PC Circuitry*
G04 Layer Name {TXN003}_controlCARDDoc - circuitry*
%LPD*%
*
*
G04 PC Custom Flashes*
G04 Layer Name {TXN003}_controlCARDDoc - flashes*
%LPD*%
*
*
G04 PC Circuitry*
G04 Layer Name {TXN003}_controlCARDDoc - circuitry*
%LPD*%
*
G54D158*
G54D169*
G01X995000Y1065000D02*
X1015000D01*
Y995000*
X995000*
Y1065000*
X1049000Y1050000D02*
Y1060000D01*
X1369000*
Y1050000*
X1049000*
Y1170000D02*
Y1180000D01*
X1369000*
Y1170000*
X1049000*
Y1075000D02*
Y1085000D01*
X1219000*
Y1075000*
X1049000*
Y1145000D02*
Y1155000D01*
X1199000*
Y1145000*
X1049000*
X1379000Y1050000D02*
Y1060000D01*
X1649000*
Y1050000*
X1379000*
Y1170000D02*
Y1180000D01*
X1639000*
Y1170000*
X1379000*
X1049000Y1010000D02*
X1039000D01*
Y1050000*
X1049000*
Y1010000*
Y1180000D02*
X1039000D01*
Y1220000*
X1049000*
Y1180000*
X1229000Y1075000D02*
Y1085000D01*
X1269000*
Y1075000*
X1229000*
Y1145000D02*
Y1155000D01*
X1269000*
Y1145000*
X1229000*
X1049000Y980000D02*
X1039000D01*
Y1000000*
X1049000*
Y980000*
Y1230000D02*
X1039000D01*
Y1250000*
X1049000*
Y1230000*
X1028000Y1123000D02*
X1018000D01*
Y1143000*
X1028000*
Y1123000*
X1379000Y1030000D02*
X1369000D01*
Y1050000*
X1379000*
Y1030000*
Y1180000D02*
X1369000D01*
Y1200000*
X1379000*
Y1180000*
X1659000Y1030000D02*
X1649000D01*
Y1050000*
X1659000*
Y1030000*
Y1180000D02*
X1649000D01*
Y1200000*
X1659000*
Y1180000*
X1379000Y980000D02*
X1369000D01*
Y1020000*
X1379000*
Y980000*
Y1210000D02*
X1369000D01*
Y1250000*
X1379000*
Y1210000*
X1659000Y980000D02*
X1649000D01*
Y1020000*
X1659000*
Y980000*
Y1210000D02*
X1649000D01*
Y1250000*
X1659000*
Y1210000*
X1089969Y1130372D02*
X1059828D01*
Y1099813*
X1089969*
X1182808Y1130372D02*
X1191618D01*
X1182808Y1099813D02*
X1191618D01*
X1297056Y1130372D02*
X1322698D01*
X1327198Y1125872*
Y1099813*
X1297056*
X1371339Y1130372D02*
X1363540D01*
Y1099813*
X1371339*
X1471300Y1130372D02*
X1476139D01*
X1479139Y1127372*
Y1099813*
X1471200*
X1031141Y1131068D02*
Y1129477D01*
X1033109Y1129318*
X1032891Y1129477*
X1032672Y1129955*
Y1130432*
X1032891Y1130909*
X1033328Y1131227*
X1033984Y1131386*
X1034422Y1131227*
X1035078Y1131068*
X1035516Y1130750*
X1035734Y1130273*
Y1129795*
X1035516Y1129318*
X1035297Y1129159*
X1034859Y1129000*
X1031141Y1132818D02*
X1035734Y1134091D01*
X1031141Y1135364D02*
X1035734Y1134091D01*
X1033041Y1184818D02*
Y1186568D01*
X1034791Y1185614*
Y1186091*
X1035009Y1186409*
X1035228Y1186568*
X1035884Y1186727*
X1036322*
X1036978Y1186568*
X1037416Y1186250*
X1037634Y1185773*
Y1185295*
X1037416Y1184818*
X1037197Y1184659*
X1036759Y1184500*
X1033041Y1188159D02*
X1037634Y1189432D01*
X1033041Y1190705D02*
X1037634Y1189432D01*
X1033041Y1192455D02*
Y1194205D01*
X1034791Y1193250*
Y1193727*
X1035009Y1194045*
X1035228Y1194205*
X1035884Y1194364*
X1036322*
X1036978Y1194205*
X1037416Y1193886*
X1037634Y1193409*
Y1192932*
X1037416Y1192455*
X1037197Y1192295*
X1036759Y1192136*
X1034134Y1236545D02*
X1033697Y1236386D01*
X1033259Y1236068*
X1033041Y1235750*
Y1235114*
X1033259Y1234795*
X1033697Y1234477*
X1034134Y1234318*
X1034791Y1234159*
X1035884*
X1036541Y1234318*
X1036978Y1234477*
X1037416Y1234795*
X1037634Y1235114*
Y1235750*
X1037416Y1236068*
X1036978Y1236386*
X1036541Y1236545*
X1035884*
Y1235750D02*
Y1236545D01*
X1033041Y1237977D02*
X1037634D01*
X1033041D02*
X1037634Y1240205D01*
X1033041D02*
X1037634D01*
X1033041Y1241636D02*
X1037634D01*
X1033041D02*
Y1242750D01*
X1033259Y1243227*
X1033697Y1243545*
X1034134Y1243705*
X1034791Y1243864*
X1035884*
X1036541Y1243705*
X1036978Y1243545*
X1037416Y1243227*
X1037634Y1242750*
Y1241636*
X1034134Y987386D02*
X1033697Y987227D01*
X1033259Y986909*
X1033041Y986591*
Y985955*
X1033259Y985636*
X1033697Y985318*
X1034134Y985159*
X1034791Y985000*
X1035884*
X1036541Y985159*
X1036978Y985318*
X1037416Y985636*
X1037634Y985955*
Y986591*
X1037416Y986909*
X1036978Y987227*
X1036541Y987386*
X1035884*
Y986591D02*
Y987386D01*
X1033041Y988818D02*
X1037634D01*
X1033041D02*
X1037634Y991045D01*
X1033041D02*
X1037634D01*
X1033041Y992477D02*
X1037634D01*
X1033041D02*
Y993591D01*
X1033259Y994068*
X1033697Y994386*
X1034134Y994545*
X1034791Y994705*
X1035884*
X1036541Y994545*
X1036978Y994386*
X1037416Y994068*
X1037634Y993591*
Y992477*
X1033041Y1015318D02*
Y1017068D01*
X1034791Y1016114*
Y1016591*
X1035009Y1016909*
X1035228Y1017068*
X1035884Y1017227*
X1036322*
X1036978Y1017068*
X1037416Y1016750*
X1037634Y1016273*
Y1015795*
X1037416Y1015318*
X1037197Y1015159*
X1036759Y1015000*
X1033041Y1018659D02*
X1037634Y1019932D01*
X1033041Y1021205D02*
X1037634Y1019932D01*
X1033041Y1022955D02*
Y1024705D01*
X1034791Y1023750*
Y1024227*
X1035009Y1024545*
X1035228Y1024705*
X1035884Y1024864*
X1036322*
X1036978Y1024705*
X1037416Y1024386*
X1037634Y1023909*
Y1023432*
X1037416Y1022955*
X1037197Y1022795*
X1036759Y1022636*
X1041250Y1051500D02*
X1046500D01*
X1041250D02*
Y1053136D01*
X1041500Y1053682*
X1041750Y1053864*
X1042250Y1054045*
X1043000*
X1043500Y1053864*
X1043750Y1053682*
X1044000Y1053136*
Y1051500*
X1041250Y1055682D02*
X1046500D01*
X1041250Y1057318D02*
X1046500D01*
X1041250D02*
X1046500Y1059864D01*
X1041250D02*
X1046500D01*
X1041250Y1075955D02*
X1046500Y1074500D01*
X1041250Y1075955D02*
X1046500Y1077409D01*
X1044750Y1075045D02*
Y1076864D01*
X1041250Y1079045D02*
X1046500D01*
X1041250D02*
X1046500Y1081591D01*
X1041250D02*
X1046500D01*
X1041250Y1084682D02*
X1046500Y1083227D01*
X1041250Y1084682D02*
X1046500Y1086136D01*
X1044750Y1083773D02*
Y1085591D01*
X1246727Y1091500D02*
X1246545Y1092000D01*
X1246182Y1092500*
X1245818Y1092750*
X1245091*
X1244727Y1092500*
X1244364Y1092000*
X1244182Y1091500*
X1244000Y1090750*
Y1089500*
X1244182Y1088750*
X1244364Y1088250*
X1244727Y1087750*
X1245091Y1087500*
X1245818*
X1246182Y1087750*
X1246545Y1088250*
X1246727Y1088750*
Y1089500*
X1245818D02*
X1246727D01*
X1248364Y1092750D02*
Y1087500D01*
Y1092750D02*
X1250909Y1087500D01*
Y1092750D02*
Y1087500D01*
X1252545Y1092750D02*
Y1087500D01*
Y1092750D02*
X1253818D01*
X1254364Y1092500*
X1254727Y1092000*
X1254909Y1091500*
X1255091Y1090750*
Y1089500*
X1254909Y1088750*
X1254727Y1088250*
X1254364Y1087750*
X1253818Y1087500*
X1252545*
X1246727Y1141500D02*
X1246545Y1142000D01*
X1246182Y1142500*
X1245818Y1142750*
X1245091*
X1244727Y1142500*
X1244364Y1142000*
X1244182Y1141500*
X1244000Y1140750*
Y1139500*
X1244182Y1138750*
X1244364Y1138250*
X1244727Y1137750*
X1245091Y1137500*
X1245818*
X1246182Y1137750*
X1246545Y1138250*
X1246727Y1138750*
Y1139500*
X1245818D02*
X1246727D01*
X1248364Y1142750D02*
Y1137500D01*
Y1142750D02*
X1250909Y1137500D01*
Y1142750D02*
Y1137500D01*
X1252545Y1142750D02*
Y1137500D01*
Y1142750D02*
X1253818D01*
X1254364Y1142500*
X1254727Y1142000*
X1254909Y1141500*
X1255091Y1140750*
Y1139500*
X1254909Y1138750*
X1254727Y1138250*
X1254364Y1137750*
X1253818Y1137500*
X1252545*
X1041250Y1145955D02*
X1046500Y1144500D01*
X1041250Y1145955D02*
X1046500Y1147409D01*
X1044750Y1145045D02*
Y1146864D01*
X1041250Y1149045D02*
X1046500D01*
X1041250D02*
X1046500Y1151591D01*
X1041250D02*
X1046500D01*
X1041250Y1154682D02*
X1046500Y1153227D01*
X1041250Y1154682D02*
X1046500Y1156136D01*
X1044750Y1153773D02*
Y1155591D01*
X1041250Y1170000D02*
X1046500D01*
X1041250D02*
Y1171636D01*
X1041500Y1172182*
X1041750Y1172364*
X1042250Y1172545*
X1043000*
X1043500Y1172364*
X1043750Y1172182*
X1044000Y1171636*
Y1170000*
X1041250Y1174182D02*
X1046500D01*
X1041250Y1175818D02*
X1046500D01*
X1041250D02*
X1046500Y1178364D01*
X1041250D02*
X1046500D01*
X997773Y991563D02*
Y986563D01*
X997773D02*
X997545Y985625D01*
X997318Y985313*
X997318D02*
X996864Y985000D01*
X996409*
X995955Y985313*
X995955D02*
X995727Y985625D01*
X995500Y986563*
X995500D02*
Y987188D01*
X1001409Y991563D02*
Y985000D01*
X999818Y991563D02*
X1003000D01*
X1006864D02*
X1005045Y985000D01*
X1006864Y991563D02*
X1008682Y985000D01*
X1005727Y987188D02*
X1008000D01*
X1014136Y990000D02*
X1013909Y990625D01*
X1013455Y991250*
X1013000Y991563*
X1013000D02*
X1012091D01*
X1012091D02*
X1011636Y991250D01*
X1011182Y990625*
X1010955Y990000*
X1010727Y989063*
X1010727D02*
Y987500D01*
X1010955Y986563*
X1010955D02*
X1011182Y985938D01*
X1011182D02*
X1011636Y985313D01*
X1011636D02*
X1012091Y985000D01*
X1013000*
X1013455Y985313*
X1013455D02*
X1013909Y985938D01*
X1013909D02*
X1014136Y986563D01*
X1014136D02*
Y987500D01*
X1013000D02*
X1014136D01*
X1051250Y1164027D02*
Y1162209D01*
X1053500Y1162027*
X1053250Y1162209*
X1053000Y1162755*
Y1163300*
X1053250Y1163845*
X1053750Y1164209*
X1054500Y1164391*
X1055000Y1164209*
X1055750Y1164027*
X1056250Y1163664*
X1056500Y1163118*
Y1162573*
X1056250Y1162027*
X1056000Y1161845*
X1055500Y1161664*
X1051250Y1167118D02*
X1051500Y1166573D01*
X1052250Y1166209*
X1053500Y1166027*
X1054250*
X1055500Y1166209*
X1056250Y1166573*
X1056500Y1167118*
Y1167482*
X1056250Y1168027*
X1055500Y1168391*
X1054250Y1168573*
X1053500*
X1052250Y1168391*
X1051500Y1168027*
X1051250Y1167482*
Y1167118*
X1061250Y1164027D02*
Y1162209D01*
X1063500Y1162027*
X1063250Y1162209*
X1063000Y1162755*
Y1163300*
X1063250Y1163845*
X1063750Y1164209*
X1064500Y1164391*
X1065000Y1164209*
X1065750Y1164027*
X1066250Y1163664*
X1066500Y1163118*
Y1162573*
X1066250Y1162027*
X1066000Y1161845*
X1065500Y1161664*
X1062500Y1166209D02*
X1062250D01*
X1061750Y1166391*
X1061500Y1166573*
X1061250Y1166936*
Y1167664*
X1061500Y1168027*
X1061750Y1168209*
X1062250Y1168391*
X1062750*
X1063250Y1168209*
X1064000Y1167845*
X1066500Y1166027*
Y1168573*
X1071250Y1163845D02*
Y1162027D01*
X1073500Y1161845*
X1073250Y1162027*
X1073000Y1162573*
Y1163118*
X1073250Y1163664*
X1073750Y1164027*
X1074500Y1164209*
X1075000Y1164027*
X1075750Y1163845*
X1076250Y1163482*
X1076500Y1162936*
Y1162391*
X1076250Y1161845*
X1076000Y1161664*
X1075500Y1161482*
X1071250Y1167664D02*
X1074750Y1165845D01*
Y1168573*
X1071250Y1167664D02*
X1076500D01*
X1081250Y1164209D02*
Y1162391D01*
X1083500Y1162209*
X1083250Y1162391*
X1083000Y1162936*
Y1163482*
X1083250Y1164027*
X1083750Y1164391*
X1084500Y1164573*
X1085000Y1164391*
X1085750Y1164209*
X1086250Y1163845*
X1086500Y1163300*
Y1162755*
X1086250Y1162209*
X1086000Y1162027*
X1085500Y1161845*
X1082000Y1168391D02*
X1081500Y1168209D01*
X1081250Y1167664*
Y1167300*
X1081500Y1166755*
X1082250Y1166391*
X1083500Y1166209*
X1084750*
X1085750Y1166391*
X1086250Y1166755*
X1086500Y1167300*
Y1167482*
X1086250Y1168027*
X1085750Y1168391*
X1085000Y1168573*
X1084750*
X1084000Y1168391*
X1083500Y1168027*
X1083250Y1167482*
Y1167300*
X1083500Y1166755*
X1084000Y1166391*
X1084750Y1166209*
X1091250Y1164027D02*
Y1162209D01*
X1093500Y1162027*
X1093250Y1162209*
X1093000Y1162755*
Y1163300*
X1093250Y1163845*
X1093750Y1164209*
X1094500Y1164391*
X1095000Y1164209*
X1095750Y1164027*
X1096250Y1163664*
X1096500Y1163118*
Y1162573*
X1096250Y1162027*
X1096000Y1161845*
X1095500Y1161664*
X1091250Y1166936D02*
X1091500Y1166391D01*
X1092000Y1166209*
X1092500*
X1093000Y1166391*
X1093250Y1166755*
X1093500Y1167482*
X1093750Y1168027*
X1094250Y1168391*
X1094750Y1168573*
X1095500*
X1096000Y1168391*
X1096250Y1168209*
X1096500Y1167664*
Y1166936*
X1096250Y1166391*
X1096000Y1166209*
X1095500Y1166027*
X1094750*
X1094250Y1166209*
X1093750Y1166573*
X1093500Y1167118*
X1093250Y1167845*
X1093000Y1168209*
X1092500Y1168391*
X1092000*
X1091500Y1168209*
X1091250Y1167664*
Y1166936*
X1102000Y1164209D02*
X1101500Y1164027D01*
X1101250Y1163482*
Y1163118*
X1101500Y1162573*
X1102250Y1162209*
X1103500Y1162027*
X1104750*
X1105750Y1162209*
X1106250Y1162573*
X1106500Y1163118*
Y1163300*
X1106250Y1163845*
X1105750Y1164209*
X1105000Y1164391*
X1104750*
X1104000Y1164209*
X1103500Y1163845*
X1103250Y1163300*
Y1163118*
X1103500Y1162573*
X1104000Y1162209*
X1104750Y1162027*
X1101250Y1167118D02*
X1101500Y1166573D01*
X1102250Y1166209*
X1103500Y1166027*
X1104250*
X1105500Y1166209*
X1106250Y1166573*
X1106500Y1167118*
Y1167482*
X1106250Y1168027*
X1105500Y1168391*
X1104250Y1168573*
X1103500*
X1102250Y1168391*
X1101500Y1168027*
X1101250Y1167482*
Y1167118*
X1112000Y1164209D02*
X1111500Y1164027D01*
X1111250Y1163482*
Y1163118*
X1111500Y1162573*
X1112250Y1162209*
X1113500Y1162027*
X1114750*
X1115750Y1162209*
X1116250Y1162573*
X1116500Y1163118*
Y1163300*
X1116250Y1163845*
X1115750Y1164209*
X1115000Y1164391*
X1114750*
X1114000Y1164209*
X1113500Y1163845*
X1113250Y1163300*
Y1163118*
X1113500Y1162573*
X1114000Y1162209*
X1114750Y1162027*
X1112500Y1166209D02*
X1112250D01*
X1111750Y1166391*
X1111500Y1166573*
X1111250Y1166936*
Y1167664*
X1111500Y1168027*
X1111750Y1168209*
X1112250Y1168391*
X1112750*
X1113250Y1168209*
X1114000Y1167845*
X1116500Y1166027*
Y1168573*
X1122000Y1164027D02*
X1121500Y1163845D01*
X1121250Y1163300*
Y1162936*
X1121500Y1162391*
X1122250Y1162027*
X1123500Y1161845*
X1124750*
X1125750Y1162027*
X1126250Y1162391*
X1126500Y1162936*
Y1163118*
X1126250Y1163664*
X1125750Y1164027*
X1125000Y1164209*
X1124750*
X1124000Y1164027*
X1123500Y1163664*
X1123250Y1163118*
Y1162936*
X1123500Y1162391*
X1124000Y1162027*
X1124750Y1161845*
X1121250Y1167664D02*
X1124750Y1165845D01*
Y1168573*
X1121250Y1167664D02*
X1126500D01*
X1132000Y1164209D02*
X1131500Y1164027D01*
X1131250Y1163482*
Y1163118*
X1131500Y1162573*
X1132250Y1162209*
X1133500Y1162027*
X1134750*
X1135750Y1162209*
X1136250Y1162573*
X1136500Y1163118*
Y1163300*
X1136250Y1163845*
X1135750Y1164209*
X1135000Y1164391*
X1134750*
X1134000Y1164209*
X1133500Y1163845*
X1133250Y1163300*
Y1163118*
X1133500Y1162573*
X1134000Y1162209*
X1134750Y1162027*
X1131250Y1166936D02*
X1131500Y1166391D01*
X1132000Y1166209*
X1132500*
X1133000Y1166391*
X1133250Y1166755*
X1133500Y1167482*
X1133750Y1168027*
X1134250Y1168391*
X1134750Y1168573*
X1135500*
X1136000Y1168391*
X1136250Y1168209*
X1136500Y1167664*
Y1166936*
X1136250Y1166391*
X1136000Y1166209*
X1135500Y1166027*
X1134750*
X1134250Y1166209*
X1133750Y1166573*
X1133500Y1167118*
X1133250Y1167845*
X1133000Y1168209*
X1132500Y1168391*
X1132000*
X1131500Y1168209*
X1131250Y1167664*
Y1166936*
X1141250Y1164391D02*
X1146500Y1162573D01*
X1141250Y1161845D02*
Y1164391D01*
Y1167118D02*
X1141500Y1166573D01*
X1142250Y1166209*
X1143500Y1166027*
X1144250*
X1145500Y1166209*
X1146250Y1166573*
X1146500Y1167118*
Y1167482*
X1146250Y1168027*
X1145500Y1168391*
X1144250Y1168573*
X1143500*
X1142250Y1168391*
X1141500Y1168027*
X1141250Y1167482*
Y1167118*
X1151250Y1164391D02*
X1156500Y1162573D01*
X1151250Y1161845D02*
Y1164391D01*
X1152500Y1166209D02*
X1152250D01*
X1151750Y1166391*
X1151500Y1166573*
X1151250Y1166936*
Y1167664*
X1151500Y1168027*
X1151750Y1168209*
X1152250Y1168391*
X1152750*
X1153250Y1168209*
X1154000Y1167845*
X1156500Y1166027*
Y1168573*
X1161250Y1164209D02*
X1166500Y1162391D01*
X1161250Y1161664D02*
Y1164209D01*
Y1167664D02*
X1164750Y1165845D01*
Y1168573*
X1161250Y1167664D02*
X1166500D01*
X1171250Y1164573D02*
X1176500Y1162755D01*
X1171250Y1162027D02*
Y1164573D01*
X1172000Y1168391D02*
X1171500Y1168209D01*
X1171250Y1167664*
Y1167300*
X1171500Y1166755*
X1172250Y1166391*
X1173500Y1166209*
X1174750*
X1175750Y1166391*
X1176250Y1166755*
X1176500Y1167300*
Y1167482*
X1176250Y1168027*
X1175750Y1168391*
X1175000Y1168573*
X1174750*
X1174000Y1168391*
X1173500Y1168027*
X1173250Y1167482*
Y1167300*
X1173500Y1166755*
X1174000Y1166391*
X1174750Y1166209*
X1181250Y1164391D02*
X1186500Y1162573D01*
X1181250Y1161845D02*
Y1164391D01*
Y1166936D02*
X1181500Y1166391D01*
X1182000Y1166209*
X1182500*
X1183000Y1166391*
X1183250Y1166755*
X1183500Y1167482*
X1183750Y1168027*
X1184250Y1168391*
X1184750Y1168573*
X1185500*
X1186000Y1168391*
X1186250Y1168209*
X1186500Y1167664*
Y1166936*
X1186250Y1166391*
X1186000Y1166209*
X1185500Y1166027*
X1184750*
X1184250Y1166209*
X1183750Y1166573*
X1183500Y1167118*
X1183250Y1167845*
X1183000Y1168209*
X1182500Y1168391*
X1182000*
X1181500Y1168209*
X1181250Y1167664*
Y1166936*
X1191250Y1162755D02*
X1191500Y1162209D01*
X1192000Y1162027*
X1192500*
X1193000Y1162209*
X1193250Y1162573*
X1193500Y1163300*
X1193750Y1163845*
X1194250Y1164209*
X1194750Y1164391*
X1195500*
X1196000Y1164209*
X1196250Y1164027*
X1196500Y1163482*
Y1162755*
X1196250Y1162209*
X1196000Y1162027*
X1195500Y1161845*
X1194750*
X1194250Y1162027*
X1193750Y1162391*
X1193500Y1162936*
X1193250Y1163664*
X1193000Y1164027*
X1192500Y1164209*
X1192000*
X1191500Y1164027*
X1191250Y1163482*
Y1162755*
Y1167118D02*
X1191500Y1166573D01*
X1192250Y1166209*
X1193500Y1166027*
X1194250*
X1195500Y1166209*
X1196250Y1166573*
X1196500Y1167118*
Y1167482*
X1196250Y1168027*
X1195500Y1168391*
X1194250Y1168573*
X1193500*
X1192250Y1168391*
X1191500Y1168027*
X1191250Y1167482*
Y1167118*
X1201250Y1162755D02*
X1201500Y1162209D01*
X1202000Y1162027*
X1202500*
X1203000Y1162209*
X1203250Y1162573*
X1203500Y1163300*
X1203750Y1163845*
X1204250Y1164209*
X1204750Y1164391*
X1205500*
X1206000Y1164209*
X1206250Y1164027*
X1206500Y1163482*
Y1162755*
X1206250Y1162209*
X1206000Y1162027*
X1205500Y1161845*
X1204750*
X1204250Y1162027*
X1203750Y1162391*
X1203500Y1162936*
X1203250Y1163664*
X1203000Y1164027*
X1202500Y1164209*
X1202000*
X1201500Y1164027*
X1201250Y1163482*
Y1162755*
X1202500Y1166209D02*
X1202250D01*
X1201750Y1166391*
X1201500Y1166573*
X1201250Y1166936*
Y1167664*
X1201500Y1168027*
X1201750Y1168209*
X1202250Y1168391*
X1202750*
X1203250Y1168209*
X1204000Y1167845*
X1206500Y1166027*
Y1168573*
X1211250Y1162936D02*
X1211500Y1162391D01*
X1212000Y1162209*
X1212500*
X1213000Y1162391*
X1213250Y1162755*
X1213500Y1163482*
X1213750Y1164027*
X1214250Y1164391*
X1214750Y1164573*
X1215500*
X1216000Y1164391*
X1216250Y1164209*
X1216500Y1163664*
Y1162936*
X1216250Y1162391*
X1216000Y1162209*
X1215500Y1162027*
X1214750*
X1214250Y1162209*
X1213750Y1162573*
X1213500Y1163118*
X1213250Y1163845*
X1213000Y1164209*
X1212500Y1164391*
X1212000*
X1211500Y1164209*
X1211250Y1163664*
Y1162936*
X1212000Y1168391D02*
X1211500Y1168209D01*
X1211250Y1167664*
Y1167300*
X1211500Y1166755*
X1212250Y1166391*
X1213500Y1166209*
X1214750*
X1215750Y1166391*
X1216250Y1166755*
X1216500Y1167300*
Y1167482*
X1216250Y1168027*
X1215750Y1168391*
X1215000Y1168573*
X1214750*
X1214000Y1168391*
X1213500Y1168027*
X1213250Y1167482*
Y1167300*
X1213500Y1166755*
X1214000Y1166391*
X1214750Y1166209*
X1221250Y1162755D02*
X1221500Y1162209D01*
X1222000Y1162027*
X1222500*
X1223000Y1162209*
X1223250Y1162573*
X1223500Y1163300*
X1223750Y1163845*
X1224250Y1164209*
X1224750Y1164391*
X1225500*
X1226000Y1164209*
X1226250Y1164027*
X1226500Y1163482*
Y1162755*
X1226250Y1162209*
X1226000Y1162027*
X1225500Y1161845*
X1224750*
X1224250Y1162027*
X1223750Y1162391*
X1223500Y1162936*
X1223250Y1163664*
X1223000Y1164027*
X1222500Y1164209*
X1222000*
X1221500Y1164027*
X1221250Y1163482*
Y1162755*
Y1166936D02*
X1221500Y1166391D01*
X1222000Y1166209*
X1222500*
X1223000Y1166391*
X1223250Y1166755*
X1223500Y1167482*
X1223750Y1168027*
X1224250Y1168391*
X1224750Y1168573*
X1225500*
X1226000Y1168391*
X1226250Y1168209*
X1226500Y1167664*
Y1166936*
X1226250Y1166391*
X1226000Y1166209*
X1225500Y1166027*
X1224750*
X1224250Y1166209*
X1223750Y1166573*
X1223500Y1167118*
X1223250Y1167845*
X1223000Y1168209*
X1222500Y1168391*
X1222000*
X1221500Y1168209*
X1221250Y1167664*
Y1166936*
X1233000Y1164391D02*
X1233750Y1164209D01*
X1234250Y1163845*
X1234500Y1163300*
Y1163118*
X1234250Y1162573*
X1233750Y1162209*
X1233000Y1162027*
X1232750*
X1232000Y1162209*
X1231500Y1162573*
X1231250Y1163118*
Y1163300*
X1231500Y1163845*
X1232000Y1164209*
X1233000Y1164391*
X1234250*
X1235500Y1164209*
X1236250Y1163845*
X1236500Y1163300*
Y1162936*
X1236250Y1162391*
X1235750Y1162209*
X1231250Y1167118D02*
X1231500Y1166573D01*
X1232250Y1166209*
X1233500Y1166027*
X1234250*
X1235500Y1166209*
X1236250Y1166573*
X1236500Y1167118*
Y1167482*
X1236250Y1168027*
X1235500Y1168391*
X1234250Y1168573*
X1233500*
X1232250Y1168391*
X1231500Y1168027*
X1231250Y1167482*
Y1167118*
X1243000Y1164391D02*
X1243750Y1164209D01*
X1244250Y1163845*
X1244500Y1163300*
Y1163118*
X1244250Y1162573*
X1243750Y1162209*
X1243000Y1162027*
X1242750*
X1242000Y1162209*
X1241500Y1162573*
X1241250Y1163118*
Y1163300*
X1241500Y1163845*
X1242000Y1164209*
X1243000Y1164391*
X1244250*
X1245500Y1164209*
X1246250Y1163845*
X1246500Y1163300*
Y1162936*
X1246250Y1162391*
X1245750Y1162209*
X1242500Y1166209D02*
X1242250D01*
X1241750Y1166391*
X1241500Y1166573*
X1241250Y1166936*
Y1167664*
X1241500Y1168027*
X1241750Y1168209*
X1242250Y1168391*
X1242750*
X1243250Y1168209*
X1244000Y1167845*
X1246500Y1166027*
Y1168573*
X1253000Y1164209D02*
X1253750Y1164027D01*
X1254250Y1163664*
X1254500Y1163118*
Y1162936*
X1254250Y1162391*
X1253750Y1162027*
X1253000Y1161845*
X1252750*
X1252000Y1162027*
X1251500Y1162391*
X1251250Y1162936*
Y1163118*
X1251500Y1163664*
X1252000Y1164027*
X1253000Y1164209*
X1254250*
X1255500Y1164027*
X1256250Y1163664*
X1256500Y1163118*
Y1162755*
X1256250Y1162209*
X1255750Y1162027*
X1251250Y1167664D02*
X1254750Y1165845D01*
Y1168573*
X1251250Y1167664D02*
X1256500D01*
X1263000Y1164573D02*
X1263750Y1164391D01*
X1264250Y1164027*
X1264500Y1163482*
Y1163300*
X1264250Y1162755*
X1263750Y1162391*
X1263000Y1162209*
X1262750*
X1262000Y1162391*
X1261500Y1162755*
X1261250Y1163300*
Y1163482*
X1261500Y1164027*
X1262000Y1164391*
X1263000Y1164573*
X1264250*
X1265500Y1164391*
X1266250Y1164027*
X1266500Y1163482*
Y1163118*
X1266250Y1162573*
X1265750Y1162391*
X1262000Y1168391D02*
X1261500Y1168209D01*
X1261250Y1167664*
Y1167300*
X1261500Y1166755*
X1262250Y1166391*
X1263500Y1166209*
X1264750*
X1265750Y1166391*
X1266250Y1166755*
X1266500Y1167300*
Y1167482*
X1266250Y1168027*
X1265750Y1168391*
X1265000Y1168573*
X1264750*
X1264000Y1168391*
X1263500Y1168027*
X1263250Y1167482*
Y1167300*
X1263500Y1166755*
X1264000Y1166391*
X1264750Y1166209*
X1272250Y1159300D02*
X1272000Y1159664D01*
X1271250Y1160209*
X1276500*
X1271250Y1162936D02*
X1271500Y1162391D01*
X1272250Y1162027*
X1273500Y1161845*
X1274250*
X1275500Y1162027*
X1276250Y1162391*
X1276500Y1162936*
Y1163300*
X1276250Y1163845*
X1275500Y1164209*
X1274250Y1164391*
X1273500*
X1272250Y1164209*
X1271500Y1163845*
X1271250Y1163300*
Y1162936*
Y1167118D02*
X1271500Y1166573D01*
X1272250Y1166209*
X1273500Y1166027*
X1274250*
X1275500Y1166209*
X1276250Y1166573*
X1276500Y1167118*
Y1167482*
X1276250Y1168027*
X1275500Y1168391*
X1274250Y1168573*
X1273500*
X1272250Y1168391*
X1271500Y1168027*
X1271250Y1167482*
Y1167118*
X1282250Y1159300D02*
X1282000Y1159664D01*
X1281250Y1160209*
X1286500*
X1281250Y1162936D02*
X1281500Y1162391D01*
X1282250Y1162027*
X1283500Y1161845*
X1284250*
X1285500Y1162027*
X1286250Y1162391*
X1286500Y1162936*
Y1163300*
X1286250Y1163845*
X1285500Y1164209*
X1284250Y1164391*
X1283500*
X1282250Y1164209*
X1281500Y1163845*
X1281250Y1163300*
Y1162936*
X1282500Y1166209D02*
X1282250D01*
X1281750Y1166391*
X1281500Y1166573*
X1281250Y1166936*
Y1167664*
X1281500Y1168027*
X1281750Y1168209*
X1282250Y1168391*
X1282750*
X1283250Y1168209*
X1284000Y1167845*
X1286500Y1166027*
Y1168573*
X1292250Y1159118D02*
X1292000Y1159482D01*
X1291250Y1160027*
X1296500*
X1291250Y1162755D02*
X1291500Y1162209D01*
X1292250Y1161845*
X1293500Y1161664*
X1294250*
X1295500Y1161845*
X1296250Y1162209*
X1296500Y1162755*
Y1163118*
X1296250Y1163664*
X1295500Y1164027*
X1294250Y1164209*
X1293500*
X1292250Y1164027*
X1291500Y1163664*
X1291250Y1163118*
Y1162755*
Y1167664D02*
X1294750Y1165845D01*
Y1168573*
X1291250Y1167664D02*
X1296500D01*
X1302250Y1159482D02*
X1302000Y1159845D01*
X1301250Y1160391*
X1306500*
X1301250Y1163118D02*
X1301500Y1162573D01*
X1302250Y1162209*
X1303500Y1162027*
X1304250*
X1305500Y1162209*
X1306250Y1162573*
X1306500Y1163118*
Y1163482*
X1306250Y1164027*
X1305500Y1164391*
X1304250Y1164573*
X1303500*
X1302250Y1164391*
X1301500Y1164027*
X1301250Y1163482*
Y1163118*
X1302000Y1168391D02*
X1301500Y1168209D01*
X1301250Y1167664*
Y1167300*
X1301500Y1166755*
X1302250Y1166391*
X1303500Y1166209*
X1304750*
X1305750Y1166391*
X1306250Y1166755*
X1306500Y1167300*
Y1167482*
X1306250Y1168027*
X1305750Y1168391*
X1305000Y1168573*
X1304750*
X1304000Y1168391*
X1303500Y1168027*
X1303250Y1167482*
Y1167300*
X1303500Y1166755*
X1304000Y1166391*
X1304750Y1166209*
X1312250Y1159300D02*
X1312000Y1159664D01*
X1311250Y1160209*
X1316500*
X1311250Y1162936D02*
X1311500Y1162391D01*
X1312250Y1162027*
X1313500Y1161845*
X1314250*
X1315500Y1162027*
X1316250Y1162391*
X1316500Y1162936*
Y1163300*
X1316250Y1163845*
X1315500Y1164209*
X1314250Y1164391*
X1313500*
X1312250Y1164209*
X1311500Y1163845*
X1311250Y1163300*
Y1162936*
Y1166936D02*
X1311500Y1166391D01*
X1312000Y1166209*
X1312500*
X1313000Y1166391*
X1313250Y1166755*
X1313500Y1167482*
X1313750Y1168027*
X1314250Y1168391*
X1314750Y1168573*
X1315500*
X1316000Y1168391*
X1316250Y1168209*
X1316500Y1167664*
Y1166936*
X1316250Y1166391*
X1316000Y1166209*
X1315500Y1166027*
X1314750*
X1314250Y1166209*
X1313750Y1166573*
X1313500Y1167118*
X1313250Y1167845*
X1313000Y1168209*
X1312500Y1168391*
X1312000*
X1311500Y1168209*
X1311250Y1167664*
Y1166936*
X1322250Y1160936D02*
X1322000Y1161300D01*
X1321250Y1161845*
X1326500*
X1322250Y1163482D02*
X1322000Y1163845D01*
X1321250Y1164391*
X1326500*
X1321250Y1167118D02*
X1321500Y1166573D01*
X1322250Y1166209*
X1323500Y1166027*
X1324250*
X1325500Y1166209*
X1326250Y1166573*
X1326500Y1167118*
Y1167482*
X1326250Y1168027*
X1325500Y1168391*
X1324250Y1168573*
X1323500*
X1322250Y1168391*
X1321500Y1168027*
X1321250Y1167482*
Y1167118*
X1332250Y1160755D02*
X1332000Y1161118D01*
X1331250Y1161664*
X1336500*
X1332250Y1163300D02*
X1332000Y1163664D01*
X1331250Y1164209*
X1336500*
X1331250Y1167664D02*
X1334750Y1165845D01*
Y1168573*
X1331250Y1167664D02*
X1336500D01*
X1342250Y1161118D02*
X1342000Y1161482D01*
X1341250Y1162027*
X1346500*
X1342250Y1163664D02*
X1342000Y1164027D01*
X1341250Y1164573*
X1346500*
X1342000Y1168391D02*
X1341500Y1168209D01*
X1341250Y1167664*
Y1167300*
X1341500Y1166755*
X1342250Y1166391*
X1343500Y1166209*
X1344750*
X1345750Y1166391*
X1346250Y1166755*
X1346500Y1167300*
Y1167482*
X1346250Y1168027*
X1345750Y1168391*
X1345000Y1168573*
X1344750*
X1344000Y1168391*
X1343500Y1168027*
X1343250Y1167482*
Y1167300*
X1343500Y1166755*
X1344000Y1166391*
X1344750Y1166209*
X1352250Y1160936D02*
X1352000Y1161300D01*
X1351250Y1161845*
X1356500*
X1352250Y1163482D02*
X1352000Y1163845D01*
X1351250Y1164391*
X1356500*
X1351250Y1166936D02*
X1351500Y1166391D01*
X1352000Y1166209*
X1352500*
X1353000Y1166391*
X1353250Y1166755*
X1353500Y1167482*
X1353750Y1168027*
X1354250Y1168391*
X1354750Y1168573*
X1355500*
X1356000Y1168391*
X1356250Y1168209*
X1356500Y1167664*
Y1166936*
X1356250Y1166391*
X1356000Y1166209*
X1355500Y1166027*
X1354750*
X1354250Y1166209*
X1353750Y1166573*
X1353500Y1167118*
X1353250Y1167845*
X1353000Y1168209*
X1352500Y1168391*
X1352000*
X1351500Y1168209*
X1351250Y1167664*
Y1166936*
X1362250Y1159300D02*
X1362000Y1159664D01*
X1361250Y1160209*
X1366500*
X1362500Y1162027D02*
X1362250D01*
X1361750Y1162209*
X1361500Y1162391*
X1361250Y1162755*
Y1163482*
X1361500Y1163845*
X1361750Y1164027*
X1362250Y1164209*
X1362750*
X1363250Y1164027*
X1364000Y1163664*
X1366500Y1161845*
Y1164391*
X1361250Y1167118D02*
X1361500Y1166573D01*
X1362250Y1166209*
X1363500Y1166027*
X1364250*
X1365500Y1166209*
X1366250Y1166573*
X1366500Y1167118*
Y1167482*
X1366250Y1168027*
X1365500Y1168391*
X1364250Y1168573*
X1363500*
X1362250Y1168391*
X1361500Y1168027*
X1361250Y1167482*
Y1167118*
X1382250Y1159300D02*
X1382000Y1159664D01*
X1381250Y1160209*
X1386500*
X1382500Y1162027D02*
X1382250D01*
X1381750Y1162209*
X1381500Y1162391*
X1381250Y1162755*
Y1163482*
X1381500Y1163845*
X1381750Y1164027*
X1382250Y1164209*
X1382750*
X1383250Y1164027*
X1384000Y1163664*
X1386500Y1161845*
Y1164391*
X1382500Y1166209D02*
X1382250D01*
X1381750Y1166391*
X1381500Y1166573*
X1381250Y1166936*
Y1167664*
X1381500Y1168027*
X1381750Y1168209*
X1382250Y1168391*
X1382750*
X1383250Y1168209*
X1384000Y1167845*
X1386500Y1166027*
Y1168573*
X1392250Y1159118D02*
X1392000Y1159482D01*
X1391250Y1160027*
X1396500*
X1392500Y1161845D02*
X1392250D01*
X1391750Y1162027*
X1391500Y1162209*
X1391250Y1162573*
Y1163300*
X1391500Y1163664*
X1391750Y1163845*
X1392250Y1164027*
X1392750*
X1393250Y1163845*
X1394000Y1163482*
X1396500Y1161664*
Y1164209*
X1391250Y1167664D02*
X1394750Y1165845D01*
Y1168573*
X1391250Y1167664D02*
X1396500D01*
X1402250Y1159482D02*
X1402000Y1159845D01*
X1401250Y1160391*
X1406500*
X1402500Y1162209D02*
X1402250D01*
X1401750Y1162391*
X1401500Y1162573*
X1401250Y1162936*
Y1163664*
X1401500Y1164027*
X1401750Y1164209*
X1402250Y1164391*
X1402750*
X1403250Y1164209*
X1404000Y1163845*
X1406500Y1162027*
Y1164573*
X1402000Y1168391D02*
X1401500Y1168209D01*
X1401250Y1167664*
Y1167300*
X1401500Y1166755*
X1402250Y1166391*
X1403500Y1166209*
X1404750*
X1405750Y1166391*
X1406250Y1166755*
X1406500Y1167300*
Y1167482*
X1406250Y1168027*
X1405750Y1168391*
X1405000Y1168573*
X1404750*
X1404000Y1168391*
X1403500Y1168027*
X1403250Y1167482*
Y1167300*
X1403500Y1166755*
X1404000Y1166391*
X1404750Y1166209*
X1412250Y1159300D02*
X1412000Y1159664D01*
X1411250Y1160209*
X1416500*
X1412500Y1162027D02*
X1412250D01*
X1411750Y1162209*
X1411500Y1162391*
X1411250Y1162755*
Y1163482*
X1411500Y1163845*
X1411750Y1164027*
X1412250Y1164209*
X1412750*
X1413250Y1164027*
X1414000Y1163664*
X1416500Y1161845*
Y1164391*
X1411250Y1166936D02*
X1411500Y1166391D01*
X1412000Y1166209*
X1412500*
X1413000Y1166391*
X1413250Y1166755*
X1413500Y1167482*
X1413750Y1168027*
X1414250Y1168391*
X1414750Y1168573*
X1415500*
X1416000Y1168391*
X1416250Y1168209*
X1416500Y1167664*
Y1166936*
X1416250Y1166391*
X1416000Y1166209*
X1415500Y1166027*
X1414750*
X1414250Y1166209*
X1413750Y1166573*
X1413500Y1167118*
X1413250Y1167845*
X1413000Y1168209*
X1412500Y1168391*
X1412000*
X1411500Y1168209*
X1411250Y1167664*
Y1166936*
X1422250Y1159300D02*
X1422000Y1159664D01*
X1421250Y1160209*
X1426500*
X1421250Y1162209D02*
Y1164209D01*
X1423250Y1163118*
Y1163664*
X1423500Y1164027*
X1423750Y1164209*
X1424500Y1164391*
X1425000*
X1425750Y1164209*
X1426250Y1163845*
X1426500Y1163300*
Y1162755*
X1426250Y1162209*
X1426000Y1162027*
X1425500Y1161845*
X1421250Y1167118D02*
X1421500Y1166573D01*
X1422250Y1166209*
X1423500Y1166027*
X1424250*
X1425500Y1166209*
X1426250Y1166573*
X1426500Y1167118*
Y1167482*
X1426250Y1168027*
X1425500Y1168391*
X1424250Y1168573*
X1423500*
X1422250Y1168391*
X1421500Y1168027*
X1421250Y1167482*
Y1167118*
X1432250Y1159300D02*
X1432000Y1159664D01*
X1431250Y1160209*
X1436500*
X1431250Y1162209D02*
Y1164209D01*
X1433250Y1163118*
Y1163664*
X1433500Y1164027*
X1433750Y1164209*
X1434500Y1164391*
X1435000*
X1435750Y1164209*
X1436250Y1163845*
X1436500Y1163300*
Y1162755*
X1436250Y1162209*
X1436000Y1162027*
X1435500Y1161845*
X1432500Y1166209D02*
X1432250D01*
X1431750Y1166391*
X1431500Y1166573*
X1431250Y1166936*
Y1167664*
X1431500Y1168027*
X1431750Y1168209*
X1432250Y1168391*
X1432750*
X1433250Y1168209*
X1434000Y1167845*
X1436500Y1166027*
Y1168573*
X1442250Y1159118D02*
X1442000Y1159482D01*
X1441250Y1160027*
X1446500*
X1441250Y1162027D02*
Y1164027D01*
X1443250Y1162936*
Y1163482*
X1443500Y1163845*
X1443750Y1164027*
X1444500Y1164209*
X1445000*
X1445750Y1164027*
X1446250Y1163664*
X1446500Y1163118*
Y1162573*
X1446250Y1162027*
X1446000Y1161845*
X1445500Y1161664*
X1441250Y1167664D02*
X1444750Y1165845D01*
Y1168573*
X1441250Y1167664D02*
X1446500D01*
X1452250Y1159300D02*
X1452000Y1159664D01*
X1451250Y1160209*
X1456500*
X1451250Y1162209D02*
Y1164209D01*
X1453250Y1163118*
Y1163664*
X1453500Y1164027*
X1453750Y1164209*
X1454500Y1164391*
X1455000*
X1455750Y1164209*
X1456250Y1163845*
X1456500Y1163300*
Y1162755*
X1456250Y1162209*
X1456000Y1162027*
X1455500Y1161845*
X1451250Y1166936D02*
X1451500Y1166391D01*
X1452000Y1166209*
X1452500*
X1453000Y1166391*
X1453250Y1166755*
X1453500Y1167482*
X1453750Y1168027*
X1454250Y1168391*
X1454750Y1168573*
X1455500*
X1456000Y1168391*
X1456250Y1168209*
X1456500Y1167664*
Y1166936*
X1456250Y1166391*
X1456000Y1166209*
X1455500Y1166027*
X1454750*
X1454250Y1166209*
X1453750Y1166573*
X1453500Y1167118*
X1453250Y1167845*
X1453000Y1168209*
X1452500Y1168391*
X1452000*
X1451500Y1168209*
X1451250Y1167664*
Y1166936*
X1462250Y1159118D02*
X1462000Y1159482D01*
X1461250Y1160027*
X1466500*
X1461250Y1163482D02*
X1464750Y1161664D01*
Y1164391*
X1461250Y1163482D02*
X1466500D01*
X1461250Y1167118D02*
X1461500Y1166573D01*
X1462250Y1166209*
X1463500Y1166027*
X1464250*
X1465500Y1166209*
X1466250Y1166573*
X1466500Y1167118*
Y1167482*
X1466250Y1168027*
X1465500Y1168391*
X1464250Y1168573*
X1463500*
X1462250Y1168391*
X1461500Y1168027*
X1461250Y1167482*
Y1167118*
X1472250Y1159118D02*
X1472000Y1159482D01*
X1471250Y1160027*
X1476500*
X1471250Y1163482D02*
X1474750Y1161664D01*
Y1164391*
X1471250Y1163482D02*
X1476500D01*
X1472500Y1166209D02*
X1472250D01*
X1471750Y1166391*
X1471500Y1166573*
X1471250Y1166936*
Y1167664*
X1471500Y1168027*
X1471750Y1168209*
X1472250Y1168391*
X1472750*
X1473250Y1168209*
X1474000Y1167845*
X1476500Y1166027*
Y1168573*
X1482250Y1158936D02*
X1482000Y1159300D01*
X1481250Y1159845*
X1486500*
X1481250Y1163300D02*
X1484750Y1161482D01*
Y1164209*
X1481250Y1163300D02*
X1486500D01*
X1481250Y1167664D02*
X1484750Y1165845D01*
Y1168573*
X1481250Y1167664D02*
X1486500D01*
X1492250Y1159300D02*
X1492000Y1159664D01*
X1491250Y1160209*
X1496500*
X1491250Y1163664D02*
X1494750Y1161845D01*
Y1164573*
X1491250Y1163664D02*
X1496500D01*
X1492000Y1168391D02*
X1491500Y1168209D01*
X1491250Y1167664*
Y1167300*
X1491500Y1166755*
X1492250Y1166391*
X1493500Y1166209*
X1494750*
X1495750Y1166391*
X1496250Y1166755*
X1496500Y1167300*
Y1167482*
X1496250Y1168027*
X1495750Y1168391*
X1495000Y1168573*
X1494750*
X1494000Y1168391*
X1493500Y1168027*
X1493250Y1167482*
Y1167300*
X1493500Y1166755*
X1494000Y1166391*
X1494750Y1166209*
X1502250Y1159118D02*
X1502000Y1159482D01*
X1501250Y1160027*
X1506500*
X1501250Y1163482D02*
X1504750Y1161664D01*
Y1164391*
X1501250Y1163482D02*
X1506500D01*
X1501250Y1166936D02*
X1501500Y1166391D01*
X1502000Y1166209*
X1502500*
X1503000Y1166391*
X1503250Y1166755*
X1503500Y1167482*
X1503750Y1168027*
X1504250Y1168391*
X1504750Y1168573*
X1505500*
X1506000Y1168391*
X1506250Y1168209*
X1506500Y1167664*
Y1166936*
X1506250Y1166391*
X1506000Y1166209*
X1505500Y1166027*
X1504750*
X1504250Y1166209*
X1503750Y1166573*
X1503500Y1167118*
X1503250Y1167845*
X1503000Y1168209*
X1502500Y1168391*
X1502000*
X1501500Y1168209*
X1501250Y1167664*
Y1166936*
X1512250Y1159118D02*
X1512000Y1159482D01*
X1511250Y1160027*
X1516500*
X1511250Y1164027D02*
Y1162209D01*
X1513500Y1162027*
X1513250Y1162209*
X1513000Y1162755*
Y1163300*
X1513250Y1163845*
X1513750Y1164209*
X1514500Y1164391*
X1515000Y1164209*
X1515750Y1164027*
X1516250Y1163664*
X1516500Y1163118*
Y1162573*
X1516250Y1162027*
X1516000Y1161845*
X1515500Y1161664*
X1511250Y1167118D02*
X1511500Y1166573D01*
X1512250Y1166209*
X1513500Y1166027*
X1514250*
X1515500Y1166209*
X1516250Y1166573*
X1516500Y1167118*
Y1167482*
X1516250Y1168027*
X1515500Y1168391*
X1514250Y1168573*
X1513500*
X1512250Y1168391*
X1511500Y1168027*
X1511250Y1167482*
Y1167118*
X1522250Y1159118D02*
X1522000Y1159482D01*
X1521250Y1160027*
X1526500*
X1521250Y1164027D02*
Y1162209D01*
X1523500Y1162027*
X1523250Y1162209*
X1523000Y1162755*
Y1163300*
X1523250Y1163845*
X1523750Y1164209*
X1524500Y1164391*
X1525000Y1164209*
X1525750Y1164027*
X1526250Y1163664*
X1526500Y1163118*
Y1162573*
X1526250Y1162027*
X1526000Y1161845*
X1525500Y1161664*
X1522500Y1166209D02*
X1522250D01*
X1521750Y1166391*
X1521500Y1166573*
X1521250Y1166936*
Y1167664*
X1521500Y1168027*
X1521750Y1168209*
X1522250Y1168391*
X1522750*
X1523250Y1168209*
X1524000Y1167845*
X1526500Y1166027*
Y1168573*
X1532250Y1158936D02*
X1532000Y1159300D01*
X1531250Y1159845*
X1536500*
X1531250Y1163845D02*
Y1162027D01*
X1533500Y1161845*
X1533250Y1162027*
X1533000Y1162573*
Y1163118*
X1533250Y1163664*
X1533750Y1164027*
X1534500Y1164209*
X1535000Y1164027*
X1535750Y1163845*
X1536250Y1163482*
X1536500Y1162936*
Y1162391*
X1536250Y1161845*
X1536000Y1161664*
X1535500Y1161482*
X1531250Y1167664D02*
X1534750Y1165845D01*
Y1168573*
X1531250Y1167664D02*
X1536500D01*
X1542250Y1159300D02*
X1542000Y1159664D01*
X1541250Y1160209*
X1546500*
X1541250Y1164209D02*
Y1162391D01*
X1543500Y1162209*
X1543250Y1162391*
X1543000Y1162936*
Y1163482*
X1543250Y1164027*
X1543750Y1164391*
X1544500Y1164573*
X1545000Y1164391*
X1545750Y1164209*
X1546250Y1163845*
X1546500Y1163300*
Y1162755*
X1546250Y1162209*
X1546000Y1162027*
X1545500Y1161845*
X1542000Y1168391D02*
X1541500Y1168209D01*
X1541250Y1167664*
Y1167300*
X1541500Y1166755*
X1542250Y1166391*
X1543500Y1166209*
X1544750*
X1545750Y1166391*
X1546250Y1166755*
X1546500Y1167300*
Y1167482*
X1546250Y1168027*
X1545750Y1168391*
X1545000Y1168573*
X1544750*
X1544000Y1168391*
X1543500Y1168027*
X1543250Y1167482*
Y1167300*
X1543500Y1166755*
X1544000Y1166391*
X1544750Y1166209*
X1552250Y1159482D02*
X1552000Y1159845D01*
X1551250Y1160391*
X1556500*
X1552000Y1164209D02*
X1551500Y1164027D01*
X1551250Y1163482*
Y1163118*
X1551500Y1162573*
X1552250Y1162209*
X1553500Y1162027*
X1554750*
X1555750Y1162209*
X1556250Y1162573*
X1556500Y1163118*
Y1163300*
X1556250Y1163845*
X1555750Y1164209*
X1555000Y1164391*
X1554750*
X1554000Y1164209*
X1553500Y1163845*
X1553250Y1163300*
Y1163118*
X1553500Y1162573*
X1554000Y1162209*
X1554750Y1162027*
X1551250Y1167118D02*
X1551500Y1166573D01*
X1552250Y1166209*
X1553500Y1166027*
X1554250*
X1555500Y1166209*
X1556250Y1166573*
X1556500Y1167118*
Y1167482*
X1556250Y1168027*
X1555500Y1168391*
X1554250Y1168573*
X1553500*
X1552250Y1168391*
X1551500Y1168027*
X1551250Y1167482*
Y1167118*
X1562250Y1159482D02*
X1562000Y1159845D01*
X1561250Y1160391*
X1566500*
X1562000Y1164209D02*
X1561500Y1164027D01*
X1561250Y1163482*
Y1163118*
X1561500Y1162573*
X1562250Y1162209*
X1563500Y1162027*
X1564750*
X1565750Y1162209*
X1566250Y1162573*
X1566500Y1163118*
Y1163300*
X1566250Y1163845*
X1565750Y1164209*
X1565000Y1164391*
X1564750*
X1564000Y1164209*
X1563500Y1163845*
X1563250Y1163300*
Y1163118*
X1563500Y1162573*
X1564000Y1162209*
X1564750Y1162027*
X1562500Y1166209D02*
X1562250D01*
X1561750Y1166391*
X1561500Y1166573*
X1561250Y1166936*
Y1167664*
X1561500Y1168027*
X1561750Y1168209*
X1562250Y1168391*
X1562750*
X1563250Y1168209*
X1564000Y1167845*
X1566500Y1166027*
Y1168573*
X1572250Y1159300D02*
X1572000Y1159664D01*
X1571250Y1160209*
X1576500*
X1572000Y1164027D02*
X1571500Y1163845D01*
X1571250Y1163300*
Y1162936*
X1571500Y1162391*
X1572250Y1162027*
X1573500Y1161845*
X1574750*
X1575750Y1162027*
X1576250Y1162391*
X1576500Y1162936*
Y1163118*
X1576250Y1163664*
X1575750Y1164027*
X1575000Y1164209*
X1574750*
X1574000Y1164027*
X1573500Y1163664*
X1573250Y1163118*
Y1162936*
X1573500Y1162391*
X1574000Y1162027*
X1574750Y1161845*
X1571250Y1167664D02*
X1574750Y1165845D01*
Y1168573*
X1571250Y1167664D02*
X1576500D01*
X1582250Y1159664D02*
X1582000Y1160027D01*
X1581250Y1160573*
X1586500*
X1582000Y1164391D02*
X1581500Y1164209D01*
X1581250Y1163664*
Y1163300*
X1581500Y1162755*
X1582250Y1162391*
X1583500Y1162209*
X1584750*
X1585750Y1162391*
X1586250Y1162755*
X1586500Y1163300*
Y1163482*
X1586250Y1164027*
X1585750Y1164391*
X1585000Y1164573*
X1584750*
X1584000Y1164391*
X1583500Y1164027*
X1583250Y1163482*
Y1163300*
X1583500Y1162755*
X1584000Y1162391*
X1584750Y1162209*
X1582000Y1168391D02*
X1581500Y1168209D01*
X1581250Y1167664*
Y1167300*
X1581500Y1166755*
X1582250Y1166391*
X1583500Y1166209*
X1584750*
X1585750Y1166391*
X1586250Y1166755*
X1586500Y1167300*
Y1167482*
X1586250Y1168027*
X1585750Y1168391*
X1585000Y1168573*
X1584750*
X1584000Y1168391*
X1583500Y1168027*
X1583250Y1167482*
Y1167300*
X1583500Y1166755*
X1584000Y1166391*
X1584750Y1166209*
X1592250Y1159482D02*
X1592000Y1159845D01*
X1591250Y1160391*
X1596500*
X1592000Y1164209D02*
X1591500Y1164027D01*
X1591250Y1163482*
Y1163118*
X1591500Y1162573*
X1592250Y1162209*
X1593500Y1162027*
X1594750*
X1595750Y1162209*
X1596250Y1162573*
X1596500Y1163118*
Y1163300*
X1596250Y1163845*
X1595750Y1164209*
X1595000Y1164391*
X1594750*
X1594000Y1164209*
X1593500Y1163845*
X1593250Y1163300*
Y1163118*
X1593500Y1162573*
X1594000Y1162209*
X1594750Y1162027*
X1591250Y1166936D02*
X1591500Y1166391D01*
X1592000Y1166209*
X1592500*
X1593000Y1166391*
X1593250Y1166755*
X1593500Y1167482*
X1593750Y1168027*
X1594250Y1168391*
X1594750Y1168573*
X1595500*
X1596000Y1168391*
X1596250Y1168209*
X1596500Y1167664*
Y1166936*
X1596250Y1166391*
X1596000Y1166209*
X1595500Y1166027*
X1594750*
X1594250Y1166209*
X1593750Y1166573*
X1593500Y1167118*
X1593250Y1167845*
X1593000Y1168209*
X1592500Y1168391*
X1592000*
X1591500Y1168209*
X1591250Y1167664*
Y1166936*
X1602250Y1159300D02*
X1602000Y1159664D01*
X1601250Y1160209*
X1606500*
X1601250Y1164391D02*
X1606500Y1162573D01*
X1601250Y1161845D02*
Y1164391D01*
Y1167118D02*
X1601500Y1166573D01*
X1602250Y1166209*
X1603500Y1166027*
X1604250*
X1605500Y1166209*
X1606250Y1166573*
X1606500Y1167118*
Y1167482*
X1606250Y1168027*
X1605500Y1168391*
X1604250Y1168573*
X1603500*
X1602250Y1168391*
X1601500Y1168027*
X1601250Y1167482*
Y1167118*
X1612250Y1159300D02*
X1612000Y1159664D01*
X1611250Y1160209*
X1616500*
X1611250Y1164391D02*
X1616500Y1162573D01*
X1611250Y1161845D02*
Y1164391D01*
X1612500Y1166209D02*
X1612250D01*
X1611750Y1166391*
X1611500Y1166573*
X1611250Y1166936*
Y1167664*
X1611500Y1168027*
X1611750Y1168209*
X1612250Y1168391*
X1612750*
X1613250Y1168209*
X1614000Y1167845*
X1616500Y1166027*
Y1168573*
X1622250Y1159118D02*
X1622000Y1159482D01*
X1621250Y1160027*
X1626500*
X1621250Y1164209D02*
X1626500Y1162391D01*
X1621250Y1161664D02*
Y1164209D01*
Y1167664D02*
X1624750Y1165845D01*
Y1168573*
X1621250Y1167664D02*
X1626500D01*
X1632250Y1159482D02*
X1632000Y1159845D01*
X1631250Y1160391*
X1636500*
X1631250Y1164573D02*
X1636500Y1162755D01*
X1631250Y1162027D02*
Y1164573D01*
X1632000Y1168391D02*
X1631500Y1168209D01*
X1631250Y1167664*
Y1167300*
X1631500Y1166755*
X1632250Y1166391*
X1633500Y1166209*
X1634750*
X1635750Y1166391*
X1636250Y1166755*
X1636500Y1167300*
Y1167482*
X1636250Y1168027*
X1635750Y1168391*
X1635000Y1168573*
X1634750*
X1634000Y1168391*
X1633500Y1168027*
X1633250Y1167482*
Y1167300*
X1633500Y1166755*
X1634000Y1166391*
X1634750Y1166209*
X1622250Y1061500D02*
X1622000Y1061864D01*
X1621250Y1062409*
X1626500*
X1621250Y1066591D02*
X1626500Y1064773D01*
X1621250Y1064045D02*
Y1066591D01*
Y1068591D02*
Y1070591D01*
X1623250Y1069500*
Y1070045*
X1623500Y1070409*
X1623750Y1070591*
X1624500Y1070773*
X1625000*
X1625750Y1070591*
X1626250Y1070227*
X1626500Y1069682*
Y1069136*
X1626250Y1068591*
X1626000Y1068409*
X1625500Y1068227*
X1612250Y1061500D02*
X1612000Y1061864D01*
X1611250Y1062409*
X1616500*
X1611250Y1066591D02*
X1616500Y1064773D01*
X1611250Y1064045D02*
Y1066591D01*
X1612250Y1068227D02*
X1612000Y1068591D01*
X1611250Y1069136*
X1616500*
X1602250Y1061500D02*
X1602000Y1061864D01*
X1601250Y1062409*
X1606500*
X1602000Y1066227D02*
X1601500Y1066045D01*
X1601250Y1065500*
Y1065136*
X1601500Y1064591*
X1602250Y1064227*
X1603500Y1064045*
X1604750*
X1605750Y1064227*
X1606250Y1064591*
X1606500Y1065136*
Y1065318*
X1606250Y1065864*
X1605750Y1066227*
X1605000Y1066409*
X1604750*
X1604000Y1066227*
X1603500Y1065864*
X1603250Y1065318*
Y1065136*
X1603500Y1064591*
X1604000Y1064227*
X1604750Y1064045*
X1603000Y1070409D02*
X1603750Y1070227D01*
X1604250Y1069864*
X1604500Y1069318*
Y1069136*
X1604250Y1068591*
X1603750Y1068227*
X1603000Y1068045*
X1602750*
X1602000Y1068227*
X1601500Y1068591*
X1601250Y1069136*
Y1069318*
X1601500Y1069864*
X1602000Y1070227*
X1603000Y1070409*
X1604250*
X1605500Y1070227*
X1606250Y1069864*
X1606500Y1069318*
Y1068955*
X1606250Y1068409*
X1605750Y1068227*
X1592250Y1061500D02*
X1592000Y1061864D01*
X1591250Y1062409*
X1596500*
X1592000Y1066227D02*
X1591500Y1066045D01*
X1591250Y1065500*
Y1065136*
X1591500Y1064591*
X1592250Y1064227*
X1593500Y1064045*
X1594750*
X1595750Y1064227*
X1596250Y1064591*
X1596500Y1065136*
Y1065318*
X1596250Y1065864*
X1595750Y1066227*
X1595000Y1066409*
X1594750*
X1594000Y1066227*
X1593500Y1065864*
X1593250Y1065318*
Y1065136*
X1593500Y1064591*
X1594000Y1064227*
X1594750Y1064045*
X1591250Y1070591D02*
X1596500Y1068773D01*
X1591250Y1068045D02*
Y1070591D01*
X1582250Y1061500D02*
X1582000Y1061864D01*
X1581250Y1062409*
X1586500*
X1582000Y1066227D02*
X1581500Y1066045D01*
X1581250Y1065500*
Y1065136*
X1581500Y1064591*
X1582250Y1064227*
X1583500Y1064045*
X1584750*
X1585750Y1064227*
X1586250Y1064591*
X1586500Y1065136*
Y1065318*
X1586250Y1065864*
X1585750Y1066227*
X1585000Y1066409*
X1584750*
X1584000Y1066227*
X1583500Y1065864*
X1583250Y1065318*
Y1065136*
X1583500Y1064591*
X1584000Y1064227*
X1584750Y1064045*
X1581250Y1070409D02*
Y1068591D01*
X1583500Y1068409*
X1583250Y1068591*
X1583000Y1069136*
Y1069682*
X1583250Y1070227*
X1583750Y1070591*
X1584500Y1070773*
X1585000Y1070591*
X1585750Y1070409*
X1586250Y1070045*
X1586500Y1069500*
Y1068955*
X1586250Y1068409*
X1586000Y1068227*
X1585500Y1068045*
X1572250Y1061500D02*
X1572000Y1061864D01*
X1571250Y1062409*
X1576500*
X1572000Y1066227D02*
X1571500Y1066045D01*
X1571250Y1065500*
Y1065136*
X1571500Y1064591*
X1572250Y1064227*
X1573500Y1064045*
X1574750*
X1575750Y1064227*
X1576250Y1064591*
X1576500Y1065136*
Y1065318*
X1576250Y1065864*
X1575750Y1066227*
X1575000Y1066409*
X1574750*
X1574000Y1066227*
X1573500Y1065864*
X1573250Y1065318*
Y1065136*
X1573500Y1064591*
X1574000Y1064227*
X1574750Y1064045*
X1571250Y1068409D02*
Y1070409D01*
X1573250Y1069318*
Y1069864*
X1573500Y1070227*
X1573750Y1070409*
X1574500Y1070591*
X1575000*
X1575750Y1070409*
X1576250Y1070045*
X1576500Y1069500*
Y1068955*
X1576250Y1068409*
X1576000Y1068227*
X1575500Y1068045*
X1552250Y1061500D02*
X1552000Y1061864D01*
X1551250Y1062409*
X1556500*
X1551250Y1066409D02*
Y1064591D01*
X1553500Y1064409*
X1553250Y1064591*
X1553000Y1065136*
Y1065682*
X1553250Y1066227*
X1553750Y1066591*
X1554500Y1066773*
X1555000Y1066591*
X1555750Y1066409*
X1556250Y1066045*
X1556500Y1065500*
Y1064955*
X1556250Y1064409*
X1556000Y1064227*
X1555500Y1064045*
X1553000Y1070773D02*
X1553750Y1070591D01*
X1554250Y1070227*
X1554500Y1069682*
Y1069500*
X1554250Y1068955*
X1553750Y1068591*
X1553000Y1068409*
X1552750*
X1552000Y1068591*
X1551500Y1068955*
X1551250Y1069500*
Y1069682*
X1551500Y1070227*
X1552000Y1070591*
X1553000Y1070773*
X1554250*
X1555500Y1070591*
X1556250Y1070227*
X1556500Y1069682*
Y1069318*
X1556250Y1068773*
X1555750Y1068591*
X1542250Y1061500D02*
X1542000Y1061864D01*
X1541250Y1062409*
X1546500*
X1541250Y1066409D02*
Y1064591D01*
X1543500Y1064409*
X1543250Y1064591*
X1543000Y1065136*
Y1065682*
X1543250Y1066227*
X1543750Y1066591*
X1544500Y1066773*
X1545000Y1066591*
X1545750Y1066409*
X1546250Y1066045*
X1546500Y1065500*
Y1064955*
X1546250Y1064409*
X1546000Y1064227*
X1545500Y1064045*
X1541250Y1070773D02*
Y1068955D01*
X1543500Y1068773*
X1543250Y1068955*
X1543000Y1069500*
Y1070045*
X1543250Y1070591*
X1543750Y1070955*
X1544500Y1071136*
X1545000Y1070955*
X1545750Y1070773*
X1546250Y1070409*
X1546500Y1069864*
Y1069318*
X1546250Y1068773*
X1546000Y1068591*
X1545500Y1068409*
X1532250Y1061500D02*
X1532000Y1061864D01*
X1531250Y1062409*
X1536500*
X1531250Y1066409D02*
Y1064591D01*
X1533500Y1064409*
X1533250Y1064591*
X1533000Y1065136*
Y1065682*
X1533250Y1066227*
X1533750Y1066591*
X1534500Y1066773*
X1535000Y1066591*
X1535750Y1066409*
X1536250Y1066045*
X1536500Y1065500*
Y1064955*
X1536250Y1064409*
X1536000Y1064227*
X1535500Y1064045*
X1531250Y1068773D02*
Y1070773D01*
X1533250Y1069682*
Y1070227*
X1533500Y1070591*
X1533750Y1070773*
X1534500Y1070955*
X1535000*
X1535750Y1070773*
X1536250Y1070409*
X1536500Y1069864*
Y1069318*
X1536250Y1068773*
X1536000Y1068591*
X1535500Y1068409*
X1522250Y1061500D02*
X1522000Y1061864D01*
X1521250Y1062409*
X1526500*
X1521250Y1066409D02*
Y1064591D01*
X1523500Y1064409*
X1523250Y1064591*
X1523000Y1065136*
Y1065682*
X1523250Y1066227*
X1523750Y1066591*
X1524500Y1066773*
X1525000Y1066591*
X1525750Y1066409*
X1526250Y1066045*
X1526500Y1065500*
Y1064955*
X1526250Y1064409*
X1526000Y1064227*
X1525500Y1064045*
X1522250Y1068409D02*
X1522000Y1068773D01*
X1521250Y1069318*
X1526500*
X1512250Y1061500D02*
X1512000Y1061864D01*
X1511250Y1062409*
X1516500*
X1511250Y1065864D02*
X1514750Y1064045D01*
Y1066773*
X1511250Y1065864D02*
X1516500D01*
X1513000Y1070773D02*
X1513750Y1070591D01*
X1514250Y1070227*
X1514500Y1069682*
Y1069500*
X1514250Y1068955*
X1513750Y1068591*
X1513000Y1068409*
X1512750*
X1512000Y1068591*
X1511500Y1068955*
X1511250Y1069500*
Y1069682*
X1511500Y1070227*
X1512000Y1070591*
X1513000Y1070773*
X1514250*
X1515500Y1070591*
X1516250Y1070227*
X1516500Y1069682*
Y1069318*
X1516250Y1068773*
X1515750Y1068591*
X1502250Y1061500D02*
X1502000Y1061864D01*
X1501250Y1062409*
X1506500*
X1501250Y1065864D02*
X1504750Y1064045D01*
Y1066773*
X1501250Y1065864D02*
X1506500D01*
X1501250Y1070955D02*
X1506500Y1069136D01*
X1501250Y1068409D02*
Y1070955D01*
X1492250Y1061500D02*
X1492000Y1061864D01*
X1491250Y1062409*
X1496500*
X1491250Y1065864D02*
X1494750Y1064045D01*
Y1066773*
X1491250Y1065864D02*
X1496500D01*
X1491250Y1070773D02*
Y1068955D01*
X1493500Y1068773*
X1493250Y1068955*
X1493000Y1069500*
Y1070045*
X1493250Y1070591*
X1493750Y1070955*
X1494500Y1071136*
X1495000Y1070955*
X1495750Y1070773*
X1496250Y1070409*
X1496500Y1069864*
Y1069318*
X1496250Y1068773*
X1496000Y1068591*
X1495500Y1068409*
X1482250Y1061500D02*
X1482000Y1061864D01*
X1481250Y1062409*
X1486500*
X1481250Y1065864D02*
X1484750Y1064045D01*
Y1066773*
X1481250Y1065864D02*
X1486500D01*
X1481250Y1068773D02*
Y1070773D01*
X1483250Y1069682*
Y1070227*
X1483500Y1070591*
X1483750Y1070773*
X1484500Y1070955*
X1485000*
X1485750Y1070773*
X1486250Y1070409*
X1486500Y1069864*
Y1069318*
X1486250Y1068773*
X1486000Y1068591*
X1485500Y1068409*
X1472250Y1061500D02*
X1472000Y1061864D01*
X1471250Y1062409*
X1476500*
X1471250Y1065864D02*
X1474750Y1064045D01*
Y1066773*
X1471250Y1065864D02*
X1476500D01*
X1472250Y1068409D02*
X1472000Y1068773D01*
X1471250Y1069318*
X1476500*
X1452250Y1061500D02*
X1452000Y1061864D01*
X1451250Y1062409*
X1456500*
X1451250Y1064409D02*
Y1066409D01*
X1453250Y1065318*
Y1065864*
X1453500Y1066227*
X1453750Y1066409*
X1454500Y1066591*
X1455000*
X1455750Y1066409*
X1456250Y1066045*
X1456500Y1065500*
Y1064955*
X1456250Y1064409*
X1456000Y1064227*
X1455500Y1064045*
X1451250Y1070773D02*
X1456500Y1068955D01*
X1451250Y1068227D02*
Y1070773D01*
X1442250Y1061500D02*
X1442000Y1061864D01*
X1441250Y1062409*
X1446500*
X1441250Y1064409D02*
Y1066409D01*
X1443250Y1065318*
Y1065864*
X1443500Y1066227*
X1443750Y1066409*
X1444500Y1066591*
X1445000*
X1445750Y1066409*
X1446250Y1066045*
X1446500Y1065500*
Y1064955*
X1446250Y1064409*
X1446000Y1064227*
X1445500Y1064045*
X1441250Y1068591D02*
Y1070591D01*
X1443250Y1069500*
Y1070045*
X1443500Y1070409*
X1443750Y1070591*
X1444500Y1070773*
X1445000*
X1445750Y1070591*
X1446250Y1070227*
X1446500Y1069682*
Y1069136*
X1446250Y1068591*
X1446000Y1068409*
X1445500Y1068227*
X1432250Y1061500D02*
X1432000Y1061864D01*
X1431250Y1062409*
X1436500*
X1431250Y1064409D02*
Y1066409D01*
X1433250Y1065318*
Y1065864*
X1433500Y1066227*
X1433750Y1066409*
X1434500Y1066591*
X1435000*
X1435750Y1066409*
X1436250Y1066045*
X1436500Y1065500*
Y1064955*
X1436250Y1064409*
X1436000Y1064227*
X1435500Y1064045*
X1432250Y1068227D02*
X1432000Y1068591D01*
X1431250Y1069136*
X1436500*
X1422250Y1061500D02*
X1422000Y1061864D01*
X1421250Y1062409*
X1426500*
X1422500Y1064227D02*
X1422250D01*
X1421750Y1064409*
X1421500Y1064591*
X1421250Y1064955*
Y1065682*
X1421500Y1066045*
X1421750Y1066227*
X1422250Y1066409*
X1422750*
X1423250Y1066227*
X1424000Y1065864*
X1426500Y1064045*
Y1066591*
X1423000Y1070591D02*
X1423750Y1070409D01*
X1424250Y1070045*
X1424500Y1069500*
Y1069318*
X1424250Y1068773*
X1423750Y1068409*
X1423000Y1068227*
X1422750*
X1422000Y1068409*
X1421500Y1068773*
X1421250Y1069318*
Y1069500*
X1421500Y1070045*
X1422000Y1070409*
X1423000Y1070591*
X1424250*
X1425500Y1070409*
X1426250Y1070045*
X1426500Y1069500*
Y1069136*
X1426250Y1068591*
X1425750Y1068409*
X1412250Y1061500D02*
X1412000Y1061864D01*
X1411250Y1062409*
X1416500*
X1412500Y1064227D02*
X1412250D01*
X1411750Y1064409*
X1411500Y1064591*
X1411250Y1064955*
Y1065682*
X1411500Y1066045*
X1411750Y1066227*
X1412250Y1066409*
X1412750*
X1413250Y1066227*
X1414000Y1065864*
X1416500Y1064045*
Y1066591*
X1411250Y1070773D02*
X1416500Y1068955D01*
X1411250Y1068227D02*
Y1070773D01*
X1402250Y1061500D02*
X1402000Y1061864D01*
X1401250Y1062409*
X1406500*
X1402500Y1064227D02*
X1402250D01*
X1401750Y1064409*
X1401500Y1064591*
X1401250Y1064955*
Y1065682*
X1401500Y1066045*
X1401750Y1066227*
X1402250Y1066409*
X1402750*
X1403250Y1066227*
X1404000Y1065864*
X1406500Y1064045*
Y1066591*
X1401250Y1070591D02*
Y1068773D01*
X1403500Y1068591*
X1403250Y1068773*
X1403000Y1069318*
Y1069864*
X1403250Y1070409*
X1403750Y1070773*
X1404500Y1070955*
X1405000Y1070773*
X1405750Y1070591*
X1406250Y1070227*
X1406500Y1069682*
Y1069136*
X1406250Y1068591*
X1406000Y1068409*
X1405500Y1068227*
X1392250Y1061500D02*
X1392000Y1061864D01*
X1391250Y1062409*
X1396500*
X1392500Y1064227D02*
X1392250D01*
X1391750Y1064409*
X1391500Y1064591*
X1391250Y1064955*
Y1065682*
X1391500Y1066045*
X1391750Y1066227*
X1392250Y1066409*
X1392750*
X1393250Y1066227*
X1394000Y1065864*
X1396500Y1064045*
Y1066591*
X1391250Y1068591D02*
Y1070591D01*
X1393250Y1069500*
Y1070045*
X1393500Y1070409*
X1393750Y1070591*
X1394500Y1070773*
X1395000*
X1395750Y1070591*
X1396250Y1070227*
X1396500Y1069682*
Y1069136*
X1396250Y1068591*
X1396000Y1068409*
X1395500Y1068227*
X1382250Y1061500D02*
X1382000Y1061864D01*
X1381250Y1062409*
X1386500*
X1382500Y1064227D02*
X1382250D01*
X1381750Y1064409*
X1381500Y1064591*
X1381250Y1064955*
Y1065682*
X1381500Y1066045*
X1381750Y1066227*
X1382250Y1066409*
X1382750*
X1383250Y1066227*
X1384000Y1065864*
X1386500Y1064045*
Y1066591*
X1382250Y1068227D02*
X1382000Y1068591D01*
X1381250Y1069136*
X1386500*
X1362250Y1061500D02*
X1362000Y1061864D01*
X1361250Y1062409*
X1366500*
X1362250Y1064045D02*
X1362000Y1064409D01*
X1361250Y1064955*
X1366500*
X1363000Y1068955D02*
X1363750Y1068773D01*
X1364250Y1068409*
X1364500Y1067864*
Y1067682*
X1364250Y1067136*
X1363750Y1066773*
X1363000Y1066591*
X1362750*
X1362000Y1066773*
X1361500Y1067136*
X1361250Y1067682*
Y1067864*
X1361500Y1068409*
X1362000Y1068773*
X1363000Y1068955*
X1364250*
X1365500Y1068773*
X1366250Y1068409*
X1366500Y1067864*
Y1067500*
X1366250Y1066955*
X1365750Y1066773*
X1342250Y1061500D02*
X1342000Y1061864D01*
X1341250Y1062409*
X1346500*
X1342250Y1064045D02*
X1342000Y1064409D01*
X1341250Y1064955*
X1346500*
X1341250Y1068955D02*
Y1067136D01*
X1343500Y1066955*
X1343250Y1067136*
X1343000Y1067682*
Y1068227*
X1343250Y1068773*
X1343750Y1069136*
X1344500Y1069318*
X1345000Y1069136*
X1345750Y1068955*
X1346250Y1068591*
X1346500Y1068045*
Y1067500*
X1346250Y1066955*
X1346000Y1066773*
X1345500Y1066591*
X1332250Y1061500D02*
X1332000Y1061864D01*
X1331250Y1062409*
X1336500*
X1332250Y1064045D02*
X1332000Y1064409D01*
X1331250Y1064955*
X1336500*
X1331250Y1066955D02*
Y1068955D01*
X1333250Y1067864*
Y1068409*
X1333500Y1068773*
X1333750Y1068955*
X1334500Y1069136*
X1335000*
X1335750Y1068955*
X1336250Y1068591*
X1336500Y1068045*
Y1067500*
X1336250Y1066955*
X1336000Y1066773*
X1335500Y1066591*
X1322250Y1061500D02*
X1322000Y1061864D01*
X1321250Y1062409*
X1326500*
X1321250Y1065136D02*
X1321500Y1064591D01*
X1322250Y1064227*
X1323500Y1064045*
X1324250*
X1325500Y1064227*
X1326250Y1064591*
X1326500Y1065136*
Y1065500*
X1326250Y1066045*
X1325500Y1066409*
X1324250Y1066591*
X1323500*
X1322250Y1066409*
X1321500Y1066045*
X1321250Y1065500*
Y1065136*
X1323000Y1070591D02*
X1323750Y1070409D01*
X1324250Y1070045*
X1324500Y1069500*
Y1069318*
X1324250Y1068773*
X1323750Y1068409*
X1323000Y1068227*
X1322750*
X1322000Y1068409*
X1321500Y1068773*
X1321250Y1069318*
Y1069500*
X1321500Y1070045*
X1322000Y1070409*
X1323000Y1070591*
X1324250*
X1325500Y1070409*
X1326250Y1070045*
X1326500Y1069500*
Y1069136*
X1326250Y1068591*
X1325750Y1068409*
X1312250Y1061500D02*
X1312000Y1061864D01*
X1311250Y1062409*
X1316500*
X1311250Y1065136D02*
X1311500Y1064591D01*
X1312250Y1064227*
X1313500Y1064045*
X1314250*
X1315500Y1064227*
X1316250Y1064591*
X1316500Y1065136*
Y1065500*
X1316250Y1066045*
X1315500Y1066409*
X1314250Y1066591*
X1313500*
X1312250Y1066409*
X1311500Y1066045*
X1311250Y1065500*
Y1065136*
Y1070773D02*
X1316500Y1068955D01*
X1311250Y1068227D02*
Y1070773D01*
X1302250Y1061500D02*
X1302000Y1061864D01*
X1301250Y1062409*
X1306500*
X1301250Y1065136D02*
X1301500Y1064591D01*
X1302250Y1064227*
X1303500Y1064045*
X1304250*
X1305500Y1064227*
X1306250Y1064591*
X1306500Y1065136*
Y1065500*
X1306250Y1066045*
X1305500Y1066409*
X1304250Y1066591*
X1303500*
X1302250Y1066409*
X1301500Y1066045*
X1301250Y1065500*
Y1065136*
Y1070591D02*
Y1068773D01*
X1303500Y1068591*
X1303250Y1068773*
X1303000Y1069318*
Y1069864*
X1303250Y1070409*
X1303750Y1070773*
X1304500Y1070955*
X1305000Y1070773*
X1305750Y1070591*
X1306250Y1070227*
X1306500Y1069682*
Y1069136*
X1306250Y1068591*
X1306000Y1068409*
X1305500Y1068227*
X1292250Y1061500D02*
X1292000Y1061864D01*
X1291250Y1062409*
X1296500*
X1291250Y1065136D02*
X1291500Y1064591D01*
X1292250Y1064227*
X1293500Y1064045*
X1294250*
X1295500Y1064227*
X1296250Y1064591*
X1296500Y1065136*
Y1065500*
X1296250Y1066045*
X1295500Y1066409*
X1294250Y1066591*
X1293500*
X1292250Y1066409*
X1291500Y1066045*
X1291250Y1065500*
Y1065136*
Y1068591D02*
Y1070591D01*
X1293250Y1069500*
Y1070045*
X1293500Y1070409*
X1293750Y1070591*
X1294500Y1070773*
X1295000*
X1295750Y1070591*
X1296250Y1070227*
X1296500Y1069682*
Y1069136*
X1296250Y1068591*
X1296000Y1068409*
X1295500Y1068227*
X1282250Y1061500D02*
X1282000Y1061864D01*
X1281250Y1062409*
X1286500*
X1281250Y1065136D02*
X1281500Y1064591D01*
X1282250Y1064227*
X1283500Y1064045*
X1284250*
X1285500Y1064227*
X1286250Y1064591*
X1286500Y1065136*
Y1065500*
X1286250Y1066045*
X1285500Y1066409*
X1284250Y1066591*
X1283500*
X1282250Y1066409*
X1281500Y1066045*
X1281250Y1065500*
Y1065136*
X1282250Y1068227D02*
X1282000Y1068591D01*
X1281250Y1069136*
X1286500*
X1273000Y1063864D02*
X1273750Y1063682D01*
X1274250Y1063318*
X1274500Y1062773*
Y1062591*
X1274250Y1062045*
X1273750Y1061682*
X1273000Y1061500*
X1272750*
X1272000Y1061682*
X1271500Y1062045*
X1271250Y1062591*
Y1062773*
X1271500Y1063318*
X1272000Y1063682*
X1273000Y1063864*
X1274250*
X1275500Y1063682*
X1276250Y1063318*
X1276500Y1062773*
Y1062409*
X1276250Y1061864*
X1275750Y1061682*
X1273000Y1067864D02*
X1273750Y1067682D01*
X1274250Y1067318*
X1274500Y1066773*
Y1066591*
X1274250Y1066045*
X1273750Y1065682*
X1273000Y1065500*
X1272750*
X1272000Y1065682*
X1271500Y1066045*
X1271250Y1066591*
Y1066773*
X1271500Y1067318*
X1272000Y1067682*
X1273000Y1067864*
X1274250*
X1275500Y1067682*
X1276250Y1067318*
X1276500Y1066773*
Y1066409*
X1276250Y1065864*
X1275750Y1065682*
X1263000Y1063864D02*
X1263750Y1063682D01*
X1264250Y1063318*
X1264500Y1062773*
Y1062591*
X1264250Y1062045*
X1263750Y1061682*
X1263000Y1061500*
X1262750*
X1262000Y1061682*
X1261500Y1062045*
X1261250Y1062591*
Y1062773*
X1261500Y1063318*
X1262000Y1063682*
X1263000Y1063864*
X1264250*
X1265500Y1063682*
X1266250Y1063318*
X1266500Y1062773*
Y1062409*
X1266250Y1061864*
X1265750Y1061682*
X1261250Y1067864D02*
Y1066045D01*
X1263500Y1065864*
X1263250Y1066045*
X1263000Y1066591*
Y1067136*
X1263250Y1067682*
X1263750Y1068045*
X1264500Y1068227*
X1265000Y1068045*
X1265750Y1067864*
X1266250Y1067500*
X1266500Y1066955*
Y1066409*
X1266250Y1065864*
X1266000Y1065682*
X1265500Y1065500*
X1243000Y1063864D02*
X1243750Y1063682D01*
X1244250Y1063318*
X1244500Y1062773*
Y1062591*
X1244250Y1062045*
X1243750Y1061682*
X1243000Y1061500*
X1242750*
X1242000Y1061682*
X1241500Y1062045*
X1241250Y1062591*
Y1062773*
X1241500Y1063318*
X1242000Y1063682*
X1243000Y1063864*
X1244250*
X1245500Y1063682*
X1246250Y1063318*
X1246500Y1062773*
Y1062409*
X1246250Y1061864*
X1245750Y1061682*
X1242250Y1065500D02*
X1242000Y1065864D01*
X1241250Y1066409*
X1246500*
X1231250Y1062409D02*
X1231500Y1061864D01*
X1232000Y1061682*
X1232500*
X1233000Y1061864*
X1233250Y1062227*
X1233500Y1062955*
X1233750Y1063500*
X1234250Y1063864*
X1234750Y1064045*
X1235500*
X1236000Y1063864*
X1236250Y1063682*
X1236500Y1063136*
Y1062409*
X1236250Y1061864*
X1236000Y1061682*
X1235500Y1061500*
X1234750*
X1234250Y1061682*
X1233750Y1062045*
X1233500Y1062591*
X1233250Y1063318*
X1233000Y1063682*
X1232500Y1063864*
X1232000*
X1231500Y1063682*
X1231250Y1063136*
Y1062409*
X1233000Y1068045D02*
X1233750Y1067864D01*
X1234250Y1067500*
X1234500Y1066955*
Y1066773*
X1234250Y1066227*
X1233750Y1065864*
X1233000Y1065682*
X1232750*
X1232000Y1065864*
X1231500Y1066227*
X1231250Y1066773*
Y1066955*
X1231500Y1067500*
X1232000Y1067864*
X1233000Y1068045*
X1234250*
X1235500Y1067864*
X1236250Y1067500*
X1236500Y1066955*
Y1066591*
X1236250Y1066045*
X1235750Y1065864*
X1221250Y1062409D02*
X1221500Y1061864D01*
X1222000Y1061682*
X1222500*
X1223000Y1061864*
X1223250Y1062227*
X1223500Y1062955*
X1223750Y1063500*
X1224250Y1063864*
X1224750Y1064045*
X1225500*
X1226000Y1063864*
X1226250Y1063682*
X1226500Y1063136*
Y1062409*
X1226250Y1061864*
X1226000Y1061682*
X1225500Y1061500*
X1224750*
X1224250Y1061682*
X1223750Y1062045*
X1223500Y1062591*
X1223250Y1063318*
X1223000Y1063682*
X1222500Y1063864*
X1222000*
X1221500Y1063682*
X1221250Y1063136*
Y1062409*
Y1068227D02*
X1226500Y1066409D01*
X1221250Y1065682D02*
Y1068227D01*
X1211250Y1062409D02*
X1211500Y1061864D01*
X1212000Y1061682*
X1212500*
X1213000Y1061864*
X1213250Y1062227*
X1213500Y1062955*
X1213750Y1063500*
X1214250Y1063864*
X1214750Y1064045*
X1215500*
X1216000Y1063864*
X1216250Y1063682*
X1216500Y1063136*
Y1062409*
X1216250Y1061864*
X1216000Y1061682*
X1215500Y1061500*
X1214750*
X1214250Y1061682*
X1213750Y1062045*
X1213500Y1062591*
X1213250Y1063318*
X1213000Y1063682*
X1212500Y1063864*
X1212000*
X1211500Y1063682*
X1211250Y1063136*
Y1062409*
Y1068045D02*
Y1066227D01*
X1213500Y1066045*
X1213250Y1066227*
X1213000Y1066773*
Y1067318*
X1213250Y1067864*
X1213750Y1068227*
X1214500Y1068409*
X1215000Y1068227*
X1215750Y1068045*
X1216250Y1067682*
X1216500Y1067136*
Y1066591*
X1216250Y1066045*
X1216000Y1065864*
X1215500Y1065682*
X1201250Y1062409D02*
X1201500Y1061864D01*
X1202000Y1061682*
X1202500*
X1203000Y1061864*
X1203250Y1062227*
X1203500Y1062955*
X1203750Y1063500*
X1204250Y1063864*
X1204750Y1064045*
X1205500*
X1206000Y1063864*
X1206250Y1063682*
X1206500Y1063136*
Y1062409*
X1206250Y1061864*
X1206000Y1061682*
X1205500Y1061500*
X1204750*
X1204250Y1061682*
X1203750Y1062045*
X1203500Y1062591*
X1203250Y1063318*
X1203000Y1063682*
X1202500Y1063864*
X1202000*
X1201500Y1063682*
X1201250Y1063136*
Y1062409*
X1202250Y1065682D02*
X1202000Y1066045D01*
X1201250Y1066591*
X1206500*
X1191250Y1064045D02*
X1196500Y1062227D01*
X1191250Y1061500D02*
Y1064045D01*
X1193000Y1068045D02*
X1193750Y1067864D01*
X1194250Y1067500*
X1194500Y1066955*
Y1066773*
X1194250Y1066227*
X1193750Y1065864*
X1193000Y1065682*
X1192750*
X1192000Y1065864*
X1191500Y1066227*
X1191250Y1066773*
Y1066955*
X1191500Y1067500*
X1192000Y1067864*
X1193000Y1068045*
X1194250*
X1195500Y1067864*
X1196250Y1067500*
X1196500Y1066955*
Y1066591*
X1196250Y1066045*
X1195750Y1065864*
X1181250Y1064045D02*
X1186500Y1062227D01*
X1181250Y1061500D02*
Y1064045D01*
Y1068227D02*
X1186500Y1066409D01*
X1181250Y1065682D02*
Y1068227D01*
X1171250Y1064045D02*
X1176500Y1062227D01*
X1171250Y1061500D02*
Y1064045D01*
Y1068045D02*
Y1066227D01*
X1173500Y1066045*
X1173250Y1066227*
X1173000Y1066773*
Y1067318*
X1173250Y1067864*
X1173750Y1068227*
X1174500Y1068409*
X1175000Y1068227*
X1175750Y1068045*
X1176250Y1067682*
X1176500Y1067136*
Y1066591*
X1176250Y1066045*
X1176000Y1065864*
X1175500Y1065682*
X1161250Y1064045D02*
X1166500Y1062227D01*
X1161250Y1061500D02*
Y1064045D01*
Y1066045D02*
Y1068045D01*
X1163250Y1066955*
Y1067500*
X1163500Y1067864*
X1163750Y1068045*
X1164500Y1068227*
X1165000*
X1165750Y1068045*
X1166250Y1067682*
X1166500Y1067136*
Y1066591*
X1166250Y1066045*
X1166000Y1065864*
X1165500Y1065682*
X1142000Y1063682D02*
X1141500Y1063500D01*
X1141250Y1062955*
Y1062591*
X1141500Y1062045*
X1142250Y1061682*
X1143500Y1061500*
X1144750*
X1145750Y1061682*
X1146250Y1062045*
X1146500Y1062591*
Y1062773*
X1146250Y1063318*
X1145750Y1063682*
X1145000Y1063864*
X1144750*
X1144000Y1063682*
X1143500Y1063318*
X1143250Y1062773*
Y1062591*
X1143500Y1062045*
X1144000Y1061682*
X1144750Y1061500*
X1143000Y1067864D02*
X1143750Y1067682D01*
X1144250Y1067318*
X1144500Y1066773*
Y1066591*
X1144250Y1066045*
X1143750Y1065682*
X1143000Y1065500*
X1142750*
X1142000Y1065682*
X1141500Y1066045*
X1141250Y1066591*
Y1066773*
X1141500Y1067318*
X1142000Y1067682*
X1143000Y1067864*
X1144250*
X1145500Y1067682*
X1146250Y1067318*
X1146500Y1066773*
Y1066409*
X1146250Y1065864*
X1145750Y1065682*
X1132000Y1063682D02*
X1131500Y1063500D01*
X1131250Y1062955*
Y1062591*
X1131500Y1062045*
X1132250Y1061682*
X1133500Y1061500*
X1134750*
X1135750Y1061682*
X1136250Y1062045*
X1136500Y1062591*
Y1062773*
X1136250Y1063318*
X1135750Y1063682*
X1135000Y1063864*
X1134750*
X1134000Y1063682*
X1133500Y1063318*
X1133250Y1062773*
Y1062591*
X1133500Y1062045*
X1134000Y1061682*
X1134750Y1061500*
X1131250Y1068045D02*
X1136500Y1066227D01*
X1131250Y1065500D02*
Y1068045D01*
X1122000Y1063682D02*
X1121500Y1063500D01*
X1121250Y1062955*
Y1062591*
X1121500Y1062045*
X1122250Y1061682*
X1123500Y1061500*
X1124750*
X1125750Y1061682*
X1126250Y1062045*
X1126500Y1062591*
Y1062773*
X1126250Y1063318*
X1125750Y1063682*
X1125000Y1063864*
X1124750*
X1124000Y1063682*
X1123500Y1063318*
X1123250Y1062773*
Y1062591*
X1123500Y1062045*
X1124000Y1061682*
X1124750Y1061500*
X1121250Y1065864D02*
Y1067864D01*
X1123250Y1066773*
Y1067318*
X1123500Y1067682*
X1123750Y1067864*
X1124500Y1068045*
X1125000*
X1125750Y1067864*
X1126250Y1067500*
X1126500Y1066955*
Y1066409*
X1126250Y1065864*
X1126000Y1065682*
X1125500Y1065500*
X1112000Y1063682D02*
X1111500Y1063500D01*
X1111250Y1062955*
Y1062591*
X1111500Y1062045*
X1112250Y1061682*
X1113500Y1061500*
X1114750*
X1115750Y1061682*
X1116250Y1062045*
X1116500Y1062591*
Y1062773*
X1116250Y1063318*
X1115750Y1063682*
X1115000Y1063864*
X1114750*
X1114000Y1063682*
X1113500Y1063318*
X1113250Y1062773*
Y1062591*
X1113500Y1062045*
X1114000Y1061682*
X1114750Y1061500*
X1112250Y1065500D02*
X1112000Y1065864D01*
X1111250Y1066409*
X1116500*
X1101250Y1063864D02*
Y1062045D01*
X1103500Y1061864*
X1103250Y1062045*
X1103000Y1062591*
Y1063136*
X1103250Y1063682*
X1103750Y1064045*
X1104500Y1064227*
X1105000Y1064045*
X1105750Y1063864*
X1106250Y1063500*
X1106500Y1062955*
Y1062409*
X1106250Y1061864*
X1106000Y1061682*
X1105500Y1061500*
X1103000Y1068227D02*
X1103750Y1068045D01*
X1104250Y1067682*
X1104500Y1067136*
Y1066955*
X1104250Y1066409*
X1103750Y1066045*
X1103000Y1065864*
X1102750*
X1102000Y1066045*
X1101500Y1066409*
X1101250Y1066955*
Y1067136*
X1101500Y1067682*
X1102000Y1068045*
X1103000Y1068227*
X1104250*
X1105500Y1068045*
X1106250Y1067682*
X1106500Y1067136*
Y1066773*
X1106250Y1066227*
X1105750Y1066045*
X1091250Y1063864D02*
Y1062045D01*
X1093500Y1061864*
X1093250Y1062045*
X1093000Y1062591*
Y1063136*
X1093250Y1063682*
X1093750Y1064045*
X1094500Y1064227*
X1095000Y1064045*
X1095750Y1063864*
X1096250Y1063500*
X1096500Y1062955*
Y1062409*
X1096250Y1061864*
X1096000Y1061682*
X1095500Y1061500*
X1091250Y1068409D02*
X1096500Y1066591D01*
X1091250Y1065864D02*
Y1068409D01*
X1081250Y1063864D02*
Y1062045D01*
X1083500Y1061864*
X1083250Y1062045*
X1083000Y1062591*
Y1063136*
X1083250Y1063682*
X1083750Y1064045*
X1084500Y1064227*
X1085000Y1064045*
X1085750Y1063864*
X1086250Y1063500*
X1086500Y1062955*
Y1062409*
X1086250Y1061864*
X1086000Y1061682*
X1085500Y1061500*
X1081250Y1068227D02*
Y1066409D01*
X1083500Y1066227*
X1083250Y1066409*
X1083000Y1066955*
Y1067500*
X1083250Y1068045*
X1083750Y1068409*
X1084500Y1068591*
X1085000Y1068409*
X1085750Y1068227*
X1086250Y1067864*
X1086500Y1067318*
Y1066773*
X1086250Y1066227*
X1086000Y1066045*
X1085500Y1065864*
X1071250Y1063864D02*
Y1062045D01*
X1073500Y1061864*
X1073250Y1062045*
X1073000Y1062591*
Y1063136*
X1073250Y1063682*
X1073750Y1064045*
X1074500Y1064227*
X1075000Y1064045*
X1075750Y1063864*
X1076250Y1063500*
X1076500Y1062955*
Y1062409*
X1076250Y1061864*
X1076000Y1061682*
X1075500Y1061500*
X1071250Y1066227D02*
Y1068227D01*
X1073250Y1067136*
Y1067682*
X1073500Y1068045*
X1073750Y1068227*
X1074500Y1068409*
X1075000*
X1075750Y1068227*
X1076250Y1067864*
X1076500Y1067318*
Y1066773*
X1076250Y1066227*
X1076000Y1066045*
X1075500Y1065864*
X1061250Y1063864D02*
Y1062045D01*
X1063500Y1061864*
X1063250Y1062045*
X1063000Y1062591*
Y1063136*
X1063250Y1063682*
X1063750Y1064045*
X1064500Y1064227*
X1065000Y1064045*
X1065750Y1063864*
X1066250Y1063500*
X1066500Y1062955*
Y1062409*
X1066250Y1061864*
X1066000Y1061682*
X1065500Y1061500*
X1062250Y1065864D02*
X1062000Y1066227D01*
X1061250Y1066773*
X1066500*
X1632250Y1061500D02*
X1632000Y1061864D01*
X1631250Y1062409*
X1636500*
X1631250Y1066591D02*
X1636500Y1064773D01*
X1631250Y1064045D02*
Y1066591D01*
Y1070591D02*
Y1068773D01*
X1633500Y1068591*
X1633250Y1068773*
X1633000Y1069318*
Y1069864*
X1633250Y1070409*
X1633750Y1070773*
X1634500Y1070955*
X1635000Y1070773*
X1635750Y1070591*
X1636250Y1070227*
X1636500Y1069682*
Y1069136*
X1636250Y1068591*
X1636000Y1068409*
X1635500Y1068227*
X1562250Y1061500D02*
X1562000Y1061864D01*
X1561250Y1062409*
X1566500*
X1562000Y1066227D02*
X1561500Y1066045D01*
X1561250Y1065500*
Y1065136*
X1561500Y1064591*
X1562250Y1064227*
X1563500Y1064045*
X1564750*
X1565750Y1064227*
X1566250Y1064591*
X1566500Y1065136*
Y1065318*
X1566250Y1065864*
X1565750Y1066227*
X1565000Y1066409*
X1564750*
X1564000Y1066227*
X1563500Y1065864*
X1563250Y1065318*
Y1065136*
X1563500Y1064591*
X1564000Y1064227*
X1564750Y1064045*
X1562250Y1068045D02*
X1562000Y1068409D01*
X1561250Y1068955*
X1566500*
X1462250Y1061500D02*
X1462000Y1061864D01*
X1461250Y1062409*
X1466500*
X1461250Y1064409D02*
Y1066409D01*
X1463250Y1065318*
Y1065864*
X1463500Y1066227*
X1463750Y1066409*
X1464500Y1066591*
X1465000*
X1465750Y1066409*
X1466250Y1066045*
X1466500Y1065500*
Y1064955*
X1466250Y1064409*
X1466000Y1064227*
X1465500Y1064045*
X1463000Y1070591D02*
X1463750Y1070409D01*
X1464250Y1070045*
X1464500Y1069500*
Y1069318*
X1464250Y1068773*
X1463750Y1068409*
X1463000Y1068227*
X1462750*
X1462000Y1068409*
X1461500Y1068773*
X1461250Y1069318*
Y1069500*
X1461500Y1070045*
X1462000Y1070409*
X1463000Y1070591*
X1464250*
X1465500Y1070409*
X1466250Y1070045*
X1466500Y1069500*
Y1069136*
X1466250Y1068591*
X1465750Y1068409*
X1352250Y1061500D02*
X1352000Y1061864D01*
X1351250Y1062409*
X1356500*
X1352250Y1064045D02*
X1352000Y1064409D01*
X1351250Y1064955*
X1356500*
X1351250Y1069136D02*
X1356500Y1067318D01*
X1351250Y1066591D02*
Y1069136D01*
X1253000Y1063864D02*
X1253750Y1063682D01*
X1254250Y1063318*
X1254500Y1062773*
Y1062591*
X1254250Y1062045*
X1253750Y1061682*
X1253000Y1061500*
X1252750*
X1252000Y1061682*
X1251500Y1062045*
X1251250Y1062591*
Y1062773*
X1251500Y1063318*
X1252000Y1063682*
X1253000Y1063864*
X1254250*
X1255500Y1063682*
X1256250Y1063318*
X1256500Y1062773*
Y1062409*
X1256250Y1061864*
X1255750Y1061682*
X1251250Y1065864D02*
Y1067864D01*
X1253250Y1066773*
Y1067318*
X1253500Y1067682*
X1253750Y1067864*
X1254500Y1068045*
X1255000*
X1255750Y1067864*
X1256250Y1067500*
X1256500Y1066955*
Y1066409*
X1256250Y1065864*
X1256000Y1065682*
X1255500Y1065500*
X1151250Y1064045D02*
X1156500Y1062227D01*
X1151250Y1061500D02*
Y1064045D01*
X1152250Y1065682D02*
X1152000Y1066045D01*
X1151250Y1066591*
X1156500*
X1051250Y1063318D02*
X1054750Y1061500D01*
Y1064227*
X1051250Y1063318D02*
X1056500D01*
X1053000Y1068227D02*
X1053750Y1068045D01*
X1054250Y1067682*
X1054500Y1067136*
Y1066955*
X1054250Y1066409*
X1053750Y1066045*
X1053000Y1065864*
X1052750*
X1052000Y1066045*
X1051500Y1066409*
X1051250Y1066955*
Y1067136*
X1051500Y1067682*
X1052000Y1068045*
X1053000Y1068227*
X1054250*
X1055500Y1068045*
X1056250Y1067682*
X1056500Y1067136*
Y1066773*
X1056250Y1066227*
X1055750Y1066045*
X1642250Y1061500D02*
X1642000Y1061864D01*
X1641250Y1062409*
X1646500*
X1641250Y1066591D02*
X1646500Y1064773D01*
X1641250Y1064045D02*
Y1066591D01*
Y1070773D02*
X1646500Y1068955D01*
X1641250Y1068227D02*
Y1070773D01*
X1211250Y1088318D02*
X1214750Y1086500D01*
Y1089227*
X1211250Y1088318D02*
X1216500D01*
X1211250Y1093227D02*
Y1091409D01*
X1213500Y1091227*
X1213250Y1091409*
X1213000Y1091955*
Y1092500*
X1213250Y1093045*
X1213750Y1093409*
X1214500Y1093591*
X1215000Y1093409*
X1215750Y1093227*
X1216250Y1092864*
X1216500Y1092318*
Y1091773*
X1216250Y1091227*
X1216000Y1091045*
X1215500Y1090864*
X1201250Y1088318D02*
X1204750Y1086500D01*
Y1089227*
X1201250Y1088318D02*
X1206500D01*
X1201250Y1091227D02*
Y1093227D01*
X1203250Y1092136*
Y1092682*
X1203500Y1093045*
X1203750Y1093227*
X1204500Y1093409*
X1205000*
X1205750Y1093227*
X1206250Y1092864*
X1206500Y1092318*
Y1091773*
X1206250Y1091227*
X1206000Y1091045*
X1205500Y1090864*
X1191250Y1088318D02*
X1194750Y1086500D01*
Y1089227*
X1191250Y1088318D02*
X1196500D01*
X1192250Y1090864D02*
X1192000Y1091227D01*
X1191250Y1091773*
X1196500*
X1181250Y1086864D02*
Y1088864D01*
X1183250Y1087773*
Y1088318*
X1183500Y1088682*
X1183750Y1088864*
X1184500Y1089045*
X1185000*
X1185750Y1088864*
X1186250Y1088500*
X1186500Y1087955*
Y1087409*
X1186250Y1086864*
X1186000Y1086682*
X1185500Y1086500*
X1183000Y1093045D02*
X1183750Y1092864D01*
X1184250Y1092500*
X1184500Y1091955*
Y1091773*
X1184250Y1091227*
X1183750Y1090864*
X1183000Y1090682*
X1182750*
X1182000Y1090864*
X1181500Y1091227*
X1181250Y1091773*
Y1091955*
X1181500Y1092500*
X1182000Y1092864*
X1183000Y1093045*
X1184250*
X1185500Y1092864*
X1186250Y1092500*
X1186500Y1091955*
Y1091591*
X1186250Y1091045*
X1185750Y1090864*
X1171250Y1086864D02*
Y1088864D01*
X1173250Y1087773*
Y1088318*
X1173500Y1088682*
X1173750Y1088864*
X1174500Y1089045*
X1175000*
X1175750Y1088864*
X1176250Y1088500*
X1176500Y1087955*
Y1087409*
X1176250Y1086864*
X1176000Y1086682*
X1175500Y1086500*
X1171250Y1093227D02*
X1176500Y1091409D01*
X1171250Y1090682D02*
Y1093227D01*
X1161250Y1086864D02*
Y1088864D01*
X1163250Y1087773*
Y1088318*
X1163500Y1088682*
X1163750Y1088864*
X1164500Y1089045*
X1165000*
X1165750Y1088864*
X1166250Y1088500*
X1166500Y1087955*
Y1087409*
X1166250Y1086864*
X1166000Y1086682*
X1165500Y1086500*
X1161250Y1091045D02*
Y1093045D01*
X1163250Y1091955*
Y1092500*
X1163500Y1092864*
X1163750Y1093045*
X1164500Y1093227*
X1165000*
X1165750Y1093045*
X1166250Y1092682*
X1166500Y1092136*
Y1091591*
X1166250Y1091045*
X1166000Y1090864*
X1165500Y1090682*
X1142500Y1086682D02*
X1142250D01*
X1141750Y1086864*
X1141500Y1087045*
X1141250Y1087409*
Y1088136*
X1141500Y1088500*
X1141750Y1088682*
X1142250Y1088864*
X1142750*
X1143250Y1088682*
X1144000Y1088318*
X1146500Y1086500*
Y1089045*
X1143000Y1093045D02*
X1143750Y1092864D01*
X1144250Y1092500*
X1144500Y1091955*
Y1091773*
X1144250Y1091227*
X1143750Y1090864*
X1143000Y1090682*
X1142750*
X1142000Y1090864*
X1141500Y1091227*
X1141250Y1091773*
Y1091955*
X1141500Y1092500*
X1142000Y1092864*
X1143000Y1093045*
X1144250*
X1145500Y1092864*
X1146250Y1092500*
X1146500Y1091955*
Y1091591*
X1146250Y1091045*
X1145750Y1090864*
X1132500Y1086682D02*
X1132250D01*
X1131750Y1086864*
X1131500Y1087045*
X1131250Y1087409*
Y1088136*
X1131500Y1088500*
X1131750Y1088682*
X1132250Y1088864*
X1132750*
X1133250Y1088682*
X1134000Y1088318*
X1136500Y1086500*
Y1089045*
X1131250Y1093227D02*
X1136500Y1091409D01*
X1131250Y1090682D02*
Y1093227D01*
X1122500Y1086682D02*
X1122250D01*
X1121750Y1086864*
X1121500Y1087045*
X1121250Y1087409*
Y1088136*
X1121500Y1088500*
X1121750Y1088682*
X1122250Y1088864*
X1122750*
X1123250Y1088682*
X1124000Y1088318*
X1126500Y1086500*
Y1089045*
X1121250Y1093045D02*
Y1091227D01*
X1123500Y1091045*
X1123250Y1091227*
X1123000Y1091773*
Y1092318*
X1123250Y1092864*
X1123750Y1093227*
X1124500Y1093409*
X1125000Y1093227*
X1125750Y1093045*
X1126250Y1092682*
X1126500Y1092136*
Y1091591*
X1126250Y1091045*
X1126000Y1090864*
X1125500Y1090682*
X1112500Y1086682D02*
X1112250D01*
X1111750Y1086864*
X1111500Y1087045*
X1111250Y1087409*
Y1088136*
X1111500Y1088500*
X1111750Y1088682*
X1112250Y1088864*
X1112750*
X1113250Y1088682*
X1114000Y1088318*
X1116500Y1086500*
Y1089045*
X1111250Y1091045D02*
Y1093045D01*
X1113250Y1091955*
Y1092500*
X1113500Y1092864*
X1113750Y1093045*
X1114500Y1093227*
X1115000*
X1115750Y1093045*
X1116250Y1092682*
X1116500Y1092136*
Y1091591*
X1116250Y1091045*
X1116000Y1090864*
X1115500Y1090682*
X1102500Y1086682D02*
X1102250D01*
X1101750Y1086864*
X1101500Y1087045*
X1101250Y1087409*
Y1088136*
X1101500Y1088500*
X1101750Y1088682*
X1102250Y1088864*
X1102750*
X1103250Y1088682*
X1104000Y1088318*
X1106500Y1086500*
Y1089045*
X1102250Y1090682D02*
X1102000Y1091045D01*
X1101250Y1091591*
X1106500*
X1092250Y1087000D02*
X1092000Y1087364D01*
X1091250Y1087909*
X1096500*
X1091250Y1092091D02*
X1096500Y1090273D01*
X1091250Y1089545D02*
Y1092091D01*
X1082250Y1087000D02*
X1082000Y1087364D01*
X1081250Y1087909*
X1086500*
X1081250Y1091909D02*
Y1090091D01*
X1083500Y1089909*
X1083250Y1090091*
X1083000Y1090636*
Y1091182*
X1083250Y1091727*
X1083750Y1092091*
X1084500Y1092273*
X1085000Y1092091*
X1085750Y1091909*
X1086250Y1091545*
X1086500Y1091000*
Y1090455*
X1086250Y1089909*
X1086000Y1089727*
X1085500Y1089545*
X1072250Y1087000D02*
X1072000Y1087364D01*
X1071250Y1087909*
X1076500*
X1071250Y1089909D02*
Y1091909D01*
X1073250Y1090818*
Y1091364*
X1073500Y1091727*
X1073750Y1091909*
X1074500Y1092091*
X1075000*
X1075750Y1091909*
X1076250Y1091545*
X1076500Y1091000*
Y1090455*
X1076250Y1089909*
X1076000Y1089727*
X1075500Y1089545*
X1062250Y1087000D02*
X1062000Y1087364D01*
X1061250Y1087909*
X1066500*
X1062250Y1089545D02*
X1062000Y1089909D01*
X1061250Y1090455*
X1066500*
X1151250Y1086864D02*
Y1088864D01*
X1153250Y1087773*
Y1088318*
X1153500Y1088682*
X1153750Y1088864*
X1154500Y1089045*
X1155000*
X1155750Y1088864*
X1156250Y1088500*
X1156500Y1087955*
Y1087409*
X1156250Y1086864*
X1156000Y1086682*
X1155500Y1086500*
X1152250Y1090682D02*
X1152000Y1091045D01*
X1151250Y1091591*
X1156500*
X1051250Y1087591D02*
X1051500Y1087045D01*
X1052250Y1086682*
X1053500Y1086500*
X1054250*
X1055500Y1086682*
X1056250Y1087045*
X1056500Y1087591*
Y1087955*
X1056250Y1088500*
X1055500Y1088864*
X1054250Y1089045*
X1053500*
X1052250Y1088864*
X1051500Y1088500*
X1051250Y1087955*
Y1087591*
X1053000Y1093045D02*
X1053750Y1092864D01*
X1054250Y1092500*
X1054500Y1091955*
Y1091773*
X1054250Y1091227*
X1053750Y1090864*
X1053000Y1090682*
X1052750*
X1052000Y1090864*
X1051500Y1091227*
X1051250Y1091773*
Y1091955*
X1051500Y1092500*
X1052000Y1092864*
X1053000Y1093045*
X1054250*
X1055500Y1092864*
X1056250Y1092500*
X1056500Y1091955*
Y1091591*
X1056250Y1091045*
X1055750Y1090864*
X1052250Y1138182D02*
X1052000Y1138545D01*
X1051250Y1139091*
X1056500*
X1052500Y1140909D02*
X1052250D01*
X1051750Y1141091*
X1051500Y1141273*
X1051250Y1141636*
Y1142364*
X1051500Y1142727*
X1051750Y1142909*
X1052250Y1143091*
X1052750*
X1053250Y1142909*
X1054000Y1142545*
X1056500Y1140727*
Y1143273*
X1062250Y1138000D02*
X1062000Y1138364D01*
X1061250Y1138909*
X1066500*
X1061250Y1142364D02*
X1064750Y1140545D01*
Y1143273*
X1061250Y1142364D02*
X1066500D01*
X1072250Y1138364D02*
X1072000Y1138727D01*
X1071250Y1139273*
X1076500*
X1072000Y1143091D02*
X1071500Y1142909D01*
X1071250Y1142364*
Y1142000*
X1071500Y1141455*
X1072250Y1141091*
X1073500Y1140909*
X1074750*
X1075750Y1141091*
X1076250Y1141455*
X1076500Y1142000*
Y1142182*
X1076250Y1142727*
X1075750Y1143091*
X1075000Y1143273*
X1074750*
X1074000Y1143091*
X1073500Y1142727*
X1073250Y1142182*
Y1142000*
X1073500Y1141455*
X1074000Y1141091*
X1074750Y1140909*
X1082250Y1138182D02*
X1082000Y1138545D01*
X1081250Y1139091*
X1086500*
X1081250Y1141636D02*
X1081500Y1141091D01*
X1082000Y1140909*
X1082500*
X1083000Y1141091*
X1083250Y1141455*
X1083500Y1142182*
X1083750Y1142727*
X1084250Y1143091*
X1084750Y1143273*
X1085500*
X1086000Y1143091*
X1086250Y1142909*
X1086500Y1142364*
Y1141636*
X1086250Y1141091*
X1086000Y1140909*
X1085500Y1140727*
X1084750*
X1084250Y1140909*
X1083750Y1141273*
X1083500Y1141818*
X1083250Y1142545*
X1083000Y1142909*
X1082500Y1143091*
X1082000*
X1081500Y1142909*
X1081250Y1142364*
Y1141636*
X1092500Y1136727D02*
X1092250D01*
X1091750Y1136909*
X1091500Y1137091*
X1091250Y1137455*
Y1138182*
X1091500Y1138545*
X1091750Y1138727*
X1092250Y1138909*
X1092750*
X1093250Y1138727*
X1094000Y1138364*
X1096500Y1136545*
Y1139091*
X1091250Y1141818D02*
X1091500Y1141273D01*
X1092250Y1140909*
X1093500Y1140727*
X1094250*
X1095500Y1140909*
X1096250Y1141273*
X1096500Y1141818*
Y1142182*
X1096250Y1142727*
X1095500Y1143091*
X1094250Y1143273*
X1093500*
X1092250Y1143091*
X1091500Y1142727*
X1091250Y1142182*
Y1141818*
X1102500Y1136545D02*
X1102250D01*
X1101750Y1136727*
X1101500Y1136909*
X1101250Y1137273*
Y1138000*
X1101500Y1138364*
X1101750Y1138545*
X1102250Y1138727*
X1102750*
X1103250Y1138545*
X1104000Y1138182*
X1106500Y1136364*
Y1138909*
X1101250Y1142364D02*
X1104750Y1140545D01*
Y1143273*
X1101250Y1142364D02*
X1106500D01*
X1112500Y1136909D02*
X1112250D01*
X1111750Y1137091*
X1111500Y1137273*
X1111250Y1137636*
Y1138364*
X1111500Y1138727*
X1111750Y1138909*
X1112250Y1139091*
X1112750*
X1113250Y1138909*
X1114000Y1138545*
X1116500Y1136727*
Y1139273*
X1112000Y1143091D02*
X1111500Y1142909D01*
X1111250Y1142364*
Y1142000*
X1111500Y1141455*
X1112250Y1141091*
X1113500Y1140909*
X1114750*
X1115750Y1141091*
X1116250Y1141455*
X1116500Y1142000*
Y1142182*
X1116250Y1142727*
X1115750Y1143091*
X1115000Y1143273*
X1114750*
X1114000Y1143091*
X1113500Y1142727*
X1113250Y1142182*
Y1142000*
X1113500Y1141455*
X1114000Y1141091*
X1114750Y1140909*
X1122500Y1136727D02*
X1122250D01*
X1121750Y1136909*
X1121500Y1137091*
X1121250Y1137455*
Y1138182*
X1121500Y1138545*
X1121750Y1138727*
X1122250Y1138909*
X1122750*
X1123250Y1138727*
X1124000Y1138364*
X1126500Y1136545*
Y1139091*
X1121250Y1141636D02*
X1121500Y1141091D01*
X1122000Y1140909*
X1122500*
X1123000Y1141091*
X1123250Y1141455*
X1123500Y1142182*
X1123750Y1142727*
X1124250Y1143091*
X1124750Y1143273*
X1125500*
X1126000Y1143091*
X1126250Y1142909*
X1126500Y1142364*
Y1141636*
X1126250Y1141091*
X1126000Y1140909*
X1125500Y1140727*
X1124750*
X1124250Y1140909*
X1123750Y1141273*
X1123500Y1141818*
X1123250Y1142545*
X1123000Y1142909*
X1122500Y1143091*
X1122000*
X1121500Y1142909*
X1121250Y1142364*
Y1141636*
X1131250Y1136909D02*
Y1138909D01*
X1133250Y1137818*
Y1138364*
X1133500Y1138727*
X1133750Y1138909*
X1134500Y1139091*
X1135000*
X1135750Y1138909*
X1136250Y1138545*
X1136500Y1138000*
Y1137455*
X1136250Y1136909*
X1136000Y1136727*
X1135500Y1136545*
X1131250Y1141818D02*
X1131500Y1141273D01*
X1132250Y1140909*
X1133500Y1140727*
X1134250*
X1135500Y1140909*
X1136250Y1141273*
X1136500Y1141818*
Y1142182*
X1136250Y1142727*
X1135500Y1143091*
X1134250Y1143273*
X1133500*
X1132250Y1143091*
X1131500Y1142727*
X1131250Y1142182*
Y1141818*
X1141250Y1136909D02*
Y1138909D01*
X1143250Y1137818*
Y1138364*
X1143500Y1138727*
X1143750Y1138909*
X1144500Y1139091*
X1145000*
X1145750Y1138909*
X1146250Y1138545*
X1146500Y1138000*
Y1137455*
X1146250Y1136909*
X1146000Y1136727*
X1145500Y1136545*
X1142500Y1140909D02*
X1142250D01*
X1141750Y1141091*
X1141500Y1141273*
X1141250Y1141636*
Y1142364*
X1141500Y1142727*
X1141750Y1142909*
X1142250Y1143091*
X1142750*
X1143250Y1142909*
X1144000Y1142545*
X1146500Y1140727*
Y1143273*
X1151250Y1136227D02*
Y1138227D01*
X1153250Y1137136*
Y1137682*
X1153500Y1138045*
X1153750Y1138227*
X1154500Y1138409*
X1155000*
X1155750Y1138227*
X1156250Y1137864*
X1156500Y1137318*
Y1136773*
X1156250Y1136227*
X1156000Y1136045*
X1155500Y1135864*
X1151250Y1141864D02*
X1154750Y1140045D01*
Y1142773*
X1151250Y1141864D02*
X1156500D01*
X1161250Y1137091D02*
Y1139091D01*
X1163250Y1138000*
Y1138545*
X1163500Y1138909*
X1163750Y1139091*
X1164500Y1139273*
X1165000*
X1165750Y1139091*
X1166250Y1138727*
X1166500Y1138182*
Y1137636*
X1166250Y1137091*
X1166000Y1136909*
X1165500Y1136727*
X1162000Y1143091D02*
X1161500Y1142909D01*
X1161250Y1142364*
Y1142000*
X1161500Y1141455*
X1162250Y1141091*
X1163500Y1140909*
X1164750*
X1165750Y1141091*
X1166250Y1141455*
X1166500Y1142000*
Y1142182*
X1166250Y1142727*
X1165750Y1143091*
X1165000Y1143273*
X1164750*
X1164000Y1143091*
X1163500Y1142727*
X1163250Y1142182*
Y1142000*
X1163500Y1141455*
X1164000Y1141091*
X1164750Y1140909*
X1171250Y1138182D02*
X1174750Y1136364D01*
Y1139091*
X1171250Y1138182D02*
X1176500D01*
X1171250Y1141818D02*
X1171500Y1141273D01*
X1172250Y1140909*
X1173500Y1140727*
X1174250*
X1175500Y1140909*
X1176250Y1141273*
X1176500Y1141818*
Y1142182*
X1176250Y1142727*
X1175500Y1143091*
X1174250Y1143273*
X1173500*
X1172250Y1143091*
X1171500Y1142727*
X1171250Y1142182*
Y1141818*
X1181250Y1138182D02*
X1184750Y1136364D01*
Y1139091*
X1181250Y1138182D02*
X1186500D01*
X1182500Y1140909D02*
X1182250D01*
X1181750Y1141091*
X1181500Y1141273*
X1181250Y1141636*
Y1142364*
X1181500Y1142727*
X1181750Y1142909*
X1182250Y1143091*
X1182750*
X1183250Y1142909*
X1184000Y1142545*
X1186500Y1140727*
Y1143273*
X1191250Y1138000D02*
X1194750Y1136182D01*
Y1138909*
X1191250Y1138000D02*
X1196500D01*
X1191250Y1142364D02*
X1194750Y1140545D01*
Y1143273*
X1191250Y1142364D02*
X1196500D01*
X1022141Y1180886D02*
X1025422D01*
X1026078Y1181045*
X1026516Y1181364*
X1026734Y1181841*
Y1182159*
X1026516Y1182636*
X1026078Y1182955*
X1025422Y1183114*
X1022141*
X1022797Y1186773D02*
X1022359Y1186455D01*
X1022141Y1185977*
Y1185341*
X1022359Y1184864*
X1022797Y1184545*
X1023234*
X1023672Y1184705*
X1023891Y1184864*
X1024109Y1185182*
X1024547Y1186136*
X1024766Y1186455*
X1024984Y1186614*
X1025422Y1186773*
X1026078*
X1026516Y1186455*
X1026734Y1185977*
Y1185341*
X1026516Y1184864*
X1026078Y1184545*
X1022141Y1188205D02*
X1026734D01*
X1022141D02*
Y1189636D01*
X1022359Y1190114*
X1022578Y1190273*
X1023016Y1190432*
X1023453*
X1023891Y1190273*
X1024109Y1190114*
X1024328Y1189636*
Y1188205D02*
Y1189636D01*
X1024547Y1190114*
X1024766Y1190273*
X1025203Y1190432*
X1025859*
X1026297Y1190273*
X1026516Y1190114*
X1026734Y1189636*
Y1188205*
X1024766Y1191864D02*
Y1194727D01*
X1022141Y1197114D02*
X1022359Y1196795D01*
X1022797Y1196477*
X1023234Y1196318*
X1023891Y1196159*
X1024984*
X1025641Y1196318*
X1026078Y1196477*
X1026516Y1196795*
X1026734Y1197114*
Y1197750*
X1026516Y1198068*
X1026078Y1198386*
X1025641Y1198545*
X1024984Y1198705*
X1023891*
X1023234Y1198545*
X1022797Y1198386*
X1022359Y1198068*
X1022141Y1197750*
Y1197114*
Y1200136D02*
X1026734D01*
X1022141D02*
X1026734Y1202364D01*
X1022141D02*
X1026734D01*
X980541Y1181045D02*
X985134D01*
X980541D02*
Y1183114D01*
X982728Y1181045D02*
Y1182318D01*
X985134Y1181045D02*
Y1183114D01*
X980541Y1184545D02*
X985134Y1186773D01*
X980541D02*
X985134Y1184545D01*
X980541Y1189318D02*
X985134D01*
X980541Y1188205D02*
Y1190432D01*
X983166Y1191864D02*
Y1194727D01*
X980541Y1197114D02*
X980759Y1196795D01*
X981197Y1196477*
X981634Y1196318*
X982291Y1196159*
X983384*
X984041Y1196318*
X984478Y1196477*
X984916Y1196795*
X985134Y1197114*
Y1197750*
X984916Y1198068*
X984478Y1198386*
X984041Y1198545*
X983384Y1198705*
X982291*
X981634Y1198545*
X981197Y1198386*
X980759Y1198068*
X980541Y1197750*
Y1197114*
Y1200136D02*
X985134D01*
X980541D02*
X985134Y1202364D01*
X980541D02*
X985134D01*
X975773Y1130859D02*
Y1126266D01*
Y1130859D02*
X977205D01*
X977682Y1130641*
X977841Y1130422*
X978000Y1129984*
Y1129328*
X977841Y1128891*
X977682Y1128672*
X977205Y1128453*
X975773*
X980386Y1130859D02*
X980068Y1130641D01*
X979750Y1130203*
X979591Y1129766*
X979432Y1129109*
Y1128016*
X979591Y1127359*
X979750Y1126922*
X980068Y1126484*
X980386Y1126266*
X981023*
X981341Y1126484*
X981659Y1126922*
X981818Y1127359*
X981977Y1128016*
Y1129109*
X981818Y1129766*
X981659Y1130203*
X981341Y1130641*
X981023Y1130859*
X980386*
X983409D02*
X984205Y1126266D01*
X985000Y1130859D02*
X984205Y1126266D01*
X985000Y1130859D02*
X985795Y1126266D01*
X986591Y1130859D02*
X985795Y1126266D01*
X988023Y1130859D02*
Y1126266D01*
Y1130859D02*
X990091D01*
X988023Y1128672D02*
X989295D01*
X988023Y1126266D02*
X990091D01*
X991523Y1130859D02*
Y1126266D01*
Y1130859D02*
X992955D01*
X993432Y1130641*
X993591Y1130422*
X993750Y1129984*
Y1129547*
X993591Y1129109*
X993432Y1128891*
X992955Y1128672*
X991523*
X992636D02*
X993750Y1126266D01*
X999795Y1130859D02*
X999477Y1130641D01*
X999159Y1130203*
X999000Y1129766*
X998841Y1129109*
Y1128016*
X999000Y1127359*
X999159Y1126922*
X999477Y1126484*
X999795Y1126266*
X1000432*
X1000750Y1126484*
X1001068Y1126922*
X1001227Y1127359*
X1001386Y1128016*
Y1129109*
X1001227Y1129766*
X1001068Y1130203*
X1000750Y1130641*
X1000432Y1130859*
X999795*
X1002818D02*
Y1126266D01*
Y1130859D02*
X1005045Y1126266D01*
Y1130859D02*
Y1126266D01*
X1006477Y1130859D02*
Y1126266D01*
X1008386*
X1009818Y1130859D02*
X1011091Y1128672D01*
Y1126266*
X1012364Y1130859D02*
X1011091Y1128672D01*
X1025797Y1210545D02*
X1029734D01*
X1027766Y1209114D02*
Y1211977D01*
X1025141Y1215477D02*
Y1213886D01*
X1027109Y1213727*
X1026891Y1213886*
X1026672Y1214364*
Y1214841*
X1026891Y1215318*
X1027328Y1215636*
X1027984Y1215795*
X1028422Y1215636*
X1029078Y1215477*
X1029516Y1215159*
X1029734Y1214682*
Y1214205*
X1029516Y1213727*
X1029297Y1213568*
X1028859Y1213409*
X1025141Y1217227D02*
X1029734Y1218500D01*
X1025141Y1219773D02*
X1029734Y1218500D01*
X1025141Y1224864D02*
X1025359Y1225023D01*
X1025141Y1225182*
X1024922Y1225023*
X1025141Y1224864*
X1026672Y1225023D02*
X1029734D01*
X1026672Y1226614D02*
X1029734D01*
X1027547D02*
X1026891Y1227091D01*
X1026672Y1227409*
Y1227886*
X1026891Y1228205*
X1027547Y1228364*
X1029734*
X1494727Y1105031D02*
X1494273Y1105656D01*
X1493818Y1105969*
X1493136*
X1492682Y1105656*
X1492227Y1105031*
X1492000Y1104094*
Y1103469*
X1492227Y1102531*
X1492682Y1101906*
X1493136Y1101594*
X1493818*
X1494273Y1101906*
X1494727Y1102531*
X1497909Y1105969D02*
X1497455Y1105656D01*
X1497000Y1105031*
X1496773Y1104094*
Y1103469*
X1497000Y1102531*
X1497455Y1101906*
X1497909Y1101594*
X1498591*
X1499045Y1101906*
X1499500Y1102531*
X1499727Y1103469*
Y1104094*
X1499500Y1105031*
X1499045Y1105656*
X1498591Y1105969*
X1497909*
X1501773D02*
Y1101594D01*
Y1104719D02*
X1502455Y1105656D01*
X1502909Y1105969*
X1503591*
X1504045Y1105656*
X1504273Y1104719*
Y1101594*
X1507000Y1108156D02*
Y1102844D01*
X1507227Y1101906*
X1507682Y1101594*
X1508136*
X1506318Y1105969D02*
X1507909D01*
X1510182D02*
Y1101594D01*
Y1104094D02*
X1510409Y1105031D01*
X1510864Y1105656*
X1511318Y1105969*
X1512000*
X1515182D02*
X1514727Y1105656D01*
X1514273Y1105031*
X1514045Y1104094*
Y1103469*
X1514273Y1102531*
X1514727Y1101906*
X1515182Y1101594*
X1515864*
X1516318Y1101906*
X1516773Y1102531*
X1517000Y1103469*
Y1104094*
X1516773Y1105031*
X1516318Y1105656*
X1515864Y1105969*
X1515182*
X1519045Y1108156D02*
Y1101594D01*
X1524500Y1106594D02*
X1524273Y1107219D01*
X1523818Y1107844*
X1523364Y1108156*
X1522455*
X1522000Y1107844*
X1521545Y1107219*
X1521318Y1106594*
X1521091Y1105656*
Y1104094*
X1521318Y1103156*
X1521545Y1102531*
X1522000Y1101906*
X1522455Y1101594*
X1523364*
X1523818Y1101906*
X1524273Y1102531*
X1524500Y1103156*
X1528364Y1108156D02*
X1526545Y1101594D01*
X1528364Y1108156D02*
X1530182Y1101594D01*
X1527227Y1103781D02*
X1529500D01*
X1532227Y1108156D02*
Y1101594D01*
Y1108156D02*
X1534273D01*
X1534955Y1107844*
X1535182Y1107531*
X1535409Y1106906*
Y1106281*
X1535182Y1105656*
X1534955Y1105344*
X1534273Y1105031*
X1532227*
X1533818D02*
X1535409Y1101594D01*
X1537455Y1108156D02*
Y1101594D01*
Y1108156D02*
X1539045D01*
X1539727Y1107844*
X1540182Y1107219*
X1540409Y1106594*
X1540636Y1105656*
Y1104094*
X1540409Y1103156*
X1540182Y1102531*
X1539727Y1101906*
X1539045Y1101594*
X1537455*
X1547909Y1108156D02*
Y1101594D01*
Y1108156D02*
X1549500D01*
X1550182Y1107844*
X1550636Y1107219*
X1550864Y1106594*
X1551091Y1105656*
Y1104094*
X1550864Y1103156*
X1550636Y1102531*
X1550182Y1101906*
X1549500Y1101594*
X1547909*
X1554273Y1105969D02*
X1553818Y1105656D01*
X1553364Y1105031*
X1553136Y1104094*
Y1103469*
X1553364Y1102531*
X1553818Y1101906*
X1554273Y1101594*
X1554955*
X1555409Y1101906*
X1555864Y1102531*
X1556091Y1103469*
Y1104094*
X1555864Y1105031*
X1555409Y1105656*
X1554955Y1105969*
X1554273*
X1560864Y1105031D02*
X1560409Y1105656D01*
X1559955Y1105969*
X1559273*
X1558818Y1105656*
X1558364Y1105031*
X1558136Y1104094*
Y1103469*
X1558364Y1102531*
X1558818Y1101906*
X1559273Y1101594*
X1559955*
X1560409Y1101906*
X1560864Y1102531*
X1562909Y1108156D02*
Y1101594D01*
X1565182Y1105969D02*
X1562909Y1102844D01*
X1563818Y1104094D02*
X1565409Y1101594D01*
X1567455Y1108156D02*
X1567682Y1107844D01*
X1567909Y1108156*
X1567682Y1108469*
X1567455Y1108156*
X1567682Y1105969D02*
Y1101594D01*
X1569955Y1105969D02*
Y1101594D01*
Y1104719D02*
X1570636Y1105656D01*
X1571091Y1105969*
X1571773*
X1572227Y1105656*
X1572455Y1104719*
Y1101594*
X1577227Y1105969D02*
Y1100969D01*
X1577000Y1100031*
X1576773Y1099719*
X1576318Y1099406*
X1575636*
X1575182Y1099719*
X1577227Y1105031D02*
X1576773Y1105656D01*
X1576318Y1105969*
X1575636*
X1575182Y1105656*
X1574727Y1105031*
X1574500Y1104094*
Y1103469*
X1574727Y1102531*
X1575182Y1101906*
X1575636Y1101594*
X1576318*
X1576773Y1101906*
X1577227Y1102531*
X1587682Y1107219D02*
X1587227Y1107844D01*
X1586545Y1108156*
X1585636*
X1584955Y1107844*
X1584500Y1107219*
Y1106594*
X1584727Y1105969*
X1584955Y1105656*
X1585409Y1105344*
X1586773Y1104719*
X1587227Y1104406*
X1587455Y1104094*
X1587682Y1103469*
Y1102531*
X1587227Y1101906*
X1586545Y1101594*
X1585636*
X1584955Y1101906*
X1584500Y1102531*
X1590409Y1108156D02*
Y1102844D01*
X1590636Y1101906*
X1591091Y1101594*
X1591545*
X1589727Y1105969D02*
X1591318D01*
X1596318D02*
Y1101594D01*
Y1105031D02*
X1595864Y1105656D01*
X1595409Y1105969*
X1594727*
X1594273Y1105656*
X1593818Y1105031*
X1593591Y1104094*
Y1103469*
X1593818Y1102531*
X1594273Y1101906*
X1594727Y1101594*
X1595409*
X1595864Y1101906*
X1596318Y1102531*
X1599045Y1108156D02*
Y1102844D01*
X1599273Y1101906*
X1599727Y1101594*
X1600182*
X1598364Y1105969D02*
X1599955D01*
X1602227Y1108156D02*
X1602455Y1107844D01*
X1602682Y1108156*
X1602455Y1108469*
X1602227Y1108156*
X1602455Y1105969D02*
Y1101594D01*
X1605864Y1105969D02*
X1605409Y1105656D01*
X1604955Y1105031*
X1604727Y1104094*
Y1103469*
X1604955Y1102531*
X1605409Y1101906*
X1605864Y1101594*
X1606545*
X1607000Y1101906*
X1607455Y1102531*
X1607682Y1103469*
Y1104094*
X1607455Y1105031*
X1607000Y1105656*
X1606545Y1105969*
X1605864*
X1609727D02*
Y1101594D01*
Y1104719D02*
X1610409Y1105656D01*
X1610864Y1105969*
X1611545*
X1612000Y1105656*
X1612227Y1104719*
Y1101594*
X1620864Y1108156D02*
X1619500D01*
Y1101594*
X1620864*
X1623136Y1108156D02*
Y1101594D01*
Y1108156D02*
X1625182D01*
X1625864Y1107844*
X1626091Y1107531*
X1626318Y1106906*
Y1106281*
X1626091Y1105656*
X1625864Y1105344*
X1625182Y1105031*
X1623136*
X1624727D02*
X1626318Y1101594D01*
X1630636Y1108156D02*
X1628364Y1103781D01*
X1631773*
X1630636Y1108156D02*
Y1101594D01*
X1634045Y1102219D02*
X1633818Y1101906D01*
X1634045Y1101594*
X1634273Y1101906*
X1634045Y1102219*
X1636318Y1106906D02*
X1636773Y1107219D01*
X1637455Y1108156*
Y1101594*
X1639500D02*
X1640864D01*
Y1108156*
X1639500*
X1561480Y529984D02*
Y520141D01*
X1565570*
X1571366Y529984D02*
X1568639Y520141D01*
X1571366Y529984D02*
X1574093Y520141D01*
X1569661Y523422D02*
X1573070D01*
X1577161Y529984D02*
X1579889Y525297D01*
Y520141*
X1582616Y529984D02*
X1579889Y525297D01*
X1585684Y529984D02*
Y520141D01*
Y529984D02*
X1590116D01*
X1585684Y525297D02*
X1588411D01*
X1585684Y520141D02*
X1590116D01*
X1593184Y529984D02*
Y520141D01*
Y529984D02*
X1596252D01*
X1597275Y529516*
X1597616Y529047*
X1597957Y528109*
Y527172*
X1597616Y526234*
X1597275Y525766*
X1596252Y525297*
X1593184*
X1595570D02*
X1597957Y520141D01*
X1528627Y700844D02*
X1525900Y691000D01*
X1528627Y700844D02*
X1531355Y691000D01*
X1526923Y694281D02*
X1530332D01*
X1534423Y697563D02*
Y691000D01*
Y694750D02*
X1534764Y696156D01*
X1535445Y697094*
X1536127Y697563*
X1536127D02*
X1537150D01*
X1541241Y700844D02*
Y692875D01*
X1541582Y691469*
X1542264Y691000*
X1542945*
X1540218Y697563D02*
X1542605D01*
X1546014D02*
X1547377Y691000D01*
X1548741Y697563D02*
X1547377Y691000D01*
X1548741Y697563D02*
X1550105Y691000D01*
X1551468Y697563D02*
X1550105Y691000D01*
X1556241Y697563D02*
X1555559Y697094D01*
X1554877Y696156*
X1554536Y694750*
Y693813*
X1554536D02*
X1554877Y692406D01*
X1555559Y691469*
X1556241Y691000*
X1557264*
X1557945Y691469*
X1558627Y692406*
X1558968Y693813*
X1558968D02*
Y694750D01*
X1558627Y696156*
X1557945Y697094*
X1557264Y697563*
X1557264D02*
X1556241D01*
X1562036D02*
Y691000D01*
Y694750D02*
X1562377Y696156D01*
X1563059Y697094*
X1563741Y697563*
X1563741D02*
X1564764D01*
X1567832Y700844D02*
Y691000D01*
X1571241Y697563D02*
X1567832Y692875D01*
X1569195Y694750D02*
X1571582Y691000D01*
X1582491Y700844D02*
Y691000D01*
Y700844D02*
X1584877D01*
X1585900Y700375*
X1586582Y699438*
X1586582D02*
X1586923Y698500D01*
X1587264Y697094*
Y694750*
X1586923Y693344*
X1586582Y692406*
X1585900Y691469*
X1584877Y691000*
X1582491*
X1590332Y694750D02*
X1594423D01*
Y695688*
X1594423D02*
X1594082Y696625D01*
X1593741Y697094*
X1593059Y697563*
X1593059D02*
X1592036D01*
X1592036D02*
X1591355Y697094D01*
X1590673Y696156*
X1590332Y694750*
Y693813*
X1590332D02*
X1590673Y692406D01*
X1591355Y691469*
X1592036Y691000*
X1593059*
X1593741Y691469*
X1594423Y692406*
X1601241Y696156D02*
X1600900Y697094D01*
X1599877Y697563*
X1599877D02*
X1598855D01*
X1598855D02*
X1597832Y697094D01*
X1597491Y696156*
X1597832Y695219*
X1598514Y694750*
X1600218Y694281*
X1600900Y693813*
X1600900D02*
X1601241Y692875D01*
Y692406*
X1600900Y691469*
X1599877Y691000*
X1598855*
X1597832Y691469*
X1597491Y692406*
X1604309Y700844D02*
X1604650Y700375D01*
X1604991Y700844*
X1604650Y701313*
X1604650D02*
X1604309Y700844D01*
X1604650Y697563D02*
Y691000D01*
X1612150Y697563D02*
Y690062D01*
X1612150D02*
X1611809Y688656D01*
X1611468Y688187*
X1611468D02*
X1610786Y687719D01*
X1609764*
X1609082Y688187*
X1612150Y696156D02*
X1611468Y697094D01*
X1610786Y697563*
X1610786D02*
X1609764D01*
X1609764D02*
X1609082Y697094D01*
X1608400Y696156*
X1608059Y694750*
Y693813*
X1608059D02*
X1608400Y692406D01*
X1609082Y691469*
X1609764Y691000*
X1610786*
X1611468Y691469*
X1612150Y692406*
X1615218Y697563D02*
Y691000D01*
Y695688D02*
X1616241Y697094D01*
X1616923Y697563*
X1616923D02*
X1617945D01*
X1617945D02*
X1618627Y697094D01*
X1618968Y695688*
X1618968D02*
Y691000D01*
X1622036Y694750D02*
X1626127D01*
Y695688*
X1626127D02*
X1625786Y696625D01*
X1625445Y697094*
X1624764Y697563*
X1624764D02*
X1623741D01*
X1623741D02*
X1623059Y697094D01*
X1622377Y696156*
X1622036Y694750*
Y693813*
X1622036D02*
X1622377Y692406D01*
X1623059Y691469*
X1623741Y691000*
X1624764*
X1625445Y691469*
X1626127Y692406*
X1633286Y700844D02*
Y691000D01*
Y696156D02*
X1632605Y697094D01*
X1631923Y697563*
X1631923D02*
X1630900D01*
X1630900D02*
X1630218Y697094D01*
X1629536Y696156*
X1629195Y694750*
Y693813*
X1629195D02*
X1629536Y692406D01*
X1630218Y691469*
X1630900Y691000*
X1631923*
X1632605Y691469*
X1633286Y692406*
X1644195Y700844D02*
Y691000D01*
Y700844D02*
X1648627D01*
X1644195Y696156D02*
X1646923D01*
X1653400Y697563D02*
X1652718Y697094D01*
X1652036Y696156*
X1651695Y694750*
Y693813*
X1651695D02*
X1652036Y692406D01*
X1652718Y691469*
X1653400Y691000*
X1654423*
X1655105Y691469*
X1655786Y692406*
X1656127Y693813*
X1656127D02*
Y694750D01*
X1655786Y696156*
X1655105Y697094*
X1654423Y697563*
X1654423D02*
X1653400D01*
X1659195D02*
Y691000D01*
Y694750D02*
X1659536Y696156D01*
X1660218Y697094*
X1660900Y697563*
X1660900D02*
X1661923D01*
X1665332D02*
X1664991Y697094D01*
X1665332Y696625*
X1665673Y697094*
X1665332Y697563*
Y691938D02*
X1664991Y691469D01*
X1665332Y691000*
X1665673Y691469*
X1665332Y691938*
X1525900Y645844D02*
Y636000D01*
Y645844D02*
X1528968D01*
X1529991Y645375*
X1530332Y644906*
X1530673Y643969*
Y643031*
X1530332Y642094*
X1529991Y641625*
X1528968Y641156*
X1525900D02*
X1528968D01*
X1529991Y640688*
X1529991D02*
X1530332Y640219D01*
X1530673Y639281*
Y637875*
X1530332Y636938*
X1530332D02*
X1529991Y636469D01*
X1528968Y636000*
X1525900*
X1535445Y642563D02*
X1534764Y642094D01*
X1534082Y641156*
X1533741Y639750*
Y638813*
X1533741D02*
X1534082Y637406D01*
X1534764Y636469*
X1535445Y636000*
X1536468*
X1537150Y636469*
X1537832Y637406*
X1538173Y638813*
X1538173D02*
Y639750D01*
X1537832Y641156*
X1537150Y642094*
X1536468Y642563*
X1536468D02*
X1535445D01*
X1545332D02*
Y636000D01*
Y641156D02*
X1544650Y642094D01*
X1543968Y642563*
X1543968D02*
X1542945D01*
X1542945D02*
X1542264Y642094D01*
X1541582Y641156*
X1541241Y639750*
Y638813*
X1541241D02*
X1541582Y637406D01*
X1542264Y636469*
X1542945Y636000*
X1543968*
X1544650Y636469*
X1545332Y637406*
X1548400Y642563D02*
Y636000D01*
Y639750D02*
X1548741Y641156D01*
X1549423Y642094*
X1550105Y642563*
X1550105D02*
X1551127D01*
X1558286Y645844D02*
Y636000D01*
Y641156D02*
X1557605Y642094D01*
X1556923Y642563*
X1556923D02*
X1555900D01*
X1555900D02*
X1555218Y642094D01*
X1554536Y641156*
X1554195Y639750*
Y638813*
X1554195D02*
X1554536Y637406D01*
X1555218Y636469*
X1555900Y636000*
X1556923*
X1557605Y636469*
X1558286Y637406*
X1569195Y645844D02*
Y636000D01*
Y645844D02*
X1571582D01*
X1572605Y645375*
X1573286Y644438*
X1573286D02*
X1573627Y643500D01*
X1573968Y642094*
Y639750*
X1573627Y638344*
X1573286Y637406*
X1572605Y636469*
X1571582Y636000*
X1569195*
X1577036Y639750D02*
X1581127D01*
Y640688*
X1581127D02*
X1580786Y641625D01*
X1580445Y642094*
X1579764Y642563*
X1579764D02*
X1578741D01*
X1578741D02*
X1578059Y642094D01*
X1577377Y641156*
X1577036Y639750*
Y638813*
X1577036D02*
X1577377Y637406D01*
X1578059Y636469*
X1578741Y636000*
X1579764*
X1580445Y636469*
X1581127Y637406*
X1587945Y641156D02*
X1587605Y642094D01*
X1586582Y642563*
X1586582D02*
X1585559D01*
X1585559D02*
X1584536Y642094D01*
X1584195Y641156*
X1584536Y640219*
X1585218Y639750*
X1586923Y639281*
X1587605Y638813*
X1587605D02*
X1587945Y637875D01*
Y637406*
X1587605Y636469*
X1586582Y636000*
X1585559*
X1584536Y636469*
X1584195Y637406*
X1595105Y641156D02*
X1594423Y642094D01*
X1593741Y642563*
X1593741D02*
X1592718D01*
X1592718D02*
X1592036Y642094D01*
X1591355Y641156*
X1591014Y639750*
Y638813*
X1591014D02*
X1591355Y637406D01*
X1592036Y636469*
X1592718Y636000*
X1593741*
X1594423Y636469*
X1595105Y637406*
X1598173Y642563D02*
Y636000D01*
Y639750D02*
X1598514Y641156D01*
X1599195Y642094*
X1599877Y642563*
X1599877D02*
X1600900D01*
X1603968Y645844D02*
X1604309Y645375D01*
X1604650Y645844*
X1604309Y646313*
X1604309D02*
X1603968Y645844D01*
X1604309Y642563D02*
Y636000D01*
X1607718Y642563D02*
Y632719D01*
Y641156D02*
X1608400Y642094D01*
X1609082Y642563*
X1609082D02*
X1610105D01*
X1610105D02*
X1610786Y642094D01*
X1611468Y641156*
X1611809Y639750*
Y638813*
X1611809D02*
X1611468Y637406D01*
X1610786Y636469*
X1610105Y636000*
X1609082*
X1608400Y636469*
X1607718Y637406*
X1615900Y645844D02*
Y637875D01*
X1616241Y636469*
X1616923Y636000*
X1617605*
X1614877Y642563D02*
X1617264D01*
X1620673Y645844D02*
X1621014Y645375D01*
X1621355Y645844*
X1621014Y646313*
X1621014D02*
X1620673Y645844D01*
X1621014Y642563D02*
Y636000D01*
X1626127Y642563D02*
X1625445Y642094D01*
X1624764Y641156*
X1624423Y639750*
Y638813*
X1624423D02*
X1624764Y637406D01*
X1625445Y636469*
X1626127Y636000*
X1627150*
X1627832Y636469*
X1628514Y637406*
X1628855Y638813*
X1628855D02*
Y639750D01*
X1628514Y641156*
X1627832Y642094*
X1627150Y642563*
X1627150D02*
X1626127D01*
X1631923D02*
Y636000D01*
Y640688D02*
X1632945Y642094D01*
X1633627Y642563*
X1633627D02*
X1634650D01*
X1634650D02*
X1635332Y642094D01*
X1635673Y640688*
X1635673D02*
Y636000D01*
X1639082Y642563D02*
X1638741Y642094D01*
X1639082Y641625*
X1639423Y642094*
X1639082Y642563*
Y636938D02*
X1638741Y636469D01*
X1639082Y636000*
X1639423Y636469*
X1639082Y636938*
X1525900Y575844D02*
Y566000D01*
Y575844D02*
X1528968D01*
X1529991Y575375*
X1530332Y574906*
X1530673Y573969*
Y572563*
X1530673D02*
X1530332Y571625D01*
X1529991Y571156*
X1528968Y570688*
X1528968D02*
X1525900D01*
X1537832Y572563D02*
Y566000D01*
Y571156D02*
X1537150Y572094D01*
X1536468Y572563*
X1536468D02*
X1535445D01*
X1535445D02*
X1534764Y572094D01*
X1534082Y571156*
X1533741Y569750*
Y568813*
X1533741D02*
X1534082Y567406D01*
X1534764Y566469*
X1535445Y566000*
X1536468*
X1537150Y566469*
X1537832Y567406*
X1540900Y572563D02*
Y566000D01*
Y569750D02*
X1541241Y571156D01*
X1541923Y572094*
X1542605Y572563*
X1542605D02*
X1543627D01*
X1547718Y575844D02*
Y567875D01*
X1548059Y566469*
X1548741Y566000*
X1549423*
X1546695Y572563D02*
X1549082D01*
X1560332Y575844D02*
Y566000D01*
Y575844D02*
X1565105Y566000D01*
Y575844D02*
Y566000D01*
X1569877Y572563D02*
X1569195Y572094D01*
X1568514Y571156*
X1568173Y569750*
Y568813*
X1568173D02*
X1568514Y567406D01*
X1569195Y566469*
X1569877Y566000*
X1570900*
X1571582Y566469*
X1572264Y567406*
X1572605Y568813*
X1572605D02*
Y569750D01*
X1572264Y571156*
X1571582Y572094*
X1570900Y572563*
X1570900D02*
X1569877D01*
X1576014D02*
X1575673Y572094D01*
X1576014Y571625*
X1576355Y572094*
X1576014Y572563*
Y566938D02*
X1575673Y566469D01*
X1576014Y566000*
X1576355Y566469*
X1576014Y566938*
X1825900Y575844D02*
Y566000D01*
Y575844D02*
X1828968D01*
X1829991Y575375*
X1830332Y574906*
X1830673Y573969*
Y573031*
X1830332Y572094*
X1829991Y571625*
X1828968Y571156*
X1825900*
X1828286D02*
X1830673Y566000D01*
X1833741Y569750D02*
X1837832D01*
Y570688*
X1837832D02*
X1837491Y571625D01*
X1837150Y572094*
X1836468Y572563*
X1836468D02*
X1835445D01*
X1835445D02*
X1834764Y572094D01*
X1834082Y571156*
X1833741Y569750*
Y568813*
X1833741D02*
X1834082Y567406D01*
X1834764Y566469*
X1835445Y566000*
X1836468*
X1837150Y566469*
X1837832Y567406*
X1840900Y572563D02*
X1842945Y566000D01*
X1844991Y572563D02*
X1842945Y566000D01*
X1848059Y575844D02*
X1848400Y575375D01*
X1848741Y575844*
X1848400Y576313*
X1848400D02*
X1848059Y575844D01*
X1848400Y572563D02*
Y566000D01*
X1855559Y571156D02*
X1855218Y572094D01*
X1854195Y572563*
X1854195D02*
X1853173D01*
X1853173D02*
X1852150Y572094D01*
X1851809Y571156*
X1852150Y570219*
X1852832Y569750*
X1854536Y569281*
X1855218Y568813*
X1855218D02*
X1855559Y567875D01*
Y567406*
X1855218Y566469*
X1854195Y566000*
X1853173*
X1852150Y566469*
X1851809Y567406*
X1858627Y575844D02*
X1858968Y575375D01*
X1859309Y575844*
X1858968Y576313*
X1858968D02*
X1858627Y575844D01*
X1858968Y572563D02*
Y566000D01*
X1864082Y572563D02*
X1863400Y572094D01*
X1862718Y571156*
X1862377Y569750*
Y568813*
X1862377D02*
X1862718Y567406D01*
X1863400Y566469*
X1864082Y566000*
X1865105*
X1865786Y566469*
X1866468Y567406*
X1866809Y568813*
X1866809D02*
Y569750D01*
X1866468Y571156*
X1865786Y572094*
X1865105Y572563*
X1865105D02*
X1864082D01*
X1869877D02*
Y566000D01*
Y570688D02*
X1870900Y572094D01*
X1871582Y572563*
X1871582D02*
X1872605D01*
X1872605D02*
X1873286Y572094D01*
X1873627Y570688*
X1873627D02*
Y566000D01*
X1877036Y572563D02*
X1876695Y572094D01*
X1877036Y571625*
X1877377Y572094*
X1877036Y572563*
Y566938D02*
X1876695Y566469D01*
X1877036Y566000*
X1877377Y566469*
X1877036Y566938*
X1620900Y561000D02*
Y561625D01*
X1621355Y562875*
X1621809Y563500*
X1622718Y564125*
X1624536*
X1625445Y563500*
X1625900Y562875*
X1626355Y561625*
Y560375*
X1625900Y559125*
X1625445Y558500*
X1623627Y557250*
Y555375*
Y552250D02*
X1623173Y551625D01*
X1623627Y551000*
X1624082Y551625*
X1623627Y552250*
X1909491Y564125D02*
X1904945Y555375D01*
X1911764*
X1909491Y564125D02*
Y551000D01*
X1916309Y552250D02*
X1915855Y551625D01*
X1916309Y551000*
X1916764Y551625*
X1916309Y552250*
X1920855Y561625D02*
X1921764Y562250D01*
X1923127Y564125*
Y551000*
X1658582Y676313D02*
Y663187D01*
X1655400Y676313D02*
X1661764D01*
X1665855D02*
Y663187D01*
Y676313D02*
X1671764D01*
X1665855Y670062D02*
X1669491D01*
X1665855Y663187D02*
X1671764D01*
X1675855Y676313D02*
X1682218Y663187D01*
Y676313D02*
X1675855Y663187D01*
X1689945Y676313D02*
X1686309Y663187D01*
X1689945Y676313D02*
X1693582Y663187D01*
X1687673Y667562D02*
X1692218D01*
X1704036Y674438D02*
X1703127Y675688D01*
X1703127D02*
X1701764Y676313D01*
X1701764D02*
X1699945D01*
X1699945D02*
X1698582Y675688D01*
X1698582D02*
X1697673Y674438D01*
X1697673D02*
Y673188D01*
X1697673D02*
X1698127Y671938D01*
X1698127D02*
X1698582Y671313D01*
X1698582D02*
X1699491Y670687D01*
X1699491D02*
X1702218Y669437D01*
X1702218D02*
X1703127Y668812D01*
X1703127D02*
X1703582Y668187D01*
X1703582D02*
X1704036Y666937D01*
X1704036D02*
Y665062D01*
X1704036D02*
X1703127Y663812D01*
X1703127D02*
X1701764Y663187D01*
X1701764D02*
X1699945D01*
X1699945D02*
X1698582Y663812D01*
X1698582D02*
X1697673Y665062D01*
X1718582Y676313D02*
Y663187D01*
X1722673Y676313D02*
Y663187D01*
Y676313D02*
X1729036Y663187D01*
Y676313D02*
Y663187D01*
X1739491Y674438D02*
X1738582Y675688D01*
X1738582D02*
X1737218Y676313D01*
X1737218D02*
X1735400D01*
X1735400D02*
X1734036Y675688D01*
X1734036D02*
X1733127Y674438D01*
X1733127D02*
Y673188D01*
X1733127D02*
X1733582Y671938D01*
X1733582D02*
X1734036Y671313D01*
X1734036D02*
X1734945Y670687D01*
X1734945D02*
X1737673Y669437D01*
X1737673D02*
X1738582Y668812D01*
X1738582D02*
X1739036Y668187D01*
X1739036D02*
X1739491Y666937D01*
X1739491D02*
Y665062D01*
X1739491D02*
X1738582Y663812D01*
X1738582D02*
X1737218Y663187D01*
X1737218D02*
X1735400D01*
X1735400D02*
X1734036Y663812D01*
X1734036D02*
X1733127Y665062D01*
X1746764Y676313D02*
Y663187D01*
X1743582Y676313D02*
X1749945D01*
X1754036D02*
Y663187D01*
Y676313D02*
X1758127D01*
X1758127D02*
X1759491Y675688D01*
X1759491D02*
X1759945Y675063D01*
X1759945D02*
X1760400Y673813D01*
X1760400D02*
Y672563D01*
X1760400D02*
X1759945Y671313D01*
X1759945D02*
X1759491Y670687D01*
X1759491D02*
X1758127Y670062D01*
X1758127D02*
X1754036D01*
X1757218D02*
X1760400Y663187D01*
X1764491Y676313D02*
Y666937D01*
X1764491D02*
X1764945Y665062D01*
X1764945D02*
X1765855Y663812D01*
X1765855D02*
X1767218Y663187D01*
X1767218D02*
X1768127D01*
X1768127D02*
X1769491Y663812D01*
X1769491D02*
X1770400Y665062D01*
X1770400D02*
X1770855Y666937D01*
X1770855D02*
Y676313D01*
X1774945D02*
Y663187D01*
Y676313D02*
X1778582Y663187D01*
X1782218Y676313D02*
X1778582Y663187D01*
X1782218Y676313D02*
Y663187D01*
X1786309Y676313D02*
Y663187D01*
Y676313D02*
X1792218D01*
X1786309Y670062D02*
X1789945D01*
X1786309Y663187D02*
X1792218D01*
X1796309Y676313D02*
Y663187D01*
Y676313D02*
X1802673Y663187D01*
Y676313D02*
Y663187D01*
X1809945Y676313D02*
Y663187D01*
X1806764Y676313D02*
X1813127D01*
X1823582Y674438D02*
X1822673Y675688D01*
X1822673D02*
X1821309Y676313D01*
X1821309D02*
X1819491D01*
X1819491D02*
X1818127Y675688D01*
X1818127D02*
X1817218Y674438D01*
X1817218D02*
Y673188D01*
X1817218D02*
X1817673Y671938D01*
X1817673D02*
X1818127Y671313D01*
X1818127D02*
X1819036Y670687D01*
X1819036D02*
X1821764Y669437D01*
X1821764D02*
X1822673Y668812D01*
X1822673D02*
X1823127Y668187D01*
X1823127D02*
X1823582Y666937D01*
X1823582D02*
Y665062D01*
X1823582D02*
X1822673Y663812D01*
X1822673D02*
X1821309Y663187D01*
X1821309D02*
X1819491D01*
X1819491D02*
X1818127Y663812D01*
X1818127D02*
X1817218Y665062D01*
X1664264Y626313D02*
Y613187D01*
Y626313D02*
X1667445D01*
X1667445D02*
X1668809Y625688D01*
X1668809D02*
X1669718Y624438D01*
X1669718D02*
X1670173Y623188D01*
X1670173D02*
X1670627Y621313D01*
X1670627D02*
Y618187D01*
X1670627D02*
X1670173Y616312D01*
X1670173D02*
X1669718Y615062D01*
X1669718D02*
X1668809Y613812D01*
X1668809D02*
X1667445Y613187D01*
X1667445D02*
X1664264D01*
X1676991Y621938D02*
X1676082Y621313D01*
X1676082D02*
X1675173Y620062D01*
X1675173D02*
X1674718Y618187D01*
X1674718D02*
Y616937D01*
X1674718D02*
X1675173Y615062D01*
X1675173D02*
X1676082Y613812D01*
X1676082D02*
X1676991Y613187D01*
X1676991D02*
X1678355D01*
X1678355D02*
X1679264Y613812D01*
X1679264D02*
X1680173Y615062D01*
X1680173D02*
X1680627Y616937D01*
X1680627D02*
Y618187D01*
X1680627D02*
X1680173Y620062D01*
X1680173D02*
X1679264Y621313D01*
X1679264D02*
X1678355Y621938D01*
X1678355D02*
X1676991D01*
X1690173Y620062D02*
X1689264Y621313D01*
X1689264D02*
X1688355Y621938D01*
X1688355D02*
X1686991D01*
X1686991D02*
X1686082Y621313D01*
X1686082D02*
X1685173Y620062D01*
X1685173D02*
X1684718Y618187D01*
X1684718D02*
Y616937D01*
X1684718D02*
X1685173Y615062D01*
X1685173D02*
X1686082Y613812D01*
X1686082D02*
X1686991Y613187D01*
X1686991D02*
X1688355D01*
X1688355D02*
X1689264Y613812D01*
X1689264D02*
X1690173Y615062D01*
X1694264Y626313D02*
Y613187D01*
X1698809Y621938D02*
X1694264Y615687D01*
X1696082Y618187D02*
X1699264Y613187D01*
X1703355Y626313D02*
X1703809Y625688D01*
X1703809D02*
X1704264Y626313D01*
X1704264D02*
X1703809Y626938D01*
X1703809D02*
X1703355Y626313D01*
X1703809Y621938D02*
Y613187D01*
X1708355Y621938D02*
Y613187D01*
Y619437D02*
X1709718Y621313D01*
X1709718D02*
X1710627Y621938D01*
X1710627D02*
X1711991D01*
X1711991D02*
X1712900Y621313D01*
X1712900D02*
X1713355Y619437D01*
X1713355D02*
Y613187D01*
X1722900Y621938D02*
Y611937D01*
X1722900D02*
X1722445Y610062D01*
X1722445D02*
X1721991Y609437D01*
X1721991D02*
X1721082Y608812D01*
X1721082D02*
X1719718D01*
X1719718D02*
X1718809Y609437D01*
X1722900Y620062D02*
X1721991Y621313D01*
X1721991D02*
X1721082Y621938D01*
X1721082D02*
X1719718D01*
X1719718D02*
X1718809Y621313D01*
X1718809D02*
X1717900Y620062D01*
X1717900D02*
X1717445Y618187D01*
X1717445D02*
Y616937D01*
X1717445D02*
X1717900Y615062D01*
X1717900D02*
X1718809Y613812D01*
X1718809D02*
X1719718Y613187D01*
X1719718D02*
X1721082D01*
X1721082D02*
X1721991Y613812D01*
X1721991D02*
X1722900Y615062D01*
X1733355Y624438D02*
X1732445Y625688D01*
X1732445D02*
X1731082Y626313D01*
X1731082D02*
X1729264D01*
X1729264D02*
X1727900Y625688D01*
X1727900D02*
X1726991Y624438D01*
X1726991D02*
Y623188D01*
X1726991D02*
X1727445Y621938D01*
X1727445D02*
X1727900Y621313D01*
X1727900D02*
X1728809Y620687D01*
X1728809D02*
X1731536Y619437D01*
X1731536D02*
X1732445Y618812D01*
X1732445D02*
X1732900Y618187D01*
X1732900D02*
X1733355Y616937D01*
X1733355D02*
Y615062D01*
X1733355D02*
X1732445Y613812D01*
X1732445D02*
X1731082Y613187D01*
X1731082D02*
X1729264D01*
X1729264D02*
X1727900Y613812D01*
X1727900D02*
X1726991Y615062D01*
X1738809Y626313D02*
Y615687D01*
X1738809D02*
X1739264Y613812D01*
X1739264D02*
X1740173Y613187D01*
X1740173D02*
X1741082D01*
X1737445Y621938D02*
X1740627D01*
X1745173D02*
Y613187D01*
Y619437D02*
X1746536Y621313D01*
X1746536D02*
X1747445Y621938D01*
X1747445D02*
X1748809D01*
X1748809D02*
X1749718Y621313D01*
X1749718D02*
X1750173Y619437D01*
X1750173D02*
Y613187D01*
X1754264Y610687D02*
X1763809D01*
X1766536Y626313D02*
Y613187D01*
X1772900Y626313D02*
Y613187D01*
X1766536Y620062D02*
X1772900D01*
X1783355Y624438D02*
X1782445Y625688D01*
X1782445D02*
X1781082Y626313D01*
X1781082D02*
X1779264D01*
X1779264D02*
X1777900Y625688D01*
X1777900D02*
X1776991Y624438D01*
X1776991D02*
Y623188D01*
X1776991D02*
X1777445Y621938D01*
X1777445D02*
X1777900Y621313D01*
X1777900D02*
X1778809Y620687D01*
X1778809D02*
X1781536Y619437D01*
X1781536D02*
X1782445Y618812D01*
X1782445D02*
X1782900Y618187D01*
X1782900D02*
X1783355Y616937D01*
X1783355D02*
Y615062D01*
X1783355D02*
X1782445Y613812D01*
X1782445D02*
X1781082Y613187D01*
X1781082D02*
X1779264D01*
X1779264D02*
X1777900Y613812D01*
X1777900D02*
X1776991Y615062D01*
X1787445Y626313D02*
Y613187D01*
Y626313D02*
X1793355D01*
X1787445Y620062D02*
X1791082D01*
X1787445Y613187D02*
X1793355D01*
X1804264Y623188D02*
X1803809Y624438D01*
X1803809D02*
X1802900Y625688D01*
X1802900D02*
X1801991Y626313D01*
X1801991D02*
X1800173D01*
X1800173D02*
X1799264Y625688D01*
X1799264D02*
X1798355Y624438D01*
X1798355D02*
X1797900Y623188D01*
X1797900D02*
X1797445Y621313D01*
X1797445D02*
Y618187D01*
X1797445D02*
X1797900Y616312D01*
X1797900D02*
X1798355Y615062D01*
X1798355D02*
X1799264Y613812D01*
X1799264D02*
X1800173Y613187D01*
X1800173D02*
X1801991D01*
X1801991D02*
X1802900Y613812D01*
X1802900D02*
X1803809Y615062D01*
X1803809D02*
X1804264Y616312D01*
X1810627Y626313D02*
X1809264Y625688D01*
X1809264D02*
X1808809Y624438D01*
X1808809D02*
Y623188D01*
X1808809D02*
X1809264Y621938D01*
X1809264D02*
X1810173Y621313D01*
X1810173D02*
X1811991Y620687D01*
X1811991D02*
X1813355Y620062D01*
X1813355D02*
X1814264Y618812D01*
X1814264D02*
X1814718Y617562D01*
X1814718D02*
Y615687D01*
X1814718D02*
X1814264Y614437D01*
X1814264D02*
X1813809Y613812D01*
X1813809D02*
X1812445Y613187D01*
X1812445D02*
X1810627D01*
X1810627D02*
X1809264Y613812D01*
X1809264D02*
X1808809Y614437D01*
X1808809D02*
X1808355Y615687D01*
X1808355D02*
Y617562D01*
X1808355D02*
X1808809Y618812D01*
X1808809D02*
X1809718Y620062D01*
X1809718D02*
X1811082Y620687D01*
X1811082D02*
X1812900Y621313D01*
X1812900D02*
X1813809Y621938D01*
X1813809D02*
X1814264Y623188D01*
X1814264D02*
Y624438D01*
X1814264D02*
X1813809Y625688D01*
X1813809D02*
X1812445Y626313D01*
X1812445D02*
X1810627D01*
X1244309Y535844D02*
Y528344D01*
X1243968Y526938*
X1243968D02*
X1243627Y526469D01*
X1242945Y526000*
X1242264*
X1241582Y526469*
X1241241Y526938*
X1241241D02*
X1240900Y528344D01*
Y529281*
X1249082Y532563D02*
X1248400Y532094D01*
X1247718Y531156*
X1247377Y529750*
Y528813*
X1247377D02*
X1247718Y527406D01*
X1248400Y526469*
X1249082Y526000*
X1250105*
X1250786Y526469*
X1251468Y527406*
X1251809Y528813*
X1251809D02*
Y529750D01*
X1251468Y531156*
X1250786Y532094*
X1250105Y532563*
X1250105D02*
X1249082D01*
X1254877Y535844D02*
Y526000D01*
Y531156D02*
X1255559Y532094D01*
X1256241Y532563*
X1256241D02*
X1257264D01*
X1257264D02*
X1257945Y532094D01*
X1258627Y531156*
X1258968Y529750*
Y528813*
X1258968D02*
X1258627Y527406D01*
X1257945Y526469*
X1257264Y526000*
X1256241*
X1255559Y526469*
X1254877Y527406*
X1269877Y535844D02*
Y526000D01*
Y535844D02*
X1274650Y526000D01*
Y535844D02*
Y526000D01*
X1279423Y532563D02*
X1278741Y532094D01*
X1278059Y531156*
X1277718Y529750*
Y528813*
X1277718D02*
X1278059Y527406D01*
X1278741Y526469*
X1279423Y526000*
X1280445*
X1281127Y526469*
X1281809Y527406*
X1282150Y528813*
X1282150D02*
Y529750D01*
X1281809Y531156*
X1281127Y532094*
X1280445Y532563*
X1280445D02*
X1279423D01*
X1285559D02*
X1285218Y532094D01*
X1285559Y531625*
X1285900Y532094*
X1285559Y532563*
Y526938D02*
X1285218Y526469D01*
X1285559Y526000*
X1285900Y526469*
X1285559Y526938*
X1310855Y531313D02*
Y518187D01*
X1307673Y531313D02*
X1314036D01*
X1318127D02*
X1324491Y518187D01*
Y531313D02*
X1318127Y518187D01*
X1328582Y531313D02*
Y518187D01*
Y531313D02*
X1334945Y518187D01*
Y531313D02*
Y518187D01*
X1339491Y519437D02*
X1339036Y518812D01*
X1339036D02*
X1339491Y518187D01*
X1339491D02*
X1339945Y518812D01*
X1339945D02*
X1339491Y519437D01*
X1346764Y531313D02*
X1345400Y530688D01*
X1345400D02*
X1344491Y528813D01*
X1344491D02*
X1344036Y525687D01*
X1344036D02*
Y523812D01*
X1344036D02*
X1344491Y520687D01*
X1344491D02*
X1345400Y518812D01*
X1345400D02*
X1346764Y518187D01*
X1346764D02*
X1347673D01*
X1347673D02*
X1349036Y518812D01*
X1349036D02*
X1349945Y520687D01*
X1349945D02*
X1350400Y523812D01*
X1350400D02*
Y525687D01*
X1350400D02*
X1349945Y528813D01*
X1349945D02*
X1349036Y530688D01*
X1349036D02*
X1347673Y531313D01*
X1347673D02*
X1346764D01*
X1357218D02*
X1355855Y530688D01*
X1355855D02*
X1354945Y528813D01*
X1354945D02*
X1354491Y525687D01*
X1354491D02*
Y523812D01*
X1354491D02*
X1354945Y520687D01*
X1354945D02*
X1355855Y518812D01*
X1355855D02*
X1357218Y518187D01*
X1357218D02*
X1358127D01*
X1358127D02*
X1359491Y518812D01*
X1359491D02*
X1360400Y520687D01*
X1360400D02*
X1360855Y523812D01*
X1360855D02*
Y525687D01*
X1360855D02*
X1360400Y528813D01*
X1360400D02*
X1359491Y530688D01*
X1359491D02*
X1358127Y531313D01*
X1358127D02*
X1357218D01*
X1365855D02*
X1370855D01*
X1370855D02*
X1368127Y526313D01*
X1368127D02*
X1369491D01*
X1369491D02*
X1370400Y525687D01*
X1370400D02*
X1370855Y525062D01*
X1370855D02*
X1371309Y523187D01*
X1371309D02*
Y521937D01*
X1371309D02*
X1370855Y520062D01*
X1370855D02*
X1369945Y518812D01*
X1369945D02*
X1368582Y518187D01*
X1368582D02*
X1367218D01*
X1367218D02*
X1365855Y518812D01*
X1365855D02*
X1365400Y519437D01*
X1365400D02*
X1364945Y520687D01*
X1400900Y535844D02*
Y526000D01*
Y535844D02*
X1403286D01*
X1404309Y535375*
X1404991Y534438*
X1404991D02*
X1405332Y533500D01*
X1405673Y532094*
Y529750*
X1405332Y528344*
X1404991Y527406*
X1404309Y526469*
X1403286Y526000*
X1400900*
X1412832Y532563D02*
Y526000D01*
Y531156D02*
X1412150Y532094D01*
X1411468Y532563*
X1411468D02*
X1410445D01*
X1410445D02*
X1409764Y532094D01*
X1409082Y531156*
X1408741Y529750*
Y528813*
X1408741D02*
X1409082Y527406D01*
X1409764Y526469*
X1410445Y526000*
X1411468*
X1412150Y526469*
X1412832Y527406*
X1416923Y535844D02*
Y527875D01*
X1417264Y526469*
X1417945Y526000*
X1418627*
X1415900Y532563D02*
X1418286D01*
X1421695Y529750D02*
X1425786D01*
Y530688*
X1425786D02*
X1425445Y531625D01*
X1425105Y532094*
X1424423Y532563*
X1424423D02*
X1423400D01*
X1423400D02*
X1422718Y532094D01*
X1422036Y531156*
X1421695Y529750*
Y528813*
X1421695D02*
X1422036Y527406D01*
X1422718Y526469*
X1423400Y526000*
X1424423*
X1425105Y526469*
X1425786Y527406*
X1429195Y532563D02*
X1428855Y532094D01*
X1429195Y531625*
X1429536Y532094*
X1429195Y532563*
Y526938D02*
X1428855Y526469D01*
X1429195Y526000*
X1429536Y526469*
X1429195Y526938*
X1437900Y531313D02*
X1436536Y530688D01*
X1436536D02*
X1435627Y528813D01*
X1435627D02*
X1435173Y525687D01*
X1435173D02*
Y523812D01*
X1435173D02*
X1435627Y520687D01*
X1435627D02*
X1436536Y518812D01*
X1436536D02*
X1437900Y518187D01*
X1437900D02*
X1438809D01*
X1438809D02*
X1440173Y518812D01*
X1440173D02*
X1441082Y520687D01*
X1441082D02*
X1441536Y523812D01*
X1441536D02*
Y525687D01*
X1441536D02*
X1441082Y528813D01*
X1441082D02*
X1440173Y530688D01*
X1440173D02*
X1438809Y531313D01*
X1438809D02*
X1437900D01*
X1451991D02*
X1447445Y518187D01*
X1445627Y531313D02*
X1451991D01*
X1464264Y533813D02*
X1456082Y513812D01*
X1468809Y528188D02*
Y528813D01*
X1468809D02*
X1469264Y530063D01*
X1469264D02*
X1469718Y530688D01*
X1469718D02*
X1470627Y531313D01*
X1470627D02*
X1472445D01*
X1472445D02*
X1473355Y530688D01*
X1473355D02*
X1473809Y530063D01*
X1473809D02*
X1474264Y528813D01*
X1474264D02*
Y527563D01*
X1474264D02*
X1473809Y526313D01*
X1473809D02*
X1472900Y524437D01*
X1472900D02*
X1468355Y518187D01*
X1468355D02*
X1474718D01*
X1484264Y529438D02*
X1483809Y530688D01*
X1483809D02*
X1482445Y531313D01*
X1482445D02*
X1481536D01*
X1481536D02*
X1480173Y530688D01*
X1480173D02*
X1479264Y528813D01*
X1479264D02*
X1478809Y525687D01*
X1478809D02*
Y522562D01*
X1478809D02*
X1479264Y520062D01*
X1479264D02*
X1480173Y518812D01*
X1480173D02*
X1481536Y518187D01*
X1481536D02*
X1481991D01*
X1481991D02*
X1483355Y518812D01*
X1483355D02*
X1484264Y520062D01*
X1484264D02*
X1484718Y521937D01*
X1484718D02*
Y522562D01*
X1484718D02*
X1484264Y524437D01*
X1484264D02*
X1483355Y525687D01*
X1483355D02*
X1481991Y526313D01*
X1481991D02*
X1481536D01*
X1481536D02*
X1480173Y525687D01*
X1480173D02*
X1479264Y524437D01*
X1479264D02*
X1478809Y522562D01*
X1496991Y533813D02*
X1488809Y513812D01*
X1501082Y528813D02*
X1501991Y529438D01*
X1501991D02*
X1503355Y531313D01*
X1503355D02*
Y518187D01*
X1507900Y528188D02*
Y528813D01*
X1507900D02*
X1508355Y530063D01*
X1508355D02*
X1508809Y530688D01*
X1508809D02*
X1509718Y531313D01*
X1509718D02*
X1511536D01*
X1511536D02*
X1512445Y530688D01*
X1512445D02*
X1512900Y530063D01*
X1512900D02*
X1513355Y528813D01*
X1513355D02*
Y527563D01*
X1513355D02*
X1512900Y526313D01*
X1512900D02*
X1511991Y524437D01*
X1511991D02*
X1507445Y518187D01*
X1507445D02*
X1513809D01*
X1742159Y529484D02*
Y519641D01*
Y529484D02*
X1745227D01*
X1746250Y529016*
X1746591Y528547*
X1746932Y527609*
Y526203*
X1746591Y525266*
X1746250Y524797*
X1745227Y524328*
X1742159*
X1750000Y526203D02*
Y519641D01*
Y523391D02*
X1750341Y524797D01*
X1751023Y525734*
X1751705Y526203*
X1752727*
X1755795Y529484D02*
X1756136Y529016D01*
X1756477Y529484*
X1756136Y529953*
X1755795Y529484*
X1756136Y526203D02*
Y519641D01*
X1759545Y526203D02*
Y519641D01*
Y524328D02*
X1760568Y525734D01*
X1761250Y526203*
X1762273*
X1762955Y525734*
X1763295Y524328*
Y519641*
Y524328D02*
X1764318Y525734D01*
X1765000Y526203*
X1766023*
X1766705Y525734*
X1767045Y524328*
Y519641*
X1774205Y526203D02*
Y519641D01*
Y524797D02*
X1773523Y525734D01*
X1772841Y526203*
X1771818*
X1771136Y525734*
X1770455Y524797*
X1770114Y523391*
Y522453*
X1770455Y521047*
X1771136Y520109*
X1771818Y519641*
X1772841*
X1773523Y520109*
X1774205Y521047*
X1777273Y526203D02*
Y519641D01*
Y523391D02*
X1777614Y524797D01*
X1778295Y525734*
X1778977Y526203*
X1780000*
X1783409D02*
X1785455Y519641D01*
X1787500Y526203D02*
X1785455Y519641D01*
X1784773Y517766*
X1784091Y516828*
X1783409Y516359*
X1783068*
X1803182Y528078D02*
X1802500Y529016D01*
X1801477Y529484*
X1800114*
X1799091Y529016*
X1798409Y528078*
Y527141*
X1798750Y526203*
X1799091Y525734*
X1799773Y525266*
X1801818Y524328*
X1802500Y523859*
X1802841Y523391*
X1803182Y522453*
Y521047*
X1802500Y520109*
X1801477Y519641*
X1800114*
X1799091Y520109*
X1798409Y521047*
X1806250Y529484D02*
X1806591Y529016D01*
X1806932Y529484*
X1806591Y529953*
X1806250Y529484*
X1806591Y526203D02*
Y519641D01*
X1814091Y529484D02*
Y519641D01*
Y524797D02*
X1813409Y525734D01*
X1812727Y526203*
X1811705*
X1811023Y525734*
X1810341Y524797*
X1810000Y523391*
Y522453*
X1810341Y521047*
X1811023Y520109*
X1811705Y519641*
X1812727*
X1813409Y520109*
X1814091Y521047*
X1817159Y523391D02*
X1821250D01*
Y524328*
X1820909Y525266*
X1820568Y525734*
X1819886Y526203*
X1818864*
X1818182Y525734*
X1817500Y524797*
X1817159Y523391*
Y522453*
X1817500Y521047*
X1818182Y520109*
X1818864Y519641*
X1819886*
X1820568Y520109*
X1821250Y521047*
X1836932Y528078D02*
X1836250Y529016D01*
X1835227Y529484*
X1833864*
X1832841Y529016*
X1832159Y528078*
Y527141*
X1832500Y526203*
X1832841Y525734*
X1833523Y525266*
X1835568Y524328*
X1836250Y523859*
X1836591Y523391*
X1836932Y522453*
Y521047*
X1836250Y520109*
X1835227Y519641*
X1833864*
X1832841Y520109*
X1832159Y521047*
X1840000Y529484D02*
X1840341Y529016D01*
X1840682Y529484*
X1840341Y529953*
X1840000Y529484*
X1840341Y526203D02*
Y519641D01*
X1843750Y529484D02*
Y519641D01*
X1846818Y529484D02*
Y519641D01*
X1850227Y526203D02*
X1846818Y521516D01*
X1848182Y523391D02*
X1850568Y519641D01*
X1857386Y524797D02*
X1857045Y525734D01*
X1856023Y526203*
X1855000*
X1853977Y525734*
X1853636Y524797*
X1853977Y523859*
X1854659Y523391*
X1856364Y522922*
X1857045Y522453*
X1857386Y521516*
Y521047*
X1857045Y520109*
X1856023Y519641*
X1855000*
X1853977Y520109*
X1853636Y521047*
X1864545Y524797D02*
X1863864Y525734D01*
X1863182Y526203*
X1862159*
X1861477Y525734*
X1860795Y524797*
X1860455Y523391*
Y522453*
X1860795Y521047*
X1861477Y520109*
X1862159Y519641*
X1863182*
X1863864Y520109*
X1864545Y521047*
X1867614Y526203D02*
Y519641D01*
Y523391D02*
X1867955Y524797D01*
X1868636Y525734*
X1869318Y526203*
X1870341*
X1873409Y523391D02*
X1877500D01*
Y524328*
X1877159Y525266*
X1876818Y525734*
X1876136Y526203*
X1875114*
X1874432Y525734*
X1873750Y524797*
X1873409Y523391*
Y522453*
X1873750Y521047*
X1874432Y520109*
X1875114Y519641*
X1876136*
X1876818Y520109*
X1877500Y521047*
X1880568Y523391D02*
X1884659D01*
Y524328*
X1884318Y525266*
X1883977Y525734*
X1883295Y526203*
X1882273*
X1881591Y525734*
X1880909Y524797*
X1880568Y523391*
Y522453*
X1880909Y521047*
X1881591Y520109*
X1882273Y519641*
X1883295*
X1883977Y520109*
X1884659Y521047*
X1887727Y526203D02*
Y519641D01*
Y524328D02*
X1888750Y525734D01*
X1889432Y526203*
X1890455*
X1891136Y525734*
X1891477Y524328*
Y519641*
G54D171*
X1503886Y1123984D02*
Y1114141D01*
X1501500Y1123984D02*
X1506273D01*
X1509341D02*
Y1114141D01*
Y1123984D02*
X1513773D01*
X1509341Y1119297D02*
X1512068D01*
X1509341Y1114141D02*
X1513773D01*
X1516841Y1123984D02*
X1521614Y1114141D01*
Y1123984D02*
X1516841Y1114141D01*
X1527409Y1123984D02*
X1524682Y1114141D01*
X1527409Y1123984D02*
X1530136Y1114141D01*
X1525705Y1117422D02*
X1529114D01*
X1537977Y1122578D02*
X1537295Y1123516D01*
X1536273Y1123984*
X1534909*
X1533886Y1123516*
X1533205Y1122578*
Y1121641*
X1533545Y1120703*
X1533886Y1120234*
X1534568Y1119766*
X1536614Y1118828*
X1537295Y1118359*
X1537636Y1117891*
X1537977Y1116953*
Y1115547*
X1537295Y1114609*
X1536273Y1114141*
X1534909*
X1533886Y1114609*
X1533205Y1115547*
X1548886Y1123984D02*
Y1114141D01*
X1551955Y1123984D02*
Y1114141D01*
Y1123984D02*
X1556727Y1114141D01*
Y1123984D02*
Y1114141D01*
X1564568Y1122578D02*
X1563886Y1123516D01*
X1562864Y1123984*
X1561500*
X1560477Y1123516*
X1559795Y1122578*
Y1121641*
X1560136Y1120703*
X1560477Y1120234*
X1561159Y1119766*
X1563205Y1118828*
X1563886Y1118359*
X1564227Y1117891*
X1564568Y1116953*
Y1115547*
X1563886Y1114609*
X1562864Y1114141*
X1561500*
X1560477Y1114609*
X1559795Y1115547*
X1570023Y1123984D02*
Y1114141D01*
X1567636Y1123984D02*
X1572409D01*
X1575477D02*
Y1114141D01*
Y1123984D02*
X1578545D01*
X1579568Y1123516*
X1579909Y1123047*
X1580250Y1122109*
Y1121172*
X1579909Y1120234*
X1579568Y1119766*
X1578545Y1119297*
X1575477*
X1577864D02*
X1580250Y1114141D01*
X1583318Y1123984D02*
Y1116953D01*
X1583659Y1115547*
X1584341Y1114609*
X1585364Y1114141*
X1586045*
X1587068Y1114609*
X1587750Y1115547*
X1588091Y1116953*
Y1123984*
X1591159D02*
Y1114141D01*
Y1123984D02*
X1593886Y1114141D01*
X1596614Y1123984D02*
X1593886Y1114141D01*
X1596614Y1123984D02*
Y1114141D01*
X1599682Y1123984D02*
Y1114141D01*
Y1123984D02*
X1604114D01*
X1599682Y1119297D02*
X1602409D01*
X1599682Y1114141D02*
X1604114D01*
X1607182Y1123984D02*
Y1114141D01*
Y1123984D02*
X1611955Y1114141D01*
Y1123984D02*
Y1114141D01*
X1617409Y1123984D02*
Y1114141D01*
X1615023Y1123984D02*
X1619795D01*
X1627636Y1122578D02*
X1626955Y1123516D01*
X1625932Y1123984*
X1624568*
X1623545Y1123516*
X1622864Y1122578*
Y1121641*
X1623205Y1120703*
X1623545Y1120234*
X1624227Y1119766*
X1626273Y1118828*
X1626955Y1118359*
X1627295Y1117891*
X1627636Y1116953*
Y1115547*
X1626955Y1114609*
X1625932Y1114141*
X1624568*
X1623545Y1114609*
X1622864Y1115547*
G54D177*
X1093300Y1097056D02*
X1093527Y1097213D01*
X1093527D02*
X1093868Y1097681D01*
Y1094400*
X1372300Y1097056D02*
X1372527Y1097213D01*
X1372527D02*
X1372868Y1097681D01*
Y1094400*
X1374005Y1096900D02*
Y1097056D01*
X1374118Y1097369*
X1374232Y1097525*
X1374459Y1097681*
X1374914*
X1375141Y1097525*
X1375255Y1097369*
X1375368Y1097056*
Y1096744*
X1375255Y1096431*
X1375027Y1095963*
X1375027D02*
X1373891Y1094400D01*
X1375482*
X1376505Y1097056D02*
X1376732Y1097213D01*
X1376732D02*
X1377073Y1097681D01*
Y1094400*
X1464300Y1097056D02*
X1464527Y1097213D01*
X1464527D02*
X1464868Y1097681D01*
Y1094400*
X1467482Y1097681D02*
X1466345Y1094400D01*
X1465891Y1097681D02*
X1467482D01*
X1469982Y1096588D02*
X1469868Y1096119D01*
X1469641Y1095806*
X1469300Y1095650*
X1469186*
X1468845Y1095806*
X1468618Y1096119*
X1468505Y1096588*
X1468505D02*
Y1096744D01*
X1468618Y1097213*
X1468618D02*
X1468845Y1097525D01*
X1469186Y1097681*
X1469300*
X1469641Y1097525*
X1469868Y1097213*
X1469868D02*
X1469982Y1096588D01*
X1469982D02*
Y1095806D01*
X1469868Y1095025*
X1469641Y1094556*
X1469300Y1094400*
X1469073*
X1468732Y1094556*
X1468618Y1094869*
X1464300Y1135056D02*
X1464527Y1135213D01*
X1464527D02*
X1464868Y1135681D01*
Y1132400*
X1466459Y1135681D02*
X1466118Y1135525D01*
X1466005Y1135213*
X1466005D02*
Y1134900D01*
X1466118Y1134588*
X1466118D02*
X1466345Y1134431D01*
X1466800Y1134275*
X1467141Y1134119*
X1467368Y1133806*
X1467482Y1133494*
Y1133025*
X1467368Y1132713*
X1467368D02*
X1467255Y1132556D01*
X1466914Y1132400*
X1466459*
X1466118Y1132556*
X1466005Y1132713*
X1466005D02*
X1465891Y1133025D01*
Y1133494*
X1466005Y1133806*
X1466232Y1134119*
X1466573Y1134275*
X1467027Y1134431*
X1467255Y1134588*
X1467255D02*
X1467368Y1134900D01*
Y1135213*
X1467368D02*
X1467255Y1135525D01*
X1466914Y1135681*
X1466459*
X1469186D02*
X1468845Y1135525D01*
X1468618Y1135056*
X1468505Y1134275*
Y1133806*
X1468618Y1133025*
X1468845Y1132556*
X1469186Y1132400*
X1469414*
X1469755Y1132556*
X1469982Y1133025*
X1470095Y1133806*
Y1134275*
X1469982Y1135056*
X1469755Y1135525*
X1469414Y1135681*
X1469186*
X1372300Y1135056D02*
X1372527Y1135213D01*
X1372527D02*
X1372868Y1135681D01*
Y1132400*
X1374005Y1134900D02*
Y1135056D01*
X1374118Y1135369*
X1374232Y1135525*
X1374459Y1135681*
X1374914*
X1375141Y1135525*
X1375255Y1135369*
X1375368Y1135056*
Y1134744*
X1375255Y1134431*
X1375027Y1133963*
X1375027D02*
X1373891Y1132400D01*
X1375482*
X1376618Y1134900D02*
Y1135056D01*
X1376732Y1135369*
X1376845Y1135525*
X1377073Y1135681*
X1377527*
X1377755Y1135525*
X1377868Y1135369*
X1377982Y1135056*
Y1134744*
X1377868Y1134431*
X1377641Y1133963*
X1377641D02*
X1376505Y1132400D01*
X1378095*
X1290300Y1135056D02*
X1290527Y1135213D01*
X1290527D02*
X1290868Y1135681D01*
Y1132400*
X1292005Y1134900D02*
Y1135056D01*
X1292118Y1135369*
X1292232Y1135525*
X1292459Y1135681*
X1292914*
X1293141Y1135525*
X1293255Y1135369*
X1293368Y1135056*
Y1134744*
X1293255Y1134431*
X1293027Y1133963*
X1293027D02*
X1291891Y1132400D01*
X1293482*
X1295186Y1135681D02*
X1294845Y1135525D01*
X1294618Y1135056*
X1294505Y1134275*
Y1133806*
X1294618Y1133025*
X1294845Y1132556*
X1295186Y1132400*
X1295414*
X1295755Y1132556*
X1295982Y1133025*
X1296095Y1133806*
Y1134275*
X1295982Y1135056*
X1295755Y1135525*
X1295414Y1135681*
X1295186*
X1290300Y1097056D02*
X1290527Y1097213D01*
X1290527D02*
X1290868Y1097681D01*
Y1094400*
X1291891Y1097056D02*
X1292118Y1097213D01*
X1292118D02*
X1292459Y1097681D01*
Y1094400*
X1294959Y1096588D02*
X1294845Y1096119D01*
X1294618Y1095806*
X1294277Y1095650*
X1294164*
X1293823Y1095806*
X1293595Y1096119*
X1293482Y1096588*
X1293482D02*
Y1096744D01*
X1293595Y1097213*
X1293595D02*
X1293823Y1097525D01*
X1294164Y1097681*
X1294277*
X1294618Y1097525*
X1294845Y1097213*
X1294845D02*
X1294959Y1096588D01*
X1294959D02*
Y1095806D01*
X1294845Y1095025*
X1294618Y1094556*
X1294277Y1094400*
X1294050*
X1293709Y1094556*
X1293595Y1094869*
X1093414Y1134900D02*
Y1135056D01*
X1093527Y1135369*
X1093641Y1135525*
X1093868Y1135681*
X1094323*
X1094550Y1135525*
X1094664Y1135369*
X1094777Y1135056*
Y1134744*
X1094664Y1134431*
X1094436Y1133963*
X1094436D02*
X1093300Y1132400D01*
X1094891*
G54D178*
X1014400Y1116200D02*
Y1090200D01*
X999900*
Y1116200*
X1014400*
X979500Y1060000D02*
Y1046000D01*
X986500*
Y1060000*
X979500*
X988578Y996705D02*
X992328D01*
X993031Y996534*
X993266Y996364*
X993500Y996023*
Y995682*
X993266Y995341*
X993031Y995170*
X992328Y995000*
X991859*
X989750Y998409D02*
X989516D01*
X989047Y998580*
X988812Y998750*
X988812D02*
X988578Y999091D01*
Y999773*
X988812Y1000114*
X988812D02*
X989047Y1000284D01*
X989516Y1000455*
X989984*
X990453Y1000284*
X991156Y999943*
X993500Y998239*
Y1000625*
X1007273Y1088380D02*
Y1085239D01*
X1007443Y1084611*
X1007784Y1084192*
X1008295Y1083983*
X1008636*
X1009148Y1084192*
X1009489Y1084611*
X1009659Y1085239*
Y1088380*
X1011193Y1087542D02*
X1011534Y1087752D01*
X1012045Y1088380*
Y1083983*
X1373198Y1023050D02*
X1372855Y1022925D01*
X1372511Y1022675*
X1372339Y1022425*
Y1021925*
X1372511Y1021675*
X1372855Y1021425*
X1373198Y1021300*
X1373714Y1021175*
X1374573*
X1375089Y1021300*
X1375433Y1021425*
X1375777Y1021675*
X1375948Y1021925*
Y1022425*
X1375777Y1022675*
X1375433Y1022925*
X1375089Y1023050*
X1374573*
Y1022425D02*
Y1023050D01*
X1372339Y1024175D02*
X1375948D01*
X1372339D02*
X1375948Y1025925D01*
X1372339D02*
X1375948D01*
X1372339Y1027050D02*
X1375948D01*
X1372339D02*
Y1027925D01*
X1372511Y1028300*
X1372855Y1028550*
X1373198Y1028675*
X1373714Y1028800*
X1374573*
X1375089Y1028675*
X1375433Y1028550*
X1375777Y1028300*
X1375948Y1027925*
Y1027050*
X1372339Y1051300D02*
Y1052675D01*
X1373714Y1051925*
Y1052300*
X1373886Y1052550*
X1374058Y1052675*
X1374573Y1052800*
X1374917*
X1375433Y1052675*
X1375777Y1052425*
X1375948Y1052050*
Y1051675*
X1375777Y1051300*
X1375605Y1051175*
X1375261Y1051050*
X1372339Y1053925D02*
X1375948Y1054925D01*
X1372339Y1055925D02*
X1375948Y1054925D01*
X1372339Y1057300D02*
Y1058675D01*
X1373714Y1057925*
Y1058300*
X1373886Y1058550*
X1374058Y1058675*
X1374573Y1058800*
X1374917*
X1375433Y1058675*
X1375777Y1058425*
X1375948Y1058050*
Y1057675*
X1375777Y1057300*
X1375605Y1057175*
X1375261Y1057050*
X1652339Y1171300D02*
Y1172675D01*
X1653714Y1171925*
Y1172300*
X1653886Y1172550*
X1654058Y1172675*
X1654573Y1172800*
X1654917*
X1655433Y1172675*
X1655777Y1172425*
X1655948Y1172050*
Y1171675*
X1655777Y1171300*
X1655605Y1171175*
X1655261Y1171050*
X1652339Y1173925D02*
X1655948Y1174925D01*
X1652339Y1175925D02*
X1655948Y1174925D01*
X1652339Y1177300D02*
Y1178675D01*
X1653714Y1177925*
Y1178300*
X1653886Y1178550*
X1654058Y1178675*
X1654573Y1178800*
X1654917*
X1655433Y1178675*
X1655777Y1178425*
X1655948Y1178050*
Y1177675*
X1655777Y1177300*
X1655605Y1177175*
X1655261Y1177050*
X1653198Y1203050D02*
X1652855Y1202925D01*
X1652511Y1202675*
X1652339Y1202425*
Y1201925*
X1652511Y1201675*
X1652855Y1201425*
X1653198Y1201300*
X1653714Y1201175*
X1654573*
X1655089Y1201300*
X1655433Y1201425*
X1655777Y1201675*
X1655948Y1201925*
Y1202425*
X1655777Y1202675*
X1655433Y1202925*
X1655089Y1203050*
X1654573*
Y1202425D02*
Y1203050D01*
X1652339Y1204175D02*
X1655948D01*
X1652339D02*
X1655948Y1205925D01*
X1652339D02*
X1655948D01*
X1652339Y1207050D02*
X1655948D01*
X1652339D02*
Y1207925D01*
X1652511Y1208300*
X1652855Y1208550*
X1653198Y1208675*
X1653714Y1208800*
X1654573*
X1655089Y1208675*
X1655433Y1208550*
X1655777Y1208300*
X1655948Y1207925*
Y1207050*
X1652339Y1051300D02*
Y1052675D01*
X1653714Y1051925*
Y1052300*
X1653886Y1052550*
X1654058Y1052675*
X1654573Y1052800*
X1654917*
X1655433Y1052675*
X1655777Y1052425*
X1655948Y1052050*
Y1051675*
X1655777Y1051300*
X1655605Y1051175*
X1655261Y1051050*
X1652339Y1053925D02*
X1655948Y1054925D01*
X1652339Y1055925D02*
X1655948Y1054925D01*
X1652339Y1057300D02*
Y1058675D01*
X1653714Y1057925*
Y1058300*
X1653886Y1058550*
X1654058Y1058675*
X1654573Y1058800*
X1654917*
X1655433Y1058675*
X1655777Y1058425*
X1655948Y1058050*
Y1057675*
X1655777Y1057300*
X1655605Y1057175*
X1655261Y1057050*
X1653198Y1023050D02*
X1652855Y1022925D01*
X1652511Y1022675*
X1652339Y1022425*
Y1021925*
X1652511Y1021675*
X1652855Y1021425*
X1653198Y1021300*
X1653714Y1021175*
X1654573*
X1655089Y1021300*
X1655433Y1021425*
X1655777Y1021675*
X1655948Y1021925*
Y1022425*
X1655777Y1022675*
X1655433Y1022925*
X1655089Y1023050*
X1654573*
Y1022425D02*
Y1023050D01*
X1652339Y1024175D02*
X1655948D01*
X1652339D02*
X1655948Y1025925D01*
X1652339D02*
X1655948D01*
X1652339Y1027050D02*
X1655948D01*
X1652339D02*
Y1027925D01*
X1652511Y1028300*
X1652855Y1028550*
X1653198Y1028675*
X1653714Y1028800*
X1654573*
X1655089Y1028675*
X1655433Y1028550*
X1655777Y1028300*
X1655948Y1027925*
Y1027050*
X1372339Y1171350D02*
Y1172725D01*
X1373714Y1171975*
Y1172350*
X1373886Y1172600*
X1374058Y1172725*
X1374573Y1172850*
X1374917*
X1375433Y1172725*
X1375777Y1172475*
X1375948Y1172100*
Y1171725*
X1375777Y1171350*
X1375605Y1171225*
X1375261Y1171100*
X1372339Y1173975D02*
X1375948Y1174975D01*
X1372339Y1175975D02*
X1375948Y1174975D01*
X1372339Y1177350D02*
Y1178725D01*
X1373714Y1177975*
Y1178350*
X1373886Y1178600*
X1374058Y1178725*
X1374573Y1178850*
X1374917*
X1375433Y1178725*
X1375777Y1178475*
X1375948Y1178100*
Y1177725*
X1375777Y1177350*
X1375605Y1177225*
X1375261Y1177100*
X1373198Y1203050D02*
X1372855Y1202925D01*
X1372511Y1202675*
X1372339Y1202425*
Y1201925*
X1372511Y1201675*
X1372855Y1201425*
X1373198Y1201300*
X1373714Y1201175*
X1374573*
X1375089Y1201300*
X1375433Y1201425*
X1375777Y1201675*
X1375948Y1201925*
Y1202425*
X1375777Y1202675*
X1375433Y1202925*
X1375089Y1203050*
X1374573*
Y1202425D02*
Y1203050D01*
X1372339Y1204175D02*
X1375948D01*
X1372339D02*
X1375948Y1205925D01*
X1372339D02*
X1375948D01*
X1372339Y1207050D02*
X1375948D01*
X1372339D02*
Y1207925D01*
X1372511Y1208300*
X1372855Y1208550*
X1373198Y1208675*
X1373714Y1208800*
X1374573*
X1375089Y1208675*
X1375433Y1208550*
X1375777Y1208300*
X1375948Y1207925*
Y1207050*
X677500Y509000D02*
X1955900D01*
Y1658500*
X677500*
Y509000*
X1235900D02*
X1955900D01*
Y704000*
X1235900*
Y509000*
X1520900Y649000D02*
X1955900D01*
Y509000*
X1520900*
Y649000*
Y539000D02*
X1955900D01*
Y509000*
X1520900*
Y539000*
X1680900*
Y509000*
X1520900*
Y539000*
Y649000D02*
X1955900D01*
Y704000*
X1520900*
Y649000*
Y579000D02*
X1955900D01*
Y649000*
X1520900*
Y579000*
X1820900Y539000D02*
X1955900D01*
Y579000*
X1820900*
Y539000*
X1235900D02*
X1395900D01*
Y509000*
X1235900*
Y539000*
X1395900Y509000D02*
X1520900D01*
Y539000*
X1395900*
Y509000*
X1563975Y1143500D02*
G75*
G03X1563975I-1238J0D01*
G01X1560975Y1134650D02*
X1562400Y1141175D01*
X1561950*
X1560468Y1134636D02*
X1561893Y1141161D01*
X1560450Y1134650D02*
X1560975D01*
X1562700Y1137650D02*
X1562025Y1134575D01*
X1564650Y1137650D02*
X1562700D01*
X1564950Y1138925D02*
X1564650Y1137650D01*
X1562925Y1138925D02*
X1564950D01*
X1563450Y1141100D02*
X1562925Y1138925D01*
X1564500Y1141250D02*
X1563975D01*
X1563825Y1141175*
X1563450Y1141100*
X1565175Y1141400D02*
X1564800Y1141250D01*
X1564500*
X1566000Y1141400D02*
X1565175D01*
X1566300Y1141250D02*
X1566075D01*
X1566000Y1141400*
X1566825Y1141175D02*
X1566300Y1141250D01*
X1567425Y1140725D02*
X1567125Y1141100D01*
X1566825Y1141175*
X1567575Y1140350D02*
X1567425Y1140725D01*
X1567575Y1140050D02*
X1567425Y1140350D01*
X1567575*
X1567650Y1139450D02*
X1567575Y1140050D01*
X1567725Y1138775D02*
X1567650Y1139450D01*
X1567725Y1138100D02*
Y1138775D01*
X1567875Y1137800D02*
X1567725Y1138100D01*
X1568475Y1137050D02*
X1568175Y1137575D01*
X1567875Y1137800*
X1568775Y1136450D02*
X1568475Y1137050D01*
X1568775Y1135925D02*
Y1136450D01*
X1568925Y1135175D02*
X1568775Y1135925D01*
X1568700Y1133825D02*
X1568925Y1134650D01*
Y1135175*
X1568475Y1133525D02*
X1568700Y1133825D01*
X1567575Y1133150D02*
X1568475Y1133525D01*
X1566525Y1132700D02*
X1567575Y1133150D01*
X1565625Y1132400D02*
X1566525Y1132700D01*
X1564050Y1131725D02*
X1564875Y1132100D01*
X1565625Y1132400*
X1563450Y1131425D02*
X1564050Y1131725D01*
X1562700Y1130975D02*
X1563450Y1131425D01*
X1562400Y1130375D02*
X1562700Y1130975D01*
X1562100Y1129400D02*
X1562400Y1130375D01*
X1562175Y1128725D02*
X1562100Y1129400D01*
X1562325Y1128275D02*
X1562175Y1128725D01*
X1562475Y1127975D02*
X1562325Y1128275D01*
Y1127600D02*
X1562475Y1127975D01*
X1561350Y1127450D02*
X1562100Y1127375D01*
X1562325Y1127600*
X1560375Y1127975D02*
X1561350Y1127450D01*
X1559100Y1128575D02*
X1560375Y1127975D01*
X1558425Y1129400D02*
X1559100Y1128575D01*
X1558050Y1129925D02*
X1558425Y1129400D01*
X1557675Y1130900D02*
X1558050Y1129925D01*
X1557675Y1131275D02*
Y1130900D01*
X1556850Y1132550D02*
X1557675Y1131275D01*
X1556250Y1133375D02*
X1556850Y1132550D01*
X1555800Y1133825D02*
X1556250Y1133375D01*
X1554750Y1133450D02*
X1555500Y1133975D01*
X1555800Y1133825*
X1554375Y1133150D02*
X1554750Y1133450D01*
X1553550Y1133150D02*
X1554375D01*
X1552500Y1133750D02*
X1553550Y1133150D01*
X1559325Y1133975D02*
Y1134200D01*
X1560150Y1137650*
X1559625Y1133675D02*
X1559325Y1133975D01*
X1560150Y1133375D02*
X1559625Y1133675D01*
X1560750Y1133150D02*
X1560150Y1133375D01*
X1561200Y1133150D02*
X1560750D01*
X1562175Y1133450D02*
X1561575Y1133225D01*
X1561200Y1133150*
X1562400Y1134050D02*
Y1133750D01*
X1562175Y1133525*
Y1133450*
Y1134500D02*
X1562325Y1134350D01*
X1562400Y1134200*
Y1134050*
X1562175Y1134500D02*
X1562025Y1134575D01*
X1551675Y1135025D02*
X1552500Y1133750D01*
X1551000Y1135925D02*
X1551675Y1135025D01*
X1549725Y1136975D02*
X1551000Y1135925D01*
X1549125Y1138100D02*
X1549350Y1137575D01*
X1549725Y1136975*
X1554300Y1138100D02*
X1549125D01*
X1560150Y1137650D02*
X1558050D01*
X1558500Y1139000*
X1560375*
X1559400Y1145825D02*
X1554300D01*
Y1138100*
X1560375Y1139000D02*
X1560975Y1141250D01*
X1560675Y1141400*
X1560000Y1141700*
X1559850Y1142000*
X1559400Y1142375*
Y1145825*
G54D179*
X1031500Y1103250D02*
Y1118750D01*
X1040500*
Y1103250*
X1031500*
X978500Y1071250D02*
Y1086750D01*
X987500*
Y1071250*
X978500*
X987500Y1115750D02*
Y1100250D01*
X978500*
Y1115750*
X987500*
X979000Y1043000D02*
X987000D01*
Y1027000*
X979000*
Y1043000*
X1019500Y1202000D02*
Y1182000D01*
X987500*
Y1202000*
X1019500*
X1010300Y1169900D02*
Y1139500D01*
X999001Y1169900D02*
X988765D01*
X999001Y1139500D02*
X988765D01*
X978135Y1169900D02*
X971048D01*
Y1139500*
X978135*
X1017500Y1147250D02*
Y1162750D01*
X1026500*
Y1147250*
X1017500*
X983406Y1062368D02*
G03X983406I-500J0D01*
G01X1643250Y1094500D02*
X1658750D01*
Y1085500*
X1643250*
Y1094500*
Y1149500D02*
X1658750D01*
Y1140500*
X1643250*
Y1149500*
X971000Y1249000D02*
X1023500D01*
X976000D02*
Y1206500D01*
X971000D02*
Y1249000D01*
X1023500D02*
Y1206500D01*
X971000*
X1044045Y1117000D02*
X1043909Y1117375D01*
X1043636Y1117750*
X1043364Y1117938*
X1043364D02*
X1042818D01*
X1042818D02*
X1042545Y1117750D01*
X1042273Y1117375*
X1042136Y1117000*
X1042000Y1116438*
X1042000D02*
Y1115500D01*
X1042136Y1114938*
X1042136D02*
X1042273Y1114563D01*
X1042273D02*
X1042545Y1114188D01*
X1042545D02*
X1042818Y1114000D01*
X1043364*
X1043636Y1114188*
X1043636D02*
X1043909Y1114563D01*
X1043909D02*
X1044045Y1114938D01*
X1045273Y1117188D02*
X1045545Y1117375D01*
X1045955Y1117938*
X1045955D02*
Y1114000D01*
X982045Y1092000D02*
X981909Y1092375D01*
X981636Y1092750*
X981364Y1092938*
X981364D02*
X980818D01*
X980818D02*
X980545Y1092750D01*
X980273Y1092375*
X980136Y1092000*
X980000Y1091438*
X980000D02*
Y1090500D01*
X980136Y1089938*
X980136D02*
X980273Y1089563D01*
X980273D02*
X980545Y1089188D01*
X980545D02*
X980818Y1089000D01*
X981364*
X981636Y1089188*
X981636D02*
X981909Y1089563D01*
X981909D02*
X982045Y1089938D01*
X983409Y1092000D02*
Y1092188D01*
X983409D02*
X983545Y1092563D01*
X983545D02*
X983682Y1092750D01*
X983955Y1092938*
X983955D02*
X984500D01*
X984500D02*
X984773Y1092750D01*
X984909Y1092563*
X984909D02*
X985045Y1092188D01*
X985045D02*
Y1091813D01*
X985045D02*
X984909Y1091438D01*
X984909D02*
X984636Y1090875D01*
X983273Y1089000*
X985182*
X982045Y1098000D02*
X981909Y1098375D01*
X981636Y1098750*
X981364Y1098938*
X981364D02*
X980818D01*
X980818D02*
X980545Y1098750D01*
X980273Y1098375*
X980136Y1098000*
X980000Y1097438*
X980000D02*
Y1096500D01*
X980136Y1095938*
X980136D02*
X980273Y1095563D01*
X980273D02*
X980545Y1095188D01*
X980545D02*
X980818Y1095000D01*
X981364*
X981636Y1095188*
X981636D02*
X981909Y1095563D01*
X981909D02*
X982045Y1095938D01*
X983545Y1098938D02*
X985045D01*
X985045D02*
X984227Y1097438D01*
X984227D02*
X984636D01*
X984636D02*
X984909Y1097250D01*
X985045Y1097063*
X985045D02*
X985182Y1096500D01*
Y1096125*
X985045Y1095563*
X985045D02*
X984773Y1095188D01*
X984773D02*
X984364Y1095000D01*
X983955*
X983545Y1095188*
X983545D02*
X983409Y1095375D01*
X983273Y1095750*
X974063Y1028000D02*
X978000D01*
X974063D02*
Y1029227D01*
X974063D02*
X974250Y1029636D01*
X974438Y1029773*
X974438D02*
X974813Y1029909D01*
X974813D02*
X975188D01*
X975188D02*
X975563Y1029773D01*
X975563D02*
X975750Y1029636D01*
X975938Y1029227*
X975938D02*
Y1028000D01*
Y1028955D02*
X978000Y1029909D01*
X974813Y1031136D02*
X974625Y1031409D01*
X974063Y1031818*
X974063D02*
X978000D01*
X1016409Y1179875D02*
X1016136Y1180250D01*
X1015727Y1180438*
X1015727D02*
X1015182D01*
X1015182D02*
X1014773Y1180250D01*
X1014500Y1179875*
Y1179500*
X1014636Y1179125*
X1014773Y1178938*
X1014773D02*
X1015045Y1178750D01*
X1015864Y1178375*
X1016136Y1178188*
X1016136D02*
X1016273Y1178000D01*
X1016409Y1177625*
Y1177063*
X1016409D02*
X1016136Y1176688D01*
X1016136D02*
X1015727Y1176500D01*
X1015182*
X1014773Y1176688*
X1014773D02*
X1014500Y1177063D01*
X1017636Y1179688D02*
X1017909Y1179875D01*
X1018318Y1180438*
X1018318D02*
Y1176500D01*
X1011862Y1164564D02*
X1014862D01*
X1014862D02*
X1015425Y1164427D01*
X1015612Y1164291*
X1015612D02*
X1015800Y1164018D01*
Y1163745*
X1015612Y1163473*
X1015612D02*
X1015425Y1163336D01*
X1014862Y1163200*
X1014862D02*
X1014487D01*
X1012612Y1165791D02*
X1012425Y1166064D01*
X1011862Y1166473*
X1011862D02*
X1015800D01*
X1011862Y1169609D02*
X1015800Y1168245D01*
X1011862Y1167700D02*
Y1169609D01*
X1021000Y1165845D02*
X1020625Y1165709D01*
X1020250Y1165436*
X1020062Y1165164*
X1020062D02*
Y1164618D01*
X1020062D02*
X1020250Y1164345D01*
X1020625Y1164073*
X1021000Y1163936*
X1021562Y1163800*
X1021562D02*
X1022500D01*
X1023062Y1163936*
X1023062D02*
X1023437Y1164073D01*
X1023437D02*
X1023812Y1164345D01*
X1023812D02*
X1024000Y1164618D01*
Y1165164*
X1023812Y1165436*
X1023812D02*
X1023437Y1165709D01*
X1023437D02*
X1023062Y1165845D01*
X1020062Y1168436D02*
X1022687Y1167073D01*
X1022687D02*
Y1169118D01*
X1020062Y1168436D02*
X1024000D01*
X1052105Y1106122D02*
Y1102372D01*
X1051934Y1101669*
X1051764Y1101434*
X1051423Y1101200*
X1051082*
X1050741Y1101434*
X1050570Y1101669*
X1050400Y1102372*
Y1102841*
X1053980Y1106122D02*
X1055855D01*
X1054832Y1104247*
X1055343*
X1055684Y1104013*
X1055684D02*
X1055855Y1103778D01*
X1056025Y1103075*
Y1102606*
X1055855Y1101903*
X1055514Y1101434*
X1055002Y1101200*
X1054491*
X1053980Y1101434*
X1053809Y1101669*
X1053639Y1102138*
X974563Y1047000D02*
X978500D01*
X974563D02*
Y1047955D01*
X974563D02*
X974750Y1048364D01*
X975125Y1048636*
X975500Y1048773*
X976063Y1048909*
X976063D02*
X977000D01*
X977563Y1048773*
X977563D02*
X977938Y1048636D01*
X977938D02*
X978313Y1048364D01*
X978313D02*
X978500Y1047955D01*
Y1047000*
X975313Y1050136D02*
X975125Y1050409D01*
X974563Y1050818*
X974563D02*
X978500D01*
X1655045Y1083000D02*
X1654909Y1083375D01*
X1654636Y1083750*
X1654364Y1083938*
X1654364D02*
X1653818D01*
X1653818D02*
X1653545Y1083750D01*
X1653273Y1083375*
X1653136Y1083000*
X1653000Y1082438*
X1653000D02*
Y1081500D01*
X1653136Y1080938*
X1653136D02*
X1653273Y1080563D01*
X1653273D02*
X1653545Y1080188D01*
X1653545D02*
X1653818Y1080000D01*
X1654364*
X1654636Y1080188*
X1654636D02*
X1654909Y1080563D01*
X1654909D02*
X1655045Y1080938D01*
X1658045Y1083938D02*
X1656682D01*
X1656682D02*
X1656545Y1082250D01*
X1656682Y1082438*
X1656682D02*
X1657091Y1082625D01*
X1657500*
X1657909Y1082438*
X1657909D02*
X1658182Y1082063D01*
X1658182D02*
X1658318Y1081500D01*
X1658182Y1081125*
X1658045Y1080563*
X1658045D02*
X1657773Y1080188D01*
X1657773D02*
X1657364Y1080000D01*
X1656955*
X1656545Y1080188*
X1656545D02*
X1656409Y1080375D01*
X1656273Y1080750*
X1655045Y1154000D02*
X1654909Y1154375D01*
X1654636Y1154750*
X1654364Y1154938*
X1654364D02*
X1653818D01*
X1653818D02*
X1653545Y1154750D01*
X1653273Y1154375*
X1653136Y1154000*
X1653000Y1153438*
X1653000D02*
Y1152500D01*
X1653136Y1151938*
X1653136D02*
X1653273Y1151563D01*
X1653273D02*
X1653545Y1151188D01*
X1653545D02*
X1653818Y1151000D01*
X1654364*
X1654636Y1151188*
X1654636D02*
X1654909Y1151563D01*
X1654909D02*
X1655045Y1151938D01*
X1657909Y1154375D02*
X1657773Y1154750D01*
X1657364Y1154938*
X1657364D02*
X1657091D01*
X1657091D02*
X1656682Y1154750D01*
X1656409Y1154188*
X1656409D02*
X1656273Y1153250D01*
Y1152313*
X1656273D02*
X1656409Y1151563D01*
X1656409D02*
X1656682Y1151188D01*
X1656682D02*
X1657091Y1151000D01*
X1657227*
X1657636Y1151188*
X1657636D02*
X1657909Y1151563D01*
X1657909D02*
X1658045Y1152125D01*
Y1152313*
X1658045D02*
X1657909Y1152875D01*
X1657636Y1153250*
X1657227Y1153438*
X1657227D02*
X1657091D01*
X1657091D02*
X1656682Y1153250D01*
X1656409Y1152875*
X1656273Y1152313*
X1025062Y1244364D02*
X1028062D01*
X1028062D02*
X1028625Y1244227D01*
X1028812Y1244091*
X1028812D02*
X1029000Y1243818D01*
Y1243545*
X1028812Y1243273*
X1028812D02*
X1028625Y1243136D01*
X1028062Y1243000*
X1028062D02*
X1027687D01*
X1025812Y1245591D02*
X1025625Y1245864D01*
X1025062Y1246273*
X1025062D02*
X1029000D01*
X992400Y1061156D02*
X992627Y1061313D01*
X992627D02*
X992968Y1061781D01*
Y1058500*
X1016600Y1001056D02*
X1016827Y1001213D01*
X1016827D02*
X1017168Y1001681D01*
Y998400*
X1019327Y1001681D02*
X1018191Y999494D01*
X1019895*
X1019327Y1001681D02*
Y998400D01*
G54D180*
X1657375Y1105691D02*
X1662625D01*
X1657375Y1104418D02*
Y1106964D01*
Y1108600D02*
X1662625Y1111145D01*
X1657375D02*
X1662625Y1108600D01*
X1657375Y1112782D02*
X1662625D01*
X1657375D02*
X1662625Y1115327D01*
X1657375D02*
X1662625D01*
X1657375Y1118055D02*
X1657625Y1117509D01*
X1658375Y1117145*
X1659625Y1116964*
X1660375*
X1661625Y1117145*
X1662375Y1117509*
X1662625Y1118055*
Y1118418*
X1662375Y1118964*
X1661625Y1119327*
X1660375Y1119509*
X1659625*
X1658375Y1119327*
X1657625Y1118964*
X1657375Y1118418*
Y1118055*
Y1122236D02*
X1657625Y1121691D01*
X1658375Y1121327*
X1659625Y1121145*
X1660375*
X1661625Y1121327*
X1662375Y1121691*
X1662625Y1122236*
Y1122600*
X1662375Y1123145*
X1661625Y1123509*
X1660375Y1123691*
X1659625*
X1658375Y1123509*
X1657625Y1123145*
X1657375Y1122600*
Y1122236*
Y1125691D02*
Y1127691D01*
X1659375Y1126600*
Y1127145*
X1659625Y1127509*
X1659875Y1127691*
X1660625Y1127873*
X1661125*
X1661875Y1127691*
X1662375Y1127327*
X1662625Y1126782*
Y1126236*
X1662375Y1125691*
X1662125Y1125509*
X1661625Y1125327*
G74*
X0Y0D02*
M02*
