*
*
G04 PADS9.1 Build Number: 384028 generated Gerber (RS-274-X) file*
G04 PC Version=2.1*
*
%IN "PADS_{TEX137}_F2837x co"*%
*
%MOIN*%
*
%FSLAX35Y35*%
*
*
*
*
G04 PC Standard Apertures*
*
*
G04 Thermal Relief Aperture macro.*
%AMTER*
1,1,$1,0,0*
1,0,$1-$2,0,0*
21,0,$3,$4,0,0,45*
21,0,$3,$4,0,0,135*
%
*
*
G04 Annular Aperture macro.*
%AMANN*
1,1,$1,0,0*
1,0,$2,0,0*
%
*
*
G04 Odd Aperture macro.*
%AMODD*
1,1,$1,0,0*
1,0,$1-0.005,0,0*
%
*
*
G04 PC Custom Aperture Macros*
*
*
*
*
*
*
G04 PC Aperture Table*
*
%ADD015C,0.005*%
%ADD025R,0.06X0.05*%
%ADD034R,0.04X0.016*%
%ADD038C,0.04*%
%ADD042C,0.001*%
%ADD047C,0.02*%
%ADD087R,0.039X0.027*%
%ADD092R,0.025X0.025*%
%ADD093R,0.043X0.039*%
%ADD094R,0.051X0.059*%
%ADD095R,0.039X0.043*%
%ADD097R,0.062X0.062*%
%ADD098C,0.062*%
%ADD099R,0.059X0.051*%
%ADD106C,0.018*%
%ADD120R,0.065X0.026*%
%ADD131R,0.071X0.063*%
%ADD158C,0*%
%ADD159R,0.01575X0.05315*%
%ADD160R,0.05906X0.05118*%
%ADD161R,0.09055X0.05118*%
%ADD162R,0.0748X0.0748*%
%ADD163R,0.01575X0.0315*%
%ADD164R,0.1X0.105*%
%ADD165R,0.05X0.04*%
%ADD166R,0.027X0.039*%
%ADD167R,0.03X0.065*%
%ADD168R,0.05X0.063*%
%ADD174R,0.08X0.02*%
%ADD175R,0.088X0.1*%
%ADD176R,0.065X0.015*%
%ADD180R,0.03X0.05*%
%ADD184R,0.01969X0.10724*%
%ADD188C,0.01*%
%ADD191C,0.012*%
%ADD193C,0.028*%
%ADD194C,0.008*%
%ADD199C,0.006*%
%ADD201C,0.005*%
%ADD247C,0.02*%
%ADD248C,0.025*%
%ADD264R,0.048X0.026*%
%ADD265R,0.026X0.048*%
%ADD266C,0.017*%
%ADD269O,0.0315X0.00906*%
%ADD271R,0.01102X0.0315*%
%ADD272R,0.065X0.095*%
%ADD273C,0.0045*%
%ADD274C,0.0053*%
%ADD275C,0.0056*%
%ADD276C,0.015*%
%ADD277C,0.0055*%
%ADD290C,0.03*%
%ADD297R,0.022X0.022*%
%ADD298R,0.065X0.016*%
%ADD299R,0.032X0.059*%
%ADD300R,0.055X0.076*%
%ADD301R,0.076X0.055*%
*
*
*
*
G04 PC Circuitry*
G04 Layer Name PADS_{TEX137}_F2837x co - circuitry*
%LPD*%
*
*
G04 PC Custom Flashes*
G04 Layer Name PADS_{TEX137}_F2837x co - flashes*
%LPD*%
*
*
G04 PC Circuitry*
G04 Layer Name PADS_{TEX137}_F2837x co - circuitry*
%LPD*%
*
G54D15*
G01X1100256Y945519D03*
X1275256Y1018019D03*
X1365256Y955519D03*
G54D25*
X1359654Y920346D03*
Y911346D03*
G54D34*
X1098500Y888840D03*
Y886280D03*
Y883720D03*
Y881160D03*
X1116500D03*
Y883720D03*
Y886280D03*
Y888840D03*
G54D38*
X1253500Y939500D03*
X980000Y935000D03*
X990000D03*
X980000Y915000D03*
X990000D03*
X1332054Y868752D03*
X1208154Y902846D03*
X1223396Y949175D03*
X1370154Y899846D03*
G54D42*
X1000000Y1013780D03*
Y1000000D03*
G54D47*
X1327531Y907453D03*
X1331469D03*
X1327531Y901547D03*
X1331469D03*
G54D87*
X1229254Y1011106D03*
Y1014846D03*
Y1018586D03*
X1219054D03*
Y1011106D03*
G54D92*
X1257654Y1020346D03*
Y1024346D03*
X1172154Y1001846D03*
Y1005846D03*
X1039523Y960530D03*
Y964530D03*
X1044342Y951390D03*
X1048342D03*
X1044342Y941390D03*
X1048342D03*
X1047469Y970177D03*
Y966177D03*
X1048342Y946390D03*
X1044342D03*
X1016256Y936019D03*
X1020256D03*
X998224Y955972D03*
X1002224D03*
X1034894Y980817D03*
Y976817D03*
X1025024Y983349D03*
X1021024D03*
X998244Y963067D03*
X1002244D03*
X1031756Y936019D03*
X1035756D03*
X989100Y952600D03*
Y956600D03*
X988842Y961890D03*
Y965890D03*
X1009342Y946390D03*
X1013342D03*
X1029824Y981349D03*
Y977349D03*
X1013177Y972372D03*
X1009177D03*
X988704Y942057D03*
X992704D03*
X1053981Y1006390D03*
Y1010390D03*
X1044981Y996390D03*
X1040981D03*
X1177654Y1001846D03*
Y1005846D03*
X1208154Y1024846D03*
X1212154D03*
X1173654Y892846D03*
Y896846D03*
X1055824Y974549D03*
X1059824D03*
X1097024D03*
X1093024D03*
X1116900Y1008700D03*
X1120900D03*
X1104600Y1010500D03*
Y1014500D03*
X1313329Y931896D03*
X1317329D03*
X1182654Y1001846D03*
Y1005846D03*
X1236500Y961900D03*
X1240500D03*
X1204654Y928346D03*
X1208654D03*
X1208154Y957846D03*
X1204154D03*
X1330500Y925200D03*
Y921200D03*
X1335500Y921000D03*
Y925000D03*
X1332054Y877952D03*
X1336054D03*
Y882052D03*
X1340054D03*
X1235154Y1020346D03*
Y1024346D03*
X1179154Y892846D03*
Y896846D03*
X1175654Y972346D03*
Y976346D03*
X1195154Y946846D03*
Y942846D03*
X1336054Y874052D03*
X1332054D03*
X1351654Y915346D03*
Y911346D03*
X1312000Y890500D03*
X1316000D03*
X1312654Y902452D03*
Y906452D03*
X1236500Y934300D03*
X1240500D03*
X1019342Y946390D03*
X1023342D03*
X1189154Y971846D03*
Y975846D03*
X1312000Y895500D03*
X1316000D03*
X1318354Y906452D03*
Y902452D03*
X1343654Y901152D03*
Y905152D03*
X1331300Y915700D03*
X1335300D03*
G54D93*
X984850Y947600D03*
X991550D03*
X1152204Y975552D03*
X1145504D03*
G54D94*
X1052731Y1020390D03*
X1045231D03*
X1040231Y989390D03*
X1047731D03*
X1331679Y931896D03*
X1324179D03*
X1325379Y941346D03*
X1317879D03*
X1318004Y874052D03*
X1325504D03*
G54D95*
X1034500Y857650D03*
Y864350D03*
X1028000Y857650D03*
Y864350D03*
X1033981Y1004040D03*
Y1010740D03*
X1021500Y857650D03*
Y864350D03*
X1017154Y902696D03*
Y895996D03*
X1009654Y902696D03*
Y895996D03*
X1031654Y902696D03*
Y895996D03*
X1088154Y902696D03*
Y895996D03*
X1054000Y857650D03*
Y864350D03*
X1060500Y857650D03*
Y864350D03*
X1067000Y857650D03*
Y864350D03*
X1073500Y857650D03*
Y864350D03*
X1080000Y857650D03*
Y864350D03*
X1086500Y857650D03*
Y864350D03*
X1045654Y902696D03*
Y895996D03*
X1052654Y902696D03*
Y895996D03*
X1073654Y902696D03*
Y895996D03*
X1024154Y902696D03*
Y895996D03*
X1066154Y902696D03*
Y895996D03*
X1038654Y902696D03*
Y895996D03*
X1059654Y902696D03*
Y895996D03*
X1080654Y902696D03*
Y895996D03*
X1201154Y999996D03*
Y1006696D03*
X1015000Y857650D03*
Y864350D03*
X1041000Y857650D03*
Y864350D03*
X1047500Y857650D03*
Y864350D03*
X1212654Y1018196D03*
Y1011496D03*
X1343654Y895202D03*
Y888502D03*
X1198154Y983996D03*
Y990696D03*
G54D97*
X1224154Y911846D03*
X1234154D03*
X1244154D03*
X1254154D03*
X1264154D03*
X1274154D03*
G54D98*
X1224154Y903972D03*
Y896098D03*
X1234154Y903972D03*
Y896098D03*
X1244154Y903972D03*
Y896098D03*
X1254154Y903972D03*
Y896098D03*
X1264154Y903972D03*
Y896098D03*
X1274154Y903972D03*
Y896098D03*
G54D99*
X1241356Y1016640D03*
Y1024140D03*
X1251356Y1016640D03*
Y1024140D03*
X1218154Y967602D03*
Y960102D03*
X1120654Y934096D03*
Y926596D03*
Y951596D03*
Y944096D03*
X1343654Y919596D03*
Y912096D03*
X1228800Y960050D03*
Y967550D03*
G54D106*
X1013654Y891346D03*
X1028018Y891873D03*
X1024154Y891846D03*
X1024260Y874346D03*
X1009654Y891846D03*
X1017154D03*
X1017240Y874000D03*
X1010000Y873846D03*
X1001654Y862846D03*
X999618Y860990D03*
X1003654Y860346D03*
X1005618Y865346D03*
X1011618Y847990D03*
X1003654Y867846D03*
X1006654Y872346D03*
X1019654Y845846D03*
X1013654Y881346D03*
X1028054Y880952D03*
X1009900Y906500D03*
X1017050D03*
X1020700D03*
X1024200D03*
X1096738Y866990D03*
X1038295Y846716D03*
X1091895Y907916D03*
X1096595Y892916D03*
X1035195Y846716D03*
X1074700Y846700D03*
X1078400Y845900D03*
X1063500Y845800D03*
X1060000Y845500D03*
X1104400Y880400D03*
X1077600Y848500D03*
X1099600Y870800D03*
X1099200Y875200D03*
X1106800Y899600D03*
X1080654Y873846D03*
X1109193Y847940D03*
X1108500Y857700D03*
X1105858Y856252D03*
X1092151Y845650D03*
X1091854Y848252D03*
X1088754Y845552D03*
X1088654Y848352D03*
X1085554Y845552D03*
X1085454Y848152D03*
X1101479Y862727D03*
X1098504Y862302D03*
X1041954Y891946D03*
X1056154Y891752D03*
X1069954Y891746D03*
X1084600Y892000D03*
X1080654Y891846D03*
X1088600Y868346D03*
X1090800Y870800D03*
X1088154Y891846D03*
Y873846D03*
X1066154Y891846D03*
X1078344Y871802D03*
X1073654Y891846D03*
X1078154Y874346D03*
X1073654D03*
X1066260Y874240D03*
X1052154Y891846D03*
X1059654D03*
X1059700Y874000D03*
X1052260Y873846D03*
X1038154Y891846D03*
X1046654Y870346D03*
X1045654Y891846D03*
X1049154Y870346D03*
X1045654Y874346D03*
X1039154D03*
X1033454Y871452D03*
X1035154Y873352D03*
X1031654Y891846D03*
X1031740Y874388D03*
X1081000Y850400D03*
X1041954Y880952D03*
X1055554Y881252D03*
X1069254D03*
X1084504D03*
X1031900Y906500D03*
X1038500D03*
X1045650D03*
X1049200D03*
X1052800D03*
X1059400D03*
X1066000D03*
X1073700D03*
X1077200D03*
X1080850D03*
X1088000D03*
X1148976Y908228D03*
X1143340Y862452D03*
X1158395Y908216D03*
X1161595D03*
X1120195Y845816D03*
X1116500Y873000D03*
X1129300Y893200D03*
X1120200Y881200D03*
X1120500Y874200D03*
X1147700Y845500D03*
X1124300Y866700D03*
X1171800Y845600D03*
X1176400Y890900D03*
X1138000Y892800D03*
X1125600Y880000D03*
Y882400D03*
X1120400Y883600D03*
X1137600Y882000D03*
X1132400Y893200D03*
X1167874Y911378D03*
X1161575Y905079D03*
X1167874Y908228D03*
X1135003Y881448D03*
X1160303Y882248D03*
X1159803Y878248D03*
X1135803Y884148D03*
X1166953Y882453D03*
X1117354Y898646D03*
X1126954Y910646D03*
X1166953Y877953D03*
X1162703Y894253D03*
X1126954Y903846D03*
X1142677Y905079D03*
X1130079Y908228D03*
X1142677D03*
X1172193Y847940D03*
X1162743Y851090D03*
X1178448Y880497D03*
X1159593Y851090D03*
X1187348Y885097D03*
X1183622Y911378D03*
X1159593Y847940D03*
X1176048Y882397D03*
X1156443Y847940D03*
X1185948Y891397D03*
X1183622Y908228D03*
X1162743Y854240D03*
X1183622Y905079D03*
X1153293Y851090D03*
X1168554Y900552D03*
X1150143Y851140D03*
X1169654Y894630D03*
X1171024Y911378D03*
X1143843Y847940D03*
Y851090D03*
X1140693D03*
X1137543Y847940D03*
X1134393Y851090D03*
Y847940D03*
X1131243D03*
Y851090D03*
X1128147Y851086D03*
X1128093Y847940D03*
X1124943D03*
Y851090D03*
X1121793D03*
X1118643Y847940D03*
X1115493D03*
Y851090D03*
X1112343D03*
Y847940D03*
X1187943D03*
X1175343Y851090D03*
X1152803Y882248D03*
X1153303Y878248D03*
X1184793Y851090D03*
X1181643Y847940D03*
X1178493Y851090D03*
X1175343Y847940D03*
X1172193Y854240D03*
X1187943D03*
X1169043Y855815D03*
X1184793D03*
X1181643Y851090D03*
X1178493Y847940D03*
X1180473Y911378D03*
Y908228D03*
X1152126D03*
Y911378D03*
X1180473Y905079D03*
X1177323Y911378D03*
X1148976D03*
X1145827D03*
X1142677D03*
X1139527D03*
Y905079D03*
Y908228D03*
X1136378Y905079D03*
Y908228D03*
X1133228Y905079D03*
Y908228D03*
X1136378Y911378D03*
X1133228D03*
X1130079D03*
X1169043Y851090D03*
X1165893Y847940D03*
Y851090D03*
X1162743Y847940D03*
X1177323Y905079D03*
X1153293Y847940D03*
X1174173Y911378D03*
X1146993Y847940D03*
X1166647Y898653D03*
X1164725Y911378D03*
Y905079D03*
X1140693Y847940D03*
X1137543Y851090D03*
X1164725Y908228D03*
X1174173D03*
X1173654Y899952D03*
X1174173Y905079D03*
X1179154Y889846D03*
X1171024Y905079D03*
X1177323Y908228D03*
X1152126Y905079D03*
X1169500Y847500D03*
X1150000D03*
X1155300Y903600D03*
X1148976Y905079D03*
X1130079D03*
X1145827D03*
Y908228D03*
X1173700Y889400D03*
X1195900Y846600D03*
X1190851Y900498D03*
X1212146Y898349D03*
X1202648Y879297D03*
X1202748Y881997D03*
X1191093Y847940D03*
X1205246Y911249D03*
X1190303Y879248D03*
X1201718Y903990D03*
X1205454Y852852D03*
X1193051Y899598D03*
X1216051Y905598D03*
X1209946Y912649D03*
X1189921Y911378D03*
Y908228D03*
X1193500Y849000D03*
X1189921Y905079D03*
X1201718Y911690D03*
X1318354Y899052D03*
X1340954Y905152D03*
X1346469Y849515D03*
X1343319Y855350D03*
X1340169D03*
X1340176Y851090D03*
X1337026D03*
Y847940D03*
X1333876D03*
Y851090D03*
X1330726D03*
Y847940D03*
X1327576D03*
Y851090D03*
X1324426D03*
Y847940D03*
X1321276D03*
Y851090D03*
X1318126D03*
Y847940D03*
X1314976D03*
Y855900D03*
X1311826D03*
X1308676Y851090D03*
X1305525D03*
X1305526Y847940D03*
X1302375D03*
X1302376Y851090D03*
X1299226D03*
Y847940D03*
X1296076D03*
Y851090D03*
X1292926D03*
X1289776Y847940D03*
X1292926D03*
X1288154Y851952D03*
Y855952D03*
X1299000Y900500D03*
X1294000D03*
Y913000D03*
X1299000D03*
X1346000Y847000D03*
X1343326Y845577D03*
X1308676Y847940D03*
X1294000Y910500D03*
X1299000D03*
X1309754Y902352D03*
X1309354Y890452D03*
X1318054Y879252D03*
X1340000Y884500D03*
X1353197Y848051D03*
X1352769Y851090D03*
X1349619D03*
Y847940D03*
X1365369Y851090D03*
X1362219D03*
Y847940D03*
X1359069D03*
X1355919D03*
Y851090D03*
X1359069D03*
X1377500Y851000D03*
X1377418Y847290D03*
X1350510Y888450D03*
X1016300Y940000D03*
X1020100Y940200D03*
X1017979Y957890D03*
X996224Y942149D03*
X1005424Y972549D03*
X1022624Y971349D03*
X1020224Y974149D03*
X1005228Y956019D03*
X1009424Y948949D03*
X1005228Y944019D03*
X1027228Y958019D03*
Y968019D03*
X1010224Y940949D03*
X1023824Y992949D03*
X1025424Y973749D03*
X1016224Y972549D03*
X992224Y971349D03*
X985424Y942149D03*
X996224Y946149D03*
X995024Y957349D03*
X995424Y979749D03*
X1005424Y977349D03*
X1005024Y962949D03*
X1027424D03*
X992624Y954519D03*
X991728Y952019D03*
X1019024Y983749D03*
X1017024Y967749D03*
Y962949D03*
X1027941Y940519D03*
X991824Y966149D03*
X986728Y959019D03*
X995228Y964019D03*
X980224Y959349D03*
Y948949D03*
X1049900Y955900D03*
X1031900Y938800D03*
X1035800Y939400D03*
X1051100Y946400D03*
Y941400D03*
X1107197Y974551D03*
X1107453Y960953D03*
X1098351Y931998D03*
X1091953Y953453D03*
X1103953Y963453D03*
X1098453Y958953D03*
X1100453Y962953D03*
X1096453Y961453D03*
X1098453Y956453D03*
X1089453Y928453D03*
X1095953Y930453D03*
X1093953Y962453D03*
X1104254Y978952D03*
X1031400Y941300D03*
X1029824Y973749D03*
X1059824Y971749D03*
X1040728Y945519D03*
X1050228Y966019D03*
X1043856Y983890D03*
X1036224Y984149D03*
X1051228Y951519D03*
X1041024Y942149D03*
Y950149D03*
X1060624Y959349D03*
X1055824Y971349D03*
X1063824Y979349D03*
X1051824Y989349D03*
X1047424Y974549D03*
X1038224Y973749D03*
X1029824Y984149D03*
X1033424Y984549D03*
X1037424Y952949D03*
X1059024Y981519D03*
X1040228Y977519D03*
X1090654Y964252D03*
X1099453Y983953D03*
X1109150Y983834D03*
X1039728Y957519D03*
X1051424Y972519D03*
X1053424Y964019D03*
X1056624Y978949D03*
X1033424Y973349D03*
X1090224Y974549D03*
X1099454Y989046D03*
X1090606Y959440D03*
X1097004Y977602D03*
X1092004Y982402D03*
X1097806Y981190D03*
X1098151Y920198D03*
X1115595Y941716D03*
X1130079Y923976D03*
X1142677Y927126D03*
X1152126D03*
Y933425D03*
X1158425D03*
X1161575D03*
X1136378Y923976D03*
X1116051Y927398D03*
X1114254Y987101D03*
X1142749Y991046D03*
X1139527Y923976D03*
X1130079Y946024D03*
X1127451Y972900D03*
X1113200D03*
X1130079Y949173D03*
X1130451Y978798D03*
X1109850Y977248D03*
X1133228Y964921D03*
X1135548Y992497D03*
X1121300Y991900D03*
X1136378Y958622D03*
X1123803Y961748D03*
X1177323Y914527D03*
X1167874D03*
X1136378Y927126D03*
X1113051Y929698D03*
X1116103Y968400D03*
X1139527Y927126D03*
Y930276D03*
X1133228Y927126D03*
X1131951Y971198D03*
X1144651D03*
X1133228Y923976D03*
X1111751Y925198D03*
X1142677Y930275D03*
X1136378D03*
X1133228Y975348D03*
X1126651Y978497D03*
X1133228Y930275D03*
X1115251Y931598D03*
X1121697Y974051D03*
X1136378Y939725D03*
X1133228D03*
X1123800Y966500D03*
X1117303Y992248D03*
X1130079Y939725D03*
X1120751Y966598D03*
X1136378Y942874D03*
X1133228D03*
X1123551Y978403D03*
X1130079Y942874D03*
X1123653Y975653D03*
X1139527Y955473D03*
X1186772Y914527D03*
X1183622D03*
X1130079Y917677D03*
X1139527Y949173D03*
X1137768Y974322D03*
X1139529Y946022D03*
X1180473Y961772D03*
X1175654Y969846D03*
X1145827Y914527D03*
X1180473Y917677D03*
X1186772Y936575D03*
X1171024Y914527D03*
X1130079Y930272D03*
X1164725Y914527D03*
X1130079Y933425D03*
X1133228D03*
X1115751Y934298D03*
X1136378Y933425D03*
X1139527D03*
X1111103Y955710D03*
X1139527Y952323D03*
X1127716Y936574D03*
X1139527Y939725D03*
X1112254Y953801D03*
X1136378Y952323D03*
X1123151Y939498D03*
X1136378Y949173D03*
X1112453Y948386D03*
X1133228Y952323D03*
X1125747Y943661D03*
X1133229Y949172D03*
X1110500Y950100D03*
X1130079Y952323D03*
X1120453Y963346D03*
X1136378Y955473D03*
X1109453Y958953D03*
X1130079Y958622D03*
X1116054Y962748D03*
X1133228Y955473D03*
Y961772D03*
X1111303Y962748D03*
X1130079Y955473D03*
X1136378Y946024D03*
X1112303Y957748D03*
X1133228Y958622D03*
Y946024D03*
X1145827Y961772D03*
X1148976D03*
X1145827Y964921D03*
X1148976D03*
Y955473D03*
X1152126D03*
X1148976Y958622D03*
X1152249Y969897D03*
X1152126Y958622D03*
X1183622Y923976D03*
Y917677D03*
X1161575Y920827D03*
Y917677D03*
X1142677Y933425D03*
X1177323Y939725D03*
X1171024Y917677D03*
X1171023Y920828D03*
X1177323Y946024D03*
X1155275Y952323D03*
X1145827Y933425D03*
X1155275Y949173D03*
X1164725Y952323D03*
X1174179Y939722D03*
X1164725Y949173D03*
X1174179Y946022D03*
X1180473Y942874D03*
X1183622D03*
X1126949Y922602D03*
X1145827Y920827D03*
Y917677D03*
X1186772Y942874D03*
X1136378Y964921D03*
X1136303Y988748D03*
X1139527Y961772D03*
X1156554Y989846D03*
X1140954Y989046D03*
X1139527Y964921D03*
X1142677Y961772D03*
X1153197Y990051D03*
X1142677Y964921D03*
X1142654Y987446D03*
X1145827Y955473D03*
X1147009Y979100D03*
X1145827Y958622D03*
X1147796Y981856D03*
X1164725Y955473D03*
Y958622D03*
X1164401Y977546D03*
X1164725Y961772D03*
Y964921D03*
X1166598Y978646D03*
X1174173Y958622D03*
Y961772D03*
Y964921D03*
X1171501Y974546D03*
X1177323Y955473D03*
Y958622D03*
Y961772D03*
Y964921D03*
X1180473Y958622D03*
X1182949Y970397D03*
X1180473Y955473D03*
X1183622Y958622D03*
X1180474Y964922D03*
X1179354Y969846D03*
X1178554Y985046D03*
X1186154Y970646D03*
X1183622Y961772D03*
X1186772D03*
X1121548Y986297D03*
X1172554Y988646D03*
X1172697Y972551D03*
X1186772Y958622D03*
X1188954Y987846D03*
X1180473Y936575D03*
Y939725D03*
X1184154Y985046D03*
X1183626Y939723D03*
X1183622Y927126D03*
X1186772Y923976D03*
X1180473D03*
X1186772Y920827D03*
X1183622D03*
X1180473D03*
X1186772Y917677D03*
Y952323D03*
X1180473Y914527D03*
X1174173D03*
X1152129Y961772D03*
X1150349Y971597D03*
X1152129Y964922D03*
X1156599Y980598D03*
X1155275Y955473D03*
X1157099Y969398D03*
X1155275Y958622D03*
X1156799Y978398D03*
X1186772Y946024D03*
X1155254Y933401D03*
X1155275Y914527D03*
X1148154Y991046D03*
X1152126Y914527D03*
X1165754Y990646D03*
X1180554Y988646D03*
X1148976Y914527D03*
X1142677D03*
X1139527Y920827D03*
Y917677D03*
X1136378Y920827D03*
Y917677D03*
X1139527Y914527D03*
X1136378D03*
X1133228D03*
X1130079D03*
X1180473Y927126D03*
Y930275D03*
X1183622Y936575D03*
X1183683Y930275D03*
X1183622Y964921D03*
X1189154Y969346D03*
X1186776Y939723D03*
X1149899Y988298D03*
X1173754Y985046D03*
X1169354Y987046D03*
X1160754Y967852D03*
X1166954Y987046D03*
X1118856Y983890D03*
X1162954Y987046D03*
X1121654Y981252D03*
X1120956Y988990D03*
X1155275Y917677D03*
Y920827D03*
X1177323Y923976D03*
X1174173D03*
X1130079Y927126D03*
X1174173Y930278D03*
X1145827Y942874D03*
Y927126D03*
X1158425Y952323D03*
Y949173D03*
X1148976Y952323D03*
Y949173D03*
X1142677Y942874D03*
X1177323Y930278D03*
X1171024Y949173D03*
X1180473D03*
X1186772Y964921D03*
X1171024Y952323D03*
X1180473D03*
X1130079Y961772D03*
X1161599Y972198D03*
X1155275Y964921D03*
X1145827Y946024D03*
X1142677D03*
X1118266Y957836D03*
X1159399Y972298D03*
X1138270Y984680D03*
X1138300Y981930D03*
X1167874Y917677D03*
X1164725D03*
X1122303Y955748D03*
X1130079Y964921D03*
X1160554Y987046D03*
X1138346Y977525D03*
X1145949Y990997D03*
X1130999Y991598D03*
Y986498D03*
X1164725Y936575D03*
X1127803Y933448D03*
X1186772Y930275D03*
X1177323Y920827D03*
X1152126D03*
Y917677D03*
X1112303Y921248D03*
X1133228Y920827D03*
X1130079D03*
X1142677D03*
Y917677D03*
X1133228D03*
X1145827Y923976D03*
X1142677D03*
X1164725Y930275D03*
X1167874D03*
X1161575D03*
X1155275D03*
X1164725Y939725D03*
Y942874D03*
X1158425D03*
Y939725D03*
X1152126D03*
X1142677D03*
X1145827Y952323D03*
X1152126Y942874D03*
Y952323D03*
Y949173D03*
X1145827D03*
X1142677D03*
Y952323D03*
X1155275Y942874D03*
Y939725D03*
X1177323Y917677D03*
Y927126D03*
X1145827Y930275D03*
X1152126D03*
X1155275Y927126D03*
X1161575D03*
X1174173Y917677D03*
Y920827D03*
X1167874D03*
X1164725D03*
Y927126D03*
X1167874D03*
X1174173D03*
X1174179Y942872D03*
X1183622Y946024D03*
X1167874Y949173D03*
X1158425Y964921D03*
X1177323Y952323D03*
X1167874Y961771D03*
Y952323D03*
X1177323Y936575D03*
X1174179Y936572D03*
X1177323Y949173D03*
Y942874D03*
X1174173Y952323D03*
Y949173D03*
X1180473Y946024D03*
X1236800Y953300D03*
X1240500Y964700D03*
X1243800Y934300D03*
X1197201Y951046D03*
X1193901Y953046D03*
X1194154Y990646D03*
X1244351Y954798D03*
X1235203Y921615D03*
X1240253Y926178D03*
X1206851Y914498D03*
X1189921Y936575D03*
X1238448Y924097D03*
X1200800Y925900D03*
X1222800Y960100D03*
X1222606Y967046D03*
X1194051Y961248D03*
X1189921Y942874D03*
X1244453Y974953D03*
X1247809Y949175D03*
X1189921Y949173D03*
X1189926Y939723D03*
X1189921Y946024D03*
X1193865Y969446D03*
X1258554Y988246D03*
X1195454Y966852D03*
X1189921Y961772D03*
X1210354Y924946D03*
X1233148Y934797D03*
X1204554Y983846D03*
X1216154Y916846D03*
X1223354Y963046D03*
X1226648Y937340D03*
X1207851Y922846D03*
X1225749Y992597D03*
X1231651Y924298D03*
X1199000Y924000D03*
X1246235Y927911D03*
X1196299Y925551D03*
X1232448Y920797D03*
X1189921Y920827D03*
X1195047Y920824D03*
X1242615Y923190D03*
X1191503Y922399D03*
X1189921Y917677D03*
X1195800Y917700D03*
X1192401Y949146D03*
X1189921Y958622D03*
Y955473D03*
X1218654Y943740D03*
X1218597Y932085D03*
X1222671Y939470D03*
X1220661Y941800D03*
X1214603Y945620D03*
X1210700Y921198D03*
X1193472Y928699D03*
X1206354Y916846D03*
X1250154Y985846D03*
X1242554Y989446D03*
X1193868Y932490D03*
X1240451Y953498D03*
X1189921Y964921D03*
X1236384Y931852D03*
X1211654Y966852D03*
X1206804Y961352D03*
X1200154Y944952D03*
X1208154Y992590D03*
X1195046Y983825D03*
X1222606Y992590D03*
X1223754Y970646D03*
X1239934Y982644D03*
X1338000Y914000D03*
X1311754Y989252D03*
X1305953Y958953D03*
X1307668Y955930D03*
X1302654Y981752D03*
X1302154Y984752D03*
X1300154Y979252D03*
X1298654Y983252D03*
X1299654Y970990D03*
X1301618Y973490D03*
X1292654Y980252D03*
X1299000Y922500D03*
X1296654Y974490D03*
X1299500Y936000D03*
X1298654Y962752D03*
X1294656Y970890D03*
X1292654Y974252D03*
X1297504Y949152D03*
X1294154Y967252D03*
X1290154Y971252D03*
Y974252D03*
X1288654Y964752D03*
X1290254Y956402D03*
X1288654Y959252D03*
X1286654Y973252D03*
X1280154Y990002D03*
X1294000Y922500D03*
X1284154Y967752D03*
X1284654Y958252D03*
X1281654Y963752D03*
X1280154Y954646D03*
X1278654Y959752D03*
X1288000Y932402D03*
X1285254Y934752D03*
X1286454Y923152D03*
X1283654Y939752D03*
X1285654Y937452D03*
X1283456Y929490D03*
X1281754Y933652D03*
X1277254Y923052D03*
X1281254Y919552D03*
X1277754Y917352D03*
X1279854Y925152D03*
X1314454Y962952D03*
X1312654Y959952D03*
X1309354Y958952D03*
X1310954Y957252D03*
X1307154Y952452D03*
X1272854Y944752D03*
X1277554Y941752D03*
X1279604Y943852D03*
X1275554Y947252D03*
X1313354Y934952D03*
X1309154Y993152D03*
X1314154D03*
X1313953Y973953D03*
X1343554Y923802D03*
X1338600Y925000D03*
X1336404Y931602D03*
X1329904Y941352D03*
X1336453Y973953D03*
X1339654Y991852D03*
X1360695Y928216D03*
X1358695D03*
X1360695Y930616D03*
X1358695D03*
X1351354Y918602D03*
X1011824Y998149D03*
X1003424Y1006949D03*
X1003000Y1011000D03*
X1001424Y994149D03*
X1002624Y1003749D03*
X1025424Y996149D03*
X1019424Y994549D03*
Y996549D03*
X983824Y1006549D03*
X982224Y1001349D03*
X978224Y994149D03*
X1067300Y1002600D03*
X1061228Y997519D03*
X1060728Y1021519D03*
X1041424Y1007349D03*
X1034228Y1015019D03*
X1066700Y1025500D03*
X1051024Y1006549D03*
X1034224Y1000149D03*
X1048624Y996549D03*
X1095953Y997953D03*
X1046228Y1008019D03*
X1091799Y1021299D03*
X1104803Y1017748D03*
X1091799Y997283D03*
X1099454Y994146D03*
X1091806Y1006390D03*
X1083000Y1025300D03*
Y1002900D03*
X1029500Y1003000D03*
X1029424Y1008149D03*
X1029500Y1005500D03*
X1037024Y996549D03*
X1179000Y1009800D03*
X1181559Y1009859D03*
X1124095Y1011816D03*
X1146146Y1012016D03*
Y1001385D03*
X1113071Y1009260D03*
X1111496Y1011778D03*
X1122518Y1019653D03*
X1174954Y999046D03*
X1124095Y1021716D03*
X1161151Y1020498D03*
X1144568Y1019653D03*
X1154018D03*
X1142996Y1001385D03*
X1155596D03*
X1111496D03*
X1109900Y1019300D03*
X1147718Y1019653D03*
X1120946Y1012016D03*
X1142554Y997046D03*
X1120900Y996000D03*
X1119368Y1019653D03*
X1119400Y1000100D03*
X1117796Y1012016D03*
X1114697Y996551D03*
X1128821Y1009260D03*
X1114643Y1011778D03*
X1113100Y1019200D03*
X1169054Y1005846D03*
X1155596Y1012016D03*
X1147721Y1008866D03*
X1150868Y1019653D03*
X1136696Y1001385D03*
Y1012016D03*
X1172154Y999046D03*
X1177654D03*
X1182554Y999446D03*
X1184303Y1009748D03*
X1186303Y1002748D03*
X1174954Y1005946D03*
X1157171Y1026016D03*
X1125668Y1019653D03*
X1187354Y1012646D03*
X1155354Y996646D03*
X1127246Y1012016D03*
X1138554Y994646D03*
X1128818Y1019653D03*
X1133754Y997046D03*
X1130396Y1012016D03*
X1135118Y1019653D03*
X1138271Y1009260D03*
X1138268Y1019653D03*
X1139846Y1001385D03*
Y1012016D03*
X1141421Y1009260D03*
X1165354Y1002646D03*
X1131968Y1019653D03*
X1133546Y1001385D03*
X1135121Y1009260D03*
X1133546Y1012016D03*
X1142996D03*
X1160949Y1012197D03*
X1144571Y1008866D03*
X1168554Y1001046D03*
X1154021Y1025797D03*
X1113350Y994397D03*
X1163354Y996246D03*
X1161154Y997998D03*
X1117156Y996990D03*
X1186154Y993846D03*
X1152446Y1012016D03*
X1150871Y1009260D03*
X1154021D03*
X1149296Y1012016D03*
X1149351Y1001598D03*
X1131099Y997098D03*
X1109921Y1009260D03*
X1131971Y1008866D03*
X1124095Y1008816D03*
X1116200Y1019300D03*
X1141418Y1019653D03*
X1164254Y1020852D03*
X1166151Y1011098D03*
X1161254Y1014752D03*
X1183754Y1019652D03*
X1174254Y1019252D03*
X1171454Y1014352D03*
X1185354Y999446D03*
X1235200Y1017200D03*
X1257700Y1017300D03*
X1197900Y1000000D03*
X1191398Y1000746D03*
X1199551Y1017998D03*
X1234954Y1004246D03*
X1238800Y998700D03*
X1201601Y994346D03*
X1237200Y996900D03*
X1221654Y1014752D03*
X1208154Y1021752D03*
X1213154Y1004052D03*
X1193954Y999852D03*
X1222654Y1018752D03*
X1195754Y1009046D03*
X1230551Y997046D03*
X1216149Y1003597D03*
X1194949Y1002397D03*
X1246154Y993846D03*
X1230501Y993646D03*
X1238751Y1001147D03*
X1191354Y1004246D03*
X1212554Y993446D03*
X1204899Y996498D03*
X1222418Y1010940D03*
X1246356Y1011690D03*
X1208654Y1011502D03*
X1193754Y1020552D03*
X1196554Y1014752D03*
X1233204Y1014852D03*
X1246154Y1000952D03*
X1272954Y994646D03*
X1269463Y1008234D03*
X1314154Y1003252D03*
X1327154Y998752D03*
X1335654Y1003252D03*
X1318654D03*
X1309154D03*
X1339654D03*
X1323154Y1005752D03*
X1330154Y1002752D03*
X1331654Y1005752D03*
X1338453Y1020953D03*
X1291453Y1018453D03*
G54D120*
X1012083Y967890D03*
Y962890D03*
Y957890D03*
Y952890D03*
X1032083D03*
Y957890D03*
Y962890D03*
Y967890D03*
X1065500Y974390D03*
Y969390D03*
Y964390D03*
Y959390D03*
X1085500D03*
Y964390D03*
Y969390D03*
Y974390D03*
X1065981Y1021390D03*
Y1016390D03*
Y1011390D03*
Y1006390D03*
X1085981D03*
Y1011390D03*
Y1016390D03*
Y1021390D03*
X1065981Y997390D03*
Y992390D03*
Y987390D03*
Y982390D03*
X1085981D03*
Y987390D03*
Y992390D03*
Y997390D03*
G54D131*
X1210754Y998846D03*
Y987846D03*
X1221754Y998846D03*
Y987846D03*
G54D158*
G54D159*
X1184118Y1014370D03*
X1181559D03*
X1179000D03*
X1176441D03*
X1173882D03*
G54D160*
X1166008Y1014764D03*
X1191992D03*
G54D161*
X1164236Y1025000D03*
X1193764D03*
G54D162*
X1183724D03*
X1174276D03*
G54D163*
X1201185Y1013591D03*
X1205122D03*
X1203154Y1019102D03*
G54D164*
X1022881Y1004317D03*
X1359654Y900096D03*
G54D165*
X1022881Y1014567D03*
X1359654Y889846D03*
G54D166*
X1242616Y997290D03*
X1246356D03*
X1250096D03*
Y1007490D03*
X1246356D03*
X1242616D03*
X1041241Y1001290D03*
X1044981D03*
X1048721D03*
Y1011490D03*
X1041241D03*
X1244240Y978600D03*
X1240500D03*
X1236760D03*
Y968400D03*
X1240500D03*
X1244240D03*
X1066260Y877900D03*
X1070000D03*
X1073740D03*
Y888100D03*
X1070000D03*
X1066260D03*
X1080760Y877900D03*
X1084500D03*
X1088240D03*
Y888100D03*
X1084500D03*
X1080760D03*
X1009760Y877900D03*
X1013500D03*
X1017240D03*
Y888100D03*
X1013500D03*
X1009760D03*
X1024260Y877900D03*
X1028000D03*
X1031740D03*
Y888100D03*
X1028000D03*
X1024260D03*
X1038260Y877900D03*
X1042000D03*
X1045740D03*
Y888100D03*
X1042000D03*
X1038260D03*
X1052260Y877900D03*
X1056000D03*
X1059740D03*
Y888100D03*
X1056000D03*
X1052260D03*
X1244240Y949600D03*
X1240500D03*
X1236760D03*
Y939400D03*
X1240500D03*
X1244240D03*
G54D167*
X1153110Y872717D03*
X1160000D03*
X1166890D03*
X1153110Y887283D03*
X1160000D03*
X1166890D03*
X1125610Y872717D03*
X1132500D03*
X1139390D03*
X1125610Y887283D03*
X1132500D03*
X1139390D03*
G54D168*
X1201429Y950720D03*
Y934972D03*
X1210878D03*
Y950720D03*
G54D174*
X1008858Y1013189D03*
Y1010039D03*
Y1006890D03*
Y1003740D03*
Y1000591D03*
G54D175*
X1007874Y1023425D03*
Y990354D03*
X987008Y1023425D03*
Y990354D03*
G54D176*
X1104606Y1004406D03*
Y1001846D03*
Y999287D03*
Y996728D03*
Y994169D03*
Y991610D03*
Y989051D03*
Y986492D03*
Y983933D03*
Y981374D03*
X1126606D03*
Y983933D03*
Y986492D03*
Y989051D03*
Y991610D03*
Y994169D03*
Y996729D03*
Y999287D03*
Y1001846D03*
Y1004406D03*
G54D180*
X1145888Y994764D03*
X1150888D03*
Y1024764D03*
X1145888D03*
X1298846Y926654D03*
X1293846D03*
Y896654D03*
X1298846D03*
G54D184*
X1006831Y838490D03*
X1009981D03*
X1013130D03*
X1016280D03*
X1019429D03*
X1022579D03*
X1025729D03*
X1028878D03*
X1032028D03*
X1035178D03*
X1038327D03*
X1041477D03*
X1044626D03*
X1047776D03*
X1050926D03*
X1054075D03*
X1057225D03*
X1060374D03*
X1063524D03*
X1066674D03*
X1069823D03*
X1072973D03*
X1076122D03*
X1079272D03*
X1082422D03*
X1085571D03*
X1088721D03*
X1091870D03*
X1107618D03*
X1110768D03*
X1113918D03*
X1117067D03*
X1120217D03*
X1123367D03*
X1126516D03*
X1129666D03*
X1132815D03*
X1135965D03*
X1139115D03*
X1142264D03*
X1145414D03*
X1148563D03*
X1151713D03*
X1154863D03*
X1158012D03*
X1161162D03*
X1164311D03*
X1167461D03*
X1170611D03*
X1173760D03*
X1176910D03*
X1180059D03*
X1183209D03*
X1186359D03*
X1189508D03*
X1192658D03*
X1195807D03*
X1198957D03*
X1202107D03*
X1205256D03*
X1288201D03*
X1291351D03*
X1294500D03*
X1297650D03*
X1300800D03*
X1303949D03*
X1307099D03*
X1310248D03*
X1313398D03*
X1316548D03*
X1319697D03*
X1322847D03*
X1325996D03*
X1329146D03*
X1332296D03*
X1335445D03*
X1338595D03*
X1341744D03*
X1344894D03*
X1348044D03*
X1351193D03*
X1354343D03*
X1357492D03*
X1360642D03*
X1363792D03*
X1366941D03*
X1370091D03*
X1373241D03*
X1376390D03*
X1379540D03*
G54D188*
X1451097Y383484D02*
Y373641D01*
X1455187*
X1460983Y383484D02*
X1458256Y373641D01*
X1460983Y383484D02*
X1463710Y373641D01*
X1459278Y376922D02*
X1462687D01*
X1466778Y383484D02*
X1469506Y378797D01*
Y373641*
X1472233Y383484D02*
X1469506Y378797D01*
X1475301Y383484D02*
Y373641D01*
Y383484D02*
X1479733D01*
X1475301Y378797D02*
X1478028D01*
X1475301Y373641D02*
X1479733D01*
X1482801Y383484D02*
Y373641D01*
Y383484D02*
X1485869D01*
X1486892Y383016*
X1487233Y382547*
X1487574Y381609*
Y380672*
X1487233Y379734*
X1486892Y379266*
X1485869Y378797*
X1482801*
X1485187D02*
X1487574Y373641D01*
X1418244Y554334D02*
X1415517Y544490D01*
X1418244Y554334D02*
X1420972Y544490D01*
X1416540Y547771D02*
X1419949D01*
X1424040Y551052D02*
Y544490D01*
Y548240D02*
X1424381Y549646D01*
X1425063Y550584*
X1425744Y551052*
X1426767*
X1430858Y554334D02*
Y546365D01*
X1431199Y544959*
X1431881Y544490*
X1432563*
X1429835Y551052D02*
X1432222D01*
X1435631D02*
X1436994Y544490D01*
X1438358Y551052D02*
X1436994Y544490D01*
X1438358Y551052D02*
X1439722Y544490D01*
X1441085Y551052D02*
X1439722Y544490D01*
X1445858Y551052D02*
X1445176Y550584D01*
X1444494Y549646*
X1444153Y548240*
Y547302*
X1444494Y545896*
X1445176Y544959*
X1445858Y544490*
X1446881*
X1447563Y544959*
X1448244Y545896*
X1448585Y547302*
Y548240*
X1448244Y549646*
X1447563Y550584*
X1446881Y551052*
X1445858*
X1451653D02*
Y544490D01*
Y548240D02*
X1451994Y549646D01*
X1452676Y550584*
X1453358Y551052*
X1454381*
X1457449Y554334D02*
Y544490D01*
X1460858Y551052D02*
X1457449Y546365D01*
X1458813Y548240D02*
X1461199Y544490D01*
X1472108Y554334D02*
Y544490D01*
Y554334D02*
X1474494D01*
X1475517Y553865*
X1476199Y552927*
X1476540Y551990*
X1476881Y550584*
Y548240*
X1476540Y546834*
X1476199Y545896*
X1475517Y544959*
X1474494Y544490*
X1472108*
X1479949Y548240D02*
X1484040D01*
Y549177*
X1483699Y550115*
X1483358Y550584*
X1482676Y551052*
X1481653*
X1480972Y550584*
X1480290Y549646*
X1479949Y548240*
Y547302*
X1480290Y545896*
X1480972Y544959*
X1481653Y544490*
X1482676*
X1483358Y544959*
X1484040Y545896*
X1490858Y549646D02*
X1490517Y550584D01*
X1489494Y551052*
X1488472*
X1487449Y550584*
X1487108Y549646*
X1487449Y548709*
X1488131Y548240*
X1489835Y547771*
X1490517Y547302*
X1490858Y546365*
Y545896*
X1490517Y544959*
X1489494Y544490*
X1488472*
X1487449Y544959*
X1487108Y545896*
X1493926Y554334D02*
X1494267Y553865D01*
X1494608Y554334*
X1494267Y554802*
X1493926Y554334*
X1494267Y551052D02*
Y544490D01*
X1501767Y551052D02*
Y543552D01*
X1501426Y542146*
X1501085Y541677*
X1500403Y541209*
X1499381*
X1498699Y541677*
X1501767Y549646D02*
X1501085Y550584D01*
X1500403Y551052*
X1499381*
X1498699Y550584*
X1498017Y549646*
X1497676Y548240*
Y547302*
X1498017Y545896*
X1498699Y544959*
X1499381Y544490*
X1500403*
X1501085Y544959*
X1501767Y545896*
X1504835Y551052D02*
Y544490D01*
Y549177D02*
X1505858Y550584D01*
X1506540Y551052*
X1507563*
X1508244Y550584*
X1508585Y549177*
Y544490*
X1511653Y548240D02*
X1515744D01*
Y549177*
X1515403Y550115*
X1515063Y550584*
X1514381Y551052*
X1513358*
X1512676Y550584*
X1511994Y549646*
X1511653Y548240*
Y547302*
X1511994Y545896*
X1512676Y544959*
X1513358Y544490*
X1514381*
X1515063Y544959*
X1515744Y545896*
X1522903Y554334D02*
Y544490D01*
Y549646D02*
X1522222Y550584D01*
X1521540Y551052*
X1520517*
X1519835Y550584*
X1519153Y549646*
X1518813Y548240*
Y547302*
X1519153Y545896*
X1519835Y544959*
X1520517Y544490*
X1521540*
X1522222Y544959*
X1522903Y545896*
X1533813Y554334D02*
Y544490D01*
Y554334D02*
X1538244D01*
X1533813Y549646D02*
X1536540D01*
X1543017Y551052D02*
X1542335Y550584D01*
X1541653Y549646*
X1541313Y548240*
Y547302*
X1541653Y545896*
X1542335Y544959*
X1543017Y544490*
X1544040*
X1544722Y544959*
X1545403Y545896*
X1545744Y547302*
Y548240*
X1545403Y549646*
X1544722Y550584*
X1544040Y551052*
X1543017*
X1548813D02*
Y544490D01*
Y548240D02*
X1549153Y549646D01*
X1549835Y550584*
X1550517Y551052*
X1551540*
X1554949D02*
X1554608Y550584D01*
X1554949Y550115*
X1555290Y550584*
X1554949Y551052*
Y545427D02*
X1554608Y544959D01*
X1554949Y544490*
X1555290Y544959*
X1554949Y545427*
X1415517Y499334D02*
Y489490D01*
Y499334D02*
X1418585D01*
X1419608Y498865*
X1419949Y498396*
X1420290Y497459*
Y496521*
X1419949Y495584*
X1419608Y495115*
X1418585Y494646*
X1415517D02*
X1418585D01*
X1419608Y494177*
X1419949Y493709*
X1420290Y492771*
Y491365*
X1419949Y490427*
X1419608Y489959*
X1418585Y489490*
X1415517*
X1425063Y496052D02*
X1424381Y495584D01*
X1423699Y494646*
X1423358Y493240*
Y492302*
X1423699Y490896*
X1424381Y489959*
X1425063Y489490*
X1426085*
X1426767Y489959*
X1427449Y490896*
X1427790Y492302*
Y493240*
X1427449Y494646*
X1426767Y495584*
X1426085Y496052*
X1425063*
X1434949D02*
Y489490D01*
Y494646D02*
X1434267Y495584D01*
X1433585Y496052*
X1432563*
X1431881Y495584*
X1431199Y494646*
X1430858Y493240*
Y492302*
X1431199Y490896*
X1431881Y489959*
X1432563Y489490*
X1433585*
X1434267Y489959*
X1434949Y490896*
X1438017Y496052D02*
Y489490D01*
Y493240D02*
X1438358Y494646D01*
X1439040Y495584*
X1439722Y496052*
X1440744*
X1447903Y499334D02*
Y489490D01*
Y494646D02*
X1447222Y495584D01*
X1446540Y496052*
X1445517*
X1444835Y495584*
X1444153Y494646*
X1443813Y493240*
Y492302*
X1444153Y490896*
X1444835Y489959*
X1445517Y489490*
X1446540*
X1447222Y489959*
X1447903Y490896*
X1458813Y499334D02*
Y489490D01*
Y499334D02*
X1461199D01*
X1462222Y498865*
X1462903Y497927*
X1463244Y496990*
X1463585Y495584*
Y493240*
X1463244Y491834*
X1462903Y490896*
X1462222Y489959*
X1461199Y489490*
X1458813*
X1466653Y493240D02*
X1470744D01*
Y494177*
X1470403Y495115*
X1470063Y495584*
X1469381Y496052*
X1468358*
X1467676Y495584*
X1466994Y494646*
X1466653Y493240*
Y492302*
X1466994Y490896*
X1467676Y489959*
X1468358Y489490*
X1469381*
X1470063Y489959*
X1470744Y490896*
X1477563Y494646D02*
X1477222Y495584D01*
X1476199Y496052*
X1475176*
X1474153Y495584*
X1473813Y494646*
X1474153Y493709*
X1474835Y493240*
X1476540Y492771*
X1477222Y492302*
X1477563Y491365*
Y490896*
X1477222Y489959*
X1476199Y489490*
X1475176*
X1474153Y489959*
X1473813Y490896*
X1484722Y494646D02*
X1484040Y495584D01*
X1483358Y496052*
X1482335*
X1481653Y495584*
X1480972Y494646*
X1480631Y493240*
Y492302*
X1480972Y490896*
X1481653Y489959*
X1482335Y489490*
X1483358*
X1484040Y489959*
X1484722Y490896*
X1487790Y496052D02*
Y489490D01*
Y493240D02*
X1488131Y494646D01*
X1488813Y495584*
X1489494Y496052*
X1490517*
X1493585Y499334D02*
X1493926Y498865D01*
X1494267Y499334*
X1493926Y499802*
X1493585Y499334*
X1493926Y496052D02*
Y489490D01*
X1497335Y496052D02*
Y486209D01*
Y494646D02*
X1498017Y495584D01*
X1498699Y496052*
X1499722*
X1500403Y495584*
X1501085Y494646*
X1501426Y493240*
Y492302*
X1501085Y490896*
X1500403Y489959*
X1499722Y489490*
X1498699*
X1498017Y489959*
X1497335Y490896*
X1505517Y499334D02*
Y491365D01*
X1505858Y489959*
X1506540Y489490*
X1507222*
X1504494Y496052D02*
X1506881D01*
X1510290Y499334D02*
X1510631Y498865D01*
X1510972Y499334*
X1510631Y499802*
X1510290Y499334*
X1510631Y496052D02*
Y489490D01*
X1515744Y496052D02*
X1515063Y495584D01*
X1514381Y494646*
X1514040Y493240*
Y492302*
X1514381Y490896*
X1515063Y489959*
X1515744Y489490*
X1516767*
X1517449Y489959*
X1518131Y490896*
X1518472Y492302*
Y493240*
X1518131Y494646*
X1517449Y495584*
X1516767Y496052*
X1515744*
X1521540D02*
Y489490D01*
Y494177D02*
X1522563Y495584D01*
X1523244Y496052*
X1524267*
X1524949Y495584*
X1525290Y494177*
Y489490*
X1528699Y496052D02*
X1528358Y495584D01*
X1528699Y495115*
X1529040Y495584*
X1528699Y496052*
Y490427D02*
X1528358Y489959D01*
X1528699Y489490*
X1529040Y489959*
X1528699Y490427*
X1415517Y429334D02*
Y419490D01*
Y429334D02*
X1418585D01*
X1419608Y428865*
X1419949Y428396*
X1420290Y427459*
Y426052*
X1419949Y425115*
X1419608Y424646*
X1418585Y424177*
X1415517*
X1427449Y426052D02*
Y419490D01*
Y424646D02*
X1426767Y425584D01*
X1426085Y426052*
X1425063*
X1424381Y425584*
X1423699Y424646*
X1423358Y423240*
Y422302*
X1423699Y420896*
X1424381Y419959*
X1425063Y419490*
X1426085*
X1426767Y419959*
X1427449Y420896*
X1430517Y426052D02*
Y419490D01*
Y423240D02*
X1430858Y424646D01*
X1431540Y425584*
X1432222Y426052*
X1433244*
X1437335Y429334D02*
Y421365D01*
X1437676Y419959*
X1438358Y419490*
X1439040*
X1436313Y426052D02*
X1438699D01*
X1449949Y429334D02*
Y419490D01*
Y429334D02*
X1454722Y419490D01*
Y429334D02*
Y419490D01*
X1459494Y426052D02*
X1458813Y425584D01*
X1458131Y424646*
X1457790Y423240*
Y422302*
X1458131Y420896*
X1458813Y419959*
X1459494Y419490*
X1460517*
X1461199Y419959*
X1461881Y420896*
X1462222Y422302*
Y423240*
X1461881Y424646*
X1461199Y425584*
X1460517Y426052*
X1459494*
X1465631D02*
X1465290Y425584D01*
X1465631Y425115*
X1465972Y425584*
X1465631Y426052*
Y420427D02*
X1465290Y419959D01*
X1465631Y419490*
X1465972Y419959*
X1465631Y420427*
X1715517Y429334D02*
Y419490D01*
Y429334D02*
X1718585D01*
X1719608Y428865*
X1719949Y428396*
X1720290Y427459*
Y426521*
X1719949Y425584*
X1719608Y425115*
X1718585Y424646*
X1715517*
X1717903D02*
X1720290Y419490D01*
X1723358Y423240D02*
X1727449D01*
Y424177*
X1727108Y425115*
X1726767Y425584*
X1726085Y426052*
X1725063*
X1724381Y425584*
X1723699Y424646*
X1723358Y423240*
Y422302*
X1723699Y420896*
X1724381Y419959*
X1725063Y419490*
X1726085*
X1726767Y419959*
X1727449Y420896*
X1730517Y426052D02*
X1732563Y419490D01*
X1734608Y426052D02*
X1732563Y419490D01*
X1737676Y429334D02*
X1738017Y428865D01*
X1738358Y429334*
X1738017Y429802*
X1737676Y429334*
X1738017Y426052D02*
Y419490D01*
X1745176Y424646D02*
X1744835Y425584D01*
X1743813Y426052*
X1742790*
X1741767Y425584*
X1741426Y424646*
X1741767Y423709*
X1742449Y423240*
X1744153Y422771*
X1744835Y422302*
X1745176Y421365*
Y420896*
X1744835Y419959*
X1743813Y419490*
X1742790*
X1741767Y419959*
X1741426Y420896*
X1748244Y429334D02*
X1748585Y428865D01*
X1748926Y429334*
X1748585Y429802*
X1748244Y429334*
X1748585Y426052D02*
Y419490D01*
X1753699Y426052D02*
X1753017Y425584D01*
X1752335Y424646*
X1751994Y423240*
Y422302*
X1752335Y420896*
X1753017Y419959*
X1753699Y419490*
X1754722*
X1755403Y419959*
X1756085Y420896*
X1756426Y422302*
Y423240*
X1756085Y424646*
X1755403Y425584*
X1754722Y426052*
X1753699*
X1759494D02*
Y419490D01*
Y424177D02*
X1760517Y425584D01*
X1761199Y426052*
X1762222*
X1762903Y425584*
X1763244Y424177*
Y419490*
X1766653Y426052D02*
X1766313Y425584D01*
X1766653Y425115*
X1766994Y425584*
X1766653Y426052*
Y420427D02*
X1766313Y419959D01*
X1766653Y419490*
X1766994Y419959*
X1766653Y420427*
X1510517Y417615D02*
Y404490D01*
Y417615D02*
X1516426D01*
X1510517Y411365D02*
X1514153D01*
X1520972Y414490D02*
Y415115D01*
X1521426Y416365*
X1521881Y416990*
X1522790Y417615*
X1524608*
X1525517Y416990*
X1525972Y416365*
X1526426Y415115*
Y413865*
X1525972Y412615*
X1525063Y410740*
X1520517Y404490*
X1526881*
X1533244Y417615D02*
X1531881Y416990D01*
X1531426Y415740*
Y414490*
X1531881Y413240*
X1532790Y412615*
X1534608Y411990*
X1535972Y411365*
X1536881Y410115*
X1537335Y408865*
Y406990*
X1536881Y405740*
X1536426Y405115*
X1535063Y404490*
X1533244*
X1531881Y405115*
X1531426Y405740*
X1530972Y406990*
Y408865*
X1531426Y410115*
X1532335Y411365*
X1533699Y411990*
X1535517Y412615*
X1536426Y413240*
X1536881Y414490*
Y415740*
X1536426Y416990*
X1535063Y417615*
X1533244*
X1542335D02*
X1547335D01*
X1544608Y412615*
X1545972*
X1546881Y411990*
X1547335Y411365*
X1547790Y409490*
Y408240*
X1547335Y406365*
X1546426Y405115*
X1545063Y404490*
X1543699*
X1542335Y405115*
X1541881Y405740*
X1541426Y406990*
X1558244Y417615D02*
X1553699Y404490D01*
X1551881Y417615D02*
X1558244D01*
X1562335Y413240D02*
X1567335Y404490D01*
Y413240D02*
X1562335Y404490D01*
X1587335Y411365D02*
X1586426Y412615D01*
X1585517Y413240*
X1584153*
X1583244Y412615*
X1582335Y411365*
X1581881Y409490*
Y408240*
X1582335Y406365*
X1583244Y405115*
X1584153Y404490*
X1585517*
X1586426Y405115*
X1587335Y406365*
X1593699Y413240D02*
X1592790Y412615D01*
X1591881Y411365*
X1591426Y409490*
Y408240*
X1591881Y406365*
X1592790Y405115*
X1593699Y404490*
X1595063*
X1595972Y405115*
X1596881Y406365*
X1597335Y408240*
Y409490*
X1596881Y411365*
X1595972Y412615*
X1595063Y413240*
X1593699*
X1601426D02*
Y404490D01*
Y410740D02*
X1602790Y412615D01*
X1603699Y413240*
X1605063*
X1605972Y412615*
X1606426Y410740*
Y404490*
X1611881Y417615D02*
Y406990D01*
X1612335Y405115*
X1613244Y404490*
X1614153*
X1610517Y413240D02*
X1613699D01*
X1618244D02*
Y404490D01*
Y409490D02*
X1618699Y411365D01*
X1619608Y412615*
X1620517Y413240*
X1621881*
X1628244D02*
X1627335Y412615D01*
X1626426Y411365*
X1625972Y409490*
Y408240*
X1626426Y406365*
X1627335Y405115*
X1628244Y404490*
X1629608*
X1630517Y405115*
X1631426Y406365*
X1631881Y408240*
Y409490*
X1631426Y411365*
X1630517Y412615*
X1629608Y413240*
X1628244*
X1635972Y417615D02*
Y404490D01*
X1646881Y414490D02*
X1646426Y415740D01*
X1645517Y416990*
X1644608Y417615*
X1642790*
X1641881Y416990*
X1640972Y415740*
X1640517Y414490*
X1640063Y412615*
Y409490*
X1640517Y407615*
X1640972Y406365*
X1641881Y405115*
X1642790Y404490*
X1644608*
X1645517Y405115*
X1646426Y406365*
X1646881Y407615*
X1654608Y417615D02*
X1650972Y404490D01*
X1654608Y417615D02*
X1658244Y404490D01*
X1652335Y408865D02*
X1656881D01*
X1662335Y417615D02*
Y404490D01*
Y417615D02*
X1666426D01*
X1667790Y416990*
X1668244Y416365*
X1668699Y415115*
Y413865*
X1668244Y412615*
X1667790Y411990*
X1666426Y411365*
X1662335*
X1665517D02*
X1668699Y404490D01*
X1672790Y417615D02*
Y404490D01*
Y417615D02*
X1675972D01*
X1677335Y416990*
X1678244Y415740*
X1678699Y414490*
X1679153Y412615*
Y409490*
X1678699Y407615*
X1678244Y406365*
X1677335Y405115*
X1675972Y404490*
X1672790*
X1794790Y415115D02*
X1795699Y415740D01*
X1797063Y417615*
Y404490*
X1801608Y405740D02*
X1801153Y405115D01*
X1801608Y404490*
X1802063Y405115*
X1801608Y405740*
X1807063Y417615D02*
X1812063D01*
X1809335Y412615*
X1810699*
X1811608Y411990*
X1812063Y411365*
X1812517Y409490*
Y408240*
X1812063Y406365*
X1811153Y405115*
X1809790Y404490*
X1808426*
X1807063Y405115*
X1806608Y405740*
X1806153Y406990*
X1548199Y529802D02*
Y516677D01*
X1545017Y529802D02*
X1551381D01*
X1555472D02*
Y516677D01*
Y529802D02*
X1561381D01*
X1555472Y523552D02*
X1559108D01*
X1555472Y516677D02*
X1561381D01*
X1565472Y529802D02*
X1571835Y516677D01*
Y529802D02*
X1565472Y516677D01*
X1579563Y529802D02*
X1575926Y516677D01*
X1579563Y529802D02*
X1583199Y516677D01*
X1577290Y521052D02*
X1581835D01*
X1593653Y527927D02*
X1592744Y529177D01*
X1591381Y529802*
X1589563*
X1588199Y529177*
X1587290Y527927*
Y526677*
X1587744Y525427*
X1588199Y524802*
X1589108Y524177*
X1591835Y522927*
X1592744Y522302*
X1593199Y521677*
X1593653Y520427*
Y518552*
X1592744Y517302*
X1591381Y516677*
X1589563*
X1588199Y517302*
X1587290Y518552*
X1608199Y529802D02*
Y516677D01*
X1612290Y529802D02*
Y516677D01*
Y529802D02*
X1618653Y516677D01*
Y529802D02*
Y516677D01*
X1629108Y527927D02*
X1628199Y529177D01*
X1626835Y529802*
X1625017*
X1623653Y529177*
X1622744Y527927*
Y526677*
X1623199Y525427*
X1623653Y524802*
X1624563Y524177*
X1627290Y522927*
X1628199Y522302*
X1628653Y521677*
X1629108Y520427*
Y518552*
X1628199Y517302*
X1626835Y516677*
X1625017*
X1623653Y517302*
X1622744Y518552*
X1636381Y529802D02*
Y516677D01*
X1633199Y529802D02*
X1639563D01*
X1643653D02*
Y516677D01*
Y529802D02*
X1647744D01*
X1649108Y529177*
X1649563Y528552*
X1650017Y527302*
Y526052*
X1649563Y524802*
X1649108Y524177*
X1647744Y523552*
X1643653*
X1646835D02*
X1650017Y516677D01*
X1654108Y529802D02*
Y520427D01*
X1654563Y518552*
X1655472Y517302*
X1656835Y516677*
X1657744*
X1659108Y517302*
X1660017Y518552*
X1660472Y520427*
Y529802*
X1664563D02*
Y516677D01*
Y529802D02*
X1668199Y516677D01*
X1671835Y529802D02*
X1668199Y516677D01*
X1671835Y529802D02*
Y516677D01*
X1675926Y529802D02*
Y516677D01*
Y529802D02*
X1681835D01*
X1675926Y523552D02*
X1679563D01*
X1675926Y516677D02*
X1681835D01*
X1685926Y529802D02*
Y516677D01*
Y529802D02*
X1692290Y516677D01*
Y529802D02*
Y516677D01*
X1699563Y529802D02*
Y516677D01*
X1696381Y529802D02*
X1702744D01*
X1713199Y527927D02*
X1712290Y529177D01*
X1710926Y529802*
X1709108*
X1707744Y529177*
X1706835Y527927*
Y526677*
X1707290Y525427*
X1707744Y524802*
X1708653Y524177*
X1711381Y522927*
X1712290Y522302*
X1712744Y521677*
X1713199Y520427*
Y518552*
X1712290Y517302*
X1710926Y516677*
X1709108*
X1707744Y517302*
X1706835Y518552*
X1543881Y479802D02*
Y466677D01*
Y479802D02*
X1549790D01*
X1543881Y473552D02*
X1547517D01*
X1554335Y476677D02*
Y477302D01*
X1554790Y478552*
X1555244Y479177*
X1556153Y479802*
X1557972*
X1558881Y479177*
X1559335Y478552*
X1559790Y477302*
Y476052*
X1559335Y474802*
X1558426Y472927*
X1553881Y466677*
X1560244*
X1566608Y479802D02*
X1565244Y479177D01*
X1564790Y477927*
Y476677*
X1565244Y475427*
X1566153Y474802*
X1567972Y474177*
X1569335Y473552*
X1570244Y472302*
X1570699Y471052*
Y469177*
X1570244Y467927*
X1569790Y467302*
X1568426Y466677*
X1566608*
X1565244Y467302*
X1564790Y467927*
X1564335Y469177*
Y471052*
X1564790Y472302*
X1565699Y473552*
X1567063Y474177*
X1568881Y474802*
X1569790Y475427*
X1570244Y476677*
Y477927*
X1569790Y479177*
X1568426Y479802*
X1566608*
X1575699D02*
X1580699D01*
X1577972Y474802*
X1579335*
X1580244Y474177*
X1580699Y473552*
X1581153Y471677*
Y470427*
X1580699Y468552*
X1579790Y467302*
X1578426Y466677*
X1577063*
X1575699Y467302*
X1575244Y467927*
X1574790Y469177*
X1586153Y479802D02*
X1591153D01*
X1588426Y474802*
X1589790*
X1590699Y474177*
X1591153Y473552*
X1591608Y471677*
Y470427*
X1591153Y468552*
X1590244Y467302*
X1588881Y466677*
X1587517*
X1586153Y467302*
X1585699Y467927*
X1585244Y469177*
X1601608Y479802D02*
X1597063D01*
X1596608Y474177*
X1597063Y474802*
X1598426Y475427*
X1599790*
X1601153Y474802*
X1602063Y473552*
X1602517Y471677*
X1602063Y470427*
X1601608Y468552*
X1600699Y467302*
X1599335Y466677*
X1597972*
X1596608Y467302*
X1596153Y467927*
X1595699Y469177*
X1622517Y473552D02*
X1621608Y474802D01*
X1620699Y475427*
X1619335*
X1618426Y474802*
X1617517Y473552*
X1617063Y471677*
Y470427*
X1617517Y468552*
X1618426Y467302*
X1619335Y466677*
X1620699*
X1621608Y467302*
X1622517Y468552*
X1628881Y475427D02*
X1627972Y474802D01*
X1627063Y473552*
X1626608Y471677*
Y470427*
X1627063Y468552*
X1627972Y467302*
X1628881Y466677*
X1630244*
X1631153Y467302*
X1632063Y468552*
X1632517Y470427*
Y471677*
X1632063Y473552*
X1631153Y474802*
X1630244Y475427*
X1628881*
X1636608D02*
Y466677D01*
Y472927D02*
X1637972Y474802D01*
X1638881Y475427*
X1640244*
X1641153Y474802*
X1641608Y472927*
Y466677*
X1647063Y479802D02*
Y469177D01*
X1647517Y467302*
X1648426Y466677*
X1649335*
X1645699Y475427D02*
X1648881D01*
X1653426D02*
Y466677D01*
Y471677D02*
X1653881Y473552D01*
X1654790Y474802*
X1655699Y475427*
X1657063*
X1663426D02*
X1662517Y474802D01*
X1661608Y473552*
X1661153Y471677*
Y470427*
X1661608Y468552*
X1662517Y467302*
X1663426Y466677*
X1664790*
X1665699Y467302*
X1666608Y468552*
X1667063Y470427*
Y471677*
X1666608Y473552*
X1665699Y474802*
X1664790Y475427*
X1663426*
X1671153Y479802D02*
Y466677D01*
X1682063Y476677D02*
X1681608Y477927D01*
X1680699Y479177*
X1679790Y479802*
X1677972*
X1677063Y479177*
X1676153Y477927*
X1675699Y476677*
X1675244Y474802*
Y471677*
X1675699Y469802*
X1676153Y468552*
X1677063Y467302*
X1677972Y466677*
X1679790*
X1680699Y467302*
X1681608Y468552*
X1682063Y469802*
X1689790Y479802D02*
X1686153Y466677D01*
X1689790Y479802D02*
X1693426Y466677D01*
X1687517Y471052D02*
X1692063D01*
X1697517Y479802D02*
Y466677D01*
Y479802D02*
X1701608D01*
X1702972Y479177*
X1703426Y478552*
X1703881Y477302*
Y476052*
X1703426Y474802*
X1702972Y474177*
X1701608Y473552*
X1697517*
X1700699D02*
X1703881Y466677D01*
X1707972Y479802D02*
Y466677D01*
Y479802D02*
X1711153D01*
X1712517Y479177*
X1713426Y477927*
X1713881Y476677*
X1714335Y474802*
Y471677*
X1713881Y469802*
X1713426Y468552*
X1712517Y467302*
X1711153Y466677*
X1707972*
X1133244Y554334D02*
X1130517Y544490D01*
X1133244Y554334D02*
X1135972Y544490D01*
X1131540Y547771D02*
X1134949D01*
X1139040Y551052D02*
Y544490D01*
Y548240D02*
X1139381Y549646D01*
X1140063Y550584*
X1140744Y551052*
X1141767*
X1145858Y554334D02*
Y546365D01*
X1146199Y544959*
X1146881Y544490*
X1147563*
X1144835Y551052D02*
X1147222D01*
X1150631D02*
X1151994Y544490D01*
X1153358Y551052D02*
X1151994Y544490D01*
X1153358Y551052D02*
X1154722Y544490D01*
X1156085Y551052D02*
X1154722Y544490D01*
X1160858Y551052D02*
X1160176Y550584D01*
X1159494Y549646*
X1159153Y548240*
Y547302*
X1159494Y545896*
X1160176Y544959*
X1160858Y544490*
X1161881*
X1162563Y544959*
X1163244Y545896*
X1163585Y547302*
Y548240*
X1163244Y549646*
X1162563Y550584*
X1161881Y551052*
X1160858*
X1166653D02*
Y544490D01*
Y548240D02*
X1166994Y549646D01*
X1167676Y550584*
X1168358Y551052*
X1169381*
X1172449Y554334D02*
Y544490D01*
X1175858Y551052D02*
X1172449Y546365D01*
X1173813Y548240D02*
X1176199Y544490D01*
X1187108Y554334D02*
Y544490D01*
Y554334D02*
X1189494D01*
X1190517Y553865*
X1191199Y552927*
X1191540Y551990*
X1191881Y550584*
Y548240*
X1191540Y546834*
X1191199Y545896*
X1190517Y544959*
X1189494Y544490*
X1187108*
X1194949Y548240D02*
X1199040D01*
Y549177*
X1198699Y550115*
X1198358Y550584*
X1197676Y551052*
X1196653*
X1195972Y550584*
X1195290Y549646*
X1194949Y548240*
Y547302*
X1195290Y545896*
X1195972Y544959*
X1196653Y544490*
X1197676*
X1198358Y544959*
X1199040Y545896*
X1205858Y549646D02*
X1205517Y550584D01*
X1204494Y551052*
X1203472*
X1202449Y550584*
X1202108Y549646*
X1202449Y548709*
X1203131Y548240*
X1204835Y547771*
X1205517Y547302*
X1205858Y546365*
Y545896*
X1205517Y544959*
X1204494Y544490*
X1203472*
X1202449Y544959*
X1202108Y545896*
X1208926Y554334D02*
X1209267Y553865D01*
X1209608Y554334*
X1209267Y554802*
X1208926Y554334*
X1209267Y551052D02*
Y544490D01*
X1216767Y551052D02*
Y543552D01*
X1216426Y542146*
X1216085Y541677*
X1215403Y541209*
X1214381*
X1213699Y541677*
X1216767Y549646D02*
X1216085Y550584D01*
X1215403Y551052*
X1214381*
X1213699Y550584*
X1213017Y549646*
X1212676Y548240*
Y547302*
X1213017Y545896*
X1213699Y544959*
X1214381Y544490*
X1215403*
X1216085Y544959*
X1216767Y545896*
X1219835Y551052D02*
Y544490D01*
Y549177D02*
X1220858Y550584D01*
X1221540Y551052*
X1222563*
X1223244Y550584*
X1223585Y549177*
Y544490*
X1226653Y548240D02*
X1230744D01*
Y549177*
X1230403Y550115*
X1230063Y550584*
X1229381Y551052*
X1228358*
X1227676Y550584*
X1226994Y549646*
X1226653Y548240*
Y547302*
X1226994Y545896*
X1227676Y544959*
X1228358Y544490*
X1229381*
X1230063Y544959*
X1230744Y545896*
X1237903Y554334D02*
Y544490D01*
Y549646D02*
X1237222Y550584D01*
X1236540Y551052*
X1235517*
X1234835Y550584*
X1234153Y549646*
X1233813Y548240*
Y547302*
X1234153Y545896*
X1234835Y544959*
X1235517Y544490*
X1236540*
X1237222Y544959*
X1237903Y545896*
X1248813Y554334D02*
Y544490D01*
Y554334D02*
X1251881D01*
X1252903Y553865*
X1253244Y553396*
X1253585Y552459*
Y551521*
X1253244Y550584*
X1252903Y550115*
X1251881Y549646*
X1248813D02*
X1251881D01*
X1252903Y549177*
X1253244Y548709*
X1253585Y547771*
Y546365*
X1253244Y545427*
X1252903Y544959*
X1251881Y544490*
X1248813*
X1256994Y551052D02*
X1259040Y544490D01*
X1261085Y551052D02*
X1259040Y544490D01*
X1258358Y542615*
X1257676Y541677*
X1256994Y541209*
X1256653*
X1264494Y551052D02*
X1264153Y550584D01*
X1264494Y550115*
X1264835Y550584*
X1264494Y551052*
Y545427D02*
X1264153Y544959D01*
X1264494Y544490*
X1264835Y544959*
X1264494Y545427*
X1133926Y389334D02*
Y381834D01*
X1133585Y380427*
X1133244Y379959*
X1132563Y379490*
X1131881*
X1131199Y379959*
X1130858Y380427*
X1130517Y381834*
Y382771*
X1138699Y386052D02*
X1138017Y385584D01*
X1137335Y384646*
X1136994Y383240*
Y382302*
X1137335Y380896*
X1138017Y379959*
X1138699Y379490*
X1139722*
X1140403Y379959*
X1141085Y380896*
X1141426Y382302*
Y383240*
X1141085Y384646*
X1140403Y385584*
X1139722Y386052*
X1138699*
X1144494Y389334D02*
Y379490D01*
Y384646D02*
X1145176Y385584D01*
X1145858Y386052*
X1146881*
X1147563Y385584*
X1148244Y384646*
X1148585Y383240*
Y382302*
X1148244Y380896*
X1147563Y379959*
X1146881Y379490*
X1145858*
X1145176Y379959*
X1144494Y380896*
X1159494Y389334D02*
Y379490D01*
Y389334D02*
X1164267Y379490D01*
Y389334D02*
Y379490D01*
X1169040Y386052D02*
X1168358Y385584D01*
X1167676Y384646*
X1167335Y383240*
Y382302*
X1167676Y380896*
X1168358Y379959*
X1169040Y379490*
X1170063*
X1170744Y379959*
X1171426Y380896*
X1171767Y382302*
Y383240*
X1171426Y384646*
X1170744Y385584*
X1170063Y386052*
X1169040*
X1175176D02*
X1174835Y385584D01*
X1175176Y385115*
X1175517Y385584*
X1175176Y386052*
Y380427D02*
X1174835Y379959D01*
X1175176Y379490*
X1175517Y379959*
X1175176Y380427*
X1202744Y384802D02*
Y371677D01*
X1199563Y384802D02*
X1205926D01*
X1210017D02*
Y371677D01*
Y384802D02*
X1215926D01*
X1210017Y378552D02*
X1213653D01*
X1210017Y371677D02*
X1215926D01*
X1220017Y384802D02*
X1226381Y371677D01*
Y384802D02*
X1220017Y371677D01*
X1230926Y372927D02*
X1230472Y372302D01*
X1230926Y371677*
X1231381Y372302*
X1230926Y372927*
X1235472Y382302D02*
X1236381Y382927D01*
X1237744Y384802*
Y371677*
X1242744Y384802D02*
X1247744D01*
X1245017Y379802*
X1246381*
X1247290Y379177*
X1247744Y378552*
X1248199Y376677*
Y375427*
X1247744Y373552*
X1246835Y372302*
X1245472Y371677*
X1244108*
X1242744Y372302*
X1242290Y372927*
X1241835Y374177*
X1258653Y384802D02*
X1254108Y371677D01*
X1252290Y384802D02*
X1258653D01*
X1290517Y389334D02*
Y379490D01*
Y389334D02*
X1292903D01*
X1293926Y388865*
X1294608Y387927*
X1294949Y386990*
X1295290Y385584*
Y383240*
X1294949Y381834*
X1294608Y380896*
X1293926Y379959*
X1292903Y379490*
X1290517*
X1302449Y386052D02*
Y379490D01*
Y384646D02*
X1301767Y385584D01*
X1301085Y386052*
X1300063*
X1299381Y385584*
X1298699Y384646*
X1298358Y383240*
Y382302*
X1298699Y380896*
X1299381Y379959*
X1300063Y379490*
X1301085*
X1301767Y379959*
X1302449Y380896*
X1306540Y389334D02*
Y381365D01*
X1306881Y379959*
X1307563Y379490*
X1308244*
X1305517Y386052D02*
X1307903D01*
X1311313Y383240D02*
X1315403D01*
Y384177*
X1315063Y385115*
X1314722Y385584*
X1314040Y386052*
X1313017*
X1312335Y385584*
X1311653Y384646*
X1311313Y383240*
Y382302*
X1311653Y380896*
X1312335Y379959*
X1313017Y379490*
X1314040*
X1314722Y379959*
X1315403Y380896*
X1318813Y386052D02*
X1318472Y385584D01*
X1318813Y385115*
X1319153Y385584*
X1318813Y386052*
Y380427D02*
X1318472Y379959D01*
X1318813Y379490*
X1319153Y379959*
X1318813Y380427*
X1326153Y382302D02*
X1327063Y382927D01*
X1328426Y384802*
Y371677*
X1335244Y384802D02*
X1333881Y384177D01*
X1332972Y382302*
X1332517Y379177*
Y377302*
X1332972Y374177*
X1333881Y372302*
X1335244Y371677*
X1336153*
X1337517Y372302*
X1338426Y374177*
X1338881Y377302*
Y379177*
X1338426Y382302*
X1337517Y384177*
X1336153Y384802*
X1335244*
X1351153Y387302D02*
X1342972Y367302D01*
X1357972Y384802D02*
X1356608Y384177D01*
X1355699Y382302*
X1355244Y379177*
Y377302*
X1355699Y374177*
X1356608Y372302*
X1357972Y371677*
X1358881*
X1360244Y372302*
X1361153Y374177*
X1361608Y377302*
Y379177*
X1361153Y382302*
X1360244Y384177*
X1358881Y384802*
X1357972*
X1371608D02*
X1367063D01*
X1366608Y379177*
X1367063Y379802*
X1368426Y380427*
X1369790*
X1371153Y379802*
X1372063Y378552*
X1372517Y376677*
X1372063Y375427*
X1371608Y373552*
X1370699Y372302*
X1369335Y371677*
X1367972*
X1366608Y372302*
X1366153Y372927*
X1365699Y374177*
X1384790Y387302D02*
X1376608Y367302D01*
X1388881Y382302D02*
X1389790Y382927D01*
X1391153Y384802*
Y371677*
X1401153Y384802D02*
X1396608D01*
X1396153Y379177*
X1396608Y379802*
X1397972Y380427*
X1399335*
X1400699Y379802*
X1401608Y378552*
X1402063Y376677*
X1401608Y375427*
X1401153Y373552*
X1400244Y372302*
X1398881Y371677*
X1397517*
X1396153Y372302*
X1395699Y372927*
X1395244Y374177*
X1509966Y381609D02*
X1510648Y382078D01*
X1511670Y383484*
Y373641*
X1641273Y383484D02*
Y373641D01*
Y383484D02*
X1644341D01*
X1645364Y383016*
X1645705Y382547*
X1646045Y381609*
Y380203*
X1645705Y379266*
X1645364Y378797*
X1644341Y378328*
X1641273*
X1649114Y380203D02*
Y373641D01*
Y377391D02*
X1649455Y378797D01*
X1650136Y379734*
X1650818Y380203*
X1651841*
X1654909Y383484D02*
X1655250Y383016D01*
X1655591Y383484*
X1655250Y383953*
X1654909Y383484*
X1655250Y380203D02*
Y373641D01*
X1658659Y380203D02*
Y373641D01*
Y378328D02*
X1659682Y379734D01*
X1660364Y380203*
X1661386*
X1662068Y379734*
X1662409Y378328*
Y373641*
Y378328D02*
X1663432Y379734D01*
X1664114Y380203*
X1665136*
X1665818Y379734*
X1666159Y378328*
Y373641*
X1673318Y380203D02*
Y373641D01*
Y378797D02*
X1672636Y379734D01*
X1671955Y380203*
X1670932*
X1670250Y379734*
X1669568Y378797*
X1669227Y377391*
Y376453*
X1669568Y375047*
X1670250Y374109*
X1670932Y373641*
X1671955*
X1672636Y374109*
X1673318Y375047*
X1676386Y380203D02*
Y373641D01*
Y377391D02*
X1676727Y378797D01*
X1677409Y379734*
X1678091Y380203*
X1679114*
X1682523D02*
X1684568Y373641D01*
X1686614Y380203D02*
X1684568Y373641D01*
X1683886Y371766*
X1683205Y370828*
X1682523Y370359*
X1682182*
X1702295Y382078D02*
X1701614Y383016D01*
X1700591Y383484*
X1699227*
X1698205Y383016*
X1697523Y382078*
Y381141*
X1697864Y380203*
X1698205Y379734*
X1698886Y379266*
X1700932Y378328*
X1701614Y377859*
X1701955Y377391*
X1702295Y376453*
Y375047*
X1701614Y374109*
X1700591Y373641*
X1699227*
X1698205Y374109*
X1697523Y375047*
X1705364Y383484D02*
X1705705Y383016D01*
X1706045Y383484*
X1705705Y383953*
X1705364Y383484*
X1705705Y380203D02*
Y373641D01*
X1713205Y383484D02*
Y373641D01*
Y378797D02*
X1712523Y379734D01*
X1711841Y380203*
X1710818*
X1710136Y379734*
X1709455Y378797*
X1709114Y377391*
Y376453*
X1709455Y375047*
X1710136Y374109*
X1710818Y373641*
X1711841*
X1712523Y374109*
X1713205Y375047*
X1716273Y377391D02*
X1720364D01*
Y378328*
X1720023Y379266*
X1719682Y379734*
X1719000Y380203*
X1717977*
X1717295Y379734*
X1716614Y378797*
X1716273Y377391*
Y376453*
X1716614Y375047*
X1717295Y374109*
X1717977Y373641*
X1719000*
X1719682Y374109*
X1720364Y375047*
X1152017Y521534D02*
X1153722Y511690D01*
X1155426Y521534D02*
X1153722Y511690D01*
X1155426Y521534D02*
X1157131Y511690D01*
X1158835Y521534D02*
X1157131Y511690D01*
X1161903Y521534D02*
X1162244Y521065D01*
X1162585Y521534*
X1162244Y522002*
X1161903Y521534*
X1162244Y518252D02*
Y511690D01*
X1165653Y521534D02*
Y511690D01*
X1168722Y521534D02*
Y511690D01*
X1173494Y518252D02*
X1172813Y517784D01*
X1172131Y516846*
X1171790Y515440*
Y514502*
X1172131Y513096*
X1172813Y512159*
X1173494Y511690*
X1174517*
X1175199Y512159*
X1175881Y513096*
X1176222Y514502*
Y515440*
X1175881Y516846*
X1175199Y517784*
X1174517Y518252*
X1173494*
X1179290D02*
X1180653Y511690D01*
X1182017Y518252D02*
X1180653Y511690D01*
X1182017Y518252D02*
X1183381Y511690D01*
X1184744Y518252D02*
X1183381Y511690D01*
X1200426Y520127D02*
X1199744Y521065D01*
X1198722Y521534*
X1197358*
X1196335Y521065*
X1195653Y520127*
Y519190*
X1195994Y518252*
X1196335Y517784*
X1197017Y517315*
X1199063Y516377*
X1199744Y515909*
X1200085Y515440*
X1200426Y514502*
Y513096*
X1199744Y512159*
X1198722Y511690*
X1197358*
X1196335Y512159*
X1195653Y513096*
X1203494Y518252D02*
Y508409D01*
Y516846D02*
X1204176Y517784D01*
X1204858Y518252*
X1205881*
X1206563Y517784*
X1207244Y516846*
X1207585Y515440*
Y514502*
X1207244Y513096*
X1206563Y512159*
X1205881Y511690*
X1204858*
X1204176Y512159*
X1203494Y513096*
X1210653Y518252D02*
Y511690D01*
Y515440D02*
X1210994Y516846D01*
X1211676Y517784*
X1212358Y518252*
X1213381*
X1216449Y521534D02*
X1216790Y521065D01*
X1217131Y521534*
X1216790Y522002*
X1216449Y521534*
X1216790Y518252D02*
Y511690D01*
X1220199Y518252D02*
Y511690D01*
Y516377D02*
X1221222Y517784D01*
X1221903Y518252*
X1222926*
X1223608Y517784*
X1223949Y516377*
Y511690*
X1231108Y518252D02*
Y510752D01*
X1230767Y509346*
X1230426Y508877*
X1229744Y508409*
X1228722*
X1228040Y508877*
X1231108Y516846D02*
X1230426Y517784D01*
X1229744Y518252*
X1228722*
X1228040Y517784*
X1227358Y516846*
X1227017Y515440*
Y514502*
X1227358Y513096*
X1228040Y512159*
X1228722Y511690*
X1229744*
X1230426Y512159*
X1231108Y513096*
X1244403Y521534D02*
Y511690D01*
X1242017Y521534D02*
X1246790D01*
X1249858Y515440D02*
X1253949D01*
Y516377*
X1253608Y517315*
X1253267Y517784*
X1252585Y518252*
X1251563*
X1250881Y517784*
X1250199Y516846*
X1249858Y515440*
Y514502*
X1250199Y513096*
X1250881Y512159*
X1251563Y511690*
X1252585*
X1253267Y512159*
X1253949Y513096*
X1261108Y516846D02*
X1260426Y517784D01*
X1259744Y518252*
X1258722*
X1258040Y517784*
X1257358Y516846*
X1257017Y515440*
Y514502*
X1257358Y513096*
X1258040Y512159*
X1258722Y511690*
X1259744*
X1260426Y512159*
X1261108Y513096*
X1264176Y521534D02*
Y511690D01*
Y516377D02*
X1265199Y517784D01*
X1265881Y518252*
X1266903*
X1267585Y517784*
X1267926Y516377*
Y511690*
X1270994Y518252D02*
Y511690D01*
Y516377D02*
X1272017Y517784D01*
X1272699Y518252*
X1273722*
X1274403Y517784*
X1274744Y516377*
Y511690*
X1277813Y521534D02*
X1278153Y521065D01*
X1278494Y521534*
X1278153Y522002*
X1277813Y521534*
X1278153Y518252D02*
Y511690D01*
X1285653Y516846D02*
X1284972Y517784D01*
X1284290Y518252*
X1283267*
X1282585Y517784*
X1281903Y516846*
X1281563Y515440*
Y514502*
X1281903Y513096*
X1282585Y512159*
X1283267Y511690*
X1284290*
X1284972Y512159*
X1285653Y513096*
X1292813Y518252D02*
Y511690D01*
Y516846D02*
X1292131Y517784D01*
X1291449Y518252*
X1290426*
X1289744Y517784*
X1289063Y516846*
X1288722Y515440*
Y514502*
X1289063Y513096*
X1289744Y512159*
X1290426Y511690*
X1291449*
X1292131Y512159*
X1292813Y513096*
X1295881Y521534D02*
Y511690D01*
X1311563Y520127D02*
X1310881Y521065D01*
X1309858Y521534*
X1308494*
X1307472Y521065*
X1306790Y520127*
Y519190*
X1307131Y518252*
X1307472Y517784*
X1308153Y517315*
X1310199Y516377*
X1310881Y515909*
X1311222Y515440*
X1311563Y514502*
Y513096*
X1310881Y512159*
X1309858Y511690*
X1308494*
X1307472Y512159*
X1306790Y513096*
X1314631Y515440D02*
X1318722D01*
Y516377*
X1318381Y517315*
X1318040Y517784*
X1317358Y518252*
X1316335*
X1315653Y517784*
X1314972Y516846*
X1314631Y515440*
Y514502*
X1314972Y513096*
X1315653Y512159*
X1316335Y511690*
X1317358*
X1318040Y512159*
X1318722Y513096*
X1321790Y518252D02*
Y511690D01*
Y515440D02*
X1322131Y516846D01*
X1322813Y517784*
X1323494Y518252*
X1324517*
X1327585D02*
X1329631Y511690D01*
X1331676Y518252D02*
X1329631Y511690D01*
X1334744Y521534D02*
X1335085Y521065D01*
X1335426Y521534*
X1335085Y522002*
X1334744Y521534*
X1335085Y518252D02*
Y511690D01*
X1342585Y516846D02*
X1341903Y517784D01*
X1341222Y518252*
X1340199*
X1339517Y517784*
X1338835Y516846*
X1338494Y515440*
Y514502*
X1338835Y513096*
X1339517Y512159*
X1340199Y511690*
X1341222*
X1341903Y512159*
X1342585Y513096*
X1345653Y515440D02*
X1349744D01*
Y516377*
X1349403Y517315*
X1349063Y517784*
X1348381Y518252*
X1347358*
X1346676Y517784*
X1345994Y516846*
X1345653Y515440*
Y514502*
X1345994Y513096*
X1346676Y512159*
X1347358Y511690*
X1348381*
X1349063Y512159*
X1349744Y513096*
X1356563Y516846D02*
X1356222Y517784D01*
X1355199Y518252*
X1354176*
X1353153Y517784*
X1352813Y516846*
X1353153Y515909*
X1353835Y515440*
X1355540Y514971*
X1356222Y514502*
X1356563Y513565*
Y513096*
X1356222Y512159*
X1355199Y511690*
X1354176*
X1353153Y512159*
X1352813Y513096*
X1372585Y519190D02*
X1372244Y520127D01*
X1371563Y521065*
X1370881Y521534*
X1369517*
X1368835Y521065*
X1368153Y520127*
X1367813Y519190*
X1367472Y517784*
Y515440*
X1367813Y514034*
X1368153Y513096*
X1368835Y512159*
X1369517Y511690*
X1370881*
X1371563Y512159*
X1372244Y513096*
X1372585Y514034*
X1377358Y518252D02*
X1376676Y517784D01*
X1375994Y516846*
X1375653Y515440*
Y514502*
X1375994Y513096*
X1376676Y512159*
X1377358Y511690*
X1378381*
X1379063Y512159*
X1379744Y513096*
X1380085Y514502*
Y515440*
X1379744Y516846*
X1379063Y517784*
X1378381Y518252*
X1377358*
X1383153D02*
Y511690D01*
Y515440D02*
X1383494Y516846D01*
X1384176Y517784*
X1384858Y518252*
X1385881*
X1388949D02*
Y508409D01*
Y516846D02*
X1389631Y517784D01*
X1390313Y518252*
X1391335*
X1392017Y517784*
X1392699Y516846*
X1393040Y515440*
Y514502*
X1392699Y513096*
X1392017Y512159*
X1391335Y511690*
X1390313*
X1389631Y512159*
X1388949Y513096*
X1396449Y512627D02*
X1396108Y512159D01*
X1396449Y511690*
X1396790Y512159*
X1396449Y512627*
X1218575Y496307D02*
X1219256Y496776D01*
X1220279Y498182*
Y488339*
X1223347Y496307D02*
X1224029Y496776D01*
X1225052Y498182*
Y488339*
X1229825Y498182D02*
X1228802Y497714D01*
X1228461Y496776*
Y495839*
X1228802Y494901*
X1229484Y494432*
X1230847Y493964*
X1231870Y493495*
X1232552Y492557*
X1232893Y491620*
Y490214*
X1232552Y489276*
X1232211Y488807*
X1231188Y488339*
X1229825*
X1228802Y488807*
X1228461Y489276*
X1228120Y490214*
Y491620*
X1228461Y492557*
X1229143Y493495*
X1230165Y493964*
X1231529Y494432*
X1232211Y494901*
X1232552Y495839*
Y496776*
X1232211Y497714*
X1231188Y498182*
X1229825*
X1240393D02*
X1236984D01*
X1236643Y493964*
X1236984Y494432*
X1238006Y494901*
X1239029*
X1240052Y494432*
X1240734Y493495*
X1241075Y492089*
X1240734Y491151*
X1240393Y489745*
X1239711Y488807*
X1238688Y488339*
X1237665*
X1236643Y488807*
X1236302Y489276*
X1235961Y490214*
X1257097Y495839D02*
X1256756Y496776D01*
X1256075Y497714*
X1255393Y498182*
X1254029*
X1253347Y497714*
X1252665Y496776*
X1252325Y495839*
X1251984Y494432*
Y492089*
X1252325Y490682*
X1252665Y489745*
X1253347Y488807*
X1254029Y488339*
X1255393*
X1256075Y488807*
X1256756Y489745*
X1257097Y490682*
X1260165Y492089D02*
X1264256D01*
Y493026*
X1263915Y493964*
X1263575Y494432*
X1262893Y494901*
X1261870*
X1261188Y494432*
X1260506Y493495*
X1260165Y492089*
Y491151*
X1260506Y489745*
X1261188Y488807*
X1261870Y488339*
X1262893*
X1263575Y488807*
X1264256Y489745*
X1267325Y494901D02*
Y488339D01*
Y493026D02*
X1268347Y494432D01*
X1269029Y494901*
X1270052*
X1270734Y494432*
X1271075Y493026*
Y488339*
X1275165Y498182D02*
Y490214D01*
X1275506Y488807*
X1276188Y488339*
X1276870*
X1274143Y494901D02*
X1276529D01*
X1279938D02*
Y488339D01*
Y492089D02*
X1280279Y493495D01*
X1280961Y494432*
X1281643Y494901*
X1282665*
X1285734Y492089D02*
X1289825D01*
Y493026*
X1289484Y493964*
X1289143Y494432*
X1288461Y494901*
X1287438*
X1286756Y494432*
X1286075Y493495*
X1285734Y492089*
Y491151*
X1286075Y489745*
X1286756Y488807*
X1287438Y488339*
X1288461*
X1289143Y488807*
X1289825Y489745*
X1305506Y496776D02*
X1304825Y497714D01*
X1303802Y498182*
X1302438*
X1301415Y497714*
X1300734Y496776*
Y495839*
X1301075Y494901*
X1301415Y494432*
X1302097Y493964*
X1304143Y493026*
X1304825Y492557*
X1305165Y492089*
X1305506Y491151*
Y489745*
X1304825Y488807*
X1303802Y488339*
X1302438*
X1301415Y488807*
X1300734Y489745*
X1309597Y498182D02*
Y490214D01*
X1309938Y488807*
X1310620Y488339*
X1311302*
X1308575Y494901D02*
X1310961D01*
X1314370D02*
Y488339D01*
Y492089D02*
X1314711Y493495D01*
X1315393Y494432*
X1316075Y494901*
X1317097*
X1320165Y492089D02*
X1324256D01*
Y493026*
X1323915Y493964*
X1323575Y494432*
X1322893Y494901*
X1321870*
X1321188Y494432*
X1320506Y493495*
X1320165Y492089*
Y491151*
X1320506Y489745*
X1321188Y488807*
X1321870Y488339*
X1322893*
X1323575Y488807*
X1324256Y489745*
X1327325Y492089D02*
X1331415D01*
Y493026*
X1331075Y493964*
X1330734Y494432*
X1330052Y494901*
X1329029*
X1328347Y494432*
X1327665Y493495*
X1327325Y492089*
Y491151*
X1327665Y489745*
X1328347Y488807*
X1329029Y488339*
X1330052*
X1330734Y488807*
X1331415Y489745*
X1335506Y498182D02*
Y490214D01*
X1335847Y488807*
X1336529Y488339*
X1337211*
X1334484Y494901D02*
X1336870D01*
X1208575Y475682D02*
Y465839D01*
Y475682D02*
X1211302Y465839D01*
X1214029Y475682D02*
X1211302Y465839D01*
X1214029Y475682D02*
Y465839D01*
X1217097Y475682D02*
X1217438Y475214D01*
X1217779Y475682*
X1217438Y476151*
X1217097Y475682*
X1217438Y472401D02*
Y465839D01*
X1224938Y475682D02*
Y465839D01*
Y470995D02*
X1224256Y471932D01*
X1223575Y472401*
X1222552*
X1221870Y471932*
X1221188Y470995*
X1220847Y469589*
Y468651*
X1221188Y467245*
X1221870Y466307*
X1222552Y465839*
X1223575*
X1224256Y466307*
X1224938Y467245*
X1232097Y475682D02*
Y465839D01*
Y470995D02*
X1231415Y471932D01*
X1230734Y472401*
X1229711*
X1229029Y471932*
X1228347Y470995*
X1228006Y469589*
Y468651*
X1228347Y467245*
X1229029Y466307*
X1229711Y465839*
X1230734*
X1231415Y466307*
X1232097Y467245*
X1235165Y475682D02*
Y465839D01*
X1238234Y469589D02*
X1242325D01*
Y470526*
X1241984Y471464*
X1241643Y471932*
X1240961Y472401*
X1239938*
X1239256Y471932*
X1238575Y470995*
X1238234Y469589*
Y468651*
X1238575Y467245*
X1239256Y466307*
X1239938Y465839*
X1240961*
X1241643Y466307*
X1242325Y467245*
X1245393Y475682D02*
Y465839D01*
Y470995D02*
X1246075Y471932D01*
X1246756Y472401*
X1247779*
X1248461Y471932*
X1249143Y470995*
X1249484Y469589*
Y468651*
X1249143Y467245*
X1248461Y466307*
X1247779Y465839*
X1246756*
X1246075Y466307*
X1245393Y467245*
X1254256Y472401D02*
X1253575Y471932D01*
X1252893Y470995*
X1252552Y469589*
Y468651*
X1252893Y467245*
X1253575Y466307*
X1254256Y465839*
X1255279*
X1255961Y466307*
X1256643Y467245*
X1256984Y468651*
Y469589*
X1256643Y470995*
X1255961Y471932*
X1255279Y472401*
X1254256*
X1260052D02*
Y465839D01*
Y469589D02*
X1260393Y470995D01*
X1261075Y471932*
X1261756Y472401*
X1262779*
X1267552D02*
X1266870Y471932D01*
X1266188Y470995*
X1265847Y469589*
Y468651*
X1266188Y467245*
X1266870Y466307*
X1267552Y465839*
X1268575*
X1269256Y466307*
X1269938Y467245*
X1270279Y468651*
Y469589*
X1269938Y470995*
X1269256Y471932*
X1268575Y472401*
X1267552*
X1274029Y466307D02*
X1273688Y465839D01*
X1273347Y466307*
X1273688Y466776*
X1274029Y466307*
Y465370*
X1273688Y464432*
X1273347Y463964*
X1284938Y475682D02*
Y465839D01*
Y475682D02*
X1287665Y465839D01*
X1290393Y475682D02*
X1287665Y465839D01*
X1290393Y475682D02*
Y465839D01*
X1296188Y475682D02*
X1293461Y465839D01*
X1296188Y475682D02*
X1298915Y465839D01*
X1294484Y469120D02*
X1297893D01*
X1311870Y475682D02*
X1310847Y475214D01*
X1310165Y473807*
X1309825Y471464*
Y470057*
X1310165Y467714*
X1310847Y466307*
X1311870Y465839*
X1312552*
X1313575Y466307*
X1314256Y467714*
X1314597Y470057*
Y471464*
X1314256Y473807*
X1313575Y475214*
X1312552Y475682*
X1311870*
X1318006Y473339D02*
Y473807D01*
X1318347Y474745*
X1318688Y475214*
X1319370Y475682*
X1320734*
X1321415Y475214*
X1321756Y474745*
X1322097Y473807*
Y472870*
X1321756Y471932*
X1321075Y470526*
X1317665Y465839*
X1322438*
X1326188Y475682D02*
X1329938D01*
X1327893Y471932*
X1328915*
X1329597Y471464*
X1329938Y470995*
X1330279Y469589*
Y468651*
X1329938Y467245*
X1329256Y466307*
X1328234Y465839*
X1327211*
X1326188Y466307*
X1325847Y466776*
X1325506Y467714*
X1336756Y475682D02*
X1333347Y469120D01*
X1338461*
X1336756Y475682D02*
Y465839D01*
X1345620Y474276D02*
X1345279Y475214D01*
X1344256Y475682*
X1343575*
X1342552Y475214*
X1341870Y473807*
X1341529Y471464*
Y469120*
X1341870Y467245*
X1342552Y466307*
X1343575Y465839*
X1343915*
X1344938Y466307*
X1345620Y467245*
X1345961Y468651*
Y469120*
X1345620Y470526*
X1344938Y471464*
X1343915Y471932*
X1343575*
X1342552Y471464*
X1341870Y470526*
X1341529Y469120*
X1289217Y448652D02*
X1290581Y442090D01*
X1291944Y448652D02*
X1290581Y442090D01*
X1291944Y448652D02*
X1293308Y442090D01*
X1294672Y448652D02*
X1293308Y442090D01*
X1297740Y448652D02*
X1299103Y442090D01*
X1300467Y448652D02*
X1299103Y442090D01*
X1300467Y448652D02*
X1301831Y442090D01*
X1303194Y448652D02*
X1301831Y442090D01*
X1306263Y448652D02*
X1307626Y442090D01*
X1308990Y448652D02*
X1307626Y442090D01*
X1308990Y448652D02*
X1310353Y442090D01*
X1311717Y448652D02*
X1310353Y442090D01*
X1315126Y443027D02*
X1314785Y442559D01*
X1315126Y442090*
X1315467Y442559*
X1315126Y443027*
X1318535Y448652D02*
X1319899Y442090D01*
X1321263Y448652D02*
X1319899Y442090D01*
X1321263Y448652D02*
X1322626Y442090D01*
X1323990Y448652D02*
X1322626Y442090D01*
X1330808Y447246D02*
X1330467Y448184D01*
X1329444Y448652*
X1328422*
X1327399Y448184*
X1327058Y447246*
X1327399Y446309*
X1328081Y445840*
X1329785Y445371*
X1330467Y444902*
X1330808Y443965*
Y443496*
X1330467Y442559*
X1329444Y442090*
X1328422*
X1327399Y442559*
X1327058Y443496*
X1334899Y451934D02*
Y443965D01*
X1335240Y442559*
X1335922Y442090*
X1336603*
X1333876Y448652D02*
X1336263D01*
X1343422Y447246D02*
X1343081Y448184D01*
X1342058Y448652*
X1341035*
X1340013Y448184*
X1339672Y447246*
X1340013Y446309*
X1340694Y445840*
X1342399Y445371*
X1343081Y444902*
X1343422Y443965*
Y443496*
X1343081Y442559*
X1342058Y442090*
X1341035*
X1340013Y442559*
X1339672Y443496*
X1350581Y447246D02*
X1349899Y448184D01*
X1349217Y448652*
X1348194*
X1347513Y448184*
X1346831Y447246*
X1346490Y445840*
Y444902*
X1346831Y443496*
X1347513Y442559*
X1348194Y442090*
X1349217*
X1349899Y442559*
X1350581Y443496*
X1355353Y448652D02*
X1354672Y448184D01*
X1353990Y447246*
X1353649Y445840*
Y444902*
X1353990Y443496*
X1354672Y442559*
X1355353Y442090*
X1356376*
X1357058Y442559*
X1357740Y443496*
X1358081Y444902*
Y445840*
X1357740Y447246*
X1357058Y448184*
X1356376Y448652*
X1355353*
X1361149D02*
Y442090D01*
Y445840D02*
X1361490Y447246D01*
X1362172Y448184*
X1362853Y448652*
X1363876*
X1366944D02*
Y438809D01*
Y447246D02*
X1367626Y448184D01*
X1368308Y448652*
X1369331*
X1370013Y448184*
X1370694Y447246*
X1371035Y445840*
Y444902*
X1370694Y443496*
X1370013Y442559*
X1369331Y442090*
X1368308*
X1367626Y442559*
X1366944Y443496*
X1374444Y443027D02*
X1374103Y442559D01*
X1374444Y442090*
X1374785Y442559*
X1374444Y443027*
X1381944Y447246D02*
X1381263Y448184D01*
X1380581Y448652*
X1379558*
X1378876Y448184*
X1378194Y447246*
X1377853Y445840*
Y444902*
X1378194Y443496*
X1378876Y442559*
X1379558Y442090*
X1380581*
X1381263Y442559*
X1381944Y443496*
X1386717Y448652D02*
X1386035Y448184D01*
X1385353Y447246*
X1385013Y445840*
Y444902*
X1385353Y443496*
X1386035Y442559*
X1386717Y442090*
X1387740*
X1388422Y442559*
X1389103Y443496*
X1389444Y444902*
Y445840*
X1389103Y447246*
X1388422Y448184*
X1387740Y448652*
X1386717*
X1392513D02*
Y442090D01*
Y446777D02*
X1393535Y448184D01*
X1394217Y448652*
X1395240*
X1395922Y448184*
X1396263Y446777*
Y442090*
Y446777D02*
X1397285Y448184D01*
X1397967Y448652*
X1398990*
X1399672Y448184*
X1400013Y446777*
Y442090*
X1143575Y450682D02*
Y440839D01*
Y450682D02*
X1146643D01*
X1147665Y450214*
X1148006Y449745*
X1148347Y448807*
Y447401*
X1148006Y446464*
X1147665Y445995*
X1146643Y445526*
X1143575*
X1151415Y450682D02*
Y440839D01*
X1156188Y450682D02*
Y440839D01*
X1151415Y445995D02*
X1156188D01*
X1171529Y450682D02*
X1168120D01*
X1167779Y446464*
X1168120Y446932*
X1169143Y447401*
X1170165*
X1171188Y446932*
X1171870Y445995*
X1172211Y444589*
X1171870Y443651*
X1171529Y442245*
X1170847Y441307*
X1169825Y440839*
X1168802*
X1167779Y441307*
X1167438Y441776*
X1167097Y442714*
X1177325Y450682D02*
X1176302Y450214D01*
X1175620Y448807*
X1175279Y446464*
Y445057*
X1175620Y442714*
X1176302Y441307*
X1177325Y440839*
X1178006*
X1179029Y441307*
X1179711Y442714*
X1180052Y445057*
Y446464*
X1179711Y448807*
X1179029Y450214*
X1178006Y450682*
X1177325*
X1184825D02*
X1183802Y450214D01*
X1183461Y449276*
Y448339*
X1183802Y447401*
X1184484Y446932*
X1185847Y446464*
X1186870Y445995*
X1187552Y445057*
X1187893Y444120*
Y442714*
X1187552Y441776*
X1187211Y441307*
X1186188Y440839*
X1184825*
X1183802Y441307*
X1183461Y441776*
X1183120Y442714*
Y444120*
X1183461Y445057*
X1184143Y445995*
X1185165Y446464*
X1186529Y446932*
X1187211Y447401*
X1187552Y448339*
Y449276*
X1187211Y450214*
X1186188Y450682*
X1184825*
X1190961Y445057D02*
X1197097D01*
X1204597Y447401D02*
X1204256Y445995D01*
X1203575Y445057*
X1202552Y444589*
X1202211*
X1201188Y445057*
X1200506Y445995*
X1200165Y447401*
Y447870*
X1200506Y449276*
X1201188Y450214*
X1202211Y450682*
X1202552*
X1203575Y450214*
X1204256Y449276*
X1204597Y447401*
Y445057*
X1204256Y442714*
X1203575Y441307*
X1202552Y440839*
X1201870*
X1200847Y441307*
X1200506Y442245*
X1211075Y450682D02*
X1207665Y444120D01*
X1212779*
X1211075Y450682D02*
Y440839D01*
X1220620Y450682D02*
X1217211Y440839D01*
X1215847Y450682D02*
X1220620D01*
X1223688Y445057D02*
X1229825D01*
X1233234Y448339D02*
Y448807D01*
X1233575Y449745*
X1233915Y450214*
X1234597Y450682*
X1235961*
X1236643Y450214*
X1236984Y449745*
X1237325Y448807*
Y447870*
X1236984Y446932*
X1236302Y445526*
X1232893Y440839*
X1237665*
X1245506Y450682D02*
X1242097Y440839D01*
X1240734Y450682D02*
X1245506D01*
X1250620D02*
X1249597Y450214D01*
X1248915Y448807*
X1248575Y446464*
Y445057*
X1248915Y442714*
X1249597Y441307*
X1250620Y440839*
X1251302*
X1252325Y441307*
X1253006Y442714*
X1253347Y445057*
Y446464*
X1253006Y448807*
X1252325Y450214*
X1251302Y450682*
X1250620*
X1260847Y447401D02*
X1260506Y445995D01*
X1259825Y445057*
X1258802Y444589*
X1258461*
X1257438Y445057*
X1256756Y445995*
X1256415Y447401*
Y447870*
X1256756Y449276*
X1257438Y450214*
X1258461Y450682*
X1258802*
X1259825Y450214*
X1260506Y449276*
X1260847Y447401*
Y445057*
X1260506Y442714*
X1259825Y441307*
X1258802Y440839*
X1258120*
X1257097Y441307*
X1256756Y442245*
X1028000Y888100D02*
Y891856D01*
X1028018Y891873*
X1028000Y877900D02*
Y880752D01*
X1028054Y880952*
X1013500Y888100D02*
Y891193D01*
X1013654Y891346*
X1013500Y877900D02*
Y881193D01*
X1013654Y881346*
X1024154Y902696D02*
Y906454D01*
X1024200Y906500*
X1009654Y902696D02*
Y906254D01*
X1009900Y906500*
X1017154Y902696D02*
Y906396D01*
X1017050Y906500*
X1016280Y838490D02*
Y845222D01*
X1016212Y845290*
X1016768Y845846*
X1019654*
X1099200Y875200D02*
Y877200D01*
X1098500Y877900*
Y881160*
X1056000Y888100D02*
Y891598D01*
X1056154Y891752*
X1056000Y877900D02*
X1055554D01*
Y881252*
X1042000Y888100D02*
Y891900D01*
X1041954Y891946*
X1042000Y877900D02*
Y880752D01*
X1041954Y880952*
X1084500Y888100D02*
Y891900D01*
X1084600Y892000*
X1084500Y877900D02*
Y881102D01*
X1084504Y881252*
X1070000Y888100D02*
Y891700D01*
X1069954Y891746*
X1070000Y877900D02*
X1069254D01*
Y881252*
X1080654Y902696D02*
Y906304D01*
X1080850Y906500*
X1059654Y902696D02*
Y906500D01*
X1059400*
X1038654Y902696D02*
Y906346D01*
X1038500Y906500*
X1066154Y902696D02*
Y906346D01*
X1066000Y906500*
X1073654Y902696D02*
Y906454D01*
X1073700Y906500*
X1052654Y902696D02*
Y906354D01*
X1052800Y906500*
X1045654Y902696D02*
Y906496D01*
X1045650Y906500*
X1088154Y902696D02*
Y906346D01*
X1088000Y906500*
X1031654Y902696D02*
Y906254D01*
X1031900Y906500*
X1125600Y882400D02*
X1125610D01*
Y887283*
X1152126Y905079D02*
X1153701Y906654D01*
X1148976Y905079D02*
X1150551Y906654D01*
X1131654D02*
X1130079Y905079D01*
X1128711Y906248*
X1122000Y906250*
X1173700Y889400D02*
Y892846D01*
X1173654*
X1125610Y872717D02*
Y879990D01*
X1125600Y880000*
X1189921Y908228D02*
X1188346Y909803D01*
X1189921Y905079D02*
X1188346Y906654D01*
X1343654Y911346D02*
Y912096D01*
X1318354Y899052D02*
Y902452D01*
X1309754Y902352D02*
X1309854Y902452D01*
X1312654*
X1309354Y890452D02*
X1309402Y890500D01*
X1312000*
X1343654Y905152D02*
X1340954D01*
X1343654Y901152D02*
X1343574Y901231D01*
X1340304*
X1339004Y902531*
X1335307*
X1318354Y906452D02*
Y906469D01*
X1323693*
X1318354Y906452D02*
X1313004D01*
X1312554Y906902*
X1329500Y904500D02*
X1323693D01*
Y908437D02*
X1324054Y908798D01*
Y913050*
X1322104Y915000*
X1318413*
X1335307Y906469D02*
X1338000D01*
X1339000Y907469*
Y909000*
X1338000Y910000*
Y914000*
X1335307Y904500D02*
X1338302D01*
X1338954Y905152*
X1340954*
X1316000Y895500D02*
X1319622D01*
X1320874Y896752*
Y901952*
X1321454Y902531*
X1323693*
X1312000Y895500D02*
Y897652D01*
X1313400Y899052*
X1318354*
X1318004Y874052D02*
Y879202D01*
X1318054Y879252*
X1312654Y906452D02*
X1312554Y906552D01*
Y906902*
X1316000Y890500D02*
Y895500D01*
X1336054Y874052D02*
Y878302D01*
X1340054Y882052D02*
Y884500D01*
X1340000*
X1336054Y882052D02*
Y900563D01*
X1335307*
X1336054Y882052D02*
Y877952D01*
Y878302*
X1344894Y838490D02*
Y844447D01*
X1343764Y845577*
X1343326*
X1310248Y838490D02*
Y846367D01*
X1308676Y847940*
X1350510Y888450D02*
Y888502D01*
X1343654*
X1370154Y899846D02*
X1369904Y900096D01*
X1359654*
X1379540Y838490D02*
Y845190D01*
X1379518*
X1377418Y847290*
X992605Y941958D02*
X992704Y942057D01*
X1007824Y990354D02*
X1008858D01*
X985424Y942149D02*
Y947600D01*
X984850*
X1005024Y962949D02*
X1004906Y963067D01*
X1002244*
X992704Y942057D02*
X996132D01*
X996224Y942149*
X992704Y942057D02*
Y947600D01*
X991550*
X988704Y942057D02*
X985516D01*
X985424Y942149*
X1009177Y972372D02*
X1005424D01*
Y972549*
X1013177Y972372D02*
X1016047D01*
X1016224Y972549*
X1009342Y946390D02*
Y948949D01*
X1009424*
X988842Y965890D02*
X991564D01*
X991824Y966149*
X998244Y963067D02*
X997292Y964019D01*
X995228*
X1021024Y983349D02*
X1019024Y983749D01*
X1025024Y983349D02*
X1029824Y983749D01*
Y984149*
X998224Y955972D02*
X997024Y957173D01*
X995200*
X995024Y957349*
X1098856Y986390D02*
X1104504D01*
X1104606Y986492*
X1098856Y986390D02*
X1097856Y987390D01*
X1085981*
X1029824Y973749D02*
Y977349D01*
X1059824Y971749D02*
Y974549D01*
X1041024Y950149D02*
X1043101D01*
X1044342Y951390*
X1060624Y959349D02*
X1065459D01*
X1065500Y959390*
X1060624Y959349D02*
Y963349D01*
X1061424Y964149*
X1065259*
X1065500Y964390*
X1055824Y971349D02*
Y974549D01*
X1063824Y979349D02*
Y982390D01*
X1065981*
X1051824Y989349D02*
X1051783Y989390D01*
X1047731*
X1109150Y983834D02*
X1109051Y983933D01*
X1104606*
X1090224Y974549D02*
X1090309Y974634D01*
X1097806Y981190D02*
X1097991Y981374D01*
X1104606*
X1085981Y982390D02*
X1091991D01*
X1092004Y982402*
X1085500Y974390D02*
X1090065D01*
X1090224Y974549*
X1085500Y959390D02*
X1090557D01*
X1090606Y959440*
X1065500Y974390D02*
X1065341Y974549D01*
X1059824*
X1104606Y991610D02*
X1098636D01*
X1097856Y992390*
X1085981*
X1093024Y974549D02*
X1090309Y974634D01*
X1097024Y974549D02*
Y977582D01*
X1097004Y977602*
X1029824Y981349D02*
Y984149D01*
X1035756Y936019D02*
Y939356D01*
X1035800Y939400*
X1034894Y980817D02*
X1036224Y982147D01*
Y984149*
X1048342Y946390D02*
X1051090D01*
X1051100Y946400*
X1047469Y970177D02*
Y974504D01*
X1047424Y974549*
X1048342Y941390D02*
X1051090D01*
X1051100Y941400*
X1044342Y941390D02*
Y942149D01*
X1041024*
X1032083Y962890D02*
X1027483D01*
X1027424Y962949*
X1032083Y952890D02*
X1037364D01*
X1037424Y952949*
X1130079Y923976D02*
X1131654Y925551D01*
X1142677Y927126D02*
X1144252Y928701D01*
X1152126Y927126D02*
X1153701Y928701D01*
X1152126Y933425D02*
X1153701Y935000D01*
X1145504Y974322D02*
Y975552D01*
X1158425Y933425D02*
X1156850Y935000D01*
X1161575Y933425D02*
X1160000Y935000D01*
X1155275Y917677D02*
X1156850Y919252D01*
X1155275Y920827D02*
X1156850Y922402D01*
X1177323Y923976D02*
X1175748Y925551D01*
X1174173Y923976D02*
X1172598Y925551D01*
X1130079Y927126D02*
X1131654Y928701D01*
X1174173Y930278D02*
X1172598Y931850D01*
X1145827Y927126D02*
X1147402Y928701D01*
X1177323Y930278D02*
X1175748Y931850D01*
X1159399Y972298D02*
X1160718Y973617D01*
Y974602*
X1159768Y975552*
X1152204*
X1167874Y917677D02*
X1166299Y919252D01*
X1164725Y917677D02*
X1163150Y919252D01*
X1145949Y990997D02*
X1145888D01*
Y994764*
X1186772Y930275D02*
X1185197Y931850D01*
X1177323Y920827D02*
X1175748Y922402D01*
X1153701D02*
X1152126Y920827D01*
X1150551Y922401*
Y922402*
X1153701Y919252D02*
X1152126Y917677D01*
X1150551Y919252*
X1150551*
X1130079Y920827D02*
X1131654Y922402D01*
X1164725Y930275D02*
X1163150Y931850D01*
X1167874Y930275D02*
X1166299Y931850D01*
X1161575Y930275D02*
X1160000Y931850D01*
X1155275Y930275D02*
X1156850Y931850D01*
X1177323Y917677D02*
X1175748Y919252D01*
X1177323Y927126D02*
X1175748Y928701D01*
X1145827Y930275D02*
X1147402Y931850D01*
X1152126Y930275D02*
X1153701Y931850D01*
X1155275Y927126D02*
X1156850Y928701D01*
X1161575Y927126D02*
X1160000Y928701D01*
X1174173Y917677D02*
X1172598Y919252D01*
X1174173Y920827D02*
X1172598Y922402D01*
X1167874Y920827D02*
X1166299Y922402D01*
X1164725Y920827D02*
X1163150Y922402D01*
X1164725Y927126D02*
X1163150Y928701D01*
X1167874Y927126D02*
X1166299Y928701D01*
X1174173Y927126D02*
X1172598Y928701D01*
X1120654Y951596D02*
X1122303D01*
Y955748*
X1175748Y935000D02*
X1177323Y936575D01*
X1172598Y935000D02*
X1174179Y936572D01*
X1166299Y935000D02*
X1166299D01*
X1164725Y936575*
X1163150Y935000D02*
X1164725Y936575D01*
X1166299Y938150D02*
X1166299D01*
X1164725Y939725*
X1163150Y938150D02*
X1164725Y939725D01*
X1160000Y938150D02*
X1158425Y939725D01*
X1156850Y938150D02*
X1155275Y939725D01*
X1153701Y938150D02*
X1152126Y939725D01*
X1147402Y938150D02*
X1144252D01*
X1142677Y939725*
X1182047Y941299D02*
X1183622Y942874D01*
X1178898Y941299D02*
X1180473Y942874D01*
X1175748Y941299D02*
X1177323Y942874D01*
X1172598Y941299D02*
X1174179Y942872D01*
X1166299Y941299D02*
Y941300D01*
X1164725Y942874*
X1163150Y941299D02*
X1164725Y942874D01*
X1160000Y941299D02*
X1158425Y942874D01*
X1156850Y941299D02*
X1155275Y942874D01*
X1153701Y941299D02*
X1152126Y942874D01*
X1147402Y941299D02*
X1145827Y942874D01*
X1144252Y941299D02*
X1142677Y942874D01*
X1182047Y944449D02*
X1183622Y946024D01*
X1178898Y944449D02*
X1180473Y946024D01*
X1175748Y944449D02*
X1177323Y946024D01*
X1147402Y944449D02*
X1145827Y946024D01*
X1144252Y944449D02*
X1142677Y946024D01*
X1141102Y944449D02*
X1139529Y946022D01*
X1178898Y947598D02*
X1180473Y949173D01*
X1175748Y947598D02*
X1177323Y949173D01*
X1172598Y947598D02*
X1174173Y949173D01*
X1169449Y947598D02*
X1171024Y949173D01*
X1166299Y947598D02*
X1167874Y949173D01*
X1160000Y947598D02*
X1158425Y949173D01*
X1153701Y947598D02*
X1152126Y949173D01*
X1150551Y947598D02*
X1148976Y949173D01*
X1147402Y947598D02*
X1145827Y949173D01*
X1144252Y947598D02*
X1142677Y949173D01*
X1141102Y947598D02*
X1139527Y949173D01*
X1178898Y950748D02*
X1180473Y952323D01*
X1175748Y950748D02*
X1177323Y952323D01*
X1172598Y950748D02*
X1174173Y952323D01*
X1169449Y950748D02*
X1171024Y952323D01*
X1166299Y950748D02*
X1167874Y952323D01*
X1160000Y950748D02*
X1158425Y952323D01*
X1153701Y950748D02*
X1152126Y952323D01*
X1150551Y950748D02*
X1148976Y952323D01*
X1147402Y950748D02*
X1145827Y952323D01*
X1144252Y950748D02*
X1142677Y952323D01*
X1131654Y960197D02*
X1130079Y961772D01*
X1188346Y963346D02*
X1189921Y964921D01*
X1185197Y963346D02*
X1186772Y964921D01*
X1160000Y963346D02*
X1158425Y964921D01*
X1156850Y963346D02*
X1155275Y964921D01*
X1131654Y963346D02*
X1130079Y964921D01*
X1120654Y934096D02*
Y944096D01*
X1198154Y983825D02*
X1195046D01*
X1236384Y931852D02*
X1236500Y931968D01*
Y934300*
X1221654Y987846D02*
X1222606D01*
Y992590*
X1210654Y987846D02*
Y989852D01*
X1208154*
Y992590*
X1314900Y941346D02*
X1317879D01*
X1317754*
X1313900Y967800D02*
Y973953D01*
X1313953*
X1313354Y934952D02*
Y940294D01*
X1314406Y941346*
X1314900*
X1338600Y925000D02*
X1335500D01*
X1336404Y931602D02*
X1336109Y931896D01*
X1331679*
X1336700Y968900D02*
X1336647Y968953D01*
X1336400*
Y973953*
X1336453*
X1343654Y919596D02*
Y923702D01*
X1343554Y923802*
X1325379Y941346D02*
X1329904D01*
Y941352*
X1307587Y915000D02*
Y923752D01*
X1313087Y929252*
Y931655*
X1313329Y931896*
X1313354*
Y934952*
X1351654Y915346D02*
Y918302D01*
X1351354Y918602*
X1011824Y1000591D02*
X1008858D01*
X1002633Y1003740D02*
X1002624Y1003749D01*
X1022881Y1004317D02*
Y1005500D01*
X1029500*
X1041424Y1007349D02*
X1041241Y1007532D01*
Y1011490*
X1034224Y1000149D02*
X1033981D01*
Y1004040*
X1091799Y1021299D02*
X1091709Y1021390D01*
X1085981*
X1091799Y997283D02*
X1091693Y997390D01*
X1085981*
X1029500Y1003000D02*
X1022881D01*
Y1004317*
X1085981Y1006390D02*
X1091806D01*
X1104600Y1014500D02*
Y1017545D01*
X1104803Y1017748*
X1040981Y996390D02*
X1037183D01*
X1037024Y996549*
X1044981Y996390D02*
X1048464D01*
X1048624Y996549*
X1044981Y996390D02*
Y1001290D01*
X1053981Y1006390D02*
X1051183D01*
X1051024Y1006549*
X1164254Y1020852D02*
X1164236Y1020869D01*
Y1025000*
X1161254Y1014752D02*
X1161265Y1014764D01*
X1166008*
X1183754Y1019652D02*
X1183724Y1019681D01*
Y1025000*
X1174254Y1019252D02*
X1174276Y1019274D01*
Y1025000*
X1171454Y1014352D02*
X1171472Y1014370D01*
X1173882*
X1126606Y996729D02*
X1130999D01*
X1131099Y997098*
X1208654Y1011502D02*
X1206565Y1013591D01*
X1205122*
X1193754Y1020552D02*
X1193764Y1020562D01*
Y1025000*
X1196554Y1014752D02*
X1196542Y1014764D01*
X1191992*
X1246154Y1000952D02*
X1246256D01*
X1246356Y1001052*
X1212654Y1011496D02*
X1208659D01*
X1208654Y1011502*
X1229254Y1014846D02*
X1233198D01*
X1233204Y1014852*
X1246356Y1007490D02*
Y1011690D01*
Y997290D02*
Y1001052D01*
X1323154Y1005752D02*
X1322900Y1006006D01*
Y1010300*
X1331654Y1005752D02*
Y1010800D01*
X1331500Y1010300*
X1025000Y1009000D02*
X1030000D01*
Y1001500*
X1025000*
Y1009000*
X1355000Y891000D02*
X1366500D01*
Y882500*
X1355000*
Y891000*
X1308000Y915000D02*
X1305000D01*
Y948580*
X1318500*
Y939000*
X1314000*
Y920000*
X1308000*
Y915000*
X1324000Y909000D02*
X1322000D01*
Y912500*
X1317000*
Y917000*
X1324000*
Y909000*
X1362000Y922000D02*
X1357000D01*
Y932500*
X1362000*
Y922000*
X1323190Y900350D02*
X1324610D01*
Y892910*
X1323190*
Y900350*
X1152600Y975698D02*
X1162550D01*
Y971798*
X1152600*
Y975698*
X1025000Y1008699D02*
X1030000D01*
X1025000Y1007799D02*
X1030000D01*
X1025000Y1006899D02*
X1030000D01*
X1025000Y1005999D02*
X1030000D01*
X1025000Y1005099D02*
X1030000D01*
X1025000Y1004199D02*
X1030000D01*
X1025000Y1003299D02*
X1030000D01*
X1025000Y1002399D02*
X1030000D01*
X1355000Y890599D02*
X1366500D01*
X1355000Y889699D02*
X1366500D01*
X1355000Y888799D02*
X1366500D01*
X1355000Y887899D02*
X1366500D01*
X1355000Y886999D02*
X1366500D01*
X1355000Y886099D02*
X1366500D01*
X1355000Y885199D02*
X1366500D01*
X1355000Y884299D02*
X1366500D01*
X1355000Y883399D02*
X1366500D01*
X1305000Y948299D02*
X1318500D01*
X1305000Y947399D02*
X1318500D01*
X1305000Y946499D02*
X1318500D01*
X1305000Y945599D02*
X1318500D01*
X1305000Y944699D02*
X1318500D01*
X1305000Y943799D02*
X1318500D01*
X1305000Y942899D02*
X1318500D01*
X1305000Y941999D02*
X1318500D01*
X1305000Y941099D02*
X1318500D01*
X1305000Y940199D02*
X1318500D01*
X1305000Y939299D02*
X1318500D01*
X1305000Y938399D02*
X1314000D01*
X1305000Y937499D02*
X1314000D01*
X1305000Y936599D02*
X1314000D01*
X1305000Y935699D02*
X1314000D01*
X1305000Y934799D02*
X1314000D01*
X1305000Y933899D02*
X1314000D01*
X1305000Y932999D02*
X1314000D01*
X1305000Y932099D02*
X1314000D01*
X1305000Y931199D02*
X1314000D01*
X1305000Y930299D02*
X1314000D01*
X1305000Y929399D02*
X1314000D01*
X1305000Y928499D02*
X1314000D01*
X1305000Y927599D02*
X1314000D01*
X1305000Y926699D02*
X1314000D01*
X1305000Y925799D02*
X1314000D01*
X1305000Y924899D02*
X1314000D01*
X1305000Y923999D02*
X1314000D01*
X1305000Y923099D02*
X1314000D01*
X1305000Y922199D02*
X1314000D01*
X1305000Y921299D02*
X1314000D01*
X1305000Y920399D02*
X1314000D01*
X1305000Y919499D02*
X1308000D01*
X1305000Y918599D02*
X1308000D01*
X1305000Y917699D02*
X1308000D01*
X1305000Y916799D02*
X1308000D01*
X1305000Y915899D02*
X1308000D01*
X1317000Y916199D02*
X1324000D01*
X1317000Y915299D02*
X1324000D01*
X1317000Y914399D02*
X1324000D01*
X1317000Y913499D02*
X1324000D01*
X1317000Y912599D02*
X1324000D01*
X1322000Y911699D02*
X1324000D01*
X1322000Y910799D02*
X1324000D01*
X1322000Y909899D02*
X1324000D01*
X1357000Y931899D02*
X1362000D01*
X1357000Y930999D02*
X1362000D01*
X1357000Y930099D02*
X1362000D01*
X1357000Y929199D02*
X1362000D01*
X1357000Y928299D02*
X1362000D01*
X1357000Y927399D02*
X1362000D01*
X1357000Y926499D02*
X1362000D01*
X1357000Y925599D02*
X1362000D01*
X1357000Y924699D02*
X1362000D01*
X1357000Y923799D02*
X1362000D01*
X1357000Y922899D02*
X1362000D01*
X1323190Y900109D02*
X1324610D01*
X1323190Y899209D02*
X1324610D01*
X1323190Y898309D02*
X1324610D01*
X1323190Y897409D02*
X1324610D01*
X1323190Y896509D02*
X1324610D01*
X1323190Y895609D02*
X1324610D01*
X1323190Y894709D02*
X1324610D01*
X1323190Y893809D02*
X1324610D01*
X1152600Y975396D02*
X1162550D01*
X1152600Y974496D02*
X1162550D01*
X1152600Y973596D02*
X1162550D01*
X1152600Y972696D02*
X1162550D01*
X984424Y1001349D02*
G75*
G03X984424I-2200J0D01*
G01X986024Y1006549D02*
G03X986024I-2200J0D01*
G01X1014500Y1015989D02*
Y1026500D01*
G03X1014000Y1027000I-500J0*
G01X977500*
G03X977000Y1026500I0J-500*
G01Y996750*
G03X977634Y996269I500J0*
G01Y992030D02*
G03Y996269I590J2119D01*
G01Y992030D02*
G03X977000Y991548I-134J-482D01*
G01Y984500*
G03X977500Y984000I500J0*
G01X1012124*
G03X1012624Y984500I-0J500*
G01Y1000940*
G03X1012124Y1001440I-500J0*
G01X1004858*
X1003682*
G03X1003197Y1000816I-0J-500*
G01X1001755Y997206D02*
G03X1003197Y1000816I-1755J2794D01*
G01X1001755Y997206D02*
G03X1001911Y996295I266J-424D01*
G01X1000005Y995831D02*
G03X1001911Y996295I1419J-1682D01*
G01X1000005Y995831D02*
G03X999725Y996711I-322J382D01*
G01X999855Y1003297D02*
G03X999725Y996711I145J-3297D01*
G01X999855Y1003297D02*
G03X1000333Y1003786I-22J499D01*
G01X1001222Y1005556D02*
G03X1000333Y1003786I1411J-1816D01*
G01X1001222Y1005556D02*
G03X1001380Y1006136I-307J395D01*
G01X1001814Y1008449D02*
G03X1001380Y1006136I1610J-1500D01*
G01X1001814Y1008449D02*
G03X1001736Y1009199I-365J341D01*
G01X1000953Y1010194D02*
G03X1001736Y1009199I2047J806D01*
G01X1000953Y1010194D02*
G03X1000423Y1010507I-465J-183D01*
G01X1003012Y1015128D02*
G03X1000423Y1010507I-3012J-1348D01*
G01X1003012Y1015128D02*
G03X1003854Y1015015I456J205D01*
G01X1004858Y1015489D02*
G03X1003854Y1015015I0J-1300D01*
G01X1004858Y1015489D02*
X1012858D01*
X1014000*
G03X1014500Y1015989I0J500*
G01X984424Y1001349D02*
G03X984424I-2200J0D01*
G01X986024Y1006549D02*
G03X986024I-2200J0D01*
G01X977000Y1026299D02*
X1014500D01*
X977000Y1025399D02*
X1014500D01*
X977000Y1024499D02*
X1014500D01*
X977000Y1023599D02*
X1014500D01*
X977000Y1022699D02*
X1014500D01*
X977000Y1021799D02*
X1014500D01*
X977000Y1020899D02*
X1014500D01*
X977000Y1019999D02*
X1014500D01*
X977000Y1019099D02*
X1014500D01*
X977000Y1018199D02*
X1014500D01*
X977000Y1017299D02*
X1014500D01*
X1002008Y1016399D02*
X1014500D01*
X1002817Y1015499D02*
X1014098D01*
X1003294Y1000199D02*
X1012624D01*
X1003225Y999299D02*
X1012624D01*
X1002885Y998399D02*
X1012624D01*
X1002153Y997499D02*
X1012624D01*
X1001556Y996599D02*
X1012624D01*
X1002986Y995699D02*
X1012624D01*
X1003526Y994799D02*
X1012624D01*
X1003609Y993899D02*
X1012624D01*
X1003299Y992999D02*
X1012624D01*
X1002221Y992099D02*
X1012624D01*
X977000Y991199D02*
X1012624D01*
X977000Y990299D02*
X1012624D01*
X977000Y989399D02*
X1012624D01*
X977000Y988499D02*
X1012624D01*
X977000Y987599D02*
X1012624D01*
X977000Y986699D02*
X1012624D01*
X977000Y985799D02*
X1012624D01*
X977000Y984899D02*
X1012624D01*
X1003208Y1001099D02*
X1012598D01*
X977000Y1009199D02*
X1001737D01*
X985158Y1008299D02*
X1001686D01*
X986023Y1006499D02*
X1001270D01*
X985853Y1007399D02*
X1001270D01*
X985808Y1005599D02*
X1001269D01*
X977000Y1010099D02*
X1000993D01*
X979021Y992099D02*
X1000627D01*
X985014Y1004699D02*
X1000542D01*
X977000Y1003799D02*
X1000334D01*
X977024Y996599D02*
X1000002D01*
X979786Y995699D02*
X999862D01*
X980099Y992999D02*
X999549D01*
X980326Y994799D02*
X999322D01*
X980409Y993899D02*
X999238D01*
X983786Y1002899D02*
X998423D01*
X977000Y1010999D02*
X998223D01*
X977000Y1016399D02*
X997992D01*
X977000Y997499D02*
X997847D01*
X984326Y1001999D02*
X997374D01*
X977000Y1011899D02*
X997288D01*
X977000Y1015499D02*
X997183D01*
X977000Y998399D02*
X997115D01*
X984409Y1001099D02*
X996888D01*
X977000Y1012799D02*
X996849D01*
X977000Y1014599D02*
X996803D01*
X983021Y999299D02*
X996775D01*
X984099Y1000199D02*
X996706D01*
X977000Y1013699D02*
X996701D01*
X977000Y1004699D02*
X982634D01*
X977000Y1008299D02*
X982490D01*
X977000Y1005599D02*
X981840D01*
X977000Y1007399D02*
X981794D01*
X977000Y1006499D02*
X981624D01*
X977000Y999299D02*
X981427D01*
X977000Y1002899D02*
X980662D01*
X977000Y1000199D02*
X980349D01*
X977000Y1001999D02*
X980122D01*
X977000Y1001099D02*
X980038D01*
G54D191*
X1104400Y880400D02*
Y885080D01*
X1103200Y886280*
X1098500*
X1098000Y906250D02*
X1093395D01*
Y906416*
X1091895Y907916*
X1079272Y838490D02*
Y845028D01*
X1078400Y845900*
X1060374Y838490D02*
Y845126D01*
X1060000Y845500*
X1035178Y838490D02*
Y846699D01*
X1035195Y846716*
X1170611Y838490D02*
Y844400D01*
X1171800Y845600*
X1148563Y838490D02*
Y844637D01*
X1147700Y845500*
X1120217Y838490D02*
Y845794D01*
X1120195Y845816*
X1192658Y838490D02*
Y845600D01*
X1193658Y846600*
X1195900*
X1325500Y892913D02*
Y895445D01*
X1323693Y897252*
Y900563*
X1020256Y936019D02*
Y940044D01*
X1020100Y940200*
X1016256Y936019D02*
Y939956D01*
X1016300Y940000*
X1031756Y936019D02*
X1031900Y936163D01*
Y938800*
X1115595Y941716D02*
Y942996D01*
X1116695Y944096*
X1120654*
X1161575Y920827D02*
X1160000Y922402D01*
X1161575Y917677D02*
X1160000Y919252D01*
X1142677Y933425D02*
X1144252Y935000D01*
X1171024Y917677D02*
X1169449Y919252D01*
X1171023Y920828D02*
X1169449Y922402D01*
X1145827Y933425D02*
X1147402Y935000D01*
X1145827Y930275D02*
X1144252Y931850D01*
X1144252*
X1175748Y938150D02*
X1177323Y939725D01*
X1172598Y938150D02*
X1174179Y939722D01*
X1172598Y944449D02*
X1174179Y946022D01*
X1163150Y947598D02*
X1164725Y949173D01*
X1156850Y947598D02*
X1155275Y949173D01*
X1163150Y950748D02*
X1164725Y952323D01*
X1156850Y950748D02*
X1155275Y952323D01*
X1228800Y967046D02*
Y967550D01*
X1222800Y960100D02*
X1222900Y960102D01*
X1240500Y949600D02*
Y953449D01*
X1240451Y953498*
X1314200Y968900D02*
X1313953Y969147D01*
Y973953*
X1067300Y1002600D02*
Y1006390D01*
X1120900Y1008700D02*
Y1008516D01*
X1124095Y1011816*
X1110795Y1006526D02*
X1114726D01*
X1116900Y1008700*
X1110795Y1006526D02*
X1109921Y1007400D01*
Y1009260*
X1126606Y1004406D02*
X1122000D01*
X1120906Y1005500*
Y1008694*
X1120900Y1008700*
X1235200Y1017200D02*
X1235154Y1017246D01*
Y1020346*
X1257700Y1017300D02*
X1257654Y1017346D01*
Y1020346*
X1291453Y1018453D02*
X1291450Y1018456D01*
Y1024650*
X1343250Y1020750D02*
X1338656D01*
X1338453Y1020953*
G54D193*
X1364500Y887000D03*
Y890000D03*
Y884000D03*
X1322800Y958200D03*
X1052624Y1025749D03*
X1210200Y1003900D03*
X1239700Y993300D03*
G54D194*
X987706Y955890D02*
X986728Y956869D01*
Y959019*
X987706Y955890D02*
X989100Y956600D01*
X992624Y954519D02*
Y958645D01*
X988842Y962427*
X991728Y952019D02*
X988842D01*
X989100Y952600*
X1019342Y946390D02*
X1013342D01*
Y948985*
X1012083Y950244*
Y952890*
X988842Y961890D02*
Y962427D01*
X1002224Y955972D02*
Y956019D01*
X1005228*
X1007874Y990354D02*
X1007824D01*
X1044342Y945340D02*
X1040728D01*
Y945519*
X1044342Y945340D02*
Y946390D01*
X1050228Y966019D02*
X1047469D01*
Y966177*
X1039728Y957519D02*
Y960530D01*
X1039523*
X1065500Y974390D02*
Y974519D01*
X1040231Y989390D02*
Y993365D01*
X1040981Y994115*
Y996390*
X1048342Y951390D02*
Y951519D01*
X1051228*
X1032083Y967890D02*
Y968019D01*
X1027228*
X1032083Y957890D02*
Y958019D01*
X1027228*
X1022881Y1004317D02*
Y1008149D01*
X1029424*
X1067300Y1006390D02*
X1065981D01*
X1046228Y1008019D02*
Y1010519D01*
X1045228Y1011519*
Y1013519*
X1045231Y1020390*
X1065981Y997390D02*
Y997519D01*
X1061228*
X1065981Y1021390D02*
Y1021519D01*
X1060728*
X1040981Y996390D02*
X1041241D01*
Y1001290*
X1033981Y1010740D02*
X1034228D01*
Y1015019*
X1053981Y1010390D02*
X1048721D01*
Y1011490*
Y1001290D02*
Y1004040D01*
X1047242Y1005519*
X1042721*
X1041241Y1001290D02*
Y1004040D01*
X1042721Y1005519*
X565117Y362490D02*
X1843517D01*
Y1511990*
X565117*
Y362490*
X1123517D02*
X1843517D01*
Y557490*
X1123517*
Y362490*
X1408517Y502490D02*
X1843517D01*
Y362490*
X1408517*
Y502490*
Y392490D02*
X1843517D01*
Y362490*
X1408517*
Y392490*
X1568517*
Y362490*
X1408517*
Y392490*
Y502490D02*
X1843517D01*
Y557490*
X1408517*
Y502490*
Y432490D02*
X1843517D01*
Y502490*
X1408517*
Y432490*
X1708517Y392490D02*
X1843517D01*
Y432490*
X1708517*
Y392490*
X1123517D02*
X1283517D01*
Y362490*
X1123517*
Y392490*
X1283517Y362490D02*
X1408517D01*
Y392490*
X1283517*
Y362490*
G54D199*
X1017979Y957890D02*
X1012083D01*
X1022624Y971349D02*
X1019424D01*
X1018224Y972549*
Y976949*
X1014224Y980949*
Y1006149*
X1013483Y1006890*
X1008858*
X1020224Y974149D02*
Y977749D01*
X1015824Y982149*
Y1008039*
X1013824Y1010039*
X1008858*
X1017024Y967749D02*
X1012083D01*
Y967890*
X1027941Y940519D02*
X1041171Y953749D01*
X1050624*
X1052731Y955856*
Y959056*
X1056624Y962949*
Y968190*
X1057824Y969390*
X1065500*
X1023342Y946390D02*
Y952527D01*
X1017979Y957890*
X1012083Y962890D02*
X1017024D01*
Y962949*
X1059024Y981519D02*
Y990186D01*
X1061227Y992390*
X1065981*
X1051424Y972519D02*
Y983749D01*
X1054883Y987209*
Y999890*
X1058263Y1003269*
Y1012721*
X1061931Y1016390*
X1065981*
X1053424Y964019D02*
Y983349D01*
X1056624Y986549*
Y998130*
X1060268Y1001775*
Y1009727*
X1061931Y1011390*
X1065981*
X1056624Y978949D02*
X1056694Y979019D01*
X1059424*
X1061024Y980619*
Y986482*
X1061931Y987390*
X1065981*
X1033424Y973349D02*
Y975347D01*
X1034894Y976817*
X1039523Y964530D02*
Y970847D01*
X1040228Y971552*
Y977519*
X1007824Y1006890D02*
X1003483D01*
X1003424Y1006949*
X1007824Y1006890D02*
X1008858D01*
Y1010039D02*
X1003961D01*
X1003000Y1011000*
G54D201*
X1165893Y851090D02*
X1167454Y852650D01*
Y853648*
X1166100Y855002*
Y858650*
X1191400Y883950*
X1225500*
X1229900Y888350*
Y891845*
X1234154Y896098*
X1162743Y847940D02*
X1164318Y849515D01*
Y852600*
X1164934Y853216*
Y859134*
X1190850Y885050*
X1224950*
X1228800Y888900*
Y891452*
X1224154Y896098*
X1167461Y838490D02*
Y849522D01*
X1165893Y851090*
X1164311Y838490D02*
X1164354Y838532D01*
Y846365*
X1164318*
X1162743Y847940*
X1145827Y920827D02*
X1147402Y922402D01*
X1145827Y917677D02*
X1147402Y919252D01*
X1142677Y917677D02*
X1144252Y919252D01*
X1179000Y1009800D02*
Y1014370D01*
X1181559Y1009859D02*
Y1014370D01*
X1182654Y1005846D02*
X1180754Y1007746D01*
Y1009054*
X1181559Y1009859*
X1177654Y1005846D02*
X1179554Y1007746D01*
Y1009246*
X1179000Y1009800*
X1201154Y1006696D02*
X1198104D01*
X1195754Y1009046*
G54D247*
X1343654Y895202D02*
Y901152D01*
Y905152D02*
Y911346D01*
X1351654*
X1325504Y874052D02*
X1325500Y874056D01*
Y882087*
X1325504Y874052D02*
X1332054D01*
Y877952*
Y868752D02*
Y874052D01*
X1343654Y911346D02*
X1351654D01*
X1359654*
X1137768Y974322D02*
X1145504D01*
X1222900Y960102D02*
X1218154D01*
X1222606Y967046D02*
X1218154D01*
Y967602*
X1222606Y967046D02*
X1228800D01*
X1240451Y953498D02*
Y955149D01*
X1236500Y959100*
Y961900*
X1240500Y978600D02*
Y982078D01*
X1239934Y982644*
X1228800Y960050D02*
X1230750Y962000D01*
X1236500Y961900D02*
X1236400Y962000D01*
X1230750*
X1314900Y941346D02*
Y945500D01*
X1319200Y949800*
Y954000*
X1322800D02*
Y958200D01*
X1330500Y925200D02*
X1313000D01*
X1313354Y925554*
Y934952*
X1317329Y931896D02*
X1324179D01*
X1011824Y998149D02*
Y1000591D01*
X1008858Y1003740D02*
X1002633D01*
X1008858Y1013189D02*
X1015931D01*
X1017309Y1014567*
X1022881*
X1210654Y998846D02*
Y1003900D01*
X1210200*
G54D248*
X1052731Y1020390D02*
Y1025642D01*
X1052624Y1025749*
X1201154Y999996D02*
X1197904D01*
X1210654Y998846D02*
X1221654D01*
G54D264*
X1325500Y892913D03*
Y882087D03*
G54D265*
X1318413Y915000D03*
X1307587D03*
G54D266*
X1131654Y963346D03*
X1134803D03*
X1137953D03*
X1141102D03*
X1144252D03*
X1147402D03*
X1150551D03*
X1153701D03*
X1156850D03*
X1160000D03*
X1163150D03*
X1166299D03*
X1169449D03*
X1172598D03*
X1175748D03*
X1178898D03*
X1182047D03*
X1185197D03*
X1188346D03*
X1131654Y960197D03*
X1134803D03*
X1137953D03*
X1141102D03*
X1144252D03*
X1147402D03*
X1150551D03*
X1153701D03*
X1156850D03*
X1160000D03*
X1163150D03*
X1166299D03*
X1169449D03*
X1172598D03*
X1175748D03*
X1178898D03*
X1182047D03*
X1185197D03*
X1188346D03*
X1131654Y957047D03*
X1134803D03*
X1137953D03*
X1141102D03*
X1144252D03*
X1147402D03*
X1150551D03*
X1153701D03*
X1156850D03*
X1160000D03*
X1163150D03*
X1166299D03*
X1169449D03*
X1172598D03*
X1175748D03*
X1178898D03*
X1182047D03*
X1185197D03*
X1188346D03*
X1131654Y953898D03*
X1134803D03*
X1137953D03*
X1141102D03*
X1144252D03*
X1147402D03*
X1150551D03*
X1153701D03*
X1156850D03*
X1160000D03*
X1163150D03*
X1166299D03*
X1169449D03*
X1172598D03*
X1175748D03*
X1178898D03*
X1182047D03*
X1185197D03*
X1188346D03*
X1131654Y950748D03*
X1134803D03*
X1137953D03*
X1141102D03*
X1144252D03*
X1147402D03*
X1150551D03*
X1153701D03*
X1156850D03*
X1160000D03*
X1163150D03*
X1166299D03*
X1169449D03*
X1172598D03*
X1175748D03*
X1178898D03*
X1182047D03*
X1185197D03*
X1188346D03*
X1131654Y947598D03*
X1134803D03*
X1137953D03*
X1141102D03*
X1144252D03*
X1147402D03*
X1150551D03*
X1153701D03*
X1156850D03*
X1160000D03*
X1163150D03*
X1166299D03*
X1169449D03*
X1172598D03*
X1175748D03*
X1178898D03*
X1182047D03*
X1185197D03*
X1188346D03*
X1131654Y944449D03*
X1134803D03*
X1137953D03*
X1141102D03*
X1144252D03*
X1147402D03*
X1172598D03*
X1175748D03*
X1178898D03*
X1182047D03*
X1185197D03*
X1188346D03*
X1131654Y941299D03*
X1134803D03*
X1137953D03*
X1141102D03*
X1144252D03*
X1147402D03*
X1153701D03*
X1156850D03*
X1160000D03*
X1163150D03*
X1166299D03*
X1172598D03*
X1175748D03*
X1178898D03*
X1182047D03*
X1185197D03*
X1188346D03*
X1131654Y938150D03*
X1134803D03*
X1137953D03*
X1141102D03*
X1144252D03*
X1147402D03*
X1153701D03*
X1156850D03*
X1160000D03*
X1163150D03*
X1166299D03*
X1172598D03*
X1175748D03*
X1178898D03*
X1182047D03*
X1185197D03*
X1188346D03*
X1131654Y935000D03*
X1134803D03*
X1137953D03*
X1141102D03*
X1144252D03*
X1147402D03*
X1153701D03*
X1156850D03*
X1160000D03*
X1163150D03*
X1166299D03*
X1172598D03*
X1175748D03*
X1178898D03*
X1182047D03*
X1185197D03*
X1188346D03*
X1131654Y931850D03*
X1134803D03*
X1137953D03*
X1141102D03*
X1144252D03*
X1147402D03*
X1153701D03*
X1156850D03*
X1160000D03*
X1163150D03*
X1166299D03*
X1172598D03*
X1175748D03*
X1178898D03*
X1182047D03*
X1185197D03*
X1188346D03*
X1131654Y928701D03*
X1134803D03*
X1137953D03*
X1141102D03*
X1144252D03*
X1147402D03*
X1153701D03*
X1156850D03*
X1160000D03*
X1163150D03*
X1166299D03*
X1172598D03*
X1175748D03*
X1178898D03*
X1182047D03*
X1185197D03*
X1188346D03*
X1131654Y925551D03*
X1134803D03*
X1137953D03*
X1141102D03*
X1144252D03*
X1147402D03*
X1172598D03*
X1175748D03*
X1178898D03*
X1182047D03*
X1185197D03*
X1188346D03*
X1131654Y922402D03*
X1134803D03*
X1137953D03*
X1141102D03*
X1144252D03*
X1147402D03*
X1150551D03*
X1153701D03*
X1156850D03*
X1160000D03*
X1163150D03*
X1166299D03*
X1169449D03*
X1172598D03*
X1175748D03*
X1178898D03*
X1182047D03*
X1185197D03*
X1188346D03*
X1131654Y919252D03*
X1134803D03*
X1137953D03*
X1141102D03*
X1144252D03*
X1147402D03*
X1150551D03*
X1153701D03*
X1156850D03*
X1160000D03*
X1163150D03*
X1166299D03*
X1169449D03*
X1172598D03*
X1175748D03*
X1178898D03*
X1182047D03*
X1185197D03*
X1188346D03*
X1131654Y916102D03*
X1134803D03*
X1137953D03*
X1141102D03*
X1144252D03*
X1147402D03*
X1150551D03*
X1153701D03*
X1156850D03*
X1160000D03*
X1163150D03*
X1166299D03*
X1169449D03*
X1172598D03*
X1175748D03*
X1178898D03*
X1182047D03*
X1185197D03*
X1188346D03*
X1131654Y912953D03*
X1134803D03*
X1137953D03*
X1141102D03*
X1144252D03*
X1147402D03*
X1150551D03*
X1153701D03*
X1156850D03*
X1160000D03*
X1163150D03*
X1166299D03*
X1169449D03*
X1172598D03*
X1175748D03*
X1178898D03*
X1182047D03*
X1185197D03*
X1188346D03*
X1131654Y909803D03*
X1134803D03*
X1137953D03*
X1141102D03*
X1144252D03*
X1147402D03*
X1150551D03*
X1153701D03*
X1156850D03*
X1160000D03*
X1163150D03*
X1166299D03*
X1169449D03*
X1172598D03*
X1175748D03*
X1178898D03*
X1182047D03*
X1185197D03*
X1188346D03*
X1131654Y906654D03*
X1134803D03*
X1137953D03*
X1141102D03*
X1144252D03*
X1147402D03*
X1150551D03*
X1153701D03*
X1156850D03*
X1160000D03*
X1163150D03*
X1166299D03*
X1169449D03*
X1172598D03*
X1175748D03*
X1178898D03*
X1182047D03*
X1185197D03*
X1188346D03*
G54D269*
X1335307Y900563D03*
Y902531D03*
Y904500D03*
Y906469D03*
Y908437D03*
X1323693D03*
Y906469D03*
Y904500D03*
Y902531D03*
Y900563D03*
G54D271*
X1328516Y898594D03*
X1330484D03*
Y910406D03*
X1328516D03*
G54D272*
X1329500Y904500D03*
G54D273*
X1024154Y891846D02*
Y895996D01*
X1024260Y874346D02*
Y877900D01*
X1009654Y891846D02*
Y895996D01*
X1017240Y874000D02*
Y877900D01*
X1010000Y873846D02*
Y877660D01*
X1009760Y877900*
X1024260Y888100D02*
Y891740D01*
X1024154Y891846*
X1009760Y888100D02*
Y891740D01*
X1009654Y891846*
X1009760Y888100D02*
Y888346D01*
X1015000Y864350D02*
Y864852D01*
X1028878Y838490D02*
X1029000Y838611D01*
Y844650*
X1029900Y845550*
Y853100*
X1030300Y853500*
Y855050*
X1029650Y855700*
X1028000*
Y857650*
X1022579Y838490D02*
Y847900D01*
X1020629Y849850*
X1019500*
X1018850Y850500*
Y855050*
X1019500Y855700*
X1022579*
Y856650*
X1021500Y857650*
X1019429Y838490D02*
Y842796D01*
X1019127Y843099*
X1019327*
X1021418Y845190*
Y847366*
X1020234Y848550*
X1018850*
X1017550Y849850*
Y855050*
X1016292Y856308*
X1015042*
X1015000Y856350*
Y857650*
X1028000Y864350D02*
X1027654Y864696D01*
Y867846*
X1020954Y874546*
Y882633*
X1019434Y884152*
X1018354*
X1017240Y885266*
Y888100*
X1073154Y861000D02*
X1064654D01*
X1063654Y862000*
Y868852*
X1062354Y870152*
Y880052*
X1059754Y882652*
X1056654*
X1055454Y883852*
Y884752*
X1055154Y885052*
X1053954*
X1053454Y885552*
Y886906*
X1052260Y888100*
X1073154Y861000D02*
X1073500Y861346D01*
Y864350*
X1048104Y873352D02*
Y880602D01*
X1046154Y882552*
X1030996Y860846D02*
X1025654D01*
X1024654Y861846*
Y868952*
X1019654Y873952*
Y881846*
X1018654Y882846*
X1017760*
X1017154Y883453*
X1011654*
X1009760Y885346*
Y888100*
X1030996Y860846D02*
X1034500Y864350D01*
X1055028Y846878D02*
X1058650Y850500D01*
X1065650*
X1069354Y854204*
Y855296*
X1067000Y857650*
X1080654Y873846D02*
X1080760Y873953D01*
Y877900*
X1080654Y891846D02*
Y895996D01*
X1088600Y868346D02*
Y871600D01*
X1091354Y874354*
Y880452*
X1088853Y882953*
X1084053*
X1083254Y883752*
Y884752*
X1081954Y886052*
Y886906*
X1080760Y888100*
X1090800Y870800D02*
X1092754Y872754D01*
Y880952*
X1089454Y884252*
X1088154Y891846D02*
Y895996D01*
Y873846D02*
X1088240Y873933D01*
Y877900*
X1066154Y891846D02*
Y895996D01*
X1078344Y871802D02*
X1076354Y873792D01*
Y880146*
X1074148Y882352*
X1070854*
X1069654Y883552*
Y884552*
X1069254Y884952*
X1067954*
X1067454Y885452*
Y886906*
X1066260Y888100*
X1073654Y891846D02*
Y895996D01*
X1078154Y874346D02*
Y880652D01*
X1074954Y883852*
X1071354*
X1070979Y884227*
Y884877*
X1071354Y885252*
X1071754*
X1072454Y885952*
Y886552*
X1073740*
Y888100*
X1073654Y874346D02*
Y877814D01*
X1073740Y877900*
X1066260Y874240D02*
Y877900D01*
X1052154Y891846D02*
Y895496D01*
X1052654Y895996*
X1059654Y891846D02*
Y895996D01*
X1052260Y873846D02*
Y877900D01*
X1049154Y870346D02*
Y872152D01*
X1049654Y872652*
Y881352*
X1047054Y883952*
X1033454Y871452D02*
Y874952D01*
X1034254Y875752*
Y880552*
X1032354Y882452*
X1028654*
X1027354Y883752*
Y884846*
X1026854Y885346*
X1026154*
X1024260Y887240*
Y888100*
X1035154Y873352D02*
Y874752D01*
X1035554Y875152*
Y881152*
X1032859Y883846*
X1029154*
X1028654Y884346*
Y884846*
X1029104Y885296*
X1029490*
X1031740Y887546*
Y888100*
X1031654Y891846D02*
Y895996D01*
X1031740Y874388D02*
Y877900D01*
X1052260Y888100D02*
Y891740D01*
X1052154Y891846*
X1059740Y888100D02*
Y891760D01*
X1059654Y891846*
X1038260Y888100D02*
Y891740D01*
X1038154Y891846*
X1045740Y888100D02*
Y891760D01*
X1045654Y891846*
X1031740Y888100D02*
Y891760D01*
X1031654Y891846*
X1080760Y888100D02*
Y891740D01*
X1080654Y891846*
X1088240Y888100D02*
Y891846D01*
X1088154*
X1066260Y888100D02*
Y891740D01*
X1066154Y891846*
X1073740Y888100D02*
Y891760D01*
X1073654Y891846*
X1047500Y864350D02*
X1047654Y864504D01*
Y864552*
X1045054Y867152*
Y867952*
X1043454Y869552*
X1031554*
X1028654Y872452*
Y873852*
X1029154Y874352*
X1031740*
Y874388*
X1041000Y864350D02*
Y865352D01*
X1041954*
X1043654Y867052*
Y867352*
X1042754Y868252*
X1030854*
X1027254Y871851*
Y873539*
X1026447Y874346*
X1024260*
X1086500Y864350D02*
Y867346D01*
X1084094Y869752*
X1071748*
X1071154Y870346*
Y871846*
X1073654Y874346*
X1080000Y864350D02*
X1079829Y864521D01*
X1082154Y866846*
Y867953*
X1081654Y868452*
X1071048*
X1069654Y869846*
Y870846*
X1066260Y874240*
X1067000Y864350D02*
Y867106D01*
X1063724Y870381*
Y880581*
X1060354Y883952*
X1057254*
X1056854Y884352*
Y884952*
X1057254Y885352*
X1057754*
X1058554Y886152*
Y886914*
X1059740Y888100*
X1066674Y838490D02*
Y845672D01*
X1073452Y852450*
X1082452*
X1083854Y853852*
Y855004*
X1086500Y857650*
X1063524Y838490D02*
X1063500D01*
Y843046*
X1065250Y844796*
Y846248*
X1072752Y853750*
X1081652*
X1082154Y854252*
Y855496*
X1080000Y857650*
X1057225Y838490D02*
Y842952D01*
X1056454Y843723*
Y846504*
X1059150Y849200*
X1066300*
X1070902Y853802*
Y855052*
X1073500Y857650*
X1047776Y838490D02*
Y843052D01*
X1046854Y843974*
Y845252*
X1052752Y851150*
X1055749*
X1057850Y853251*
Y855050*
X1060450Y857650*
X1060500*
X1044626Y838490D02*
Y843152D01*
X1045403Y843928*
Y845903*
X1051950Y852450*
X1055248*
X1056550Y853752*
Y855100*
X1054000Y857650*
X1041477Y838490D02*
Y845675D01*
X1044554Y848752*
Y854704*
X1047500Y857650*
X1038327Y838490D02*
Y842946D01*
X1040154Y844773*
Y846352*
X1043254Y849452*
Y855396*
X1041000Y857650*
X1032028Y838490D02*
X1032000Y838518D01*
Y844650*
X1031200Y845450*
Y852450*
X1032500Y853750*
Y855700*
X1033150Y856350*
X1034500*
Y857650*
X1161575Y905079D02*
X1160000Y906654D01*
X1148976Y911378D02*
X1150551Y912953D01*
X1145827Y911378D02*
X1147402Y912953D01*
X1142677Y911378D02*
X1144252Y912953D01*
X1139527Y911378D02*
X1141102Y912953D01*
X1139527Y905079D02*
X1141102Y906654D01*
X1139527Y908228D02*
X1141102Y909803D01*
X1133228Y905079D02*
X1134803Y906654D01*
X1133228Y908228D02*
X1134803Y909803D01*
X1357492Y838490D02*
Y849515D01*
X1359069Y851090*
X1145827Y914527D02*
X1147402Y916102D01*
X1148976Y914527D02*
X1150551Y916102D01*
X1142677Y914527D02*
X1144252Y916102D01*
X1136378Y920827D02*
X1137953Y922402D01*
X1136378Y917677D02*
X1137953Y919252D01*
X1139527Y914527D02*
X1141102Y916102D01*
X1133228Y914527D02*
X1134803Y916102D01*
G54D274*
X1015000Y864852D02*
X1017254Y867106D01*
Y868452*
X1013154Y872552*
Y873552*
X1012859Y873846*
X1010000*
X1017154Y891846D02*
Y895996D01*
X1017240Y874000D02*
X1017154Y874052D01*
X1014854*
X1017240Y888100D02*
Y891760D01*
X1017154Y891846*
X1013130Y838490D02*
Y846121D01*
X1014487Y847478*
Y851490*
X1007553Y858424*
Y869591*
X1006654Y870490*
Y872346*
X1009981Y838490D02*
Y846038D01*
X1009167Y846852*
Y855003*
X1005618Y858552*
Y865346*
X1006831Y838490D02*
Y854210D01*
X1001654Y859387*
Y862846*
X1021500Y864350D02*
X1018654Y867196D01*
Y868952*
X1014454Y873152*
Y873652*
X1014854Y874052*
X1104039Y910061D02*
X1102850Y911250D01*
X1098000*
X1104039Y910061D02*
X1105395Y911416D01*
Y912450*
X1104095Y913750*
X1098000*
Y903750D02*
X1103495D01*
Y907850*
X1102595Y908750*
X1098000*
X1097906Y898656D02*
X1093953D01*
X1093156Y899453*
Y900453*
X1093953Y901250*
X1098000*
X1097906Y898656D02*
X1098000Y898750D01*
X1106800Y899600D02*
Y902150D01*
X1105200Y903750*
X1103495*
X1089454Y884252D02*
X1084856D01*
X1084654Y884455*
Y884952*
X1084954Y885252*
X1086254*
X1086954Y885952*
Y886814*
X1088240Y888100*
X1046154Y882552D02*
X1042054D01*
X1041154Y883452*
Y884752*
X1040754Y885152*
X1040054*
X1039454Y885752*
Y886906*
X1038260Y888100*
X1047054Y883952D02*
X1042713D01*
X1042454Y884211*
Y884952*
X1042754Y885252*
X1043954*
X1044454Y885752*
Y886814*
X1045740Y888100*
X1059700Y874000D02*
X1060100Y874400D01*
X1059740*
Y877900*
X1038154Y891846D02*
Y895996D01*
X1046654Y870346D02*
Y871902D01*
X1048104Y873352*
X1045654Y891846D02*
Y895996D01*
Y874346D02*
X1045740Y874433D01*
Y877900*
X1039154Y874346D02*
X1038260Y875240D01*
Y877900*
X1038654Y895996D02*
X1038154D01*
X1060500Y864350D02*
X1057800Y867050D01*
Y872100*
X1059700Y874000*
X1054000Y864350D02*
X1056200Y866550D01*
Y871400*
X1053800Y873800*
X1052306*
X1052260Y873846*
X1107618Y838490D02*
Y851678D01*
X1106945Y852352*
Y855141*
X1105858Y856252*
X1091870Y838490D02*
Y842852D01*
X1090511Y844211*
Y846909*
X1091854Y848252*
X1088721Y838490D02*
Y843252D01*
X1087154Y844819*
Y846852*
X1088654Y848352*
X1085571Y838490D02*
Y843052D01*
X1083854Y844770*
Y846552*
X1085454Y848152*
X1082422Y838490D02*
Y847420D01*
X1086301Y851299*
X1089606*
X1093654Y855346*
Y857452*
X1098504Y862302*
X1076122Y838490D02*
Y845050D01*
X1076550Y845478*
Y847450*
X1077600Y848500*
X1054075Y838490D02*
Y842752D01*
X1055028Y843705*
Y846878*
X1148976Y908228D02*
X1150551Y909803D01*
X1123500Y863600D02*
X1134690D01*
X1139390Y868300*
Y872717*
X1123500Y863600D02*
X1121200Y865900D01*
Y873500*
X1120500Y874200*
X1124953Y891953D02*
X1110047D01*
X1103250Y898750*
X1098000*
X1124953Y891953D02*
X1128200Y895200D01*
X1156353*
X1124400Y893300D02*
X1114400D01*
X1111650Y896050*
Y902450*
X1104039Y910061*
X1124400Y893300D02*
X1127900Y896800D01*
X1157053*
X1120400Y883600D02*
X1120280Y883720D01*
X1116500*
X1167874Y911378D02*
X1166299Y912953D01*
X1167874Y908228D02*
X1166299Y909803D01*
X1135003Y881448D02*
X1134903Y881548D01*
X1134503*
X1160303Y882248D02*
X1160000Y882551D01*
Y887283*
X1166953Y882453D02*
X1166890Y882516D01*
Y887283*
X1117354Y898646D02*
Y900450D01*
X1118154Y901250*
X1122000*
X1117354Y898646D02*
X1117457Y898750D01*
X1122000*
X1126954Y910646D02*
X1128055Y911748D01*
Y913046*
X1127354Y913748*
X1122002*
X1122000Y913750*
X1126954Y910646D02*
X1126350Y911250D01*
X1122000*
X1162703Y894253D02*
X1159600D01*
X1157053Y896800*
X1142677Y905079D02*
X1144252Y906654D01*
X1130079Y908228D02*
X1131654Y909803D01*
X1142677Y908228D02*
X1144252Y909803D01*
X1183622Y911378D02*
X1182047Y912953D01*
X1183622Y908228D02*
X1182047Y909803D01*
X1183622Y905079D02*
X1182047Y906654D01*
X1171024Y911378D02*
X1169449Y912953D01*
X1152803Y882248D02*
X1153110D01*
Y887283*
X1180473Y911378D02*
X1178898Y912953D01*
X1180473Y908228D02*
X1178898Y909803D01*
X1152126Y908228D02*
X1153701Y909803D01*
X1152126Y911378D02*
X1153701Y912953D01*
X1136378Y905079D02*
X1137953Y906654D01*
X1136378Y908228D02*
X1137953Y909803D01*
X1136378Y911378D02*
X1137953Y912953D01*
X1133228Y911378D02*
X1134803Y912953D01*
X1130079Y911378D02*
X1131654Y912953D01*
X1177323Y905079D02*
X1175748Y906654D01*
X1174173Y911378D02*
X1172598Y912953D01*
X1164725Y911378D02*
X1163150Y912953D01*
X1164725Y905079D02*
X1163150Y906654D01*
X1164725Y908228D02*
X1163150Y909803D01*
X1174173Y908228D02*
X1172598Y909803D01*
X1174173Y905079D02*
X1172598Y906654D01*
X1179154Y889846D02*
Y892846D01*
X1171024Y905079D02*
X1169449Y906654D01*
X1177323Y908228D02*
X1175748Y909803D01*
X1145827Y905079D02*
X1147402Y906654D01*
X1145827Y908228D02*
X1147402Y909803D01*
X1122000Y903750D02*
X1126857D01*
X1126954Y903846*
X1122000Y903750D02*
X1117450D01*
X1117354Y903846*
Y907950*
X1118154Y908750*
X1122000*
X1116500Y881160D02*
X1120160D01*
X1120200Y881200*
X1139390Y887283D02*
Y891400D01*
X1138750Y892040*
Y892050*
X1138000Y892800*
X1132500Y887283D02*
Y893100D01*
X1132400Y893200*
X1132500Y872717D02*
Y880548D01*
X1133500Y881548*
X1134503*
X1166890Y887283D02*
X1166953Y887346D01*
Y890953*
X1165953Y891953*
X1159600*
X1156353Y895200*
X1166890Y872717D02*
Y877890D01*
X1166953Y877953*
X1160000Y872717D02*
Y878051D01*
X1159803Y878248*
X1153110Y872717D02*
Y878055D01*
X1153303Y878248*
X1179154Y896846D02*
Y900252D01*
X1177323Y902082*
Y905079*
X1186359Y838490D02*
Y854240D01*
X1184793Y855815*
X1183209Y838490D02*
Y849524D01*
X1181643Y851090*
X1180059Y838490D02*
Y846374D01*
X1178493Y847940*
X1176910Y838490D02*
Y849523D01*
X1175343Y851090*
X1173760Y838490D02*
Y846373D01*
X1172193Y847940*
X1161162Y838490D02*
Y849521D01*
X1159593Y851090*
X1158012Y838490D02*
Y846371D01*
X1156443Y847940*
X1154863Y838490D02*
Y849521D01*
X1153293Y851090*
X1151713Y838490D02*
Y849570D01*
X1150143Y851140*
X1145414Y838490D02*
Y846369D01*
X1143843Y847940*
X1142264Y838490D02*
Y849519D01*
X1140693Y851090*
X1139115Y838490D02*
Y846369D01*
X1137543Y847940*
X1135965Y838490D02*
Y849518D01*
X1134393Y851090*
X1132815Y838490D02*
Y846368D01*
X1131243Y847940*
X1129666Y838490D02*
Y849568D01*
X1128147Y851086*
X1126516Y838490D02*
Y846367D01*
X1124943Y847940*
X1123367Y838490D02*
Y849517D01*
X1121793Y851090*
X1117067Y838490D02*
Y846366D01*
X1115493Y847940*
X1113918Y838490D02*
Y849516D01*
X1112343Y851090*
X1110768Y838490D02*
Y846365D01*
X1109193Y847940*
X1173654Y896846D02*
Y899952D01*
X1189921Y911378D02*
X1188346Y912953D01*
X1189508Y838490D02*
Y852665D01*
X1187943Y854240*
X1328516Y910406D02*
Y907300D01*
X1328363Y907453*
X1327531*
X1330484Y910406D02*
Y907300D01*
X1331316*
X1331469Y907453*
X1330484Y898594D02*
Y904500D01*
X1329500*
X1328516Y898594D02*
Y901500D01*
X1327579*
X1327531Y901547*
X1335307Y908437D02*
Y915693D01*
X1335300Y915700*
X1298846Y896654D02*
Y900346D01*
X1299000Y900500*
X1293846Y896654D02*
Y900346D01*
X1294000Y900500*
X1348044Y838490D02*
Y847941D01*
X1346469Y849515*
X1341744Y838490D02*
Y853775D01*
X1340169Y855350*
X1338595Y838490D02*
Y849521D01*
X1337026Y851090*
X1335445Y838490D02*
X1335451Y838496D01*
Y846365*
X1333876Y847940*
X1332296Y838490D02*
Y849520D01*
X1330726Y851090*
X1329146Y838490D02*
X1329151Y838495D01*
Y846365*
X1327576Y847940*
X1325996Y838490D02*
Y849519D01*
X1324426Y851090*
X1322847Y838490D02*
Y846369D01*
X1321276Y847940*
X1319697Y838490D02*
Y849519D01*
X1318126Y851090*
X1316548Y838490D02*
Y846368D01*
X1314976Y847940*
X1313398Y838490D02*
Y854328D01*
X1311826Y855900*
X1307099Y838490D02*
Y849516D01*
X1305525Y851090*
X1303949Y838490D02*
Y846366D01*
X1302375Y847940*
X1300800Y838490D02*
Y849516D01*
X1299226Y851090*
X1294500Y838490D02*
Y849515D01*
X1292926Y851090*
X1291351Y838490D02*
Y846364D01*
X1292926Y847940*
X1288201Y838490D02*
Y848952D01*
X1289754Y850504*
Y854352*
X1288154Y855952*
X1364500Y890000D02*
Y887000D01*
Y884000*
X1359654Y889846D02*
Y890000D01*
X1364500*
X1363792Y838490D02*
Y849518D01*
X1362219Y851090*
X1360642Y838490D02*
Y846367D01*
X1359069Y847940*
X1354343Y838490D02*
Y846905D01*
X1353197Y848051*
X1351193Y838490D02*
Y849516D01*
X1349619Y851090*
X1085500Y969390D02*
X1085590Y969590D01*
X1097604*
X1104254Y976240*
Y978952*
X1136378Y923976D02*
X1137953Y925551D01*
X1139527Y923976D02*
X1141102Y925551D01*
X1177323Y914527D02*
X1175748Y916102D01*
X1167874Y914527D02*
X1166299Y916102D01*
X1136378Y927126D02*
X1137953Y928701D01*
X1139527Y927126D02*
X1141102Y928701D01*
X1133228Y927126D02*
X1134803Y928701D01*
X1133228Y923976D02*
X1134803Y925551D01*
X1142677Y930275D02*
X1141102Y931850D01*
X1136378Y930275D02*
X1137953Y931850D01*
X1133228Y930275D02*
X1134803Y931850D01*
X1186772Y914527D02*
X1185197Y916102D01*
X1183622Y914527D02*
X1182047Y916102D01*
X1130079Y917677D02*
X1131654Y919252D01*
X1175654Y969846D02*
Y972346D01*
X1180473Y917677D02*
X1178898Y919252D01*
X1171024Y914527D02*
X1169449Y916102D01*
X1130079Y930272D02*
X1131654Y931850D01*
X1164725Y914527D02*
X1163150Y916102D01*
X1130079Y933425D02*
X1131654Y935000D01*
X1133228Y933425D02*
X1134803Y935000D01*
X1136378Y933425D02*
X1137953Y935000D01*
X1139527Y933425D02*
X1141102Y935000D01*
X1183622Y923976D02*
X1182047Y925551D01*
X1183622Y917677D02*
X1182047Y919252D01*
X1126949Y922602D02*
X1120654D01*
Y926596*
X1183622Y927126D02*
X1182047Y928701D01*
X1186772Y923976D02*
X1185197Y925551D01*
X1180473Y923976D02*
X1178898Y925551D01*
X1186772Y920827D02*
X1185197Y922402D01*
X1183622Y920827D02*
X1182047Y922402D01*
X1180473Y920827D02*
X1178898Y922402D01*
X1186772Y917677D02*
X1185197Y919252D01*
X1180473Y914527D02*
X1178898Y916102D01*
X1174173Y914527D02*
X1172598Y916102D01*
X1155275Y914527D02*
X1156850Y916102D01*
X1152126Y914527D02*
X1153701Y916102D01*
X1139527Y920827D02*
X1141102Y922402D01*
X1139527Y917677D02*
X1141102Y919252D01*
X1136378Y914527D02*
X1137953Y916102D01*
X1130079Y914527D02*
X1131654Y916102D01*
X1180473Y927126D02*
X1178898Y928701D01*
X1180473Y930275D02*
X1178898Y931850D01*
X1183683Y930275D02*
X1183622D01*
X1182047Y931850*
X1189154Y969346D02*
Y971846D01*
X1149899Y988298D02*
Y990709D01*
X1150888Y991698*
Y994764*
X1118856Y983890D02*
X1121610D01*
X1121654Y983933*
X1126606*
X1121654Y981252D02*
X1121776Y981374D01*
X1126606*
X1120956Y988990D02*
X1121018Y989051D01*
X1126606*
X1130999Y991598D02*
X1130899Y991610D01*
X1126606*
X1133228Y920827D02*
X1134803Y922402D01*
X1142677Y920827D02*
X1144252Y922402D01*
X1133228Y917677D02*
X1134803Y919252D01*
X1145827Y923976D02*
X1147402Y925551D01*
X1142677Y923976D02*
X1144252Y925551D01*
X1175654Y976346D02*
X1178554D01*
Y985046*
X1141102Y928701D02*
X1139527Y930276D01*
X1188346Y935000D02*
X1189921Y936575D01*
X1185197Y935000D02*
X1186772Y936575D01*
X1182047Y935000D02*
X1183622Y936575D01*
X1178898Y935000D02*
X1180473Y936575D01*
X1188346Y938150D02*
X1189926Y939723D01*
X1185197Y938150D02*
X1186776Y939723D01*
X1178898Y938150D02*
X1180473Y939725D01*
X1141102Y938150D02*
X1139527Y939725D01*
X1137953Y938150D02*
X1136378Y939725D01*
X1134803Y938150D02*
X1133228Y939725D01*
X1131654Y938150D02*
X1130079Y939725D01*
X1188346Y941299D02*
X1189921Y942874D01*
X1185197Y941299D02*
X1186772Y942874D01*
X1137953Y941299D02*
X1136378Y942874D01*
X1134803Y941299D02*
X1133228Y942874D01*
X1131654Y941299D02*
X1130079Y942874D01*
X1188346Y944449D02*
X1189921Y946024D01*
X1185197Y944449D02*
X1186772Y946024D01*
X1137953Y944449D02*
X1136378Y946024D01*
X1134803Y944449D02*
X1133228Y946024D01*
X1131654Y944449D02*
X1130079Y946024D01*
X1188346Y947598D02*
X1189921Y949173D01*
X1137953Y947598D02*
X1136378Y949173D01*
X1134803Y947598D02*
X1133229Y949172D01*
X1131654Y947598D02*
X1130079Y949173D01*
X1188346Y950748D02*
X1189645Y952046D01*
X1141102Y950748D02*
X1139527Y952323D01*
X1137953Y950748D02*
X1136378Y952323D01*
X1134803Y950748D02*
X1133228Y952323D01*
X1131654Y950748D02*
X1130079Y952323D01*
X1178898Y953898D02*
X1180473Y955473D01*
X1175748Y953898D02*
X1177323Y955473D01*
X1163150Y953898D02*
X1164725Y955473D01*
X1156850Y953898D02*
X1155275Y955473D01*
X1153701Y953898D02*
X1152126Y955473D01*
X1150551Y953898D02*
X1148976Y955473D01*
X1147402Y953898D02*
X1145827Y955473D01*
X1141102Y953898D02*
X1139527Y955473D01*
X1137953Y953898D02*
X1136378Y955473D01*
X1134803Y953898D02*
X1133228Y955473D01*
X1131654Y953898D02*
X1130079Y955473D01*
X1185197Y957047D02*
X1186772Y958622D01*
X1182047Y957047D02*
X1183622Y958622D01*
X1178898Y957047D02*
X1180473Y958622D01*
X1175748Y957047D02*
X1177323Y958622D01*
X1172598Y957047D02*
X1174173Y958622D01*
X1163150Y957047D02*
X1164725Y958622D01*
X1156850Y957047D02*
X1155275Y958622D01*
X1153701Y957047D02*
X1152126Y958622D01*
X1150551Y957047D02*
X1148976Y958622D01*
X1147402Y957047D02*
X1145827Y958622D01*
X1137953Y957047D02*
X1136378Y958622D01*
X1134803Y957047D02*
X1133228Y958622D01*
X1131654Y957047D02*
X1130079Y958622D01*
X1188346Y960197D02*
X1189921Y961772D01*
X1185197Y960197D02*
X1186772Y961772D01*
X1182047Y960197D02*
X1183622Y961772D01*
X1178898Y960197D02*
X1180473Y961772D01*
X1175748Y960197D02*
X1177323Y961772D01*
X1172598Y960197D02*
X1174173Y961772D01*
X1163150Y960197D02*
X1164725Y961772D01*
X1153701Y960197D02*
X1152129Y961772D01*
X1150551Y960197D02*
X1148976Y961772D01*
X1147402Y960197D02*
X1145827Y961772D01*
X1144252Y960197D02*
X1142677Y961772D01*
X1134803Y960197D02*
X1133228Y961772D01*
X1182047Y963346D02*
X1183622Y964921D01*
X1178898Y963346D02*
X1180474Y964922D01*
X1175748Y963346D02*
X1177323Y964921D01*
X1172598Y963346D02*
X1174173Y964921D01*
X1163150Y963346D02*
X1164725Y964921D01*
X1153701Y963346D02*
X1152129Y964922D01*
X1150551Y963346D02*
X1148976Y964921D01*
X1147402Y963346D02*
X1145827Y964921D01*
X1144252Y963346D02*
X1142677Y964921D01*
X1141102Y963346D02*
X1139527Y964921D01*
X1137953Y963346D02*
X1136378Y964921D01*
X1134803Y963346D02*
X1133228Y964921D01*
X1126606Y986492D02*
X1130999D01*
Y986498*
X1236760Y974016D02*
Y978600D01*
X1240500Y964700D02*
Y968400D01*
X1243800Y934300D02*
X1240500D01*
X1200641Y941334D02*
X1201654Y942346D01*
X1208778*
X1210878Y944446*
Y950720*
X1200641Y941334D02*
X1199129Y942846D01*
X1195154*
X1203751Y925546D02*
X1207854D01*
X1208654Y926346*
Y928346*
X1203751Y925546D02*
X1201054Y928244D01*
Y929146*
X1200154Y930046*
X1198154*
X1196254Y931946*
Y938346*
X1194875Y939723*
X1189926*
X1244351Y954798D02*
X1244240Y954909D01*
Y968400*
X1189921Y942874D02*
X1186772D01*
X1244453Y974953D02*
X1244240Y975166D01*
Y978600*
X1247809Y949175D02*
X1244240D01*
Y949600*
X1189921Y946024D02*
X1191954D01*
X1192776Y946846*
X1195154*
X1195454Y966852D02*
Y974046D01*
X1193654Y975846*
X1189154*
X1189921Y920827D02*
X1188346Y922402D01*
X1189921Y917677D02*
X1188346Y919252D01*
X1192401Y949146D02*
Y950646D01*
X1191001Y952046*
X1189645*
X1206354Y916846D02*
X1201741D01*
X1199378Y919209*
Y919524*
X1193472Y925430*
Y928699*
X1250154Y985846D02*
X1250001Y985999D01*
Y993546*
X1250096*
Y997290*
X1242554Y989446D02*
X1242616Y989509D01*
Y997290*
X1195046Y983825D02*
X1198154D01*
Y983996*
X1244240Y939400D02*
X1253400D01*
X1253500Y939500*
X1240500Y939400D02*
X1240440Y939460D01*
Y942500*
X1239400Y943540*
X1236760Y939400D02*
Y942600D01*
X1237700Y943540*
X1239400*
X1236760Y949600D02*
Y953260D01*
X1236800Y953300*
X1210878Y950720D02*
Y955122D01*
X1208154Y957846*
X1201429Y934972D02*
Y940546D01*
X1199129Y942846*
X1195154*
X1201429Y950720D02*
X1201454Y950745D01*
Y955146*
X1204154Y957846*
X1240500Y968400D02*
X1240495Y968405D01*
Y972116*
X1238595Y974016*
X1236760*
Y968400D02*
Y974016D01*
X1240500Y934300D02*
Y939400D01*
X1195154Y942846D02*
X1195126Y942874D01*
X1189921*
X1195154Y946846D02*
X1198254D01*
X1201354Y949946*
Y950645*
X1201429Y950720*
X1208654Y928346D02*
Y932748D01*
X1210878Y934972*
X1204654Y928346D02*
X1202554Y930446D01*
Y934646*
X1201454*
Y934948*
X1201429Y934972*
X1240500Y961900D02*
Y964700D01*
X1299000Y922500D02*
X1298846Y922654D01*
Y926654*
X1294000Y922500D02*
X1293846Y922654D01*
Y926654*
X1335300Y915700D02*
X1335500Y915900D01*
Y921000*
X1331300Y915700D02*
Y918000D01*
X1330500Y918800*
Y921200*
X1298846Y926654D02*
Y931000D01*
X1299500Y931654*
Y936000*
X1330500Y921200D02*
Y922100D01*
X1359654Y920346D02*
Y928216D01*
X1358695*
X1104606Y996728D02*
X1100138D01*
X1096856Y1000010*
Y1009390*
X1094856Y1011390*
X1085981*
X1104606Y1001846D02*
X1100270D01*
X1098856Y1003260*
Y1011890*
X1094356Y1016390*
X1085981*
X1104606Y1004406D02*
X1104600Y1004412D01*
Y1010500*
X1117159Y996987D02*
X1119056D01*
X1121356Y999287*
X1126606*
X1117159Y996987D02*
X1117156Y996990D01*
X1184303Y1009748D02*
X1184118Y1009933D01*
Y1014370*
X1150888Y1024764D02*
Y1025797D01*
X1154021*
X1126606Y1001846D02*
X1117164D01*
X1114564Y1004406*
X1104606*
X1126606Y1001846D02*
X1131578D01*
X1134266Y1004535*
X1141028*
X1142996Y1006503*
Y1009653*
X1144568Y1011225*
Y1013476*
X1146143Y1015051*
Y1024764*
X1145888*
X1126606Y994169D02*
X1113429D01*
X1113350Y994397*
X1172154Y1005846D02*
Y1008859D01*
X1172054Y1008959*
X1172654Y1009559*
X1175154*
X1176441Y1010846*
Y1014370*
X1172154Y1005846D02*
Y1005946D01*
X1174954*
X1197904Y999996D02*
X1197900Y1000000D01*
X1212559Y1018102D02*
X1207654D01*
X1206654Y1019102*
X1203154*
X1212559Y1018102D02*
X1212654Y1018196D01*
X1222418Y1010940D02*
X1222252Y1011106D01*
X1219054*
X1212654Y1018196D02*
X1212154Y1018696D01*
Y1024846*
X1212654Y1018196D02*
X1212209Y1018641D01*
X1201154Y1006696D02*
X1201185Y1006728D01*
Y1013591*
X1219054Y1018586D02*
X1212264D01*
X1212209Y1018641*
X1229254Y1018586D02*
X1222654D01*
Y1018752*
X1251356Y1024140D02*
X1257654D01*
Y1024346*
X1241356Y1024140D02*
X1241150Y1024346D01*
X1235154*
X1242616Y1007490D02*
X1242560Y1007546D01*
Y1011784*
X1241356Y1012987*
Y1016640*
X1250096Y1007490D02*
X1250260Y1007653D01*
Y1011891*
X1251356Y1012987*
Y1016640*
X1314154Y1003252D02*
X1314300Y1003752D01*
Y1007900*
X1327154Y998752D02*
X1327200Y998798D01*
Y1009500*
X1335654Y1003252D02*
X1335800D01*
Y1009500*
X1318654Y1003252D02*
X1318600D01*
Y1009500*
X1309154Y1003252D02*
Y1005252D01*
X1310000Y1006098*
Y1009500*
X1339654Y1003252D02*
Y1005806D01*
X1340100Y1006252*
Y1009500*
G54D275*
X1180473Y905079D02*
X1178898Y906654D01*
X1177323Y911378D02*
X1175748Y912953D01*
X1185197Y950748D02*
X1186772Y952323D01*
X1188346Y953898D02*
X1189921Y955473D01*
X1188346Y957047D02*
X1189921Y958622D01*
X1172154Y999046D02*
Y1001846D01*
X1177654Y999046D02*
Y1001846D01*
X1182554Y999446D02*
Y1001846D01*
X1182654*
X1208154Y1021752D02*
Y1024846D01*
G54D276*
X1198154Y991096D02*
X1193904Y995346D01*
X1193954Y995396*
Y998000*
Y999852*
Y998000D02*
X1190000D01*
X1188800Y999200*
Y1007200*
X1186252Y1009748*
X1184303*
X1213154Y1004052D02*
X1213204D01*
X1215104Y1005952*
X1227754*
X1229254Y1007452*
Y1011106*
G54D277*
X1297650Y838490D02*
Y846366D01*
X1296076Y847940*
X1182047Y938150D02*
X1183626Y939723D01*
X1141102Y960197D02*
X1139527Y961772D01*
G54D290*
X1359654Y900096D02*
Y911346D01*
G54D297*
X1319200Y954000D03*
X1322800D03*
G54D298*
X1098000Y913750D03*
Y911250D03*
Y908750D03*
Y906250D03*
Y903750D03*
Y901250D03*
Y898750D03*
Y896250D03*
X1122000D03*
Y898750D03*
Y901250D03*
Y903750D03*
Y906250D03*
Y908750D03*
Y911250D03*
Y913750D03*
G54D299*
X1310000Y1009500D03*
X1314300Y1007900D03*
X1318600Y1009500D03*
X1322900Y1010300D03*
X1327200Y1009500D03*
X1331500Y1010300D03*
X1335800Y1009500D03*
X1340100D03*
G54D300*
X1343250Y1020750D03*
X1291450Y1024650D03*
G54D301*
X1314200Y968900D03*
X1336700D03*
G74*
X0Y0D02*
M02*
