*
*
G04 PADS9.1 Build Number: 384028 generated Gerber (RS-274-X) file*
G04 PC Version=2.1*
*
%IN "PADS_{TEX137}_F2837x co"*%
*
%MOIN*%
*
%FSLAX35Y35*%
*
*
*
*
G04 PC Standard Apertures*
*
*
G04 Thermal Relief Aperture macro.*
%AMTER*
1,1,$1,0,0*
1,0,$1-$2,0,0*
21,0,$3,$4,0,0,45*
21,0,$3,$4,0,0,135*
%
*
*
G04 Annular Aperture macro.*
%AMANN*
1,1,$1,0,0*
1,0,$2,0,0*
%
*
*
G04 Odd Aperture macro.*
%AMODD*
1,1,$1,0,0*
1,0,$1-0.005,0,0*
%
*
*
G04 PC Custom Aperture Macros*
*
*
*
*
*
*
G04 PC Aperture Table*
*
%ADD015C,0.005*%
%ADD038C,0.04*%
%ADD042C,0.001*%
%ADD047C,0.02*%
%ADD092R,0.025X0.025*%
%ADD093R,0.043X0.039*%
%ADD094R,0.051X0.059*%
%ADD095R,0.039X0.043*%
%ADD097R,0.062X0.062*%
%ADD098C,0.062*%
%ADD099R,0.059X0.051*%
%ADD106C,0.018*%
%ADD120R,0.065X0.026*%
%ADD158C,0*%
%ADD168R,0.05X0.063*%
%ADD172R,0.012X0.055*%
%ADD173R,0.055X0.012*%
%ADD188C,0.01*%
%ADD191C,0.012*%
%ADD193C,0.028*%
%ADD194C,0.008*%
%ADD197R,0.01969X0.10724*%
%ADD198R,0.045X0.125*%
%ADD199C,0.006*%
%ADD201C,0.005*%
%ADD245R,0.105X0.1*%
%ADD246R,0.04X0.05*%
%ADD247C,0.02*%
%ADD259R,0.03X0.012*%
%ADD272R,0.065X0.095*%
%ADD273C,0.0045*%
%ADD274C,0.0053*%
%ADD275C,0.0056*%
%ADD276C,0.015*%
%ADD277C,0.0055*%
%ADD303R,0.01181X0.01929*%
%ADD304R,0.00787X0.04488*%
*
*
*
*
G04 PC Circuitry*
G04 Layer Name PADS_{TEX137}_F2837x co - circuitry*
%LPD*%
*
*
G04 PC Custom Flashes*
G04 Layer Name PADS_{TEX137}_F2837x co - flashes*
%LPD*%
*
*
G04 PC Circuitry*
G04 Layer Name PADS_{TEX137}_F2837x co - circuitry*
%LPD*%
*
G54D15*
G01X1100256Y945519D03*
X1275256Y1018019D03*
X1365256Y955519D03*
G54D38*
X1253500Y939500D03*
X980000Y935000D03*
X990000D03*
X980000Y915000D03*
X990000D03*
X1332054Y868752D03*
X1208154Y902846D03*
X1223396Y949175D03*
X1370154Y899846D03*
G54D42*
X1000000Y1013780D03*
Y1000000D03*
G54D47*
X1327531Y907453D03*
X1331469D03*
X1327531Y901547D03*
X1331469D03*
G54D92*
X1167653Y959248D03*
Y955248D03*
X1314154Y996346D03*
Y1000346D03*
X1200154Y936846D03*
X1196154D03*
X1246154Y1004346D03*
Y1008346D03*
X1152500Y917700D03*
X1148500D03*
X1011728Y1001519D03*
Y1005519D03*
X985000Y1001500D03*
X989000D03*
Y971500D03*
X985000D03*
X1218807Y1014693D03*
Y1018693D03*
X1019228Y992019D03*
Y988019D03*
X1023869Y990268D03*
Y986268D03*
X1040981Y1011390D03*
X1044981D03*
X1116500Y876000D03*
Y880000D03*
X1091895Y915016D03*
Y911016D03*
X1059981Y1011890D03*
Y1015890D03*
X1091981Y1011890D03*
Y1015890D03*
X1059981Y987890D03*
Y991890D03*
X1091981Y987890D03*
Y991890D03*
X1055824Y974549D03*
X1059824D03*
X1097024D03*
X1093024D03*
X1240500Y949000D03*
X1244500D03*
X1141252Y968000D03*
X1137252D03*
X1020654Y897846D03*
Y893846D03*
X1309154Y996346D03*
Y1000346D03*
X1339654Y999846D03*
Y995846D03*
X1156490Y924252D03*
Y928252D03*
X1157154Y946346D03*
Y942346D03*
X1153154Y946346D03*
Y942346D03*
X1149154Y946346D03*
Y942346D03*
X1145630Y938302D03*
X1149630D03*
X1151500Y901000D03*
X1155500D03*
X1148448Y934300D03*
X1152448D03*
X1148448Y929350D03*
X1152448D03*
X1127000Y961500D03*
Y965500D03*
X1165154Y924346D03*
Y928346D03*
X1169654Y924346D03*
Y928346D03*
X1187000Y965000D03*
X1191000D03*
X1169654Y946346D03*
X1165654D03*
X1161154D03*
Y942346D03*
X1049154Y897846D03*
Y893846D03*
X1158195Y911016D03*
Y915016D03*
X1177453Y896953D03*
X1173453D03*
X1180254Y933546D03*
X1176254D03*
X1158654Y959846D03*
Y955846D03*
X1136154Y936846D03*
X1140154D03*
X1187154Y949346D03*
X1183154D03*
X1107354Y989046D03*
X1103354D03*
Y994146D03*
X1107354D03*
X1299000Y916000D03*
Y920000D03*
X1294000Y903500D03*
Y907500D03*
X1299000Y903500D03*
Y907500D03*
X1200154Y941846D03*
X1196154D03*
X1077154Y897346D03*
Y893346D03*
X1327154Y1002846D03*
X1323154D03*
X1160520Y928252D03*
Y924252D03*
X1152500Y922400D03*
X1148500D03*
X1204154Y961346D03*
X1200154D03*
X1204154Y956846D03*
X1200154D03*
X1162095Y911016D03*
Y915016D03*
X1125154Y950846D03*
Y946846D03*
X1240000Y979000D03*
Y975000D03*
X1169654Y932846D03*
X1165654D03*
X1192500Y908500D03*
Y904500D03*
X1294000Y916000D03*
Y920000D03*
X1209154Y916846D03*
X1213154D03*
X1198703Y928698D03*
X1202703D03*
Y920898D03*
X1198703D03*
X1202703Y916498D03*
X1198703D03*
X1316154Y935252D03*
Y931252D03*
X1240500Y970000D03*
X1244500D03*
X1101300Y882300D03*
Y878300D03*
X1094300Y891400D03*
Y895400D03*
X1151000Y1026000D03*
Y1022000D03*
X1172700Y1011100D03*
X1168700D03*
X1172154Y1005846D03*
Y1001846D03*
X1152500Y998000D03*
Y994000D03*
X1099300Y892900D03*
X1103300D03*
X1135000Y896000D03*
Y900000D03*
X1145000D03*
Y896000D03*
X1140000D03*
Y900000D03*
X1130000D03*
Y896000D03*
G54D93*
X1240150Y939500D03*
X1246850D03*
X1207504Y966846D03*
X1200804D03*
X1116000Y921350D03*
X1122700D03*
X1115750Y885900D03*
X1109050D03*
X1115750Y892900D03*
X1109050D03*
X1114650Y904500D03*
X1121350D03*
X1114650Y914000D03*
X1121350D03*
G54D94*
X987592Y963890D03*
X980092D03*
X987592Y953890D03*
X980092D03*
X1044062Y990482D03*
X1036562D03*
X1099050Y904400D03*
X1106550D03*
X1099250Y914500D03*
X1106750D03*
X1224904Y975846D03*
X1217404D03*
X1208904D03*
X1201404D03*
G54D95*
X1013728Y994369D03*
Y987669D03*
X1029287Y996982D03*
Y990282D03*
X1118154Y954196D03*
Y947496D03*
X1038154Y884696D03*
Y877996D03*
X1045654Y884696D03*
Y877996D03*
X1010154Y884696D03*
Y877996D03*
X1017154Y884696D03*
Y877996D03*
X1024154Y884696D03*
Y877996D03*
X1031654Y884696D03*
Y877996D03*
X1160654Y982696D03*
Y975996D03*
X1124154Y934696D03*
Y927996D03*
X1197654Y911696D03*
Y904996D03*
X1011500Y857650D03*
Y864350D03*
X1018000Y857650D03*
Y864350D03*
X1024500Y857650D03*
Y864350D03*
X1031000Y857650D03*
Y864350D03*
X1037500Y857650D03*
Y864350D03*
X1044000Y857650D03*
Y864350D03*
X1050500Y857650D03*
Y864350D03*
X1057000Y857650D03*
Y864350D03*
X1070000Y857650D03*
Y864350D03*
X1076500Y857650D03*
Y864350D03*
X1083000Y857650D03*
Y864350D03*
X1052154Y884696D03*
Y877996D03*
X1066154Y884696D03*
Y877996D03*
X1073654Y884696D03*
Y877996D03*
X1080654Y884696D03*
Y877996D03*
X1088154Y884696D03*
Y877996D03*
X1059654Y884696D03*
Y877996D03*
X1225807Y1011843D03*
Y1018543D03*
X1063500Y857650D03*
Y864350D03*
X1095400Y881950D03*
Y875250D03*
X1109000Y877650D03*
Y870950D03*
X1234100Y993050D03*
Y999750D03*
X1145000Y882650D03*
Y889350D03*
X1130000Y882650D03*
Y889350D03*
G54D97*
X1224154Y911846D03*
X1234154D03*
X1244154D03*
X1254154D03*
X1264154D03*
X1274154D03*
G54D98*
X1224154Y903972D03*
Y896098D03*
X1234154Y903972D03*
Y896098D03*
X1244154Y903972D03*
Y896098D03*
X1254154Y903972D03*
Y896098D03*
X1264154Y903972D03*
Y896098D03*
X1274154Y903972D03*
Y896098D03*
G54D99*
X1006228Y995769D03*
Y988269D03*
X1145000Y866750D03*
Y874250D03*
X1130000Y866750D03*
Y874250D03*
X1142654Y975596D03*
Y983096D03*
X1152154D03*
Y975596D03*
G54D106*
X1013654Y891346D03*
X1028018Y891873D03*
X1024154Y891846D03*
X1024260Y874346D03*
X1009654Y891846D03*
X1017154D03*
X1017240Y874000D03*
X1010000Y873846D03*
X1001654Y862846D03*
X999618Y860990D03*
X1003654Y860346D03*
X1005618Y865346D03*
X1011618Y847990D03*
X1003654Y867846D03*
X1006654Y872346D03*
X1019654Y845846D03*
X1013654Y881346D03*
X1028054Y880952D03*
X1009900Y906500D03*
X1017050D03*
X1020700D03*
X1024200D03*
X1096738Y866990D03*
X1038295Y846716D03*
X1091895Y907916D03*
X1096595Y892916D03*
X1035195Y846716D03*
X1074700Y846700D03*
X1078400Y845900D03*
X1063500Y845800D03*
X1060000Y845500D03*
X1104400Y880400D03*
X1077600Y848500D03*
X1099600Y870800D03*
X1099200Y875200D03*
X1106800Y899600D03*
X1080654Y873846D03*
X1109193Y847940D03*
X1108500Y857700D03*
X1105858Y856252D03*
X1092151Y845650D03*
X1091854Y848252D03*
X1088754Y845552D03*
X1088654Y848352D03*
X1085554Y845552D03*
X1085454Y848152D03*
X1101479Y862727D03*
X1098504Y862302D03*
X1041954Y891946D03*
X1056154Y891752D03*
X1069954Y891746D03*
X1084600Y892000D03*
X1080654Y891846D03*
X1088600Y868346D03*
X1090800Y870800D03*
X1088154Y891846D03*
Y873846D03*
X1066154Y891846D03*
X1078344Y871802D03*
X1073654Y891846D03*
X1078154Y874346D03*
X1073654D03*
X1066260Y874240D03*
X1052154Y891846D03*
X1059654D03*
X1059700Y874000D03*
X1052260Y873846D03*
X1038154Y891846D03*
X1046654Y870346D03*
X1045654Y891846D03*
X1049154Y870346D03*
X1045654Y874346D03*
X1039154D03*
X1033454Y871452D03*
X1035154Y873352D03*
X1031654Y891846D03*
X1031740Y874388D03*
X1081000Y850400D03*
X1041954Y880952D03*
X1055554Y881252D03*
X1069254D03*
X1084504D03*
X1031900Y906500D03*
X1038500D03*
X1045650D03*
X1049200D03*
X1052800D03*
X1059400D03*
X1066000D03*
X1073700D03*
X1077200D03*
X1080850D03*
X1088000D03*
X1148976Y908228D03*
X1143340Y862452D03*
X1158395Y908216D03*
X1161595D03*
X1120195Y845816D03*
X1116500Y873000D03*
X1129300Y893200D03*
X1120200Y881200D03*
X1120500Y874200D03*
X1147700Y845500D03*
X1124300Y866700D03*
X1171800Y845600D03*
X1176400Y890900D03*
X1138000Y892800D03*
X1125600Y880000D03*
Y882400D03*
X1120400Y883600D03*
X1137600Y882000D03*
X1132400Y893200D03*
X1167874Y911378D03*
X1161575Y905079D03*
X1167874Y908228D03*
X1135003Y881448D03*
X1160303Y882248D03*
X1159803Y878248D03*
X1135803Y884148D03*
X1166953Y882453D03*
X1117354Y898646D03*
X1126954Y910646D03*
X1166953Y877953D03*
X1162703Y894253D03*
X1126954Y903846D03*
X1142677Y905079D03*
X1130079Y908228D03*
X1142677D03*
X1172193Y847940D03*
X1162743Y851090D03*
X1178448Y880497D03*
X1159593Y851090D03*
X1187348Y885097D03*
X1183622Y911378D03*
X1159593Y847940D03*
X1176048Y882397D03*
X1156443Y847940D03*
X1185948Y891397D03*
X1183622Y908228D03*
X1162743Y854240D03*
X1183622Y905079D03*
X1153293Y851090D03*
X1168554Y900552D03*
X1150143Y851140D03*
X1169654Y894630D03*
X1171024Y911378D03*
X1143843Y847940D03*
Y851090D03*
X1140693D03*
X1137543Y847940D03*
X1134393Y851090D03*
Y847940D03*
X1131243D03*
Y851090D03*
X1128147Y851086D03*
X1128093Y847940D03*
X1124943D03*
Y851090D03*
X1121793D03*
X1118643Y847940D03*
X1115493D03*
Y851090D03*
X1112343D03*
Y847940D03*
X1187943D03*
X1175343Y851090D03*
X1152803Y882248D03*
X1153303Y878248D03*
X1184793Y851090D03*
X1181643Y847940D03*
X1178493Y851090D03*
X1175343Y847940D03*
X1172193Y854240D03*
X1187943D03*
X1169043Y855815D03*
X1184793D03*
X1181643Y851090D03*
X1178493Y847940D03*
X1180473Y911378D03*
Y908228D03*
X1152126D03*
Y911378D03*
X1180473Y905079D03*
X1177323Y911378D03*
X1148976D03*
X1145827D03*
X1142677D03*
X1139527D03*
Y905079D03*
Y908228D03*
X1136378Y905079D03*
Y908228D03*
X1133228Y905079D03*
Y908228D03*
X1136378Y911378D03*
X1133228D03*
X1130079D03*
X1169043Y851090D03*
X1165893Y847940D03*
Y851090D03*
X1162743Y847940D03*
X1177323Y905079D03*
X1153293Y847940D03*
X1174173Y911378D03*
X1146993Y847940D03*
X1166647Y898653D03*
X1164725Y911378D03*
Y905079D03*
X1140693Y847940D03*
X1137543Y851090D03*
X1164725Y908228D03*
X1174173D03*
X1173654Y899952D03*
X1174173Y905079D03*
X1179154Y889846D03*
X1171024Y905079D03*
X1177323Y908228D03*
X1152126Y905079D03*
X1169500Y847500D03*
X1150000D03*
X1155300Y903600D03*
X1148976Y905079D03*
X1130079D03*
X1145827D03*
Y908228D03*
X1173700Y889400D03*
X1195900Y846600D03*
X1190851Y900498D03*
X1212146Y898349D03*
X1202648Y879297D03*
X1202748Y881997D03*
X1191093Y847940D03*
X1205246Y911249D03*
X1190303Y879248D03*
X1201718Y903990D03*
X1205454Y852852D03*
X1193051Y899598D03*
X1216051Y905598D03*
X1209946Y912649D03*
X1189921Y911378D03*
Y908228D03*
X1193500Y849000D03*
X1189921Y905079D03*
X1201718Y911690D03*
X1318354Y899052D03*
X1340954Y905152D03*
X1346469Y849515D03*
X1343319Y855350D03*
X1340169D03*
X1340176Y851090D03*
X1337026D03*
Y847940D03*
X1333876D03*
Y851090D03*
X1330726D03*
Y847940D03*
X1327576D03*
Y851090D03*
X1324426D03*
Y847940D03*
X1321276D03*
Y851090D03*
X1318126D03*
Y847940D03*
X1314976D03*
Y855900D03*
X1311826D03*
X1308676Y851090D03*
X1305525D03*
X1305526Y847940D03*
X1302375D03*
X1302376Y851090D03*
X1299226D03*
Y847940D03*
X1296076D03*
Y851090D03*
X1292926D03*
X1289776Y847940D03*
X1292926D03*
X1288154Y851952D03*
Y855952D03*
X1299000Y900500D03*
X1294000D03*
Y913000D03*
X1299000D03*
X1346000Y847000D03*
X1343326Y845577D03*
X1308676Y847940D03*
X1294000Y910500D03*
X1299000D03*
X1309754Y902352D03*
X1309354Y890452D03*
X1318054Y879252D03*
X1340000Y884500D03*
X1353197Y848051D03*
X1352769Y851090D03*
X1349619D03*
Y847940D03*
X1365369Y851090D03*
X1362219D03*
Y847940D03*
X1359069D03*
X1355919D03*
Y851090D03*
X1359069D03*
X1377500Y851000D03*
X1377418Y847290D03*
X1350510Y888450D03*
X1016300Y940000D03*
X1020100Y940200D03*
X1017979Y957890D03*
X996224Y942149D03*
X1005424Y972549D03*
X1022624Y971349D03*
X1020224Y974149D03*
X1005228Y956019D03*
X1009424Y948949D03*
X1005228Y944019D03*
X1027228Y958019D03*
Y968019D03*
X1010224Y940949D03*
X1023824Y992949D03*
X1025424Y973749D03*
X1016224Y972549D03*
X992224Y971349D03*
X985424Y942149D03*
X996224Y946149D03*
X995024Y957349D03*
X995424Y979749D03*
X1005424Y977349D03*
X1005024Y962949D03*
X1027424D03*
X992624Y954519D03*
X991728Y952019D03*
X1019024Y983749D03*
X1017024Y967749D03*
Y962949D03*
X1027941Y940519D03*
X991824Y966149D03*
X986728Y959019D03*
X995228Y964019D03*
X980224Y959349D03*
Y948949D03*
X1049900Y955900D03*
X1031900Y938800D03*
X1035800Y939400D03*
X1051100Y946400D03*
Y941400D03*
X1107197Y974551D03*
X1107453Y960953D03*
X1098351Y931998D03*
X1091953Y953453D03*
X1103953Y963453D03*
X1098453Y958953D03*
X1100453Y962953D03*
X1096453Y961453D03*
X1098453Y956453D03*
X1089453Y928453D03*
X1095953Y930453D03*
X1093953Y962453D03*
X1104254Y978952D03*
X1031400Y941300D03*
X1029824Y973749D03*
X1059824Y971749D03*
X1040728Y945519D03*
X1050228Y966019D03*
X1043856Y983890D03*
X1036224Y984149D03*
X1051228Y951519D03*
X1041024Y942149D03*
Y950149D03*
X1060624Y959349D03*
X1055824Y971349D03*
X1063824Y979349D03*
X1051824Y989349D03*
X1047424Y974549D03*
X1038224Y973749D03*
X1029824Y984149D03*
X1033424Y984549D03*
X1037424Y952949D03*
X1059024Y981519D03*
X1040228Y977519D03*
X1090654Y964252D03*
X1099453Y983953D03*
X1109150Y983834D03*
X1039728Y957519D03*
X1051424Y972519D03*
X1053424Y964019D03*
X1056624Y978949D03*
X1033424Y973349D03*
X1090224Y974549D03*
X1099454Y989046D03*
X1090606Y959440D03*
X1097004Y977602D03*
X1092004Y982402D03*
X1097806Y981190D03*
X1098151Y920198D03*
X1115595Y941716D03*
X1130079Y923976D03*
X1142677Y927126D03*
X1152126D03*
Y933425D03*
X1158425D03*
X1161575D03*
X1136378Y923976D03*
X1116051Y927398D03*
X1114254Y987101D03*
X1142749Y991046D03*
X1139527Y923976D03*
X1130079Y946024D03*
X1127451Y972900D03*
X1113200D03*
X1130079Y949173D03*
X1130451Y978798D03*
X1109850Y977248D03*
X1133228Y964921D03*
X1135548Y992497D03*
X1121300Y991900D03*
X1136378Y958622D03*
X1123803Y961748D03*
X1177323Y914527D03*
X1167874D03*
X1136378Y927126D03*
X1113051Y929698D03*
X1116103Y968400D03*
X1139527Y927126D03*
Y930276D03*
X1133228Y927126D03*
X1131951Y971198D03*
X1144651D03*
X1133228Y923976D03*
X1111751Y925198D03*
X1142677Y930275D03*
X1136378D03*
X1133228Y975348D03*
X1126651Y978497D03*
X1133228Y930275D03*
X1115251Y931598D03*
X1121697Y974051D03*
X1136378Y939725D03*
X1133228D03*
X1123800Y966500D03*
X1117303Y992248D03*
X1130079Y939725D03*
X1120751Y966598D03*
X1136378Y942874D03*
X1133228D03*
X1123551Y978403D03*
X1130079Y942874D03*
X1123653Y975653D03*
X1139527Y955473D03*
X1186772Y914527D03*
X1183622D03*
X1130079Y917677D03*
X1139527Y949173D03*
X1137768Y974322D03*
X1139529Y946022D03*
X1180473Y961772D03*
X1175654Y969846D03*
X1145827Y914527D03*
X1180473Y917677D03*
X1186772Y936575D03*
X1171024Y914527D03*
X1130079Y930272D03*
X1164725Y914527D03*
X1130079Y933425D03*
X1133228D03*
X1115751Y934298D03*
X1136378Y933425D03*
X1139527D03*
X1111103Y955710D03*
X1139527Y952323D03*
X1127716Y936574D03*
X1139527Y939725D03*
X1112254Y953801D03*
X1136378Y952323D03*
X1123151Y939498D03*
X1136378Y949173D03*
X1112453Y948386D03*
X1133228Y952323D03*
X1125747Y943661D03*
X1133229Y949172D03*
X1110500Y950100D03*
X1130079Y952323D03*
X1120453Y963346D03*
X1136378Y955473D03*
X1109453Y958953D03*
X1130079Y958622D03*
X1116054Y962748D03*
X1133228Y955473D03*
Y961772D03*
X1111303Y962748D03*
X1130079Y955473D03*
X1136378Y946024D03*
X1112303Y957748D03*
X1133228Y958622D03*
Y946024D03*
X1145827Y961772D03*
X1148976D03*
X1145827Y964921D03*
X1148976D03*
Y955473D03*
X1152126D03*
X1148976Y958622D03*
X1152249Y969897D03*
X1152126Y958622D03*
X1183622Y923976D03*
Y917677D03*
X1161575Y920827D03*
Y917677D03*
X1142677Y933425D03*
X1177323Y939725D03*
X1171024Y917677D03*
X1171023Y920828D03*
X1177323Y946024D03*
X1155275Y952323D03*
X1145827Y933425D03*
X1155275Y949173D03*
X1164725Y952323D03*
X1174179Y939722D03*
X1164725Y949173D03*
X1174179Y946022D03*
X1180473Y942874D03*
X1183622D03*
X1126949Y922602D03*
X1145827Y920827D03*
Y917677D03*
X1186772Y942874D03*
X1136378Y964921D03*
X1136303Y988748D03*
X1139527Y961772D03*
X1156554Y989846D03*
X1140954Y989046D03*
X1139527Y964921D03*
X1142677Y961772D03*
X1153197Y990051D03*
X1142677Y964921D03*
X1142654Y987446D03*
X1145827Y955473D03*
X1147009Y979100D03*
X1145827Y958622D03*
X1147796Y981856D03*
X1164725Y955473D03*
Y958622D03*
X1164401Y977546D03*
X1164725Y961772D03*
Y964921D03*
X1166598Y978646D03*
X1174173Y958622D03*
Y961772D03*
Y964921D03*
X1171501Y974546D03*
X1177323Y955473D03*
Y958622D03*
Y961772D03*
Y964921D03*
X1180473Y958622D03*
X1182949Y970397D03*
X1180473Y955473D03*
X1183622Y958622D03*
X1180474Y964922D03*
X1179354Y969846D03*
X1178554Y985046D03*
X1186154Y970646D03*
X1183622Y961772D03*
X1186772D03*
X1121548Y986297D03*
X1172554Y988646D03*
X1172697Y972551D03*
X1186772Y958622D03*
X1188954Y987846D03*
X1180473Y936575D03*
Y939725D03*
X1184154Y985046D03*
X1183626Y939723D03*
X1183622Y927126D03*
X1186772Y923976D03*
X1180473D03*
X1186772Y920827D03*
X1183622D03*
X1180473D03*
X1186772Y917677D03*
Y952323D03*
X1180473Y914527D03*
X1174173D03*
X1152129Y961772D03*
X1150349Y971597D03*
X1152129Y964922D03*
X1156599Y980598D03*
X1155275Y955473D03*
X1157099Y969398D03*
X1155275Y958622D03*
X1156799Y978398D03*
X1186772Y946024D03*
X1155254Y933401D03*
X1155275Y914527D03*
X1148154Y991046D03*
X1152126Y914527D03*
X1165754Y990646D03*
X1180554Y988646D03*
X1148976Y914527D03*
X1142677D03*
X1139527Y920827D03*
Y917677D03*
X1136378Y920827D03*
Y917677D03*
X1139527Y914527D03*
X1136378D03*
X1133228D03*
X1130079D03*
X1180473Y927126D03*
Y930275D03*
X1183622Y936575D03*
X1183683Y930275D03*
X1183622Y964921D03*
X1189154Y969346D03*
X1186776Y939723D03*
X1149899Y988298D03*
X1173754Y985046D03*
X1169354Y987046D03*
X1160754Y967852D03*
X1166954Y987046D03*
X1118856Y983890D03*
X1162954Y987046D03*
X1121654Y981252D03*
X1120956Y988990D03*
X1155275Y917677D03*
Y920827D03*
X1177323Y923976D03*
X1174173D03*
X1130079Y927126D03*
X1174173Y930278D03*
X1145827Y942874D03*
Y927126D03*
X1158425Y952323D03*
Y949173D03*
X1148976Y952323D03*
Y949173D03*
X1142677Y942874D03*
X1177323Y930278D03*
X1171024Y949173D03*
X1180473D03*
X1186772Y964921D03*
X1171024Y952323D03*
X1180473D03*
X1130079Y961772D03*
X1161599Y972198D03*
X1155275Y964921D03*
X1145827Y946024D03*
X1142677D03*
X1118266Y957836D03*
X1159399Y972298D03*
X1138270Y984680D03*
X1138300Y981930D03*
X1167874Y917677D03*
X1164725D03*
X1122303Y955748D03*
X1130079Y964921D03*
X1160554Y987046D03*
X1138346Y977525D03*
X1145949Y990997D03*
X1130999Y991598D03*
Y986498D03*
X1164725Y936575D03*
X1127803Y933448D03*
X1186772Y930275D03*
X1177323Y920827D03*
X1152126D03*
Y917677D03*
X1112303Y921248D03*
X1133228Y920827D03*
X1130079D03*
X1142677D03*
Y917677D03*
X1133228D03*
X1145827Y923976D03*
X1142677D03*
X1164725Y930275D03*
X1167874D03*
X1161575D03*
X1155275D03*
X1164725Y939725D03*
Y942874D03*
X1158425D03*
Y939725D03*
X1152126D03*
X1142677D03*
X1145827Y952323D03*
X1152126Y942874D03*
Y952323D03*
Y949173D03*
X1145827D03*
X1142677D03*
Y952323D03*
X1155275Y942874D03*
Y939725D03*
X1177323Y917677D03*
Y927126D03*
X1145827Y930275D03*
X1152126D03*
X1155275Y927126D03*
X1161575D03*
X1174173Y917677D03*
Y920827D03*
X1167874D03*
X1164725D03*
Y927126D03*
X1167874D03*
X1174173D03*
X1174179Y942872D03*
X1183622Y946024D03*
X1167874Y949173D03*
X1158425Y964921D03*
X1177323Y952323D03*
X1167874Y961771D03*
Y952323D03*
X1177323Y936575D03*
X1174179Y936572D03*
X1177323Y949173D03*
Y942874D03*
X1174173Y952323D03*
Y949173D03*
X1180473Y946024D03*
X1236800Y953300D03*
X1240500Y964700D03*
X1243800Y934300D03*
X1197201Y951046D03*
X1193901Y953046D03*
X1194154Y990646D03*
X1244351Y954798D03*
X1235203Y921615D03*
X1240253Y926178D03*
X1206851Y914498D03*
X1189921Y936575D03*
X1238448Y924097D03*
X1200800Y925900D03*
X1222800Y960100D03*
X1222606Y967046D03*
X1194051Y961248D03*
X1189921Y942874D03*
X1244453Y974953D03*
X1247809Y949175D03*
X1189921Y949173D03*
X1189926Y939723D03*
X1189921Y946024D03*
X1193865Y969446D03*
X1258554Y988246D03*
X1195454Y966852D03*
X1189921Y961772D03*
X1210354Y924946D03*
X1233148Y934797D03*
X1204554Y983846D03*
X1216154Y916846D03*
X1223354Y963046D03*
X1226648Y937340D03*
X1207851Y922846D03*
X1225749Y992597D03*
X1231651Y924298D03*
X1199000Y924000D03*
X1246235Y927911D03*
X1196299Y925551D03*
X1232448Y920797D03*
X1189921Y920827D03*
X1195047Y920824D03*
X1242615Y923190D03*
X1191503Y922399D03*
X1189921Y917677D03*
X1195800Y917700D03*
X1192401Y949146D03*
X1189921Y958622D03*
Y955473D03*
X1218654Y943740D03*
X1218597Y932085D03*
X1222671Y939470D03*
X1220661Y941800D03*
X1214603Y945620D03*
X1210700Y921198D03*
X1193472Y928699D03*
X1206354Y916846D03*
X1250154Y985846D03*
X1242554Y989446D03*
X1193868Y932490D03*
X1240451Y953498D03*
X1189921Y964921D03*
X1236384Y931852D03*
X1211654Y966852D03*
X1206804Y961352D03*
X1200154Y944952D03*
X1208154Y992590D03*
X1195046Y983825D03*
X1222606Y992590D03*
X1223754Y970646D03*
X1239934Y982644D03*
X1338000Y914000D03*
X1311754Y989252D03*
X1305953Y958953D03*
X1307668Y955930D03*
X1302654Y981752D03*
X1302154Y984752D03*
X1300154Y979252D03*
X1298654Y983252D03*
X1299654Y970990D03*
X1301618Y973490D03*
X1292654Y980252D03*
X1299000Y922500D03*
X1296654Y974490D03*
X1299500Y936000D03*
X1298654Y962752D03*
X1294656Y970890D03*
X1292654Y974252D03*
X1297504Y949152D03*
X1294154Y967252D03*
X1290154Y971252D03*
Y974252D03*
X1288654Y964752D03*
X1290254Y956402D03*
X1288654Y959252D03*
X1286654Y973252D03*
X1280154Y990002D03*
X1294000Y922500D03*
X1284154Y967752D03*
X1284654Y958252D03*
X1281654Y963752D03*
X1280154Y954646D03*
X1278654Y959752D03*
X1288000Y932402D03*
X1285254Y934752D03*
X1286454Y923152D03*
X1283654Y939752D03*
X1285654Y937452D03*
X1283456Y929490D03*
X1281754Y933652D03*
X1277254Y923052D03*
X1281254Y919552D03*
X1277754Y917352D03*
X1279854Y925152D03*
X1314454Y962952D03*
X1312654Y959952D03*
X1309354Y958952D03*
X1310954Y957252D03*
X1307154Y952452D03*
X1272854Y944752D03*
X1277554Y941752D03*
X1279604Y943852D03*
X1275554Y947252D03*
X1313354Y934952D03*
X1309154Y993152D03*
X1314154D03*
X1313953Y973953D03*
X1343554Y923802D03*
X1338600Y925000D03*
X1336404Y931602D03*
X1329904Y941352D03*
X1336453Y973953D03*
X1339654Y991852D03*
X1360695Y928216D03*
X1358695D03*
X1360695Y930616D03*
X1358695D03*
X1351354Y918602D03*
X1011824Y998149D03*
X1003424Y1006949D03*
X1003000Y1011000D03*
X1001424Y994149D03*
X1002624Y1003749D03*
X1025424Y996149D03*
X1019424Y994549D03*
Y996549D03*
X983824Y1006549D03*
X982224Y1001349D03*
X978224Y994149D03*
X1067300Y1002600D03*
X1061228Y997519D03*
X1060728Y1021519D03*
X1041424Y1007349D03*
X1034228Y1015019D03*
X1066700Y1025500D03*
X1051024Y1006549D03*
X1034224Y1000149D03*
X1048624Y996549D03*
X1095953Y997953D03*
X1046228Y1008019D03*
X1091799Y1021299D03*
X1104803Y1017748D03*
X1091799Y997283D03*
X1099454Y994146D03*
X1091806Y1006390D03*
X1083000Y1025300D03*
Y1002900D03*
X1029500Y1003000D03*
X1029424Y1008149D03*
X1029500Y1005500D03*
X1037024Y996549D03*
X1179000Y1009800D03*
X1181559Y1009859D03*
X1124095Y1011816D03*
X1146146Y1012016D03*
Y1001385D03*
X1113071Y1009260D03*
X1111496Y1011778D03*
X1122518Y1019653D03*
X1174954Y999046D03*
X1124095Y1021716D03*
X1161151Y1020498D03*
X1144568Y1019653D03*
X1154018D03*
X1142996Y1001385D03*
X1155596D03*
X1111496D03*
X1109900Y1019300D03*
X1147718Y1019653D03*
X1120946Y1012016D03*
X1142554Y997046D03*
X1120900Y996000D03*
X1119368Y1019653D03*
X1119400Y1000100D03*
X1117796Y1012016D03*
X1114697Y996551D03*
X1128821Y1009260D03*
X1114643Y1011778D03*
X1113100Y1019200D03*
X1169054Y1005846D03*
X1155596Y1012016D03*
X1147721Y1008866D03*
X1150868Y1019653D03*
X1136696Y1001385D03*
Y1012016D03*
X1172154Y999046D03*
X1177654D03*
X1182554Y999446D03*
X1184303Y1009748D03*
X1186303Y1002748D03*
X1174954Y1005946D03*
X1157171Y1026016D03*
X1125668Y1019653D03*
X1187354Y1012646D03*
X1155354Y996646D03*
X1127246Y1012016D03*
X1138554Y994646D03*
X1128818Y1019653D03*
X1133754Y997046D03*
X1130396Y1012016D03*
X1135118Y1019653D03*
X1138271Y1009260D03*
X1138268Y1019653D03*
X1139846Y1001385D03*
Y1012016D03*
X1141421Y1009260D03*
X1165354Y1002646D03*
X1131968Y1019653D03*
X1133546Y1001385D03*
X1135121Y1009260D03*
X1133546Y1012016D03*
X1142996D03*
X1160949Y1012197D03*
X1144571Y1008866D03*
X1168554Y1001046D03*
X1154021Y1025797D03*
X1113350Y994397D03*
X1163354Y996246D03*
X1161154Y997998D03*
X1117156Y996990D03*
X1186154Y993846D03*
X1152446Y1012016D03*
X1150871Y1009260D03*
X1154021D03*
X1149296Y1012016D03*
X1149351Y1001598D03*
X1131099Y997098D03*
X1109921Y1009260D03*
X1131971Y1008866D03*
X1124095Y1008816D03*
X1116200Y1019300D03*
X1141418Y1019653D03*
X1164254Y1020852D03*
X1166151Y1011098D03*
X1161254Y1014752D03*
X1183754Y1019652D03*
X1174254Y1019252D03*
X1171454Y1014352D03*
X1185354Y999446D03*
X1235200Y1017200D03*
X1257700Y1017300D03*
X1197900Y1000000D03*
X1191398Y1000746D03*
X1199551Y1017998D03*
X1234954Y1004246D03*
X1238800Y998700D03*
X1201601Y994346D03*
X1237200Y996900D03*
X1221654Y1014752D03*
X1208154Y1021752D03*
X1213154Y1004052D03*
X1193954Y999852D03*
X1222654Y1018752D03*
X1195754Y1009046D03*
X1230551Y997046D03*
X1216149Y1003597D03*
X1194949Y1002397D03*
X1246154Y993846D03*
X1230501Y993646D03*
X1238751Y1001147D03*
X1191354Y1004246D03*
X1212554Y993446D03*
X1204899Y996498D03*
X1222418Y1010940D03*
X1246356Y1011690D03*
X1208654Y1011502D03*
X1193754Y1020552D03*
X1196554Y1014752D03*
X1233204Y1014852D03*
X1246154Y1000952D03*
X1272954Y994646D03*
X1269463Y1008234D03*
X1314154Y1003252D03*
X1327154Y998752D03*
X1335654Y1003252D03*
X1318654D03*
X1309154D03*
X1339654D03*
X1323154Y1005752D03*
X1330154Y1002752D03*
X1331654Y1005752D03*
X1338453Y1020953D03*
X1291453Y1018453D03*
G54D120*
X1085481Y974390D03*
Y969390D03*
Y964390D03*
Y959390D03*
X1065481D03*
Y964390D03*
Y969390D03*
Y974390D03*
G54D158*
G54D168*
X982670Y979717D03*
Y994283D03*
X991330D03*
Y979717D03*
G54D172*
X1008251Y979140D03*
X1010220D03*
X1012189D03*
X1014158D03*
X1016127D03*
X1018096D03*
X1020065D03*
X1022034D03*
X1024003D03*
X1025972D03*
X1027941D03*
X1029910D03*
X1031879D03*
X1033848D03*
X1035817D03*
X1037786D03*
Y934640D03*
X1035817D03*
X1033848D03*
X1031879D03*
X1029910D03*
X1027941D03*
X1025972D03*
X1024003D03*
X1022034D03*
X1020065D03*
X1018096D03*
X1016127D03*
X1014158D03*
X1012189D03*
X1010220D03*
X1008251D03*
G54D173*
X1045269Y971657D03*
Y969688D03*
Y967719D03*
Y965750D03*
Y963781D03*
Y961812D03*
Y959843D03*
Y957874D03*
Y955905D03*
Y953936D03*
Y951967D03*
Y949998D03*
Y948029D03*
Y946060D03*
Y944091D03*
Y942122D03*
X1000769D03*
Y944091D03*
Y946060D03*
Y948029D03*
Y949998D03*
Y951967D03*
Y953936D03*
Y955905D03*
Y957874D03*
Y959843D03*
Y961812D03*
Y963781D03*
Y965750D03*
Y967719D03*
Y969688D03*
Y971657D03*
G54D188*
X1451097Y383484D02*
Y373641D01*
X1455187*
X1460983Y383484D02*
X1458256Y373641D01*
X1460983Y383484D02*
X1463710Y373641D01*
X1459278Y376922D02*
X1462687D01*
X1466778Y383484D02*
X1469506Y378797D01*
Y373641*
X1472233Y383484D02*
X1469506Y378797D01*
X1475301Y383484D02*
Y373641D01*
Y383484D02*
X1479733D01*
X1475301Y378797D02*
X1478028D01*
X1475301Y373641D02*
X1479733D01*
X1482801Y383484D02*
Y373641D01*
Y383484D02*
X1485869D01*
X1486892Y383016*
X1487233Y382547*
X1487574Y381609*
Y380672*
X1487233Y379734*
X1486892Y379266*
X1485869Y378797*
X1482801*
X1485187D02*
X1487574Y373641D01*
X1418244Y554334D02*
X1415517Y544490D01*
X1418244Y554334D02*
X1420972Y544490D01*
X1416540Y547771D02*
X1419949D01*
X1424040Y551052D02*
Y544490D01*
Y548240D02*
X1424381Y549646D01*
X1425063Y550584*
X1425744Y551052*
X1426767*
X1430858Y554334D02*
Y546365D01*
X1431199Y544959*
X1431881Y544490*
X1432563*
X1429835Y551052D02*
X1432222D01*
X1435631D02*
X1436994Y544490D01*
X1438358Y551052D02*
X1436994Y544490D01*
X1438358Y551052D02*
X1439722Y544490D01*
X1441085Y551052D02*
X1439722Y544490D01*
X1445858Y551052D02*
X1445176Y550584D01*
X1444494Y549646*
X1444153Y548240*
Y547302*
X1444494Y545896*
X1445176Y544959*
X1445858Y544490*
X1446881*
X1447563Y544959*
X1448244Y545896*
X1448585Y547302*
Y548240*
X1448244Y549646*
X1447563Y550584*
X1446881Y551052*
X1445858*
X1451653D02*
Y544490D01*
Y548240D02*
X1451994Y549646D01*
X1452676Y550584*
X1453358Y551052*
X1454381*
X1457449Y554334D02*
Y544490D01*
X1460858Y551052D02*
X1457449Y546365D01*
X1458813Y548240D02*
X1461199Y544490D01*
X1472108Y554334D02*
Y544490D01*
Y554334D02*
X1474494D01*
X1475517Y553865*
X1476199Y552927*
X1476540Y551990*
X1476881Y550584*
Y548240*
X1476540Y546834*
X1476199Y545896*
X1475517Y544959*
X1474494Y544490*
X1472108*
X1479949Y548240D02*
X1484040D01*
Y549177*
X1483699Y550115*
X1483358Y550584*
X1482676Y551052*
X1481653*
X1480972Y550584*
X1480290Y549646*
X1479949Y548240*
Y547302*
X1480290Y545896*
X1480972Y544959*
X1481653Y544490*
X1482676*
X1483358Y544959*
X1484040Y545896*
X1490858Y549646D02*
X1490517Y550584D01*
X1489494Y551052*
X1488472*
X1487449Y550584*
X1487108Y549646*
X1487449Y548709*
X1488131Y548240*
X1489835Y547771*
X1490517Y547302*
X1490858Y546365*
Y545896*
X1490517Y544959*
X1489494Y544490*
X1488472*
X1487449Y544959*
X1487108Y545896*
X1493926Y554334D02*
X1494267Y553865D01*
X1494608Y554334*
X1494267Y554802*
X1493926Y554334*
X1494267Y551052D02*
Y544490D01*
X1501767Y551052D02*
Y543552D01*
X1501426Y542146*
X1501085Y541677*
X1500403Y541209*
X1499381*
X1498699Y541677*
X1501767Y549646D02*
X1501085Y550584D01*
X1500403Y551052*
X1499381*
X1498699Y550584*
X1498017Y549646*
X1497676Y548240*
Y547302*
X1498017Y545896*
X1498699Y544959*
X1499381Y544490*
X1500403*
X1501085Y544959*
X1501767Y545896*
X1504835Y551052D02*
Y544490D01*
Y549177D02*
X1505858Y550584D01*
X1506540Y551052*
X1507563*
X1508244Y550584*
X1508585Y549177*
Y544490*
X1511653Y548240D02*
X1515744D01*
Y549177*
X1515403Y550115*
X1515063Y550584*
X1514381Y551052*
X1513358*
X1512676Y550584*
X1511994Y549646*
X1511653Y548240*
Y547302*
X1511994Y545896*
X1512676Y544959*
X1513358Y544490*
X1514381*
X1515063Y544959*
X1515744Y545896*
X1522903Y554334D02*
Y544490D01*
Y549646D02*
X1522222Y550584D01*
X1521540Y551052*
X1520517*
X1519835Y550584*
X1519153Y549646*
X1518813Y548240*
Y547302*
X1519153Y545896*
X1519835Y544959*
X1520517Y544490*
X1521540*
X1522222Y544959*
X1522903Y545896*
X1533813Y554334D02*
Y544490D01*
Y554334D02*
X1538244D01*
X1533813Y549646D02*
X1536540D01*
X1543017Y551052D02*
X1542335Y550584D01*
X1541653Y549646*
X1541313Y548240*
Y547302*
X1541653Y545896*
X1542335Y544959*
X1543017Y544490*
X1544040*
X1544722Y544959*
X1545403Y545896*
X1545744Y547302*
Y548240*
X1545403Y549646*
X1544722Y550584*
X1544040Y551052*
X1543017*
X1548813D02*
Y544490D01*
Y548240D02*
X1549153Y549646D01*
X1549835Y550584*
X1550517Y551052*
X1551540*
X1554949D02*
X1554608Y550584D01*
X1554949Y550115*
X1555290Y550584*
X1554949Y551052*
Y545427D02*
X1554608Y544959D01*
X1554949Y544490*
X1555290Y544959*
X1554949Y545427*
X1415517Y499334D02*
Y489490D01*
Y499334D02*
X1418585D01*
X1419608Y498865*
X1419949Y498396*
X1420290Y497459*
Y496521*
X1419949Y495584*
X1419608Y495115*
X1418585Y494646*
X1415517D02*
X1418585D01*
X1419608Y494177*
X1419949Y493709*
X1420290Y492771*
Y491365*
X1419949Y490427*
X1419608Y489959*
X1418585Y489490*
X1415517*
X1425063Y496052D02*
X1424381Y495584D01*
X1423699Y494646*
X1423358Y493240*
Y492302*
X1423699Y490896*
X1424381Y489959*
X1425063Y489490*
X1426085*
X1426767Y489959*
X1427449Y490896*
X1427790Y492302*
Y493240*
X1427449Y494646*
X1426767Y495584*
X1426085Y496052*
X1425063*
X1434949D02*
Y489490D01*
Y494646D02*
X1434267Y495584D01*
X1433585Y496052*
X1432563*
X1431881Y495584*
X1431199Y494646*
X1430858Y493240*
Y492302*
X1431199Y490896*
X1431881Y489959*
X1432563Y489490*
X1433585*
X1434267Y489959*
X1434949Y490896*
X1438017Y496052D02*
Y489490D01*
Y493240D02*
X1438358Y494646D01*
X1439040Y495584*
X1439722Y496052*
X1440744*
X1447903Y499334D02*
Y489490D01*
Y494646D02*
X1447222Y495584D01*
X1446540Y496052*
X1445517*
X1444835Y495584*
X1444153Y494646*
X1443813Y493240*
Y492302*
X1444153Y490896*
X1444835Y489959*
X1445517Y489490*
X1446540*
X1447222Y489959*
X1447903Y490896*
X1458813Y499334D02*
Y489490D01*
Y499334D02*
X1461199D01*
X1462222Y498865*
X1462903Y497927*
X1463244Y496990*
X1463585Y495584*
Y493240*
X1463244Y491834*
X1462903Y490896*
X1462222Y489959*
X1461199Y489490*
X1458813*
X1466653Y493240D02*
X1470744D01*
Y494177*
X1470403Y495115*
X1470063Y495584*
X1469381Y496052*
X1468358*
X1467676Y495584*
X1466994Y494646*
X1466653Y493240*
Y492302*
X1466994Y490896*
X1467676Y489959*
X1468358Y489490*
X1469381*
X1470063Y489959*
X1470744Y490896*
X1477563Y494646D02*
X1477222Y495584D01*
X1476199Y496052*
X1475176*
X1474153Y495584*
X1473813Y494646*
X1474153Y493709*
X1474835Y493240*
X1476540Y492771*
X1477222Y492302*
X1477563Y491365*
Y490896*
X1477222Y489959*
X1476199Y489490*
X1475176*
X1474153Y489959*
X1473813Y490896*
X1484722Y494646D02*
X1484040Y495584D01*
X1483358Y496052*
X1482335*
X1481653Y495584*
X1480972Y494646*
X1480631Y493240*
Y492302*
X1480972Y490896*
X1481653Y489959*
X1482335Y489490*
X1483358*
X1484040Y489959*
X1484722Y490896*
X1487790Y496052D02*
Y489490D01*
Y493240D02*
X1488131Y494646D01*
X1488813Y495584*
X1489494Y496052*
X1490517*
X1493585Y499334D02*
X1493926Y498865D01*
X1494267Y499334*
X1493926Y499802*
X1493585Y499334*
X1493926Y496052D02*
Y489490D01*
X1497335Y496052D02*
Y486209D01*
Y494646D02*
X1498017Y495584D01*
X1498699Y496052*
X1499722*
X1500403Y495584*
X1501085Y494646*
X1501426Y493240*
Y492302*
X1501085Y490896*
X1500403Y489959*
X1499722Y489490*
X1498699*
X1498017Y489959*
X1497335Y490896*
X1505517Y499334D02*
Y491365D01*
X1505858Y489959*
X1506540Y489490*
X1507222*
X1504494Y496052D02*
X1506881D01*
X1510290Y499334D02*
X1510631Y498865D01*
X1510972Y499334*
X1510631Y499802*
X1510290Y499334*
X1510631Y496052D02*
Y489490D01*
X1515744Y496052D02*
X1515063Y495584D01*
X1514381Y494646*
X1514040Y493240*
Y492302*
X1514381Y490896*
X1515063Y489959*
X1515744Y489490*
X1516767*
X1517449Y489959*
X1518131Y490896*
X1518472Y492302*
Y493240*
X1518131Y494646*
X1517449Y495584*
X1516767Y496052*
X1515744*
X1521540D02*
Y489490D01*
Y494177D02*
X1522563Y495584D01*
X1523244Y496052*
X1524267*
X1524949Y495584*
X1525290Y494177*
Y489490*
X1528699Y496052D02*
X1528358Y495584D01*
X1528699Y495115*
X1529040Y495584*
X1528699Y496052*
Y490427D02*
X1528358Y489959D01*
X1528699Y489490*
X1529040Y489959*
X1528699Y490427*
X1415517Y429334D02*
Y419490D01*
Y429334D02*
X1418585D01*
X1419608Y428865*
X1419949Y428396*
X1420290Y427459*
Y426052*
X1419949Y425115*
X1419608Y424646*
X1418585Y424177*
X1415517*
X1427449Y426052D02*
Y419490D01*
Y424646D02*
X1426767Y425584D01*
X1426085Y426052*
X1425063*
X1424381Y425584*
X1423699Y424646*
X1423358Y423240*
Y422302*
X1423699Y420896*
X1424381Y419959*
X1425063Y419490*
X1426085*
X1426767Y419959*
X1427449Y420896*
X1430517Y426052D02*
Y419490D01*
Y423240D02*
X1430858Y424646D01*
X1431540Y425584*
X1432222Y426052*
X1433244*
X1437335Y429334D02*
Y421365D01*
X1437676Y419959*
X1438358Y419490*
X1439040*
X1436313Y426052D02*
X1438699D01*
X1449949Y429334D02*
Y419490D01*
Y429334D02*
X1454722Y419490D01*
Y429334D02*
Y419490D01*
X1459494Y426052D02*
X1458813Y425584D01*
X1458131Y424646*
X1457790Y423240*
Y422302*
X1458131Y420896*
X1458813Y419959*
X1459494Y419490*
X1460517*
X1461199Y419959*
X1461881Y420896*
X1462222Y422302*
Y423240*
X1461881Y424646*
X1461199Y425584*
X1460517Y426052*
X1459494*
X1465631D02*
X1465290Y425584D01*
X1465631Y425115*
X1465972Y425584*
X1465631Y426052*
Y420427D02*
X1465290Y419959D01*
X1465631Y419490*
X1465972Y419959*
X1465631Y420427*
X1715517Y429334D02*
Y419490D01*
Y429334D02*
X1718585D01*
X1719608Y428865*
X1719949Y428396*
X1720290Y427459*
Y426521*
X1719949Y425584*
X1719608Y425115*
X1718585Y424646*
X1715517*
X1717903D02*
X1720290Y419490D01*
X1723358Y423240D02*
X1727449D01*
Y424177*
X1727108Y425115*
X1726767Y425584*
X1726085Y426052*
X1725063*
X1724381Y425584*
X1723699Y424646*
X1723358Y423240*
Y422302*
X1723699Y420896*
X1724381Y419959*
X1725063Y419490*
X1726085*
X1726767Y419959*
X1727449Y420896*
X1730517Y426052D02*
X1732563Y419490D01*
X1734608Y426052D02*
X1732563Y419490D01*
X1737676Y429334D02*
X1738017Y428865D01*
X1738358Y429334*
X1738017Y429802*
X1737676Y429334*
X1738017Y426052D02*
Y419490D01*
X1745176Y424646D02*
X1744835Y425584D01*
X1743813Y426052*
X1742790*
X1741767Y425584*
X1741426Y424646*
X1741767Y423709*
X1742449Y423240*
X1744153Y422771*
X1744835Y422302*
X1745176Y421365*
Y420896*
X1744835Y419959*
X1743813Y419490*
X1742790*
X1741767Y419959*
X1741426Y420896*
X1748244Y429334D02*
X1748585Y428865D01*
X1748926Y429334*
X1748585Y429802*
X1748244Y429334*
X1748585Y426052D02*
Y419490D01*
X1753699Y426052D02*
X1753017Y425584D01*
X1752335Y424646*
X1751994Y423240*
Y422302*
X1752335Y420896*
X1753017Y419959*
X1753699Y419490*
X1754722*
X1755403Y419959*
X1756085Y420896*
X1756426Y422302*
Y423240*
X1756085Y424646*
X1755403Y425584*
X1754722Y426052*
X1753699*
X1759494D02*
Y419490D01*
Y424177D02*
X1760517Y425584D01*
X1761199Y426052*
X1762222*
X1762903Y425584*
X1763244Y424177*
Y419490*
X1766653Y426052D02*
X1766313Y425584D01*
X1766653Y425115*
X1766994Y425584*
X1766653Y426052*
Y420427D02*
X1766313Y419959D01*
X1766653Y419490*
X1766994Y419959*
X1766653Y420427*
X1510517Y417615D02*
Y404490D01*
Y417615D02*
X1516426D01*
X1510517Y411365D02*
X1514153D01*
X1520972Y414490D02*
Y415115D01*
X1521426Y416365*
X1521881Y416990*
X1522790Y417615*
X1524608*
X1525517Y416990*
X1525972Y416365*
X1526426Y415115*
Y413865*
X1525972Y412615*
X1525063Y410740*
X1520517Y404490*
X1526881*
X1533244Y417615D02*
X1531881Y416990D01*
X1531426Y415740*
Y414490*
X1531881Y413240*
X1532790Y412615*
X1534608Y411990*
X1535972Y411365*
X1536881Y410115*
X1537335Y408865*
Y406990*
X1536881Y405740*
X1536426Y405115*
X1535063Y404490*
X1533244*
X1531881Y405115*
X1531426Y405740*
X1530972Y406990*
Y408865*
X1531426Y410115*
X1532335Y411365*
X1533699Y411990*
X1535517Y412615*
X1536426Y413240*
X1536881Y414490*
Y415740*
X1536426Y416990*
X1535063Y417615*
X1533244*
X1542335D02*
X1547335D01*
X1544608Y412615*
X1545972*
X1546881Y411990*
X1547335Y411365*
X1547790Y409490*
Y408240*
X1547335Y406365*
X1546426Y405115*
X1545063Y404490*
X1543699*
X1542335Y405115*
X1541881Y405740*
X1541426Y406990*
X1558244Y417615D02*
X1553699Y404490D01*
X1551881Y417615D02*
X1558244D01*
X1562335Y413240D02*
X1567335Y404490D01*
Y413240D02*
X1562335Y404490D01*
X1587335Y411365D02*
X1586426Y412615D01*
X1585517Y413240*
X1584153*
X1583244Y412615*
X1582335Y411365*
X1581881Y409490*
Y408240*
X1582335Y406365*
X1583244Y405115*
X1584153Y404490*
X1585517*
X1586426Y405115*
X1587335Y406365*
X1593699Y413240D02*
X1592790Y412615D01*
X1591881Y411365*
X1591426Y409490*
Y408240*
X1591881Y406365*
X1592790Y405115*
X1593699Y404490*
X1595063*
X1595972Y405115*
X1596881Y406365*
X1597335Y408240*
Y409490*
X1596881Y411365*
X1595972Y412615*
X1595063Y413240*
X1593699*
X1601426D02*
Y404490D01*
Y410740D02*
X1602790Y412615D01*
X1603699Y413240*
X1605063*
X1605972Y412615*
X1606426Y410740*
Y404490*
X1611881Y417615D02*
Y406990D01*
X1612335Y405115*
X1613244Y404490*
X1614153*
X1610517Y413240D02*
X1613699D01*
X1618244D02*
Y404490D01*
Y409490D02*
X1618699Y411365D01*
X1619608Y412615*
X1620517Y413240*
X1621881*
X1628244D02*
X1627335Y412615D01*
X1626426Y411365*
X1625972Y409490*
Y408240*
X1626426Y406365*
X1627335Y405115*
X1628244Y404490*
X1629608*
X1630517Y405115*
X1631426Y406365*
X1631881Y408240*
Y409490*
X1631426Y411365*
X1630517Y412615*
X1629608Y413240*
X1628244*
X1635972Y417615D02*
Y404490D01*
X1646881Y414490D02*
X1646426Y415740D01*
X1645517Y416990*
X1644608Y417615*
X1642790*
X1641881Y416990*
X1640972Y415740*
X1640517Y414490*
X1640063Y412615*
Y409490*
X1640517Y407615*
X1640972Y406365*
X1641881Y405115*
X1642790Y404490*
X1644608*
X1645517Y405115*
X1646426Y406365*
X1646881Y407615*
X1654608Y417615D02*
X1650972Y404490D01*
X1654608Y417615D02*
X1658244Y404490D01*
X1652335Y408865D02*
X1656881D01*
X1662335Y417615D02*
Y404490D01*
Y417615D02*
X1666426D01*
X1667790Y416990*
X1668244Y416365*
X1668699Y415115*
Y413865*
X1668244Y412615*
X1667790Y411990*
X1666426Y411365*
X1662335*
X1665517D02*
X1668699Y404490D01*
X1672790Y417615D02*
Y404490D01*
Y417615D02*
X1675972D01*
X1677335Y416990*
X1678244Y415740*
X1678699Y414490*
X1679153Y412615*
Y409490*
X1678699Y407615*
X1678244Y406365*
X1677335Y405115*
X1675972Y404490*
X1672790*
X1794790Y415115D02*
X1795699Y415740D01*
X1797063Y417615*
Y404490*
X1801608Y405740D02*
X1801153Y405115D01*
X1801608Y404490*
X1802063Y405115*
X1801608Y405740*
X1807063Y417615D02*
X1812063D01*
X1809335Y412615*
X1810699*
X1811608Y411990*
X1812063Y411365*
X1812517Y409490*
Y408240*
X1812063Y406365*
X1811153Y405115*
X1809790Y404490*
X1808426*
X1807063Y405115*
X1806608Y405740*
X1806153Y406990*
X1548199Y529802D02*
Y516677D01*
X1545017Y529802D02*
X1551381D01*
X1555472D02*
Y516677D01*
Y529802D02*
X1561381D01*
X1555472Y523552D02*
X1559108D01*
X1555472Y516677D02*
X1561381D01*
X1565472Y529802D02*
X1571835Y516677D01*
Y529802D02*
X1565472Y516677D01*
X1579563Y529802D02*
X1575926Y516677D01*
X1579563Y529802D02*
X1583199Y516677D01*
X1577290Y521052D02*
X1581835D01*
X1593653Y527927D02*
X1592744Y529177D01*
X1591381Y529802*
X1589563*
X1588199Y529177*
X1587290Y527927*
Y526677*
X1587744Y525427*
X1588199Y524802*
X1589108Y524177*
X1591835Y522927*
X1592744Y522302*
X1593199Y521677*
X1593653Y520427*
Y518552*
X1592744Y517302*
X1591381Y516677*
X1589563*
X1588199Y517302*
X1587290Y518552*
X1608199Y529802D02*
Y516677D01*
X1612290Y529802D02*
Y516677D01*
Y529802D02*
X1618653Y516677D01*
Y529802D02*
Y516677D01*
X1629108Y527927D02*
X1628199Y529177D01*
X1626835Y529802*
X1625017*
X1623653Y529177*
X1622744Y527927*
Y526677*
X1623199Y525427*
X1623653Y524802*
X1624563Y524177*
X1627290Y522927*
X1628199Y522302*
X1628653Y521677*
X1629108Y520427*
Y518552*
X1628199Y517302*
X1626835Y516677*
X1625017*
X1623653Y517302*
X1622744Y518552*
X1636381Y529802D02*
Y516677D01*
X1633199Y529802D02*
X1639563D01*
X1643653D02*
Y516677D01*
Y529802D02*
X1647744D01*
X1649108Y529177*
X1649563Y528552*
X1650017Y527302*
Y526052*
X1649563Y524802*
X1649108Y524177*
X1647744Y523552*
X1643653*
X1646835D02*
X1650017Y516677D01*
X1654108Y529802D02*
Y520427D01*
X1654563Y518552*
X1655472Y517302*
X1656835Y516677*
X1657744*
X1659108Y517302*
X1660017Y518552*
X1660472Y520427*
Y529802*
X1664563D02*
Y516677D01*
Y529802D02*
X1668199Y516677D01*
X1671835Y529802D02*
X1668199Y516677D01*
X1671835Y529802D02*
Y516677D01*
X1675926Y529802D02*
Y516677D01*
Y529802D02*
X1681835D01*
X1675926Y523552D02*
X1679563D01*
X1675926Y516677D02*
X1681835D01*
X1685926Y529802D02*
Y516677D01*
Y529802D02*
X1692290Y516677D01*
Y529802D02*
Y516677D01*
X1699563Y529802D02*
Y516677D01*
X1696381Y529802D02*
X1702744D01*
X1713199Y527927D02*
X1712290Y529177D01*
X1710926Y529802*
X1709108*
X1707744Y529177*
X1706835Y527927*
Y526677*
X1707290Y525427*
X1707744Y524802*
X1708653Y524177*
X1711381Y522927*
X1712290Y522302*
X1712744Y521677*
X1713199Y520427*
Y518552*
X1712290Y517302*
X1710926Y516677*
X1709108*
X1707744Y517302*
X1706835Y518552*
X1543881Y479802D02*
Y466677D01*
Y479802D02*
X1549790D01*
X1543881Y473552D02*
X1547517D01*
X1554335Y476677D02*
Y477302D01*
X1554790Y478552*
X1555244Y479177*
X1556153Y479802*
X1557972*
X1558881Y479177*
X1559335Y478552*
X1559790Y477302*
Y476052*
X1559335Y474802*
X1558426Y472927*
X1553881Y466677*
X1560244*
X1566608Y479802D02*
X1565244Y479177D01*
X1564790Y477927*
Y476677*
X1565244Y475427*
X1566153Y474802*
X1567972Y474177*
X1569335Y473552*
X1570244Y472302*
X1570699Y471052*
Y469177*
X1570244Y467927*
X1569790Y467302*
X1568426Y466677*
X1566608*
X1565244Y467302*
X1564790Y467927*
X1564335Y469177*
Y471052*
X1564790Y472302*
X1565699Y473552*
X1567063Y474177*
X1568881Y474802*
X1569790Y475427*
X1570244Y476677*
Y477927*
X1569790Y479177*
X1568426Y479802*
X1566608*
X1575699D02*
X1580699D01*
X1577972Y474802*
X1579335*
X1580244Y474177*
X1580699Y473552*
X1581153Y471677*
Y470427*
X1580699Y468552*
X1579790Y467302*
X1578426Y466677*
X1577063*
X1575699Y467302*
X1575244Y467927*
X1574790Y469177*
X1586153Y479802D02*
X1591153D01*
X1588426Y474802*
X1589790*
X1590699Y474177*
X1591153Y473552*
X1591608Y471677*
Y470427*
X1591153Y468552*
X1590244Y467302*
X1588881Y466677*
X1587517*
X1586153Y467302*
X1585699Y467927*
X1585244Y469177*
X1601608Y479802D02*
X1597063D01*
X1596608Y474177*
X1597063Y474802*
X1598426Y475427*
X1599790*
X1601153Y474802*
X1602063Y473552*
X1602517Y471677*
X1602063Y470427*
X1601608Y468552*
X1600699Y467302*
X1599335Y466677*
X1597972*
X1596608Y467302*
X1596153Y467927*
X1595699Y469177*
X1622517Y473552D02*
X1621608Y474802D01*
X1620699Y475427*
X1619335*
X1618426Y474802*
X1617517Y473552*
X1617063Y471677*
Y470427*
X1617517Y468552*
X1618426Y467302*
X1619335Y466677*
X1620699*
X1621608Y467302*
X1622517Y468552*
X1628881Y475427D02*
X1627972Y474802D01*
X1627063Y473552*
X1626608Y471677*
Y470427*
X1627063Y468552*
X1627972Y467302*
X1628881Y466677*
X1630244*
X1631153Y467302*
X1632063Y468552*
X1632517Y470427*
Y471677*
X1632063Y473552*
X1631153Y474802*
X1630244Y475427*
X1628881*
X1636608D02*
Y466677D01*
Y472927D02*
X1637972Y474802D01*
X1638881Y475427*
X1640244*
X1641153Y474802*
X1641608Y472927*
Y466677*
X1647063Y479802D02*
Y469177D01*
X1647517Y467302*
X1648426Y466677*
X1649335*
X1645699Y475427D02*
X1648881D01*
X1653426D02*
Y466677D01*
Y471677D02*
X1653881Y473552D01*
X1654790Y474802*
X1655699Y475427*
X1657063*
X1663426D02*
X1662517Y474802D01*
X1661608Y473552*
X1661153Y471677*
Y470427*
X1661608Y468552*
X1662517Y467302*
X1663426Y466677*
X1664790*
X1665699Y467302*
X1666608Y468552*
X1667063Y470427*
Y471677*
X1666608Y473552*
X1665699Y474802*
X1664790Y475427*
X1663426*
X1671153Y479802D02*
Y466677D01*
X1682063Y476677D02*
X1681608Y477927D01*
X1680699Y479177*
X1679790Y479802*
X1677972*
X1677063Y479177*
X1676153Y477927*
X1675699Y476677*
X1675244Y474802*
Y471677*
X1675699Y469802*
X1676153Y468552*
X1677063Y467302*
X1677972Y466677*
X1679790*
X1680699Y467302*
X1681608Y468552*
X1682063Y469802*
X1689790Y479802D02*
X1686153Y466677D01*
X1689790Y479802D02*
X1693426Y466677D01*
X1687517Y471052D02*
X1692063D01*
X1697517Y479802D02*
Y466677D01*
Y479802D02*
X1701608D01*
X1702972Y479177*
X1703426Y478552*
X1703881Y477302*
Y476052*
X1703426Y474802*
X1702972Y474177*
X1701608Y473552*
X1697517*
X1700699D02*
X1703881Y466677D01*
X1707972Y479802D02*
Y466677D01*
Y479802D02*
X1711153D01*
X1712517Y479177*
X1713426Y477927*
X1713881Y476677*
X1714335Y474802*
Y471677*
X1713881Y469802*
X1713426Y468552*
X1712517Y467302*
X1711153Y466677*
X1707972*
X1133244Y554334D02*
X1130517Y544490D01*
X1133244Y554334D02*
X1135972Y544490D01*
X1131540Y547771D02*
X1134949D01*
X1139040Y551052D02*
Y544490D01*
Y548240D02*
X1139381Y549646D01*
X1140063Y550584*
X1140744Y551052*
X1141767*
X1145858Y554334D02*
Y546365D01*
X1146199Y544959*
X1146881Y544490*
X1147563*
X1144835Y551052D02*
X1147222D01*
X1150631D02*
X1151994Y544490D01*
X1153358Y551052D02*
X1151994Y544490D01*
X1153358Y551052D02*
X1154722Y544490D01*
X1156085Y551052D02*
X1154722Y544490D01*
X1160858Y551052D02*
X1160176Y550584D01*
X1159494Y549646*
X1159153Y548240*
Y547302*
X1159494Y545896*
X1160176Y544959*
X1160858Y544490*
X1161881*
X1162563Y544959*
X1163244Y545896*
X1163585Y547302*
Y548240*
X1163244Y549646*
X1162563Y550584*
X1161881Y551052*
X1160858*
X1166653D02*
Y544490D01*
Y548240D02*
X1166994Y549646D01*
X1167676Y550584*
X1168358Y551052*
X1169381*
X1172449Y554334D02*
Y544490D01*
X1175858Y551052D02*
X1172449Y546365D01*
X1173813Y548240D02*
X1176199Y544490D01*
X1187108Y554334D02*
Y544490D01*
Y554334D02*
X1189494D01*
X1190517Y553865*
X1191199Y552927*
X1191540Y551990*
X1191881Y550584*
Y548240*
X1191540Y546834*
X1191199Y545896*
X1190517Y544959*
X1189494Y544490*
X1187108*
X1194949Y548240D02*
X1199040D01*
Y549177*
X1198699Y550115*
X1198358Y550584*
X1197676Y551052*
X1196653*
X1195972Y550584*
X1195290Y549646*
X1194949Y548240*
Y547302*
X1195290Y545896*
X1195972Y544959*
X1196653Y544490*
X1197676*
X1198358Y544959*
X1199040Y545896*
X1205858Y549646D02*
X1205517Y550584D01*
X1204494Y551052*
X1203472*
X1202449Y550584*
X1202108Y549646*
X1202449Y548709*
X1203131Y548240*
X1204835Y547771*
X1205517Y547302*
X1205858Y546365*
Y545896*
X1205517Y544959*
X1204494Y544490*
X1203472*
X1202449Y544959*
X1202108Y545896*
X1208926Y554334D02*
X1209267Y553865D01*
X1209608Y554334*
X1209267Y554802*
X1208926Y554334*
X1209267Y551052D02*
Y544490D01*
X1216767Y551052D02*
Y543552D01*
X1216426Y542146*
X1216085Y541677*
X1215403Y541209*
X1214381*
X1213699Y541677*
X1216767Y549646D02*
X1216085Y550584D01*
X1215403Y551052*
X1214381*
X1213699Y550584*
X1213017Y549646*
X1212676Y548240*
Y547302*
X1213017Y545896*
X1213699Y544959*
X1214381Y544490*
X1215403*
X1216085Y544959*
X1216767Y545896*
X1219835Y551052D02*
Y544490D01*
Y549177D02*
X1220858Y550584D01*
X1221540Y551052*
X1222563*
X1223244Y550584*
X1223585Y549177*
Y544490*
X1226653Y548240D02*
X1230744D01*
Y549177*
X1230403Y550115*
X1230063Y550584*
X1229381Y551052*
X1228358*
X1227676Y550584*
X1226994Y549646*
X1226653Y548240*
Y547302*
X1226994Y545896*
X1227676Y544959*
X1228358Y544490*
X1229381*
X1230063Y544959*
X1230744Y545896*
X1237903Y554334D02*
Y544490D01*
Y549646D02*
X1237222Y550584D01*
X1236540Y551052*
X1235517*
X1234835Y550584*
X1234153Y549646*
X1233813Y548240*
Y547302*
X1234153Y545896*
X1234835Y544959*
X1235517Y544490*
X1236540*
X1237222Y544959*
X1237903Y545896*
X1248813Y554334D02*
Y544490D01*
Y554334D02*
X1251881D01*
X1252903Y553865*
X1253244Y553396*
X1253585Y552459*
Y551521*
X1253244Y550584*
X1252903Y550115*
X1251881Y549646*
X1248813D02*
X1251881D01*
X1252903Y549177*
X1253244Y548709*
X1253585Y547771*
Y546365*
X1253244Y545427*
X1252903Y544959*
X1251881Y544490*
X1248813*
X1256994Y551052D02*
X1259040Y544490D01*
X1261085Y551052D02*
X1259040Y544490D01*
X1258358Y542615*
X1257676Y541677*
X1256994Y541209*
X1256653*
X1264494Y551052D02*
X1264153Y550584D01*
X1264494Y550115*
X1264835Y550584*
X1264494Y551052*
Y545427D02*
X1264153Y544959D01*
X1264494Y544490*
X1264835Y544959*
X1264494Y545427*
X1133926Y389334D02*
Y381834D01*
X1133585Y380427*
X1133244Y379959*
X1132563Y379490*
X1131881*
X1131199Y379959*
X1130858Y380427*
X1130517Y381834*
Y382771*
X1138699Y386052D02*
X1138017Y385584D01*
X1137335Y384646*
X1136994Y383240*
Y382302*
X1137335Y380896*
X1138017Y379959*
X1138699Y379490*
X1139722*
X1140403Y379959*
X1141085Y380896*
X1141426Y382302*
Y383240*
X1141085Y384646*
X1140403Y385584*
X1139722Y386052*
X1138699*
X1144494Y389334D02*
Y379490D01*
Y384646D02*
X1145176Y385584D01*
X1145858Y386052*
X1146881*
X1147563Y385584*
X1148244Y384646*
X1148585Y383240*
Y382302*
X1148244Y380896*
X1147563Y379959*
X1146881Y379490*
X1145858*
X1145176Y379959*
X1144494Y380896*
X1159494Y389334D02*
Y379490D01*
Y389334D02*
X1164267Y379490D01*
Y389334D02*
Y379490D01*
X1169040Y386052D02*
X1168358Y385584D01*
X1167676Y384646*
X1167335Y383240*
Y382302*
X1167676Y380896*
X1168358Y379959*
X1169040Y379490*
X1170063*
X1170744Y379959*
X1171426Y380896*
X1171767Y382302*
Y383240*
X1171426Y384646*
X1170744Y385584*
X1170063Y386052*
X1169040*
X1175176D02*
X1174835Y385584D01*
X1175176Y385115*
X1175517Y385584*
X1175176Y386052*
Y380427D02*
X1174835Y379959D01*
X1175176Y379490*
X1175517Y379959*
X1175176Y380427*
X1202744Y384802D02*
Y371677D01*
X1199563Y384802D02*
X1205926D01*
X1210017D02*
Y371677D01*
Y384802D02*
X1215926D01*
X1210017Y378552D02*
X1213653D01*
X1210017Y371677D02*
X1215926D01*
X1220017Y384802D02*
X1226381Y371677D01*
Y384802D02*
X1220017Y371677D01*
X1230926Y372927D02*
X1230472Y372302D01*
X1230926Y371677*
X1231381Y372302*
X1230926Y372927*
X1235472Y382302D02*
X1236381Y382927D01*
X1237744Y384802*
Y371677*
X1242744Y384802D02*
X1247744D01*
X1245017Y379802*
X1246381*
X1247290Y379177*
X1247744Y378552*
X1248199Y376677*
Y375427*
X1247744Y373552*
X1246835Y372302*
X1245472Y371677*
X1244108*
X1242744Y372302*
X1242290Y372927*
X1241835Y374177*
X1258653Y384802D02*
X1254108Y371677D01*
X1252290Y384802D02*
X1258653D01*
X1290517Y389334D02*
Y379490D01*
Y389334D02*
X1292903D01*
X1293926Y388865*
X1294608Y387927*
X1294949Y386990*
X1295290Y385584*
Y383240*
X1294949Y381834*
X1294608Y380896*
X1293926Y379959*
X1292903Y379490*
X1290517*
X1302449Y386052D02*
Y379490D01*
Y384646D02*
X1301767Y385584D01*
X1301085Y386052*
X1300063*
X1299381Y385584*
X1298699Y384646*
X1298358Y383240*
Y382302*
X1298699Y380896*
X1299381Y379959*
X1300063Y379490*
X1301085*
X1301767Y379959*
X1302449Y380896*
X1306540Y389334D02*
Y381365D01*
X1306881Y379959*
X1307563Y379490*
X1308244*
X1305517Y386052D02*
X1307903D01*
X1311313Y383240D02*
X1315403D01*
Y384177*
X1315063Y385115*
X1314722Y385584*
X1314040Y386052*
X1313017*
X1312335Y385584*
X1311653Y384646*
X1311313Y383240*
Y382302*
X1311653Y380896*
X1312335Y379959*
X1313017Y379490*
X1314040*
X1314722Y379959*
X1315403Y380896*
X1318813Y386052D02*
X1318472Y385584D01*
X1318813Y385115*
X1319153Y385584*
X1318813Y386052*
Y380427D02*
X1318472Y379959D01*
X1318813Y379490*
X1319153Y379959*
X1318813Y380427*
X1326153Y382302D02*
X1327063Y382927D01*
X1328426Y384802*
Y371677*
X1335244Y384802D02*
X1333881Y384177D01*
X1332972Y382302*
X1332517Y379177*
Y377302*
X1332972Y374177*
X1333881Y372302*
X1335244Y371677*
X1336153*
X1337517Y372302*
X1338426Y374177*
X1338881Y377302*
Y379177*
X1338426Y382302*
X1337517Y384177*
X1336153Y384802*
X1335244*
X1351153Y387302D02*
X1342972Y367302D01*
X1357972Y384802D02*
X1356608Y384177D01*
X1355699Y382302*
X1355244Y379177*
Y377302*
X1355699Y374177*
X1356608Y372302*
X1357972Y371677*
X1358881*
X1360244Y372302*
X1361153Y374177*
X1361608Y377302*
Y379177*
X1361153Y382302*
X1360244Y384177*
X1358881Y384802*
X1357972*
X1371608D02*
X1367063D01*
X1366608Y379177*
X1367063Y379802*
X1368426Y380427*
X1369790*
X1371153Y379802*
X1372063Y378552*
X1372517Y376677*
X1372063Y375427*
X1371608Y373552*
X1370699Y372302*
X1369335Y371677*
X1367972*
X1366608Y372302*
X1366153Y372927*
X1365699Y374177*
X1384790Y387302D02*
X1376608Y367302D01*
X1388881Y382302D02*
X1389790Y382927D01*
X1391153Y384802*
Y371677*
X1401153Y384802D02*
X1396608D01*
X1396153Y379177*
X1396608Y379802*
X1397972Y380427*
X1399335*
X1400699Y379802*
X1401608Y378552*
X1402063Y376677*
X1401608Y375427*
X1401153Y373552*
X1400244Y372302*
X1398881Y371677*
X1397517*
X1396153Y372302*
X1395699Y372927*
X1395244Y374177*
X1638205Y382078D02*
X1637523Y383016D01*
X1636500Y383484*
X1635136*
X1634114Y383016*
X1633432Y382078*
Y381141*
X1633773Y380203*
X1634114Y379734*
X1634795Y379266*
X1636841Y378328*
X1637523Y377859*
X1637864Y377391*
X1638205Y376453*
Y375047*
X1637523Y374109*
X1636500Y373641*
X1635136*
X1634114Y374109*
X1633432Y375047*
X1641273Y377391D02*
X1645364D01*
Y378328*
X1645023Y379266*
X1644682Y379734*
X1644000Y380203*
X1642977*
X1642295Y379734*
X1641614Y378797*
X1641273Y377391*
Y376453*
X1641614Y375047*
X1642295Y374109*
X1642977Y373641*
X1644000*
X1644682Y374109*
X1645364Y375047*
X1652523Y378797D02*
X1651841Y379734D01*
X1651159Y380203*
X1650136*
X1649455Y379734*
X1648773Y378797*
X1648432Y377391*
Y376453*
X1648773Y375047*
X1649455Y374109*
X1650136Y373641*
X1651159*
X1651841Y374109*
X1652523Y375047*
X1657295Y380203D02*
X1656614Y379734D01*
X1655932Y378797*
X1655591Y377391*
Y376453*
X1655932Y375047*
X1656614Y374109*
X1657295Y373641*
X1658318*
X1659000Y374109*
X1659682Y375047*
X1660023Y376453*
Y377391*
X1659682Y378797*
X1659000Y379734*
X1658318Y380203*
X1657295*
X1663091D02*
Y373641D01*
Y378328D02*
X1664114Y379734D01*
X1664795Y380203*
X1665818*
X1666500Y379734*
X1666841Y378328*
Y373641*
X1674000Y383484D02*
Y373641D01*
Y378797D02*
X1673318Y379734D01*
X1672636Y380203*
X1671614*
X1670932Y379734*
X1670250Y378797*
X1669909Y377391*
Y376453*
X1670250Y375047*
X1670932Y374109*
X1671614Y373641*
X1672636*
X1673318Y374109*
X1674000Y375047*
X1681159Y380203D02*
Y373641D01*
Y378797D02*
X1680477Y379734D01*
X1679795Y380203*
X1678773*
X1678091Y379734*
X1677409Y378797*
X1677068Y377391*
Y376453*
X1677409Y375047*
X1678091Y374109*
X1678773Y373641*
X1679795*
X1680477Y374109*
X1681159Y375047*
X1684227Y380203D02*
Y373641D01*
Y377391D02*
X1684568Y378797D01*
X1685250Y379734*
X1685932Y380203*
X1686955*
X1690364D02*
X1692409Y373641D01*
X1694455Y380203D02*
X1692409Y373641D01*
X1691727Y371766*
X1691045Y370828*
X1690364Y370359*
X1690023*
X1710136Y382078D02*
X1709455Y383016D01*
X1708432Y383484*
X1707068*
X1706045Y383016*
X1705364Y382078*
Y381141*
X1705705Y380203*
X1706045Y379734*
X1706727Y379266*
X1708773Y378328*
X1709455Y377859*
X1709795Y377391*
X1710136Y376453*
Y375047*
X1709455Y374109*
X1708432Y373641*
X1707068*
X1706045Y374109*
X1705364Y375047*
X1713205Y383484D02*
X1713545Y383016D01*
X1713886Y383484*
X1713545Y383953*
X1713205Y383484*
X1713545Y380203D02*
Y373641D01*
X1721045Y383484D02*
Y373641D01*
Y378797D02*
X1720364Y379734D01*
X1719682Y380203*
X1718659*
X1717977Y379734*
X1717295Y378797*
X1716955Y377391*
Y376453*
X1717295Y375047*
X1717977Y374109*
X1718659Y373641*
X1719682*
X1720364Y374109*
X1721045Y375047*
X1724114Y377391D02*
X1728205D01*
Y378328*
X1727864Y379266*
X1727523Y379734*
X1726841Y380203*
X1725818*
X1725136Y379734*
X1724455Y378797*
X1724114Y377391*
Y376453*
X1724455Y375047*
X1725136Y374109*
X1725818Y373641*
X1726841*
X1727523Y374109*
X1728205Y375047*
X1152017Y521534D02*
X1153722Y511690D01*
X1155426Y521534D02*
X1153722Y511690D01*
X1155426Y521534D02*
X1157131Y511690D01*
X1158835Y521534D02*
X1157131Y511690D01*
X1161903Y521534D02*
X1162244Y521065D01*
X1162585Y521534*
X1162244Y522002*
X1161903Y521534*
X1162244Y518252D02*
Y511690D01*
X1165653Y521534D02*
Y511690D01*
X1168722Y521534D02*
Y511690D01*
X1173494Y518252D02*
X1172813Y517784D01*
X1172131Y516846*
X1171790Y515440*
Y514502*
X1172131Y513096*
X1172813Y512159*
X1173494Y511690*
X1174517*
X1175199Y512159*
X1175881Y513096*
X1176222Y514502*
Y515440*
X1175881Y516846*
X1175199Y517784*
X1174517Y518252*
X1173494*
X1179290D02*
X1180653Y511690D01*
X1182017Y518252D02*
X1180653Y511690D01*
X1182017Y518252D02*
X1183381Y511690D01*
X1184744Y518252D02*
X1183381Y511690D01*
X1200426Y520127D02*
X1199744Y521065D01*
X1198722Y521534*
X1197358*
X1196335Y521065*
X1195653Y520127*
Y519190*
X1195994Y518252*
X1196335Y517784*
X1197017Y517315*
X1199063Y516377*
X1199744Y515909*
X1200085Y515440*
X1200426Y514502*
Y513096*
X1199744Y512159*
X1198722Y511690*
X1197358*
X1196335Y512159*
X1195653Y513096*
X1203494Y518252D02*
Y508409D01*
Y516846D02*
X1204176Y517784D01*
X1204858Y518252*
X1205881*
X1206563Y517784*
X1207244Y516846*
X1207585Y515440*
Y514502*
X1207244Y513096*
X1206563Y512159*
X1205881Y511690*
X1204858*
X1204176Y512159*
X1203494Y513096*
X1210653Y518252D02*
Y511690D01*
Y515440D02*
X1210994Y516846D01*
X1211676Y517784*
X1212358Y518252*
X1213381*
X1216449Y521534D02*
X1216790Y521065D01*
X1217131Y521534*
X1216790Y522002*
X1216449Y521534*
X1216790Y518252D02*
Y511690D01*
X1220199Y518252D02*
Y511690D01*
Y516377D02*
X1221222Y517784D01*
X1221903Y518252*
X1222926*
X1223608Y517784*
X1223949Y516377*
Y511690*
X1231108Y518252D02*
Y510752D01*
X1230767Y509346*
X1230426Y508877*
X1229744Y508409*
X1228722*
X1228040Y508877*
X1231108Y516846D02*
X1230426Y517784D01*
X1229744Y518252*
X1228722*
X1228040Y517784*
X1227358Y516846*
X1227017Y515440*
Y514502*
X1227358Y513096*
X1228040Y512159*
X1228722Y511690*
X1229744*
X1230426Y512159*
X1231108Y513096*
X1244403Y521534D02*
Y511690D01*
X1242017Y521534D02*
X1246790D01*
X1249858Y515440D02*
X1253949D01*
Y516377*
X1253608Y517315*
X1253267Y517784*
X1252585Y518252*
X1251563*
X1250881Y517784*
X1250199Y516846*
X1249858Y515440*
Y514502*
X1250199Y513096*
X1250881Y512159*
X1251563Y511690*
X1252585*
X1253267Y512159*
X1253949Y513096*
X1261108Y516846D02*
X1260426Y517784D01*
X1259744Y518252*
X1258722*
X1258040Y517784*
X1257358Y516846*
X1257017Y515440*
Y514502*
X1257358Y513096*
X1258040Y512159*
X1258722Y511690*
X1259744*
X1260426Y512159*
X1261108Y513096*
X1264176Y521534D02*
Y511690D01*
Y516377D02*
X1265199Y517784D01*
X1265881Y518252*
X1266903*
X1267585Y517784*
X1267926Y516377*
Y511690*
X1270994Y518252D02*
Y511690D01*
Y516377D02*
X1272017Y517784D01*
X1272699Y518252*
X1273722*
X1274403Y517784*
X1274744Y516377*
Y511690*
X1277813Y521534D02*
X1278153Y521065D01*
X1278494Y521534*
X1278153Y522002*
X1277813Y521534*
X1278153Y518252D02*
Y511690D01*
X1285653Y516846D02*
X1284972Y517784D01*
X1284290Y518252*
X1283267*
X1282585Y517784*
X1281903Y516846*
X1281563Y515440*
Y514502*
X1281903Y513096*
X1282585Y512159*
X1283267Y511690*
X1284290*
X1284972Y512159*
X1285653Y513096*
X1292813Y518252D02*
Y511690D01*
Y516846D02*
X1292131Y517784D01*
X1291449Y518252*
X1290426*
X1289744Y517784*
X1289063Y516846*
X1288722Y515440*
Y514502*
X1289063Y513096*
X1289744Y512159*
X1290426Y511690*
X1291449*
X1292131Y512159*
X1292813Y513096*
X1295881Y521534D02*
Y511690D01*
X1311563Y520127D02*
X1310881Y521065D01*
X1309858Y521534*
X1308494*
X1307472Y521065*
X1306790Y520127*
Y519190*
X1307131Y518252*
X1307472Y517784*
X1308153Y517315*
X1310199Y516377*
X1310881Y515909*
X1311222Y515440*
X1311563Y514502*
Y513096*
X1310881Y512159*
X1309858Y511690*
X1308494*
X1307472Y512159*
X1306790Y513096*
X1314631Y515440D02*
X1318722D01*
Y516377*
X1318381Y517315*
X1318040Y517784*
X1317358Y518252*
X1316335*
X1315653Y517784*
X1314972Y516846*
X1314631Y515440*
Y514502*
X1314972Y513096*
X1315653Y512159*
X1316335Y511690*
X1317358*
X1318040Y512159*
X1318722Y513096*
X1321790Y518252D02*
Y511690D01*
Y515440D02*
X1322131Y516846D01*
X1322813Y517784*
X1323494Y518252*
X1324517*
X1327585D02*
X1329631Y511690D01*
X1331676Y518252D02*
X1329631Y511690D01*
X1334744Y521534D02*
X1335085Y521065D01*
X1335426Y521534*
X1335085Y522002*
X1334744Y521534*
X1335085Y518252D02*
Y511690D01*
X1342585Y516846D02*
X1341903Y517784D01*
X1341222Y518252*
X1340199*
X1339517Y517784*
X1338835Y516846*
X1338494Y515440*
Y514502*
X1338835Y513096*
X1339517Y512159*
X1340199Y511690*
X1341222*
X1341903Y512159*
X1342585Y513096*
X1345653Y515440D02*
X1349744D01*
Y516377*
X1349403Y517315*
X1349063Y517784*
X1348381Y518252*
X1347358*
X1346676Y517784*
X1345994Y516846*
X1345653Y515440*
Y514502*
X1345994Y513096*
X1346676Y512159*
X1347358Y511690*
X1348381*
X1349063Y512159*
X1349744Y513096*
X1356563Y516846D02*
X1356222Y517784D01*
X1355199Y518252*
X1354176*
X1353153Y517784*
X1352813Y516846*
X1353153Y515909*
X1353835Y515440*
X1355540Y514971*
X1356222Y514502*
X1356563Y513565*
Y513096*
X1356222Y512159*
X1355199Y511690*
X1354176*
X1353153Y512159*
X1352813Y513096*
X1372585Y519190D02*
X1372244Y520127D01*
X1371563Y521065*
X1370881Y521534*
X1369517*
X1368835Y521065*
X1368153Y520127*
X1367813Y519190*
X1367472Y517784*
Y515440*
X1367813Y514034*
X1368153Y513096*
X1368835Y512159*
X1369517Y511690*
X1370881*
X1371563Y512159*
X1372244Y513096*
X1372585Y514034*
X1377358Y518252D02*
X1376676Y517784D01*
X1375994Y516846*
X1375653Y515440*
Y514502*
X1375994Y513096*
X1376676Y512159*
X1377358Y511690*
X1378381*
X1379063Y512159*
X1379744Y513096*
X1380085Y514502*
Y515440*
X1379744Y516846*
X1379063Y517784*
X1378381Y518252*
X1377358*
X1383153D02*
Y511690D01*
Y515440D02*
X1383494Y516846D01*
X1384176Y517784*
X1384858Y518252*
X1385881*
X1388949D02*
Y508409D01*
Y516846D02*
X1389631Y517784D01*
X1390313Y518252*
X1391335*
X1392017Y517784*
X1392699Y516846*
X1393040Y515440*
Y514502*
X1392699Y513096*
X1392017Y512159*
X1391335Y511690*
X1390313*
X1389631Y512159*
X1388949Y513096*
X1396449Y512627D02*
X1396108Y512159D01*
X1396449Y511690*
X1396790Y512159*
X1396449Y512627*
X1218575Y496307D02*
X1219256Y496776D01*
X1220279Y498182*
Y488339*
X1223347Y496307D02*
X1224029Y496776D01*
X1225052Y498182*
Y488339*
X1229825Y498182D02*
X1228802Y497714D01*
X1228461Y496776*
Y495839*
X1228802Y494901*
X1229484Y494432*
X1230847Y493964*
X1231870Y493495*
X1232552Y492557*
X1232893Y491620*
Y490214*
X1232552Y489276*
X1232211Y488807*
X1231188Y488339*
X1229825*
X1228802Y488807*
X1228461Y489276*
X1228120Y490214*
Y491620*
X1228461Y492557*
X1229143Y493495*
X1230165Y493964*
X1231529Y494432*
X1232211Y494901*
X1232552Y495839*
Y496776*
X1232211Y497714*
X1231188Y498182*
X1229825*
X1240393D02*
X1236984D01*
X1236643Y493964*
X1236984Y494432*
X1238006Y494901*
X1239029*
X1240052Y494432*
X1240734Y493495*
X1241075Y492089*
X1240734Y491151*
X1240393Y489745*
X1239711Y488807*
X1238688Y488339*
X1237665*
X1236643Y488807*
X1236302Y489276*
X1235961Y490214*
X1257097Y495839D02*
X1256756Y496776D01*
X1256075Y497714*
X1255393Y498182*
X1254029*
X1253347Y497714*
X1252665Y496776*
X1252325Y495839*
X1251984Y494432*
Y492089*
X1252325Y490682*
X1252665Y489745*
X1253347Y488807*
X1254029Y488339*
X1255393*
X1256075Y488807*
X1256756Y489745*
X1257097Y490682*
X1260165Y492089D02*
X1264256D01*
Y493026*
X1263915Y493964*
X1263575Y494432*
X1262893Y494901*
X1261870*
X1261188Y494432*
X1260506Y493495*
X1260165Y492089*
Y491151*
X1260506Y489745*
X1261188Y488807*
X1261870Y488339*
X1262893*
X1263575Y488807*
X1264256Y489745*
X1267325Y494901D02*
Y488339D01*
Y493026D02*
X1268347Y494432D01*
X1269029Y494901*
X1270052*
X1270734Y494432*
X1271075Y493026*
Y488339*
X1275165Y498182D02*
Y490214D01*
X1275506Y488807*
X1276188Y488339*
X1276870*
X1274143Y494901D02*
X1276529D01*
X1279938D02*
Y488339D01*
Y492089D02*
X1280279Y493495D01*
X1280961Y494432*
X1281643Y494901*
X1282665*
X1285734Y492089D02*
X1289825D01*
Y493026*
X1289484Y493964*
X1289143Y494432*
X1288461Y494901*
X1287438*
X1286756Y494432*
X1286075Y493495*
X1285734Y492089*
Y491151*
X1286075Y489745*
X1286756Y488807*
X1287438Y488339*
X1288461*
X1289143Y488807*
X1289825Y489745*
X1305506Y496776D02*
X1304825Y497714D01*
X1303802Y498182*
X1302438*
X1301415Y497714*
X1300734Y496776*
Y495839*
X1301075Y494901*
X1301415Y494432*
X1302097Y493964*
X1304143Y493026*
X1304825Y492557*
X1305165Y492089*
X1305506Y491151*
Y489745*
X1304825Y488807*
X1303802Y488339*
X1302438*
X1301415Y488807*
X1300734Y489745*
X1309597Y498182D02*
Y490214D01*
X1309938Y488807*
X1310620Y488339*
X1311302*
X1308575Y494901D02*
X1310961D01*
X1314370D02*
Y488339D01*
Y492089D02*
X1314711Y493495D01*
X1315393Y494432*
X1316075Y494901*
X1317097*
X1320165Y492089D02*
X1324256D01*
Y493026*
X1323915Y493964*
X1323575Y494432*
X1322893Y494901*
X1321870*
X1321188Y494432*
X1320506Y493495*
X1320165Y492089*
Y491151*
X1320506Y489745*
X1321188Y488807*
X1321870Y488339*
X1322893*
X1323575Y488807*
X1324256Y489745*
X1327325Y492089D02*
X1331415D01*
Y493026*
X1331075Y493964*
X1330734Y494432*
X1330052Y494901*
X1329029*
X1328347Y494432*
X1327665Y493495*
X1327325Y492089*
Y491151*
X1327665Y489745*
X1328347Y488807*
X1329029Y488339*
X1330052*
X1330734Y488807*
X1331415Y489745*
X1335506Y498182D02*
Y490214D01*
X1335847Y488807*
X1336529Y488339*
X1337211*
X1334484Y494901D02*
X1336870D01*
X1208575Y475682D02*
Y465839D01*
Y475682D02*
X1211302Y465839D01*
X1214029Y475682D02*
X1211302Y465839D01*
X1214029Y475682D02*
Y465839D01*
X1217097Y475682D02*
X1217438Y475214D01*
X1217779Y475682*
X1217438Y476151*
X1217097Y475682*
X1217438Y472401D02*
Y465839D01*
X1224938Y475682D02*
Y465839D01*
Y470995D02*
X1224256Y471932D01*
X1223575Y472401*
X1222552*
X1221870Y471932*
X1221188Y470995*
X1220847Y469589*
Y468651*
X1221188Y467245*
X1221870Y466307*
X1222552Y465839*
X1223575*
X1224256Y466307*
X1224938Y467245*
X1232097Y475682D02*
Y465839D01*
Y470995D02*
X1231415Y471932D01*
X1230734Y472401*
X1229711*
X1229029Y471932*
X1228347Y470995*
X1228006Y469589*
Y468651*
X1228347Y467245*
X1229029Y466307*
X1229711Y465839*
X1230734*
X1231415Y466307*
X1232097Y467245*
X1235165Y475682D02*
Y465839D01*
X1238234Y469589D02*
X1242325D01*
Y470526*
X1241984Y471464*
X1241643Y471932*
X1240961Y472401*
X1239938*
X1239256Y471932*
X1238575Y470995*
X1238234Y469589*
Y468651*
X1238575Y467245*
X1239256Y466307*
X1239938Y465839*
X1240961*
X1241643Y466307*
X1242325Y467245*
X1245393Y475682D02*
Y465839D01*
Y470995D02*
X1246075Y471932D01*
X1246756Y472401*
X1247779*
X1248461Y471932*
X1249143Y470995*
X1249484Y469589*
Y468651*
X1249143Y467245*
X1248461Y466307*
X1247779Y465839*
X1246756*
X1246075Y466307*
X1245393Y467245*
X1254256Y472401D02*
X1253575Y471932D01*
X1252893Y470995*
X1252552Y469589*
Y468651*
X1252893Y467245*
X1253575Y466307*
X1254256Y465839*
X1255279*
X1255961Y466307*
X1256643Y467245*
X1256984Y468651*
Y469589*
X1256643Y470995*
X1255961Y471932*
X1255279Y472401*
X1254256*
X1260052D02*
Y465839D01*
Y469589D02*
X1260393Y470995D01*
X1261075Y471932*
X1261756Y472401*
X1262779*
X1267552D02*
X1266870Y471932D01*
X1266188Y470995*
X1265847Y469589*
Y468651*
X1266188Y467245*
X1266870Y466307*
X1267552Y465839*
X1268575*
X1269256Y466307*
X1269938Y467245*
X1270279Y468651*
Y469589*
X1269938Y470995*
X1269256Y471932*
X1268575Y472401*
X1267552*
X1274029Y466307D02*
X1273688Y465839D01*
X1273347Y466307*
X1273688Y466776*
X1274029Y466307*
Y465370*
X1273688Y464432*
X1273347Y463964*
X1284938Y475682D02*
Y465839D01*
Y475682D02*
X1287665Y465839D01*
X1290393Y475682D02*
X1287665Y465839D01*
X1290393Y475682D02*
Y465839D01*
X1296188Y475682D02*
X1293461Y465839D01*
X1296188Y475682D02*
X1298915Y465839D01*
X1294484Y469120D02*
X1297893D01*
X1311870Y475682D02*
X1310847Y475214D01*
X1310165Y473807*
X1309825Y471464*
Y470057*
X1310165Y467714*
X1310847Y466307*
X1311870Y465839*
X1312552*
X1313575Y466307*
X1314256Y467714*
X1314597Y470057*
Y471464*
X1314256Y473807*
X1313575Y475214*
X1312552Y475682*
X1311870*
X1318006Y473339D02*
Y473807D01*
X1318347Y474745*
X1318688Y475214*
X1319370Y475682*
X1320734*
X1321415Y475214*
X1321756Y474745*
X1322097Y473807*
Y472870*
X1321756Y471932*
X1321075Y470526*
X1317665Y465839*
X1322438*
X1326188Y475682D02*
X1329938D01*
X1327893Y471932*
X1328915*
X1329597Y471464*
X1329938Y470995*
X1330279Y469589*
Y468651*
X1329938Y467245*
X1329256Y466307*
X1328234Y465839*
X1327211*
X1326188Y466307*
X1325847Y466776*
X1325506Y467714*
X1336756Y475682D02*
X1333347Y469120D01*
X1338461*
X1336756Y475682D02*
Y465839D01*
X1345620Y474276D02*
X1345279Y475214D01*
X1344256Y475682*
X1343575*
X1342552Y475214*
X1341870Y473807*
X1341529Y471464*
Y469120*
X1341870Y467245*
X1342552Y466307*
X1343575Y465839*
X1343915*
X1344938Y466307*
X1345620Y467245*
X1345961Y468651*
Y469120*
X1345620Y470526*
X1344938Y471464*
X1343915Y471932*
X1343575*
X1342552Y471464*
X1341870Y470526*
X1341529Y469120*
X1289217Y448652D02*
X1290581Y442090D01*
X1291944Y448652D02*
X1290581Y442090D01*
X1291944Y448652D02*
X1293308Y442090D01*
X1294672Y448652D02*
X1293308Y442090D01*
X1297740Y448652D02*
X1299103Y442090D01*
X1300467Y448652D02*
X1299103Y442090D01*
X1300467Y448652D02*
X1301831Y442090D01*
X1303194Y448652D02*
X1301831Y442090D01*
X1306263Y448652D02*
X1307626Y442090D01*
X1308990Y448652D02*
X1307626Y442090D01*
X1308990Y448652D02*
X1310353Y442090D01*
X1311717Y448652D02*
X1310353Y442090D01*
X1315126Y443027D02*
X1314785Y442559D01*
X1315126Y442090*
X1315467Y442559*
X1315126Y443027*
X1318535Y448652D02*
X1319899Y442090D01*
X1321263Y448652D02*
X1319899Y442090D01*
X1321263Y448652D02*
X1322626Y442090D01*
X1323990Y448652D02*
X1322626Y442090D01*
X1330808Y447246D02*
X1330467Y448184D01*
X1329444Y448652*
X1328422*
X1327399Y448184*
X1327058Y447246*
X1327399Y446309*
X1328081Y445840*
X1329785Y445371*
X1330467Y444902*
X1330808Y443965*
Y443496*
X1330467Y442559*
X1329444Y442090*
X1328422*
X1327399Y442559*
X1327058Y443496*
X1334899Y451934D02*
Y443965D01*
X1335240Y442559*
X1335922Y442090*
X1336603*
X1333876Y448652D02*
X1336263D01*
X1343422Y447246D02*
X1343081Y448184D01*
X1342058Y448652*
X1341035*
X1340013Y448184*
X1339672Y447246*
X1340013Y446309*
X1340694Y445840*
X1342399Y445371*
X1343081Y444902*
X1343422Y443965*
Y443496*
X1343081Y442559*
X1342058Y442090*
X1341035*
X1340013Y442559*
X1339672Y443496*
X1350581Y447246D02*
X1349899Y448184D01*
X1349217Y448652*
X1348194*
X1347513Y448184*
X1346831Y447246*
X1346490Y445840*
Y444902*
X1346831Y443496*
X1347513Y442559*
X1348194Y442090*
X1349217*
X1349899Y442559*
X1350581Y443496*
X1355353Y448652D02*
X1354672Y448184D01*
X1353990Y447246*
X1353649Y445840*
Y444902*
X1353990Y443496*
X1354672Y442559*
X1355353Y442090*
X1356376*
X1357058Y442559*
X1357740Y443496*
X1358081Y444902*
Y445840*
X1357740Y447246*
X1357058Y448184*
X1356376Y448652*
X1355353*
X1361149D02*
Y442090D01*
Y445840D02*
X1361490Y447246D01*
X1362172Y448184*
X1362853Y448652*
X1363876*
X1366944D02*
Y438809D01*
Y447246D02*
X1367626Y448184D01*
X1368308Y448652*
X1369331*
X1370013Y448184*
X1370694Y447246*
X1371035Y445840*
Y444902*
X1370694Y443496*
X1370013Y442559*
X1369331Y442090*
X1368308*
X1367626Y442559*
X1366944Y443496*
X1374444Y443027D02*
X1374103Y442559D01*
X1374444Y442090*
X1374785Y442559*
X1374444Y443027*
X1381944Y447246D02*
X1381263Y448184D01*
X1380581Y448652*
X1379558*
X1378876Y448184*
X1378194Y447246*
X1377853Y445840*
Y444902*
X1378194Y443496*
X1378876Y442559*
X1379558Y442090*
X1380581*
X1381263Y442559*
X1381944Y443496*
X1386717Y448652D02*
X1386035Y448184D01*
X1385353Y447246*
X1385013Y445840*
Y444902*
X1385353Y443496*
X1386035Y442559*
X1386717Y442090*
X1387740*
X1388422Y442559*
X1389103Y443496*
X1389444Y444902*
Y445840*
X1389103Y447246*
X1388422Y448184*
X1387740Y448652*
X1386717*
X1392513D02*
Y442090D01*
Y446777D02*
X1393535Y448184D01*
X1394217Y448652*
X1395240*
X1395922Y448184*
X1396263Y446777*
Y442090*
Y446777D02*
X1397285Y448184D01*
X1397967Y448652*
X1398990*
X1399672Y448184*
X1400013Y446777*
Y442090*
X1143575Y450682D02*
Y440839D01*
Y450682D02*
X1146643D01*
X1147665Y450214*
X1148006Y449745*
X1148347Y448807*
Y447401*
X1148006Y446464*
X1147665Y445995*
X1146643Y445526*
X1143575*
X1151415Y450682D02*
Y440839D01*
X1156188Y450682D02*
Y440839D01*
X1151415Y445995D02*
X1156188D01*
X1171529Y450682D02*
X1168120D01*
X1167779Y446464*
X1168120Y446932*
X1169143Y447401*
X1170165*
X1171188Y446932*
X1171870Y445995*
X1172211Y444589*
X1171870Y443651*
X1171529Y442245*
X1170847Y441307*
X1169825Y440839*
X1168802*
X1167779Y441307*
X1167438Y441776*
X1167097Y442714*
X1177325Y450682D02*
X1176302Y450214D01*
X1175620Y448807*
X1175279Y446464*
Y445057*
X1175620Y442714*
X1176302Y441307*
X1177325Y440839*
X1178006*
X1179029Y441307*
X1179711Y442714*
X1180052Y445057*
Y446464*
X1179711Y448807*
X1179029Y450214*
X1178006Y450682*
X1177325*
X1184825D02*
X1183802Y450214D01*
X1183461Y449276*
Y448339*
X1183802Y447401*
X1184484Y446932*
X1185847Y446464*
X1186870Y445995*
X1187552Y445057*
X1187893Y444120*
Y442714*
X1187552Y441776*
X1187211Y441307*
X1186188Y440839*
X1184825*
X1183802Y441307*
X1183461Y441776*
X1183120Y442714*
Y444120*
X1183461Y445057*
X1184143Y445995*
X1185165Y446464*
X1186529Y446932*
X1187211Y447401*
X1187552Y448339*
Y449276*
X1187211Y450214*
X1186188Y450682*
X1184825*
X1190961Y445057D02*
X1197097D01*
X1204597Y447401D02*
X1204256Y445995D01*
X1203575Y445057*
X1202552Y444589*
X1202211*
X1201188Y445057*
X1200506Y445995*
X1200165Y447401*
Y447870*
X1200506Y449276*
X1201188Y450214*
X1202211Y450682*
X1202552*
X1203575Y450214*
X1204256Y449276*
X1204597Y447401*
Y445057*
X1204256Y442714*
X1203575Y441307*
X1202552Y440839*
X1201870*
X1200847Y441307*
X1200506Y442245*
X1211075Y450682D02*
X1207665Y444120D01*
X1212779*
X1211075Y450682D02*
Y440839D01*
X1220620Y450682D02*
X1217211Y440839D01*
X1215847Y450682D02*
X1220620D01*
X1223688Y445057D02*
X1229825D01*
X1233234Y448339D02*
Y448807D01*
X1233575Y449745*
X1233915Y450214*
X1234597Y450682*
X1235961*
X1236643Y450214*
X1236984Y449745*
X1237325Y448807*
Y447870*
X1236984Y446932*
X1236302Y445526*
X1232893Y440839*
X1237665*
X1245506Y450682D02*
X1242097Y440839D01*
X1240734Y450682D02*
X1245506D01*
X1250620D02*
X1249597Y450214D01*
X1248915Y448807*
X1248575Y446464*
Y445057*
X1248915Y442714*
X1249597Y441307*
X1250620Y440839*
X1251302*
X1252325Y441307*
X1253006Y442714*
X1253347Y445057*
Y446464*
X1253006Y448807*
X1252325Y450214*
X1251302Y450682*
X1250620*
X1260847Y447401D02*
X1260506Y445995D01*
X1259825Y445057*
X1258802Y444589*
X1258461*
X1257438Y445057*
X1256756Y445995*
X1256415Y447401*
Y447870*
X1256756Y449276*
X1257438Y450214*
X1258461Y450682*
X1258802*
X1259825Y450214*
X1260506Y449276*
X1260847Y447401*
Y445057*
X1260506Y442714*
X1259825Y441307*
X1258802Y440839*
X1258120*
X1257097Y441307*
X1256756Y442245*
X1506045Y381609D02*
X1506727Y382078D01*
X1507750Y383484*
Y373641*
X1512864Y383484D02*
X1511841Y383016D01*
X1511159Y381609*
X1510818Y379266*
Y377859*
X1511159Y375516*
X1511841Y374109*
X1512864Y373641*
X1513545*
X1514568Y374109*
X1515250Y375516*
X1515591Y377859*
Y379266*
X1515250Y381609*
X1514568Y383016*
X1513545Y383484*
X1512864*
X1013654Y891346D02*
X1016154Y893846D01*
X1020654*
X1013654Y881346D02*
X1017004Y884696D01*
X1017154*
X1028054Y880952D02*
X1031654Y884552D01*
Y884696*
X1024154D02*
X1024309D01*
X1028054Y880952*
X1010154Y884696D02*
X1013504Y881346D01*
X1013654*
X1019429Y838490D02*
Y845846D01*
X1019654*
X1020654Y893846D02*
X1026044D01*
X1028018Y891873*
X1020654Y897846D02*
Y906454D01*
X1020700Y906500*
X1099200Y875200D02*
X1100500D01*
X1101300Y876000*
Y878300*
X1041954Y891946D02*
Y894052D01*
X1042654Y894752*
X1055154*
X1056154Y893752*
Y891752*
X1069954Y891746D02*
Y893552D01*
X1070654Y894252*
X1077154*
Y893346*
X1041954Y880952D02*
X1045654Y884652D01*
Y884696*
X1055554Y881252D02*
X1055891Y881590D01*
X1056547*
X1059654Y884696*
X1069254Y881252D02*
X1069591Y881590D01*
X1070547*
X1073654Y884696*
X1084504Y881252D02*
X1084603Y881352D01*
X1095400Y875250D02*
X1099150D01*
X1099200Y875200*
X1095400Y881950D02*
Y882300D01*
X1101300*
X1080654Y884696D02*
X1081258D01*
X1084603Y881352*
X1087948Y884696*
X1088154*
X1080654D02*
X1081258D01*
X1084603Y881352*
X1066154Y884696D02*
Y884352D01*
X1069254Y881252*
X1052154Y884696D02*
X1055206Y881644D01*
X1055554Y881252*
X1077154Y893346D02*
X1078059Y894252D01*
X1083654*
X1084600Y893452*
Y892000*
X1077154Y897346D02*
Y906454D01*
X1077200Y906500*
X1049154Y893846D02*
Y894752D01*
X1055154*
X1056154Y893752*
Y891752*
X1049154Y897846D02*
Y906454D01*
X1049200Y906500*
X1079272Y838490D02*
Y843100D01*
X1081000Y844828*
Y850400*
X1038154Y884696D02*
X1038209D01*
X1041954Y880952*
X1169500Y847500D02*
X1169617Y847383D01*
Y844183*
X1170617Y843183*
Y838490*
X1155300Y903600D02*
Y901000D01*
X1155500*
X1148567Y838490D02*
Y843567D01*
X1150000Y845000*
Y847500*
X1151500Y901000D02*
Y903000D01*
X1152000Y903500*
Y904953*
X1152126Y905079*
X1189921Y908228D02*
X1192228D01*
X1192500Y908500*
X1189921Y905079D02*
X1191921D01*
X1192500Y904500*
X1197654Y911696D02*
X1201712D01*
X1201718Y911690*
X1192667Y838490D02*
Y845500D01*
X1193500Y846333*
Y849000*
X1318354Y899052D02*
X1322354D01*
X1325054Y896352*
X1337804*
X1340954Y899502*
Y905152*
X1294000Y910500D02*
Y907500D01*
X1299000Y910500D02*
Y907500D01*
X1344901Y838490D02*
Y844500D01*
X1345901Y845500*
Y846901*
X1346000Y847000*
X1377500Y851000D02*
X1379500Y849000D01*
X1379551*
Y838490*
X996224Y942149D02*
X996251Y942122D01*
X1000769*
X1023824Y992949D02*
X1023869Y992904D01*
Y990268*
X1025424Y973749D02*
Y975201D01*
X1025972Y975749*
Y979140*
X1025424Y973749D02*
X1026741D01*
X1027941Y974949*
Y979140*
X996224Y946149D02*
X996313Y946060D01*
X1000769*
X1005424Y977349D02*
X1008251D01*
Y979140*
X1000769Y971657D02*
X1004624D01*
Y971749*
X1005424Y972549*
X1010220Y934640D02*
Y940946D01*
X1010224Y940949*
X1020065Y934640D02*
Y940165D01*
X1020100Y940200*
X1016127Y979140D02*
Y972549D01*
X1016224*
X1019228Y992019D02*
Y994549D01*
X1019424*
X989000Y971500D02*
X992073D01*
X992224Y971349*
X991330Y979717D02*
X995392D01*
X995424Y979749*
X980092Y953890D02*
Y949081D01*
X980224Y948949*
X1029824Y973749D02*
X1029910Y973836D01*
Y979140*
X1059824Y971749D02*
Y974549D01*
X1041024Y942149D02*
X1041051Y942122D01*
X1045269*
X1041024Y950149D02*
Y949998D01*
X1045269*
X1060624Y959349D02*
X1060665Y959390D01*
X1065481*
X1055824Y971349D02*
Y974549D01*
X1090224D02*
X1093024D01*
X1099454Y989046D02*
X1103354D01*
X1097004Y977602D02*
Y974569D01*
X1097024Y974549*
X1085481Y959390D02*
X1085680Y959440D01*
X1090606*
X1085481Y969390D02*
X1098543D01*
X1101154Y972000*
Y980634*
X1104354Y983834*
X1109150*
X1085481Y974390D02*
X1085640Y974549D01*
X1090224*
X1029910Y934640D02*
Y939700D01*
X1031400Y941300*
X1031879Y934640D02*
Y938800D01*
X1031900*
X1033848Y934640D02*
Y938400D01*
X1034848Y939400*
X1035800*
X1045269Y955905D02*
X1049895D01*
X1049900Y955900*
X1035817Y979140D02*
Y974949D01*
X1037017Y973749*
X1038224*
X1031879Y979140D02*
Y983005D01*
X1033424Y984549*
X1059824Y974549D02*
X1059983Y974390D01*
X1065481*
X1091981Y987890D02*
Y982424D01*
X1092004Y982402*
X1059981Y987890D02*
X1062624D01*
X1063824Y986690*
Y979349*
X1148954Y946346D02*
Y949173D01*
X1148976*
X1148954Y946346D02*
X1149154D01*
X1159399Y975596D02*
X1160654Y975996D01*
X1164860Y930411D02*
Y932846D01*
X1165654*
X1164860Y930190D02*
Y928640D01*
X1165154Y928346*
X1164860Y930190D02*
Y930411D01*
X1145827Y920827D02*
X1146927D01*
X1148500Y922400*
X1145827Y917677D02*
X1145850Y917700D01*
X1148500*
X1155275Y917677D02*
Y920827D01*
Y924346*
X1156490Y924252*
X1174173Y923976D02*
X1177323D01*
X1158425Y952323D02*
X1158654Y952252D01*
X1161154Y949752*
Y946346*
X1148976Y952323D02*
X1150551Y950748D01*
X1138270Y984680D02*
Y984650D01*
X1142654*
Y983096*
X1122303Y955748D02*
X1124154D01*
X1125154Y954748*
Y950846*
X1160554Y987046D02*
Y982696D01*
X1160654*
X1138346Y977525D02*
Y977552D01*
X1142654*
Y975596*
X1127803Y933448D02*
Y933850D01*
X1130800Y936846*
X1136154*
X1164725Y930275D02*
X1164860Y930190D01*
Y928640*
X1165154Y928346*
X1164860Y930411D02*
X1164725Y930275D01*
X1164860Y930190*
X1155275Y930275D02*
Y928346D01*
X1156490Y928252*
X1158425Y942874D02*
X1158491Y942940D01*
X1161154*
Y942346*
X1152126Y942874D02*
X1152360Y943109D01*
Y943140*
X1153154Y942346*
X1183622Y946024D02*
X1186945Y949346D01*
X1187154*
X1158425Y964921D02*
X1158654Y964693D01*
Y959846*
X1169654Y932846D02*
X1170968Y931532D01*
X1172919*
X1174173Y930278*
X1122700Y921350D02*
Y922290D01*
X1126636*
X1126949Y922602*
X1124154Y927996D02*
X1127668D01*
X1128468Y927196*
X1130008*
X1130079Y927126*
X1124154Y934696D02*
Y933448D01*
X1127803*
X1180254Y933546D02*
X1183501D01*
X1186772Y930275*
X1165654Y946346D02*
X1166818Y947511D01*
Y948240*
X1167752Y949173*
X1167874*
X1169654Y946346D02*
X1171024Y947717D01*
Y949173*
X1169654Y924346D02*
Y925190D01*
X1172960*
X1174173Y923976*
X1165154Y924346D02*
X1169654D01*
X1127000Y965500D02*
X1130079D01*
Y964921*
X1127000Y961500D02*
X1130079D01*
Y961772*
X1149630Y938302D02*
X1149654Y939640D01*
X1149738Y939725*
X1152126*
X1145630Y938302D02*
X1145654Y942701D01*
X1145827Y942874*
X1149154Y942346D02*
X1153154D01*
Y946346D02*
X1153701D01*
X1157154D02*
X1158425Y947618D01*
Y949173*
X1118154Y947496D02*
X1118247Y947590D01*
X1122263*
X1123006Y946846*
X1125154*
X1167653Y959248D02*
X1167654Y961771D01*
X1167874*
X1200154Y961346D02*
X1199959D01*
X1200154Y961152*
Y961346*
X1194051Y961248D02*
X1200154D01*
Y961346*
X1193868Y932490D02*
X1198654D01*
X1200154Y933990*
Y936846*
X1189921Y964921D02*
X1191000D01*
Y965000*
X1200154Y944952D02*
Y941846D01*
X1223754Y970646D02*
Y975846D01*
X1224904*
X1208904D02*
X1217404D01*
X1200154Y961346D02*
Y966846D01*
X1200804*
X1200154Y961346D02*
Y956846D01*
X1204154Y961346D02*
X1206798D01*
X1206804Y961352*
X1204154Y961346D02*
Y956846D01*
X1200804Y966846D02*
Y975246D01*
X1201404Y975846*
X1207504Y966846D02*
X1211648D01*
X1211654Y966852*
X1313354Y934952D02*
X1313654Y935252D01*
X1316154*
X1309154Y993152D02*
Y996346D01*
X1339654Y991852D02*
Y995846D01*
X1316154Y931252D02*
X1330006D01*
X1333318Y927940*
Y918682*
X1338000Y914000*
X1011728Y998245D02*
X1011824Y998149D01*
X1001424Y994149D02*
X1006228D01*
Y995769*
X1025424Y996149D02*
X1029287D01*
Y996982*
X983824Y1006549D02*
Y1006531D01*
X987200*
X982224Y1001349D02*
X985000D01*
Y1001500*
X978224Y994149D02*
X982670D01*
Y994283*
X1013728Y994369D02*
X1016308Y996949D01*
X1019424*
Y996549*
X992800Y1010469D02*
X995531D01*
X997000Y1009000*
X1008000*
X1009500Y1010500*
X1018500*
X1020851Y1008149*
X1029424*
X1091799Y1021299D02*
X1091981Y1021117D01*
Y1015890*
X1091799Y997283D02*
X1091981Y997101D01*
Y991890*
X1099454Y994146D02*
X1103354D01*
X1091806Y1006390D02*
X1091981Y1006565D01*
Y1011890*
X1040981Y1011390D02*
X1041424Y1010947D01*
Y1007349*
X1166151Y1011098D02*
Y1011100D01*
X1168700*
X1246154Y1000952D02*
Y1004346D01*
Y1008346D02*
Y1011487D01*
X1246356Y1011690*
X1323154Y1002846D02*
Y1005752D01*
X1327154Y1002846D02*
X1330059D01*
X1330154Y1002752*
X1314154Y996346D02*
Y993152D01*
X1366500Y891000D02*
X1362000D01*
Y882500*
X1366500*
Y891000*
X1361500Y923000D02*
X1357500D01*
Y932000*
X1361500*
Y923000*
X1141200Y985346D02*
X1137150D01*
Y980810*
X1141200*
Y985346*
X1152600Y976098D02*
X1162590D01*
Y971798*
X1152600*
Y976098*
X1362000Y890599D02*
X1366500D01*
X1362000Y889699D02*
X1366500D01*
X1362000Y888799D02*
X1366500D01*
X1362000Y887899D02*
X1366500D01*
X1362000Y886999D02*
X1366500D01*
X1362000Y886099D02*
X1366500D01*
X1362000Y885199D02*
X1366500D01*
X1362000Y884299D02*
X1366500D01*
X1362000Y883399D02*
X1366500D01*
X1357500Y931999D02*
X1361500D01*
X1357500Y931099D02*
X1361500D01*
X1357500Y930199D02*
X1361500D01*
X1357500Y929299D02*
X1361500D01*
X1357500Y928399D02*
X1361500D01*
X1357500Y927499D02*
X1361500D01*
X1357500Y926599D02*
X1361500D01*
X1357500Y925699D02*
X1361500D01*
X1357500Y924799D02*
X1361500D01*
X1357500Y923899D02*
X1361500D01*
X1137150Y985309D02*
X1141200D01*
X1137150Y984409D02*
X1141200D01*
X1137150Y983509D02*
X1141200D01*
X1137150Y982609D02*
X1141200D01*
X1137150Y981709D02*
X1141200D01*
X1152600Y975396D02*
X1162590D01*
X1152600Y974496D02*
X1162590D01*
X1152600Y973596D02*
X1162590D01*
X1152600Y972696D02*
X1162590D01*
G54D191*
X1038295Y846716D02*
X1038327Y846683D01*
Y838490*
X1091895Y907916D02*
Y911016D01*
X1074700Y846700D02*
X1076100Y845300D01*
X1076131*
Y838490*
X1063500Y845800D02*
X1063531Y845769D01*
Y838490*
X1101300Y882300D02*
X1104000D01*
X1104400Y881900*
Y880400*
X1099050Y904400D02*
Y914300D01*
X1099250Y914500*
X1124300Y866700D02*
X1124350Y866750D01*
X1130000*
X1176400Y890900D02*
Y892447D01*
X1177453Y893500*
Y896953*
X1197654Y904996D02*
Y904090D01*
X1201718*
Y903990*
X1098151Y920198D02*
Y914500D01*
X1099250*
X1091895Y915016D02*
X1098734D01*
X1099250Y914500*
X1175751Y934049D02*
X1176254Y933546D01*
X1161575Y920827D02*
Y922887D01*
X1161695Y923006*
X1155275Y952323D02*
Y952468D01*
X1158654Y955846*
X1164725Y952323D02*
X1164791Y952390D01*
X1165197*
X1167653Y955248*
X1145827Y927126D02*
X1146224D01*
X1148448Y929350*
X1112303Y921248D02*
X1112405Y921350D01*
X1116000*
X1167874Y930275D02*
X1169654Y928496D01*
Y928346*
X1155275Y942874D02*
X1156626D01*
X1157154Y942346*
X1160520Y924252D02*
X1161695Y923006D01*
X1140154Y936846D02*
X1142668Y934332D01*
Y933433*
X1142677Y933425*
X1141252Y968000D02*
Y975596D01*
X1142654*
X1240451Y953498D02*
Y949049D01*
X1240500Y949000*
X1239934Y982644D02*
X1240000Y982578D01*
Y979000*
X1217404Y975846D02*
Y979900D01*
X1219304Y981800*
X1228500*
X1232400Y977900*
Y973000*
X1235200Y970200*
X1240300*
X1240500Y970000*
X1196154Y936846D02*
Y941846D01*
G54D193*
X1364500Y887000D03*
Y890000D03*
Y884000D03*
X1322800Y958200D03*
X1052624Y1025749D03*
X1210200Y1003900D03*
X1239700Y993300D03*
G54D194*
X1013658Y987684D02*
X1013994Y988019D01*
X1019228*
X1013658Y987684D02*
X1013713D01*
X1013728Y987669*
X1022000Y939000D02*
Y934674D01*
X1022034Y934640*
X1022000Y939000D02*
X1022700Y939700D01*
X1023303*
X1024003Y939000*
Y934640*
X992624Y954519D02*
X994782D01*
X995365Y953936*
X1000769*
X991728Y952019D02*
X995313D01*
X995365Y951967*
X1000769*
X986728Y959019D02*
Y953890D01*
X987592*
X995228Y964019D02*
Y964181D01*
X1000769*
Y963781*
Y955905D02*
X1005228D01*
Y956019*
X1000769Y944091D02*
X1005228D01*
Y944019*
X1018096Y979140D02*
Y982484D01*
X1019024Y983749*
X1014158Y979140D02*
Y988019D01*
X1019228*
X1023869Y986268D02*
X1028342D01*
X1029287Y987212*
Y990282*
X1023869Y986268D02*
Y983521D01*
X1024003Y983386*
Y979140*
X1006228Y988269D02*
X1013073D01*
X1013658Y987684*
X1013713*
X1013728Y987669*
X980092Y963890D02*
X980224D01*
Y959349*
X987592Y963890D02*
Y966149D01*
X991824*
X1045269Y943819D02*
Y944091D01*
X1040728Y945519D02*
X1042156Y944091D01*
X1045269*
X1043856Y983890D02*
X1044062D01*
Y990482*
X1039728Y957519D02*
Y957583D01*
X1041428*
X1041719Y957874*
X1045269*
Y965750D02*
Y966150D01*
X1050228*
Y966019*
X1059981Y991890D02*
Y996273D01*
X1061228Y997519*
X1029287Y990282D02*
Y990482D01*
X1036562*
X1066700Y1015890D02*
X1067000Y1016300D01*
X1067300Y1015890*
X1067000Y1016300D02*
X1068080Y1016969D01*
X1059981Y1015890D02*
Y1018506D01*
X1060728Y1019253*
Y1021519*
X1059981Y1011890D02*
X1060611Y1012019D01*
X1062228*
X1062728Y1012519*
Y1014019*
X1064598Y1015890*
X1067000Y1016300*
X1044981Y1011390D02*
Y1009303D01*
X1045026Y1009258*
Y1009221*
X1046228Y1008019*
X1141417Y1015716D02*
Y1019653D01*
X1141418*
X565117Y362490D02*
X1843517D01*
Y1511990*
X565117*
Y362490*
X1123517D02*
X1843517D01*
Y557490*
X1123517*
Y362490*
X1408517Y502490D02*
X1843517D01*
Y362490*
X1408517*
Y502490*
Y392490D02*
X1843517D01*
Y362490*
X1408517*
Y392490*
X1568517*
Y362490*
X1408517*
Y392490*
Y502490D02*
X1843517D01*
Y557490*
X1408517*
Y502490*
Y432490D02*
X1843517D01*
Y502490*
X1408517*
Y432490*
X1708517Y392490D02*
X1843517D01*
Y432490*
X1708517*
Y392490*
X1123517D02*
X1283517D01*
Y362490*
X1123517*
Y392490*
X1283517Y362490D02*
X1408517D01*
Y392490*
X1283517*
Y362490*
G54D197*
X1006831Y838490D03*
X1009981D03*
X1013130D03*
X1016280D03*
X1019429D03*
X1022579D03*
X1025729D03*
X1028878D03*
X1032028D03*
X1035178D03*
X1038327D03*
X1041481D03*
X1044626D03*
X1047776D03*
X1050926D03*
X1054075D03*
X1057231D03*
X1060381D03*
X1063531D03*
X1066681D03*
X1069831D03*
X1072973D03*
X1076131D03*
X1079272D03*
X1082431D03*
X1085581D03*
X1088731D03*
X1091870D03*
X1107618D03*
X1110768D03*
X1113918D03*
X1117067D03*
X1120217D03*
X1123367D03*
X1126517D03*
X1129667D03*
X1132817D03*
X1135967D03*
X1139117D03*
X1142267D03*
X1145417D03*
X1148567D03*
X1151717D03*
X1154867D03*
X1158017D03*
X1161167D03*
X1164317D03*
X1167467D03*
X1170617D03*
X1173767D03*
X1176917D03*
X1180067D03*
X1183217D03*
X1186367D03*
X1189517D03*
X1192667D03*
X1195817D03*
X1198967D03*
X1202117D03*
X1205267D03*
X1288201D03*
X1291351D03*
X1294501D03*
X1297651D03*
X1300801D03*
X1303951D03*
X1307101D03*
X1310251D03*
X1313401D03*
X1316551D03*
X1319701D03*
X1322851D03*
X1326001D03*
X1329151D03*
X1332301D03*
X1335451D03*
X1338601D03*
X1341751D03*
X1344901D03*
X1348051D03*
X1351201D03*
X1354351D03*
X1357501D03*
X1360651D03*
X1363801D03*
X1366951D03*
X1370101D03*
X1373251D03*
X1376401D03*
X1379551D03*
G54D198*
X1083000Y1016300D03*
X1067000D03*
G54D199*
X1385038Y878110D02*
X1381100D01*
X1385038D02*
Y879883D01*
X1383163Y878110D02*
Y879201D01*
X1384100Y881246D02*
X1384288D01*
X1384288D02*
X1384663Y881383D01*
X1384663D02*
X1384850Y881519D01*
X1385038Y881792*
X1385038D02*
Y882337D01*
X1385038D02*
X1384850Y882610D01*
X1384663Y882746*
X1384663D02*
X1384288Y882883D01*
X1384288D02*
X1383913D01*
X1383913D02*
X1383538Y882746D01*
X1383538D02*
X1382975Y882474D01*
X1381100Y881110*
Y883019*
X1385038Y884928D02*
X1384850Y884519D01*
X1384475Y884383*
X1384100*
X1383725Y884519*
X1383538Y884792*
X1383538D02*
X1383350Y885337D01*
X1383163Y885746*
X1383163D02*
X1382788Y886019D01*
X1382788D02*
X1382413Y886155D01*
X1382413D02*
X1381850D01*
X1381475Y886019*
X1381288Y885883*
X1381288D02*
X1381100Y885474D01*
Y884928*
X1381288Y884519*
X1381288D02*
X1381475Y884383D01*
X1381850Y884246*
X1382413*
X1382413D02*
X1382788Y884383D01*
X1382788D02*
X1383163Y884655D01*
X1383163D02*
X1383350Y885065D01*
X1383538Y885610*
X1383538D02*
X1383725Y885883D01*
X1384100Y886019*
X1384475*
X1384850Y885883*
X1385038Y885474*
X1385038D02*
Y884928D01*
Y887655D02*
Y889155D01*
X1385038D02*
X1383538Y888337D01*
X1383538D02*
Y888746D01*
X1383538D02*
X1383350Y889019D01*
X1383163Y889155*
X1383163D02*
X1382600Y889292D01*
X1382225*
X1381663Y889155*
X1381663D02*
X1381288Y888883D01*
X1381288D02*
X1381100Y888474D01*
Y888065*
X1381288Y887655*
X1381288D02*
X1381475Y887519D01*
X1381850Y887383*
X1385038Y892428D02*
X1381100Y891065D01*
X1385038Y890519D02*
Y892428D01*
X1383725Y893655D02*
X1381100Y895155D01*
X1383725D02*
X1381100Y893655D01*
X1383163Y901155D02*
X1383538Y900883D01*
X1383538D02*
X1383725Y900610D01*
Y900201*
X1383538Y899928*
X1383538D02*
X1383163Y899655D01*
X1383163D02*
X1382600Y899519D01*
X1382225*
X1381663Y899655*
X1381663D02*
X1381288Y899928D01*
X1381288D02*
X1381100Y900201D01*
Y900610*
X1381288Y900883*
X1381288D02*
X1381663Y901155D01*
X1383725Y903065D02*
X1383538Y902792D01*
X1383538D02*
X1383163Y902519D01*
X1383163D02*
X1382600Y902383D01*
X1382225*
X1381663Y902519*
X1381663D02*
X1381288Y902792D01*
X1381288D02*
X1381100Y903065D01*
Y903474*
X1381288Y903746*
X1381288D02*
X1381663Y904019D01*
X1381663D02*
X1382225Y904155D01*
X1382600*
X1383163Y904019*
X1383163D02*
X1383538Y903746D01*
X1383538D02*
X1383725Y903474D01*
Y903065*
Y905383D02*
X1381100D01*
X1382975D02*
X1383538Y905792D01*
X1383538D02*
X1383725Y906065D01*
Y906474*
X1383538Y906746*
X1383538D02*
X1382975Y906883D01*
X1381100*
X1385038Y908519D02*
X1381850D01*
X1381288Y908655*
X1381288D02*
X1381100Y908928D01*
Y909201*
X1383725Y908110D02*
Y909065D01*
Y910428D02*
X1381100D01*
X1382600D02*
X1383163Y910565D01*
X1383163D02*
X1383538Y910837D01*
X1383538D02*
X1383725Y911110D01*
Y911519*
Y913428D02*
X1383538Y913155D01*
X1383538D02*
X1383163Y912883D01*
X1383163D02*
X1382600Y912746D01*
X1382225*
X1381663Y912883*
X1381663D02*
X1381288Y913155D01*
X1381288D02*
X1381100Y913428D01*
Y913837*
X1381288Y914110*
X1381288D02*
X1381663Y914383D01*
X1381663D02*
X1382225Y914519D01*
X1382600*
X1383163Y914383*
X1383163D02*
X1383538Y914110D01*
X1383538D02*
X1383725Y913837D01*
Y913428*
X1385038Y915746D02*
X1381100D01*
X1384100Y919019D02*
X1384475Y918883D01*
X1384850Y918610*
X1385038Y918337*
X1385038D02*
Y917792D01*
X1385038D02*
X1384850Y917519D01*
X1384475Y917246*
X1384100Y917110*
X1383538Y916974*
X1383538D02*
X1382600D01*
X1382038Y917110*
X1382038D02*
X1381663Y917246D01*
X1381663D02*
X1381288Y917519D01*
X1381288D02*
X1381100Y917792D01*
Y918337*
X1381288Y918610*
X1381288D02*
X1381663Y918883D01*
X1381663D02*
X1382038Y919019D01*
X1385038Y921337D02*
X1381100Y920246D01*
X1385038Y921337D02*
X1381100Y922428D01*
X1382413Y920655D02*
Y922019D01*
X1385038Y923655D02*
X1381100D01*
X1385038D02*
Y924883D01*
X1385038D02*
X1384850Y925292D01*
X1384663Y925428*
X1384663D02*
X1384288Y925565D01*
X1384288D02*
X1383913D01*
X1383913D02*
X1383538Y925428D01*
X1383538D02*
X1383350Y925292D01*
X1383163Y924883*
X1383163D02*
Y923655D01*
Y924610D02*
X1381100Y925565D01*
X1385038Y926792D02*
X1381100D01*
X1385038D02*
Y927746D01*
X1385038D02*
X1384850Y928155D01*
X1384475Y928428*
X1384100Y928565*
X1383538Y928701*
X1383538D02*
X1382600D01*
X1382038Y928565*
X1382038D02*
X1381663Y928428D01*
X1381663D02*
X1381288Y928155D01*
X1381288D02*
X1381100Y927746D01*
Y926792*
X1385038Y933065D02*
X1381100D01*
X1385038D02*
Y934292D01*
X1385038D02*
X1384850Y934701D01*
X1384663Y934837*
X1384663D02*
X1384288Y934974D01*
X1384288D02*
X1383913D01*
X1383913D02*
X1383538Y934837D01*
X1383538D02*
X1383350Y934701D01*
X1383163Y934292*
X1383163D02*
Y933065D01*
Y934019D02*
X1381100Y934974D01*
X1384288Y936201D02*
X1384475Y936474D01*
X1385038Y936883*
X1385038D02*
X1381100D01*
X1381475Y938246D02*
X1381288Y938110D01*
X1381288D02*
X1381100Y938246D01*
X1381288Y938383*
X1381288D02*
X1381475Y938246D01*
X1385038Y939883D02*
Y941383D01*
X1385038D02*
X1383538Y940565D01*
X1383538D02*
Y940974D01*
X1383538D02*
X1383350Y941246D01*
X1383163Y941383*
X1383163D02*
X1382600Y941519D01*
X1382225*
X1381663Y941383*
X1381663D02*
X1381288Y941110D01*
X1381288D02*
X1381100Y940701D01*
Y940292*
X1381288Y939883*
X1381288D02*
X1381475Y939746D01*
X1381850Y939610*
X981689Y885103D02*
X977751D01*
X981689Y884148D02*
Y886057D01*
Y887284D02*
X977751D01*
X981689D02*
Y889057D01*
X979814Y887284D02*
Y888375D01*
X977751Y887284D02*
Y889057D01*
X981689Y890284D02*
X977751Y892193D01*
X981689D02*
X977751Y890284D01*
X980939Y893421D02*
X981126Y893693D01*
X981689Y894103*
X977751*
X981689Y895603D02*
Y897103D01*
X980189Y896284*
Y896693*
X980001Y896966*
X979814Y897103*
X979251Y897239*
X978876*
X978314Y897103*
X977939Y896830*
X977751Y896421*
Y896012*
X977939Y895603*
X978126Y895466*
X978501Y895330*
X981689Y900375D02*
X977751Y899012D01*
X981689Y898466D02*
Y900375D01*
X982624Y973876D02*
Y979671D01*
X982670Y979717*
X982624Y973876D02*
X985000Y971500D01*
X982624Y984549D02*
Y979763D01*
X982670Y979717*
X982624Y984549D02*
X984224Y986149D01*
X995820*
X998624Y983346*
X1009424*
X1010220Y982549*
Y979140*
X1000769Y969688D02*
Y969721D01*
X1006624*
X1008596Y967749*
X1017024*
X1000769Y967719D02*
X1005454D01*
X1010224Y962949*
X1017024*
X1000769Y965750D02*
X1004997D01*
X1012857Y957890*
X1017979*
X1025972Y934640D02*
Y942019D01*
X1028228Y944275*
X1035698*
X1040454Y939519*
X1051728*
X1057824Y945615*
Y962549*
X1059665Y964390*
X1065481*
X1027941Y934640D02*
Y940519D01*
X1022034Y979140D02*
Y975349D01*
X1022624Y974760*
Y971349*
X1020065Y979140D02*
Y974308D01*
X1020224Y974149*
X1040356Y972390D02*
Y969091D01*
X1041728Y967719*
X1045269*
X1040356Y972390D02*
X1046916Y978949D01*
X1056624*
X1040228Y977519D02*
X1044228Y981519D01*
X1059024*
X1033424Y973349D02*
X1033448Y973374D01*
Y974949*
X1033848Y975349*
Y979140*
X1045269Y963781D02*
X1050804D01*
X1051042Y964019*
X1053424*
X1045269Y969688D02*
X1045330Y969749D01*
X1049865*
X1050224Y969390*
X1065481*
X1045269Y971657D02*
X1048932D01*
X1049794Y972519*
X1051424*
X1037786Y979140D02*
Y977519D01*
X1040228*
X991330Y994519D02*
Y988949D01*
X992530Y987749*
X995824*
X999024Y984549*
X1010330*
X1012189Y982690*
Y979140*
X991330Y994519D02*
Y994283D01*
X989000Y1001500D02*
Y1001406D01*
X991330Y999076*
Y994519*
Y994283*
X987200Y1010469D02*
X988144D01*
X990694Y1013019*
X995481*
X998050Y1010450*
X1000850*
X1001400Y1011000*
X1003000*
X992800Y1006531D02*
X998624D01*
X999042Y1006949*
X1003424*
X1385036Y866000D02*
G75*
G03X1385036I-3536J0D01*
G01X1379000Y868500D02*
X1384000Y863500D01*
G54D201*
X1291351Y838490D02*
Y841099D01*
X1175751Y934049D02*
Y938153D01*
X1177323Y939725*
X1150551Y950748D02*
X1153160D01*
X1153701Y950207*
Y946346*
X1177323Y946024D02*
X1178897Y947598D01*
X1181405*
X1183154Y949346*
X1383328Y864034D02*
X1380047D01*
X1383328D02*
Y865057D01*
X1383172Y865398*
X1383016Y865511*
X1382703Y865625*
X1382234*
X1381922Y865511*
X1381766Y865398*
X1381609Y865057*
Y864034*
X1383328Y866648D02*
X1380047D01*
X1381766D02*
X1382078Y866875D01*
X1382234Y867102*
Y867443*
X1382078Y867670*
X1381766Y867898*
X1381297Y868011*
X1380984*
X1380516Y867898*
X1380203Y867670*
X1380047Y867443*
Y867102*
X1380203Y866875*
X1380516Y866648*
G54D245*
X1223404Y999846D03*
G54D246*
X1213154D03*
G54D247*
X1143340Y862452D02*
Y866750D01*
X1145000*
X1137768Y974322D02*
X1137252Y973806D01*
Y968000*
X1118266Y957836D02*
X1118154D01*
Y954196*
X1159399Y972298D02*
Y975596D01*
X1152154*
X1142654Y983096D02*
Y984613D01*
X1152154*
Y983096*
X1118154Y954196D02*
Y957836D01*
X1234100Y993050D02*
X1239700D01*
Y993300*
X1002624Y1003749D02*
X1006454D01*
X1008224Y1005519*
X1011728*
Y1001519D02*
Y998245D01*
X1067300Y1015890D02*
Y1002600D01*
X1066700Y1025500D02*
Y1015890D01*
X1083000Y1002900D02*
Y1016300D01*
Y1025300*
X1223500Y999750D02*
X1234100D01*
G54D259*
X992800Y1010469D03*
Y1008500D03*
Y1006531D03*
X987200D03*
Y1010469D03*
G54D272*
X1329500Y904500D03*
G54D273*
X1027950Y851800D02*
Y854600D01*
X1031000Y857650*
X1027950Y851800D02*
X1028600Y851150D01*
X1031850*
X1033150Y849850*
Y844846*
X1035000Y842996*
Y838667*
X1035178Y838490*
X1015600Y854400D02*
Y855250D01*
X1018000Y857650*
X1015600Y854400D02*
X1016250Y853750D01*
X1018200*
X1024700Y847250*
Y845029*
X1025729Y844000*
Y838490*
X1024500Y857650D02*
Y857000D01*
X1026650Y855050*
Y851150*
X1027950Y849850*
X1031200*
X1031850Y849200*
Y838800*
X1032028Y838490*
X1018000Y864350D02*
Y869000D01*
X1019650Y870650*
X1026650*
X1027499Y871499*
X1033406*
X1033454Y871452*
X1011500Y864350D02*
Y867846D01*
X1013000Y869346*
X1016654*
X1019257Y871950*
X1026000*
X1026702Y872652*
X1032254*
X1033054Y873452*
X1035054*
X1035154Y873352*
X1011500Y857650D02*
Y857200D01*
X1013650Y855050*
Y854300*
X1015500Y852450*
X1017550*
X1023400Y846600*
Y845142*
X1022579Y838490D02*
Y844321D01*
X1023400Y845142*
X1040950Y853750D02*
Y855050D01*
X1041574Y855674*
X1042276*
X1044126Y857524*
X1040950Y853750D02*
X1041600Y853100D01*
X1042250*
X1043550Y851800*
Y846376*
X1044626Y845300*
Y838490*
X1050050Y845526D02*
Y847250D01*
X1054600Y851800*
Y855050*
X1055747Y856197*
X1056926*
Y857650*
X1057000*
X1050050Y845526D02*
X1050926Y844650D01*
Y838490*
X1050700Y857000D02*
X1053300Y854400D01*
Y852450*
X1080654Y873846D02*
X1082154D01*
X1083154Y872846*
X1063500Y864350D02*
Y867042D01*
X1064304Y867846*
X1069154*
X1071154Y869846*
X1080654*
X1083154Y872346*
Y872846*
X1063500Y857650D02*
Y855700D01*
X1065000*
X1065650Y855050*
Y852450*
X1052154Y877996D02*
X1052260Y877890D01*
Y873846*
X1083000Y864350D02*
Y866846D01*
X1084500Y868346*
X1088600*
X1076500Y864350D02*
Y866846D01*
X1077500Y867846*
X1082154*
X1085154Y870800*
X1090800*
X1070000Y864350D02*
X1070154Y864504D01*
Y867346*
X1071654Y868846*
X1081154*
X1084654Y872346*
Y872846*
X1085654Y873846*
X1088154*
X1057000Y864350D02*
Y867346D01*
X1058500Y868846*
X1062654*
X1065259Y871452*
X1074754*
X1075104Y871802*
X1078344*
X1050500Y864350D02*
Y867346D01*
X1053000Y869846*
X1062154*
X1064759Y872452*
X1074259*
X1076154Y874346*
X1078154*
X1044000Y864350D02*
Y867693D01*
X1046654Y870346*
X1044000Y857650D02*
X1044126Y857524D01*
X1037500Y864350D02*
Y867846D01*
X1038577Y868923*
X1042230*
X1045654Y872346*
X1047154*
X1049154Y870346*
X1037500Y857650D02*
Y857000D01*
X1039650Y855050*
Y852981*
X1040831Y851800*
X1041481*
X1042131Y851150*
Y845300*
X1069831Y838490D02*
Y845278D01*
X1078043Y853490*
X1078650*
X1082810Y857650*
X1083000*
X1066681Y838490D02*
Y845031D01*
X1067700Y846050*
X1068800*
X1076500Y853750*
Y857650*
X1060381Y838490D02*
X1060500D01*
Y842846*
X1061854Y844200*
Y846704*
X1066888Y851738*
Y854400*
X1068188Y855700*
X1070000*
Y857650*
X1057231Y838490D02*
Y845300D01*
X1060141Y848209*
X1061409*
X1065650Y852450*
X1047776Y838490D02*
Y844650D01*
X1048763Y845637*
Y847913*
X1053300Y852450*
X1041481Y838490D02*
Y844650D01*
X1042131Y845300*
X1167050Y853083D02*
Y858300D01*
X1173550Y864800*
X1211900*
X1216450Y869350*
Y881050*
X1220350Y884950*
X1246350*
X1249600Y888200*
Y891545*
X1254154Y896098*
X1167050Y853083D02*
X1169043Y851090D01*
X1164318Y849515D02*
Y852348D01*
X1165750Y853780*
Y858950*
X1172900Y866100*
X1211250*
X1215150Y870000*
Y881700*
X1219700Y886250*
X1245700*
X1248300Y888850*
X1164318Y849515D02*
X1165893Y847940D01*
X1167467Y838490D02*
Y849515D01*
X1167468*
X1169043Y851090*
X1164317Y838490D02*
Y846365D01*
X1164318*
X1165893Y847940*
X1264154Y896098D02*
X1268450Y891802D01*
Y886900*
X1270400Y884950*
X1289250*
X1313950Y860250*
X1354250*
X1356850Y857650*
X1244154Y896098D02*
X1244906Y895346D01*
X1245154*
X1248300Y892200*
Y888850*
X1269750Y891695D02*
Y887550D01*
X1271050Y886250*
X1289900*
X1314600Y861550*
X1354900*
X1358150Y858300*
Y853267*
X1359069Y852348*
Y851090*
X1269750Y891695D02*
X1274154Y896098D01*
X1355919Y851090D02*
X1357501Y849515D01*
Y838490*
X1355919Y851090D02*
Y852348D01*
X1356850Y853279*
Y857650*
G54D274*
X1010000Y873846D02*
Y877650D01*
X1010154Y877996*
X999618Y860990D02*
X1006831Y853490D01*
Y838490*
X1003654Y860346D02*
Y858346D01*
X1009064Y852936*
Y846906*
X1009981Y845990*
Y838490*
X1011618Y847990D02*
X1013130Y846490D01*
Y838490*
X1003654Y867846D02*
Y863346D01*
X1005618Y861382*
Y858382*
X1011500Y852500*
Y851108*
X1016280Y846328*
Y838490*
X1024500Y864350D02*
Y867346D01*
X1026000Y868846*
X1034154*
X1037154Y871846*
X1041000*
X1041500Y872346*
Y873846*
X1024154Y877996D02*
X1024260Y877890D01*
Y874346*
X1017154Y877996D02*
X1017240Y875910D01*
Y874000*
X1096595Y892916D02*
X1096610Y892900D01*
X1099300*
X1096595Y892916D02*
X1096610Y892900D01*
Y891816*
X1099600Y870800D02*
X1099750Y870950D01*
X1109000*
X1093754Y895846D02*
X1093854D01*
X1094300Y895400*
X1093754Y895846D02*
X1098154D01*
X1099754Y897446*
X1101907Y899600*
X1106800*
X1112396*
X1115750Y896246*
Y892900*
X1106954Y853752D02*
Y852317D01*
X1107618Y851652*
Y838490*
X1106954Y853752D02*
X1108554Y855352D01*
Y857600*
X1108500Y857700D02*
X1108554Y857600D01*
X1085554Y845552D02*
X1085581Y845524D01*
Y838490*
X1088154Y873846D02*
Y877996D01*
X1073654Y874346D02*
Y877996D01*
X1045654Y874346D02*
Y877996D01*
X1039154Y874346D02*
X1041000D01*
X1041500Y873846*
X1103300Y892900D02*
X1109050D01*
Y885900*
X1109000Y877650D02*
X1109050Y877700D01*
Y885900*
X1094300Y891400D02*
X1096195D01*
X1096610Y891816*
X1059654Y877996D02*
X1059700Y877950D01*
Y874000*
X1080654Y877996D02*
Y873846D01*
X1066154Y877996D02*
X1066260Y877890D01*
Y874240*
X1050500Y857650D02*
X1050700Y857000D01*
X1031000Y864350D02*
Y867346D01*
X1031500Y867846*
X1034654*
X1037654Y870846*
X1041654*
X1042654Y871846*
Y873846*
X1043154Y874346*
X1045654*
X1106550Y904400D02*
X1106650Y904500D01*
X1114650*
X1031654Y877996D02*
X1031740D01*
Y874388*
X1091870Y838490D02*
X1092101D01*
Y845630*
X1092151Y845650*
X1088731Y838490D02*
Y845529D01*
X1088754Y845552*
X1082431Y838490D02*
Y845829D01*
X1082454Y845852*
Y848652*
X1083854Y850052*
X1086554*
X1089354Y852852*
X1091354*
X1094554Y856052*
Y856227*
X1098929Y860602*
X1100629*
X1101479Y861452*
Y862727*
X1045654Y877996D02*
Y874346D01*
X1038154Y877996D02*
X1039154Y876996D01*
Y874346*
X1173453Y896953D02*
X1171795Y898611D01*
Y902616*
X1172595Y903416*
Y916106*
X1161595Y908216D02*
Y911016D01*
X1162095*
X1116500Y873000D02*
Y876000D01*
X1129300Y893200D02*
Y889350D01*
X1130000*
X1129100D02*
Y896000D01*
X1130000*
X1129100Y889350D02*
X1129300D01*
Y893200*
X1178898Y900752D02*
Y909153D01*
X1179548Y909803*
X1182048*
X1183622Y911378*
X1178898Y900752D02*
X1182953Y896697D01*
Y889453*
X1186453Y885953*
X1186492*
X1187348Y885097*
X1182047Y900858D02*
Y906653D01*
X1183622Y908228*
X1182047Y900858D02*
X1185948Y896953D01*
Y891397*
X1135003Y881448D02*
X1135006Y881451D01*
X1135200*
Y881200*
X1136400Y880000*
X1138400*
X1140000Y881600*
Y896000*
X1142677Y905079D02*
Y898323D01*
X1145000Y896000*
X1130079Y908228D02*
X1131654Y906653D01*
Y903398*
X1135000Y900051*
Y900000*
X1164725Y911378D02*
X1166299Y909803D01*
Y900948*
X1166647Y900600*
Y898653*
X1174173Y908228D02*
X1175754Y906648D01*
X1173654Y899952D02*
X1175754Y902052D01*
Y906648*
X1130000Y882650D02*
Y874250D01*
X1145000Y889350D02*
Y896000D01*
Y882650D02*
Y874250D01*
X1121350Y904500D02*
X1124350D01*
X1125350Y905500*
Y907248*
X1126331Y908228*
X1130079*
X1115750Y892900D02*
X1115896Y893046D01*
X1123354*
X1126954Y896646*
Y903846*
X1130000Y900000D02*
X1132400Y897600D01*
Y893200*
X1145000Y900000D02*
X1147803D01*
X1151303Y896500*
X1158051*
X1160303Y894248*
Y882248*
X1135000Y896000D02*
Y890348D01*
X1135803Y889545*
Y884148*
X1115750Y885900D02*
X1119700D01*
X1120400Y885200*
Y883600*
X1158195Y911016D02*
X1158395D01*
Y908216*
X1186367Y838490D02*
Y846365D01*
X1186368*
X1187943Y847940*
X1183217Y838490D02*
Y849515D01*
X1183218*
X1184793Y851090*
X1180067Y838490D02*
Y846365D01*
X1180068*
X1181643Y847940*
X1176917Y838490D02*
Y849515D01*
X1176918*
X1178493Y851090*
X1173767Y838490D02*
Y846365D01*
X1173768*
X1175343Y847940*
X1161167Y838490D02*
Y849515D01*
X1161168*
X1162743Y851090*
X1158017Y838490D02*
Y846365D01*
X1158018*
X1159593Y847940*
X1154867Y838490D02*
Y849515D01*
X1154868*
X1159593Y854240*
X1162743*
X1151717Y838490D02*
Y846365D01*
X1151718*
X1153293Y847940*
X1145417Y838490D02*
Y846365D01*
X1145418*
X1146993Y847940*
X1142267Y838490D02*
Y849515D01*
X1142268*
X1143843Y851090*
X1139117Y838490D02*
X1139118Y838491D01*
Y846365*
X1140693Y847940*
X1135967Y838490D02*
X1135968Y838491D01*
Y849515*
X1137543Y851090*
X1132817Y838490D02*
Y846365D01*
X1132818*
X1134393Y847940*
X1129667Y838490D02*
Y849515D01*
X1129668*
X1131243Y851090*
X1126517Y838490D02*
Y846365D01*
X1126518*
X1128093Y847940*
X1123367Y838490D02*
Y849515D01*
X1123368*
X1124943Y851090*
X1117067Y838490D02*
Y846365D01*
X1117068*
X1118643Y847940*
X1113918Y838490D02*
Y849515D01*
X1113918*
X1115493Y851090*
X1110768Y838490D02*
Y846365D01*
X1110768*
X1112343Y847940*
X1116500Y880000D02*
X1118900D01*
X1120100Y881200*
X1120200*
X1205267Y838490D02*
Y852852D01*
X1205454*
X1189517Y838490D02*
Y846365D01*
X1189518*
X1191093Y847940*
X1289776D02*
X1291351Y846365D01*
Y841099*
X1288154Y851952D02*
X1288201Y851904D01*
Y838490*
X1294000Y913000D02*
Y916000D01*
X1299000Y903500D02*
Y900500D01*
X1294000Y903500D02*
Y900500D01*
X1348051Y838490D02*
Y846371D01*
X1349619Y847940*
X1341751Y838490D02*
Y853782D01*
X1343319Y855350*
X1338601Y838490D02*
Y849515D01*
X1340176Y851090*
X1335451Y838490D02*
Y846365D01*
X1337026Y847940*
X1332301Y838490D02*
Y849515D01*
X1333876Y851090*
X1329151Y838490D02*
Y846365D01*
X1330726Y847940*
X1326001Y838490D02*
Y849515D01*
X1327576Y851090*
X1322851Y838490D02*
Y846365D01*
X1324426Y847940*
X1319701Y838490D02*
Y849515D01*
X1321276Y851090*
X1316551Y838490D02*
Y846365D01*
X1318126Y847940*
X1313401Y838490D02*
Y854325D01*
X1314976Y855900*
X1307101Y838490D02*
Y849515D01*
X1308676Y851090*
X1303951Y838490D02*
Y846365D01*
X1305526Y847940*
X1300801Y838490D02*
Y849515D01*
X1302376Y851090*
X1297651Y838490D02*
Y846365D01*
X1299226Y847940*
X1294501Y838490D02*
Y849515D01*
X1296076Y851090*
X1363801Y838490D02*
Y849521D01*
X1365369Y851090*
X1360651Y838490D02*
Y846371D01*
X1362219Y847940*
X1354351Y838490D02*
Y846371D01*
X1355919Y847940*
X1099453Y983953D02*
X1100953D01*
X1102953Y985953*
X1106354*
X1107354Y986953*
Y989046*
X1106750Y914500D02*
X1107250Y914000D01*
X1114650*
X1085481Y964390D02*
X1090654D01*
Y964252*
X1142677Y927126D02*
Y927298D01*
X1144245Y928866*
Y931366*
X1144725Y931846*
X1147978*
X1148448Y932316*
Y934300*
X1152126Y933425D02*
Y933977D01*
X1152448Y934300*
X1137154Y967646D02*
Y970299D01*
X1137252Y968000*
X1137154Y967646D02*
X1137953Y966847D01*
Y950748*
X1139527Y949173*
X1127352Y946797D02*
X1128118Y946032D01*
Y945228*
X1128897Y944449*
X1137955*
X1139529Y946022*
X1127352Y946797D02*
X1128154Y947598D01*
X1137952*
X1139529Y946022*
X1150551Y950748D02*
Y948400D01*
X1151351Y947600*
X1152000*
Y947500*
X1153154Y946346*
X1121300Y991900D02*
Y992880D01*
X1123520Y995100*
X1117303Y992248D02*
Y993756D01*
X1118795Y995248*
X1130079Y917677D02*
X1131653Y916102D01*
X1134172*
X1134803Y915471*
Y903848*
X1135903Y902748*
Y902648*
X1137352*
X1140000Y900000*
X1175654Y969846D02*
X1178898Y966602D01*
Y963347*
X1180473Y961772*
X1183622Y917677D02*
X1185197Y915846D01*
Y900453*
X1188453Y897197*
Y890953*
X1190303Y889102*
Y879248*
X1171024Y917677D02*
X1172595Y916106D01*
X1180473Y958622D02*
X1182050Y960200D01*
Y968297*
X1182949Y969195*
Y970397*
X1121548Y986297D02*
X1125669Y990418D01*
Y1005322*
X1172697Y972551D02*
Y970051D01*
X1175748Y967000*
Y957500*
X1176197Y957051*
X1185201*
X1186772Y958622*
X1188954Y987846D02*
Y997635D01*
X1189354Y998035*
Y1008246*
X1186772Y917677D02*
X1188346Y915996D01*
Y899698*
X1189546Y898498*
X1191751*
X1192851Y899598*
X1193051*
X1180473Y927126D02*
X1182046Y925552D01*
X1190948*
X1193303Y923197*
X1180473Y930275D02*
X1182050Y928698D01*
X1190452*
X1195392Y923758*
X1195844*
X1198703Y920898*
X1183622Y936575D02*
X1185351Y934846D01*
X1188654*
X1192802Y930698*
X1192803*
X1196857*
X1198703Y928698*
X1183622Y964921D02*
Y967550D01*
X1184636Y968564*
X1188371*
X1189154Y969346*
X1186776Y939723D02*
Y939965D01*
X1188105Y941298*
X1191805*
X1192354Y941846*
X1196154*
X1186772Y964921D02*
X1187000Y965000D01*
X1138300Y981930D02*
X1142654D01*
Y983096*
X1152126Y920827D02*
Y922400D01*
X1152500*
X1152126Y917677D02*
X1152149Y917700D01*
X1152500*
X1152126Y930275D02*
X1152448D01*
Y929350*
X1164725Y927126D02*
Y927918D01*
X1165154Y928346*
X1121350Y914000D02*
X1124850D01*
X1128527Y917677*
X1130079*
X1125154Y946846D02*
X1127303D01*
X1127352Y946797*
X1162095Y915016D02*
X1163295Y916116D01*
X1166413*
X1167874Y917677*
X1160520Y928252D02*
X1161575Y927126D01*
X1160654Y975996D02*
Y972300D01*
X1161599*
Y972198*
X1158195Y915016D02*
Y917716D01*
X1159731Y919252*
X1163258*
X1164725Y917786*
Y917677*
X1240500Y964700D02*
Y970000D01*
X1244451Y945896D02*
Y948951D01*
X1244500Y949000*
X1244451Y945896D02*
X1246850Y943498D01*
Y939500*
X1192903Y920723D02*
Y917298D01*
X1194803Y915398*
X1197603*
X1198703Y916498*
X1192903Y920723D02*
X1193303Y921123D01*
Y923197*
X1244351Y954798D02*
X1244500Y954649D01*
Y949000*
X1244453Y974953D02*
X1244500Y974906D01*
Y970000*
X1206354Y916846D02*
X1209154D01*
X1244500Y970000D02*
X1246700D01*
X1247809Y968891*
Y949175*
X1202703Y916498D02*
Y913792D01*
X1205246Y911249*
X1202703Y920898D02*
X1204651Y922846D01*
X1207851*
X1202703Y928698D02*
X1206602D01*
X1210354Y924946*
X1213154Y916846D02*
X1216154D01*
X1240000Y975000D02*
X1244406D01*
X1244453Y974953*
X1246850Y939500D02*
X1253500D01*
X1240150D02*
Y936500D01*
X1242400Y934250*
X1243750*
X1243800Y934300*
X1294000Y922500D02*
Y920000D01*
X1299000D02*
Y922500D01*
Y916000D02*
Y913000D01*
X1095953Y997953D02*
X1105854D01*
X1107354Y996453*
Y994146*
X1179000Y1009800D02*
X1179131Y1009669D01*
Y1005376*
X1117781Y999262D02*
X1117795Y999276D01*
Y1005322*
X1117781Y999262D02*
X1118795Y998248D01*
Y995248*
X1111103Y995957D02*
Y985448D01*
X1118203Y978348*
X1123496*
X1123551Y978403*
X1111103Y995957D02*
X1114646Y999500D01*
Y1005322*
X1122518Y1019653D02*
X1122520D01*
Y1015716*
X1109900Y1019300D02*
X1109921Y1019200D01*
Y1015716*
X1120900Y996000D02*
X1121303Y996045D01*
X1119368Y1019653D02*
X1119370D01*
Y1015716*
X1114697Y996551D02*
X1116162Y998565D01*
X1116221Y998629*
Y1005322*
X1114643Y1011778D02*
X1114646D01*
Y1015716*
X1169054Y1005846D02*
X1169107Y1005900D01*
X1172154Y1005846*
X1150868Y1019653D02*
Y1021866D01*
X1151000Y1022000*
X1184303Y1009748D02*
X1185898D01*
X1188049Y1007597*
Y999297*
X1125668Y1019653D02*
X1125669D01*
Y1015716*
X1187354Y1012646D02*
Y1010246D01*
X1189354Y1008246*
X1128818Y1019653D02*
X1128819D01*
Y1015716*
X1131968Y1019653D02*
X1131969D01*
Y1015716*
X1116200Y1019300D02*
X1116221Y1019100D01*
Y1015716*
X1155591D02*
Y1012016D01*
X1155596*
X1155591Y1005322D02*
Y1001390D01*
X1155596Y1001385*
X1154016Y1015716D02*
Y1019651D01*
X1154018Y1019653*
X1154016Y1005322D02*
Y1009254D01*
X1154021Y1009260*
X1152441Y1015716D02*
Y1012016D01*
X1152446*
X1152441Y1005322D02*
X1152500Y1005263D01*
Y998000*
X1150866Y1015716D02*
X1150868D01*
Y1019653*
X1150866Y1005322D02*
Y1009254D01*
X1150871Y1009260*
X1149291Y1015716D02*
Y1012016D01*
X1149296*
X1149291Y1005322D02*
Y1001598D01*
X1149351*
X1147717Y1015716D02*
Y1019652D01*
X1147718Y1019653*
X1147717Y1005322D02*
Y1008866D01*
X1147721*
X1146142Y1015716D02*
Y1012016D01*
X1146146*
X1146142Y1005322D02*
Y1001389D01*
X1146146Y1001385*
X1144567Y1015716D02*
Y1019653D01*
X1144568*
X1144567Y1005322D02*
Y1008866D01*
X1144571*
X1142992Y1015716D02*
Y1012016D01*
X1142996*
X1142992Y1005322D02*
Y1001389D01*
X1142996Y1001385*
X1141417Y1005322D02*
Y1009256D01*
X1141421Y1009260*
X1139843Y1015716D02*
Y1012016D01*
X1139846*
X1139843Y1005322D02*
Y1001385D01*
X1139846*
X1138268Y1015716D02*
Y1019653D01*
X1138268*
Y1005322D02*
Y1009260D01*
X1138271*
X1136693Y1015716D02*
Y1012016D01*
X1136696*
X1136693Y1005322D02*
Y1001385D01*
X1136696*
X1135118Y1015716D02*
Y1019653D01*
X1135118*
Y1005322D02*
Y1009260D01*
X1135121*
X1133543Y1015716D02*
X1133546D01*
Y1012016*
X1133543Y1005322D02*
Y1001388D01*
X1133546Y1001385*
X1131969Y1005322D02*
Y1008866D01*
X1131971*
X1130394Y1015716D02*
Y1012016D01*
X1130396*
X1128819Y1005322D02*
Y995551D01*
X1129463Y994908*
X1138292*
X1138554Y994646*
X1127244Y1015716D02*
Y1012016D01*
X1127246*
X1127244Y1005322D02*
Y994849D01*
X1128425Y993668*
X1132047*
X1133622Y992093*
Y991397*
X1134322Y990697*
X1136699*
X1136800Y990798*
X1138599*
X1141699Y993898*
X1148446*
X1150446Y991898*
Y990098*
X1152398Y988146*
X1154154*
X1154954Y988946*
Y993102*
X1155354Y993502*
Y996646*
X1124095Y1015716D02*
Y1021716D01*
Y1005322D02*
Y1008816D01*
X1122520Y1005322D02*
Y998900D01*
X1123520Y997900*
Y995100*
X1120945Y1015716D02*
Y1012016D01*
X1120946*
X1120945Y1005322D02*
Y1002248D01*
X1121303Y1001890*
Y996045*
X1119370Y1005322D02*
Y1000130D01*
X1119400Y1000100*
X1117795Y1015716D02*
Y1012016D01*
X1117796*
X1113071Y1015716D02*
Y1019100D01*
X1113100Y1019200*
X1113071Y1005322D02*
Y1009259D01*
Y1009260*
X1111496Y1015716D02*
Y1011778D01*
X1111496*
Y1005322D02*
Y1001385D01*
X1111496*
X1109921Y1005322D02*
Y1009260D01*
X1179131Y1002424D02*
Y1000697D01*
X1180231Y999597*
Y998969*
X1181754Y997446*
X1186198*
X1188049Y999297*
X1183069Y1002424D02*
X1184303D01*
X1184803Y1001924*
Y1001046*
X1185354Y1000498*
Y999446*
X1183069Y1005376D02*
X1185175D01*
X1186303Y1004248*
Y1002748*
X1181100Y1005376D02*
Y1007000D01*
X1181559Y1007459*
Y1009859*
X1152500Y994000D02*
X1153197D01*
Y990051*
X1172154Y1001846D02*
X1175226D01*
X1175803Y1002424*
X1179131*
X1172154Y1005846D02*
Y1008200D01*
X1172700Y1008746*
Y1011100*
X1151000Y1026000D02*
X1153160Y1028160D01*
X1154996*
X1157156Y1026000*
X1157171Y1026016*
X1191398Y1000746D02*
X1192954Y1002302D01*
Y1010402*
X1194498Y1011946*
X1197898*
X1199551Y1013600*
Y1017998*
X1193954Y999852D02*
X1194000Y999806D01*
X1222654Y1018752D02*
X1222863Y1018543D01*
X1225807*
X1222418Y1010940D02*
X1222433Y1010954D01*
X1224918*
X1225807Y1011843*
X1223404Y999846D02*
X1223500Y999750D01*
X1218807Y1018693D02*
X1218866Y1018752D01*
X1222654*
X1314154Y1003252D02*
Y1000346D01*
X1309154Y1003252D02*
Y1000346D01*
X1339654Y999846D02*
Y1003252D01*
X1314154Y1000346D02*
Y1003252D01*
G54D275*
X1218807Y1014693D02*
X1221594D01*
X1221654Y1014752*
G54D276*
X1194000Y999806D02*
Y998600D01*
X1195100Y997500*
X1200054*
X1202400Y999846*
X1213154*
Y1004052*
G54D277*
X1351201Y838490D02*
Y849521D01*
X1352769Y851090*
X1130394Y1005322D02*
Y1000406D01*
X1133754Y997046*
G54D303*
X1179131Y1005376D03*
X1181100D03*
X1183069D03*
Y1002424D03*
X1181100D03*
X1179131D03*
G54D304*
X1109921Y1005322D03*
Y1015716D03*
X1111496Y1005322D03*
Y1015716D03*
X1113071Y1005322D03*
Y1015716D03*
X1114646Y1005322D03*
Y1015716D03*
X1116221Y1005322D03*
Y1015716D03*
X1117795Y1005322D03*
Y1015716D03*
X1119370Y1005322D03*
Y1015716D03*
X1120945Y1005322D03*
Y1015716D03*
X1122520Y1005322D03*
Y1015716D03*
X1124095Y1005322D03*
Y1015716D03*
X1125669Y1005322D03*
Y1015716D03*
X1127244Y1005322D03*
Y1015716D03*
X1128819Y1005322D03*
Y1015716D03*
X1130394Y1005322D03*
Y1015716D03*
X1131969Y1005322D03*
Y1015716D03*
X1133543Y1005322D03*
Y1015716D03*
X1135118Y1005322D03*
Y1015716D03*
X1136693Y1005322D03*
Y1015716D03*
X1138268Y1005322D03*
Y1015716D03*
X1139843Y1005322D03*
Y1015716D03*
X1141417Y1005322D03*
Y1015716D03*
X1142992Y1005322D03*
Y1015716D03*
X1144567Y1005322D03*
Y1015716D03*
X1146142Y1005322D03*
Y1015716D03*
X1147717Y1005322D03*
Y1015716D03*
X1149291Y1005322D03*
Y1015716D03*
X1150866Y1005322D03*
Y1015716D03*
X1152441Y1005322D03*
Y1015716D03*
X1154016Y1005322D03*
Y1015716D03*
X1155591Y1005322D03*
Y1015716D03*
G74*
X0Y0D02*
M02*
