*
*
G04 PADS9.1 Build Number: 384028 generated Gerber (RS-274-X) file*
G04 PC Version=2.1*
*
%IN "{TEX116}F2806xISOcontro"*%
*
%MOIN*%
*
%FSLAX35Y35*%
*
*
*
*
G04 PC Standard Apertures*
*
*
G04 Thermal Relief Aperture macro.*
%AMTER*
1,1,$1,0,0*
1,0,$1-$2,0,0*
21,0,$3,$4,0,0,45*
21,0,$3,$4,0,0,135*
%
*
*
G04 Annular Aperture macro.*
%AMANN*
1,1,$1,0,0*
1,0,$2,0,0*
%
*
*
G04 Odd Aperture macro.*
%AMODD*
1,1,$1,0,0*
1,0,$1-0.005,0,0*
%
*
*
G04 PC Custom Aperture Macros*
*
*
*
*
*
*
G04 PC Aperture Table*
*
%ADD223C,0*%
%ADD224C,0.01*%
%ADD225C,0.005*%
%ADD229C,0.008*%
%ADD233C,0.006*%
*
*
*
*
G04 PC Circuitry*
G04 Layer Name {TEX116}F2806xISOcontro - circuitry*
%LPD*%
*
*
G04 PC Custom Flashes*
G04 Layer Name {TEX116}F2806xISOcontro - flashes*
%LPD*%
*
*
G04 PC Circuitry*
G04 Layer Name {TEX116}F2806xISOcontro - circuitry*
%LPD*%
*
G54D223*
G54D224*
G01X1293580Y664184D02*
Y654341D01*
X1297670*
X1303466Y664184D02*
X1300739Y654341D01*
X1303466Y664184D02*
X1306193Y654341D01*
X1301761Y657622D02*
X1305170D01*
X1309261Y664184D02*
X1311989Y659497D01*
Y654341*
X1314716Y664184D02*
X1311989Y659497D01*
X1317784Y664184D02*
Y654341D01*
Y664184D02*
X1322216D01*
X1317784Y659497D02*
X1320511D01*
X1317784Y654341D02*
X1322216D01*
X1325284Y664184D02*
Y654341D01*
Y664184D02*
X1328352D01*
X1329375Y663716*
X1329716Y663247*
X1330057Y662309*
Y661372*
X1329716Y660434*
X1329375Y659966*
X1328352Y659497*
X1325284*
X1327670D02*
X1330057Y654341D01*
X827600Y692544D02*
Y682700D01*
Y692544D02*
X830668D01*
X831691Y692075*
X832032Y691606*
X832373Y690669*
Y689263*
X832373D02*
X832032Y688325D01*
X831691Y687856*
X830668Y687388*
X830668D02*
X827600D01*
X835441Y692544D02*
Y682700D01*
X840214Y692544D02*
Y682700D01*
X835441Y687856D02*
X840214D01*
X845327Y692544D02*
X844645Y692075D01*
X843964Y691138*
X843964D02*
X843623Y690200D01*
X843282Y688794*
Y686450*
X843623Y685044*
X843964Y684106*
X844645Y683169*
X845327Y682700*
X846691*
X847373Y683169*
X848055Y684106*
X848395Y685044*
X848736Y686450*
Y688794*
X848395Y690200*
X848055Y691138*
X848055D02*
X847373Y692075D01*
X846691Y692544*
X845327*
X851805D02*
Y682700D01*
Y692544D02*
X856577Y682700D01*
Y692544D02*
Y682700D01*
X859645Y692544D02*
Y682700D01*
Y692544D02*
X864077D01*
X859645Y687856D02*
X862373D01*
X859645Y682700D02*
X864077D01*
X867486Y689263D02*
X867145Y688794D01*
X867486Y688325*
X867827Y688794*
X867486Y689263*
Y683638D02*
X867145Y683169D01*
X867486Y682700*
X867827Y683169*
X867486Y683638*
X883168Y692544D02*
X879759D01*
X879418Y688325*
X879759Y688794*
X880782Y689263*
X880782D02*
X881805D01*
X881805D02*
X882827Y688794D01*
X883509Y687856*
X883850Y686450*
X883509Y685513*
X883509D02*
X883168Y684106D01*
X882486Y683169*
X881464Y682700*
X880441*
X879418Y683169*
X879077Y683638*
X879077D02*
X878736Y684575D01*
X888964Y692544D02*
X887941Y692075D01*
X887259Y690669*
X886918Y688325*
Y686919*
X887259Y684575*
X887941Y683169*
X888964Y682700*
X889645*
X890668Y683169*
X891350Y684575*
X891691Y686919*
Y688325*
X891350Y690669*
X890668Y692075*
X889645Y692544*
X888964*
X896464D02*
X895441Y692075D01*
X895100Y691138*
X895100D02*
Y690200D01*
X895441Y689263*
X895441D02*
X896123Y688794D01*
X897486Y688325*
X898509Y687856*
X899191Y686919*
X899532Y685981*
Y684575*
X899191Y683638*
X899191D02*
X898850Y683169D01*
X897827Y682700*
X896464*
X895441Y683169*
X895100Y683638*
X895100D02*
X894759Y684575D01*
Y685981*
X895100Y686919*
X895782Y687856*
X896805Y688325*
X898168Y688794*
X898850Y689263*
X898850D02*
X899191Y690200D01*
Y691138*
X899191D02*
X898850Y692075D01*
X897827Y692544*
X896464*
X902941Y683638D02*
X902600Y683169D01*
X902941Y682700*
X903282Y683169*
X902941Y683638*
X910782Y689263D02*
X910441Y687856D01*
X909759Y686919*
X908736Y686450*
X908395*
X907373Y686919*
X906691Y687856*
X906350Y689263*
X906350D02*
Y689731D01*
X906691Y691138*
X906691D02*
X907373Y692075D01*
X908395Y692544*
X908736*
X909759Y692075*
X910441Y691138*
X910441D02*
X910782Y689263D01*
X910782D02*
Y686919D01*
X910441Y684575*
X909759Y683169*
X908736Y682700*
X908055*
X907032Y683169*
X906691Y684106*
X917259Y692544D02*
X913850Y685981D01*
X918964*
X917259Y692544D02*
Y682700D01*
X926805Y692544D02*
X923395Y682700D01*
X922032Y692544D02*
X926805D01*
X930214Y683638D02*
X929873Y683169D01*
X930214Y682700*
X930555Y683169*
X930214Y683638*
X933964Y690200D02*
Y690669D01*
X934305Y691606*
X934645Y692075*
X935327Y692544*
X936691*
X937373Y692075*
X937714Y691606*
X938055Y690669*
Y689731*
X937714Y688794*
X937032Y687388*
X937032D02*
X933623Y682700D01*
X938395*
X946236Y692544D02*
X942827Y682700D01*
X941464Y692544D02*
X946236D01*
X951350D02*
X950327Y692075D01*
X949645Y690669*
X949305Y688325*
Y686919*
X949645Y684575*
X950327Y683169*
X951350Y682700*
X952032*
X953055Y683169*
X953736Y684575*
X954077Y686919*
Y688325*
X953736Y690669*
X953055Y692075*
X952032Y692544*
X951350*
X961577Y689263D02*
X961236Y687856D01*
X960555Y686919*
X959532Y686450*
X959191*
X958168Y686919*
X957486Y687856*
X957145Y689263*
X957145D02*
Y689731D01*
X957486Y691138*
X957486D02*
X958168Y692075D01*
X959191Y692544*
X959532*
X960555Y692075*
X961236Y691138*
X961236D02*
X961577Y689263D01*
X961577D02*
Y686919D01*
X961236Y684575*
X960555Y683169*
X959532Y682700*
X958850*
X957827Y683169*
X957486Y684106*
X969600Y719844D02*
Y710000D01*
Y719844D02*
X972327Y710000D01*
X975055Y719844D02*
X972327Y710000D01*
X975055Y719844D02*
Y710000D01*
X978123Y719844D02*
X978464Y719375D01*
X978805Y719844*
X978464Y720313*
X978464D02*
X978123Y719844D01*
X978464Y716563D02*
Y710000D01*
X985964Y719844D02*
Y710000D01*
Y715156D02*
X985282Y716094D01*
X984600Y716563*
X984600D02*
X983577D01*
X983577D02*
X982895Y716094D01*
X982214Y715156*
X981873Y713750*
Y712813*
X981873D02*
X982214Y711406D01*
X982895Y710469*
X983577Y710000*
X984600*
X985282Y710469*
X985964Y711406*
X993123Y719844D02*
Y710000D01*
Y715156D02*
X992441Y716094D01*
X991759Y716563*
X991759D02*
X990736D01*
X990736D02*
X990055Y716094D01*
X989373Y715156*
X989032Y713750*
Y712813*
X989032D02*
X989373Y711406D01*
X990055Y710469*
X990736Y710000*
X991759*
X992441Y710469*
X993123Y711406*
X996191Y719844D02*
Y710000D01*
X999259Y713750D02*
X1003350D01*
Y714688*
X1003350D02*
X1003009Y715625D01*
X1002668Y716094*
X1001986Y716563*
X1001986D02*
X1000964D01*
X1000964D02*
X1000282Y716094D01*
X999600Y715156*
X999259Y713750*
Y712813*
X999259D02*
X999600Y711406D01*
X1000282Y710469*
X1000964Y710000*
X1001986*
X1002668Y710469*
X1003350Y711406*
X1006418Y719844D02*
Y710000D01*
Y715156D02*
X1007100Y716094D01*
X1007782Y716563*
X1007782D02*
X1008805D01*
X1008805D02*
X1009486Y716094D01*
X1010168Y715156*
X1010509Y713750*
Y712813*
X1010509D02*
X1010168Y711406D01*
X1009486Y710469*
X1008805Y710000*
X1007782*
X1007100Y710469*
X1006418Y711406*
X1015282Y716563D02*
X1014600Y716094D01*
X1013918Y715156*
X1013577Y713750*
Y712813*
X1013577D02*
X1013918Y711406D01*
X1014600Y710469*
X1015282Y710000*
X1016305*
X1016986Y710469*
X1017668Y711406*
X1018009Y712813*
X1018009D02*
Y713750D01*
X1017668Y715156*
X1016986Y716094*
X1016305Y716563*
X1016305D02*
X1015282D01*
X1021077D02*
Y710000D01*
Y713750D02*
X1021418Y715156D01*
X1022100Y716094*
X1022782Y716563*
X1022782D02*
X1023805D01*
X1028577D02*
X1027895Y716094D01*
X1027214Y715156*
X1026873Y713750*
Y712813*
X1026873D02*
X1027214Y711406D01*
X1027895Y710469*
X1028577Y710000*
X1029600*
X1030282Y710469*
X1030964Y711406*
X1031305Y712813*
X1031305D02*
Y713750D01*
X1030964Y715156*
X1030282Y716094*
X1029600Y716563*
X1029600D02*
X1028577D01*
X1035055Y710469D02*
X1034714Y710000D01*
X1034373Y710469*
X1034714Y710938*
X1034714D02*
X1035055Y710469D01*
Y709531*
X1034714Y708594*
X1034373Y708125*
X1045964Y719844D02*
Y710000D01*
Y719844D02*
X1048691Y710000D01*
X1051418Y719844D02*
X1048691Y710000D01*
X1051418Y719844D02*
Y710000D01*
X1057214Y719844D02*
X1054486Y710000D01*
X1057214Y719844D02*
X1059941Y710000D01*
X1055509Y713281D02*
X1058918D01*
X1072895Y719844D02*
X1071873Y719375D01*
X1071191Y717969*
X1070850Y715625*
Y714219*
X1071191Y711875*
X1071873Y710469*
X1072895Y710000*
X1073577*
X1074600Y710469*
X1075282Y711875*
X1075623Y714219*
Y715625*
X1075282Y717969*
X1074600Y719375*
X1073577Y719844*
X1072895*
X1079032Y717500D02*
Y717969D01*
X1079373Y718906*
X1079714Y719375*
X1080395Y719844*
X1081759*
X1082441Y719375*
X1082782Y718906*
X1083123Y717969*
Y717031*
X1082782Y716094*
X1082100Y714688*
X1082100D02*
X1078691Y710000D01*
X1083464*
X1087214Y719844D02*
X1090964D01*
X1088918Y716094*
X1089941*
X1090623Y715625*
X1090964Y715156*
X1091305Y713750*
Y712813*
X1091305D02*
X1090964Y711406D01*
X1090282Y710469*
X1089259Y710000*
X1088236*
X1087214Y710469*
X1086873Y710938*
X1086873D02*
X1086532Y711875D01*
X1097782Y719844D02*
X1094373Y713281D01*
X1099486*
X1097782Y719844D02*
Y710000D01*
X1106645Y718438D02*
X1106305Y719375D01*
X1105282Y719844*
X1104600*
X1103577Y719375*
X1102895Y717969*
X1102555Y715625*
Y713281*
X1102895Y711406*
X1103577Y710469*
X1104600Y710000*
X1104941*
X1105964Y710469*
X1106645Y711406*
X1106986Y712813*
X1106986D02*
Y713281D01*
X1106645Y714688*
X1106645D02*
X1105964Y715625D01*
X1104941Y716094*
X1104600*
X1103577Y715625*
X1102895Y714688*
X1102895D02*
X1102555Y713281D01*
X975400Y735269D02*
X976082Y735738D01*
X976082D02*
X977105Y737144D01*
Y727300*
X980173Y735269D02*
X980855Y735738D01*
X980855D02*
X981877Y737144D01*
Y727300*
X986650Y737144D02*
X985627Y736675D01*
X985286Y735738*
X985286D02*
Y734800D01*
X985627Y733863*
X985627D02*
X986309Y733394D01*
X987673Y732925*
X988695Y732456*
X989377Y731519*
X989718Y730581*
Y729175*
X989377Y728238*
X989377D02*
X989036Y727769D01*
X988014Y727300*
X986650*
X985627Y727769*
X985286Y728238*
X985286D02*
X984945Y729175D01*
Y730581*
X985286Y731519*
X985968Y732456*
X986991Y732925*
X988355Y733394*
X989036Y733863*
X989036D02*
X989377Y734800D01*
Y735738*
X989377D02*
X989036Y736675D01*
X988014Y737144*
X986650*
X997218D02*
X993809D01*
X993468Y732925*
X993809Y733394*
X994832Y733863*
X994832D02*
X995855D01*
X995855D02*
X996877Y733394D01*
X997559Y732456*
X997900Y731050*
X997559Y730113*
X997559D02*
X997218Y728706D01*
X996536Y727769*
X995514Y727300*
X994491*
X993468Y727769*
X993127Y728238*
X993127D02*
X992786Y729175D01*
X1013923Y734800D02*
X1013582Y735738D01*
X1013582D02*
X1012900Y736675D01*
X1012218Y737144*
X1010855*
X1010173Y736675*
X1009491Y735738*
X1009491D02*
X1009150Y734800D01*
X1008809Y733394*
Y731050*
X1009150Y729644*
X1009491Y728706*
X1010173Y727769*
X1010855Y727300*
X1012218*
X1012900Y727769*
X1013582Y728706*
X1013923Y729644*
X1016991Y731050D02*
X1021082D01*
Y731988*
X1021082D02*
X1020741Y732925D01*
X1020400Y733394*
X1019718Y733863*
X1019718D02*
X1018695D01*
X1018695D02*
X1018014Y733394D01*
X1017332Y732456*
X1016991Y731050*
Y730113*
X1016991D02*
X1017332Y728706D01*
X1018014Y727769*
X1018695Y727300*
X1019718*
X1020400Y727769*
X1021082Y728706*
X1024150Y733863D02*
Y727300D01*
Y731988D02*
X1025173Y733394D01*
X1025855Y733863*
X1025855D02*
X1026877D01*
X1026877D02*
X1027559Y733394D01*
X1027900Y731988*
X1027900D02*
Y727300D01*
X1031991Y737144D02*
Y729175D01*
X1032332Y727769*
X1033014Y727300*
X1033695*
X1030968Y733863D02*
X1033355D01*
X1036764D02*
Y727300D01*
Y731050D02*
X1037105Y732456D01*
X1037786Y733394*
X1038468Y733863*
X1038468D02*
X1039491D01*
X1042559Y731050D02*
X1046650D01*
Y731988*
X1046650D02*
X1046309Y732925D01*
X1045968Y733394*
X1045286Y733863*
X1045286D02*
X1044264D01*
X1044264D02*
X1043582Y733394D01*
X1042900Y732456*
X1042559Y731050*
Y730113*
X1042559D02*
X1042900Y728706D01*
X1043582Y727769*
X1044264Y727300*
X1045286*
X1045968Y727769*
X1046650Y728706*
X1062332Y735738D02*
X1061650Y736675D01*
X1060627Y737144*
X1059264*
X1058241Y736675*
X1057559Y735738*
X1057559D02*
Y734800D01*
X1057900Y733863*
X1057900D02*
X1058241Y733394D01*
X1058923Y732925*
X1060968Y731988*
X1060968D02*
X1061650Y731519D01*
X1061991Y731050*
X1062332Y730113*
X1062332D02*
Y728706D01*
X1061650Y727769*
X1060627Y727300*
X1059264*
X1058241Y727769*
X1057559Y728706*
X1066423Y737144D02*
Y729175D01*
X1066764Y727769*
X1067445Y727300*
X1068127*
X1065400Y733863D02*
X1067786D01*
X1071195D02*
Y727300D01*
Y731050D02*
X1071536Y732456D01*
X1072218Y733394*
X1072900Y733863*
X1072900D02*
X1073923D01*
X1076991Y731050D02*
X1081082D01*
Y731988*
X1081082D02*
X1080741Y732925D01*
X1080400Y733394*
X1079718Y733863*
X1079718D02*
X1078695D01*
X1078695D02*
X1078014Y733394D01*
X1077332Y732456*
X1076991Y731050*
Y730113*
X1076991D02*
X1077332Y728706D01*
X1078014Y727769*
X1078695Y727300*
X1079718*
X1080400Y727769*
X1081082Y728706*
X1084150Y731050D02*
X1088241D01*
Y731988*
X1088241D02*
X1087900Y732925D01*
X1087559Y733394*
X1086877Y733863*
X1086877D02*
X1085855D01*
X1085855D02*
X1085173Y733394D01*
X1084491Y732456*
X1084150Y731050*
Y730113*
X1084150D02*
X1084491Y728706D01*
X1085173Y727769*
X1085855Y727300*
X1086877*
X1087559Y727769*
X1088241Y728706*
X1092332Y737144D02*
Y729175D01*
X1092673Y727769*
X1093355Y727300*
X1094036*
X1091309Y733863D02*
X1093695D01*
X1167136Y664013D02*
X1168045Y664638D01*
X1168045D02*
X1169409Y666513D01*
X1169409D02*
Y653387D01*
X1181682Y669013D02*
X1173500Y649012D01*
X1185773Y664013D02*
X1186682Y664638D01*
X1186682D02*
X1188045Y666513D01*
X1188045D02*
Y653387D01*
X1194864Y666513D02*
X1193500Y665888D01*
X1193500D02*
X1192591Y664013D01*
X1192591D02*
X1192136Y660887D01*
X1192136D02*
Y659012D01*
X1192136D02*
X1192591Y655887D01*
X1192591D02*
X1193500Y654012D01*
X1193500D02*
X1194864Y653387D01*
X1194864D02*
X1195773D01*
X1195773D02*
X1197136Y654012D01*
X1197136D02*
X1198045Y655887D01*
X1198045D02*
X1198500Y659012D01*
X1198500D02*
Y660887D01*
X1198500D02*
X1198045Y664013D01*
X1198045D02*
X1197136Y665888D01*
X1197136D02*
X1195773Y666513D01*
X1195773D02*
X1194864D01*
X1210773Y669013D02*
X1202591Y649012D01*
X1214864Y664013D02*
X1215773Y664638D01*
X1215773D02*
X1217136Y666513D01*
X1217136D02*
Y653387D01*
X1225773Y666513D02*
X1221227Y657762D01*
X1221227D02*
X1228045D01*
X1225773Y666513D02*
Y653387D01*
X838909Y666344D02*
Y658844D01*
X838568Y657438*
X838568D02*
X838227Y656969D01*
X837545Y656500*
X836864*
X836182Y656969*
X835841Y657438*
X835841D02*
X835500Y658844D01*
Y659781*
X843682Y663063D02*
X843000Y662594D01*
X842318Y661656*
X841977Y660250*
Y659313*
X841977D02*
X842318Y657906D01*
X843000Y656969*
X843682Y656500*
X844705*
X845386Y656969*
X846068Y657906*
X846409Y659313*
X846409D02*
Y660250D01*
X846068Y661656*
X845386Y662594*
X844705Y663063*
X844705D02*
X843682D01*
X849477Y666344D02*
Y656500D01*
Y661656D02*
X850159Y662594D01*
X850841Y663063*
X850841D02*
X851864D01*
X851864D02*
X852545Y662594D01*
X853227Y661656*
X853568Y660250*
Y659313*
X853568D02*
X853227Y657906D01*
X852545Y656969*
X851864Y656500*
X850841*
X850159Y656969*
X849477Y657906*
X864477Y666344D02*
Y656500D01*
Y666344D02*
X869250Y656500D01*
Y666344D02*
Y656500D01*
X874023Y663063D02*
X873341Y662594D01*
X872659Y661656*
X872318Y660250*
Y659313*
X872318D02*
X872659Y657906D01*
X873341Y656969*
X874023Y656500*
X875045*
X875727Y656969*
X876409Y657906*
X876750Y659313*
X876750D02*
Y660250D01*
X876409Y661656*
X875727Y662594*
X875045Y663063*
X875045D02*
X874023D01*
X880159D02*
X879818Y662594D01*
X880159Y662125*
X880500Y662594*
X880159Y663063*
Y657438D02*
X879818Y656969D01*
X880159Y656500*
X880500Y656969*
X880159Y657438*
X1041000Y663544D02*
Y653700D01*
Y663544D02*
X1043386D01*
X1044409Y663075*
X1045091Y662138*
X1045091D02*
X1045432Y661200D01*
X1045773Y659794*
Y657450*
X1045432Y656044*
X1045091Y655106*
X1044409Y654169*
X1043386Y653700*
X1041000*
X1052932Y660263D02*
Y653700D01*
Y658856D02*
X1052250Y659794D01*
X1051568Y660263*
X1051568D02*
X1050545D01*
X1050545D02*
X1049864Y659794D01*
X1049182Y658856*
X1048841Y657450*
Y656513*
X1048841D02*
X1049182Y655106D01*
X1049864Y654169*
X1050545Y653700*
X1051568*
X1052250Y654169*
X1052932Y655106*
X1057023Y663544D02*
Y655575D01*
X1057364Y654169*
X1058045Y653700*
X1058727*
X1056000Y660263D02*
X1058386D01*
X1061795Y657450D02*
X1065886D01*
Y658388*
X1065886D02*
X1065545Y659325D01*
X1065205Y659794*
X1064523Y660263*
X1064523D02*
X1063500D01*
X1063500D02*
X1062818Y659794D01*
X1062136Y658856*
X1061795Y657450*
Y656513*
X1061795D02*
X1062136Y655106D01*
X1062818Y654169*
X1063500Y653700*
X1064523*
X1065205Y654169*
X1065886Y655106*
X1069295Y660263D02*
X1068955Y659794D01*
X1069295Y659325*
X1069636Y659794*
X1069295Y660263*
Y654638D02*
X1068955Y654169D01*
X1069295Y653700*
X1069636Y654169*
X1069295Y654638*
X827627Y780244D02*
X824900Y770400D01*
X827627Y780244D02*
X830355Y770400D01*
X825923Y773681D02*
X829332D01*
X833423Y776963D02*
Y770400D01*
Y774150D02*
X833764Y775556D01*
X834445Y776494*
X835127Y776963*
X835127D02*
X836150D01*
X840241Y780244D02*
Y772275D01*
X840582Y770869*
X841264Y770400*
X841945*
X839218Y776963D02*
X841605D01*
X845014D02*
X846377Y770400D01*
X847741Y776963D02*
X846377Y770400D01*
X847741Y776963D02*
X849105Y770400D01*
X850468Y776963D02*
X849105Y770400D01*
X855241Y776963D02*
X854559Y776494D01*
X853877Y775556*
X853536Y774150*
Y773213*
X853536D02*
X853877Y771806D01*
X854559Y770869*
X855241Y770400*
X856264*
X856945Y770869*
X857627Y771806*
X857968Y773213*
X857968D02*
Y774150D01*
X857627Y775556*
X856945Y776494*
X856264Y776963*
X856264D02*
X855241D01*
X861036D02*
Y770400D01*
Y774150D02*
X861377Y775556D01*
X862059Y776494*
X862741Y776963*
X862741D02*
X863764D01*
X866832Y780244D02*
Y770400D01*
X870241Y776963D02*
X866832Y772275D01*
X868195Y774150D02*
X870582Y770400D01*
X881491Y780244D02*
Y770400D01*
Y780244D02*
X883877D01*
X884900Y779775*
X885582Y778838*
X885582D02*
X885923Y777900D01*
X886264Y776494*
Y774150*
X885923Y772744*
X885582Y771806*
X884900Y770869*
X883877Y770400*
X881491*
X889332Y774150D02*
X893423D01*
Y775088*
X893423D02*
X893082Y776025D01*
X892741Y776494*
X892059Y776963*
X892059D02*
X891036D01*
X891036D02*
X890355Y776494D01*
X889673Y775556*
X889332Y774150*
Y773213*
X889332D02*
X889673Y771806D01*
X890355Y770869*
X891036Y770400*
X892059*
X892741Y770869*
X893423Y771806*
X900241Y775556D02*
X899900Y776494D01*
X898877Y776963*
X898877D02*
X897855D01*
X897855D02*
X896832Y776494D01*
X896491Y775556*
X896832Y774619*
X897514Y774150*
X899218Y773681*
X899900Y773213*
X899900D02*
X900241Y772275D01*
Y771806*
X899900Y770869*
X898877Y770400*
X897855*
X896832Y770869*
X896491Y771806*
X903309Y780244D02*
X903650Y779775D01*
X903991Y780244*
X903650Y780713*
X903650D02*
X903309Y780244D01*
X903650Y776963D02*
Y770400D01*
X911150Y776963D02*
Y769462D01*
X911150D02*
X910809Y768056D01*
X910468Y767587*
X910468D02*
X909786Y767119D01*
X908764*
X908082Y767587*
X911150Y775556D02*
X910468Y776494D01*
X909786Y776963*
X909786D02*
X908764D01*
X908764D02*
X908082Y776494D01*
X907400Y775556*
X907059Y774150*
Y773213*
X907059D02*
X907400Y771806D01*
X908082Y770869*
X908764Y770400*
X909786*
X910468Y770869*
X911150Y771806*
X914218Y776963D02*
Y770400D01*
Y775088D02*
X915241Y776494D01*
X915923Y776963*
X915923D02*
X916945D01*
X916945D02*
X917627Y776494D01*
X917968Y775088*
X917968D02*
Y770400D01*
X921036Y774150D02*
X925127D01*
Y775088*
X925127D02*
X924786Y776025D01*
X924445Y776494*
X923764Y776963*
X923764D02*
X922741D01*
X922741D02*
X922059Y776494D01*
X921377Y775556*
X921036Y774150*
Y773213*
X921036D02*
X921377Y771806D01*
X922059Y770869*
X922741Y770400*
X923764*
X924445Y770869*
X925127Y771806*
X932286Y780244D02*
Y770400D01*
Y775556D02*
X931605Y776494D01*
X930923Y776963*
X930923D02*
X929900D01*
X929900D02*
X929218Y776494D01*
X928536Y775556*
X928195Y774150*
Y773213*
X928195D02*
X928536Y771806D01*
X929218Y770869*
X929900Y770400*
X930923*
X931605Y770869*
X932286Y771806*
X943195Y780244D02*
Y770400D01*
Y780244D02*
X946264D01*
X947286Y779775*
X947627Y779306*
X947968Y778369*
Y777431*
X947627Y776494*
X947286Y776025*
X946264Y775556*
X943195D02*
X946264D01*
X947286Y775088*
X947286D02*
X947627Y774619D01*
X947968Y773681*
Y772275*
X947627Y771338*
X947627D02*
X947286Y770869D01*
X946264Y770400*
X943195*
X951377Y776963D02*
X953423Y770400D01*
X955468Y776963D02*
X953423Y770400D01*
X952741Y768525*
X952059Y767587*
X952059D02*
X951377Y767119D01*
X951036*
X958877Y776963D02*
X958536Y776494D01*
X958877Y776025*
X959218Y776494*
X958877Y776963*
Y771338D02*
X958536Y770869D01*
X958877Y770400*
X959218Y770869*
X958877Y771338*
X911000Y665513D02*
Y652387D01*
X907818Y665513D02*
X914182D01*
X918273D02*
Y652387D01*
Y665513D02*
X924182D01*
X918273Y659262D02*
X921909D01*
X918273Y652387D02*
X924182D01*
X928273Y665513D02*
X934636Y652387D01*
Y665513D02*
X928273Y652387D01*
X939182Y653637D02*
X938727Y653012D01*
X938727D02*
X939182Y652387D01*
X939182D02*
X939636Y653012D01*
X939636D02*
X939182Y653637D01*
X943727Y663013D02*
X944636Y663638D01*
X944636D02*
X946000Y665513D01*
X946000D02*
Y652387D01*
X950091Y663013D02*
X951000Y663638D01*
X951000D02*
X952364Y665513D01*
X952364D02*
Y652387D01*
X961909Y663638D02*
X961455Y664888D01*
X961455D02*
X960091Y665513D01*
X960091D02*
X959182D01*
X959182D02*
X957818Y664888D01*
X957818D02*
X956909Y663013D01*
X956909D02*
X956455Y659887D01*
X956455D02*
Y656762D01*
X956455D02*
X956909Y654262D01*
X956909D02*
X957818Y653012D01*
X957818D02*
X959182Y652387D01*
X959182D02*
X959636D01*
X959636D02*
X961000Y653012D01*
X961000D02*
X961909Y654262D01*
X961909D02*
X962364Y656137D01*
X962364D02*
Y656762D01*
X962364D02*
X961909Y658637D01*
X961909D02*
X961000Y659887D01*
X961000D02*
X959636Y660513D01*
X959636D02*
X959182D01*
X959182D02*
X957818Y659887D01*
X957818D02*
X956909Y658637D01*
X956909D02*
X956455Y656762D01*
X1260727Y835044D02*
X1258000Y825200D01*
X1260727Y835044D02*
X1263455Y825200D01*
X1259023Y828481D02*
X1262432D01*
X1266523Y831763D02*
Y825200D01*
Y828950D02*
X1266864Y830356D01*
X1267545Y831294*
X1268227Y831763*
X1268227D02*
X1269250D01*
X1273341Y835044D02*
Y827075D01*
X1273682Y825669*
X1274364Y825200*
X1275045*
X1272318Y831763D02*
X1274705D01*
X1278114D02*
X1279477Y825200D01*
X1280841Y831763D02*
X1279477Y825200D01*
X1280841Y831763D02*
X1282205Y825200D01*
X1283568Y831763D02*
X1282205Y825200D01*
X1288341Y831763D02*
X1287659Y831294D01*
X1286977Y830356*
X1286636Y828950*
Y828013*
X1286636D02*
X1286977Y826606D01*
X1287659Y825669*
X1288341Y825200*
X1289364*
X1290045Y825669*
X1290727Y826606*
X1291068Y828013*
X1291068D02*
Y828950D01*
X1290727Y830356*
X1290045Y831294*
X1289364Y831763*
X1289364D02*
X1288341D01*
X1294136D02*
Y825200D01*
Y828950D02*
X1294477Y830356D01*
X1295159Y831294*
X1295841Y831763*
X1295841D02*
X1296864D01*
X1299932Y835044D02*
Y825200D01*
X1303341Y831763D02*
X1299932Y827075D01*
X1301295Y828950D02*
X1303682Y825200D01*
X1314591Y835044D02*
Y825200D01*
Y835044D02*
X1316977D01*
X1318000Y834575*
X1318682Y833638*
X1318682D02*
X1319023Y832700D01*
X1319364Y831294*
Y828950*
X1319023Y827544*
X1318682Y826606*
X1318000Y825669*
X1316977Y825200*
X1314591*
X1322432Y828950D02*
X1326523D01*
Y829888*
X1326523D02*
X1326182Y830825D01*
X1325841Y831294*
X1325159Y831763*
X1325159D02*
X1324136D01*
X1324136D02*
X1323455Y831294D01*
X1322773Y830356*
X1322432Y828950*
Y828013*
X1322432D02*
X1322773Y826606D01*
X1323455Y825669*
X1324136Y825200*
X1325159*
X1325841Y825669*
X1326523Y826606*
X1333341Y830356D02*
X1333000Y831294D01*
X1331977Y831763*
X1331977D02*
X1330955D01*
X1330955D02*
X1329932Y831294D01*
X1329591Y830356*
X1329932Y829419*
X1330614Y828950*
X1332318Y828481*
X1333000Y828013*
X1333000D02*
X1333341Y827075D01*
Y826606*
X1333000Y825669*
X1331977Y825200*
X1330955*
X1329932Y825669*
X1329591Y826606*
X1336409Y835044D02*
X1336750Y834575D01*
X1337091Y835044*
X1336750Y835513*
X1336750D02*
X1336409Y835044D01*
X1336750Y831763D02*
Y825200D01*
X1344250Y831763D02*
Y824262D01*
X1344250D02*
X1343909Y822856D01*
X1343568Y822387*
X1343568D02*
X1342886Y821919D01*
X1341864*
X1341182Y822387*
X1344250Y830356D02*
X1343568Y831294D01*
X1342886Y831763*
X1342886D02*
X1341864D01*
X1341864D02*
X1341182Y831294D01*
X1340500Y830356*
X1340159Y828950*
Y828013*
X1340159D02*
X1340500Y826606D01*
X1341182Y825669*
X1341864Y825200*
X1342886*
X1343568Y825669*
X1344250Y826606*
X1347318Y831763D02*
Y825200D01*
Y829888D02*
X1348341Y831294D01*
X1349023Y831763*
X1349023D02*
X1350045D01*
X1350045D02*
X1350727Y831294D01*
X1351068Y829888*
X1351068D02*
Y825200D01*
X1354136Y828950D02*
X1358227D01*
Y829888*
X1358227D02*
X1357886Y830825D01*
X1357545Y831294*
X1356864Y831763*
X1356864D02*
X1355841D01*
X1355841D02*
X1355159Y831294D01*
X1354477Y830356*
X1354136Y828950*
Y828013*
X1354136D02*
X1354477Y826606D01*
X1355159Y825669*
X1355841Y825200*
X1356864*
X1357545Y825669*
X1358227Y826606*
X1365386Y835044D02*
Y825200D01*
Y830356D02*
X1364705Y831294D01*
X1364023Y831763*
X1364023D02*
X1363000D01*
X1363000D02*
X1362318Y831294D01*
X1361636Y830356*
X1361295Y828950*
Y828013*
X1361295D02*
X1361636Y826606D01*
X1362318Y825669*
X1363000Y825200*
X1364023*
X1364705Y825669*
X1365386Y826606*
X1376295Y835044D02*
Y825200D01*
Y835044D02*
X1380727D01*
X1376295Y830356D02*
X1379023D01*
X1385500Y831763D02*
X1384818Y831294D01*
X1384136Y830356*
X1383795Y828950*
Y828013*
X1383795D02*
X1384136Y826606D01*
X1384818Y825669*
X1385500Y825200*
X1386523*
X1387205Y825669*
X1387886Y826606*
X1388227Y828013*
X1388227D02*
Y828950D01*
X1387886Y830356*
X1387205Y831294*
X1386523Y831763*
X1386523D02*
X1385500D01*
X1391295D02*
Y825200D01*
Y828950D02*
X1391636Y830356D01*
X1392318Y831294*
X1393000Y831763*
X1393000D02*
X1394023D01*
X1397432D02*
X1397091Y831294D01*
X1397432Y830825*
X1397773Y831294*
X1397432Y831763*
Y826138D02*
X1397091Y825669D01*
X1397432Y825200*
X1397773Y825669*
X1397432Y826138*
X1258000Y780044D02*
Y770200D01*
Y780044D02*
X1261068D01*
X1262091Y779575*
X1262432Y779106*
X1262773Y778169*
Y777231*
X1262432Y776294*
X1262091Y775825*
X1261068Y775356*
X1258000D02*
X1261068D01*
X1262091Y774888*
X1262091D02*
X1262432Y774419D01*
X1262773Y773481*
Y772075*
X1262432Y771138*
X1262432D02*
X1262091Y770669D01*
X1261068Y770200*
X1258000*
X1267545Y776763D02*
X1266864Y776294D01*
X1266182Y775356*
X1265841Y773950*
Y773013*
X1265841D02*
X1266182Y771606D01*
X1266864Y770669*
X1267545Y770200*
X1268568*
X1269250Y770669*
X1269932Y771606*
X1270273Y773013*
X1270273D02*
Y773950D01*
X1269932Y775356*
X1269250Y776294*
X1268568Y776763*
X1268568D02*
X1267545D01*
X1277432D02*
Y770200D01*
Y775356D02*
X1276750Y776294D01*
X1276068Y776763*
X1276068D02*
X1275045D01*
X1275045D02*
X1274364Y776294D01*
X1273682Y775356*
X1273341Y773950*
Y773013*
X1273341D02*
X1273682Y771606D01*
X1274364Y770669*
X1275045Y770200*
X1276068*
X1276750Y770669*
X1277432Y771606*
X1280500Y776763D02*
Y770200D01*
Y773950D02*
X1280841Y775356D01*
X1281523Y776294*
X1282205Y776763*
X1282205D02*
X1283227D01*
X1290386Y780044D02*
Y770200D01*
Y775356D02*
X1289705Y776294D01*
X1289023Y776763*
X1289023D02*
X1288000D01*
X1288000D02*
X1287318Y776294D01*
X1286636Y775356*
X1286295Y773950*
Y773013*
X1286295D02*
X1286636Y771606D01*
X1287318Y770669*
X1288000Y770200*
X1289023*
X1289705Y770669*
X1290386Y771606*
X1301295Y780044D02*
Y770200D01*
Y780044D02*
X1303682D01*
X1304705Y779575*
X1305386Y778638*
X1305386D02*
X1305727Y777700D01*
X1306068Y776294*
Y773950*
X1305727Y772544*
X1305386Y771606*
X1304705Y770669*
X1303682Y770200*
X1301295*
X1309136Y773950D02*
X1313227D01*
Y774888*
X1313227D02*
X1312886Y775825D01*
X1312545Y776294*
X1311864Y776763*
X1311864D02*
X1310841D01*
X1310841D02*
X1310159Y776294D01*
X1309477Y775356*
X1309136Y773950*
Y773013*
X1309136D02*
X1309477Y771606D01*
X1310159Y770669*
X1310841Y770200*
X1311864*
X1312545Y770669*
X1313227Y771606*
X1320045Y775356D02*
X1319705Y776294D01*
X1318682Y776763*
X1318682D02*
X1317659D01*
X1317659D02*
X1316636Y776294D01*
X1316295Y775356*
X1316636Y774419*
X1317318Y773950*
X1319023Y773481*
X1319705Y773013*
X1319705D02*
X1320045Y772075D01*
Y771606*
X1319705Y770669*
X1318682Y770200*
X1317659*
X1316636Y770669*
X1316295Y771606*
X1327205Y775356D02*
X1326523Y776294D01*
X1325841Y776763*
X1325841D02*
X1324818D01*
X1324818D02*
X1324136Y776294D01*
X1323455Y775356*
X1323114Y773950*
Y773013*
X1323114D02*
X1323455Y771606D01*
X1324136Y770669*
X1324818Y770200*
X1325841*
X1326523Y770669*
X1327205Y771606*
X1330273Y776763D02*
Y770200D01*
Y773950D02*
X1330614Y775356D01*
X1331295Y776294*
X1331977Y776763*
X1331977D02*
X1333000D01*
X1336068Y780044D02*
X1336409Y779575D01*
X1336750Y780044*
X1336409Y780513*
X1336409D02*
X1336068Y780044D01*
X1336409Y776763D02*
Y770200D01*
X1339818Y776763D02*
Y766919D01*
Y775356D02*
X1340500Y776294D01*
X1341182Y776763*
X1341182D02*
X1342205D01*
X1342205D02*
X1342886Y776294D01*
X1343568Y775356*
X1343909Y773950*
Y773013*
X1343909D02*
X1343568Y771606D01*
X1342886Y770669*
X1342205Y770200*
X1341182*
X1340500Y770669*
X1339818Y771606*
X1348000Y780044D02*
Y772075D01*
X1348341Y770669*
X1349023Y770200*
X1349705*
X1346977Y776763D02*
X1349364D01*
X1352773Y780044D02*
X1353114Y779575D01*
X1353455Y780044*
X1353114Y780513*
X1353114D02*
X1352773Y780044D01*
X1353114Y776763D02*
Y770200D01*
X1358227Y776763D02*
X1357545Y776294D01*
X1356864Y775356*
X1356523Y773950*
Y773013*
X1356523D02*
X1356864Y771606D01*
X1357545Y770669*
X1358227Y770200*
X1359250*
X1359932Y770669*
X1360614Y771606*
X1360955Y773013*
X1360955D02*
Y773950D01*
X1360614Y775356*
X1359932Y776294*
X1359250Y776763*
X1359250D02*
X1358227D01*
X1364023D02*
Y770200D01*
Y774888D02*
X1365045Y776294D01*
X1365727Y776763*
X1365727D02*
X1366750D01*
X1366750D02*
X1367432Y776294D01*
X1367773Y774888*
X1367773D02*
Y770200D01*
X1371182Y776763D02*
X1370841Y776294D01*
X1371182Y775825*
X1371523Y776294*
X1371182Y776763*
Y771138D02*
X1370841Y770669D01*
X1371182Y770200*
X1371523Y770669*
X1371182Y771138*
X1258000Y710044D02*
Y700200D01*
Y710044D02*
X1261068D01*
X1262091Y709575*
X1262432Y709106*
X1262773Y708169*
Y706763*
X1262773D02*
X1262432Y705825D01*
X1262091Y705356*
X1261068Y704888*
X1261068D02*
X1258000D01*
X1269932Y706763D02*
Y700200D01*
Y705356D02*
X1269250Y706294D01*
X1268568Y706763*
X1268568D02*
X1267545D01*
X1267545D02*
X1266864Y706294D01*
X1266182Y705356*
X1265841Y703950*
Y703013*
X1265841D02*
X1266182Y701606D01*
X1266864Y700669*
X1267545Y700200*
X1268568*
X1269250Y700669*
X1269932Y701606*
X1273000Y706763D02*
Y700200D01*
Y703950D02*
X1273341Y705356D01*
X1274023Y706294*
X1274705Y706763*
X1274705D02*
X1275727D01*
X1279818Y710044D02*
Y702075D01*
X1280159Y700669*
X1280841Y700200*
X1281523*
X1278795Y706763D02*
X1281182D01*
X1292432Y710044D02*
Y700200D01*
Y710044D02*
X1297205Y700200D01*
Y710044D02*
Y700200D01*
X1301977Y706763D02*
X1301295Y706294D01*
X1300614Y705356*
X1300273Y703950*
Y703013*
X1300273D02*
X1300614Y701606D01*
X1301295Y700669*
X1301977Y700200*
X1303000*
X1303682Y700669*
X1304364Y701606*
X1304705Y703013*
X1304705D02*
Y703950D01*
X1304364Y705356*
X1303682Y706294*
X1303000Y706763*
X1303000D02*
X1301977D01*
X1308114D02*
X1307773Y706294D01*
X1308114Y705825*
X1308455Y706294*
X1308114Y706763*
Y701138D02*
X1307773Y700669D01*
X1308114Y700200*
X1308455Y700669*
X1308114Y701138*
X1558000Y710044D02*
Y700200D01*
Y710044D02*
X1561068D01*
X1562091Y709575*
X1562432Y709106*
X1562773Y708169*
Y707231*
X1562432Y706294*
X1562091Y705825*
X1561068Y705356*
X1558000*
X1560386D02*
X1562773Y700200D01*
X1565841Y703950D02*
X1569932D01*
Y704888*
X1569932D02*
X1569591Y705825D01*
X1569250Y706294*
X1568568Y706763*
X1568568D02*
X1567545D01*
X1567545D02*
X1566864Y706294D01*
X1566182Y705356*
X1565841Y703950*
Y703013*
X1565841D02*
X1566182Y701606D01*
X1566864Y700669*
X1567545Y700200*
X1568568*
X1569250Y700669*
X1569932Y701606*
X1573000Y706763D02*
X1575045Y700200D01*
X1577091Y706763D02*
X1575045Y700200D01*
X1580159Y710044D02*
X1580500Y709575D01*
X1580841Y710044*
X1580500Y710513*
X1580500D02*
X1580159Y710044D01*
X1580500Y706763D02*
Y700200D01*
X1587659Y705356D02*
X1587318Y706294D01*
X1586295Y706763*
X1586295D02*
X1585273D01*
X1585273D02*
X1584250Y706294D01*
X1583909Y705356*
X1584250Y704419*
X1584932Y703950*
X1586636Y703481*
X1587318Y703013*
X1587318D02*
X1587659Y702075D01*
Y701606*
X1587318Y700669*
X1586295Y700200*
X1585273*
X1584250Y700669*
X1583909Y701606*
X1590727Y710044D02*
X1591068Y709575D01*
X1591409Y710044*
X1591068Y710513*
X1591068D02*
X1590727Y710044D01*
X1591068Y706763D02*
Y700200D01*
X1596182Y706763D02*
X1595500Y706294D01*
X1594818Y705356*
X1594477Y703950*
Y703013*
X1594477D02*
X1594818Y701606D01*
X1595500Y700669*
X1596182Y700200*
X1597205*
X1597886Y700669*
X1598568Y701606*
X1598909Y703013*
X1598909D02*
Y703950D01*
X1598568Y705356*
X1597886Y706294*
X1597205Y706763*
X1597205D02*
X1596182D01*
X1601977D02*
Y700200D01*
Y704888D02*
X1603000Y706294D01*
X1603682Y706763*
X1603682D02*
X1604705D01*
X1604705D02*
X1605386Y706294D01*
X1605727Y704888*
X1605727D02*
Y700200D01*
X1609136Y706763D02*
X1608795Y706294D01*
X1609136Y705825*
X1609477Y706294*
X1609136Y706763*
Y701138D02*
X1608795Y700669D01*
X1609136Y700200*
X1609477Y700669*
X1609136Y701138*
X1353000Y698325D02*
Y685200D01*
Y698325D02*
X1358909D01*
X1353000Y692075D02*
X1356636D01*
X1363455Y695200D02*
Y695825D01*
X1363909Y697075*
X1364364Y697700*
X1365273Y698325*
X1367091*
X1368000Y697700*
X1368455Y697075*
X1368909Y695825*
Y694575*
X1368455Y693325*
X1367545Y691450*
X1363000Y685200*
X1369364*
X1375727Y698325D02*
X1374364Y697700D01*
X1373909Y696450*
Y695200*
X1374364Y693950*
X1375273Y693325*
X1377091Y692700*
X1378455Y692075*
X1379364Y690825*
X1379818Y689575*
Y687700*
X1379364Y686450*
X1378909Y685825*
X1377545Y685200*
X1375727*
X1374364Y685825*
X1373909Y686450*
X1373455Y687700*
Y689575*
X1373909Y690825*
X1374818Y692075*
X1376182Y692700*
X1378000Y693325*
X1378909Y693950*
X1379364Y695200*
Y696450*
X1378909Y697700*
X1377545Y698325*
X1375727*
X1386636D02*
X1385273Y697700D01*
X1384364Y695825*
X1383909Y692700*
Y690825*
X1384364Y687700*
X1385273Y685825*
X1386636Y685200*
X1387545*
X1388909Y685825*
X1389818Y687700*
X1390273Y690825*
Y692700*
X1389818Y695825*
X1388909Y697700*
X1387545Y698325*
X1386636*
X1399818Y696450D02*
X1399364Y697700D01*
X1398000Y698325*
X1397091*
X1395727Y697700*
X1394818Y695825*
X1394364Y692700*
Y689575*
X1394818Y687075*
X1395727Y685825*
X1397091Y685200*
X1397545*
X1398909Y685825*
X1399818Y687075*
X1400273Y688950*
Y689575*
X1399818Y691450*
X1398909Y692700*
X1397545Y693325*
X1397091*
X1395727Y692700*
X1394818Y691450*
X1394364Y689575*
X1404364Y693950D02*
X1409364Y685200D01*
Y693950D02*
X1404364Y685200D01*
X1630182Y702313D02*
X1628818Y701688D01*
X1628818D02*
X1627909Y699813D01*
X1627909D02*
X1627455Y696687D01*
X1627455D02*
Y694812D01*
X1627455D02*
X1627909Y691687D01*
X1627909D02*
X1628818Y689812D01*
X1628818D02*
X1630182Y689187D01*
X1630182D02*
X1631091D01*
X1631091D02*
X1632455Y689812D01*
X1632455D02*
X1633364Y691687D01*
X1633364D02*
X1633818Y694812D01*
X1633818D02*
Y696687D01*
X1633818D02*
X1633364Y699813D01*
X1633364D02*
X1632455Y701688D01*
X1632455D02*
X1631091Y702313D01*
X1631091D02*
X1630182D01*
X1638364Y690437D02*
X1637909Y689812D01*
X1637909D02*
X1638364Y689187D01*
X1638364D02*
X1638818Y689812D01*
X1638818D02*
X1638364Y690437D01*
X1647455Y702313D02*
X1642909Y693562D01*
X1642909D02*
X1649727D01*
X1647455Y702313D02*
Y689187D01*
X1399545Y810513D02*
Y797387D01*
X1396364Y810513D02*
X1402727D01*
X1406818Y802387D02*
X1412273D01*
X1412273D02*
Y803637D01*
X1412273D02*
X1411818Y804887D01*
X1411818D02*
X1411364Y805513D01*
X1411364D02*
X1410455Y806138D01*
X1410455D02*
X1409091D01*
X1409091D02*
X1408182Y805513D01*
X1408182D02*
X1407273Y804262D01*
X1407273D02*
X1406818Y802387D01*
X1406818D02*
Y801137D01*
X1406818D02*
X1407273Y799262D01*
X1407273D02*
X1408182Y798012D01*
X1408182D02*
X1409091Y797387D01*
X1409091D02*
X1410455D01*
X1410455D02*
X1411364Y798012D01*
X1411364D02*
X1412273Y799262D01*
X1416364Y806138D02*
X1421364Y797387D01*
Y806138D02*
X1416364Y797387D01*
X1430909Y806138D02*
Y797387D01*
Y804262D02*
X1430000Y805513D01*
X1430000D02*
X1429091Y806138D01*
X1429091D02*
X1427727D01*
X1427727D02*
X1426818Y805513D01*
X1426818D02*
X1425909Y804262D01*
X1425909D02*
X1425455Y802387D01*
X1425455D02*
Y801137D01*
X1425455D02*
X1425909Y799262D01*
X1425909D02*
X1426818Y798012D01*
X1426818D02*
X1427727Y797387D01*
X1427727D02*
X1429091D01*
X1429091D02*
X1430000Y798012D01*
X1430000D02*
X1430909Y799262D01*
X1440000Y804262D02*
X1439545Y805513D01*
X1439545D02*
X1438182Y806138D01*
X1438182D02*
X1436818D01*
X1436818D02*
X1435455Y805513D01*
X1435455D02*
X1435000Y804262D01*
X1435000D02*
X1435455Y803012D01*
X1435455D02*
X1436364Y802387D01*
X1436364D02*
X1438636Y801762D01*
X1438636D02*
X1439545Y801137D01*
X1439545D02*
X1440000Y799887D01*
X1440000D02*
Y799262D01*
X1440000D02*
X1439545Y798012D01*
X1439545D02*
X1438182Y797387D01*
X1438182D02*
X1436818D01*
X1436818D02*
X1435455Y798012D01*
X1435455D02*
X1435000Y799262D01*
X1454545Y810513D02*
Y797387D01*
X1458636Y806138D02*
Y797387D01*
Y803637D02*
X1460000Y805513D01*
X1460000D02*
X1460909Y806138D01*
X1460909D02*
X1462273D01*
X1462273D02*
X1463182Y805513D01*
X1463182D02*
X1463636Y803637D01*
X1463636D02*
Y797387D01*
X1472727Y804262D02*
X1472273Y805513D01*
X1472273D02*
X1470909Y806138D01*
X1470909D02*
X1469545D01*
X1469545D02*
X1468182Y805513D01*
X1468182D02*
X1467727Y804262D01*
X1467727D02*
X1468182Y803012D01*
X1468182D02*
X1469091Y802387D01*
X1469091D02*
X1471364Y801762D01*
X1471364D02*
X1472273Y801137D01*
X1472273D02*
X1472727Y799887D01*
X1472727D02*
Y799262D01*
X1472727D02*
X1472273Y798012D01*
X1472273D02*
X1470909Y797387D01*
X1470909D02*
X1469545D01*
X1469545D02*
X1468182Y798012D01*
X1468182D02*
X1467727Y799262D01*
X1478182Y810513D02*
Y799887D01*
X1478182D02*
X1478636Y798012D01*
X1478636D02*
X1479545Y797387D01*
X1479545D02*
X1480455D01*
X1476818Y806138D02*
X1480000D01*
X1484545D02*
Y797387D01*
Y802387D02*
X1485000Y804262D01*
X1485000D02*
X1485909Y805513D01*
X1485909D02*
X1486818Y806138D01*
X1486818D02*
X1488182D01*
X1492273D02*
Y799887D01*
X1492273D02*
X1492727Y798012D01*
X1492727D02*
X1493636Y797387D01*
X1493636D02*
X1495000D01*
X1495000D02*
X1495909Y798012D01*
X1495909D02*
X1497273Y799887D01*
Y806138D02*
Y797387D01*
X1501364Y806138D02*
Y797387D01*
Y803637D02*
X1502727Y805513D01*
X1502727D02*
X1503636Y806138D01*
X1503636D02*
X1505000D01*
X1505000D02*
X1505909Y805513D01*
X1505909D02*
X1506364Y803637D01*
X1506364D02*
Y797387D01*
Y803637D02*
X1507727Y805513D01*
X1507727D02*
X1508636Y806138D01*
X1508636D02*
X1510000D01*
X1510000D02*
X1510909Y805513D01*
X1510909D02*
X1511364Y803637D01*
X1511364D02*
Y797387D01*
X1515455Y802387D02*
X1520909D01*
X1520909D02*
Y803637D01*
X1520909D02*
X1520455Y804887D01*
X1520455D02*
X1520000Y805513D01*
X1520000D02*
X1519091Y806138D01*
X1519091D02*
X1517727D01*
X1517727D02*
X1516818Y805513D01*
X1516818D02*
X1515909Y804262D01*
X1515909D02*
X1515455Y802387D01*
X1515455D02*
Y801137D01*
X1515455D02*
X1515909Y799262D01*
X1515909D02*
X1516818Y798012D01*
X1516818D02*
X1517727Y797387D01*
X1517727D02*
X1519091D01*
X1519091D02*
X1520000Y798012D01*
X1520000D02*
X1520909Y799262D01*
X1525000Y806138D02*
Y797387D01*
Y803637D02*
X1526364Y805513D01*
X1526364D02*
X1527273Y806138D01*
X1527273D02*
X1528636D01*
X1528636D02*
X1529545Y805513D01*
X1529545D02*
X1530000Y803637D01*
X1530000D02*
Y797387D01*
X1535455Y810513D02*
Y799887D01*
X1535455D02*
X1535909Y798012D01*
X1535909D02*
X1536818Y797387D01*
X1536818D02*
X1537727D01*
X1534091Y806138D02*
X1537273D01*
X1546818Y804262D02*
X1546364Y805513D01*
X1546364D02*
X1545000Y806138D01*
X1545000D02*
X1543636D01*
X1543636D02*
X1542273Y805513D01*
X1542273D02*
X1541818Y804262D01*
X1541818D02*
X1542273Y803012D01*
X1542273D02*
X1543182Y802387D01*
X1543182D02*
X1545455Y801762D01*
X1545455D02*
X1546364Y801137D01*
X1546364D02*
X1546818Y799887D01*
X1546818D02*
Y799262D01*
X1546818D02*
X1546364Y798012D01*
X1546364D02*
X1545000Y797387D01*
X1545000D02*
X1543636D01*
X1543636D02*
X1542273Y798012D01*
X1542273D02*
X1541818Y799262D01*
X1387305Y749372D02*
Y736247D01*
Y749372D02*
X1393214D01*
X1387305Y743122D02*
X1390941D01*
X1397759Y746247D02*
Y746872D01*
X1398214Y748122*
X1398669Y748747*
X1399578Y749372*
X1401396*
X1402305Y748747*
X1402759Y748122*
X1403214Y746872*
Y745622*
X1402759Y744372*
X1401850Y742497*
X1397305Y736247*
X1403669*
X1410032Y749372D02*
X1408669Y748747D01*
X1408214Y747497*
Y746247*
X1408669Y744997*
X1409578Y744372*
X1411396Y743747*
X1412759Y743122*
X1413669Y741872*
X1414123Y740622*
Y738747*
X1413669Y737497*
X1413214Y736872*
X1411850Y736247*
X1410032*
X1408669Y736872*
X1408214Y737497*
X1407759Y738747*
Y740622*
X1408214Y741872*
X1409123Y743122*
X1410487Y743747*
X1412305Y744372*
X1413214Y744997*
X1413669Y746247*
Y747497*
X1413214Y748747*
X1411850Y749372*
X1410032*
X1420941D02*
X1419578Y748747D01*
X1418669Y746872*
X1418214Y743747*
Y741872*
X1418669Y738747*
X1419578Y736872*
X1420941Y736247*
X1421850*
X1423214Y736872*
X1424123Y738747*
X1424578Y741872*
Y743747*
X1424123Y746872*
X1423214Y748747*
X1421850Y749372*
X1420941*
X1434123Y747497D02*
X1433669Y748747D01*
X1432305Y749372*
X1431396*
X1430032Y748747*
X1429123Y746872*
X1428669Y743747*
Y740622*
X1429123Y738122*
X1430032Y736872*
X1431396Y736247*
X1431850*
X1433214Y736872*
X1434123Y738122*
X1434578Y739997*
Y740622*
X1434123Y742497*
X1433214Y743747*
X1431850Y744372*
X1431396*
X1430032Y743747*
X1429123Y742497*
X1428669Y740622*
X1438669Y744997D02*
X1443669Y736247D01*
Y744997D02*
X1438669Y736247D01*
X1463669Y743122D02*
X1462759Y744372D01*
X1461850Y744997*
X1460487*
X1459578Y744372*
X1458669Y743122*
X1458214Y741247*
Y739997*
X1458669Y738122*
X1459578Y736872*
X1460487Y736247*
X1461850*
X1462759Y736872*
X1463669Y738122*
X1470032Y744997D02*
X1469123Y744372D01*
X1468214Y743122*
X1467759Y741247*
Y739997*
X1468214Y738122*
X1469123Y736872*
X1470032Y736247*
X1471396*
X1472305Y736872*
X1473214Y738122*
X1473669Y739997*
Y741247*
X1473214Y743122*
X1472305Y744372*
X1471396Y744997*
X1470032*
X1477759D02*
Y736247D01*
Y742497D02*
X1479123Y744372D01*
X1480032Y744997*
X1481396*
X1482305Y744372*
X1482759Y742497*
Y736247*
X1488214Y749372D02*
Y738747D01*
X1488669Y736872*
X1489578Y736247*
X1490487*
X1486850Y744997D02*
X1490032D01*
X1494578D02*
Y736247D01*
Y741247D02*
X1495032Y743122D01*
X1495941Y744372*
X1496850Y744997*
X1498214*
X1504578D02*
X1503669Y744372D01*
X1502759Y743122*
X1502305Y741247*
Y739997*
X1502759Y738122*
X1503669Y736872*
X1504578Y736247*
X1505941*
X1506850Y736872*
X1507759Y738122*
X1508214Y739997*
Y741247*
X1507759Y743122*
X1506850Y744372*
X1505941Y744997*
X1504578*
X1512305Y749372D02*
Y736247D01*
X1523214Y746247D02*
X1522759Y747497D01*
X1521850Y748747*
X1520941Y749372*
X1519123*
X1518214Y748747*
X1517305Y747497*
X1516850Y746247*
X1516396Y744372*
Y741247*
X1516850Y739372*
X1517305Y738122*
X1518214Y736872*
X1519123Y736247*
X1520941*
X1521850Y736872*
X1522759Y738122*
X1523214Y739372*
X1530941Y749372D02*
X1527305Y736247D01*
X1530941Y749372D02*
X1534578Y736247D01*
X1528669Y740622D02*
X1533214D01*
X1538669Y749372D02*
Y736247D01*
Y749372D02*
X1542759D01*
X1544123Y748747*
X1544578Y748122*
X1545032Y746872*
Y745622*
X1544578Y744372*
X1544123Y743747*
X1542759Y743122*
X1538669*
X1541850D02*
X1545032Y736247D01*
X1549123Y749372D02*
Y736247D01*
Y749372D02*
X1552305D01*
X1553669Y748747*
X1554578Y747497*
X1555032Y746247*
X1555487Y744372*
Y741247*
X1555032Y739372*
X1554578Y738122*
X1553669Y736872*
X1552305Y736247*
X1549123*
X1471091Y662578D02*
X1470409Y663516D01*
X1469386Y663984*
X1468023*
X1467000Y663516*
X1466318Y662578*
Y661641*
X1466659Y660703*
X1467000Y660234*
X1467682Y659766*
X1469727Y658828*
X1470409Y658359*
X1470750Y657891*
X1471091Y656953*
Y655547*
X1470409Y654609*
X1469386Y654141*
X1468023*
X1467000Y654609*
X1466318Y655547*
X1474159Y657891D02*
X1478250D01*
Y658828*
X1477909Y659766*
X1477568Y660234*
X1476886Y660703*
X1475864*
X1475182Y660234*
X1474500Y659297*
X1474159Y657891*
Y656953*
X1474500Y655547*
X1475182Y654609*
X1475864Y654141*
X1476886*
X1477568Y654609*
X1478250Y655547*
X1485409Y659297D02*
X1484727Y660234D01*
X1484045Y660703*
X1483023*
X1482341Y660234*
X1481659Y659297*
X1481318Y657891*
Y656953*
X1481659Y655547*
X1482341Y654609*
X1483023Y654141*
X1484045*
X1484727Y654609*
X1485409Y655547*
X1490182Y660703D02*
X1489500Y660234D01*
X1488818Y659297*
X1488477Y657891*
Y656953*
X1488818Y655547*
X1489500Y654609*
X1490182Y654141*
X1491205*
X1491886Y654609*
X1492568Y655547*
X1492909Y656953*
Y657891*
X1492568Y659297*
X1491886Y660234*
X1491205Y660703*
X1490182*
X1495977D02*
Y654141D01*
Y658828D02*
X1497000Y660234D01*
X1497682Y660703*
X1498705*
X1499386Y660234*
X1499727Y658828*
Y654141*
X1506886Y663984D02*
Y654141D01*
Y659297D02*
X1506205Y660234D01*
X1505523Y660703*
X1504500*
X1503818Y660234*
X1503136Y659297*
X1502795Y657891*
Y656953*
X1503136Y655547*
X1503818Y654609*
X1504500Y654141*
X1505523*
X1506205Y654609*
X1506886Y655547*
X1514045Y660703D02*
Y654141D01*
Y659297D02*
X1513364Y660234D01*
X1512682Y660703*
X1511659*
X1510977Y660234*
X1510295Y659297*
X1509955Y657891*
Y656953*
X1510295Y655547*
X1510977Y654609*
X1511659Y654141*
X1512682*
X1513364Y654609*
X1514045Y655547*
X1517114Y660703D02*
Y654141D01*
Y657891D02*
X1517455Y659297D01*
X1518136Y660234*
X1518818Y660703*
X1519841*
X1523250D02*
X1525295Y654141D01*
X1527341Y660703D02*
X1525295Y654141D01*
X1524614Y652266*
X1523932Y651328*
X1523250Y650859*
X1522909*
X1543023Y662578D02*
X1542341Y663516D01*
X1541318Y663984*
X1539955*
X1538932Y663516*
X1538250Y662578*
Y661641*
X1538591Y660703*
X1538932Y660234*
X1539614Y659766*
X1541659Y658828*
X1542341Y658359*
X1542682Y657891*
X1543023Y656953*
Y655547*
X1542341Y654609*
X1541318Y654141*
X1539955*
X1538932Y654609*
X1538250Y655547*
X1546091Y663984D02*
X1546432Y663516D01*
X1546773Y663984*
X1546432Y664453*
X1546091Y663984*
X1546432Y660703D02*
Y654141D01*
X1553932Y663984D02*
Y654141D01*
Y659297D02*
X1553250Y660234D01*
X1552568Y660703*
X1551545*
X1550864Y660234*
X1550182Y659297*
X1549841Y657891*
Y656953*
X1550182Y655547*
X1550864Y654609*
X1551545Y654141*
X1552568*
X1553250Y654609*
X1553932Y655547*
X1557000Y657891D02*
X1561091D01*
Y658828*
X1560750Y659766*
X1560409Y660234*
X1559727Y660703*
X1558705*
X1558023Y660234*
X1557341Y659297*
X1557000Y657891*
Y656953*
X1557341Y655547*
X1558023Y654609*
X1558705Y654141*
X1559727*
X1560409Y654609*
X1561091Y655547*
X1576773Y662578D02*
X1576091Y663516D01*
X1575068Y663984*
X1573705*
X1572682Y663516*
X1572000Y662578*
Y661641*
X1572341Y660703*
X1572682Y660234*
X1573364Y659766*
X1575409Y658828*
X1576091Y658359*
X1576432Y657891*
X1576773Y656953*
Y655547*
X1576091Y654609*
X1575068Y654141*
X1573705*
X1572682Y654609*
X1572000Y655547*
X1579841Y663984D02*
X1580182Y663516D01*
X1580523Y663984*
X1580182Y664453*
X1579841Y663984*
X1580182Y660703D02*
Y654141D01*
X1583591Y663984D02*
Y654141D01*
X1586659Y663984D02*
Y654141D01*
X1590068Y660703D02*
X1586659Y656016D01*
X1588023Y657891D02*
X1590409Y654141D01*
X1597227Y659297D02*
X1596886Y660234D01*
X1595864Y660703*
X1594841*
X1593818Y660234*
X1593477Y659297*
X1593818Y658359*
X1594500Y657891*
X1596205Y657422*
X1596886Y656953*
X1597227Y656016*
Y655547*
X1596886Y654609*
X1595864Y654141*
X1594841*
X1593818Y654609*
X1593477Y655547*
X1604386Y659297D02*
X1603705Y660234D01*
X1603023Y660703*
X1602000*
X1601318Y660234*
X1600636Y659297*
X1600295Y657891*
Y656953*
X1600636Y655547*
X1601318Y654609*
X1602000Y654141*
X1603023*
X1603705Y654609*
X1604386Y655547*
X1607455Y660703D02*
Y654141D01*
Y657891D02*
X1607795Y659297D01*
X1608477Y660234*
X1609159Y660703*
X1610182*
X1613250Y657891D02*
X1617341D01*
Y658828*
X1617000Y659766*
X1616659Y660234*
X1615977Y660703*
X1614955*
X1614273Y660234*
X1613591Y659297*
X1613250Y657891*
Y656953*
X1613591Y655547*
X1614273Y654609*
X1614955Y654141*
X1615977*
X1616659Y654609*
X1617341Y655547*
X1620409Y657891D02*
X1624500D01*
Y658828*
X1624159Y659766*
X1623818Y660234*
X1623136Y660703*
X1622114*
X1621432Y660234*
X1620750Y659297*
X1620409Y657891*
Y656953*
X1620750Y655547*
X1621432Y654609*
X1622114Y654141*
X1623136*
X1623818Y654609*
X1624500Y655547*
X1627568Y660703D02*
Y654141D01*
Y658828D02*
X1628591Y660234D01*
X1629273Y660703*
X1630295*
X1630977Y660234*
X1631318Y658828*
Y654141*
X1131300Y689263D02*
X1132664Y682700D01*
X1134027Y689263D02*
X1132664Y682700D01*
X1134027Y689263D02*
X1135391Y682700D01*
X1136755Y689263D02*
X1135391Y682700D01*
X1139823Y689263D02*
X1141186Y682700D01*
X1142550Y689263D02*
X1141186Y682700D01*
X1142550Y689263D02*
X1143914Y682700D01*
X1145277Y689263D02*
X1143914Y682700D01*
X1148345Y689263D02*
X1149709Y682700D01*
X1151073Y689263D02*
X1149709Y682700D01*
X1151073Y689263D02*
X1152436Y682700D01*
X1153800Y689263D02*
X1152436Y682700D01*
X1157209Y683638D02*
X1156868Y683169D01*
X1157209Y682700*
X1157550Y683169*
X1157209Y683638*
X1160618Y689263D02*
X1161982Y682700D01*
X1163345Y689263D02*
X1161982Y682700D01*
X1163345Y689263D02*
X1164709Y682700D01*
X1166073Y689263D02*
X1164709Y682700D01*
X1172891Y687856D02*
X1172550Y688794D01*
X1171527Y689263*
X1171527D02*
X1170505D01*
X1170505D02*
X1169482Y688794D01*
X1169141Y687856*
X1169482Y686919*
X1170164Y686450*
X1171868Y685981*
X1172550Y685513*
X1172550D02*
X1172891Y684575D01*
Y684106*
X1172550Y683169*
X1171527Y682700*
X1170505*
X1169482Y683169*
X1169141Y684106*
X1176982Y692544D02*
Y684575D01*
X1177323Y683169*
X1178005Y682700*
X1178686*
X1175959Y689263D02*
X1178345D01*
X1185505Y687856D02*
X1185164Y688794D01*
X1184141Y689263*
X1184141D02*
X1183118D01*
X1183118D02*
X1182095Y688794D01*
X1181755Y687856*
X1182095Y686919*
X1182777Y686450*
X1184482Y685981*
X1185164Y685513*
X1185164D02*
X1185505Y684575D01*
Y684106*
X1185164Y683169*
X1184141Y682700*
X1183118*
X1182095Y683169*
X1181755Y684106*
X1192664Y687856D02*
X1191982Y688794D01*
X1191300Y689263*
X1191300D02*
X1190277D01*
X1190277D02*
X1189595Y688794D01*
X1188914Y687856*
X1188573Y686450*
Y685513*
X1188573D02*
X1188914Y684106D01*
X1189595Y683169*
X1190277Y682700*
X1191300*
X1191982Y683169*
X1192664Y684106*
X1197436Y689263D02*
X1196755Y688794D01*
X1196073Y687856*
X1195732Y686450*
Y685513*
X1195732D02*
X1196073Y684106D01*
X1196755Y683169*
X1197436Y682700*
X1198459*
X1199141Y683169*
X1199823Y684106*
X1200164Y685513*
X1200164D02*
Y686450D01*
X1199823Y687856*
X1199141Y688794*
X1198459Y689263*
X1198459D02*
X1197436D01*
X1203232D02*
Y682700D01*
Y686450D02*
X1203573Y687856D01*
X1204255Y688794*
X1204936Y689263*
X1204936D02*
X1205959D01*
X1209027D02*
Y679419D01*
Y687856D02*
X1209709Y688794D01*
X1210391Y689263*
X1210391D02*
X1211414D01*
X1211414D02*
X1212095Y688794D01*
X1212777Y687856*
X1213118Y686450*
Y685513*
X1213118D02*
X1212777Y684106D01*
X1212095Y683169*
X1211414Y682700*
X1210391*
X1209709Y683169*
X1209027Y684106*
X1216527Y683638D02*
X1216186Y683169D01*
X1216527Y682700*
X1216868Y683169*
X1216527Y683638*
X1224027Y687856D02*
X1223345Y688794D01*
X1222664Y689263*
X1222664D02*
X1221641D01*
X1221641D02*
X1220959Y688794D01*
X1220277Y687856*
X1219936Y686450*
Y685513*
X1219936D02*
X1220277Y684106D01*
X1220959Y683169*
X1221641Y682700*
X1222664*
X1223345Y683169*
X1224027Y684106*
X1228800Y689263D02*
X1228118Y688794D01*
X1227436Y687856*
X1227095Y686450*
Y685513*
X1227095D02*
X1227436Y684106D01*
X1228118Y683169*
X1228800Y682700*
X1229823*
X1230505Y683169*
X1231186Y684106*
X1231527Y685513*
X1231527D02*
Y686450D01*
X1231186Y687856*
X1230505Y688794*
X1229823Y689263*
X1229823D02*
X1228800D01*
X1234595D02*
Y682700D01*
Y687388D02*
X1235618Y688794D01*
X1236300Y689263*
X1236300D02*
X1237323D01*
X1237323D02*
X1238005Y688794D01*
X1238345Y687388*
X1238345D02*
Y682700D01*
Y687388D02*
X1239368Y688794D01*
X1240050Y689263*
X1240050D02*
X1241073D01*
X1241073D02*
X1241755Y688794D01*
X1242095Y687388*
X1242095D02*
Y682700D01*
X917200Y754944D02*
X918905Y745100D01*
X920609Y754944D02*
X918905Y745100D01*
X920609Y754944D02*
X922314Y745100D01*
X924018Y754944D02*
X922314Y745100D01*
X927086Y754944D02*
X927427Y754475D01*
X927768Y754944*
X927427Y755413*
X927427D02*
X927086Y754944D01*
X927427Y751663D02*
Y745100D01*
X930836Y754944D02*
Y745100D01*
X933905Y754944D02*
Y745100D01*
X938677Y751663D02*
X937995Y751194D01*
X937314Y750256*
X936973Y748850*
Y747913*
X936973D02*
X937314Y746506D01*
X937995Y745569*
X938677Y745100*
X939700*
X940382Y745569*
X941064Y746506*
X941405Y747913*
X941405D02*
Y748850D01*
X941064Y750256*
X940382Y751194*
X939700Y751663*
X939700D02*
X938677D01*
X944473D02*
X945836Y745100D01*
X947200Y751663D02*
X945836Y745100D01*
X947200Y751663D02*
X948564Y745100D01*
X949927Y751663D02*
X948564Y745100D01*
X965609Y753538D02*
X964927Y754475D01*
X963905Y754944*
X962541*
X961518Y754475*
X960836Y753538*
X960836D02*
Y752600D01*
X961177Y751663*
X961177D02*
X961518Y751194D01*
X962200Y750725*
X964245Y749788*
X964245D02*
X964927Y749319D01*
X965268Y748850*
X965609Y747913*
X965609D02*
Y746506D01*
X964927Y745569*
X963905Y745100*
X962541*
X961518Y745569*
X960836Y746506*
X968677Y751663D02*
Y741819D01*
Y750256D02*
X969359Y751194D01*
X970041Y751663*
X970041D02*
X971064D01*
X971064D02*
X971745Y751194D01*
X972427Y750256*
X972768Y748850*
Y747913*
X972768D02*
X972427Y746506D01*
X971745Y745569*
X971064Y745100*
X970041*
X969359Y745569*
X968677Y746506*
X975836Y751663D02*
Y745100D01*
Y748850D02*
X976177Y750256D01*
X976859Y751194*
X977541Y751663*
X977541D02*
X978564D01*
X981632Y754944D02*
X981973Y754475D01*
X982314Y754944*
X981973Y755413*
X981973D02*
X981632Y754944D01*
X981973Y751663D02*
Y745100D01*
X985382Y751663D02*
Y745100D01*
Y749788D02*
X986405Y751194D01*
X987086Y751663*
X987086D02*
X988109D01*
X988109D02*
X988791Y751194D01*
X989132Y749788*
X989132D02*
Y745100D01*
X996291Y751663D02*
Y744162D01*
X996291D02*
X995950Y742756D01*
X995609Y742287*
X995609D02*
X994927Y741819D01*
X993905*
X993223Y742287*
X996291Y750256D02*
X995609Y751194D01*
X994927Y751663*
X994927D02*
X993905D01*
X993905D02*
X993223Y751194D01*
X992541Y750256*
X992200Y748850*
Y747913*
X992200D02*
X992541Y746506D01*
X993223Y745569*
X993905Y745100*
X994927*
X995609Y745569*
X996291Y746506*
X1009586Y754944D02*
Y745100D01*
X1007200Y754944D02*
X1011973D01*
X1015041Y748850D02*
X1019132D01*
Y749788*
X1019132D02*
X1018791Y750725D01*
X1018450Y751194*
X1017768Y751663*
X1017768D02*
X1016745D01*
X1016745D02*
X1016064Y751194D01*
X1015382Y750256*
X1015041Y748850*
Y747913*
X1015041D02*
X1015382Y746506D01*
X1016064Y745569*
X1016745Y745100*
X1017768*
X1018450Y745569*
X1019132Y746506*
X1026291Y750256D02*
X1025609Y751194D01*
X1024927Y751663*
X1024927D02*
X1023905D01*
X1023905D02*
X1023223Y751194D01*
X1022541Y750256*
X1022200Y748850*
Y747913*
X1022200D02*
X1022541Y746506D01*
X1023223Y745569*
X1023905Y745100*
X1024927*
X1025609Y745569*
X1026291Y746506*
X1029359Y754944D02*
Y745100D01*
Y749788D02*
X1030382Y751194D01*
X1031064Y751663*
X1031064D02*
X1032086D01*
X1032086D02*
X1032768Y751194D01*
X1033109Y749788*
X1033109D02*
Y745100D01*
X1036177Y751663D02*
Y745100D01*
Y749788D02*
X1037200Y751194D01*
X1037882Y751663*
X1037882D02*
X1038905D01*
X1038905D02*
X1039586Y751194D01*
X1039927Y749788*
X1039927D02*
Y745100D01*
X1042995Y754944D02*
X1043336Y754475D01*
X1043677Y754944*
X1043336Y755413*
X1043336D02*
X1042995Y754944D01*
X1043336Y751663D02*
Y745100D01*
X1050836Y750256D02*
X1050155Y751194D01*
X1049473Y751663*
X1049473D02*
X1048450D01*
X1048450D02*
X1047768Y751194D01*
X1047086Y750256*
X1046745Y748850*
Y747913*
X1046745D02*
X1047086Y746506D01*
X1047768Y745569*
X1048450Y745100*
X1049473*
X1050155Y745569*
X1050836Y746506*
X1057995Y751663D02*
Y745100D01*
Y750256D02*
X1057314Y751194D01*
X1056632Y751663*
X1056632D02*
X1055609D01*
X1055609D02*
X1054927Y751194D01*
X1054245Y750256*
X1053905Y748850*
Y747913*
X1053905D02*
X1054245Y746506D01*
X1054927Y745569*
X1055609Y745100*
X1056632*
X1057314Y745569*
X1057995Y746506*
X1061064Y754944D02*
Y745100D01*
X1076745Y753538D02*
X1076064Y754475D01*
X1075041Y754944*
X1073677*
X1072655Y754475*
X1071973Y753538*
X1071973D02*
Y752600D01*
X1072314Y751663*
X1072314D02*
X1072655Y751194D01*
X1073336Y750725*
X1075382Y749788*
X1075382D02*
X1076064Y749319D01*
X1076405Y748850*
X1076745Y747913*
X1076745D02*
Y746506D01*
X1076064Y745569*
X1075041Y745100*
X1073677*
X1072655Y745569*
X1071973Y746506*
X1079814Y748850D02*
X1083905D01*
Y749788*
X1083905D02*
X1083564Y750725D01*
X1083223Y751194*
X1082541Y751663*
X1082541D02*
X1081518D01*
X1081518D02*
X1080836Y751194D01*
X1080155Y750256*
X1079814Y748850*
Y747913*
X1079814D02*
X1080155Y746506D01*
X1080836Y745569*
X1081518Y745100*
X1082541*
X1083223Y745569*
X1083905Y746506*
X1086973Y751663D02*
Y745100D01*
Y748850D02*
X1087314Y750256D01*
X1087995Y751194*
X1088677Y751663*
X1088677D02*
X1089700D01*
X1092768D02*
X1094814Y745100D01*
X1096859Y751663D02*
X1094814Y745100D01*
X1099927Y754944D02*
X1100268Y754475D01*
X1100609Y754944*
X1100268Y755413*
X1100268D02*
X1099927Y754944D01*
X1100268Y751663D02*
Y745100D01*
X1107768Y750256D02*
X1107086Y751194D01*
X1106405Y751663*
X1106405D02*
X1105382D01*
X1105382D02*
X1104700Y751194D01*
X1104018Y750256*
X1103677Y748850*
Y747913*
X1103677D02*
X1104018Y746506D01*
X1104700Y745569*
X1105382Y745100*
X1106405*
X1107086Y745569*
X1107768Y746506*
X1110836Y748850D02*
X1114927D01*
Y749788*
X1114927D02*
X1114586Y750725D01*
X1114245Y751194*
X1113564Y751663*
X1113564D02*
X1112541D01*
X1112541D02*
X1111859Y751194D01*
X1111177Y750256*
X1110836Y748850*
Y747913*
X1110836D02*
X1111177Y746506D01*
X1111859Y745569*
X1112541Y745100*
X1113564*
X1114245Y745569*
X1114927Y746506*
X1121745Y750256D02*
X1121405Y751194D01*
X1120382Y751663*
X1120382D02*
X1119359D01*
X1119359D02*
X1118336Y751194D01*
X1117995Y750256*
X1118336Y749319*
X1119018Y748850*
X1120723Y748381*
X1121405Y747913*
X1121405D02*
X1121745Y746975D01*
Y746506*
X1121405Y745569*
X1120382Y745100*
X1119359*
X1118336Y745569*
X1117995Y746506*
X1137768Y752600D02*
X1137427Y753538D01*
X1137427D02*
X1136745Y754475D01*
X1136064Y754944*
X1134700*
X1134018Y754475*
X1133336Y753538*
X1133336D02*
X1132995Y752600D01*
X1132655Y751194*
Y748850*
X1132995Y747444*
X1133336Y746506*
X1134018Y745569*
X1134700Y745100*
X1136064*
X1136745Y745569*
X1137427Y746506*
X1137768Y747444*
X1142541Y751663D02*
X1141859Y751194D01*
X1141177Y750256*
X1140836Y748850*
Y747913*
X1140836D02*
X1141177Y746506D01*
X1141859Y745569*
X1142541Y745100*
X1143564*
X1144245Y745569*
X1144927Y746506*
X1145268Y747913*
X1145268D02*
Y748850D01*
X1144927Y750256*
X1144245Y751194*
X1143564Y751663*
X1143564D02*
X1142541D01*
X1148336D02*
Y745100D01*
Y748850D02*
X1148677Y750256D01*
X1149359Y751194*
X1150041Y751663*
X1150041D02*
X1151064D01*
X1154132D02*
Y741819D01*
Y750256D02*
X1154814Y751194D01*
X1155495Y751663*
X1155495D02*
X1156518D01*
X1156518D02*
X1157200Y751194D01*
X1157882Y750256*
X1158223Y748850*
Y747913*
X1158223D02*
X1157882Y746506D01*
X1157200Y745569*
X1156518Y745100*
X1155495*
X1154814Y745569*
X1154132Y746506*
X1161632Y746038D02*
X1161291Y745569D01*
X1161632Y745100*
X1161973Y745569*
X1161632Y746038*
G54D225*
X1064813Y1091523D02*
X1062000D01*
X1063406Y1090500D02*
Y1092545D01*
X1333281Y1108000D02*
X1330000D01*
X1333281D02*
Y1109023D01*
X1333125Y1109364*
X1332969Y1109477*
X1332656Y1109591*
X1332344*
X1332031Y1109477*
X1331875Y1109364*
X1331719Y1109023*
Y1108000*
Y1108795D02*
X1330000Y1109591D01*
X1332500Y1110727D02*
X1332656D01*
X1332969Y1110841*
X1333125Y1110955*
X1333281Y1111182*
Y1111636*
X1333125Y1111864*
X1332969Y1111977*
X1332656Y1112091*
X1332344*
X1332031Y1111977*
X1331563Y1111750*
X1330000Y1110614*
Y1112205*
X1333281Y1113909D02*
X1333125Y1113568D01*
X1332656Y1113341*
X1331875Y1113227*
X1331406*
X1330625Y1113341*
X1330156Y1113568*
X1330000Y1113909*
Y1114136*
X1330156Y1114477*
X1330625Y1114705*
X1331406Y1114818*
X1331875*
X1332656Y1114705*
X1333125Y1114477*
X1333281Y1114136*
Y1113909*
X1332500Y1115955D02*
X1332656D01*
X1332969Y1116068*
X1333125Y1116182*
X1333281Y1116409*
Y1116864*
X1333125Y1117091*
X1332969Y1117205*
X1332656Y1117318*
X1332344*
X1332031Y1117205*
X1331563Y1116977*
X1330000Y1115841*
Y1117432*
X1328781Y1108000D02*
X1325500D01*
X1328781D02*
Y1109023D01*
X1328625Y1109364*
X1328469Y1109477*
X1328156Y1109591*
X1327844*
X1327531Y1109477*
X1327375Y1109364*
X1327219Y1109023*
Y1108000*
Y1108795D02*
X1325500Y1109591D01*
X1328000Y1110727D02*
X1328156D01*
X1328469Y1110841*
X1328625Y1110955*
X1328781Y1111182*
Y1111636*
X1328625Y1111864*
X1328469Y1111977*
X1328156Y1112091*
X1327844*
X1327531Y1111977*
X1327063Y1111750*
X1325500Y1110614*
Y1112205*
X1328781Y1113909D02*
X1328625Y1113568D01*
X1328156Y1113341*
X1327375Y1113227*
X1326906*
X1326125Y1113341*
X1325656Y1113568*
X1325500Y1113909*
Y1114136*
X1325656Y1114477*
X1326125Y1114705*
X1326906Y1114818*
X1327375*
X1328156Y1114705*
X1328625Y1114477*
X1328781Y1114136*
Y1113909*
Y1116068D02*
Y1117318D01*
X1327531Y1116636*
Y1116977*
X1327375Y1117205*
X1327219Y1117318*
X1326750Y1117432*
X1326438*
X1325969Y1117318*
X1325656Y1117091*
X1325500Y1116750*
Y1116409*
X1325656Y1116068*
X1325813Y1115955*
X1326125Y1115841*
X1302193Y1116328D02*
Y1113047D01*
Y1116328D02*
X1301170D01*
X1300830Y1116172*
X1300716Y1116016*
X1300602Y1115703*
Y1115391*
X1300716Y1115078*
X1300830Y1114922*
X1301170Y1114766*
X1302193*
X1301398D02*
X1300602Y1113047D01*
X1299466Y1115547D02*
Y1115703D01*
X1299352Y1116016*
X1299239Y1116172*
X1299011Y1116328*
X1298557*
X1298330Y1116172*
X1298216Y1116016*
X1298102Y1115703*
Y1115391*
X1298216Y1115078*
X1298443Y1114609*
X1299580Y1113047*
X1297989*
X1296284Y1116328D02*
X1296625Y1116172D01*
X1296852Y1115703*
X1296966Y1114922*
Y1114453*
X1296852Y1113672*
X1296625Y1113203*
X1296284Y1113047*
X1296057*
X1295716Y1113203*
X1295489Y1113672*
X1295375Y1114453*
Y1114922*
X1295489Y1115703*
X1295716Y1116172*
X1296057Y1116328*
X1296284*
X1293784D02*
X1294125Y1116172D01*
X1294239Y1115859*
Y1115547*
X1294125Y1115234*
X1293898Y1115078*
X1293443Y1114922*
X1293102Y1114766*
X1292875Y1114453*
X1292761Y1114141*
Y1113672*
X1292875Y1113359*
X1292989Y1113203*
X1293330Y1113047*
X1293784*
X1294125Y1113203*
X1294239Y1113359*
X1294352Y1113672*
Y1114141*
X1294239Y1114453*
X1294011Y1114766*
X1293670Y1114922*
X1293216Y1115078*
X1292989Y1115234*
X1292875Y1115547*
Y1115859*
X1292989Y1116172*
X1293330Y1116328*
X1293784*
X1325281Y1099682D02*
X1325125Y1099455D01*
X1324812Y1099227*
X1324812D02*
X1324500Y1099114D01*
X1324031Y1099000*
X1323250*
X1322781Y1099114*
X1322469Y1099227*
X1322156Y1099455*
X1322000Y1099682*
Y1100136*
X1322156Y1100364*
X1322469Y1100591*
X1322781Y1100705*
X1323250Y1100818*
X1324031*
X1324500Y1100705*
X1324812Y1100591*
X1324812D02*
X1325125Y1100364D01*
X1325281Y1100136*
Y1099682*
X1322625Y1100023D02*
X1321687Y1100705D01*
X1324500Y1101955D02*
X1324656D01*
X1324969Y1102068*
X1325125Y1102182*
X1325281Y1102409*
Y1102864*
X1325125Y1103091*
X1324969Y1103205*
X1324656Y1103318*
X1324344*
X1324031Y1103205*
X1323562Y1102977*
X1323562D02*
X1322000Y1101841D01*
Y1103432*
X1325281Y1105136D02*
X1325125Y1104795D01*
X1324656Y1104568*
X1323875Y1104455*
X1323406*
X1322625Y1104568*
X1322156Y1104795*
X1322000Y1105136*
Y1105364*
X1322156Y1105705*
X1322625Y1105932*
X1323406Y1106045*
X1323875*
X1324656Y1105932*
X1325125Y1105705*
X1325281Y1105364*
Y1105136*
Y1107750D02*
X1325125Y1107409D01*
X1324656Y1107182*
X1323875Y1107068*
X1323406*
X1322625Y1107182*
X1322156Y1107409*
X1322000Y1107750*
Y1107977*
X1322156Y1108318*
X1322625Y1108545*
X1323406Y1108659*
X1323875*
X1324656Y1108545*
X1325125Y1108318*
X1325281Y1107977*
Y1107750*
X1300641Y1098511D02*
X1300547Y1098375D01*
X1300359Y1098239*
X1300078Y1098170*
X1299891*
X1299609Y1098239*
X1299422Y1098375*
X1299328Y1098511*
Y1098716*
X1299422Y1098852*
X1299609Y1098989*
X1299891Y1099057*
X1300078*
X1300359Y1098989*
X1300547Y1098852*
X1300641Y1098716*
Y1098511*
G54D229*
X1253500Y1100000D02*
X1238500D01*
Y1108000*
X1253500*
Y1100000*
X1237000Y1109000D02*
X1222000D01*
Y1117000*
X1237000*
Y1109000*
X1185000Y1084500D02*
Y1069500D01*
X1177000*
Y1084500*
X1185000*
X1200500Y1034500D02*
X1215500D01*
Y1026500*
X1200500*
Y1034500*
X1261500Y1045500D02*
Y1060500D01*
X1269500*
Y1045500*
X1261500*
X1268500Y1094500D02*
Y1079500D01*
X1260500*
Y1094500*
X1268500*
X1173000Y1045500D02*
Y1060500D01*
X1181000*
Y1045500*
X1173000*
X1178000Y1107000D02*
X1193000D01*
Y1099000*
X1178000*
Y1107000*
X1050500Y1047500D02*
Y1033500D01*
X1043500*
Y1047500*
X1050500*
X1040500D02*
Y1033500D01*
X1033500*
Y1047500*
X1040500*
X1062000Y1094000D02*
Y1108000D01*
X1069000*
Y1094000*
X1062000*
X1337000Y1099000D02*
Y1113000D01*
X1344000*
Y1099000*
X1337000*
X1103500Y1119000D02*
X1122500D01*
Y1110000*
X1103500*
Y1119000*
X652000Y645200D02*
X1688000D01*
Y1350000*
X652000*
Y645200*
X1253500D02*
X1688000D01*
Y840200*
X1253500*
Y645200*
X1253000Y785200D02*
X1688000D01*
Y645200*
X1253000*
Y785200*
Y675200D02*
X1688000D01*
Y645200*
X1253000*
Y675200*
X1413000*
Y645200*
X1253000*
Y675200*
Y785200D02*
X1688000D01*
Y840200*
X1253000*
Y785200*
Y715200D02*
X1688000D01*
Y785200*
X1253000*
Y715200*
X1553000Y675200D02*
X1688000D01*
Y715200*
X1553000*
Y675200*
X818500Y675700D02*
X1024000D01*
Y645200*
X818500*
Y675700*
X1024000Y645200D02*
X1253500D01*
Y675700*
X1024000*
Y645200*
X818500Y785700D02*
X1253500D01*
Y675700*
X818500*
Y785700*
G54D233*
X1252000Y1109244D02*
X1239000D01*
Y1114756*
X1252000*
Y1109244*
X1207500Y1115756D02*
X1220500D01*
Y1110244*
X1207500*
Y1115756*
X1192756Y1083000D02*
Y1070000D01*
X1187244*
Y1083000*
X1192756*
X1336756Y1043000D02*
Y1030000D01*
X1331244*
Y1043000*
X1336756*
X1327756Y1042500D02*
Y1029500D01*
X1322244*
Y1042500*
X1327756*
X1257000Y1114756D02*
X1270000D01*
Y1109244*
X1257000*
Y1114756*
X1155256Y1106500D02*
Y1093500D01*
X1149744*
Y1106500*
X1155256*
X1222000Y1100744D02*
X1209000D01*
Y1106256*
X1222000*
Y1100744*
X1327000Y1051256D02*
X1340000D01*
Y1045744*
X1327000*
Y1051256*
X1156500Y1090756D02*
X1169500D01*
Y1085244*
X1156500*
Y1090756*
X1169744Y1093500D02*
Y1106500D01*
X1175256*
Y1093500*
X1169744*
X1168500Y1108744D02*
X1155500D01*
Y1114256*
X1168500*
Y1108744*
X1170244Y1069500D02*
Y1082500D01*
X1175756*
Y1069500*
X1170244*
X1150744D02*
Y1082500D01*
X1156256*
Y1069500*
X1150744*
X1156744Y1054500D02*
Y1067500D01*
X1162256*
Y1054500*
X1156744*
X1164244D02*
Y1067500D01*
X1169756*
Y1054500*
X1164244*
X1236693Y1099850D02*
X1223307D01*
Y1106150*
X1236693*
Y1099850*
X1314150Y1052193D02*
Y1038807D01*
X1307850*
Y1052193*
X1314150*
X1301350Y1054807D02*
Y1068193D01*
X1307650*
Y1054807*
X1301350*
X1307850D02*
Y1068193D01*
X1314150*
Y1054807*
X1307850*
X1250850Y1065307D02*
Y1078693D01*
X1257150*
Y1065307*
X1250850*
X1325307Y1068150D02*
X1338693D01*
Y1061850*
X1325307*
Y1068150*
Y1076650D02*
X1338693D01*
Y1070350*
X1325307*
Y1076650*
Y1085150D02*
X1338693D01*
Y1078850*
X1325307*
Y1085150*
X1307150Y1052193D02*
Y1038807D01*
X1300850*
Y1052193*
X1307150*
X1168750Y1097250D02*
Y1102750D01*
X1156250*
Y1097250*
X1168750*
X1156750Y1078250D02*
Y1072750D01*
X1169250*
Y1078250*
X1156750*
X1187256Y1060000D02*
Y1047000D01*
X1181744*
Y1060000*
X1187256*
X1229000Y1027744D02*
X1216000D01*
Y1033256*
X1229000*
Y1027744*
X1279000Y1061244D02*
X1266000D01*
Y1066756*
X1279000*
Y1061244*
X1231500Y1032256D02*
X1244500D01*
Y1026744*
X1231500*
Y1032256*
X1256756Y1062000D02*
Y1049000D01*
X1251244*
Y1062000*
X1256756*
X1251744Y1079500D02*
Y1092500D01*
X1257256*
Y1079500*
X1251744*
X1039000Y1052500D02*
X1031000D01*
Y1056500*
X1039000*
Y1052500*
X1020500Y1068500D02*
X1028500D01*
Y1064500*
X1020500*
Y1068500*
X1190307Y1116150D02*
X1203693D01*
Y1109850*
X1190307*
Y1116150*
X1039000Y1048000D02*
X1031000D01*
Y1052000*
X1039000*
Y1048000*
X1029000Y1062000D02*
Y1070000D01*
X1033000*
Y1062000*
X1029000*
X1029500Y1025500D02*
Y1033500D01*
X1033500*
Y1025500*
X1029500*
X1059500Y1024000D02*
X1051500D01*
Y1028000*
X1059500*
Y1024000*
X1059000Y1064000D02*
X1067000D01*
Y1060000*
X1059000*
Y1064000*
X1019000Y1053500D02*
Y1045500D01*
X1015000*
Y1053500*
X1019000*
X1021000Y1028000D02*
Y1036000D01*
X1025000*
Y1028000*
X1021000*
X1039000Y1023500D02*
X1047000D01*
Y1019500*
X1039000*
Y1023500*
X1061000Y1044000D02*
Y1036000D01*
X1057000*
Y1044000*
X1061000*
X1045000Y1056500D02*
X1053000D01*
Y1052500*
X1045000*
Y1056500*
Y1052000D02*
X1053000D01*
Y1048000*
X1045000*
Y1052000*
X1098000Y1109500D02*
X1106000D01*
Y1105500*
X1098000*
Y1109500*
X1129500Y1105500D02*
X1121500D01*
Y1109500*
X1129500*
Y1105500*
X1100000Y1061500D02*
X1108000D01*
Y1057500*
X1100000*
Y1061500*
X1128500Y1060500D02*
Y1068500D01*
X1132500*
Y1060500*
X1128500*
X1031000Y1020000D02*
X1023000D01*
Y1024000*
X1031000*
Y1020000*
X1057000Y1048000D02*
Y1056000D01*
X1061000*
Y1048000*
X1057000*
X1068000Y1055500D02*
Y1063500D01*
X1072000*
Y1055500*
X1068000*
X1072000Y1054500D02*
Y1046500D01*
X1068000*
Y1054500*
X1072000*
X1072500Y1040500D02*
Y1048500D01*
X1076500*
Y1040500*
X1072500*
X1068500Y1039500D02*
X1076500D01*
Y1035500*
X1068500*
Y1039500*
X1018500Y1034000D02*
Y1026000D01*
X1014500*
Y1034000*
X1018500*
X1070744Y1094500D02*
Y1107500D01*
X1076256*
Y1094500*
X1070744*
X1084756Y1107500D02*
Y1094500D01*
X1079244*
Y1107500*
X1084756*
X1080000Y1116500D02*
Y1108500D01*
X1076000*
Y1116500*
X1080000*
X1329500Y1098500D02*
Y1106500D01*
X1333500*
Y1098500*
X1329500*
X1324500D02*
Y1106500D01*
X1328500*
Y1098500*
X1324500*
X1307250Y1112000D02*
X1301750D01*
Y1099250*
X1307250*
Y1112000*
X1301750*
Y1099250*
X1307250*
Y1112000*
X1293500Y1078500D02*
X1305500D01*
Y1096500*
X1293500*
Y1078500*
X1296500Y1111000D02*
Y1103000D01*
X1292500*
Y1111000*
X1296500*
X1315500Y1095000D02*
X1307500D01*
Y1099000*
X1315500*
Y1095000*
X1303500Y1116000D02*
X1311500D01*
Y1112000*
X1303500*
Y1116000*
X1313500Y1110118D02*
X1320500D01*
Y1099882*
X1313500*
Y1110118*
X1244955Y1097500D02*
X1245091Y1097875D01*
X1245364Y1098250*
X1245636Y1098438*
X1245636D02*
X1246182D01*
X1246182D02*
X1246455Y1098250D01*
X1246727Y1097875*
X1246864Y1097500*
X1247000Y1096938*
X1247000D02*
Y1096000D01*
X1246864Y1095438*
X1246864D02*
X1246727Y1095063D01*
X1246727D02*
X1246455Y1094688D01*
X1246455D02*
X1246182Y1094500D01*
X1245636*
X1245364Y1094688*
X1245364D02*
X1245091Y1095063D01*
X1245091D02*
X1244955Y1095438D01*
X1243727Y1097688D02*
X1243455Y1097875D01*
X1243045Y1098438*
X1243045D02*
Y1094500D01*
X1241818Y1097688D02*
X1241545Y1097875D01*
X1241136Y1098438*
X1241136D02*
Y1094500D01*
X1205455Y1108000D02*
X1205591Y1108375D01*
X1205864Y1108750*
X1206136Y1108938*
X1206682*
X1206955Y1108750*
X1207227Y1108375*
X1207364Y1108000*
X1207500Y1107438*
Y1106500*
X1207364Y1105938*
X1207227Y1105563*
X1206955Y1105188*
X1206682Y1105000*
X1206136*
X1205864Y1105188*
X1205591Y1105563*
X1205455Y1105938*
X1204227Y1108188D02*
X1203955Y1108375D01*
X1203545Y1108938*
Y1105000*
X1202182Y1108000D02*
Y1108188D01*
X1202045Y1108563*
X1201909Y1108750*
X1201636Y1108938*
X1201091*
X1200818Y1108750*
X1200682Y1108563*
X1200545Y1108188*
Y1107813*
X1200682Y1107438*
X1200955Y1106875*
X1202318Y1105000*
X1200409*
X1191000Y1086545D02*
X1191375Y1086409D01*
X1191750Y1086136*
X1191938Y1085864*
Y1085318*
X1191750Y1085045*
X1191375Y1084773*
X1191000Y1084636*
X1190438Y1084500*
X1189500*
X1188938Y1084636*
X1188563Y1084773*
X1188188Y1085045*
X1188000Y1085318*
Y1085864*
X1188188Y1086136*
X1188563Y1086409*
X1188938Y1086545*
X1191188Y1087773D02*
X1191375Y1088045D01*
X1191938Y1088455*
X1188000*
X1191938Y1089955D02*
Y1091455D01*
X1190438Y1090636*
Y1091045*
X1190250Y1091318*
X1190063Y1091455*
X1189500Y1091591*
X1189125*
X1188563Y1091455*
X1188188Y1091182*
X1188000Y1090773*
Y1090364*
X1188188Y1089955*
X1188375Y1089818*
X1188750Y1089682*
X1335000Y1021545D02*
X1335375Y1021409D01*
X1335750Y1021136*
X1335938Y1020864*
X1335938D02*
Y1020318D01*
X1335938D02*
X1335750Y1020045D01*
X1335375Y1019773*
X1335000Y1019636*
X1334438Y1019500*
X1334438D02*
X1333500D01*
X1332938Y1019636*
X1332938D02*
X1332563Y1019773D01*
X1332563D02*
X1332188Y1020045D01*
X1332188D02*
X1332000Y1020318D01*
Y1020864*
X1332188Y1021136*
X1332188D02*
X1332563Y1021409D01*
X1332563D02*
X1332938Y1021545D01*
X1335000Y1022909D02*
X1335188D01*
X1335188D02*
X1335563Y1023045D01*
X1335563D02*
X1335750Y1023182D01*
X1335938Y1023455*
X1335938D02*
Y1024000D01*
X1335938D02*
X1335750Y1024273D01*
X1335563Y1024409*
X1335563D02*
X1335188Y1024545D01*
X1335188D02*
X1334813D01*
X1334813D02*
X1334438Y1024409D01*
X1334438D02*
X1333875Y1024136D01*
X1332000Y1022773*
Y1024682*
X1335375Y1027545D02*
X1335750Y1027409D01*
X1335938Y1027000*
X1335938D02*
Y1026727D01*
X1335938D02*
X1335750Y1026318D01*
X1335188Y1026045*
X1335188D02*
X1334250Y1025909D01*
X1333313*
X1333313D02*
X1332563Y1026045D01*
X1332563D02*
X1332188Y1026318D01*
X1332188D02*
X1332000Y1026727D01*
Y1026864*
X1332188Y1027273*
X1332188D02*
X1332563Y1027545D01*
X1332563D02*
X1333125Y1027682D01*
X1333313*
X1333313D02*
X1333875Y1027545D01*
X1334250Y1027273*
X1334438Y1026864*
X1334438D02*
Y1026727D01*
X1334438D02*
X1334250Y1026318D01*
X1333875Y1026045*
X1333313Y1025909*
X1326000Y1021545D02*
X1326375Y1021409D01*
X1326750Y1021136*
X1326938Y1020864*
X1326938D02*
Y1020318D01*
X1326938D02*
X1326750Y1020045D01*
X1326375Y1019773*
X1326000Y1019636*
X1325438Y1019500*
X1325438D02*
X1324500D01*
X1323938Y1019636*
X1323938D02*
X1323563Y1019773D01*
X1323563D02*
X1323188Y1020045D01*
X1323188D02*
X1323000Y1020318D01*
Y1020864*
X1323188Y1021136*
X1323188D02*
X1323563Y1021409D01*
X1323563D02*
X1323938Y1021545D01*
X1326000Y1022909D02*
X1326188D01*
X1326188D02*
X1326563Y1023045D01*
X1326563D02*
X1326750Y1023182D01*
X1326938Y1023455*
X1326938D02*
Y1024000D01*
X1326938D02*
X1326750Y1024273D01*
X1326563Y1024409*
X1326563D02*
X1326188Y1024545D01*
X1326188D02*
X1325813D01*
X1325813D02*
X1325438Y1024409D01*
X1325438D02*
X1324875Y1024136D01*
X1323000Y1022773*
Y1024682*
X1326938Y1026591D02*
X1326750Y1026182D01*
X1326375Y1026045*
X1326000*
X1325625Y1026182*
X1325438Y1026455*
X1325438D02*
X1325250Y1027000D01*
X1325063Y1027409*
X1325063D02*
X1324688Y1027682D01*
X1324688D02*
X1324313Y1027818D01*
X1324313D02*
X1323750D01*
X1323375Y1027682*
X1323188Y1027545*
X1323188D02*
X1323000Y1027136D01*
Y1026591*
X1323188Y1026182*
X1323188D02*
X1323375Y1026045D01*
X1323750Y1025909*
X1324313*
X1324313D02*
X1324688Y1026045D01*
X1324688D02*
X1325063Y1026318D01*
X1325063D02*
X1325250Y1026727D01*
X1325438Y1027273*
X1325438D02*
X1325625Y1027545D01*
X1326000Y1027682*
X1326375*
X1326750Y1027545*
X1326938Y1027136*
X1326938D02*
Y1026591D01*
X1273455Y1113000D02*
X1273591Y1113375D01*
X1273864Y1113750*
X1274136Y1113938*
X1274136D02*
X1274682D01*
X1274682D02*
X1274955Y1113750D01*
X1275227Y1113375*
X1275364Y1113000*
X1275500Y1112438*
X1275500D02*
Y1111500D01*
X1275364Y1110938*
X1275364D02*
X1275227Y1110563D01*
X1275227D02*
X1274955Y1110188D01*
X1274955D02*
X1274682Y1110000D01*
X1274136*
X1273864Y1110188*
X1273864D02*
X1273591Y1110563D01*
X1273591D02*
X1273455Y1110938D01*
X1272227Y1113188D02*
X1271955Y1113375D01*
X1271545Y1113938*
X1271545D02*
Y1110000D01*
X1140500Y1099045D02*
X1140875Y1098909D01*
X1141250Y1098636*
X1141438Y1098364*
X1141438D02*
Y1097818D01*
X1141438D02*
X1141250Y1097545D01*
X1140875Y1097273*
X1140500Y1097136*
X1139938Y1097000*
X1139938D02*
X1139000D01*
X1138438Y1097136*
X1138438D02*
X1138063Y1097273D01*
X1138063D02*
X1137688Y1097545D01*
X1137688D02*
X1137500Y1097818D01*
Y1098364*
X1137688Y1098636*
X1137688D02*
X1138063Y1098909D01*
X1138063D02*
X1138438Y1099045D01*
X1140500Y1100409D02*
X1140688D01*
X1140688D02*
X1141063Y1100545D01*
X1141063D02*
X1141250Y1100682D01*
X1141438Y1100955*
X1141438D02*
Y1101500D01*
X1141438D02*
X1141250Y1101773D01*
X1141063Y1101909*
X1141063D02*
X1140688Y1102045D01*
X1140688D02*
X1140313D01*
X1140313D02*
X1139938Y1101909D01*
X1139938D02*
X1139375Y1101636D01*
X1137500Y1100273*
Y1102182*
X1219455Y1099000D02*
X1219591Y1099375D01*
X1219864Y1099750*
X1220136Y1099938*
X1220136D02*
X1220682D01*
X1220682D02*
X1220955Y1099750D01*
X1221227Y1099375*
X1221364Y1099000*
X1221500Y1098438*
X1221500D02*
Y1097500D01*
X1221364Y1096938*
X1221364D02*
X1221227Y1096563D01*
X1221227D02*
X1220955Y1096188D01*
X1220955D02*
X1220682Y1096000D01*
X1220136*
X1219864Y1096188*
X1219864D02*
X1219591Y1096563D01*
X1219591D02*
X1219455Y1096938D01*
X1218091Y1099000D02*
Y1099188D01*
X1218091D02*
X1217955Y1099563D01*
X1217955D02*
X1217818Y1099750D01*
X1217545Y1099938*
X1217545D02*
X1217000D01*
X1217000D02*
X1216727Y1099750D01*
X1216591Y1099563*
X1216591D02*
X1216455Y1099188D01*
X1216455D02*
Y1098813D01*
X1216455D02*
X1216591Y1098438D01*
X1216591D02*
X1216864Y1097875D01*
X1218227Y1096000*
X1216318*
X1214273Y1099938D02*
X1214682Y1099750D01*
X1214955Y1099188*
X1214955D02*
X1215091Y1098250D01*
Y1097688*
X1215091D02*
X1214955Y1096750D01*
X1214682Y1096188*
X1214682D02*
X1214273Y1096000D01*
X1214000*
X1213591Y1096188*
X1213591D02*
X1213318Y1096750D01*
X1213182Y1097688*
X1213182D02*
Y1098250D01*
X1213318Y1099188*
X1213318D02*
X1213591Y1099750D01*
X1214000Y1099938*
X1214000D02*
X1214273D01*
X1335955Y1055500D02*
X1336091Y1055875D01*
X1336364Y1056250*
X1336636Y1056437*
X1336636D02*
X1337182D01*
X1337182D02*
X1337455Y1056250D01*
X1337727Y1055875*
X1337864Y1055500*
X1338000Y1054937*
X1338000D02*
Y1054000D01*
X1337864Y1053437*
X1337864D02*
X1337727Y1053062D01*
X1337727D02*
X1337455Y1052687D01*
X1337455D02*
X1337182Y1052500D01*
X1336636*
X1336364Y1052687*
X1336364D02*
X1336091Y1053062D01*
X1336091D02*
X1335955Y1053437D01*
X1334591Y1055500D02*
Y1055687D01*
X1334591D02*
X1334455Y1056062D01*
X1334455D02*
X1334318Y1056250D01*
X1334045Y1056437*
X1334045D02*
X1333500D01*
X1333500D02*
X1333227Y1056250D01*
X1333091Y1056062*
X1333091D02*
X1332955Y1055687D01*
X1332955D02*
Y1055312D01*
X1332955D02*
X1333091Y1054937D01*
X1333091D02*
X1333364Y1054375D01*
X1334727Y1052500*
X1332818*
X1329818Y1055125D02*
X1329955Y1054562D01*
X1329955D02*
X1330227Y1054187D01*
X1330227D02*
X1330636Y1054000D01*
X1330773*
X1331182Y1054187*
X1331182D02*
X1331455Y1054562D01*
X1331455D02*
X1331591Y1055125D01*
Y1055312*
X1331591D02*
X1331455Y1055875D01*
X1331182Y1056250*
X1330773Y1056437*
X1330773D02*
X1330636D01*
X1330636D02*
X1330227Y1056250D01*
X1329955Y1055875*
X1329818Y1055125*
Y1054187*
X1329818D02*
X1329955Y1053250D01*
X1330227Y1052687*
X1330227D02*
X1330636Y1052500D01*
X1330909*
X1331318Y1052687*
X1331318D02*
X1331455Y1053062D01*
X1152955Y1088500D02*
X1153091Y1088875D01*
X1153364Y1089250*
X1153636Y1089438*
X1154182*
X1154455Y1089250*
X1154727Y1088875*
X1154864Y1088500*
X1155000Y1087938*
Y1087000*
X1154864Y1086438*
X1154727Y1086063*
X1154455Y1085688*
X1154182Y1085500*
X1153636*
X1153364Y1085688*
X1153091Y1086063*
X1152955Y1086438*
X1151455Y1089438D02*
X1149955D01*
X1150773Y1087938*
X1150364*
X1150091Y1087750*
X1149955Y1087563*
X1149818Y1087000*
Y1086625*
X1149955Y1086063*
X1150227Y1085688*
X1150636Y1085500*
X1151045*
X1151455Y1085688*
X1151591Y1085875*
X1151727Y1086250*
X1174000Y1111045D02*
X1174375Y1110909D01*
X1174750Y1110636*
X1174938Y1110364*
X1174938D02*
Y1109818D01*
X1174938D02*
X1174750Y1109545D01*
X1174375Y1109273*
X1174000Y1109136*
X1173438Y1109000*
X1173438D02*
X1172500D01*
X1171938Y1109136*
X1171938D02*
X1171563Y1109273D01*
X1171563D02*
X1171188Y1109545D01*
X1171188D02*
X1171000Y1109818D01*
Y1110364*
X1171188Y1110636*
X1171188D02*
X1171563Y1110909D01*
X1171563D02*
X1171938Y1111045D01*
X1174938Y1113636D02*
X1172313Y1112273D01*
X1172313D02*
Y1114318D01*
X1174938Y1113636D02*
X1171000D01*
X1149955Y1112500D02*
X1150091Y1112875D01*
X1150364Y1113250*
X1150636Y1113438*
X1150636D02*
X1151182D01*
X1151182D02*
X1151455Y1113250D01*
X1151727Y1112875*
X1151864Y1112500*
X1152000Y1111938*
X1152000D02*
Y1111000D01*
X1151864Y1110438*
X1151864D02*
X1151727Y1110063D01*
X1151727D02*
X1151455Y1109688D01*
X1151455D02*
X1151182Y1109500D01*
X1150636*
X1150364Y1109688*
X1150364D02*
X1150091Y1110063D01*
X1150091D02*
X1149955Y1110438D01*
X1146955Y1113438D02*
X1148318D01*
X1148318D02*
X1148455Y1111750D01*
X1148318Y1111938*
X1148318D02*
X1147909Y1112125D01*
X1147500*
X1147091Y1111938*
X1147091D02*
X1146818Y1111563D01*
X1146818D02*
X1146682Y1111000D01*
X1146818Y1110625*
X1146955Y1110063*
X1146955D02*
X1147227Y1109688D01*
X1147227D02*
X1147636Y1109500D01*
X1148045*
X1148455Y1109688*
X1148455D02*
X1148591Y1109875D01*
X1148727Y1110250*
X1174000Y1086545D02*
X1174375Y1086409D01*
X1174750Y1086136*
X1174938Y1085864*
Y1085318*
X1174750Y1085045*
X1174375Y1084773*
X1174000Y1084636*
X1173438Y1084500*
X1172500*
X1171938Y1084636*
X1171563Y1084773*
X1171188Y1085045*
X1171000Y1085318*
Y1085864*
X1171188Y1086136*
X1171563Y1086409*
X1171938Y1086545*
X1174375Y1089409D02*
X1174750Y1089273D01*
X1174938Y1088864*
Y1088591*
X1174750Y1088182*
X1174188Y1087909*
X1173250Y1087773*
X1172313*
X1171563Y1087909*
X1171188Y1088182*
X1171000Y1088591*
Y1088727*
X1171188Y1089136*
X1171563Y1089409*
X1172125Y1089545*
X1172313*
X1172875Y1089409*
X1173250Y1089136*
X1173438Y1088727*
Y1088591*
X1173250Y1088182*
X1172875Y1087909*
X1172313Y1087773*
X1140500Y1075045D02*
X1140875Y1074909D01*
X1141250Y1074636*
X1141438Y1074364*
X1141438D02*
Y1073818D01*
X1141438D02*
X1141250Y1073545D01*
X1140875Y1073273*
X1140500Y1073136*
X1139938Y1073000*
X1139938D02*
X1139000D01*
X1138438Y1073136*
X1138438D02*
X1138063Y1073273D01*
X1138063D02*
X1137688Y1073545D01*
X1137688D02*
X1137500Y1073818D01*
Y1074364*
X1137688Y1074636*
X1137688D02*
X1138063Y1074909D01*
X1138063D02*
X1138438Y1075045D01*
X1141438Y1078182D02*
X1137500Y1076818D01*
X1141438Y1076273D02*
Y1078182D01*
X1160000Y1049045D02*
X1160375Y1048909D01*
X1160750Y1048636*
X1160938Y1048364*
X1160938D02*
Y1047818D01*
X1160938D02*
X1160750Y1047545D01*
X1160375Y1047273*
X1160000Y1047136*
X1159438Y1047000*
X1159438D02*
X1158500D01*
X1157938Y1047136*
X1157938D02*
X1157563Y1047273D01*
X1157563D02*
X1157188Y1047545D01*
X1157188D02*
X1157000Y1047818D01*
Y1048364*
X1157188Y1048636*
X1157188D02*
X1157563Y1048909D01*
X1157563D02*
X1157938Y1049045D01*
X1160938Y1050955D02*
X1160750Y1050545D01*
X1160375Y1050409*
X1160000*
X1159625Y1050545*
X1159438Y1050818*
X1159438D02*
X1159250Y1051364D01*
X1159063Y1051773*
X1159063D02*
X1158688Y1052045D01*
X1158688D02*
X1158313Y1052182D01*
X1158313D02*
X1157750D01*
X1157375Y1052045*
X1157188Y1051909*
X1157188D02*
X1157000Y1051500D01*
Y1050955*
X1157188Y1050545*
X1157188D02*
X1157375Y1050409D01*
X1157750Y1050273*
X1158313*
X1158313D02*
X1158688Y1050409D01*
X1158688D02*
X1159063Y1050682D01*
X1159063D02*
X1159250Y1051091D01*
X1159438Y1051636*
X1159438D02*
X1159625Y1051909D01*
X1160000Y1052045*
X1160375*
X1160750Y1051909*
X1160938Y1051500*
X1160938D02*
Y1050955D01*
X1169000Y1049545D02*
X1169375Y1049409D01*
X1169750Y1049136*
X1169938Y1048864*
X1169938D02*
Y1048318D01*
X1169938D02*
X1169750Y1048045D01*
X1169375Y1047773*
X1169000Y1047636*
X1168438Y1047500*
X1168438D02*
X1167500D01*
X1166938Y1047636*
X1166938D02*
X1166563Y1047773D01*
X1166563D02*
X1166188Y1048045D01*
X1166188D02*
X1166000Y1048318D01*
Y1048864*
X1166188Y1049136*
X1166188D02*
X1166563Y1049409D01*
X1166563D02*
X1166938Y1049545D01*
X1168625Y1052545D02*
X1168063Y1052409D01*
X1168063D02*
X1167688Y1052136D01*
X1167688D02*
X1167500Y1051727D01*
Y1051591*
X1167688Y1051182*
X1167688D02*
X1168063Y1050909D01*
X1168063D02*
X1168625Y1050773D01*
X1168813*
X1168813D02*
X1169375Y1050909D01*
X1169750Y1051182*
X1169938Y1051591*
X1169938D02*
Y1051727D01*
X1169938D02*
X1169750Y1052136D01*
X1169375Y1052409*
X1168625Y1052545*
X1167688*
X1167688D02*
X1166750Y1052409D01*
X1166188Y1052136*
X1166188D02*
X1166000Y1051727D01*
Y1051455*
X1166188Y1051045*
X1166188D02*
X1166563Y1050909D01*
X1244000Y1092438D02*
Y1088500D01*
X1242364*
X1241136Y1091688D02*
X1240864Y1091875D01*
X1240455Y1092438*
X1240455D02*
Y1088500D01*
X1232000Y1096438D02*
Y1092500D01*
X1230364*
X1229000Y1095500D02*
Y1095688D01*
X1229000D02*
X1228864Y1096063D01*
X1228864D02*
X1228727Y1096250D01*
X1228455Y1096438*
X1228455D02*
X1227909D01*
X1227909D02*
X1227636Y1096250D01*
X1227500Y1096063*
X1227500D02*
X1227364Y1095688D01*
X1227364D02*
Y1095313D01*
X1227364D02*
X1227500Y1094938D01*
X1227500D02*
X1227773Y1094375D01*
X1229136Y1092500*
X1227227*
X1231000Y1089938D02*
Y1086000D01*
Y1089938D02*
X1229773D01*
X1229773D02*
X1229364Y1089750D01*
X1229227Y1089563*
X1229227D02*
X1229091Y1089188D01*
X1229091D02*
Y1088813D01*
X1229091D02*
X1229227Y1088438D01*
X1229227D02*
X1229364Y1088250D01*
X1229773Y1088063*
X1229773D02*
X1231000D01*
X1230045D02*
X1229091Y1086000D01*
X1227864Y1089188D02*
X1227591Y1089375D01*
X1227182Y1089938*
X1227182D02*
Y1086000D01*
X1306438Y1029000D02*
X1302500D01*
X1306438D02*
Y1030227D01*
X1306438D02*
X1306250Y1030636D01*
X1306063Y1030773*
X1306063D02*
X1305688Y1030909D01*
X1305688D02*
X1305313D01*
X1305313D02*
X1304938Y1030773D01*
X1304938D02*
X1304750Y1030636D01*
X1304563Y1030227*
X1304563D02*
Y1029000D01*
Y1029955D02*
X1302500Y1030909D01*
X1305688Y1032136D02*
X1305875Y1032409D01*
X1306438Y1032818*
X1306438D02*
X1302500D01*
X1306438Y1034864D02*
X1306250Y1034455D01*
X1305688Y1034182*
X1305688D02*
X1304750Y1034045D01*
X1304188*
X1304188D02*
X1303250Y1034182D01*
X1302688Y1034455*
X1302688D02*
X1302500Y1034864D01*
Y1035136*
X1302688Y1035545*
X1302688D02*
X1303250Y1035818D01*
X1304188Y1035955*
X1304188D02*
X1304750D01*
X1305688Y1035818*
X1305688D02*
X1306250Y1035545D01*
X1306438Y1035136*
X1306438D02*
Y1034864D01*
X1294438Y1055500D02*
X1290500D01*
X1294438D02*
Y1056727D01*
X1294438D02*
X1294250Y1057136D01*
X1294063Y1057273*
X1294063D02*
X1293688Y1057409D01*
X1293688D02*
X1293313D01*
X1293313D02*
X1292938Y1057273D01*
X1292938D02*
X1292750Y1057136D01*
X1292563Y1056727*
X1292563D02*
Y1055500D01*
Y1056455D02*
X1290500Y1057409D01*
X1293688Y1058636D02*
X1293875Y1058909D01*
X1294438Y1059318*
X1294438D02*
X1290500D01*
X1293688Y1060545D02*
X1293875Y1060818D01*
X1294438Y1061227*
X1294438D02*
X1290500D01*
X1299938Y1055500D02*
X1296000D01*
X1299938D02*
Y1056727D01*
X1299938D02*
X1299750Y1057136D01*
X1299563Y1057273*
X1299563D02*
X1299188Y1057409D01*
X1299188D02*
X1298813D01*
X1298813D02*
X1298438Y1057273D01*
X1298438D02*
X1298250Y1057136D01*
X1298063Y1056727*
X1298063D02*
Y1055500D01*
Y1056455D02*
X1296000Y1057409D01*
X1299188Y1058636D02*
X1299375Y1058909D01*
X1299938Y1059318*
X1299938D02*
X1296000D01*
X1299000Y1060682D02*
X1299188D01*
X1299188D02*
X1299563Y1060818D01*
X1299563D02*
X1299750Y1060955D01*
X1299938Y1061227*
X1299938D02*
Y1061773D01*
X1299938D02*
X1299750Y1062045D01*
X1299563Y1062182*
X1299563D02*
X1299188Y1062318D01*
X1299188D02*
X1298813D01*
X1298813D02*
X1298438Y1062182D01*
X1298438D02*
X1297875Y1061909D01*
X1296000Y1060545*
Y1062455*
X1249938Y1067000D02*
X1246000D01*
X1249938D02*
Y1068227D01*
X1249938D02*
X1249750Y1068636D01*
X1249563Y1068773*
X1249563D02*
X1249188Y1068909D01*
X1249188D02*
X1248813D01*
X1248813D02*
X1248438Y1068773D01*
X1248438D02*
X1248250Y1068636D01*
X1248063Y1068227*
X1248063D02*
Y1067000D01*
Y1067955D02*
X1246000Y1068909D01*
X1249000Y1070273D02*
X1249188D01*
X1249188D02*
X1249563Y1070409D01*
X1249563D02*
X1249750Y1070545D01*
X1249938Y1070818*
X1249938D02*
Y1071364D01*
X1249938D02*
X1249750Y1071636D01*
X1249563Y1071773*
X1249563D02*
X1249188Y1071909D01*
X1249188D02*
X1248813D01*
X1248813D02*
X1248438Y1071773D01*
X1248438D02*
X1247875Y1071500D01*
X1246000Y1070136*
Y1072045*
X1322500Y1067438D02*
Y1063500D01*
Y1067438D02*
X1321273D01*
X1320864Y1067250*
X1320727Y1067063*
X1320591Y1066688*
Y1066313*
X1320727Y1065938*
X1320864Y1065750*
X1321273Y1065563*
X1322500*
X1321545D02*
X1320591Y1063500D01*
X1318000Y1067438D02*
X1319364Y1064813D01*
X1317318*
X1318000Y1067438D02*
Y1063500D01*
X1323000Y1075938D02*
Y1072000D01*
Y1075938D02*
X1321773D01*
X1321364Y1075750*
X1321227Y1075563*
X1321091Y1075188*
Y1074813*
X1321227Y1074438*
X1321364Y1074250*
X1321773Y1074063*
X1323000*
X1322045D02*
X1321091Y1072000D01*
X1318091Y1075938D02*
X1319455D01*
X1319591Y1074250*
X1319455Y1074438*
X1319045Y1074625*
X1318636*
X1318227Y1074438*
X1317955Y1074063*
X1317818Y1073500*
X1317955Y1073125*
X1318091Y1072563*
X1318364Y1072188*
X1318773Y1072000*
X1319182*
X1319591Y1072188*
X1319727Y1072375*
X1319864Y1072750*
X1322500Y1084438D02*
Y1080500D01*
Y1084438D02*
X1321273D01*
X1320864Y1084250*
X1320727Y1084063*
X1320591Y1083688*
Y1083313*
X1320727Y1082938*
X1320864Y1082750*
X1321273Y1082563*
X1322500*
X1321545D02*
X1320591Y1080500D01*
X1317727Y1083875D02*
X1317864Y1084250D01*
X1318273Y1084438*
X1318545*
X1318955Y1084250*
X1319227Y1083688*
X1319364Y1082750*
Y1081813*
X1319227Y1081063*
X1318955Y1080688*
X1318545Y1080500*
X1318409*
X1318000Y1080688*
X1317727Y1081063*
X1317591Y1081625*
Y1081813*
X1317727Y1082375*
X1318000Y1082750*
X1318409Y1082938*
X1318545*
X1318955Y1082750*
X1319227Y1082375*
X1319364Y1081813*
X1300938Y1029000D02*
X1297000D01*
X1300938D02*
Y1030227D01*
X1300938D02*
X1300750Y1030636D01*
X1300563Y1030773*
X1300563D02*
X1300188Y1030909D01*
X1300188D02*
X1299813D01*
X1299813D02*
X1299438Y1030773D01*
X1299438D02*
X1299250Y1030636D01*
X1299063Y1030227*
X1299063D02*
Y1029000D01*
Y1029955D02*
X1297000Y1030909D01*
X1299625Y1033909D02*
X1299063Y1033773D01*
X1299063D02*
X1298688Y1033500D01*
X1298688D02*
X1298500Y1033091D01*
Y1032955*
X1298688Y1032545*
X1298688D02*
X1299063Y1032273D01*
X1299063D02*
X1299625Y1032136D01*
X1299813*
X1299813D02*
X1300375Y1032273D01*
X1300750Y1032545*
X1300938Y1032955*
X1300938D02*
Y1033091D01*
X1300938D02*
X1300750Y1033500D01*
X1300375Y1033773*
X1299625Y1033909*
X1298688*
X1298688D02*
X1297750Y1033773D01*
X1297188Y1033500*
X1297188D02*
X1297000Y1033091D01*
Y1032818*
X1297188Y1032409*
X1297188D02*
X1297563Y1032273D01*
X1148095Y1101594D02*
Y1098781D01*
X1147959Y1098219*
X1147686Y1097844*
X1147277Y1097656*
X1147005*
X1146595Y1097844*
X1146323Y1098219*
X1146186Y1098781*
Y1101594*
X1144823Y1100656D02*
Y1100844D01*
X1144686Y1101219*
X1144550Y1101406*
X1144277Y1101594*
X1143732*
X1143459Y1101406*
X1143323Y1101219*
X1143186Y1100844*
Y1100469*
X1143323Y1100094*
X1143595Y1099531*
X1144959Y1097656*
X1143050*
X1149095Y1077594D02*
Y1074781D01*
X1148959Y1074219*
X1148686Y1073844*
X1148277Y1073656*
X1148005*
X1147595Y1073844*
X1147323Y1074219*
X1147186Y1074781*
Y1077594*
X1145686D02*
X1144186D01*
X1145005Y1076094*
X1144595*
X1144323Y1075906*
X1144186Y1075719*
X1144050Y1075156*
Y1074781*
X1144186Y1074219*
X1144459Y1073844*
X1144868Y1073656*
X1145277*
X1145686Y1073844*
X1145823Y1074031*
X1145959Y1074406*
X1186000Y1040545D02*
X1186375Y1040409D01*
X1186750Y1040136*
X1186938Y1039864*
X1186938D02*
Y1039318D01*
X1186938D02*
X1186750Y1039045D01*
X1186375Y1038773*
X1186000Y1038636*
X1185438Y1038500*
X1185438D02*
X1184500D01*
X1183938Y1038636*
X1183938D02*
X1183563Y1038773D01*
X1183563D02*
X1183188Y1039045D01*
X1183188D02*
X1183000Y1039318D01*
Y1039864*
X1183188Y1040136*
X1183188D02*
X1183563Y1040409D01*
X1183563D02*
X1183938Y1040545D01*
X1186188Y1041773D02*
X1186375Y1042045D01*
X1186938Y1042455*
X1186938D02*
X1183000D01*
X1186938Y1045591D02*
X1183000Y1044227D01*
X1186938Y1043682D02*
Y1045591D01*
X1182938Y1086000D02*
X1179000D01*
Y1087636*
X1182938Y1089136D02*
Y1090636D01*
X1181438Y1089818*
Y1090227*
X1181250Y1090500*
X1181063Y1090636*
X1180500Y1090773*
X1180125*
X1179563Y1090636*
X1179188Y1090364*
X1179000Y1089955*
Y1089545*
X1179188Y1089136*
X1179375Y1089000*
X1179750Y1088864*
X1210500Y1025438D02*
Y1021500D01*
X1208864*
X1206273Y1025438D02*
X1207636Y1022813D01*
X1207636D02*
X1205591D01*
X1206273Y1025438D02*
Y1021500D01*
X1223955Y1025500D02*
X1224091Y1025875D01*
X1224364Y1026250*
X1224636Y1026438*
X1224636D02*
X1225182D01*
X1225182D02*
X1225455Y1026250D01*
X1225727Y1025875*
X1225864Y1025500*
X1226000Y1024938*
X1226000D02*
Y1024000D01*
X1225864Y1023438*
X1225864D02*
X1225727Y1023063D01*
X1225727D02*
X1225455Y1022688D01*
X1225455D02*
X1225182Y1022500D01*
X1224636*
X1224364Y1022688*
X1224364D02*
X1224091Y1023063D01*
X1224091D02*
X1223955Y1023438D01*
X1222727Y1025688D02*
X1222455Y1025875D01*
X1222045Y1026438*
X1222045D02*
Y1022500D01*
X1219455Y1026438D02*
X1220818Y1023813D01*
X1220818D02*
X1218773D01*
X1219455Y1026438D02*
Y1022500D01*
X1274955Y1070500D02*
X1275091Y1070875D01*
X1275364Y1071250*
X1275636Y1071438*
X1275636D02*
X1276182D01*
X1276182D02*
X1276455Y1071250D01*
X1276727Y1070875*
X1276864Y1070500*
X1277000Y1069938*
X1277000D02*
Y1069000D01*
X1276864Y1068438*
X1276864D02*
X1276727Y1068063D01*
X1276727D02*
X1276455Y1067688D01*
X1276455D02*
X1276182Y1067500D01*
X1275636*
X1275364Y1067688*
X1275364D02*
X1275091Y1068063D01*
X1275091D02*
X1274955Y1068438D01*
X1273727Y1070688D02*
X1273455Y1070875D01*
X1273045Y1071438*
X1273045D02*
Y1067500D01*
X1270045Y1071438D02*
X1271409D01*
X1271409D02*
X1271545Y1069750D01*
X1271409Y1069938*
X1271409D02*
X1271000Y1070125D01*
X1270591*
X1270182Y1069938*
X1270182D02*
X1269909Y1069563D01*
X1269909D02*
X1269773Y1069000D01*
X1269909Y1068625*
X1270045Y1068063*
X1270045D02*
X1270318Y1067688D01*
X1270318D02*
X1270727Y1067500D01*
X1271136*
X1271545Y1067688*
X1271545D02*
X1271682Y1067875D01*
X1271818Y1068250*
X1239955Y1025000D02*
X1240091Y1025375D01*
X1240364Y1025750*
X1240636Y1025938*
X1240636D02*
X1241182D01*
X1241182D02*
X1241455Y1025750D01*
X1241727Y1025375*
X1241864Y1025000*
X1242000Y1024438*
X1242000D02*
Y1023500D01*
X1241864Y1022938*
X1241864D02*
X1241727Y1022563D01*
X1241727D02*
X1241455Y1022188D01*
X1241455D02*
X1241182Y1022000D01*
X1240636*
X1240364Y1022188*
X1240364D02*
X1240091Y1022563D01*
X1240091D02*
X1239955Y1022938D01*
X1238591Y1025000D02*
Y1025188D01*
X1238591D02*
X1238455Y1025563D01*
X1238455D02*
X1238318Y1025750D01*
X1238045Y1025938*
X1238045D02*
X1237500D01*
X1237500D02*
X1237227Y1025750D01*
X1237091Y1025563*
X1237091D02*
X1236955Y1025188D01*
X1236955D02*
Y1024813D01*
X1236955D02*
X1237091Y1024438D01*
X1237091D02*
X1237364Y1023875D01*
X1238727Y1022000*
X1236818*
X1235455Y1025000D02*
Y1025188D01*
X1235455D02*
X1235318Y1025563D01*
X1235318D02*
X1235182Y1025750D01*
X1234909Y1025938*
X1234909D02*
X1234364D01*
X1234364D02*
X1234091Y1025750D01*
X1233955Y1025563*
X1233955D02*
X1233818Y1025188D01*
X1233818D02*
Y1024813D01*
X1233818D02*
X1233955Y1024438D01*
X1233955D02*
X1234227Y1023875D01*
X1235591Y1022000*
X1233682*
X1249000Y1051545D02*
X1249375Y1051409D01*
X1249750Y1051136*
X1249938Y1050864*
X1249938D02*
Y1050318D01*
X1249938D02*
X1249750Y1050045D01*
X1249375Y1049773*
X1249000Y1049636*
X1248438Y1049500*
X1248438D02*
X1247500D01*
X1246938Y1049636*
X1246938D02*
X1246563Y1049773D01*
X1246563D02*
X1246188Y1050045D01*
X1246188D02*
X1246000Y1050318D01*
Y1050864*
X1246188Y1051136*
X1246188D02*
X1246563Y1051409D01*
X1246563D02*
X1246938Y1051545D01*
X1249000Y1052909D02*
X1249188D01*
X1249188D02*
X1249563Y1053045D01*
X1249563D02*
X1249750Y1053182D01*
X1249938Y1053455*
X1249938D02*
Y1054000D01*
X1249938D02*
X1249750Y1054273D01*
X1249563Y1054409*
X1249563D02*
X1249188Y1054545D01*
X1249188D02*
X1248813D01*
X1248813D02*
X1248438Y1054409D01*
X1248438D02*
X1247875Y1054136D01*
X1246000Y1052773*
Y1054682*
X1249938Y1056182D02*
Y1057682D01*
X1249938D02*
X1248438Y1056864D01*
X1248438D02*
Y1057273D01*
X1248438D02*
X1248250Y1057545D01*
X1248063Y1057682*
X1248063D02*
X1247500Y1057818D01*
X1247125*
X1246563Y1057682*
X1246563D02*
X1246188Y1057409D01*
X1246188D02*
X1246000Y1057000D01*
Y1056591*
X1246188Y1056182*
X1246188D02*
X1246375Y1056045D01*
X1246750Y1055909*
X1249500Y1083545D02*
X1249875Y1083409D01*
X1250250Y1083136*
X1250438Y1082864*
X1250438D02*
Y1082318D01*
X1250438D02*
X1250250Y1082045D01*
X1249875Y1081773*
X1249500Y1081636*
X1248938Y1081500*
X1248938D02*
X1248000D01*
X1247438Y1081636*
X1247438D02*
X1247063Y1081773D01*
X1247063D02*
X1246688Y1082045D01*
X1246688D02*
X1246500Y1082318D01*
Y1082864*
X1246688Y1083136*
X1246688D02*
X1247063Y1083409D01*
X1247063D02*
X1247438Y1083545D01*
X1249500Y1084909D02*
X1249688D01*
X1249688D02*
X1250063Y1085045D01*
X1250063D02*
X1250250Y1085182D01*
X1250438Y1085455*
X1250438D02*
Y1086000D01*
X1250438D02*
X1250250Y1086273D01*
X1250063Y1086409*
X1250063D02*
X1249688Y1086545D01*
X1249688D02*
X1249313D01*
X1249313D02*
X1248938Y1086409D01*
X1248938D02*
X1248375Y1086136D01*
X1246500Y1084773*
Y1086682*
X1250438Y1089273D02*
X1247813Y1087909D01*
X1247813D02*
Y1089955D01*
X1250438Y1089273D02*
X1246500D01*
X1267438Y1039500D02*
X1263500D01*
Y1041136*
X1267438Y1044136D02*
Y1042773D01*
X1267438D02*
X1265750Y1042636D01*
X1265938Y1042773*
X1265938D02*
X1266125Y1043182D01*
Y1043591*
X1265938Y1044000*
X1265938D02*
X1265563Y1044273D01*
X1265563D02*
X1265000Y1044409D01*
X1264625Y1044273*
X1264063Y1044136*
X1264063D02*
X1263688Y1043864D01*
X1263688D02*
X1263500Y1043455D01*
Y1043045*
X1263688Y1042636*
X1263688D02*
X1263875Y1042500D01*
X1264250Y1042364*
X1273938Y1087500D02*
X1270000D01*
Y1089136*
X1273375Y1092000D02*
X1273750Y1091864D01*
X1273938Y1091455*
X1273938D02*
Y1091182D01*
X1273938D02*
X1273750Y1090773D01*
X1273188Y1090500*
X1273188D02*
X1272250Y1090364D01*
X1271313*
X1271313D02*
X1270563Y1090500D01*
X1270563D02*
X1270188Y1090773D01*
X1270188D02*
X1270000Y1091182D01*
Y1091318*
X1270188Y1091727*
X1270188D02*
X1270563Y1092000D01*
X1270563D02*
X1271125Y1092136D01*
X1271313*
X1271313D02*
X1271875Y1092000D01*
X1272250Y1091727*
X1272438Y1091318*
X1272438D02*
Y1091182D01*
X1272438D02*
X1272250Y1090773D01*
X1271875Y1090500*
X1271313Y1090364*
X1179438Y1038000D02*
X1175500D01*
Y1039636*
X1179438Y1042773D02*
X1175500Y1041409D01*
X1179438Y1040864D02*
Y1042773D01*
X1191500Y1096938D02*
Y1093000D01*
X1189864*
X1187955Y1096938D02*
X1188364Y1096750D01*
X1188500Y1096375*
Y1096000*
X1188364Y1095625*
X1188091Y1095438*
X1188091D02*
X1187545Y1095250D01*
X1187136Y1095063*
X1187136D02*
X1186864Y1094688D01*
X1186864D02*
X1186727Y1094313D01*
X1186727D02*
Y1093750D01*
X1186864Y1093375*
X1187000Y1093188*
X1187000D02*
X1187409Y1093000D01*
X1187955*
X1188364Y1093188*
X1188364D02*
X1188500Y1093375D01*
X1188636Y1093750*
Y1094313*
X1188636D02*
X1188500Y1094688D01*
X1188500D02*
X1188227Y1095063D01*
X1188227D02*
X1187818Y1095250D01*
X1187273Y1095438*
X1187273D02*
X1187000Y1095625D01*
X1186864Y1096000*
Y1096375*
X1187000Y1096750*
X1187409Y1096938*
X1187409D02*
X1187955D01*
X1027755Y1055656D02*
X1027891Y1056031D01*
X1028164Y1056406*
X1028436Y1056594*
X1028982*
X1029255Y1056406*
X1029527Y1056031*
X1029664Y1055656*
X1029800Y1055094*
Y1054156*
X1029664Y1053594*
X1029527Y1053219*
X1029255Y1052844*
X1028982Y1052656*
X1028436*
X1028164Y1052844*
X1027891Y1053219*
X1027755Y1053594*
X1025164Y1056594D02*
X1026527Y1053969D01*
X1024482*
X1025164Y1056594D02*
Y1052656D01*
X1021345Y1056594D02*
X1022709Y1052656D01*
X1023255Y1056594D02*
X1021345D01*
X1017732Y1042094D02*
Y1038156D01*
Y1042094D02*
X1016505D01*
X1016095Y1041906*
X1015959Y1041719*
X1015823Y1041344*
Y1040969*
X1015959Y1040594*
X1016095Y1040406*
X1016505Y1040219*
X1017732*
X1016777D02*
X1015823Y1038156D01*
X1014459Y1041156D02*
Y1041344D01*
X1014323Y1041719*
X1014186Y1041906*
X1013914Y1042094*
X1013368*
X1013095Y1041906*
X1012959Y1041719*
X1012823Y1041344*
Y1040969*
X1012959Y1040594*
X1013232Y1040031*
X1014595Y1038156*
X1012686*
X1010095Y1042094D02*
X1011459Y1039469D01*
X1009414*
X1010095Y1042094D02*
Y1038156D01*
X1045938Y1025500D02*
X1042000D01*
Y1027136*
X1045000Y1028500D02*
X1045188D01*
X1045188D02*
X1045563Y1028636D01*
X1045563D02*
X1045750Y1028773D01*
X1045938Y1029045*
X1045938D02*
Y1029591D01*
X1045938D02*
X1045750Y1029864D01*
X1045563Y1030000*
X1045563D02*
X1045188Y1030136D01*
X1045188D02*
X1044813D01*
X1044813D02*
X1044438Y1030000D01*
X1044438D02*
X1043875Y1029727D01*
X1042000Y1028364*
Y1030273*
X1045188Y1031500D02*
X1045375Y1031773D01*
X1045938Y1032182*
X1045938D02*
X1042000D01*
X1039438Y1024500D02*
X1035500D01*
Y1026136*
X1038500Y1027500D02*
X1038688D01*
X1038688D02*
X1039063Y1027636D01*
X1039063D02*
X1039250Y1027773D01*
X1039438Y1028045*
X1039438D02*
Y1028591D01*
X1039438D02*
X1039250Y1028864D01*
X1039063Y1029000*
X1039063D02*
X1038688Y1029136D01*
X1038688D02*
X1038313D01*
X1038313D02*
X1037938Y1029000D01*
X1037938D02*
X1037375Y1028727D01*
X1035500Y1027364*
Y1029273*
X1038500Y1030636D02*
X1038688D01*
X1038688D02*
X1039063Y1030773D01*
X1039063D02*
X1039250Y1030909D01*
X1039438Y1031182*
X1039438D02*
Y1031727D01*
X1039438D02*
X1039250Y1032000D01*
X1039063Y1032136*
X1039063D02*
X1038688Y1032273D01*
X1038688D02*
X1038313D01*
X1038313D02*
X1037938Y1032136D01*
X1037938D02*
X1037375Y1031864D01*
X1035500Y1030500*
Y1032409*
X1188000Y1114438D02*
Y1110500D01*
Y1114438D02*
X1186773D01*
X1186364Y1114250*
X1186227Y1114063*
X1186091Y1113688*
Y1113313*
X1186227Y1112938*
X1186364Y1112750*
X1186773Y1112563*
X1188000*
X1187045D02*
X1186091Y1110500D01*
X1182955Y1114438D02*
X1184318Y1110500D01*
X1184864Y1114438D02*
X1182955D01*
X1027686Y1050156D02*
X1027823Y1050531D01*
X1028095Y1050906*
X1028368Y1051094*
X1028914*
X1029186Y1050906*
X1029459Y1050531*
X1029595Y1050156*
X1029732Y1049594*
Y1048656*
X1029595Y1048094*
X1029459Y1047719*
X1029186Y1047344*
X1028914Y1047156*
X1028368*
X1028095Y1047344*
X1027823Y1047719*
X1027686Y1048094*
X1025095Y1051094D02*
X1026459Y1048469D01*
X1024414*
X1025095Y1051094D02*
Y1047156D01*
X1021550Y1050531D02*
X1021686Y1050906D01*
X1022095Y1051094*
X1022368*
X1022777Y1050906*
X1023050Y1050344*
X1023186Y1049406*
Y1048469*
X1023050Y1047719*
X1022777Y1047344*
X1022368Y1047156*
X1022232*
X1021823Y1047344*
X1021550Y1047719*
X1021414Y1048281*
Y1048469*
X1021550Y1049031*
X1021823Y1049406*
X1022232Y1049594*
X1022368*
X1022777Y1049406*
X1023050Y1049031*
X1023186Y1048469*
X1026656Y1063677D02*
X1027031Y1063541D01*
X1027406Y1063268*
X1027594Y1062995*
Y1062450*
X1027406Y1062177*
X1027031Y1061905*
X1026656Y1061768*
X1026094Y1061632*
X1025156*
X1024594Y1061768*
X1024219Y1061905*
X1023844Y1062177*
X1023656Y1062450*
Y1062995*
X1023844Y1063268*
X1024219Y1063541*
X1024594Y1063677*
X1027594Y1066677D02*
Y1065314D01*
X1025906Y1065177*
X1026094Y1065314*
X1026281Y1065723*
Y1066132*
X1026094Y1066541*
X1025719Y1066814*
X1025156Y1066950*
X1024781Y1066814*
X1024219Y1066677*
X1023844Y1066405*
X1023656Y1065995*
Y1065586*
X1023844Y1065177*
X1024031Y1065041*
X1024406Y1064905*
X1027594Y1069950D02*
Y1068586D01*
X1025906Y1068450*
X1026094Y1068586*
X1026281Y1068995*
Y1069405*
X1026094Y1069814*
X1025719Y1070086*
X1025156Y1070223*
X1024781Y1070086*
X1024219Y1069950*
X1023844Y1069677*
X1023656Y1069268*
Y1068859*
X1023844Y1068450*
X1024031Y1068314*
X1024406Y1068177*
X1030656Y1037314D02*
X1031031Y1037177D01*
X1031406Y1036905*
X1031594Y1036632*
Y1036086*
X1031406Y1035814*
X1031031Y1035541*
X1030656Y1035405*
X1030094Y1035268*
X1029156*
X1028594Y1035405*
X1028219Y1035541*
X1027844Y1035814*
X1027656Y1036086*
Y1036632*
X1027844Y1036905*
X1028219Y1037177*
X1028594Y1037314*
X1031594Y1040314D02*
Y1038950D01*
X1029906Y1038814*
X1030094Y1038950*
X1030281Y1039359*
Y1039768*
X1030094Y1040177*
X1029719Y1040450*
X1029156Y1040586*
X1028781Y1040450*
X1028219Y1040314*
X1027844Y1040041*
X1027656Y1039632*
Y1039223*
X1027844Y1038814*
X1028031Y1038677*
X1028406Y1038541*
X1031031Y1043450D02*
X1031406Y1043314D01*
X1031594Y1042905*
Y1042632*
X1031406Y1042223*
X1030844Y1041950*
X1029906Y1041814*
X1028969*
X1028219Y1041950*
X1027844Y1042223*
X1027656Y1042632*
Y1042768*
X1027844Y1043177*
X1028219Y1043450*
X1028781Y1043586*
X1028969*
X1029531Y1043450*
X1029906Y1043177*
X1030094Y1042768*
Y1042632*
X1029906Y1042223*
X1029531Y1041950*
X1028969Y1041814*
X1067255Y1027656D02*
X1067391Y1028031D01*
X1067664Y1028406*
X1067936Y1028594*
X1068482*
X1068755Y1028406*
X1069027Y1028031*
X1069164Y1027656*
X1069300Y1027094*
Y1026156*
X1069164Y1025594*
X1069027Y1025219*
X1068755Y1024844*
X1068482Y1024656*
X1067936*
X1067664Y1024844*
X1067391Y1025219*
X1067255Y1025594*
X1064255Y1028594D02*
X1065618D01*
X1065755Y1026906*
X1065618Y1027094*
X1065209Y1027281*
X1064800*
X1064391Y1027094*
X1064118Y1026719*
X1063982Y1026156*
X1064118Y1025781*
X1064255Y1025219*
X1064527Y1024844*
X1064936Y1024656*
X1065345*
X1065755Y1024844*
X1065891Y1025031*
X1066027Y1025406*
X1060845Y1028594D02*
X1062209Y1024656D01*
X1062755Y1028594D02*
X1060845D01*
X1065255Y1068156D02*
X1065391Y1068531D01*
X1065664Y1068906*
X1065936Y1069094*
X1066482*
X1066755Y1068906*
X1067027Y1068531*
X1067164Y1068156*
X1067300Y1067594*
Y1066656*
X1067164Y1066094*
X1067027Y1065719*
X1066755Y1065344*
X1066482Y1065156*
X1065936*
X1065664Y1065344*
X1065391Y1065719*
X1065255Y1066094*
X1062255Y1069094D02*
X1063618D01*
X1063755Y1067406*
X1063618Y1067594*
X1063209Y1067781*
X1062800*
X1062391Y1067594*
X1062118Y1067219*
X1061982Y1066656*
X1062118Y1066281*
X1062255Y1065719*
X1062527Y1065344*
X1062936Y1065156*
X1063345*
X1063755Y1065344*
X1063891Y1065531*
X1064027Y1065906*
X1060073Y1069094D02*
X1060482Y1068906D01*
X1060618Y1068531*
Y1068156*
X1060482Y1067781*
X1060209Y1067594*
X1059664Y1067406*
X1059255Y1067219*
X1058982Y1066844*
X1058845Y1066469*
Y1065906*
X1058982Y1065531*
X1059118Y1065344*
X1059527Y1065156*
X1060073*
X1060482Y1065344*
X1060618Y1065531*
X1060755Y1065906*
Y1066469*
X1060618Y1066844*
X1060345Y1067219*
X1059936Y1067406*
X1059391Y1067594*
X1059118Y1067781*
X1058982Y1068156*
Y1068531*
X1059118Y1068906*
X1059527Y1069094*
X1060073*
X1012156Y1047814D02*
X1012531Y1047677D01*
X1012906Y1047405*
X1013094Y1047132*
Y1046586*
X1012906Y1046314*
X1012531Y1046041*
X1012156Y1045905*
X1011594Y1045768*
X1010656*
X1010094Y1045905*
X1009719Y1046041*
X1009344Y1046314*
X1009156Y1046586*
Y1047132*
X1009344Y1047405*
X1009719Y1047677*
X1010094Y1047814*
X1013094Y1050814D02*
Y1049450D01*
X1011406Y1049314*
X1011594Y1049450*
X1011781Y1049859*
Y1050268*
X1011594Y1050677*
X1011219Y1050950*
X1010656Y1051086*
X1010281Y1050950*
X1009719Y1050814*
X1009344Y1050541*
X1009156Y1050132*
Y1049723*
X1009344Y1049314*
X1009531Y1049177*
X1009906Y1049041*
X1011781Y1054086D02*
X1011219Y1053950D01*
X1010844Y1053677*
X1010656Y1053268*
Y1053132*
X1010844Y1052723*
X1011219Y1052450*
X1011781Y1052314*
X1011969*
X1012531Y1052450*
X1012906Y1052723*
X1013094Y1053132*
Y1053268*
X1012906Y1053677*
X1012531Y1053950*
X1011781Y1054086*
X1010844*
X1009906Y1053950*
X1009344Y1053677*
X1009156Y1053268*
Y1052995*
X1009344Y1052586*
X1009719Y1052450*
X1024156Y1038882D02*
X1024531Y1038745D01*
X1024906Y1038473*
X1025094Y1038200*
Y1037655*
X1024906Y1037382*
X1024531Y1037109*
X1024156Y1036973*
X1023594Y1036836*
X1022656*
X1022094Y1036973*
X1021719Y1037109*
X1021344Y1037382*
X1021156Y1037655*
Y1038200*
X1021344Y1038473*
X1021719Y1038745*
X1022094Y1038882*
X1024531Y1041745D02*
X1024906Y1041609D01*
X1025094Y1041200*
Y1040927*
X1024906Y1040518*
X1024344Y1040245*
X1023406Y1040109*
X1022469*
X1021719Y1040245*
X1021344Y1040518*
X1021156Y1040927*
Y1041064*
X1021344Y1041473*
X1021719Y1041745*
X1022281Y1041882*
X1022469*
X1023031Y1041745*
X1023406Y1041473*
X1023594Y1041064*
Y1040927*
X1023406Y1040518*
X1023031Y1040245*
X1022469Y1040109*
X1025094Y1043927D02*
X1024906Y1043518D01*
X1024344Y1043245*
X1023406Y1043109*
X1022844*
X1021906Y1043245*
X1021344Y1043518*
X1021156Y1043927*
Y1044200*
X1021344Y1044609*
X1021906Y1044882*
X1022844Y1045018*
X1023406*
X1024344Y1044882*
X1024906Y1044609*
X1025094Y1044200*
Y1043927*
X1055118Y1021156D02*
X1055255Y1021531D01*
X1055527Y1021906*
X1055800Y1022094*
X1056345*
X1056618Y1021906*
X1056891Y1021531*
X1057027Y1021156*
X1057164Y1020594*
Y1019656*
X1057027Y1019094*
X1056891Y1018719*
X1056618Y1018344*
X1056345Y1018156*
X1055800*
X1055527Y1018344*
X1055255Y1018719*
X1055118Y1019094*
X1052255Y1021531D02*
X1052391Y1021906D01*
X1052800Y1022094*
X1053073*
X1053482Y1021906*
X1053755Y1021344*
X1053891Y1020406*
Y1019469*
X1053755Y1018719*
X1053482Y1018344*
X1053073Y1018156*
X1052936*
X1052527Y1018344*
X1052255Y1018719*
X1052118Y1019281*
Y1019469*
X1052255Y1020031*
X1052527Y1020406*
X1052936Y1020594*
X1053073*
X1053482Y1020406*
X1053755Y1020031*
X1053891Y1019469*
X1050618Y1022094D02*
X1049118D01*
X1049936Y1020594*
X1049527*
X1049255Y1020406*
X1049118Y1020219*
X1048982Y1019656*
Y1019281*
X1049118Y1018719*
X1049391Y1018344*
X1049800Y1018156*
X1050209*
X1050618Y1018344*
X1050755Y1018531*
X1050891Y1018906*
X1065156Y1037814D02*
X1065531Y1037677D01*
X1065906Y1037405*
X1066094Y1037132*
Y1036586*
X1065906Y1036314*
X1065531Y1036041*
X1065156Y1035905*
X1064594Y1035768*
X1063656*
X1063094Y1035905*
X1062719Y1036041*
X1062344Y1036314*
X1062156Y1036586*
Y1037132*
X1062344Y1037405*
X1062719Y1037677*
X1063094Y1037814*
X1065531Y1040677D02*
X1065906Y1040541D01*
X1066094Y1040132*
Y1039859*
X1065906Y1039450*
X1065344Y1039177*
X1064406Y1039041*
X1063469*
X1062719Y1039177*
X1062344Y1039450*
X1062156Y1039859*
Y1039995*
X1062344Y1040405*
X1062719Y1040677*
X1063281Y1040814*
X1063469*
X1064031Y1040677*
X1064406Y1040405*
X1064594Y1039995*
Y1039859*
X1064406Y1039450*
X1064031Y1039177*
X1063469Y1039041*
X1066094Y1043405D02*
X1063469Y1042041D01*
Y1044086*
X1066094Y1043405D02*
X1062156D01*
X1050186Y1066656D02*
X1050323Y1067031D01*
X1050595Y1067406*
X1050868Y1067594*
X1051414*
X1051686Y1067406*
X1051959Y1067031*
X1052095Y1066656*
X1052232Y1066094*
Y1065156*
X1052095Y1064594*
X1051959Y1064219*
X1051686Y1063844*
X1051414Y1063656*
X1050868*
X1050595Y1063844*
X1050323Y1064219*
X1050186Y1064594*
X1047323Y1067031D02*
X1047459Y1067406D01*
X1047868Y1067594*
X1048141*
X1048550Y1067406*
X1048823Y1066844*
X1048959Y1065906*
Y1064969*
X1048823Y1064219*
X1048550Y1063844*
X1048141Y1063656*
X1048005*
X1047595Y1063844*
X1047323Y1064219*
X1047186Y1064781*
Y1064969*
X1047323Y1065531*
X1047595Y1065906*
X1048005Y1066094*
X1048141*
X1048550Y1065906*
X1048823Y1065531*
X1048959Y1064969*
X1044186Y1067594D02*
X1045550D01*
X1045686Y1065906*
X1045550Y1066094*
X1045141Y1066281*
X1044732*
X1044323Y1066094*
X1044050Y1065719*
X1043914Y1065156*
X1044050Y1064781*
X1044186Y1064219*
X1044459Y1063844*
X1044868Y1063656*
X1045277*
X1045686Y1063844*
X1045823Y1064031*
X1045959Y1064406*
X1050550Y1061156D02*
X1050686Y1061531D01*
X1050959Y1061906*
X1051232Y1062094*
X1051777*
X1052050Y1061906*
X1052323Y1061531*
X1052459Y1061156*
X1052595Y1060594*
Y1059656*
X1052459Y1059094*
X1052323Y1058719*
X1052050Y1058344*
X1051777Y1058156*
X1051232*
X1050959Y1058344*
X1050686Y1058719*
X1050550Y1059094*
X1047686Y1061531D02*
X1047823Y1061906D01*
X1048232Y1062094*
X1048505*
X1048914Y1061906*
X1049186Y1061344*
X1049323Y1060406*
Y1059469*
X1049186Y1058719*
X1048914Y1058344*
X1048505Y1058156*
X1048368*
X1047959Y1058344*
X1047686Y1058719*
X1047550Y1059281*
Y1059469*
X1047686Y1060031*
X1047959Y1060406*
X1048368Y1060594*
X1048505*
X1048914Y1060406*
X1049186Y1060031*
X1049323Y1059469*
X1044686Y1061531D02*
X1044823Y1061906D01*
X1045232Y1062094*
X1045505*
X1045914Y1061906*
X1046186Y1061344*
X1046323Y1060406*
Y1059469*
X1046186Y1058719*
X1045914Y1058344*
X1045505Y1058156*
X1045368*
X1044959Y1058344*
X1044686Y1058719*
X1044550Y1059281*
Y1059469*
X1044686Y1060031*
X1044959Y1060406*
X1045368Y1060594*
X1045505*
X1045914Y1060406*
X1046186Y1060031*
X1046323Y1059469*
X1104118Y1103656D02*
X1104255Y1104031D01*
X1104527Y1104406*
X1104800Y1104594*
X1105345*
X1105618Y1104406*
X1105891Y1104031*
X1106027Y1103656*
X1106164Y1103094*
Y1102156*
X1106027Y1101594*
X1105891Y1101219*
X1105618Y1100844*
X1105345Y1100656*
X1104800*
X1104527Y1100844*
X1104255Y1101219*
X1104118Y1101594*
X1101255Y1104031D02*
X1101391Y1104406D01*
X1101800Y1104594*
X1102073*
X1102482Y1104406*
X1102755Y1103844*
X1102891Y1102906*
Y1101969*
X1102755Y1101219*
X1102482Y1100844*
X1102073Y1100656*
X1101936*
X1101527Y1100844*
X1101255Y1101219*
X1101118Y1101781*
Y1101969*
X1101255Y1102531*
X1101527Y1102906*
X1101936Y1103094*
X1102073*
X1102482Y1102906*
X1102755Y1102531*
X1102891Y1101969*
X1097982Y1104594D02*
X1099345Y1100656D01*
X1099891Y1104594D02*
X1097982D01*
X1126618Y1103156D02*
X1126755Y1103531D01*
X1127027Y1103906*
X1127300Y1104094*
X1127845*
X1128118Y1103906*
X1128391Y1103531*
X1128527Y1103156*
X1128664Y1102594*
Y1101656*
X1128527Y1101094*
X1128391Y1100719*
X1128118Y1100344*
X1127845Y1100156*
X1127300*
X1127027Y1100344*
X1126755Y1100719*
X1126618Y1101094*
X1123755Y1103531D02*
X1123891Y1103906D01*
X1124300Y1104094*
X1124573*
X1124982Y1103906*
X1125255Y1103344*
X1125391Y1102406*
Y1101469*
X1125255Y1100719*
X1124982Y1100344*
X1124573Y1100156*
X1124436*
X1124027Y1100344*
X1123755Y1100719*
X1123618Y1101281*
Y1101469*
X1123755Y1102031*
X1124027Y1102406*
X1124436Y1102594*
X1124573*
X1124982Y1102406*
X1125255Y1102031*
X1125391Y1101469*
X1121709Y1104094D02*
X1122118Y1103906D01*
X1122255Y1103531*
Y1103156*
X1122118Y1102781*
X1121845Y1102594*
X1121300Y1102406*
X1120891Y1102219*
X1120618Y1101844*
X1120482Y1101469*
Y1100906*
X1120618Y1100531*
X1120755Y1100344*
X1121164Y1100156*
X1121709*
X1122118Y1100344*
X1122255Y1100531*
X1122391Y1100906*
Y1101469*
X1122255Y1101844*
X1121982Y1102219*
X1121573Y1102406*
X1121027Y1102594*
X1120755Y1102781*
X1120618Y1103156*
Y1103531*
X1120755Y1103906*
X1121164Y1104094*
X1121709*
X1106050Y1055656D02*
X1106186Y1056031D01*
X1106459Y1056406*
X1106732Y1056594*
X1107277*
X1107550Y1056406*
X1107823Y1056031*
X1107959Y1055656*
X1108095Y1055094*
Y1054156*
X1107959Y1053594*
X1107823Y1053219*
X1107550Y1052844*
X1107277Y1052656*
X1106732*
X1106459Y1052844*
X1106186Y1053219*
X1106050Y1053594*
X1103186Y1056031D02*
X1103323Y1056406D01*
X1103732Y1056594*
X1104005*
X1104414Y1056406*
X1104686Y1055844*
X1104823Y1054906*
Y1053969*
X1104686Y1053219*
X1104414Y1052844*
X1104005Y1052656*
X1103868*
X1103459Y1052844*
X1103186Y1053219*
X1103050Y1053781*
Y1053969*
X1103186Y1054531*
X1103459Y1054906*
X1103868Y1055094*
X1104005*
X1104414Y1054906*
X1104686Y1054531*
X1104823Y1053969*
X1100050Y1055281D02*
X1100186Y1054719D01*
X1100459Y1054344*
X1100868Y1054156*
X1101005*
X1101414Y1054344*
X1101686Y1054719*
X1101823Y1055281*
Y1055469*
X1101686Y1056031*
X1101414Y1056406*
X1101005Y1056594*
X1100868*
X1100459Y1056406*
X1100186Y1056031*
X1100050Y1055281*
Y1054344*
X1100186Y1053406*
X1100459Y1052844*
X1100868Y1052656*
X1101141*
X1101550Y1052844*
X1101686Y1053219*
X1131156Y1071314D02*
X1131531Y1071177D01*
X1131906Y1070905*
X1132094Y1070632*
Y1070086*
X1131906Y1069814*
X1131531Y1069541*
X1131156Y1069405*
X1130594Y1069268*
X1129656*
X1129094Y1069405*
X1128719Y1069541*
X1128344Y1069814*
X1128156Y1070086*
Y1070632*
X1128344Y1070905*
X1128719Y1071177*
X1129094Y1071314*
X1132094Y1074450D02*
X1128156Y1073086D01*
X1132094Y1072541D02*
Y1074450D01*
Y1076495D02*
X1131906Y1076086D01*
X1131344Y1075814*
X1130406Y1075677*
X1129844*
X1128906Y1075814*
X1128344Y1076086*
X1128156Y1076495*
Y1076768*
X1128344Y1077177*
X1128906Y1077450*
X1129844Y1077586*
X1130406*
X1131344Y1077450*
X1131906Y1077177*
X1132094Y1076768*
Y1076495*
X1031664Y1018094D02*
Y1014156D01*
Y1018094D02*
X1030436D01*
X1030027Y1017906*
X1029891Y1017719*
X1029755Y1017344*
Y1016969*
X1029891Y1016594*
X1030027Y1016406*
X1030436Y1016219*
X1031664*
X1030709D02*
X1029755Y1014156D01*
X1026618Y1018094D02*
X1027982Y1014156D01*
X1028527Y1018094D02*
X1026618D01*
X1025118D02*
X1023618D01*
X1024436Y1016594*
X1024027*
X1023755Y1016406*
X1023618Y1016219*
X1023482Y1015656*
Y1015281*
X1023618Y1014719*
X1023891Y1014344*
X1024300Y1014156*
X1024709*
X1025118Y1014344*
X1025255Y1014531*
X1025391Y1014906*
X1066094Y1048268D02*
X1062156D01*
X1066094D02*
Y1049495D01*
X1065906Y1049905*
X1065719Y1050041*
X1065344Y1050177*
X1064969*
X1064594Y1050041*
X1064406Y1049905*
X1064219Y1049495*
Y1048268*
Y1049223D02*
X1062156Y1050177D01*
X1066094Y1053314D02*
X1062156Y1051950D01*
X1066094Y1051405D02*
Y1053314D01*
Y1055905D02*
X1063469Y1054541D01*
Y1056586*
X1066094Y1055905D02*
X1062156D01*
X1079594Y1061768D02*
X1075656D01*
X1079594D02*
Y1062995D01*
X1079406Y1063405*
X1079219Y1063541*
X1078844Y1063677*
X1078469*
X1078094Y1063541*
X1077906Y1063405*
X1077719Y1062995*
Y1061768*
Y1062723D02*
X1075656Y1063677D01*
X1079594Y1066814D02*
X1075656Y1065450D01*
X1079594Y1064905D02*
Y1066814D01*
Y1069814D02*
Y1068450D01*
X1077906Y1068314*
X1078094Y1068450*
X1078281Y1068859*
Y1069268*
X1078094Y1069677*
X1077719Y1069950*
X1077156Y1070086*
X1076781Y1069950*
X1076219Y1069814*
X1075844Y1069541*
X1075656Y1069132*
Y1068723*
X1075844Y1068314*
X1076031Y1068177*
X1076406Y1068041*
X1079594Y1052405D02*
X1075656D01*
X1079594D02*
Y1053632D01*
X1079406Y1054041*
X1079219Y1054177*
X1078844Y1054314*
X1078469*
X1078094Y1054177*
X1077906Y1054041*
X1077719Y1053632*
Y1052405*
Y1053359D02*
X1075656Y1054314D01*
X1079594Y1057450D02*
X1075656Y1056086D01*
X1079594Y1055541D02*
Y1057450D01*
X1079031Y1060314D02*
X1079406Y1060177D01*
X1079594Y1059768*
Y1059495*
X1079406Y1059086*
X1078844Y1058814*
X1077906Y1058677*
X1076969*
X1076219Y1058814*
X1075844Y1059086*
X1075656Y1059495*
Y1059632*
X1075844Y1060041*
X1076219Y1060314*
X1076781Y1060450*
X1076969*
X1077531Y1060314*
X1077906Y1060041*
X1078094Y1059632*
Y1059495*
X1077906Y1059086*
X1077531Y1058814*
X1076969Y1058677*
X1081594Y1042336D02*
X1077656D01*
X1081594D02*
Y1043564D01*
X1081406Y1043973*
X1081219Y1044109*
X1080844Y1044245*
X1080469*
X1080094Y1044109*
X1079906Y1043973*
X1079719Y1043564*
Y1042336*
Y1043291D02*
X1077656Y1044245D01*
X1081594Y1047382D02*
X1077656Y1046018D01*
X1081594Y1045473D02*
Y1047382D01*
Y1049291D02*
X1081406Y1048882D01*
X1081031Y1048745*
X1080656*
X1080281Y1048882*
X1080094Y1049155*
X1079906Y1049700*
X1079719Y1050109*
X1079344Y1050382*
X1078969Y1050518*
X1078406*
X1078031Y1050382*
X1077844Y1050245*
X1077656Y1049836*
Y1049291*
X1077844Y1048882*
X1078031Y1048745*
X1078406Y1048609*
X1078969*
X1079344Y1048745*
X1079719Y1049018*
X1079906Y1049427*
X1080094Y1049973*
X1080281Y1050245*
X1080656Y1050382*
X1081031*
X1081406Y1050245*
X1081594Y1049836*
Y1049291*
X1077095Y1034094D02*
Y1030156D01*
Y1034094D02*
X1075868D01*
X1075459Y1033906*
X1075323Y1033719*
X1075186Y1033344*
Y1032969*
X1075323Y1032594*
X1075459Y1032406*
X1075868Y1032219*
X1077095*
X1076141D02*
X1075186Y1030156D01*
X1072050Y1034094D02*
X1073414Y1030156D01*
X1073959Y1034094D02*
X1072050D01*
X1069050Y1032781D02*
X1069186Y1032219D01*
X1069459Y1031844*
X1069868Y1031656*
X1070005*
X1070414Y1031844*
X1070686Y1032219*
X1070823Y1032781*
Y1032969*
X1070686Y1033531*
X1070414Y1033906*
X1070005Y1034094*
X1069868*
X1069459Y1033906*
X1069186Y1033531*
X1069050Y1032781*
Y1031844*
X1069186Y1030906*
X1069459Y1030344*
X1069868Y1030156*
X1070141*
X1070550Y1030344*
X1070686Y1030719*
X1013594Y1025768D02*
X1009656D01*
X1013594D02*
Y1026995D01*
X1013406Y1027405*
X1013219Y1027541*
X1012844Y1027677*
X1012469*
X1012094Y1027541*
X1011906Y1027405*
X1011719Y1026995*
Y1025768*
Y1026723D02*
X1009656Y1027677D01*
X1013594Y1029586D02*
X1013406Y1029177D01*
X1013031Y1029041*
X1012656*
X1012281Y1029177*
X1012094Y1029450*
X1011906Y1029995*
X1011719Y1030405*
X1011344Y1030677*
X1010969Y1030814*
X1010406*
X1010031Y1030677*
X1009844Y1030541*
X1009656Y1030132*
Y1029586*
X1009844Y1029177*
X1010031Y1029041*
X1010406Y1028905*
X1010969*
X1011344Y1029041*
X1011719Y1029314*
X1011906Y1029723*
X1012094Y1030268*
X1012281Y1030541*
X1012656Y1030677*
X1013031*
X1013406Y1030541*
X1013594Y1030132*
Y1029586*
Y1033405D02*
X1010969Y1032041D01*
Y1034086*
X1013594Y1033405D02*
X1009656D01*
X1076000Y1088045D02*
X1076375Y1087909D01*
X1076750Y1087636*
X1076938Y1087364*
X1076938D02*
Y1086818D01*
X1076938D02*
X1076750Y1086545D01*
X1076375Y1086273*
X1076000Y1086136*
X1075438Y1086000*
X1075438D02*
X1074500D01*
X1073938Y1086136*
X1073938D02*
X1073563Y1086273D01*
X1073563D02*
X1073188Y1086545D01*
X1073188D02*
X1073000Y1086818D01*
Y1087364*
X1073188Y1087636*
X1073188D02*
X1073563Y1087909D01*
X1073563D02*
X1073938Y1088045D01*
X1076938Y1089545D02*
Y1091045D01*
X1076938D02*
X1075438Y1090227D01*
X1075438D02*
Y1090636D01*
X1075438D02*
X1075250Y1090909D01*
X1075063Y1091045*
X1075063D02*
X1074500Y1091182D01*
X1074125*
X1073563Y1091045*
X1073563D02*
X1073188Y1090773D01*
X1073188D02*
X1073000Y1090364D01*
Y1089955*
X1073188Y1089545*
X1073188D02*
X1073375Y1089409D01*
X1073750Y1089273*
X1076938Y1092682D02*
Y1094182D01*
X1076938D02*
X1075438Y1093364D01*
X1075438D02*
Y1093773D01*
X1075438D02*
X1075250Y1094045D01*
X1075063Y1094182*
X1075063D02*
X1074500Y1094318D01*
X1074125*
X1073563Y1094182*
X1073563D02*
X1073188Y1093909D01*
X1073188D02*
X1073000Y1093500D01*
Y1093091*
X1073188Y1092682*
X1073188D02*
X1073375Y1092545D01*
X1073750Y1092409*
X1083000Y1086045D02*
X1083375Y1085909D01*
X1083750Y1085636*
X1083938Y1085364*
X1083938D02*
Y1084818D01*
X1083938D02*
X1083750Y1084545D01*
X1083375Y1084273*
X1083000Y1084136*
X1082438Y1084000*
X1082438D02*
X1081500D01*
X1080938Y1084136*
X1080938D02*
X1080563Y1084273D01*
X1080563D02*
X1080188Y1084545D01*
X1080188D02*
X1080000Y1084818D01*
Y1085364*
X1080188Y1085636*
X1080188D02*
X1080563Y1085909D01*
X1080563D02*
X1080938Y1086045D01*
X1083938Y1087545D02*
Y1089045D01*
X1083938D02*
X1082438Y1088227D01*
X1082438D02*
Y1088636D01*
X1082438D02*
X1082250Y1088909D01*
X1082063Y1089045*
X1082063D02*
X1081500Y1089182D01*
X1081125*
X1080563Y1089045*
X1080563D02*
X1080188Y1088773D01*
X1080188D02*
X1080000Y1088364D01*
Y1087955*
X1080188Y1087545*
X1080188D02*
X1080375Y1087409D01*
X1080750Y1087273*
X1083000Y1090545D02*
X1083188D01*
X1083188D02*
X1083563Y1090682D01*
X1083563D02*
X1083750Y1090818D01*
X1083938Y1091091*
X1083938D02*
Y1091636D01*
X1083938D02*
X1083750Y1091909D01*
X1083563Y1092045*
X1083563D02*
X1083188Y1092182D01*
X1083188D02*
X1082813D01*
X1082813D02*
X1082438Y1092045D01*
X1082438D02*
X1081875Y1091773D01*
X1080000Y1090409*
Y1092318*
X1059500Y1098545D02*
X1059875Y1098409D01*
X1060250Y1098136*
X1060438Y1097864*
X1060438D02*
Y1097318D01*
X1060438D02*
X1060250Y1097045D01*
X1059875Y1096773*
X1059500Y1096636*
X1058938Y1096500*
X1058938D02*
X1058000D01*
X1057438Y1096636*
X1057438D02*
X1057063Y1096773D01*
X1057063D02*
X1056688Y1097045D01*
X1056688D02*
X1056500Y1097318D01*
Y1097864*
X1056688Y1098136*
X1056688D02*
X1057063Y1098409D01*
X1057063D02*
X1057438Y1098545D01*
X1060438Y1100045D02*
Y1101545D01*
X1060438D02*
X1058938Y1100727D01*
X1058938D02*
Y1101136D01*
X1058938D02*
X1058750Y1101409D01*
X1058563Y1101545*
X1058563D02*
X1058000Y1101682D01*
X1057625*
X1057063Y1101545*
X1057063D02*
X1056688Y1101273D01*
X1056688D02*
X1056500Y1100864D01*
Y1100455*
X1056688Y1100045*
X1056688D02*
X1056875Y1099909D01*
X1057250Y1099773*
X1060438Y1104682D02*
Y1103318D01*
X1060438D02*
X1058750Y1103182D01*
X1058938Y1103318*
X1058938D02*
X1059125Y1103727D01*
Y1104136*
X1058938Y1104545*
X1058938D02*
X1058563Y1104818D01*
X1058563D02*
X1058000Y1104955D01*
X1057625Y1104818*
X1057063Y1104682*
X1057063D02*
X1056688Y1104409D01*
X1056688D02*
X1056500Y1104000D01*
Y1103591*
X1056688Y1103182*
X1056688D02*
X1056875Y1103045D01*
X1057250Y1102909*
X1075094Y1110905D02*
X1071156D01*
X1075094D02*
Y1112132D01*
X1074906Y1112541*
X1074719Y1112677*
X1074344Y1112814*
X1073969*
X1073594Y1112677*
X1073406Y1112541*
X1073219Y1112132*
Y1110905*
Y1111859D02*
X1071156Y1112814D01*
X1075094Y1114723D02*
X1074906Y1114314D01*
X1074531Y1114177*
X1074156*
X1073781Y1114314*
X1073594Y1114586*
X1073406Y1115132*
X1073219Y1115541*
X1072844Y1115814*
X1072469Y1115950*
X1071906*
X1071531Y1115814*
X1071344Y1115677*
X1071156Y1115268*
Y1114723*
X1071344Y1114314*
X1071531Y1114177*
X1071906Y1114041*
X1072469*
X1072844Y1114177*
X1073219Y1114450*
X1073406Y1114859*
X1073594Y1115405*
X1073781Y1115677*
X1074156Y1115814*
X1074531*
X1074906Y1115677*
X1075094Y1115268*
Y1114723*
X1289828Y1101757D02*
X1287484D01*
X1287016Y1101870*
X1286703Y1102098*
X1286547Y1102439*
Y1102666*
X1286703Y1103007*
X1287016Y1103234*
X1287484Y1103348*
X1289828*
X1289047Y1104484D02*
X1289203D01*
X1289516Y1104598*
X1289672Y1104711*
X1289828Y1104939*
Y1105393*
X1289672Y1105620*
X1289516Y1105734*
X1289203Y1105848*
X1288891*
X1288578Y1105734*
X1288109Y1105507*
X1286547Y1104370*
Y1105961*
X1289828Y1107666D02*
X1289672Y1107325D01*
X1289203Y1107098*
X1288422Y1106984*
X1287953*
X1287172Y1107098*
X1286703Y1107325*
X1286547Y1107666*
Y1107893*
X1286703Y1108234*
X1287172Y1108461*
X1287953Y1108575*
X1288422*
X1289203Y1108461*
X1289672Y1108234*
X1289828Y1107893*
Y1107666*
Y1110280D02*
X1289672Y1109939D01*
X1289203Y1109711*
X1288422Y1109598*
X1287953*
X1287172Y1109711*
X1286703Y1109939*
X1286547Y1110280*
Y1110507*
X1286703Y1110848*
X1287172Y1111075*
X1287953Y1111189*
X1288422*
X1289203Y1111075*
X1289672Y1110848*
X1289828Y1110507*
Y1110280*
X1292328Y1081257D02*
X1289047D01*
X1292328D02*
Y1082052D01*
X1292172Y1082393*
X1291859Y1082620*
X1291547Y1082734*
X1291078Y1082848*
X1290297*
X1289828Y1082734*
X1289516Y1082620*
X1289203Y1082393*
X1289047Y1082052*
Y1081257*
X1291547Y1083984D02*
X1291703D01*
X1292016Y1084098*
X1292172Y1084211*
X1292328Y1084439*
Y1084893*
X1292172Y1085120*
X1292016Y1085234*
X1291703Y1085348*
X1291391*
X1291078Y1085234*
X1290609Y1085007*
X1289047Y1083870*
Y1085461*
X1292328Y1087166D02*
X1292172Y1086825D01*
X1291703Y1086598*
X1290922Y1086484*
X1290453*
X1289672Y1086598*
X1289203Y1086825*
X1289047Y1087166*
Y1087393*
X1289203Y1087734*
X1289672Y1087961*
X1290453Y1088075*
X1290922*
X1291703Y1087961*
X1292172Y1087734*
X1292328Y1087393*
Y1087166*
Y1089780D02*
X1292172Y1089439D01*
X1291703Y1089211*
X1290922Y1089098*
X1290453*
X1289672Y1089211*
X1289203Y1089439*
X1289047Y1089780*
Y1090007*
X1289203Y1090348*
X1289672Y1090575*
X1290453Y1090689*
X1290922*
X1291703Y1090575*
X1292172Y1090348*
X1292328Y1090007*
Y1089780*
X1343000Y1089045D02*
X1343375Y1088909D01*
X1343750Y1088636*
X1343938Y1088364*
X1343938D02*
Y1087818D01*
X1343938D02*
X1343750Y1087545D01*
X1343375Y1087273*
X1343000Y1087136*
X1342438Y1087000*
X1342438D02*
X1341500D01*
X1340938Y1087136*
X1340938D02*
X1340563Y1087273D01*
X1340563D02*
X1340188Y1087545D01*
X1340188D02*
X1340000Y1087818D01*
Y1088364*
X1340188Y1088636*
X1340188D02*
X1340563Y1088909D01*
X1340563D02*
X1340938Y1089045D01*
X1343000Y1090409D02*
X1343188D01*
X1343188D02*
X1343563Y1090545D01*
X1343563D02*
X1343750Y1090682D01*
X1343938Y1090955*
X1343938D02*
Y1091500D01*
X1343938D02*
X1343750Y1091773D01*
X1343563Y1091909*
X1343563D02*
X1343188Y1092045D01*
X1343188D02*
X1342813D01*
X1342813D02*
X1342438Y1091909D01*
X1342438D02*
X1341875Y1091636D01*
X1340000Y1090273*
Y1092182*
X1343938Y1094227D02*
X1343750Y1093818D01*
X1343188Y1093545*
X1343188D02*
X1342250Y1093409D01*
X1341688*
X1341688D02*
X1340750Y1093545D01*
X1340188Y1093818*
X1340188D02*
X1340000Y1094227D01*
Y1094500*
X1340188Y1094909*
X1340188D02*
X1340750Y1095182D01*
X1341688Y1095318*
X1341688D02*
X1342250D01*
X1343188Y1095182*
X1343188D02*
X1343750Y1094909D01*
X1343938Y1094500*
X1343938D02*
Y1094227D01*
X1343188Y1096545D02*
X1343375Y1096818D01*
X1343938Y1097227*
X1343938D02*
X1340000D01*
X1283828Y1101814D02*
X1280547D01*
X1283828D02*
Y1102836D01*
X1283672Y1103177*
X1283516Y1103291*
X1283203Y1103405*
X1282891*
X1282578Y1103291*
X1282422Y1103177*
X1282266Y1102836*
Y1101814*
Y1102609D02*
X1280547Y1103405D01*
X1283047Y1104541D02*
X1283203D01*
X1283516Y1104655*
X1283672Y1104768*
X1283828Y1104995*
Y1105450*
X1283672Y1105677*
X1283516Y1105791*
X1283203Y1105905*
X1282891*
X1282578Y1105791*
X1282109Y1105564*
X1280547Y1104427*
Y1106018*
X1283828Y1107723D02*
X1283672Y1107382D01*
X1283203Y1107155*
X1282422Y1107041*
X1281953*
X1281172Y1107155*
X1280703Y1107382*
X1280547Y1107723*
Y1107950*
X1280703Y1108291*
X1281172Y1108518*
X1281953Y1108632*
X1282422*
X1283203Y1108518*
X1283672Y1108291*
X1283828Y1107950*
Y1107723*
X1283359Y1111018D02*
X1283672Y1110905D01*
X1283828Y1110564*
Y1110336*
X1283672Y1109995*
X1283203Y1109768*
X1282422Y1109655*
X1281641*
X1281016Y1109768*
X1280703Y1109995*
X1280547Y1110336*
Y1110450*
X1280703Y1110791*
X1281016Y1111018*
X1281484Y1111132*
X1281641*
X1282109Y1111018*
X1282422Y1110791*
X1282578Y1110450*
Y1110336*
X1282422Y1109995*
X1282109Y1109768*
X1281641Y1109655*
X1319743Y1093828D02*
Y1090547D01*
Y1093828D02*
X1318720D01*
X1318380Y1093672*
X1318266Y1093516*
X1318152Y1093203*
Y1092891*
X1318266Y1092578*
X1318380Y1092422*
X1318720Y1092266*
X1319743*
X1318948D02*
X1318152Y1090547D01*
X1317016Y1093047D02*
Y1093203D01*
X1316902Y1093516*
X1316789Y1093672*
X1316561Y1093828*
X1316107*
X1315880Y1093672*
X1315766Y1093516*
X1315652Y1093203*
Y1092891*
X1315766Y1092578*
X1315993Y1092109*
X1317130Y1090547*
X1315539*
X1313834Y1093828D02*
X1314175Y1093672D01*
X1314402Y1093203*
X1314516Y1092422*
Y1091953*
X1314402Y1091172*
X1314175Y1090703*
X1313834Y1090547*
X1313607*
X1313266Y1090703*
X1313039Y1091172*
X1312925Y1091953*
Y1092422*
X1313039Y1093203*
X1313266Y1093672*
X1313607Y1093828*
X1313834*
X1310311D02*
X1311448Y1090547D01*
X1311902Y1093828D02*
X1310311D01*
X1115073Y1106656D02*
X1115209Y1107031D01*
X1115482Y1107406*
X1115755Y1107594*
X1116300*
X1116573Y1107406*
X1116845Y1107031*
X1116982Y1106656*
X1117118Y1106094*
Y1105156*
X1116982Y1104594*
X1116845Y1104219*
X1116573Y1103844*
X1116300Y1103656*
X1115755*
X1115482Y1103844*
X1115209Y1104219*
X1115073Y1104594*
X1111936Y1107594D02*
X1113300Y1103656D01*
X1113845Y1107594D02*
X1111936D01*
X1110709Y1106844D02*
X1110436Y1107031D01*
X1110027Y1107594*
Y1103656*
X1155777Y1106781D02*
X1156050Y1106594D01*
X1156323Y1106219*
X1156459Y1105656*
Y1105281*
X1156323Y1104719*
X1156050Y1104344*
X1155777Y1104156*
X1155368*
X1155095Y1104344*
X1154823Y1104719*
X1154686Y1105281*
Y1105656*
X1154823Y1106219*
X1155095Y1106594*
X1155368Y1106781*
X1155777*
X1171277Y1068281D02*
X1171550Y1068094D01*
X1171823Y1067719*
X1171959Y1067156*
Y1066781*
X1171823Y1066219*
X1171550Y1065844*
X1171277Y1065656*
X1170868*
X1170595Y1065844*
X1170323Y1066219*
X1170186Y1066781*
Y1067156*
X1170323Y1067719*
X1170595Y1068094*
X1170868Y1068281*
X1171277*
X0Y0D02*
M02*
