G04*
G04 #@! TF.GenerationSoftware,Altium Limited,Altium Designer,18.1.9 (240)*
G04*
G04 Layer_Physical_Order=2*
G04 Layer_Color=32768*
%FSAX25Y25*%
%MOIN*%
G70*
G01*
G75*
%ADD11C,0.00500*%
%ADD15C,0.00800*%
%ADD16C,0.01000*%
%ADD127C,0.04000*%
%ADD128C,0.04000*%
%ADD129R,0.99185X0.08939*%
%ADD130R,0.11457X1.07158*%
G04:AMPARAMS|DCode=131|XSize=176.78mil|YSize=91.92mil|CornerRadius=0mil|HoleSize=0mil|Usage=FLASHONLY|Rotation=45.000|XOffset=0mil|YOffset=0mil|HoleType=Round|Shape=Rectangle|*
%AMROTATEDRECTD131*
4,1,4,-0.03000,-0.09500,-0.09500,-0.03000,0.03000,0.09500,0.09500,0.03000,-0.03000,-0.09500,0.0*
%
%ADD131ROTATEDRECTD131*%

%ADD132C,0.13024*%
%ADD133C,0.05543*%
%ADD134C,0.05504*%
%ADD135O,0.04362X0.07118*%
%ADD136C,0.04500*%
%ADD137C,0.02800*%
G54D11*
X0019387Y0035041D02*
X0021070D01*
Y0033312D02*
Y0035041D01*
X0020964Y0033206D02*
X0021070Y0033312D01*
X0020258Y0032500D02*
X0020964Y0033206D01*
X0020611Y0035500D02*
X0021070Y0035041D01*
G54D15*
X-0252500Y-0189002D02*
X-0250501D01*
X-0251500D01*
Y-0195000D01*
X-0252500D01*
X-0250501D01*
X-0247502D02*
Y-0191001D01*
X-0244503D01*
X-0243503Y-0192001D01*
Y-0195000D01*
X-0240504Y-0190002D02*
Y-0191001D01*
X-0241504D01*
X-0239504D01*
X-0240504D01*
Y-0194000D01*
X-0239504Y-0195000D01*
X-0233506D02*
X-0235506D01*
X-0236505Y-0194000D01*
Y-0192001D01*
X-0235506Y-0191001D01*
X-0233506D01*
X-0232506Y-0192001D01*
Y-0193001D01*
X-0236505D01*
X-0230507Y-0191001D02*
Y-0195000D01*
Y-0193001D01*
X-0229507Y-0192001D01*
X-0228508Y-0191001D01*
X-0227508D01*
X-0224509Y-0195000D02*
Y-0191001D01*
X-0221510D01*
X-0220510Y-0192001D01*
Y-0195000D01*
X-0217511Y-0191001D02*
X-0215512D01*
X-0214512Y-0192001D01*
Y-0195000D01*
X-0217511D01*
X-0218511Y-0194000D01*
X-0217511Y-0193001D01*
X-0214512D01*
X-0212513Y-0195000D02*
X-0210514D01*
X-0211513D01*
Y-0189002D01*
X-0212513D01*
X-0201517Y-0195000D02*
Y-0189002D01*
X-0198518D01*
X-0197518Y-0190002D01*
Y-0192001D01*
X-0198518Y-0193001D01*
X-0201517D01*
X-0195518Y-0195000D02*
X-0193519D01*
X-0194519D01*
Y-0189002D01*
X-0195518D01*
X-0189520Y-0191001D02*
X-0187521D01*
X-0186521Y-0192001D01*
Y-0195000D01*
X-0189520D01*
X-0190520Y-0194000D01*
X-0189520Y-0193001D01*
X-0186521D01*
X-0184522Y-0195000D02*
Y-0191001D01*
X-0181523D01*
X-0180523Y-0192001D01*
Y-0195000D01*
X-0175525D02*
X-0177524D01*
X-0178524Y-0194000D01*
Y-0192001D01*
X-0177524Y-0191001D01*
X-0175525D01*
X-0174525Y-0192001D01*
Y-0193001D01*
X-0178524D01*
X-0162529Y-0195000D02*
X-0166528D01*
X-0162529Y-0191001D01*
Y-0190002D01*
X-0163529Y-0189002D01*
X-0165528D01*
X-0166528Y-0190002D01*
X0195113Y-0174295D02*
X0193113D01*
X0192114Y-0173296D01*
Y-0171296D01*
X0193113Y-0170297D01*
X0195113D01*
X0196112Y-0171296D01*
Y-0172296D01*
X0192114D01*
X0201111Y-0174295D02*
X0199111D01*
X0198112Y-0173296D01*
Y-0171296D01*
X0199111Y-0170297D01*
X0201111D01*
X0202110Y-0171296D01*
Y-0172296D01*
X0198112D01*
X0208108Y-0168297D02*
X0204110D01*
Y-0171296D01*
X0206109Y-0170297D01*
X0207109D01*
X0208108Y-0171296D01*
Y-0173296D01*
X0207109Y-0174295D01*
X0205109D01*
X0204110Y-0173296D01*
X0214106Y-0168297D02*
X0212107Y-0169297D01*
X0210108Y-0171296D01*
Y-0173296D01*
X0211107Y-0174295D01*
X0213107D01*
X0214106Y-0173296D01*
Y-0172296D01*
X0213107Y-0171296D01*
X0210108D01*
X0220105Y-0168297D02*
X0218105Y-0169297D01*
X0216106Y-0171296D01*
Y-0173296D01*
X0217106Y-0174295D01*
X0219105D01*
X0220105Y-0173296D01*
Y-0172296D01*
X0219105Y-0171296D01*
X0216106D01*
X0226103Y-0168297D02*
X0224103Y-0169297D01*
X0222104Y-0171296D01*
Y-0173296D01*
X0223104Y-0174295D01*
X0225103D01*
X0226103Y-0173296D01*
Y-0172296D01*
X0225103Y-0171296D01*
X0222104D01*
X0228102Y-0169297D02*
X0229102Y-0168297D01*
X0231101D01*
X0232101Y-0169297D01*
Y-0170297D01*
X0231101Y-0171296D01*
X0230101D01*
X0231101D01*
X0232101Y-0172296D01*
Y-0173296D01*
X0231101Y-0174295D01*
X0229102D01*
X0228102Y-0173296D01*
X0234100Y-0169297D02*
X0235100Y-0168297D01*
X0237099D01*
X0238099Y-0169297D01*
Y-0170297D01*
X0237099Y-0171296D01*
X0236099D01*
X0237099D01*
X0238099Y-0172296D01*
Y-0173296D01*
X0237099Y-0174295D01*
X0235100D01*
X0234100Y-0173296D01*
X0240098Y-0169297D02*
X0241098Y-0168297D01*
X0243097D01*
X0244097Y-0169297D01*
Y-0170297D01*
X0243097Y-0171296D01*
X0242097D01*
X0243097D01*
X0244097Y-0172296D01*
Y-0173296D01*
X0243097Y-0174295D01*
X0241098D01*
X0240098Y-0173296D01*
X0249095Y-0174295D02*
Y-0168297D01*
X0246096Y-0171296D01*
X0250095D01*
X0252094Y-0169297D02*
X0253094Y-0168297D01*
X0255093D01*
X0256093Y-0169297D01*
Y-0170297D01*
X0255093Y-0171296D01*
X0254094D01*
X0255093D01*
X0256093Y-0172296D01*
Y-0173296D01*
X0255093Y-0174295D01*
X0253094D01*
X0252094Y-0173296D01*
X0262091Y-0168297D02*
X0258092D01*
Y-0171296D01*
X0260092Y-0170297D01*
X0261091D01*
X0262091Y-0171296D01*
Y-0173296D01*
X0261091Y-0174295D01*
X0259092D01*
X0258092Y-0173296D01*
X0264090Y-0169297D02*
X0265090Y-0168297D01*
X0267089D01*
X0268089Y-0169297D01*
Y-0170297D01*
X0267089Y-0171296D01*
X0266090D01*
X0267089D01*
X0268089Y-0172296D01*
Y-0173296D01*
X0267089Y-0174295D01*
X0265090D01*
X0264090Y-0173296D01*
X0274087Y-0168297D02*
X0270088D01*
Y-0171296D01*
X0272088Y-0170297D01*
X0273087D01*
X0274087Y-0171296D01*
Y-0173296D01*
X0273087Y-0174295D01*
X0271088D01*
X0270088Y-0173296D01*
X0280085Y-0170297D02*
X0277086D01*
X0276086Y-0171296D01*
Y-0173296D01*
X0277086Y-0174295D01*
X0280085D01*
X0282084D02*
X0284084D01*
X0283084D01*
Y-0168297D01*
X0282084Y-0169297D01*
X0291082Y-0168297D02*
Y-0174295D01*
X0288083D01*
X0287083Y-0173296D01*
Y-0171296D01*
X0288083Y-0170297D01*
X0291082D01*
X0296080Y-0174295D02*
X0294081D01*
X0293081Y-0173296D01*
Y-0171296D01*
X0294081Y-0170297D01*
X0296080D01*
X0297080Y-0171296D01*
Y-0172296D01*
X0293081D01*
X0299079Y-0168297D02*
Y-0174295D01*
X0302078D01*
X0303078Y-0173296D01*
Y-0172296D01*
Y-0171296D01*
X0302078Y-0170297D01*
X0299079D01*
X0305077Y-0168297D02*
Y-0174295D01*
X0308076D01*
X0309076Y-0173296D01*
Y-0172296D01*
Y-0171296D01*
X0308076Y-0170297D01*
X0305077D01*
X0312075Y-0174295D02*
Y-0169297D01*
Y-0171296D01*
X0311075D01*
X0313074D01*
X0312075D01*
Y-0169297D01*
X0313074Y-0168297D01*
X0316073Y-0169297D02*
X0317073Y-0168297D01*
X0319073D01*
X0320072Y-0169297D01*
Y-0173296D01*
X0319073Y-0174295D01*
X0317073D01*
X0316073Y-0173296D01*
Y-0169297D01*
X0322072Y-0173296D02*
X0323071Y-0174295D01*
X0325071D01*
X0326070Y-0173296D01*
Y-0169297D01*
X0325071Y-0168297D01*
X0323071D01*
X0322072Y-0169297D01*
Y-0170297D01*
X0323071Y-0171296D01*
X0326070D01*
X0332068Y-0174295D02*
X0328070D01*
X0332068Y-0170297D01*
Y-0169297D01*
X0331069Y-0168297D01*
X0329069D01*
X0328070Y-0169297D01*
X0334068D02*
X0335067Y-0168297D01*
X0337067D01*
X0338066Y-0169297D01*
Y-0170297D01*
X0337067Y-0171296D01*
X0338066Y-0172296D01*
Y-0173296D01*
X0337067Y-0174295D01*
X0335067D01*
X0334068Y-0173296D01*
Y-0172296D01*
X0335067Y-0171296D01*
X0334068Y-0170297D01*
Y-0169297D01*
X0335067Y-0171296D02*
X0337067D01*
X0344064Y-0168297D02*
X0340066D01*
Y-0171296D01*
X0342065Y-0170297D01*
X0343065D01*
X0344064Y-0171296D01*
Y-0173296D01*
X0343065Y-0174295D01*
X0341065D01*
X0340066Y-0173296D01*
X0346064D02*
X0347063Y-0174295D01*
X0349063D01*
X0350062Y-0173296D01*
Y-0169297D01*
X0349063Y-0168297D01*
X0347063D01*
X0346064Y-0169297D01*
Y-0170297D01*
X0347063Y-0171296D01*
X0350062D01*
X0352062Y-0168297D02*
Y-0174295D01*
X0355061D01*
X0356061Y-0173296D01*
Y-0172296D01*
Y-0171296D01*
X0355061Y-0170297D01*
X0352062D01*
X0358060Y-0169297D02*
X0359060Y-0168297D01*
X0361059D01*
X0362059Y-0169297D01*
Y-0170297D01*
X0361059Y-0171296D01*
X0362059Y-0172296D01*
Y-0173296D01*
X0361059Y-0174295D01*
X0359060D01*
X0358060Y-0173296D01*
Y-0172296D01*
X0359060Y-0171296D01*
X0358060Y-0170297D01*
Y-0169297D01*
X0359060Y-0171296D02*
X0361059D01*
X0367057Y-0174295D02*
X0365058D01*
X0364058Y-0173296D01*
Y-0171296D01*
X0365058Y-0170297D01*
X0367057D01*
X0368057Y-0171296D01*
Y-0172296D01*
X0364058D01*
X0370056Y-0168297D02*
Y-0174295D01*
X0373055D01*
X0374055Y-0173296D01*
Y-0172296D01*
Y-0171296D01*
X0373055Y-0170297D01*
X0370056D01*
X0380053Y-0174295D02*
X0376054D01*
X0380053Y-0170297D01*
Y-0169297D01*
X0379053Y-0168297D01*
X0377054D01*
X0376054Y-0169297D01*
X0382052D02*
X0383052Y-0168297D01*
X0385051D01*
X0386051Y-0169297D01*
Y-0170297D01*
X0385051Y-0171296D01*
X0384051D01*
X0385051D01*
X0386051Y-0172296D01*
Y-0173296D01*
X0385051Y-0174295D01*
X0383052D01*
X0382052Y-0173296D01*
X0389050Y-0174295D02*
Y-0169297D01*
Y-0171296D01*
X0388050D01*
X0390050D01*
X0389050D01*
Y-0169297D01*
X0390050Y-0168297D01*
X0393049Y-0169297D02*
X0394048Y-0168297D01*
X0396048D01*
X0397047Y-0169297D01*
Y-0170297D01*
X0396048Y-0171296D01*
X0395048D01*
X0396048D01*
X0397047Y-0172296D01*
Y-0173296D01*
X0396048Y-0174295D01*
X0394048D01*
X0393049Y-0173296D01*
X0399047Y-0169297D02*
X0400046Y-0168297D01*
X0402046D01*
X0403045Y-0169297D01*
Y-0170297D01*
X0402046Y-0171296D01*
X0401046D01*
X0402046D01*
X0403045Y-0172296D01*
Y-0173296D01*
X0402046Y-0174295D01*
X0400046D01*
X0399047Y-0173296D01*
X0409043Y-0168297D02*
X0407044Y-0169297D01*
X0405045Y-0171296D01*
Y-0173296D01*
X0406044Y-0174295D01*
X0408044D01*
X0409043Y-0173296D01*
Y-0172296D01*
X0408044Y-0171296D01*
X0405045D01*
X0415041Y-0168297D02*
X0411043D01*
Y-0171296D01*
X0413042Y-0170297D01*
X0414042D01*
X0415041Y-0171296D01*
Y-0173296D01*
X0414042Y-0174295D01*
X0412043D01*
X0411043Y-0173296D01*
X0417041Y-0168297D02*
X0421039D01*
Y-0169297D01*
X0417041Y-0173296D01*
Y-0174295D01*
X0427038Y-0170297D02*
X0424039D01*
X0423039Y-0171296D01*
Y-0173296D01*
X0424039Y-0174295D01*
X0427038D01*
X0437034D02*
X0435035D01*
Y-0168297D01*
X0437034D01*
X0440033D02*
Y-0174295D01*
X0444032D01*
X0447031D02*
X0449030D01*
X0450030Y-0173296D01*
Y-0171296D01*
X0449030Y-0170297D01*
X0447031D01*
X0446032Y-0171296D01*
Y-0173296D01*
X0447031Y-0174295D01*
X0456028Y-0170297D02*
X0453029D01*
X0452030Y-0171296D01*
Y-0173296D01*
X0453029Y-0174295D01*
X0456028D01*
X0459027Y-0170297D02*
X0461027D01*
X0462026Y-0171296D01*
Y-0174295D01*
X0459027D01*
X0458028Y-0173296D01*
X0459027Y-0172296D01*
X0462026D01*
X0464026Y-0174295D02*
X0466025D01*
X0465025D01*
Y-0168297D01*
X0464026D01*
X0469024Y-0174295D02*
X0471023D01*
X0470024D01*
Y-0168297D01*
X0469024D01*
X0474022Y-0170297D02*
Y-0173296D01*
X0475022Y-0174295D01*
X0478021D01*
Y-0175295D01*
X0477021Y-0176295D01*
X0476022D01*
X0478021Y-0174295D02*
Y-0170297D01*
X0486019Y-0174295D02*
Y-0168297D01*
X0488018Y-0170297D01*
X0490017Y-0168297D01*
Y-0174295D01*
X0493016D02*
X0495016D01*
X0496015Y-0173296D01*
Y-0171296D01*
X0495016Y-0170297D01*
X0493016D01*
X0492017Y-0171296D01*
Y-0173296D01*
X0493016Y-0174295D01*
X0502013Y-0168297D02*
Y-0174295D01*
X0499014D01*
X0498015Y-0173296D01*
Y-0171296D01*
X0499014Y-0170297D01*
X0502013D01*
X0504013Y-0174295D02*
X0506012D01*
X0505012D01*
Y-0170297D01*
X0504013D01*
X0510011Y-0174295D02*
Y-0169297D01*
Y-0171296D01*
X0509011D01*
X0511010D01*
X0510011D01*
Y-0169297D01*
X0511010Y-0168297D01*
X0514010Y-0174295D02*
X0516009D01*
X0515009D01*
Y-0170297D01*
X0514010D01*
X0522007Y-0174295D02*
X0520008D01*
X0519008Y-0173296D01*
Y-0171296D01*
X0520008Y-0170297D01*
X0522007D01*
X0523006Y-0171296D01*
Y-0172296D01*
X0519008D01*
X0529005Y-0168297D02*
Y-0174295D01*
X0526006D01*
X0525006Y-0173296D01*
Y-0171296D01*
X0526006Y-0170297D01*
X0529005D01*
X0531004Y-0174295D02*
X0533003D01*
Y-0168297D01*
X0531004D01*
X0145512Y-0169297D02*
X0144513Y-0168297D01*
X0142513D01*
X0141514Y-0169297D01*
Y-0170297D01*
X0142513Y-0171296D01*
X0144513D01*
X0145512Y-0172296D01*
Y-0173296D01*
X0144513Y-0174295D01*
X0142513D01*
X0141514Y-0173296D01*
X0147512Y-0168297D02*
Y-0172296D01*
X0149511Y-0174295D01*
X0151510Y-0172296D01*
Y-0168297D01*
X0153510Y-0174295D02*
Y-0168297D01*
X0157508Y-0174295D01*
Y-0168297D01*
X0165506Y-0174295D02*
Y-0168297D01*
X0168505D01*
X0169504Y-0169297D01*
Y-0171296D01*
X0168505Y-0172296D01*
X0165506D01*
X0167505D02*
X0169504Y-0174295D01*
X0175503Y-0168297D02*
X0171504D01*
Y-0174295D01*
X0175503D01*
X0171504Y-0171296D02*
X0173503D01*
X0177502Y-0168297D02*
Y-0172296D01*
X0179501Y-0174295D01*
X0181501Y-0172296D01*
Y-0168297D01*
X0183500Y-0170297D02*
X0184500D01*
Y-0171296D01*
X0183500D01*
Y-0170297D01*
Y-0173296D02*
X0184500D01*
Y-0174295D01*
X0183500D01*
Y-0173296D01*
X0057714Y-0174295D02*
Y-0168297D01*
X0060713D01*
X0061712Y-0169297D01*
Y-0171296D01*
X0060713Y-0172296D01*
X0057714D01*
X0059713D02*
X0061712Y-0174295D01*
X0067710Y-0168297D02*
X0063712D01*
Y-0174295D01*
X0067710D01*
X0063712Y-0171296D02*
X0065711D01*
X0069710Y-0168297D02*
Y-0172296D01*
X0071709Y-0174295D01*
X0073708Y-0172296D01*
Y-0168297D01*
X0075708Y-0170297D02*
X0076708D01*
Y-0171296D01*
X0075708D01*
Y-0170297D01*
Y-0173296D02*
X0076708D01*
Y-0174295D01*
X0075708D01*
Y-0173296D01*
X-0248386Y-0215162D02*
Y-0209164D01*
X-0246387Y-0211163D01*
X-0244388Y-0209164D01*
Y-0215162D01*
X-0238390Y-0210164D02*
X-0239389Y-0209164D01*
X-0241389D01*
X-0242388Y-0210164D01*
Y-0214162D01*
X-0241389Y-0215162D01*
X-0239389D01*
X-0238390Y-0214162D01*
X-0236390Y-0209164D02*
Y-0214162D01*
X-0235391Y-0215162D01*
X-0233391D01*
X-0232392Y-0214162D01*
Y-0209164D01*
X-0230392Y-0210164D02*
X-0229393Y-0209164D01*
X-0227393D01*
X-0226394Y-0210164D01*
Y-0214162D01*
X-0227393Y-0215162D01*
X-0229393D01*
X-0230392Y-0214162D01*
Y-0210164D01*
X-0220395Y-0209164D02*
X-0222395Y-0210164D01*
X-0224394Y-0212163D01*
Y-0214162D01*
X-0223394Y-0215162D01*
X-0221395D01*
X-0220395Y-0214162D01*
Y-0213163D01*
X-0221395Y-0212163D01*
X-0224394D01*
X-0218396Y-0210164D02*
X-0217396Y-0209164D01*
X-0215397D01*
X-0214397Y-0210164D01*
Y-0211163D01*
X-0215397Y-0212163D01*
X-0216397D01*
X-0215397D01*
X-0214397Y-0213163D01*
Y-0214162D01*
X-0215397Y-0215162D01*
X-0217396D01*
X-0218396Y-0214162D01*
X-0212398Y-0215162D02*
Y-0211163D01*
X-0210399Y-0209164D01*
X-0208399Y-0211163D01*
Y-0215162D01*
Y-0212163D01*
X-0212398D01*
X-0206400Y-0215162D02*
Y-0214162D01*
X-0205400D01*
Y-0215162D01*
X-0206400D01*
X-0197403Y-0210164D02*
X-0198403Y-0209164D01*
X-0200402D01*
X-0201402Y-0210164D01*
Y-0214162D01*
X-0200402Y-0215162D01*
X-0198403D01*
X-0197403Y-0214162D01*
Y-0212163D01*
X-0199402D01*
X-0195404Y-0215162D02*
Y-0209164D01*
X-0192404D01*
X-0191405Y-0210164D01*
Y-0212163D01*
X-0192404Y-0213163D01*
X-0195404D01*
X-0189406Y-0215162D02*
X-0187406D01*
X-0188406D01*
Y-0209164D01*
X-0189406Y-0210164D01*
X0008863Y-0215162D02*
Y-0209164D01*
X0005864Y-0212163D01*
X0009862D01*
X0011862Y-0215162D02*
X0015860Y-0211163D01*
X0017860Y-0215162D02*
X0019859D01*
X0018859D01*
Y-0209164D01*
X0017860Y-0210164D01*
X0022858Y-0215162D02*
X0024858D01*
X0023858D01*
Y-0209164D01*
X0022858Y-0210164D01*
X0027856Y-0215162D02*
X0031855Y-0211163D01*
X0037853Y-0215162D02*
X0033854D01*
X0037853Y-0211163D01*
Y-0210164D01*
X0036854Y-0209164D01*
X0034854D01*
X0033854Y-0210164D01*
X0039853D02*
X0040852Y-0209164D01*
X0042852D01*
X0043851Y-0210164D01*
Y-0214162D01*
X0042852Y-0215162D01*
X0040852D01*
X0039853Y-0214162D01*
Y-0210164D01*
X0045851Y-0215162D02*
X0047850D01*
X0046850D01*
Y-0209164D01*
X0045851Y-0210164D01*
X0050849Y-0214162D02*
X0051849Y-0215162D01*
X0053848D01*
X0054848Y-0214162D01*
Y-0210164D01*
X0053848Y-0209164D01*
X0051849D01*
X0050849Y-0210164D01*
Y-0211163D01*
X0051849Y-0212163D01*
X0054848D01*
X-0077088Y-0210164D02*
X-0078087Y-0209164D01*
X-0080087D01*
X-0081086Y-0210164D01*
Y-0214162D01*
X-0080087Y-0215162D01*
X-0078087D01*
X-0077088Y-0214162D01*
Y-0212163D01*
X-0079087D01*
X-0071090Y-0209164D02*
X-0075088D01*
Y-0215162D01*
X-0071090D01*
X-0075088Y-0212163D02*
X-0073089D01*
X-0069090Y-0215162D02*
Y-0209164D01*
X-0065092Y-0215162D01*
Y-0209164D01*
X-0059093D02*
X-0063092D01*
Y-0215162D01*
X-0059093D01*
X-0063092Y-0212163D02*
X-0061093D01*
X-0057094Y-0215162D02*
Y-0209164D01*
X-0054095D01*
X-0053096Y-0210164D01*
Y-0212163D01*
X-0054095Y-0213163D01*
X-0057094D01*
X-0055095D02*
X-0053096Y-0215162D01*
X-0051096D02*
Y-0211163D01*
X-0049097Y-0209164D01*
X-0047097Y-0211163D01*
Y-0215162D01*
Y-0212163D01*
X-0051096D01*
X-0045098Y-0209164D02*
X-0041099D01*
X-0043099D01*
Y-0215162D01*
X-0035101Y-0209164D02*
X-0039100D01*
Y-0215162D01*
X-0035101D01*
X-0039100Y-0212163D02*
X-0037101D01*
X-0033102Y-0209164D02*
Y-0215162D01*
X-0030103D01*
X-0029103Y-0214162D01*
Y-0210164D01*
X-0030103Y-0209164D01*
X-0033102D01*
X-0003112Y-0211163D02*
X-0002112D01*
Y-0212163D01*
X-0003112D01*
Y-0211163D01*
Y-0214162D02*
X-0002112D01*
Y-0215162D01*
X-0003112D01*
Y-0214162D01*
X-0328936Y-0174295D02*
Y-0170297D01*
X-0326937Y-0168297D01*
X-0324938Y-0170297D01*
Y-0174295D01*
Y-0171296D01*
X-0328936D01*
X-0322938Y-0168297D02*
Y-0174295D01*
X-0318940D01*
X-0316940Y-0168297D02*
Y-0174295D01*
X-0312942D01*
X-0304944D02*
Y-0170297D01*
X-0302945Y-0168297D01*
X-0300945Y-0170297D01*
Y-0174295D01*
Y-0171296D01*
X-0304944D01*
X-0298946Y-0174295D02*
Y-0168297D01*
X-0295947D01*
X-0294947Y-0169297D01*
Y-0171296D01*
X-0295947Y-0172296D01*
X-0298946D01*
X-0296947D02*
X-0294947Y-0174295D01*
X-0292948Y-0168297D02*
X-0288949D01*
X-0290949D01*
Y-0174295D01*
X-0286950Y-0168297D02*
Y-0174295D01*
X-0284951Y-0172296D01*
X-0282951Y-0174295D01*
Y-0168297D01*
X-0277953D02*
X-0279952D01*
X-0280952Y-0169297D01*
Y-0173296D01*
X-0279952Y-0174295D01*
X-0277953D01*
X-0276953Y-0173296D01*
Y-0169297D01*
X-0277953Y-0168297D01*
X-0274954Y-0174295D02*
Y-0168297D01*
X-0271955D01*
X-0270955Y-0169297D01*
Y-0171296D01*
X-0271955Y-0172296D01*
X-0274954D01*
X-0272955D02*
X-0270955Y-0174295D01*
X-0268956Y-0168297D02*
Y-0174295D01*
Y-0172296D01*
X-0264957Y-0168297D01*
X-0267956Y-0171296D01*
X-0264957Y-0174295D01*
X-0256960Y-0168297D02*
Y-0172296D01*
X-0254960Y-0174295D01*
X-0252961Y-0172296D01*
Y-0168297D01*
X-0250962D02*
X-0248962D01*
X-0249962D01*
Y-0174295D01*
X-0250962D01*
X-0248962D01*
X-0241965Y-0168297D02*
X-0245963D01*
Y-0174295D01*
X-0241965D01*
X-0245963Y-0171296D02*
X-0243964D01*
X-0239965Y-0168297D02*
Y-0174295D01*
X-0237966Y-0172296D01*
X-0235966Y-0174295D01*
Y-0168297D01*
X-0229968D02*
X-0233967D01*
Y-0174295D01*
X-0229968D01*
X-0233967Y-0171296D02*
X-0231968D01*
X-0227969Y-0168297D02*
Y-0174295D01*
X-0224970D01*
X-0223970Y-0173296D01*
Y-0169297D01*
X-0224970Y-0168297D01*
X-0227969D01*
X-0211974D02*
X-0215973D01*
Y-0171296D01*
X-0213974D01*
X-0215973D01*
Y-0174295D01*
X-0209975D02*
Y-0168297D01*
X-0206976D01*
X-0205976Y-0169297D01*
Y-0171296D01*
X-0206976Y-0172296D01*
X-0209975D01*
X-0207976D02*
X-0205976Y-0174295D01*
X-0200978Y-0168297D02*
X-0202977D01*
X-0203977Y-0169297D01*
Y-0173296D01*
X-0202977Y-0174295D01*
X-0200978D01*
X-0199978Y-0173296D01*
Y-0169297D01*
X-0200978Y-0168297D01*
X-0197979Y-0174295D02*
Y-0168297D01*
X-0195979Y-0170297D01*
X-0193980Y-0168297D01*
Y-0174295D01*
X-0185983Y-0168297D02*
X-0181984D01*
X-0183983D01*
Y-0174295D01*
X-0176986Y-0168297D02*
X-0178985D01*
X-0179985Y-0169297D01*
Y-0173296D01*
X-0178985Y-0174295D01*
X-0176986D01*
X-0175986Y-0173296D01*
Y-0169297D01*
X-0176986Y-0168297D01*
X-0173986Y-0174295D02*
Y-0168297D01*
X-0170987D01*
X-0169988Y-0169297D01*
Y-0171296D01*
X-0170987Y-0172296D01*
X-0173986D01*
X-0157992Y-0169297D02*
X-0158991Y-0168297D01*
X-0160991D01*
X-0161990Y-0169297D01*
Y-0170297D01*
X-0160991Y-0171296D01*
X-0158991D01*
X-0157992Y-0172296D01*
Y-0173296D01*
X-0158991Y-0174295D01*
X-0160991D01*
X-0161990Y-0173296D01*
X-0155992Y-0168297D02*
X-0153993D01*
X-0154993D01*
Y-0174295D01*
X-0155992D01*
X-0153993D01*
X-0150994Y-0168297D02*
Y-0174295D01*
X-0147995D01*
X-0146995Y-0173296D01*
Y-0169297D01*
X-0147995Y-0168297D01*
X-0150994D01*
X-0140997D02*
X-0144996D01*
Y-0174295D01*
X-0140997D01*
X-0144996Y-0171296D02*
X-0142997D01*
X0086864Y-0174295D02*
Y-0170297D01*
X0088863Y-0168297D01*
X0090862Y-0170297D01*
Y-0174295D01*
Y-0171296D01*
X0086864D01*
X-0026736Y-0174295D02*
Y-0168297D01*
X-0024737Y-0170297D01*
X-0022738Y-0168297D01*
Y-0174295D01*
X-0016740Y-0169297D02*
X-0017739Y-0168297D01*
X-0019739D01*
X-0020738Y-0169297D01*
Y-0173296D01*
X-0019739Y-0174295D01*
X-0017739D01*
X-0016740Y-0173296D01*
X-0014740Y-0168297D02*
Y-0173296D01*
X-0013741Y-0174295D01*
X-0011741D01*
X-0010742Y-0173296D01*
Y-0168297D01*
X-0008742Y-0169297D02*
X-0007743Y-0168297D01*
X-0005743D01*
X-0004744Y-0169297D01*
Y-0173296D01*
X-0005743Y-0174295D01*
X-0007743D01*
X-0008742Y-0173296D01*
Y-0169297D01*
X0001255Y-0168297D02*
X-0000745Y-0169297D01*
X-0002744Y-0171296D01*
Y-0173296D01*
X-0001744Y-0174295D01*
X0000255D01*
X0001255Y-0173296D01*
Y-0172296D01*
X0000255Y-0171296D01*
X-0002744D01*
X0003254Y-0169297D02*
X0004254Y-0168297D01*
X0006253D01*
X0007253Y-0169297D01*
Y-0170297D01*
X0006253Y-0171296D01*
X0005253D01*
X0006253D01*
X0007253Y-0172296D01*
Y-0173296D01*
X0006253Y-0174295D01*
X0004254D01*
X0003254Y-0173296D01*
X-0081286Y-0168297D02*
Y-0174295D01*
X-0078287D01*
X-0077288Y-0173296D01*
Y-0172296D01*
X-0078287Y-0171296D01*
X-0081286D01*
X-0078287D01*
X-0077288Y-0170297D01*
Y-0169297D01*
X-0078287Y-0168297D01*
X-0081286D01*
X-0072289D02*
X-0074289D01*
X-0075288Y-0169297D01*
Y-0173296D01*
X-0074289Y-0174295D01*
X-0072289D01*
X-0071290Y-0173296D01*
Y-0169297D01*
X-0072289Y-0168297D01*
X-0069290Y-0174295D02*
Y-0170297D01*
X-0067291Y-0168297D01*
X-0065292Y-0170297D01*
Y-0174295D01*
Y-0171296D01*
X-0069290D01*
X-0063292Y-0174295D02*
Y-0168297D01*
X-0060293D01*
X-0059294Y-0169297D01*
Y-0171296D01*
X-0060293Y-0172296D01*
X-0063292D01*
X-0061293D02*
X-0059294Y-0174295D01*
X-0057294Y-0168297D02*
Y-0174295D01*
X-0054295D01*
X-0053295Y-0173296D01*
Y-0169297D01*
X-0054295Y-0168297D01*
X-0057294D01*
X-0044298Y-0174295D02*
Y-0168297D01*
X-0042299D02*
Y-0174295D01*
X-0045298Y-0170297D02*
X-0042299D01*
X-0041299D01*
X-0045298Y-0172296D02*
X-0041299D01*
X-0039300Y-0170297D02*
X-0038300D01*
Y-0171296D01*
X-0039300D01*
Y-0170297D01*
Y-0173296D02*
X-0038300D01*
Y-0174295D01*
X-0039300D01*
Y-0173296D01*
X-0328936Y-0188580D02*
Y-0194578D01*
X-0324938D01*
X-0322938D02*
Y-0190579D01*
X-0320939Y-0188580D01*
X-0318940Y-0190579D01*
Y-0194578D01*
Y-0191579D01*
X-0322938D01*
X-0316940Y-0188580D02*
Y-0189579D01*
X-0314941Y-0191579D01*
X-0312942Y-0189579D01*
Y-0188580D01*
X-0314941Y-0191579D02*
Y-0194578D01*
X-0306943Y-0188580D02*
X-0310942D01*
Y-0194578D01*
X-0306943D01*
X-0310942Y-0191579D02*
X-0308943D01*
X-0304944Y-0194578D02*
Y-0188580D01*
X-0301945D01*
X-0300945Y-0189579D01*
Y-0191579D01*
X-0301945Y-0192579D01*
X-0304944D01*
X-0302945D02*
X-0300945Y-0194578D01*
X-0292948D02*
Y-0188580D01*
X-0288949Y-0194578D01*
Y-0188580D01*
X-0286950Y-0194578D02*
Y-0190579D01*
X-0284951Y-0188580D01*
X-0282951Y-0190579D01*
Y-0194578D01*
Y-0191579D01*
X-0286950D01*
X-0280952Y-0194578D02*
Y-0188580D01*
X-0278953Y-0190579D01*
X-0276953Y-0188580D01*
Y-0194578D01*
X-0270955Y-0188580D02*
X-0274954D01*
Y-0194578D01*
X-0270955D01*
X-0274954Y-0191579D02*
X-0272955D01*
X-0262958Y-0192579D02*
X-0258959D01*
X-0262958Y-0190579D02*
X-0258959D01*
X-0328936Y-0215162D02*
Y-0209164D01*
X-0325937D01*
X-0324938Y-0210164D01*
Y-0212163D01*
X-0325937Y-0213163D01*
X-0328936D01*
X-0322938Y-0209164D02*
Y-0215162D01*
X-0318940D01*
X-0313941Y-0209164D02*
X-0315941D01*
X-0316940Y-0210164D01*
Y-0214162D01*
X-0315941Y-0215162D01*
X-0313941D01*
X-0312942Y-0214162D01*
Y-0210164D01*
X-0313941Y-0209164D01*
X-0310942D02*
X-0306943D01*
X-0308943D01*
Y-0215162D01*
X-0298946D02*
Y-0209164D01*
X-0294947Y-0215162D01*
Y-0209164D01*
X-0292948Y-0215162D02*
Y-0211163D01*
X-0290949Y-0209164D01*
X-0288949Y-0211163D01*
Y-0215162D01*
Y-0212163D01*
X-0292948D01*
X-0286950Y-0215162D02*
Y-0209164D01*
X-0284951Y-0211163D01*
X-0282951Y-0209164D01*
Y-0215162D01*
X-0276953Y-0209164D02*
X-0280952D01*
Y-0215162D01*
X-0276953D01*
X-0280952Y-0212163D02*
X-0278953D01*
X-0268956Y-0213163D02*
X-0264957D01*
X-0268956Y-0211163D02*
X-0264957D01*
X0078764Y-0209164D02*
X0082762D01*
Y-0210164D01*
X0078764Y-0214162D01*
Y-0215162D01*
X0084762Y-0211163D02*
X0085761D01*
Y-0212163D01*
X0084762D01*
Y-0211163D01*
Y-0214162D02*
X0085761D01*
Y-0215162D01*
X0084762D01*
Y-0214162D01*
X0089760Y-0210164D02*
X0090760Y-0209164D01*
X0092759D01*
X0093759Y-0210164D01*
Y-0214162D01*
X0092759Y-0215162D01*
X0090760D01*
X0089760Y-0214162D01*
Y-0210164D01*
X0095758D02*
X0096758Y-0209164D01*
X0098757D01*
X0099757Y-0210164D01*
Y-0211163D01*
X0098757Y-0212163D01*
X0097757D01*
X0098757D01*
X0099757Y-0213163D01*
Y-0214162D01*
X0098757Y-0215162D01*
X0096758D01*
X0095758Y-0214162D01*
X0101756Y-0211163D02*
X0102756D01*
Y-0212163D01*
X0101756D01*
Y-0211163D01*
Y-0214162D02*
X0102756D01*
Y-0215162D01*
X0101756D01*
Y-0214162D01*
X0106755Y-0210164D02*
X0107754Y-0209164D01*
X0109754D01*
X0110753Y-0210164D01*
Y-0211163D01*
X0109754Y-0212163D01*
X0108754D01*
X0109754D01*
X0110753Y-0213163D01*
Y-0214162D01*
X0109754Y-0215162D01*
X0107754D01*
X0106755Y-0214162D01*
X0116751Y-0209164D02*
X0112753D01*
Y-0212163D01*
X0114752Y-0211163D01*
X0115752D01*
X0116751Y-0212163D01*
Y-0214162D01*
X0115752Y-0215162D01*
X0113752D01*
X0112753Y-0214162D01*
X0124749Y-0215162D02*
Y-0209164D01*
X0127748D01*
X0128747Y-0210164D01*
Y-0212163D01*
X0127748Y-0213163D01*
X0124749D01*
X0130747Y-0215162D02*
Y-0209164D01*
X0132746Y-0211163D01*
X0134746Y-0209164D01*
Y-0215162D01*
X0205214Y-0209164D02*
X0209212D01*
X0207213D01*
Y-0215162D01*
X0215210Y-0209164D02*
X0211212D01*
Y-0215162D01*
X0215210D01*
X0211212Y-0212163D02*
X0213211D01*
X0217210Y-0209164D02*
X0221208Y-0215162D01*
Y-0209164D02*
X0217210Y-0215162D01*
X0223208D02*
Y-0211163D01*
X0225207Y-0209164D01*
X0227206Y-0211163D01*
Y-0215162D01*
Y-0212163D01*
X0223208D01*
X0233205Y-0210164D02*
X0232205Y-0209164D01*
X0230205D01*
X0229206Y-0210164D01*
Y-0211163D01*
X0230205Y-0212163D01*
X0232205D01*
X0233205Y-0213163D01*
Y-0214162D01*
X0232205Y-0215162D01*
X0230205D01*
X0229206Y-0214162D01*
X0241202Y-0209164D02*
X0243201D01*
X0242202D01*
Y-0215162D01*
X0241202D01*
X0243201D01*
X0246200D02*
Y-0209164D01*
X0250199Y-0215162D01*
Y-0209164D01*
X0256197Y-0210164D02*
X0255197Y-0209164D01*
X0253198D01*
X0252198Y-0210164D01*
Y-0211163D01*
X0253198Y-0212163D01*
X0255197D01*
X0256197Y-0213163D01*
Y-0214162D01*
X0255197Y-0215162D01*
X0253198D01*
X0252198Y-0214162D01*
X0258196Y-0209164D02*
X0262195D01*
X0260196D01*
Y-0215162D01*
X0264194D02*
Y-0209164D01*
X0267194D01*
X0268193Y-0210164D01*
Y-0212163D01*
X0267194Y-0213163D01*
X0264194D01*
X0266194D02*
X0268193Y-0215162D01*
X0270193Y-0209164D02*
Y-0214162D01*
X0271192Y-0215162D01*
X0273192D01*
X0274191Y-0214162D01*
Y-0209164D01*
X0276191Y-0215162D02*
Y-0209164D01*
X0278190Y-0211163D01*
X0280189Y-0209164D01*
Y-0215162D01*
X0286187Y-0209164D02*
X0282189D01*
Y-0215162D01*
X0286187D01*
X0282189Y-0212163D02*
X0284188D01*
X0288187Y-0215162D02*
Y-0209164D01*
X0292185Y-0215162D01*
Y-0209164D01*
X0294185D02*
X0298183D01*
X0296184D01*
Y-0215162D01*
X0304182Y-0210164D02*
X0303182Y-0209164D01*
X0301183D01*
X0300183Y-0210164D01*
Y-0211163D01*
X0301183Y-0212163D01*
X0303182D01*
X0304182Y-0213163D01*
Y-0214162D01*
X0303182Y-0215162D01*
X0301183D01*
X0300183Y-0214162D01*
X-0081286Y-0188630D02*
X-0077288D01*
X-0079287D01*
Y-0194629D01*
X-0075288Y-0188630D02*
X-0073289D01*
X-0074289D01*
Y-0194629D01*
X-0075288D01*
X-0073289D01*
X-0070290Y-0188630D02*
Y-0194629D01*
X-0067291D01*
X-0066291Y-0193629D01*
Y-0189630D01*
X-0067291Y-0188630D01*
X-0070290D01*
X-0057294Y-0194629D02*
Y-0188630D01*
X-0055295D02*
Y-0194629D01*
X-0058294Y-0190630D02*
X-0055295D01*
X-0054295D01*
X-0058294Y-0192629D02*
X-0054295D01*
X-0052296Y-0190630D02*
X-0051296D01*
Y-0191630D01*
X-0052296D01*
Y-0190630D01*
Y-0193629D02*
X-0051296D01*
Y-0194629D01*
X-0052296D01*
Y-0193629D01*
X-0026736Y-0194629D02*
Y-0188630D01*
X-0022738Y-0194629D01*
Y-0188630D01*
X-0020738Y-0194629D02*
X-0016740Y-0190630D01*
X-0014740Y-0194629D02*
Y-0190630D01*
X-0012741Y-0188630D01*
X-0010742Y-0190630D01*
Y-0194629D01*
Y-0191630D01*
X-0014740D01*
G54D16*
X0121914Y-0181412D02*
Y-0161079D01*
X0037914Y-0181412D02*
Y-0161079D01*
X-0335286Y-0181412D02*
X0324914D01*
X-0335286Y-0201745D02*
X0324714D01*
X-0335286Y-0222079D02*
X0065214D01*
X-0335236Y-0161079D02*
X0324914D01*
X-0335236Y-0222079D02*
Y-0161079D01*
Y-0222079D02*
X-0177686D01*
X-0335286D02*
Y-0161079D01*
X-0088786Y-0222079D02*
Y-0161079D01*
X0324914Y-0222079D02*
Y-0161079D01*
X0065214Y-0222079D02*
X0324914D01*
X0184114Y-0222729D02*
Y-0202445D01*
G54D127*
X0011298Y0031451D02*
G03*
X0011247Y0031400I0000000J-0000052D01*
G01*
X0012929Y0031441D02*
G03*
X0012894Y0031451I-0000031J-0000041D01*
G01*
X0012929Y0031441D02*
G03*
X0019101Y0034509I0002324J0003068D01*
G01*
D02*
G03*
X0019099Y0034648I-0003849J0000000D01*
G01*
X0019046Y0034700D02*
G03*
X0019099Y0034648I0000052J0000000D01*
G01*
X-0000052Y0048000D02*
G03*
X-0000000Y0047949I0000052J0000000D01*
G01*
Y0237051D02*
G03*
X-0000052Y0236999I0000000J-0000052D01*
G01*
X0170399Y0237035D02*
G03*
X0170362Y0237051I-0000036J-0000036D01*
G01*
X0172425Y0234988D02*
G03*
X0172410Y0235024I-0000052J0000000D01*
G01*
X0172425Y0230527D02*
G03*
X0174200Y0228751I0001812J0000036D01*
G01*
D02*
G03*
X0175865Y0230438I-0000022J0001687D01*
G01*
D02*
G03*
X0175865Y0230459I-0001687J0000000D01*
G01*
D02*
G03*
X0175865Y0230460I-0001687J-0000020D01*
G01*
X0175880Y0235024D02*
G03*
X0175865Y0234988I0000036J-0000036D01*
G01*
X0177885Y0237008D02*
G03*
X0177849Y0236993I0000000J-0000052D01*
G01*
X0189142D02*
G03*
X0189106Y0237008I-0000036J-0000036D01*
G01*
X0191126Y0234988D02*
G03*
X0191111Y0235024I-0000052J0000000D01*
G01*
X0191126Y0230459D02*
G03*
X0191126Y0230460I-0000052J0000001D01*
G01*
X0191126Y0230460D02*
G03*
X0191126Y0230459I0001692J-0000017D01*
G01*
D02*
G03*
X0192799Y0228751I0001692J-0000016D01*
G01*
D02*
G03*
X0192800Y0228751I0000018J0001692D01*
G01*
X0192802Y0228751D02*
G03*
X0192800Y0228751I-0000002J-0000052D01*
G01*
X0192801Y0228751D02*
G03*
X0192802Y0228751I0000028J0001737D01*
G01*
X0192801Y0228751D02*
G03*
X0192799Y0228751I-0000001J-0000052D01*
G01*
X0192802Y0228751D02*
G03*
X0194566Y0230460I0000027J0001737D01*
G01*
D02*
G03*
X0194566Y0230461I-0001737J0000029D01*
G01*
X0194581Y0235024D02*
G03*
X0194566Y0234988I0000036J-0000036D01*
G01*
X0196630Y0237052D02*
G03*
X0196593Y0237036I0000000J-0000052D01*
G01*
X0416449Y0237000D02*
G03*
X0416398Y0237052I-0000052J0000000D01*
G01*
Y0023559D02*
G03*
X0416449Y0023610I0000000J0000052D01*
G01*
X0409857Y0000348D02*
G03*
X0409908Y0000400I0000000J0000052D01*
G01*
X0310277D02*
G03*
X0310329Y0000348I0000052J0000000D01*
G01*
X0245399Y0034600D02*
G03*
X0245349Y0034652I-0000052J-0000000D01*
G01*
X0245399Y0034600D02*
G03*
X0251562Y0031537I0003849J0000012D01*
G01*
X0251598Y0031552D02*
G03*
X0251562Y0031537I0000000J-0000052D01*
G01*
X0253249Y0031500D02*
G03*
X0253198Y0031552I-0000052J0000000D01*
G01*
Y0023549D02*
G03*
X0253249Y0023600I0000000J0000052D01*
G01*
X0235498Y-0000052D02*
G03*
X0235549Y0000000I0000000J0000052D01*
G01*
X0130557D02*
G03*
X0130609Y-0000052I0000052J0000000D01*
G01*
X0130557Y0019700D02*
G03*
X0121260Y0019700I-0004648J0000000D01*
G01*
X0121209Y-0000052D02*
G03*
X0121260Y0000000I0000000J0000052D01*
G01*
X0028946D02*
G03*
X0028998Y-0000052I0000052J0000000D01*
G01*
X0011247Y0023600D02*
G03*
X0011298Y0023549I0000052J0000000D01*
G01*
X0011247Y0023600D02*
Y0031400D01*
X0011298Y0031451D02*
X0012894D01*
X0019046Y0034700D02*
Y0047949D01*
X-0000000D02*
X0019046D01*
X-0000052Y0048000D02*
Y0236999D01*
X-0000000Y0237051D02*
X0170362D01*
X0170399Y0237035D02*
X0172410Y0235024D01*
X0172425Y0230527D02*
Y0234988D01*
X0175865Y0230460D02*
Y0234988D01*
X0175880Y0235024D02*
X0177849Y0236993D01*
X0177885Y0237008D02*
X0189106D01*
X0189142Y0236993D02*
X0191111Y0235024D01*
X0191126Y0230460D02*
Y0234988D01*
X0191126Y0230459D02*
X0191126Y0230460D01*
X0192800Y0228751D02*
Y0228751D01*
X0192802Y0228751D02*
Y0228751D01*
X0192799Y0228751D02*
X0192802Y0228751D01*
X0194566Y0230460D02*
X0194566Y0230461D01*
X0194566Y0230460D02*
Y0234988D01*
X0194581Y0235024D02*
X0196593Y0237036D01*
X0196630Y0237052D02*
X0416398D01*
X0416449Y0023610D02*
Y0237000D01*
X0409908Y0023559D02*
X0416398D01*
X0409908Y0000400D02*
Y0023559D01*
X0310329Y0000348D02*
X0409857D01*
X0310277Y0000400D02*
Y0047949D01*
X0245349D02*
X0310277D01*
X0245349Y0034652D02*
Y0047949D01*
X0251598Y0031552D02*
X0253198D01*
X0253249Y0023600D02*
Y0031500D01*
X0235549Y0023549D02*
X0253198D01*
X0235549Y0000000D02*
Y0023549D01*
X0130609Y-0000052D02*
X0235498D01*
X0130557Y0000000D02*
Y0019700D01*
X0121260Y0000000D02*
Y0019700D01*
X0028998Y-0000052D02*
X0121209D01*
X0028946Y0000000D02*
Y0023549D01*
X0011298D02*
X0028946D01*
G54D128*
X0194566Y0230461D02*
D03*
G54D129*
X0049408Y0120530D02*
D03*
G54D130*
X0105773Y0182079D02*
D03*
G54D131*
X0102001Y0125500D02*
D03*
G54D132*
X0398740Y0217540D02*
D03*
Y0167540D02*
D03*
Y0122212D02*
D03*
Y0072212D02*
D03*
Y0194772D02*
D03*
Y0144772D02*
D03*
G54D133*
X0023229Y0215661D02*
D03*
Y0198339D02*
D03*
G54D134*
X0262123Y0074012D02*
D03*
X0254249D02*
D03*
X0246375D02*
D03*
X0238501D02*
D03*
G54D135*
X0199051Y0231291D02*
D03*
X0167949D02*
D03*
G54D136*
X0095001Y0152500D02*
D03*
Y0167500D02*
D03*
X0229501Y0065500D02*
D03*
X0201501Y0210000D02*
D03*
Y0202000D02*
D03*
X0286371Y0069370D02*
D03*
X0295501Y0069500D02*
D03*
X0278001D02*
D03*
X0115001Y0167500D02*
D03*
X0289001Y0140500D02*
D03*
X0230001Y0142000D02*
D03*
G54D137*
X0320770Y0067440D02*
D03*
X0319321Y0064531D02*
D03*
X0326200Y0064070D02*
D03*
X0346934Y0023000D02*
D03*
X0181418Y0081988D02*
D03*
X0384729Y0026500D02*
D03*
X0181418Y0078838D02*
D03*
X0354021Y0138931D02*
D03*
X0350821Y0033631D02*
D03*
X0203465Y0135531D02*
D03*
X0347221Y0140931D02*
D03*
X0346721Y0033731D02*
D03*
X0206614Y0135531D02*
D03*
X0348621Y0170331D02*
D03*
X0346434Y0030000D02*
D03*
X0206614Y0129232D02*
D03*
X0333621Y0118331D02*
D03*
X0328036Y0023000D02*
D03*
X0206614Y0107185D02*
D03*
X0339721Y0135631D02*
D03*
X0334335Y0023000D02*
D03*
X0212914Y0132382D02*
D03*
X0339300Y0043161D02*
D03*
X0341500Y0060680D02*
D03*
X0279550Y0148900D02*
D03*
X0275321Y0150031D02*
D03*
X0267521Y0149731D02*
D03*
X0279821Y0152831D02*
D03*
X0284121Y0152331D02*
D03*
X0283750Y0147140D02*
D03*
X0285821Y0145031D02*
D03*
X0292621Y0136131D02*
D03*
X0272321Y0149831D02*
D03*
X0264221Y0148931D02*
D03*
X0257721Y0149331D02*
D03*
X0281921Y0156031D02*
D03*
X0287921Y0151631D02*
D03*
X0086700Y0181500D02*
D03*
X0086900Y0185600D02*
D03*
X0087200Y0175100D02*
D03*
X0081738Y0159138D02*
D03*
X0030161Y0081831D02*
D03*
X0037721Y0058031D02*
D03*
X0162520Y0078838D02*
D03*
X0043721Y0058031D02*
D03*
X0037961Y0082031D02*
D03*
X0162520Y0075689D02*
D03*
X0159370Y0078838D02*
D03*
Y0075689D02*
D03*
Y0081988D02*
D03*
Y0085137D02*
D03*
X0018102Y0081312D02*
D03*
X0022421Y0082031D02*
D03*
X0014621Y0081831D02*
D03*
X0156221Y0081988D02*
D03*
X0014301Y0061900D02*
D03*
X0156221Y0085137D02*
D03*
X0021842Y0061941D02*
D03*
X0029900Y0062500D02*
D03*
X0037400Y0062400D02*
D03*
X0092221Y0056031D02*
D03*
X0130821Y0166731D02*
D03*
X0316368Y0050884D02*
D03*
X0326118Y0045328D02*
D03*
X0230721Y0211031D02*
D03*
X0222421Y0211000D02*
D03*
X0281538Y0207231D02*
D03*
X0253821Y0198431D02*
D03*
X0206721Y0139031D02*
D03*
X0076621Y0197931D02*
D03*
X0060121Y0217731D02*
D03*
X0079621Y0164131D02*
D03*
X0084583Y0173196D02*
D03*
X0085292Y0168090D02*
D03*
X0079536Y0229231D02*
D03*
X0086721Y0217231D02*
D03*
X0090321Y0212031D02*
D03*
X0091052Y0202500D02*
D03*
X0084821Y0192431D02*
D03*
X0088421Y0190231D02*
D03*
X0090121Y0143431D02*
D03*
X0055421Y0220831D02*
D03*
X0032021Y0176331D02*
D03*
X0278621Y0098631D02*
D03*
X0276499Y0094009D02*
D03*
X0272821Y0092731D02*
D03*
X0281221Y0111031D02*
D03*
X0281521Y0114031D02*
D03*
X0290521Y0119831D02*
D03*
X0279821Y0120731D02*
D03*
X0277921Y0091031D02*
D03*
X0282021Y0090831D02*
D03*
X0281421Y0086431D02*
D03*
X0274121Y0086731D02*
D03*
X0206821Y0180831D02*
D03*
X0162001Y0169700D02*
D03*
X0171801D02*
D03*
X0173421Y0174631D02*
D03*
X0175921Y0169731D02*
D03*
X0182401Y0155900D02*
D03*
X0179501Y0160000D02*
D03*
X0154701Y0167200D02*
D03*
X0181701Y0198400D02*
D03*
X0176221Y0196731D02*
D03*
X0161321Y0196231D02*
D03*
X0159901Y0190600D02*
D03*
X0174721Y0182131D02*
D03*
X0174521Y0185131D02*
D03*
X0174301Y0189600D02*
D03*
X0175321Y0192731D02*
D03*
X0178801Y0199800D02*
D03*
X0179021Y0172131D02*
D03*
X0176801Y0176100D02*
D03*
X0191001Y0179000D02*
D03*
X0196128Y0179081D02*
D03*
X0198621Y0180831D02*
D03*
X0201821Y0179531D02*
D03*
X0204863Y0175062D02*
D03*
X0174121Y0209531D02*
D03*
X0186101Y0215500D02*
D03*
X0176888Y0213587D02*
D03*
X0192221Y0211931D02*
D03*
X0161521Y0217831D02*
D03*
X0167021Y0217031D02*
D03*
X0173221Y0214831D02*
D03*
X0403721Y0022131D02*
D03*
X0250221Y0221331D02*
D03*
X0301821Y0165081D02*
D03*
X0277121Y0083231D02*
D03*
X0271921Y0078031D02*
D03*
X0268421Y0082431D02*
D03*
X0269721Y0086831D02*
D03*
X0300021Y0103031D02*
D03*
X0324021Y0034231D02*
D03*
X0316921Y0062231D02*
D03*
X0314121Y0058131D02*
D03*
X0300151Y0055350D02*
D03*
X0301721Y0060531D02*
D03*
X0329121Y0069031D02*
D03*
X0264421Y0133231D02*
D03*
X0250921Y0126731D02*
D03*
X0220421Y0094631D02*
D03*
X0213595Y0026500D02*
D03*
X0241321Y0086031D02*
D03*
X0220134Y0100118D02*
D03*
X0224121Y0088431D02*
D03*
X0232721Y0097731D02*
D03*
X0238421Y0096931D02*
D03*
X0239363Y0104400D02*
D03*
X0239921Y0109931D02*
D03*
X0242801Y0112500D02*
D03*
X0243101Y0116500D02*
D03*
X0243001Y0108500D02*
D03*
X0254021Y0098531D02*
D03*
X0255421Y0194731D02*
D03*
X0253921Y0206431D02*
D03*
X0353301Y0142700D02*
D03*
X0360221Y0134531D02*
D03*
X0365701Y0142800D02*
D03*
X0344521Y0152831D02*
D03*
X0344421Y0149431D02*
D03*
X0351855Y0225265D02*
D03*
X0343587Y0225465D02*
D03*
X0331355Y0225565D02*
D03*
X0326821Y0223031D02*
D03*
X0168997Y0222500D02*
D03*
X0198721Y0157031D02*
D03*
X0191721Y0153031D02*
D03*
X0175156Y0150731D02*
D03*
X0169721Y0152031D02*
D03*
X0203001Y0160500D02*
D03*
X0209721Y0152531D02*
D03*
X0210739Y0162312D02*
D03*
X0204721Y0152531D02*
D03*
X0333621Y0178131D02*
D03*
X0336821Y0182131D02*
D03*
X0282021Y0065631D02*
D03*
X0272121Y0065831D02*
D03*
X0165121Y0204331D02*
D03*
X0215501Y0211900D02*
D03*
X0253721Y0203031D02*
D03*
X0257321Y0213231D02*
D03*
X0259521Y0210331D02*
D03*
X0283601Y0194200D02*
D03*
X0276521Y0186231D02*
D03*
X0278386Y0183854D02*
D03*
X0273221Y0184831D02*
D03*
X0272221Y0180331D02*
D03*
X0276721Y0180031D02*
D03*
X0279521Y0173731D02*
D03*
X0359221Y0175231D02*
D03*
X0250021Y0155531D02*
D03*
X0256421Y0163931D02*
D03*
X0196921Y0197331D02*
D03*
X0191921Y0199031D02*
D03*
X0372921Y0061731D02*
D03*
X0274821Y0176231D02*
D03*
X0257221Y0118931D02*
D03*
X0251621Y0111531D02*
D03*
X0254221Y0105131D02*
D03*
X0250421Y0092231D02*
D03*
X0250401Y0089000D02*
D03*
X0255121Y0087599D02*
D03*
X0271821Y0121331D02*
D03*
X0251921Y0101731D02*
D03*
X0265578Y0180931D02*
D03*
X0266021Y0225631D02*
D03*
X0269021Y0225431D02*
D03*
X0271921Y0213131D02*
D03*
X0284101Y0211500D02*
D03*
X0286639Y0218862D02*
D03*
X0277021Y0213131D02*
D03*
X0280621Y0211431D02*
D03*
X0281548Y0203453D02*
D03*
X0265821Y0213431D02*
D03*
X0253721Y0209531D02*
D03*
X0253621Y0189831D02*
D03*
X0256221Y0178331D02*
D03*
X0261621Y0178731D02*
D03*
X0263721Y0183331D02*
D03*
X0284301Y0197100D02*
D03*
X0162401Y0221500D02*
D03*
X0264293Y0187970D02*
D03*
X0237821Y0155631D02*
D03*
X0240021Y0197431D02*
D03*
X0210421Y0186431D02*
D03*
X0213221Y0164131D02*
D03*
X0209921Y0166131D02*
D03*
X0205088Y0183313D02*
D03*
X0167521Y0187131D02*
D03*
X0215196Y0198919D02*
D03*
X0226245D02*
D03*
X0218976Y0198114D02*
D03*
X0147001Y0196200D02*
D03*
X0151421Y0137731D02*
D03*
X0141621Y0127131D02*
D03*
X0138421Y0122931D02*
D03*
X0142321D02*
D03*
X0190620Y0172943D02*
D03*
X0245201Y0205600D02*
D03*
X0300501Y0181400D02*
D03*
X0266621Y0177931D02*
D03*
X0267221Y0183531D02*
D03*
X0269421Y0187031D02*
D03*
X0258921Y0187131D02*
D03*
X0142421Y0217231D02*
D03*
X0144021Y0212031D02*
D03*
X0139321Y0216231D02*
D03*
X0368131Y0032000D02*
D03*
X0374021Y0034231D02*
D03*
X0377930Y0030000D02*
D03*
X0365832Y0026500D02*
D03*
X0378430D02*
D03*
X0380729Y0032000D02*
D03*
X0351821Y0128331D02*
D03*
X0345521Y0132331D02*
D03*
X0354121Y0133431D02*
D03*
X0311521Y0129331D02*
D03*
X0306121Y0102631D02*
D03*
X0297021Y0102131D02*
D03*
X0259515Y0152663D02*
D03*
X0253421Y0160031D02*
D03*
X0252921Y0171131D02*
D03*
X0255721Y0174631D02*
D03*
X0270621Y0095131D02*
D03*
X0284021Y0124531D02*
D03*
X0340821Y0120131D02*
D03*
X0350001Y0092500D02*
D03*
X0341721Y0031631D02*
D03*
X0357001Y0111000D02*
D03*
X0354921Y0151731D02*
D03*
X0344921Y0137531D02*
D03*
X0331367Y0141500D02*
D03*
X0328421Y0150031D02*
D03*
X0251821Y0180531D02*
D03*
X0269121Y0175831D02*
D03*
X0251621Y0108531D02*
D03*
X0233521Y0084731D02*
D03*
X0258421Y0097731D02*
D03*
X0281921Y0095831D02*
D03*
X0297221Y0136131D02*
D03*
X0353021Y0173131D02*
D03*
X0329111Y0173590D02*
D03*
X0329401Y0168500D02*
D03*
Y0164400D02*
D03*
X0347321Y0176531D02*
D03*
X0306421Y0140331D02*
D03*
X0329621Y0155931D02*
D03*
X0366501Y0100500D02*
D03*
X0377021Y0179531D02*
D03*
X0352501Y0088000D02*
D03*
X0384229Y0030000D02*
D03*
X0378430Y0023000D02*
D03*
X0371631Y0030000D02*
D03*
X0370292Y0090200D02*
D03*
X0366501Y0087000D02*
D03*
X0382221Y0062031D02*
D03*
X0359221Y0168231D02*
D03*
X0361321Y0171431D02*
D03*
X0364421Y0174431D02*
D03*
X0365901Y0150200D02*
D03*
X0361221Y0163831D02*
D03*
Y0158131D02*
D03*
X0359021Y0154031D02*
D03*
X0357421Y0158494D02*
D03*
X0145839Y0122864D02*
D03*
X0245101Y0214900D02*
D03*
X0207296Y0026500D02*
D03*
X0206796Y0030000D02*
D03*
X0131721Y0037631D02*
D03*
X0137505Y0030000D02*
D03*
X0138005Y0026500D02*
D03*
X0119521Y0040231D02*
D03*
X0123001Y0036000D02*
D03*
X0127501Y0043500D02*
D03*
X0113421Y0036431D02*
D03*
X0116921Y0037331D02*
D03*
X0112501Y0043000D02*
D03*
X0109001Y0045000D02*
D03*
X0196997Y0034200D02*
D03*
X0192421Y0029031D02*
D03*
X0188399Y0026500D02*
D03*
X0182099D02*
D03*
X0188421Y0032031D02*
D03*
X0188921Y0036931D02*
D03*
X0194698Y0023000D02*
D03*
X0177221Y0037531D02*
D03*
X0183521Y0033131D02*
D03*
X0230921Y0038631D02*
D03*
X0235621Y0037131D02*
D03*
X0220721Y0039131D02*
D03*
X0232421Y0033931D02*
D03*
X0294521Y0087431D02*
D03*
X0216221Y0062131D02*
D03*
X0122001Y0062500D02*
D03*
X0291021Y0059331D02*
D03*
X0273721Y0055231D02*
D03*
X0217521Y0030431D02*
D03*
X0218121Y0034831D02*
D03*
X0223121Y0032731D02*
D03*
X0216821Y0039131D02*
D03*
X0141621Y0076131D02*
D03*
X0140304Y0032000D02*
D03*
X0175099Y0032200D02*
D03*
X0110013Y0038712D02*
D03*
X0314651Y0065150D02*
D03*
X0362321Y0185231D02*
D03*
X0239801Y0183500D02*
D03*
X0225801Y0178900D02*
D03*
X0229201Y0183400D02*
D03*
X0362421Y0179731D02*
D03*
X0294021Y0165631D02*
D03*
X0296321Y0167531D02*
D03*
X0292021Y0167431D02*
D03*
X0299421Y0151831D02*
D03*
X0379721Y0121631D02*
D03*
X0328401Y0184400D02*
D03*
X0209901Y0194300D02*
D03*
X0211301Y0190600D02*
D03*
X0190339Y0139638D02*
D03*
X0235801Y0190500D02*
D03*
X0235901Y0194300D02*
D03*
X0297401Y0180900D02*
D03*
X0328161Y0026625D02*
D03*
X0327536Y0030000D02*
D03*
X0321737Y0026500D02*
D03*
Y0023000D02*
D03*
X0317721Y0034231D02*
D03*
X0321362Y0030125D02*
D03*
X0332121Y0026531D02*
D03*
X0340635Y0026500D02*
D03*
X0359321Y0055531D02*
D03*
X0357121Y0033631D02*
D03*
X0352733Y0030000D02*
D03*
X0342221Y0085531D02*
D03*
Y0090031D02*
D03*
X0333721Y0085531D02*
D03*
Y0089531D02*
D03*
X0329721Y0091031D02*
D03*
X0335721Y0098531D02*
D03*
X0334721Y0102531D02*
D03*
Y0106531D02*
D03*
X0330221Y0102531D02*
D03*
Y0106531D02*
D03*
X0336321Y0121831D02*
D03*
X0342421Y0123931D02*
D03*
X0383721Y0127931D02*
D03*
X0367321Y0132731D02*
D03*
X0332921Y0132031D02*
D03*
X0234721Y0161731D02*
D03*
X0221621Y0062631D02*
D03*
X0336821Y0130631D02*
D03*
X0189121Y0048731D02*
D03*
X0391028Y0023000D02*
D03*
Y0026500D02*
D03*
X0387028Y0032000D02*
D03*
X0384729Y0023000D02*
D03*
X0372131D02*
D03*
X0365332Y0030000D02*
D03*
X0365832Y0023000D02*
D03*
X0361832Y0032000D02*
D03*
X0359032Y0030000D02*
D03*
X0359532Y0023000D02*
D03*
Y0026500D02*
D03*
X0353233Y0023000D02*
D03*
Y0026500D02*
D03*
X0346934D02*
D03*
X0340635Y0023000D02*
D03*
X0330335Y0032000D02*
D03*
X0314938Y0030000D02*
D03*
X0315438Y0026500D02*
D03*
X0290721Y0087531D02*
D03*
X0294321Y0120131D02*
D03*
X0292121Y0105231D02*
D03*
X0296621Y0105331D02*
D03*
X0298021Y0119831D02*
D03*
X0302021Y0120331D02*
D03*
X0294321Y0127331D02*
D03*
X0247621Y0124831D02*
D03*
X0267721Y0120731D02*
D03*
X0229121Y0089531D02*
D03*
X0225321Y0110331D02*
D03*
X0218621Y0050631D02*
D03*
X0200921Y0058431D02*
D03*
X0199221Y0053831D02*
D03*
X0352521Y0061231D02*
D03*
X0382121Y0046831D02*
D03*
X0318821Y0056731D02*
D03*
X0310321Y0140231D02*
D03*
X0318221Y0136631D02*
D03*
X0298421Y0145231D02*
D03*
X0232621Y0158331D02*
D03*
X0231621Y0164831D02*
D03*
X0237121Y0167531D02*
D03*
X0302821Y0212831D02*
D03*
X0165670Y0094586D02*
D03*
X0159370D02*
D03*
X0162520D02*
D03*
X0159370Y0097736D02*
D03*
Y0100885D02*
D03*
X0162520Y0097736D02*
D03*
X0156221Y0100885D02*
D03*
X0162520D02*
D03*
X0156221Y0107185D02*
D03*
X0159370D02*
D03*
X0156221Y0110334D02*
D03*
X0149501Y0107000D02*
D03*
X0171969Y0097736D02*
D03*
X0168819D02*
D03*
X0156221D02*
D03*
Y0088287D02*
D03*
Y0113484D02*
D03*
Y0119783D02*
D03*
Y0116634D02*
D03*
X0222001Y0026000D02*
D03*
X0213595Y0023000D02*
D03*
X0213095Y0030000D02*
D03*
X0207296Y0023000D02*
D03*
X0200997Y0026500D02*
D03*
X0194698D02*
D03*
X0188399Y0023000D02*
D03*
X0178099Y0032000D02*
D03*
X0138005Y0023000D02*
D03*
X0144304Y0026500D02*
D03*
Y0023000D02*
D03*
X0150603Y0026500D02*
D03*
Y0023000D02*
D03*
X0156903Y0026500D02*
D03*
X0236001Y0030000D02*
D03*
X0131001Y0030500D02*
D03*
X0104501Y0045500D02*
D03*
X0123001Y0144000D02*
D03*
X0125501Y0141000D02*
D03*
X0107501Y0027000D02*
D03*
X0106501Y0041000D02*
D03*
X0186001Y0051500D02*
D03*
X0026001Y0033500D02*
D03*
X0029501Y0035000D02*
D03*
X0032501D02*
D03*
X0038001Y0027000D02*
D03*
X0040001Y0024500D02*
D03*
X0111001Y0055000D02*
D03*
X0168819Y0075689D02*
D03*
Y0078838D02*
D03*
X0181418Y0075689D02*
D03*
X0156221Y0078838D02*
D03*
X0200315Y0104000D02*
D03*
X0175118Y0132382D02*
D03*
Y0135531D02*
D03*
X0178268D02*
D03*
Y0132382D02*
D03*
X0187717Y0081988D02*
D03*
X0380301Y0133800D02*
D03*
X0383601Y0136300D02*
D03*
X0384265Y0158236D02*
D03*
X0348501Y0208600D02*
D03*
X0343201D02*
D03*
X0337501Y0208500D02*
D03*
X0332001Y0208600D02*
D03*
X0375101Y0206000D02*
D03*
X0290901Y0180900D02*
D03*
X0294301Y0180800D02*
D03*
X0304801D02*
D03*
X0328901Y0178200D02*
D03*
X0328401Y0189100D02*
D03*
X0303801Y0197300D02*
D03*
X0298501Y0194600D02*
D03*
X0294501Y0197700D02*
D03*
X0298401Y0197600D02*
D03*
X0294901Y0211800D02*
D03*
X0298201Y0211400D02*
D03*
X0382301Y0226500D02*
D03*
X0322501Y0222400D02*
D03*
X0298139Y0219162D02*
D03*
X0296351Y0227050D02*
D03*
X0272701Y0225900D02*
D03*
X0245101Y0201300D02*
D03*
X0228201Y0205600D02*
D03*
X0241501Y0204700D02*
D03*
X0241626Y0223475D02*
D03*
X0236001Y0223600D02*
D03*
X0224201Y0221900D02*
D03*
X0230601Y0223800D02*
D03*
X0211201Y0211300D02*
D03*
X0215914Y0183613D02*
D03*
X0145321Y0201279D02*
D03*
X0142644Y0208957D02*
D03*
X0145099Y0206398D02*
D03*
X0136701Y0191000D02*
D03*
X0124401Y0190700D02*
D03*
X0132363Y0170262D02*
D03*
X0132001Y0221500D02*
D03*
X0151701D02*
D03*
X0156001Y0230100D02*
D03*
X0216063Y0116634D02*
D03*
X0212914D02*
D03*
X0203465D02*
D03*
X0200315D02*
D03*
X0216063Y0107185D02*
D03*
X0212914D02*
D03*
X0209764Y0113484D02*
D03*
Y0110334D02*
D03*
Y0107185D02*
D03*
X0206614Y0113484D02*
D03*
Y0110334D02*
D03*
X0203465D02*
D03*
X0200315D02*
D03*
X0212914Y0094586D02*
D03*
X0216063Y0097736D02*
D03*
X0206614Y0094586D02*
D03*
Y0097736D02*
D03*
X0209764D02*
D03*
Y0094586D02*
D03*
X0203465D02*
D03*
X0216063Y0091437D02*
D03*
Y0088287D02*
D03*
Y0085137D02*
D03*
Y0081988D02*
D03*
Y0078838D02*
D03*
X0212914Y0091437D02*
D03*
Y0088287D02*
D03*
Y0085137D02*
D03*
Y0081988D02*
D03*
Y0078838D02*
D03*
Y0075689D02*
D03*
X0209764Y0091437D02*
D03*
Y0088287D02*
D03*
Y0085137D02*
D03*
Y0081988D02*
D03*
Y0078838D02*
D03*
Y0075689D02*
D03*
X0206614Y0091437D02*
D03*
Y0088287D02*
D03*
Y0085137D02*
D03*
Y0081988D02*
D03*
Y0078838D02*
D03*
Y0075689D02*
D03*
X0203465Y0085137D02*
D03*
Y0081988D02*
D03*
Y0078838D02*
D03*
Y0075689D02*
D03*
X0200315Y0085137D02*
D03*
Y0081988D02*
D03*
Y0078838D02*
D03*
Y0075689D02*
D03*
X0197166Y0091437D02*
D03*
Y0088287D02*
D03*
Y0085137D02*
D03*
Y0081988D02*
D03*
Y0075689D02*
D03*
X0194016Y0088287D02*
D03*
Y0085137D02*
D03*
Y0081988D02*
D03*
Y0078838D02*
D03*
X0190866D02*
D03*
Y0081988D02*
D03*
Y0085137D02*
D03*
X0216063Y0129232D02*
D03*
Y0126082D02*
D03*
Y0122933D02*
D03*
Y0119783D02*
D03*
X0212914Y0129232D02*
D03*
Y0126082D02*
D03*
Y0122933D02*
D03*
Y0119783D02*
D03*
X0209764Y0132382D02*
D03*
Y0129232D02*
D03*
Y0126082D02*
D03*
Y0122933D02*
D03*
Y0119783D02*
D03*
X0206614Y0126082D02*
D03*
Y0122933D02*
D03*
Y0119783D02*
D03*
X0200315Y0129232D02*
D03*
Y0126082D02*
D03*
X0197166Y0129232D02*
D03*
Y0126082D02*
D03*
Y0122933D02*
D03*
Y0119783D02*
D03*
X0194016Y0129232D02*
D03*
Y0126082D02*
D03*
X0190866Y0119783D02*
D03*
Y0122933D02*
D03*
Y0126082D02*
D03*
Y0129232D02*
D03*
Y0132382D02*
D03*
X0184567Y0088287D02*
D03*
Y0085137D02*
D03*
X0181418Y0088287D02*
D03*
Y0085137D02*
D03*
X0178268D02*
D03*
Y0081988D02*
D03*
X0171969Y0091437D02*
D03*
Y0088287D02*
D03*
X0165670Y0100885D02*
D03*
Y0097736D02*
D03*
X0184567Y0119783D02*
D03*
Y0132382D02*
D03*
Y0129232D02*
D03*
Y0126082D02*
D03*
Y0122933D02*
D03*
X0181418Y0119783D02*
D03*
Y0135531D02*
D03*
Y0132382D02*
D03*
Y0129232D02*
D03*
Y0126082D02*
D03*
Y0122933D02*
D03*
X0178268Y0129232D02*
D03*
Y0126082D02*
D03*
X0175118Y0122933D02*
D03*
Y0126082D02*
D03*
Y0119783D02*
D03*
X0171969Y0126082D02*
D03*
Y0116634D02*
D03*
Y0113484D02*
D03*
Y0107185D02*
D03*
X0168819Y0126082D02*
D03*
Y0129232D02*
D03*
Y0132382D02*
D03*
Y0116634D02*
D03*
Y0113484D02*
D03*
Y0107185D02*
D03*
X0165670Y0122933D02*
D03*
Y0126082D02*
D03*
Y0129232D02*
D03*
Y0132382D02*
D03*
Y0119783D02*
D03*
Y0116634D02*
D03*
Y0110334D02*
D03*
Y0107185D02*
D03*
X0162520Y0122933D02*
D03*
Y0126082D02*
D03*
Y0129232D02*
D03*
Y0132382D02*
D03*
Y0119783D02*
D03*
Y0116634D02*
D03*
Y0113484D02*
D03*
Y0110334D02*
D03*
X0159370Y0122933D02*
D03*
Y0126082D02*
D03*
Y0129232D02*
D03*
Y0132382D02*
D03*
Y0119783D02*
D03*
Y0116634D02*
D03*
Y0113484D02*
D03*
Y0110334D02*
D03*
X0156221Y0132382D02*
D03*
Y0129232D02*
D03*
Y0126082D02*
D03*
X0087096Y0228677D02*
D03*
X0023696Y0164177D02*
D03*
X0072697Y0175007D02*
D03*
X0041868Y0210413D02*
D03*
X0067818Y0166121D02*
D03*
X0046795Y0156641D02*
D03*
X0057195Y0166541D02*
D03*
X0057395Y0156740D02*
D03*
X0023595Y0205540D02*
D03*
X0012597Y0201174D02*
D03*
X0069668Y0220572D02*
D03*
X0065995Y0217841D02*
D03*
X0062540Y0199249D02*
D03*
X0008814Y0179955D02*
D03*
X0059303Y0198580D02*
D03*
X0022695Y0149741D02*
D03*
X0046927Y0142022D02*
D03*
X0023695Y0156841D02*
D03*
X0047562Y0214335D02*
D03*
X0076247Y0177953D02*
D03*
X0007696Y0154177D02*
D03*
X0070196Y0190177D02*
D03*
Y0194677D02*
D03*
X0060696Y0225177D02*
D03*
X0086196Y0146677D02*
D03*
X0070196Y0139177D02*
D03*
X0056196Y0145177D02*
D03*
X0056396Y0141277D02*
D03*
X0059696Y0129177D02*
D03*
X0023823Y0144534D02*
D03*
X0015196Y0133677D02*
D03*
X0006196D02*
D03*
X0012196Y0162677D02*
D03*
X0044196Y0172177D02*
D03*
X0053896Y0166477D02*
D03*
X0037196Y0142477D02*
D03*
X0123179Y0202913D02*
D03*
X0122696Y0225677D02*
D03*
X0221001Y0157000D02*
D03*
X0231101Y0170000D02*
D03*
X0159601Y0182700D02*
D03*
X0159370Y0135531D02*
D03*
X0162520D02*
D03*
X0165670D02*
D03*
X0168819D02*
D03*
X0175118Y0129232D02*
D03*
X0171969Y0135531D02*
D03*
Y0132382D02*
D03*
Y0129232D02*
D03*
X0190866Y0135531D02*
D03*
X0194016Y0132382D02*
D03*
X0176301Y0102900D02*
D03*
X0184567Y0091437D02*
D03*
X0181418D02*
D03*
X0162520Y0107185D02*
D03*
X0190866Y0088287D02*
D03*
X0178268Y0075689D02*
D03*
X0184567Y0081988D02*
D03*
X0200315Y0094586D02*
D03*
Y0100885D02*
D03*
X0206614D02*
D03*
X0203465D02*
D03*
X0216063Y0094586D02*
D03*
X0209764Y0100885D02*
D03*
X0212914Y0097736D02*
D03*
X0216063Y0100885D02*
D03*
X0216063Y0132382D02*
D03*
X0212914Y0135531D02*
D03*
X0209764D02*
D03*
X0194016D02*
D03*
X0206614Y0132382D02*
D03*
X0200315Y0135531D02*
D03*
X0197166D02*
D03*
X0197166Y0132382D02*
D03*
X0203465Y0129232D02*
D03*
Y0132382D02*
D03*
X0200315D02*
D03*
X0203465Y0126082D02*
D03*
X0221101Y0110400D02*
D03*
X0221575Y0124574D02*
D03*
X0348001Y0070500D02*
D03*
Y0115500D02*
D03*
X0400501Y0111000D02*
D03*
X0406501Y0087000D02*
D03*
X0353501Y0080000D02*
D03*
X0383501Y0067000D02*
D03*
X0302501Y0078000D02*
D03*
X0155501Y0157500D02*
D03*
X0190866Y0075689D02*
D03*
X0184567Y0078838D02*
D03*
Y0075689D02*
D03*
X0178268Y0078838D02*
D03*
X0121601Y0180800D02*
D03*
X0125801Y0183900D02*
D03*
X0132401Y0181800D02*
D03*
X0153001Y0115000D02*
D03*
X0157012Y0051600D02*
D03*
X0170901Y0058500D02*
D03*
X0145621Y0107231D02*
D03*
X0156221Y0122933D02*
D03*
X0140541Y0090071D02*
D03*
X0182099Y0023000D02*
D03*
X0173521Y0029031D02*
D03*
X0145501Y0040000D02*
D03*
X0154721Y0139131D02*
D03*
X0118501Y0059500D02*
D03*
X0117421Y0108831D02*
D03*
Y0114131D02*
D03*
X0149001Y0123000D02*
D03*
X0112621Y0112731D02*
D03*
X0135221Y0125731D02*
D03*
X0134021Y0120731D02*
D03*
X0081221Y0034531D02*
D03*
X0075221D02*
D03*
X0025721Y0048531D02*
D03*
X0120001Y0076500D02*
D03*
X0082721Y0056031D02*
D03*
X0083800Y0062500D02*
D03*
X0171969Y0081988D02*
D03*
X0076721Y0056031D02*
D03*
X0076300Y0062500D02*
D03*
X0171969Y0085137D02*
D03*
X0086221Y0056031D02*
D03*
X0175118Y0085137D02*
D03*
X0084461Y0082031D02*
D03*
X0175118Y0081988D02*
D03*
X0162520Y0088287D02*
D03*
Y0091437D02*
D03*
X0068961Y0082031D02*
D03*
X0162520Y0085137D02*
D03*
Y0081988D02*
D03*
X0045719Y0062400D02*
D03*
X0165670Y0088287D02*
D03*
X0091900Y0062500D02*
D03*
X0165670Y0091437D02*
D03*
X0099400Y0062500D02*
D03*
X0104721Y0067531D02*
D03*
X0168819Y0085137D02*
D03*
X0099961Y0082031D02*
D03*
X0110721Y0067531D02*
D03*
X0168819Y0081988D02*
D03*
X0165670Y0085137D02*
D03*
Y0081988D02*
D03*
Y0075689D02*
D03*
X0068400Y0062400D02*
D03*
X0165670Y0078838D02*
D03*
X0160921Y0142631D02*
D03*
X0158421Y0144631D02*
D03*
X0127221Y0115431D02*
D03*
X0136421Y0117531D02*
D03*
X0127621Y0107131D02*
D03*
X0145821Y0102631D02*
D03*
X0141046Y0102568D02*
D03*
X0238501Y0121100D02*
D03*
X0249121Y0146131D02*
D03*
X0271021Y0058931D02*
D03*
X0243101Y0133500D02*
D03*
X0244821Y0141331D02*
D03*
X0155821Y0148031D02*
D03*
X0149447Y0135463D02*
D03*
X0146121Y0137431D02*
D03*
X0137521Y0132531D02*
D03*
X0131121Y0151031D02*
D03*
X0127421Y0150331D02*
D03*
X0126821Y0145931D02*
D03*
X0130421Y0157631D02*
D03*
X0132621Y0144831D02*
D03*
X0135921Y0163031D02*
D03*
X0232421Y0110031D02*
D03*
X0235521Y0106531D02*
D03*
X0137621Y0155431D02*
D03*
X0165901Y0220300D02*
D03*
X0149221Y0218831D02*
D03*
X0200497Y0030000D02*
D03*
X0149701Y0189700D02*
D03*
X0277421Y0225631D02*
D03*
X0033642Y0081110D02*
D03*
X0092161Y0081831D02*
D03*
X0095642Y0081352D02*
D03*
X0076661Y0081831D02*
D03*
X0080121Y0081131D02*
D03*
X0061161Y0081831D02*
D03*
X0064642Y0081310D02*
D03*
X0053219Y0062400D02*
D03*
X0060800Y0062500D02*
D03*
X0053461Y0082031D02*
D03*
X0045661Y0081831D02*
D03*
X0049121Y0081131D02*
D03*
X0057221Y0172988D02*
D03*
X0046621Y0161531D02*
D03*
X0046021Y0168231D02*
D03*
X0023017Y0172027D02*
D03*
X0050421Y0198331D02*
D03*
X0271821Y0134731D02*
D03*
X0272821Y0137131D02*
D03*
X0269221Y0137231D02*
D03*
X0263821D02*
D03*
X0255621Y0130031D02*
D03*
X0256221Y0122131D02*
D03*
X0329121Y0194731D02*
D03*
X0251721Y0115831D02*
D03*
X0196321Y0183231D02*
D03*
X0165501Y0032000D02*
D03*
X0156403Y0030000D02*
D03*
X0150103D02*
D03*
X0152902Y0032000D02*
D03*
X0169501Y0026500D02*
D03*
X0156903Y0023000D02*
D03*
X0175800D02*
D03*
X0169501D02*
D03*
X0163202D02*
D03*
X0161221Y0025331D02*
D03*
X0161121Y0028531D02*
D03*
X0159221Y0031831D02*
D03*
X0158221Y0036731D02*
D03*
X0154931Y0038700D02*
D03*
X0218001Y0104070D02*
D03*
X0183701Y0212500D02*
D03*
X0180401D02*
D03*
M02*
