G04*
G04 #@! TF.GenerationSoftware,Altium Limited,Altium Designer,18.1.9 (240)*
G04*
G04 Layer_Physical_Order=8*
G04 Layer_Color=16711680*
%FSAX44Y44*%
%MOMM*%
G71*
G01*
G75*
%ADD15C,0.2032*%
%ADD24C,0.2540*%
%ADD25R,0.9500X1.0000*%
%ADD38C,1.0000*%
G04:AMPARAMS|DCode=41|XSize=0.6mm|YSize=1mm|CornerRadius=0.051mm|HoleSize=0mm|Usage=FLASHONLY|Rotation=180.000|XOffset=0mm|YOffset=0mm|HoleType=Round|Shape=RoundedRectangle|*
%AMROUNDEDRECTD41*
21,1,0.6000,0.8980,0,0,180.0*
21,1,0.4980,1.0000,0,0,180.0*
1,1,0.1020,-0.2490,0.4490*
1,1,0.1020,0.2490,0.4490*
1,1,0.1020,0.2490,-0.4490*
1,1,0.1020,-0.2490,-0.4490*
%
%ADD41ROUNDEDRECTD41*%
%ADD43R,1.6002X1.2700*%
%ADD44R,0.6000X0.8000*%
%ADD45R,0.8000X0.6000*%
%ADD46R,1.0000X0.9500*%
%ADD48R,1.2700X1.6002*%
%ADD52R,0.5500X2.8000*%
%ADD77C,0.9000*%
%ADD78C,1.3900*%
G04:AMPARAMS|DCode=79|XSize=1.39mm|YSize=1.39mm|CornerRadius=0.0487mm|HoleSize=0mm|Usage=FLASHONLY|Rotation=270.000|XOffset=0mm|YOffset=0mm|HoleType=Round|Shape=RoundedRectangle|*
%AMROUNDEDRECTD79*
21,1,1.3900,1.2927,0,0,270.0*
21,1,1.2927,1.3900,0,0,270.0*
1,1,0.0973,-0.6464,-0.6464*
1,1,0.0973,-0.6464,0.6464*
1,1,0.0973,0.6464,0.6464*
1,1,0.0973,0.6464,-0.6464*
%
%ADD79ROUNDEDRECTD79*%
%ADD80C,0.1524*%
%ADD81C,0.3810*%
%ADD82C,0.3048*%
%ADD83C,0.1270*%
%ADD84C,1.2700*%
%ADD85C,0.5588*%
%ADD86O,0.3000X1.8000*%
%ADD87O,1.8000X0.3000*%
G04:AMPARAMS|DCode=88|XSize=0.3mm|YSize=0.67mm|CornerRadius=0.0495mm|HoleSize=0mm|Usage=FLASHONLY|Rotation=90.000|XOffset=0mm|YOffset=0mm|HoleType=Round|Shape=RoundedRectangle|*
%AMROUNDEDRECTD88*
21,1,0.3000,0.5710,0,0,90.0*
21,1,0.2010,0.6700,0,0,90.0*
1,1,0.0990,0.2855,0.1005*
1,1,0.0990,0.2855,-0.1005*
1,1,0.0990,-0.2855,-0.1005*
1,1,0.0990,-0.2855,0.1005*
%
%ADD88ROUNDEDRECTD88*%
%ADD89R,1.8500X4.3600*%
%ADD90R,1.2500X1.6000*%
G54D15*
X00322326Y00186814D02*
Y00171579D01*
X00329944D01*
X00332483Y00174118D01*
Y00176657D01*
X00329944Y00179196D01*
X00322326D01*
X00329944D01*
X00332483Y00181735D01*
Y00184275D01*
X00329944Y00186814D01*
X00322326D01*
X00340100Y00171579D02*
X00345179D01*
X00347718Y00174118D01*
Y00179196D01*
X00345179Y00181735D01*
X00340100D01*
X00337561Y00179196D01*
Y00174118D01*
X00340100Y00171579D01*
X00355335Y00184275D02*
Y00181735D01*
X00352796D01*
X00357874D01*
X00355335D01*
Y00174118D01*
X00357874Y00171579D01*
X00368031Y00184275D02*
Y00181735D01*
X00365492D01*
X00370570D01*
X00368031D01*
Y00174118D01*
X00370570Y00171579D01*
X00380727D02*
X00385806D01*
X00388345Y00174118D01*
Y00179196D01*
X00385806Y00181735D01*
X00380727D01*
X00378188Y00179196D01*
Y00174118D01*
X00380727Y00171579D01*
X00393423D02*
Y00181735D01*
X00395962D01*
X00398501Y00179196D01*
Y00171579D01*
Y00179196D01*
X00401040Y00181735D01*
X00403580Y00179196D01*
Y00171579D01*
X00423893Y00186814D02*
Y00171579D01*
X00434050D01*
X00441667Y00181735D02*
X00446746D01*
X00449285Y00179196D01*
Y00171579D01*
X00441667D01*
X00439128Y00174118D01*
X00441667Y00176657D01*
X00449285D01*
X00454363Y00181735D02*
Y00174118D01*
X00456903Y00171579D01*
X00464520D01*
Y00169039D01*
X00461981Y00166500D01*
X00459442D01*
X00464520Y00171579D02*
Y00181735D01*
X00477216Y00171579D02*
X00472137D01*
X00469598Y00174118D01*
Y00179196D01*
X00472137Y00181735D01*
X00477216D01*
X00479755Y00179196D01*
Y00176657D01*
X00469598D01*
X00484833Y00181735D02*
Y00171579D01*
Y00176657D01*
X00487373Y00179196D01*
X00489912Y00181735D01*
X00492451D01*
X01441196Y00223097D02*
Y00238332D01*
X01451353Y00223097D01*
Y00238332D01*
X01458970Y00223097D02*
X01464049D01*
X01466588Y00225636D01*
Y00230714D01*
X01464049Y00233253D01*
X01458970D01*
X01456431Y00230714D01*
Y00225636D01*
X01458970Y00223097D01*
X01474205Y00235793D02*
Y00233253D01*
X01471666D01*
X01476745D01*
X01474205D01*
Y00225636D01*
X01476745Y00223097D01*
X01499597Y00238332D02*
X01504675D01*
X01502136D01*
Y00223097D01*
X01499597D01*
X01504675D01*
X01512293D02*
Y00233253D01*
X01519910D01*
X01522450Y00230714D01*
Y00223097D01*
X01542763Y00238332D02*
Y00228175D01*
X01547841Y00223097D01*
X01552920Y00228175D01*
Y00238332D01*
X01565616Y00223097D02*
X01560537D01*
X01557998Y00225636D01*
Y00230714D01*
X01560537Y00233253D01*
X01565616D01*
X01568155Y00230714D01*
Y00228175D01*
X01557998D01*
X01573233Y00233253D02*
Y00223097D01*
Y00228175D01*
X01575773Y00230714D01*
X01578312Y00233253D01*
X01580851D01*
X01588468Y00223097D02*
X01596086D01*
X01598625Y00225636D01*
X01596086Y00228175D01*
X01591008D01*
X01588468Y00230714D01*
X01591008Y00233253D01*
X01598625D01*
X01603703Y00223097D02*
X01608782D01*
X01606243D01*
Y00233253D01*
X01603703D01*
X01618938Y00223097D02*
X01624017D01*
X01626556Y00225636D01*
Y00230714D01*
X01624017Y00233253D01*
X01618938D01*
X01616399Y00230714D01*
Y00225636D01*
X01618938Y00223097D01*
X01631634D02*
Y00233253D01*
X01639252D01*
X01641791Y00230714D01*
Y00223097D01*
X01657026Y00235793D02*
X01654487Y00238332D01*
X01649409D01*
X01646870Y00235793D01*
Y00225636D01*
X01649409Y00223097D01*
X01654487D01*
X01657026Y00225636D01*
X01664644Y00223097D02*
X01669722D01*
X01672261Y00225636D01*
Y00230714D01*
X01669722Y00233253D01*
X01664644D01*
X01662104Y00230714D01*
Y00225636D01*
X01664644Y00223097D01*
X01677340D02*
Y00233253D01*
X01684957D01*
X01687496Y00230714D01*
Y00223097D01*
X01695114Y00235793D02*
Y00233253D01*
X01692575D01*
X01697653D01*
X01695114D01*
Y00225636D01*
X01697653Y00223097D01*
X01705271Y00233253D02*
Y00223097D01*
Y00228175D01*
X01707810Y00230714D01*
X01710349Y00233253D01*
X01712888D01*
X01723045Y00223097D02*
X01728123D01*
X01730662Y00225636D01*
Y00230714D01*
X01728123Y00233253D01*
X01723045D01*
X01720506Y00230714D01*
Y00225636D01*
X01723045Y00223097D01*
X01735741D02*
X01740819D01*
X01738280D01*
Y00238332D01*
X01735741D01*
X01322829Y00235793D02*
X01320289Y00238332D01*
X01315211D01*
X01312672Y00235793D01*
Y00233253D01*
X01315211Y00230714D01*
X01320289D01*
X01322829Y00228175D01*
Y00225636D01*
X01320289Y00223097D01*
X01315211D01*
X01312672Y00225636D01*
X01327907Y00238332D02*
Y00228175D01*
X01332985Y00223097D01*
X01338064Y00228175D01*
Y00238332D01*
X01343142Y00223097D02*
Y00238332D01*
X01353299Y00223097D01*
Y00238332D01*
X01373612Y00223097D02*
Y00238332D01*
X01381230D01*
X01383769Y00235793D01*
Y00230714D01*
X01381230Y00228175D01*
X01373612D01*
X01378691D02*
X01383769Y00223097D01*
X01399004Y00238332D02*
X01388847D01*
Y00223097D01*
X01399004D01*
X01388847Y00230714D02*
X01393926D01*
X01404082Y00238332D02*
Y00228175D01*
X01409161Y00223097D01*
X01414239Y00228175D01*
Y00238332D01*
X01419317Y00233253D02*
X01421857D01*
Y00230714D01*
X01419317D01*
Y00233253D01*
Y00225636D02*
X01421857D01*
Y00223097D01*
X01419317D01*
Y00225636D01*
X01099820Y00223097D02*
Y00238332D01*
X01107438D01*
X01109977Y00235793D01*
Y00230714D01*
X01107438Y00228175D01*
X01099820D01*
X01104898D02*
X01109977Y00223097D01*
X01125212Y00238332D02*
X01115055D01*
Y00223097D01*
X01125212D01*
X01115055Y00230714D02*
X01120133D01*
X01130290Y00238332D02*
Y00228175D01*
X01135368Y00223097D01*
X01140447Y00228175D01*
Y00238332D01*
X01145525Y00233253D02*
X01148064D01*
Y00230714D01*
X01145525D01*
Y00233253D01*
Y00225636D02*
X01148064D01*
Y00223097D01*
X01145525D01*
Y00225636D01*
X00322326Y00119295D02*
Y00134530D01*
X00327404Y00129452D01*
X00332483Y00134530D01*
Y00119295D01*
X00347718Y00131991D02*
X00345179Y00134530D01*
X00340100D01*
X00337561Y00131991D01*
Y00121834D01*
X00340100Y00119295D01*
X00345179D01*
X00347718Y00121834D01*
X00352796Y00134530D02*
Y00121834D01*
X00355335Y00119295D01*
X00360414D01*
X00362953Y00121834D01*
Y00134530D01*
X00368031Y00131991D02*
X00370570Y00134530D01*
X00375649D01*
X00378188Y00131991D01*
Y00121834D01*
X00375649Y00119295D01*
X00370570D01*
X00368031Y00121834D01*
Y00131991D01*
X00383266Y00134530D02*
X00393423D01*
Y00131991D01*
X00383266Y00121834D01*
Y00119295D01*
X00408658D02*
X00398501D01*
X00408658Y00129452D01*
Y00131991D01*
X00406119Y00134530D01*
X00401040D01*
X00398501Y00131991D01*
X00413736Y00119295D02*
Y00129452D01*
X00418815Y00134530D01*
X00423893Y00129452D01*
Y00119295D01*
Y00126912D01*
X00413736D01*
X00428971Y00119295D02*
Y00121834D01*
X00431511D01*
Y00119295D01*
X00428971D01*
X00451824Y00131991D02*
X00449285Y00134530D01*
X00444207D01*
X00441667Y00131991D01*
Y00121834D01*
X00444207Y00119295D01*
X00449285D01*
X00451824Y00121834D01*
Y00126912D01*
X00446746D01*
X00456903Y00134530D02*
Y00119295D01*
X00464520D01*
X00467059Y00121834D01*
Y00124373D01*
X00464520Y00126912D01*
X00456903D01*
X00464520D01*
X00467059Y00129452D01*
Y00131991D01*
X00464520Y00134530D01*
X00456903D01*
X00472137D02*
Y00119295D01*
X00482294D01*
X00968121Y00131991D02*
X00970660Y00134530D01*
X00975739D01*
X00978278Y00131991D01*
Y00129452D01*
X00975739Y00126912D01*
X00973199D01*
X00975739D01*
X00978278Y00124373D01*
Y00121834D01*
X00975739Y00119295D01*
X00970660D01*
X00968121Y00121834D01*
X00983356Y00119295D02*
X00993513Y00129452D01*
X00998591Y00119295D02*
X01003670D01*
X01001130D01*
Y00134530D01*
X00998591Y00131991D01*
X01021444Y00119295D02*
X01011287D01*
X01021444Y00129452D01*
Y00131991D01*
X01018905Y00134530D01*
X01013826D01*
X01011287Y00131991D01*
X01026522Y00119295D02*
X01036679Y00129452D01*
X01051914Y00119295D02*
X01041757D01*
X01051914Y00129452D01*
Y00131991D01*
X01049375Y00134530D01*
X01044296D01*
X01041757Y00131991D01*
X01056992D02*
X01059531Y00134530D01*
X01064610D01*
X01067149Y00131991D01*
Y00121834D01*
X01064610Y00119295D01*
X01059531D01*
X01056992Y00121834D01*
Y00131991D01*
X01082384Y00119295D02*
X01072227D01*
X01082384Y00129452D01*
Y00131991D01*
X01079845Y00134530D01*
X01074766D01*
X01072227Y00131991D01*
X01087462D02*
X01090002Y00134530D01*
X01095080D01*
X01097619Y00131991D01*
Y00121834D01*
X01095080Y00119295D01*
X01090002D01*
X01087462Y00121834D01*
Y00131991D01*
X00757425D02*
X00754885Y00134530D01*
X00749807D01*
X00747268Y00131991D01*
Y00121834D01*
X00749807Y00119295D01*
X00754885D01*
X00757425Y00121834D01*
Y00126912D01*
X00752346D01*
X00772660Y00134530D02*
X00762503D01*
Y00119295D01*
X00772660D01*
X00762503Y00126912D02*
X00767581D01*
X00777738Y00119295D02*
Y00134530D01*
X00787895Y00119295D01*
Y00134530D01*
X00803130D02*
X00792973D01*
Y00119295D01*
X00803130D01*
X00792973Y00126912D02*
X00798052D01*
X00808208Y00119295D02*
Y00134530D01*
X00815826D01*
X00818365Y00131991D01*
Y00126912D01*
X00815826Y00124373D01*
X00808208D01*
X00813287D02*
X00818365Y00119295D01*
X00823443D02*
Y00129452D01*
X00828522Y00134530D01*
X00833600Y00129452D01*
Y00119295D01*
Y00126912D01*
X00823443D01*
X00838678Y00134530D02*
X00848835D01*
X00843757D01*
Y00119295D01*
X00864070Y00134530D02*
X00853913D01*
Y00119295D01*
X00864070D01*
X00853913Y00126912D02*
X00858992D01*
X00869149Y00134530D02*
Y00119295D01*
X00876766D01*
X00879305Y00121834D01*
Y00131991D01*
X00876766Y00134530D01*
X00869149D01*
X00945324Y00129452D02*
X00947863D01*
Y00126912D01*
X00945324D01*
Y00129452D01*
Y00121834D02*
X00947863D01*
Y00119295D01*
X00945324D01*
Y00121834D01*
X00117729Y00223097D02*
Y00233253D01*
X00122807Y00238332D01*
X00127886Y00233253D01*
Y00223097D01*
Y00230714D01*
X00117729D01*
X00132964Y00238332D02*
Y00223097D01*
X00143121D01*
X00148199Y00238332D02*
Y00223097D01*
X00158356D01*
X00178669D02*
Y00233253D01*
X00183748Y00238332D01*
X00188826Y00233253D01*
Y00223097D01*
Y00230714D01*
X00178669D01*
X00193904Y00223097D02*
Y00238332D01*
X00201522D01*
X00204061Y00235793D01*
Y00230714D01*
X00201522Y00228175D01*
X00193904D01*
X00198983D02*
X00204061Y00223097D01*
X00209139Y00238332D02*
X00219296D01*
X00214218D01*
Y00223097D01*
X00224375Y00238332D02*
Y00223097D01*
X00229453Y00228175D01*
X00234531Y00223097D01*
Y00238332D01*
X00247227D02*
X00242149D01*
X00239610Y00235793D01*
Y00225636D01*
X00242149Y00223097D01*
X00247227D01*
X00249766Y00225636D01*
Y00235793D01*
X00247227Y00238332D01*
X00254845Y00223097D02*
Y00238332D01*
X00262462D01*
X00265001Y00235793D01*
Y00230714D01*
X00262462Y00228175D01*
X00254845D01*
X00259923D02*
X00265001Y00223097D01*
X00270080Y00238332D02*
Y00223097D01*
Y00228175D01*
X00280236Y00238332D01*
X00272619Y00230714D01*
X00280236Y00223097D01*
X00300550Y00238332D02*
Y00228175D01*
X00305628Y00223097D01*
X00310707Y00228175D01*
Y00238332D01*
X00315785D02*
X00320863D01*
X00318324D01*
Y00223097D01*
X00315785D01*
X00320863D01*
X00338638Y00238332D02*
X00328481D01*
Y00223097D01*
X00338638D01*
X00328481Y00230714D02*
X00333559D01*
X00343716Y00238332D02*
Y00223097D01*
X00348794Y00228175D01*
X00353873Y00223097D01*
Y00238332D01*
X00369108D02*
X00358951D01*
Y00223097D01*
X00369108D01*
X00358951Y00230714D02*
X00364029D01*
X00374186Y00238332D02*
Y00223097D01*
X00381804D01*
X00384343Y00225636D01*
Y00235793D01*
X00381804Y00238332D01*
X00374186D01*
X00414813D02*
X00404656D01*
Y00230714D01*
X00409734D01*
X00404656D01*
Y00223097D01*
X00419891D02*
Y00238332D01*
X00427509D01*
X00430048Y00235793D01*
Y00230714D01*
X00427509Y00228175D01*
X00419891D01*
X00424970D02*
X00430048Y00223097D01*
X00442744Y00238332D02*
X00437665D01*
X00435126Y00235793D01*
Y00225636D01*
X00437665Y00223097D01*
X00442744D01*
X00445283Y00225636D01*
Y00235793D01*
X00442744Y00238332D01*
X00450361Y00223097D02*
Y00238332D01*
X00455440Y00233253D01*
X00460518Y00238332D01*
Y00223097D01*
X00480832Y00238332D02*
X00490988D01*
X00485910D01*
Y00223097D01*
X00503684Y00238332D02*
X00498606D01*
X00496067Y00235793D01*
Y00225636D01*
X00498606Y00223097D01*
X00503684D01*
X00506223Y00225636D01*
Y00235793D01*
X00503684Y00238332D01*
X00511302Y00223097D02*
Y00238332D01*
X00518919D01*
X00521458Y00235793D01*
Y00230714D01*
X00518919Y00228175D01*
X00511302D01*
X00551929Y00235793D02*
X00549389Y00238332D01*
X00544311D01*
X00541772Y00235793D01*
Y00233253D01*
X00544311Y00230714D01*
X00549389D01*
X00551929Y00228175D01*
Y00225636D01*
X00549389Y00223097D01*
X00544311D01*
X00541772Y00225636D01*
X00557007Y00238332D02*
X00562085D01*
X00559546D01*
Y00223097D01*
X00557007D01*
X00562085D01*
X00569703Y00238332D02*
Y00223097D01*
X00577320D01*
X00579860Y00225636D01*
Y00235793D01*
X00577320Y00238332D01*
X00569703D01*
X00595095D02*
X00584938D01*
Y00223097D01*
X00595095D01*
X00584938Y00230714D02*
X00590016D01*
X01173861Y00223097D02*
Y00233253D01*
X01178939Y00238332D01*
X01184018Y00233253D01*
Y00223097D01*
Y00230714D01*
X01173861D01*
X00885317Y00223097D02*
Y00238332D01*
X00890395Y00233253D01*
X00895474Y00238332D01*
Y00223097D01*
X00910709Y00235793D02*
X00908170Y00238332D01*
X00903091D01*
X00900552Y00235793D01*
Y00225636D01*
X00903091Y00223097D01*
X00908170D01*
X00910709Y00225636D01*
X00915787Y00238332D02*
Y00225636D01*
X00918326Y00223097D01*
X00923405D01*
X00925944Y00225636D01*
Y00238332D01*
X00931022Y00235793D02*
X00933561Y00238332D01*
X00938640D01*
X00941179Y00235793D01*
Y00225636D01*
X00938640Y00223097D01*
X00933561D01*
X00931022Y00225636D01*
Y00235793D01*
X00946257Y00238332D02*
X00956414D01*
Y00235793D01*
X00946257Y00225636D01*
Y00223097D01*
X00971649D02*
X00961492D01*
X00971649Y00233253D01*
Y00235793D01*
X00969110Y00238332D01*
X00964032D01*
X00961492Y00235793D01*
X00746760Y00238332D02*
Y00223097D01*
X00754378D01*
X00756917Y00225636D01*
Y00228175D01*
X00754378Y00230714D01*
X00746760D01*
X00754378D01*
X00756917Y00233253D01*
Y00235793D01*
X00754378Y00238332D01*
X00746760D01*
X00769613D02*
X00764534D01*
X00761995Y00235793D01*
Y00225636D01*
X00764534Y00223097D01*
X00769613D01*
X00772152Y00225636D01*
Y00235793D01*
X00769613Y00238332D01*
X00777230Y00223097D02*
Y00233253D01*
X00782309Y00238332D01*
X00787387Y00233253D01*
Y00223097D01*
Y00230714D01*
X00777230D01*
X00792465Y00223097D02*
Y00238332D01*
X00800083D01*
X00802622Y00235793D01*
Y00230714D01*
X00800083Y00228175D01*
X00792465D01*
X00797544D02*
X00802622Y00223097D01*
X00807700Y00238332D02*
Y00223097D01*
X00815318D01*
X00817857Y00225636D01*
Y00235793D01*
X00815318Y00238332D01*
X00807700D01*
X00840710Y00223097D02*
Y00238332D01*
X00845788D02*
Y00223097D01*
X00838170Y00233253D02*
X00845788D01*
X00848327D01*
X00838170Y00228175D02*
X00848327D01*
X00853406Y00233253D02*
X00855945D01*
Y00230714D01*
X00853406D01*
Y00233253D01*
Y00225636D02*
X00855945D01*
Y00223097D01*
X00853406D01*
Y00225636D01*
X00117729Y00186814D02*
Y00171579D01*
X00127886D01*
X00132964D02*
Y00181735D01*
X00138042Y00186814D01*
X00143121Y00181735D01*
Y00171579D01*
Y00179196D01*
X00132964D01*
X00148199Y00186814D02*
Y00184275D01*
X00153278Y00179196D01*
X00158356Y00184275D01*
Y00186814D01*
X00153278Y00179196D02*
Y00171579D01*
X00173591Y00186814D02*
X00163434D01*
Y00171579D01*
X00173591D01*
X00163434Y00179196D02*
X00168513D01*
X00178669Y00171579D02*
Y00186814D01*
X00186287D01*
X00188826Y00184275D01*
Y00179196D01*
X00186287Y00176657D01*
X00178669D01*
X00183748D02*
X00188826Y00171579D01*
X00209139D02*
Y00186814D01*
X00219296Y00171579D01*
Y00186814D01*
X00224375Y00171579D02*
Y00181735D01*
X00229453Y00186814D01*
X00234531Y00181735D01*
Y00171579D01*
Y00179196D01*
X00224375D01*
X00239610Y00171579D02*
Y00186814D01*
X00244688Y00181735D01*
X00249766Y00186814D01*
Y00171579D01*
X00265001Y00186814D02*
X00254845D01*
Y00171579D01*
X00265001D01*
X00254845Y00179196D02*
X00259923D01*
X00285315Y00176657D02*
X00295471D01*
X00285315Y00181735D02*
X00295471D01*
X00117729Y00119295D02*
Y00134530D01*
X00125346D01*
X00127886Y00131991D01*
Y00126912D01*
X00125346Y00124373D01*
X00117729D01*
X00132964Y00134530D02*
Y00119295D01*
X00143121D01*
X00155817Y00134530D02*
X00150738D01*
X00148199Y00131991D01*
Y00121834D01*
X00150738Y00119295D01*
X00155817D01*
X00158356Y00121834D01*
Y00131991D01*
X00155817Y00134530D01*
X00163434D02*
X00173591D01*
X00168513D01*
Y00119295D01*
X00193904D02*
Y00134530D01*
X00204061Y00119295D01*
Y00134530D01*
X00209139Y00119295D02*
Y00129452D01*
X00214218Y00134530D01*
X00219296Y00129452D01*
Y00119295D01*
Y00126912D01*
X00209139D01*
X00224375Y00119295D02*
Y00134530D01*
X00229453Y00129452D01*
X00234531Y00134530D01*
Y00119295D01*
X00249766Y00134530D02*
X00239610D01*
Y00119295D01*
X00249766D01*
X00239610Y00126912D02*
X00244688D01*
X00270080Y00124373D02*
X00280236D01*
X00270080Y00129452D02*
X00280236D01*
X01153287Y00131991D02*
X01155826Y00134530D01*
X01160904D01*
X01163444Y00131991D01*
Y00129452D01*
X01160904Y00126912D01*
X01158365D01*
X01160904D01*
X01163444Y00124373D01*
Y00121834D01*
X01160904Y00119295D01*
X01155826D01*
X01153287Y00121834D01*
X01168522Y00129452D02*
X01171061D01*
Y00126912D01*
X01168522D01*
Y00129452D01*
Y00121834D02*
X01171061D01*
Y00119295D01*
X01168522D01*
Y00121834D01*
X01191375Y00119295D02*
X01181218D01*
X01191375Y00129452D01*
Y00131991D01*
X01188836Y00134530D01*
X01183757D01*
X01181218Y00131991D01*
X01196453D02*
X01198992Y00134530D01*
X01204071D01*
X01206610Y00131991D01*
Y00129452D01*
X01204071Y00126912D01*
X01201531D01*
X01204071D01*
X01206610Y00124373D01*
Y00121834D01*
X01204071Y00119295D01*
X01198992D01*
X01196453Y00121834D01*
X01211688Y00129452D02*
X01214227D01*
Y00126912D01*
X01211688D01*
Y00129452D01*
Y00121834D02*
X01214227D01*
Y00119295D01*
X01211688D01*
Y00121834D01*
X01232001Y00119295D02*
Y00134530D01*
X01224384Y00126912D01*
X01234541D01*
X01239619Y00119295D02*
X01244697D01*
X01242158D01*
Y00134530D01*
X01239619Y00131991D01*
X01267550Y00119295D02*
Y00134530D01*
X01275168D01*
X01277707Y00131991D01*
Y00126912D01*
X01275168Y00124373D01*
X01267550D01*
X01282785Y00119295D02*
Y00134530D01*
X01287863Y00129452D01*
X01292942Y00134530D01*
Y00119295D01*
X01474470Y00134530D02*
X01484627D01*
X01479548D01*
Y00119295D01*
X01499862Y00134530D02*
X01489705D01*
Y00119295D01*
X01499862D01*
X01489705Y00126912D02*
X01494783D01*
X01504940Y00134530D02*
X01515097Y00119295D01*
Y00134530D02*
X01504940Y00119295D01*
X01520175D02*
Y00129452D01*
X01525254Y00134530D01*
X01530332Y00129452D01*
Y00119295D01*
Y00126912D01*
X01520175D01*
X01545567Y00131991D02*
X01543028Y00134530D01*
X01537950D01*
X01535410Y00131991D01*
Y00129452D01*
X01537950Y00126912D01*
X01543028D01*
X01545567Y00124373D01*
Y00121834D01*
X01543028Y00119295D01*
X01537950D01*
X01535410Y00121834D01*
X01565880Y00134530D02*
X01570959D01*
X01568420D01*
Y00119295D01*
X01565880D01*
X01570959D01*
X01578576D02*
Y00134530D01*
X01588733Y00119295D01*
Y00134530D01*
X01603968Y00131991D02*
X01601429Y00134530D01*
X01596351D01*
X01593811Y00131991D01*
Y00129452D01*
X01596351Y00126912D01*
X01601429D01*
X01603968Y00124373D01*
Y00121834D01*
X01601429Y00119295D01*
X01596351D01*
X01593811Y00121834D01*
X01609046Y00134530D02*
X01619203D01*
X01614125D01*
Y00119295D01*
X01624281D02*
Y00134530D01*
X01631899D01*
X01634438Y00131991D01*
Y00126912D01*
X01631899Y00124373D01*
X01624281D01*
X01629360D02*
X01634438Y00119295D01*
X01639517Y00134530D02*
Y00121834D01*
X01642056Y00119295D01*
X01647134D01*
X01649673Y00121834D01*
Y00134530D01*
X01654752Y00119295D02*
Y00134530D01*
X01659830Y00129452D01*
X01664908Y00134530D01*
Y00119295D01*
X01680143Y00134530D02*
X01669987D01*
Y00119295D01*
X01680143D01*
X01669987Y00126912D02*
X01675065D01*
X01685222Y00119295D02*
Y00134530D01*
X01695379Y00119295D01*
Y00134530D01*
X01700457D02*
X01710614D01*
X01705535D01*
Y00119295D01*
X01725849Y00131991D02*
X01723309Y00134530D01*
X01718231D01*
X01715692Y00131991D01*
Y00129452D01*
X01718231Y00126912D01*
X01723309D01*
X01725849Y00124373D01*
Y00121834D01*
X01723309Y00119295D01*
X01718231D01*
X01715692Y00121834D01*
X00746760Y00186685D02*
X00756917D01*
X00751838D01*
Y00171450D01*
X00761995Y00186685D02*
X00767073D01*
X00764534D01*
Y00171450D01*
X00761995D01*
X00767073D01*
X00774691Y00186685D02*
Y00171450D01*
X00782309D01*
X00784848Y00173989D01*
Y00184146D01*
X00782309Y00186685D01*
X00774691D01*
X00807700Y00171450D02*
Y00186685D01*
X00812779D02*
Y00171450D01*
X00805161Y00181607D02*
X00812779D01*
X00815318D01*
X00805161Y00176528D02*
X00815318D01*
X00820396Y00181607D02*
X00822935D01*
Y00179067D01*
X00820396D01*
Y00181607D01*
Y00173989D02*
X00822935D01*
Y00171450D01*
X00820396D01*
Y00173989D01*
X00885317Y00171450D02*
Y00186685D01*
X00895474Y00171450D01*
Y00186685D01*
X00900552Y00171450D02*
X00910709Y00181607D01*
X00915787Y00171450D02*
Y00181607D01*
X00920865Y00186685D01*
X00925944Y00181607D01*
Y00171450D01*
Y00179067D01*
X00915787D01*
G54D24*
X01385037Y01320952D02*
X01385449D01*
X01373861Y01315268D02*
X01379545Y01320952D01*
X01385037D01*
X01322930Y01071655D02*
X01325855Y01068730D01*
X01322930Y01071655D02*
Y01084062D01*
X01319300Y01222800D02*
Y01223472D01*
Y01222800D02*
X01319505Y01223004D01*
X01319251Y01222750D02*
X01319300Y01222800D01*
X01322930Y01195062D02*
Y01212371D01*
X01319251Y01216050D02*
X01322930Y01212371D01*
X01319251Y01216050D02*
Y01222750D01*
X01336070Y01137062D02*
X01350930D01*
X01325855Y01067460D02*
Y01068730D01*
X01262930Y01070293D02*
Y01084062D01*
X01287930Y01195062D02*
Y01220193D01*
X01284734Y01223389D02*
X01287930Y01220193D01*
X01284734Y01223389D02*
Y01268191D01*
X01223827Y01177870D02*
Y01178555D01*
X01239930Y01102062D02*
X01258233D01*
X01258291Y01102004D01*
X01240082Y01111910D02*
X01258291D01*
X01239930Y01112062D02*
X01240082Y01111910D01*
X01280135Y01163726D02*
X01280897Y01162964D01*
X01224199Y01218392D02*
X01243559Y01199032D01*
X01332000Y01221978D02*
Y01223472D01*
X01195190Y01153712D02*
Y01164702D01*
X01239930Y01172062D02*
X01255035D01*
X01263625Y01163472D01*
X01254481Y01172616D02*
X01255035Y01172062D01*
X01263625Y01163472D02*
X01279881D01*
X01272930Y01182361D02*
X01276071Y01179220D01*
Y01177442D02*
Y01179220D01*
X01194791Y01153312D02*
X01195190Y01153712D01*
X01312930Y01084062D02*
Y01105023D01*
X01309091Y01108862D02*
X01312930Y01105023D01*
X01306551Y01108862D02*
X01309091D01*
X01350930Y01102062D02*
X01370040D01*
X01390629Y01140870D02*
X01402306D01*
X01390371Y01140612D02*
X01390629Y01140870D01*
X01318719Y01312801D02*
X01328864D01*
X01317981Y01312062D02*
X01318719Y01312801D01*
X01332000Y01223472D02*
X01341801D01*
X01342111Y01223162D01*
X01243559Y01190027D02*
Y01199032D01*
X01208750Y01218392D02*
X01224199D01*
X01272930Y01182361D02*
Y01195062D01*
X01243559Y01190027D02*
X01255359Y01178227D01*
X01327930Y01195062D02*
Y01208728D01*
X01329665Y01210462D01*
X01224530Y01107063D02*
X01239930D01*
X01239924Y01137056D02*
X01239930Y01137062D01*
X01225430Y01137056D02*
X01239924D01*
X01223998Y01138488D02*
X01225430Y01137056D01*
X01224635Y01177062D02*
X01239930D01*
X01223827Y01177870D02*
X01224635Y01177062D01*
X01336722Y01207171D02*
Y01217256D01*
X01332930Y01203379D02*
X01336722Y01207171D01*
X01332000Y01221978D02*
X01336722Y01217256D01*
X01332930Y01195062D02*
Y01203379D01*
X01223565Y01178292D02*
X01223827Y01178555D01*
X01184680Y01107202D02*
Y01128761D01*
X01255359Y01178227D02*
X01266002D01*
X01267930Y01180155D01*
X01208381Y01218762D02*
X01208750Y01218392D01*
X01284620Y01284525D02*
X01292510Y01276635D01*
Y01270033D02*
Y01276635D01*
X01257070Y01262492D02*
Y01284702D01*
X01265741Y01293372D01*
X01293832D01*
X01305157Y01282047D01*
Y01236079D02*
Y01282047D01*
X01297930Y01228852D02*
X01305157Y01236079D01*
X01297930Y01195062D02*
Y01228852D01*
X01394940Y01247454D02*
X01395098Y01247612D01*
X01404592D01*
X01270156Y01274562D02*
X01275699D01*
X01277510Y01272751D01*
Y01270033D02*
Y01272751D01*
X01322664Y01246205D02*
Y01257762D01*
X01323697Y01258795D01*
X01326253D01*
X01326472Y01259015D01*
X01357488D01*
X01223744Y01262186D02*
X01224050Y01262492D01*
X01236750D01*
X01195190Y01251716D02*
Y01261222D01*
X01270690Y01225662D02*
Y01239092D01*
X01267610Y01242172D02*
X01270690Y01239092D01*
X01264349Y01245433D02*
X01267610Y01242172D01*
X01264349Y01245433D02*
Y01252955D01*
X01257070Y01260234D02*
X01264349Y01252955D01*
X01257070Y01260234D02*
Y01262492D01*
X01316659Y01209076D02*
X01317930Y01207804D01*
Y01195062D02*
Y01207804D01*
X01353667Y01199768D02*
X01353783Y01199652D01*
X01353667Y01199768D02*
Y01210116D01*
X01314443Y01244508D02*
X01319300Y01239650D01*
Y01235472D02*
Y01239650D01*
X01277510Y01270033D02*
X01282892D01*
X01284734Y01268191D01*
X01292510Y01249046D02*
X01297658Y01243898D01*
X01292510Y01249046D02*
Y01260033D01*
X01292930Y01239170D02*
X01297658Y01243898D01*
X01292930Y01195062D02*
Y01239170D01*
X01210080Y01105932D02*
Y01122792D01*
X01219172Y01131884D01*
X01239753D02*
X01239930Y01132062D01*
X01219172Y01131884D02*
X01239753D01*
X01221458Y01120454D02*
X01228066Y01127063D01*
X01239930D01*
X01369666Y01199828D02*
Y01210116D01*
X01302930Y01182454D02*
Y01195062D01*
X01307930Y01207434D02*
X01309850Y01209354D01*
X01307930Y01195062D02*
Y01207434D01*
X01282930Y01195062D02*
Y01209351D01*
X01279319Y01212962D02*
X01282930Y01209351D01*
X01270690Y01212962D02*
X01279319D01*
X01402306Y01152870D02*
Y01166676D01*
X01395950Y01173033D02*
X01402306Y01166676D01*
X01395950Y01173033D02*
Y01178932D01*
X01342782Y01184530D02*
X01348361D01*
X01329240Y01170989D02*
X01342782Y01184530D01*
X01312930Y01182855D02*
Y01195062D01*
X01267930Y01180155D02*
Y01195062D01*
X01275429Y01137980D02*
X01282672D01*
X01269844Y01150934D02*
X01279878D01*
X01251348Y01162062D02*
X01275429Y01137980D01*
X01239930Y01162062D02*
X01251348D01*
X01253716Y01167062D02*
X01269844Y01150934D01*
X01239930Y01167062D02*
X01253716D01*
X01329240Y01152119D02*
Y01170989D01*
Y01152119D02*
X01339297Y01142062D01*
X01350930D01*
X01336070Y01162062D02*
X01350930D01*
X01331440Y01284303D02*
Y01293428D01*
X01326253Y01279116D02*
X01331440Y01284303D01*
X01340864Y01300460D02*
Y01312801D01*
X01332000Y01235472D02*
X01339993D01*
X01283007Y01100800D02*
X01287930Y01095877D01*
Y01084062D02*
Y01095877D01*
X01382450Y01114149D02*
Y01121522D01*
X01350930Y01122062D02*
X01369910D01*
X01292930Y01084062D02*
Y01095992D01*
X01294491Y01097552D01*
X01296183D01*
X01297930Y01095805D01*
Y01084062D02*
Y01095805D01*
X01224001Y01107592D02*
X01224530Y01107063D01*
X01262888Y00205020D02*
Y00256667D01*
X01049528Y00205020D02*
Y00256667D01*
X00101600Y00205020D02*
X01778508D01*
X00101600Y00153374D02*
X01778000D01*
X00101600Y00101727D02*
X01118870D01*
X00101727Y00256667D02*
X01778508D01*
X00101727Y00101727D02*
Y00256667D01*
Y00101727D02*
X00501904D01*
X00101600D02*
Y00256667D01*
X00727710Y00101727D02*
Y00256667D01*
X01778508Y00101727D02*
Y00256667D01*
X01118870Y00101727D02*
X01778508D01*
X01420876Y00100076D02*
Y00151596D01*
G54D25*
X01810487Y01098262D02*
D03*
Y01114262D02*
D03*
X01396450Y00929666D02*
D03*
Y00945666D02*
D03*
X01395705Y01025422D02*
D03*
Y01009422D02*
D03*
X01337449Y00929666D02*
D03*
Y00945666D02*
D03*
X01317782Y00929666D02*
D03*
Y00945666D02*
D03*
X01258782Y00929666D02*
D03*
Y00945666D02*
D03*
X01337575Y01025422D02*
D03*
Y01009422D02*
D03*
X01318198D02*
D03*
Y01025422D02*
D03*
X01260069Y01009422D02*
D03*
Y01025422D02*
D03*
X01278449Y00945666D02*
D03*
Y00929666D02*
D03*
X01298116D02*
D03*
Y00945666D02*
D03*
X01356951Y01025422D02*
D03*
Y01009422D02*
D03*
X01681734Y01008252D02*
D03*
Y00992252D02*
D03*
X01357488Y01259015D02*
D03*
Y01275015D02*
D03*
X01376328Y01009422D02*
D03*
Y01025422D02*
D03*
X01357116Y00929666D02*
D03*
Y00945666D02*
D03*
X01376783D02*
D03*
Y00929666D02*
D03*
X01279445Y01009422D02*
D03*
Y01025422D02*
D03*
X01298822Y01009422D02*
D03*
Y01025422D02*
D03*
X01623797Y00924840D02*
D03*
Y00940840D02*
D03*
X01637513Y00924840D02*
D03*
Y00940840D02*
D03*
G54D38*
X01185418Y01317752D02*
D03*
X01769593Y00918616D02*
D03*
X01183361Y00978814D02*
D03*
G54D41*
X01375487Y00992310D02*
D03*
X01365987D02*
D03*
X01356487D02*
D03*
Y00964810D02*
D03*
X01365987D02*
D03*
X01375487D02*
D03*
X01278763Y00963032D02*
D03*
X01288263D02*
D03*
X01297763D02*
D03*
Y00990532D02*
D03*
X01288263D02*
D03*
X01278763D02*
D03*
G54D43*
X01707134Y01006602D02*
D03*
Y00986282D02*
D03*
X01326253Y01279116D02*
D03*
Y01258795D02*
D03*
G54D44*
X01732255Y01284026D02*
D03*
Y01272026D02*
D03*
X01465301Y01234592D02*
D03*
Y01246592D02*
D03*
X01800835Y01290060D02*
D03*
Y01302060D02*
D03*
X01777721Y01236528D02*
D03*
Y01224528D02*
D03*
X01239370Y00943578D02*
D03*
Y00931578D02*
D03*
X01660367Y01110736D02*
D03*
Y01122736D02*
D03*
X01515339Y01121720D02*
D03*
Y01109720D02*
D03*
X01525753Y01121720D02*
D03*
Y01109720D02*
D03*
X01649959Y01122736D02*
D03*
Y01110736D02*
D03*
X01225271Y01218432D02*
D03*
Y01230432D02*
D03*
X01373861Y01315268D02*
D03*
Y01303268D02*
D03*
X01486891Y01302252D02*
D03*
Y01314252D02*
D03*
X01725905Y01153154D02*
D03*
Y01165154D02*
D03*
X01404592Y01247612D02*
D03*
Y01235612D02*
D03*
X01691361Y01165154D02*
D03*
Y01153154D02*
D03*
X01465809Y01139438D02*
D03*
Y01151438D02*
D03*
X01402563Y01140200D02*
D03*
Y01152200D02*
D03*
X01662151Y01293616D02*
D03*
Y01305616D02*
D03*
X01659103Y01219702D02*
D03*
Y01231702D02*
D03*
X01687957Y01227918D02*
D03*
Y01215918D02*
D03*
X01798295Y01236528D02*
D03*
Y01224528D02*
D03*
X01184377Y01095242D02*
D03*
Y01107242D02*
D03*
X01209777Y01094734D02*
D03*
Y01106734D02*
D03*
X01319505Y01235004D02*
D03*
Y01223004D02*
D03*
X01548638Y01276254D02*
D03*
Y01264254D02*
D03*
X01562608Y01276254D02*
D03*
Y01264254D02*
D03*
X01331951Y01234242D02*
D03*
Y01222242D02*
D03*
X01630909Y01284026D02*
D03*
Y01272026D02*
D03*
X01707617Y01219448D02*
D03*
Y01231448D02*
D03*
X01640561Y01231702D02*
D03*
Y01219702D02*
D03*
X01775181Y01302060D02*
D03*
Y01290060D02*
D03*
X01695171Y01272026D02*
D03*
Y01284026D02*
D03*
G54D45*
X01770451Y01099659D02*
D03*
X01782451D02*
D03*
X01582999Y01172108D02*
D03*
X01594999D02*
D03*
X01602365Y01037488D02*
D03*
X01590365D02*
D03*
X01195141Y01163472D02*
D03*
X01207141D02*
D03*
X01602365Y01027074D02*
D03*
X01590365D02*
D03*
X01270690Y01225662D02*
D03*
X01258690D02*
D03*
X01594999Y01161694D02*
D03*
X01582999D02*
D03*
X01569091Y01031900D02*
D03*
X01557091D02*
D03*
X01328864Y01312801D02*
D03*
X01340864D02*
D03*
X01382401Y01122832D02*
D03*
X01370401D02*
D03*
X01382450Y01102472D02*
D03*
X01370450D02*
D03*
X01195395Y01261516D02*
D03*
X01207395D02*
D03*
X01261181Y01212962D02*
D03*
X01273181D02*
D03*
X01784737Y01123858D02*
D03*
X01772737D02*
D03*
G54D46*
X01751433Y00975258D02*
D03*
X01767433D02*
D03*
X01537180Y01034948D02*
D03*
X01521181D02*
D03*
X01751433Y01053744D02*
D03*
X01767433D02*
D03*
X01751433Y01033424D02*
D03*
X01767433D02*
D03*
X01751433Y01013104D02*
D03*
X01767433D02*
D03*
X01751433Y00994054D02*
D03*
X01767433D02*
D03*
X01369161Y01211732D02*
D03*
X01353161D02*
D03*
X01463651Y01119022D02*
D03*
X01479651D02*
D03*
X01459841Y01098702D02*
D03*
X01475841D02*
D03*
X01267610Y01242172D02*
D03*
X01251610D02*
D03*
X01585571Y01202842D02*
D03*
X01601571D02*
D03*
G54D48*
X01236750Y01262492D02*
D03*
X01257070D02*
D03*
G54D52*
X01248400Y00858756D02*
D03*
X01256400D02*
D03*
X01264400D02*
D03*
X01272400D02*
D03*
X01280400D02*
D03*
X01288400D02*
D03*
X01296400D02*
D03*
X01304400D02*
D03*
X01312400D02*
D03*
X01320400D02*
D03*
X01328400D02*
D03*
X01336400D02*
D03*
X01344400D02*
D03*
X01352400D02*
D03*
X01360400D02*
D03*
X01368400D02*
D03*
X01376400D02*
D03*
X01384400D02*
D03*
X01392400D02*
D03*
X01400400D02*
D03*
X01408400D02*
D03*
X01416400D02*
D03*
X01424400D02*
D03*
X01432400D02*
D03*
X01440400D02*
D03*
X01448400D02*
D03*
X01456400D02*
D03*
X01464400D02*
D03*
X01504400D02*
D03*
X01512400D02*
D03*
X01520400D02*
D03*
X01528400D02*
D03*
X01536400D02*
D03*
X01544400D02*
D03*
X01552400D02*
D03*
X01560400D02*
D03*
X01568400D02*
D03*
X01576400D02*
D03*
X01584400D02*
D03*
X01592400D02*
D03*
X01600400D02*
D03*
X01608400D02*
D03*
X01616400D02*
D03*
X01624400D02*
D03*
X01632400D02*
D03*
X01640400D02*
D03*
X01648400D02*
D03*
X01656400D02*
D03*
X01664400D02*
D03*
X01672400D02*
D03*
X01680400D02*
D03*
X01688400D02*
D03*
X01696400D02*
D03*
X01704400D02*
D03*
X01712400D02*
D03*
X01720400D02*
D03*
X01728400D02*
D03*
X01736400D02*
D03*
X01744400D02*
D03*
X01752400D02*
D03*
G54D77*
X01224636Y01244562D02*
D03*
Y01288562D02*
D03*
G54D78*
X01809913Y00973734D02*
D03*
Y00993734D02*
D03*
Y01013734D02*
D03*
Y01033734D02*
D03*
Y01053734D02*
D03*
X01789913Y00973734D02*
D03*
Y00993734D02*
D03*
Y01013734D02*
D03*
Y01033734D02*
D03*
G54D79*
Y01053734D02*
D03*
G54D80*
X01451331Y00878738D02*
Y00883680D01*
X01448652Y00886358D02*
X01451331Y00883680D01*
X01445997Y00886358D02*
X01448652D01*
X01442441Y00889914D02*
X01445997Y00886358D01*
X01442441Y00889914D02*
Y00935634D01*
X01462761Y00860396D02*
Y00882294D01*
X01461745Y00883310D02*
X01462761Y00882294D01*
X01745971Y00883056D02*
X01752400Y00876627D01*
X01738097Y01052982D02*
X01752703D01*
X01505941Y00883963D02*
X01513670Y00891692D01*
X01505941Y00860297D02*
Y00883963D01*
X01288400Y00858756D02*
Y00892846D01*
X01343889Y00884072D02*
Y00897317D01*
Y00884072D02*
X01344400Y00883561D01*
X01340732Y00900473D02*
X01343889Y00897317D01*
X01340333Y00878623D02*
Y00885342D01*
X01336777Y00888898D02*
X01340333Y00885342D01*
X01374369Y00991768D02*
X01374746Y00991391D01*
X01376139Y00992784D01*
X01374902Y00992302D02*
Y01007288D01*
X01239370Y00931578D02*
X01248400Y00922548D01*
Y00858756D02*
Y00922548D01*
X01260831Y00881786D02*
X01264400Y00878217D01*
Y00858756D02*
Y00878217D01*
X01272400Y00879640D02*
X01273670Y00880910D01*
X01272400Y00858756D02*
Y00879640D01*
X01296400Y00878864D02*
X01322945Y00905408D01*
X01296400Y00858756D02*
Y00878864D01*
X01310869Y00878623D02*
X01312400Y00877091D01*
Y00858756D02*
Y00877091D01*
X01320400Y00886746D02*
X01325855Y00892200D01*
X01320400Y00858756D02*
Y00886746D01*
X01336400Y00874690D02*
X01340333Y00878623D01*
X01336400Y00858756D02*
Y00874690D01*
X01344400Y00858756D02*
Y00883561D01*
X01348207Y00891946D02*
X01352400Y00887753D01*
Y00858756D02*
Y00887753D01*
X01360400Y00883058D02*
X01364971Y00887628D01*
X01360400Y00858756D02*
Y00883058D01*
X01376400Y00891946D02*
X01385291Y00900836D01*
X01376400Y00858756D02*
Y00891946D01*
X01440400Y00875428D02*
X01446759Y00881786D01*
X01440400Y00858756D02*
Y00875428D01*
X01448400Y00875808D02*
X01451331Y00878738D01*
X01448400Y00858756D02*
Y00875808D01*
X01449045Y00903376D02*
X01456919Y00895502D01*
Y00859275D02*
Y00895502D01*
X01456400Y00858756D02*
X01456919Y00859275D01*
X01512400Y00879356D02*
X01513561Y00880516D01*
X01512400Y00858756D02*
Y00879356D01*
X01520400Y00878060D02*
X01522451Y00880110D01*
X01520400Y00858756D02*
Y00878060D01*
X01528400Y00858756D02*
Y00880232D01*
X01544400Y00858756D02*
Y00874961D01*
X01540739Y00878623D02*
X01544400Y00874961D01*
X01550899Y00878623D02*
X01552400Y00877121D01*
Y00858756D02*
Y00877121D01*
X01560400Y00858756D02*
Y00885446D01*
X01568400Y00858756D02*
Y00876820D01*
X01575791Y00882548D02*
Y00892200D01*
Y00882548D02*
X01576400Y00881939D01*
Y00858756D02*
Y00881939D01*
X01585697Y00881532D02*
Y00890930D01*
X01584400Y00880236D02*
X01585697Y00881532D01*
X01584400Y00858756D02*
Y00880236D01*
X01585951Y00900836D02*
X01592400Y00894387D01*
Y00858756D02*
Y00894387D01*
X01599159Y00878484D02*
X01600400Y00877243D01*
Y00858756D02*
Y00877243D01*
X01615522Y00859634D02*
X01616431D01*
X01615522D02*
X01616400Y00858756D01*
X01616431Y00859634D02*
Y00892316D01*
X01611351Y00897396D02*
X01616431Y00892316D01*
X01624400Y00876040D02*
X01629639Y00881278D01*
X01624400Y00858756D02*
Y00876040D01*
X01636271Y00875944D02*
X01638783Y00878456D01*
X01633703Y00875944D02*
X01636271D01*
X01632400Y00874642D02*
X01633703Y00875944D01*
X01632400Y00858756D02*
Y00874642D01*
X01672400Y00876680D02*
X01674343Y00878623D01*
X01672400Y00858756D02*
Y00876680D01*
X01685011Y00877389D02*
Y00886764D01*
X01683566Y00875944D02*
X01685011Y00877389D01*
X01681201Y00875944D02*
X01683566D01*
X01680400Y00875144D02*
X01681201Y00875944D01*
X01680400Y00858756D02*
Y00875144D01*
X01688400Y00858756D02*
Y00874928D01*
X01689416Y00875944D01*
X01691984D01*
X01694663Y00878623D01*
X01697203Y00859559D02*
Y00886268D01*
X01667231Y00916240D02*
X01697203Y00886268D01*
X01696400Y00858756D02*
X01697203Y00859559D01*
X01752400Y00858756D02*
Y00876627D01*
X01374902Y01025778D02*
X01394662D01*
X01403707Y01025422D02*
X01407135Y01021994D01*
Y01010818D02*
Y01021994D01*
Y01010818D02*
X01410183Y01007770D01*
X01414247D01*
X01727683Y00965098D02*
X01737843Y00975258D01*
X01674887Y00965098D02*
X01727683D01*
X01670569Y00960780D02*
X01674887Y00965098D01*
X01726195Y00967638D02*
X01743431Y00984874D01*
X01673835Y00967638D02*
X01726195D01*
X01725143Y00970178D02*
X01740891Y00985926D01*
X01665845Y00970178D02*
X01725143D01*
X01737843Y00975258D02*
X01754481D01*
X01558113Y00961542D02*
X01559535D01*
X01556487Y00951673D02*
Y00956324D01*
Y00951673D02*
X01559317Y00948842D01*
X01572706D01*
X01558265Y00946302D02*
X01573759D01*
X01553947Y00950620D02*
X01558265Y00946302D01*
X01553947Y00950620D02*
Y00957376D01*
X01572706Y00948842D02*
X01580835Y00956970D01*
X01573759Y00946302D02*
X01581887Y00954430D01*
X01355852Y00992048D02*
Y01009778D01*
X01647165Y00921018D02*
X01674343Y00893840D01*
X01647165Y00921018D02*
Y00946302D01*
X01649705Y00922070D02*
Y00947355D01*
X01641709Y01218458D02*
X01661287D01*
X01396450Y00929666D02*
X01405993D01*
X01416279Y00939952D02*
Y00957224D01*
X01374902Y00929768D02*
X01394713D01*
X01405993Y00929666D02*
X01416279Y00939952D01*
X01786357Y00983894D02*
X01794993D01*
X01777721Y00975258D02*
X01786357Y00983894D01*
X01794993D02*
X01799565Y00988466D01*
X01498575Y00955700D02*
X01508326D01*
X01395705Y01025422D02*
X01403707D01*
X01449045Y00903376D02*
Y00942746D01*
X01278382Y00962330D02*
X01278611Y00962558D01*
X01277781Y00963388D02*
X01278611Y00962558D01*
X01637513Y00940840D02*
Y00947568D01*
X01730731Y01270660D02*
X01732255Y01272184D01*
X01667231Y00916240D02*
Y00940460D01*
X01654277Y00925602D02*
Y00939444D01*
X01752703Y01052982D02*
X01753973Y01054252D01*
X01356105Y00929768D02*
X01356843Y00929030D01*
X01336802Y00929768D02*
X01355851D01*
X01356534Y00929085D01*
X01610783Y00926618D02*
X01617005Y00932840D01*
X01622781D01*
X01619479Y00949858D02*
X01635222D01*
X01611097Y00941476D02*
X01619479Y00949858D01*
X01611097Y00935126D02*
Y00941476D01*
X01566393Y00961542D02*
X01569695Y00964844D01*
X01565479Y00961542D02*
X01566393D01*
X01562939Y00959002D02*
X01565479Y00961542D01*
X01559165Y00959002D02*
X01562939D01*
X01570318D02*
X01573366Y00962050D01*
X01566531Y00959002D02*
X01570318D01*
X01563853Y00956324D02*
X01566531Y00959002D01*
X01563853Y00954292D02*
Y00956324D01*
X01568425Y00954430D02*
X01570457D01*
X01575537Y00959510D01*
X01559535Y00961542D02*
Y00963828D01*
X01553947Y00957376D02*
X01558113Y00961542D01*
X01556487Y00956324D02*
X01559165Y00959002D01*
X01654277Y00925602D02*
X01694663Y00885216D01*
X01575537Y00959510D02*
X01632179D01*
X01633449Y00960780D01*
X01670569D01*
X01740891Y00999514D02*
X01754481Y01013104D01*
X01740891Y00985926D02*
Y00999514D01*
X01747241Y00994054D02*
X01754481D01*
X01743431Y00990244D02*
X01747241Y00994054D01*
X01743431Y00984874D02*
Y00990244D01*
X01671803Y00965606D02*
X01673835Y00967638D01*
X01667739Y00965606D02*
X01671803D01*
X01661019Y00965352D02*
X01665845Y00970178D01*
X01654277Y00965352D02*
X01661019D01*
X01610589Y00975803D02*
X01678915Y01044128D01*
X01548613Y00925728D02*
Y00972374D01*
X01552042Y00975803D01*
X01610589D01*
X01546073Y00910742D02*
X01555471Y00901344D01*
X01550835Y00978497D02*
X01609691D01*
X01546073Y00910742D02*
Y00973734D01*
X01550835Y00978497D01*
X01533663Y00981037D02*
X01608639D01*
X01607587Y00983577D02*
X01663421Y01039411D01*
X01532611Y00983577D02*
X01607587D01*
X01573366Y00962050D02*
X01600429D01*
X01581887Y00954430D02*
X01639037D01*
X01580835Y00956970D02*
X01640089D01*
X01649705Y00947355D01*
X01548613Y00925728D02*
X01573251Y00901090D01*
X01609691Y00978497D02*
X01676375Y01045181D01*
X01508326Y00955700D02*
X01533663Y00981037D01*
X01514386Y00965352D02*
X01532611Y00983577D01*
X01608639Y00981037D02*
X01670787Y01043185D01*
X01507973Y00965352D02*
X01514386D01*
X01663421Y01039411D02*
Y01080276D01*
X01670787Y01043185D02*
Y01071524D01*
X01676375Y01045181D02*
Y01060983D01*
X01678915Y01044128D02*
Y01053236D01*
X01600429Y00962050D02*
X01687110Y01048732D01*
X01635222Y00949858D02*
X01637513Y00947568D01*
X01639037Y00954430D02*
X01647165Y00946302D01*
X01623797Y00933856D02*
Y00940840D01*
X01622781Y00932840D02*
X01623797Y00933856D01*
Y00892454D02*
Y00924840D01*
X01638783Y00878456D02*
Y00913282D01*
X01637513Y00914552D02*
X01638783Y00913282D01*
X01637513Y00914552D02*
Y00924586D01*
X01365479Y01030884D02*
X01366495D01*
X01360017Y01025422D02*
X01365479Y01030884D01*
X01721333Y01070000D02*
X01754099D01*
X01693139Y01098194D02*
X01721333Y01070000D01*
X01639291Y01098194D02*
X01693139D01*
X01610589Y01126896D02*
X01639291Y01098194D01*
X01537691Y01126896D02*
X01610589D01*
X01729461Y01077874D02*
X01741145D01*
X01729409Y01077823D02*
X01729461Y01077874D01*
X01727305Y01077823D02*
X01729409D01*
X01727254Y01077874D02*
X01727305Y01077823D01*
X01723365Y01077874D02*
X01727254D01*
X01676375Y01124864D02*
X01723365Y01077874D01*
X01789496Y01033424D02*
X01789938Y01033866D01*
X01789816Y01053744D02*
X01789938Y01053866D01*
X01298701Y01008557D02*
Y01009778D01*
X01356951Y01025422D02*
X01360017D01*
X01286993Y01017422D02*
Y01018640D01*
X01279727Y01025905D02*
X01286993Y01018640D01*
X01279727Y01025905D02*
X01279827Y01025805D01*
X01327633Y01017422D02*
Y01024280D01*
X01326491Y01025422D02*
X01327633Y01024280D01*
X01726825Y01231448D02*
X01730477Y01235100D01*
X01317752Y00918134D02*
Y00929768D01*
X01356843Y00919124D02*
Y00929030D01*
X01298703Y00929768D02*
X01317497D01*
X01259333D02*
X01277365D01*
X01278484Y00929666D02*
X01288137D01*
X01678014Y01079144D02*
X01697711D01*
X01676744Y01077874D02*
X01678014Y01079144D01*
X01668501Y01077874D02*
X01676744D01*
X01670787Y01071524D02*
X01671295Y01072032D01*
X01674343Y01082954D02*
X01674851Y01082446D01*
X01667993Y01078382D02*
X01668501Y01077874D01*
X01666977Y01087526D02*
X01696949D01*
X01676375Y01060983D02*
X01689964Y01074572D01*
X01611351Y00897396D02*
Y00903122D01*
X01565377Y00890422D02*
Y00891692D01*
X01560400Y00885446D02*
X01565377Y00890422D01*
X01555471Y00890676D02*
Y00892200D01*
X01550899Y00886104D02*
X01555471Y00890676D01*
X01550899Y00878623D02*
Y00886104D01*
X01570203Y00878623D02*
Y00896264D01*
X01565631Y00900836D02*
X01570203Y00896264D01*
X01568400Y00876820D02*
X01570203Y00878623D01*
X01545057Y00888390D02*
Y00892200D01*
X01540739Y00878623D02*
Y00884072D01*
X01545057Y00888390D01*
X01640403Y01219860D02*
X01640561Y01219702D01*
X01629893Y01219860D02*
X01640403D01*
X01707617Y01231448D02*
X01726825D01*
X01649705Y00922070D02*
X01685011Y00886764D01*
X01334527Y00906678D02*
X01340732Y00900473D01*
X01321029Y00858756D02*
X01321670D01*
X01279042Y00988898D02*
Y01008609D01*
X01298042Y00947191D02*
Y00963388D01*
X01322945Y00905408D02*
X01327125D01*
X01374902Y00963320D02*
X01384783D01*
X01298169Y00902614D02*
Y00905916D01*
X01288400Y00892846D02*
X01298169Y00902614D01*
X01326617Y00905916D02*
X01327125Y00905408D01*
X01336523Y00888898D02*
X01336777D01*
X01573251Y00901090D02*
X01574775D01*
X01809938Y01013572D02*
Y01013707D01*
X01799565Y01003198D02*
X01809938Y01013572D01*
X01799565Y00988466D02*
Y01003198D01*
X01770481Y00975258D02*
X01777721D01*
X01770481Y00994054D02*
X01789750D01*
X01789176Y01013104D02*
X01789938Y01013867D01*
X01770481Y01013104D02*
X01789176D01*
X01754481Y01033424D02*
Y01033550D01*
X01743177Y01033424D02*
X01751433D01*
X01753973Y01054252D02*
X01754481Y01053744D01*
X01754353D02*
X01754481D01*
X01696949Y01087526D02*
X01720571Y01063904D01*
X01697711Y01079144D02*
X01721587Y01055268D01*
X01384783Y01283106D02*
X01386561Y01281328D01*
Y01197508D02*
Y01281328D01*
X01271753Y00981608D02*
X01279042Y00988898D01*
X01267689Y00981608D02*
X01271753D01*
X01384783Y01283106D02*
Y01293012D01*
X01260602Y01025778D02*
X01279600D01*
X01666099Y01082954D02*
X01674343D01*
X01663421Y01080276D02*
X01666099Y01082954D01*
X01678915Y01053236D02*
X01696187Y01070508D01*
X01696029Y01148486D02*
X01703299D01*
X01777721Y01217066D02*
Y01224528D01*
X01774673Y01214018D02*
X01777721Y01217066D01*
X01759687Y01214018D02*
X01774673D01*
X01629639Y00881278D02*
Y00886612D01*
X01623797Y00892454D02*
X01629639Y00886612D01*
X01687110Y01048732D02*
X01694917D01*
X01695171Y01284026D02*
X01700155Y01279042D01*
X01707363D01*
X01727543Y01279314D02*
X01732255Y01284026D01*
X01721144Y01279314D02*
X01727543D01*
X01721333Y01270660D02*
X01730731D01*
X01695171Y01272026D02*
X01696537Y01270660D01*
X01707363D01*
X01318198Y01025422D02*
X01326491D01*
X01540231Y00892062D02*
Y00895756D01*
X01528400Y00880232D02*
X01540231Y00892062D01*
X01632783Y01270152D02*
X01646911D01*
X01630909Y01272026D02*
X01632783Y01270152D01*
X01770481Y01053744D02*
X01789816D01*
X01770481Y01033424D02*
X01789496D01*
X01798295Y01213256D02*
Y01224528D01*
X01674343Y00878623D02*
Y00893840D01*
X01540231Y00895756D02*
X01545311Y00900836D01*
X01720571Y01261262D02*
X01720729Y01261420D01*
X01707013Y01279392D02*
X01707363Y01279042D01*
X01777721Y01224528D02*
Y01226402D01*
X01694663Y00878623D02*
Y00885216D01*
X01721237Y01169822D02*
X01725905Y01165154D01*
X01691361Y01153154D02*
X01696029Y01148486D01*
X01696029Y01169822D02*
X01703807D01*
X01691361Y01165154D02*
X01696029Y01169822D01*
X01716039D02*
X01721237D01*
X01717269Y01148232D02*
X01720983D01*
X01725905Y01153154D01*
X01298822Y01025422D02*
X01318198D01*
X01337575D02*
X01356951D01*
X01279119Y01026514D02*
X01279727Y01025905D01*
X01279600Y01025778D02*
X01279727Y01025905D01*
X01297915Y00991006D02*
X01306043D01*
X01297915D02*
X01298701Y00991793D01*
X01278382Y00945769D02*
Y00962330D01*
X01353795Y00989990D02*
X01355852Y00992048D01*
X01354531Y00963549D02*
X01355852D01*
Y00945768D02*
Y00963549D01*
X01343127Y00960272D02*
X01345667Y00962812D01*
X01296391Y01105052D02*
Y01158646D01*
X01300709Y01162964D01*
X01307059Y01098702D02*
X01307930Y01097831D01*
Y01084062D02*
Y01097831D01*
X01301471Y01097178D02*
Y01099972D01*
X01296391Y01105052D02*
X01301471Y01099972D01*
X01775522Y01301420D02*
Y01313245D01*
X01775435Y01313332D02*
X01775522Y01313245D01*
X01374369Y00991768D02*
X01374902Y00992302D01*
X01348207Y00989990D02*
X01353795D01*
X01298701Y00991793D02*
Y01008557D01*
X01374902Y00945768D02*
Y00963320D01*
X01374673D02*
X01374902Y00963549D01*
X01345667Y00962812D02*
X01353795D01*
X01354531Y00963549D01*
X01298042Y00946176D02*
Y00947191D01*
X01297915Y00946048D02*
X01298042Y00946176D01*
X01310869Y00878623D02*
Y00886104D01*
X01800602Y01301550D02*
Y01310771D01*
X01548638Y01255395D02*
Y01263492D01*
X01390346Y01152824D02*
Y01165671D01*
X01383955Y01172062D02*
X01390346Y01165671D01*
X01350930Y01172062D02*
X01383955D01*
X01357395Y01192198D02*
X01357478Y01192115D01*
X01397687D01*
X01186380Y01181762D02*
Y01197019D01*
X01378653Y01180032D02*
X01378873Y01179811D01*
X01369061Y01180032D02*
X01378653D01*
X01366091Y01177062D02*
X01369061Y01180032D01*
X01350930Y01177062D02*
X01366091D01*
X01380453Y01167062D02*
X01384560Y01162955D01*
X01350930Y01167062D02*
X01380453D01*
X01250024Y01190115D02*
Y01193644D01*
Y01190115D02*
X01256392Y01183746D01*
X01260674D01*
X01262930Y01186002D01*
Y01195062D01*
X01379235Y01200844D02*
Y01235515D01*
X01373038Y01241711D02*
X01379235Y01235515D01*
X01373038Y01241711D02*
Y01285612D01*
X01599159Y00878484D02*
Y00900328D01*
X01301471Y01097178D02*
X01302930Y01095719D01*
Y01084062D02*
Y01095719D01*
X01374902Y00963320D02*
Y00963549D01*
X01298042Y00963388D02*
X01306364D01*
X01310615Y00967638D01*
X01310869Y00967892D01*
X01376139Y00992784D02*
X01381227D01*
X01383767Y00995324D01*
X01374242Y00990888D02*
X01374746Y00991391D01*
X01310869Y00886104D02*
X01315441Y00890676D01*
Y00891438D01*
X01781023Y01115660D02*
Y01119978D01*
X01785087Y01124043D01*
X01785849D01*
X01561567Y01262959D02*
X01562608Y01264000D01*
X01561567Y01252880D02*
Y01262959D01*
X01548867Y01252880D02*
Y01263548D01*
X01548359Y01264056D02*
X01548867Y01263548D01*
G54D81*
X01800602Y01289550D02*
X01815981D01*
X01760158Y01289420D02*
X01775522D01*
X01677645Y01212748D02*
X01680185D01*
X01637848Y01234846D02*
X01640967Y01231728D01*
X01465610Y01141182D02*
X01473490D01*
X01392400Y00858756D02*
Y00878482D01*
X01394435Y00880516D01*
X01425169Y00859779D02*
Y00885088D01*
X01465734Y01153058D02*
X01475715D01*
X01465610Y01153182D02*
X01465734Y01153058D01*
X01473490Y01141182D02*
X01477493Y01145184D01*
X01628078Y01234846D02*
X01637848D01*
X01696187Y01227480D02*
X01698727Y01224940D01*
X01688395Y01227480D02*
X01696187D01*
X01687957Y01227918D02*
X01688395Y01227480D01*
X01700251Y01207668D02*
X01705839D01*
X01707617Y01209446D01*
Y01219448D01*
X01623035Y01289964D02*
X01624971D01*
X01630909Y01284026D01*
X01759687Y01288948D02*
X01760158Y01289420D01*
X01452093Y01129182D02*
X01453491D01*
X01451331D02*
X01452093D01*
X01799057Y01236624D02*
X01800485Y01238052D01*
X01475461Y01313332D02*
X01476381Y01314252D01*
X01486891D01*
X01600683Y01189380D02*
X01601191Y01189888D01*
Y01200810D01*
X01465301Y01246592D02*
X01473491D01*
X01669929Y01305616D02*
X01672311Y01307998D01*
X01662151Y01305616D02*
X01669929D01*
X01683354Y01215918D02*
X01687957D01*
X01455130Y01295563D02*
X01460475Y01290218D01*
X01455130Y01295563D02*
Y01304662D01*
X01460475Y01290218D02*
X01480033D01*
X01787934Y01238857D02*
X01788389Y01238402D01*
X01779050Y01238857D02*
X01787934D01*
X01809629Y01238052D02*
X01809979Y01238402D01*
X01680185Y01212748D02*
X01683354Y01215918D01*
X01473491Y01246592D02*
X01475461Y01248562D01*
X01476223D01*
X01815981Y01289550D02*
X01816329Y01289202D01*
X01453491Y01129182D02*
X01463651Y01119022D01*
X01800485Y01238052D02*
X01809629D01*
G54D82*
X01697899Y00921476D02*
Y00959764D01*
Y00921476D02*
X01744400Y00874975D01*
Y00858756D02*
Y00874975D01*
X01280400Y00879766D02*
X01281405Y00880770D01*
X01280400Y00858756D02*
Y00879766D01*
X01325601Y00880516D02*
X01328400Y00877717D01*
Y00858756D02*
Y00877717D01*
X01432400Y00877588D02*
X01436345Y00881532D01*
X01432400Y00858756D02*
Y00877588D01*
X01606525Y00878815D02*
X01608400Y00876939D01*
Y00858756D02*
Y00876939D01*
X01664400Y00875146D02*
X01669771Y00880516D01*
X01664400Y00858756D02*
Y00875146D01*
X01720400Y00873996D02*
X01726921Y00880516D01*
X01720400Y00858756D02*
Y00873996D01*
X01412304Y01301836D02*
X01412480Y01302012D01*
X01409729Y01301932D02*
X01412304Y01301836D01*
X01409709Y01301933D02*
X01409729Y01301932D01*
X01408436Y01303268D02*
X01409830Y01304662D01*
X01410293Y01304199D02*
X01412480Y01302012D01*
X01409830Y01304662D02*
X01410293Y01304199D01*
X01373861Y01303268D02*
X01408436D01*
X01260602Y00997635D02*
Y01009778D01*
X01408913Y00949858D02*
Y00954938D01*
X01475841Y01098702D02*
X01486637D01*
X01488161Y01100226D01*
X01479651Y01119022D02*
Y01130578D01*
X01480795Y01131722D01*
X01670762Y00992252D02*
X01681734D01*
X01668247Y00989736D02*
X01670762Y00992252D01*
X01671067Y01008252D02*
X01681734D01*
X01668247Y01011072D02*
X01671067Y01008252D01*
X01448029Y01087780D02*
Y01088034D01*
X01271058Y00963388D02*
X01277781D01*
X01267435Y00959764D02*
X01271058Y00963388D01*
X01259815Y00998422D02*
Y01000150D01*
Y00998422D02*
X01260602Y00997635D01*
X01233966Y00938174D02*
X01239370Y00943578D01*
X01229081Y00938174D02*
X01233966D01*
X01643101Y01121650D02*
X01644187Y01122736D01*
X01649959D01*
X01525753Y01121720D02*
X01529563Y01117910D01*
X01533373D01*
X01511625Y01118006D02*
X01515339Y01121720D01*
X01507973Y01118006D02*
X01511625D01*
X01525753Y01109720D02*
X01543375D01*
X01545057Y01111402D01*
X01514927Y01110132D02*
X01515339Y01109720D01*
X01503401Y01110132D02*
X01514927D01*
X01315441Y01068222D02*
X01317930Y01070712D01*
X01299185Y01009040D02*
Y01010056D01*
X01333475Y00949096D02*
Y00960018D01*
X01199363Y01079652D02*
Y01084320D01*
X01209777Y01094734D01*
X01176503Y01079652D02*
Y01087368D01*
X01184377Y01095242D01*
X01355852Y00929768D02*
X01356105D01*
X01707134Y01019226D02*
X01708379Y01020470D01*
X01602365Y01053140D02*
X01606525Y01057300D01*
X01654180Y01236116D02*
X01659357Y01230940D01*
X01649959Y01236116D02*
X01654180D01*
X01393952Y00945768D02*
X01396450D01*
X01404721Y00945666D02*
X01408913Y00949858D01*
X01396450Y00945666D02*
X01404721D01*
X01278357Y01009294D02*
Y01009548D01*
Y01009294D02*
X01279042Y01008609D01*
X01298042Y00947191D02*
X01299185Y00946048D01*
X01602365Y01037488D02*
Y01053140D01*
X01602365Y01020628D02*
Y01027074D01*
X01600175Y01018438D02*
X01602365Y01020628D01*
X01590365Y01027074D02*
X01590537Y01026902D01*
Y01018438D02*
Y01026902D01*
X01590365Y01037488D02*
Y01044504D01*
X01581125Y01053744D02*
X01590365Y01044504D01*
X01377163Y01092352D02*
X01382450Y01097640D01*
Y01102472D01*
X01559281Y01042822D02*
X01564361D01*
X01562608Y01276254D02*
Y01287399D01*
Y01275492D02*
Y01276254D01*
X01548638D02*
Y01287450D01*
Y01275492D02*
Y01276254D01*
X01659859Y01110736D02*
X01661033Y01111910D01*
X01582395Y01171950D02*
Y01179474D01*
Y01171950D02*
X01582999Y01171346D01*
X01810487Y01098263D02*
X01813535D01*
X01810361Y01098389D02*
X01810487Y01098263D01*
X01800835Y01098389D02*
X01810361D01*
X01810487Y01114262D02*
X01810867Y01113883D01*
X01828775D01*
X01609827Y00891946D02*
Y00892454D01*
X01569091Y01031900D02*
X01569187Y01031996D01*
Y01037996D01*
X01564361Y01042822D02*
X01569187Y01037996D01*
X01557091Y01019866D02*
Y01031900D01*
Y01019866D02*
X01559281Y01017676D01*
X01659859Y01122736D02*
X01666145D01*
X01651133Y01110640D02*
X01651229Y01110736D01*
X01643101Y01110640D02*
X01651133D01*
X01666145Y01122736D02*
X01667231Y01121650D01*
X01661033Y01111910D02*
X01667231D01*
X01594333Y01161790D02*
X01594999Y01162456D01*
X01594333Y01154328D02*
Y01161790D01*
X01580305Y01159762D02*
X01582999Y01162456D01*
X01580305Y01154328D02*
Y01159762D01*
X01594491Y01171854D02*
X01594999Y01171346D01*
X01594491Y01171854D02*
Y01179474D01*
X01436345Y00881532D02*
Y00882268D01*
X01504417Y01049934D02*
X01519403Y01034948D01*
X01521181D01*
X01533881Y01038248D02*
X01537180Y01034948D01*
X01533881Y01038248D02*
Y01047902D01*
X01458036Y01098042D02*
X01461898D01*
X01393952Y00997636D02*
Y01009778D01*
X01316965Y00998118D02*
Y01010058D01*
X01364742Y00963388D02*
Y00970407D01*
X01342619Y00976528D02*
X01345921Y00973226D01*
X01336802Y00997331D02*
Y01009778D01*
X01315695Y00996848D02*
X01316965Y00998118D01*
X01288542Y00988746D02*
Y00990888D01*
X01333475Y00949096D02*
X01337539Y00945032D01*
X01259333Y00945768D02*
Y00957961D01*
X01288263Y00980592D02*
X01289025Y00981354D01*
X01288263Y00971017D02*
Y00980592D01*
X01393165Y00996848D02*
X01393952Y00997636D01*
X01770705Y01107883D02*
X01771055Y01107533D01*
X01778737Y01133695D02*
X01779245Y01134202D01*
X01774515Y01128710D02*
X01779499Y01133695D01*
X01774515Y01124043D02*
Y01128710D01*
X01317981Y00945540D02*
X01322299Y00949858D01*
Y00959256D01*
X01288263Y00971017D02*
X01288542Y00970737D01*
Y00963388D02*
Y00970737D01*
X01258545Y00958748D02*
X01259333Y00957961D01*
X01316965Y00996848D02*
Y00998118D01*
X01336802Y00997331D02*
X01337285Y00996848D01*
X01277930Y01185743D02*
X01287755Y01175918D01*
Y01163726D02*
Y01175918D01*
X01317930Y01070712D02*
Y01084062D01*
X01336785Y01098949D02*
X01342111Y01093622D01*
X01336785Y01103536D02*
X01340311Y01107063D01*
X01350930D01*
X01336785Y01098949D02*
Y01103536D01*
X01213841Y01234592D02*
X01214349D01*
X01217651Y01231290D01*
X01239281Y01242172D02*
X01251610D01*
X01239241Y01242212D02*
X01239281Y01242172D01*
X01357488Y01275015D02*
X01361161Y01278687D01*
Y01287932D01*
X01476380Y01302253D02*
X01486891D01*
X01475461Y01303172D02*
X01476380Y01302253D01*
X01780515Y01107533D02*
X01782705Y01105342D01*
Y01098643D02*
Y01105342D01*
X01465301Y01234592D02*
X01472921D01*
X01662151Y01293616D02*
X01667897D01*
X01277930Y01185743D02*
Y01195062D01*
X01374902Y01007288D02*
X01375385Y01007770D01*
X01298701Y01008557D02*
X01299185Y01009040D01*
X01298042Y01007898D02*
X01298701Y01008557D01*
X01207190Y01250701D02*
Y01261222D01*
Y01250701D02*
X01207420Y01250472D01*
X01186143Y01218999D02*
X01186380Y01218762D01*
X01257930Y01212202D02*
X01258690Y01212962D01*
X01257930Y01195062D02*
Y01212202D01*
X01397068Y01209917D02*
X01404592Y01217441D01*
Y01235612D01*
X01251161Y01241723D02*
X01251610Y01242172D01*
X01251161Y01233192D02*
Y01241723D01*
Y01233192D02*
X01258690Y01225662D01*
Y01212962D02*
Y01225662D01*
X01207190Y01180572D02*
X01208381Y01181762D01*
X01207190Y01164702D02*
Y01180572D01*
X01270074Y01256750D02*
X01273356Y01260033D01*
X01277510D01*
X01186380Y01218762D02*
Y01222682D01*
X01178281Y01230782D02*
X01186380Y01222682D01*
X01325855Y01067460D02*
X01326109Y01067714D01*
X01224413Y01231290D02*
X01225271Y01230432D01*
X01217651Y01231290D02*
X01224413D01*
X01224061Y01157062D02*
X01239930D01*
X01224001Y01157122D02*
X01224061Y01157062D01*
X01375385Y01007770D02*
Y01008786D01*
X01606525Y00878815D02*
Y00888644D01*
X01585088Y01193545D02*
Y01199642D01*
Y01193545D02*
X01587221Y01191412D01*
X01279373Y00980592D02*
X01280040D01*
X01280389D02*
X01288542Y00988746D01*
X01280040Y00980592D02*
X01280214Y00980767D01*
X01201141Y01189002D02*
Y01196746D01*
Y01189002D02*
X01208381Y01181762D01*
X01667897Y01293616D02*
X01672565Y01288948D01*
X01673835D01*
X01707134Y01006602D02*
Y01019226D01*
X01472921Y01234592D02*
X01475461Y01232052D01*
X01476223D01*
X01770705Y01098643D02*
Y01107883D01*
X01771055Y01107533D02*
X01771371Y01107848D01*
Y01108040D01*
X01548638Y01287450D02*
X01548867Y01287678D01*
X01562075Y01287932D02*
X01562608Y01287399D01*
X01719047Y00975766D02*
X01722349D01*
X01708125Y00986688D02*
X01719047Y00975766D01*
X01448029Y01088034D02*
X01458036Y01098042D01*
X01452093Y01129182D02*
Y01129436D01*
X01364742Y00983361D02*
Y00990888D01*
Y00983361D02*
X01368273Y00979830D01*
X01345921Y00973226D02*
X01361923D01*
X01364742Y00970407D01*
X01606525Y00888644D02*
X01609827Y00891946D01*
G54D83*
X01758377Y01026896D02*
X01761425D01*
X01735850D02*
X01758377D01*
X01761425D02*
X01767433Y01020889D01*
Y01016152D02*
Y01020889D01*
Y01013104D02*
Y01016152D01*
X01734904Y01024610D02*
X01757256D01*
X01760655Y01021211D01*
X01733957Y01022324D02*
X01756309D01*
X01758115Y01020518D01*
Y00984576D02*
Y01020518D01*
Y00984576D02*
X01767433Y00975258D01*
X01760655Y01006576D02*
Y01021211D01*
X01707998Y01048283D02*
X01733957Y01022324D01*
X01708945Y01050569D02*
X01734904Y01024610D01*
X01689583Y01054252D02*
X01700674D01*
X01704986Y01053173D02*
Y01056629D01*
Y01053173D02*
X01707590Y01050569D01*
X01706643Y01048283D02*
X01707998D01*
X01700674Y01054252D02*
X01706643Y01048283D01*
X01707590Y01050569D02*
X01708945D01*
X01701013Y01060602D02*
X01704986Y01056629D01*
X01709431Y01053316D02*
Y01055014D01*
Y01053316D02*
X01735850Y01026896D01*
X01760655Y01006576D02*
X01767433Y00999798D01*
X01789750Y00994054D02*
X01789938Y00993866D01*
X01767433Y00994054D02*
Y00999798D01*
G54D84*
X01211960Y01073048D02*
D03*
Y01025550D02*
D03*
X01185950Y01073008D02*
D03*
X01815059Y01209954D02*
D03*
X01237971Y01072540D02*
D03*
X01537691Y01201572D02*
D03*
X01237971Y01025550D02*
D03*
X01730477Y01194714D02*
D03*
Y01232814D02*
D03*
G54D85*
X01451077Y00892708D02*
D03*
X01461745Y00883310D02*
D03*
X01745971Y00883056D02*
D03*
X01501115Y00904900D02*
D03*
X01635735Y01051712D02*
D03*
X01697899Y00959764D02*
D03*
X01724889Y00932840D02*
D03*
X01611859Y00881024D02*
D03*
X01408913Y00954938D02*
D03*
X01756385Y01087272D02*
D03*
X01741145Y01076350D02*
D03*
X01499337Y01098448D02*
D03*
X01488415Y01087780D02*
D03*
X01480795Y01131722D02*
D03*
X01477493Y01145184D02*
D03*
X01475715Y01153058D02*
D03*
X01677899Y01212240D02*
D03*
X01668247Y00989736D02*
D03*
Y00999896D02*
D03*
Y01011072D02*
D03*
X01457233Y00933000D02*
D03*
X01442441Y00935634D02*
D03*
X01408405Y00968146D02*
D03*
X01362431Y00904392D02*
D03*
X01364971Y00887628D02*
D03*
X01394435Y00880516D02*
D03*
X01383005D02*
D03*
X01448029Y01087780D02*
D03*
X01545819Y01081176D02*
D03*
X01521181Y00960018D02*
D03*
X01660917Y00929792D02*
D03*
X01461745Y01033424D02*
D03*
X01789151Y01282598D02*
D03*
X01312392Y00908109D02*
D03*
X01271753Y00991260D02*
D03*
X01259815Y01000150D02*
D03*
X01267435Y00959764D02*
D03*
X01272769Y00973480D02*
D03*
X01667231Y00940460D02*
D03*
X01654277Y00939444D02*
D03*
X01738097Y01052982D02*
D03*
X01416279Y00957224D02*
D03*
X01568425Y00954430D02*
D03*
X01561059D02*
D03*
X01569695Y00964844D02*
D03*
X01559535Y00963828D02*
D03*
X01523213Y00900582D02*
D03*
X01572932Y00994054D02*
D03*
X01522705Y00891946D02*
D03*
X01667739Y00965606D02*
D03*
X01654277Y00965352D02*
D03*
X01229081Y00938174D02*
D03*
X01366495Y01030884D02*
D03*
X01754099Y01070000D02*
D03*
X01449045Y00942746D02*
D03*
X01620495Y01022502D02*
D03*
X01315441Y01068222D02*
D03*
X01333475Y00960018D02*
D03*
X01343381Y00959764D02*
D03*
X01415517Y01016914D02*
D03*
X01414247Y01007770D02*
D03*
X01365733Y01016660D02*
D03*
X01286993Y01017422D02*
D03*
X01328141Y01030630D02*
D03*
X01288771Y01027328D02*
D03*
X01327633Y01017422D02*
D03*
X01614653Y01210970D02*
D03*
X01671803Y01249324D02*
D03*
X01367765Y00912266D02*
D03*
X01550137Y01015136D02*
D03*
X01397483Y00917346D02*
D03*
X01509223Y01061745D02*
D03*
X01337793Y00915314D02*
D03*
X01500353Y01061745D02*
D03*
X01290041Y00913790D02*
D03*
X01538453Y01071524D02*
D03*
X01356843Y00919124D02*
D03*
X01509223Y01076650D02*
D03*
X01318235Y00919886D02*
D03*
X01503909Y01081476D02*
D03*
X01288137Y00929666D02*
D03*
X01708379Y01020470D02*
D03*
X01507973Y00965352D02*
D03*
X01498575Y00955700D02*
D03*
X01564615Y01007262D02*
D03*
X01566393Y01000658D02*
D03*
X01671295Y01072032D02*
D03*
X01674851Y01082446D02*
D03*
X01667993Y01078382D02*
D03*
X01666977Y01087526D02*
D03*
X01635735Y01018438D02*
D03*
X01560297Y01139342D02*
D03*
X01697711Y00892962D02*
D03*
X01575029Y01183284D02*
D03*
X01613637Y01196492D02*
D03*
X01679931Y00880516D02*
D03*
X01673495Y01116650D02*
D03*
X01669263Y00892454D02*
D03*
X01670533Y01131722D02*
D03*
X01624305Y00884072D02*
D03*
X01643609Y01091590D02*
D03*
X01611351Y00903122D02*
D03*
X01556741Y01190142D02*
D03*
X01585697Y00891692D02*
D03*
X01646911Y01259992D02*
D03*
X01528039Y01190650D02*
D03*
X01606525Y01057300D02*
D03*
X01565377Y00891692D02*
D03*
X01606779Y01180236D02*
D03*
X01555471Y00892200D02*
D03*
X01615669Y01182522D02*
D03*
X01565631Y00901344D02*
D03*
X01626337Y01185316D02*
D03*
X01545057Y00892200D02*
D03*
X01629639Y01178966D02*
D03*
X01638275Y01138414D02*
D03*
X01446759Y00881786D02*
D03*
X01643101Y01143406D02*
D03*
X01629893Y01219860D02*
D03*
X01649959Y01236116D02*
D03*
X01628078Y01234846D02*
D03*
X01670279Y01230528D02*
D03*
X01677645Y01221892D02*
D03*
X01555471Y00901344D02*
D03*
X01545311Y00901598D02*
D03*
X01611097Y00935126D02*
D03*
X01610783Y00926618D02*
D03*
X01365479Y00937666D02*
D03*
X01334527Y00906678D02*
D03*
X01298169Y00905916D02*
D03*
X01275817Y00895756D02*
D03*
X01267943Y00903122D02*
D03*
X01326617Y00905916D02*
D03*
X01325855Y00892200D02*
D03*
X01333221Y00896264D02*
D03*
X01336523Y00888898D02*
D03*
X01460983Y00916330D02*
D03*
X01574775Y00901090D02*
D03*
X01750543Y00958240D02*
D03*
X01689583Y01054252D02*
D03*
X01701013Y01060602D02*
D03*
X01709431Y01055014D02*
D03*
X01740383Y01061872D02*
D03*
X01743177Y01033424D02*
D03*
X01513053Y00880516D02*
D03*
X01513162Y00891692D02*
D03*
X01533119Y00891438D02*
D03*
X01506195Y00924966D02*
D03*
X01511275Y00932840D02*
D03*
X01581125Y01053744D02*
D03*
X01507973Y01118006D02*
D03*
X01503401Y01110132D02*
D03*
X01377163Y01092352D02*
D03*
X01559281Y01042822D02*
D03*
X01590537Y01018438D02*
D03*
X01545057Y01111402D02*
D03*
X01600175Y01018438D02*
D03*
X01720571Y01063904D02*
D03*
X01721587Y01055268D02*
D03*
X01623543Y01010818D02*
D03*
X01537691Y01126896D02*
D03*
X01623543Y01043838D02*
D03*
X01623797Y01050696D02*
D03*
X01542517Y01139596D02*
D03*
X01623718Y01147391D02*
D03*
X01575283Y01142616D02*
D03*
X01600537Y01147832D02*
D03*
X01643101Y01121650D02*
D03*
Y01110640D02*
D03*
X01533373Y01117910D02*
D03*
X01531595Y01016660D02*
D03*
X01542263Y01015136D02*
D03*
X01504417Y01049934D02*
D03*
X01532611Y01066444D02*
D03*
Y01086256D02*
D03*
X01538453Y01091336D02*
D03*
X01509223Y01096416D02*
D03*
X01533881Y01047902D02*
D03*
X01559281Y01017676D02*
D03*
X01491717Y00992530D02*
D03*
X01488161Y01100226D02*
D03*
X01384783Y01293012D02*
D03*
X01223239Y00911504D02*
D03*
X01374115Y00904900D02*
D03*
X01402055Y00899820D02*
D03*
X01359129Y00892643D02*
D03*
X01218667Y00971956D02*
D03*
X01366403Y01005866D02*
D03*
X01289025Y01005992D02*
D03*
X01407897Y00998880D02*
D03*
X01759687Y01214018D02*
D03*
X01632687Y00890930D02*
D03*
X01609827Y00892454D02*
D03*
X01721144Y01303934D02*
D03*
X01706855Y01304188D02*
D03*
X01721333Y01270660D02*
D03*
X01281405Y00880770D02*
D03*
X01273785Y00881024D02*
D03*
X01623035Y01289964D02*
D03*
X01676375Y01124864D02*
D03*
X01538199Y01178458D02*
D03*
X01694917Y01048732D02*
D03*
X01648181Y01304188D02*
D03*
X01565377Y01149502D02*
D03*
X01559281Y01155090D02*
D03*
X01647419D02*
D03*
X01635227Y01152804D02*
D03*
X01622527Y01154582D02*
D03*
X01589761Y01190142D02*
D03*
X01600429Y01189380D02*
D03*
X01689964Y01074572D02*
D03*
X01696187Y01070508D02*
D03*
X01565631Y00880516D02*
D03*
X01472921Y00916838D02*
D03*
X01435075Y00892708D02*
D03*
X01536929Y01152804D02*
D03*
X01522451Y00880110D02*
D03*
X01707363Y01270660D02*
D03*
Y01261008D02*
D03*
X01720571Y01261262D02*
D03*
X01721144Y01279314D02*
D03*
X01707363Y01279042D02*
D03*
X01555471Y00880516D02*
D03*
X01545311D02*
D03*
X01594333Y01154328D02*
D03*
X01582395Y01179474D02*
D03*
X01594491D02*
D03*
X01667231Y01111910D02*
D03*
Y01121650D02*
D03*
X01759687Y01288948D02*
D03*
X01436345Y00882268D02*
D03*
X01703807Y01169822D02*
D03*
X01716039D02*
D03*
X01716547Y01148486D02*
D03*
X01703299Y01148740D02*
D03*
X01425169Y00885088D02*
D03*
X01580305Y01154328D02*
D03*
X01386815Y00982878D02*
D03*
X01385799Y00964082D02*
D03*
X01408405Y00980338D02*
D03*
X01393165Y00996848D02*
D03*
X01673581Y01308252D02*
D03*
X01469111Y01131214D02*
D03*
X01771117Y01087213D02*
D03*
X01742475D02*
D03*
X01307821Y00957986D02*
D03*
X01322045Y00982878D02*
D03*
Y00971448D02*
D03*
X01310615Y00967638D02*
D03*
X01322299Y00959256D02*
D03*
X01293597Y00973226D02*
D03*
X01267435Y00981608D02*
D03*
X01297915Y00980338D02*
D03*
X01258545Y00958748D02*
D03*
X01316965Y00996848D02*
D03*
X01337285D02*
D03*
X01309599Y01124610D02*
D03*
X01335761Y01121308D02*
D03*
X01258291Y01102004D02*
D03*
Y01111910D02*
D03*
X01300709Y01162964D02*
D03*
X01287755Y01163726D02*
D03*
X01279881Y01163472D02*
D03*
X01276071Y01177442D02*
D03*
X01185901Y01153312D02*
D03*
X01194791D02*
D03*
X01176503Y01079652D02*
D03*
X01199363D02*
D03*
X01224001Y01089812D02*
D03*
X01224323Y01107230D02*
D03*
X01307059Y01098956D02*
D03*
X01306551Y01108862D02*
D03*
X01342111Y01093622D02*
D03*
X01382751Y01112672D02*
D03*
X01390371Y01140612D02*
D03*
X01317981Y01312062D02*
D03*
X01213841Y01234592D02*
D03*
X01239241Y01242212D02*
D03*
X01342111D02*
D03*
Y01234592D02*
D03*
Y01223162D02*
D03*
X01361161Y01287932D02*
D03*
X01475461Y01303172D02*
D03*
Y01313332D02*
D03*
X01761465Y01173572D02*
D03*
X01828775Y01113883D02*
D03*
Y01140553D02*
D03*
X01751051Y01229512D02*
D03*
Y01242212D02*
D03*
X01787881Y01214272D02*
D03*
X01800581Y01313332D02*
D03*
X01775435D02*
D03*
X01535405Y01219352D02*
D03*
X01511275Y01176680D02*
D03*
X01780515Y01107533D02*
D03*
X01260831Y00881786D02*
D03*
X01296899Y00891692D02*
D03*
X01183361Y01131722D02*
D03*
X01348969Y00902360D02*
D03*
X01335761Y00880516D02*
D03*
X01306297Y00990752D02*
D03*
X01386561Y01197508D02*
D03*
X01329665Y01210462D02*
D03*
X01726921Y00880516D02*
D03*
X01718031D02*
D03*
X01705331D02*
D03*
X01690091D02*
D03*
X01669771D02*
D03*
X01659611D02*
D03*
X01634211D02*
D03*
X01585951Y00900836D02*
D03*
X01385291D02*
D03*
X01325601Y00880516D02*
D03*
X01315441D02*
D03*
X01305281D02*
D03*
X01698727Y01224940D02*
D03*
X01646911Y01270152D02*
D03*
X01672311Y01275232D02*
D03*
X01646911Y01282852D02*
D03*
Y01293012D02*
D03*
X01474953Y01209700D02*
D03*
X01475969Y01271930D02*
D03*
X01475461Y01282344D02*
D03*
X01295040Y01068038D02*
D03*
X01390179Y01152574D02*
D03*
X01357478Y01192115D02*
D03*
X01397687D02*
D03*
X01378873Y01179811D02*
D03*
X01384560Y01162955D02*
D03*
X01379235Y01200844D02*
D03*
X01250024Y01193644D02*
D03*
X01284620Y01284525D02*
D03*
X01309850Y01209354D02*
D03*
X01207420Y01250472D02*
D03*
X01270074Y01256750D02*
D03*
X01396114Y01272701D02*
D03*
X01316659Y01209076D02*
D03*
X01353667Y01199768D02*
D03*
X01223998Y01138488D02*
D03*
X01262859Y01070382D02*
D03*
X01283007Y01100848D02*
D03*
X01221458Y01120454D02*
D03*
X01314443Y01244508D02*
D03*
X01395950Y01178932D02*
D03*
X01186199Y01197200D02*
D03*
X01303010Y01182086D02*
D03*
X01313124Y01182662D02*
D03*
X01322664Y01246205D02*
D03*
X01331440Y01293428D02*
D03*
X01340770Y01300366D02*
D03*
X01397068Y01209917D02*
D03*
X01195809Y01251097D02*
D03*
X01223744Y01262186D02*
D03*
X01309596Y01138234D02*
D03*
X01309088Y01163126D02*
D03*
X01394940Y01247454D02*
D03*
X01282672Y01137980D02*
D03*
X01279878Y01150934D02*
D03*
X01336070Y01162062D02*
D03*
Y01137022D02*
D03*
X01270156Y01274562D02*
D03*
X01297658Y01243898D02*
D03*
X01223565Y01178292D02*
D03*
X01373038Y01285612D02*
D03*
X01366746Y01223324D02*
D03*
X01369666Y01199828D02*
D03*
X01348463Y01184632D02*
D03*
X01178281Y01230782D02*
D03*
X01326109Y01067714D02*
D03*
X01224001Y01157122D02*
D03*
X01588491Y01249832D02*
D03*
X01613891Y01266342D02*
D03*
X01480033Y01290218D02*
D03*
X01535151Y00880516D02*
D03*
X01599159Y00900328D02*
D03*
X01279373Y00980592D02*
D03*
X01289533D02*
D03*
X01201141Y01196746D02*
D03*
X01209523D02*
D03*
X01222985Y01194206D02*
D03*
X01615161Y01305712D02*
D03*
X01722349Y00976528D02*
D03*
X01673835Y01288948D02*
D03*
X01788389Y01238402D02*
D03*
X01809979D02*
D03*
X01700251Y01207668D02*
D03*
X01720317Y01218590D02*
D03*
X01476223Y01232052D02*
D03*
Y01248562D02*
D03*
X01789913Y01108040D02*
D03*
X01800835Y01098389D02*
D03*
X01778991Y01133440D02*
D03*
X01771371Y01108040D02*
D03*
X01816329Y01289202D02*
D03*
X01798295Y01213256D02*
D03*
X01548867Y01287678D02*
D03*
X01562075Y01287932D02*
D03*
X01801343Y01157063D02*
D03*
X01384529Y01311554D02*
D03*
X01385037Y01320952D02*
D03*
X01343127Y00976274D02*
D03*
X01452093Y01129436D02*
D03*
X01614145Y01255928D02*
D03*
X01666215Y01205382D02*
D03*
X01561567Y01306220D02*
D03*
X01548613Y01305966D02*
D03*
X01475461Y01181506D02*
D03*
X01383767Y00995578D02*
D03*
X01368273Y00979830D02*
D03*
X01357605Y00979576D02*
D03*
X01345667Y00989990D02*
D03*
X01575791Y00892200D02*
D03*
X01348461Y00891946D02*
D03*
X01315441Y00891438D02*
D03*
X01260069Y00892200D02*
D03*
X01781023Y01115660D02*
D03*
X01548867Y01252880D02*
D03*
X01561567D02*
D03*
X01785087Y01087213D02*
D03*
G54D86*
X01257930Y01195062D02*
D03*
X01262930D02*
D03*
X01267930D02*
D03*
X01272930D02*
D03*
X01277930D02*
D03*
X01282930D02*
D03*
X01287930D02*
D03*
X01292930D02*
D03*
X01297930D02*
D03*
X01302930D02*
D03*
X01307930D02*
D03*
X01312930D02*
D03*
X01317930D02*
D03*
X01322930D02*
D03*
X01327930D02*
D03*
X01332930D02*
D03*
Y01084062D02*
D03*
X01327930D02*
D03*
X01322930D02*
D03*
X01317930D02*
D03*
X01312930D02*
D03*
X01307930D02*
D03*
X01302930D02*
D03*
X01297930D02*
D03*
X01292930D02*
D03*
X01287930D02*
D03*
X01282930D02*
D03*
X01277930D02*
D03*
X01272930D02*
D03*
X01267930D02*
D03*
X01262930D02*
D03*
X01257930D02*
D03*
G54D87*
X01350930Y01177062D02*
D03*
Y01172062D02*
D03*
Y01167062D02*
D03*
Y01162062D02*
D03*
Y01157062D02*
D03*
Y01152062D02*
D03*
Y01147062D02*
D03*
Y01142062D02*
D03*
Y01137062D02*
D03*
Y01132062D02*
D03*
Y01127062D02*
D03*
Y01122062D02*
D03*
Y01117062D02*
D03*
Y01112062D02*
D03*
Y01107062D02*
D03*
Y01102062D02*
D03*
X01239930D02*
D03*
Y01107062D02*
D03*
Y01112062D02*
D03*
Y01117062D02*
D03*
Y01122062D02*
D03*
Y01127062D02*
D03*
Y01132062D02*
D03*
Y01137062D02*
D03*
Y01142062D02*
D03*
Y01147062D02*
D03*
Y01152062D02*
D03*
Y01157062D02*
D03*
Y01162062D02*
D03*
Y01167062D02*
D03*
Y01172062D02*
D03*
Y01177062D02*
D03*
G54D88*
X01277610Y01270032D02*
D03*
Y01260032D02*
D03*
X01292410D02*
D03*
Y01265032D02*
D03*
Y01270032D02*
D03*
G54D89*
X01409775Y01303680D02*
D03*
X01460375D02*
D03*
G54D90*
X01186380Y01181762D02*
D03*
Y01218762D02*
D03*
X01208380D02*
D03*
Y01181762D02*
D03*
M02*
