G04*
G04 #@! TF.GenerationSoftware,Altium Limited,Altium Designer,18.1.9 (240)*
G04*
G04 Layer_Color=8388736*
%FSAX44Y44*%
%MOMM*%
G71*
G01*
G75*
%ADD15C,0.2032*%
%ADD24C,0.2540*%
%ADD49R,23.4000X5.2000*%
%ADD50R,26.4400X5.2000*%
%ADD51R,1.0500X1.1000*%
%ADD52R,0.5500X2.8000*%
%ADD53R,1.3000X1.2000*%
%ADD54R,1.3700X0.8620*%
%ADD55R,2.6400X2.7670*%
%ADD56R,2.6000X2.1000*%
%ADD57R,2.6000X0.6000*%
%ADD58R,1.7000X1.1000*%
%ADD59R,1.7000X1.1000*%
%ADD60R,0.8600X1.3700*%
G04:AMPARAMS|DCode=61|XSize=0.7mm|YSize=1.55mm|CornerRadius=0.101mm|HoleSize=0mm|Usage=FLASHONLY|Rotation=90.000|XOffset=0mm|YOffset=0mm|HoleType=Round|Shape=RoundedRectangle|*
%AMROUNDEDRECTD61*
21,1,0.7000,1.3480,0,0,90.0*
21,1,0.4980,1.5500,0,0,90.0*
1,1,0.2020,0.6740,0.2490*
1,1,0.2020,0.6740,-0.2490*
1,1,0.2020,-0.6740,-0.2490*
1,1,0.2020,-0.6740,0.2490*
%
%ADD61ROUNDEDRECTD61*%
%ADD62O,1.5000X0.5500*%
%ADD63O,0.4000X1.5500*%
%ADD64O,1.5500X0.4000*%
%ADD65C,2.0000*%
%ADD66R,1.7000X1.3500*%
G04:AMPARAMS|DCode=67|XSize=0.7mm|YSize=1.1mm|CornerRadius=0.101mm|HoleSize=0mm|Usage=FLASHONLY|Rotation=90.000|XOffset=0mm|YOffset=0mm|HoleType=Round|Shape=RoundedRectangle|*
%AMROUNDEDRECTD67*
21,1,0.7000,0.8980,0,0,90.0*
21,1,0.4980,1.1000,0,0,90.0*
1,1,0.2020,0.4490,0.2490*
1,1,0.2020,0.4490,-0.2490*
1,1,0.2020,-0.4490,-0.2490*
1,1,0.2020,-0.4490,0.2490*
%
%ADD67ROUNDEDRECTD67*%
G04:AMPARAMS|DCode=68|XSize=0.7mm|YSize=1.1mm|CornerRadius=0.101mm|HoleSize=0mm|Usage=FLASHONLY|Rotation=180.000|XOffset=0mm|YOffset=0mm|HoleType=Round|Shape=RoundedRectangle|*
%AMROUNDEDRECTD68*
21,1,0.7000,0.8980,0,0,180.0*
21,1,0.4980,1.1000,0,0,180.0*
1,1,0.2020,-0.2490,0.4490*
1,1,0.2020,0.2490,0.4490*
1,1,0.2020,0.2490,-0.4490*
1,1,0.2020,-0.2490,-0.4490*
%
%ADD68ROUNDEDRECTD68*%
%ADD69O,1.4970X0.7000*%
%ADD70R,1.7002X1.3700*%
%ADD71R,0.7000X0.9000*%
%ADD72R,0.9000X0.7000*%
%ADD73R,1.1000X1.0500*%
%ADD74R,1.2000X1.3000*%
%ADD75R,1.3700X1.7002*%
%ADD76C,1.3700*%
%ADD77C,0.9000*%
%ADD78C,1.3900*%
G04:AMPARAMS|DCode=79|XSize=1.39mm|YSize=1.39mm|CornerRadius=0.0487mm|HoleSize=0mm|Usage=FLASHONLY|Rotation=270.000|XOffset=0mm|YOffset=0mm|HoleType=Round|Shape=RoundedRectangle|*
%AMROUNDEDRECTD79*
21,1,1.3900,1.2927,0,0,270.0*
21,1,1.2927,1.3900,0,0,270.0*
1,1,0.0973,-0.6464,-0.6464*
1,1,0.0973,-0.6464,0.6464*
1,1,0.0973,0.6464,0.6464*
1,1,0.0973,0.6464,-0.6464*
%
%ADD79ROUNDEDRECTD79*%
G54D15*
X00322326Y00186814D02*
X00332483D01*
X00327404D01*
Y00171579D01*
X00340100D02*
X00345179D01*
X00347718Y00174118D01*
Y00179196D01*
X00345179Y00181735D01*
X00340100D01*
X00337561Y00179196D01*
Y00174118D01*
X00340100Y00171579D01*
X00352796Y00166500D02*
Y00181735D01*
X00360414D01*
X00362953Y00179196D01*
Y00174118D01*
X00360414Y00171579D01*
X00352796D01*
X00393423Y00184275D02*
X00390884Y00186814D01*
X00385806D01*
X00383266Y00184275D01*
Y00181735D01*
X00385806Y00179196D01*
X00390884D01*
X00393423Y00176657D01*
Y00174118D01*
X00390884Y00171579D01*
X00385806D01*
X00383266Y00174118D01*
X00401040Y00171579D02*
X00406119D01*
X00408658Y00174118D01*
Y00179196D01*
X00406119Y00181735D01*
X00401040D01*
X00398501Y00179196D01*
Y00174118D01*
X00401040Y00171579D01*
X00413736D02*
X00418815D01*
X00416276D01*
Y00186814D01*
X00413736D01*
X00436589D02*
Y00171579D01*
X00428971D01*
X00426432Y00174118D01*
Y00179196D01*
X00428971Y00181735D01*
X00436589D01*
X00449285Y00171579D02*
X00444207D01*
X00441667Y00174118D01*
Y00179196D01*
X00444207Y00181735D01*
X00449285D01*
X00451824Y00179196D01*
Y00176657D01*
X00441667D01*
X00456903Y00181735D02*
Y00171579D01*
Y00176657D01*
X00459442Y00179196D01*
X00461981Y00181735D01*
X00464520D01*
X00322326Y00186814D02*
X00332483D01*
X00327404D01*
Y00171579D01*
X00340100D02*
X00345179D01*
X00347718Y00174118D01*
Y00179196D01*
X00345179Y00181735D01*
X00340100D01*
X00337561Y00179196D01*
Y00174118D01*
X00340100Y00171579D01*
X00352796Y00166500D02*
Y00181735D01*
X00360414D01*
X00362953Y00179196D01*
Y00174118D01*
X00360414Y00171579D01*
X00352796D01*
X00393423Y00184275D02*
X00390884Y00186814D01*
X00385806D01*
X00383266Y00184275D01*
Y00181735D01*
X00385806Y00179196D01*
X00390884D01*
X00393423Y00176657D01*
Y00174118D01*
X00390884Y00171579D01*
X00385806D01*
X00383266Y00174118D01*
X00401040Y00171579D02*
X00406119D01*
X00408658Y00174118D01*
Y00179196D01*
X00406119Y00181735D01*
X00401040D01*
X00398501Y00179196D01*
Y00174118D01*
X00401040Y00171579D01*
X00413736D02*
X00418815D01*
X00416276D01*
Y00186814D01*
X00413736D01*
X00436589D02*
Y00171579D01*
X00428971D01*
X00426432Y00174118D01*
Y00179196D01*
X00428971Y00181735D01*
X00436589D01*
X00449285Y00171579D02*
X00444207D01*
X00441667Y00174118D01*
Y00179196D01*
X00444207Y00181735D01*
X00449285D01*
X00451824Y00179196D01*
Y00176657D01*
X00441667D01*
X00456903Y00181735D02*
Y00171579D01*
Y00176657D01*
X00459442Y00179196D01*
X00461981Y00181735D01*
X00464520D01*
X01441196Y00223097D02*
Y00238332D01*
X01451353Y00223097D01*
Y00238332D01*
X01458970Y00223097D02*
X01464049D01*
X01466588Y00225636D01*
Y00230714D01*
X01464049Y00233253D01*
X01458970D01*
X01456431Y00230714D01*
Y00225636D01*
X01458970Y00223097D01*
X01474205Y00235793D02*
Y00233253D01*
X01471666D01*
X01476745D01*
X01474205D01*
Y00225636D01*
X01476745Y00223097D01*
X01499597Y00238332D02*
X01504675D01*
X01502136D01*
Y00223097D01*
X01499597D01*
X01504675D01*
X01512293D02*
Y00233253D01*
X01519910D01*
X01522450Y00230714D01*
Y00223097D01*
X01542763Y00238332D02*
Y00228175D01*
X01547841Y00223097D01*
X01552920Y00228175D01*
Y00238332D01*
X01565616Y00223097D02*
X01560537D01*
X01557998Y00225636D01*
Y00230714D01*
X01560537Y00233253D01*
X01565616D01*
X01568155Y00230714D01*
Y00228175D01*
X01557998D01*
X01573233Y00233253D02*
Y00223097D01*
Y00228175D01*
X01575773Y00230714D01*
X01578312Y00233253D01*
X01580851D01*
X01588468Y00223097D02*
X01596086D01*
X01598625Y00225636D01*
X01596086Y00228175D01*
X01591008D01*
X01588468Y00230714D01*
X01591008Y00233253D01*
X01598625D01*
X01603703Y00223097D02*
X01608782D01*
X01606243D01*
Y00233253D01*
X01603703D01*
X01618938Y00223097D02*
X01624017D01*
X01626556Y00225636D01*
Y00230714D01*
X01624017Y00233253D01*
X01618938D01*
X01616399Y00230714D01*
Y00225636D01*
X01618938Y00223097D01*
X01631634D02*
Y00233253D01*
X01639252D01*
X01641791Y00230714D01*
Y00223097D01*
X01657026Y00235793D02*
X01654487Y00238332D01*
X01649409D01*
X01646870Y00235793D01*
Y00225636D01*
X01649409Y00223097D01*
X01654487D01*
X01657026Y00225636D01*
X01664644Y00223097D02*
X01669722D01*
X01672261Y00225636D01*
Y00230714D01*
X01669722Y00233253D01*
X01664644D01*
X01662104Y00230714D01*
Y00225636D01*
X01664644Y00223097D01*
X01677340D02*
Y00233253D01*
X01684957D01*
X01687496Y00230714D01*
Y00223097D01*
X01695114Y00235793D02*
Y00233253D01*
X01692575D01*
X01697653D01*
X01695114D01*
Y00225636D01*
X01697653Y00223097D01*
X01705271Y00233253D02*
Y00223097D01*
Y00228175D01*
X01707810Y00230714D01*
X01710349Y00233253D01*
X01712888D01*
X01723045Y00223097D02*
X01728123D01*
X01730662Y00225636D01*
Y00230714D01*
X01728123Y00233253D01*
X01723045D01*
X01720506Y00230714D01*
Y00225636D01*
X01723045Y00223097D01*
X01735741D02*
X01740819D01*
X01738280D01*
Y00238332D01*
X01735741D01*
X01322829Y00235793D02*
X01320289Y00238332D01*
X01315211D01*
X01312672Y00235793D01*
Y00233253D01*
X01315211Y00230714D01*
X01320289D01*
X01322829Y00228175D01*
Y00225636D01*
X01320289Y00223097D01*
X01315211D01*
X01312672Y00225636D01*
X01327907Y00238332D02*
Y00228175D01*
X01332985Y00223097D01*
X01338064Y00228175D01*
Y00238332D01*
X01343142Y00223097D02*
Y00238332D01*
X01353299Y00223097D01*
Y00238332D01*
X01373612Y00223097D02*
Y00238332D01*
X01381230D01*
X01383769Y00235793D01*
Y00230714D01*
X01381230Y00228175D01*
X01373612D01*
X01378691D02*
X01383769Y00223097D01*
X01399004Y00238332D02*
X01388847D01*
Y00223097D01*
X01399004D01*
X01388847Y00230714D02*
X01393926D01*
X01404082Y00238332D02*
Y00228175D01*
X01409161Y00223097D01*
X01414239Y00228175D01*
Y00238332D01*
X01419317Y00233253D02*
X01421857D01*
Y00230714D01*
X01419317D01*
Y00233253D01*
Y00225636D02*
X01421857D01*
Y00223097D01*
X01419317D01*
Y00225636D01*
X01099820Y00223097D02*
Y00238332D01*
X01107438D01*
X01109977Y00235793D01*
Y00230714D01*
X01107438Y00228175D01*
X01099820D01*
X01104898D02*
X01109977Y00223097D01*
X01125212Y00238332D02*
X01115055D01*
Y00223097D01*
X01125212D01*
X01115055Y00230714D02*
X01120133D01*
X01130290Y00238332D02*
Y00228175D01*
X01135368Y00223097D01*
X01140447Y00228175D01*
Y00238332D01*
X01145525Y00233253D02*
X01148064D01*
Y00230714D01*
X01145525D01*
Y00233253D01*
Y00225636D02*
X01148064D01*
Y00223097D01*
X01145525D01*
Y00225636D01*
X00322326Y00119295D02*
Y00134530D01*
X00327404Y00129452D01*
X00332483Y00134530D01*
Y00119295D01*
X00347718Y00131991D02*
X00345179Y00134530D01*
X00340100D01*
X00337561Y00131991D01*
Y00121834D01*
X00340100Y00119295D01*
X00345179D01*
X00347718Y00121834D01*
X00352796Y00134530D02*
Y00121834D01*
X00355335Y00119295D01*
X00360414D01*
X00362953Y00121834D01*
Y00134530D01*
X00368031Y00131991D02*
X00370570Y00134530D01*
X00375649D01*
X00378188Y00131991D01*
Y00121834D01*
X00375649Y00119295D01*
X00370570D01*
X00368031Y00121834D01*
Y00131991D01*
X00383266Y00134530D02*
X00393423D01*
Y00131991D01*
X00383266Y00121834D01*
Y00119295D01*
X00408658D02*
X00398501D01*
X00408658Y00129452D01*
Y00131991D01*
X00406119Y00134530D01*
X00401040D01*
X00398501Y00131991D01*
X00413736Y00119295D02*
Y00129452D01*
X00418815Y00134530D01*
X00423893Y00129452D01*
Y00119295D01*
Y00126912D01*
X00413736D01*
X00428971Y00119295D02*
Y00121834D01*
X00431511D01*
Y00119295D01*
X00428971D01*
X00451824Y00131991D02*
X00449285Y00134530D01*
X00444207D01*
X00441667Y00131991D01*
Y00121834D01*
X00444207Y00119295D01*
X00449285D01*
X00451824Y00121834D01*
Y00126912D01*
X00446746D01*
X00456903Y00134530D02*
X00467059D01*
X00461981D01*
Y00119295D01*
X00482294Y00131991D02*
X00479755Y00134530D01*
X00474677D01*
X00472137Y00131991D01*
Y00129452D01*
X00474677Y00126912D01*
X00479755D01*
X00482294Y00124373D01*
Y00121834D01*
X00479755Y00119295D01*
X00474677D01*
X00472137Y00121834D01*
X00968121Y00131991D02*
X00970660Y00134530D01*
X00975739D01*
X00978278Y00131991D01*
Y00129452D01*
X00975739Y00126912D01*
X00973199D01*
X00975739D01*
X00978278Y00124373D01*
Y00121834D01*
X00975739Y00119295D01*
X00970660D01*
X00968121Y00121834D01*
X00983356Y00119295D02*
X00993513Y00129452D01*
X00998591Y00119295D02*
X01003670D01*
X01001130D01*
Y00134530D01*
X00998591Y00131991D01*
X01021444Y00119295D02*
X01011287D01*
X01021444Y00129452D01*
Y00131991D01*
X01018905Y00134530D01*
X01013826D01*
X01011287Y00131991D01*
X01026522Y00119295D02*
X01036679Y00129452D01*
X01051914Y00119295D02*
X01041757D01*
X01051914Y00129452D01*
Y00131991D01*
X01049375Y00134530D01*
X01044296D01*
X01041757Y00131991D01*
X01056992D02*
X01059531Y00134530D01*
X01064610D01*
X01067149Y00131991D01*
Y00121834D01*
X01064610Y00119295D01*
X01059531D01*
X01056992Y00121834D01*
Y00131991D01*
X01082384Y00119295D02*
X01072227D01*
X01082384Y00129452D01*
Y00131991D01*
X01079845Y00134530D01*
X01074766D01*
X01072227Y00131991D01*
X01087462D02*
X01090002Y00134530D01*
X01095080D01*
X01097619Y00131991D01*
Y00121834D01*
X01095080Y00119295D01*
X01090002D01*
X01087462Y00121834D01*
Y00131991D01*
X00757425D02*
X00754885Y00134530D01*
X00749807D01*
X00747268Y00131991D01*
Y00121834D01*
X00749807Y00119295D01*
X00754885D01*
X00757425Y00121834D01*
Y00126912D01*
X00752346D01*
X00772660Y00134530D02*
X00762503D01*
Y00119295D01*
X00772660D01*
X00762503Y00126912D02*
X00767581D01*
X00777738Y00119295D02*
Y00134530D01*
X00787895Y00119295D01*
Y00134530D01*
X00803130D02*
X00792973D01*
Y00119295D01*
X00803130D01*
X00792973Y00126912D02*
X00798052D01*
X00808208Y00119295D02*
Y00134530D01*
X00815826D01*
X00818365Y00131991D01*
Y00126912D01*
X00815826Y00124373D01*
X00808208D01*
X00813287D02*
X00818365Y00119295D01*
X00823443D02*
Y00129452D01*
X00828522Y00134530D01*
X00833600Y00129452D01*
Y00119295D01*
Y00126912D01*
X00823443D01*
X00838678Y00134530D02*
X00848835D01*
X00843757D01*
Y00119295D01*
X00864070Y00134530D02*
X00853913D01*
Y00119295D01*
X00864070D01*
X00853913Y00126912D02*
X00858992D01*
X00869149Y00134530D02*
Y00119295D01*
X00876766D01*
X00879305Y00121834D01*
Y00131991D01*
X00876766Y00134530D01*
X00869149D01*
X00945324Y00129452D02*
X00947863D01*
Y00126912D01*
X00945324D01*
Y00129452D01*
Y00121834D02*
X00947863D01*
Y00119295D01*
X00945324D01*
Y00121834D01*
X00117729Y00223097D02*
Y00233253D01*
X00122807Y00238332D01*
X00127886Y00233253D01*
Y00223097D01*
Y00230714D01*
X00117729D01*
X00132964Y00238332D02*
Y00223097D01*
X00143121D01*
X00148199Y00238332D02*
Y00223097D01*
X00158356D01*
X00178669D02*
Y00233253D01*
X00183748Y00238332D01*
X00188826Y00233253D01*
Y00223097D01*
Y00230714D01*
X00178669D01*
X00193904Y00223097D02*
Y00238332D01*
X00201522D01*
X00204061Y00235793D01*
Y00230714D01*
X00201522Y00228175D01*
X00193904D01*
X00198983D02*
X00204061Y00223097D01*
X00209139Y00238332D02*
X00219296D01*
X00214218D01*
Y00223097D01*
X00224375Y00238332D02*
Y00223097D01*
X00229453Y00228175D01*
X00234531Y00223097D01*
Y00238332D01*
X00247227D02*
X00242149D01*
X00239610Y00235793D01*
Y00225636D01*
X00242149Y00223097D01*
X00247227D01*
X00249766Y00225636D01*
Y00235793D01*
X00247227Y00238332D01*
X00254845Y00223097D02*
Y00238332D01*
X00262462D01*
X00265001Y00235793D01*
Y00230714D01*
X00262462Y00228175D01*
X00254845D01*
X00259923D02*
X00265001Y00223097D01*
X00270080Y00238332D02*
Y00223097D01*
Y00228175D01*
X00280236Y00238332D01*
X00272619Y00230714D01*
X00280236Y00223097D01*
X00300550Y00238332D02*
Y00228175D01*
X00305628Y00223097D01*
X00310707Y00228175D01*
Y00238332D01*
X00315785D02*
X00320863D01*
X00318324D01*
Y00223097D01*
X00315785D01*
X00320863D01*
X00338638Y00238332D02*
X00328481D01*
Y00223097D01*
X00338638D01*
X00328481Y00230714D02*
X00333559D01*
X00343716Y00238332D02*
Y00223097D01*
X00348794Y00228175D01*
X00353873Y00223097D01*
Y00238332D01*
X00369108D02*
X00358951D01*
Y00223097D01*
X00369108D01*
X00358951Y00230714D02*
X00364029D01*
X00374186Y00238332D02*
Y00223097D01*
X00381804D01*
X00384343Y00225636D01*
Y00235793D01*
X00381804Y00238332D01*
X00374186D01*
X00414813D02*
X00404656D01*
Y00230714D01*
X00409734D01*
X00404656D01*
Y00223097D01*
X00419891D02*
Y00238332D01*
X00427509D01*
X00430048Y00235793D01*
Y00230714D01*
X00427509Y00228175D01*
X00419891D01*
X00424970D02*
X00430048Y00223097D01*
X00442744Y00238332D02*
X00437665D01*
X00435126Y00235793D01*
Y00225636D01*
X00437665Y00223097D01*
X00442744D01*
X00445283Y00225636D01*
Y00235793D01*
X00442744Y00238332D01*
X00450361Y00223097D02*
Y00238332D01*
X00455440Y00233253D01*
X00460518Y00238332D01*
Y00223097D01*
X00480832Y00238332D02*
X00490988D01*
X00485910D01*
Y00223097D01*
X00503684Y00238332D02*
X00498606D01*
X00496067Y00235793D01*
Y00225636D01*
X00498606Y00223097D01*
X00503684D01*
X00506223Y00225636D01*
Y00235793D01*
X00503684Y00238332D01*
X00511302Y00223097D02*
Y00238332D01*
X00518919D01*
X00521458Y00235793D01*
Y00230714D01*
X00518919Y00228175D01*
X00511302D01*
X00551929Y00235793D02*
X00549389Y00238332D01*
X00544311D01*
X00541772Y00235793D01*
Y00233253D01*
X00544311Y00230714D01*
X00549389D01*
X00551929Y00228175D01*
Y00225636D01*
X00549389Y00223097D01*
X00544311D01*
X00541772Y00225636D01*
X00557007Y00238332D02*
X00562085D01*
X00559546D01*
Y00223097D01*
X00557007D01*
X00562085D01*
X00569703Y00238332D02*
Y00223097D01*
X00577320D01*
X00579860Y00225636D01*
Y00235793D01*
X00577320Y00238332D01*
X00569703D01*
X00595095D02*
X00584938D01*
Y00223097D01*
X00595095D01*
X00584938Y00230714D02*
X00590016D01*
X01173861Y00223097D02*
Y00233253D01*
X01178939Y00238332D01*
X01184018Y00233253D01*
Y00223097D01*
Y00230714D01*
X01173861D01*
X00885317Y00223097D02*
Y00238332D01*
X00890395Y00233253D01*
X00895474Y00238332D01*
Y00223097D01*
X00910709Y00235793D02*
X00908170Y00238332D01*
X00903091D01*
X00900552Y00235793D01*
Y00225636D01*
X00903091Y00223097D01*
X00908170D01*
X00910709Y00225636D01*
X00915787Y00238332D02*
Y00225636D01*
X00918326Y00223097D01*
X00923405D01*
X00925944Y00225636D01*
Y00238332D01*
X00931022Y00235793D02*
X00933561Y00238332D01*
X00938640D01*
X00941179Y00235793D01*
Y00225636D01*
X00938640Y00223097D01*
X00933561D01*
X00931022Y00225636D01*
Y00235793D01*
X00946257Y00238332D02*
X00956414D01*
Y00235793D01*
X00946257Y00225636D01*
Y00223097D01*
X00971649D02*
X00961492D01*
X00971649Y00233253D01*
Y00235793D01*
X00969110Y00238332D01*
X00964032D01*
X00961492Y00235793D01*
X00746760Y00238332D02*
Y00223097D01*
X00754378D01*
X00756917Y00225636D01*
Y00228175D01*
X00754378Y00230714D01*
X00746760D01*
X00754378D01*
X00756917Y00233253D01*
Y00235793D01*
X00754378Y00238332D01*
X00746760D01*
X00769613D02*
X00764534D01*
X00761995Y00235793D01*
Y00225636D01*
X00764534Y00223097D01*
X00769613D01*
X00772152Y00225636D01*
Y00235793D01*
X00769613Y00238332D01*
X00777230Y00223097D02*
Y00233253D01*
X00782309Y00238332D01*
X00787387Y00233253D01*
Y00223097D01*
Y00230714D01*
X00777230D01*
X00792465Y00223097D02*
Y00238332D01*
X00800083D01*
X00802622Y00235793D01*
Y00230714D01*
X00800083Y00228175D01*
X00792465D01*
X00797544D02*
X00802622Y00223097D01*
X00807700Y00238332D02*
Y00223097D01*
X00815318D01*
X00817857Y00225636D01*
Y00235793D01*
X00815318Y00238332D01*
X00807700D01*
X00840710Y00223097D02*
Y00238332D01*
X00845788D02*
Y00223097D01*
X00838170Y00233253D02*
X00845788D01*
X00848327D01*
X00838170Y00228175D02*
X00848327D01*
X00853406Y00233253D02*
X00855945D01*
Y00230714D01*
X00853406D01*
Y00233253D01*
Y00225636D02*
X00855945D01*
Y00223097D01*
X00853406D01*
Y00225636D01*
X00117729Y00186814D02*
Y00171579D01*
X00127886D01*
X00132964D02*
Y00181735D01*
X00138042Y00186814D01*
X00143121Y00181735D01*
Y00171579D01*
Y00179196D01*
X00132964D01*
X00148199Y00186814D02*
Y00184275D01*
X00153278Y00179196D01*
X00158356Y00184275D01*
Y00186814D01*
X00153278Y00179196D02*
Y00171579D01*
X00173591Y00186814D02*
X00163434D01*
Y00171579D01*
X00173591D01*
X00163434Y00179196D02*
X00168513D01*
X00178669Y00171579D02*
Y00186814D01*
X00186287D01*
X00188826Y00184275D01*
Y00179196D01*
X00186287Y00176657D01*
X00178669D01*
X00183748D02*
X00188826Y00171579D01*
X00209139D02*
Y00186814D01*
X00219296Y00171579D01*
Y00186814D01*
X00224375Y00171579D02*
Y00181735D01*
X00229453Y00186814D01*
X00234531Y00181735D01*
Y00171579D01*
Y00179196D01*
X00224375D01*
X00239610Y00171579D02*
Y00186814D01*
X00244688Y00181735D01*
X00249766Y00186814D01*
Y00171579D01*
X00265001Y00186814D02*
X00254845D01*
Y00171579D01*
X00265001D01*
X00254845Y00179196D02*
X00259923D01*
X00285315Y00176657D02*
X00295471D01*
X00285315Y00181735D02*
X00295471D01*
X00117729Y00119295D02*
Y00134530D01*
X00125346D01*
X00127886Y00131991D01*
Y00126912D01*
X00125346Y00124373D01*
X00117729D01*
X00132964Y00134530D02*
Y00119295D01*
X00143121D01*
X00155817Y00134530D02*
X00150738D01*
X00148199Y00131991D01*
Y00121834D01*
X00150738Y00119295D01*
X00155817D01*
X00158356Y00121834D01*
Y00131991D01*
X00155817Y00134530D01*
X00163434D02*
X00173591D01*
X00168513D01*
Y00119295D01*
X00193904D02*
Y00134530D01*
X00204061Y00119295D01*
Y00134530D01*
X00209139Y00119295D02*
Y00129452D01*
X00214218Y00134530D01*
X00219296Y00129452D01*
Y00119295D01*
Y00126912D01*
X00209139D01*
X00224375Y00119295D02*
Y00134530D01*
X00229453Y00129452D01*
X00234531Y00134530D01*
Y00119295D01*
X00249766Y00134530D02*
X00239610D01*
Y00119295D01*
X00249766D01*
X00239610Y00126912D02*
X00244688D01*
X00270080Y00124373D02*
X00280236D01*
X00270080Y00129452D02*
X00280236D01*
X01153287Y00131991D02*
X01155826Y00134530D01*
X01160904D01*
X01163444Y00131991D01*
Y00129452D01*
X01160904Y00126912D01*
X01158365D01*
X01160904D01*
X01163444Y00124373D01*
Y00121834D01*
X01160904Y00119295D01*
X01155826D01*
X01153287Y00121834D01*
X01168522Y00129452D02*
X01171061D01*
Y00126912D01*
X01168522D01*
Y00129452D01*
Y00121834D02*
X01171061D01*
Y00119295D01*
X01168522D01*
Y00121834D01*
X01191375Y00119295D02*
X01181218D01*
X01191375Y00129452D01*
Y00131991D01*
X01188836Y00134530D01*
X01183757D01*
X01181218Y00131991D01*
X01196453D02*
X01198992Y00134530D01*
X01204071D01*
X01206610Y00131991D01*
Y00129452D01*
X01204071Y00126912D01*
X01201531D01*
X01204071D01*
X01206610Y00124373D01*
Y00121834D01*
X01204071Y00119295D01*
X01198992D01*
X01196453Y00121834D01*
X01211688Y00129452D02*
X01214227D01*
Y00126912D01*
X01211688D01*
Y00129452D01*
Y00121834D02*
X01214227D01*
Y00119295D01*
X01211688D01*
Y00121834D01*
X01232001Y00119295D02*
Y00134530D01*
X01224384Y00126912D01*
X01234541D01*
X01239619Y00131991D02*
X01242158Y00134530D01*
X01247237D01*
X01249776Y00131991D01*
Y00121834D01*
X01247237Y00119295D01*
X01242158D01*
X01239619Y00121834D01*
Y00131991D01*
X01270089Y00119295D02*
Y00134530D01*
X01277707D01*
X01280246Y00131991D01*
Y00126912D01*
X01277707Y00124373D01*
X01270089D01*
X01285324Y00119295D02*
Y00134530D01*
X01290403Y00129452D01*
X01295481Y00134530D01*
Y00119295D01*
X01474470Y00134530D02*
X01484627D01*
X01479548D01*
Y00119295D01*
X01499862Y00134530D02*
X01489705D01*
Y00119295D01*
X01499862D01*
X01489705Y00126912D02*
X01494783D01*
X01504940Y00134530D02*
X01515097Y00119295D01*
Y00134530D02*
X01504940Y00119295D01*
X01520175D02*
Y00129452D01*
X01525254Y00134530D01*
X01530332Y00129452D01*
Y00119295D01*
Y00126912D01*
X01520175D01*
X01545567Y00131991D02*
X01543028Y00134530D01*
X01537950D01*
X01535410Y00131991D01*
Y00129452D01*
X01537950Y00126912D01*
X01543028D01*
X01545567Y00124373D01*
Y00121834D01*
X01543028Y00119295D01*
X01537950D01*
X01535410Y00121834D01*
X01565880Y00134530D02*
X01570959D01*
X01568420D01*
Y00119295D01*
X01565880D01*
X01570959D01*
X01578576D02*
Y00134530D01*
X01588733Y00119295D01*
Y00134530D01*
X01603968Y00131991D02*
X01601429Y00134530D01*
X01596351D01*
X01593811Y00131991D01*
Y00129452D01*
X01596351Y00126912D01*
X01601429D01*
X01603968Y00124373D01*
Y00121834D01*
X01601429Y00119295D01*
X01596351D01*
X01593811Y00121834D01*
X01609046Y00134530D02*
X01619203D01*
X01614125D01*
Y00119295D01*
X01624281D02*
Y00134530D01*
X01631899D01*
X01634438Y00131991D01*
Y00126912D01*
X01631899Y00124373D01*
X01624281D01*
X01629360D02*
X01634438Y00119295D01*
X01639517Y00134530D02*
Y00121834D01*
X01642056Y00119295D01*
X01647134D01*
X01649673Y00121834D01*
Y00134530D01*
X01654752Y00119295D02*
Y00134530D01*
X01659830Y00129452D01*
X01664908Y00134530D01*
Y00119295D01*
X01680143Y00134530D02*
X01669987D01*
Y00119295D01*
X01680143D01*
X01669987Y00126912D02*
X01675065D01*
X01685222Y00119295D02*
Y00134530D01*
X01695379Y00119295D01*
Y00134530D01*
X01700457D02*
X01710614D01*
X01705535D01*
Y00119295D01*
X01725849Y00131991D02*
X01723309Y00134530D01*
X01718231D01*
X01715692Y00131991D01*
Y00129452D01*
X01718231Y00126912D01*
X01723309D01*
X01725849Y00124373D01*
Y00121834D01*
X01723309Y00119295D01*
X01718231D01*
X01715692Y00121834D01*
X00746760Y00186685D02*
X00756917D01*
X00751838D01*
Y00171450D01*
X00761995Y00186685D02*
X00767073D01*
X00764534D01*
Y00171450D01*
X00761995D01*
X00767073D01*
X00774691Y00186685D02*
Y00171450D01*
X00782309D01*
X00784848Y00173989D01*
Y00184146D01*
X00782309Y00186685D01*
X00774691D01*
X00807700Y00171450D02*
Y00186685D01*
X00812779D02*
Y00171450D01*
X00805161Y00181607D02*
X00812779D01*
X00815318D01*
X00805161Y00176528D02*
X00815318D01*
X00820396Y00181607D02*
X00822935D01*
Y00179067D01*
X00820396D01*
Y00181607D01*
Y00173989D02*
X00822935D01*
Y00171450D01*
X00820396D01*
Y00173989D01*
X00885317Y00171450D02*
Y00186685D01*
X00895474Y00171450D01*
Y00186685D01*
X00900552Y00171450D02*
X00910709Y00181607D01*
X00915787Y00171450D02*
Y00181607D01*
X00920865Y00186685D01*
X00925944Y00181607D01*
Y00171450D01*
Y00179067D01*
X00915787D01*
G54D24*
X01262888Y00205020D02*
Y00256667D01*
X01049528Y00205020D02*
Y00256667D01*
X00101600Y00205020D02*
X01778508D01*
X00101600Y00153374D02*
X01778000D01*
X00101600Y00101727D02*
X01118870D01*
X00101727Y00256667D02*
X01778508D01*
X00101727Y00101727D02*
Y00256667D01*
Y00101727D02*
X00501904D01*
X00101600D02*
Y00256667D01*
X00727710Y00101727D02*
Y00256667D01*
X01778508Y00101727D02*
Y00256667D01*
X01118870Y00101727D02*
X01778508D01*
X01420876Y00100076D02*
Y00151596D01*
G54D49*
X01355400Y00860756D02*
D03*
G54D50*
X01628600D02*
D03*
G54D51*
X01357116Y00929666D02*
D03*
Y00945666D02*
D03*
X01337449Y00929666D02*
D03*
Y00945666D02*
D03*
X01395704Y01009422D02*
D03*
Y01025422D02*
D03*
X01396467Y00945666D02*
D03*
Y00929666D02*
D03*
X01337466Y01009422D02*
D03*
Y01025422D02*
D03*
X01356879D02*
D03*
Y01009422D02*
D03*
X01235431Y01194332D02*
D03*
Y01178332D02*
D03*
X01771879Y01160867D02*
D03*
Y01144867D02*
D03*
X01317799Y00929666D02*
D03*
Y00945666D02*
D03*
X01259815Y01009422D02*
D03*
Y01025422D02*
D03*
X01318053Y01009422D02*
D03*
Y01025422D02*
D03*
X01298132Y00945666D02*
D03*
Y00929666D02*
D03*
X01279227Y01009422D02*
D03*
Y01025422D02*
D03*
X01376800Y00945666D02*
D03*
Y00929666D02*
D03*
X01376292Y01009422D02*
D03*
Y01025422D02*
D03*
X01298640Y01009422D02*
D03*
Y01025422D02*
D03*
X01278465Y00945666D02*
D03*
Y00929666D02*
D03*
X01258799Y00945666D02*
D03*
Y00929666D02*
D03*
G54D52*
X01248400Y00858756D02*
D03*
X01256400D02*
D03*
X01264400D02*
D03*
X01272400D02*
D03*
X01280400D02*
D03*
X01288400D02*
D03*
X01296400D02*
D03*
X01304400D02*
D03*
X01312400D02*
D03*
X01320400D02*
D03*
X01328400D02*
D03*
X01336400D02*
D03*
X01344400D02*
D03*
X01352400D02*
D03*
X01360400D02*
D03*
X01368400D02*
D03*
X01376400D02*
D03*
X01384400D02*
D03*
X01392400D02*
D03*
X01400400D02*
D03*
X01408400D02*
D03*
X01416400D02*
D03*
X01424400D02*
D03*
X01432400D02*
D03*
X01440400D02*
D03*
X01448400D02*
D03*
X01456400D02*
D03*
X01464400D02*
D03*
X01504400D02*
D03*
X01512400D02*
D03*
X01520400D02*
D03*
X01528400D02*
D03*
X01536400D02*
D03*
X01544400D02*
D03*
X01552400D02*
D03*
X01560400D02*
D03*
X01568400D02*
D03*
X01576400D02*
D03*
X01584400D02*
D03*
X01592400D02*
D03*
X01600400D02*
D03*
X01608400D02*
D03*
X01616400D02*
D03*
X01624400D02*
D03*
X01632400D02*
D03*
X01640400D02*
D03*
X01648400D02*
D03*
X01656400D02*
D03*
X01664400D02*
D03*
X01672400D02*
D03*
X01680400D02*
D03*
X01688400D02*
D03*
X01696400D02*
D03*
X01704400D02*
D03*
X01712400D02*
D03*
X01720400D02*
D03*
X01728400D02*
D03*
X01736400D02*
D03*
X01744400D02*
D03*
X01752400D02*
D03*
G54D53*
X01799819Y01297924D02*
D03*
Y01276924D02*
D03*
X01777721Y01297924D02*
D03*
Y01276924D02*
D03*
X01810487Y01138321D02*
D03*
Y01117321D02*
D03*
X01209266Y01117746D02*
D03*
Y01096746D02*
D03*
X01184680Y01117702D02*
D03*
Y01096702D02*
D03*
G54D54*
X01296440Y01288146D02*
D03*
G54D55*
Y01264778D02*
D03*
G54D56*
X01195636Y01222562D02*
D03*
Y01310562D02*
D03*
X01250636Y01222562D02*
D03*
Y01310562D02*
D03*
G54D57*
Y01250562D02*
D03*
Y01258562D02*
D03*
Y01266562D02*
D03*
Y01274562D02*
D03*
Y01282562D02*
D03*
G54D58*
X01437403Y01010336D02*
D03*
Y01027836D02*
D03*
Y01045336D02*
D03*
X01474403D02*
D03*
Y01027836D02*
D03*
Y01010336D02*
D03*
X01695213Y01295789D02*
D03*
Y01278288D02*
D03*
Y01260788D02*
D03*
X01732213D02*
D03*
Y01278288D02*
D03*
Y01295789D02*
D03*
X01642381Y00974080D02*
D03*
Y00956580D02*
D03*
Y00939080D02*
D03*
X01679381D02*
D03*
Y00956580D02*
D03*
Y00974080D02*
D03*
X01546648D02*
D03*
Y00956580D02*
D03*
Y00939080D02*
D03*
X01583648D02*
D03*
Y00956580D02*
D03*
Y00974080D02*
D03*
G54D59*
X01728149Y01119389D02*
D03*
Y01101889D02*
D03*
Y01084389D02*
D03*
X01691149D02*
D03*
Y01101889D02*
D03*
Y01119389D02*
D03*
G54D60*
X01548638Y01317752D02*
D03*
X01561338D02*
D03*
Y01241552D02*
D03*
X01548638D02*
D03*
G54D61*
X01322420Y01125332D02*
D03*
Y01138032D02*
D03*
Y01150732D02*
D03*
Y01163432D02*
D03*
X01267920Y01125332D02*
D03*
Y01138032D02*
D03*
Y01150732D02*
D03*
Y01163432D02*
D03*
G54D62*
X01660917Y01249538D02*
D03*
Y01256038D02*
D03*
Y01262538D02*
D03*
Y01269038D02*
D03*
Y01275538D02*
D03*
Y01282038D02*
D03*
Y01288538D02*
D03*
Y01295038D02*
D03*
Y01301538D02*
D03*
Y01308038D02*
D03*
X01601917Y01249538D02*
D03*
Y01256038D02*
D03*
Y01262538D02*
D03*
Y01269038D02*
D03*
Y01275538D02*
D03*
Y01282038D02*
D03*
Y01288538D02*
D03*
Y01295038D02*
D03*
Y01301538D02*
D03*
Y01308038D02*
D03*
G54D63*
X01540537Y01166400D02*
D03*
X01545537D02*
D03*
X01550537D02*
D03*
X01555537D02*
D03*
X01560537D02*
D03*
X01565537D02*
D03*
X01570537D02*
D03*
X01575537D02*
D03*
X01580537D02*
D03*
X01585537D02*
D03*
X01590537D02*
D03*
X01595537D02*
D03*
X01600537D02*
D03*
X01605537D02*
D03*
X01610537D02*
D03*
X01615537D02*
D03*
X01620537D02*
D03*
X01625537D02*
D03*
X01630537D02*
D03*
X01635537D02*
D03*
Y01031900D02*
D03*
X01630537D02*
D03*
X01625537D02*
D03*
X01620537D02*
D03*
X01615537D02*
D03*
X01610537D02*
D03*
X01605537D02*
D03*
X01600537D02*
D03*
X01595537D02*
D03*
X01590537D02*
D03*
X01585537D02*
D03*
X01580537D02*
D03*
X01575537D02*
D03*
X01570537D02*
D03*
X01565537D02*
D03*
X01560537D02*
D03*
X01555537D02*
D03*
X01550537D02*
D03*
X01545537D02*
D03*
X01540537D02*
D03*
G54D64*
X01655287Y01146650D02*
D03*
Y01141650D02*
D03*
Y01136650D02*
D03*
Y01131650D02*
D03*
Y01126650D02*
D03*
Y01121650D02*
D03*
Y01116650D02*
D03*
Y01111650D02*
D03*
Y01106650D02*
D03*
Y01101650D02*
D03*
Y01096650D02*
D03*
Y01091650D02*
D03*
Y01086650D02*
D03*
Y01081650D02*
D03*
Y01076650D02*
D03*
Y01071650D02*
D03*
Y01066650D02*
D03*
Y01061650D02*
D03*
Y01056650D02*
D03*
Y01051650D02*
D03*
X01520787D02*
D03*
Y01056650D02*
D03*
Y01061650D02*
D03*
Y01066650D02*
D03*
Y01071650D02*
D03*
Y01076650D02*
D03*
Y01081650D02*
D03*
Y01086650D02*
D03*
Y01091650D02*
D03*
Y01096650D02*
D03*
Y01101650D02*
D03*
Y01106650D02*
D03*
Y01111650D02*
D03*
Y01116650D02*
D03*
Y01121650D02*
D03*
Y01126650D02*
D03*
Y01131650D02*
D03*
Y01136650D02*
D03*
Y01141650D02*
D03*
Y01146650D02*
D03*
G54D65*
X01754099Y01318158D02*
D03*
X01183361Y00978814D02*
D03*
X01769593Y00918616D02*
D03*
G54D66*
X01728487Y01148364D02*
D03*
X01691487D02*
D03*
Y01170364D02*
D03*
X01728487D02*
D03*
G54D67*
X01687737Y01231418D02*
D03*
Y01221918D02*
D03*
Y01212418D02*
D03*
X01660237D02*
D03*
Y01221918D02*
D03*
Y01231418D02*
D03*
G54D68*
X01356903Y00965284D02*
D03*
X01366403D02*
D03*
X01375903D02*
D03*
Y00992784D02*
D03*
X01366403D02*
D03*
X01356903D02*
D03*
X01771015Y01125092D02*
D03*
X01790015D02*
D03*
Y01097592D02*
D03*
X01780515D02*
D03*
X01771015D02*
D03*
X01331390Y01252552D02*
D03*
X01340890D02*
D03*
X01350390D02*
D03*
Y01280052D02*
D03*
X01331390D02*
D03*
X01778611Y01252372D02*
D03*
X01788111D02*
D03*
X01797611D02*
D03*
Y01224872D02*
D03*
X01788111D02*
D03*
X01778611D02*
D03*
X01279042Y00990888D02*
D03*
X01288542D02*
D03*
X01298042D02*
D03*
Y00963388D02*
D03*
X01288542D02*
D03*
X01279042D02*
D03*
G54D69*
X01462888Y01140612D02*
D03*
Y01153312D02*
D03*
Y01166012D02*
D03*
Y01178712D02*
D03*
X01407770Y01140612D02*
D03*
Y01153312D02*
D03*
Y01166012D02*
D03*
Y01178712D02*
D03*
X01462689Y01272912D02*
D03*
Y01285612D02*
D03*
Y01298312D02*
D03*
Y01311012D02*
D03*
X01407571Y01272912D02*
D03*
Y01285612D02*
D03*
Y01298312D02*
D03*
Y01311012D02*
D03*
X01462689Y01209412D02*
D03*
Y01222112D02*
D03*
Y01234812D02*
D03*
Y01247512D02*
D03*
X01407571Y01209412D02*
D03*
Y01222112D02*
D03*
Y01234812D02*
D03*
Y01247512D02*
D03*
G54D70*
X01472921Y01097178D02*
D03*
Y01117498D02*
D03*
X01748765Y01123788D02*
D03*
Y01103468D02*
D03*
G54D71*
X01790167Y01142172D02*
D03*
Y01154172D02*
D03*
X01239320Y00931666D02*
D03*
Y00943666D02*
D03*
X01373910Y01303482D02*
D03*
Y01315482D02*
D03*
X01234161Y01103432D02*
D03*
Y01091432D02*
D03*
X01761998Y01230472D02*
D03*
Y01242472D02*
D03*
X01346860Y01162802D02*
D03*
Y01150802D02*
D03*
X01232940Y01135142D02*
D03*
Y01123142D02*
D03*
X01348510Y01107902D02*
D03*
Y01119902D02*
D03*
X01185950Y01179592D02*
D03*
Y01167592D02*
D03*
X01707871Y01231702D02*
D03*
Y01219702D02*
D03*
X01397483Y00968242D02*
D03*
Y00980242D02*
D03*
X01332967Y00983798D02*
D03*
Y00971798D02*
D03*
X01267972Y01102100D02*
D03*
Y01114100D02*
D03*
X01250417Y01124960D02*
D03*
Y01136960D02*
D03*
X01213841Y01167632D02*
D03*
Y01179632D02*
D03*
X01641069Y01219702D02*
D03*
Y01231702D02*
D03*
G54D72*
X01298060Y01216772D02*
D03*
X01310060D02*
D03*
X01310760Y01198992D02*
D03*
X01322760D02*
D03*
X01318331Y01108862D02*
D03*
X01330331D02*
D03*
X01282861Y01083802D02*
D03*
X01294861D02*
D03*
X01379542Y01222054D02*
D03*
X01391542D02*
D03*
X01328045Y01082954D02*
D03*
X01316045D02*
D03*
G54D73*
X01297330Y01233282D02*
D03*
X01313330D02*
D03*
X01583031Y01202842D02*
D03*
X01599031D02*
D03*
X01767433Y01053744D02*
D03*
X01751433D02*
D03*
G54D74*
X01330487Y01312966D02*
D03*
X01351487D02*
D03*
G54D75*
X01684757Y01003452D02*
D03*
X01705077D02*
D03*
G54D76*
X01211960Y01073048D02*
D03*
Y01025550D02*
D03*
X01185950Y01073008D02*
D03*
X01815059Y01209954D02*
D03*
X01237971Y01072540D02*
D03*
X01537691Y01201572D02*
D03*
X01237971Y01025550D02*
D03*
X01730477Y01194714D02*
D03*
Y01232814D02*
D03*
G54D77*
X01224636Y01244562D02*
D03*
Y01288562D02*
D03*
G54D78*
X01809913Y00973734D02*
D03*
Y00993734D02*
D03*
Y01013734D02*
D03*
Y01033734D02*
D03*
Y01053734D02*
D03*
X01789913Y00973734D02*
D03*
Y00993734D02*
D03*
Y01013734D02*
D03*
Y01033734D02*
D03*
G54D79*
Y01053734D02*
D03*
M02*
