G04*
G04 #@! TF.GenerationSoftware,Altium Limited,Altium Designer,18.1.9 (240)*
G04*
G04 Layer_Physical_Order=4*
G04 Layer_Color=16440176*
%FSAX44Y44*%
%MOMM*%
G71*
G01*
G75*
%ADD15C,0.2032*%
%ADD24C,0.2540*%
%ADD80C,0.1524*%
%ADD82C,0.3048*%
%ADD85C,0.5588*%
G54D15*
X00323571Y00173888D02*
Y00189123D01*
X00328649Y00184045D01*
X00333727Y00189123D01*
Y00173888D01*
X00338806D02*
X00343884D01*
X00341345D01*
Y00184045D01*
X00338806D01*
X00361658Y00189123D02*
Y00173888D01*
X00354041D01*
X00351502Y00176428D01*
Y00181506D01*
X00354041Y00184045D01*
X00361658D01*
X00366737Y00181506D02*
X00376893D01*
X00381972Y00189123D02*
Y00173888D01*
X00392128D01*
X00399746Y00184045D02*
X00404824D01*
X00407364Y00181506D01*
Y00173888D01*
X00399746D01*
X00397207Y00176428D01*
X00399746Y00178967D01*
X00407364D01*
X00412442Y00184045D02*
Y00176428D01*
X00414981Y00173888D01*
X00422599D01*
Y00171349D01*
X00420059Y00168810D01*
X00417520D01*
X00422599Y00173888D02*
Y00184045D01*
X00435294Y00173888D02*
X00430216D01*
X00427677Y00176428D01*
Y00181506D01*
X00430216Y00184045D01*
X00435294D01*
X00437834Y00181506D01*
Y00178967D01*
X00427677D01*
X00442912Y00184045D02*
Y00173888D01*
Y00178967D01*
X00445451Y00181506D01*
X00447990Y00184045D01*
X00450530D01*
X00481000Y00173888D02*
Y00189123D01*
X00473382Y00181506D01*
X00483539D01*
X01441196Y00223097D02*
Y00238332D01*
X01451353Y00223097D01*
Y00238332D01*
X01458970Y00223097D02*
X01464049D01*
X01466588Y00225636D01*
Y00230714D01*
X01464049Y00233253D01*
X01458970D01*
X01456431Y00230714D01*
Y00225636D01*
X01458970Y00223097D01*
X01474205Y00235793D02*
Y00233253D01*
X01471666D01*
X01476745D01*
X01474205D01*
Y00225636D01*
X01476745Y00223097D01*
X01499597Y00238332D02*
X01504675D01*
X01502136D01*
Y00223097D01*
X01499597D01*
X01504675D01*
X01512293D02*
Y00233253D01*
X01519910D01*
X01522450Y00230714D01*
Y00223097D01*
X01542763Y00238332D02*
Y00228175D01*
X01547841Y00223097D01*
X01552920Y00228175D01*
Y00238332D01*
X01565616Y00223097D02*
X01560537D01*
X01557998Y00225636D01*
Y00230714D01*
X01560537Y00233253D01*
X01565616D01*
X01568155Y00230714D01*
Y00228175D01*
X01557998D01*
X01573233Y00233253D02*
Y00223097D01*
Y00228175D01*
X01575773Y00230714D01*
X01578312Y00233253D01*
X01580851D01*
X01588468Y00223097D02*
X01596086D01*
X01598625Y00225636D01*
X01596086Y00228175D01*
X01591008D01*
X01588468Y00230714D01*
X01591008Y00233253D01*
X01598625D01*
X01603703Y00223097D02*
X01608782D01*
X01606243D01*
Y00233253D01*
X01603703D01*
X01618938Y00223097D02*
X01624017D01*
X01626556Y00225636D01*
Y00230714D01*
X01624017Y00233253D01*
X01618938D01*
X01616399Y00230714D01*
Y00225636D01*
X01618938Y00223097D01*
X01631634D02*
Y00233253D01*
X01639252D01*
X01641791Y00230714D01*
Y00223097D01*
X01657026Y00235793D02*
X01654487Y00238332D01*
X01649409D01*
X01646870Y00235793D01*
Y00225636D01*
X01649409Y00223097D01*
X01654487D01*
X01657026Y00225636D01*
X01664644Y00223097D02*
X01669722D01*
X01672261Y00225636D01*
Y00230714D01*
X01669722Y00233253D01*
X01664644D01*
X01662104Y00230714D01*
Y00225636D01*
X01664644Y00223097D01*
X01677340D02*
Y00233253D01*
X01684957D01*
X01687496Y00230714D01*
Y00223097D01*
X01695114Y00235793D02*
Y00233253D01*
X01692575D01*
X01697653D01*
X01695114D01*
Y00225636D01*
X01697653Y00223097D01*
X01705271Y00233253D02*
Y00223097D01*
Y00228175D01*
X01707810Y00230714D01*
X01710349Y00233253D01*
X01712888D01*
X01723045Y00223097D02*
X01728123D01*
X01730662Y00225636D01*
Y00230714D01*
X01728123Y00233253D01*
X01723045D01*
X01720506Y00230714D01*
Y00225636D01*
X01723045Y00223097D01*
X01735741D02*
X01740819D01*
X01738280D01*
Y00238332D01*
X01735741D01*
X01322829Y00235793D02*
X01320289Y00238332D01*
X01315211D01*
X01312672Y00235793D01*
Y00233253D01*
X01315211Y00230714D01*
X01320289D01*
X01322829Y00228175D01*
Y00225636D01*
X01320289Y00223097D01*
X01315211D01*
X01312672Y00225636D01*
X01327907Y00238332D02*
Y00228175D01*
X01332985Y00223097D01*
X01338064Y00228175D01*
Y00238332D01*
X01343142Y00223097D02*
Y00238332D01*
X01353299Y00223097D01*
Y00238332D01*
X01373612Y00223097D02*
Y00238332D01*
X01381230D01*
X01383769Y00235793D01*
Y00230714D01*
X01381230Y00228175D01*
X01373612D01*
X01378691D02*
X01383769Y00223097D01*
X01399004Y00238332D02*
X01388847D01*
Y00223097D01*
X01399004D01*
X01388847Y00230714D02*
X01393926D01*
X01404082Y00238332D02*
Y00228175D01*
X01409161Y00223097D01*
X01414239Y00228175D01*
Y00238332D01*
X01419317Y00233253D02*
X01421857D01*
Y00230714D01*
X01419317D01*
Y00233253D01*
Y00225636D02*
X01421857D01*
Y00223097D01*
X01419317D01*
Y00225636D01*
X01099820Y00223097D02*
Y00238332D01*
X01107438D01*
X01109977Y00235793D01*
Y00230714D01*
X01107438Y00228175D01*
X01099820D01*
X01104898D02*
X01109977Y00223097D01*
X01125212Y00238332D02*
X01115055D01*
Y00223097D01*
X01125212D01*
X01115055Y00230714D02*
X01120133D01*
X01130290Y00238332D02*
Y00228175D01*
X01135368Y00223097D01*
X01140447Y00228175D01*
Y00238332D01*
X01145525Y00233253D02*
X01148064D01*
Y00230714D01*
X01145525D01*
Y00233253D01*
Y00225636D02*
X01148064D01*
Y00223097D01*
X01145525D01*
Y00225636D01*
X00322326Y00119295D02*
Y00134530D01*
X00327404Y00129452D01*
X00332483Y00134530D01*
Y00119295D01*
X00347718Y00131991D02*
X00345179Y00134530D01*
X00340100D01*
X00337561Y00131991D01*
Y00121834D01*
X00340100Y00119295D01*
X00345179D01*
X00347718Y00121834D01*
X00352796Y00134530D02*
Y00121834D01*
X00355335Y00119295D01*
X00360414D01*
X00362953Y00121834D01*
Y00134530D01*
X00368031Y00131991D02*
X00370570Y00134530D01*
X00375649D01*
X00378188Y00131991D01*
Y00121834D01*
X00375649Y00119295D01*
X00370570D01*
X00368031Y00121834D01*
Y00131991D01*
X00383266Y00134530D02*
X00393423D01*
Y00131991D01*
X00383266Y00121834D01*
Y00119295D01*
X00408658D02*
X00398501D01*
X00408658Y00129452D01*
Y00131991D01*
X00406119Y00134530D01*
X00401040D01*
X00398501Y00131991D01*
X00413736Y00119295D02*
Y00129452D01*
X00418815Y00134530D01*
X00423893Y00129452D01*
Y00119295D01*
Y00126912D01*
X00413736D01*
X00428971Y00119295D02*
Y00121834D01*
X00431511D01*
Y00119295D01*
X00428971D01*
X00451824Y00131991D02*
X00449285Y00134530D01*
X00444207D01*
X00441667Y00131991D01*
Y00121834D01*
X00444207Y00119295D01*
X00449285D01*
X00451824Y00121834D01*
Y00126912D01*
X00446746D01*
X00456903Y00131991D02*
X00459442Y00134530D01*
X00464520D01*
X00467059Y00131991D01*
Y00129452D01*
X00464520Y00126912D01*
X00461981D01*
X00464520D01*
X00467059Y00124373D01*
Y00121834D01*
X00464520Y00119295D01*
X00459442D01*
X00456903Y00121834D01*
X00968121Y00131991D02*
X00970660Y00134530D01*
X00975739D01*
X00978278Y00131991D01*
Y00129452D01*
X00975739Y00126912D01*
X00973199D01*
X00975739D01*
X00978278Y00124373D01*
Y00121834D01*
X00975739Y00119295D01*
X00970660D01*
X00968121Y00121834D01*
X00983356Y00119295D02*
X00993513Y00129452D01*
X00998591Y00119295D02*
X01003670D01*
X01001130D01*
Y00134530D01*
X00998591Y00131991D01*
X01021444Y00119295D02*
X01011287D01*
X01021444Y00129452D01*
Y00131991D01*
X01018905Y00134530D01*
X01013826D01*
X01011287Y00131991D01*
X01026522Y00119295D02*
X01036679Y00129452D01*
X01051914Y00119295D02*
X01041757D01*
X01051914Y00129452D01*
Y00131991D01*
X01049375Y00134530D01*
X01044296D01*
X01041757Y00131991D01*
X01056992D02*
X01059531Y00134530D01*
X01064610D01*
X01067149Y00131991D01*
Y00121834D01*
X01064610Y00119295D01*
X01059531D01*
X01056992Y00121834D01*
Y00131991D01*
X01082384Y00119295D02*
X01072227D01*
X01082384Y00129452D01*
Y00131991D01*
X01079845Y00134530D01*
X01074766D01*
X01072227Y00131991D01*
X01087462D02*
X01090002Y00134530D01*
X01095080D01*
X01097619Y00131991D01*
Y00121834D01*
X01095080Y00119295D01*
X01090002D01*
X01087462Y00121834D01*
Y00131991D01*
X00757425D02*
X00754885Y00134530D01*
X00749807D01*
X00747268Y00131991D01*
Y00121834D01*
X00749807Y00119295D01*
X00754885D01*
X00757425Y00121834D01*
Y00126912D01*
X00752346D01*
X00772660Y00134530D02*
X00762503D01*
Y00119295D01*
X00772660D01*
X00762503Y00126912D02*
X00767581D01*
X00777738Y00119295D02*
Y00134530D01*
X00787895Y00119295D01*
Y00134530D01*
X00803130D02*
X00792973D01*
Y00119295D01*
X00803130D01*
X00792973Y00126912D02*
X00798052D01*
X00808208Y00119295D02*
Y00134530D01*
X00815826D01*
X00818365Y00131991D01*
Y00126912D01*
X00815826Y00124373D01*
X00808208D01*
X00813287D02*
X00818365Y00119295D01*
X00823443D02*
Y00129452D01*
X00828522Y00134530D01*
X00833600Y00129452D01*
Y00119295D01*
Y00126912D01*
X00823443D01*
X00838678Y00134530D02*
X00848835D01*
X00843757D01*
Y00119295D01*
X00864070Y00134530D02*
X00853913D01*
Y00119295D01*
X00864070D01*
X00853913Y00126912D02*
X00858992D01*
X00869149Y00134530D02*
Y00119295D01*
X00876766D01*
X00879305Y00121834D01*
Y00131991D01*
X00876766Y00134530D01*
X00869149D01*
X00945324Y00129452D02*
X00947863D01*
Y00126912D01*
X00945324D01*
Y00129452D01*
Y00121834D02*
X00947863D01*
Y00119295D01*
X00945324D01*
Y00121834D01*
X00117729Y00223097D02*
Y00233253D01*
X00122807Y00238332D01*
X00127886Y00233253D01*
Y00223097D01*
Y00230714D01*
X00117729D01*
X00132964Y00238332D02*
Y00223097D01*
X00143121D01*
X00148199Y00238332D02*
Y00223097D01*
X00158356D01*
X00178669D02*
Y00233253D01*
X00183748Y00238332D01*
X00188826Y00233253D01*
Y00223097D01*
Y00230714D01*
X00178669D01*
X00193904Y00223097D02*
Y00238332D01*
X00201522D01*
X00204061Y00235793D01*
Y00230714D01*
X00201522Y00228175D01*
X00193904D01*
X00198983D02*
X00204061Y00223097D01*
X00209139Y00238332D02*
X00219296D01*
X00214218D01*
Y00223097D01*
X00224375Y00238332D02*
Y00223097D01*
X00229453Y00228175D01*
X00234531Y00223097D01*
Y00238332D01*
X00247227D02*
X00242149D01*
X00239610Y00235793D01*
Y00225636D01*
X00242149Y00223097D01*
X00247227D01*
X00249766Y00225636D01*
Y00235793D01*
X00247227Y00238332D01*
X00254845Y00223097D02*
Y00238332D01*
X00262462D01*
X00265001Y00235793D01*
Y00230714D01*
X00262462Y00228175D01*
X00254845D01*
X00259923D02*
X00265001Y00223097D01*
X00270080Y00238332D02*
Y00223097D01*
Y00228175D01*
X00280236Y00238332D01*
X00272619Y00230714D01*
X00280236Y00223097D01*
X00300550Y00238332D02*
Y00228175D01*
X00305628Y00223097D01*
X00310707Y00228175D01*
Y00238332D01*
X00315785D02*
X00320863D01*
X00318324D01*
Y00223097D01*
X00315785D01*
X00320863D01*
X00338638Y00238332D02*
X00328481D01*
Y00223097D01*
X00338638D01*
X00328481Y00230714D02*
X00333559D01*
X00343716Y00238332D02*
Y00223097D01*
X00348794Y00228175D01*
X00353873Y00223097D01*
Y00238332D01*
X00369108D02*
X00358951D01*
Y00223097D01*
X00369108D01*
X00358951Y00230714D02*
X00364029D01*
X00374186Y00238332D02*
Y00223097D01*
X00381804D01*
X00384343Y00225636D01*
Y00235793D01*
X00381804Y00238332D01*
X00374186D01*
X00414813D02*
X00404656D01*
Y00230714D01*
X00409734D01*
X00404656D01*
Y00223097D01*
X00419891D02*
Y00238332D01*
X00427509D01*
X00430048Y00235793D01*
Y00230714D01*
X00427509Y00228175D01*
X00419891D01*
X00424970D02*
X00430048Y00223097D01*
X00442744Y00238332D02*
X00437665D01*
X00435126Y00235793D01*
Y00225636D01*
X00437665Y00223097D01*
X00442744D01*
X00445283Y00225636D01*
Y00235793D01*
X00442744Y00238332D01*
X00450361Y00223097D02*
Y00238332D01*
X00455440Y00233253D01*
X00460518Y00238332D01*
Y00223097D01*
X00480832Y00238332D02*
X00490988D01*
X00485910D01*
Y00223097D01*
X00503684Y00238332D02*
X00498606D01*
X00496067Y00235793D01*
Y00225636D01*
X00498606Y00223097D01*
X00503684D01*
X00506223Y00225636D01*
Y00235793D01*
X00503684Y00238332D01*
X00511302Y00223097D02*
Y00238332D01*
X00518919D01*
X00521458Y00235793D01*
Y00230714D01*
X00518919Y00228175D01*
X00511302D01*
X00551929Y00235793D02*
X00549389Y00238332D01*
X00544311D01*
X00541772Y00235793D01*
Y00233253D01*
X00544311Y00230714D01*
X00549389D01*
X00551929Y00228175D01*
Y00225636D01*
X00549389Y00223097D01*
X00544311D01*
X00541772Y00225636D01*
X00557007Y00238332D02*
X00562085D01*
X00559546D01*
Y00223097D01*
X00557007D01*
X00562085D01*
X00569703Y00238332D02*
Y00223097D01*
X00577320D01*
X00579860Y00225636D01*
Y00235793D01*
X00577320Y00238332D01*
X00569703D01*
X00595095D02*
X00584938D01*
Y00223097D01*
X00595095D01*
X00584938Y00230714D02*
X00590016D01*
X01173861Y00223097D02*
Y00233253D01*
X01178939Y00238332D01*
X01184018Y00233253D01*
Y00223097D01*
Y00230714D01*
X01173861D01*
X00885317Y00223097D02*
Y00238332D01*
X00890395Y00233253D01*
X00895474Y00238332D01*
Y00223097D01*
X00910709Y00235793D02*
X00908170Y00238332D01*
X00903091D01*
X00900552Y00235793D01*
Y00225636D01*
X00903091Y00223097D01*
X00908170D01*
X00910709Y00225636D01*
X00915787Y00238332D02*
Y00225636D01*
X00918326Y00223097D01*
X00923405D01*
X00925944Y00225636D01*
Y00238332D01*
X00931022Y00235793D02*
X00933561Y00238332D01*
X00938640D01*
X00941179Y00235793D01*
Y00225636D01*
X00938640Y00223097D01*
X00933561D01*
X00931022Y00225636D01*
Y00235793D01*
X00946257Y00238332D02*
X00956414D01*
Y00235793D01*
X00946257Y00225636D01*
Y00223097D01*
X00971649D02*
X00961492D01*
X00971649Y00233253D01*
Y00235793D01*
X00969110Y00238332D01*
X00964032D01*
X00961492Y00235793D01*
X00746760Y00238332D02*
Y00223097D01*
X00754378D01*
X00756917Y00225636D01*
Y00228175D01*
X00754378Y00230714D01*
X00746760D01*
X00754378D01*
X00756917Y00233253D01*
Y00235793D01*
X00754378Y00238332D01*
X00746760D01*
X00769613D02*
X00764534D01*
X00761995Y00235793D01*
Y00225636D01*
X00764534Y00223097D01*
X00769613D01*
X00772152Y00225636D01*
Y00235793D01*
X00769613Y00238332D01*
X00777230Y00223097D02*
Y00233253D01*
X00782309Y00238332D01*
X00787387Y00233253D01*
Y00223097D01*
Y00230714D01*
X00777230D01*
X00792465Y00223097D02*
Y00238332D01*
X00800083D01*
X00802622Y00235793D01*
Y00230714D01*
X00800083Y00228175D01*
X00792465D01*
X00797544D02*
X00802622Y00223097D01*
X00807700Y00238332D02*
Y00223097D01*
X00815318D01*
X00817857Y00225636D01*
Y00235793D01*
X00815318Y00238332D01*
X00807700D01*
X00840710Y00223097D02*
Y00238332D01*
X00845788D02*
Y00223097D01*
X00838170Y00233253D02*
X00845788D01*
X00848327D01*
X00838170Y00228175D02*
X00848327D01*
X00853406Y00233253D02*
X00855945D01*
Y00230714D01*
X00853406D01*
Y00233253D01*
Y00225636D02*
X00855945D01*
Y00223097D01*
X00853406D01*
Y00225636D01*
X00117729Y00186814D02*
Y00171579D01*
X00127886D01*
X00132964D02*
Y00181735D01*
X00138042Y00186814D01*
X00143121Y00181735D01*
Y00171579D01*
Y00179196D01*
X00132964D01*
X00148199Y00186814D02*
Y00184275D01*
X00153278Y00179196D01*
X00158356Y00184275D01*
Y00186814D01*
X00153278Y00179196D02*
Y00171579D01*
X00173591Y00186814D02*
X00163434D01*
Y00171579D01*
X00173591D01*
X00163434Y00179196D02*
X00168513D01*
X00178669Y00171579D02*
Y00186814D01*
X00186287D01*
X00188826Y00184275D01*
Y00179196D01*
X00186287Y00176657D01*
X00178669D01*
X00183748D02*
X00188826Y00171579D01*
X00209139D02*
Y00186814D01*
X00219296Y00171579D01*
Y00186814D01*
X00224375Y00171579D02*
Y00181735D01*
X00229453Y00186814D01*
X00234531Y00181735D01*
Y00171579D01*
Y00179196D01*
X00224375D01*
X00239610Y00171579D02*
Y00186814D01*
X00244688Y00181735D01*
X00249766Y00186814D01*
Y00171579D01*
X00265001Y00186814D02*
X00254845D01*
Y00171579D01*
X00265001D01*
X00254845Y00179196D02*
X00259923D01*
X00285315Y00176657D02*
X00295471D01*
X00285315Y00181735D02*
X00295471D01*
X00117729Y00119295D02*
Y00134530D01*
X00125346D01*
X00127886Y00131991D01*
Y00126912D01*
X00125346Y00124373D01*
X00117729D01*
X00132964Y00134530D02*
Y00119295D01*
X00143121D01*
X00155817Y00134530D02*
X00150738D01*
X00148199Y00131991D01*
Y00121834D01*
X00150738Y00119295D01*
X00155817D01*
X00158356Y00121834D01*
Y00131991D01*
X00155817Y00134530D01*
X00163434D02*
X00173591D01*
X00168513D01*
Y00119295D01*
X00193904D02*
Y00134530D01*
X00204061Y00119295D01*
Y00134530D01*
X00209139Y00119295D02*
Y00129452D01*
X00214218Y00134530D01*
X00219296Y00129452D01*
Y00119295D01*
Y00126912D01*
X00209139D01*
X00224375Y00119295D02*
Y00134530D01*
X00229453Y00129452D01*
X00234531Y00134530D01*
Y00119295D01*
X00249766Y00134530D02*
X00239610D01*
Y00119295D01*
X00249766D01*
X00239610Y00126912D02*
X00244688D01*
X00270080Y00124373D02*
X00280236D01*
X00270080Y00129452D02*
X00280236D01*
X01153287Y00131991D02*
X01155826Y00134530D01*
X01160904D01*
X01163444Y00131991D01*
Y00129452D01*
X01160904Y00126912D01*
X01158365D01*
X01160904D01*
X01163444Y00124373D01*
Y00121834D01*
X01160904Y00119295D01*
X01155826D01*
X01153287Y00121834D01*
X01168522Y00129452D02*
X01171061D01*
Y00126912D01*
X01168522D01*
Y00129452D01*
Y00121834D02*
X01171061D01*
Y00119295D01*
X01168522D01*
Y00121834D01*
X01191375Y00119295D02*
X01181218D01*
X01191375Y00129452D01*
Y00131991D01*
X01188836Y00134530D01*
X01183757D01*
X01181218Y00131991D01*
X01196453D02*
X01198992Y00134530D01*
X01204071D01*
X01206610Y00131991D01*
Y00129452D01*
X01204071Y00126912D01*
X01201531D01*
X01204071D01*
X01206610Y00124373D01*
Y00121834D01*
X01204071Y00119295D01*
X01198992D01*
X01196453Y00121834D01*
X01211688Y00129452D02*
X01214227D01*
Y00126912D01*
X01211688D01*
Y00129452D01*
Y00121834D02*
X01214227D01*
Y00119295D01*
X01211688D01*
Y00121834D01*
X01232001Y00119295D02*
Y00134530D01*
X01224384Y00126912D01*
X01234541D01*
X01239619Y00131991D02*
X01242158Y00134530D01*
X01247237D01*
X01249776Y00131991D01*
Y00121834D01*
X01247237Y00119295D01*
X01242158D01*
X01239619Y00121834D01*
Y00131991D01*
X01270089Y00119295D02*
Y00134530D01*
X01277707D01*
X01280246Y00131991D01*
Y00126912D01*
X01277707Y00124373D01*
X01270089D01*
X01285324Y00119295D02*
Y00134530D01*
X01290403Y00129452D01*
X01295481Y00134530D01*
Y00119295D01*
X01474470Y00134530D02*
X01484627D01*
X01479548D01*
Y00119295D01*
X01499862Y00134530D02*
X01489705D01*
Y00119295D01*
X01499862D01*
X01489705Y00126912D02*
X01494783D01*
X01504940Y00134530D02*
X01515097Y00119295D01*
Y00134530D02*
X01504940Y00119295D01*
X01520175D02*
Y00129452D01*
X01525254Y00134530D01*
X01530332Y00129452D01*
Y00119295D01*
Y00126912D01*
X01520175D01*
X01545567Y00131991D02*
X01543028Y00134530D01*
X01537950D01*
X01535410Y00131991D01*
Y00129452D01*
X01537950Y00126912D01*
X01543028D01*
X01545567Y00124373D01*
Y00121834D01*
X01543028Y00119295D01*
X01537950D01*
X01535410Y00121834D01*
X01565880Y00134530D02*
X01570959D01*
X01568420D01*
Y00119295D01*
X01565880D01*
X01570959D01*
X01578576D02*
Y00134530D01*
X01588733Y00119295D01*
Y00134530D01*
X01603968Y00131991D02*
X01601429Y00134530D01*
X01596351D01*
X01593811Y00131991D01*
Y00129452D01*
X01596351Y00126912D01*
X01601429D01*
X01603968Y00124373D01*
Y00121834D01*
X01601429Y00119295D01*
X01596351D01*
X01593811Y00121834D01*
X01609046Y00134530D02*
X01619203D01*
X01614125D01*
Y00119295D01*
X01624281D02*
Y00134530D01*
X01631899D01*
X01634438Y00131991D01*
Y00126912D01*
X01631899Y00124373D01*
X01624281D01*
X01629360D02*
X01634438Y00119295D01*
X01639517Y00134530D02*
Y00121834D01*
X01642056Y00119295D01*
X01647134D01*
X01649673Y00121834D01*
Y00134530D01*
X01654752Y00119295D02*
Y00134530D01*
X01659830Y00129452D01*
X01664908Y00134530D01*
Y00119295D01*
X01680143Y00134530D02*
X01669987D01*
Y00119295D01*
X01680143D01*
X01669987Y00126912D02*
X01675065D01*
X01685222Y00119295D02*
Y00134530D01*
X01695379Y00119295D01*
Y00134530D01*
X01700457D02*
X01710614D01*
X01705535D01*
Y00119295D01*
X01725849Y00131991D02*
X01723309Y00134530D01*
X01718231D01*
X01715692Y00131991D01*
Y00129452D01*
X01718231Y00126912D01*
X01723309D01*
X01725849Y00124373D01*
Y00121834D01*
X01723309Y00119295D01*
X01718231D01*
X01715692Y00121834D01*
X00746760Y00186685D02*
X00756917D01*
X00751838D01*
Y00171450D01*
X00761995Y00186685D02*
X00767073D01*
X00764534D01*
Y00171450D01*
X00761995D01*
X00767073D01*
X00774691Y00186685D02*
Y00171450D01*
X00782309D01*
X00784848Y00173989D01*
Y00184146D01*
X00782309Y00186685D01*
X00774691D01*
X00807700Y00171450D02*
Y00186685D01*
X00812779D02*
Y00171450D01*
X00805161Y00181607D02*
X00812779D01*
X00815318D01*
X00805161Y00176528D02*
X00815318D01*
X00820396Y00181607D02*
X00822935D01*
Y00179067D01*
X00820396D01*
Y00181607D01*
Y00173989D02*
X00822935D01*
Y00171450D01*
X00820396D01*
Y00173989D01*
X00885317Y00171450D02*
Y00186685D01*
X00895474Y00171450D01*
Y00186685D01*
X00900552Y00171450D02*
X00910709Y00181607D01*
X00915787Y00171450D02*
Y00181607D01*
X00920865Y00186685D01*
X00925944Y00181607D01*
Y00171450D01*
Y00179067D01*
X00915787D01*
G54D24*
X01262888Y00205020D02*
Y00256667D01*
X01049528Y00205020D02*
Y00256667D01*
X00101600Y00205020D02*
X01778508D01*
X00101600Y00153374D02*
X01778000D01*
X00101600Y00101727D02*
X01118870D01*
X00101727Y00256667D02*
X01778508D01*
X00101727Y00101727D02*
Y00256667D01*
Y00101727D02*
X00501904D01*
X00101600D02*
Y00256667D01*
X00727710Y00101727D02*
Y00256667D01*
X01778508Y00101727D02*
Y00256667D01*
X01118870Y00101727D02*
X01778508D01*
X01420876Y00100076D02*
Y00151596D01*
G54D80*
X01715491Y01058643D02*
X01720661Y01063813D01*
X01695171Y01028344D02*
X01726159Y01059332D01*
X01451077Y00892708D02*
Y00895938D01*
X01454748Y00883310D02*
X01461745D01*
X01634719Y01149285D02*
Y01152804D01*
X01501115Y00904900D02*
X01521065D01*
X01540369Y00924204D01*
X01661135Y00995254D02*
Y01066733D01*
X01638529Y01089339D02*
X01661135Y01066733D01*
X01638529Y01089339D02*
Y01123544D01*
X01635989Y01088287D02*
Y01124596D01*
Y01088287D02*
X01658595Y01065681D01*
X01656055Y00997358D02*
Y01064629D01*
X01633449Y01087235D02*
X01656055Y01064629D01*
X01633449Y01087235D02*
Y01125648D01*
X01630909Y01086183D02*
Y01126701D01*
Y01086183D02*
X01653515Y01063577D01*
X01650975Y00999462D02*
Y01062525D01*
X01628369Y01085131D02*
X01650975Y01062525D01*
X01628369Y01085131D02*
Y01128166D01*
X01625829Y01084079D02*
Y01132484D01*
Y01084079D02*
X01648435Y01061473D01*
X01623289Y01083027D02*
X01645895Y01060421D01*
X01623289Y01083027D02*
Y01134262D01*
X01620749Y01081974D02*
Y01135314D01*
Y01081974D02*
X01643355Y01059369D01*
Y01002618D02*
Y01059369D01*
X01640815Y01003670D02*
Y01058316D01*
X01618209Y01080922D02*
X01640815Y01058316D01*
X01618209Y01080922D02*
Y01141882D01*
X01631075Y00997523D02*
Y01054956D01*
X01628535Y00999047D02*
Y01053904D01*
X01645895Y01001566D02*
Y01060421D01*
X01648435Y01000514D02*
Y01061473D01*
X01653515Y00998410D02*
Y01063577D01*
X01658595Y00996306D02*
Y01065681D01*
X01310361Y00885850D02*
X01315695Y00880516D01*
X01441171Y01032408D02*
X01505179Y01096416D01*
X01509223D01*
X01482645Y00937412D02*
X01574557D01*
X01468581Y00923348D02*
X01482645Y00937412D01*
X01481593Y00939952D02*
X01573505D01*
X01467529Y00925888D02*
X01481593Y00939952D01*
X01480541Y00942492D02*
X01571981D01*
X01466477Y00928428D02*
X01480541Y00942492D01*
X01456165Y00928428D02*
X01466477D01*
X01471027Y00921410D02*
X01503285D01*
X01465947Y00916330D02*
X01471027Y00921410D01*
X01459111Y00923348D02*
X01468581D01*
X01454651Y00918888D02*
X01459111Y00923348D01*
X01457217Y00925888D02*
X01467529D01*
X01452111Y00920782D02*
X01457217Y00925888D01*
X01449571Y00921834D02*
X01456165Y00928428D01*
X01442441Y00935634D02*
X01449317D01*
X01449571Y00907851D02*
Y00921834D01*
X01452111Y00900564D02*
Y00920782D01*
X01454651Y00899512D02*
Y00918888D01*
X01458969Y00945286D02*
X01571654D01*
X01449317Y00935634D02*
X01458969Y00945286D01*
X01454125Y00947826D02*
X01570602D01*
X01449045Y00942746D02*
X01454125Y00947826D01*
X01366356Y00904392D02*
X01391895Y00929931D01*
X01362431Y00904392D02*
X01366356D01*
X01274547Y00903450D02*
Y00970686D01*
Y00903450D02*
X01275817Y00902180D01*
X01271753Y00973480D02*
X01274547Y00970686D01*
X01267435Y00970294D02*
X01272007Y00965722D01*
Y00913652D02*
Y00965722D01*
X01263371Y00905016D02*
X01272007Y00913652D01*
X01277849Y00903740D02*
X01296500Y00885088D01*
X01277849Y00903740D02*
Y00974866D01*
X01280389Y00930554D02*
X01307821Y00957986D01*
X01280389Y00904792D02*
Y00930554D01*
Y00904792D02*
X01291456Y00893724D01*
X01282929Y00916736D02*
X01312393Y00946200D01*
X01282929Y00905844D02*
Y00916736D01*
Y00905844D02*
X01292508Y00896264D01*
X01285469Y00915684D02*
X01288147Y00918362D01*
X01285469Y00906896D02*
Y00915684D01*
Y00906896D02*
X01293560Y00898804D01*
X01267435Y00970294D02*
Y00981608D01*
X01272007Y00980708D02*
X01277849Y00974866D01*
X01271753Y00983756D02*
Y00991260D01*
Y00983756D02*
X01272007Y00983502D01*
Y00980708D02*
Y00983502D01*
X01267435Y00912672D02*
Y00959764D01*
X01271753Y00973480D02*
X01272769D01*
X01667653Y00948431D02*
X01697711Y00978488D01*
X01639895Y00948431D02*
X01667653D01*
X01666601Y00950971D02*
X01695171Y00979540D01*
X01692631Y00980592D02*
Y01031138D01*
X01665549Y00953511D02*
X01692631Y00980592D01*
X01623131Y00953511D02*
X01665549D01*
X01635539Y00950971D02*
X01666601D01*
X01611186Y00926618D02*
X01635539Y00950971D01*
X01599413Y00907948D02*
X01639895Y00948431D01*
X01611097Y00941476D02*
X01623131Y00953511D01*
X01611097Y00935126D02*
Y00941476D01*
X01570203Y00904322D02*
X01661135Y00995254D01*
X01578873Y00916584D02*
X01658595Y00996306D01*
X01577821Y00919124D02*
X01656055Y00997358D01*
X01576769Y00921664D02*
X01653515Y00998410D01*
X01575717Y00924204D02*
X01650975Y00999462D01*
X01574665Y00926744D02*
X01648435Y01000514D01*
X01573613Y00929284D02*
X01645895Y01001566D01*
X01572561Y00931824D02*
X01643355Y01002618D01*
X01574557Y00937412D02*
X01640815Y01003670D01*
X01573505Y00939952D02*
X01631075Y00997523D01*
X01572706Y00942746D02*
X01616177Y00986217D01*
X01571654Y00945286D02*
X01613637Y00987269D01*
X01570602Y00947826D02*
X01611097Y00988321D01*
X01570203Y00899451D02*
Y00904322D01*
X01560115Y00916584D02*
X01578873D01*
X01558011Y00921664D02*
X01576769D01*
X01540369Y00924204D02*
X01575717D01*
X01539317Y00926744D02*
X01574665D01*
X01538265Y00929284D02*
X01573613D01*
X01537213Y00931824D02*
X01572561D01*
X01611097Y00988321D02*
Y01064158D01*
X01613637Y00987269D02*
Y01065210D01*
X01616177Y00986217D02*
Y00986688D01*
X01572235Y00942746D02*
X01572706D01*
X01571981Y00942492D02*
X01572235Y00942746D01*
X01545057Y00908710D02*
X01558011Y00921664D01*
X01559063Y00919124D02*
X01577821D01*
X01546109Y00906170D02*
X01559063Y00919124D01*
X01550391Y00906860D02*
X01560115Y00916584D01*
X01616177Y00986688D02*
X01628535Y00999047D01*
X01575283Y01103565D02*
X01613637Y01065210D01*
X01536929Y01138326D02*
X01611097Y01064158D01*
X01503285Y00921410D02*
X01504301Y00920394D01*
X01525782D01*
X01537213Y00931824D01*
X01526581Y00917600D02*
X01538265Y00929284D01*
X01473683Y00917600D02*
X01526581D01*
X01472921Y00916838D02*
X01473683Y00917600D01*
X01456919Y00894371D02*
X01477608Y00915060D01*
X01527633D02*
X01539317Y00926744D01*
X01477608Y00915060D02*
X01527633D01*
X01371255Y01021994D02*
X01407171D01*
X01370493Y01021232D02*
X01371255Y01021994D01*
X01369477Y01021232D02*
X01370493D01*
X01370202Y01024534D02*
X01406119D01*
X01369440Y01023772D02*
X01370202Y01024534D01*
X01368425Y01023772D02*
X01369440D01*
X01369150Y01027074D02*
X01405067D01*
X01368388Y01026312D02*
X01369150Y01027074D01*
X01366495Y01030884D02*
X01405284D01*
X01746987Y01144168D02*
Y01201318D01*
X01759687Y01214018D01*
X01741907Y01146273D02*
Y01280276D01*
X01728663Y01293520D02*
X01741907Y01280276D01*
X01647419Y01293520D02*
X01728663D01*
X01744447Y01145220D02*
Y01281328D01*
X01727791Y01297984D02*
X01744447Y01281328D01*
X01645416Y01297984D02*
X01727791D01*
X01613891Y01266458D02*
X01645416Y01297984D01*
X01613891Y01266342D02*
Y01266458D01*
X01646911Y01293012D02*
X01647419Y01293520D01*
X01685519Y01086256D02*
Y01275994D01*
X01678661Y01282852D02*
X01685519Y01275994D01*
X01646911Y01282852D02*
X01678661D01*
X01646911Y01270152D02*
X01675867D01*
X01682979Y01263040D01*
Y01090574D02*
Y01263040D01*
X01739367Y01149248D02*
Y01252626D01*
X01721333Y01270660D02*
X01739367Y01252626D01*
X01688059Y01085204D02*
Y01251356D01*
X01707363Y01270660D01*
X01329883Y01025296D02*
X01331407Y01023772D01*
X01290803Y01025296D02*
X01329883D01*
X01288771Y01027328D02*
X01290803Y01025296D01*
X01329592Y01021994D02*
X01330354Y01021232D01*
X01325739Y01021994D02*
X01329592D01*
X01321167Y01017422D02*
X01325739Y01021994D01*
X01330354Y01021232D02*
X01369477D01*
X01332459Y01026312D02*
X01368388D01*
X01328141Y01030630D02*
X01332459Y01026312D01*
X01358505Y01017422D02*
X01363839Y01012088D01*
X01327633Y01017422D02*
X01358505D01*
X01367880Y01012342D02*
X01425713D01*
X01367626Y01012088D02*
X01367880Y01012342D01*
X01363839Y01012088D02*
X01367626D01*
X01425713Y01012342D02*
X01430793Y01007262D01*
X01426693Y01007770D02*
X01433805Y01000658D01*
X01414247Y01007770D02*
X01426693D01*
X01479234Y01016914D02*
X01484061Y01012088D01*
X01415517Y01016914D02*
X01479234D01*
X01477493Y01022248D02*
X01483081Y01016660D01*
X01411017Y01022248D02*
X01477493D01*
X01485983Y01066444D02*
X01532611D01*
X01444327Y01024788D02*
X01485983Y01066444D01*
X01409965Y01024788D02*
X01444327D01*
X01502203Y01086256D02*
X01532611D01*
X01443275Y01027328D02*
X01502203Y01086256D01*
X01503691Y01091336D02*
X01538453D01*
X01442223Y01029868D02*
X01503691Y01091336D01*
X01406808Y01032408D02*
X01441171D01*
X01343381Y00951128D02*
Y00959764D01*
X01405429Y01016660D02*
X01411017Y01022248D01*
X01407171Y01021994D02*
X01409965Y01024788D01*
X01408913Y01027328D02*
X01443275D01*
X01406119Y01024534D02*
X01408913Y01027328D01*
X01407861Y01029868D02*
X01442223D01*
X01405067Y01027074D02*
X01407861Y01029868D01*
X01405284Y01030884D02*
X01406808Y01032408D01*
X01331407Y01023772D02*
X01368425D01*
X01365733Y01016660D02*
X01405429D01*
X01286993Y01017422D02*
X01321167D01*
X01599413Y00900074D02*
Y00907948D01*
X01652245Y01144053D02*
Y01163618D01*
X01636896Y01178966D02*
X01652245Y01163618D01*
X01629639Y01178966D02*
X01636896D01*
X01654785Y01143000D02*
Y01164670D01*
X01634138Y01185316D02*
X01654785Y01164670D01*
X01626337Y01185316D02*
X01634138D01*
X01657325Y01141822D02*
Y01165722D01*
X01633159Y01189888D02*
X01657325Y01165722D01*
X01620495Y01189888D02*
X01633159D01*
X01659865Y01140770D02*
Y01166774D01*
X01633957Y01192682D02*
X01659865Y01166774D01*
X01618209Y01192682D02*
X01633957D01*
X01606779Y01181252D02*
X01618209Y01192682D01*
X01615669Y01185062D02*
X01620495Y01189888D01*
X01644265Y01128762D02*
X01657325Y01141822D01*
X01645317Y01126222D02*
X01659865Y01140770D01*
X01643087Y01131302D02*
X01654785Y01143000D01*
X01642034Y01133842D02*
X01652245Y01144053D01*
X01640155Y01128762D02*
X01644265D01*
X01641207Y01126222D02*
X01645317D01*
X01638051Y01133842D02*
X01642034D01*
X01639103Y01131302D02*
X01643087D01*
X01430793Y01007262D02*
X01564615D01*
X01433805Y01000658D02*
X01566393D01*
X01726159Y01126933D02*
X01744447Y01145220D01*
X01705585Y01058709D02*
Y01115466D01*
X01739367Y01149248D01*
X01728699Y01054760D02*
Y01125880D01*
X01746987Y01144168D01*
X01726159Y01059332D02*
Y01126933D01*
X01720571Y01063904D02*
Y01124937D01*
X01715491Y01053998D02*
Y01058643D01*
X01692631Y01031138D02*
X01715491Y01053998D01*
X01697711Y01023772D02*
X01728699Y01054760D01*
X01697711Y00978488D02*
Y01023772D01*
X01695171Y00979540D02*
Y01028344D01*
X01671295Y01072032D02*
X01685519Y01086256D01*
X01674851Y01082446D02*
X01682979Y01090574D01*
X01699489Y01046838D02*
Y01052613D01*
X01705585Y01058709D01*
X01696810Y01044159D02*
X01699489Y01046838D01*
X01691039Y01044159D02*
X01696810D01*
X01643609Y01091590D02*
X01691039Y01044159D01*
X01565377Y00894625D02*
X01570203Y00899451D01*
X01565377Y00891692D02*
Y00894625D01*
X01606779Y01180236D02*
Y01181252D01*
X01638529Y01123544D02*
X01641207Y01126222D01*
X01550391Y00897280D02*
X01555471Y00892200D01*
X01550391Y00897280D02*
Y00906860D01*
X01615669Y01182522D02*
Y01185062D01*
X01635989Y01124596D02*
X01640155Y01128762D01*
X01543417Y00906170D02*
X01546109D01*
X01540739Y00903492D02*
X01543417Y00906170D01*
X01540739Y00899705D02*
Y00903492D01*
X01543417Y00897026D02*
X01546696D01*
X01540739Y00899705D02*
X01543417Y00897026D01*
X01560043Y00895248D02*
X01565631Y00900836D01*
X01560043Y00890307D02*
Y00895248D01*
X01557364Y00887628D02*
X01560043Y00890307D01*
X01550137Y00891069D02*
Y00893586D01*
X01546696Y00897026D02*
X01550137Y00893586D01*
X01553577Y00887628D02*
X01557364D01*
X01550137Y00891069D02*
X01553577Y00887628D01*
X01633449Y01125648D02*
X01639103Y01131302D01*
X01542365Y00908710D02*
X01545057D01*
X01538199Y00904544D02*
X01542365Y00908710D01*
X01538199Y00898652D02*
X01544651Y00892200D01*
X01538199Y00898652D02*
Y00904544D01*
X01544651Y00892200D02*
X01545057D01*
X01630909Y01126701D02*
X01638051Y01133842D01*
X01638275Y01138072D02*
Y01138414D01*
X01628369Y01128166D02*
X01638275Y01138072D01*
X01456919Y00889291D02*
Y00894371D01*
X01449414Y00881786D02*
X01456919Y00889291D01*
X01446759Y00881786D02*
X01449414D01*
X01642681Y01142986D02*
X01643101Y01143406D01*
X01636331Y01142986D02*
X01642681D01*
X01625829Y01132484D02*
X01636331Y01142986D01*
X01720571Y01124937D02*
X01741907Y01146273D01*
X01610783Y00926618D02*
X01611186D01*
X01344397Y00916584D02*
X01365479Y00937666D01*
X01333221Y00919378D02*
X01382243Y00968400D01*
X01322045Y00917129D02*
X01350487Y00945571D01*
X01330681Y00922172D02*
X01357605Y00949096D01*
Y00979576D01*
X01350487Y00945571D02*
Y00985170D01*
X01385799Y00939190D02*
Y00964082D01*
X01391895Y00929931D02*
Y00977798D01*
X01275817Y00895756D02*
Y00902180D01*
X01260831Y00898260D02*
X01266165Y00892926D01*
X01260831Y00898260D02*
Y00906068D01*
X01267435Y00912672D01*
X01263371Y00899312D02*
X01268705Y00893978D01*
X01263371Y00899312D02*
Y00905016D01*
X01306043Y00965745D02*
Y00972210D01*
X01297915Y00980338D02*
X01306043Y00972210D01*
X01309714Y00962558D02*
X01312393Y00959880D01*
X01309229Y00962558D02*
X01309714D01*
X01312393Y00946200D02*
Y00959880D01*
X01306043Y00965745D02*
X01309229Y00962558D01*
X01317473Y00934757D02*
Y00979576D01*
X01293597Y00910881D02*
X01317473Y00934757D01*
X01306297Y00990752D02*
X01317473Y00979576D01*
X01310615Y00967638D02*
X01314933Y00963320D01*
Y00945010D02*
Y00963320D01*
X01288285Y00918362D02*
X01314933Y00945010D01*
X01288147Y00918362D02*
X01288285D01*
X01293597Y00902360D02*
Y00910881D01*
Y00902360D02*
X01294613Y00901344D01*
X01316711Y00924458D02*
X01343381Y00951128D01*
X01316341Y00924458D02*
X01316711D01*
X01298169Y00906286D02*
X01316341Y00924458D01*
X01298169Y00905916D02*
Y00906286D01*
X01345667Y00989990D02*
X01350487Y00985170D01*
X01322045Y00904023D02*
Y00917129D01*
Y00904023D02*
X01325855Y00900213D01*
Y00892200D02*
Y00900213D01*
X01330681Y00909980D02*
Y00922172D01*
X01326617Y00905916D02*
X01330681Y00909980D01*
X01334527Y00906678D02*
Y00911250D01*
X01333221Y00912557D02*
Y00919378D01*
Y00912557D02*
X01334527Y00911250D01*
X01382243Y00968400D02*
Y00994054D01*
X01383767Y00995578D01*
X01344397Y00900467D02*
Y00916584D01*
X01348969Y00902360D02*
X01385799Y00939190D01*
X01386815Y00982878D02*
X01391895Y00977798D01*
X01344397Y00900467D02*
X01348461Y00896403D01*
Y00891946D02*
Y00896403D01*
X01291456Y00893724D02*
X01294867D01*
X01296899Y00891692D01*
X01296500Y00885088D02*
X01300709D01*
X01294613Y00901344D02*
X01312000D01*
X01293560Y00898804D02*
X01306399D01*
X01266165Y00876198D02*
Y00892926D01*
X01268705Y00879500D02*
Y00893978D01*
X01292508Y00896264D02*
X01299808D01*
X01302233Y00893840D01*
X01306399Y00898804D02*
X01314527Y00890676D01*
X01312000Y00901344D02*
X01320013Y00893332D01*
Y00891577D02*
X01323961Y00887628D01*
X01320013Y00891577D02*
Y00893332D01*
X01327748Y00887628D02*
X01333221Y00893101D01*
Y00896264D01*
X01340333Y00878623D02*
Y00885088D01*
X01336523Y00888898D02*
X01340333Y00885088D01*
X01323961Y00887628D02*
X01327748D01*
X01460983Y00916330D02*
X01465947D01*
X01436942Y00888136D02*
X01442187Y00882892D01*
X01433181Y00888136D02*
X01436942D01*
X01442187Y00879893D02*
Y00882892D01*
Y00879893D02*
X01444865Y00877214D01*
X01441032Y00899312D02*
X01449571Y00907851D01*
X01435329Y00892454D02*
X01444001D01*
X01272769Y00875436D02*
X01330681D01*
X01270991Y00871372D02*
X01333082D01*
X01685392Y01072679D02*
X01694917Y01063154D01*
Y01048732D02*
Y01063154D01*
X01685392Y01082537D02*
X01688059Y01085204D01*
X01685392Y01072679D02*
Y01082537D01*
X01615669Y01070363D02*
X01631075Y01054956D01*
X01615669Y01070363D02*
Y01147724D01*
X01600537Y01081903D02*
X01628535Y01053904D01*
X01600537Y01081903D02*
Y01147832D01*
X01575283Y01103565D02*
Y01142616D01*
X01536929Y01138326D02*
Y01152804D01*
X01623289Y01134262D02*
X01634553Y01145526D01*
X01620749Y01135314D02*
X01634719Y01149285D01*
X01618209Y01141882D02*
X01623718Y01147391D01*
X01615669Y01147724D02*
X01622527Y01154582D01*
X01637855Y01145526D02*
X01647419Y01155090D01*
X01634553Y01145526D02*
X01637855D01*
X01634719Y01152804D02*
X01635227D01*
X01451077Y00895938D02*
X01454651Y00899512D01*
X01444001Y00892454D02*
X01452111Y00900564D01*
X01435075Y00892708D02*
X01435329Y00892454D01*
X01434821Y00899312D02*
X01441032D01*
X01430503Y00894994D02*
X01434821Y00899312D01*
X01448652Y00877214D02*
X01454748Y00883310D01*
X01444865Y00877214D02*
X01448652D01*
X01430503Y00890815D02*
X01433181Y00888136D01*
X01430503Y00890815D02*
Y00894994D01*
X01484061Y01012088D02*
X01539215D01*
X01483081Y01016660D02*
X01531595D01*
X01539215Y01012088D02*
X01542263Y01015136D01*
X01268705Y00879500D02*
X01272769Y00875436D01*
X01266165Y00876198D02*
X01270991Y00871372D01*
X01330681Y00875436D02*
X01335761Y00880516D01*
X01305673Y00885850D02*
X01310361D01*
X01348969Y00902360D02*
Y00904392D01*
X01333082Y00871372D02*
X01340333Y00878623D01*
X01300709Y00885088D02*
X01305281Y00880516D01*
X01314527Y00890676D02*
X01315289Y00891438D01*
X01315441D01*
X01302233Y00889291D02*
X01305673Y00885850D01*
X01302233Y00889291D02*
Y00893840D01*
G54D82*
X01422121Y00890930D02*
Y00903769D01*
X01451352Y00933000D02*
X01457233D01*
X01422121Y00903769D02*
X01451352Y00933000D01*
X01229081Y00919632D02*
Y00938174D01*
Y00919632D02*
X01249147Y00899566D01*
X01378179Y00846988D02*
X01422121Y00890930D01*
X01257529Y00846988D02*
X01378179D01*
X01249147Y00855370D02*
X01257529Y00846988D01*
X01249147Y00855370D02*
Y00899566D01*
G54D85*
X01451077Y00892708D02*
D03*
X01461745Y00883310D02*
D03*
X01501115Y00904900D02*
D03*
X01457233Y00933000D02*
D03*
X01442441Y00935634D02*
D03*
X01362431Y00904392D02*
D03*
X01271753Y00991260D02*
D03*
X01267435Y00959764D02*
D03*
X01272769Y00973480D02*
D03*
X01229081Y00938174D02*
D03*
X01366495Y01030884D02*
D03*
X01449045Y00942746D02*
D03*
X01343381Y00959764D02*
D03*
X01415517Y01016914D02*
D03*
X01414247Y01007770D02*
D03*
X01365733Y01016660D02*
D03*
X01286993Y01017422D02*
D03*
X01328141Y01030630D02*
D03*
X01288771Y01027328D02*
D03*
X01327633Y01017422D02*
D03*
X01564615Y01007262D02*
D03*
X01566393Y01000658D02*
D03*
X01671295Y01072032D02*
D03*
X01674851Y01082446D02*
D03*
X01643609Y01091590D02*
D03*
X01565377Y00891692D02*
D03*
X01606779Y01180236D02*
D03*
X01555471Y00892200D02*
D03*
X01615669Y01182522D02*
D03*
X01565631Y00901344D02*
D03*
X01626337Y01185316D02*
D03*
X01545057Y00892200D02*
D03*
X01629639Y01178966D02*
D03*
X01638275Y01138414D02*
D03*
X01446759Y00881786D02*
D03*
X01643101Y01143406D02*
D03*
X01611097Y00935126D02*
D03*
X01610783Y00926618D02*
D03*
X01365479Y00937666D02*
D03*
X01334527Y00906678D02*
D03*
X01298169Y00905916D02*
D03*
X01275817Y00895756D02*
D03*
X01326617Y00905916D02*
D03*
X01325855Y00892200D02*
D03*
X01333221Y00896264D02*
D03*
X01336523Y00888898D02*
D03*
X01460983Y00916330D02*
D03*
X01720571Y01063904D02*
D03*
X01721587Y01055268D02*
D03*
X01623718Y01147391D02*
D03*
X01575283Y01142616D02*
D03*
X01600537Y01147832D02*
D03*
X01531595Y01016660D02*
D03*
X01542263Y01015136D02*
D03*
X01532611Y01066444D02*
D03*
Y01086256D02*
D03*
X01538453Y01091336D02*
D03*
X01509223Y01096416D02*
D03*
X01759687Y01214018D02*
D03*
X01721333Y01270660D02*
D03*
X01694917Y01048732D02*
D03*
X01647419Y01155090D02*
D03*
X01635227Y01152804D02*
D03*
X01622527Y01154582D02*
D03*
X01472921Y00916838D02*
D03*
X01435075Y00892708D02*
D03*
X01536929Y01152804D02*
D03*
X01707363Y01270660D02*
D03*
X01386815Y00982878D02*
D03*
X01385799Y00964082D02*
D03*
X01307821Y00957986D02*
D03*
X01310615Y00967638D02*
D03*
X01267435Y00981608D02*
D03*
X01297915Y00980338D02*
D03*
X01296899Y00891692D02*
D03*
X01348969Y00902360D02*
D03*
X01335761Y00880516D02*
D03*
X01306297Y00990752D02*
D03*
X01315441Y00880516D02*
D03*
X01305281D02*
D03*
X01646911Y01270152D02*
D03*
Y01282852D02*
D03*
Y01293012D02*
D03*
X01613891Y01266342D02*
D03*
X01599159Y00900328D02*
D03*
X01383767Y00995578D02*
D03*
X01357605Y00979576D02*
D03*
X01345667Y00989990D02*
D03*
X01348461Y00891946D02*
D03*
X01315441Y00891438D02*
D03*
M02*
