*
*
G04 PADS9.1 Build Number: 384028 generated Gerber (RS-274-X) file*
G04 PC Version=2.1*
*
%IN "TEX037_F28069ControlCar"*%
*
%MOIN*%
*
%FSLAX35Y35*%
*
*
*
*
G04 PC Standard Apertures*
*
*
G04 Thermal Relief Aperture macro.*
%AMTER*
1,1,$1,0,0*
1,0,$1-$2,0,0*
21,0,$3,$4,0,0,45*
21,0,$3,$4,0,0,135*
%
*
*
G04 Annular Aperture macro.*
%AMANN*
1,1,$1,0,0*
1,0,$2,0,0*
%
*
*
G04 Odd Aperture macro.*
%AMODD*
1,1,$1,0,0*
1,0,$1-0.005,0,0*
%
*
*
G04 PC Custom Aperture Macros*
*
*
*
*
*
*
G04 PC Aperture Table*
*
%ADD010C,0.001*%
%ADD027C,0.01*%
%ADD030C,0.02*%
%ADD033C,0.008*%
%ADD035C,0.032*%
%ADD036C,0.05*%
%ADD037C,0.025*%
%ADD060C,0*%
%ADD074C,0.08*%
%ADD094R,0.063X0.04*%
%ADD121C,0.02775*%
*
*
*
*
G04 PC Circuitry*
G04 Layer Name TEX037_F28069ControlCar - circuitry*
%LPD*%
*
*
G04 PC Custom Flashes*
G04 Layer Name TEX037_F28069ControlCar - flashes*
%LPD*%
*
*
G04 PC Circuitry*
G04 Layer Name TEX037_F28069ControlCar - circuitry*
%LPD*%
*
G54D10*
G54D27*
G01X1293580Y664184D02*
Y654341D01*
X1297670*
X1303466Y664184D02*
X1300739Y654341D01*
X1303466Y664184D02*
X1306193Y654341D01*
X1301761Y657622D02*
X1305170D01*
X1309261Y664184D02*
X1311989Y659497D01*
Y654341*
X1314716Y664184D02*
X1311989Y659497D01*
X1317784Y664184D02*
Y654341D01*
Y664184D02*
X1322216D01*
X1317784Y659497D02*
X1320511D01*
X1317784Y654341D02*
X1322216D01*
X1325284Y664184D02*
Y654341D01*
Y664184D02*
X1328352D01*
X1329375Y663716*
X1329716Y663247*
X1330057Y662309*
Y661372*
X1329716Y660434*
X1329375Y659966*
X1328352Y659497*
X1325284*
X1327670D02*
X1330057Y654341D01*
X827600Y692544D02*
Y682700D01*
Y692544D02*
X830668D01*
X831691Y692075*
X832032Y691606*
X832373Y690669*
Y689263*
X832373D02*
X832032Y688325D01*
X831691Y687856*
X830668Y687388*
X830668D02*
X827600D01*
X835441Y692544D02*
Y682700D01*
X840214Y692544D02*
Y682700D01*
X835441Y687856D02*
X840214D01*
X845327Y692544D02*
X844645Y692075D01*
X843964Y691138*
X843964D02*
X843623Y690200D01*
X843282Y688794*
Y686450*
X843623Y685044*
X843964Y684106*
X844645Y683169*
X845327Y682700*
X846691*
X847373Y683169*
X848055Y684106*
X848395Y685044*
X848736Y686450*
Y688794*
X848395Y690200*
X848055Y691138*
X848055D02*
X847373Y692075D01*
X846691Y692544*
X845327*
X851805D02*
Y682700D01*
Y692544D02*
X856577Y682700D01*
Y692544D02*
Y682700D01*
X859645Y692544D02*
Y682700D01*
Y692544D02*
X864077D01*
X859645Y687856D02*
X862373D01*
X859645Y682700D02*
X864077D01*
X867486Y689263D02*
X867145Y688794D01*
X867486Y688325*
X867827Y688794*
X867486Y689263*
Y683638D02*
X867145Y683169D01*
X867486Y682700*
X867827Y683169*
X867486Y683638*
X883168Y692544D02*
X879759D01*
X879418Y688325*
X879759Y688794*
X880782Y689263*
X880782D02*
X881805D01*
X881805D02*
X882827Y688794D01*
X883509Y687856*
X883850Y686450*
X883509Y685513*
X883509D02*
X883168Y684106D01*
X882486Y683169*
X881464Y682700*
X880441*
X879418Y683169*
X879077Y683638*
X879077D02*
X878736Y684575D01*
X888964Y692544D02*
X887941Y692075D01*
X887259Y690669*
X886918Y688325*
Y686919*
X887259Y684575*
X887941Y683169*
X888964Y682700*
X889645*
X890668Y683169*
X891350Y684575*
X891691Y686919*
Y688325*
X891350Y690669*
X890668Y692075*
X889645Y692544*
X888964*
X896464D02*
X895441Y692075D01*
X895100Y691138*
X895100D02*
Y690200D01*
X895441Y689263*
X895441D02*
X896123Y688794D01*
X897486Y688325*
X898509Y687856*
X899191Y686919*
X899532Y685981*
Y684575*
X899191Y683638*
X899191D02*
X898850Y683169D01*
X897827Y682700*
X896464*
X895441Y683169*
X895100Y683638*
X895100D02*
X894759Y684575D01*
Y685981*
X895100Y686919*
X895782Y687856*
X896805Y688325*
X898168Y688794*
X898850Y689263*
X898850D02*
X899191Y690200D01*
Y691138*
X899191D02*
X898850Y692075D01*
X897827Y692544*
X896464*
X902941Y683638D02*
X902600Y683169D01*
X902941Y682700*
X903282Y683169*
X902941Y683638*
X910782Y689263D02*
X910441Y687856D01*
X909759Y686919*
X908736Y686450*
X908395*
X907373Y686919*
X906691Y687856*
X906350Y689263*
X906350D02*
Y689731D01*
X906691Y691138*
X906691D02*
X907373Y692075D01*
X908395Y692544*
X908736*
X909759Y692075*
X910441Y691138*
X910441D02*
X910782Y689263D01*
X910782D02*
Y686919D01*
X910441Y684575*
X909759Y683169*
X908736Y682700*
X908055*
X907032Y683169*
X906691Y684106*
X917259Y692544D02*
X913850Y685981D01*
X918964*
X917259Y692544D02*
Y682700D01*
X926805Y692544D02*
X923395Y682700D01*
X922032Y692544D02*
X926805D01*
X930214Y683638D02*
X929873Y683169D01*
X930214Y682700*
X930555Y683169*
X930214Y683638*
X933964Y690200D02*
Y690669D01*
X934305Y691606*
X934645Y692075*
X935327Y692544*
X936691*
X937373Y692075*
X937714Y691606*
X938055Y690669*
Y689731*
X937714Y688794*
X937032Y687388*
X937032D02*
X933623Y682700D01*
X938395*
X946236Y692544D02*
X942827Y682700D01*
X941464Y692544D02*
X946236D01*
X951350D02*
X950327Y692075D01*
X949645Y690669*
X949305Y688325*
Y686919*
X949645Y684575*
X950327Y683169*
X951350Y682700*
X952032*
X953055Y683169*
X953736Y684575*
X954077Y686919*
Y688325*
X953736Y690669*
X953055Y692075*
X952032Y692544*
X951350*
X961577Y689263D02*
X961236Y687856D01*
X960555Y686919*
X959532Y686450*
X959191*
X958168Y686919*
X957486Y687856*
X957145Y689263*
X957145D02*
Y689731D01*
X957486Y691138*
X957486D02*
X958168Y692075D01*
X959191Y692544*
X959532*
X960555Y692075*
X961236Y691138*
X961236D02*
X961577Y689263D01*
X961577D02*
Y686919D01*
X961236Y684575*
X960555Y683169*
X959532Y682700*
X958850*
X957827Y683169*
X957486Y684106*
X969600Y719844D02*
Y710000D01*
Y719844D02*
X972327Y710000D01*
X975055Y719844D02*
X972327Y710000D01*
X975055Y719844D02*
Y710000D01*
X978123Y719844D02*
X978464Y719375D01*
X978805Y719844*
X978464Y720313*
X978464D02*
X978123Y719844D01*
X978464Y716563D02*
Y710000D01*
X985964Y719844D02*
Y710000D01*
Y715156D02*
X985282Y716094D01*
X984600Y716563*
X984600D02*
X983577D01*
X983577D02*
X982895Y716094D01*
X982214Y715156*
X981873Y713750*
Y712813*
X981873D02*
X982214Y711406D01*
X982895Y710469*
X983577Y710000*
X984600*
X985282Y710469*
X985964Y711406*
X993123Y719844D02*
Y710000D01*
Y715156D02*
X992441Y716094D01*
X991759Y716563*
X991759D02*
X990736D01*
X990736D02*
X990055Y716094D01*
X989373Y715156*
X989032Y713750*
Y712813*
X989032D02*
X989373Y711406D01*
X990055Y710469*
X990736Y710000*
X991759*
X992441Y710469*
X993123Y711406*
X996191Y719844D02*
Y710000D01*
X999259Y713750D02*
X1003350D01*
Y714688*
X1003350D02*
X1003009Y715625D01*
X1002668Y716094*
X1001986Y716563*
X1001986D02*
X1000964D01*
X1000964D02*
X1000282Y716094D01*
X999600Y715156*
X999259Y713750*
Y712813*
X999259D02*
X999600Y711406D01*
X1000282Y710469*
X1000964Y710000*
X1001986*
X1002668Y710469*
X1003350Y711406*
X1006418Y719844D02*
Y710000D01*
Y715156D02*
X1007100Y716094D01*
X1007782Y716563*
X1007782D02*
X1008805D01*
X1008805D02*
X1009486Y716094D01*
X1010168Y715156*
X1010509Y713750*
Y712813*
X1010509D02*
X1010168Y711406D01*
X1009486Y710469*
X1008805Y710000*
X1007782*
X1007100Y710469*
X1006418Y711406*
X1015282Y716563D02*
X1014600Y716094D01*
X1013918Y715156*
X1013577Y713750*
Y712813*
X1013577D02*
X1013918Y711406D01*
X1014600Y710469*
X1015282Y710000*
X1016305*
X1016986Y710469*
X1017668Y711406*
X1018009Y712813*
X1018009D02*
Y713750D01*
X1017668Y715156*
X1016986Y716094*
X1016305Y716563*
X1016305D02*
X1015282D01*
X1021077D02*
Y710000D01*
Y713750D02*
X1021418Y715156D01*
X1022100Y716094*
X1022782Y716563*
X1022782D02*
X1023805D01*
X1028577D02*
X1027895Y716094D01*
X1027214Y715156*
X1026873Y713750*
Y712813*
X1026873D02*
X1027214Y711406D01*
X1027895Y710469*
X1028577Y710000*
X1029600*
X1030282Y710469*
X1030964Y711406*
X1031305Y712813*
X1031305D02*
Y713750D01*
X1030964Y715156*
X1030282Y716094*
X1029600Y716563*
X1029600D02*
X1028577D01*
X1035055Y710469D02*
X1034714Y710000D01*
X1034373Y710469*
X1034714Y710938*
X1034714D02*
X1035055Y710469D01*
Y709531*
X1034714Y708594*
X1034373Y708125*
X1045964Y719844D02*
Y710000D01*
Y719844D02*
X1048691Y710000D01*
X1051418Y719844D02*
X1048691Y710000D01*
X1051418Y719844D02*
Y710000D01*
X1057214Y719844D02*
X1054486Y710000D01*
X1057214Y719844D02*
X1059941Y710000D01*
X1055509Y713281D02*
X1058918D01*
X1072895Y719844D02*
X1071873Y719375D01*
X1071191Y717969*
X1070850Y715625*
Y714219*
X1071191Y711875*
X1071873Y710469*
X1072895Y710000*
X1073577*
X1074600Y710469*
X1075282Y711875*
X1075623Y714219*
Y715625*
X1075282Y717969*
X1074600Y719375*
X1073577Y719844*
X1072895*
X1079032Y717500D02*
Y717969D01*
X1079373Y718906*
X1079714Y719375*
X1080395Y719844*
X1081759*
X1082441Y719375*
X1082782Y718906*
X1083123Y717969*
Y717031*
X1082782Y716094*
X1082100Y714688*
X1082100D02*
X1078691Y710000D01*
X1083464*
X1087214Y719844D02*
X1090964D01*
X1088918Y716094*
X1089941*
X1090623Y715625*
X1090964Y715156*
X1091305Y713750*
Y712813*
X1091305D02*
X1090964Y711406D01*
X1090282Y710469*
X1089259Y710000*
X1088236*
X1087214Y710469*
X1086873Y710938*
X1086873D02*
X1086532Y711875D01*
X1097782Y719844D02*
X1094373Y713281D01*
X1099486*
X1097782Y719844D02*
Y710000D01*
X1106645Y718438D02*
X1106305Y719375D01*
X1105282Y719844*
X1104600*
X1103577Y719375*
X1102895Y717969*
X1102555Y715625*
Y713281*
X1102895Y711406*
X1103577Y710469*
X1104600Y710000*
X1104941*
X1105964Y710469*
X1106645Y711406*
X1106986Y712813*
X1106986D02*
Y713281D01*
X1106645Y714688*
X1106645D02*
X1105964Y715625D01*
X1104941Y716094*
X1104600*
X1103577Y715625*
X1102895Y714688*
X1102895D02*
X1102555Y713281D01*
X975400Y735269D02*
X976082Y735738D01*
X976082D02*
X977105Y737144D01*
Y727300*
X980173Y735269D02*
X980855Y735738D01*
X980855D02*
X981877Y737144D01*
Y727300*
X986650Y737144D02*
X985627Y736675D01*
X985286Y735738*
X985286D02*
Y734800D01*
X985627Y733863*
X985627D02*
X986309Y733394D01*
X987673Y732925*
X988695Y732456*
X989377Y731519*
X989718Y730581*
Y729175*
X989377Y728238*
X989377D02*
X989036Y727769D01*
X988014Y727300*
X986650*
X985627Y727769*
X985286Y728238*
X985286D02*
X984945Y729175D01*
Y730581*
X985286Y731519*
X985968Y732456*
X986991Y732925*
X988355Y733394*
X989036Y733863*
X989036D02*
X989377Y734800D01*
Y735738*
X989377D02*
X989036Y736675D01*
X988014Y737144*
X986650*
X997218D02*
X993809D01*
X993468Y732925*
X993809Y733394*
X994832Y733863*
X994832D02*
X995855D01*
X995855D02*
X996877Y733394D01*
X997559Y732456*
X997900Y731050*
X997559Y730113*
X997559D02*
X997218Y728706D01*
X996536Y727769*
X995514Y727300*
X994491*
X993468Y727769*
X993127Y728238*
X993127D02*
X992786Y729175D01*
X1013923Y734800D02*
X1013582Y735738D01*
X1013582D02*
X1012900Y736675D01*
X1012218Y737144*
X1010855*
X1010173Y736675*
X1009491Y735738*
X1009491D02*
X1009150Y734800D01*
X1008809Y733394*
Y731050*
X1009150Y729644*
X1009491Y728706*
X1010173Y727769*
X1010855Y727300*
X1012218*
X1012900Y727769*
X1013582Y728706*
X1013923Y729644*
X1016991Y731050D02*
X1021082D01*
Y731988*
X1021082D02*
X1020741Y732925D01*
X1020400Y733394*
X1019718Y733863*
X1019718D02*
X1018695D01*
X1018695D02*
X1018014Y733394D01*
X1017332Y732456*
X1016991Y731050*
Y730113*
X1016991D02*
X1017332Y728706D01*
X1018014Y727769*
X1018695Y727300*
X1019718*
X1020400Y727769*
X1021082Y728706*
X1024150Y733863D02*
Y727300D01*
Y731988D02*
X1025173Y733394D01*
X1025855Y733863*
X1025855D02*
X1026877D01*
X1026877D02*
X1027559Y733394D01*
X1027900Y731988*
X1027900D02*
Y727300D01*
X1031991Y737144D02*
Y729175D01*
X1032332Y727769*
X1033014Y727300*
X1033695*
X1030968Y733863D02*
X1033355D01*
X1036764D02*
Y727300D01*
Y731050D02*
X1037105Y732456D01*
X1037786Y733394*
X1038468Y733863*
X1038468D02*
X1039491D01*
X1042559Y731050D02*
X1046650D01*
Y731988*
X1046650D02*
X1046309Y732925D01*
X1045968Y733394*
X1045286Y733863*
X1045286D02*
X1044264D01*
X1044264D02*
X1043582Y733394D01*
X1042900Y732456*
X1042559Y731050*
Y730113*
X1042559D02*
X1042900Y728706D01*
X1043582Y727769*
X1044264Y727300*
X1045286*
X1045968Y727769*
X1046650Y728706*
X1062332Y735738D02*
X1061650Y736675D01*
X1060627Y737144*
X1059264*
X1058241Y736675*
X1057559Y735738*
X1057559D02*
Y734800D01*
X1057900Y733863*
X1057900D02*
X1058241Y733394D01*
X1058923Y732925*
X1060968Y731988*
X1060968D02*
X1061650Y731519D01*
X1061991Y731050*
X1062332Y730113*
X1062332D02*
Y728706D01*
X1061650Y727769*
X1060627Y727300*
X1059264*
X1058241Y727769*
X1057559Y728706*
X1066423Y737144D02*
Y729175D01*
X1066764Y727769*
X1067445Y727300*
X1068127*
X1065400Y733863D02*
X1067786D01*
X1071195D02*
Y727300D01*
Y731050D02*
X1071536Y732456D01*
X1072218Y733394*
X1072900Y733863*
X1072900D02*
X1073923D01*
X1076991Y731050D02*
X1081082D01*
Y731988*
X1081082D02*
X1080741Y732925D01*
X1080400Y733394*
X1079718Y733863*
X1079718D02*
X1078695D01*
X1078695D02*
X1078014Y733394D01*
X1077332Y732456*
X1076991Y731050*
Y730113*
X1076991D02*
X1077332Y728706D01*
X1078014Y727769*
X1078695Y727300*
X1079718*
X1080400Y727769*
X1081082Y728706*
X1084150Y731050D02*
X1088241D01*
Y731988*
X1088241D02*
X1087900Y732925D01*
X1087559Y733394*
X1086877Y733863*
X1086877D02*
X1085855D01*
X1085855D02*
X1085173Y733394D01*
X1084491Y732456*
X1084150Y731050*
Y730113*
X1084150D02*
X1084491Y728706D01*
X1085173Y727769*
X1085855Y727300*
X1086877*
X1087559Y727769*
X1088241Y728706*
X1092332Y737144D02*
Y729175D01*
X1092673Y727769*
X1093355Y727300*
X1094036*
X1091309Y733863D02*
X1093695D01*
X1161909Y664013D02*
X1162818Y664638D01*
X1162818D02*
X1164182Y666513D01*
X1164182D02*
Y653387D01*
X1168273Y664013D02*
X1169182Y664638D01*
X1169182D02*
X1170545Y666513D01*
X1170545D02*
Y653387D01*
X1182818Y669013D02*
X1174636Y649012D01*
X1187364Y663388D02*
Y664013D01*
X1187364D02*
X1187818Y665263D01*
X1187818D02*
X1188273Y665888D01*
X1188273D02*
X1189182Y666513D01*
X1189182D02*
X1191000D01*
X1191000D02*
X1191909Y665888D01*
X1191909D02*
X1192364Y665263D01*
X1192364D02*
X1192818Y664013D01*
X1192818D02*
Y662763D01*
X1192818D02*
X1192364Y661513D01*
X1192364D02*
X1191455Y659637D01*
X1191455D02*
X1186909Y653387D01*
X1186909D02*
X1193273D01*
X1201909Y666513D02*
X1197364Y657762D01*
X1197364D02*
X1204182D01*
X1201909Y666513D02*
Y653387D01*
X1216455Y669013D02*
X1208273Y649012D01*
X1220545Y664013D02*
X1221455Y664638D01*
X1221455D02*
X1222818Y666513D01*
X1222818D02*
Y653387D01*
X1229636Y666513D02*
X1228273Y665888D01*
X1228273D02*
X1227364Y664013D01*
X1227364D02*
X1226909Y660887D01*
X1226909D02*
Y659012D01*
X1226909D02*
X1227364Y655887D01*
X1227364D02*
X1228273Y654012D01*
X1228273D02*
X1229636Y653387D01*
X1229636D02*
X1230545D01*
X1230545D02*
X1231909Y654012D01*
X1231909D02*
X1232818Y655887D01*
X1232818D02*
X1233273Y659012D01*
X1233273D02*
Y660887D01*
X1233273D02*
X1232818Y664013D01*
X1232818D02*
X1231909Y665888D01*
X1231909D02*
X1230545Y666513D01*
X1230545D02*
X1229636D01*
X838909Y666344D02*
Y658844D01*
X838568Y657438*
X838568D02*
X838227Y656969D01*
X837545Y656500*
X836864*
X836182Y656969*
X835841Y657438*
X835841D02*
X835500Y658844D01*
Y659781*
X843682Y663063D02*
X843000Y662594D01*
X842318Y661656*
X841977Y660250*
Y659313*
X841977D02*
X842318Y657906D01*
X843000Y656969*
X843682Y656500*
X844705*
X845386Y656969*
X846068Y657906*
X846409Y659313*
X846409D02*
Y660250D01*
X846068Y661656*
X845386Y662594*
X844705Y663063*
X844705D02*
X843682D01*
X849477Y666344D02*
Y656500D01*
Y661656D02*
X850159Y662594D01*
X850841Y663063*
X850841D02*
X851864D01*
X851864D02*
X852545Y662594D01*
X853227Y661656*
X853568Y660250*
Y659313*
X853568D02*
X853227Y657906D01*
X852545Y656969*
X851864Y656500*
X850841*
X850159Y656969*
X849477Y657906*
X864477Y666344D02*
Y656500D01*
Y666344D02*
X869250Y656500D01*
Y666344D02*
Y656500D01*
X874023Y663063D02*
X873341Y662594D01*
X872659Y661656*
X872318Y660250*
Y659313*
X872318D02*
X872659Y657906D01*
X873341Y656969*
X874023Y656500*
X875045*
X875727Y656969*
X876409Y657906*
X876750Y659313*
X876750D02*
Y660250D01*
X876409Y661656*
X875727Y662594*
X875045Y663063*
X875045D02*
X874023D01*
X880159D02*
X879818Y662594D01*
X880159Y662125*
X880500Y662594*
X880159Y663063*
Y657438D02*
X879818Y656969D01*
X880159Y656500*
X880500Y656969*
X880159Y657438*
X1041000Y663544D02*
Y653700D01*
Y663544D02*
X1043386D01*
X1044409Y663075*
X1045091Y662138*
X1045091D02*
X1045432Y661200D01*
X1045773Y659794*
Y657450*
X1045432Y656044*
X1045091Y655106*
X1044409Y654169*
X1043386Y653700*
X1041000*
X1052932Y660263D02*
Y653700D01*
Y658856D02*
X1052250Y659794D01*
X1051568Y660263*
X1051568D02*
X1050545D01*
X1050545D02*
X1049864Y659794D01*
X1049182Y658856*
X1048841Y657450*
Y656513*
X1048841D02*
X1049182Y655106D01*
X1049864Y654169*
X1050545Y653700*
X1051568*
X1052250Y654169*
X1052932Y655106*
X1057023Y663544D02*
Y655575D01*
X1057364Y654169*
X1058045Y653700*
X1058727*
X1056000Y660263D02*
X1058386D01*
X1061795Y657450D02*
X1065886D01*
Y658388*
X1065886D02*
X1065545Y659325D01*
X1065205Y659794*
X1064523Y660263*
X1064523D02*
X1063500D01*
X1063500D02*
X1062818Y659794D01*
X1062136Y658856*
X1061795Y657450*
Y656513*
X1061795D02*
X1062136Y655106D01*
X1062818Y654169*
X1063500Y653700*
X1064523*
X1065205Y654169*
X1065886Y655106*
X1069295Y660263D02*
X1068955Y659794D01*
X1069295Y659325*
X1069636Y659794*
X1069295Y660263*
Y654638D02*
X1068955Y654169D01*
X1069295Y653700*
X1069636Y654169*
X1069295Y654638*
X827627Y780244D02*
X824900Y770400D01*
X827627Y780244D02*
X830355Y770400D01*
X825923Y773681D02*
X829332D01*
X833423Y776963D02*
Y770400D01*
Y774150D02*
X833764Y775556D01*
X834445Y776494*
X835127Y776963*
X835127D02*
X836150D01*
X840241Y780244D02*
Y772275D01*
X840582Y770869*
X841264Y770400*
X841945*
X839218Y776963D02*
X841605D01*
X845014D02*
X846377Y770400D01*
X847741Y776963D02*
X846377Y770400D01*
X847741Y776963D02*
X849105Y770400D01*
X850468Y776963D02*
X849105Y770400D01*
X855241Y776963D02*
X854559Y776494D01*
X853877Y775556*
X853536Y774150*
Y773213*
X853536D02*
X853877Y771806D01*
X854559Y770869*
X855241Y770400*
X856264*
X856945Y770869*
X857627Y771806*
X857968Y773213*
X857968D02*
Y774150D01*
X857627Y775556*
X856945Y776494*
X856264Y776963*
X856264D02*
X855241D01*
X861036D02*
Y770400D01*
Y774150D02*
X861377Y775556D01*
X862059Y776494*
X862741Y776963*
X862741D02*
X863764D01*
X866832Y780244D02*
Y770400D01*
X870241Y776963D02*
X866832Y772275D01*
X868195Y774150D02*
X870582Y770400D01*
X881491Y780244D02*
Y770400D01*
Y780244D02*
X883877D01*
X884900Y779775*
X885582Y778838*
X885582D02*
X885923Y777900D01*
X886264Y776494*
Y774150*
X885923Y772744*
X885582Y771806*
X884900Y770869*
X883877Y770400*
X881491*
X889332Y774150D02*
X893423D01*
Y775088*
X893423D02*
X893082Y776025D01*
X892741Y776494*
X892059Y776963*
X892059D02*
X891036D01*
X891036D02*
X890355Y776494D01*
X889673Y775556*
X889332Y774150*
Y773213*
X889332D02*
X889673Y771806D01*
X890355Y770869*
X891036Y770400*
X892059*
X892741Y770869*
X893423Y771806*
X900241Y775556D02*
X899900Y776494D01*
X898877Y776963*
X898877D02*
X897855D01*
X897855D02*
X896832Y776494D01*
X896491Y775556*
X896832Y774619*
X897514Y774150*
X899218Y773681*
X899900Y773213*
X899900D02*
X900241Y772275D01*
Y771806*
X899900Y770869*
X898877Y770400*
X897855*
X896832Y770869*
X896491Y771806*
X903309Y780244D02*
X903650Y779775D01*
X903991Y780244*
X903650Y780713*
X903650D02*
X903309Y780244D01*
X903650Y776963D02*
Y770400D01*
X911150Y776963D02*
Y769462D01*
X911150D02*
X910809Y768056D01*
X910468Y767587*
X910468D02*
X909786Y767119D01*
X908764*
X908082Y767587*
X911150Y775556D02*
X910468Y776494D01*
X909786Y776963*
X909786D02*
X908764D01*
X908764D02*
X908082Y776494D01*
X907400Y775556*
X907059Y774150*
Y773213*
X907059D02*
X907400Y771806D01*
X908082Y770869*
X908764Y770400*
X909786*
X910468Y770869*
X911150Y771806*
X914218Y776963D02*
Y770400D01*
Y775088D02*
X915241Y776494D01*
X915923Y776963*
X915923D02*
X916945D01*
X916945D02*
X917627Y776494D01*
X917968Y775088*
X917968D02*
Y770400D01*
X921036Y774150D02*
X925127D01*
Y775088*
X925127D02*
X924786Y776025D01*
X924445Y776494*
X923764Y776963*
X923764D02*
X922741D01*
X922741D02*
X922059Y776494D01*
X921377Y775556*
X921036Y774150*
Y773213*
X921036D02*
X921377Y771806D01*
X922059Y770869*
X922741Y770400*
X923764*
X924445Y770869*
X925127Y771806*
X932286Y780244D02*
Y770400D01*
Y775556D02*
X931605Y776494D01*
X930923Y776963*
X930923D02*
X929900D01*
X929900D02*
X929218Y776494D01*
X928536Y775556*
X928195Y774150*
Y773213*
X928195D02*
X928536Y771806D01*
X929218Y770869*
X929900Y770400*
X930923*
X931605Y770869*
X932286Y771806*
X943195Y780244D02*
Y770400D01*
Y780244D02*
X946264D01*
X947286Y779775*
X947627Y779306*
X947968Y778369*
Y777431*
X947627Y776494*
X947286Y776025*
X946264Y775556*
X943195D02*
X946264D01*
X947286Y775088*
X947286D02*
X947627Y774619D01*
X947968Y773681*
Y772275*
X947627Y771338*
X947627D02*
X947286Y770869D01*
X946264Y770400*
X943195*
X951377Y776963D02*
X953423Y770400D01*
X955468Y776963D02*
X953423Y770400D01*
X952741Y768525*
X952059Y767587*
X952059D02*
X951377Y767119D01*
X951036*
X958877Y776963D02*
X958536Y776494D01*
X958877Y776025*
X959218Y776494*
X958877Y776963*
Y771338D02*
X958536Y770869D01*
X958877Y770400*
X959218Y770869*
X958877Y771338*
X906682Y665513D02*
Y652387D01*
X903500Y665513D02*
X909864D01*
X913955D02*
Y652387D01*
Y665513D02*
X919864D01*
X913955Y659262D02*
X917591D01*
X913955Y652387D02*
X919864D01*
X923955Y665513D02*
X930318Y652387D01*
Y665513D02*
X923955Y652387D01*
X934864Y653637D02*
X934409Y653012D01*
X934409D02*
X934864Y652387D01*
X934864D02*
X935318Y653012D01*
X935318D02*
X934864Y653637D01*
X942136Y665513D02*
X940773Y664888D01*
X940773D02*
X939864Y663013D01*
X939864D02*
X939409Y659887D01*
X939409D02*
Y658012D01*
X939409D02*
X939864Y654887D01*
X939864D02*
X940773Y653012D01*
X940773D02*
X942136Y652387D01*
X942136D02*
X943045D01*
X943045D02*
X944409Y653012D01*
X944409D02*
X945318Y654887D01*
X945318D02*
X945773Y658012D01*
X945773D02*
Y659887D01*
X945773D02*
X945318Y663013D01*
X945318D02*
X944409Y664888D01*
X944409D02*
X943045Y665513D01*
X943045D02*
X942136D01*
X950773D02*
X955773D01*
X955773D02*
X953045Y660513D01*
X953045D02*
X954409D01*
X954409D02*
X955318Y659887D01*
X955318D02*
X955773Y659262D01*
X955773D02*
X956227Y657387D01*
X956227D02*
Y656137D01*
X956227D02*
X955773Y654262D01*
X955773D02*
X954864Y653012D01*
X954864D02*
X953500Y652387D01*
X953500D02*
X952136D01*
X952136D02*
X950773Y653012D01*
X950773D02*
X950318Y653637D01*
X950318D02*
X949864Y654887D01*
X966682Y665513D02*
X962136Y652387D01*
X960318Y665513D02*
X966682D01*
X1260727Y835044D02*
X1258000Y825200D01*
X1260727Y835044D02*
X1263455Y825200D01*
X1259023Y828481D02*
X1262432D01*
X1266523Y831763D02*
Y825200D01*
Y828950D02*
X1266864Y830356D01*
X1267545Y831294*
X1268227Y831763*
X1268227D02*
X1269250D01*
X1273341Y835044D02*
Y827075D01*
X1273682Y825669*
X1274364Y825200*
X1275045*
X1272318Y831763D02*
X1274705D01*
X1278114D02*
X1279477Y825200D01*
X1280841Y831763D02*
X1279477Y825200D01*
X1280841Y831763D02*
X1282205Y825200D01*
X1283568Y831763D02*
X1282205Y825200D01*
X1288341Y831763D02*
X1287659Y831294D01*
X1286977Y830356*
X1286636Y828950*
Y828013*
X1286636D02*
X1286977Y826606D01*
X1287659Y825669*
X1288341Y825200*
X1289364*
X1290045Y825669*
X1290727Y826606*
X1291068Y828013*
X1291068D02*
Y828950D01*
X1290727Y830356*
X1290045Y831294*
X1289364Y831763*
X1289364D02*
X1288341D01*
X1294136D02*
Y825200D01*
Y828950D02*
X1294477Y830356D01*
X1295159Y831294*
X1295841Y831763*
X1295841D02*
X1296864D01*
X1299932Y835044D02*
Y825200D01*
X1303341Y831763D02*
X1299932Y827075D01*
X1301295Y828950D02*
X1303682Y825200D01*
X1314591Y835044D02*
Y825200D01*
Y835044D02*
X1316977D01*
X1318000Y834575*
X1318682Y833638*
X1318682D02*
X1319023Y832700D01*
X1319364Y831294*
Y828950*
X1319023Y827544*
X1318682Y826606*
X1318000Y825669*
X1316977Y825200*
X1314591*
X1322432Y828950D02*
X1326523D01*
Y829888*
X1326523D02*
X1326182Y830825D01*
X1325841Y831294*
X1325159Y831763*
X1325159D02*
X1324136D01*
X1324136D02*
X1323455Y831294D01*
X1322773Y830356*
X1322432Y828950*
Y828013*
X1322432D02*
X1322773Y826606D01*
X1323455Y825669*
X1324136Y825200*
X1325159*
X1325841Y825669*
X1326523Y826606*
X1333341Y830356D02*
X1333000Y831294D01*
X1331977Y831763*
X1331977D02*
X1330955D01*
X1330955D02*
X1329932Y831294D01*
X1329591Y830356*
X1329932Y829419*
X1330614Y828950*
X1332318Y828481*
X1333000Y828013*
X1333000D02*
X1333341Y827075D01*
Y826606*
X1333000Y825669*
X1331977Y825200*
X1330955*
X1329932Y825669*
X1329591Y826606*
X1336409Y835044D02*
X1336750Y834575D01*
X1337091Y835044*
X1336750Y835513*
X1336750D02*
X1336409Y835044D01*
X1336750Y831763D02*
Y825200D01*
X1344250Y831763D02*
Y824262D01*
X1344250D02*
X1343909Y822856D01*
X1343568Y822387*
X1343568D02*
X1342886Y821919D01*
X1341864*
X1341182Y822387*
X1344250Y830356D02*
X1343568Y831294D01*
X1342886Y831763*
X1342886D02*
X1341864D01*
X1341864D02*
X1341182Y831294D01*
X1340500Y830356*
X1340159Y828950*
Y828013*
X1340159D02*
X1340500Y826606D01*
X1341182Y825669*
X1341864Y825200*
X1342886*
X1343568Y825669*
X1344250Y826606*
X1347318Y831763D02*
Y825200D01*
Y829888D02*
X1348341Y831294D01*
X1349023Y831763*
X1349023D02*
X1350045D01*
X1350045D02*
X1350727Y831294D01*
X1351068Y829888*
X1351068D02*
Y825200D01*
X1354136Y828950D02*
X1358227D01*
Y829888*
X1358227D02*
X1357886Y830825D01*
X1357545Y831294*
X1356864Y831763*
X1356864D02*
X1355841D01*
X1355841D02*
X1355159Y831294D01*
X1354477Y830356*
X1354136Y828950*
Y828013*
X1354136D02*
X1354477Y826606D01*
X1355159Y825669*
X1355841Y825200*
X1356864*
X1357545Y825669*
X1358227Y826606*
X1365386Y835044D02*
Y825200D01*
Y830356D02*
X1364705Y831294D01*
X1364023Y831763*
X1364023D02*
X1363000D01*
X1363000D02*
X1362318Y831294D01*
X1361636Y830356*
X1361295Y828950*
Y828013*
X1361295D02*
X1361636Y826606D01*
X1362318Y825669*
X1363000Y825200*
X1364023*
X1364705Y825669*
X1365386Y826606*
X1376295Y835044D02*
Y825200D01*
Y835044D02*
X1380727D01*
X1376295Y830356D02*
X1379023D01*
X1385500Y831763D02*
X1384818Y831294D01*
X1384136Y830356*
X1383795Y828950*
Y828013*
X1383795D02*
X1384136Y826606D01*
X1384818Y825669*
X1385500Y825200*
X1386523*
X1387205Y825669*
X1387886Y826606*
X1388227Y828013*
X1388227D02*
Y828950D01*
X1387886Y830356*
X1387205Y831294*
X1386523Y831763*
X1386523D02*
X1385500D01*
X1391295D02*
Y825200D01*
Y828950D02*
X1391636Y830356D01*
X1392318Y831294*
X1393000Y831763*
X1393000D02*
X1394023D01*
X1397432D02*
X1397091Y831294D01*
X1397432Y830825*
X1397773Y831294*
X1397432Y831763*
Y826138D02*
X1397091Y825669D01*
X1397432Y825200*
X1397773Y825669*
X1397432Y826138*
X1258000Y780044D02*
Y770200D01*
Y780044D02*
X1261068D01*
X1262091Y779575*
X1262432Y779106*
X1262773Y778169*
Y777231*
X1262432Y776294*
X1262091Y775825*
X1261068Y775356*
X1258000D02*
X1261068D01*
X1262091Y774888*
X1262091D02*
X1262432Y774419D01*
X1262773Y773481*
Y772075*
X1262432Y771138*
X1262432D02*
X1262091Y770669D01*
X1261068Y770200*
X1258000*
X1267545Y776763D02*
X1266864Y776294D01*
X1266182Y775356*
X1265841Y773950*
Y773013*
X1265841D02*
X1266182Y771606D01*
X1266864Y770669*
X1267545Y770200*
X1268568*
X1269250Y770669*
X1269932Y771606*
X1270273Y773013*
X1270273D02*
Y773950D01*
X1269932Y775356*
X1269250Y776294*
X1268568Y776763*
X1268568D02*
X1267545D01*
X1277432D02*
Y770200D01*
Y775356D02*
X1276750Y776294D01*
X1276068Y776763*
X1276068D02*
X1275045D01*
X1275045D02*
X1274364Y776294D01*
X1273682Y775356*
X1273341Y773950*
Y773013*
X1273341D02*
X1273682Y771606D01*
X1274364Y770669*
X1275045Y770200*
X1276068*
X1276750Y770669*
X1277432Y771606*
X1280500Y776763D02*
Y770200D01*
Y773950D02*
X1280841Y775356D01*
X1281523Y776294*
X1282205Y776763*
X1282205D02*
X1283227D01*
X1290386Y780044D02*
Y770200D01*
Y775356D02*
X1289705Y776294D01*
X1289023Y776763*
X1289023D02*
X1288000D01*
X1288000D02*
X1287318Y776294D01*
X1286636Y775356*
X1286295Y773950*
Y773013*
X1286295D02*
X1286636Y771606D01*
X1287318Y770669*
X1288000Y770200*
X1289023*
X1289705Y770669*
X1290386Y771606*
X1301295Y780044D02*
Y770200D01*
Y780044D02*
X1303682D01*
X1304705Y779575*
X1305386Y778638*
X1305386D02*
X1305727Y777700D01*
X1306068Y776294*
Y773950*
X1305727Y772544*
X1305386Y771606*
X1304705Y770669*
X1303682Y770200*
X1301295*
X1309136Y773950D02*
X1313227D01*
Y774888*
X1313227D02*
X1312886Y775825D01*
X1312545Y776294*
X1311864Y776763*
X1311864D02*
X1310841D01*
X1310841D02*
X1310159Y776294D01*
X1309477Y775356*
X1309136Y773950*
Y773013*
X1309136D02*
X1309477Y771606D01*
X1310159Y770669*
X1310841Y770200*
X1311864*
X1312545Y770669*
X1313227Y771606*
X1320045Y775356D02*
X1319705Y776294D01*
X1318682Y776763*
X1318682D02*
X1317659D01*
X1317659D02*
X1316636Y776294D01*
X1316295Y775356*
X1316636Y774419*
X1317318Y773950*
X1319023Y773481*
X1319705Y773013*
X1319705D02*
X1320045Y772075D01*
Y771606*
X1319705Y770669*
X1318682Y770200*
X1317659*
X1316636Y770669*
X1316295Y771606*
X1327205Y775356D02*
X1326523Y776294D01*
X1325841Y776763*
X1325841D02*
X1324818D01*
X1324818D02*
X1324136Y776294D01*
X1323455Y775356*
X1323114Y773950*
Y773013*
X1323114D02*
X1323455Y771606D01*
X1324136Y770669*
X1324818Y770200*
X1325841*
X1326523Y770669*
X1327205Y771606*
X1330273Y776763D02*
Y770200D01*
Y773950D02*
X1330614Y775356D01*
X1331295Y776294*
X1331977Y776763*
X1331977D02*
X1333000D01*
X1336068Y780044D02*
X1336409Y779575D01*
X1336750Y780044*
X1336409Y780513*
X1336409D02*
X1336068Y780044D01*
X1336409Y776763D02*
Y770200D01*
X1339818Y776763D02*
Y766919D01*
Y775356D02*
X1340500Y776294D01*
X1341182Y776763*
X1341182D02*
X1342205D01*
X1342205D02*
X1342886Y776294D01*
X1343568Y775356*
X1343909Y773950*
Y773013*
X1343909D02*
X1343568Y771606D01*
X1342886Y770669*
X1342205Y770200*
X1341182*
X1340500Y770669*
X1339818Y771606*
X1348000Y780044D02*
Y772075D01*
X1348341Y770669*
X1349023Y770200*
X1349705*
X1346977Y776763D02*
X1349364D01*
X1352773Y780044D02*
X1353114Y779575D01*
X1353455Y780044*
X1353114Y780513*
X1353114D02*
X1352773Y780044D01*
X1353114Y776763D02*
Y770200D01*
X1358227Y776763D02*
X1357545Y776294D01*
X1356864Y775356*
X1356523Y773950*
Y773013*
X1356523D02*
X1356864Y771606D01*
X1357545Y770669*
X1358227Y770200*
X1359250*
X1359932Y770669*
X1360614Y771606*
X1360955Y773013*
X1360955D02*
Y773950D01*
X1360614Y775356*
X1359932Y776294*
X1359250Y776763*
X1359250D02*
X1358227D01*
X1364023D02*
Y770200D01*
Y774888D02*
X1365045Y776294D01*
X1365727Y776763*
X1365727D02*
X1366750D01*
X1366750D02*
X1367432Y776294D01*
X1367773Y774888*
X1367773D02*
Y770200D01*
X1371182Y776763D02*
X1370841Y776294D01*
X1371182Y775825*
X1371523Y776294*
X1371182Y776763*
Y771138D02*
X1370841Y770669D01*
X1371182Y770200*
X1371523Y770669*
X1371182Y771138*
X1258000Y710044D02*
Y700200D01*
Y710044D02*
X1261068D01*
X1262091Y709575*
X1262432Y709106*
X1262773Y708169*
Y706763*
X1262773D02*
X1262432Y705825D01*
X1262091Y705356*
X1261068Y704888*
X1261068D02*
X1258000D01*
X1269932Y706763D02*
Y700200D01*
Y705356D02*
X1269250Y706294D01*
X1268568Y706763*
X1268568D02*
X1267545D01*
X1267545D02*
X1266864Y706294D01*
X1266182Y705356*
X1265841Y703950*
Y703013*
X1265841D02*
X1266182Y701606D01*
X1266864Y700669*
X1267545Y700200*
X1268568*
X1269250Y700669*
X1269932Y701606*
X1273000Y706763D02*
Y700200D01*
Y703950D02*
X1273341Y705356D01*
X1274023Y706294*
X1274705Y706763*
X1274705D02*
X1275727D01*
X1279818Y710044D02*
Y702075D01*
X1280159Y700669*
X1280841Y700200*
X1281523*
X1278795Y706763D02*
X1281182D01*
X1292432Y710044D02*
Y700200D01*
Y710044D02*
X1297205Y700200D01*
Y710044D02*
Y700200D01*
X1301977Y706763D02*
X1301295Y706294D01*
X1300614Y705356*
X1300273Y703950*
Y703013*
X1300273D02*
X1300614Y701606D01*
X1301295Y700669*
X1301977Y700200*
X1303000*
X1303682Y700669*
X1304364Y701606*
X1304705Y703013*
X1304705D02*
Y703950D01*
X1304364Y705356*
X1303682Y706294*
X1303000Y706763*
X1303000D02*
X1301977D01*
X1308114D02*
X1307773Y706294D01*
X1308114Y705825*
X1308455Y706294*
X1308114Y706763*
Y701138D02*
X1307773Y700669D01*
X1308114Y700200*
X1308455Y700669*
X1308114Y701138*
X1558000Y710044D02*
Y700200D01*
Y710044D02*
X1561068D01*
X1562091Y709575*
X1562432Y709106*
X1562773Y708169*
Y707231*
X1562432Y706294*
X1562091Y705825*
X1561068Y705356*
X1558000*
X1560386D02*
X1562773Y700200D01*
X1565841Y703950D02*
X1569932D01*
Y704888*
X1569932D02*
X1569591Y705825D01*
X1569250Y706294*
X1568568Y706763*
X1568568D02*
X1567545D01*
X1567545D02*
X1566864Y706294D01*
X1566182Y705356*
X1565841Y703950*
Y703013*
X1565841D02*
X1566182Y701606D01*
X1566864Y700669*
X1567545Y700200*
X1568568*
X1569250Y700669*
X1569932Y701606*
X1573000Y706763D02*
X1575045Y700200D01*
X1577091Y706763D02*
X1575045Y700200D01*
X1580159Y710044D02*
X1580500Y709575D01*
X1580841Y710044*
X1580500Y710513*
X1580500D02*
X1580159Y710044D01*
X1580500Y706763D02*
Y700200D01*
X1587659Y705356D02*
X1587318Y706294D01*
X1586295Y706763*
X1586295D02*
X1585273D01*
X1585273D02*
X1584250Y706294D01*
X1583909Y705356*
X1584250Y704419*
X1584932Y703950*
X1586636Y703481*
X1587318Y703013*
X1587318D02*
X1587659Y702075D01*
Y701606*
X1587318Y700669*
X1586295Y700200*
X1585273*
X1584250Y700669*
X1583909Y701606*
X1590727Y710044D02*
X1591068Y709575D01*
X1591409Y710044*
X1591068Y710513*
X1591068D02*
X1590727Y710044D01*
X1591068Y706763D02*
Y700200D01*
X1596182Y706763D02*
X1595500Y706294D01*
X1594818Y705356*
X1594477Y703950*
Y703013*
X1594477D02*
X1594818Y701606D01*
X1595500Y700669*
X1596182Y700200*
X1597205*
X1597886Y700669*
X1598568Y701606*
X1598909Y703013*
X1598909D02*
Y703950D01*
X1598568Y705356*
X1597886Y706294*
X1597205Y706763*
X1597205D02*
X1596182D01*
X1601977D02*
Y700200D01*
Y704888D02*
X1603000Y706294D01*
X1603682Y706763*
X1603682D02*
X1604705D01*
X1604705D02*
X1605386Y706294D01*
X1605727Y704888*
X1605727D02*
Y700200D01*
X1609136Y706763D02*
X1608795Y706294D01*
X1609136Y705825*
X1609477Y706294*
X1609136Y706763*
Y701138D02*
X1608795Y700669D01*
X1609136Y700200*
X1609477Y700669*
X1609136Y701138*
X1353000Y698325D02*
Y685200D01*
Y698325D02*
X1358909D01*
X1353000Y692075D02*
X1356636D01*
X1363455Y695200D02*
Y695825D01*
X1363909Y697075*
X1364364Y697700*
X1365273Y698325*
X1367091*
X1368000Y697700*
X1368455Y697075*
X1368909Y695825*
Y694575*
X1368455Y693325*
X1367545Y691450*
X1363000Y685200*
X1369364*
X1375727Y698325D02*
X1374364Y697700D01*
X1373909Y696450*
Y695200*
X1374364Y693950*
X1375273Y693325*
X1377091Y692700*
X1378455Y692075*
X1379364Y690825*
X1379818Y689575*
Y687700*
X1379364Y686450*
X1378909Y685825*
X1377545Y685200*
X1375727*
X1374364Y685825*
X1373909Y686450*
X1373455Y687700*
Y689575*
X1373909Y690825*
X1374818Y692075*
X1376182Y692700*
X1378000Y693325*
X1378909Y693950*
X1379364Y695200*
Y696450*
X1378909Y697700*
X1377545Y698325*
X1375727*
X1386636D02*
X1385273Y697700D01*
X1384364Y695825*
X1383909Y692700*
Y690825*
X1384364Y687700*
X1385273Y685825*
X1386636Y685200*
X1387545*
X1388909Y685825*
X1389818Y687700*
X1390273Y690825*
Y692700*
X1389818Y695825*
X1388909Y697700*
X1387545Y698325*
X1386636*
X1399818Y696450D02*
X1399364Y697700D01*
X1398000Y698325*
X1397091*
X1395727Y697700*
X1394818Y695825*
X1394364Y692700*
Y689575*
X1394818Y687075*
X1395727Y685825*
X1397091Y685200*
X1397545*
X1398909Y685825*
X1399818Y687075*
X1400273Y688950*
Y689575*
X1399818Y691450*
X1398909Y692700*
X1397545Y693325*
X1397091*
X1395727Y692700*
X1394818Y691450*
X1394364Y689575*
X1410273Y693950D02*
X1409818Y692075D01*
X1408909Y690825*
X1407545Y690200*
X1407091*
X1405727Y690825*
X1404818Y692075*
X1404364Y693950*
Y694575*
X1404818Y696450*
X1405727Y697700*
X1407091Y698325*
X1407545*
X1408909Y697700*
X1409818Y696450*
X1410273Y693950*
Y690825*
X1409818Y687700*
X1408909Y685825*
X1407545Y685200*
X1406636*
X1405273Y685825*
X1404818Y687075*
X1631773Y699813D02*
X1632682Y700438D01*
X1632682D02*
X1634045Y702313D01*
X1634045D02*
Y689187D01*
X1638591Y690437D02*
X1638136Y689812D01*
X1638136D02*
X1638591Y689187D01*
X1638591D02*
X1639045Y689812D01*
X1639045D02*
X1638591Y690437D01*
X1643136Y699813D02*
X1644045Y700438D01*
X1644045D02*
X1645409Y702313D01*
X1645409D02*
Y689187D01*
X1399545Y810513D02*
Y797387D01*
X1396364Y810513D02*
X1402727D01*
X1406818Y802387D02*
X1412273D01*
X1412273D02*
Y803637D01*
X1412273D02*
X1411818Y804887D01*
X1411818D02*
X1411364Y805513D01*
X1411364D02*
X1410455Y806138D01*
X1410455D02*
X1409091D01*
X1409091D02*
X1408182Y805513D01*
X1408182D02*
X1407273Y804262D01*
X1407273D02*
X1406818Y802387D01*
X1406818D02*
Y801137D01*
X1406818D02*
X1407273Y799262D01*
X1407273D02*
X1408182Y798012D01*
X1408182D02*
X1409091Y797387D01*
X1409091D02*
X1410455D01*
X1410455D02*
X1411364Y798012D01*
X1411364D02*
X1412273Y799262D01*
X1416364Y806138D02*
X1421364Y797387D01*
Y806138D02*
X1416364Y797387D01*
X1430909Y806138D02*
Y797387D01*
Y804262D02*
X1430000Y805513D01*
X1430000D02*
X1429091Y806138D01*
X1429091D02*
X1427727D01*
X1427727D02*
X1426818Y805513D01*
X1426818D02*
X1425909Y804262D01*
X1425909D02*
X1425455Y802387D01*
X1425455D02*
Y801137D01*
X1425455D02*
X1425909Y799262D01*
X1425909D02*
X1426818Y798012D01*
X1426818D02*
X1427727Y797387D01*
X1427727D02*
X1429091D01*
X1429091D02*
X1430000Y798012D01*
X1430000D02*
X1430909Y799262D01*
X1440000Y804262D02*
X1439545Y805513D01*
X1439545D02*
X1438182Y806138D01*
X1438182D02*
X1436818D01*
X1436818D02*
X1435455Y805513D01*
X1435455D02*
X1435000Y804262D01*
X1435000D02*
X1435455Y803012D01*
X1435455D02*
X1436364Y802387D01*
X1436364D02*
X1438636Y801762D01*
X1438636D02*
X1439545Y801137D01*
X1439545D02*
X1440000Y799887D01*
X1440000D02*
Y799262D01*
X1440000D02*
X1439545Y798012D01*
X1439545D02*
X1438182Y797387D01*
X1438182D02*
X1436818D01*
X1436818D02*
X1435455Y798012D01*
X1435455D02*
X1435000Y799262D01*
X1454545Y810513D02*
Y797387D01*
X1458636Y806138D02*
Y797387D01*
Y803637D02*
X1460000Y805513D01*
X1460000D02*
X1460909Y806138D01*
X1460909D02*
X1462273D01*
X1462273D02*
X1463182Y805513D01*
X1463182D02*
X1463636Y803637D01*
X1463636D02*
Y797387D01*
X1472727Y804262D02*
X1472273Y805513D01*
X1472273D02*
X1470909Y806138D01*
X1470909D02*
X1469545D01*
X1469545D02*
X1468182Y805513D01*
X1468182D02*
X1467727Y804262D01*
X1467727D02*
X1468182Y803012D01*
X1468182D02*
X1469091Y802387D01*
X1469091D02*
X1471364Y801762D01*
X1471364D02*
X1472273Y801137D01*
X1472273D02*
X1472727Y799887D01*
X1472727D02*
Y799262D01*
X1472727D02*
X1472273Y798012D01*
X1472273D02*
X1470909Y797387D01*
X1470909D02*
X1469545D01*
X1469545D02*
X1468182Y798012D01*
X1468182D02*
X1467727Y799262D01*
X1478182Y810513D02*
Y799887D01*
X1478182D02*
X1478636Y798012D01*
X1478636D02*
X1479545Y797387D01*
X1479545D02*
X1480455D01*
X1476818Y806138D02*
X1480000D01*
X1484545D02*
Y797387D01*
Y802387D02*
X1485000Y804262D01*
X1485000D02*
X1485909Y805513D01*
X1485909D02*
X1486818Y806138D01*
X1486818D02*
X1488182D01*
X1492273D02*
Y799887D01*
X1492273D02*
X1492727Y798012D01*
X1492727D02*
X1493636Y797387D01*
X1493636D02*
X1495000D01*
X1495000D02*
X1495909Y798012D01*
X1495909D02*
X1497273Y799887D01*
Y806138D02*
Y797387D01*
X1501364Y806138D02*
Y797387D01*
Y803637D02*
X1502727Y805513D01*
X1502727D02*
X1503636Y806138D01*
X1503636D02*
X1505000D01*
X1505000D02*
X1505909Y805513D01*
X1505909D02*
X1506364Y803637D01*
X1506364D02*
Y797387D01*
Y803637D02*
X1507727Y805513D01*
X1507727D02*
X1508636Y806138D01*
X1508636D02*
X1510000D01*
X1510000D02*
X1510909Y805513D01*
X1510909D02*
X1511364Y803637D01*
X1511364D02*
Y797387D01*
X1515455Y802387D02*
X1520909D01*
X1520909D02*
Y803637D01*
X1520909D02*
X1520455Y804887D01*
X1520455D02*
X1520000Y805513D01*
X1520000D02*
X1519091Y806138D01*
X1519091D02*
X1517727D01*
X1517727D02*
X1516818Y805513D01*
X1516818D02*
X1515909Y804262D01*
X1515909D02*
X1515455Y802387D01*
X1515455D02*
Y801137D01*
X1515455D02*
X1515909Y799262D01*
X1515909D02*
X1516818Y798012D01*
X1516818D02*
X1517727Y797387D01*
X1517727D02*
X1519091D01*
X1519091D02*
X1520000Y798012D01*
X1520000D02*
X1520909Y799262D01*
X1525000Y806138D02*
Y797387D01*
Y803637D02*
X1526364Y805513D01*
X1526364D02*
X1527273Y806138D01*
X1527273D02*
X1528636D01*
X1528636D02*
X1529545Y805513D01*
X1529545D02*
X1530000Y803637D01*
X1530000D02*
Y797387D01*
X1535455Y810513D02*
Y799887D01*
X1535455D02*
X1535909Y798012D01*
X1535909D02*
X1536818Y797387D01*
X1536818D02*
X1537727D01*
X1534091Y806138D02*
X1537273D01*
X1546818Y804262D02*
X1546364Y805513D01*
X1546364D02*
X1545000Y806138D01*
X1545000D02*
X1543636D01*
X1543636D02*
X1542273Y805513D01*
X1542273D02*
X1541818Y804262D01*
X1541818D02*
X1542273Y803012D01*
X1542273D02*
X1543182Y802387D01*
X1543182D02*
X1545455Y801762D01*
X1545455D02*
X1546364Y801137D01*
X1546364D02*
X1546818Y799887D01*
X1546818D02*
Y799262D01*
X1546818D02*
X1546364Y798012D01*
X1546364D02*
X1545000Y797387D01*
X1545000D02*
X1543636D01*
X1543636D02*
X1542273Y798012D01*
X1542273D02*
X1541818Y799262D01*
X1386850Y749372D02*
Y736247D01*
Y749372D02*
X1392759D01*
X1386850Y743122D02*
X1390487D01*
X1397305Y746247D02*
Y746872D01*
X1397759Y748122*
X1398214Y748747*
X1399123Y749372*
X1400941*
X1401850Y748747*
X1402305Y748122*
X1402759Y746872*
Y745622*
X1402305Y744372*
X1401396Y742497*
X1396850Y736247*
X1403214*
X1409578Y749372D02*
X1408214Y748747D01*
X1407759Y747497*
Y746247*
X1408214Y744997*
X1409123Y744372*
X1410941Y743747*
X1412305Y743122*
X1413214Y741872*
X1413669Y740622*
Y738747*
X1413214Y737497*
X1412759Y736872*
X1411396Y736247*
X1409578*
X1408214Y736872*
X1407759Y737497*
X1407305Y738747*
Y740622*
X1407759Y741872*
X1408669Y743122*
X1410032Y743747*
X1411850Y744372*
X1412759Y744997*
X1413214Y746247*
Y747497*
X1412759Y748747*
X1411396Y749372*
X1409578*
X1420487D02*
X1419123Y748747D01*
X1418214Y746872*
X1417759Y743747*
Y741872*
X1418214Y738747*
X1419123Y736872*
X1420487Y736247*
X1421396*
X1422759Y736872*
X1423669Y738747*
X1424123Y741872*
Y743747*
X1423669Y746872*
X1422759Y748747*
X1421396Y749372*
X1420487*
X1433669Y747497D02*
X1433214Y748747D01*
X1431850Y749372*
X1430941*
X1429578Y748747*
X1428669Y746872*
X1428214Y743747*
Y740622*
X1428669Y738122*
X1429578Y736872*
X1430941Y736247*
X1431396*
X1432759Y736872*
X1433669Y738122*
X1434123Y739997*
Y740622*
X1433669Y742497*
X1432759Y743747*
X1431396Y744372*
X1430941*
X1429578Y743747*
X1428669Y742497*
X1428214Y740622*
X1444123Y744997D02*
X1443669Y743122D01*
X1442759Y741872*
X1441396Y741247*
X1440941*
X1439578Y741872*
X1438669Y743122*
X1438214Y744997*
Y745622*
X1438669Y747497*
X1439578Y748747*
X1440941Y749372*
X1441396*
X1442759Y748747*
X1443669Y747497*
X1444123Y744997*
Y741872*
X1443669Y738747*
X1442759Y736872*
X1441396Y736247*
X1440487*
X1439123Y736872*
X1438669Y738122*
X1464123Y743122D02*
X1463214Y744372D01*
X1462305Y744997*
X1460941*
X1460032Y744372*
X1459123Y743122*
X1458669Y741247*
Y739997*
X1459123Y738122*
X1460032Y736872*
X1460941Y736247*
X1462305*
X1463214Y736872*
X1464123Y738122*
X1470487Y744997D02*
X1469578Y744372D01*
X1468669Y743122*
X1468214Y741247*
Y739997*
X1468669Y738122*
X1469578Y736872*
X1470487Y736247*
X1471850*
X1472759Y736872*
X1473669Y738122*
X1474123Y739997*
Y741247*
X1473669Y743122*
X1472759Y744372*
X1471850Y744997*
X1470487*
X1478214D02*
Y736247D01*
Y742497D02*
X1479578Y744372D01*
X1480487Y744997*
X1481850*
X1482759Y744372*
X1483214Y742497*
Y736247*
X1488669Y749372D02*
Y738747D01*
X1489123Y736872*
X1490032Y736247*
X1490941*
X1487305Y744997D02*
X1490487D01*
X1495032D02*
Y736247D01*
Y741247D02*
X1495487Y743122D01*
X1496396Y744372*
X1497305Y744997*
X1498669*
X1505032D02*
X1504123Y744372D01*
X1503214Y743122*
X1502759Y741247*
Y739997*
X1503214Y738122*
X1504123Y736872*
X1505032Y736247*
X1506396*
X1507305Y736872*
X1508214Y738122*
X1508669Y739997*
Y741247*
X1508214Y743122*
X1507305Y744372*
X1506396Y744997*
X1505032*
X1512759Y749372D02*
Y736247D01*
X1523669Y746247D02*
X1523214Y747497D01*
X1522305Y748747*
X1521396Y749372*
X1519578*
X1518669Y748747*
X1517759Y747497*
X1517305Y746247*
X1516850Y744372*
Y741247*
X1517305Y739372*
X1517759Y738122*
X1518669Y736872*
X1519578Y736247*
X1521396*
X1522305Y736872*
X1523214Y738122*
X1523669Y739372*
X1531396Y749372D02*
X1527759Y736247D01*
X1531396Y749372D02*
X1535032Y736247D01*
X1529123Y740622D02*
X1533669D01*
X1539123Y749372D02*
Y736247D01*
Y749372D02*
X1543214D01*
X1544578Y748747*
X1545032Y748122*
X1545487Y746872*
Y745622*
X1545032Y744372*
X1544578Y743747*
X1543214Y743122*
X1539123*
X1542305D02*
X1545487Y736247D01*
X1549578Y749372D02*
Y736247D01*
Y749372D02*
X1552759D01*
X1554123Y748747*
X1555032Y747497*
X1555487Y746247*
X1555941Y744372*
Y741247*
X1555487Y739372*
X1555032Y738122*
X1554123Y736872*
X1552759Y736247*
X1549578*
X1347114Y663984D02*
X1350864D01*
X1348818Y660234*
X1349841*
X1350523Y659766*
X1350864Y659297*
X1351205Y657891*
Y656953*
X1350864Y655547*
X1350182Y654609*
X1349159Y654141*
X1348136*
X1347114Y654609*
X1346773Y655078*
X1346432Y656016*
X1499727Y663984D02*
Y654141D01*
X1502795Y660703D02*
Y654141D01*
Y658828D02*
X1503818Y660234D01*
X1504500Y660703*
X1505523*
X1506205Y660234*
X1506545Y658828*
Y654141*
X1510636Y663984D02*
Y656016D01*
X1510977Y654609*
X1511659Y654141*
X1512341*
X1509614Y660703D02*
X1512000D01*
X1515409Y657891D02*
X1519500D01*
Y658828*
X1519159Y659766*
X1518818Y660234*
X1518136Y660703*
X1517114*
X1516432Y660234*
X1515750Y659297*
X1515409Y657891*
Y656953*
X1515750Y655547*
X1516432Y654609*
X1517114Y654141*
X1518136*
X1518818Y654609*
X1519500Y655547*
X1522568Y660703D02*
Y654141D01*
Y657891D02*
X1522909Y659297D01*
X1523591Y660234*
X1524273Y660703*
X1525295*
X1528364D02*
Y654141D01*
Y658828D02*
X1529386Y660234D01*
X1530068Y660703*
X1531091*
X1531773Y660234*
X1532114Y658828*
Y654141*
X1539273Y660703D02*
Y654141D01*
Y659297D02*
X1538591Y660234D01*
X1537909Y660703*
X1536886*
X1536205Y660234*
X1535523Y659297*
X1535182Y657891*
Y656953*
X1535523Y655547*
X1536205Y654609*
X1536886Y654141*
X1537909*
X1538591Y654609*
X1539273Y655547*
X1542341Y663984D02*
Y654141D01*
X1553250Y663984D02*
Y654141D01*
Y663984D02*
X1556318D01*
X1557341Y663516*
X1557682Y663047*
X1558023Y662109*
Y660703*
X1557682Y659766*
X1557341Y659297*
X1556318Y658828*
X1553250*
X1561091Y663984D02*
Y654141D01*
X1568250Y660703D02*
Y654141D01*
Y659297D02*
X1567568Y660234D01*
X1566886Y660703*
X1565864*
X1565182Y660234*
X1564500Y659297*
X1564159Y657891*
Y656953*
X1564500Y655547*
X1565182Y654609*
X1565864Y654141*
X1566886*
X1567568Y654609*
X1568250Y655547*
X1571318Y660703D02*
Y654141D01*
Y658828D02*
X1572341Y660234D01*
X1573023Y660703*
X1574045*
X1574727Y660234*
X1575068Y658828*
Y654141*
X1578136Y657891D02*
X1582227D01*
Y658828*
X1581886Y659766*
X1581545Y660234*
X1580864Y660703*
X1579841*
X1579159Y660234*
X1578477Y659297*
X1578136Y657891*
Y656953*
X1578477Y655547*
X1579159Y654609*
X1579841Y654141*
X1580864*
X1581545Y654609*
X1582227Y655547*
X1593477Y661641D02*
Y662109D01*
X1593818Y663047*
X1594159Y663516*
X1594841Y663984*
X1596205*
X1596886Y663516*
X1597227Y663047*
X1597568Y662109*
Y661172*
X1597227Y660234*
X1596545Y658828*
X1593136Y654141*
X1597909*
X1131300Y689263D02*
X1132664Y682700D01*
X1134027Y689263D02*
X1132664Y682700D01*
X1134027Y689263D02*
X1135391Y682700D01*
X1136755Y689263D02*
X1135391Y682700D01*
X1139823Y689263D02*
X1141186Y682700D01*
X1142550Y689263D02*
X1141186Y682700D01*
X1142550Y689263D02*
X1143914Y682700D01*
X1145277Y689263D02*
X1143914Y682700D01*
X1148345Y689263D02*
X1149709Y682700D01*
X1151073Y689263D02*
X1149709Y682700D01*
X1151073Y689263D02*
X1152436Y682700D01*
X1153800Y689263D02*
X1152436Y682700D01*
X1157209Y683638D02*
X1156868Y683169D01*
X1157209Y682700*
X1157550Y683169*
X1157209Y683638*
X1160618Y689263D02*
X1161982Y682700D01*
X1163345Y689263D02*
X1161982Y682700D01*
X1163345Y689263D02*
X1164709Y682700D01*
X1166073Y689263D02*
X1164709Y682700D01*
X1172891Y687856D02*
X1172550Y688794D01*
X1171527Y689263*
X1171527D02*
X1170505D01*
X1170505D02*
X1169482Y688794D01*
X1169141Y687856*
X1169482Y686919*
X1170164Y686450*
X1171868Y685981*
X1172550Y685513*
X1172550D02*
X1172891Y684575D01*
Y684106*
X1172550Y683169*
X1171527Y682700*
X1170505*
X1169482Y683169*
X1169141Y684106*
X1176982Y692544D02*
Y684575D01*
X1177323Y683169*
X1178005Y682700*
X1178686*
X1175959Y689263D02*
X1178345D01*
X1185505Y687856D02*
X1185164Y688794D01*
X1184141Y689263*
X1184141D02*
X1183118D01*
X1183118D02*
X1182095Y688794D01*
X1181755Y687856*
X1182095Y686919*
X1182777Y686450*
X1184482Y685981*
X1185164Y685513*
X1185164D02*
X1185505Y684575D01*
Y684106*
X1185164Y683169*
X1184141Y682700*
X1183118*
X1182095Y683169*
X1181755Y684106*
X1192664Y687856D02*
X1191982Y688794D01*
X1191300Y689263*
X1191300D02*
X1190277D01*
X1190277D02*
X1189595Y688794D01*
X1188914Y687856*
X1188573Y686450*
Y685513*
X1188573D02*
X1188914Y684106D01*
X1189595Y683169*
X1190277Y682700*
X1191300*
X1191982Y683169*
X1192664Y684106*
X1197436Y689263D02*
X1196755Y688794D01*
X1196073Y687856*
X1195732Y686450*
Y685513*
X1195732D02*
X1196073Y684106D01*
X1196755Y683169*
X1197436Y682700*
X1198459*
X1199141Y683169*
X1199823Y684106*
X1200164Y685513*
X1200164D02*
Y686450D01*
X1199823Y687856*
X1199141Y688794*
X1198459Y689263*
X1198459D02*
X1197436D01*
X1203232D02*
Y682700D01*
Y686450D02*
X1203573Y687856D01*
X1204255Y688794*
X1204936Y689263*
X1204936D02*
X1205959D01*
X1209027D02*
Y679419D01*
Y687856D02*
X1209709Y688794D01*
X1210391Y689263*
X1210391D02*
X1211414D01*
X1211414D02*
X1212095Y688794D01*
X1212777Y687856*
X1213118Y686450*
Y685513*
X1213118D02*
X1212777Y684106D01*
X1212095Y683169*
X1211414Y682700*
X1210391*
X1209709Y683169*
X1209027Y684106*
X1216527Y683638D02*
X1216186Y683169D01*
X1216527Y682700*
X1216868Y683169*
X1216527Y683638*
X1224027Y687856D02*
X1223345Y688794D01*
X1222664Y689263*
X1222664D02*
X1221641D01*
X1221641D02*
X1220959Y688794D01*
X1220277Y687856*
X1219936Y686450*
Y685513*
X1219936D02*
X1220277Y684106D01*
X1220959Y683169*
X1221641Y682700*
X1222664*
X1223345Y683169*
X1224027Y684106*
X1228800Y689263D02*
X1228118Y688794D01*
X1227436Y687856*
X1227095Y686450*
Y685513*
X1227095D02*
X1227436Y684106D01*
X1228118Y683169*
X1228800Y682700*
X1229823*
X1230505Y683169*
X1231186Y684106*
X1231527Y685513*
X1231527D02*
Y686450D01*
X1231186Y687856*
X1230505Y688794*
X1229823Y689263*
X1229823D02*
X1228800D01*
X1234595D02*
Y682700D01*
Y687388D02*
X1235618Y688794D01*
X1236300Y689263*
X1236300D02*
X1237323D01*
X1237323D02*
X1238005Y688794D01*
X1238345Y687388*
X1238345D02*
Y682700D01*
Y687388D02*
X1239368Y688794D01*
X1240050Y689263*
X1240050D02*
X1241073D01*
X1241073D02*
X1241755Y688794D01*
X1242095Y687388*
X1242095D02*
Y682700D01*
X917200Y754944D02*
X918905Y745100D01*
X920609Y754944D02*
X918905Y745100D01*
X920609Y754944D02*
X922314Y745100D01*
X924018Y754944D02*
X922314Y745100D01*
X927086Y754944D02*
X927427Y754475D01*
X927768Y754944*
X927427Y755413*
X927427D02*
X927086Y754944D01*
X927427Y751663D02*
Y745100D01*
X930836Y754944D02*
Y745100D01*
X933905Y754944D02*
Y745100D01*
X938677Y751663D02*
X937995Y751194D01*
X937314Y750256*
X936973Y748850*
Y747913*
X936973D02*
X937314Y746506D01*
X937995Y745569*
X938677Y745100*
X939700*
X940382Y745569*
X941064Y746506*
X941405Y747913*
X941405D02*
Y748850D01*
X941064Y750256*
X940382Y751194*
X939700Y751663*
X939700D02*
X938677D01*
X944473D02*
X945836Y745100D01*
X947200Y751663D02*
X945836Y745100D01*
X947200Y751663D02*
X948564Y745100D01*
X949927Y751663D02*
X948564Y745100D01*
X965609Y753538D02*
X964927Y754475D01*
X963905Y754944*
X962541*
X961518Y754475*
X960836Y753538*
X960836D02*
Y752600D01*
X961177Y751663*
X961177D02*
X961518Y751194D01*
X962200Y750725*
X964245Y749788*
X964245D02*
X964927Y749319D01*
X965268Y748850*
X965609Y747913*
X965609D02*
Y746506D01*
X964927Y745569*
X963905Y745100*
X962541*
X961518Y745569*
X960836Y746506*
X968677Y751663D02*
Y741819D01*
Y750256D02*
X969359Y751194D01*
X970041Y751663*
X970041D02*
X971064D01*
X971064D02*
X971745Y751194D01*
X972427Y750256*
X972768Y748850*
Y747913*
X972768D02*
X972427Y746506D01*
X971745Y745569*
X971064Y745100*
X970041*
X969359Y745569*
X968677Y746506*
X975836Y751663D02*
Y745100D01*
Y748850D02*
X976177Y750256D01*
X976859Y751194*
X977541Y751663*
X977541D02*
X978564D01*
X981632Y754944D02*
X981973Y754475D01*
X982314Y754944*
X981973Y755413*
X981973D02*
X981632Y754944D01*
X981973Y751663D02*
Y745100D01*
X985382Y751663D02*
Y745100D01*
Y749788D02*
X986405Y751194D01*
X987086Y751663*
X987086D02*
X988109D01*
X988109D02*
X988791Y751194D01*
X989132Y749788*
X989132D02*
Y745100D01*
X996291Y751663D02*
Y744162D01*
X996291D02*
X995950Y742756D01*
X995609Y742287*
X995609D02*
X994927Y741819D01*
X993905*
X993223Y742287*
X996291Y750256D02*
X995609Y751194D01*
X994927Y751663*
X994927D02*
X993905D01*
X993905D02*
X993223Y751194D01*
X992541Y750256*
X992200Y748850*
Y747913*
X992200D02*
X992541Y746506D01*
X993223Y745569*
X993905Y745100*
X994927*
X995609Y745569*
X996291Y746506*
X1009586Y754944D02*
Y745100D01*
X1007200Y754944D02*
X1011973D01*
X1015041Y748850D02*
X1019132D01*
Y749788*
X1019132D02*
X1018791Y750725D01*
X1018450Y751194*
X1017768Y751663*
X1017768D02*
X1016745D01*
X1016745D02*
X1016064Y751194D01*
X1015382Y750256*
X1015041Y748850*
Y747913*
X1015041D02*
X1015382Y746506D01*
X1016064Y745569*
X1016745Y745100*
X1017768*
X1018450Y745569*
X1019132Y746506*
X1026291Y750256D02*
X1025609Y751194D01*
X1024927Y751663*
X1024927D02*
X1023905D01*
X1023905D02*
X1023223Y751194D01*
X1022541Y750256*
X1022200Y748850*
Y747913*
X1022200D02*
X1022541Y746506D01*
X1023223Y745569*
X1023905Y745100*
X1024927*
X1025609Y745569*
X1026291Y746506*
X1029359Y754944D02*
Y745100D01*
Y749788D02*
X1030382Y751194D01*
X1031064Y751663*
X1031064D02*
X1032086D01*
X1032086D02*
X1032768Y751194D01*
X1033109Y749788*
X1033109D02*
Y745100D01*
X1036177Y751663D02*
Y745100D01*
Y749788D02*
X1037200Y751194D01*
X1037882Y751663*
X1037882D02*
X1038905D01*
X1038905D02*
X1039586Y751194D01*
X1039927Y749788*
X1039927D02*
Y745100D01*
X1042995Y754944D02*
X1043336Y754475D01*
X1043677Y754944*
X1043336Y755413*
X1043336D02*
X1042995Y754944D01*
X1043336Y751663D02*
Y745100D01*
X1050836Y750256D02*
X1050155Y751194D01*
X1049473Y751663*
X1049473D02*
X1048450D01*
X1048450D02*
X1047768Y751194D01*
X1047086Y750256*
X1046745Y748850*
Y747913*
X1046745D02*
X1047086Y746506D01*
X1047768Y745569*
X1048450Y745100*
X1049473*
X1050155Y745569*
X1050836Y746506*
X1057995Y751663D02*
Y745100D01*
Y750256D02*
X1057314Y751194D01*
X1056632Y751663*
X1056632D02*
X1055609D01*
X1055609D02*
X1054927Y751194D01*
X1054245Y750256*
X1053905Y748850*
Y747913*
X1053905D02*
X1054245Y746506D01*
X1054927Y745569*
X1055609Y745100*
X1056632*
X1057314Y745569*
X1057995Y746506*
X1061064Y754944D02*
Y745100D01*
X1076745Y753538D02*
X1076064Y754475D01*
X1075041Y754944*
X1073677*
X1072655Y754475*
X1071973Y753538*
X1071973D02*
Y752600D01*
X1072314Y751663*
X1072314D02*
X1072655Y751194D01*
X1073336Y750725*
X1075382Y749788*
X1075382D02*
X1076064Y749319D01*
X1076405Y748850*
X1076745Y747913*
X1076745D02*
Y746506D01*
X1076064Y745569*
X1075041Y745100*
X1073677*
X1072655Y745569*
X1071973Y746506*
X1079814Y748850D02*
X1083905D01*
Y749788*
X1083905D02*
X1083564Y750725D01*
X1083223Y751194*
X1082541Y751663*
X1082541D02*
X1081518D01*
X1081518D02*
X1080836Y751194D01*
X1080155Y750256*
X1079814Y748850*
Y747913*
X1079814D02*
X1080155Y746506D01*
X1080836Y745569*
X1081518Y745100*
X1082541*
X1083223Y745569*
X1083905Y746506*
X1086973Y751663D02*
Y745100D01*
Y748850D02*
X1087314Y750256D01*
X1087995Y751194*
X1088677Y751663*
X1088677D02*
X1089700D01*
X1092768D02*
X1094814Y745100D01*
X1096859Y751663D02*
X1094814Y745100D01*
X1099927Y754944D02*
X1100268Y754475D01*
X1100609Y754944*
X1100268Y755413*
X1100268D02*
X1099927Y754944D01*
X1100268Y751663D02*
Y745100D01*
X1107768Y750256D02*
X1107086Y751194D01*
X1106405Y751663*
X1106405D02*
X1105382D01*
X1105382D02*
X1104700Y751194D01*
X1104018Y750256*
X1103677Y748850*
Y747913*
X1103677D02*
X1104018Y746506D01*
X1104700Y745569*
X1105382Y745100*
X1106405*
X1107086Y745569*
X1107768Y746506*
X1110836Y748850D02*
X1114927D01*
Y749788*
X1114927D02*
X1114586Y750725D01*
X1114245Y751194*
X1113564Y751663*
X1113564D02*
X1112541D01*
X1112541D02*
X1111859Y751194D01*
X1111177Y750256*
X1110836Y748850*
Y747913*
X1110836D02*
X1111177Y746506D01*
X1111859Y745569*
X1112541Y745100*
X1113564*
X1114245Y745569*
X1114927Y746506*
X1121745Y750256D02*
X1121405Y751194D01*
X1120382Y751663*
X1120382D02*
X1119359D01*
X1119359D02*
X1118336Y751194D01*
X1117995Y750256*
X1118336Y749319*
X1119018Y748850*
X1120723Y748381*
X1121405Y747913*
X1121405D02*
X1121745Y746975D01*
Y746506*
X1121405Y745569*
X1120382Y745100*
X1119359*
X1118336Y745569*
X1117995Y746506*
X1137768Y752600D02*
X1137427Y753538D01*
X1137427D02*
X1136745Y754475D01*
X1136064Y754944*
X1134700*
X1134018Y754475*
X1133336Y753538*
X1133336D02*
X1132995Y752600D01*
X1132655Y751194*
Y748850*
X1132995Y747444*
X1133336Y746506*
X1134018Y745569*
X1134700Y745100*
X1136064*
X1136745Y745569*
X1137427Y746506*
X1137768Y747444*
X1142541Y751663D02*
X1141859Y751194D01*
X1141177Y750256*
X1140836Y748850*
Y747913*
X1140836D02*
X1141177Y746506D01*
X1141859Y745569*
X1142541Y745100*
X1143564*
X1144245Y745569*
X1144927Y746506*
X1145268Y747913*
X1145268D02*
Y748850D01*
X1144927Y750256*
X1144245Y751194*
X1143564Y751663*
X1143564D02*
X1142541D01*
X1148336D02*
Y745100D01*
Y748850D02*
X1148677Y750256D01*
X1149359Y751194*
X1150041Y751663*
X1150041D02*
X1151064D01*
X1154132D02*
Y741819D01*
Y750256D02*
X1154814Y751194D01*
X1155495Y751663*
X1155495D02*
X1156518D01*
X1156518D02*
X1157200Y751194D01*
X1157882Y750256*
X1158223Y748850*
Y747913*
X1158223D02*
X1157882Y746506D01*
X1157200Y745569*
X1156518Y745100*
X1155495*
X1154814Y745569*
X1154132Y746506*
X1161632Y746038D02*
X1161291Y745569D01*
X1161632Y745100*
X1161973Y745569*
X1161632Y746038*
X1000500Y1000512D02*
X1354500Y1000300D01*
Y1009500*
X1000500*
Y1000512*
Y1009299D02*
X1354500D01*
X1000500Y1008399D02*
X1354500D01*
X1000500Y1007499D02*
X1354500D01*
X1000500Y1006599D02*
X1354500D01*
X1000500Y1005699D02*
X1354500D01*
X1000500Y1004799D02*
X1354500D01*
X1000500Y1003899D02*
X1354500D01*
X1000500Y1002999D02*
X1354500D01*
X1000500Y1002099D02*
X1354500D01*
X1000500Y1001199D02*
X1354500D01*
G54D30*
X1115000Y1098500D02*
X1188500D01*
Y1106000*
X1200000*
Y1082500*
X1161500*
Y1044500*
X1158000*
Y1007000*
X1123000*
Y1015500*
X1117500*
Y1037500*
X1115000*
Y1098500*
G54D33*
X652000Y645200D02*
X1688000D01*
Y1350000*
X652000*
Y645200*
X1253500D02*
X1688000D01*
Y840200*
X1253500*
Y645200*
X1253000Y785200D02*
X1688000D01*
Y645200*
X1253000*
Y785200*
Y675200D02*
X1688000D01*
Y645200*
X1253000*
Y675200*
X1413000*
Y645200*
X1253000*
Y675200*
Y785200D02*
X1688000D01*
Y840200*
X1253000*
Y785200*
Y715200D02*
X1688000D01*
Y785200*
X1253000*
Y715200*
X1553000Y675200D02*
X1688000D01*
Y715200*
X1553000*
Y675200*
X818500Y675700D02*
X1024000D01*
Y645200*
X818500*
Y675700*
X1024000Y645200D02*
X1253500D01*
Y675700*
X1024000*
Y645200*
X818500Y785700D02*
X1253500D01*
Y675700*
X818500*
Y785700*
G54D35*
X1094000Y1049500D03*
X1102500Y1014000D03*
X1085000Y1045000D03*
X1082500Y1018500D03*
X1090000Y1046000D03*
X1092500Y1018500D03*
X1090000Y1012000D03*
X1100000D03*
X1140500Y1011500D03*
X1128000Y1014000D03*
X1112500D03*
X1143000Y1013500D03*
X1132500Y1014000D03*
X1122500D03*
X1110000Y1012000D03*
X1120000D03*
X1138000Y1044500D03*
X1172000Y1030000D03*
X1182000Y1018500D03*
X1174000Y1028000D03*
X1166500Y1038000D03*
X1177500Y1034000D03*
X1178500Y1023000D03*
X1153000Y1013500D03*
X1176500Y1025000D03*
X1181000Y1015500D03*
X1149500Y1013500D03*
X1153000Y1023000D03*
X1145000Y1044000D03*
X1164000Y1049000D03*
X1152500Y1045500D03*
X1148500Y1042500D03*
X1199000Y1016500D03*
X1208000Y1037500D03*
X1219000D03*
X1211500D03*
X1213000Y1047000D03*
X1220000Y1011500D03*
X1210000Y1013000D03*
X1189000Y1045000D03*
X1199500Y1037000D03*
X1201500Y1047000D03*
X1207500D03*
X1215000Y1012000D03*
X1205000Y1014000D03*
X1200000Y1013500D03*
X1195000Y1015000D03*
X1190000D03*
X1197500Y1048500D03*
X1190000Y1032500D03*
X1204000Y1011500D03*
X1222500Y1027500D03*
X1221500Y1037500D03*
X1204000Y1036500D03*
X1221000Y1047000D03*
X1184500Y1045500D03*
X1240500Y1047000D03*
X1251900Y1026000D03*
X1235500Y1033500D03*
X1239000Y1037500D03*
X1231000D03*
X1251500Y1032000D03*
Y1034500D03*
X1245400Y1028000D03*
X1235000Y1037500D03*
X1224500Y1011500D03*
X1258000Y1042000D03*
X1248000Y1012500D03*
X1249000Y1039500D03*
X1261500Y1034000D03*
X1225000Y1047000D03*
X1262000Y1014000D03*
X1239000Y1012000D03*
X1257500Y1030000D03*
X1235000Y1012500D03*
X1237000Y1047000D03*
X1256000Y1012500D03*
X1240000Y1033500D03*
X1233000Y1047000D03*
X1288500Y1033000D03*
X1285500Y1018000D03*
X1297000Y1013500D03*
X1290000D03*
X1298000Y1018500D03*
X1264000Y1034000D03*
X1271000Y1046500D03*
X1293500Y1033500D03*
X1297000Y1021000D03*
X1294500Y1025000D03*
X1283000Y1019000D03*
X1271500Y1012000D03*
X1277500Y1014500D03*
X1302500Y1022500D03*
X1276000Y1047500D03*
X1267000Y1014000D03*
X1275000Y1029000D03*
X1270500Y1026200D03*
X1274000Y1044500D03*
Y1040000D03*
X1288000Y1039000D03*
X1270000Y1036000D03*
X1291500Y1035500D03*
X1267000Y1036000D03*
X1292500Y1031000D03*
X1272000Y1014500D03*
X1277500Y1018500D03*
X1282000Y1021500D03*
X1285500Y1025000D03*
X1274500Y1014500D03*
X1280500Y1019000D03*
X1285000Y1022000D03*
X1287500Y1021000D03*
X1302500Y1026500D03*
Y1012000D03*
X1284500D03*
X1316500Y1035000D03*
X1305000Y1014500D03*
X1308500Y1027500D03*
X1311500Y1028000D03*
X1322000Y1026500D03*
X1312500Y1018000D03*
X1315000Y1037000D03*
X1329000D03*
X1336500Y1045000D03*
Y1017500D03*
X1331500Y1045000D03*
X1325500Y1039000D03*
X1309500Y1043000D03*
X1305000Y1019500D03*
X1331500Y1027500D03*
X1305500Y1032000D03*
X1101000Y1076500D03*
Y1072500D03*
X1103500Y1074500D03*
Y1078500D03*
X1098000Y1070000D03*
Y1051500D03*
X1103500Y1058000D03*
X1102500Y1053000D03*
X1127000Y1060000D03*
X1125000Y1057500D03*
X1127500Y1055500D03*
X1125000Y1053500D03*
X1108500Y1082500D03*
X1110500Y1085000D03*
X1106000Y1080500D03*
X1107500Y1057500D03*
X1111000Y1060000D03*
X1138500Y1052500D03*
X1130500Y1070000D03*
X1134500Y1059500D03*
X1128500Y1065500D03*
X1134500Y1063000D03*
X1128240Y1076500D03*
X1124500Y1070000D03*
X1171000Y1087000D03*
X1145000Y1081500D03*
X1150000Y1061500D03*
X1175500Y1066500D03*
X1164000Y1074000D03*
Y1056500D03*
Y1066000D03*
X1152000Y1053000D03*
X1148500Y1066500D03*
Y1074000D03*
X1223000Y1072500D03*
X1188000Y1057000D03*
X1197500Y1066500D03*
X1198000Y1070500D03*
X1197500Y1060500D03*
X1186500Y1072500D03*
X1188000Y1076500D03*
X1223000Y1077500D03*
X1218000D03*
X1213000D03*
X1208000D03*
X1223000Y1062500D03*
X1218000D03*
X1213000D03*
X1208000D03*
Y1072500D03*
X1213000D03*
X1218000D03*
X1208000Y1082500D03*
X1213000D03*
X1218000D03*
X1223000D03*
X1208000Y1057500D03*
X1213000D03*
X1218000D03*
X1223000D03*
X1208000Y1052500D03*
X1213000D03*
X1218000D03*
X1223000D03*
Y1067500D03*
X1218000D03*
X1213000D03*
X1208000D03*
X1198000Y1054500D03*
X1203000Y1052500D03*
Y1057500D03*
Y1062500D03*
Y1067500D03*
Y1072500D03*
Y1077500D03*
Y1082500D03*
Y1087500D03*
X1208000D03*
X1213000D03*
X1218000D03*
X1223000D03*
X1187500Y1068500D03*
Y1063000D03*
X1259500Y1082500D03*
X1260500Y1057000D03*
X1258500Y1079000D03*
X1258000Y1059000D03*
X1258500Y1076000D03*
X1263000Y1063500D03*
X1248500Y1074500D03*
Y1055000D03*
X1258000Y1050000D03*
Y1056500D03*
X1243000Y1077500D03*
X1238000D03*
X1233000D03*
X1228000D03*
X1243000Y1062500D03*
X1238000D03*
X1233000D03*
X1228000D03*
X1243000Y1072500D03*
X1238000D03*
X1233000D03*
X1228000D03*
Y1082500D03*
X1233000D03*
X1238000D03*
X1243000D03*
X1248500Y1080500D03*
X1228000Y1057500D03*
X1233000D03*
X1238000D03*
X1243000D03*
Y1052500D03*
X1238000D03*
X1233000D03*
X1228000D03*
X1258000Y1067000D03*
X1243000Y1067500D03*
X1238000D03*
X1233000D03*
X1228000D03*
Y1087500D03*
X1233000D03*
X1238000D03*
X1243000D03*
X1302000Y1063000D03*
X1264500Y1065500D03*
X1301500Y1056500D03*
X1271000Y1053000D03*
X1295000Y1061500D03*
X1298000Y1071500D03*
X1296000Y1058500D03*
X1273500Y1050500D03*
X1293500D03*
X1274000Y1053000D03*
X1272500Y1078000D03*
X1282500Y1072500D03*
X1304000Y1060500D03*
X1319500Y1087500D03*
X1313500Y1066000D03*
X1305500Y1089000D03*
X1339000Y1062000D03*
X1314000Y1079500D03*
X1310000Y1060500D03*
X1311500Y1056500D03*
X1329500Y1087500D03*
X1339500Y1087000D03*
X1172000Y1090000D03*
X1173500Y1093000D03*
X1171500Y1095500D03*
X1176500Y1102000D03*
X1173000Y1098000D03*
X1157000Y1091500D03*
X1176000Y1097748D03*
X1161000Y1095000D03*
X1186000Y1096500D03*
X1221031Y1108000D03*
X1223000Y1098000D03*
X1197500Y1096000D03*
X1223000Y1092500D03*
X1218000D03*
X1219000Y1098000D03*
X1212000D03*
X1213000Y1092500D03*
X1208000D03*
X1203000D03*
X1187500Y1090000D03*
X1186000Y1093000D03*
X1227000Y1098000D03*
X1244500D03*
X1238500D03*
X1233000Y1092500D03*
X1228000D03*
X1243000D03*
X1241000Y1098000D03*
X1248500Y1116100D03*
X1282500Y1094500D03*
X1279500Y1108000D03*
X1266000Y1103500D03*
X1298000Y1093500D03*
X1319500Y1104000D03*
G54D36*
X1000000Y1000000D02*
X1072500D01*
Y1007946*
X1080374D02*
G75*
G03X1072500I-3937J310D01*
G01X1080374D02*
Y1000000D01*
X1168563*
Y1007839*
X1176437D02*
G03X1168563I-3937J227D01*
G01X1176437D02*
Y1000000D01*
X1355079*
Y1062205*
X1352102*
Y1077953D02*
G03Y1062205I-55J-7874D01*
G01Y1077953D02*
X1355079D01*
Y1120000*
X1000000*
Y1077953*
X1004464*
X1004457Y1062204D02*
G03X1004470Y1077952I-330J7875D01*
G01X1004464Y1062205D02*
X1000000D01*
Y1000000*
G54D37*
X1195000Y1022000D02*
X1260500D01*
X1278500Y1040000*
Y1045500*
X1306500*
Y1061500*
X1325000*
Y1007000*
X1195000*
Y1022000*
G54D60*
G54D74*
X1334500Y1106500D03*
G54D94*
X1318500Y1065000D03*
G54D121*
X1320075D03*
X1316925D03*
G54D10*
X1313819Y1026100D02*
X1313920D01*
X1317080D02*
X1317181D01*
X1313719Y1026200D02*
X1314124D01*
X1316876D02*
X1317281D01*
X1313619Y1026300D02*
X1314328D01*
X1316673D02*
X1317381D01*
X1313519Y1026400D02*
X1314591D01*
X1316407D02*
X1317481D01*
X1313419Y1026500D02*
X1315024D01*
X1315978D02*
X1317581D01*
X1313319Y1026600D02*
X1317681D01*
X1313219Y1026700D02*
X1317781D01*
X1313355Y1026800D02*
X1317645D01*
X1313531Y1026900D02*
X1317470D01*
X1313707Y1027000D02*
X1317294D01*
X1313883Y1027100D02*
X1317118D01*
X1314171Y1027200D02*
X1316828D01*
X1314484Y1027300D02*
X1316517D01*
X1315018Y1027400D02*
X1315981D01*
X1313300Y1026619D02*
Y1026769D01*
X1313400Y1026519D02*
Y1026826D01*
X1313500Y1026419D02*
Y1026882D01*
X1313600Y1026319D02*
Y1026939D01*
X1313700Y1026219D02*
Y1026996D01*
X1313800Y1026119D02*
Y1027053D01*
X1313900Y1026090D02*
Y1027109D01*
X1314000Y1026139D02*
Y1027145D01*
X1314100Y1026188D02*
Y1027177D01*
X1314200Y1026237D02*
Y1027209D01*
X1314300Y1026286D02*
Y1027241D01*
X1314400Y1026335D02*
Y1027273D01*
X1314500Y1026379D02*
Y1027305D01*
X1314600Y1026402D02*
Y1027337D01*
X1314700Y1026425D02*
Y1027367D01*
X1314800Y1026448D02*
Y1027378D01*
X1314900Y1026471D02*
Y1027388D01*
X1315000Y1026495D02*
Y1027398D01*
X1315100Y1026518D02*
Y1027408D01*
X1315200Y1026530D02*
Y1027419D01*
X1315300Y1026530D02*
Y1027429D01*
X1315400Y1026530D02*
Y1027439D01*
X1315500Y1026530D02*
Y1027450D01*
X1315600Y1026530D02*
Y1027440D01*
X1315700Y1026530D02*
Y1027429D01*
X1315800Y1026530D02*
Y1027419D01*
X1315900Y1026518D02*
Y1027408D01*
X1316000Y1026495D02*
Y1027398D01*
X1316100Y1026472D02*
Y1027388D01*
X1316200Y1026448D02*
Y1027377D01*
X1316300Y1026425D02*
Y1027367D01*
X1316400Y1026402D02*
Y1027338D01*
X1316500Y1026378D02*
Y1027305D01*
X1316600Y1026336D02*
Y1027273D01*
X1316700Y1026287D02*
Y1027241D01*
X1316800Y1026237D02*
Y1027209D01*
X1316900Y1026188D02*
Y1027177D01*
X1317000Y1026139D02*
Y1027145D01*
X1317100Y1026090D02*
Y1027110D01*
X1317200Y1026119D02*
Y1027053D01*
X1317300Y1026219D02*
Y1026996D01*
X1317400Y1026319D02*
Y1026940D01*
X1317500Y1026419D02*
Y1026883D01*
X1317600Y1026519D02*
Y1026826D01*
X1317700Y1026619D02*
Y1026769D01*
X1312231Y1021300D02*
X1312381D01*
X1312174Y1021400D02*
X1312481D01*
X1312117Y1021500D02*
X1312581D01*
X1312061Y1021600D02*
X1312681D01*
X1312004Y1021700D02*
X1312781D01*
X1311947Y1021800D02*
X1312881D01*
X1311890Y1021900D02*
X1312910D01*
X1311855Y1022000D02*
X1312861D01*
X1311823Y1022100D02*
X1312812D01*
X1311791Y1022200D02*
X1312763D01*
X1311759Y1022300D02*
X1312713D01*
X1311727Y1022400D02*
X1312664D01*
X1311695Y1022500D02*
X1312621D01*
X1311663Y1022600D02*
X1312598D01*
X1311633Y1022700D02*
X1312575D01*
X1311623Y1022800D02*
X1312552D01*
X1311612Y1022900D02*
X1312529D01*
X1311602Y1023000D02*
X1312505D01*
X1311592Y1023100D02*
X1312482D01*
X1311581Y1023200D02*
X1312470D01*
X1311571Y1023300D02*
X1312470D01*
X1311560Y1023400D02*
X1312470D01*
X1311550Y1023500D02*
X1312470D01*
X1311560Y1023600D02*
X1312470D01*
X1311571Y1023700D02*
X1312470D01*
X1311581Y1023800D02*
X1312470D01*
X1311592Y1023900D02*
X1312482D01*
X1311602Y1024000D02*
X1312505D01*
X1311612Y1024100D02*
X1312529D01*
X1311623Y1024200D02*
X1312552D01*
X1311633Y1024300D02*
X1312575D01*
X1311663Y1024400D02*
X1312598D01*
X1311695Y1024500D02*
X1312621D01*
X1311727Y1024600D02*
X1312664D01*
X1311759Y1024700D02*
X1312713D01*
X1311791Y1024800D02*
X1312763D01*
X1311823Y1024900D02*
X1312812D01*
X1311855Y1025000D02*
X1312861D01*
X1311890Y1025100D02*
X1312910D01*
X1311947Y1025200D02*
X1312881D01*
X1312004Y1025300D02*
X1312781D01*
X1312061Y1025400D02*
X1312681D01*
X1312117Y1025500D02*
X1312581D01*
X1312174Y1025600D02*
X1312481D01*
X1312231Y1025700D02*
X1312381D01*
X1311600Y1023019D02*
Y1023981D01*
X1311700Y1022483D02*
Y1024517D01*
X1311800Y1022172D02*
Y1024828D01*
X1311900Y1021882D02*
Y1025118D01*
X1312000Y1021706D02*
Y1025294D01*
X1312100Y1021531D02*
Y1025469D01*
X1312200Y1021355D02*
Y1025645D01*
X1312300Y1021219D02*
Y1025781D01*
X1312400Y1021319D02*
Y1025681D01*
X1312500Y1021419D02*
Y1023023D01*
Y1023977D02*
Y1025581D01*
X1312600Y1021519D02*
Y1022592D01*
Y1024408D02*
Y1025481D01*
X1312700Y1021619D02*
Y1022327D01*
Y1024673D02*
Y1025381D01*
X1312800Y1021719D02*
Y1022124D01*
Y1024876D02*
Y1025281D01*
X1312900Y1021819D02*
Y1021920D01*
Y1025080D02*
Y1025181D01*
X1315018Y1019600D02*
X1315981D01*
X1314484Y1019700D02*
X1316517D01*
X1314171Y1019800D02*
X1316828D01*
X1313883Y1019900D02*
X1317118D01*
X1313707Y1020000D02*
X1317294D01*
X1313531Y1020100D02*
X1317470D01*
X1313355Y1020200D02*
X1317645D01*
X1313219Y1020300D02*
X1317781D01*
X1313319Y1020400D02*
X1317681D01*
X1313419Y1020500D02*
X1315024D01*
X1315978D02*
X1317581D01*
X1313519Y1020600D02*
X1314591D01*
X1316407D02*
X1317481D01*
X1313619Y1020700D02*
X1314328D01*
X1316673D02*
X1317381D01*
X1313719Y1020800D02*
X1314124D01*
X1316876D02*
X1317281D01*
X1313819Y1020900D02*
X1313920D01*
X1317080D02*
X1317181D01*
X1313300Y1020231D02*
Y1020381D01*
X1313400Y1020174D02*
Y1020481D01*
X1313500Y1020118D02*
Y1020581D01*
X1313600Y1020061D02*
Y1020681D01*
X1313700Y1020004D02*
Y1020781D01*
X1313800Y1019947D02*
Y1020881D01*
X1313900Y1019891D02*
Y1020910D01*
X1314000Y1019855D02*
Y1020861D01*
X1314100Y1019823D02*
Y1020812D01*
X1314200Y1019791D02*
Y1020763D01*
X1314300Y1019759D02*
Y1020714D01*
X1314400Y1019727D02*
Y1020665D01*
X1314500Y1019695D02*
Y1020621D01*
X1314600Y1019663D02*
Y1020598D01*
X1314700Y1019633D02*
Y1020575D01*
X1314800Y1019622D02*
Y1020552D01*
X1314900Y1019612D02*
Y1020529D01*
X1315000Y1019602D02*
Y1020505D01*
X1315100Y1019592D02*
Y1020482D01*
X1315200Y1019581D02*
Y1020470D01*
X1315300Y1019571D02*
Y1020470D01*
X1315400Y1019561D02*
Y1020470D01*
X1315500Y1019550D02*
Y1020470D01*
X1315600Y1019560D02*
Y1020470D01*
X1315700Y1019571D02*
Y1020470D01*
X1315800Y1019581D02*
Y1020470D01*
X1315900Y1019592D02*
Y1020482D01*
X1316000Y1019602D02*
Y1020505D01*
X1316100Y1019612D02*
Y1020528D01*
X1316200Y1019623D02*
Y1020552D01*
X1316300Y1019633D02*
Y1020575D01*
X1316400Y1019662D02*
Y1020598D01*
X1316500Y1019695D02*
Y1020622D01*
X1316600Y1019727D02*
Y1020664D01*
X1316700Y1019759D02*
Y1020713D01*
X1316800Y1019791D02*
Y1020763D01*
X1316900Y1019823D02*
Y1020812D01*
X1317000Y1019855D02*
Y1020861D01*
X1317100Y1019890D02*
Y1020910D01*
X1317200Y1019947D02*
Y1020881D01*
X1317300Y1020004D02*
Y1020781D01*
X1317400Y1020060D02*
Y1020681D01*
X1317500Y1020117D02*
Y1020581D01*
X1317600Y1020174D02*
Y1020481D01*
X1317700Y1020231D02*
Y1020381D01*
X1318619Y1021300D02*
X1318769D01*
X1318519Y1021400D02*
X1318826D01*
X1318419Y1021500D02*
X1318882D01*
X1318319Y1021600D02*
X1318939D01*
X1318219Y1021700D02*
X1318996D01*
X1318119Y1021800D02*
X1319053D01*
X1318090Y1021900D02*
X1319110D01*
X1318139Y1022000D02*
X1319145D01*
X1318188Y1022100D02*
X1319177D01*
X1318237Y1022200D02*
X1319209D01*
X1318286Y1022300D02*
X1319241D01*
X1318335Y1022400D02*
X1319273D01*
X1318379Y1022500D02*
X1319305D01*
X1318402Y1022600D02*
X1319337D01*
X1318425Y1022700D02*
X1319367D01*
X1318448Y1022800D02*
X1319377D01*
X1318472Y1022900D02*
X1319388D01*
X1318495Y1023000D02*
X1319398D01*
X1318518Y1023100D02*
X1319409D01*
X1318530Y1023200D02*
X1319419D01*
X1318530Y1023300D02*
X1319429D01*
X1318530Y1023400D02*
X1319440D01*
X1318530Y1023500D02*
X1319450D01*
X1318530Y1023600D02*
X1319440D01*
X1318530Y1023700D02*
X1319429D01*
X1318530Y1023800D02*
X1319419D01*
X1318518Y1023900D02*
X1319409D01*
X1318495Y1024000D02*
X1319398D01*
X1318472Y1024100D02*
X1319388D01*
X1318448Y1024200D02*
X1319377D01*
X1318425Y1024300D02*
X1319367D01*
X1318402Y1024400D02*
X1319337D01*
X1318379Y1024500D02*
X1319305D01*
X1318335Y1024600D02*
X1319273D01*
X1318286Y1024700D02*
X1319241D01*
X1318237Y1024800D02*
X1319209D01*
X1318188Y1024900D02*
X1319177D01*
X1318139Y1025000D02*
X1319145D01*
X1318090Y1025100D02*
X1319110D01*
X1318119Y1025200D02*
X1319053D01*
X1318219Y1025300D02*
X1318996D01*
X1318319Y1025400D02*
X1318939D01*
X1318419Y1025500D02*
X1318882D01*
X1318519Y1025600D02*
X1318826D01*
X1318619Y1025700D02*
X1318769D01*
X1318100Y1021819D02*
Y1021920D01*
Y1025080D02*
Y1025181D01*
X1318200Y1021719D02*
Y1022124D01*
Y1024876D02*
Y1025281D01*
X1318300Y1021619D02*
Y1022328D01*
Y1024672D02*
Y1025381D01*
X1318400Y1021519D02*
Y1022591D01*
Y1024409D02*
Y1025481D01*
X1318500Y1021419D02*
Y1023023D01*
Y1023977D02*
Y1025581D01*
X1318600Y1021319D02*
Y1025681D01*
X1318700Y1021219D02*
Y1025781D01*
X1318800Y1021355D02*
Y1025645D01*
X1318900Y1021531D02*
Y1025469D01*
X1319000Y1021707D02*
Y1025293D01*
X1319100Y1021883D02*
Y1025117D01*
X1319200Y1022171D02*
Y1024829D01*
X1319300Y1022484D02*
Y1024516D01*
X1319400Y1023018D02*
Y1023982D01*
X1317148Y1026067D02*
X1317795Y1026715D01*
X1317799Y1026712D02*
G03X1313206Y1026716I-2299J-3212D01*
G01X1313205Y1026715D02*
X1313852Y1026067D01*
X1313857Y1026069D02*
G02X1317148Y1026067I1643J-2569D01*
G01X1312933Y1025148D02*
X1312285Y1025795D01*
X1312288Y1025799D02*
G03Y1021201I3212J-2299D01*
G01X1312285Y1021205D02*
X1312933Y1021852D01*
G02Y1025148I2567J1648*
G01X1313852Y1020933D02*
X1313205Y1020285D01*
X1313206Y1020284D02*
G03X1317799Y1020288I2294J3216D01*
G01X1317795Y1020285D02*
X1317148Y1020933D01*
G02X1313857Y1020931I-1648J2567*
G01X1318067Y1021852D02*
X1318715Y1021205D01*
X1318716Y1021206D02*
G03Y1025794I-3216J2294D01*
G01X1318715Y1025795D02*
X1318067Y1025148D01*
X1318069Y1025143D02*
G02Y1021857I-2569J-1643D01*
G01X1332819Y1074100D02*
X1332920D01*
X1336080D02*
X1336181D01*
X1332719Y1074200D02*
X1333124D01*
X1335876D02*
X1336281D01*
X1332619Y1074300D02*
X1333328D01*
X1335673D02*
X1336381D01*
X1332519Y1074400D02*
X1333591D01*
X1335407D02*
X1336481D01*
X1332419Y1074500D02*
X1334024D01*
X1334978D02*
X1336581D01*
X1332319Y1074600D02*
X1336681D01*
X1332219Y1074700D02*
X1336781D01*
X1332355Y1074800D02*
X1336645D01*
X1332531Y1074900D02*
X1336470D01*
X1332707Y1075000D02*
X1336294D01*
X1332883Y1075100D02*
X1336118D01*
X1333171Y1075200D02*
X1335828D01*
X1333484Y1075300D02*
X1335517D01*
X1334018Y1075400D02*
X1334981D01*
X1332300Y1074619D02*
Y1074769D01*
X1332400Y1074519D02*
Y1074826D01*
X1332500Y1074419D02*
Y1074882D01*
X1332600Y1074319D02*
Y1074939D01*
X1332700Y1074219D02*
Y1074996D01*
X1332800Y1074119D02*
Y1075053D01*
X1332900Y1074090D02*
Y1075109D01*
X1333000Y1074139D02*
Y1075145D01*
X1333100Y1074188D02*
Y1075177D01*
X1333200Y1074237D02*
Y1075209D01*
X1333300Y1074286D02*
Y1075241D01*
X1333400Y1074335D02*
Y1075273D01*
X1333500Y1074379D02*
Y1075305D01*
X1333600Y1074402D02*
Y1075337D01*
X1333700Y1074425D02*
Y1075367D01*
X1333800Y1074448D02*
Y1075378D01*
X1333900Y1074471D02*
Y1075388D01*
X1334000Y1074495D02*
Y1075398D01*
X1334100Y1074518D02*
Y1075408D01*
X1334200Y1074530D02*
Y1075419D01*
X1334300Y1074530D02*
Y1075429D01*
X1334400Y1074530D02*
Y1075439D01*
X1334500Y1074530D02*
Y1075450D01*
X1334600Y1074530D02*
Y1075440D01*
X1334700Y1074530D02*
Y1075429D01*
X1334800Y1074530D02*
Y1075419D01*
X1334900Y1074518D02*
Y1075408D01*
X1335000Y1074495D02*
Y1075398D01*
X1335100Y1074472D02*
Y1075388D01*
X1335200Y1074448D02*
Y1075377D01*
X1335300Y1074425D02*
Y1075367D01*
X1335400Y1074402D02*
Y1075338D01*
X1335500Y1074378D02*
Y1075305D01*
X1335600Y1074336D02*
Y1075273D01*
X1335700Y1074287D02*
Y1075241D01*
X1335800Y1074237D02*
Y1075209D01*
X1335900Y1074188D02*
Y1075177D01*
X1336000Y1074139D02*
Y1075145D01*
X1336100Y1074090D02*
Y1075110D01*
X1336200Y1074119D02*
Y1075053D01*
X1336300Y1074219D02*
Y1074996D01*
X1336400Y1074319D02*
Y1074940D01*
X1336500Y1074419D02*
Y1074883D01*
X1336600Y1074519D02*
Y1074826D01*
X1336700Y1074619D02*
Y1074769D01*
X1331231Y1069300D02*
X1331381D01*
X1331174Y1069400D02*
X1331481D01*
X1331117Y1069500D02*
X1331581D01*
X1331061Y1069600D02*
X1331681D01*
X1331004Y1069700D02*
X1331781D01*
X1330947Y1069800D02*
X1331881D01*
X1330890Y1069900D02*
X1331910D01*
X1330855Y1070000D02*
X1331861D01*
X1330823Y1070100D02*
X1331812D01*
X1330791Y1070200D02*
X1331763D01*
X1330759Y1070300D02*
X1331713D01*
X1330727Y1070400D02*
X1331664D01*
X1330695Y1070500D02*
X1331621D01*
X1330663Y1070600D02*
X1331598D01*
X1330633Y1070700D02*
X1331575D01*
X1330623Y1070800D02*
X1331552D01*
X1330612Y1070900D02*
X1331529D01*
X1330602Y1071000D02*
X1331505D01*
X1330592Y1071100D02*
X1331482D01*
X1330581Y1071200D02*
X1331470D01*
X1330571Y1071300D02*
X1331470D01*
X1330560Y1071400D02*
X1331470D01*
X1330550Y1071500D02*
X1331470D01*
X1330560Y1071600D02*
X1331470D01*
X1330571Y1071700D02*
X1331470D01*
X1330581Y1071800D02*
X1331470D01*
X1330592Y1071900D02*
X1331482D01*
X1330602Y1072000D02*
X1331505D01*
X1330612Y1072100D02*
X1331529D01*
X1330623Y1072200D02*
X1331552D01*
X1330633Y1072300D02*
X1331575D01*
X1330663Y1072400D02*
X1331598D01*
X1330695Y1072500D02*
X1331621D01*
X1330727Y1072600D02*
X1331664D01*
X1330759Y1072700D02*
X1331713D01*
X1330791Y1072800D02*
X1331763D01*
X1330823Y1072900D02*
X1331812D01*
X1330855Y1073000D02*
X1331861D01*
X1330890Y1073100D02*
X1331910D01*
X1330947Y1073200D02*
X1331881D01*
X1331004Y1073300D02*
X1331781D01*
X1331061Y1073400D02*
X1331681D01*
X1331117Y1073500D02*
X1331581D01*
X1331174Y1073600D02*
X1331481D01*
X1331231Y1073700D02*
X1331381D01*
X1330600Y1071019D02*
Y1071981D01*
X1330700Y1070483D02*
Y1072517D01*
X1330800Y1070172D02*
Y1072828D01*
X1330900Y1069882D02*
Y1073118D01*
X1331000Y1069706D02*
Y1073294D01*
X1331100Y1069531D02*
Y1073469D01*
X1331200Y1069355D02*
Y1073645D01*
X1331300Y1069219D02*
Y1073781D01*
X1331400Y1069319D02*
Y1073681D01*
X1331500Y1069419D02*
Y1071023D01*
Y1071977D02*
Y1073581D01*
X1331600Y1069519D02*
Y1070592D01*
Y1072408D02*
Y1073481D01*
X1331700Y1069619D02*
Y1070327D01*
Y1072673D02*
Y1073381D01*
X1331800Y1069719D02*
Y1070124D01*
Y1072876D02*
Y1073281D01*
X1331900Y1069819D02*
Y1069920D01*
Y1073080D02*
Y1073181D01*
X1334018Y1067600D02*
X1334981D01*
X1333484Y1067700D02*
X1335517D01*
X1333171Y1067800D02*
X1335828D01*
X1332883Y1067900D02*
X1336118D01*
X1332707Y1068000D02*
X1336294D01*
X1332531Y1068100D02*
X1336470D01*
X1332355Y1068200D02*
X1336645D01*
X1332219Y1068300D02*
X1336781D01*
X1332319Y1068400D02*
X1336681D01*
X1332419Y1068500D02*
X1334024D01*
X1334978D02*
X1336581D01*
X1332519Y1068600D02*
X1333591D01*
X1335407D02*
X1336481D01*
X1332619Y1068700D02*
X1333328D01*
X1335673D02*
X1336381D01*
X1332719Y1068800D02*
X1333124D01*
X1335876D02*
X1336281D01*
X1332819Y1068900D02*
X1332920D01*
X1336080D02*
X1336181D01*
X1332300Y1068231D02*
Y1068381D01*
X1332400Y1068174D02*
Y1068481D01*
X1332500Y1068118D02*
Y1068581D01*
X1332600Y1068061D02*
Y1068681D01*
X1332700Y1068004D02*
Y1068781D01*
X1332800Y1067947D02*
Y1068881D01*
X1332900Y1067891D02*
Y1068910D01*
X1333000Y1067855D02*
Y1068861D01*
X1333100Y1067823D02*
Y1068812D01*
X1333200Y1067791D02*
Y1068763D01*
X1333300Y1067759D02*
Y1068714D01*
X1333400Y1067727D02*
Y1068665D01*
X1333500Y1067695D02*
Y1068621D01*
X1333600Y1067663D02*
Y1068598D01*
X1333700Y1067633D02*
Y1068575D01*
X1333800Y1067622D02*
Y1068552D01*
X1333900Y1067612D02*
Y1068529D01*
X1334000Y1067602D02*
Y1068505D01*
X1334100Y1067592D02*
Y1068482D01*
X1334200Y1067581D02*
Y1068470D01*
X1334300Y1067571D02*
Y1068470D01*
X1334400Y1067561D02*
Y1068470D01*
X1334500Y1067550D02*
Y1068470D01*
X1334600Y1067560D02*
Y1068470D01*
X1334700Y1067571D02*
Y1068470D01*
X1334800Y1067581D02*
Y1068470D01*
X1334900Y1067592D02*
Y1068482D01*
X1335000Y1067602D02*
Y1068505D01*
X1335100Y1067612D02*
Y1068528D01*
X1335200Y1067623D02*
Y1068552D01*
X1335300Y1067633D02*
Y1068575D01*
X1335400Y1067662D02*
Y1068598D01*
X1335500Y1067695D02*
Y1068622D01*
X1335600Y1067727D02*
Y1068664D01*
X1335700Y1067759D02*
Y1068713D01*
X1335800Y1067791D02*
Y1068763D01*
X1335900Y1067823D02*
Y1068812D01*
X1336000Y1067855D02*
Y1068861D01*
X1336100Y1067890D02*
Y1068910D01*
X1336200Y1067947D02*
Y1068881D01*
X1336300Y1068004D02*
Y1068781D01*
X1336400Y1068060D02*
Y1068681D01*
X1336500Y1068117D02*
Y1068581D01*
X1336600Y1068174D02*
Y1068481D01*
X1336700Y1068231D02*
Y1068381D01*
X1337619Y1069300D02*
X1337769D01*
X1337519Y1069400D02*
X1337826D01*
X1337419Y1069500D02*
X1337882D01*
X1337319Y1069600D02*
X1337939D01*
X1337219Y1069700D02*
X1337996D01*
X1337119Y1069800D02*
X1338053D01*
X1337090Y1069900D02*
X1338110D01*
X1337139Y1070000D02*
X1338145D01*
X1337188Y1070100D02*
X1338177D01*
X1337237Y1070200D02*
X1338209D01*
X1337286Y1070300D02*
X1338241D01*
X1337335Y1070400D02*
X1338273D01*
X1337379Y1070500D02*
X1338305D01*
X1337402Y1070600D02*
X1338337D01*
X1337425Y1070700D02*
X1338367D01*
X1337448Y1070800D02*
X1338377D01*
X1337472Y1070900D02*
X1338388D01*
X1337495Y1071000D02*
X1338398D01*
X1337518Y1071100D02*
X1338409D01*
X1337530Y1071200D02*
X1338419D01*
X1337530Y1071300D02*
X1338429D01*
X1337530Y1071400D02*
X1338440D01*
X1337530Y1071500D02*
X1338450D01*
X1337530Y1071600D02*
X1338440D01*
X1337530Y1071700D02*
X1338429D01*
X1337530Y1071800D02*
X1338419D01*
X1337518Y1071900D02*
X1338409D01*
X1337495Y1072000D02*
X1338398D01*
X1337472Y1072100D02*
X1338388D01*
X1337448Y1072200D02*
X1338377D01*
X1337425Y1072300D02*
X1338367D01*
X1337402Y1072400D02*
X1338337D01*
X1337379Y1072500D02*
X1338305D01*
X1337335Y1072600D02*
X1338273D01*
X1337286Y1072700D02*
X1338241D01*
X1337237Y1072800D02*
X1338209D01*
X1337188Y1072900D02*
X1338177D01*
X1337139Y1073000D02*
X1338145D01*
X1337090Y1073100D02*
X1338110D01*
X1337119Y1073200D02*
X1338053D01*
X1337219Y1073300D02*
X1337996D01*
X1337319Y1073400D02*
X1337939D01*
X1337419Y1073500D02*
X1337882D01*
X1337519Y1073600D02*
X1337826D01*
X1337619Y1073700D02*
X1337769D01*
X1337100Y1069819D02*
Y1069920D01*
Y1073080D02*
Y1073181D01*
X1337200Y1069719D02*
Y1070124D01*
Y1072876D02*
Y1073281D01*
X1337300Y1069619D02*
Y1070328D01*
Y1072672D02*
Y1073381D01*
X1337400Y1069519D02*
Y1070591D01*
Y1072409D02*
Y1073481D01*
X1337500Y1069419D02*
Y1071023D01*
Y1071977D02*
Y1073581D01*
X1337600Y1069319D02*
Y1073681D01*
X1337700Y1069219D02*
Y1073781D01*
X1337800Y1069355D02*
Y1073645D01*
X1337900Y1069531D02*
Y1073469D01*
X1338000Y1069707D02*
Y1073293D01*
X1338100Y1069883D02*
Y1073117D01*
X1338200Y1070171D02*
Y1072829D01*
X1338300Y1070484D02*
Y1072516D01*
X1338400Y1071018D02*
Y1071982D01*
X1336148Y1074067D02*
X1336795Y1074715D01*
X1336799Y1074712D02*
G03X1332206Y1074716I-2299J-3212D01*
G01X1332205Y1074715D02*
X1332852Y1074067D01*
X1332857Y1074069D02*
G02X1336148Y1074067I1643J-2569D01*
G01X1331933Y1073148D02*
X1331285Y1073795D01*
X1331288Y1073799D02*
G03Y1069201I3212J-2299D01*
G01X1331285Y1069205D02*
X1331933Y1069852D01*
G02Y1073148I2567J1648*
G01X1332852Y1068933D02*
X1332205Y1068285D01*
X1332206Y1068284D02*
G03X1336799Y1068288I2294J3216D01*
G01X1336795Y1068285D02*
X1336148Y1068933D01*
G02X1332857Y1068931I-1648J2567*
G01X1337067Y1069852D02*
X1337715Y1069205D01*
X1337716Y1069206D02*
G03Y1073794I-3216J2294D01*
G01X1337715Y1073795D02*
X1337067Y1073148D01*
X1337069Y1073143D02*
G02Y1069857I-2569J-1643D01*
G74*
G01X0Y0D02*
M02*
