G04*
G04 #@! TF.GenerationSoftware,Altium Limited,Altium Designer,20.1.14 (287)*
G04*
G04 Layer_Physical_Order=4*
G04 Layer_Color=16711680*
%FSAX25Y25*%
%MOIN*%
G70*
G04*
G04 #@! TF.SameCoordinates,8DC34975-1D0C-4FB0-AB39-1F5E8F216BA0*
G04*
G04*
G04 #@! TF.FilePolarity,Positive*
G04*
G01*
G75*
%ADD13C,0.01000*%
%ADD15C,0.00500*%
%ADD21C,0.00600*%
%ADD22C,0.00800*%
%ADD59C,0.03937*%
%ADD68R,0.03740X0.03937*%
%ADD69R,0.02362X0.03150*%
%ADD70R,0.03150X0.02362*%
%ADD71R,0.03937X0.03740*%
%ADD125C,0.01200*%
%ADD128C,0.05000*%
%ADD129R,0.06496X0.06496*%
%ADD130C,0.06496*%
G04:AMPARAMS|DCode=131|XSize=64.96mil|YSize=64.96mil|CornerRadius=1.95mil|HoleSize=0mil|Usage=FLASHONLY|Rotation=180.000|XOffset=0mil|YOffset=0mil|HoleType=Round|Shape=RoundedRectangle|*
%AMROUNDEDRECTD131*
21,1,0.06496,0.06106,0,0,180.0*
21,1,0.06106,0.06496,0,0,180.0*
1,1,0.00390,-0.03053,0.03053*
1,1,0.00390,0.03053,0.03053*
1,1,0.00390,0.03053,-0.03053*
1,1,0.00390,-0.03053,-0.03053*
%
%ADD131ROUNDEDRECTD131*%
G04:AMPARAMS|DCode=132|XSize=64.96mil|YSize=64.96mil|CornerRadius=1.95mil|HoleSize=0mil|Usage=FLASHONLY|Rotation=270.000|XOffset=0mil|YOffset=0mil|HoleType=Round|Shape=RoundedRectangle|*
%AMROUNDEDRECTD132*
21,1,0.06496,0.06106,0,0,270.0*
21,1,0.06106,0.06496,0,0,270.0*
1,1,0.00390,-0.03053,-0.03053*
1,1,0.00390,-0.03053,0.03053*
1,1,0.00390,0.03053,0.03053*
1,1,0.00390,0.03053,-0.03053*
%
%ADD132ROUNDEDRECTD132*%
%ADD133C,0.03900*%
%ADD134C,0.12000*%
G04:AMPARAMS|DCode=135|XSize=82.68mil|YSize=55.12mil|CornerRadius=27.56mil|HoleSize=0mil|Usage=FLASHONLY|Rotation=270.000|XOffset=0mil|YOffset=0mil|HoleType=Round|Shape=RoundedRectangle|*
%AMROUNDEDRECTD135*
21,1,0.08268,0.00000,0,0,270.0*
21,1,0.02756,0.05512,0,0,270.0*
1,1,0.05512,0.00000,-0.01378*
1,1,0.05512,0.00000,0.01378*
1,1,0.05512,0.00000,0.01378*
1,1,0.05512,0.00000,-0.01378*
%
%ADD135ROUNDEDRECTD135*%
%ADD136C,0.06102*%
G04:AMPARAMS|DCode=137|XSize=61.02mil|YSize=61.02mil|CornerRadius=1.83mil|HoleSize=0mil|Usage=FLASHONLY|Rotation=270.000|XOffset=0mil|YOffset=0mil|HoleType=Round|Shape=RoundedRectangle|*
%AMROUNDEDRECTD137*
21,1,0.06102,0.05736,0,0,270.0*
21,1,0.05736,0.06102,0,0,270.0*
1,1,0.00366,-0.02868,-0.02868*
1,1,0.00366,-0.02868,0.02868*
1,1,0.00366,0.02868,0.02868*
1,1,0.00366,0.02868,-0.02868*
%
%ADD137ROUNDEDRECTD137*%
%ADD138R,0.06496X0.06496*%
%ADD139C,0.02200*%
%ADD140R,0.05000X0.06300*%
%ADD141C,0.03100*%
G04:AMPARAMS|DCode=142|XSize=37.4mil|YSize=39.37mil|CornerRadius=0mil|HoleSize=0mil|Usage=FLASHONLY|Rotation=315.000|XOffset=0mil|YOffset=0mil|HoleType=Round|Shape=Rectangle|*
%AMROTATEDRECTD142*
4,1,4,-0.02714,-0.00070,0.00070,0.02714,0.02714,0.00070,-0.00070,-0.02714,-0.02714,-0.00070,0.0*
%
%ADD142ROTATEDRECTD142*%

G04:AMPARAMS|DCode=143|XSize=23.62mil|YSize=31.5mil|CornerRadius=0mil|HoleSize=0mil|Usage=FLASHONLY|Rotation=225.000|XOffset=0mil|YOffset=0mil|HoleType=Round|Shape=Rectangle|*
%AMROTATEDRECTD143*
4,1,4,-0.00278,0.01949,0.01949,-0.00278,0.00278,-0.01949,-0.01949,0.00278,-0.00278,0.01949,0.0*
%
%ADD143ROTATEDRECTD143*%

G04:AMPARAMS|DCode=144|XSize=23.62mil|YSize=31.5mil|CornerRadius=0mil|HoleSize=0mil|Usage=FLASHONLY|Rotation=315.000|XOffset=0mil|YOffset=0mil|HoleType=Round|Shape=Rectangle|*
%AMROTATEDRECTD144*
4,1,4,-0.01949,-0.00278,0.00278,0.01949,0.01949,0.00278,-0.00278,-0.01949,-0.01949,-0.00278,0.0*
%
%ADD144ROTATEDRECTD144*%

G36*
X0274200Y0693400D02*
X0269200Y0688400D01*
X0174200Y0688400D01*
X0169200Y0683400D01*
X0169200Y0613400D01*
X0149200Y0593400D01*
X0136685Y0593400D01*
X0136453Y0593654D01*
X0136038Y0594400D01*
X0136137Y0594900D01*
X0135990Y0595641D01*
X0135570Y0596270D01*
X0134941Y0596690D01*
X0134200Y0596837D01*
X0133459Y0596690D01*
X0132830Y0596270D01*
X0132410Y0595641D01*
X0132263Y0594900D01*
X0132362Y0594400D01*
X0131947Y0593654D01*
X0131714Y0593400D01*
X0112200Y0593400D01*
X0109200Y0590400D01*
Y0586596D01*
X0108200Y0586530D01*
X0108144Y0586957D01*
X0107736Y0587942D01*
X0107087Y0588787D01*
X0106242Y0589436D01*
X0105257Y0589844D01*
X0104200Y0589983D01*
X0103143Y0589844D01*
X0102158Y0589436D01*
X0101313Y0588787D01*
X0100664Y0587942D01*
X0100256Y0586957D01*
X0100117Y0585900D01*
X0100256Y0584843D01*
X0100664Y0583858D01*
X0101313Y0583013D01*
X0102158Y0582364D01*
X0103143Y0581956D01*
X0104200Y0581817D01*
X0105257Y0581956D01*
X0106242Y0582364D01*
X0107087Y0583013D01*
X0107736Y0583858D01*
X0108144Y0584843D01*
X0108200Y0585269D01*
X0109200Y0585204D01*
X0109200Y0491971D01*
X0107048D01*
X0106709Y0492971D01*
X0106947Y0493153D01*
X0107564Y0493958D01*
X0107952Y0494895D01*
X0108084Y0495900D01*
X0107952Y0496905D01*
X0107564Y0497842D01*
X0106947Y0498647D01*
X0106142Y0499264D01*
X0105205Y0499652D01*
X0104200Y0499784D01*
X0103195Y0499652D01*
X0102258Y0499264D01*
X0101453Y0498647D01*
X0100836Y0497842D01*
X0100448Y0496905D01*
X0100316Y0495900D01*
X0100448Y0494895D01*
X0100836Y0493958D01*
X0101453Y0493153D01*
X0101691Y0492971D01*
X0101352Y0491971D01*
X0099643D01*
X0097591Y0494023D01*
X0097952Y0494895D01*
X0098084Y0495900D01*
X0097952Y0496905D01*
X0097564Y0497842D01*
X0096947Y0498647D01*
X0096142Y0499264D01*
X0095205Y0499652D01*
X0094200Y0499784D01*
X0093195Y0499652D01*
X0092258Y0499264D01*
X0091453Y0498647D01*
X0090836Y0497842D01*
X0090448Y0496905D01*
X0090316Y0495900D01*
X0090448Y0494895D01*
X0090836Y0493958D01*
X0091453Y0493153D01*
X0092258Y0492536D01*
X0093195Y0492148D01*
X0094200Y0492016D01*
X0095205Y0492148D01*
X0096077Y0492509D01*
X0098443Y0490143D01*
X0098790Y0489911D01*
X0099200Y0489829D01*
X0099200Y0489829D01*
X0101352D01*
X0101691Y0488829D01*
X0101453Y0488647D01*
X0100836Y0487842D01*
X0100448Y0486905D01*
X0100316Y0485900D01*
X0100448Y0484895D01*
X0100836Y0483958D01*
X0101453Y0483153D01*
X0101691Y0482971D01*
X0101352Y0481971D01*
X0099643D01*
X0097591Y0484023D01*
X0097952Y0484895D01*
X0098084Y0485900D01*
X0097952Y0486905D01*
X0097564Y0487842D01*
X0096947Y0488647D01*
X0096142Y0489264D01*
X0095205Y0489652D01*
X0094200Y0489784D01*
X0093195Y0489652D01*
X0092258Y0489264D01*
X0091453Y0488647D01*
X0090836Y0487842D01*
X0090448Y0486905D01*
X0090316Y0485900D01*
X0090448Y0484895D01*
X0090836Y0483958D01*
X0091453Y0483153D01*
X0092258Y0482536D01*
X0093195Y0482148D01*
X0094200Y0482016D01*
X0095205Y0482148D01*
X0096077Y0482509D01*
X0098443Y0480143D01*
X0098790Y0479911D01*
X0099200Y0479829D01*
X0099200Y0479829D01*
X0101352D01*
X0101691Y0478829D01*
X0101453Y0478647D01*
X0100836Y0477842D01*
X0100448Y0476905D01*
X0100316Y0475900D01*
X0100448Y0474895D01*
X0100836Y0473958D01*
X0101453Y0473153D01*
X0101691Y0472971D01*
X0101352Y0471971D01*
X0099643D01*
X0097591Y0474023D01*
X0097952Y0474895D01*
X0098084Y0475900D01*
X0097952Y0476905D01*
X0097564Y0477842D01*
X0096947Y0478647D01*
X0096142Y0479264D01*
X0095205Y0479652D01*
X0094200Y0479784D01*
X0093195Y0479652D01*
X0092258Y0479264D01*
X0091453Y0478647D01*
X0090836Y0477842D01*
X0090448Y0476905D01*
X0090316Y0475900D01*
X0090448Y0474895D01*
X0090836Y0473958D01*
X0091453Y0473153D01*
X0092258Y0472536D01*
X0093195Y0472148D01*
X0094200Y0472016D01*
X0095205Y0472148D01*
X0096077Y0472509D01*
X0098443Y0470143D01*
X0098790Y0469911D01*
X0099200Y0469829D01*
X0099200Y0469829D01*
X0101352D01*
X0101691Y0468829D01*
X0101453Y0468647D01*
X0100836Y0467842D01*
X0100448Y0466905D01*
X0100316Y0465900D01*
X0100448Y0464895D01*
X0100836Y0463958D01*
X0101453Y0463153D01*
X0102258Y0462536D01*
X0103195Y0462148D01*
X0104200Y0462016D01*
X0105205Y0462148D01*
X0106142Y0462536D01*
X0106947Y0463153D01*
X0107564Y0463958D01*
X0107952Y0464895D01*
X0108084Y0465900D01*
X0107952Y0466905D01*
X0107564Y0467842D01*
X0106947Y0468647D01*
X0106709Y0468829D01*
X0107048Y0469829D01*
X0109200D01*
Y0420805D01*
X0108622Y0420690D01*
X0107993Y0420270D01*
X0107573Y0419641D01*
X0107426Y0418900D01*
X0107573Y0418159D01*
X0107993Y0417530D01*
X0108622Y0417110D01*
X0109200Y0416995D01*
Y0398557D01*
X0107461Y0396818D01*
X0104952D01*
X0103113Y0398657D01*
X0102766Y0398889D01*
X0102356Y0398971D01*
X0098248D01*
Y0399948D01*
X0090152D01*
Y0391852D01*
X0098248D01*
Y0396829D01*
X0101913D01*
X0103536Y0395206D01*
Y0391519D01*
X0103536Y0391281D01*
Y0390519D01*
X0103536Y0390281D01*
Y0384982D01*
X0103536D01*
X0104269Y0384084D01*
X0104417Y0383343D01*
X0104837Y0382714D01*
X0105465Y0382295D01*
X0106207Y0382147D01*
X0106948Y0382295D01*
X0107576Y0382714D01*
X0107996Y0383343D01*
X0109113Y0383832D01*
X0109200Y0383797D01*
Y0361134D01*
X0108900Y0360887D01*
X0108158Y0360740D01*
X0107530Y0360320D01*
X0107110Y0359691D01*
X0106962Y0358950D01*
X0107110Y0358209D01*
X0107530Y0357580D01*
X0108158Y0357160D01*
X0108900Y0357013D01*
X0109200Y0356766D01*
Y0326596D01*
X0108200Y0326530D01*
X0108144Y0326957D01*
X0107736Y0327941D01*
X0107087Y0328787D01*
X0106242Y0329436D01*
X0105257Y0329844D01*
X0104200Y0329983D01*
X0103143Y0329844D01*
X0102158Y0329436D01*
X0101313Y0328787D01*
X0100664Y0327941D01*
X0100256Y0326957D01*
X0100117Y0325900D01*
X0100256Y0324843D01*
X0100664Y0323858D01*
X0101313Y0323013D01*
X0102158Y0322364D01*
X0103143Y0321956D01*
X0104200Y0321817D01*
X0105257Y0321956D01*
X0106242Y0322364D01*
X0107087Y0323013D01*
X0107736Y0323858D01*
X0108144Y0324843D01*
X0108200Y0325270D01*
X0109200Y0325204D01*
X0109200Y0241971D01*
X0107048D01*
X0106709Y0242971D01*
X0106947Y0243153D01*
X0107564Y0243958D01*
X0107952Y0244895D01*
X0108084Y0245900D01*
X0107952Y0246905D01*
X0107564Y0247842D01*
X0106947Y0248647D01*
X0106142Y0249264D01*
X0105205Y0249652D01*
X0104200Y0249784D01*
X0103195Y0249652D01*
X0102258Y0249264D01*
X0101453Y0248647D01*
X0100836Y0247842D01*
X0100448Y0246905D01*
X0100316Y0245900D01*
X0100448Y0244895D01*
X0100836Y0243958D01*
X0101453Y0243153D01*
X0101691Y0242971D01*
X0101352Y0241971D01*
X0099200D01*
X0099200Y0241971D01*
X0098790Y0241889D01*
X0098443Y0241657D01*
X0096077Y0239291D01*
X0095205Y0239652D01*
X0094200Y0239784D01*
X0093195Y0239652D01*
X0092258Y0239264D01*
X0091453Y0238647D01*
X0090836Y0237842D01*
X0090448Y0236905D01*
X0090316Y0235900D01*
X0090448Y0234895D01*
X0090836Y0233958D01*
X0091453Y0233153D01*
X0092258Y0232536D01*
X0093195Y0232148D01*
X0094200Y0232016D01*
X0095205Y0232148D01*
X0096142Y0232536D01*
X0096947Y0233153D01*
X0097564Y0233958D01*
X0097952Y0234895D01*
X0098084Y0235900D01*
X0097952Y0236905D01*
X0097591Y0237777D01*
X0099643Y0239829D01*
X0101352D01*
X0101691Y0238829D01*
X0101453Y0238647D01*
X0100836Y0237842D01*
X0100448Y0236905D01*
X0100316Y0235900D01*
X0100448Y0234895D01*
X0100836Y0233958D01*
X0101453Y0233153D01*
X0101691Y0232971D01*
X0101352Y0231971D01*
X0099200D01*
X0099200Y0231971D01*
X0098790Y0231889D01*
X0098443Y0231657D01*
X0096077Y0229291D01*
X0095205Y0229652D01*
X0094200Y0229784D01*
X0093195Y0229652D01*
X0092258Y0229264D01*
X0091453Y0228647D01*
X0090836Y0227842D01*
X0090448Y0226905D01*
X0090316Y0225900D01*
X0090448Y0224895D01*
X0090836Y0223958D01*
X0091453Y0223153D01*
X0092258Y0222536D01*
X0093195Y0222148D01*
X0094200Y0222016D01*
X0095205Y0222148D01*
X0096142Y0222536D01*
X0096947Y0223153D01*
X0097564Y0223958D01*
X0097952Y0224895D01*
X0098084Y0225900D01*
X0097952Y0226905D01*
X0097591Y0227777D01*
X0099643Y0229829D01*
X0101352D01*
X0101691Y0228829D01*
X0101453Y0228647D01*
X0100836Y0227842D01*
X0100448Y0226905D01*
X0100316Y0225900D01*
X0100448Y0224895D01*
X0100836Y0223958D01*
X0101453Y0223153D01*
X0101691Y0222971D01*
X0101352Y0221971D01*
X0099200D01*
X0099200Y0221971D01*
X0098790Y0221889D01*
X0098443Y0221657D01*
X0096077Y0219291D01*
X0095205Y0219652D01*
X0094200Y0219784D01*
X0093195Y0219652D01*
X0092258Y0219264D01*
X0091453Y0218647D01*
X0090836Y0217842D01*
X0090448Y0216905D01*
X0090316Y0215900D01*
X0090448Y0214895D01*
X0090836Y0213958D01*
X0091453Y0213153D01*
X0092258Y0212536D01*
X0093195Y0212148D01*
X0094200Y0212016D01*
X0095205Y0212148D01*
X0096142Y0212536D01*
X0096947Y0213153D01*
X0097564Y0213958D01*
X0097952Y0214895D01*
X0098084Y0215900D01*
X0097952Y0216905D01*
X0097591Y0217777D01*
X0099643Y0219829D01*
X0101352D01*
X0101691Y0218829D01*
X0101453Y0218647D01*
X0100836Y0217842D01*
X0100448Y0216905D01*
X0100316Y0215900D01*
X0100448Y0214895D01*
X0100836Y0213958D01*
X0101453Y0213153D01*
X0102258Y0212536D01*
X0103195Y0212148D01*
X0104200Y0212016D01*
X0105205Y0212148D01*
X0106142Y0212536D01*
X0106947Y0213153D01*
X0107564Y0213958D01*
X0107952Y0214895D01*
X0108084Y0215900D01*
X0107952Y0216905D01*
X0107564Y0217842D01*
X0106947Y0218647D01*
X0106709Y0218829D01*
X0107048Y0219829D01*
X0109200D01*
Y0217900D01*
X0119200Y0207900D01*
X0192755Y0207900D01*
Y0206900D01*
X0196117D01*
Y0207900D01*
X0197759D01*
Y0206900D01*
X0199440D01*
X0201121D01*
Y0207900D01*
X0218800Y0207900D01*
X0221200Y0205900D01*
X0221200Y0184575D01*
X0220910Y0184141D01*
X0220763Y0183400D01*
X0220910Y0182659D01*
X0221200Y0182225D01*
Y0178267D01*
X0220700Y0177899D01*
Y0175900D01*
Y0173901D01*
X0221200Y0173533D01*
X0221200Y0155949D01*
X0098846D01*
X0098353Y0156949D01*
X0098381Y0156986D01*
X0098864Y0158150D01*
X0099028Y0159400D01*
X0098864Y0160650D01*
X0098381Y0161814D01*
X0097614Y0162814D01*
X0096614Y0163581D01*
X0095450Y0164064D01*
X0094200Y0164228D01*
X0092950Y0164064D01*
X0091786Y0163581D01*
X0090786Y0162814D01*
X0090019Y0161814D01*
X0089536Y0160650D01*
X0089372Y0159400D01*
X0089536Y0158150D01*
X0090019Y0156986D01*
X0090047Y0156949D01*
X0089554Y0155949D01*
X0082263D01*
X0082117Y0156324D01*
X0082086Y0156949D01*
X0083136Y0157510D01*
X0084209Y0158391D01*
X0085090Y0159464D01*
X0085745Y0160689D01*
X0086148Y0162018D01*
X0086284Y0163400D01*
X0086148Y0164782D01*
X0085745Y0166111D01*
X0085090Y0167336D01*
X0084209Y0168409D01*
X0083136Y0169290D01*
X0081911Y0169945D01*
X0080582Y0170348D01*
X0079200Y0170484D01*
X0077818Y0170348D01*
X0076489Y0169945D01*
X0075264Y0169290D01*
X0074191Y0168409D01*
X0073310Y0167336D01*
X0072749Y0166286D01*
X0072124Y0166317D01*
X0071749Y0166463D01*
Y0605900D01*
X0081816Y0605900D01*
X0082440Y0604900D01*
X0082256Y0604457D01*
X0082117Y0603400D01*
X0082256Y0602343D01*
X0082664Y0601359D01*
X0083313Y0600513D01*
X0084158Y0599864D01*
X0085143Y0599456D01*
X0086200Y0599317D01*
X0087257Y0599456D01*
X0088241Y0599864D01*
X0089087Y0600513D01*
X0089736Y0601359D01*
X0090144Y0602343D01*
X0090283Y0603400D01*
X0090144Y0604457D01*
X0089960Y0604900D01*
X0090584Y0605900D01*
X0096229D01*
X0096764Y0604900D01*
X0096557Y0604400D01*
X0100200D01*
X0103843D01*
X0103636Y0604900D01*
X0104171Y0605900D01*
X0109816D01*
X0110440Y0604900D01*
X0110256Y0604457D01*
X0110117Y0603400D01*
X0110256Y0602343D01*
X0110664Y0601359D01*
X0111313Y0600513D01*
X0112159Y0599864D01*
X0113143Y0599456D01*
X0114200Y0599317D01*
X0115257Y0599456D01*
X0116242Y0599864D01*
X0117087Y0600513D01*
X0117736Y0601359D01*
X0118144Y0602343D01*
X0118283Y0603400D01*
X0118144Y0604457D01*
X0117960Y0604900D01*
X0118584Y0605900D01*
X0143700Y0605900D01*
X0155700Y0617900D01*
X0155700Y0700851D01*
X0274200D01*
X0274200Y0693400D01*
D02*
G37*
%LPC*%
G36*
X0267700Y0694932D02*
Y0693900D01*
X0268732D01*
X0268707Y0694024D01*
X0268354Y0694554D01*
X0267824Y0694907D01*
X0267700Y0694932D01*
D02*
G37*
G36*
X0266700D02*
X0266576Y0694907D01*
X0266047Y0694554D01*
X0265693Y0694024D01*
X0265668Y0693900D01*
X0266700D01*
Y0694932D01*
D02*
G37*
G36*
X0268732Y0692900D02*
X0267700D01*
Y0691868D01*
X0267824Y0691893D01*
X0268354Y0692246D01*
X0268707Y0692776D01*
X0268732Y0692900D01*
D02*
G37*
G36*
X0266700D02*
X0265668D01*
X0265693Y0692776D01*
X0266047Y0692246D01*
X0266576Y0691893D01*
X0266700Y0691868D01*
Y0692900D01*
D02*
G37*
G36*
X0103843Y0602400D02*
X0101200D01*
Y0599757D01*
X0102090Y0600126D01*
X0102873Y0600727D01*
X0103474Y0601510D01*
X0103843Y0602400D01*
D02*
G37*
G36*
X0099200D02*
X0096557D01*
X0096926Y0601510D01*
X0097527Y0600727D01*
X0098310Y0600126D01*
X0099200Y0599757D01*
Y0602400D01*
D02*
G37*
G36*
X0143200Y0602337D02*
X0142459Y0602190D01*
X0141830Y0601770D01*
X0141410Y0601141D01*
X0141263Y0600400D01*
X0141410Y0599659D01*
X0141830Y0599030D01*
X0142459Y0598610D01*
X0143200Y0598463D01*
X0143941Y0598610D01*
X0144570Y0599030D01*
X0144990Y0599659D01*
X0145137Y0600400D01*
X0144990Y0601141D01*
X0144570Y0601770D01*
X0143941Y0602190D01*
X0143200Y0602337D01*
D02*
G37*
G36*
X0125200D02*
X0124459Y0602190D01*
X0123830Y0601770D01*
X0123410Y0601141D01*
X0123263Y0600400D01*
X0123410Y0599659D01*
X0123830Y0599030D01*
X0124459Y0598610D01*
X0125200Y0598463D01*
X0125941Y0598610D01*
X0126570Y0599030D01*
X0126990Y0599659D01*
X0127137Y0600400D01*
X0126990Y0601141D01*
X0126570Y0601770D01*
X0125941Y0602190D01*
X0125200Y0602337D01*
D02*
G37*
G36*
X0107948Y0579648D02*
X0105200D01*
Y0576900D01*
X0107948D01*
Y0579648D01*
D02*
G37*
G36*
X0103200D02*
X0100452D01*
Y0576900D01*
X0103200D01*
Y0579648D01*
D02*
G37*
G36*
X0107948Y0574900D02*
X0105200D01*
Y0572152D01*
X0107948D01*
Y0574900D01*
D02*
G37*
G36*
X0103200D02*
X0100452D01*
Y0572152D01*
X0103200D01*
Y0574900D01*
D02*
G37*
G36*
X0105200Y0559330D02*
Y0556900D01*
X0107630D01*
X0107302Y0557691D01*
X0106733Y0558433D01*
X0105991Y0559002D01*
X0105200Y0559330D01*
D02*
G37*
G36*
X0103200D02*
X0102409Y0559002D01*
X0101667Y0558433D01*
X0101098Y0557691D01*
X0100770Y0556900D01*
X0103200D01*
Y0559330D01*
D02*
G37*
G36*
X0107630Y0554900D02*
X0105200D01*
Y0552470D01*
X0105991Y0552798D01*
X0106733Y0553367D01*
X0107302Y0554109D01*
X0107630Y0554900D01*
D02*
G37*
G36*
X0103200D02*
X0100770D01*
X0101098Y0554109D01*
X0101667Y0553367D01*
X0102409Y0552798D01*
X0103200Y0552470D01*
Y0554900D01*
D02*
G37*
G36*
X0097068Y0559770D02*
X0091332D01*
X0090948Y0559694D01*
X0090623Y0559477D01*
X0090406Y0559152D01*
X0090330Y0558768D01*
Y0553032D01*
X0090406Y0552648D01*
X0090623Y0552323D01*
X0090948Y0552106D01*
X0091332Y0552030D01*
X0097068D01*
X0097452Y0552106D01*
X0097777Y0552323D01*
X0097994Y0552648D01*
X0098070Y0553032D01*
Y0558768D01*
X0097994Y0559152D01*
X0097777Y0559477D01*
X0097452Y0559694D01*
X0097068Y0559770D01*
D02*
G37*
G36*
X0104200Y0549784D02*
X0103195Y0549652D01*
X0102258Y0549264D01*
X0101453Y0548647D01*
X0100836Y0547842D01*
X0100448Y0546905D01*
X0100316Y0545900D01*
X0100448Y0544895D01*
X0100836Y0543958D01*
X0101453Y0543153D01*
X0102258Y0542536D01*
X0103195Y0542148D01*
X0104200Y0542016D01*
X0105205Y0542148D01*
X0106142Y0542536D01*
X0106947Y0543153D01*
X0107564Y0543958D01*
X0107952Y0544895D01*
X0108084Y0545900D01*
X0107952Y0546905D01*
X0107564Y0547842D01*
X0106947Y0548647D01*
X0106142Y0549264D01*
X0105205Y0549652D01*
X0104200Y0549784D01*
D02*
G37*
G36*
X0094200D02*
X0093195Y0549652D01*
X0092258Y0549264D01*
X0091453Y0548647D01*
X0090836Y0547842D01*
X0090448Y0546905D01*
X0090316Y0545900D01*
X0090448Y0544895D01*
X0090836Y0543958D01*
X0091453Y0543153D01*
X0092258Y0542536D01*
X0093195Y0542148D01*
X0094200Y0542016D01*
X0095205Y0542148D01*
X0096142Y0542536D01*
X0096947Y0543153D01*
X0097564Y0543958D01*
X0097952Y0544895D01*
X0098084Y0545900D01*
X0097952Y0546905D01*
X0097564Y0547842D01*
X0096947Y0548647D01*
X0096142Y0549264D01*
X0095205Y0549652D01*
X0094200Y0549784D01*
D02*
G37*
G36*
X0104200Y0539784D02*
X0103195Y0539652D01*
X0102258Y0539264D01*
X0101453Y0538647D01*
X0100836Y0537842D01*
X0100448Y0536905D01*
X0100316Y0535900D01*
X0100448Y0534895D01*
X0100836Y0533958D01*
X0101453Y0533153D01*
X0102258Y0532536D01*
X0103195Y0532148D01*
X0104200Y0532016D01*
X0105205Y0532148D01*
X0106142Y0532536D01*
X0106947Y0533153D01*
X0107564Y0533958D01*
X0107952Y0534895D01*
X0108084Y0535900D01*
X0107952Y0536905D01*
X0107564Y0537842D01*
X0106947Y0538647D01*
X0106142Y0539264D01*
X0105205Y0539652D01*
X0104200Y0539784D01*
D02*
G37*
G36*
X0094200D02*
X0093195Y0539652D01*
X0092258Y0539264D01*
X0091453Y0538647D01*
X0090836Y0537842D01*
X0090448Y0536905D01*
X0090316Y0535900D01*
X0090448Y0534895D01*
X0090836Y0533958D01*
X0091453Y0533153D01*
X0092258Y0532536D01*
X0093195Y0532148D01*
X0094200Y0532016D01*
X0095205Y0532148D01*
X0096142Y0532536D01*
X0096947Y0533153D01*
X0097564Y0533958D01*
X0097952Y0534895D01*
X0098084Y0535900D01*
X0097952Y0536905D01*
X0097564Y0537842D01*
X0096947Y0538647D01*
X0096142Y0539264D01*
X0095205Y0539652D01*
X0094200Y0539784D01*
D02*
G37*
G36*
X0078200Y0526337D02*
X0077459Y0526190D01*
X0076830Y0525770D01*
X0076410Y0525141D01*
X0076263Y0524400D01*
X0076410Y0523659D01*
X0076830Y0523030D01*
X0077459Y0522610D01*
X0078200Y0522463D01*
X0078941Y0522610D01*
X0079570Y0523030D01*
X0079990Y0523659D01*
X0080137Y0524400D01*
X0079990Y0525141D01*
X0079570Y0525770D01*
X0078941Y0526190D01*
X0078200Y0526337D01*
D02*
G37*
G36*
X0104200Y0529784D02*
X0103195Y0529652D01*
X0102258Y0529264D01*
X0101453Y0528647D01*
X0100836Y0527842D01*
X0100448Y0526905D01*
X0100316Y0525900D01*
X0100448Y0524895D01*
X0100836Y0523958D01*
X0101453Y0523153D01*
X0102258Y0522536D01*
X0103195Y0522148D01*
X0104200Y0522016D01*
X0105205Y0522148D01*
X0106142Y0522536D01*
X0106947Y0523153D01*
X0107564Y0523958D01*
X0107952Y0524895D01*
X0108084Y0525900D01*
X0107952Y0526905D01*
X0107564Y0527842D01*
X0106947Y0528647D01*
X0106142Y0529264D01*
X0105205Y0529652D01*
X0104200Y0529784D01*
D02*
G37*
G36*
X0094200D02*
X0093195Y0529652D01*
X0092258Y0529264D01*
X0091453Y0528647D01*
X0090836Y0527842D01*
X0090448Y0526905D01*
X0090316Y0525900D01*
X0090448Y0524895D01*
X0090836Y0523958D01*
X0091453Y0523153D01*
X0092258Y0522536D01*
X0093195Y0522148D01*
X0094200Y0522016D01*
X0095205Y0522148D01*
X0096142Y0522536D01*
X0096947Y0523153D01*
X0097564Y0523958D01*
X0097952Y0524895D01*
X0098084Y0525900D01*
X0097952Y0526905D01*
X0097564Y0527842D01*
X0096947Y0528647D01*
X0096142Y0529264D01*
X0095205Y0529652D01*
X0094200Y0529784D01*
D02*
G37*
G36*
X0104200Y0519784D02*
X0103195Y0519652D01*
X0102258Y0519264D01*
X0101453Y0518647D01*
X0100836Y0517842D01*
X0100448Y0516905D01*
X0100316Y0515900D01*
X0100448Y0514895D01*
X0100836Y0513958D01*
X0101453Y0513153D01*
X0102258Y0512536D01*
X0103195Y0512148D01*
X0104200Y0512016D01*
X0105205Y0512148D01*
X0106142Y0512536D01*
X0106947Y0513153D01*
X0107564Y0513958D01*
X0107952Y0514895D01*
X0108084Y0515900D01*
X0107952Y0516905D01*
X0107564Y0517842D01*
X0106947Y0518647D01*
X0106142Y0519264D01*
X0105205Y0519652D01*
X0104200Y0519784D01*
D02*
G37*
G36*
X0094200D02*
X0093195Y0519652D01*
X0092258Y0519264D01*
X0091453Y0518647D01*
X0090836Y0517842D01*
X0090448Y0516905D01*
X0090316Y0515900D01*
X0090448Y0514895D01*
X0090836Y0513958D01*
X0091453Y0513153D01*
X0092258Y0512536D01*
X0093195Y0512148D01*
X0094200Y0512016D01*
X0095205Y0512148D01*
X0096142Y0512536D01*
X0096947Y0513153D01*
X0097564Y0513958D01*
X0097952Y0514895D01*
X0098084Y0515900D01*
X0097952Y0516905D01*
X0097564Y0517842D01*
X0096947Y0518647D01*
X0096142Y0519264D01*
X0095205Y0519652D01*
X0094200Y0519784D01*
D02*
G37*
G36*
X0104200Y0509784D02*
X0103195Y0509652D01*
X0102258Y0509264D01*
X0101453Y0508647D01*
X0100836Y0507842D01*
X0100448Y0506905D01*
X0100316Y0505900D01*
X0100448Y0504895D01*
X0100836Y0503958D01*
X0101453Y0503153D01*
X0102258Y0502536D01*
X0103195Y0502148D01*
X0104200Y0502016D01*
X0105205Y0502148D01*
X0106142Y0502536D01*
X0106947Y0503153D01*
X0107564Y0503958D01*
X0107952Y0504895D01*
X0108084Y0505900D01*
X0107952Y0506905D01*
X0107564Y0507842D01*
X0106947Y0508647D01*
X0106142Y0509264D01*
X0105205Y0509652D01*
X0104200Y0509784D01*
D02*
G37*
G36*
X0094200D02*
X0093195Y0509652D01*
X0092258Y0509264D01*
X0091453Y0508647D01*
X0090836Y0507842D01*
X0090448Y0506905D01*
X0090316Y0505900D01*
X0090448Y0504895D01*
X0090836Y0503958D01*
X0091453Y0503153D01*
X0092258Y0502536D01*
X0093195Y0502148D01*
X0094200Y0502016D01*
X0095205Y0502148D01*
X0096142Y0502536D01*
X0096947Y0503153D01*
X0097564Y0503958D01*
X0097952Y0504895D01*
X0098084Y0505900D01*
X0097952Y0506905D01*
X0097564Y0507842D01*
X0096947Y0508647D01*
X0096142Y0509264D01*
X0095205Y0509652D01*
X0094200Y0509784D01*
D02*
G37*
G36*
Y0469784D02*
X0093195Y0469652D01*
X0092258Y0469264D01*
X0091453Y0468647D01*
X0090836Y0467842D01*
X0090448Y0466905D01*
X0090316Y0465900D01*
X0090448Y0464895D01*
X0090836Y0463958D01*
X0091453Y0463153D01*
X0092258Y0462536D01*
X0093195Y0462148D01*
X0094200Y0462016D01*
X0095205Y0462148D01*
X0096142Y0462536D01*
X0096947Y0463153D01*
X0097564Y0463958D01*
X0097952Y0464895D01*
X0098084Y0465900D01*
X0097952Y0466905D01*
X0097564Y0467842D01*
X0096947Y0468647D01*
X0096142Y0469264D01*
X0095205Y0469652D01*
X0094200Y0469784D01*
D02*
G37*
G36*
Y0449983D02*
X0093143Y0449844D01*
X0092159Y0449436D01*
X0091313Y0448787D01*
X0090664Y0447941D01*
X0090256Y0446957D01*
X0090117Y0445900D01*
X0090256Y0444843D01*
X0090664Y0443858D01*
X0091313Y0443013D01*
X0092159Y0442364D01*
X0093143Y0441956D01*
X0094200Y0441817D01*
X0095257Y0441956D01*
X0096241Y0442364D01*
X0097087Y0443013D01*
X0097736Y0443858D01*
X0098144Y0444843D01*
X0098283Y0445900D01*
X0098144Y0446957D01*
X0097736Y0447941D01*
X0097087Y0448787D01*
X0096241Y0449436D01*
X0095257Y0449844D01*
X0094200Y0449983D01*
D02*
G37*
G36*
Y0439983D02*
X0093143Y0439844D01*
X0092159Y0439436D01*
X0091313Y0438787D01*
X0090664Y0437942D01*
X0090256Y0436957D01*
X0090117Y0435900D01*
X0090256Y0434843D01*
X0090664Y0433858D01*
X0091313Y0433013D01*
X0092159Y0432364D01*
X0093143Y0431956D01*
X0094200Y0431817D01*
X0095257Y0431956D01*
X0096241Y0432364D01*
X0097087Y0433013D01*
X0097736Y0433858D01*
X0098144Y0434843D01*
X0098283Y0435900D01*
X0098144Y0436957D01*
X0097736Y0437942D01*
X0097087Y0438787D01*
X0096241Y0439436D01*
X0095257Y0439844D01*
X0094200Y0439983D01*
D02*
G37*
G36*
X0097948Y0429648D02*
X0095200D01*
Y0426900D01*
X0097948D01*
Y0429648D01*
D02*
G37*
G36*
X0093200D02*
X0090452D01*
Y0426900D01*
X0093200D01*
Y0429648D01*
D02*
G37*
G36*
X0097948Y0424900D02*
X0095200D01*
Y0422152D01*
X0097948D01*
Y0424900D01*
D02*
G37*
G36*
X0093200D02*
X0090452D01*
Y0422152D01*
X0093200D01*
Y0424900D01*
D02*
G37*
G36*
X0094200Y0389983D02*
X0093143Y0389844D01*
X0092159Y0389436D01*
X0091313Y0388787D01*
X0090664Y0387942D01*
X0090256Y0386957D01*
X0090117Y0385900D01*
X0090256Y0384843D01*
X0090664Y0383858D01*
X0091313Y0383013D01*
X0092159Y0382364D01*
X0093143Y0381956D01*
X0094200Y0381817D01*
X0095257Y0381956D01*
X0096241Y0382364D01*
X0097087Y0383013D01*
X0097736Y0383858D01*
X0098144Y0384843D01*
X0098283Y0385900D01*
X0098144Y0386957D01*
X0097736Y0387942D01*
X0097087Y0388787D01*
X0096241Y0389436D01*
X0095257Y0389844D01*
X0094200Y0389983D01*
D02*
G37*
G36*
X0105200Y0339543D02*
Y0336900D01*
X0107843D01*
X0107474Y0337790D01*
X0106873Y0338573D01*
X0106090Y0339174D01*
X0105200Y0339543D01*
D02*
G37*
G36*
X0103200D02*
X0102310Y0339174D01*
X0101527Y0338573D01*
X0100926Y0337790D01*
X0100557Y0336900D01*
X0103200D01*
Y0339543D01*
D02*
G37*
G36*
X0107843Y0334900D02*
X0105200D01*
Y0332257D01*
X0106090Y0332626D01*
X0106873Y0333227D01*
X0107474Y0334010D01*
X0107843Y0334900D01*
D02*
G37*
G36*
X0103200D02*
X0100557D01*
X0100926Y0334010D01*
X0101527Y0333227D01*
X0102310Y0332626D01*
X0103200Y0332257D01*
Y0334900D01*
D02*
G37*
G36*
X0097253Y0339967D02*
X0091147D01*
X0090759Y0339890D01*
X0090430Y0339670D01*
X0090210Y0339341D01*
X0090132Y0338953D01*
Y0332847D01*
X0090210Y0332459D01*
X0090430Y0332130D01*
X0090759Y0331910D01*
X0091147Y0331833D01*
X0097253D01*
X0097641Y0331910D01*
X0097970Y0332130D01*
X0098190Y0332459D01*
X0098268Y0332847D01*
Y0338953D01*
X0098190Y0339341D01*
X0097970Y0339670D01*
X0097641Y0339890D01*
X0097253Y0339967D01*
D02*
G37*
G36*
X0094200Y0329983D02*
X0093143Y0329844D01*
X0092159Y0329436D01*
X0091313Y0328787D01*
X0090664Y0327941D01*
X0090256Y0326957D01*
X0090117Y0325900D01*
X0090256Y0324843D01*
X0090664Y0323858D01*
X0091313Y0323013D01*
X0092159Y0322364D01*
X0093143Y0321956D01*
X0094200Y0321817D01*
X0095257Y0321956D01*
X0096241Y0322364D01*
X0097087Y0323013D01*
X0097736Y0323858D01*
X0098144Y0324843D01*
X0098283Y0325900D01*
X0098144Y0326957D01*
X0097736Y0327941D01*
X0097087Y0328787D01*
X0096241Y0329436D01*
X0095257Y0329844D01*
X0094200Y0329983D01*
D02*
G37*
G36*
X0104200Y0309784D02*
X0103195Y0309652D01*
X0102258Y0309264D01*
X0101453Y0308647D01*
X0100836Y0307842D01*
X0100448Y0306905D01*
X0100316Y0305900D01*
X0100448Y0304895D01*
X0100836Y0303958D01*
X0101453Y0303153D01*
X0102258Y0302536D01*
X0103195Y0302148D01*
X0104200Y0302016D01*
X0105205Y0302148D01*
X0106142Y0302536D01*
X0106947Y0303153D01*
X0107564Y0303958D01*
X0107952Y0304895D01*
X0108084Y0305900D01*
X0107952Y0306905D01*
X0107564Y0307842D01*
X0106947Y0308647D01*
X0106142Y0309264D01*
X0105205Y0309652D01*
X0104200Y0309784D01*
D02*
G37*
G36*
X0094200D02*
X0093195Y0309652D01*
X0092258Y0309264D01*
X0091453Y0308647D01*
X0090836Y0307842D01*
X0090448Y0306905D01*
X0090316Y0305900D01*
X0090448Y0304895D01*
X0090836Y0303958D01*
X0091453Y0303153D01*
X0092258Y0302536D01*
X0093195Y0302148D01*
X0094200Y0302016D01*
X0095205Y0302148D01*
X0096142Y0302536D01*
X0096947Y0303153D01*
X0097564Y0303958D01*
X0097952Y0304895D01*
X0098084Y0305900D01*
X0097952Y0306905D01*
X0097564Y0307842D01*
X0096947Y0308647D01*
X0096142Y0309264D01*
X0095205Y0309652D01*
X0094200Y0309784D01*
D02*
G37*
G36*
X0104200Y0299784D02*
X0103195Y0299652D01*
X0102258Y0299264D01*
X0101453Y0298647D01*
X0100836Y0297842D01*
X0100448Y0296905D01*
X0100316Y0295900D01*
X0100448Y0294895D01*
X0100836Y0293958D01*
X0101453Y0293153D01*
X0102258Y0292536D01*
X0103195Y0292148D01*
X0104200Y0292016D01*
X0105205Y0292148D01*
X0106142Y0292536D01*
X0106947Y0293153D01*
X0107564Y0293958D01*
X0107952Y0294895D01*
X0108084Y0295900D01*
X0107952Y0296905D01*
X0107564Y0297842D01*
X0106947Y0298647D01*
X0106142Y0299264D01*
X0105205Y0299652D01*
X0104200Y0299784D01*
D02*
G37*
G36*
X0094200D02*
X0093195Y0299652D01*
X0092258Y0299264D01*
X0091453Y0298647D01*
X0090836Y0297842D01*
X0090448Y0296905D01*
X0090316Y0295900D01*
X0090448Y0294895D01*
X0090836Y0293958D01*
X0091453Y0293153D01*
X0092258Y0292536D01*
X0093195Y0292148D01*
X0094200Y0292016D01*
X0095205Y0292148D01*
X0096142Y0292536D01*
X0096947Y0293153D01*
X0097564Y0293958D01*
X0097952Y0294895D01*
X0098084Y0295900D01*
X0097952Y0296905D01*
X0097564Y0297842D01*
X0096947Y0298647D01*
X0096142Y0299264D01*
X0095205Y0299652D01*
X0094200Y0299784D01*
D02*
G37*
G36*
X0104200Y0289784D02*
X0103195Y0289652D01*
X0102258Y0289264D01*
X0101453Y0288647D01*
X0100836Y0287842D01*
X0100448Y0286905D01*
X0100316Y0285900D01*
X0100448Y0284895D01*
X0100836Y0283958D01*
X0101453Y0283153D01*
X0102258Y0282536D01*
X0103195Y0282148D01*
X0104200Y0282016D01*
X0105205Y0282148D01*
X0106142Y0282536D01*
X0106947Y0283153D01*
X0107564Y0283958D01*
X0107952Y0284895D01*
X0108084Y0285900D01*
X0107952Y0286905D01*
X0107564Y0287842D01*
X0106947Y0288647D01*
X0106142Y0289264D01*
X0105205Y0289652D01*
X0104200Y0289784D01*
D02*
G37*
G36*
X0094200D02*
X0093195Y0289652D01*
X0092258Y0289264D01*
X0091453Y0288647D01*
X0090836Y0287842D01*
X0090448Y0286905D01*
X0090316Y0285900D01*
X0090448Y0284895D01*
X0090836Y0283958D01*
X0091453Y0283153D01*
X0092258Y0282536D01*
X0093195Y0282148D01*
X0094200Y0282016D01*
X0095205Y0282148D01*
X0096142Y0282536D01*
X0096947Y0283153D01*
X0097564Y0283958D01*
X0097952Y0284895D01*
X0098084Y0285900D01*
X0097952Y0286905D01*
X0097564Y0287842D01*
X0096947Y0288647D01*
X0096142Y0289264D01*
X0095205Y0289652D01*
X0094200Y0289784D01*
D02*
G37*
G36*
X0104200Y0279784D02*
X0103195Y0279652D01*
X0102258Y0279264D01*
X0101453Y0278647D01*
X0100836Y0277842D01*
X0100448Y0276905D01*
X0100316Y0275900D01*
X0100448Y0274895D01*
X0100836Y0273958D01*
X0101453Y0273153D01*
X0102258Y0272536D01*
X0103195Y0272148D01*
X0104200Y0272016D01*
X0105205Y0272148D01*
X0106142Y0272536D01*
X0106947Y0273153D01*
X0107564Y0273958D01*
X0107952Y0274895D01*
X0108084Y0275900D01*
X0107952Y0276905D01*
X0107564Y0277842D01*
X0106947Y0278647D01*
X0106142Y0279264D01*
X0105205Y0279652D01*
X0104200Y0279784D01*
D02*
G37*
G36*
X0094200D02*
X0093195Y0279652D01*
X0092258Y0279264D01*
X0091453Y0278647D01*
X0090836Y0277842D01*
X0090448Y0276905D01*
X0090316Y0275900D01*
X0090448Y0274895D01*
X0090836Y0273958D01*
X0091453Y0273153D01*
X0092258Y0272536D01*
X0093195Y0272148D01*
X0094200Y0272016D01*
X0095205Y0272148D01*
X0096142Y0272536D01*
X0096947Y0273153D01*
X0097564Y0273958D01*
X0097952Y0274895D01*
X0098084Y0275900D01*
X0097952Y0276905D01*
X0097564Y0277842D01*
X0096947Y0278647D01*
X0096142Y0279264D01*
X0095205Y0279652D01*
X0094200Y0279784D01*
D02*
G37*
G36*
X0104200Y0269784D02*
X0103195Y0269652D01*
X0102258Y0269264D01*
X0101453Y0268647D01*
X0100836Y0267842D01*
X0100448Y0266905D01*
X0100316Y0265900D01*
X0100448Y0264895D01*
X0100836Y0263958D01*
X0101453Y0263153D01*
X0102258Y0262536D01*
X0103195Y0262148D01*
X0104200Y0262016D01*
X0105205Y0262148D01*
X0106142Y0262536D01*
X0106947Y0263153D01*
X0107564Y0263958D01*
X0107952Y0264895D01*
X0108084Y0265900D01*
X0107952Y0266905D01*
X0107564Y0267842D01*
X0106947Y0268647D01*
X0106142Y0269264D01*
X0105205Y0269652D01*
X0104200Y0269784D01*
D02*
G37*
G36*
X0094200D02*
X0093195Y0269652D01*
X0092258Y0269264D01*
X0091453Y0268647D01*
X0090836Y0267842D01*
X0090448Y0266905D01*
X0090316Y0265900D01*
X0090448Y0264895D01*
X0090836Y0263958D01*
X0091453Y0263153D01*
X0092258Y0262536D01*
X0093195Y0262148D01*
X0094200Y0262016D01*
X0095205Y0262148D01*
X0096142Y0262536D01*
X0096947Y0263153D01*
X0097564Y0263958D01*
X0097952Y0264895D01*
X0098084Y0265900D01*
X0097952Y0266905D01*
X0097564Y0267842D01*
X0096947Y0268647D01*
X0096142Y0269264D01*
X0095205Y0269652D01*
X0094200Y0269784D01*
D02*
G37*
G36*
X0104200Y0259784D02*
X0103195Y0259652D01*
X0102258Y0259264D01*
X0101453Y0258647D01*
X0100836Y0257842D01*
X0100448Y0256905D01*
X0100316Y0255900D01*
X0100448Y0254895D01*
X0100836Y0253958D01*
X0101453Y0253153D01*
X0102258Y0252536D01*
X0103195Y0252148D01*
X0104200Y0252016D01*
X0105205Y0252148D01*
X0106142Y0252536D01*
X0106947Y0253153D01*
X0107564Y0253958D01*
X0107952Y0254895D01*
X0108084Y0255900D01*
X0107952Y0256905D01*
X0107564Y0257842D01*
X0106947Y0258647D01*
X0106142Y0259264D01*
X0105205Y0259652D01*
X0104200Y0259784D01*
D02*
G37*
G36*
X0094200D02*
X0093195Y0259652D01*
X0092258Y0259264D01*
X0091453Y0258647D01*
X0090836Y0257842D01*
X0090448Y0256905D01*
X0090316Y0255900D01*
X0090448Y0254895D01*
X0090836Y0253958D01*
X0091453Y0253153D01*
X0092258Y0252536D01*
X0093195Y0252148D01*
X0094200Y0252016D01*
X0095205Y0252148D01*
X0096142Y0252536D01*
X0096947Y0253153D01*
X0097564Y0253958D01*
X0097952Y0254895D01*
X0098084Y0255900D01*
X0097952Y0256905D01*
X0097564Y0257842D01*
X0096947Y0258647D01*
X0096142Y0259264D01*
X0095205Y0259652D01*
X0094200Y0259784D01*
D02*
G37*
G36*
Y0249784D02*
X0093195Y0249652D01*
X0092258Y0249264D01*
X0091453Y0248647D01*
X0090836Y0247842D01*
X0090448Y0246905D01*
X0090316Y0245900D01*
X0090448Y0244895D01*
X0090836Y0243958D01*
X0091453Y0243153D01*
X0092258Y0242536D01*
X0093195Y0242148D01*
X0094200Y0242016D01*
X0095205Y0242148D01*
X0096142Y0242536D01*
X0096947Y0243153D01*
X0097564Y0243958D01*
X0097952Y0244895D01*
X0098084Y0245900D01*
X0097952Y0246905D01*
X0097564Y0247842D01*
X0096947Y0248647D01*
X0096142Y0249264D01*
X0095205Y0249652D01*
X0094200Y0249784D01*
D02*
G37*
G36*
X0196117Y0204900D02*
X0195436D01*
Y0203825D01*
X0196117D01*
Y0204900D01*
D02*
G37*
G36*
X0193436D02*
X0192755D01*
Y0203825D01*
X0193436D01*
Y0204900D01*
D02*
G37*
G36*
X0201121Y0204900D02*
X0200440D01*
Y0203825D01*
X0201121D01*
Y0204900D01*
D02*
G37*
G36*
X0198440D02*
X0197759D01*
Y0203825D01*
X0198440D01*
Y0204900D01*
D02*
G37*
G36*
X0214995Y0206337D02*
X0214254Y0206190D01*
X0213626Y0205770D01*
X0213206Y0205141D01*
X0213058Y0204400D01*
X0213206Y0203659D01*
X0213626Y0203030D01*
X0214254Y0202610D01*
X0214995Y0202463D01*
X0215737Y0202610D01*
X0216365Y0203030D01*
X0216785Y0203659D01*
X0216933Y0204400D01*
X0216785Y0205141D01*
X0216365Y0205770D01*
X0215737Y0206190D01*
X0214995Y0206337D01*
D02*
G37*
G36*
X0201429Y0200818D02*
Y0199786D01*
X0202461D01*
X0202436Y0199910D01*
X0202082Y0200439D01*
X0201553Y0200793D01*
X0201429Y0200818D01*
D02*
G37*
G36*
X0200429D02*
X0200305Y0200793D01*
X0199775Y0200439D01*
X0199422Y0199910D01*
X0199397Y0199786D01*
X0200429D01*
Y0200818D01*
D02*
G37*
G36*
X0202461Y0198786D02*
X0201429D01*
Y0197754D01*
X0201553Y0197779D01*
X0202082Y0198132D01*
X0202436Y0198661D01*
X0202461Y0198786D01*
D02*
G37*
G36*
X0200429D02*
X0199397D01*
X0199422Y0198661D01*
X0199775Y0198132D01*
X0200305Y0197779D01*
X0200429Y0197754D01*
Y0198786D01*
D02*
G37*
G36*
X0167700Y0201223D02*
X0166959Y0201076D01*
X0166330Y0200656D01*
X0165910Y0200027D01*
X0165763Y0199286D01*
X0165910Y0198545D01*
X0166330Y0197916D01*
X0166959Y0197496D01*
X0167700Y0197349D01*
X0168441Y0197496D01*
X0169070Y0197916D01*
X0169490Y0198545D01*
X0169637Y0199286D01*
X0169490Y0200027D01*
X0169070Y0200656D01*
X0168441Y0201076D01*
X0167700Y0201223D01*
D02*
G37*
G36*
X0094200Y0199983D02*
X0093143Y0199844D01*
X0092159Y0199436D01*
X0091313Y0198787D01*
X0090664Y0197942D01*
X0090256Y0196957D01*
X0090117Y0195900D01*
X0090256Y0194843D01*
X0090664Y0193859D01*
X0091313Y0193013D01*
X0092159Y0192364D01*
X0093143Y0191956D01*
X0094200Y0191817D01*
X0095257Y0191956D01*
X0096241Y0192364D01*
X0097087Y0193013D01*
X0097736Y0193859D01*
X0098144Y0194843D01*
X0098283Y0195900D01*
X0098144Y0196957D01*
X0097736Y0197942D01*
X0097087Y0198787D01*
X0096241Y0199436D01*
X0095257Y0199844D01*
X0094200Y0199983D01*
D02*
G37*
G36*
X0197487Y0188309D02*
X0196746Y0188161D01*
X0196118Y0187741D01*
X0195698Y0187113D01*
X0195550Y0186371D01*
X0195698Y0185630D01*
X0196118Y0185002D01*
X0196746Y0184582D01*
X0197487Y0184434D01*
X0198229Y0184582D01*
X0198857Y0185002D01*
X0199277Y0185630D01*
X0199425Y0186371D01*
X0199277Y0187113D01*
X0198857Y0187741D01*
X0198229Y0188161D01*
X0197487Y0188309D01*
D02*
G37*
G36*
X0208487Y0188221D02*
X0207746Y0188074D01*
X0207118Y0187654D01*
X0206698Y0187025D01*
X0206550Y0186284D01*
X0206698Y0185543D01*
X0207118Y0184914D01*
X0207746Y0184494D01*
X0208487Y0184347D01*
X0209229Y0184494D01*
X0209857Y0184914D01*
X0210277Y0185543D01*
X0210425Y0186284D01*
X0210277Y0187025D01*
X0209857Y0187654D01*
X0209229Y0188074D01*
X0208487Y0188221D01*
D02*
G37*
G36*
X0137562Y0188107D02*
X0136821Y0187959D01*
X0136192Y0187539D01*
X0135773Y0186911D01*
X0135625Y0186169D01*
X0135773Y0185428D01*
X0136192Y0184800D01*
X0136821Y0184380D01*
X0137562Y0184232D01*
X0138303Y0184380D01*
X0138932Y0184800D01*
X0139352Y0185428D01*
X0139499Y0186169D01*
X0139352Y0186911D01*
X0138932Y0187539D01*
X0138303Y0187959D01*
X0137562Y0188107D01*
D02*
G37*
G36*
X0148562Y0188095D02*
X0147821Y0187947D01*
X0147192Y0187527D01*
X0146773Y0186899D01*
X0146625Y0186158D01*
X0146773Y0185416D01*
X0147192Y0184788D01*
X0147821Y0184368D01*
X0148562Y0184220D01*
X0149303Y0184368D01*
X0149932Y0184788D01*
X0150352Y0185416D01*
X0150499Y0186158D01*
X0150352Y0186899D01*
X0149932Y0187527D01*
X0149303Y0187947D01*
X0148562Y0188095D01*
D02*
G37*
G36*
X0170979Y0184733D02*
Y0182900D01*
X0172812D01*
X0172600Y0183413D01*
X0172119Y0184040D01*
X0171493Y0184520D01*
X0170979Y0184733D01*
D02*
G37*
G36*
X0168980D02*
X0168467Y0184520D01*
X0167840Y0184040D01*
X0167359Y0183413D01*
X0167147Y0182900D01*
X0168980D01*
Y0184733D01*
D02*
G37*
G36*
X0094200Y0189983D02*
X0093143Y0189844D01*
X0092159Y0189436D01*
X0091313Y0188787D01*
X0090664Y0187942D01*
X0090256Y0186957D01*
X0090117Y0185900D01*
X0090256Y0184843D01*
X0090664Y0183859D01*
X0091313Y0183013D01*
X0092159Y0182364D01*
X0093143Y0181956D01*
X0094200Y0181817D01*
X0095257Y0181956D01*
X0096241Y0182364D01*
X0097087Y0183013D01*
X0097736Y0183859D01*
X0098144Y0184843D01*
X0098283Y0185900D01*
X0098144Y0186957D01*
X0097736Y0187942D01*
X0097087Y0188787D01*
X0096241Y0189436D01*
X0095257Y0189844D01*
X0094200Y0189983D01*
D02*
G37*
G36*
X0162700Y0185337D02*
X0161959Y0185190D01*
X0161330Y0184770D01*
X0160910Y0184141D01*
X0160763Y0183400D01*
X0160910Y0182659D01*
X0161330Y0182030D01*
X0161959Y0181610D01*
X0162700Y0181463D01*
X0163441Y0181610D01*
X0164070Y0182030D01*
X0164490Y0182659D01*
X0164637Y0183400D01*
X0164490Y0184141D01*
X0164070Y0184770D01*
X0163441Y0185190D01*
X0162700Y0185337D01*
D02*
G37*
G36*
X0172812Y0180900D02*
X0170979D01*
Y0179067D01*
X0171493Y0179279D01*
X0172119Y0179760D01*
X0172600Y0180387D01*
X0172812Y0180900D01*
D02*
G37*
G36*
X0168980D02*
X0167147D01*
X0167359Y0180387D01*
X0167840Y0179760D01*
X0168467Y0179279D01*
X0168980Y0179067D01*
Y0180900D01*
D02*
G37*
G36*
X0097948Y0179648D02*
X0095200D01*
Y0176900D01*
X0097948D01*
Y0179648D01*
D02*
G37*
G36*
X0093200D02*
X0090452D01*
Y0176900D01*
X0093200D01*
Y0179648D01*
D02*
G37*
G36*
X0160062Y0177668D02*
Y0176636D01*
X0161094D01*
X0161069Y0176761D01*
X0160716Y0177290D01*
X0160187Y0177644D01*
X0160062Y0177668D01*
D02*
G37*
G36*
X0159062D02*
X0158938Y0177644D01*
X0158409Y0177290D01*
X0158055Y0176761D01*
X0158030Y0176636D01*
X0159062D01*
Y0177668D01*
D02*
G37*
G36*
X0149062Y0177542D02*
Y0176510D01*
X0150094D01*
X0150069Y0176635D01*
X0149716Y0177164D01*
X0149187Y0177517D01*
X0149062Y0177542D01*
D02*
G37*
G36*
X0148062D02*
X0147938Y0177517D01*
X0147409Y0177164D01*
X0147055Y0176635D01*
X0147030Y0176510D01*
X0148062D01*
Y0177542D01*
D02*
G37*
G36*
X0208987Y0177530D02*
Y0176498D01*
X0210019D01*
X0209995Y0176623D01*
X0209641Y0177152D01*
X0209112Y0177506D01*
X0208987Y0177530D01*
D02*
G37*
G36*
X0207987D02*
X0207863Y0177506D01*
X0207334Y0177152D01*
X0206980Y0176623D01*
X0206956Y0176498D01*
X0207987D01*
Y0177530D01*
D02*
G37*
G36*
X0138062D02*
Y0176498D01*
X0139094D01*
X0139069Y0176623D01*
X0138716Y0177152D01*
X0138187Y0177506D01*
X0138062Y0177530D01*
D02*
G37*
G36*
X0137062D02*
X0136938Y0177506D01*
X0136409Y0177152D01*
X0136055Y0176623D01*
X0136030Y0176498D01*
X0137062D01*
Y0177530D01*
D02*
G37*
G36*
X0219700Y0177432D02*
X0219576Y0177407D01*
X0219046Y0177053D01*
X0218693Y0176524D01*
X0218668Y0176400D01*
X0219700D01*
Y0177432D01*
D02*
G37*
G36*
X0198775D02*
Y0176400D01*
X0199807D01*
X0199782Y0176524D01*
X0199428Y0177053D01*
X0198899Y0177407D01*
X0198775Y0177432D01*
D02*
G37*
G36*
X0197775D02*
X0197651Y0177407D01*
X0197121Y0177053D01*
X0196768Y0176524D01*
X0196743Y0176400D01*
X0197775D01*
Y0177432D01*
D02*
G37*
G36*
X0161094Y0175636D02*
X0160062D01*
Y0174604D01*
X0160187Y0174629D01*
X0160716Y0174983D01*
X0161069Y0175512D01*
X0161094Y0175636D01*
D02*
G37*
G36*
X0159062D02*
X0158030D01*
X0158055Y0175512D01*
X0158409Y0174983D01*
X0158938Y0174629D01*
X0159062Y0174604D01*
Y0175636D01*
D02*
G37*
G36*
X0150094Y0175510D02*
X0149062D01*
Y0174478D01*
X0149187Y0174503D01*
X0149716Y0174857D01*
X0150069Y0175386D01*
X0150094Y0175510D01*
D02*
G37*
G36*
X0148062D02*
X0147030D01*
X0147055Y0175386D01*
X0147409Y0174857D01*
X0147938Y0174503D01*
X0148062Y0174478D01*
Y0175510D01*
D02*
G37*
G36*
X0210019Y0175498D02*
X0208987D01*
Y0174467D01*
X0209112Y0174491D01*
X0209641Y0174845D01*
X0209995Y0175374D01*
X0210019Y0175498D01*
D02*
G37*
G36*
X0207987D02*
X0206956D01*
X0206980Y0175374D01*
X0207334Y0174845D01*
X0207863Y0174491D01*
X0207987Y0174467D01*
Y0175498D01*
D02*
G37*
G36*
X0139094D02*
X0138062D01*
Y0174467D01*
X0138187Y0174491D01*
X0138716Y0174845D01*
X0139069Y0175374D01*
X0139094Y0175498D01*
D02*
G37*
G36*
X0137062D02*
X0136030D01*
X0136055Y0175374D01*
X0136409Y0174845D01*
X0136938Y0174491D01*
X0137062Y0174467D01*
Y0175498D01*
D02*
G37*
G36*
X0219700Y0175400D02*
X0218668D01*
X0218693Y0175276D01*
X0219046Y0174747D01*
X0219576Y0174393D01*
X0219700Y0174368D01*
Y0175400D01*
D02*
G37*
G36*
X0199807D02*
X0198775D01*
Y0174368D01*
X0198899Y0174393D01*
X0199428Y0174747D01*
X0199782Y0175276D01*
X0199807Y0175400D01*
D02*
G37*
G36*
X0197775D02*
X0196743D01*
X0196768Y0175276D01*
X0197121Y0174747D01*
X0197651Y0174393D01*
X0197775Y0174368D01*
Y0175400D01*
D02*
G37*
G36*
X0097948Y0174900D02*
X0095200D01*
Y0172152D01*
X0097948D01*
Y0174900D01*
D02*
G37*
G36*
X0093200D02*
X0090452D01*
Y0172152D01*
X0093200D01*
Y0174900D01*
D02*
G37*
G36*
X0125200Y0167043D02*
Y0164400D01*
X0127843D01*
X0127474Y0165290D01*
X0126873Y0166073D01*
X0126090Y0166674D01*
X0125200Y0167043D01*
D02*
G37*
G36*
X0185200D02*
Y0164400D01*
X0187843D01*
X0187474Y0165290D01*
X0186873Y0166073D01*
X0186090Y0166674D01*
X0185200Y0167043D01*
D02*
G37*
G36*
X0123200D02*
X0122310Y0166674D01*
X0121527Y0166073D01*
X0120926Y0165290D01*
X0120557Y0164400D01*
X0123200D01*
Y0167043D01*
D02*
G37*
G36*
X0183200D02*
X0182310Y0166674D01*
X0181527Y0166073D01*
X0180926Y0165290D01*
X0180557Y0164400D01*
X0183200D01*
Y0167043D01*
D02*
G37*
G36*
X0187843Y0162400D02*
X0185200D01*
Y0159757D01*
X0186090Y0160126D01*
X0186873Y0160727D01*
X0187474Y0161510D01*
X0187843Y0162400D01*
D02*
G37*
G36*
X0127843D02*
X0125200D01*
Y0159757D01*
X0126090Y0160126D01*
X0126873Y0160727D01*
X0127474Y0161510D01*
X0127843Y0162400D01*
D02*
G37*
G36*
X0123200D02*
X0120557D01*
X0120926Y0161510D01*
X0121527Y0160727D01*
X0122310Y0160126D01*
X0123200Y0159757D01*
Y0162400D01*
D02*
G37*
G36*
X0183200D02*
X0180557D01*
X0180926Y0161510D01*
X0181527Y0160727D01*
X0182310Y0160126D01*
X0183200Y0159757D01*
Y0162400D01*
D02*
G37*
G36*
X0217253Y0167568D02*
X0211147D01*
X0210759Y0167490D01*
X0210430Y0167270D01*
X0210210Y0166941D01*
X0210133Y0166553D01*
Y0160447D01*
X0210210Y0160059D01*
X0210430Y0159730D01*
X0210759Y0159510D01*
X0211147Y0159432D01*
X0217253D01*
X0217641Y0159510D01*
X0217970Y0159730D01*
X0218190Y0160059D01*
X0218267Y0160447D01*
Y0166553D01*
X0218190Y0166941D01*
X0217970Y0167270D01*
X0217641Y0167490D01*
X0217253Y0167568D01*
D02*
G37*
G36*
X0157253D02*
X0151147D01*
X0150759Y0167490D01*
X0150430Y0167270D01*
X0150210Y0166941D01*
X0150133Y0166553D01*
Y0160447D01*
X0150210Y0160059D01*
X0150430Y0159730D01*
X0150759Y0159510D01*
X0151147Y0159432D01*
X0157253D01*
X0157641Y0159510D01*
X0157970Y0159730D01*
X0158190Y0160059D01*
X0158267Y0160447D01*
Y0166553D01*
X0158190Y0166941D01*
X0157970Y0167270D01*
X0157641Y0167490D01*
X0157253Y0167568D01*
D02*
G37*
G36*
X0204200Y0167483D02*
X0203143Y0167344D01*
X0202158Y0166936D01*
X0201313Y0166287D01*
X0200664Y0165442D01*
X0200256Y0164457D01*
X0200117Y0163400D01*
X0200256Y0162343D01*
X0200664Y0161358D01*
X0201313Y0160513D01*
X0202158Y0159864D01*
X0203143Y0159456D01*
X0204200Y0159317D01*
X0205257Y0159456D01*
X0206241Y0159864D01*
X0207087Y0160513D01*
X0207736Y0161358D01*
X0208144Y0162343D01*
X0208283Y0163400D01*
X0208144Y0164457D01*
X0207736Y0165442D01*
X0207087Y0166287D01*
X0206241Y0166936D01*
X0205257Y0167344D01*
X0204200Y0167483D01*
D02*
G37*
G36*
X0194200D02*
X0193143Y0167344D01*
X0192158Y0166936D01*
X0191313Y0166287D01*
X0190664Y0165442D01*
X0190256Y0164457D01*
X0190117Y0163400D01*
X0190256Y0162343D01*
X0190664Y0161358D01*
X0191313Y0160513D01*
X0192158Y0159864D01*
X0193143Y0159456D01*
X0194200Y0159317D01*
X0195257Y0159456D01*
X0196241Y0159864D01*
X0197087Y0160513D01*
X0197736Y0161358D01*
X0198144Y0162343D01*
X0198283Y0163400D01*
X0198144Y0164457D01*
X0197736Y0165442D01*
X0197087Y0166287D01*
X0196241Y0166936D01*
X0195257Y0167344D01*
X0194200Y0167483D01*
D02*
G37*
G36*
X0174200D02*
X0173143Y0167344D01*
X0172159Y0166936D01*
X0171313Y0166287D01*
X0170664Y0165442D01*
X0170256Y0164457D01*
X0170117Y0163400D01*
X0170256Y0162343D01*
X0170664Y0161358D01*
X0171313Y0160513D01*
X0172159Y0159864D01*
X0173143Y0159456D01*
X0174200Y0159317D01*
X0175257Y0159456D01*
X0176242Y0159864D01*
X0177087Y0160513D01*
X0177736Y0161358D01*
X0178144Y0162343D01*
X0178283Y0163400D01*
X0178144Y0164457D01*
X0177736Y0165442D01*
X0177087Y0166287D01*
X0176242Y0166936D01*
X0175257Y0167344D01*
X0174200Y0167483D01*
D02*
G37*
G36*
X0144200D02*
X0143143Y0167344D01*
X0142158Y0166936D01*
X0141313Y0166287D01*
X0140664Y0165442D01*
X0140256Y0164457D01*
X0140117Y0163400D01*
X0140256Y0162343D01*
X0140664Y0161358D01*
X0141313Y0160513D01*
X0142158Y0159864D01*
X0143143Y0159456D01*
X0144200Y0159317D01*
X0145257Y0159456D01*
X0146241Y0159864D01*
X0147087Y0160513D01*
X0147736Y0161358D01*
X0148144Y0162343D01*
X0148283Y0163400D01*
X0148144Y0164457D01*
X0147736Y0165442D01*
X0147087Y0166287D01*
X0146241Y0166936D01*
X0145257Y0167344D01*
X0144200Y0167483D01*
D02*
G37*
G36*
X0134200D02*
X0133143Y0167344D01*
X0132159Y0166936D01*
X0131313Y0166287D01*
X0130664Y0165442D01*
X0130256Y0164457D01*
X0130117Y0163400D01*
X0130256Y0162343D01*
X0130664Y0161358D01*
X0131313Y0160513D01*
X0132159Y0159864D01*
X0133143Y0159456D01*
X0134200Y0159317D01*
X0135257Y0159456D01*
X0136241Y0159864D01*
X0137087Y0160513D01*
X0137736Y0161358D01*
X0138144Y0162343D01*
X0138283Y0163400D01*
X0138144Y0164457D01*
X0137736Y0165442D01*
X0137087Y0166287D01*
X0136241Y0166936D01*
X0135257Y0167344D01*
X0134200Y0167483D01*
D02*
G37*
G36*
X0114200D02*
X0113143Y0167344D01*
X0112159Y0166936D01*
X0111313Y0166287D01*
X0110664Y0165442D01*
X0110256Y0164457D01*
X0110117Y0163400D01*
X0110256Y0162343D01*
X0110664Y0161358D01*
X0111313Y0160513D01*
X0112159Y0159864D01*
X0113143Y0159456D01*
X0114200Y0159317D01*
X0115257Y0159456D01*
X0116242Y0159864D01*
X0117087Y0160513D01*
X0117736Y0161358D01*
X0118144Y0162343D01*
X0118283Y0163400D01*
X0118144Y0164457D01*
X0117736Y0165442D01*
X0117087Y0166287D01*
X0116242Y0166936D01*
X0115257Y0167344D01*
X0114200Y0167483D01*
D02*
G37*
%LPD*%
G54D13*
X0145700Y0382550D02*
Y0384888D01*
Y0382550D02*
X0147700Y0380550D01*
X0148850Y0379400D01*
X0154700D01*
X0121700Y0361312D02*
Y0361900D01*
X0124200Y0364400D02*
Y0364400D01*
X0121700Y0361900D02*
X0124200Y0364400D01*
X0119200Y0354150D02*
X0119262D01*
X0121700Y0356588D01*
X0162547Y0379400D02*
X0165700Y0382554D01*
Y0383858D01*
X0204385Y0460923D02*
Y0462215D01*
X0202224Y0458762D02*
X0204385Y0460923D01*
X0185700Y0214895D02*
X0187327D01*
X0189338Y0216905D01*
X0169700Y0392793D02*
Y0394565D01*
X0216562Y0459900D02*
X0218960D01*
X0215700Y0459038D02*
X0216562Y0459900D01*
X0205281Y0401900D02*
X0210610Y0396570D01*
X0199535Y0424400D02*
X0204865Y0429730D01*
X0211370Y0395730D02*
X0213700Y0393400D01*
X0211370Y0395730D02*
Y0396570D01*
X0161796Y0387100D02*
Y0391570D01*
X0168637Y0391730D02*
X0169700Y0392793D01*
X0165296Y0395070D02*
X0165370D01*
X0167200Y0396900D01*
X0165700Y0383858D02*
Y0387667D01*
X0165137Y0388230D02*
X0165700Y0387667D01*
X0167137Y0409570D02*
X0169467Y0411900D01*
X0162427Y0401211D02*
X0165467Y0404251D01*
X0205870Y0429730D02*
X0208041Y0431900D01*
X0202530Y0433070D02*
X0203295D01*
X0205125Y0434900D01*
X0164859Y0432400D02*
X0165030Y0432230D01*
X0160746Y0432400D02*
X0164859D01*
X0157973Y0435173D02*
X0160746Y0432400D01*
X0162427Y0439186D02*
Y0439627D01*
Y0439186D02*
X0165030Y0436583D01*
X0173473Y0423173D02*
X0176169Y0420477D01*
X0171429Y0425217D02*
Y0427400D01*
Y0425217D02*
X0173473Y0423173D01*
X0174200Y0430197D02*
X0175357D01*
X0177927Y0427627D01*
X0165030Y0432230D02*
X0168530Y0428730D01*
X0169859Y0427400D01*
X0171429D01*
X0167358Y0436583D02*
X0168370Y0435570D01*
X0165030Y0436583D02*
X0167358D01*
X0171870Y0432070D02*
X0172326D01*
X0174200Y0430197D01*
X0204865Y0429730D02*
X0205870D01*
X0199030Y0429462D02*
Y0429570D01*
X0196967Y0427400D02*
X0199030Y0429462D01*
X0210610Y0396570D02*
X0211370D01*
X0203215Y0397900D02*
X0204385Y0396730D01*
X0200929Y0397900D02*
X0203215D01*
X0208030Y0393230D02*
X0208383D01*
X0210700Y0390913D01*
X0559400Y0039400D02*
Y0059683D01*
X0440500Y0040050D02*
X0700200D01*
Y0101050D01*
X0286500Y0040050D02*
Y0101050D01*
X0040000Y0040050D02*
Y0101050D01*
X0040050Y0040050D02*
X0197600D01*
X0040050D02*
Y0101050D01*
X0700200D01*
X0040000Y0040050D02*
X0440500D01*
X0040000Y0060383D02*
X0700000D01*
X0040000Y0080717D02*
X0700200D01*
X0413200D02*
Y0101050D01*
X0497200Y0080717D02*
Y0101050D01*
G54D15*
X0180934Y0353666D02*
G03*
X0181200Y0353400I0000266J0000000D01*
G01*
X0180934Y0353700D02*
G03*
X0180484Y0354150I-0000450J0000000D01*
G01*
X0179884D02*
G03*
X0179434Y0353700I0000000J-0000450D01*
G01*
X0178984Y0348150D02*
G03*
X0179434Y0348600I0000000J0000450D01*
G01*
X0177934D02*
G03*
X0178384Y0348150I0000450J0000000D01*
G01*
X0177934Y0353700D02*
G03*
X0177484Y0354150I-0000450J0000000D01*
G01*
X0176884D02*
G03*
X0176434Y0353700I0000000J-0000450D01*
G01*
X0175984Y0348150D02*
G03*
X0176434Y0348600I0000000J0000450D01*
G01*
X0174934D02*
G03*
X0175384Y0348150I0000450J0000000D01*
G01*
X0174934Y0353700D02*
G03*
X0174484Y0354150I-0000450J0000000D01*
G01*
X0173884D02*
G03*
X0173434Y0353700I0000000J-0000450D01*
G01*
X0173134Y0353400D02*
G03*
X0173434Y0353700I0000000J0000300D01*
G01*
X0197450Y0357350D02*
G03*
X0197900Y0356900I0000450J0000000D01*
G01*
X0197450Y0360200D02*
G03*
X0197000Y0360650I-0000450J0000000D01*
G01*
X0196400D02*
G03*
X0195950Y0360200I0000000J-0000450D01*
G01*
X0195500Y0356900D02*
G03*
X0195950Y0357350I0000000J0000450D01*
G01*
X0194450D02*
G03*
X0194900Y0356900I0000450J0000000D01*
G01*
X0194450Y0360200D02*
G03*
X0194000Y0360650I-0000450J0000000D01*
G01*
X0193400D02*
G03*
X0192950Y0360200I0000000J-0000450D01*
G01*
X0192500Y0356900D02*
G03*
X0192950Y0357350I0000000J0000450D01*
G01*
X0191450D02*
G03*
X0191900Y0356900I0000450J0000000D01*
G01*
X0191450Y0360200D02*
G03*
X0191000Y0360650I-0000450J0000000D01*
G01*
X0190400D02*
G03*
X0189950Y0360200I0000000J-0000450D01*
G01*
X0189500Y0356900D02*
G03*
X0189950Y0357350I0000000J0000450D01*
G01*
X0182700Y0545550D02*
X0196376D01*
X0195376Y0554900D02*
X0201258D01*
X0189122Y0548647D02*
X0195376Y0554900D01*
X0183161Y0548647D02*
X0189122D01*
X0182700Y0549108D02*
X0183161Y0548647D01*
X0211510Y0383748D02*
X0215512Y0387750D01*
X0281550D02*
X0283200Y0389400D01*
X0215512Y0387750D02*
X0281550D01*
X0221200Y0393400D02*
X0250413D01*
X0231862Y0403900D02*
X0255700D01*
X0228743Y0400781D02*
X0231862Y0403900D01*
X0225621Y0398400D02*
X0244200D01*
X0229200Y0406900D02*
X0253200D01*
X0229200Y0410900D02*
X0278050D01*
X0279050Y0411900D01*
X0226200Y0412900D02*
X0274200D01*
X0225984Y0417400D02*
X0246700D01*
X0226200Y0408900D02*
X0251700D01*
X0246700Y0417400D02*
X0249700D01*
X0182200Y0398971D02*
X0195200D01*
X0182200Y0395900D02*
X0192700D01*
X0121700Y0446400D02*
X0124736Y0449436D01*
X0209164D02*
X0210700Y0447900D01*
X0124736Y0449436D02*
X0209164D01*
X0181700Y0447900D02*
X0201763D01*
X0179700Y0445900D02*
X0181700Y0447900D01*
X0201763D02*
X0203763Y0445900D01*
X0263700D01*
X0180001Y0383748D02*
X0211510D01*
X0215309Y0383324D02*
X0215331D01*
X0215755Y0382900D02*
X0270200D01*
X0215331Y0383324D02*
X0215755Y0382900D01*
X0178700Y0385050D02*
X0178700D01*
X0180001Y0383748D01*
X0208200Y0324900D02*
X0259200D01*
X0206200Y0322900D02*
X0208200Y0324900D01*
X0250184Y0258400D02*
X0261700D01*
X0264200Y0255900D01*
X0252700Y0269400D02*
X0260700D01*
X0264200Y0265900D01*
X0181200Y0353400D02*
X0183001D01*
X0183501Y0352900D02*
X0237700D01*
X0183001Y0353400D02*
X0183501Y0352900D01*
X0180934Y0353666D02*
Y0353700D01*
X0179884Y0354150D02*
X0180484D01*
X0179434Y0353400D02*
Y0353700D01*
Y0348600D02*
Y0353400D01*
X0178384Y0348150D02*
X0178984D01*
X0177934Y0348600D02*
Y0353400D01*
Y0353700D01*
X0176884Y0354150D02*
X0177484D01*
X0176434Y0353400D02*
Y0353700D01*
Y0348600D02*
Y0353400D01*
X0175384Y0348150D02*
X0175984D01*
X0174934Y0348600D02*
Y0353400D01*
Y0353700D01*
X0173884Y0354150D02*
X0174484D01*
X0172684Y0353400D02*
X0173134D01*
X0171200D02*
X0172684D01*
X0254550Y0352900D02*
X0255700Y0354050D01*
X0237700Y0352900D02*
X0254550D01*
X0246638Y0354900D02*
X0250138Y0358400D01*
X0184200Y0354900D02*
X0246638D01*
X0227957Y0506157D02*
X0263943D01*
X0210200Y0488400D02*
X0227957Y0506157D01*
X0198200Y0488400D02*
X0210200D01*
X0195200Y0485400D02*
X0198200Y0488400D01*
X0258700Y0540900D02*
X0269200D01*
X0239200Y0521400D02*
X0258700Y0540900D01*
X0212700Y0521400D02*
X0239200D01*
X0216562Y0490900D02*
X0237700D01*
X0211062Y0485400D02*
X0216562Y0490900D01*
X0200200Y0485400D02*
X0211062D01*
X0172200Y0482900D02*
X0202224D01*
X0164200Y0490900D02*
X0172200Y0482900D01*
X0099200Y0490900D02*
X0164200D01*
X0264200Y0305900D02*
Y0324900D01*
X0261700Y0327400D02*
X0264200Y0324900D01*
X0255212Y0327400D02*
X0261700D01*
X0252700Y0329912D02*
X0255212Y0327400D01*
X0252700Y0329912D02*
Y0344750D01*
X0143710Y0331900D02*
X0191700D01*
X0208586Y0337400D02*
X0245200D01*
X0141200Y0344900D02*
X0201700D01*
X0185700Y0356900D02*
X0189200D01*
X0198275D02*
X0243550D01*
X0197900D02*
X0198275D01*
X0197450Y0357350D02*
Y0360200D01*
X0196400Y0360650D02*
X0197000D01*
X0195950Y0357350D02*
Y0360200D01*
X0194900Y0356900D02*
X0195500D01*
X0194450Y0357350D02*
Y0360200D01*
X0193400Y0360650D02*
X0194000D01*
X0192950Y0357350D02*
Y0360200D01*
X0191900Y0356900D02*
X0192500D01*
X0191450Y0357350D02*
Y0360200D01*
X0190400Y0360650D02*
X0191000D01*
X0189950Y0357350D02*
Y0360200D01*
X0189200Y0356900D02*
X0189500D01*
X0243550D02*
X0255700Y0369050D01*
X0184448Y0358152D02*
X0185700Y0356900D01*
X0169200Y0358152D02*
X0184448D01*
X0252200Y0299400D02*
X0260700D01*
X0263700Y0296400D01*
X0167700Y0355900D02*
X0178700D01*
X0166700Y0354900D02*
X0167700Y0355900D01*
X0135200Y0354900D02*
X0166700D01*
X0190700Y0455900D02*
X0190838D01*
X0114200D02*
X0190700D01*
X0130460Y0365400D02*
X0175200D01*
X0111700Y0367400D02*
X0197321D01*
X0139700Y0323858D02*
X0187241D01*
X0137659Y0325900D02*
X0139700Y0323858D01*
X0124700Y0325900D02*
X0137659D01*
X0141200Y0326400D02*
X0188200D01*
X0138700Y0328900D02*
X0141200Y0326400D01*
X0126700Y0328900D02*
X0138700D01*
X0150700Y0411900D02*
Y0414400D01*
X0136700Y0397900D02*
X0150700Y0411900D01*
X0244200Y0379900D02*
X0246050Y0378050D01*
X0249200D01*
X0244200Y0398400D02*
X0281200D01*
X0249200Y0370900D02*
Y0371750D01*
Y0370900D02*
X0249700Y0370400D01*
X0254350D01*
X0255700Y0369050D01*
X0257350D02*
X0264200Y0375900D01*
X0255700Y0369050D02*
X0257350D01*
X0191200Y0294400D02*
X0218625D01*
X0256700Y0442900D02*
X0268700Y0430900D01*
X0214700Y0442900D02*
X0256700D01*
X0209161Y0437361D02*
X0214700Y0442900D01*
X0228200Y0427400D02*
X0245700D01*
X0222200Y0423900D02*
X0224700D01*
X0228200Y0427400D01*
X0168700Y0453400D02*
X0287700D01*
X0268700Y0430900D02*
X0291700D01*
X0268700Y0440900D02*
X0289700D01*
X0263700Y0445900D02*
X0268700Y0440900D01*
X0229090Y0260900D02*
X0268200D01*
X0261200Y0470900D02*
X0285700D01*
X0258700Y0473400D02*
X0261200Y0470900D01*
X0217200Y0473400D02*
X0258700D01*
X0175200D02*
X0217200D01*
X0198700Y0315900D02*
X0247700D01*
X0198200Y0312900D02*
X0250200D01*
X0187241Y0323858D02*
X0198200Y0312900D01*
X0188200Y0326400D02*
X0198700Y0315900D01*
X0222700Y0463400D02*
X0234200D01*
X0231200Y0290400D02*
X0234200Y0293400D01*
X0164700Y0290400D02*
X0231200D01*
X0138700Y0465400D02*
X0140576Y0467276D01*
X0212324D01*
X0226700Y0480900D02*
X0269200D01*
X0229200Y0508400D02*
X0239700D01*
X0262200Y0530900D02*
X0269200D01*
X0239700Y0508400D02*
X0262200Y0530900D01*
X0110057Y0397900D02*
X0136700D01*
X0106207Y0394050D02*
X0110057Y0397900D01*
X0096200D02*
X0102356D01*
X0106207Y0394050D01*
X0094200Y0395900D02*
X0096200Y0397900D01*
X0174200Y0559100D02*
X0176427Y0556873D01*
Y0538400D02*
Y0556873D01*
X0174200Y0559100D02*
Y0575900D01*
X0186700Y0550900D02*
Y0566262D01*
X0184200Y0568762D02*
X0186700Y0566262D01*
X0184200Y0568762D02*
Y0575900D01*
X0213200Y0483400D02*
X0232700D01*
X0210700Y0480900D02*
X0213200Y0483400D01*
X0197700Y0480900D02*
X0210700D01*
X0094200Y0495900D02*
X0099200Y0490900D01*
Y0480900D02*
X0197700D01*
X0094200Y0485900D02*
X0099200Y0480900D01*
X0269200Y0540900D02*
X0274200Y0545900D01*
X0269200Y0530900D02*
X0274200Y0535900D01*
X0269200Y0480900D02*
X0274200Y0485900D01*
X0235765Y0419641D02*
X0268200D01*
X0237700Y0490900D02*
X0269200D01*
X0274200Y0495900D01*
X0239805Y0421900D02*
X0247700D01*
X0238805Y0422900D02*
X0239805Y0421900D01*
X0235805Y0425900D02*
X0238805Y0422900D01*
X0229700Y0425900D02*
X0235805D01*
X0225700Y0421900D02*
X0229700Y0425900D01*
X0219700Y0421900D02*
X0225700D01*
X0232506Y0422900D02*
X0235765Y0419641D01*
X0205912D02*
X0229247D01*
X0232506Y0422900D01*
X0253201Y0406900D02*
X0253700D01*
X0253200Y0406900D02*
X0253201Y0406900D01*
X0227850Y0384888D02*
X0257688D01*
X0263943Y0506157D02*
X0264200Y0505900D01*
X0289200Y0341250D02*
X0289850Y0341900D01*
X0289200Y0230900D02*
Y0341250D01*
X0274200Y0215900D02*
X0289200Y0230900D01*
X0283550Y0290900D02*
X0286700Y0294050D01*
X0269200Y0290900D02*
X0283550D01*
X0264200Y0285900D02*
X0269200Y0290900D01*
X0286700Y0294050D02*
Y0345750D01*
X0283200Y0349250D02*
X0286700Y0345750D01*
X0252700Y0344750D02*
X0255700Y0347750D01*
X0263700Y0296400D02*
X0264200Y0295900D01*
X0252200Y0361400D02*
X0254350D01*
X0255700Y0362750D01*
X0099200Y0240900D02*
X0255200D01*
Y0330900D02*
Y0334250D01*
X0255700Y0334750D01*
X0255850Y0341400D02*
X0259700D01*
X0264200Y0345900D01*
X0094200Y0235900D02*
X0099200Y0240900D01*
Y0470900D02*
X0241200D01*
X0173509Y0346900D02*
X0243200D01*
X0094200Y0475900D02*
X0099200Y0470900D01*
X0188200Y0253400D02*
X0220200D01*
X0190598Y0250900D02*
X0222200D01*
X0099200Y0230900D02*
X0224200D01*
X0094200Y0225900D02*
X0099200Y0230900D01*
Y0220900D02*
X0208700D01*
X0094200Y0215900D02*
X0099200Y0220900D01*
X0188039Y0253239D02*
X0188200Y0253400D01*
X0177700Y0280900D02*
X0269200D01*
X0218404Y0331400D02*
X0221904Y0334900D01*
X0269200Y0280900D02*
X0274200Y0285900D01*
X0173200Y0347209D02*
X0173509Y0346900D01*
X0160605Y0536400D02*
X0195353D01*
X0203578Y0331400D02*
X0206869Y0328109D01*
X0196779Y0331900D02*
X0197279Y0331400D01*
X0191700Y0331900D02*
X0196779D01*
X0199200Y0348900D02*
X0224200D01*
X0182200Y0350900D02*
X0269200D01*
X0218145Y0331400D02*
X0218404D01*
X0208586Y0337400D02*
X0210200Y0335786D01*
Y0333046D02*
Y0335786D01*
Y0333046D02*
X0211846Y0331400D01*
X0173650Y0308450D02*
X0212650D01*
X0279550Y0345900D02*
X0283550Y0341900D01*
X0274200Y0345900D02*
X0279550D01*
X0184200Y0354900D02*
Y0355400D01*
X0250138Y0358400D02*
X0259700D01*
X0262200Y0360900D01*
X0269200D01*
X0274200Y0355900D01*
X0274550Y0355550D01*
X0283200D01*
X0262350Y0354050D02*
X0264200Y0355900D01*
X0255700Y0354050D02*
X0262350D01*
X0269200Y0350900D02*
X0274200Y0345900D01*
X0192505Y0594205D02*
X0209200D01*
X0184200Y0585900D02*
X0192505Y0594205D01*
X0186700Y0598400D02*
X0206200D01*
X0209200Y0594205D02*
Y0600870D01*
X0207700Y0602370D02*
X0209200Y0600870D01*
X0207700Y0602370D02*
Y0604400D01*
X0174200Y0585900D02*
X0186700Y0598400D01*
X0225859Y0574900D02*
X0245200D01*
X0209200Y0591559D02*
X0225859Y0574900D01*
X0209200Y0591559D02*
Y0594205D01*
X0210460Y0601140D02*
Y0603640D01*
Y0601140D02*
X0231700Y0579900D01*
X0217200Y0598400D02*
Y0605014D01*
X0215814Y0606400D02*
X0217200Y0605014D01*
X0287200Y0656900D02*
X0289700Y0654400D01*
X0283185Y0656900D02*
X0287200D01*
X0263185Y0676900D02*
X0283185Y0656900D01*
X0248885Y0676900D02*
X0263185D01*
X0272200Y0626038D02*
X0277200D01*
X0267200D02*
X0272200D01*
X0264838D02*
X0267200D01*
X0263665Y0624865D02*
X0264838Y0626038D01*
G54D21*
X0216500Y0632900D02*
X0230500Y0646900D01*
X0215539Y0634900D02*
X0230562Y0649924D01*
X0119200Y0407900D02*
X0123050D01*
X0123200Y0407750D01*
X0221200Y0359900D02*
X0225846D01*
X0225984Y0360038D01*
X0221200Y0364400D02*
X0225621D01*
X0225984Y0364762D01*
X0272200Y0630762D02*
X0278838Y0637400D01*
X0289200D01*
X0295700Y0643900D01*
Y0662900D01*
X0291700Y0666900D02*
X0295700Y0662900D01*
X0287200Y0666900D02*
X0291700D01*
X0284700Y0669400D02*
X0287200Y0666900D01*
X0254110Y0681400D02*
X0263200D01*
X0277800Y0666800D01*
X0285623D01*
X0260700Y0678900D02*
X0263200D01*
X0282700Y0659400D01*
X0284700D01*
X0282200Y0651900D02*
X0284700Y0649400D01*
X0282200Y0651900D02*
Y0656400D01*
X0270200Y0668400D02*
X0282200Y0656400D01*
X0263700Y0668400D02*
X0270200D01*
X0285623Y0666800D02*
X0288023Y0664400D01*
X0289700D01*
X0193200Y0634900D02*
X0215539D01*
X0191700Y0632900D02*
X0216500D01*
X0189700Y0634900D02*
X0191700Y0632900D01*
X0208838Y0364762D02*
X0211417D01*
X0206869Y0366731D02*
X0208838Y0364762D01*
X0209668Y0361786D02*
X0211417Y0360038D01*
X0207700Y0361786D02*
X0209668D01*
X0262700Y0621400D02*
X0264200D01*
X0261200Y0619900D02*
X0262700Y0621400D01*
X0261200Y0619400D02*
Y0619900D01*
X0268200Y0619762D02*
Y0619900D01*
X0266700Y0621400D02*
X0268200Y0619900D01*
X0264200Y0621400D02*
X0266700D01*
X0225200Y0665900D02*
X0225338D01*
X0227838Y0663400D01*
X0251362Y0645800D02*
Y0650662D01*
Y0645162D02*
Y0645800D01*
X0252100Y0651600D02*
X0253800D01*
X0254800D01*
X0251300Y0650800D02*
X0252100Y0651600D01*
X0251362Y0650662D02*
X0251500Y0650800D01*
G54D22*
X0145700Y0372250D02*
X0147700Y0374250D01*
X0145700Y0370400D02*
Y0372250D01*
X0194436Y0651636D02*
Y0652798D01*
X0195838Y0654200D01*
X0254600Y0656400D02*
X0255200D01*
X0251600Y0656300D02*
X0254600D01*
X0251500Y0656400D02*
X0251600Y0656300D01*
X0230200Y0673400D02*
Y0676400D01*
X0202200Y0658400D02*
X0204200Y0656400D01*
X0203200Y0623400D02*
X0206838D01*
X0140200Y0358400D02*
X0161796D01*
X0142700Y0427900D02*
X0147700D01*
X0140200Y0420900D02*
X0147795D01*
X0137700Y0424305D02*
X0147890D01*
X0106207Y0384084D02*
Y0387750D01*
X0184200Y0560400D02*
Y0564038D01*
X0274200Y0659400D02*
X0279200Y0654400D01*
X0270200Y0645400D02*
Y0649400D01*
X0232562Y0664400D02*
X0235200D01*
X0226200Y0673400D02*
Y0675400D01*
X0109363Y0418900D02*
X0167200D01*
X0277200Y0630762D02*
X0279838Y0633400D01*
X0268200Y0611900D02*
Y0615038D01*
X0257700Y0613900D02*
X0260062D01*
X0261200Y0615038D01*
X0264200Y0630900D02*
X0267062D01*
X0267200Y0630762D01*
X0109700Y0674400D02*
X0114200Y0669900D01*
X0108700Y0674400D02*
X0109700D01*
X0115700Y0632900D02*
Y0672900D01*
X0113581Y0675019D02*
Y0678400D01*
Y0675019D02*
X0115700Y0672900D01*
X0114200Y0638400D02*
Y0669900D01*
Y0631400D02*
X0115700Y0632900D01*
X0113200Y0637400D02*
X0114200Y0638400D01*
X0252300Y0623300D02*
X0254800D01*
X0228400Y0615900D02*
Y0618200D01*
X0254600Y0656300D02*
X0255100D01*
X0255200Y0656400D01*
X0252200Y0623400D02*
X0252300Y0623300D01*
X0233100Y0615700D02*
Y0617300D01*
X0233200Y0617400D01*
X0228200Y0618400D02*
X0228400Y0618200D01*
X0274562Y0648337D02*
Y0649400D01*
X0289700Y0659400D02*
X0293200D01*
X0289700Y0649400D02*
X0293200D01*
X0289700Y0669400D02*
X0293200D01*
X0201200Y0654400D02*
X0202200D01*
X0200562Y0658400D02*
X0202200D01*
Y0654400D02*
X0204161Y0656361D01*
X0205200Y0664762D02*
X0206838D01*
X0205200Y0657400D02*
Y0660038D01*
X0204200Y0656400D02*
X0205200Y0657400D01*
X0226200Y0675400D02*
X0227200Y0676400D01*
X0281200Y0664400D02*
X0284700D01*
X0269838Y0659400D02*
X0270200Y0659762D01*
Y0663400D01*
X0279200Y0654400D02*
X0280200D01*
X0274562Y0648337D02*
X0275200Y0647699D01*
Y0645400D02*
Y0647699D01*
X0232200Y0618400D02*
X0233200Y0617400D01*
X0192700Y0658400D02*
X0195838D01*
X0206838Y0664762D02*
X0206900Y0664700D01*
X0208000D01*
X0211562Y0623400D02*
X0214600D01*
X0243700D02*
X0246838D01*
X0246938Y0656400D02*
X0247838D01*
X0243200Y0645800D02*
X0246638D01*
X0246538Y0650700D02*
X0246638Y0650800D01*
X0243200Y0650700D02*
X0246538D01*
X0246838Y0656300D02*
X0246938Y0656400D01*
X0243500Y0656300D02*
X0246838D01*
X0126900Y0073549D02*
Y0067551D01*
X0129899D01*
X0130899Y0068550D01*
Y0069550D01*
X0129899Y0070550D01*
X0126900D01*
X0129899D01*
X0130899Y0071549D01*
Y0072549D01*
X0129899Y0073549D01*
X0126900D01*
X0133898Y0067551D02*
X0135897D01*
X0136897Y0068550D01*
Y0070550D01*
X0135897Y0071549D01*
X0133898D01*
X0132898Y0070550D01*
Y0068550D01*
X0133898Y0067551D01*
X0139896Y0072549D02*
Y0071549D01*
X0138896D01*
X0140895D01*
X0139896D01*
Y0068550D01*
X0140895Y0067551D01*
X0144894Y0072549D02*
Y0071549D01*
X0143895D01*
X0145894D01*
X0144894D01*
Y0068550D01*
X0145894Y0067551D01*
X0149893D02*
X0151892D01*
X0152892Y0068550D01*
Y0070550D01*
X0151892Y0071549D01*
X0149893D01*
X0148893Y0070550D01*
Y0068550D01*
X0149893Y0067551D01*
X0154891D02*
Y0071549D01*
X0155891D01*
X0156890Y0070550D01*
Y0067551D01*
Y0070550D01*
X0157890Y0071549D01*
X0158890Y0070550D01*
Y0067551D01*
X0170886Y0072549D02*
X0169886Y0073549D01*
X0167887D01*
X0166887Y0072549D01*
Y0071549D01*
X0167887Y0070550D01*
X0169886D01*
X0170886Y0069550D01*
Y0068550D01*
X0169886Y0067551D01*
X0167887D01*
X0166887Y0068550D01*
X0172885Y0067551D02*
X0174884D01*
X0173885D01*
Y0071549D01*
X0172885D01*
X0179883Y0065551D02*
X0180883D01*
X0181882Y0066551D01*
Y0071549D01*
X0178883D01*
X0177884Y0070550D01*
Y0068550D01*
X0178883Y0067551D01*
X0181882D01*
X0183882D02*
Y0071549D01*
X0186881D01*
X0187880Y0070550D01*
Y0067551D01*
X0190879Y0071549D02*
X0192879D01*
X0193878Y0070550D01*
Y0067551D01*
X0190879D01*
X0189880Y0068550D01*
X0190879Y0069550D01*
X0193878D01*
X0195878Y0067551D02*
X0197877D01*
X0196877D01*
Y0073549D01*
X0195878D01*
X0127200Y0067400D02*
Y0073398D01*
X0129199Y0071399D01*
X0131199Y0073398D01*
Y0067400D01*
X0133198D02*
X0135197D01*
X0134198D01*
Y0073398D01*
X0133198Y0072398D01*
X0138196Y0067400D02*
X0140196D01*
X0139196D01*
Y0073398D01*
X0138196Y0072398D01*
X0153192D02*
X0152192Y0073398D01*
X0150193D01*
X0149193Y0072398D01*
Y0068400D01*
X0150193Y0067400D01*
X0152192D01*
X0153192Y0068400D01*
Y0070399D01*
X0151192D01*
X0158190Y0067400D02*
X0156191D01*
X0155191Y0068400D01*
Y0070399D01*
X0156191Y0071399D01*
X0158190D01*
X0159190Y0070399D01*
Y0069399D01*
X0155191D01*
X0161189Y0071399D02*
Y0067400D01*
Y0069399D01*
X0162189Y0070399D01*
X0163188Y0071399D01*
X0164188D01*
X0167187Y0073398D02*
Y0067400D01*
X0170186D01*
X0171186Y0068400D01*
Y0069399D01*
Y0070399D01*
X0170186Y0071399D01*
X0167187D01*
X0176184Y0067400D02*
X0174185D01*
X0173185Y0068400D01*
Y0070399D01*
X0174185Y0071399D01*
X0176184D01*
X0177184Y0070399D01*
Y0069399D01*
X0173185D01*
X0179183Y0071399D02*
Y0067400D01*
Y0069399D01*
X0180183Y0070399D01*
X0181183Y0071399D01*
X0182182D01*
X0191179Y0073398D02*
X0193179D01*
X0192179D01*
Y0067400D01*
X0191179D01*
X0193179D01*
X0196178D02*
Y0071399D01*
X0199177D01*
X0200176Y0070399D01*
Y0067400D01*
X0203175D02*
Y0072398D01*
Y0070399D01*
X0202176D01*
X0204175D01*
X0203175D01*
Y0072398D01*
X0204175Y0073398D01*
X0208174Y0067400D02*
X0210173D01*
X0211173Y0068400D01*
Y0070399D01*
X0210173Y0071399D01*
X0208174D01*
X0207174Y0070399D01*
Y0068400D01*
X0208174Y0067400D01*
X0213172Y0071399D02*
Y0067400D01*
Y0069399D01*
X0214172Y0070399D01*
X0215172Y0071399D01*
X0216171D01*
X0219170Y0067400D02*
Y0071399D01*
X0220170D01*
X0221170Y0070399D01*
Y0067400D01*
Y0070399D01*
X0222169Y0071399D01*
X0223169Y0070399D01*
Y0067400D01*
X0226168Y0071399D02*
X0228167D01*
X0229167Y0070399D01*
Y0067400D01*
X0226168D01*
X0225168Y0068400D01*
X0226168Y0069399D01*
X0229167D01*
X0232166Y0072398D02*
Y0071399D01*
X0231166D01*
X0233166D01*
X0232166D01*
Y0068400D01*
X0233166Y0067400D01*
X0236165D02*
X0238164D01*
X0237164D01*
Y0071399D01*
X0236165D01*
X0242163Y0067400D02*
X0244162D01*
X0245162Y0068400D01*
Y0070399D01*
X0244162Y0071399D01*
X0242163D01*
X0241163Y0070399D01*
Y0068400D01*
X0242163Y0067400D01*
X0247161D02*
Y0071399D01*
X0250160D01*
X0251160Y0070399D01*
Y0067400D01*
X0348550Y0067500D02*
Y0073498D01*
X0352549Y0067500D01*
Y0073498D01*
X0354548Y0067500D02*
X0358547Y0071499D01*
X0360546Y0067500D02*
Y0071499D01*
X0362545Y0073498D01*
X0364545Y0071499D01*
Y0067500D01*
Y0070499D01*
X0360546D01*
X0294000Y0073498D02*
X0297999D01*
X0295999D01*
Y0067500D01*
X0299998Y0073498D02*
X0301997D01*
X0300998D01*
Y0067500D01*
X0299998D01*
X0301997D01*
X0304996Y0073498D02*
Y0067500D01*
X0307996D01*
X0308995Y0068500D01*
Y0072498D01*
X0307996Y0073498D01*
X0304996D01*
X0317992Y0067500D02*
Y0073498D01*
X0319992D02*
Y0067500D01*
X0316993Y0071499D02*
X0319992D01*
X0320991D01*
X0316993Y0069499D02*
X0320991D01*
X0322991Y0071499D02*
X0323990D01*
Y0070499D01*
X0322991D01*
Y0071499D01*
Y0068500D02*
X0323990D01*
Y0067500D01*
X0322991D01*
Y0068500D01*
X0580500Y0052965D02*
X0584499D01*
X0582499D01*
Y0046966D01*
X0590497Y0052965D02*
X0586498D01*
Y0046966D01*
X0590497D01*
X0586498Y0049966D02*
X0588497D01*
X0592496Y0052965D02*
X0596495Y0046966D01*
Y0052965D02*
X0592496Y0046966D01*
X0598494D02*
Y0050965D01*
X0600493Y0052965D01*
X0602493Y0050965D01*
Y0046966D01*
Y0049966D01*
X0598494D01*
X0608491Y0051965D02*
X0607491Y0052965D01*
X0605492D01*
X0604492Y0051965D01*
Y0050965D01*
X0605492Y0049966D01*
X0607491D01*
X0608491Y0048966D01*
Y0047966D01*
X0607491Y0046966D01*
X0605492D01*
X0604492Y0047966D01*
X0616488Y0052965D02*
X0618488D01*
X0617488D01*
Y0046966D01*
X0616488D01*
X0618488D01*
X0621487D02*
Y0052965D01*
X0625486Y0046966D01*
Y0052965D01*
X0631484Y0051965D02*
X0630484Y0052965D01*
X0628484D01*
X0627485Y0051965D01*
Y0050965D01*
X0628484Y0049966D01*
X0630484D01*
X0631484Y0048966D01*
Y0047966D01*
X0630484Y0046966D01*
X0628484D01*
X0627485Y0047966D01*
X0633483Y0052965D02*
X0637482D01*
X0635482D01*
Y0046966D01*
X0639481D02*
Y0052965D01*
X0642480D01*
X0643480Y0051965D01*
Y0049966D01*
X0642480Y0048966D01*
X0639481D01*
X0641480D02*
X0643480Y0046966D01*
X0645479Y0052965D02*
Y0047966D01*
X0646479Y0046966D01*
X0648478D01*
X0649478Y0047966D01*
Y0052965D01*
X0651477Y0046966D02*
Y0052965D01*
X0653476Y0050965D01*
X0655476Y0052965D01*
Y0046966D01*
X0661474Y0052965D02*
X0657475D01*
Y0046966D01*
X0661474D01*
X0657475Y0049966D02*
X0659474D01*
X0663473Y0046966D02*
Y0052965D01*
X0667472Y0046966D01*
Y0052965D01*
X0669471D02*
X0673470D01*
X0671471D01*
Y0046966D01*
X0679468Y0051965D02*
X0678468Y0052965D01*
X0676469D01*
X0675469Y0051965D01*
Y0050965D01*
X0676469Y0049966D01*
X0678468D01*
X0679468Y0048966D01*
Y0047966D01*
X0678468Y0046966D01*
X0676469D01*
X0675469Y0047966D01*
X0454050Y0046966D02*
X0456049D01*
X0455050D01*
Y0052965D01*
X0454050Y0051965D01*
X0459048D02*
X0460048Y0052965D01*
X0462047D01*
X0463047Y0051965D01*
Y0047966D01*
X0462047Y0046966D01*
X0460048D01*
X0459048Y0047966D01*
Y0051965D01*
X0465046Y0050965D02*
X0466046D01*
Y0049966D01*
X0465046D01*
Y0050965D01*
Y0047966D02*
X0466046D01*
Y0046966D01*
X0465046D01*
Y0047966D01*
X0473044Y0046966D02*
Y0052965D01*
X0470045Y0049966D01*
X0474044D01*
X0476043Y0052965D02*
X0480042D01*
Y0051965D01*
X0476043Y0047966D01*
Y0046966D01*
X0482041Y0050965D02*
X0483041D01*
Y0049966D01*
X0482041D01*
Y0050965D01*
Y0047966D02*
X0483041D01*
Y0046966D01*
X0482041D01*
Y0047966D01*
X0487039Y0046966D02*
X0489039D01*
X0488039D01*
Y0052965D01*
X0487039Y0051965D01*
X0492038Y0047966D02*
X0493037Y0046966D01*
X0495037D01*
X0496036Y0047966D01*
Y0051965D01*
X0495037Y0052965D01*
X0493037D01*
X0492038Y0051965D01*
Y0050965D01*
X0493037Y0049966D01*
X0496036D01*
X0504034Y0046966D02*
Y0050965D01*
X0506033Y0052965D01*
X0508033Y0050965D01*
Y0046966D01*
Y0049966D01*
X0504034D01*
X0510032Y0046966D02*
Y0052965D01*
X0512031Y0050965D01*
X0514031Y0052965D01*
Y0046966D01*
X0046350D02*
Y0052965D01*
X0049349D01*
X0050349Y0051965D01*
Y0049966D01*
X0049349Y0048966D01*
X0046350D01*
X0052348Y0052965D02*
Y0046966D01*
X0056347D01*
X0061345Y0052965D02*
X0059346D01*
X0058346Y0051965D01*
Y0047966D01*
X0059346Y0046966D01*
X0061345D01*
X0062345Y0047966D01*
Y0051965D01*
X0061345Y0052965D01*
X0064344D02*
X0068343D01*
X0066343D01*
Y0046966D01*
X0076340D02*
Y0052965D01*
X0080339Y0046966D01*
Y0052965D01*
X0082338Y0046966D02*
Y0050965D01*
X0084338Y0052965D01*
X0086337Y0050965D01*
Y0046966D01*
Y0049966D01*
X0082338D01*
X0088336Y0046966D02*
Y0052965D01*
X0090336Y0050965D01*
X0092335Y0052965D01*
Y0046966D01*
X0098333Y0052965D02*
X0094335D01*
Y0046966D01*
X0098333D01*
X0094335Y0049966D02*
X0096334D01*
X0106331Y0048966D02*
X0110329D01*
X0106331Y0050965D02*
X0110329D01*
X0046350Y0073549D02*
Y0067551D01*
X0050349D01*
X0052348D02*
Y0071549D01*
X0054347Y0073549D01*
X0056347Y0071549D01*
Y0067551D01*
Y0070550D01*
X0052348D01*
X0058346Y0073549D02*
Y0072549D01*
X0060346Y0070550D01*
X0062345Y0072549D01*
Y0073549D01*
X0060346Y0070550D02*
Y0067551D01*
X0068343Y0073549D02*
X0064344D01*
Y0067551D01*
X0068343D01*
X0064344Y0070550D02*
X0066343D01*
X0070342Y0067551D02*
Y0073549D01*
X0073341D01*
X0074341Y0072549D01*
Y0070550D01*
X0073341Y0069550D01*
X0070342D01*
X0072342D02*
X0074341Y0067551D01*
X0082338D02*
Y0073549D01*
X0086337Y0067551D01*
Y0073549D01*
X0088336Y0067551D02*
Y0071549D01*
X0090336Y0073549D01*
X0092335Y0071549D01*
Y0067551D01*
Y0070550D01*
X0088336D01*
X0094335Y0067551D02*
Y0073549D01*
X0096334Y0071549D01*
X0098333Y0073549D01*
Y0067551D01*
X0104331Y0073549D02*
X0100332D01*
Y0067551D01*
X0104331D01*
X0100332Y0070550D02*
X0102332D01*
X0112329Y0069550D02*
X0116327D01*
X0112329Y0071549D02*
X0116327D01*
X0294000Y0093831D02*
Y0087833D01*
X0296999D01*
X0297999Y0088833D01*
Y0089833D01*
X0296999Y0090832D01*
X0294000D01*
X0296999D01*
X0297999Y0091832D01*
Y0092832D01*
X0296999Y0093831D01*
X0294000D01*
X0302997D02*
X0300998D01*
X0299998Y0092832D01*
Y0088833D01*
X0300998Y0087833D01*
X0302997D01*
X0303997Y0088833D01*
Y0092832D01*
X0302997Y0093831D01*
X0305996Y0087833D02*
Y0091832D01*
X0307996Y0093831D01*
X0309995Y0091832D01*
Y0087833D01*
Y0090832D01*
X0305996D01*
X0311994Y0087833D02*
Y0093831D01*
X0314993D01*
X0315993Y0092832D01*
Y0090832D01*
X0314993Y0089833D01*
X0311994D01*
X0313994D02*
X0315993Y0087833D01*
X0317992Y0093831D02*
Y0087833D01*
X0320991D01*
X0321991Y0088833D01*
Y0092832D01*
X0320991Y0093831D01*
X0317992D01*
X0330988Y0087833D02*
Y0093831D01*
X0332987D02*
Y0087833D01*
X0329988Y0091832D02*
X0332987D01*
X0333987D01*
X0329988Y0089833D02*
X0333987D01*
X0335986Y0091832D02*
X0336986D01*
Y0090832D01*
X0335986D01*
Y0091832D01*
Y0088833D02*
X0336986D01*
Y0087833D01*
X0335986D01*
Y0088833D01*
X0348550Y0087833D02*
Y0093831D01*
X0350549Y0091832D01*
X0352549Y0093831D01*
Y0087833D01*
X0358547Y0092832D02*
X0357547Y0093831D01*
X0355548D01*
X0354548Y0092832D01*
Y0088833D01*
X0355548Y0087833D01*
X0357547D01*
X0358547Y0088833D01*
X0360546Y0093831D02*
Y0088833D01*
X0361546Y0087833D01*
X0363545D01*
X0364545Y0088833D01*
Y0093831D01*
X0366544Y0092832D02*
X0367544Y0093831D01*
X0369543D01*
X0370543Y0092832D01*
Y0088833D01*
X0369543Y0087833D01*
X0367544D01*
X0366544Y0088833D01*
Y0092832D01*
X0372542D02*
X0373542Y0093831D01*
X0375541D01*
X0376541Y0092832D01*
Y0091832D01*
X0375541Y0090832D01*
X0376541Y0089833D01*
Y0088833D01*
X0375541Y0087833D01*
X0373542D01*
X0372542Y0088833D01*
Y0089833D01*
X0373542Y0090832D01*
X0372542Y0091832D01*
Y0092832D01*
X0373542Y0090832D02*
X0375541D01*
X0378540Y0088833D02*
X0379540Y0087833D01*
X0381539D01*
X0382539Y0088833D01*
Y0092832D01*
X0381539Y0093831D01*
X0379540D01*
X0378540Y0092832D01*
Y0091832D01*
X0379540Y0090832D01*
X0382539D01*
X0462150Y0087833D02*
Y0091832D01*
X0464149Y0093831D01*
X0466149Y0091832D01*
Y0087833D01*
Y0090832D01*
X0462150D01*
X0046350Y0087833D02*
Y0091832D01*
X0048349Y0093831D01*
X0050349Y0091832D01*
Y0087833D01*
Y0090832D01*
X0046350D01*
X0052348Y0093831D02*
Y0087833D01*
X0056347D01*
X0058346Y0093831D02*
Y0087833D01*
X0062345D01*
X0070342D02*
Y0091832D01*
X0072342Y0093831D01*
X0074341Y0091832D01*
Y0087833D01*
Y0090832D01*
X0070342D01*
X0076340Y0087833D02*
Y0093831D01*
X0079339D01*
X0080339Y0092832D01*
Y0090832D01*
X0079339Y0089833D01*
X0076340D01*
X0078340D02*
X0080339Y0087833D01*
X0082338Y0093831D02*
X0086337D01*
X0084338D01*
Y0087833D01*
X0088336Y0093831D02*
Y0087833D01*
X0090336Y0089833D01*
X0092335Y0087833D01*
Y0093831D01*
X0097334D02*
X0095334D01*
X0094335Y0092832D01*
Y0088833D01*
X0095334Y0087833D01*
X0097334D01*
X0098333Y0088833D01*
Y0092832D01*
X0097334Y0093831D01*
X0100332Y0087833D02*
Y0093831D01*
X0103332D01*
X0104331Y0092832D01*
Y0090832D01*
X0103332Y0089833D01*
X0100332D01*
X0102332D02*
X0104331Y0087833D01*
X0106331Y0093831D02*
Y0087833D01*
Y0089833D01*
X0110329Y0093831D01*
X0107330Y0090832D01*
X0110329Y0087833D01*
X0118327Y0093831D02*
Y0089833D01*
X0120326Y0087833D01*
X0122325Y0089833D01*
Y0093831D01*
X0124325D02*
X0126324D01*
X0125324D01*
Y0087833D01*
X0124325D01*
X0126324D01*
X0133322Y0093831D02*
X0129323D01*
Y0087833D01*
X0133322D01*
X0129323Y0090832D02*
X0131323D01*
X0135321Y0093831D02*
Y0087833D01*
X0137321Y0089833D01*
X0139320Y0087833D01*
Y0093831D01*
X0145318D02*
X0141319D01*
Y0087833D01*
X0145318D01*
X0141319Y0090832D02*
X0143319D01*
X0147317Y0093831D02*
Y0087833D01*
X0150316D01*
X0151316Y0088833D01*
Y0092832D01*
X0150316Y0093831D01*
X0147317D01*
X0163312D02*
X0159313D01*
Y0090832D01*
X0161313D01*
X0159313D01*
Y0087833D01*
X0165312D02*
Y0093831D01*
X0168310D01*
X0169310Y0092832D01*
Y0090832D01*
X0168310Y0089833D01*
X0165312D01*
X0167311D02*
X0169310Y0087833D01*
X0174309Y0093831D02*
X0172309D01*
X0171310Y0092832D01*
Y0088833D01*
X0172309Y0087833D01*
X0174309D01*
X0175308Y0088833D01*
Y0092832D01*
X0174309Y0093831D01*
X0177308Y0087833D02*
Y0093831D01*
X0179307Y0091832D01*
X0181306Y0093831D01*
Y0087833D01*
X0189304Y0093831D02*
X0193303D01*
X0191303D01*
Y0087833D01*
X0198301Y0093831D02*
X0196301D01*
X0195302Y0092832D01*
Y0088833D01*
X0196301Y0087833D01*
X0198301D01*
X0199301Y0088833D01*
Y0092832D01*
X0198301Y0093831D01*
X0201300Y0087833D02*
Y0093831D01*
X0204299D01*
X0205299Y0092832D01*
Y0090832D01*
X0204299Y0089833D01*
X0201300D01*
X0217295Y0092832D02*
X0216295Y0093831D01*
X0214296D01*
X0213296Y0092832D01*
Y0091832D01*
X0214296Y0090832D01*
X0216295D01*
X0217295Y0089833D01*
Y0088833D01*
X0216295Y0087833D01*
X0214296D01*
X0213296Y0088833D01*
X0219294Y0093831D02*
X0221293D01*
X0220294D01*
Y0087833D01*
X0219294D01*
X0221293D01*
X0224292Y0093831D02*
Y0087833D01*
X0227291D01*
X0228291Y0088833D01*
Y0092832D01*
X0227291Y0093831D01*
X0224292D01*
X0234289D02*
X0230291D01*
Y0087833D01*
X0234289D01*
X0230291Y0090832D02*
X0232290D01*
X0298199Y0051965D02*
X0297199Y0052965D01*
X0295200D01*
X0294200Y0051965D01*
Y0047966D01*
X0295200Y0046966D01*
X0297199D01*
X0298199Y0047966D01*
Y0049966D01*
X0296199D01*
X0304197Y0052965D02*
X0300198D01*
Y0046966D01*
X0304197D01*
X0300198Y0049966D02*
X0302197D01*
X0306196Y0046966D02*
Y0052965D01*
X0310195Y0046966D01*
Y0052965D01*
X0316193D02*
X0312194D01*
Y0046966D01*
X0316193D01*
X0312194Y0049966D02*
X0314194D01*
X0318192Y0046966D02*
Y0052965D01*
X0321191D01*
X0322191Y0051965D01*
Y0049966D01*
X0321191Y0048966D01*
X0318192D01*
X0320192D02*
X0322191Y0046966D01*
X0324190D02*
Y0050965D01*
X0326190Y0052965D01*
X0328189Y0050965D01*
Y0046966D01*
Y0049966D01*
X0324190D01*
X0330188Y0052965D02*
X0334187D01*
X0332188D01*
Y0046966D01*
X0340185Y0052965D02*
X0336186D01*
Y0046966D01*
X0340185D01*
X0336186Y0049966D02*
X0338186D01*
X0342184Y0052965D02*
Y0046966D01*
X0345183D01*
X0346183Y0047966D01*
Y0051965D01*
X0345183Y0052965D01*
X0342184D01*
X0372175Y0050965D02*
X0373175D01*
Y0049966D01*
X0372175D01*
Y0050965D01*
Y0047966D02*
X0373175D01*
Y0046966D01*
X0372175D01*
Y0047966D01*
X0381150D02*
X0382150Y0046966D01*
X0384149D01*
X0385149Y0047966D01*
Y0051965D01*
X0384149Y0052965D01*
X0382150D01*
X0381150Y0051965D01*
Y0050965D01*
X0382150Y0049966D01*
X0385149D01*
X0387148Y0046966D02*
X0391147Y0050965D01*
X0393146Y0046966D02*
X0395146D01*
X0394146D01*
Y0052965D01*
X0393146Y0051965D01*
X0401144Y0046966D02*
Y0052965D01*
X0398145Y0049966D01*
X0402143D01*
X0404143Y0046966D02*
X0408141Y0050965D01*
X0414139Y0046966D02*
X0410141D01*
X0414139Y0050965D01*
Y0051965D01*
X0413140Y0052965D01*
X0411140D01*
X0410141Y0051965D01*
X0416139D02*
X0417138Y0052965D01*
X0419138D01*
X0420137Y0051965D01*
Y0047966D01*
X0419138Y0046966D01*
X0417138D01*
X0416139Y0047966D01*
Y0051965D01*
X0426135Y0046966D02*
X0422137D01*
X0426135Y0050965D01*
Y0051965D01*
X0425136Y0052965D01*
X0423136D01*
X0422137Y0051965D01*
X0428135D02*
X0429135Y0052965D01*
X0431134D01*
X0432133Y0051965D01*
Y0047966D01*
X0431134Y0046966D01*
X0429135D01*
X0428135Y0047966D01*
Y0051965D01*
X0126900Y0046966D02*
Y0052965D01*
X0128899Y0050965D01*
X0130899Y0052965D01*
Y0046966D01*
X0136897Y0051965D02*
X0135897Y0052965D01*
X0133898D01*
X0132898Y0051965D01*
Y0047966D01*
X0133898Y0046966D01*
X0135897D01*
X0136897Y0047966D01*
X0138896Y0052965D02*
Y0047966D01*
X0139896Y0046966D01*
X0141895D01*
X0142895Y0047966D01*
Y0052965D01*
X0144894Y0051965D02*
X0145894Y0052965D01*
X0147893D01*
X0148893Y0051965D01*
Y0047966D01*
X0147893Y0046966D01*
X0145894D01*
X0144894Y0047966D01*
Y0051965D01*
X0150892D02*
X0151892Y0052965D01*
X0153891D01*
X0154891Y0051965D01*
Y0050965D01*
X0153891Y0049966D01*
X0154891Y0048966D01*
Y0047966D01*
X0153891Y0046966D01*
X0151892D01*
X0150892Y0047966D01*
Y0048966D01*
X0151892Y0049966D01*
X0150892Y0050965D01*
Y0051965D01*
X0151892Y0049966D02*
X0153891D01*
X0156890Y0047966D02*
X0157890Y0046966D01*
X0159889D01*
X0160889Y0047966D01*
Y0051965D01*
X0159889Y0052965D01*
X0157890D01*
X0156890Y0051965D01*
Y0050965D01*
X0157890Y0049966D01*
X0160889D01*
X0162888Y0046966D02*
Y0050965D01*
X0164888Y0052965D01*
X0166887Y0050965D01*
Y0046966D01*
Y0049966D01*
X0162888D01*
X0168886Y0046966D02*
Y0047966D01*
X0169886D01*
Y0046966D01*
X0168886D01*
X0177884Y0051965D02*
X0176884Y0052965D01*
X0174884D01*
X0173885Y0051965D01*
Y0047966D01*
X0174884Y0046966D01*
X0176884D01*
X0177884Y0047966D01*
Y0049966D01*
X0175884D01*
X0179883Y0052965D02*
Y0046966D01*
X0182882D01*
X0183882Y0047966D01*
Y0048966D01*
X0182882Y0049966D01*
X0179883D01*
X0182882D01*
X0183882Y0050965D01*
Y0051965D01*
X0182882Y0052965D01*
X0179883D01*
X0185881D02*
Y0046966D01*
X0189880D01*
X0433000Y0087833D02*
Y0093831D01*
X0435999D01*
X0436999Y0092832D01*
Y0090832D01*
X0435999Y0089833D01*
X0433000D01*
X0434999D02*
X0436999Y0087833D01*
X0442997Y0093831D02*
X0438998D01*
Y0087833D01*
X0442997D01*
X0438998Y0090832D02*
X0440997D01*
X0444996Y0093831D02*
Y0089833D01*
X0446995Y0087833D01*
X0448995Y0089833D01*
Y0093831D01*
X0450994Y0091832D02*
X0451994D01*
Y0090832D01*
X0450994D01*
Y0091832D01*
Y0088833D02*
X0451994D01*
Y0087833D01*
X0450994D01*
Y0088833D01*
X0520799Y0092832D02*
X0519799Y0093831D01*
X0517800D01*
X0516800Y0092832D01*
Y0091832D01*
X0517800Y0090832D01*
X0519799D01*
X0520799Y0089833D01*
Y0088833D01*
X0519799Y0087833D01*
X0517800D01*
X0516800Y0088833D01*
X0522798Y0093831D02*
Y0089833D01*
X0524797Y0087833D01*
X0526797Y0089833D01*
Y0093831D01*
X0528796Y0087833D02*
Y0093831D01*
X0532795Y0087833D01*
Y0093831D01*
X0540792Y0087833D02*
Y0093831D01*
X0543791D01*
X0544791Y0092832D01*
Y0090832D01*
X0543791Y0089833D01*
X0540792D01*
X0542792D02*
X0544791Y0087833D01*
X0550789Y0093831D02*
X0546790D01*
Y0087833D01*
X0550789D01*
X0546790Y0090832D02*
X0548790D01*
X0552788Y0093831D02*
Y0089833D01*
X0554788Y0087833D01*
X0556787Y0089833D01*
Y0093831D01*
X0558786Y0091832D02*
X0559786D01*
Y0090832D01*
X0558786D01*
Y0091832D01*
Y0088833D02*
X0559786D01*
Y0087833D01*
X0558786D01*
Y0088833D01*
X0567400Y0087833D02*
Y0093831D01*
X0571399Y0087833D01*
Y0093831D01*
X0574398Y0087833D02*
X0576397D01*
X0577397Y0088833D01*
Y0090832D01*
X0576397Y0091832D01*
X0574398D01*
X0573398Y0090832D01*
Y0088833D01*
X0574398Y0087833D01*
X0580396Y0092832D02*
Y0091832D01*
X0579396D01*
X0581395D01*
X0580396D01*
Y0088833D01*
X0581395Y0087833D01*
X0590393Y0093831D02*
X0592392D01*
X0591392D01*
Y0087833D01*
X0590393D01*
X0592392D01*
X0595391D02*
Y0091832D01*
X0598390D01*
X0599390Y0090832D01*
Y0087833D01*
X0607387Y0093831D02*
Y0089833D01*
X0609386Y0087833D01*
X0611386Y0089833D01*
Y0093831D01*
X0616384Y0087833D02*
X0614385D01*
X0613385Y0088833D01*
Y0090832D01*
X0614385Y0091832D01*
X0616384D01*
X0617384Y0090832D01*
Y0089833D01*
X0613385D01*
X0619383Y0091832D02*
Y0087833D01*
Y0089833D01*
X0620383Y0090832D01*
X0621383Y0091832D01*
X0622382D01*
X0625381Y0087833D02*
X0628380D01*
X0629380Y0088833D01*
X0628380Y0089833D01*
X0626381D01*
X0625381Y0090832D01*
X0626381Y0091832D01*
X0629380D01*
X0631379Y0087833D02*
X0633379D01*
X0632379D01*
Y0091832D01*
X0631379D01*
X0637377Y0087833D02*
X0639377D01*
X0640376Y0088833D01*
Y0090832D01*
X0639377Y0091832D01*
X0637377D01*
X0636378Y0090832D01*
Y0088833D01*
X0637377Y0087833D01*
X0642376D02*
Y0091832D01*
X0645375D01*
X0646374Y0090832D01*
Y0087833D01*
X0652373Y0092832D02*
X0651373Y0093831D01*
X0649373D01*
X0648374Y0092832D01*
Y0088833D01*
X0649373Y0087833D01*
X0651373D01*
X0652373Y0088833D01*
X0655372Y0087833D02*
X0657371D01*
X0658371Y0088833D01*
Y0090832D01*
X0657371Y0091832D01*
X0655372D01*
X0654372Y0090832D01*
Y0088833D01*
X0655372Y0087833D01*
X0660370D02*
Y0091832D01*
X0663369D01*
X0664369Y0090832D01*
Y0087833D01*
X0667368Y0092832D02*
Y0091832D01*
X0666368D01*
X0668367D01*
X0667368D01*
Y0088833D01*
X0668367Y0087833D01*
X0671366Y0091832D02*
Y0087833D01*
Y0089833D01*
X0672366Y0090832D01*
X0673366Y0091832D01*
X0674365D01*
X0678364Y0087833D02*
X0680364D01*
X0681363Y0088833D01*
Y0090832D01*
X0680364Y0091832D01*
X0678364D01*
X0677364Y0090832D01*
Y0088833D01*
X0678364Y0087833D01*
X0683362D02*
X0685362D01*
X0684362D01*
Y0093831D01*
X0683362D01*
G54D59*
X0274200Y0159400D02*
D03*
X0094200D02*
D03*
X0081200Y0678400D02*
D03*
G54D68*
X0249200Y0371750D02*
D03*
Y0378050D02*
D03*
X0123200Y0414050D02*
D03*
Y0407750D02*
D03*
X0147700Y0380550D02*
D03*
Y0374250D02*
D03*
X0106207Y0387750D02*
D03*
Y0394050D02*
D03*
X0255700Y0369050D02*
D03*
Y0362750D02*
D03*
X0283200Y0355550D02*
D03*
Y0349250D02*
D03*
X0255700Y0354050D02*
D03*
Y0347750D02*
D03*
Y0334750D02*
D03*
Y0341050D02*
D03*
G54D69*
X0205200Y0660038D02*
D03*
Y0664762D02*
D03*
X0268200Y0619762D02*
D03*
Y0615038D02*
D03*
X0267200Y0626038D02*
D03*
Y0630762D02*
D03*
X0272200D02*
D03*
Y0626038D02*
D03*
X0277200Y0630762D02*
D03*
Y0626038D02*
D03*
X0261200Y0619762D02*
D03*
Y0615038D02*
D03*
X0184200Y0568762D02*
D03*
Y0564038D02*
D03*
X0202224Y0454038D02*
D03*
Y0458762D02*
D03*
X0168700Y0544777D02*
D03*
Y0549502D02*
D03*
X0121700Y0356588D02*
D03*
Y0361312D02*
D03*
X0215700Y0463762D02*
D03*
Y0459038D02*
D03*
X0199440Y0205900D02*
D03*
Y0210624D02*
D03*
X0194436Y0210624D02*
D03*
Y0205900D02*
D03*
X0211417Y0360038D02*
D03*
Y0364762D02*
D03*
X0225984Y0364762D02*
D03*
Y0360038D02*
D03*
X0195306Y0454038D02*
D03*
Y0458762D02*
D03*
G54D70*
X0230562Y0673400D02*
D03*
X0225838D02*
D03*
X0251662Y0656400D02*
D03*
X0246938D02*
D03*
X0251562Y0623400D02*
D03*
X0246838D02*
D03*
X0232762Y0619100D02*
D03*
X0228038D02*
D03*
X0206838Y0623400D02*
D03*
X0211562D02*
D03*
X0200562Y0654200D02*
D03*
X0195838D02*
D03*
X0200562Y0658400D02*
D03*
X0195838D02*
D03*
X0251362Y0650800D02*
D03*
X0246638D02*
D03*
X0251362Y0645800D02*
D03*
X0246638D02*
D03*
X0227838Y0663400D02*
D03*
X0232562D02*
D03*
X0269838Y0659400D02*
D03*
X0274562D02*
D03*
Y0649400D02*
D03*
X0269838D02*
D03*
X0196928Y0540900D02*
D03*
X0201652D02*
D03*
X0189338Y0216905D02*
D03*
X0194062D02*
D03*
X0234338Y0211400D02*
D03*
X0239062D02*
D03*
G54D71*
X0197279Y0331400D02*
D03*
X0203578D02*
D03*
X0218145D02*
D03*
X0211846D02*
D03*
X0232506Y0422900D02*
D03*
X0238805D02*
D03*
X0283550Y0341900D02*
D03*
X0289850D02*
D03*
G54D125*
X0196928Y0540900D02*
Y0541553D01*
X0199290Y0543915D02*
Y0545550D01*
X0196928Y0541553D02*
X0199290Y0543915D01*
X0129255Y0409345D02*
Y0414050D01*
Y0409345D02*
X0129405Y0409195D01*
X0134700Y0410400D02*
X0138200Y0413900D01*
X0134700Y0409400D02*
Y0410400D01*
X0194062Y0216905D02*
X0197234D01*
X0198275Y0217946D01*
X0119200Y0414400D02*
X0122850D01*
X0123200Y0414050D01*
X0215802Y0463660D02*
X0218960D01*
X0215700Y0463762D02*
X0215802Y0463660D01*
X0193200Y0460868D02*
Y0462400D01*
Y0460868D02*
X0195306Y0458762D01*
X0123200Y0414050D02*
X0129255D01*
X0199290Y0538538D02*
X0201652Y0540900D01*
X0199290Y0536250D02*
Y0538538D01*
X0168700Y0549502D02*
X0171572D01*
X0173934Y0547139D01*
X0168700Y0541634D02*
Y0544777D01*
X0239062Y0214973D02*
X0239200Y0215110D01*
X0239062Y0211400D02*
Y0214973D01*
X0234200Y0215110D02*
X0234338Y0214973D01*
Y0211400D02*
Y0214973D01*
X0191424Y0210624D02*
X0194436D01*
X0194436Y0210624D01*
X0199440D01*
X0172085Y0406627D02*
X0176427D01*
X0170973D02*
X0172085D01*
X0168030Y0409570D02*
X0170973Y0406627D01*
X0167137Y0409570D02*
X0168030D01*
X0163303Y0406500D02*
X0167630Y0402173D01*
X0163130Y0406500D02*
X0163303D01*
G54D128*
X0225700Y0224900D02*
D03*
X0247700D02*
D03*
X0169980Y0181900D02*
D03*
X0274200Y0323400D02*
D03*
X0215700Y0431900D02*
D03*
X0164200Y0370900D02*
D03*
X0133700Y0403400D02*
D03*
X0219200Y0303400D02*
D03*
G54D129*
X0094200Y0175900D02*
D03*
X0100200Y0613400D02*
D03*
X0094200Y0395900D02*
D03*
X0114200Y0613400D02*
D03*
X0086200D02*
D03*
X0274200Y0425900D02*
D03*
X0094200D02*
D03*
X0104200Y0575900D02*
D03*
X0274200Y0175900D02*
D03*
G54D130*
X0094200Y0185900D02*
D03*
Y0195900D02*
D03*
X0100200Y0603400D02*
D03*
X0144200Y0163400D02*
D03*
X0134200D02*
D03*
X0124200D02*
D03*
X0114200D02*
D03*
X0274200Y0335900D02*
D03*
X0264200D02*
D03*
X0274200Y0345900D02*
D03*
X0264200D02*
D03*
X0274200Y0355900D02*
D03*
X0264200D02*
D03*
X0274200Y0365900D02*
D03*
X0264200D02*
D03*
X0274200Y0375900D02*
D03*
X0204200Y0575900D02*
D03*
X0194200Y0585900D02*
D03*
Y0575900D02*
D03*
X0184200Y0585900D02*
D03*
Y0575900D02*
D03*
X0174200Y0585900D02*
D03*
Y0575900D02*
D03*
X0104200Y0335900D02*
D03*
X0094200Y0325900D02*
D03*
X0104200D02*
D03*
X0094200Y0385900D02*
D03*
X0204200Y0163400D02*
D03*
X0194200D02*
D03*
X0184200D02*
D03*
X0174200D02*
D03*
X0244200D02*
D03*
X0234200D02*
D03*
X0114200Y0603400D02*
D03*
X0086200D02*
D03*
X0274200Y0435900D02*
D03*
Y0445900D02*
D03*
X0094200Y0435900D02*
D03*
Y0445900D02*
D03*
X0104200Y0585900D02*
D03*
X0274200Y0185900D02*
D03*
Y0195900D02*
D03*
G54D131*
X0154200Y0163500D02*
D03*
X0204200Y0585900D02*
D03*
X0214200Y0163500D02*
D03*
G54D132*
X0264200Y0375900D02*
D03*
X0094200Y0335900D02*
D03*
G54D133*
X0287200Y0674400D02*
D03*
X0283200Y0644400D02*
D03*
X0291200D02*
D03*
G54D134*
X0289200Y0163400D02*
D03*
X0079200Y0693400D02*
D03*
X0289200D02*
D03*
X0079200Y0163400D02*
D03*
G54D135*
X0129251Y0693691D02*
D03*
X0098149D02*
D03*
G54D136*
X0274200Y0215900D02*
D03*
Y0225900D02*
D03*
Y0235900D02*
D03*
Y0245900D02*
D03*
Y0255900D02*
D03*
Y0265900D02*
D03*
Y0275900D02*
D03*
Y0285900D02*
D03*
Y0295900D02*
D03*
Y0305900D02*
D03*
X0264200Y0215900D02*
D03*
Y0225900D02*
D03*
Y0235900D02*
D03*
Y0245900D02*
D03*
Y0255900D02*
D03*
Y0265900D02*
D03*
Y0275900D02*
D03*
Y0285900D02*
D03*
Y0295900D02*
D03*
Y0305900D02*
D03*
X0094200D02*
D03*
Y0295900D02*
D03*
Y0285900D02*
D03*
Y0275900D02*
D03*
Y0265900D02*
D03*
Y0255900D02*
D03*
Y0245900D02*
D03*
Y0235900D02*
D03*
Y0225900D02*
D03*
Y0215900D02*
D03*
X0104200Y0305900D02*
D03*
Y0295900D02*
D03*
Y0285900D02*
D03*
Y0275900D02*
D03*
Y0265900D02*
D03*
Y0255900D02*
D03*
Y0245900D02*
D03*
Y0235900D02*
D03*
Y0225900D02*
D03*
Y0215900D02*
D03*
X0264200Y0555900D02*
D03*
Y0545900D02*
D03*
Y0535900D02*
D03*
Y0525900D02*
D03*
Y0515900D02*
D03*
Y0505900D02*
D03*
Y0495900D02*
D03*
Y0485900D02*
D03*
Y0475900D02*
D03*
Y0465900D02*
D03*
X0274200Y0555900D02*
D03*
Y0545900D02*
D03*
Y0535900D02*
D03*
Y0525900D02*
D03*
Y0515900D02*
D03*
Y0505900D02*
D03*
Y0495900D02*
D03*
Y0485900D02*
D03*
Y0475900D02*
D03*
Y0465900D02*
D03*
X0094200Y0545900D02*
D03*
Y0535900D02*
D03*
Y0525900D02*
D03*
Y0515900D02*
D03*
Y0505900D02*
D03*
Y0495900D02*
D03*
Y0485900D02*
D03*
Y0475900D02*
D03*
Y0465900D02*
D03*
X0104200Y0555900D02*
D03*
Y0545900D02*
D03*
Y0535900D02*
D03*
Y0525900D02*
D03*
Y0515900D02*
D03*
Y0505900D02*
D03*
Y0495900D02*
D03*
Y0485900D02*
D03*
Y0475900D02*
D03*
Y0465900D02*
D03*
G54D137*
X0094200Y0555900D02*
D03*
G54D138*
X0254200Y0163400D02*
D03*
G54D139*
X0182700Y0545550D02*
D03*
X0201258Y0554900D02*
D03*
X0196376Y0545550D02*
D03*
X0182700Y0549108D02*
D03*
X0230500Y0646900D02*
D03*
X0230562Y0649924D02*
D03*
X0145700Y0370400D02*
D03*
Y0384888D02*
D03*
X0221200Y0393400D02*
D03*
X0228743Y0400781D02*
D03*
X0225621Y0398400D02*
D03*
X0229200Y0406900D02*
D03*
Y0410900D02*
D03*
X0225984Y0417400D02*
D03*
X0226200Y0408900D02*
D03*
Y0412900D02*
D03*
X0274200D02*
D03*
X0249700Y0417400D02*
D03*
X0178400Y0661900D02*
D03*
X0128323Y0661762D02*
D03*
X0182200Y0398971D02*
D03*
X0195200D02*
D03*
X0192700Y0395900D02*
D03*
X0182200D02*
D03*
X0215309Y0383324D02*
D03*
X0178700Y0385050D02*
D03*
X0180200Y0648400D02*
D03*
X0185200Y0648337D02*
D03*
X0124200Y0364400D02*
D03*
X0119200Y0354150D02*
D03*
X0128350Y0656900D02*
D03*
X0143200Y0600400D02*
D03*
X0082460Y0653400D02*
D03*
X0086200Y0651136D02*
D03*
Y0655664D02*
D03*
X0089940Y0653400D02*
D03*
X0198275Y0175900D02*
D03*
X0206200Y0322900D02*
D03*
X0250184Y0258400D02*
D03*
X0252700Y0269400D02*
D03*
X0142200Y0294400D02*
D03*
X0212700Y0521400D02*
D03*
X0195200Y0485400D02*
D03*
X0200200D02*
D03*
X0202224Y0482900D02*
D03*
X0259200Y0324900D02*
D03*
X0143710Y0331900D02*
D03*
X0245200Y0337400D02*
D03*
X0141200Y0344900D02*
D03*
X0201700D02*
D03*
X0169700Y0394565D02*
D03*
X0204385Y0462215D02*
D03*
X0252200Y0299400D02*
D03*
X0178700Y0355900D02*
D03*
X0135200Y0354900D02*
D03*
X0175200Y0365400D02*
D03*
X0130460D02*
D03*
X0197321Y0367400D02*
D03*
X0111700D02*
D03*
X0161796Y0358400D02*
D03*
X0140200D02*
D03*
X0206700Y0235900D02*
D03*
X0203090Y0226454D02*
D03*
X0185700Y0214895D02*
D03*
X0198275Y0217946D02*
D03*
X0226700Y0204400D02*
D03*
X0215200Y0210900D02*
D03*
X0252700Y0204400D02*
D03*
X0183501Y0318900D02*
D03*
X0119200Y0414400D02*
D03*
Y0407900D02*
D03*
X0142700Y0427900D02*
D03*
X0140200Y0420900D02*
D03*
X0137700Y0424305D02*
D03*
X0134700Y0409400D02*
D03*
X0279050Y0411900D02*
D03*
X0244200Y0379900D02*
D03*
Y0398400D02*
D03*
X0221200Y0359900D02*
D03*
Y0364400D02*
D03*
X0218625Y0294400D02*
D03*
X0191200D02*
D03*
X0231200Y0277239D02*
D03*
X0195617Y0284833D02*
D03*
X0173143Y0261900D02*
D03*
X0212821Y0262021D02*
D03*
X0214995Y0204400D02*
D03*
X0137562Y0175998D02*
D03*
X0148562Y0176010D02*
D03*
X0159562Y0176136D02*
D03*
X0162700Y0183400D02*
D03*
X0148562Y0186158D02*
D03*
X0137562Y0186169D02*
D03*
X0222200Y0423900D02*
D03*
X0291700Y0430900D02*
D03*
X0209161Y0437361D02*
D03*
X0289700Y0440900D02*
D03*
X0179700Y0445900D02*
D03*
X0287700Y0453400D02*
D03*
X0268200Y0260900D02*
D03*
X0285700Y0470900D02*
D03*
X0217200Y0473400D02*
D03*
X0175200D02*
D03*
X0247700Y0315900D02*
D03*
X0250200Y0312900D02*
D03*
X0124700Y0325900D02*
D03*
X0126700Y0328900D02*
D03*
X0121700Y0446400D02*
D03*
X0234200Y0463400D02*
D03*
Y0293400D02*
D03*
X0164700Y0290400D02*
D03*
X0222700Y0463400D02*
D03*
X0138700Y0465400D02*
D03*
X0212324Y0467276D02*
D03*
X0226700Y0480900D02*
D03*
X0210700Y0447900D02*
D03*
X0229200Y0508400D02*
D03*
X0193200Y0462400D02*
D03*
X0190700Y0455900D02*
D03*
X0114200D02*
D03*
X0127336Y0211038D02*
D03*
X0121838Y0321679D02*
D03*
X0106207Y0384084D02*
D03*
X0150700Y0414400D02*
D03*
X0129405Y0409195D02*
D03*
X0168700Y0453400D02*
D03*
X0176427Y0538400D02*
D03*
X0184200Y0560400D02*
D03*
X0127162Y0460538D02*
D03*
X0078200Y0524400D02*
D03*
X0186700Y0550900D02*
D03*
X0232700Y0483400D02*
D03*
X0197700Y0480900D02*
D03*
X0283200Y0389400D02*
D03*
X0270200Y0382900D02*
D03*
X0268200Y0419641D02*
D03*
X0281200Y0398400D02*
D03*
X0237700Y0490900D02*
D03*
X0218960Y0459900D02*
D03*
Y0463660D02*
D03*
X0245700Y0427400D02*
D03*
X0247700Y0421900D02*
D03*
X0219700D02*
D03*
X0251700Y0408900D02*
D03*
X0253700Y0406900D02*
D03*
X0255700Y0403900D02*
D03*
X0257688Y0384888D02*
D03*
X0227850D02*
D03*
X0154700Y0395400D02*
D03*
X0150709Y0406500D02*
D03*
X0252200Y0361400D02*
D03*
X0255200Y0240900D02*
D03*
Y0330900D02*
D03*
X0237700Y0352900D02*
D03*
X0250413Y0393400D02*
D03*
X0213700D02*
D03*
X0241200Y0470900D02*
D03*
X0243200Y0346900D02*
D03*
X0220200Y0253400D02*
D03*
X0222200Y0250900D02*
D03*
X0224200Y0230900D02*
D03*
X0208700Y0220900D02*
D03*
X0229090Y0260900D02*
D03*
X0190598Y0250900D02*
D03*
X0188039Y0253239D02*
D03*
X0177700Y0280900D02*
D03*
X0221904Y0334900D02*
D03*
X0204865Y0516900D02*
D03*
X0190298D02*
D03*
X0204865Y0495990D02*
D03*
X0227904Y0524900D02*
D03*
X0228700Y0528900D02*
D03*
X0217700Y0535900D02*
D03*
X0238404D02*
D03*
X0240341Y0538735D02*
D03*
X0215200Y0538900D02*
D03*
X0199290Y0545550D02*
D03*
Y0536250D02*
D03*
X0168700Y0541634D02*
D03*
X0173934Y0547139D02*
D03*
X0156434D02*
D03*
X0214995Y0321034D02*
D03*
X0200428D02*
D03*
X0168934Y0318900D02*
D03*
X0183501Y0298041D02*
D03*
X0168934Y0298036D02*
D03*
X0214995Y0341949D02*
D03*
X0200428Y0342040D02*
D03*
X0222700Y0183400D02*
D03*
X0208487Y0186284D02*
D03*
X0220200Y0175900D02*
D03*
X0208487Y0175998D02*
D03*
X0197487Y0186371D02*
D03*
X0200929Y0199286D02*
D03*
X0190298Y0495923D02*
D03*
X0234200Y0215110D02*
D03*
X0239200D02*
D03*
X0134650Y0358950D02*
D03*
X0109363Y0418900D02*
D03*
X0205912Y0419641D02*
D03*
X0175243Y0226900D02*
D03*
X0173200Y0347209D02*
D03*
X0160605Y0536400D02*
D03*
X0195353D02*
D03*
X0206869Y0328109D02*
D03*
X0191700Y0331900D02*
D03*
X0224200Y0348900D02*
D03*
X0208586Y0337400D02*
D03*
X0199200Y0348900D02*
D03*
X0212650Y0308450D02*
D03*
X0173650D02*
D03*
X0147890Y0424305D02*
D03*
X0147700Y0427900D02*
D03*
X0167200Y0418900D02*
D03*
X0108900Y0358950D02*
D03*
X0184200Y0355400D02*
D03*
X0169200Y0358152D02*
D03*
X0182200Y0350900D02*
D03*
X0171200Y0353400D02*
D03*
X0191424Y0210624D02*
D03*
X0167700Y0199286D02*
D03*
X0140200Y0225900D02*
D03*
Y0235900D02*
D03*
Y0245900D02*
D03*
Y0255900D02*
D03*
Y0265900D02*
D03*
Y0275900D02*
D03*
X0147795Y0420900D02*
D03*
X0161796Y0387100D02*
D03*
X0140200Y0475900D02*
D03*
Y0485900D02*
D03*
Y0495900D02*
D03*
Y0505900D02*
D03*
Y0515900D02*
D03*
X0142700Y0544400D02*
D03*
X0140200Y0525900D02*
D03*
X0177700Y0390400D02*
D03*
X0167200Y0396900D02*
D03*
X0165700Y0383858D02*
D03*
X0206200Y0598400D02*
D03*
X0216200Y0572900D02*
D03*
X0269310Y0603250D02*
D03*
Y0582510D02*
D03*
X0245200Y0574900D02*
D03*
X0211700Y0592538D02*
D03*
X0213359Y0602720D02*
D03*
X0210460Y0603640D02*
D03*
X0207700Y0604400D02*
D03*
X0231700Y0579900D02*
D03*
X0209200Y0594205D02*
D03*
X0217200Y0598400D02*
D03*
X0215814Y0606400D02*
D03*
X0221700Y0595900D02*
D03*
X0236700D02*
D03*
X0231700D02*
D03*
X0279838Y0633400D02*
D03*
X0268200Y0611900D02*
D03*
X0273523Y0636223D02*
D03*
X0275700Y0619022D02*
D03*
X0159200Y0587400D02*
D03*
X0254110Y0681400D02*
D03*
X0260700Y0678900D02*
D03*
X0248885Y0676900D02*
D03*
X0263700Y0668400D02*
D03*
X0263665Y0624865D02*
D03*
X0267200Y0693400D02*
D03*
X0276200Y0680900D02*
D03*
X0193200Y0634900D02*
D03*
X0189700D02*
D03*
X0194713Y0640613D02*
D03*
X0203987Y0642187D02*
D03*
X0206869Y0366731D02*
D03*
X0207700Y0361786D02*
D03*
X0176427Y0406627D02*
D03*
X0169467Y0411900D02*
D03*
X0162427Y0401211D02*
D03*
X0208041Y0431900D02*
D03*
X0205125Y0434900D02*
D03*
X0160746Y0432400D02*
D03*
X0176169Y0420477D02*
D03*
X0171429Y0427400D02*
D03*
X0165030Y0436583D02*
D03*
X0174200Y0430197D02*
D03*
X0199535Y0424400D02*
D03*
X0196967Y0427400D02*
D03*
X0205281Y0401900D02*
D03*
X0200929Y0397900D02*
D03*
X0210700Y0390913D02*
D03*
X0295161Y0619900D02*
D03*
X0276661Y0610900D02*
D03*
X0284161Y0618238D02*
D03*
X0178700Y0604411D02*
D03*
X0167700Y0598911D02*
D03*
X0117219Y0570400D02*
D03*
X0117200Y0578400D02*
D03*
X0194436Y0651636D02*
D03*
X0226838Y0606762D02*
D03*
X0257700Y0613900D02*
D03*
X0264200Y0630900D02*
D03*
X0183700Y0678400D02*
D03*
X0191700D02*
D03*
X0105700Y0630400D02*
D03*
X0127700Y0626900D02*
D03*
X0108700Y0674400D02*
D03*
Y0670900D02*
D03*
X0086700Y0644400D02*
D03*
X0172200Y0623900D02*
D03*
X0088700Y0662400D02*
D03*
X0235700Y0604411D02*
D03*
X0283102Y0630400D02*
D03*
Y0624900D02*
D03*
X0286102Y0629900D02*
D03*
Y0625900D02*
D03*
X0295602Y0632900D02*
D03*
X0225200Y0665900D02*
D03*
X0087900Y0641300D02*
D03*
X0140200Y0673400D02*
D03*
X0135200D02*
D03*
X0127700Y0670900D02*
D03*
X0095200Y0666400D02*
D03*
X0140900Y0626800D02*
D03*
X0140800Y0656900D02*
D03*
X0140900Y0661900D02*
D03*
X0143200Y0616400D02*
D03*
X0125200D02*
D03*
X0114200Y0631400D02*
D03*
X0253600Y0606500D02*
D03*
X0264300Y0640600D02*
D03*
X0203500Y0623300D02*
D03*
X0254800D02*
D03*
X0228400Y0615900D02*
D03*
X0247300Y0666800D02*
D03*
X0254600Y0656300D02*
D03*
X0254800Y0651600D02*
D03*
Y0638900D02*
D03*
X0254700Y0618600D02*
D03*
X0244200Y0615700D02*
D03*
X0239400D02*
D03*
X0233100D02*
D03*
X0214200Y0667100D02*
D03*
Y0615900D02*
D03*
X0280200Y0572900D02*
D03*
X0110700Y0656900D02*
D03*
X0113581Y0678400D02*
D03*
X0134200Y0621900D02*
D03*
X0113200Y0637400D02*
D03*
X0090039Y0645561D02*
D03*
X0293200Y0659400D02*
D03*
Y0649400D02*
D03*
Y0669400D02*
D03*
X0178400Y0657000D02*
D03*
X0204161Y0656361D02*
D03*
X0227200Y0676400D02*
D03*
X0230200D02*
D03*
X0235200Y0664400D02*
D03*
X0264200Y0621400D02*
D03*
X0281200Y0664400D02*
D03*
X0111200Y0661400D02*
D03*
X0270200Y0663400D02*
D03*
X0280200Y0654400D02*
D03*
X0270200Y0645400D02*
D03*
X0275200D02*
D03*
X0288200Y0594900D02*
D03*
X0287700Y0567400D02*
D03*
X0147047Y0571477D02*
D03*
X0192700Y0658400D02*
D03*
X0208000Y0664700D02*
D03*
X0214600Y0623400D02*
D03*
X0243700D02*
D03*
X0243200Y0645800D02*
D03*
Y0650700D02*
D03*
X0163800Y0582162D02*
D03*
X0117000Y0676000D02*
D03*
X0134200Y0594900D02*
D03*
X0125200Y0600400D02*
D03*
X0243500Y0656300D02*
D03*
X0241700Y0581900D02*
D03*
G54D140*
X0162700Y0379400D02*
D03*
X0154700D02*
D03*
X0130200Y0413900D02*
D03*
X0138200D02*
D03*
G54D141*
X0289700Y0669400D02*
D03*
Y0664400D02*
D03*
Y0659400D02*
D03*
Y0654400D02*
D03*
Y0649400D02*
D03*
X0284700D02*
D03*
Y0654400D02*
D03*
Y0659400D02*
D03*
Y0664400D02*
D03*
Y0669400D02*
D03*
G54D142*
X0157973Y0435173D02*
D03*
X0162427Y0439627D02*
D03*
X0167630Y0402173D02*
D03*
X0172085Y0406627D02*
D03*
X0177927Y0427627D02*
D03*
X0173473Y0423173D02*
D03*
G54D143*
X0205870Y0429730D02*
D03*
X0202530Y0433070D02*
D03*
X0165296Y0395070D02*
D03*
X0168637Y0391730D02*
D03*
X0165137Y0388230D02*
D03*
X0161796Y0391570D02*
D03*
X0199030Y0429570D02*
D03*
X0202370Y0426230D02*
D03*
G54D144*
X0211370Y0396570D02*
D03*
X0208030Y0393230D02*
D03*
X0165030Y0432230D02*
D03*
X0168370Y0435570D02*
D03*
X0167137Y0409570D02*
D03*
X0163796Y0406230D02*
D03*
X0171870Y0432070D02*
D03*
X0168530Y0428730D02*
D03*
X0204385Y0396730D02*
D03*
X0207725Y0400070D02*
D03*
M02*
