G75*
G70*
%OFA0B0*%
%FSLAX24Y24*%
%IPPOS*%
%LPD*%
%AMOC8*
5,1,8,0,0,1.08239X$1,22.5*
%
%ADD10C,0.0100*%
%ADD11C,0.0000*%
%ADD12R,0.0236X0.0236*%
%ADD13R,0.0217X0.0472*%
%ADD14C,0.0428*%
%ADD15C,0.0025*%
%ADD16R,0.0866X0.0236*%
%ADD17R,0.0315X0.0315*%
%ADD18R,0.0760X0.2100*%
%ADD19R,0.0630X0.0710*%
%ADD20R,0.0748X0.1339*%
%ADD21R,0.0472X0.0217*%
%ADD22R,0.0630X0.0138*%
%ADD23R,0.0630X0.0236*%
%ADD24R,0.0709X0.0500*%
%ADD25R,0.0551X0.0551*%
%ADD26R,0.0787X0.0472*%
%ADD27R,0.0250X0.0106*%
%ADD28R,0.0354X0.0630*%
%ADD29R,0.0472X0.0787*%
%ADD30R,0.0591X0.0500*%
%ADD31R,0.0197X0.0098*%
%ADD32R,0.0354X0.0512*%
%ADD33R,0.0433X0.0394*%
%ADD34R,0.0394X0.0433*%
%ADD35R,0.1181X0.0591*%
%ADD36C,0.0157*%
%ADD37R,0.0961X0.0445*%
%ADD38R,0.0571X0.0177*%
%ADD39R,0.0984X0.0787*%
%ADD40R,0.1299X0.0787*%
%ADD41R,0.1220X0.0197*%
%ADD42R,0.0551X0.1575*%
%ADD43R,0.0709X0.1772*%
D10*
X001680Y006030D02*
X001680Y029030D01*
X052780Y029030D01*
X052780Y006030D01*
X001680Y006030D01*
D11*
X002055Y007030D02*
X002057Y007080D01*
X002063Y007129D01*
X002073Y007178D01*
X002086Y007225D01*
X002104Y007272D01*
X002125Y007317D01*
X002149Y007360D01*
X002177Y007401D01*
X002208Y007440D01*
X002242Y007476D01*
X002279Y007510D01*
X002319Y007540D01*
X002360Y007567D01*
X002404Y007591D01*
X002449Y007611D01*
X002496Y007627D01*
X002544Y007640D01*
X002593Y007649D01*
X002643Y007654D01*
X002692Y007655D01*
X002742Y007652D01*
X002791Y007645D01*
X002840Y007634D01*
X002887Y007620D01*
X002933Y007601D01*
X002978Y007579D01*
X003021Y007554D01*
X003061Y007525D01*
X003099Y007493D01*
X003135Y007459D01*
X003168Y007421D01*
X003197Y007381D01*
X003223Y007339D01*
X003246Y007295D01*
X003265Y007249D01*
X003281Y007202D01*
X003293Y007153D01*
X003301Y007104D01*
X003305Y007055D01*
X003305Y007005D01*
X003301Y006956D01*
X003293Y006907D01*
X003281Y006858D01*
X003265Y006811D01*
X003246Y006765D01*
X003223Y006721D01*
X003197Y006679D01*
X003168Y006639D01*
X003135Y006601D01*
X003099Y006567D01*
X003061Y006535D01*
X003021Y006506D01*
X002978Y006481D01*
X002933Y006459D01*
X002887Y006440D01*
X002840Y006426D01*
X002791Y006415D01*
X002742Y006408D01*
X002692Y006405D01*
X002643Y006406D01*
X002593Y006411D01*
X002544Y006420D01*
X002496Y006433D01*
X002449Y006449D01*
X002404Y006469D01*
X002360Y006493D01*
X002319Y006520D01*
X002279Y006550D01*
X002242Y006584D01*
X002208Y006620D01*
X002177Y006659D01*
X002149Y006700D01*
X002125Y006743D01*
X002104Y006788D01*
X002086Y006835D01*
X002073Y006882D01*
X002063Y006931D01*
X002057Y006980D01*
X002055Y007030D01*
X003413Y009364D02*
X003415Y009390D01*
X003421Y009416D01*
X003431Y009441D01*
X003444Y009464D01*
X003460Y009484D01*
X003480Y009502D01*
X003502Y009517D01*
X003525Y009529D01*
X003551Y009537D01*
X003577Y009541D01*
X003603Y009541D01*
X003629Y009537D01*
X003655Y009529D01*
X003679Y009517D01*
X003700Y009502D01*
X003720Y009484D01*
X003736Y009464D01*
X003749Y009441D01*
X003759Y009416D01*
X003765Y009390D01*
X003767Y009364D01*
X003765Y009338D01*
X003759Y009312D01*
X003749Y009287D01*
X003736Y009264D01*
X003720Y009244D01*
X003700Y009226D01*
X003678Y009211D01*
X003655Y009199D01*
X003629Y009191D01*
X003603Y009187D01*
X003577Y009187D01*
X003551Y009191D01*
X003525Y009199D01*
X003501Y009211D01*
X003480Y009226D01*
X003460Y009244D01*
X003444Y009264D01*
X003431Y009287D01*
X003421Y009312D01*
X003415Y009338D01*
X003413Y009364D01*
X003413Y011096D02*
X003415Y011122D01*
X003421Y011148D01*
X003431Y011173D01*
X003444Y011196D01*
X003460Y011216D01*
X003480Y011234D01*
X003502Y011249D01*
X003525Y011261D01*
X003551Y011269D01*
X003577Y011273D01*
X003603Y011273D01*
X003629Y011269D01*
X003655Y011261D01*
X003679Y011249D01*
X003700Y011234D01*
X003720Y011216D01*
X003736Y011196D01*
X003749Y011173D01*
X003759Y011148D01*
X003765Y011122D01*
X003767Y011096D01*
X003765Y011070D01*
X003759Y011044D01*
X003749Y011019D01*
X003736Y010996D01*
X003720Y010976D01*
X003700Y010958D01*
X003678Y010943D01*
X003655Y010931D01*
X003629Y010923D01*
X003603Y010919D01*
X003577Y010919D01*
X003551Y010923D01*
X003525Y010931D01*
X003501Y010943D01*
X003480Y010958D01*
X003460Y010976D01*
X003444Y010996D01*
X003431Y011019D01*
X003421Y011044D01*
X003415Y011070D01*
X003413Y011096D01*
X012650Y017490D02*
X012652Y017534D01*
X012658Y017577D01*
X012668Y017620D01*
X012681Y017662D01*
X012699Y017703D01*
X012719Y017741D01*
X012744Y017778D01*
X012771Y017812D01*
X012801Y017844D01*
X012834Y017873D01*
X012870Y017899D01*
X012908Y017921D01*
X012947Y017941D01*
X012989Y017956D01*
X013031Y017968D01*
X013074Y017976D01*
X013118Y017980D01*
X013162Y017980D01*
X013206Y017976D01*
X013249Y017968D01*
X013291Y017956D01*
X013333Y017941D01*
X013372Y017921D01*
X013410Y017899D01*
X013446Y017873D01*
X013479Y017844D01*
X013509Y017812D01*
X013536Y017778D01*
X013561Y017741D01*
X013581Y017703D01*
X013599Y017662D01*
X013612Y017620D01*
X013622Y017577D01*
X013628Y017534D01*
X013630Y017490D01*
X013628Y017446D01*
X013622Y017403D01*
X013612Y017360D01*
X013599Y017318D01*
X013581Y017277D01*
X013561Y017239D01*
X013536Y017202D01*
X013509Y017168D01*
X013479Y017136D01*
X013446Y017107D01*
X013410Y017081D01*
X013372Y017059D01*
X013333Y017039D01*
X013291Y017024D01*
X013249Y017012D01*
X013206Y017004D01*
X013162Y017000D01*
X013118Y017000D01*
X013074Y017004D01*
X013031Y017012D01*
X012989Y017024D01*
X012947Y017039D01*
X012908Y017059D01*
X012870Y017081D01*
X012834Y017107D01*
X012801Y017136D01*
X012771Y017168D01*
X012744Y017202D01*
X012719Y017239D01*
X012699Y017277D01*
X012681Y017318D01*
X012668Y017360D01*
X012658Y017403D01*
X012652Y017446D01*
X012650Y017490D01*
X021660Y011240D02*
X021662Y011284D01*
X021668Y011327D01*
X021678Y011370D01*
X021691Y011412D01*
X021709Y011453D01*
X021729Y011491D01*
X021754Y011528D01*
X021781Y011562D01*
X021811Y011594D01*
X021844Y011623D01*
X021880Y011649D01*
X021918Y011671D01*
X021957Y011691D01*
X021999Y011706D01*
X022041Y011718D01*
X022084Y011726D01*
X022128Y011730D01*
X022172Y011730D01*
X022216Y011726D01*
X022259Y011718D01*
X022301Y011706D01*
X022343Y011691D01*
X022382Y011671D01*
X022420Y011649D01*
X022456Y011623D01*
X022489Y011594D01*
X022519Y011562D01*
X022546Y011528D01*
X022571Y011491D01*
X022591Y011453D01*
X022609Y011412D01*
X022622Y011370D01*
X022632Y011327D01*
X022638Y011284D01*
X022640Y011240D01*
X022638Y011196D01*
X022632Y011153D01*
X022622Y011110D01*
X022609Y011068D01*
X022591Y011027D01*
X022571Y010989D01*
X022546Y010952D01*
X022519Y010918D01*
X022489Y010886D01*
X022456Y010857D01*
X022420Y010831D01*
X022382Y010809D01*
X022343Y010789D01*
X022301Y010774D01*
X022259Y010762D01*
X022216Y010754D01*
X022172Y010750D01*
X022128Y010750D01*
X022084Y010754D01*
X022041Y010762D01*
X021999Y010774D01*
X021957Y010789D01*
X021918Y010809D01*
X021880Y010831D01*
X021844Y010857D01*
X021811Y010886D01*
X021781Y010918D01*
X021754Y010952D01*
X021729Y010989D01*
X021709Y011027D01*
X021691Y011068D01*
X021678Y011110D01*
X021668Y011153D01*
X021662Y011196D01*
X021660Y011240D01*
X039140Y018480D02*
X039142Y018524D01*
X039148Y018567D01*
X039158Y018610D01*
X039171Y018652D01*
X039189Y018693D01*
X039209Y018731D01*
X039234Y018768D01*
X039261Y018802D01*
X039291Y018834D01*
X039324Y018863D01*
X039360Y018889D01*
X039398Y018911D01*
X039437Y018931D01*
X039479Y018946D01*
X039521Y018958D01*
X039564Y018966D01*
X039608Y018970D01*
X039652Y018970D01*
X039696Y018966D01*
X039739Y018958D01*
X039781Y018946D01*
X039823Y018931D01*
X039862Y018911D01*
X039900Y018889D01*
X039936Y018863D01*
X039969Y018834D01*
X039999Y018802D01*
X040026Y018768D01*
X040051Y018731D01*
X040071Y018693D01*
X040089Y018652D01*
X040102Y018610D01*
X040112Y018567D01*
X040118Y018524D01*
X040120Y018480D01*
X040118Y018436D01*
X040112Y018393D01*
X040102Y018350D01*
X040089Y018308D01*
X040071Y018267D01*
X040051Y018229D01*
X040026Y018192D01*
X039999Y018158D01*
X039969Y018126D01*
X039936Y018097D01*
X039900Y018071D01*
X039862Y018049D01*
X039823Y018029D01*
X039781Y018014D01*
X039739Y018002D01*
X039696Y017994D01*
X039652Y017990D01*
X039608Y017990D01*
X039564Y017994D01*
X039521Y018002D01*
X039479Y018014D01*
X039437Y018029D01*
X039398Y018049D01*
X039360Y018071D01*
X039324Y018097D01*
X039291Y018126D01*
X039261Y018158D01*
X039234Y018192D01*
X039209Y018229D01*
X039189Y018267D01*
X039171Y018308D01*
X039158Y018350D01*
X039148Y018393D01*
X039142Y018436D01*
X039140Y018480D01*
X051055Y028030D02*
X051057Y028080D01*
X051063Y028129D01*
X051073Y028178D01*
X051086Y028225D01*
X051104Y028272D01*
X051125Y028317D01*
X051149Y028360D01*
X051177Y028401D01*
X051208Y028440D01*
X051242Y028476D01*
X051279Y028510D01*
X051319Y028540D01*
X051360Y028567D01*
X051404Y028591D01*
X051449Y028611D01*
X051496Y028627D01*
X051544Y028640D01*
X051593Y028649D01*
X051643Y028654D01*
X051692Y028655D01*
X051742Y028652D01*
X051791Y028645D01*
X051840Y028634D01*
X051887Y028620D01*
X051933Y028601D01*
X051978Y028579D01*
X052021Y028554D01*
X052061Y028525D01*
X052099Y028493D01*
X052135Y028459D01*
X052168Y028421D01*
X052197Y028381D01*
X052223Y028339D01*
X052246Y028295D01*
X052265Y028249D01*
X052281Y028202D01*
X052293Y028153D01*
X052301Y028104D01*
X052305Y028055D01*
X052305Y028005D01*
X052301Y027956D01*
X052293Y027907D01*
X052281Y027858D01*
X052265Y027811D01*
X052246Y027765D01*
X052223Y027721D01*
X052197Y027679D01*
X052168Y027639D01*
X052135Y027601D01*
X052099Y027567D01*
X052061Y027535D01*
X052021Y027506D01*
X051978Y027481D01*
X051933Y027459D01*
X051887Y027440D01*
X051840Y027426D01*
X051791Y027415D01*
X051742Y027408D01*
X051692Y027405D01*
X051643Y027406D01*
X051593Y027411D01*
X051544Y027420D01*
X051496Y027433D01*
X051449Y027449D01*
X051404Y027469D01*
X051360Y027493D01*
X051319Y027520D01*
X051279Y027550D01*
X051242Y027584D01*
X051208Y027620D01*
X051177Y027659D01*
X051149Y027700D01*
X051125Y027743D01*
X051104Y027788D01*
X051086Y027835D01*
X051073Y027882D01*
X051063Y027931D01*
X051057Y027980D01*
X051055Y028030D01*
X051055Y007030D02*
X051057Y007080D01*
X051063Y007129D01*
X051073Y007178D01*
X051086Y007225D01*
X051104Y007272D01*
X051125Y007317D01*
X051149Y007360D01*
X051177Y007401D01*
X051208Y007440D01*
X051242Y007476D01*
X051279Y007510D01*
X051319Y007540D01*
X051360Y007567D01*
X051404Y007591D01*
X051449Y007611D01*
X051496Y007627D01*
X051544Y007640D01*
X051593Y007649D01*
X051643Y007654D01*
X051692Y007655D01*
X051742Y007652D01*
X051791Y007645D01*
X051840Y007634D01*
X051887Y007620D01*
X051933Y007601D01*
X051978Y007579D01*
X052021Y007554D01*
X052061Y007525D01*
X052099Y007493D01*
X052135Y007459D01*
X052168Y007421D01*
X052197Y007381D01*
X052223Y007339D01*
X052246Y007295D01*
X052265Y007249D01*
X052281Y007202D01*
X052293Y007153D01*
X052301Y007104D01*
X052305Y007055D01*
X052305Y007005D01*
X052301Y006956D01*
X052293Y006907D01*
X052281Y006858D01*
X052265Y006811D01*
X052246Y006765D01*
X052223Y006721D01*
X052197Y006679D01*
X052168Y006639D01*
X052135Y006601D01*
X052099Y006567D01*
X052061Y006535D01*
X052021Y006506D01*
X051978Y006481D01*
X051933Y006459D01*
X051887Y006440D01*
X051840Y006426D01*
X051791Y006415D01*
X051742Y006408D01*
X051692Y006405D01*
X051643Y006406D01*
X051593Y006411D01*
X051544Y006420D01*
X051496Y006433D01*
X051449Y006449D01*
X051404Y006469D01*
X051360Y006493D01*
X051319Y006520D01*
X051279Y006550D01*
X051242Y006584D01*
X051208Y006620D01*
X051177Y006659D01*
X051149Y006700D01*
X051125Y006743D01*
X051104Y006788D01*
X051086Y006835D01*
X051073Y006882D01*
X051063Y006931D01*
X051057Y006980D01*
X051055Y007030D01*
X002055Y028030D02*
X002057Y028080D01*
X002063Y028129D01*
X002073Y028178D01*
X002086Y028225D01*
X002104Y028272D01*
X002125Y028317D01*
X002149Y028360D01*
X002177Y028401D01*
X002208Y028440D01*
X002242Y028476D01*
X002279Y028510D01*
X002319Y028540D01*
X002360Y028567D01*
X002404Y028591D01*
X002449Y028611D01*
X002496Y028627D01*
X002544Y028640D01*
X002593Y028649D01*
X002643Y028654D01*
X002692Y028655D01*
X002742Y028652D01*
X002791Y028645D01*
X002840Y028634D01*
X002887Y028620D01*
X002933Y028601D01*
X002978Y028579D01*
X003021Y028554D01*
X003061Y028525D01*
X003099Y028493D01*
X003135Y028459D01*
X003168Y028421D01*
X003197Y028381D01*
X003223Y028339D01*
X003246Y028295D01*
X003265Y028249D01*
X003281Y028202D01*
X003293Y028153D01*
X003301Y028104D01*
X003305Y028055D01*
X003305Y028005D01*
X003301Y027956D01*
X003293Y027907D01*
X003281Y027858D01*
X003265Y027811D01*
X003246Y027765D01*
X003223Y027721D01*
X003197Y027679D01*
X003168Y027639D01*
X003135Y027601D01*
X003099Y027567D01*
X003061Y027535D01*
X003021Y027506D01*
X002978Y027481D01*
X002933Y027459D01*
X002887Y027440D01*
X002840Y027426D01*
X002791Y027415D01*
X002742Y027408D01*
X002692Y027405D01*
X002643Y027406D01*
X002593Y027411D01*
X002544Y027420D01*
X002496Y027433D01*
X002449Y027449D01*
X002404Y027469D01*
X002360Y027493D01*
X002319Y027520D01*
X002279Y027550D01*
X002242Y027584D01*
X002208Y027620D01*
X002177Y027659D01*
X002149Y027700D01*
X002125Y027743D01*
X002104Y027788D01*
X002086Y027835D01*
X002073Y027882D01*
X002063Y027931D01*
X002057Y027980D01*
X002055Y028030D01*
D12*
X003683Y026830D03*
X004077Y026830D03*
X004077Y026330D03*
X003683Y026330D03*
X002880Y025327D03*
X002880Y024933D03*
X002280Y024933D03*
X002280Y025327D03*
X003380Y023627D03*
X003380Y023233D03*
X005180Y020927D03*
X005180Y020533D03*
X004680Y020327D03*
X004680Y019933D03*
X004680Y019127D03*
X004680Y018733D03*
X005980Y019233D03*
X005980Y019627D03*
X006380Y019627D03*
X006380Y019233D03*
X006780Y019233D03*
X006780Y019627D03*
X007380Y019627D03*
X007380Y019233D03*
X007780Y019233D03*
X007780Y019627D03*
X008180Y019627D03*
X008180Y019233D03*
X008580Y019233D03*
X008580Y019627D03*
X006077Y017530D03*
X005683Y017530D03*
X005683Y017030D03*
X006077Y017030D03*
X005577Y013630D03*
X005183Y013630D03*
X005883Y010630D03*
X006277Y010630D03*
X006277Y010180D03*
X005883Y010180D03*
X013990Y013163D03*
X013990Y013557D03*
X013990Y013923D03*
X013990Y014317D03*
X015180Y013127D03*
X015180Y012733D03*
X017490Y013533D03*
X017490Y013927D03*
X019456Y013137D03*
X019456Y012744D03*
X020344Y012746D03*
X020344Y013140D03*
X018035Y016596D03*
X018035Y016990D03*
X018021Y018412D03*
X018021Y018806D03*
X018204Y019835D03*
X018204Y020229D03*
X018197Y020739D03*
X018197Y021132D03*
X017271Y019872D03*
X016877Y019872D03*
X015791Y019274D03*
X015397Y019274D03*
X014656Y018493D03*
X014656Y018099D03*
X014680Y016759D03*
X014680Y016365D03*
X014596Y020578D03*
X014596Y020971D03*
X014056Y020971D03*
X014056Y020578D03*
X013477Y021585D03*
X013083Y021585D03*
X013079Y022291D03*
X013472Y022291D03*
X013469Y023019D03*
X013075Y023019D03*
X013068Y023835D03*
X013462Y023835D03*
X009280Y025133D03*
X009280Y025527D03*
X007980Y025933D03*
X007980Y026327D03*
X005380Y026327D03*
X005380Y025933D03*
X022030Y023999D03*
X022424Y023999D03*
X022930Y024004D03*
X023324Y024004D03*
X023297Y023581D03*
X023297Y023188D03*
X022016Y023186D03*
X022016Y023580D03*
X024220Y025954D03*
X024220Y026347D03*
X024917Y026940D03*
X024917Y027334D03*
X023505Y017926D03*
X023505Y017532D03*
X022739Y017534D03*
X022739Y017928D03*
X022028Y017925D03*
X022028Y017531D03*
X029636Y011162D03*
X030029Y011162D03*
X030036Y010651D03*
X029643Y010651D03*
X029638Y010156D03*
X029644Y009791D03*
X030037Y009791D03*
X030032Y010156D03*
X030616Y010148D03*
X030615Y009798D03*
X031008Y009798D03*
X031010Y010148D03*
X032509Y010147D03*
X032507Y009783D03*
X032900Y009783D03*
X032903Y010147D03*
X033461Y010163D03*
X033453Y009781D03*
X033846Y009781D03*
X033854Y010163D03*
X033852Y010664D03*
X033459Y010664D03*
X033445Y011180D03*
X033839Y011180D03*
X031847Y012158D03*
X031847Y012551D03*
X031374Y012558D03*
X031374Y012164D03*
X031423Y013100D03*
X031817Y013100D03*
X036367Y020434D03*
X036367Y020828D03*
X036371Y021147D03*
X036371Y021541D03*
X035741Y021174D03*
X035741Y020780D03*
X044413Y020330D03*
X044807Y020330D03*
X044812Y019565D03*
X044418Y019565D03*
X044408Y019115D03*
X044802Y019115D03*
X044782Y018565D03*
X044388Y018565D03*
X044378Y017555D03*
X044772Y017555D03*
X044782Y017055D03*
X044388Y017055D03*
X045075Y015587D03*
X045075Y015193D03*
X045075Y014787D03*
X045075Y014393D03*
X047978Y014690D03*
X048372Y014690D03*
X048372Y015290D03*
X047978Y015290D03*
X047978Y015790D03*
X048372Y015790D03*
X048860Y017613D03*
X048860Y018007D03*
X050700Y018133D03*
X050700Y018527D03*
X051160Y018527D03*
X051160Y018133D03*
X051160Y017527D03*
X051160Y017133D03*
X050700Y017133D03*
X050700Y017527D03*
X050700Y016527D03*
X050700Y016133D03*
X051160Y016133D03*
X051160Y016527D03*
X049357Y021880D03*
X048963Y021880D03*
X048248Y023225D03*
X048248Y023619D03*
X048309Y024032D03*
X047915Y024032D03*
X047395Y024038D03*
X047001Y024038D03*
X047008Y023649D03*
X047008Y023255D03*
X044777Y021930D03*
X044383Y021930D03*
X050760Y022133D03*
X050760Y022527D03*
X051180Y022527D03*
X051180Y022133D03*
X051180Y023133D03*
X051180Y023527D03*
X050750Y023527D03*
X050750Y023133D03*
X050750Y024133D03*
X050750Y024527D03*
X051180Y024527D03*
X051180Y024133D03*
D13*
X046749Y014952D03*
X046001Y014952D03*
X046001Y013928D03*
X046375Y013928D03*
X046749Y013928D03*
X004154Y024318D03*
X003780Y024318D03*
X003406Y024318D03*
X003406Y025342D03*
X003780Y025342D03*
X004154Y025342D03*
D14*
X007822Y023772D02*
X007822Y022488D01*
X006538Y022488D01*
X006538Y023772D01*
X007822Y023772D01*
X007822Y022915D02*
X006538Y022915D01*
X006538Y023342D02*
X007822Y023342D01*
X007822Y023769D02*
X006538Y023769D01*
D15*
X005553Y023782D02*
X005553Y023856D01*
X005553Y023782D02*
X005263Y023782D01*
X005263Y023856D01*
X005553Y023856D01*
X005553Y023806D02*
X005263Y023806D01*
X005263Y023830D02*
X005553Y023830D01*
X005553Y023854D02*
X005263Y023854D01*
X005553Y023979D02*
X005553Y024053D01*
X005553Y023979D02*
X005263Y023979D01*
X005263Y024053D01*
X005553Y024053D01*
X005553Y024003D02*
X005263Y024003D01*
X005263Y024027D02*
X005553Y024027D01*
X005553Y024051D02*
X005263Y024051D01*
X005553Y024176D02*
X005553Y024250D01*
X005553Y024176D02*
X005263Y024176D01*
X005263Y024250D01*
X005553Y024250D01*
X005553Y024200D02*
X005263Y024200D01*
X005263Y024224D02*
X005553Y024224D01*
X005553Y024248D02*
X005263Y024248D01*
X005553Y024373D02*
X005553Y024447D01*
X005553Y024373D02*
X005263Y024373D01*
X005263Y024447D01*
X005553Y024447D01*
X005553Y024397D02*
X005263Y024397D01*
X005263Y024421D02*
X005553Y024421D01*
X005553Y024445D02*
X005263Y024445D01*
X005553Y024569D02*
X005553Y024643D01*
X005553Y024569D02*
X005263Y024569D01*
X005263Y024643D01*
X005553Y024643D01*
X005553Y024593D02*
X005263Y024593D01*
X005263Y024617D02*
X005553Y024617D01*
X005553Y024641D02*
X005263Y024641D01*
X005667Y024757D02*
X005741Y024757D01*
X005667Y024757D02*
X005667Y025047D01*
X005741Y025047D01*
X005741Y024757D01*
X005741Y024781D02*
X005667Y024781D01*
X005667Y024805D02*
X005741Y024805D01*
X005741Y024829D02*
X005667Y024829D01*
X005667Y024853D02*
X005741Y024853D01*
X005741Y024877D02*
X005667Y024877D01*
X005667Y024901D02*
X005741Y024901D01*
X005741Y024925D02*
X005667Y024925D01*
X005667Y024949D02*
X005741Y024949D01*
X005741Y024973D02*
X005667Y024973D01*
X005667Y024997D02*
X005741Y024997D01*
X005741Y025021D02*
X005667Y025021D01*
X005667Y025045D02*
X005741Y025045D01*
X005863Y024757D02*
X005937Y024757D01*
X005863Y024757D02*
X005863Y025047D01*
X005937Y025047D01*
X005937Y024757D01*
X005937Y024781D02*
X005863Y024781D01*
X005863Y024805D02*
X005937Y024805D01*
X005937Y024829D02*
X005863Y024829D01*
X005863Y024853D02*
X005937Y024853D01*
X005937Y024877D02*
X005863Y024877D01*
X005863Y024901D02*
X005937Y024901D01*
X005937Y024925D02*
X005863Y024925D01*
X005863Y024949D02*
X005937Y024949D01*
X005937Y024973D02*
X005863Y024973D01*
X005863Y024997D02*
X005937Y024997D01*
X005937Y025021D02*
X005863Y025021D01*
X005863Y025045D02*
X005937Y025045D01*
X006060Y024757D02*
X006134Y024757D01*
X006060Y024757D02*
X006060Y025047D01*
X006134Y025047D01*
X006134Y024757D01*
X006134Y024781D02*
X006060Y024781D01*
X006060Y024805D02*
X006134Y024805D01*
X006134Y024829D02*
X006060Y024829D01*
X006060Y024853D02*
X006134Y024853D01*
X006134Y024877D02*
X006060Y024877D01*
X006060Y024901D02*
X006134Y024901D01*
X006134Y024925D02*
X006060Y024925D01*
X006060Y024949D02*
X006134Y024949D01*
X006134Y024973D02*
X006060Y024973D01*
X006060Y024997D02*
X006134Y024997D01*
X006134Y025021D02*
X006060Y025021D01*
X006060Y025045D02*
X006134Y025045D01*
X006257Y024757D02*
X006331Y024757D01*
X006257Y024757D02*
X006257Y025047D01*
X006331Y025047D01*
X006331Y024757D01*
X006331Y024781D02*
X006257Y024781D01*
X006257Y024805D02*
X006331Y024805D01*
X006331Y024829D02*
X006257Y024829D01*
X006257Y024853D02*
X006331Y024853D01*
X006331Y024877D02*
X006257Y024877D01*
X006257Y024901D02*
X006331Y024901D01*
X006331Y024925D02*
X006257Y024925D01*
X006257Y024949D02*
X006331Y024949D01*
X006331Y024973D02*
X006257Y024973D01*
X006257Y024997D02*
X006331Y024997D01*
X006331Y025021D02*
X006257Y025021D01*
X006257Y025045D02*
X006331Y025045D01*
X006454Y024757D02*
X006528Y024757D01*
X006454Y024757D02*
X006454Y025047D01*
X006528Y025047D01*
X006528Y024757D01*
X006528Y024781D02*
X006454Y024781D01*
X006454Y024805D02*
X006528Y024805D01*
X006528Y024829D02*
X006454Y024829D01*
X006454Y024853D02*
X006528Y024853D01*
X006528Y024877D02*
X006454Y024877D01*
X006454Y024901D02*
X006528Y024901D01*
X006528Y024925D02*
X006454Y024925D01*
X006454Y024949D02*
X006528Y024949D01*
X006528Y024973D02*
X006454Y024973D01*
X006454Y024997D02*
X006528Y024997D01*
X006528Y025021D02*
X006454Y025021D01*
X006454Y025045D02*
X006528Y025045D01*
X006651Y024757D02*
X006725Y024757D01*
X006651Y024757D02*
X006651Y025047D01*
X006725Y025047D01*
X006725Y024757D01*
X006725Y024781D02*
X006651Y024781D01*
X006651Y024805D02*
X006725Y024805D01*
X006725Y024829D02*
X006651Y024829D01*
X006651Y024853D02*
X006725Y024853D01*
X006725Y024877D02*
X006651Y024877D01*
X006651Y024901D02*
X006725Y024901D01*
X006725Y024925D02*
X006651Y024925D01*
X006651Y024949D02*
X006725Y024949D01*
X006725Y024973D02*
X006651Y024973D01*
X006651Y024997D02*
X006725Y024997D01*
X006725Y025021D02*
X006651Y025021D01*
X006651Y025045D02*
X006725Y025045D01*
X006848Y024757D02*
X006922Y024757D01*
X006848Y024757D02*
X006848Y025047D01*
X006922Y025047D01*
X006922Y024757D01*
X006922Y024781D02*
X006848Y024781D01*
X006848Y024805D02*
X006922Y024805D01*
X006922Y024829D02*
X006848Y024829D01*
X006848Y024853D02*
X006922Y024853D01*
X006922Y024877D02*
X006848Y024877D01*
X006848Y024901D02*
X006922Y024901D01*
X006922Y024925D02*
X006848Y024925D01*
X006848Y024949D02*
X006922Y024949D01*
X006922Y024973D02*
X006848Y024973D01*
X006848Y024997D02*
X006922Y024997D01*
X006922Y025021D02*
X006848Y025021D01*
X006848Y025045D02*
X006922Y025045D01*
X007045Y024757D02*
X007119Y024757D01*
X007045Y024757D02*
X007045Y025047D01*
X007119Y025047D01*
X007119Y024757D01*
X007119Y024781D02*
X007045Y024781D01*
X007045Y024805D02*
X007119Y024805D01*
X007119Y024829D02*
X007045Y024829D01*
X007045Y024853D02*
X007119Y024853D01*
X007119Y024877D02*
X007045Y024877D01*
X007045Y024901D02*
X007119Y024901D01*
X007119Y024925D02*
X007045Y024925D01*
X007045Y024949D02*
X007119Y024949D01*
X007119Y024973D02*
X007045Y024973D01*
X007045Y024997D02*
X007119Y024997D01*
X007119Y025021D02*
X007045Y025021D01*
X007045Y025045D02*
X007119Y025045D01*
X007241Y024757D02*
X007315Y024757D01*
X007241Y024757D02*
X007241Y025047D01*
X007315Y025047D01*
X007315Y024757D01*
X007315Y024781D02*
X007241Y024781D01*
X007241Y024805D02*
X007315Y024805D01*
X007315Y024829D02*
X007241Y024829D01*
X007241Y024853D02*
X007315Y024853D01*
X007315Y024877D02*
X007241Y024877D01*
X007241Y024901D02*
X007315Y024901D01*
X007315Y024925D02*
X007241Y024925D01*
X007241Y024949D02*
X007315Y024949D01*
X007315Y024973D02*
X007241Y024973D01*
X007241Y024997D02*
X007315Y024997D01*
X007315Y025021D02*
X007241Y025021D01*
X007241Y025045D02*
X007315Y025045D01*
X007438Y024757D02*
X007512Y024757D01*
X007438Y024757D02*
X007438Y025047D01*
X007512Y025047D01*
X007512Y024757D01*
X007512Y024781D02*
X007438Y024781D01*
X007438Y024805D02*
X007512Y024805D01*
X007512Y024829D02*
X007438Y024829D01*
X007438Y024853D02*
X007512Y024853D01*
X007512Y024877D02*
X007438Y024877D01*
X007438Y024901D02*
X007512Y024901D01*
X007512Y024925D02*
X007438Y024925D01*
X007438Y024949D02*
X007512Y024949D01*
X007512Y024973D02*
X007438Y024973D01*
X007438Y024997D02*
X007512Y024997D01*
X007512Y025021D02*
X007438Y025021D01*
X007438Y025045D02*
X007512Y025045D01*
X007635Y024757D02*
X007709Y024757D01*
X007635Y024757D02*
X007635Y025047D01*
X007709Y025047D01*
X007709Y024757D01*
X007709Y024781D02*
X007635Y024781D01*
X007635Y024805D02*
X007709Y024805D01*
X007709Y024829D02*
X007635Y024829D01*
X007635Y024853D02*
X007709Y024853D01*
X007709Y024877D02*
X007635Y024877D01*
X007635Y024901D02*
X007709Y024901D01*
X007709Y024925D02*
X007635Y024925D01*
X007635Y024949D02*
X007709Y024949D01*
X007709Y024973D02*
X007635Y024973D01*
X007635Y024997D02*
X007709Y024997D01*
X007709Y025021D02*
X007635Y025021D01*
X007635Y025045D02*
X007709Y025045D01*
X007832Y024757D02*
X007906Y024757D01*
X007832Y024757D02*
X007832Y025047D01*
X007906Y025047D01*
X007906Y024757D01*
X007906Y024781D02*
X007832Y024781D01*
X007832Y024805D02*
X007906Y024805D01*
X007906Y024829D02*
X007832Y024829D01*
X007832Y024853D02*
X007906Y024853D01*
X007906Y024877D02*
X007832Y024877D01*
X007832Y024901D02*
X007906Y024901D01*
X007906Y024925D02*
X007832Y024925D01*
X007832Y024949D02*
X007906Y024949D01*
X007906Y024973D02*
X007832Y024973D01*
X007832Y024997D02*
X007906Y024997D01*
X007906Y025021D02*
X007832Y025021D01*
X007832Y025045D02*
X007906Y025045D01*
X008029Y024757D02*
X008103Y024757D01*
X008029Y024757D02*
X008029Y025047D01*
X008103Y025047D01*
X008103Y024757D01*
X008103Y024781D02*
X008029Y024781D01*
X008029Y024805D02*
X008103Y024805D01*
X008103Y024829D02*
X008029Y024829D01*
X008029Y024853D02*
X008103Y024853D01*
X008103Y024877D02*
X008029Y024877D01*
X008029Y024901D02*
X008103Y024901D01*
X008103Y024925D02*
X008029Y024925D01*
X008029Y024949D02*
X008103Y024949D01*
X008103Y024973D02*
X008029Y024973D01*
X008029Y024997D02*
X008103Y024997D01*
X008103Y025021D02*
X008029Y025021D01*
X008029Y025045D02*
X008103Y025045D01*
X008226Y024757D02*
X008300Y024757D01*
X008226Y024757D02*
X008226Y025047D01*
X008300Y025047D01*
X008300Y024757D01*
X008300Y024781D02*
X008226Y024781D01*
X008226Y024805D02*
X008300Y024805D01*
X008300Y024829D02*
X008226Y024829D01*
X008226Y024853D02*
X008300Y024853D01*
X008300Y024877D02*
X008226Y024877D01*
X008226Y024901D02*
X008300Y024901D01*
X008300Y024925D02*
X008226Y024925D01*
X008226Y024949D02*
X008300Y024949D01*
X008300Y024973D02*
X008226Y024973D01*
X008226Y024997D02*
X008300Y024997D01*
X008300Y025021D02*
X008226Y025021D01*
X008226Y025045D02*
X008300Y025045D01*
X008423Y024757D02*
X008497Y024757D01*
X008423Y024757D02*
X008423Y025047D01*
X008497Y025047D01*
X008497Y024757D01*
X008497Y024781D02*
X008423Y024781D01*
X008423Y024805D02*
X008497Y024805D01*
X008497Y024829D02*
X008423Y024829D01*
X008423Y024853D02*
X008497Y024853D01*
X008497Y024877D02*
X008423Y024877D01*
X008423Y024901D02*
X008497Y024901D01*
X008497Y024925D02*
X008423Y024925D01*
X008423Y024949D02*
X008497Y024949D01*
X008497Y024973D02*
X008423Y024973D01*
X008423Y024997D02*
X008497Y024997D01*
X008497Y025021D02*
X008423Y025021D01*
X008423Y025045D02*
X008497Y025045D01*
X008619Y024757D02*
X008693Y024757D01*
X008619Y024757D02*
X008619Y025047D01*
X008693Y025047D01*
X008693Y024757D01*
X008693Y024781D02*
X008619Y024781D01*
X008619Y024805D02*
X008693Y024805D01*
X008693Y024829D02*
X008619Y024829D01*
X008619Y024853D02*
X008693Y024853D01*
X008693Y024877D02*
X008619Y024877D01*
X008619Y024901D02*
X008693Y024901D01*
X008693Y024925D02*
X008619Y024925D01*
X008619Y024949D02*
X008693Y024949D01*
X008693Y024973D02*
X008619Y024973D01*
X008619Y024997D02*
X008693Y024997D01*
X008693Y025021D02*
X008619Y025021D01*
X008619Y025045D02*
X008693Y025045D01*
X008807Y024643D02*
X008807Y024569D01*
X008807Y024643D02*
X009097Y024643D01*
X009097Y024569D01*
X008807Y024569D01*
X008807Y024593D02*
X009097Y024593D01*
X009097Y024617D02*
X008807Y024617D01*
X008807Y024641D02*
X009097Y024641D01*
X008807Y024447D02*
X008807Y024373D01*
X008807Y024447D02*
X009097Y024447D01*
X009097Y024373D01*
X008807Y024373D01*
X008807Y024397D02*
X009097Y024397D01*
X009097Y024421D02*
X008807Y024421D01*
X008807Y024445D02*
X009097Y024445D01*
X008807Y024250D02*
X008807Y024176D01*
X008807Y024250D02*
X009097Y024250D01*
X009097Y024176D01*
X008807Y024176D01*
X008807Y024200D02*
X009097Y024200D01*
X009097Y024224D02*
X008807Y024224D01*
X008807Y024248D02*
X009097Y024248D01*
X008807Y024053D02*
X008807Y023979D01*
X008807Y024053D02*
X009097Y024053D01*
X009097Y023979D01*
X008807Y023979D01*
X008807Y024003D02*
X009097Y024003D01*
X009097Y024027D02*
X008807Y024027D01*
X008807Y024051D02*
X009097Y024051D01*
X008807Y023856D02*
X008807Y023782D01*
X008807Y023856D02*
X009097Y023856D01*
X009097Y023782D01*
X008807Y023782D01*
X008807Y023806D02*
X009097Y023806D01*
X009097Y023830D02*
X008807Y023830D01*
X008807Y023854D02*
X009097Y023854D01*
X008807Y023659D02*
X008807Y023585D01*
X008807Y023659D02*
X009097Y023659D01*
X009097Y023585D01*
X008807Y023585D01*
X008807Y023609D02*
X009097Y023609D01*
X009097Y023633D02*
X008807Y023633D01*
X008807Y023657D02*
X009097Y023657D01*
X008807Y023462D02*
X008807Y023388D01*
X008807Y023462D02*
X009097Y023462D01*
X009097Y023388D01*
X008807Y023388D01*
X008807Y023412D02*
X009097Y023412D01*
X009097Y023436D02*
X008807Y023436D01*
X008807Y023460D02*
X009097Y023460D01*
X008807Y023265D02*
X008807Y023191D01*
X008807Y023265D02*
X009097Y023265D01*
X009097Y023191D01*
X008807Y023191D01*
X008807Y023215D02*
X009097Y023215D01*
X009097Y023239D02*
X008807Y023239D01*
X008807Y023263D02*
X009097Y023263D01*
X008807Y023069D02*
X008807Y022995D01*
X008807Y023069D02*
X009097Y023069D01*
X009097Y022995D01*
X008807Y022995D01*
X008807Y023019D02*
X009097Y023019D01*
X009097Y023043D02*
X008807Y023043D01*
X008807Y023067D02*
X009097Y023067D01*
X008807Y022872D02*
X008807Y022798D01*
X008807Y022872D02*
X009097Y022872D01*
X009097Y022798D01*
X008807Y022798D01*
X008807Y022822D02*
X009097Y022822D01*
X009097Y022846D02*
X008807Y022846D01*
X008807Y022870D02*
X009097Y022870D01*
X008807Y022675D02*
X008807Y022601D01*
X008807Y022675D02*
X009097Y022675D01*
X009097Y022601D01*
X008807Y022601D01*
X008807Y022625D02*
X009097Y022625D01*
X009097Y022649D02*
X008807Y022649D01*
X008807Y022673D02*
X009097Y022673D01*
X008807Y022478D02*
X008807Y022404D01*
X008807Y022478D02*
X009097Y022478D01*
X009097Y022404D01*
X008807Y022404D01*
X008807Y022428D02*
X009097Y022428D01*
X009097Y022452D02*
X008807Y022452D01*
X008807Y022476D02*
X009097Y022476D01*
X008807Y022281D02*
X008807Y022207D01*
X008807Y022281D02*
X009097Y022281D01*
X009097Y022207D01*
X008807Y022207D01*
X008807Y022231D02*
X009097Y022231D01*
X009097Y022255D02*
X008807Y022255D01*
X008807Y022279D02*
X009097Y022279D01*
X008807Y022084D02*
X008807Y022010D01*
X008807Y022084D02*
X009097Y022084D01*
X009097Y022010D01*
X008807Y022010D01*
X008807Y022034D02*
X009097Y022034D01*
X009097Y022058D02*
X008807Y022058D01*
X008807Y022082D02*
X009097Y022082D01*
X008807Y021887D02*
X008807Y021813D01*
X008807Y021887D02*
X009097Y021887D01*
X009097Y021813D01*
X008807Y021813D01*
X008807Y021837D02*
X009097Y021837D01*
X009097Y021861D02*
X008807Y021861D01*
X008807Y021885D02*
X009097Y021885D01*
X008807Y021691D02*
X008807Y021617D01*
X008807Y021691D02*
X009097Y021691D01*
X009097Y021617D01*
X008807Y021617D01*
X008807Y021641D02*
X009097Y021641D01*
X009097Y021665D02*
X008807Y021665D01*
X008807Y021689D02*
X009097Y021689D01*
X008693Y021503D02*
X008619Y021503D01*
X008693Y021503D02*
X008693Y021213D01*
X008619Y021213D01*
X008619Y021503D01*
X008619Y021237D02*
X008693Y021237D01*
X008693Y021261D02*
X008619Y021261D01*
X008619Y021285D02*
X008693Y021285D01*
X008693Y021309D02*
X008619Y021309D01*
X008619Y021333D02*
X008693Y021333D01*
X008693Y021357D02*
X008619Y021357D01*
X008619Y021381D02*
X008693Y021381D01*
X008693Y021405D02*
X008619Y021405D01*
X008619Y021429D02*
X008693Y021429D01*
X008693Y021453D02*
X008619Y021453D01*
X008619Y021477D02*
X008693Y021477D01*
X008693Y021501D02*
X008619Y021501D01*
X008497Y021503D02*
X008423Y021503D01*
X008497Y021503D02*
X008497Y021213D01*
X008423Y021213D01*
X008423Y021503D01*
X008423Y021237D02*
X008497Y021237D01*
X008497Y021261D02*
X008423Y021261D01*
X008423Y021285D02*
X008497Y021285D01*
X008497Y021309D02*
X008423Y021309D01*
X008423Y021333D02*
X008497Y021333D01*
X008497Y021357D02*
X008423Y021357D01*
X008423Y021381D02*
X008497Y021381D01*
X008497Y021405D02*
X008423Y021405D01*
X008423Y021429D02*
X008497Y021429D01*
X008497Y021453D02*
X008423Y021453D01*
X008423Y021477D02*
X008497Y021477D01*
X008497Y021501D02*
X008423Y021501D01*
X008300Y021503D02*
X008226Y021503D01*
X008300Y021503D02*
X008300Y021213D01*
X008226Y021213D01*
X008226Y021503D01*
X008226Y021237D02*
X008300Y021237D01*
X008300Y021261D02*
X008226Y021261D01*
X008226Y021285D02*
X008300Y021285D01*
X008300Y021309D02*
X008226Y021309D01*
X008226Y021333D02*
X008300Y021333D01*
X008300Y021357D02*
X008226Y021357D01*
X008226Y021381D02*
X008300Y021381D01*
X008300Y021405D02*
X008226Y021405D01*
X008226Y021429D02*
X008300Y021429D01*
X008300Y021453D02*
X008226Y021453D01*
X008226Y021477D02*
X008300Y021477D01*
X008300Y021501D02*
X008226Y021501D01*
X008103Y021503D02*
X008029Y021503D01*
X008103Y021503D02*
X008103Y021213D01*
X008029Y021213D01*
X008029Y021503D01*
X008029Y021237D02*
X008103Y021237D01*
X008103Y021261D02*
X008029Y021261D01*
X008029Y021285D02*
X008103Y021285D01*
X008103Y021309D02*
X008029Y021309D01*
X008029Y021333D02*
X008103Y021333D01*
X008103Y021357D02*
X008029Y021357D01*
X008029Y021381D02*
X008103Y021381D01*
X008103Y021405D02*
X008029Y021405D01*
X008029Y021429D02*
X008103Y021429D01*
X008103Y021453D02*
X008029Y021453D01*
X008029Y021477D02*
X008103Y021477D01*
X008103Y021501D02*
X008029Y021501D01*
X007906Y021503D02*
X007832Y021503D01*
X007906Y021503D02*
X007906Y021213D01*
X007832Y021213D01*
X007832Y021503D01*
X007832Y021237D02*
X007906Y021237D01*
X007906Y021261D02*
X007832Y021261D01*
X007832Y021285D02*
X007906Y021285D01*
X007906Y021309D02*
X007832Y021309D01*
X007832Y021333D02*
X007906Y021333D01*
X007906Y021357D02*
X007832Y021357D01*
X007832Y021381D02*
X007906Y021381D01*
X007906Y021405D02*
X007832Y021405D01*
X007832Y021429D02*
X007906Y021429D01*
X007906Y021453D02*
X007832Y021453D01*
X007832Y021477D02*
X007906Y021477D01*
X007906Y021501D02*
X007832Y021501D01*
X007709Y021503D02*
X007635Y021503D01*
X007709Y021503D02*
X007709Y021213D01*
X007635Y021213D01*
X007635Y021503D01*
X007635Y021237D02*
X007709Y021237D01*
X007709Y021261D02*
X007635Y021261D01*
X007635Y021285D02*
X007709Y021285D01*
X007709Y021309D02*
X007635Y021309D01*
X007635Y021333D02*
X007709Y021333D01*
X007709Y021357D02*
X007635Y021357D01*
X007635Y021381D02*
X007709Y021381D01*
X007709Y021405D02*
X007635Y021405D01*
X007635Y021429D02*
X007709Y021429D01*
X007709Y021453D02*
X007635Y021453D01*
X007635Y021477D02*
X007709Y021477D01*
X007709Y021501D02*
X007635Y021501D01*
X007512Y021503D02*
X007438Y021503D01*
X007512Y021503D02*
X007512Y021213D01*
X007438Y021213D01*
X007438Y021503D01*
X007438Y021237D02*
X007512Y021237D01*
X007512Y021261D02*
X007438Y021261D01*
X007438Y021285D02*
X007512Y021285D01*
X007512Y021309D02*
X007438Y021309D01*
X007438Y021333D02*
X007512Y021333D01*
X007512Y021357D02*
X007438Y021357D01*
X007438Y021381D02*
X007512Y021381D01*
X007512Y021405D02*
X007438Y021405D01*
X007438Y021429D02*
X007512Y021429D01*
X007512Y021453D02*
X007438Y021453D01*
X007438Y021477D02*
X007512Y021477D01*
X007512Y021501D02*
X007438Y021501D01*
X007315Y021503D02*
X007241Y021503D01*
X007315Y021503D02*
X007315Y021213D01*
X007241Y021213D01*
X007241Y021503D01*
X007241Y021237D02*
X007315Y021237D01*
X007315Y021261D02*
X007241Y021261D01*
X007241Y021285D02*
X007315Y021285D01*
X007315Y021309D02*
X007241Y021309D01*
X007241Y021333D02*
X007315Y021333D01*
X007315Y021357D02*
X007241Y021357D01*
X007241Y021381D02*
X007315Y021381D01*
X007315Y021405D02*
X007241Y021405D01*
X007241Y021429D02*
X007315Y021429D01*
X007315Y021453D02*
X007241Y021453D01*
X007241Y021477D02*
X007315Y021477D01*
X007315Y021501D02*
X007241Y021501D01*
X007119Y021503D02*
X007045Y021503D01*
X007119Y021503D02*
X007119Y021213D01*
X007045Y021213D01*
X007045Y021503D01*
X007045Y021237D02*
X007119Y021237D01*
X007119Y021261D02*
X007045Y021261D01*
X007045Y021285D02*
X007119Y021285D01*
X007119Y021309D02*
X007045Y021309D01*
X007045Y021333D02*
X007119Y021333D01*
X007119Y021357D02*
X007045Y021357D01*
X007045Y021381D02*
X007119Y021381D01*
X007119Y021405D02*
X007045Y021405D01*
X007045Y021429D02*
X007119Y021429D01*
X007119Y021453D02*
X007045Y021453D01*
X007045Y021477D02*
X007119Y021477D01*
X007119Y021501D02*
X007045Y021501D01*
X006922Y021503D02*
X006848Y021503D01*
X006922Y021503D02*
X006922Y021213D01*
X006848Y021213D01*
X006848Y021503D01*
X006848Y021237D02*
X006922Y021237D01*
X006922Y021261D02*
X006848Y021261D01*
X006848Y021285D02*
X006922Y021285D01*
X006922Y021309D02*
X006848Y021309D01*
X006848Y021333D02*
X006922Y021333D01*
X006922Y021357D02*
X006848Y021357D01*
X006848Y021381D02*
X006922Y021381D01*
X006922Y021405D02*
X006848Y021405D01*
X006848Y021429D02*
X006922Y021429D01*
X006922Y021453D02*
X006848Y021453D01*
X006848Y021477D02*
X006922Y021477D01*
X006922Y021501D02*
X006848Y021501D01*
X006725Y021503D02*
X006651Y021503D01*
X006725Y021503D02*
X006725Y021213D01*
X006651Y021213D01*
X006651Y021503D01*
X006651Y021237D02*
X006725Y021237D01*
X006725Y021261D02*
X006651Y021261D01*
X006651Y021285D02*
X006725Y021285D01*
X006725Y021309D02*
X006651Y021309D01*
X006651Y021333D02*
X006725Y021333D01*
X006725Y021357D02*
X006651Y021357D01*
X006651Y021381D02*
X006725Y021381D01*
X006725Y021405D02*
X006651Y021405D01*
X006651Y021429D02*
X006725Y021429D01*
X006725Y021453D02*
X006651Y021453D01*
X006651Y021477D02*
X006725Y021477D01*
X006725Y021501D02*
X006651Y021501D01*
X006528Y021503D02*
X006454Y021503D01*
X006528Y021503D02*
X006528Y021213D01*
X006454Y021213D01*
X006454Y021503D01*
X006454Y021237D02*
X006528Y021237D01*
X006528Y021261D02*
X006454Y021261D01*
X006454Y021285D02*
X006528Y021285D01*
X006528Y021309D02*
X006454Y021309D01*
X006454Y021333D02*
X006528Y021333D01*
X006528Y021357D02*
X006454Y021357D01*
X006454Y021381D02*
X006528Y021381D01*
X006528Y021405D02*
X006454Y021405D01*
X006454Y021429D02*
X006528Y021429D01*
X006528Y021453D02*
X006454Y021453D01*
X006454Y021477D02*
X006528Y021477D01*
X006528Y021501D02*
X006454Y021501D01*
X006331Y021503D02*
X006257Y021503D01*
X006331Y021503D02*
X006331Y021213D01*
X006257Y021213D01*
X006257Y021503D01*
X006257Y021237D02*
X006331Y021237D01*
X006331Y021261D02*
X006257Y021261D01*
X006257Y021285D02*
X006331Y021285D01*
X006331Y021309D02*
X006257Y021309D01*
X006257Y021333D02*
X006331Y021333D01*
X006331Y021357D02*
X006257Y021357D01*
X006257Y021381D02*
X006331Y021381D01*
X006331Y021405D02*
X006257Y021405D01*
X006257Y021429D02*
X006331Y021429D01*
X006331Y021453D02*
X006257Y021453D01*
X006257Y021477D02*
X006331Y021477D01*
X006331Y021501D02*
X006257Y021501D01*
X006134Y021503D02*
X006060Y021503D01*
X006134Y021503D02*
X006134Y021213D01*
X006060Y021213D01*
X006060Y021503D01*
X006060Y021237D02*
X006134Y021237D01*
X006134Y021261D02*
X006060Y021261D01*
X006060Y021285D02*
X006134Y021285D01*
X006134Y021309D02*
X006060Y021309D01*
X006060Y021333D02*
X006134Y021333D01*
X006134Y021357D02*
X006060Y021357D01*
X006060Y021381D02*
X006134Y021381D01*
X006134Y021405D02*
X006060Y021405D01*
X006060Y021429D02*
X006134Y021429D01*
X006134Y021453D02*
X006060Y021453D01*
X006060Y021477D02*
X006134Y021477D01*
X006134Y021501D02*
X006060Y021501D01*
X005937Y021503D02*
X005863Y021503D01*
X005937Y021503D02*
X005937Y021213D01*
X005863Y021213D01*
X005863Y021503D01*
X005863Y021237D02*
X005937Y021237D01*
X005937Y021261D02*
X005863Y021261D01*
X005863Y021285D02*
X005937Y021285D01*
X005937Y021309D02*
X005863Y021309D01*
X005863Y021333D02*
X005937Y021333D01*
X005937Y021357D02*
X005863Y021357D01*
X005863Y021381D02*
X005937Y021381D01*
X005937Y021405D02*
X005863Y021405D01*
X005863Y021429D02*
X005937Y021429D01*
X005937Y021453D02*
X005863Y021453D01*
X005863Y021477D02*
X005937Y021477D01*
X005937Y021501D02*
X005863Y021501D01*
X005741Y021503D02*
X005667Y021503D01*
X005741Y021503D02*
X005741Y021213D01*
X005667Y021213D01*
X005667Y021503D01*
X005667Y021237D02*
X005741Y021237D01*
X005741Y021261D02*
X005667Y021261D01*
X005667Y021285D02*
X005741Y021285D01*
X005741Y021309D02*
X005667Y021309D01*
X005667Y021333D02*
X005741Y021333D01*
X005741Y021357D02*
X005667Y021357D01*
X005667Y021381D02*
X005741Y021381D01*
X005741Y021405D02*
X005667Y021405D01*
X005667Y021429D02*
X005741Y021429D01*
X005741Y021453D02*
X005667Y021453D01*
X005667Y021477D02*
X005741Y021477D01*
X005741Y021501D02*
X005667Y021501D01*
X005553Y021617D02*
X005553Y021691D01*
X005553Y021617D02*
X005263Y021617D01*
X005263Y021691D01*
X005553Y021691D01*
X005553Y021641D02*
X005263Y021641D01*
X005263Y021665D02*
X005553Y021665D01*
X005553Y021689D02*
X005263Y021689D01*
X005553Y021813D02*
X005553Y021887D01*
X005553Y021813D02*
X005263Y021813D01*
X005263Y021887D01*
X005553Y021887D01*
X005553Y021837D02*
X005263Y021837D01*
X005263Y021861D02*
X005553Y021861D01*
X005553Y021885D02*
X005263Y021885D01*
X005553Y022010D02*
X005553Y022084D01*
X005553Y022010D02*
X005263Y022010D01*
X005263Y022084D01*
X005553Y022084D01*
X005553Y022034D02*
X005263Y022034D01*
X005263Y022058D02*
X005553Y022058D01*
X005553Y022082D02*
X005263Y022082D01*
X005553Y022207D02*
X005553Y022281D01*
X005553Y022207D02*
X005263Y022207D01*
X005263Y022281D01*
X005553Y022281D01*
X005553Y022231D02*
X005263Y022231D01*
X005263Y022255D02*
X005553Y022255D01*
X005553Y022279D02*
X005263Y022279D01*
X005553Y022404D02*
X005553Y022478D01*
X005553Y022404D02*
X005263Y022404D01*
X005263Y022478D01*
X005553Y022478D01*
X005553Y022428D02*
X005263Y022428D01*
X005263Y022452D02*
X005553Y022452D01*
X005553Y022476D02*
X005263Y022476D01*
X005553Y022601D02*
X005553Y022675D01*
X005553Y022601D02*
X005263Y022601D01*
X005263Y022675D01*
X005553Y022675D01*
X005553Y022625D02*
X005263Y022625D01*
X005263Y022649D02*
X005553Y022649D01*
X005553Y022673D02*
X005263Y022673D01*
X005553Y022798D02*
X005553Y022872D01*
X005553Y022798D02*
X005263Y022798D01*
X005263Y022872D01*
X005553Y022872D01*
X005553Y022822D02*
X005263Y022822D01*
X005263Y022846D02*
X005553Y022846D01*
X005553Y022870D02*
X005263Y022870D01*
X005553Y022995D02*
X005553Y023069D01*
X005553Y022995D02*
X005263Y022995D01*
X005263Y023069D01*
X005553Y023069D01*
X005553Y023019D02*
X005263Y023019D01*
X005263Y023043D02*
X005553Y023043D01*
X005553Y023067D02*
X005263Y023067D01*
X005553Y023191D02*
X005553Y023265D01*
X005553Y023191D02*
X005263Y023191D01*
X005263Y023265D01*
X005553Y023265D01*
X005553Y023215D02*
X005263Y023215D01*
X005263Y023239D02*
X005553Y023239D01*
X005553Y023263D02*
X005263Y023263D01*
X005553Y023388D02*
X005553Y023462D01*
X005553Y023388D02*
X005263Y023388D01*
X005263Y023462D01*
X005553Y023462D01*
X005553Y023412D02*
X005263Y023412D01*
X005263Y023436D02*
X005553Y023436D01*
X005553Y023460D02*
X005263Y023460D01*
X005553Y023585D02*
X005553Y023659D01*
X005553Y023585D02*
X005263Y023585D01*
X005263Y023659D01*
X005553Y023659D01*
X005553Y023609D02*
X005263Y023609D01*
X005263Y023633D02*
X005553Y023633D01*
X005553Y023657D02*
X005263Y023657D01*
D16*
X007869Y018480D03*
X007869Y017980D03*
X007869Y017480D03*
X007869Y016980D03*
X007869Y016480D03*
X007869Y015980D03*
X007869Y015480D03*
X007869Y014980D03*
X007869Y014080D03*
X007869Y013580D03*
X007869Y013080D03*
X007869Y012580D03*
X007869Y012080D03*
X007869Y011580D03*
X007869Y011080D03*
X007869Y010580D03*
X011491Y010580D03*
X011491Y011080D03*
X011491Y011580D03*
X011491Y012080D03*
X011491Y012580D03*
X011491Y013080D03*
X011491Y013580D03*
X011491Y014080D03*
X011491Y014980D03*
X011491Y015480D03*
X011491Y015980D03*
X011491Y016480D03*
X011491Y016980D03*
X011491Y017480D03*
X011491Y017980D03*
X011491Y018480D03*
D17*
X011620Y022168D03*
X012211Y022168D03*
X012163Y023026D03*
X011572Y023026D03*
X011540Y023829D03*
X012130Y023829D03*
X006075Y018130D03*
X005485Y018130D03*
X002875Y026330D03*
X002875Y026830D03*
X002285Y026830D03*
X002285Y026330D03*
D18*
X003280Y021530D03*
X003280Y017730D03*
D19*
X009120Y017630D03*
X009120Y018530D03*
X010240Y018530D03*
X010240Y017630D03*
X010240Y016630D03*
X010240Y015630D03*
X010240Y014630D03*
X010240Y013630D03*
X010240Y012630D03*
X010240Y011630D03*
X010240Y010530D03*
X009120Y010530D03*
X009120Y011630D03*
X009120Y012630D03*
X009120Y013630D03*
X009120Y014630D03*
X009120Y015630D03*
X009120Y016630D03*
D20*
X003948Y013330D03*
X002412Y013330D03*
D21*
X014267Y022061D03*
X014267Y022435D03*
X014267Y022809D03*
X015291Y022809D03*
X015291Y022435D03*
X015291Y022061D03*
D22*
X045780Y022130D03*
X045780Y021874D03*
X045780Y021618D03*
X045780Y021362D03*
X045780Y021106D03*
X045780Y020850D03*
X045780Y020595D03*
X045780Y020339D03*
X048083Y020339D03*
X048083Y020595D03*
X048083Y020850D03*
X048083Y021106D03*
X048083Y021362D03*
X048083Y021618D03*
X048083Y021874D03*
X048083Y022130D03*
D23*
X048046Y018555D03*
X048046Y018055D03*
X048046Y017555D03*
X048046Y017055D03*
X045920Y017055D03*
X045920Y017555D03*
X045920Y018055D03*
X045920Y018555D03*
D24*
X043975Y015190D03*
X043975Y013690D03*
D25*
X043497Y012660D03*
X044993Y012660D03*
D26*
X047975Y012560D03*
X047975Y013820D03*
X002780Y014700D03*
X002780Y015960D03*
D27*
X004060Y015030D03*
X004060Y014833D03*
X004060Y014636D03*
X004060Y014439D03*
X004887Y014439D03*
X004887Y014636D03*
X004887Y014833D03*
X004887Y015030D03*
D28*
X004474Y014735D03*
D29*
X003850Y016030D03*
X005110Y016030D03*
D30*
X006062Y015815D03*
X006062Y014615D03*
D31*
X014386Y014525D03*
X014386Y014328D03*
X014386Y014132D03*
X014386Y013935D03*
X015174Y013935D03*
X015174Y014132D03*
X015174Y014328D03*
X015174Y014525D03*
D32*
X014780Y014230D03*
D33*
X014745Y014930D03*
X015415Y014930D03*
X015315Y013530D03*
X014645Y013530D03*
X016501Y019280D03*
X017171Y019280D03*
D34*
X014680Y012965D03*
X014680Y012295D03*
D35*
X016480Y013439D03*
X016480Y014621D03*
D36*
X028386Y017415D03*
X028701Y017415D03*
X029016Y017415D03*
X029331Y017415D03*
X029646Y017415D03*
X029961Y017415D03*
X030276Y017415D03*
X030590Y017415D03*
X030590Y017730D03*
X030276Y017730D03*
X030276Y018045D03*
X030590Y018045D03*
X030590Y018360D03*
X030276Y018360D03*
X030276Y018675D03*
X030590Y018675D03*
X030590Y018990D03*
X030276Y018990D03*
X029961Y018990D03*
X029961Y018675D03*
X029961Y018360D03*
X029961Y018045D03*
X029961Y017730D03*
X029646Y017730D03*
X029646Y018045D03*
X029646Y018360D03*
X029646Y018675D03*
X029646Y018990D03*
X029646Y019305D03*
X029961Y019305D03*
X029961Y019620D03*
X029961Y019935D03*
X029961Y020250D03*
X029961Y020565D03*
X029961Y020880D03*
X029961Y021195D03*
X029961Y021510D03*
X030276Y021510D03*
X030590Y021510D03*
X030590Y021825D03*
X030276Y021825D03*
X030276Y022140D03*
X030590Y022140D03*
X030590Y022455D03*
X030276Y022455D03*
X030276Y022770D03*
X030590Y022770D03*
X030590Y023085D03*
X030276Y023085D03*
X029961Y023085D03*
X029961Y022770D03*
X029961Y022455D03*
X029961Y022140D03*
X029961Y021825D03*
X029646Y021825D03*
X029646Y022140D03*
X029646Y022455D03*
X029646Y022770D03*
X029646Y023085D03*
X029331Y023085D03*
X029331Y022770D03*
X029331Y022455D03*
X029331Y022140D03*
X029331Y021825D03*
X029331Y021510D03*
X029646Y021510D03*
X029646Y021195D03*
X029646Y020880D03*
X029646Y020565D03*
X029646Y020250D03*
X029646Y019935D03*
X029646Y019620D03*
X029331Y019620D03*
X029331Y019305D03*
X029331Y018990D03*
X029331Y018675D03*
X029331Y018360D03*
X029331Y018045D03*
X029331Y017730D03*
X029016Y017730D03*
X029016Y018045D03*
X029016Y018360D03*
X029016Y018675D03*
X029016Y018990D03*
X029016Y019305D03*
X029016Y019620D03*
X029016Y019935D03*
X029331Y019935D03*
X029331Y020250D03*
X029331Y020565D03*
X029331Y020880D03*
X029331Y021195D03*
X029016Y021195D03*
X029016Y021510D03*
X029016Y021825D03*
X029016Y022140D03*
X029016Y022455D03*
X029016Y022770D03*
X029016Y023085D03*
X028701Y023085D03*
X028386Y023085D03*
X028386Y022770D03*
X028701Y022770D03*
X028701Y022455D03*
X028701Y022140D03*
X028701Y021825D03*
X028701Y021510D03*
X028701Y021195D03*
X028701Y020880D03*
X029016Y020880D03*
X029016Y020565D03*
X029016Y020250D03*
X028701Y020250D03*
X028701Y020565D03*
X028386Y020565D03*
X028386Y020880D03*
X028386Y021195D03*
X028386Y021510D03*
X028386Y021825D03*
X028386Y022140D03*
X028386Y022455D03*
X028386Y020250D03*
X028386Y019935D03*
X028701Y019935D03*
X028701Y019620D03*
X028701Y019305D03*
X028701Y018990D03*
X028701Y018675D03*
X028701Y018360D03*
X028701Y018045D03*
X028701Y017730D03*
X028386Y017730D03*
X028386Y018045D03*
X028386Y018360D03*
X028386Y018675D03*
X028386Y018990D03*
X028386Y019305D03*
X028386Y019620D03*
X030590Y019620D03*
X030590Y019935D03*
X030590Y020250D03*
X030590Y020565D03*
X030590Y020880D03*
X030905Y020880D03*
X030905Y020565D03*
X030905Y020250D03*
X030905Y019935D03*
X030905Y019620D03*
X031220Y019620D03*
X031220Y019935D03*
X031220Y020250D03*
X031220Y020565D03*
X031220Y020880D03*
X031535Y020880D03*
X031535Y020565D03*
X031535Y020250D03*
X031535Y019935D03*
X031535Y019620D03*
X031850Y019620D03*
X031850Y019935D03*
X031850Y020250D03*
X031850Y020565D03*
X031850Y020880D03*
X031850Y021510D03*
X031535Y021510D03*
X031220Y021510D03*
X030905Y021510D03*
X030905Y021825D03*
X030905Y022140D03*
X030905Y022455D03*
X030905Y022770D03*
X030905Y023085D03*
X031220Y023085D03*
X031220Y022770D03*
X031220Y022455D03*
X031220Y022140D03*
X031220Y021825D03*
X031535Y021825D03*
X031535Y022140D03*
X031535Y022455D03*
X031535Y022770D03*
X031535Y023085D03*
X031850Y023085D03*
X032165Y023085D03*
X032480Y023085D03*
X032795Y023085D03*
X033110Y023085D03*
X033425Y023085D03*
X033740Y023085D03*
X034055Y023085D03*
X034055Y022770D03*
X033740Y022770D03*
X033425Y022770D03*
X033110Y022770D03*
X032795Y022770D03*
X032480Y022770D03*
X032165Y022770D03*
X031850Y022770D03*
X031850Y022455D03*
X031850Y022140D03*
X031850Y021825D03*
X032165Y021825D03*
X032165Y022140D03*
X032165Y022455D03*
X032480Y022455D03*
X032795Y022455D03*
X033110Y022455D03*
X033425Y022455D03*
X033740Y022455D03*
X034055Y022455D03*
X034055Y022140D03*
X033740Y022140D03*
X033425Y022140D03*
X033110Y022140D03*
X032795Y022140D03*
X032480Y022140D03*
X032480Y021825D03*
X032480Y021510D03*
X032165Y021510D03*
X032480Y021195D03*
X032480Y020880D03*
X032480Y020565D03*
X032480Y020250D03*
X032480Y019935D03*
X032480Y019620D03*
X032480Y019305D03*
X032480Y018990D03*
X032165Y018990D03*
X031850Y018990D03*
X031535Y018990D03*
X031220Y018990D03*
X030905Y018990D03*
X030905Y018675D03*
X030905Y018360D03*
X030905Y018045D03*
X030905Y017730D03*
X030905Y017415D03*
X031220Y017415D03*
X031220Y017730D03*
X031220Y018045D03*
X031220Y018360D03*
X031220Y018675D03*
X031535Y018675D03*
X031535Y018360D03*
X031535Y018045D03*
X031535Y017730D03*
X031535Y017415D03*
X031850Y017415D03*
X032165Y017415D03*
X032480Y017415D03*
X032795Y017415D03*
X033110Y017415D03*
X033425Y017415D03*
X033740Y017415D03*
X034055Y017415D03*
X034055Y017730D03*
X033740Y017730D03*
X033425Y017730D03*
X033110Y017730D03*
X032795Y017730D03*
X032480Y017730D03*
X032165Y017730D03*
X031850Y017730D03*
X031850Y018045D03*
X031850Y018360D03*
X031850Y018675D03*
X032165Y018675D03*
X032165Y018360D03*
X032165Y018045D03*
X032480Y018045D03*
X032795Y018045D03*
X033110Y018045D03*
X033425Y018045D03*
X033740Y018045D03*
X034055Y018045D03*
X034055Y018360D03*
X033740Y018360D03*
X033425Y018360D03*
X033110Y018360D03*
X032795Y018360D03*
X032480Y018360D03*
X032480Y018675D03*
X032795Y018675D03*
X032795Y018990D03*
X032795Y019305D03*
X032795Y019620D03*
X032795Y019935D03*
X032795Y020250D03*
X032795Y020565D03*
X032795Y020880D03*
X032795Y021195D03*
X032795Y021510D03*
X032795Y021825D03*
X033110Y021825D03*
X033425Y021825D03*
X033740Y021825D03*
X034055Y021825D03*
X034055Y021510D03*
X033740Y021510D03*
X033425Y021510D03*
X033110Y021510D03*
X033110Y021195D03*
X033110Y020880D03*
X033110Y020565D03*
X033110Y020250D03*
X033110Y019935D03*
X033110Y019620D03*
X033110Y019305D03*
X033110Y018990D03*
X033110Y018675D03*
X033425Y018675D03*
X033740Y018675D03*
X034055Y018675D03*
X034055Y018990D03*
X033740Y018990D03*
X033425Y018990D03*
X033425Y019305D03*
X033425Y019620D03*
X033425Y019935D03*
X033425Y020250D03*
X033425Y020565D03*
X033425Y020880D03*
X033425Y021195D03*
X033740Y021195D03*
X034055Y021195D03*
X034055Y020880D03*
X033740Y020880D03*
X033740Y020565D03*
X033740Y020250D03*
X033740Y019935D03*
X033740Y019620D03*
X033740Y019305D03*
X034055Y019305D03*
X034055Y019620D03*
X034055Y019935D03*
X034055Y020250D03*
X034055Y020565D03*
D37*
X023423Y016337D03*
X023423Y015337D03*
X023423Y014337D03*
X020037Y014337D03*
X020037Y015337D03*
X020037Y016337D03*
D38*
X017181Y016437D03*
X017181Y016181D03*
X017181Y016693D03*
X017181Y016949D03*
X017211Y017941D03*
X017211Y018197D03*
X017211Y018453D03*
X017211Y018709D03*
X017211Y020466D03*
X017211Y020722D03*
X017211Y020978D03*
X017211Y021234D03*
X015479Y021234D03*
X015479Y020978D03*
X015479Y020722D03*
X015479Y020466D03*
X015479Y018709D03*
X015479Y018453D03*
X015479Y018197D03*
X015479Y017941D03*
X015449Y016949D03*
X015449Y016693D03*
X015449Y016437D03*
X015449Y016181D03*
X030840Y011430D03*
X030840Y011174D03*
X030840Y010918D03*
X030840Y010662D03*
X032572Y010662D03*
X032572Y010918D03*
X032572Y011174D03*
X032572Y011430D03*
D39*
X002409Y011982D03*
X002409Y008478D03*
D40*
X004732Y008478D03*
X004732Y011982D03*
D41*
X004771Y010860D03*
X004771Y010545D03*
X004771Y010230D03*
X004771Y009915D03*
X004771Y009600D03*
D42*
X029815Y007000D03*
X034335Y006980D03*
D43*
X033244Y006980D03*
X035426Y006980D03*
X030906Y007000D03*
X028724Y007000D03*
M02*
